<?xml version="1.0" encoding="UTF-8"?>
<svg id="Layer_1" data-name="Layer 1" xmlns="http://www.w3.org/2000/svg" viewBox="0 0 500 500">
  <defs>
    <style>
      .cls-1 {
        fill: #fff;
      }

      .cls-2 {
        fill: #831618;
      }

      .cls-3 {
        fill: #1b2251;
      }

      .cls-4 {
        fill: #0f592d;
      }
    </style>
  </defs>
  <g>
    <g>
      <path d="M391.84,305.7c0-77.84,.02-155.7,0-233.54,0-10.31-3.95-18.92-11.49-25.92-7.18-6.67-15.82-9.34-25.47-9.32-20.07,.03-40.14,.03-60.21,.03-59.06,0-118.11-.02-177.16-.03-11.34,0-20.72,4.34-28.15,12.89-6.27,7.22-8.35,15.73-8.34,25.12,.08,59.52,.04,119.04,.04,178.55,0,49.66-.01,99.31,0,148.97,0,11.71-.06,23.43,.17,35.14,.17,8.21,3.52,15.25,9.04,21.3,8.08,8.86,18.27,11.9,30.02,11.88,72.97-.12,145.95-.03,218.92-.1,7.99-.01,16.05,.84,23.98-.63,17.04-3.17,28.65-17.63,28.66-35.57,.03-42.93-.01-85.85-.01-128.78Zm-2.43-51.84h-.05c0,59.4,0,118.79,0,178.2,0,5.01-.29,9.96-2.06,14.73-4.8,12.96-17.23,21.4-31.66,21.4-77.27,0-154.53-.02-231.79-.03-2.55,0-5.11,.06-7.66-.03-18.18-.65-31.86-14.28-32.59-32.44-.03-.93-.02-1.85-.02-2.78,0-119.38,.02-238.75-.03-358.13,0-9.73,2.62-18.27,9.62-25.26,6.96-6.93,15.36-10.01,25.14-10,56.96,.06,113.93,.03,170.89,.03,22.28,0,44.55-.09,66.82,.03,16.55,.09,29.64,10.91,32.75,26.74,.84,4.24,.62,8.55,.63,12.84,0,58.24,0,116.48,0,174.72Z"/>
      <path class="cls-1" d="M389.41,253.86h-.05c0,59.4,0,118.79,0,178.2,0,5.01-.29,9.96-2.06,14.73-4.8,12.96-17.23,21.4-31.66,21.4-77.27,0-154.53-.02-231.79-.03-2.55,0-5.11,.06-7.66-.03-18.18-.65-31.86-14.28-32.59-32.44-.03-.93-.02-1.85-.02-2.78,0-119.38,.02-238.75-.03-358.13,0-9.73,2.62-18.27,9.62-25.26,6.96-6.93,15.36-10.01,25.14-10,56.96,.06,113.93,.03,170.89,.03,22.28,0,44.55-.09,66.82,.03,16.55,.09,29.64,10.91,32.75,26.74,.84,4.24,.62,8.55,.63,12.84,0,58.24,0,116.48,0,174.72Z"/>
    </g>
    <path class="cls-3" d="M128.85,91.36v-.21c6.84-2.97,10.27-8.81,10.27-15.67,0-8.09-4.96-15.87-15.91-15.87-5.99,0-11.64,2.56-14.54,5.12l1.97,6.55c2.4-2.05,6.67-4.4,11.12-4.4,6.93,0,9.75,4.71,9.75,10.03,0,7.88-6.93,11.26-12.41,11.26h-4.19v6.76h4.19c7.27,0,14.29,3.99,14.37,13.31,.09,5.53-2.91,12.9-12.58,12.9-5.22,0-10.18-2.56-12.32-4.2l-2.05,6.96c2.74,2.15,8.21,4.51,14.46,4.51,13.35,0,20.28-9.32,20.28-19.97,0-9.32-5.56-15.46-12.41-17.1Z"/>
  </g>
  <g>
    <path class="cls-4" d="M181.64,360.3c0-2.35,.01-4.7,0-7.05-.02-2.24-.36-4.49-2.7-5.41-2.4-.94-4.37-.14-6.27,1.77-3.85,3.89-7.82,7.71-12.07,11.15-6.87,5.55-14.65,9.05-23.73,8.72-9.75-.36-12.08-4.55-7.58-13.35,2.65-5.18,6.8-9.11,11.02-12.87,4.42-3.94,5.19-7.4,1.47-12.52-5.52-7.58-10.42-15.66-13.02-24.84-.51-1.81-1.71-3.91,.23-5.4,1.51-1.16,3.45-.44,5.04,.3,8.53,3.93,17.06,7.87,25.52,11.95,3.01,1.46,5.47,3.7,7.57,6.38,3.86,4.94,7.75,9.85,11.82,14.62,5.25,6.15,11.34,6.9,18.29,2.6,8.41-5.21,14.86-12.16,18.4-21.46,1.7-4.47,4.37-7.17,9.23-7.8,5.52-.71,9.65-3.8,13.21-8.01,5.6-6.64,9.82-6.03,12.99,1.77,2.08,5.14,5.9,6.78,11.11,6.84,9.58,.12,10.59,1.41,8.92,10.76-.48,2.69-1.13,5.37-1.97,7.97-.66,2.05-2.39,3.18-4.52,3.11-2.27-.07-3.27-1.72-3.94-3.74-2.6-7.89-13.63-12.27-20.96-8.16-2.54,1.42-5.11,2.01-7.86,1.82-5.41-.37-8.83,2.15-11.21,6.82-3.68,7.23-9.24,12.51-16.81,15.66-6.13,2.55-9.48,7.16-10.25,13.85-.72,6.31-.39,12.53,.82,18.7,.4,2.06,1.4,4.06,2.45,5.91,.86,1.52,2.17,3,4.24,2.42,2.02-.57,2.47-2.33,2.49-4.2,.04-3.13-.13-6.28,.08-9.4,.3-4.34,3.31-5.96,6.75-3.3,10.96,8.48,20.85,17.99,25.07,31.74,1.73,5.63,4.97,8.75,10.6,10.5,9.35,2.92,18.42,6.5,28.54,5.95,6.73-.37,13.06-1.27,19.2-4.49,9.7-5.08,20.65-.34,21.49,8.75,.26,2.83-.23,5.7-3.67,5.29-11.04-1.29-21.81,1.66-32.78,1.6-9.63-.05-19.15-.18-28.55-2.66-7.94-2.09-15.32-.98-22.36,3.82-13.4,9.12-28.09,13.78-44.49,10.72-2.53-.47-6.14-.15-6.72-3.55-.52-3,2-4.99,4.44-6.33,6.46-3.56,10.28-10.62,17.86-12.89,2.82-.84,5.65-3.89,3.05-7.44-2.68-3.65-5.92-2.11-8.52,.45-5.33,5.24-11.08,9.87-17.49,13.76-7.1,4.31-14.57,6.46-22.91,5.82-4.28-.33-8.61,.01-12.92-.06-2.28-.04-4.96,.6-6.37-1.91-1.56-2.78,.57-4.84,1.92-6.89,4.97-7.53,11.69-13.07,19.69-17.17,6.2-3.18,6.49-5.46,1.49-10.46-2.89-2.89-6.38-5.13-8.46-8.87-1.65-2.96-1.49-4.55,2.11-5.47,8.89-2.27,17.58-5.65,27-4.76,3.17,.3,4.23-1,3.97-4.04-.19-2.33-.04-4.7-.04-7.05,.04,0,.07,0,.11,0Zm-.04,32.03c2.36-.28,4.64-.38,6.77,1.1,1.25,.87,3,3.24,4.18,.93,1.05-2.04,1.38-6.33-1.26-6.7-6.04-.85-11.14-5.01-17.41-4.5-1.56,.13-3.28,.34-3.9,2.08-.63,1.77,.61,3,1.81,4,2.82,2.38,6.15,3.33,9.83,3.08Zm23.26,31.51c3.8,.02,7-1.46,10.2-2.88,1.32-.59,3.57-.76,3.04-2.82-.58-2.26-2.79-2.61-4.79-2.1-3.2,.81-6.36,1.83-9.48,2.91-1.54,.53-4.04,.61-3.63,2.96,.46,2.64,3.05,1.67,4.66,1.93Zm12.17-38.42c-2.47,.33-3.66,1.49-2.29,3.9,1.33,2.35,2.67,4.77,4.44,6.78,1.79,2.03,3.82,6.3,6.21,4.71,2.4-1.59-.64-5.19-1.78-7.72-1.42-3.14-2.78-6.47-6.57-7.67Zm-59.19,30.29c3.82-1.53,8.18-3.22,12.47-5.06,.91-.39,1.28-1.46,.88-2.52-.49-1.3-1.56-1.71-2.82-1.5-4.68,.79-9.06,2.34-13,5.04-1.04,.71-1.79,1.61-1.19,2.92,.61,1.34,1.92,1.05,3.68,1.12Zm-8.29-62.47c3.82-1.89,7.77-3.67,10.76-6.79,1.62-1.69,.37-3-1.59-2.94-4.77,.16-8.6,2.4-11.3,6.24-1.53,2.16,.08,3.05,2.14,3.48Zm3.87-12.33c3.08-.14,5.44-1.32,5.66-4.69,.15-2.46-1.91-2.7-3.72-2.63-3.15,.12-6.27,1.33-6.73,4.53-.45,3.12,2.85,2.34,4.8,2.79Zm5.26-15.17c.14-2.09-3.88-5.97-6.36-6.18-1.08-.09-1.95,.16-2.22,1.33-.38,1.64,4.77,6.63,6.75,6.61,1.19-.01,1.74-.64,1.83-1.76Z"/>
    <path class="cls-4" d="M232.43,240.12c-.14,5.43-1.26,11.11,5.46,14.04,2.33,1.02,2.02,3.52,1.31,5.73-1.5,4.68-1.24,9.23,.91,13.7,1.18,2.45,1.54,5.25-.83,7-3.91,2.9-8.31,2.92-12.82,1.09-2.94-1.19-3.64-3.38-3.13-6.15,1.59-8.52-1.33-15.73-6.11-22.54-1.4-2-2.91-3.29-5.32-2.54-8.36,2.61-17.04,2.2-25.61,2.83-7.5,.55-12.87,4.24-16.3,10.82-2.81,5.38-5.56,10.79-8.22,16.24-1.73,3.54-3.89,4.34-7.5,2.29-17.84-10.18-27.22-25.96-30.35-45.78-.95-6,1.51-7.72,6.99-5.38,6.84,2.93,13.57,6.09,19.81,10.22,2.17,1.43,3.99,3.11,5.33,5.34,1.26,2.1,1.99,5.06,5.47,4.12,2.92-.79,4.54-3.03,5.34-5.76,.89-3.02,.51-5.91-2.19-7.94-1.06-.8-2.44-1.19-3.69-1.73-3.05-1.31-6.22-2.39-9.14-3.94-23.28-12.35-25.01-18.33-24.7-44.14,.06-4.95,1.87-5.87,6.36-3.4,6.75,3.71,11.02,10.58,17.8,14.28,2.26,1.23,4.38,4.84,6.95,2.82,2.89-2.27,.98-5.84-.38-8.62-3.18-6.47-7.46-12.36-9.22-19.57-2.83-11.63-1.51-22.91,2.05-34.11,1.49-4.7,4.01-4.61,7.28-1.73,9.22,8.11,13.68,18.92,16.92,30.31,2.49,8.76,3.05,17.72,1.35,26.75-.32,1.72-.56,3.48-.64,5.24-.57,13.33,.85,14.5,13.92,12.36,7.44-1.22,14.87-1.64,21.44,3.21,3.1,2.29,3.99,4.13,.07,7.1-8.57,6.49-16.33,14.26-28.07,14.58-1,.03-2.13,.46-2.02,1.64,.19,1.96,1.93,1.61,3.2,1.62,9.45,.09,18.78-.46,27.63-4.35,4.12-1.81,8.42-3.18,12.64-4.76,7.11-2.67,8.42-1.77,8.17,5.61-.04,1.17-.11,2.35-.16,3.52Zm-90.6,13.01c.93,3.72,3.08,7.18,5.62,10.43,.62,.8,1.5,1.36,2.53,.65,.89-.61,1.25-1.63,.91-2.58-1.31-3.67-2.66-7.34-4.18-10.93-.56-1.32-1.81-2.11-3.39-1.45-1.59,.66-1.45,2.13-1.49,3.88Zm3.97-46.26c-.51,.25-1.52,.5-2.16,1.12-.86,.84-.32,1.83,.37,2.58,2.78,3.02,5.54,6.07,8.43,8.98,1.14,1.15,2.53,1.35,3.07-.68,.69-2.59-6.54-11.84-9.71-12.01Zm47.67,15.96c-.03-1.54-.79-2.23-1.79-2.28-3.36-.16-6.63,.13-8.8,3.24-.71,1.02-1.07,2.18-.05,3.13,1.68,1.57,3.31,.39,4.75-.49,2.02-1.24,5.06-1,5.89-3.6Zm-34.39-57.65c.64,2.68-.03,6.86,3.57,8.49,1.8,.82,2.05-1.92,1.7-3.32-.8-3.22-.02-7.42-3.94-8.93-1.29-.5-1.53,1.78-1.33,3.76Z"/>
    <path class="cls-4" d="M305.46,288.42c5.67,0,10.68-.03,15.69,.01,3.22,.03,5.92,1.3,4.53,4.91-5.29,13.66-12.1,26.42-25.3,34.16-6.43,3.77-13.64,2.65-20.66,1.71-2.41-.32-3.33-1.89-3.29-4.09,.04-2.14-.21-4.46,.51-6.39,2.97-7.96,.38-14.31-4.65-20.53-9.96-12.3-15.66-26.13-13.68-42.36,.28-2.28-.18-5.26,2.18-6.3,2.36-1.03,4.35,1.23,6.13,2.66,6.47,5.18,11.86,11.34,16.35,18.32,1.01,1.57,2.23,4.08,4.39,2.92,2.58-1.39,.24-3.42-.52-4.96-1.12-2.27-2.31-4.6-3.96-6.49-9.95-11.45-11.14-25.04-9.79-39.25,.66-6.97,2.62-7.76,8.54-3.67,6.03,4.17,10.79,9.58,15.15,15.4,1.12,1.5,2.05,3.89,4.35,3.31,2.02-.5,2.58-2.75,3.15-4.65,3.46-11.41,6.92-22.83,10.42-34.23,.51-1.67,1.13-3.32,1.83-4.91,1.57-3.58,4.47-3.27,7.45-2.33,3.33,1.06,3.16,3.55,2.28,6.19-4.37,12.97-8.77,25.92-13.13,38.9-.72,2.14-2.47,4.71-.22,6.48,1.94,1.53,4.52,.16,6.68-.65,2.74-1.03,5.32-2.59,8.12-3.33,5.14-1.36,7.41,.53,6.3,5.65-3.71,17.03-9.47,32.84-27.06,40.72-.34,.15-.68,.42-.9,.72-.22,.29-.3,.68-.87,2.09Zm-16.03,30.11c2.53,.21,18.89-12.59,19.29-14.88,.14-.81,.15-1.71-.7-1.98-.65-.2-1.67-.16-2.18,.23-5.73,4.36-11.41,8.79-17.07,13.25-.8,.63-1.16,1.63-.58,2.59,.26,.43,.93,.61,1.23,.79Zm-6.43-78.72c.45,3.16,.97,6.68,4.85,7.56,2.13,.48,2.34-1.81,1.94-3.3-.87-3.24-.53-7.69-4.45-8.75-2.85-.77-1.78,2.63-2.34,4.49Zm-8.62,34.68c-.99-.03-1.57,.23-1.86,1.13-.67,2.07,3.8,9.35,5.86,9.36,.48,0,1.23-.33,1.39-.71,.77-1.79-.06-3.42-.9-4.93-1.11-2.01-2.14-4.17-4.49-4.86Z"/>
    <path class="cls-2" d="M267.2,405.93c-13.89,.42-19.03-3.44-22.61-16.79-.96-3.59-1.48-7.49-3.29-10.63-9.91-17.25,6.66-44.67,31.95-45.37,12.26-.34,24.39,11.51,26.13,25.78,2.23,18.3-3.31,33.54-18.58,44.7-4.23,3.09-8.97,2.13-13.6,2.32Zm18.49-51.84c0-1.63-.41-3.63-2.71-4.03-2.29-.39-2.91,1.48-3.03,3.29-.13,2.05,.38,3.99,2.91,4.12,1.87,.1,2.68-1.2,2.83-3.38Zm-12.06,10.58c-.66-1.32-.69-3.8-3.26-3.7-2.16,.09-2.63,2.03-2.57,3.89,.06,2.03,1.28,3.37,3.24,3.43,1.91,.06,2.55-1.45,2.59-3.62Zm-21.24-10.51c2.13-.42,3.22-1.87,3.35-4.03,.07-1.23-.36-2.47-1.87-2.36-2.42,.16-3.02,2.2-3.47,4.07-.31,1.3,.44,2.21,1.99,2.33Zm28.01,28.81c1.73-.11,2.79-1.12,2.76-2.88-.03-1.64-.81-3.05-2.71-3.01-1.56,.04-2.33,1.19-2.48,2.65-.17,1.71,.39,2.99,2.43,3.23Z"/>
    <path class="cls-2" d="M215.55,287.53c-.41,11.14-3.68,21.46-8.4,31.5-3.14,6.68-9.11,10.03-14.68,13.88-2.57,1.77-5.31,.56-7.55-1.3-10.02-8.31-18.4-18.36-21.08-31.01-3.18-15.02,7.76-38.8,27.21-38.67,14.66,.1,24.98,10.94,24.5,25.6Z"/>
    <path class="cls-2" d="M339.57,166.39c-9.87-1.01-18.18-5.14-24.3-13.29-4.77-6.34-6.49-6.34-11.26,.07-2.1,2.82-4.25,5.61-6.41,8.38-2.03,2.6-4.93,3.81-7.99,4.6-2.41,.62-4.79,.36-6.3-1.88-1.86-2.76,.42-4.25,2.12-5.84,5.14-4.79,8.83-10.49,10.34-17.37,.78-3.58,1.4-7.21-1.71-10.45-4.88-5.08-3.17-13.23,3.66-15.71,4.34-1.57,4.95-4.14,5.01-7.97,.08-5.07,.4-10.16,.96-15.21,.54-4.84,3.34-7.48,8.4-6.63,4.95,.83,6.77,4.14,6.26,8.95-.23,2.14-.55,4.27-.66,6.41-.07,1.37,.06,2.92,1.47,3.6,1.45,.7,2.61-.38,3.66-1.23,2.64-2.14,4.85-5.65,9.03-2.95,3.68,2.38,4.74,6.1,4.66,10.18-.08,4.27-1.89,7.56-6.15,9.03-3.51,1.21-7.17,2.04-10.56,3.5-4.85,2.09-5.91,6.62-2.27,10.42,7.69,8.01,14.8,16.71,25.11,21.79,3.17,1.56,7.69,3.12,6.25,7.89-1.28,4.24-5.84,2.91-9.32,3.73Z"/>
    <path class="cls-2" d="M289.38,93.71c-.14,3.11-1.42,5.33-3.56,6.86-4.25,3.04-3.58,6.43-.31,9.25,4.78,4.11,4.92,7.98,.78,12.47-2.98,3.23-1.78,5.72,1.26,8.38,5.6,4.89,5.02,8.38-1.72,10.93-3.16,1.19-4.7,3.33-5.42,6.35-.88,3.67-.74,7.4-.24,11.1,.9,6.66-2.36,9.84-8.97,8.43-4.28-.92-7.37-3.72-9.47-7.36-1.91-3.31,.2-5.47,2.94-7.19,1.1-.69,2.76-1.43,1.7-3.1-.69-1.09-2.12-.65-3.28-.42-3.18,.64-5.53,2.85-8.28,4.31-2.06,1.1-4.47,2.15-6.51,.09-2.18-2.19-.59-4.32,.6-6.37,1.73-2.98,4.68-4.67,7.15-6.89,5.06-4.55,4.51-7.42-1.75-9.4-2.57-.82-4.01-2.44-4-5.11,0-3.26,1.65-5.67,4.61-6.9,3.25-1.35,6.65-2.33,9.94-3.59,1.43-.54,3.09-1.1,2.87-3.18-.2-1.83-1.6-2.57-3.07-3.21-7-3.06-7.89-7.43-2.2-12.8,3.69-3.48,7.79-6.56,11.87-9.6,3.32-2.48,6.98-2.24,10.55-.42,3.13,1.6,4.06,4.54,4.52,7.37Z"/>
    <path class="cls-4" d="M228.58,363.91c-4.67-.07-7.01-1.4-6.95-5.09,.05-3.43,1.81-5.47,5.41-5.34,3.35,.12,6.42,1.14,6.44,5.1,.01,3.79-2.65,5.27-4.89,5.34Z"/>
    <path class="cls-4" d="M223.64,334.3c.06-3.37,1.76-5.09,5.12-5.01,3.92,.09,4.76,2.72,4.79,5.98,.03,3.12-1.44,4.82-4.61,4.66-3.49-.18-5.31-2.09-5.29-5.63Z"/>
    <path class="cls-4" d="M210.27,352.49c-.08,3.68-2.11,4.86-4.94,5.02-3.05,.17-4.98-1.36-4.89-4.43,.08-2.85,1.78-4.8,4.81-4.82,2.97-.01,4.52,1.83,5.03,4.22Z"/>
  </g>
</svg>