<?xml version="1.0" encoding="UTF-8"?>
<svg id="Layer_1" data-name="Layer 1" xmlns="http://www.w3.org/2000/svg" viewBox="0 0 500 500">
  <defs>
    <style>
      .cls-1 {
        fill: #fff;
      }

      .cls-2 {
        fill: #831618;
      }
    </style>
  </defs>
  <g>
    <g>
      <path d="M411.65,291.39c0-77.26,.02-154.52,0-231.78,0-10.23-3.92-18.78-11.41-25.72-7.13-6.62-15.7-9.27-25.28-9.25-19.92,.03-39.84,.03-59.76,.03-58.61,0-117.22-.02-175.83-.03-11.25,0-20.56,4.3-27.93,12.8-6.22,7.16-8.29,15.61-8.28,24.93,.08,59.07,.04,118.14,.04,177.2,0,49.28-.01,98.56,0,147.85,0,11.62-.06,23.25,.17,34.87,.17,8.15,3.5,15.14,8.97,21.14,8.01,8.79,18.14,11.81,29.79,11.79,72.42-.12,144.85-.03,217.27-.1,7.93-.01,15.93,.83,23.79-.63,16.91-3.15,28.43-17.49,28.44-35.31,.03-42.6-.01-85.2-.01-127.81Zm-2.41-51.45h-.05c0,58.95,0,117.9,0,176.85,0,4.97-.29,9.89-2.05,14.62-4.77,12.86-17.1,21.24-31.42,21.24-76.68,0-153.37-.02-230.04-.03-2.54,0-5.07,.06-7.6-.03-18.05-.64-31.62-14.17-32.34-32.2-.03-.92-.02-1.84-.02-2.76,0-118.48,.02-236.95-.03-355.43,0-9.66,2.6-18.14,9.55-25.07,6.91-6.88,15.25-9.94,24.95-9.93,56.53,.06,113.07,.03,169.6,.03,22.11,0,44.22-.09,66.32,.03,16.42,.09,29.42,10.83,32.51,26.54,.83,4.21,.62,8.48,.62,12.74,0,57.8,0,115.6,0,173.4Z"/>
      <path class="cls-1" d="M409.24,239.93h-.05c0,58.95,0,117.9,0,176.85,0,4.97-.29,9.89-2.05,14.62-4.77,12.86-17.1,21.24-31.42,21.24-76.68,0-153.37-.02-230.04-.03-2.54,0-5.07,.06-7.6-.03-18.05-.64-31.62-14.17-32.34-32.2-.03-.92-.02-1.84-.02-2.76,0-118.48,.02-236.95-.03-355.43,0-9.66,2.6-18.14,9.55-25.07,6.91-6.88,15.25-9.94,24.95-9.93,56.53,.06,113.07,.03,169.6,.03,22.11,0,44.22-.09,66.32,.03,16.42,.09,29.42,10.83,32.51,26.54,.83,4.21,.62,8.48,.62,12.74,0,57.8,0,115.6,0,173.4Z"/>
    </g>
    <path class="cls-2" d="M167.5,112.65c-2.77,1.64-8.32,3.28-15.43,3.28-16.47,0-28.87-12.3-28.87-34.96s12.4-36.29,30.52-36.29c7.28,0,11.88,1.85,13.87,3.08l-1.82,7.28c-2.86-1.64-6.94-2.87-11.79-2.87-13.7,0-22.8,10.35-22.8,28.5,0,16.92,8.24,27.78,22.45,27.78,4.59,0,9.28-1.13,12.31-2.87l1.56,7.07Z"/>
  </g>
  <path class="cls-2" d="M245.58,330.11c0-18.51-.07-37.02,.05-55.52,.03-3.96-1.57-4.88-5.05-3.87-6.64,1.92-13.23,4.1-19.96,5.6-8.67,1.92-11.69,1.68-12.16-7.62-.17-3.35-2.91-5.82-5.17-8.2-5.73-6.02-11.84-11.63-18.21-16.97-5.6-4.69-10.43-10.07-14.77-15.94-6.26-8.47-4.62-17.25-1.39-26.14,1.19-3.27,3.16-1.77,4.83-.45,5.56,4.39,11.2,8.68,16.55,13.32,5.7,4.94,11.6,5.82,18.69,3.09,10.64-4.09,21.52-7.55,31.99-12.15,3.54-1.56,4.87-3.7,4.53-7.6-1.07-12.01-.04-24.27-4.77-35.81-1.78-4.35-4.06-7.86-8.91-9.35-3.13-.96-5.43-7.72-4.24-12.24,2.88-10.96,11.21-17.53,19.75-23.86,1.41-1.04,2.65-.13,3.84,.52,14.1,7.61,22.81,19.84,28.63,34.28,1.75,4.34,.99,8.91-2.81,12.39-8.43,7.71-10.06,18.14-11.56,28.66-.57,4,1.2,3.87,3.99,2.8,11.61-4.47,23.22-8.94,34.86-13.33,11.25-4.25,13.87-3.48,21.6,5.39,3.86,4.43,7.97,8.63,12.01,12.89,4.32,4.55,8.17,9.44,10.19,15.47,1.93,5.76,.01,8.51-5.99,8.75-7.34,.29-13.1,2.7-17.3,9.37-4.5,7.14-10.03,13.64-15.17,20.38-3.06,4.01-5.8,7.93-6.06,13.4-.21,4.37-4,6.64-8.64,6.04-8.74-1.13-17.37-3.01-26.21-3.54-4.39-.27-6.03,.72-6.13,5.53-.54,25.78-.46,51.52,1.5,77.26,1.17,15.38-1.43,30.35-6.89,44.78-.91,2.41-2.17,4.7-3.42,6.97-1.23,2.24-2.52,1.98-3.68-.14-1.18-2.15-1.81-4.47-2.26-6.86-2.57-13.69-2.67-27.5-2.33-41.37,.21-8.64,.04-17.29,.04-25.93,.01,0,.02,0,.03,0Zm17.66-87.67c0,2.1,.13,6.08-.04,10.05-.12,2.84,.87,3.79,3.79,4.13,9.21,1.07,17.09-.17,21.27-9.83,.47-1.08,1.42-1.95,2.08-2.96,6.52-9.94,14.19-19.27,17.6-30.92,2.61-8.9-.46-12.61-9.64-11.89-10.41,.82-20.31,3.92-30.09,7.46-2.62,.95-3.23,2.73-3.35,5.16-.46,8.98-1,17.95-1.62,28.81Zm-18.05-4.85s-.01,0-.02,0c0-5.01,0-10.02,0-15.03,0-6.77-.02-6.71-6.12-4.2-8.91,3.65-17.22,9.04-27.03,10.12-3.48,.38-3.77,1.13-1.97,3.9,4.05,6.22,8.08,12.46,11.79,18.88,6.36,10.98,6.26,11.04,18.76,7.84,.33-.09,.66-.21,1-.25,2.76-.35,3.68-1.98,3.62-4.66-.12-5.53-.04-11.06-.04-16.59Z"/>
</svg>