<?xml version="1.0" encoding="UTF-8"?>
<svg id="Layer_1" data-name="Layer 1" xmlns="http://www.w3.org/2000/svg" viewBox="0 0 500 500">
  <defs>
    <style>
      .cls-1 {
        fill: #fff;
      }

      .cls-2 {
        fill: #831618;
      }
    </style>
  </defs>
  <g>
    <g>
      <path d="M405.25,293.71c0-77.84,.02-155.7,0-233.54,0-10.31-3.95-18.92-11.49-25.92-7.18-6.67-15.82-9.34-25.47-9.32-20.07,.03-40.14,.03-60.21,.03-59.06,0-118.11-.02-177.16-.03-11.34,0-20.72,4.34-28.15,12.89-6.27,7.22-8.35,15.73-8.34,25.12,.08,59.52,.04,119.04,.04,178.55,0,49.66-.01,99.31,0,148.97,0,11.71-.06,23.43,.17,35.14,.17,8.21,3.52,15.25,9.04,21.3,8.08,8.86,18.27,11.9,30.02,11.88,72.97-.12,145.95-.03,218.92-.1,7.99-.01,16.05,.84,23.98-.63,17.04-3.17,28.65-17.63,28.66-35.57,.03-42.93-.01-85.85-.01-128.78Zm-2.43-51.84h-.05c0,59.4,0,118.79,0,178.2,0,5.01-.29,9.96-2.06,14.73-4.8,12.96-17.23,21.4-31.66,21.4-77.27,0-154.53-.02-231.79-.03-2.55,0-5.11,.06-7.66-.03-18.18-.65-31.86-14.28-32.59-32.44-.03-.93-.02-1.85-.02-2.78,0-119.38,.02-238.75-.03-358.13,0-9.73,2.62-18.27,9.62-25.26,6.96-6.93,15.36-10.01,25.14-10,56.96,.06,113.93,.03,170.89,.03,22.28,0,44.55-.09,66.82,.03,16.55,.09,29.64,10.91,32.75,26.74,.84,4.24,.62,8.55,.63,12.84,0,58.24,0,116.48,0,174.72Z"/>
      <path class="cls-1" d="M402.82,241.87h-.05c0,59.4,0,118.79,0,178.2,0,5.01-.29,9.96-2.06,14.73-4.8,12.96-17.23,21.4-31.66,21.4-77.27,0-154.53-.02-231.79-.03-2.55,0-5.11,.06-7.66-.03-18.18-.65-31.86-14.28-32.59-32.44-.03-.93-.02-1.85-.02-2.78,0-119.38,.02-238.75-.03-358.13,0-9.73,2.62-18.27,9.62-25.26,6.96-6.93,15.36-10.01,25.14-10,56.96,.06,113.93,.03,170.89,.03,22.28,0,44.55-.09,66.82,.03,16.55,.09,29.64,10.91,32.75,26.74,.84,4.24,.62,8.55,.63,12.84,0,58.24,0,116.48,0,174.72Z"/>
    </g>
    <path class="cls-2" d="M142.8,79.36v-.21c6.84-2.97,10.27-8.81,10.27-15.67,0-8.09-4.96-15.87-15.91-15.87-5.99,0-11.64,2.56-14.54,5.12l1.97,6.55c2.4-2.05,6.67-4.4,11.12-4.4,6.93,0,9.75,4.71,9.75,10.03,0,7.88-6.93,11.26-12.41,11.26h-4.19v6.76h4.19c7.27,0,14.29,3.99,14.37,13.31,.09,5.53-2.91,12.9-12.58,12.9-5.22,0-10.18-2.56-12.32-4.2l-2.05,6.96c2.74,2.15,8.21,4.51,14.46,4.51,13.35,0,20.28-9.32,20.28-19.97,0-9.32-5.56-15.46-12.41-17.1Z"/>
  </g>
  <g>
    <path class="cls-2" d="M202.3,344.35c.51-7.49,1.03-14.97,1.51-22.46,.17-2.65,1.09-4.44,4.06-4.94,20.08-3.35,39.56-9.25,59.36-13.81,4.24-.98,8.73-1.48,13.07-1.32,7.35,.28,9.95,3.85,7.88,10.91-4.83,16.5-7.24,33.2-6.19,50.43,.31,5.13,1.75,7.13,7.18,7.6,15.35,1.33,29.72,5.96,42.6,14.73,11.5,7.82,13.71,21.73,4.52,29.84-3.82,3.37-8.53,5.03-13.57,5.33-7.59,.45-14.83,2.12-21.79,5.15-8.12,3.54-16.07,1.95-24.05-.81-11.44-3.95-22.79-8.13-33.4-13.98-3.93-2.17-7.14-2.32-10.36,.88-2.61,2.59-5.68,3.08-9.12,1.99-1.57-.5-3.18-.88-4.78-1.27q-7.75-1.87-8.74,6.2c-.31,2.52-.21,5.55-3.4,6.22-3.29,.69-5.13-1.93-6.25-4.36-2.37-5.14-4.65-10.38-6.25-15.79-1.23-4.19-3.6-5.49-7.58-5.4-5.51,.11-10.96-.66-16.32-1.94-2.5-.6-4.88-1.45-7.09-2.84-3.32-2.1-6.1-4.72-4.64-8.91,1.57-4.51,5.52-2.26,8.52-2.03,4.73,.36,9.44,1.14,14.16,1.67,6.57,.74,6.99,.29,5.74-6.35-1.32-7.01-2.83-13.99-4.04-21.02-.47-2.75-1.95-6.44,1.49-7.88,3.28-1.38,5.87,1.43,7.81,3.88,3.24,4.12,4.57,9.11,5.68,14.13,.83,3.75,1.36,7.57,3.05,11.08,.56,1.15,.85,2.58,1.73,3.4,4.91,4.62,9.94,.47,14.84-.21,3-.42,6.89-.87,6.74-5.64-.06-2.01,.36-4.05,.15-6.03-.2-1.97,1.22-5.13-1.78-5.52-2.52-.33-5.51,.39-7.08,3.17-.99,1.75-1.82,3.61-2.9,5.3-2.82,4.41-4.02,4.37-6.65-.32-2.28-4.06-3.42-8.52-3.59-13.14-.19-5.3-.04-10.62-.04-15.93-.16,0-.32-.01-.48-.02Zm67.36,70.55c5.05,.04,8.9-1.07,12.02-3.88,5.14-4.62,11.16-6.67,17.96-7.12,3.26-.22,6.55-.84,9.69-1.75,3.79-1.1,6.27-3.79,6.83-7.8,.57-4.05-2.42-5.75-5.31-7.49-5.96-3.6-12.74-4.4-19.36-5.61-6.67-1.22-6.69-1.05-5.92,5.72,.43,3.79,1.48,7.77-2.34,10.6-4.33,3.19-9.09,5.44-14.47,6.26-2.34,.36-4.53,.3-5.38-2.4-1.39-4.41-4.06-3.87-7.15-2-2.03,1.24-4.02,2.55-6.07,3.76-1.82,1.08-2.53,2.2-.3,3.55,6.42,3.9,12.79,7.93,19.8,8.17Zm-31.34-45.71c-.15,7.53-.14,7.57,6.15,6.26,2.5-.52,4.97-1.17,7.41-1.92,8.52-2.61,8.98-3.51,7.81-12.38-.37-2.75-1.1-4.02-4.16-3-3.29,1.09-6.65,2.12-10.07,2.6-5.64,.8-8.08,3.68-7.15,8.44Zm20.42-28.33c-.59-.89,2.46-5.15-2.32-4.49-5.59,.77-11.24,1.93-16.5,3.9-4.31,1.61-3.02,6.27-2.72,9.68,.33,3.86,3.6,2.16,5.63,1.85,3.42-.51,6.74-1.7,10.15-2.24,4.58-.73,7-2.86,5.76-8.7Zm1.28-19.51c.72-4.31-.72-5.6-4.48-4.46-3.32,1-6.67,2.23-10.08,2.51-5.56,.46-7.28,3.63-7.84,8.56-.36,3.18,.17,4.57,3.67,3.76,3.91-.9,7.86-1.97,11.83-2.24,5.74-.4,7.64-3.35,6.9-8.12Zm-.77,64.22c.37-2.79-.35-4.39-3.55-3.47-4.73,1.36-9.49,2.62-14.2,4.02-3.46,1.03-2.71,3.91-2.43,6.37,.36,3.09,2.74,3.25,4.94,2.56,3.99-1.24,7.82-2.97,11.8-4.25,2.74-.88,3.89-2.49,3.44-5.23Zm-37.74,6.46c-2.75,.87-6.58,1.99-10.35,3.29-2.08,.72-5.03,.88-3.61,4.57,1.15,2.99,2.16,6.16,6.37,4.78,3.78-1.24,7.46-2.81,11.19-4.22,3.06-1.16,1.5-3.1,.82-4.87-.63-1.66-.08-4.4-4.43-3.54Zm4.29-43.14c-.62-1.85,1.34-5.23-3.02-5.43-5.68-.27-8.39,1.43-8.13,5.9,.14,2.42-1.63,6.32,3.22,6.6,5.92,.34,7.76-1.27,7.93-7.06Zm-11.15-18.06c-.14,2.4,.11,4.84,4.21,4.65,6-.28,8.27-2.59,8.28-8.56,0-2.66-1.34-2.89-3.42-2.84-7.16,.18-9.14,1.48-9.06,6.76Z"/>
    <path class="cls-2" d="M304.04,291.76c-20.7-.96-39.38,3.2-57.89,8.77-18.03,5.42-35.97,11.67-55.35,8.82-8.52-1.25-17.13-2.08-24.54-7.11-4.18-2.84-4.08-3.73,.35-6.15,5.52-3.01,11.2-4.02,17.46-2.64,11.98,2.64,23.98,5.21,36.42,3.59,3.85-.5,6.59-2.08,7.93-5.73,1.34-3.62,1.52-6.87-3.11-8.36-4.05-1.3-4.04-3.46-1.48-6.48,4.15-4.91,7.51-10.35,10.54-16.02,1.59-2.97,3.71-6.05,7.64-4.8,3.71,1.18,2.54,4.79,2.48,7.59-.14,7.26-2.74,13.96-4.88,20.76-.72,2.28-1.78,4.95,1.1,6.28,2.78,1.28,4.25-1.09,5.65-3.07,4.68-6.65,7.85-14.04,10.61-21.62,1.66-4.57,1.02-8.75-3.19-11.73-3.96-2.81-3.75-5.62-.67-8.97,3.81-4.14,8.42-6.95,13.56-9.07,2.85-1.17,4.9,.02,6.89,1.9,6.07,5.75,7.53,16.28,3.34,25.59-1.87,4.16-4.33,8.08-5.96,12.32-1.88,4.86-.77,6,4.46,4.9,14.38-3.03,28.86-4.88,43.6-4.34,3.52,.13,6.94,.63,10.25,1.65,2.79,.86,3.84,2.79,1.69,5.37-4.31,5.17-8.82,9.76-16.59,8.67-3.77-.53-7.68-.09-10.31-.09Z"/>
    <path d="M268.42,191.48c-14.08-1.61-26.01,2.02-37.77,6.27-18.55,6.7-37.41,11.69-57.33,11.46-4.23-.05-8.42-.25-12.38-1.99-1.55-.68-3.13-1.45-3.21-3.36-.08-1.98,1.57-2.83,3.07-3.47,7.27-3.1,14.78-6.14,22.6-6.53,25.76-1.29,50.04-8.87,74.39-16.3,7.36-2.24,14.72-4.46,22.16-6.4,5.87-1.53,11.71-.72,17.19,1.75,10.69,4.84,21.69,8.85,32.69,12.9,5.25,1.93,9.88,4.8,10.13,10.99,.25,6.39-2.86,11.67-7.56,15.81-2.23,1.96-4.97,1.65-7.75,.49-8.32-3.46-15.93-8.24-23.8-12.55-10.52-5.77-21.1-11.25-32.44-9.06Z"/>
    <path d="M214.08,145.14c-8.2-.25-14.72-2.31-20.47-6.59-3.1-2.31-3.93-4.64,0-7.16,5.52-3.55,11.18-5.6,18.03-4.91,15.26,1.55,29.66-3.28,44.11-7.11,12.71-3.37,25.28-7.24,37.92-10.85,2.31-.66,4.88-1.25,6.51,1.15,1.73,2.55,.33,4.93-1.2,7.06-5.55,7.71-11.75,13.64-22.09,15.42-17.26,2.97-34.23,7.64-51.37,11.43-4.09,.9-8.32,1.15-11.45,1.56Z"/>
    <path d="M207.31,160.9c9.6,.73,17.48-1.86,25.44-3.93,16.64-4.31,32.68-10.76,49.62-14.06,2.62-.51,5.68-1.97,7.6,.9,1.99,2.98,.56,6.23-1.24,8.71-2.55,3.53-5.46,6.98-9.79,8.5-18.84,6.6-37.73,13.12-57.56,16.02-11.39,1.67-22.62-.22-33.62-3.33-1.55-.44-3.31-1.07-3.62-2.97-.34-2.01,1.38-3.04,2.75-3.7,6.82-3.3,13.24-8.24,20.42-6.15Z"/>
  </g>
</svg>