  0
SECTION
  2
HEADER
  9
$ACADVER
  1
AC1032
  9
$ACADMAINTVER
 90
      228
  9
$DWGCODEPAGE
  3
ANSI_1252
  9
$REQUIREDVERSIONS
160
                 0
  9
$INSBASE
 10
0.0
 20
0.0
 30
0.0
  9
$EXTMIN
 10
1.000000000000000E+20
 20
1.000000000000000E+20
 30
1.000000000000000E+20
  9
$EXTMAX
 10
-1.000000000000000E+20
 20
-1.000000000000000E+20
 30
-1.000000000000000E+20
  9
$LIMMIN
 10
0.0
 20
0.0
  9
$LIMMAX
 10
12.0
 20
9.0
  9
$ORTHOMODE
 70
     0
  9
$REGENMODE
 70
     1
  9
$FILLMODE
 70
     1
  9
$QTEXTMODE
 70
     0
  9
$MIRRTEXT
 70
     0
  9
$LTSCALE
 40
1.0
  9
$ATTMODE
 70
     1
  9
$TEXTSIZE
 40
0.2
  9
$TRACEWID
 40
0.05
  9
$TEXTSTYLE
  7
Standard
  9
$CLAYER
  8
0
  9
$CELTYPE
  6
ByLayer
  9
$CECOLOR
 62
   256
  9
$CELTSCALE
 40
1.0
  9
$DISPSILH
 70
     0
  9
$DIMSCALE
 40
1.0
  9
$DIMASZ
 40
0.18
  9
$DIMEXO
 40
0.0625
  9
$DIMDLI
 40
0.38
  9
$DIMRND
 40
0.0
  9
$DIMDLE
 40
0.0
  9
$DIMEXE
 40
0.18
  9
$DIMTP
 40
0.0
  9
$DIMTM
 40
0.0
  9
$DIMTXT
 40
0.18
  9
$DIMCEN
 40
0.09
  9
$DIMTSZ
 40
0.0
  9
$DIMTOL
 70
     0
  9
$DIMLIM
 70
     0
  9
$DIMTIH
 70
     1
  9
$DIMTOH
 70
     1
  9
$DIMSE1
 70
     0
  9
$DIMSE2
 70
     0
  9
$DIMTAD
 70
     0
  9
$DIMZIN
 70
     0
  9
$DIMBLK
  1

  9
$DIMASO
 70
     1
  9
$DIMSHO
 70
     1
  9
$DIMPOST
  1

  9
$DIMAPOST
  1

  9
$DIMALT
 70
     0
  9
$DIMALTD
 70
     2
  9
$DIMALTF
 40
25.4
  9
$DIMLFAC
 40
1.0
  9
$DIMTOFL
 70
     0
  9
$DIMTVP
 40
0.0
  9
$DIMTIX
 70
     0
  9
$DIMSOXD
 70
     0
  9
$DIMSAH
 70
     0
  9
$DIMBLK1
  1

  9
$DIMBLK2
  1

  9
$DIMSTYLE
  2
Standard
  9
$DIMCLRD
 70
     0
  9
$DIMCLRE
 70
     0
  9
$DIMCLRT
 70
     0
  9
$DIMTFAC
 40
1.0
  9
$DIMGAP
 40
0.09
  9
$DIMJUST
 70
     0
  9
$DIMSD1
 70
     0
  9
$DIMSD2
 70
     0
  9
$DIMTOLJ
 70
     1
  9
$DIMTZIN
 70
     0
  9
$DIMALTZ
 70
     0
  9
$DIMALTTZ
 70
     0
  9
$DIMUPT
 70
     0
  9
$DIMDEC
 70
     4
  9
$DIMTDEC
 70
     4
  9
$DIMALTU
 70
     2
  9
$DIMALTTD
 70
     2
  9
$DIMTXSTY
  7
Standard
  9
$DIMAUNIT
 70
     0
  9
$DIMADEC
 70
     0
  9
$DIMALTRND
 40
0.0
  9
$DIMAZIN
 70
     0
  9
$DIMDSEP
 70
    46
  9
$DIMATFIT
 70
     3
  9
$DIMFRAC
 70
     0
  9
$DIMLDRBLK
  1

  9
$DIMLUNIT
 70
     2
  9
$DIMLWD
 70
    -2
  9
$DIMLWE
 70
    -2
  9
$DIMTMOVE
 70
     0
  9
$DIMFXL
 40
1.0
  9
$DIMFXLON
 70
     0
  9
$DIMJOGANG
 40
0.7853981633974483
  9
$DIMTFILL
 70
     0
  9
$DIMTFILLCLR
 70
     0
  9
$DIMARCSYM
 70
     0
  9
$DIMLTYPE
  6

  9
$DIMLTEX1
  6

  9
$DIMLTEX2
  6

  9
$DIMTXTDIRECTION
 70
     0
  9
$LUNITS
 70
     2
  9
$LUPREC
 70
     4
  9
$SKETCHINC
 40
0.1
  9
$FILLETRAD
 40
0.0
  9
$AUNITS
 70
     0
  9
$AUPREC
 70
     0
  9
$MENU
  1
.
  9
$ELEVATION
 40
0.0
  9
$PELEVATION
 40
0.0
  9
$THICKNESS
 40
0.0
  9
$LIMCHECK
 70
     0
  9
$CHAMFERA
 40
0.0
  9
$CHAMFERB
 40
0.0
  9
$CHAMFERC
 40
0.0
  9
$CHAMFERD
 40
0.0
  9
$SKPOLY
 70
     0
  9
$TDCREATE
 40
2460929.579016204
  9
$TDUCREATE
 40
2460929.370682871
  9
$TDUPDATE
 40
2460929.579016204
  9
$TDUUPDATE
 40
2460929.370682871
  9
$TDINDWG
 40
0.0000000000
  9
$TDUSRTIMER
 40
0.0000000000
  9
$USRTIMER
 70
     1
  9
$ANGBASE
 50
0.0
  9
$ANGDIR
 70
     0
  9
$PDMODE
 70
     0
  9
$PDSIZE
 40
0.0
  9
$PLINEWID
 40
0.0
  9
$SPLFRAME
 70
     0
  9
$SPLINETYPE
 70
     6
  9
$SPLINESEGS
 70
     8
  9
$HANDSEED
  5
9A
  9
$SURFTAB1
 70
     6
  9
$SURFTAB2
 70
     6
  9
$SURFTYPE
 70
     6
  9
$SURFU
 70
     6
  9
$SURFV
 70
     6
  9
$UCSBASE
  2

  9
$UCSNAME
  2

  9
$UCSORG
 10
0.0
 20
0.0
 30
0.0
  9
$UCSXDIR
 10
1.0
 20
0.0
 30
0.0
  9
$UCSYDIR
 10
0.0
 20
1.0
 30
0.0
  9
$UCSORTHOREF
  2

  9
$UCSORTHOVIEW
 70
     0
  9
$UCSORGTOP
 10
0.0
 20
0.0
 30
0.0
  9
$UCSORGBOTTOM
 10
0.0
 20
0.0
 30
0.0
  9
$UCSORGLEFT
 10
0.0
 20
0.0
 30
0.0
  9
$UCSORGRIGHT
 10
0.0
 20
0.0
 30
0.0
  9
$UCSORGFRONT
 10
0.0
 20
0.0
 30
0.0
  9
$UCSORGBACK
 10
0.0
 20
0.0
 30
0.0
  9
$PUCSBASE
  2

  9
$PUCSNAME
  2

  9
$PUCSORG
 10
0.0
 20
0.0
 30
0.0
  9
$PUCSXDIR
 10
1.0
 20
0.0
 30
0.0
  9
$PUCSYDIR
 10
0.0
 20
1.0
 30
0.0
  9
$PUCSORTHOREF
  2

  9
$PUCSORTHOVIEW
 70
     0
  9
$PUCSORGTOP
 10
0.0
 20
0.0
 30
0.0
  9
$PUCSORGBOTTOM
 10
0.0
 20
0.0
 30
0.0
  9
$PUCSORGLEFT
 10
0.0
 20
0.0
 30
0.0
  9
$PUCSORGRIGHT
 10
0.0
 20
0.0
 30
0.0
  9
$PUCSORGFRONT
 10
0.0
 20
0.0
 30
0.0
  9
$PUCSORGBACK
 10
0.0
 20
0.0
 30
0.0
  9
$USERI1
 70
     0
  9
$USERI2
 70
     0
  9
$USERI3
 70
     0
  9
$USERI4
 70
     0
  9
$USERI5
 70
     0
  9
$USERR1
 40
0.0
  9
$USERR2
 40
0.0
  9
$USERR3
 40
0.0
  9
$USERR4
 40
0.0
  9
$USERR5
 40
0.0
  9
$WORLDVIEW
 70
     1
  9
$SHADEDGE
 70
     3
  9
$SHADEDIF
 70
    70
  9
$TILEMODE
 70
     1
  9
$MAXACTVP
 70
    64
  9
$PINSBASE
 10
0.0
 20
0.0
 30
0.0
  9
$PLIMCHECK
 70
     0
  9
$PEXTMIN
 10
1.000000000000000E+20
 20
1.000000000000000E+20
 30
1.000000000000000E+20
  9
$PEXTMAX
 10
-1.000000000000000E+20
 20
-1.000000000000000E+20
 30
-1.000000000000000E+20
  9
$PLIMMIN
 10
0.0
 20
0.0
  9
$PLIMMAX
 10
12.0
 20
9.0
  9
$UNITMODE
 70
     0
  9
$VISRETAIN
 70
     1
  9
$PLINEGEN
 70
     0
  9
$PSLTSCALE
 70
     1
  9
$TREEDEPTH
 70
  3020
  9
$CMLSTYLE
  2
Standard
  9
$CMLJUST
 70
     0
  9
$CMLSCALE
 40
1.0
  9
$PROXYGRAPHICS
 70
     1
  9
$MEASUREMENT
 70
     0
  9
$CELWEIGHT
370
    -1
  9
$ENDCAPS
280
     0
  9
$JOINSTYLE
280
     0
  9
$LWDISPLAY
290
     1
  9
$INSUNITS
 70
     0
  9
$HYPERLINKBASE
  1

  9
$STYLESHEET
  1

  9
$XEDIT
290
     1
  9
$CEPSNTYPE
380
     0
  9
$PSTYLEMODE
290
     1
  9
$FINGERPRINTGUID
  2
{FC2A4C50-5C4C-314D-92F3-F040BCBFA43F}
  9
$VERSIONGUID
  2
{C9470956-C4AF-F648-825D-4F8064054530}
  9
$EXTNAMES
290
     1
  9
$PSVPSCALE
 40
0.0
  9
$OLESTARTUP
290
     0
  9
$SORTENTS
280
   127
  9
$INDEXCTL
280
     0
  9
$HIDETEXT
280
     1
  9
$XCLIPFRAME
280
     2
  9
$HALOGAP
280
     0
  9
$OBSCOLOR
 70
   257
  9
$OBSLTYPE
280
     0
  9
$INTERSECTIONDISPLAY
280
     0
  9
$INTERSECTIONCOLOR
 70
   257
  9
$DIMASSOC
280
     2
  9
$PROJECTNAME
  1

  9
$CAMERADISPLAY
290
     0
  9
$LENSLENGTH
 40
50.0
  9
$CAMERAHEIGHT
 40
0.0
  9
$STEPSPERSEC
 40
2.0
  9
$STEPSIZE
 40
6.0
  9
$3DDWFPREC
 40
2.0
  9
$PSOLWIDTH
 40
0.25
  9
$PSOLHEIGHT
 40
4.0
  9
$LOFTANG1
 40
1.570796326794896
  9
$LOFTANG2
 40
1.570796326794896
  9
$LOFTMAG1
 40
0.0
  9
$LOFTMAG2
 40
0.0
  9
$LOFTPARAM
 70
     7
  9
$LOFTNORMALS
280
     1
  9
$LATITUDE
 40
37.795
  9
$LONGITUDE
 40
-122.394
  9
$NORTHDIRECTION
 40
0.0
  9
$TIMEZONE
 70
 -8000
  9
$LIGHTGLYPHDISPLAY
280
     1
  9
$TILEMODELIGHTSYNCH
280
     1
  9
$CMATERIAL
347
11
  9
$SOLIDHIST
280
     0
  9
$SHOWHIST
280
     1
  9
$DWFFRAME
280
     2
  9
$DGNFRAME
280
     0
  9
$REALWORLDSCALE
290
     1
  9
$INTERFERECOLOR
 62
     1
  9
$INTERFEREOBJVS
345
33
  9
$INTERFEREVPVS
346
30
  9
$CSHADOW
280
     0
  9
$SHADOWPLANELOCATION
 40
0.0
  0
ENDSEC
  0
SECTION
  2
CLASSES
  0
CLASS
  1
ACDBDICTIONARYWDFLT
  2
AcDbDictionaryWithDefault
  3
ObjectDBX Classes
 90
        0
 91
        1
280
     0
281
     0
  0
CLASS
  1
MATERIAL
  2
AcDbMaterial
  3
ObjectDBX Classes
 90
     1153
 91
        3
280
     0
281
     0
  0
CLASS
  1
VISUALSTYLE
  2
AcDbVisualStyle
  3
ObjectDBX Classes
 90
     4095
 91
       24
280
     0
281
     0
  0
CLASS
  1
SCALE
  2
AcDbScale
  3
ObjectDBX Classes
 90
     1153
 91
       17
280
     0
281
     0
  0
CLASS
  1
TABLESTYLE
  2
AcDbTableStyle
  3
ObjectDBX Classes
 90
     4095
 91
        1
280
     0
281
     0
  0
CLASS
  1
MLEADERSTYLE
  2
AcDbMLeaderStyle
  3
ACDB_MLEADERSTYLE_CLASS
 90
     4095
 91
        1
280
     0
281
     0
  0
CLASS
  1
ACDBSECTIONVIEWSTYLE
  2
AcDbSectionViewStyle
  3
ObjectDBX Classes
 90
     1025
 91
        1
280
     0
281
     0
  0
CLASS
  1
ACDBDETAILVIEWSTYLE
  2
AcDbDetailViewStyle
  3
ObjectDBX Classes
 90
     1025
 91
        1
280
     0
281
     0
  0
CLASS
  1
DICTIONARYVAR
  2
AcDbDictionaryVar
  3
ObjectDBX Classes
 90
        0
 91
        5
280
     0
281
     0
  0
CLASS
  1
CELLSTYLEMAP
  2
AcDbCellStyleMap
  3
ObjectDBX Classes
 90
     1152
 91
        1
280
     0
281
     0
  0
ENDSEC
  0
SECTION
  2
TABLES
  0
TABLE
  2
VPORT
  5
8
330
0
100
AcDbSymbolTable
 70
     1
  0
VPORT
  5
57
330
8
100
AcDbSymbolTableRecord
100
AcDbViewportTableRecord
  2
*Active
 70
     0
 10
0.0
 20
0.0
 11
1.0
 21
1.0
 12
0.0
 22
0.0
 13
0.0
 23
0.0
 14
1.0
 24
1.0
 15
0.0
 25
0.0
 16
0.0
 26
0.0
 36
1.0
 17
2070.329143804109
 27
-1549.708560332395
 37
0.0
 40
3099.36839297975
 41
1.304893925962813
 42
50.0
 43
0.0
 44
0.0
 50
0.0
 51
0.0
 71
     0
 72
   100
 73
     1
 74
     1
 75
     0
 76
     0
 77
     0
 78
     0
281
     0
 65
     1
110
0.0
120
0.0
130
0.0
111
1.0
121
0.0
131
0.0
112
0.0
122
1.0
132
0.0
 79
     0
146
0.0
 60
     3
 61
     5
292
     1
282
     1
141
0.0
142
0.0
 63
   250
421
  3355443
  0
ENDTAB
  0
TABLE
  2
LTYPE
  5
5
330
0
100
AcDbSymbolTable
 70
     1
  0
LTYPE
  5
5B
330
5
100
AcDbSymbolTableRecord
100
AcDbLinetypeTableRecord
  2
ByBlock
 70
     0
  3

 72
    65
 73
     0
 40
0.0
  0
LTYPE
  5
5C
330
5
100
AcDbSymbolTableRecord
100
AcDbLinetypeTableRecord
  2
ByLayer
 70
     0
  3

 72
    65
 73
     0
 40
0.0
  0
LTYPE
  5
5D
330
5
100
AcDbSymbolTableRecord
100
AcDbLinetypeTableRecord
  2
Continuous
 70
     0
  3
Solid line
 72
    65
 73
     0
 40
0.0
  0
ENDTAB
  0
TABLE
  2
LAYER
  5
2
330
0
100
AcDbSymbolTable
 70
     2
  0
LAYER
  5
54
330
2
100
AcDbSymbolTableRecord
100
AcDbLayerTableRecord
  2
0
 70
     0
 62
     7
  6
Continuous
370
    -3
390
F
347
21
348
0
  0
LAYER
  5
78
330
2
100
AcDbSymbolTableRecord
100
AcDbLayerTableRecord
  2
Layer 1
 70
     0
 62
     7
  6
Continuous
370
     0
390
F
347
21
348
0
  0
ENDTAB
  0
TABLE
  2
STYLE
  5
3
330
0
100
AcDbSymbolTable
 70
     2
  0
STYLE
  5
55
330
3
100
AcDbSymbolTableRecord
100
AcDbTextStyleTableRecord
  2
Standard
 70
     0
 40
0.0
 41
1.0
 50
0.0
 71
     0
 42
0.2
  3
txt
  4

  0
STYLE
  5
5A
330
3
100
AcDbSymbolTableRecord
100
AcDbTextStyleTableRecord
  2
Annotative
 70
     0
 40
0.0
 41
1.0
 50
0.0
 71
     0
 42
0.2
  3
txt
  4

1001
AcadAnnotative
1000
AnnotativeData
1002
{
1070
     1
1070
     1
1002
}
  0
ENDTAB
  0
TABLE
  2
VIEW
  5
6
330
0
100
AcDbSymbolTable
 70
     0
  0
ENDTAB
  0
TABLE
  2
UCS
  5
7
330
0
100
AcDbSymbolTable
 70
     0
  0
ENDTAB
  0
TABLE
  2
APPID
  5
9
330
0
100
AcDbSymbolTable
 70
     2
  0
APPID
  5
56
330
9
100
AcDbSymbolTableRecord
100
AcDbRegAppTableRecord
  2
ACAD
 70
     0
  0
APPID
  5
5E
330
9
100
AcDbSymbolTableRecord
100
AcDbRegAppTableRecord
  2
AcadAnnotative
 70
     0
  0
ENDTAB
  0
TABLE
  2
DIMSTYLE
  5
A
330
0
100
AcDbSymbolTable
 70
     2
100
AcDbDimStyleTable
 71
     0
  0
DIMSTYLE
105
58
330
A
100
AcDbSymbolTableRecord
100
AcDbDimStyleTableRecord
  2
Standard
 70
     0
340
55
  0
DIMSTYLE
105
59
330
A
100
AcDbSymbolTableRecord
100
AcDbDimStyleTableRecord
  2
Annotative
 70
     0
340
55
1001
AcadAnnotative
1000
AnnotativeData
1002
{
1070
     1
1070
     1
1002
}
  0
ENDTAB
  0
TABLE
  2
BLOCK_RECORD
  5
1
330
0
100
AcDbSymbolTable
 70
     1
  0
BLOCK_RECORD
  5
70
330
1
100
AcDbSymbolTableRecord
100
AcDbBlockTableRecord
  2
*Model_Space
340
73
 70
     0
280
     1
281
     0
  0
BLOCK_RECORD
  5
6C
330
1
100
AcDbSymbolTableRecord
100
AcDbBlockTableRecord
  2
*Paper_Space
340
6F
 70
     0
280
     1
281
     0
  0
BLOCK_RECORD
  5
74
330
1
100
AcDbSymbolTableRecord
100
AcDbBlockTableRecord
  2
*Paper_Space0
340
77
 70
     0
280
     1
281
     0
  0
ENDTAB
  0
ENDSEC
  0
SECTION
  2
BLOCKS
  0
BLOCK
  5
71
330
70
100
AcDbEntity
  8
0
100
AcDbBlockBegin
  2
*Model_Space
 70
     0
 10
0.0
 20
0.0
 30
0.0
  3
*Model_Space
  1

  0
ENDBLK
  5
72
330
70
100
AcDbEntity
  8
0
100
AcDbBlockEnd
  0
BLOCK
  5
6D
330
6C
100
AcDbEntity
 67
     1
  8
0
100
AcDbBlockBegin
  2
*Paper_Space
 70
     0
 10
0.0
 20
0.0
 30
0.0
  3
*Paper_Space
  1

  0
ENDBLK
  5
6E
330
6C
100
AcDbEntity
 67
     1
  8
0
100
AcDbBlockEnd
  0
BLOCK
  5
75
330
74
100
AcDbEntity
 67
     1
  8
0
100
AcDbBlockBegin
  2
*Paper_Space0
 70
     0
 10
0.0
 20
0.0
 30
0.0
  3
*Paper_Space0
  1

  0
ENDBLK
  5
76
330
74
100
AcDbEntity
 67
     1
  8
0
100
AcDbBlockEnd
  0
ENDSEC
  0
SECTION
  2
ENTITIES
  0
SPLINE
  5
79
330
70
100
AcDbEntity
  8
Layer 1
100
AcDbSpline
210
0.0
220
0.0
230
1.0
 70
     9
 71
     3
 72
    53
 73
    49
 74
     0
 42
0.0000000001
 43
0.0000000001
 40
0.0
 40
0.0
 40
0.0
 40
0.0
 40
1.0
 40
1.0
 40
1.0
 40
2.0
 40
2.0
 40
2.0
 40
3.0
 40
3.0
 40
3.0
 40
4.0
 40
4.0
 40
4.0
 40
5.0
 40
5.0
 40
5.0
 40
6.0
 40
6.0
 40
6.0
 40
7.0
 40
7.0
 40
7.0
 40
8.0
 40
8.0
 40
8.0
 40
9.0
 40
9.0
 40
9.0
 40
10.0
 40
10.0
 40
10.0
 40
11.0
 40
11.0
 40
11.0
 40
12.0
 40
12.0
 40
12.0
 40
13.0
 40
13.0
 40
13.0
 40
14.0
 40
14.0
 40
14.0
 40
15.0
 40
15.0
 40
15.0
 40
16.0
 40
16.0
 40
16.0
 40
16.0
 10
2482.823826078393
 20
-1281.867610958128
 30
0.0
 10
2482.823826078393
 20
-1281.867610958128
 30
0.0
 10
2482.775132512907
 20
-1281.867610958128
 30
0.0
 10
2482.775132512907
 20
-1281.867610958128
 30
0.0
 10
2482.775132512907
 20
-1341.263690710071
 30
0.0
 10
2482.768164149262
 20
-1400.659770462014
 30
0.0
 10
2482.782100876557
 20
-1460.062776087583
 30
0.0
 10
2482.782100876557
 20
-1465.075111560534
 30
0.0
 10
2482.489684543536
 20
-1470.024816740715
 30
0.0
 10
2480.721504758247
 20
-1474.793471936151
 30
0.0
 10
2475.917922764533
 20
-1487.748934655737
 30
0.0
 10
2463.49163078186
 20
-1496.19331669468
 30
0.0
 10
2449.060234649918
 20
-1496.19331669468
 30
0.0
 10
2371.793828816439
 20
-1496.186348331033
 30
0.0
 10
2294.527422982961
 20
-1496.172454093761
 30
0.0
 10
2217.267985513128
 20
-1496.158517366468
 30
0.0
 10
2214.713060476139
 20
-1496.158517366468
 30
0.0
 10
2212.158220419193
 20
-1496.221147659242
 30
0.0
 10
2209.610263745846
 20
-1496.130686401906
 30
0.0
 10
2191.426658730374
 20
-1495.483223443087
 30
0.0
 10
2177.747166031901
 20
-1481.85250929014
 30
0.0
 10
2177.023221033062
 20
-1463.689766875585
 30
0.0
 10
2176.988379214829
 20
-1462.763866801062
 30
0.0
 10
2177.002315942122
 20
-1461.838009216561
 30
0.0
 10
2177.002315942122
 20
-1460.905140778392
 30
0.0
 10
2177.002315942122
 20
-1341.528233588506
 30
0.0
 10
2177.023221033062
 20
-1222.151283908599
 30
0.0
 10
2176.967474123889
 20
-1102.774376718713
 30
0.0
 10
2176.967474123889
 20
-1093.042122105828
 30
0.0
 10
2179.585029453656
 20
-1084.500267955878
 30
0.0
 10
2186.588404878517
 20
-1077.51082925831
 30
0.0
 10
2193.549970121503
 20
-1070.577137469911
 30
0.0
 10
2201.952541978566
 20
-1067.500180019739
 30
0.0
 10
2211.726521793284
 20
-1067.507148383385
 30
0.0
 10
2268.686096200207
 20
-1067.562725332471
 30
0.0
 10
2325.652638970773
 20
-1067.534936857928
 30
0.0
 10
2382.612043417607
 20
-1067.534936857928
 30
0.0
 10
2404.889052195156
 20
-1067.534936857928
 30
0.0
 10
2427.166060972706
 20
-1067.444433110569
 30
0.0
 10
2449.436186366654
 20
-1067.569693696117
 30
0.0
 10
2465.983755565989
 20
-1067.660282423521
 30
0.0
 10
2479.078500578464
 20
-1078.478582004732
 30
0.0
 10
2482.190299846865
 20
-1094.309174568876
 30
0.0
 10
2483.025738664052
 20
-1098.548659027398
 30
0.0
 10
2482.809974331142
 20
-1102.857912102427
 30
0.0
 10
2482.816857714745
 20
-1107.146260086516
 30
0.0
 10
2482.823826078393
 20
-1165.38665372369
 30
0.0
 10
2482.823826078393
 20
-1223.627217320954
 30
0.0
 10
2482.823826078393
 20
-1281.867610958128
 30
0.0
  0
SPLINE
  5
7A
330
70
100
AcDbEntity
  8
Layer 1
100
AcDbSpline
210
0.0
220
0.0
230
1.0
 70
     9
 71
     3
 72
    53
 73
    49
 74
     0
 42
0.0000000001
 43
0.0000000001
 40
0.0
 40
0.0
 40
0.0
 40
0.0
 40
1.0
 40
1.0
 40
1.0
 40
2.0
 40
2.0
 40
2.0
 40
3.0
 40
3.0
 40
3.0
 40
4.0
 40
4.0
 40
4.0
 40
5.0
 40
5.0
 40
5.0
 40
6.0
 40
6.0
 40
6.0
 40
7.0
 40
7.0
 40
7.0
 40
8.0
 40
8.0
 40
8.0
 40
9.0
 40
9.0
 40
9.0
 40
10.0
 40
10.0
 40
10.0
 40
11.0
 40
11.0
 40
11.0
 40
12.0
 40
12.0
 40
12.0
 40
13.0
 40
13.0
 40
13.0
 40
14.0
 40
14.0
 40
14.0
 40
15.0
 40
15.0
 40
15.0
 40
16.0
 40
16.0
 40
16.0
 40
16.0
 10
2485.253405549789
 20
-1333.710366927418
 30
0.0
 10
2485.253405549789
 20
-1255.866181771591
 30
0.0
 10
2485.274310640727
 20
-1178.015028252113
 30
0.0
 10
2485.260373913436
 20
-1100.170758116241
 30
0.0
 10
2485.260373913436
 20
-1089.86063920096
 30
0.0
 10
2481.306167464203
 20
-1081.249271374634
 30
0.0
 10
2473.766822898864
 20
-1074.252864313417
 30
0.0
 10
2466.582524959324
 20
-1067.583630423411
 30
0.0
 10
2457.943198698369
 20
-1064.910413164516
 30
0.0
 10
2448.294479469196
 20
-1064.931318255454
 30
0.0
 10
2428.224232486446
 20
-1064.966075093644
 30
0.0
 10
2408.154070483738
 20
-1064.966075093644
 30
0.0
 10
2388.083908481032
 20
-1064.966075093644
 30
0.0
 10
2329.028896137568
 20
-1064.959106729999
 30
0.0
 10
2269.97396877415
 20
-1064.945254982749
 30
0.0
 10
2210.919041410731
 20
-1064.938286619101
 30
0.0
 10
2199.578624436294
 20
-1064.938286619101
 30
0.0
 10
2190.201416449207
 20
-1069.275328168674
 30
0.0
 10
2182.773395742126
 20
-1077.831034065872
 30
0.0
 10
2176.501103639836
 20
-1085.050258803691
 30
0.0
 10
2174.419517450544
 20
-1093.564239499052
 30
0.0
 10
2174.433454177837
 20
-1102.955384213434
 30
0.0
 10
2174.516989561551
 20
-1162.476767040949
 30
0.0
 10
2174.475179379671
 20
-1221.991181504814
 30
0.0
 10
2174.475179379671
 20
-1281.505595968683
 30
0.0
 10
2174.475179379671
 20
-1331.162452744098
 30
0.0
 10
2174.46124265238
 20
-1380.819309519509
 30
0.0
 10
2174.482147743318
 20
-1430.4761238049
 30
0.0
 10
2174.482147743318
 20
-1442.185481642402
 30
0.0
 10
2174.419517450544
 20
-1453.901807843551
 30
0.0
 10
2174.656186874394
 20
-1465.611165681053
 30
0.0
 10
2174.823257641822
 20
-1473.82580416977
 30
0.0
 10
2178.178779677764
 20
-1480.863936432819
 30
0.0
 10
2183.692284962979
 20
-1486.913538328576
 30
0.0
 10
2191.767768628877
 20
-1495.768671412461
 30
0.0
 10
2201.966393725814
 20
-1498.817840388092
 30
0.0
 10
2213.71063587157
 20
-1498.796935297152
 30
0.0
 10
2286.681725357312
 20
-1498.678600585226
 30
0.0
 10
2359.659783206698
 20
-1498.769104332587
 30
0.0
 10
2432.630957672482
 20
-1498.699463186145
 30
0.0
 10
2440.622820974621
 20
-1498.685568948873
 30
0.0
 10
2448.684367913223
 20
-1499.534859513307
 30
0.0
 10
2456.606547578898
 20
-1498.065979444644
 30
0.0
 10
2473.648445696918
 20
-1494.891507393444
 30
0.0
 10
2485.253405549789
 20
-1480.439291150604
 30
0.0
 10
2485.267342277083
 20
-1462.492398049002
 30
0.0
 10
2485.30209911527
 20
-1419.56736296635
 30
0.0
 10
2485.253405549789
 20
-1376.64237037372
 30
0.0
 10
2485.253405549789
 20
-1333.710366927418
 30
0.0
  0
HATCH
  5
7B
330
70
100
AcDbEntity
  8
Layer 1
 62
    18
420
        0
440
 33554687
100
AcDbHatch
 10
0.0
 20
0.0
 30
0.0
210
0.0
220
0.0
230
1.0
  2
SOLID
 70
     1
 71
     1
 91
        2
 92
        1
 93
        1
 72
     4
 94
        3
 73
     0
 74
     0
 95
       53
 96
       49
 40
0.0
 40
0.0
 40
0.0
 40
0.0
 40
1.0
 40
1.0
 40
1.0
 40
2.0
 40
2.0
 40
2.0
 40
3.0
 40
3.0
 40
3.0
 40
4.0
 40
4.0
 40
4.0
 40
5.0
 40
5.0
 40
5.0
 40
6.0
 40
6.0
 40
6.0
 40
7.0
 40
7.0
 40
7.0
 40
8.0
 40
8.0
 40
8.0
 40
9.0
 40
9.0
 40
9.0
 40
10.0
 40
10.0
 40
10.0
 40
11.0
 40
11.0
 40
11.0
 40
12.0
 40
12.0
 40
12.0
 40
13.0
 40
13.0
 40
13.0
 40
14.0
 40
14.0
 40
14.0
 40
15.0
 40
15.0
 40
15.0
 40
16.0
 40
16.0
 40
16.0
 40
16.0
 10
2482.823826078393
 20
-1281.867610958128
 10
2482.823826078393
 20
-1281.867610958128
 10
2482.775132512907
 20
-1281.867610958128
 10
2482.775132512907
 20
-1281.867610958128
 10
2482.775132512907
 20
-1341.263690710071
 10
2482.768164149262
 20
-1400.659770462014
 10
2482.782100876557
 20
-1460.062776087583
 10
2482.782100876557
 20
-1465.075111560534
 10
2482.489684543536
 20
-1470.024816740715
 10
2480.721504758247
 20
-1474.793471936151
 10
2475.917922764533
 20
-1487.748934655737
 10
2463.49163078186
 20
-1496.19331669468
 10
2449.060234649918
 20
-1496.19331669468
 10
2371.793828816439
 20
-1496.186348331033
 10
2294.527422982961
 20
-1496.172454093761
 10
2217.267985513128
 20
-1496.158517366468
 10
2214.713060476139
 20
-1496.158517366468
 10
2212.158220419193
 20
-1496.221147659242
 10
2209.610263745846
 20
-1496.130686401906
 10
2191.426658730374
 20
-1495.483223443087
 10
2177.747166031901
 20
-1481.85250929014
 10
2177.023221033062
 20
-1463.689766875585
 10
2176.988379214829
 20
-1462.763866801062
 10
2177.002315942122
 20
-1461.838009216561
 10
2177.002315942122
 20
-1460.905140778392
 10
2177.002315942122
 20
-1341.528233588506
 10
2177.023221033062
 20
-1222.151283908599
 10
2176.967474123889
 20
-1102.774376718713
 10
2176.967474123889
 20
-1093.042122105828
 10
2179.585029453656
 20
-1084.500267955878
 10
2186.588404878517
 20
-1077.51082925831
 10
2193.549970121503
 20
-1070.577137469911
 10
2201.952541978566
 20
-1067.500180019739
 10
2211.726521793284
 20
-1067.507148383385
 10
2268.686096200207
 20
-1067.562725332471
 10
2325.652638970773
 20
-1067.534936857928
 10
2382.612043417607
 20
-1067.534936857928
 10
2404.889052195156
 20
-1067.534936857928
 10
2427.166060972706
 20
-1067.444433110569
 10
2449.436186366654
 20
-1067.569693696117
 10
2465.983755565989
 20
-1067.660282423521
 10
2479.078500578464
 20
-1078.478582004732
 10
2482.190299846865
 20
-1094.309174568876
 10
2483.025738664052
 20
-1098.548659027398
 10
2482.809974331142
 20
-1102.857912102427
 10
2482.816857714745
 20
-1107.146260086516
 10
2482.823826078393
 20
-1165.38665372369
 10
2482.823826078393
 20
-1223.627217320954
 10
2482.823826078393
 20
-1281.867610958128
 97
        0
 97
        1
330
79
 92
        1
 93
        1
 72
     4
 94
        3
 73
     0
 74
     0
 95
       53
 96
       49
 40
0.0
 40
0.0
 40
0.0
 40
0.0
 40
1.0
 40
1.0
 40
1.0
 40
2.0
 40
2.0
 40
2.0
 40
3.0
 40
3.0
 40
3.0
 40
4.0
 40
4.0
 40
4.0
 40
5.0
 40
5.0
 40
5.0
 40
6.0
 40
6.0
 40
6.0
 40
7.0
 40
7.0
 40
7.0
 40
8.0
 40
8.0
 40
8.0
 40
9.0
 40
9.0
 40
9.0
 40
10.0
 40
10.0
 40
10.0
 40
11.0
 40
11.0
 40
11.0
 40
12.0
 40
12.0
 40
12.0
 40
13.0
 40
13.0
 40
13.0
 40
14.0
 40
14.0
 40
14.0
 40
15.0
 40
15.0
 40
15.0
 40
16.0
 40
16.0
 40
16.0
 40
16.0
 10
2485.253405549789
 20
-1333.710366927418
 10
2485.253405549789
 20
-1255.866181771591
 10
2485.274310640727
 20
-1178.015028252113
 10
2485.260373913436
 20
-1100.170758116241
 10
2485.260373913436
 20
-1089.86063920096
 10
2481.306167464203
 20
-1081.249271374634
 10
2473.766822898864
 20
-1074.252864313417
 10
2466.582524959324
 20
-1067.583630423411
 10
2457.943198698369
 20
-1064.910413164516
 10
2448.294479469196
 20
-1064.931318255454
 10
2428.224232486446
 20
-1064.966075093644
 10
2408.154070483738
 20
-1064.966075093644
 10
2388.083908481032
 20
-1064.966075093644
 10
2329.028896137568
 20
-1064.959106729999
 10
2269.97396877415
 20
-1064.945254982749
 10
2210.919041410731
 20
-1064.938286619101
 10
2199.578624436294
 20
-1064.938286619101
 10
2190.201416449207
 20
-1069.275328168674
 10
2182.773395742126
 20
-1077.831034065872
 10
2176.501103639836
 20
-1085.050258803691
 10
2174.419517450544
 20
-1093.564239499052
 10
2174.433454177837
 20
-1102.955384213434
 10
2174.516989561551
 20
-1162.476767040949
 10
2174.475179379671
 20
-1221.991181504814
 10
2174.475179379671
 20
-1281.505595968683
 10
2174.475179379671
 20
-1331.162452744098
 10
2174.46124265238
 20
-1380.819309519509
 10
2174.482147743318
 20
-1430.4761238049
 10
2174.482147743318
 20
-1442.185481642402
 10
2174.419517450544
 20
-1453.901807843551
 10
2174.656186874394
 20
-1465.611165681053
 10
2174.823257641822
 20
-1473.82580416977
 10
2178.178779677764
 20
-1480.863936432819
 10
2183.692284962979
 20
-1486.913538328576
 10
2191.767768628877
 20
-1495.768671412461
 10
2201.966393725814
 20
-1498.817840388092
 10
2213.71063587157
 20
-1498.796935297152
 10
2286.681725357312
 20
-1498.678600585226
 10
2359.659783206698
 20
-1498.769104332587
 10
2432.630957672482
 20
-1498.699463186145
 10
2440.622820974621
 20
-1498.685568948873
 10
2448.684367913223
 20
-1499.534859513307
 10
2456.606547578898
 20
-1498.065979444644
 10
2473.648445696918
 20
-1494.891507393444
 10
2485.253405549789
 20
-1480.439291150604
 10
2485.267342277083
 20
-1462.492398049002
 10
2485.30209911527
 20
-1419.56736296635
 10
2485.253405549789
 20
-1376.64237037372
 10
2485.253405549789
 20
-1333.710366927418
 97
        0
 97
        1
330
7A
 75
     2
 76
     1
 98
        1
 10
0.0
 20
0.0
450
        0
451
        0
460
0.0
461
0.0
452
        0
462
0.0
453
        0
470

  0
SPLINE
  5
7C
330
70
100
AcDbEntity
  8
Layer 1
100
AcDbSpline
210
0.0
220
0.0
230
1.0
 70
     9
 71
     3
 72
    53
 73
    49
 74
     0
 42
0.0000000001
 43
0.0000000001
 40
0.0
 40
0.0
 40
0.0
 40
0.0
 40
1.0
 40
1.0
 40
1.0
 40
2.0
 40
2.0
 40
2.0
 40
3.0
 40
3.0
 40
3.0
 40
4.0
 40
4.0
 40
4.0
 40
5.0
 40
5.0
 40
5.0
 40
6.0
 40
6.0
 40
6.0
 40
7.0
 40
7.0
 40
7.0
 40
8.0
 40
8.0
 40
8.0
 40
9.0
 40
9.0
 40
9.0
 40
10.0
 40
10.0
 40
10.0
 40
11.0
 40
11.0
 40
11.0
 40
12.0
 40
12.0
 40
12.0
 40
13.0
 40
13.0
 40
13.0
 40
14.0
 40
14.0
 40
14.0
 40
15.0
 40
15.0
 40
15.0
 40
16.0
 40
16.0
 40
16.0
 40
16.0
 10
2482.823826078393
 20
-1281.867610958128
 30
0.0
 10
2482.823826078393
 20
-1281.867610958128
 30
0.0
 10
2482.775132512907
 20
-1281.867610958128
 30
0.0
 10
2482.775132512907
 20
-1281.867610958128
 30
0.0
 10
2482.775132512907
 20
-1341.263690710071
 30
0.0
 10
2482.768164149262
 20
-1400.659770462014
 30
0.0
 10
2482.782100876557
 20
-1460.062776087583
 30
0.0
 10
2482.782100876557
 20
-1465.075111560534
 30
0.0
 10
2482.489684543536
 20
-1470.024816740715
 30
0.0
 10
2480.721504758247
 20
-1474.793471936151
 30
0.0
 10
2475.917922764533
 20
-1487.748934655737
 30
0.0
 10
2463.49163078186
 20
-1496.19331669468
 30
0.0
 10
2449.060234649918
 20
-1496.19331669468
 30
0.0
 10
2371.793828816439
 20
-1496.186348331033
 30
0.0
 10
2294.527422982961
 20
-1496.172454093761
 30
0.0
 10
2217.267985513128
 20
-1496.158517366468
 30
0.0
 10
2214.713060476139
 20
-1496.158517366468
 30
0.0
 10
2212.158220419193
 20
-1496.221147659242
 30
0.0
 10
2209.610263745846
 20
-1496.130686401906
 30
0.0
 10
2191.426658730374
 20
-1495.483223443087
 30
0.0
 10
2177.747166031901
 20
-1481.85250929014
 30
0.0
 10
2177.023221033062
 20
-1463.689766875585
 30
0.0
 10
2176.988379214829
 20
-1462.763866801062
 30
0.0
 10
2177.002315942122
 20
-1461.838009216561
 30
0.0
 10
2177.002315942122
 20
-1460.905140778392
 30
0.0
 10
2177.002315942122
 20
-1341.528233588506
 30
0.0
 10
2177.023221033062
 20
-1222.151283908599
 30
0.0
 10
2176.967474123889
 20
-1102.774376718713
 30
0.0
 10
2176.967474123889
 20
-1093.042122105828
 30
0.0
 10
2179.585029453656
 20
-1084.500267955878
 30
0.0
 10
2186.588404878517
 20
-1077.51082925831
 30
0.0
 10
2193.549970121503
 20
-1070.577137469911
 30
0.0
 10
2201.952541978566
 20
-1067.500180019739
 30
0.0
 10
2211.726521793284
 20
-1067.507148383385
 30
0.0
 10
2268.686096200207
 20
-1067.562725332471
 30
0.0
 10
2325.652638970773
 20
-1067.534936857928
 30
0.0
 10
2382.612043417607
 20
-1067.534936857928
 30
0.0
 10
2404.889052195156
 20
-1067.534936857928
 30
0.0
 10
2427.166060972706
 20
-1067.444433110569
 30
0.0
 10
2449.436186366654
 20
-1067.569693696117
 30
0.0
 10
2465.983755565989
 20
-1067.660282423521
 30
0.0
 10
2479.078500578464
 20
-1078.478582004732
 30
0.0
 10
2482.190299846865
 20
-1094.309174568876
 30
0.0
 10
2483.025738664052
 20
-1098.548659027398
 30
0.0
 10
2482.809974331142
 20
-1102.857912102427
 30
0.0
 10
2482.816857714745
 20
-1107.146260086516
 30
0.0
 10
2482.823826078393
 20
-1165.38665372369
 30
0.0
 10
2482.823826078393
 20
-1223.627217320954
 30
0.0
 10
2482.823826078393
 20
-1281.867610958128
 30
0.0
  0
SPLINE
  5
7D
330
70
100
AcDbEntity
  8
Layer 1
100
AcDbSpline
210
0.0
220
0.0
230
1.0
 70
     9
 71
     3
 72
    59
 73
    55
 74
     0
 42
0.0000000001
 43
0.0000000001
 40
0.0
 40
0.0
 40
0.0
 40
0.0
 40
1.0
 40
1.0
 40
1.0
 40
2.0
 40
2.0
 40
2.0
 40
3.0
 40
3.0
 40
3.0
 40
4.0
 40
4.0
 40
4.0
 40
5.0
 40
5.0
 40
5.0
 40
6.0
 40
6.0
 40
6.0
 40
7.0
 40
7.0
 40
7.0
 40
8.0
 40
8.0
 40
8.0
 40
9.0
 40
9.0
 40
9.0
 40
10.0
 40
10.0
 40
10.0
 40
11.0
 40
11.0
 40
11.0
 40
12.0
 40
12.0
 40
12.0
 40
13.0
 40
13.0
 40
13.0
 40
14.0
 40
14.0
 40
14.0
 40
15.0
 40
15.0
 40
15.0
 40
16.0
 40
16.0
 40
16.0
 40
17.0
 40
17.0
 40
17.0
 40
18.0
 40
18.0
 40
18.0
 40
18.0
 10
2222.802134277716
 20
-1119.364790421307
 30
0.0
 10
2222.802134277716
 20
-1119.364790421307
 30
0.0
 10
2222.802134277716
 20
-1119.159712296307
 30
0.0
 10
2222.802134277716
 20
-1119.159712296307
 30
0.0
 10
2229.646860840216
 20
-1116.190474015056
 30
0.0
 10
2233.069224121466
 20
-1110.354536515056
 30
0.0
 10
2233.069224121466
 20
-1103.494673233806
 30
0.0
 10
2233.069224121466
 20
-1095.406294327556
 30
0.0
 10
2228.106821777716
 20
-1087.625044327556
 30
0.0
 10
2217.155649902716
 20
-1087.625044327556
 30
0.0
 10
2211.166880371466
 20
-1087.625044327556
 30
0.0
 10
2205.519907715216
 20
-1090.184614640056
 30
0.0
 10
2202.611216308966
 20
-1092.744184952556
 30
0.0
 10
2202.611216308966
 20
-1092.744184952556
 30
0.0
 10
2204.578989746465
 20
-1099.296919327557
 30
0.0
 10
2204.578989746465
 20
-1099.296919327557
 30
0.0
 10
2206.974497558966
 20
-1097.249067765057
 30
0.0
 10
2211.252329590216
 20
-1094.894087296307
 30
0.0
 10
2215.701060058966
 20
-1094.894087296307
 30
0.0
 10
2222.631235840216
 20
-1094.894087296307
 30
0.0
 10
2225.454478027716
 20
-1099.604048233806
 30
0.0
 10
2225.454478027716
 20
-1104.928266983806
 30
0.0
 10
2225.454478027716
 20
-1112.812056046307
 30
0.0
 10
2218.524302246466
 20
-1116.190474015056
 30
0.0
 10
2213.048716308966
 20
-1116.190474015056
 30
0.0
 10
2213.048716308966
 20
-1116.190474015056
 30
0.0
 10
2208.856821777716
 20
-1116.190474015056
 30
0.0
 10
2208.856821777716
 20
-1116.190474015056
 30
0.0
 10
2208.856821777716
 20
-1116.190474015056
 30
0.0
 10
2208.856821777716
 20
-1122.948286515057
 30
0.0
 10
2208.856821777716
 20
-1122.948286515057
 30
0.0
 10
2208.856821777716
 20
-1122.948286515057
 30
0.0
 10
2213.048716308966
 20
-1122.948286515057
 30
0.0
 10
2213.048716308966
 20
-1122.948286515057
 30
0.0
 10
2220.321177246466
 20
-1122.948286515057
 30
0.0
 10
2227.336802246465
 20
-1126.941450577557
 30
0.0
 10
2227.422251465215
 20
-1136.258345108807
 30
0.0
 10
2227.507700683966
 20
-1141.787153702557
 30
0.0
 10
2224.513560058966
 20
-1149.159224015056
 30
0.0
 10
2214.845591308966
 20
-1149.159224015056
 30
0.0
 10
2209.626841308966
 20
-1149.159224015056
 30
0.0
 10
2204.664438965215
 20
-1146.599653702557
 30
0.0
 10
2202.525278808966
 20
-1144.961470108806
 30
0.0
 10
2202.525278808966
 20
-1144.961470108806
 30
0.0
 10
2200.472056152716
 20
-1151.923384171307
 30
0.0
 10
2200.472056152716
 20
-1151.923384171307
 30
0.0
 10
2203.209849121466
 20
-1154.073774796307
 30
0.0
 10
2208.685435058966
 20
-1156.428755265056
 30
0.0
 10
2214.931040527716
 20
-1156.428755265056
 30
0.0
 10
2228.277720215216
 20
-1156.428755265056
 30
0.0
 10
2235.207895996466
 20
-1147.111372452557
 30
0.0
 10
2235.207895996466
 20
-1136.463423233807
 30
0.0
 10
2235.207895996466
 20
-1127.146040421306
 30
0.0
 10
2229.646860840216
 20
-1121.002974015056
 30
0.0
 10
2222.802134277716
 20
-1119.364790421307
 30
0.0
  0
HATCH
  5
7E
330
70
100
AcDbEntity
  8
Layer 1
 62
   246
420
  8590872
440
 33554687
100
AcDbHatch
 10
0.0
 20
0.0
 30
0.0
210
0.0
220
0.0
230
1.0
  2
SOLID
 70
     1
 71
     1
 91
        1
 92
        1
 93
        1
 72
     4
 94
        3
 73
     0
 74
     0
 95
       59
 96
       55
 40
0.0
 40
0.0
 40
0.0
 40
0.0
 40
1.0
 40
1.0
 40
1.0
 40
2.0
 40
2.0
 40
2.0
 40
3.0
 40
3.0
 40
3.0
 40
4.0
 40
4.0
 40
4.0
 40
5.0
 40
5.0
 40
5.0
 40
6.0
 40
6.0
 40
6.0
 40
7.0
 40
7.0
 40
7.0
 40
8.0
 40
8.0
 40
8.0
 40
9.0
 40
9.0
 40
9.0
 40
10.0
 40
10.0
 40
10.0
 40
11.0
 40
11.0
 40
11.0
 40
12.0
 40
12.0
 40
12.0
 40
13.0
 40
13.0
 40
13.0
 40
14.0
 40
14.0
 40
14.0
 40
15.0
 40
15.0
 40
15.0
 40
16.0
 40
16.0
 40
16.0
 40
17.0
 40
17.0
 40
17.0
 40
18.0
 40
18.0
 40
18.0
 40
18.0
 10
2222.802134277716
 20
-1119.364790421307
 10
2222.802134277716
 20
-1119.364790421307
 10
2222.802134277716
 20
-1119.159712296307
 10
2222.802134277716
 20
-1119.159712296307
 10
2229.646860840216
 20
-1116.190474015056
 10
2233.069224121466
 20
-1110.354536515056
 10
2233.069224121466
 20
-1103.494673233806
 10
2233.069224121466
 20
-1095.406294327556
 10
2228.106821777716
 20
-1087.625044327556
 10
2217.155649902716
 20
-1087.625044327556
 10
2211.166880371466
 20
-1087.625044327556
 10
2205.519907715216
 20
-1090.184614640056
 10
2202.611216308966
 20
-1092.744184952556
 10
2202.611216308966
 20
-1092.744184952556
 10
2204.578989746465
 20
-1099.296919327557
 10
2204.578989746465
 20
-1099.296919327557
 10
2206.974497558966
 20
-1097.249067765057
 10
2211.252329590216
 20
-1094.894087296307
 10
2215.701060058966
 20
-1094.894087296307
 10
2222.631235840216
 20
-1094.894087296307
 10
2225.454478027716
 20
-1099.604048233806
 10
2225.454478027716
 20
-1104.928266983806
 10
2225.454478027716
 20
-1112.812056046307
 10
2218.524302246466
 20
-1116.190474015056
 10
2213.048716308966
 20
-1116.190474015056
 10
2213.048716308966
 20
-1116.190474015056
 10
2208.856821777716
 20
-1116.190474015056
 10
2208.856821777716
 20
-1116.190474015056
 10
2208.856821777716
 20
-1116.190474015056
 10
2208.856821777716
 20
-1122.948286515057
 10
2208.856821777716
 20
-1122.948286515057
 10
2208.856821777716
 20
-1122.948286515057
 10
2213.048716308966
 20
-1122.948286515057
 10
2213.048716308966
 20
-1122.948286515057
 10
2220.321177246466
 20
-1122.948286515057
 10
2227.336802246465
 20
-1126.941450577557
 10
2227.422251465215
 20
-1136.258345108807
 10
2227.507700683966
 20
-1141.787153702557
 10
2224.513560058966
 20
-1149.159224015056
 10
2214.845591308966
 20
-1149.159224015056
 10
2209.626841308966
 20
-1149.159224015056
 10
2204.664438965215
 20
-1146.599653702557
 10
2202.525278808966
 20
-1144.961470108806
 10
2202.525278808966
 20
-1144.961470108806
 10
2200.472056152716
 20
-1151.923384171307
 10
2200.472056152716
 20
-1151.923384171307
 10
2203.209849121466
 20
-1154.073774796307
 10
2208.685435058966
 20
-1156.428755265056
 10
2214.931040527716
 20
-1156.428755265056
 10
2228.277720215216
 20
-1156.428755265056
 10
2235.207895996466
 20
-1147.111372452557
 10
2235.207895996466
 20
-1136.463423233807
 10
2235.207895996466
 20
-1127.146040421306
 10
2229.646860840216
 20
-1121.002974015056
 10
2222.802134277716
 20
-1119.364790421307
 97
        0
 97
        1
330
7D
 75
     2
 76
     1
 98
        1
 10
0.0
 20
0.0
450
        0
451
        0
460
0.0
461
0.0
452
        0
462
0.0
453
        0
470

  0
SPLINE
  5
7F
330
70
100
AcDbEntity
  8
Layer 1
100
AcDbSpline
210
0.0
220
0.0
230
1.0
 70
     9
 71
     3
 72
    17
 73
    13
 74
     0
 42
0.0000000001
 43
0.0000000001
 40
0.0
 40
0.0
 40
0.0
 40
0.0
 40
1.0
 40
1.0
 40
1.0
 40
2.0
 40
2.0
 40
2.0
 40
3.0
 40
3.0
 40
3.0
 40
4.0
 40
4.0
 40
4.0
 40
4.0
 10
2294.653584609889
 20
-1370.829924389574
 30
0.0
 10
2294.51461270861
 20
-1373.231365555268
 30
0.0
 10
2294.765961827978
 20
-1375.666146554082
 30
0.0
 10
2298.861006111989
 20
-1375.478188420893
 30
0.0
 10
2304.862847233326
 20
-1375.202677570425
 30
0.0
 10
2307.134075125261
 20
-1372.890852936547
 30
0.0
 10
2307.140576979986
 20
-1366.91339167305
 30
0.0
 10
2307.143462964534
 20
-1364.253235415803
 30
0.0
 10
2305.800985169739
 20
-1364.018950519024
 30
0.0
 10
2303.716314366167
 20
-1364.071653294988
 30
0.0
 10
2296.553451728502
 20
-1364.252782383344
 30
0.0
 10
2294.580780615968
 20
-1365.554495646392
 30
0.0
 10
2294.653584609889
 20
-1370.829924389574
 30
0.0
  0
SPLINE
  5
80
330
70
100
AcDbEntity
  8
Layer 1
100
AcDbSpline
210
0.0
220
0.0
230
1.0
 70
     9
 71
     3
 72
    17
 73
    13
 74
     0
 42
0.0000000001
 43
0.0000000001
 40
0.0
 40
0.0
 40
0.0
 40
0.0
 40
1.0
 40
1.0
 40
1.0
 40
2.0
 40
2.0
 40
2.0
 40
3.0
 40
3.0
 40
3.0
 40
4.0
 40
4.0
 40
4.0
 40
4.0
 10
2305.807528971913
 20
-1388.885801472355
 30
0.0
 10
2305.189282287884
 20
-1387.033653772665
 30
0.0
 10
2307.146030148462
 20
-1383.656816945622
 30
0.0
 10
2302.79064321184
 20
-1383.451324778409
 30
0.0
 10
2297.109565849847
 20
-1383.183314131969
 30
0.0
 10
2294.401891521433
 20
-1384.878242789706
 30
0.0
 10
2294.658576356418
 20
-1389.348146264354
 30
0.0
 10
2294.797716047497
 20
-1391.771215535176
 30
0.0
 10
2293.030369312379
 20
-1395.671103503613
 30
0.0
 10
2297.877665603639
 20
-1395.948778842492
 30
0.0
 10
2303.796828301365
 20
-1396.287882026896
 30
0.0
 10
2305.634453793924
 20
-1394.677905344553
 30
0.0
 10
2305.807528971913
 20
-1388.885801472355
 30
0.0
  0
SPLINE
  5
81
330
70
100
AcDbEntity
  8
Layer 1
100
AcDbSpline
210
0.0
220
0.0
230
1.0
 70
     9
 71
     3
 72
    23
 73
    19
 74
     0
 42
0.0000000001
 43
0.0000000001
 40
0.0
 40
0.0
 40
0.0
 40
0.0
 40
1.0
 40
1.0
 40
1.0
 40
2.0
 40
2.0
 40
2.0
 40
3.0
 40
3.0
 40
3.0
 40
4.0
 40
4.0
 40
4.0
 40
5.0
 40
5.0
 40
5.0
 40
6.0
 40
6.0
 40
6.0
 40
6.0
 10
2301.516774665986
 20
-1432.024105842622
 30
0.0
 10
2298.765609221591
 20
-1432.890303902582
 30
0.0
 10
2294.937417834404
 20
-1434.011945153011
 30
0.0
 10
2291.171694589499
 20
-1435.314228901381
 30
0.0
 10
2289.09527904405
 20
-1436.032335684471
 30
0.0
 10
2286.140458730745
 20
-1436.193749471407
 30
0.0
 10
2287.562577953781
 20
-1439.882205513728
 30
0.0
 10
2288.717307352634
 20
-1442.87711919958
 30
0.0
 10
2289.718702043389
 20
-1446.044151661568
 30
0.0
 10
2293.932314989084
 20
-1444.658040129463
 30
0.0
 10
2297.715605825975
 20
-1443.413509630016
 30
0.0
 10
2301.392744446335
 20
-1441.847124737535
 30
0.0
 10
2305.120832439254
 20
-1440.433596352224
 30
0.0
 10
2308.179590143746
 20
-1439.273833259391
 30
0.0
 10
2306.618750704129
 20
-1437.337673207184
 30
0.0
 10
2305.942784329138
 20
-1435.562087992923
 30
0.0
 10
2305.309914764097
 20
-1433.899660219315
 30
0.0
 10
2305.861355939531
 20
-1431.161565600287
 30
0.0
 10
2301.516774665986
 20
-1432.024105842622
 30
0.0
  0
SPLINE
  5
82
330
70
100
AcDbEntity
  8
Layer 1
100
AcDbSpline
210
0.0
220
0.0
230
1.0
 70
     9
 71
     3
 72
    23
 73
    19
 74
     0
 42
0.0000000001
 43
0.0000000001
 40
0.0
 40
0.0
 40
0.0
 40
0.0
 40
1.0
 40
1.0
 40
1.0
 40
2.0
 40
2.0
 40
2.0
 40
3.0
 40
3.0
 40
3.0
 40
4.0
 40
4.0
 40
4.0
 40
5.0
 40
5.0
 40
5.0
 40
6.0
 40
6.0
 40
6.0
 40
6.0
 10
2339.25785167775
 20
-1425.565608003482
 30
0.0
 10
2339.62826443871
 20
-1422.778384531215
 30
0.0
 10
2338.905342088379
 20
-1421.173038847333
 30
0.0
 10
2335.70530537287
 20
-1422.09152020876
 30
0.0
 10
2330.976091152876
 20
-1423.448805453343
 30
0.0
 10
2326.218050645357
 20
-1424.707832991447
 30
0.0
 10
2321.50371099107
 20
-1426.11407929947
 30
0.0
 10
2318.045068247375
 20
-1427.145785217468
 30
0.0
 10
2318.79306678321
 20
-1430.021098334371
 30
0.0
 10
2319.075767426577
 20
-1432.4823733425
 30
0.0
 10
2319.430802252429
 20
-1435.573229235597
 30
0.0
 10
2321.811680778215
 20
-1435.730045582033
 30
0.0
 10
2324.014500768972
 20
-1435.045194737166
 30
0.0
 10
2328.002193139386
 20
-1433.80549658394
 30
0.0
 10
2331.834721892887
 20
-1432.070415827231
 30
0.0
 10
2335.813957657414
 20
-1430.798434916618
 30
0.0
 10
2338.557203423279
 20
-1429.921598983383
 30
0.0
 10
2339.699013007589
 20
-1428.311655858997
 30
0.0
 10
2339.25785167775
 20
-1425.565608003482
 30
0.0
  0
SPLINE
  5
83
330
70
100
AcDbEntity
  8
Layer 1
100
AcDbSpline
210
0.0
220
0.0
230
1.0
 70
     9
 71
     3
 72
    23
 73
    19
 74
     0
 42
0.0000000001
 43
0.0000000001
 40
0.0
 40
0.0
 40
0.0
 40
0.0
 40
1.0
 40
1.0
 40
1.0
 40
2.0
 40
2.0
 40
2.0
 40
3.0
 40
3.0
 40
3.0
 40
4.0
 40
4.0
 40
4.0
 40
5.0
 40
5.0
 40
5.0
 40
6.0
 40
6.0
 40
6.0
 40
6.0
 10
2340.030523703576
 20
-1361.35048866671
 30
0.0
 10
2340.750652353747
 20
-1357.045405111923
 30
0.0
 10
2339.313113248154
 20
-1355.753541110091
 30
0.0
 10
2335.546098021794
 20
-1356.891139170435
 30
0.0
 10
2332.227786276751
 20
-1357.893230188856
 30
0.0
 10
2328.873861146803
 20
-1359.121820657368
 30
0.0
 10
2325.46564762729
 20
-1359.40367396225
 30
0.0
 10
2319.9074679038
 20
-1359.863334117461
 30
0.0
 10
2318.181607196562
 20
-1363.034410313608
 30
0.0
 10
2317.623227912927
 20
-1367.959091260313
 30
0.0
 10
2317.26230366512
 20
-1371.14231543793
 30
0.0
 10
2317.792343251651
 20
-1372.524416793832
 30
0.0
 10
2321.292052548732
 20
-1371.71910965204
 30
0.0
 10
2325.206848640831
 20
-1370.818313335461
 30
0.0
 10
2329.14732496172
 20
-1369.749676882635
 30
0.0
 10
2333.126451662878
 20
-1369.474417716865
 30
0.0
 10
2338.864233587548
 20
-1369.077494167617
 30
0.0
 10
2340.762800335216
 20
-1366.126004481826
 30
0.0
 10
2340.030523703576
 20
-1361.35048866671
 30
0.0
  0
SPLINE
  5
84
330
70
100
AcDbEntity
  8
Layer 1
100
AcDbSpline
210
0.0
220
0.0
230
1.0
 70
     9
 71
     3
 72
    23
 73
    19
 74
     0
 42
0.0000000001
 43
0.0000000001
 40
0.0
 40
0.0
 40
0.0
 40
0.0
 40
1.0
 40
1.0
 40
1.0
 40
2.0
 40
2.0
 40
2.0
 40
3.0
 40
3.0
 40
3.0
 40
4.0
 40
4.0
 40
4.0
 40
5.0
 40
5.0
 40
5.0
 40
6.0
 40
6.0
 40
6.0
 40
6.0
 10
2338.751394947513
 20
-1380.862663754647
 30
0.0
 10
2338.158299954401
 20
-1379.972438195425
 30
0.0
 10
2341.213475346675
 20
-1375.716097577337
 30
0.0
 10
2336.430241200791
 20
-1376.374622202689
 30
0.0
 10
2330.844451665825
 20
-1377.143653189869
 30
0.0
 10
2325.188551163217
 20
-1378.300865877754
 30
0.0
 10
2319.930085968747
 20
-1380.269862393681
 30
0.0
 10
2315.619649919361
 20
-1381.88386603121
 30
0.0
 10
2316.912302533248
 20
-1386.538136937343
 30
0.0
 10
2317.206144419291
 20
-1389.951350592877
 30
0.0
 10
2317.538410169374
 20
-1393.810969009475
 30
0.0
 10
2320.804673518673
 20
-1392.107516629938
 30
0.0
 10
2322.840643332996
 20
-1391.803330502767
 30
0.0
 10
2326.260828654691
 20
-1391.292343447945
 30
0.0
 10
2329.577596733582
 20
-1390.101874821837
 30
0.0
 10
2332.995298766247
 20
-1389.558504335749
 30
0.0
 10
2337.574752200868
 20
-1388.830430838581
 30
0.0
 10
2339.999264463964
 20
-1386.694600925199
 30
0.0
 10
2338.751394947513
 20
-1380.862663754647
 30
0.0
  0
SPLINE
  5
85
330
70
100
AcDbEntity
  8
Layer 1
100
AcDbSpline
210
0.0
220
0.0
230
1.0
 70
     9
 71
     3
 72
    23
 73
    19
 74
     0
 42
0.0000000001
 43
0.0000000001
 40
0.0
 40
0.0
 40
0.0
 40
0.0
 40
1.0
 40
1.0
 40
1.0
 40
2.0
 40
2.0
 40
2.0
 40
3.0
 40
3.0
 40
3.0
 40
4.0
 40
4.0
 40
4.0
 40
5.0
 40
5.0
 40
5.0
 40
6.0
 40
6.0
 40
6.0
 40
6.0
 10
2318.326544025207
 20
-1409.191538416129
 30
0.0
 10
2318.181422627782
 20
-1416.718253233601
 30
0.0
 10
2318.191540352682
 20
-1416.760167125467
 30
0.0
 10
2324.480411094208
 20
-1415.451440248806
 30
0.0
 10
2326.977198813358
 20
-1414.9318287983
 30
0.0
 10
2329.454556473747
 20
-1414.27714655935
 30
0.0
 10
2331.893951692044
 20
-1413.530884647938
 30
0.0
 10
2340.410055840126
 20
-1410.925746665885
 30
0.0
 10
2340.878441064902
 20
-1410.022131480677
 30
0.0
 10
2339.699684166786
 20
-1401.152024414008
 30
0.0
 10
2339.334271541848
 20
-1398.402369077808
 30
0.0
 10
2338.599108925659
 20
-1397.132787561324
 30
0.0
 10
2335.543539227354
 20
-1398.148821912069
 30
0.0
 10
2332.258156230426
 20
-1399.2412845164
 30
0.0
 10
2328.890052862436
 20
-1400.269148047995
 30
0.0
 10
2325.476948270273
 20
-1400.751845742652
 30
0.0
 10
2319.832784664126
 20
-1401.550088933891
 30
0.0
 10
2317.399438268098
 20
-1404.429898817419
 30
0.0
 10
2318.326544025207
 20
-1409.191538416129
 30
0.0
  0
SPLINE
  5
86
330
70
100
AcDbEntity
  8
Layer 1
100
AcDbSpline
210
0.0
220
0.0
230
1.0
 70
     9
 71
     3
 72
    47
 73
    43
 74
     0
 42
0.0000000001
 43
0.0000000001
 40
0.0
 40
0.0
 40
0.0
 40
0.0
 40
1.0
 40
1.0
 40
1.0
 40
2.0
 40
2.0
 40
2.0
 40
3.0
 40
3.0
 40
3.0
 40
4.0
 40
4.0
 40
4.0
 40
5.0
 40
5.0
 40
5.0
 40
6.0
 40
6.0
 40
6.0
 40
7.0
 40
7.0
 40
7.0
 40
8.0
 40
8.0
 40
8.0
 40
9.0
 40
9.0
 40
9.0
 40
10.0
 40
10.0
 40
10.0
 40
11.0
 40
11.0
 40
11.0
 40
12.0
 40
12.0
 40
12.0
 40
13.0
 40
13.0
 40
13.0
 40
14.0
 40
14.0
 40
14.0
 40
14.0
 10
2349.6632437976
 20
-1454.897882443823
 30
0.0
 10
2354.710520361168
 20
-1454.935131779271
 30
0.0
 10
2358.563427185796
 20
-1453.823759264556
 30
0.0
 10
2361.681163004745
 20
-1451.019085653162
 30
0.0
 10
2366.819088007389
 20
-1446.397080725437
 30
0.0
 10
2372.836734927822
 20
-1444.351823745721
 30
0.0
 10
2379.636634671617
 20
-1443.897381853268
 30
0.0
 10
2382.897562305298
 20
-1443.679422903966
 30
0.0
 10
2386.189531051849
 20
-1443.059271805712
 30
0.0
 10
2389.331478938837
 20
-1442.151025622046
 30
0.0
 10
2393.123679414074
 20
-1441.05475418927
 30
0.0
 10
2395.600844116194
 20
-1438.359714432747
 30
0.0
 10
2396.164433273098
 20
-1434.346551570797
 30
0.0
 10
2396.733593051338
 20
-1430.293958106013
 30
0.0
 10
2393.749115891004
 20
-1428.599482480735
 30
0.0
 10
2390.858349333583
 20
-1426.8554753067
 30
0.0
 10
2384.898271093294
 20
-1423.259773465437
 30
0.0
 10
2378.122784765299
 20
-1422.456630812059
 30
0.0
 10
2371.500909998571
 20
-1421.246128083912
 30
0.0
 10
2364.831315812919
 20
-1420.026933844165
 30
0.0
 10
2364.812909271936
 20
-1420.196535773306
 30
0.0
 10
2365.581101310118
 20
-1426.969001884914
 30
0.0
 10
2366.011381471469
 20
-1430.762360109766
 30
0.0
 10
2367.065604780537
 20
-1434.743978489445
 30
0.0
 10
2363.23707781375
 20
-1437.564290110134
 30
0.0
 10
2358.903621003898
 20
-1440.756558157936
 30
0.0
 10
2354.143407618479
 20
-1443.00383405602
 30
0.0
 10
2348.765736161089
 20
-1443.823084530133
 30
0.0
 10
2346.42459025978
 20
-1444.179738527549
 30
0.0
 10
2344.237148204129
 20
-1444.127589457923
 30
0.0
 10
2343.381839702144
 20
-1441.420670183608
 30
0.0
 10
2341.986977932007
 20
-1437.006120563746
 30
0.0
 10
2339.317190540278
 20
-1437.545699000369
 30
0.0
 10
2336.236511098508
 20
-1439.425548795927
 30
0.0
 10
2334.205549809693
 20
-1440.664877811592
 30
0.0
 10
2332.215613126811
 20
-1441.972463717618
 30
0.0
 10
2330.168527238282
 20
-1443.184006742522
 30
0.0
 10
2328.348997875581
 20
-1444.260848116537
 30
0.0
 10
2327.637334220785
 20
-1445.380375215496
 30
0.0
 10
2329.863930026106
 20
-1446.732559650179
 30
0.0
 10
2336.281931797181
 20
-1450.630249572241
 30
0.0
 10
2342.652323212702
 20
-1454.662540471312
 30
0.0
 10
2349.6632437976
 20
-1454.897882443823
 30
0.0
  0
SPLINE
  5
87
330
70
100
AcDbEntity
  8
Layer 1
100
AcDbSpline
210
0.0
220
0.0
230
1.0
 70
     9
 71
     3
 72
   134
 73
   130
 74
     0
 42
0.0000000001
 43
0.0000000001
 40
0.0
 40
0.0
 40
0.0
 40
0.0
 40
1.0
 40
1.0
 40
1.0
 40
2.0
 40
2.0
 40
2.0
 40
3.0
 40
3.0
 40
3.0
 40
4.0
 40
4.0
 40
4.0
 40
5.0
 40
5.0
 40
5.0
 40
6.0
 40
6.0
 40
6.0
 40
7.0
 40
7.0
 40
7.0
 40
8.0
 40
8.0
 40
8.0
 40
9.0
 40
9.0
 40
9.0
 40
10.0
 40
10.0
 40
10.0
 40
11.0
 40
11.0
 40
11.0
 40
12.0
 40
12.0
 40
12.0
 40
13.0
 40
13.0
 40
13.0
 40
14.0
 40
14.0
 40
14.0
 40
15.0
 40
15.0
 40
15.0
 40
16.0
 40
16.0
 40
16.0
 40
17.0
 40
17.0
 40
17.0
 40
18.0
 40
18.0
 40
18.0
 40
19.0
 40
19.0
 40
19.0
 40
20.0
 40
20.0
 40
20.0
 40
21.0
 40
21.0
 40
21.0
 40
22.0
 40
22.0
 40
22.0
 40
23.0
 40
23.0
 40
23.0
 40
24.0
 40
24.0
 40
24.0
 40
25.0
 40
25.0
 40
25.0
 40
26.0
 40
26.0
 40
26.0
 40
27.0
 40
27.0
 40
27.0
 40
28.0
 40
28.0
 40
28.0
 40
29.0
 40
29.0
 40
29.0
 40
30.0
 40
30.0
 40
30.0
 40
31.0
 40
31.0
 40
31.0
 40
32.0
 40
32.0
 40
32.0
 40
33.0
 40
33.0
 40
33.0
 40
34.0
 40
34.0
 40
34.0
 40
35.0
 40
35.0
 40
35.0
 40
36.0
 40
36.0
 40
36.0
 40
37.0
 40
37.0
 40
37.0
 40
38.0
 40
38.0
 40
38.0
 40
39.0
 40
39.0
 40
39.0
 40
40.0
 40
40.0
 40
40.0
 40
41.0
 40
41.0
 40
41.0
 40
42.0
 40
42.0
 40
42.0
 40
43.0
 40
43.0
 40
43.0
 40
43.0
 10
2282.30384429563
 20
-1384.347154516927
 30
0.0
 10
2282.809336234523
 20
-1376.86070925129
 30
0.0
 10
2283.3308101518
 20
-1369.375287503433
 30
0.0
 10
2283.811704106113
 20
-1361.887265013683
 30
0.0
 10
2283.982019141902
 20
-1359.235481467422
 30
0.0
 10
2284.90539157598
 20
-1357.442378998112
 30
0.0
 10
2287.867552693006
 20
-1356.947701111781
 30
0.0
 10
2307.943652517446
 20
-1353.594958899921
 30
0.0
 10
2327.428100341045
 20
-1347.694261469609
 30
0.0
 10
2347.223773073896
 20
-1343.132761543515
 30
0.0
 10
2351.466120022722
 20
-1342.15520139375
 30
0.0
 10
2355.952114539126
 20
-1341.64921447495
 30
0.0
 10
2360.292350056872
 20
-1341.813229003776
 30
0.0
 10
2367.647197782906
 20
-1342.091172806336
 30
0.0
 10
2370.241949576385
 20
-1345.658719519273
 30
0.0
 10
2368.171742253511
 20
-1352.725623170714
 30
0.0
 10
2363.338892663971
 20
-1369.223085376477
 30
0.0
 10
2360.934783640471
 20
-1385.920972497519
 30
0.0
 10
2361.984224940259
 20
-1403.157884348846
 30
0.0
 10
2362.296481756775
 20
-1408.286916492128
 30
0.0
 10
2363.73803103857
 20
-1410.288715913823
 30
0.0
 10
2369.163010829878
 20
-1410.757252149415
 30
0.0
 10
2384.511649837725
 20
-1412.082825121928
 30
0.0
 10
2398.881252145573
 20
-1416.72050161691
 30
0.0
 10
2411.764605969089
 20
-1425.482786958542
 30
0.0
 10
2423.267620229599
 20
-1433.306288373031
 30
0.0
 10
2425.473082909695
 20
-1447.21384791052
 30
0.0
 10
2416.287715589102
 20
-1455.321484571163
 30
0.0
 10
2412.466118341028
 20
-1458.69469713854
 30
0.0
 10
2407.757953351355
 20
-1460.35175563857
 30
0.0
 10
2402.721440503412
 20
-1460.650589271143
 30
0.0
 10
2395.134455590031
 20
-1461.100836418613
 30
0.0
 10
2387.895617731238
 20
-1462.767660284964
 30
0.0
 10
2380.9309651835
 20
-1465.801803225895
 30
0.0
 10
2372.809167063795
 20
-1469.340087397835
 30
0.0
 10
2364.861132060256
 20
-1467.749675006089
 30
0.0
 10
2356.879102843377
 20
-1464.993996016095
 30
0.0
 10
2345.439303389758
 20
-1461.044559719925
 30
0.0
 10
2334.089925858989
 20
-1456.867768245687
 30
0.0
 10
2323.480048310719
 20
-1451.012407619149
 30
0.0
 10
2319.5547317982
 20
-1448.846140636171
 30
0.0
 10
2316.344082377884
 20
-1448.687646391743
 30
0.0
 10
2313.118843634518
 20
-1451.893908108806
 30
0.0
 10
2310.513277788476
 20
-1454.484213472602
 30
0.0
 10
2307.436440733109
 20
-1454.974226802511
 30
0.0
 10
2303.994946106901
 20
-1453.886613323378
 30
0.0
 10
2302.42569200885
 20
-1453.390727350496
 30
0.0
 10
2300.819775839649
 20
-1453.004038979005
 30
0.0
 10
2299.21845711095
 20
-1452.617652629153
 30
0.0
 10
2291.46545258064
 20
-1450.746729250921
 30
0.0
 10
2291.476744834134
 20
-1450.754313349851
 30
0.0
 10
2290.476272987275
 20
-1458.820573045985
 30
0.0
 10
2290.163865159939
 20
-1461.339366397311
 30
0.0
 10
2290.263104436741
 20
-1464.370992491254
 30
0.0
 10
2287.07811846623
 20
-1465.038930124348
 30
0.0
 10
2283.792248878883
 20
-1465.728076388077
 30
0.0
 10
2281.949832987553
 20
-1463.10934743228
 30
0.0
 10
2280.831266485197
 20
-1460.683073376291
 30
0.0
 10
2278.462573693585
 20
-1455.545148373643
 30
0.0
 10
2276.180301038108
 20
-1450.30436822402
 30
0.0
 10
2274.58616371282
 20
-1444.892643826861
 30
0.0
 10
2273.351524422043
 20
-1440.701321756001
 30
0.0
 10
2270.990889735545
 20
-1439.406018063287
 30
0.0
 10
2267.005147921549
 20
-1439.489074013945
 30
0.0
 10
2261.490937514969
 20
-1439.604010026473
 30
0.0
 10
2256.049786981753
 20
-1438.828183552421
 30
0.0
 10
2250.685022754675
 20
-1437.546940644886
 30
0.0
 10
2248.183994148349
 20
-1436.949676075259
 30
0.0
 10
2245.802759069238
 20
-1436.101599313624
 30
0.0
 10
2243.599035110936
 20
-1434.708541283831
 30
0.0
 10
2240.27753745708
 20
-1432.60888685118
 30
0.0
 10
2237.502793351137
 20
-1429.990426359058
 30
0.0
 10
2238.957574955981
 20
-1425.799003614323
 30
0.0
 10
2240.524601644447
 20
-1421.284182810395
 30
0.0
 10
2244.481714323935
 20
-1423.543707363831
 30
0.0
 10
2247.474608240078
 20
-1423.773143135408
 30
0.0
 10
2252.208734506448
 20
-1424.136038913359
 30
0.0
 10
2256.909973972153
 20
-1424.910590184932
 30
0.0
 10
2261.632665363701
 20
-1425.44426242062
 30
0.0
 10
2268.207642881522
 20
-1426.187235651967
 30
0.0
 10
2268.626211314883
 20
-1425.738431496771
 30
0.0
 10
2267.376865248196
 20
-1419.089425119495
 30
0.0
 10
2266.059291654364
 20
-1412.07728805855
 30
0.0
 10
2264.546914103536
 20
-1405.099984159944
 30
0.0
 10
2263.34027473552
 20
-1398.069591568834
 30
0.0
 10
2262.869062252626
 20
-1395.324114198636
 30
0.0
 10
2261.394324148525
 20
-1391.633678236681
 30
0.0
 10
2264.832517510433
 20
-1390.19348805226
 30
0.0
 10
2268.116084182784
 20
-1388.818081509354
 30
0.0
 10
2270.706867747507
 20
-1391.621479918274
 30
0.0
 10
2272.637906016087
 20
-1394.075590301967
 30
0.0
 10
2275.87826262037
 20
-1398.193688904404
 30
0.0
 10
2277.209930557343
 20
-1403.183086376702
 30
0.0
 10
2278.322255279167
 20
-1408.207619032975
 30
0.0
 10
2279.151401156694
 20
-1411.952989375222
 30
0.0
 10
2279.677686446467
 20
-1415.779133726861
 30
0.0
 10
2281.376407153667
 20
-1419.283390127497
 30
0.0
 10
2281.93397685152
 20
-1420.433555643812
 30
0.0
 10
2282.231367491819
 20
-1421.864030798853
 30
0.0
 10
2283.102389508509
 20
-1422.682542997849
 30
0.0
 10
2288.016021496925
 20
-1427.300017600995
 30
0.0
 10
2293.046410017194
 20
-1423.156482064984
 30
0.0
 10
2297.942264676374
 20
-1422.471429872359
 30
0.0
 10
2300.940181799635
 20
-1422.05188825816
 30
0.0
 10
2304.830665149817
 20
-1421.60197669029
 30
0.0
 10
2304.678530138783
 20
-1416.827618624789
 30
0.0
 10
2304.614551888306
 20
-1414.820181465838
 30
0.0
 10
2305.034278071282
 20
-1412.781233382579
 30
0.0
 10
2304.827896618128
 20
-1410.798897577606
 30
0.0
 10
2304.623201452459
 20
-1408.832803825204
 30
0.0
 10
2306.052032267468
 20
-1405.671946027833
 30
0.0
 10
2303.046061233841
 20
-1405.275290942263
 30
0.0
 10
2300.522754336911
 20
-1404.94242953839
 30
0.0
 10
2297.531104162656
 20
-1405.663120284389
 30
0.0
 10
2295.961321526735
 20
-1408.448967880304
 30
0.0
 10
2294.972762755628
 20
-1410.203378021892
 30
0.0
 10
2294.141582426783
 20
-1412.054133066245
 30
0.0
 10
2293.060730876565
 20
-1413.747333489049
 30
0.0
 10
2290.245058643826
 20
-1418.158258849242
 30
0.0
 10
2289.042425257269
 20
-1418.113962342224
 30
0.0
 10
2286.410860381822
 20
-1413.429237587515
 30
0.0
 10
2284.129883902546
 20
-1409.368690886244
 30
0.0
 10
2282.991295882384
 20
-1404.909005810368
 30
0.0
 10
2282.824991022797
 20
-1400.293074873378
 30
0.0
 10
2282.633945557304
 20
-1394.990078266171
 30
0.0
 10
2282.78066095782
 20
-1389.674933677492
 30
0.0
 10
2282.78066095782
 20
-1384.365057688512
 30
0.0
 10
2282.621722070424
 20
-1384.359084371659
 30
0.0
 10
2282.462783183026
 20
-1384.353127833783
 30
0.0
 10
2282.30384429563
 20
-1384.347154516927
 30
0.0
  0
HATCH
  5
88
330
70
100
AcDbEntity
  8
Layer 1
 62
   246
420
  8590872
440
 33554687
100
AcDbHatch
 10
0.0
 20
0.0
 30
0.0
210
0.0
220
0.0
230
1.0
  2
SOLID
 70
     1
 71
     1
 91
        9
 92
        1
 93
        1
 72
     4
 94
        3
 73
     0
 74
     0
 95
       17
 96
       13
 40
0.0
 40
0.0
 40
0.0
 40
0.0
 40
1.0
 40
1.0
 40
1.0
 40
2.0
 40
2.0
 40
2.0
 40
3.0
 40
3.0
 40
3.0
 40
4.0
 40
4.0
 40
4.0
 40
4.0
 10
2294.653584609889
 20
-1370.829924389574
 10
2294.51461270861
 20
-1373.231365555268
 10
2294.765961827978
 20
-1375.666146554082
 10
2298.861006111989
 20
-1375.478188420893
 10
2304.862847233326
 20
-1375.202677570425
 10
2307.134075125261
 20
-1372.890852936547
 10
2307.140576979986
 20
-1366.91339167305
 10
2307.143462964534
 20
-1364.253235415803
 10
2305.800985169739
 20
-1364.018950519024
 10
2303.716314366167
 20
-1364.071653294988
 10
2296.553451728502
 20
-1364.252782383344
 10
2294.580780615968
 20
-1365.554495646392
 10
2294.653584609889
 20
-1370.829924389574
 97
        0
 97
        1
330
7F
 92
        1
 93
        1
 72
     4
 94
        3
 73
     0
 74
     0
 95
       17
 96
       13
 40
0.0
 40
0.0
 40
0.0
 40
0.0
 40
1.0
 40
1.0
 40
1.0
 40
2.0
 40
2.0
 40
2.0
 40
3.0
 40
3.0
 40
3.0
 40
4.0
 40
4.0
 40
4.0
 40
4.0
 10
2305.807528971913
 20
-1388.885801472355
 10
2305.189282287884
 20
-1387.033653772665
 10
2307.146030148462
 20
-1383.656816945622
 10
2302.79064321184
 20
-1383.451324778409
 10
2297.109565849847
 20
-1383.183314131969
 10
2294.401891521433
 20
-1384.878242789706
 10
2294.658576356418
 20
-1389.348146264354
 10
2294.797716047497
 20
-1391.771215535176
 10
2293.030369312379
 20
-1395.671103503613
 10
2297.877665603639
 20
-1395.948778842492
 10
2303.796828301365
 20
-1396.287882026896
 10
2305.634453793924
 20
-1394.677905344553
 10
2305.807528971913
 20
-1388.885801472355
 97
        0
 97
        1
330
80
 92
        1
 93
        1
 72
     4
 94
        3
 73
     0
 74
     0
 95
       23
 96
       19
 40
0.0
 40
0.0
 40
0.0
 40
0.0
 40
1.0
 40
1.0
 40
1.0
 40
2.0
 40
2.0
 40
2.0
 40
3.0
 40
3.0
 40
3.0
 40
4.0
 40
4.0
 40
4.0
 40
5.0
 40
5.0
 40
5.0
 40
6.0
 40
6.0
 40
6.0
 40
6.0
 10
2301.516774665986
 20
-1432.024105842622
 10
2298.765609221591
 20
-1432.890303902582
 10
2294.937417834404
 20
-1434.011945153011
 10
2291.171694589499
 20
-1435.314228901381
 10
2289.09527904405
 20
-1436.032335684471
 10
2286.140458730745
 20
-1436.193749471407
 10
2287.562577953781
 20
-1439.882205513728
 10
2288.717307352634
 20
-1442.87711919958
 10
2289.718702043389
 20
-1446.044151661568
 10
2293.932314989084
 20
-1444.658040129463
 10
2297.715605825975
 20
-1443.413509630016
 10
2301.392744446335
 20
-1441.847124737535
 10
2305.120832439254
 20
-1440.433596352224
 10
2308.179590143746
 20
-1439.273833259391
 10
2306.618750704129
 20
-1437.337673207184
 10
2305.942784329138
 20
-1435.562087992923
 10
2305.309914764097
 20
-1433.899660219315
 10
2305.861355939531
 20
-1431.161565600287
 10
2301.516774665986
 20
-1432.024105842622
 97
        0
 97
        1
330
81
 92
        1
 93
        1
 72
     4
 94
        3
 73
     0
 74
     0
 95
       23
 96
       19
 40
0.0
 40
0.0
 40
0.0
 40
0.0
 40
1.0
 40
1.0
 40
1.0
 40
2.0
 40
2.0
 40
2.0
 40
3.0
 40
3.0
 40
3.0
 40
4.0
 40
4.0
 40
4.0
 40
5.0
 40
5.0
 40
5.0
 40
6.0
 40
6.0
 40
6.0
 40
6.0
 10
2339.25785167775
 20
-1425.565608003482
 10
2339.62826443871
 20
-1422.778384531215
 10
2338.905342088379
 20
-1421.173038847333
 10
2335.70530537287
 20
-1422.09152020876
 10
2330.976091152876
 20
-1423.448805453343
 10
2326.218050645357
 20
-1424.707832991447
 10
2321.50371099107
 20
-1426.11407929947
 10
2318.045068247375
 20
-1427.145785217468
 10
2318.79306678321
 20
-1430.021098334371
 10
2319.075767426577
 20
-1432.4823733425
 10
2319.430802252429
 20
-1435.573229235597
 10
2321.811680778215
 20
-1435.730045582033
 10
2324.014500768972
 20
-1435.045194737166
 10
2328.002193139386
 20
-1433.80549658394
 10
2331.834721892887
 20
-1432.070415827231
 10
2335.813957657414
 20
-1430.798434916618
 10
2338.557203423279
 20
-1429.921598983383
 10
2339.699013007589
 20
-1428.311655858997
 10
2339.25785167775
 20
-1425.565608003482
 97
        0
 97
        1
330
82
 92
        1
 93
        1
 72
     4
 94
        3
 73
     0
 74
     0
 95
       23
 96
       19
 40
0.0
 40
0.0
 40
0.0
 40
0.0
 40
1.0
 40
1.0
 40
1.0
 40
2.0
 40
2.0
 40
2.0
 40
3.0
 40
3.0
 40
3.0
 40
4.0
 40
4.0
 40
4.0
 40
5.0
 40
5.0
 40
5.0
 40
6.0
 40
6.0
 40
6.0
 40
6.0
 10
2340.030523703576
 20
-1361.35048866671
 10
2340.750652353747
 20
-1357.045405111923
 10
2339.313113248154
 20
-1355.753541110091
 10
2335.546098021794
 20
-1356.891139170435
 10
2332.227786276751
 20
-1357.893230188856
 10
2328.873861146803
 20
-1359.121820657368
 10
2325.46564762729
 20
-1359.40367396225
 10
2319.9074679038
 20
-1359.863334117461
 10
2318.181607196562
 20
-1363.034410313608
 10
2317.623227912927
 20
-1367.959091260313
 10
2317.26230366512
 20
-1371.14231543793
 10
2317.792343251651
 20
-1372.524416793832
 10
2321.292052548732
 20
-1371.71910965204
 10
2325.206848640831
 20
-1370.818313335461
 10
2329.14732496172
 20
-1369.749676882635
 10
2333.126451662878
 20
-1369.474417716865
 10
2338.864233587548
 20
-1369.077494167617
 10
2340.762800335216
 20
-1366.126004481826
 10
2340.030523703576
 20
-1361.35048866671
 97
        0
 97
        1
330
83
 92
        1
 93
        1
 72
     4
 94
        3
 73
     0
 74
     0
 95
       23
 96
       19
 40
0.0
 40
0.0
 40
0.0
 40
0.0
 40
1.0
 40
1.0
 40
1.0
 40
2.0
 40
2.0
 40
2.0
 40
3.0
 40
3.0
 40
3.0
 40
4.0
 40
4.0
 40
4.0
 40
5.0
 40
5.0
 40
5.0
 40
6.0
 40
6.0
 40
6.0
 40
6.0
 10
2338.751394947513
 20
-1380.862663754647
 10
2338.158299954401
 20
-1379.972438195425
 10
2341.213475346675
 20
-1375.716097577337
 10
2336.430241200791
 20
-1376.374622202689
 10
2330.844451665825
 20
-1377.143653189869
 10
2325.188551163217
 20
-1378.300865877754
 10
2319.930085968747
 20
-1380.269862393681
 10
2315.619649919361
 20
-1381.88386603121
 10
2316.912302533248
 20
-1386.538136937343
 10
2317.206144419291
 20
-1389.951350592877
 10
2317.538410169374
 20
-1393.810969009475
 10
2320.804673518673
 20
-1392.107516629938
 10
2322.840643332996
 20
-1391.803330502767
 10
2326.260828654691
 20
-1391.292343447945
 10
2329.577596733582
 20
-1390.101874821837
 10
2332.995298766247
 20
-1389.558504335749
 10
2337.574752200868
 20
-1388.830430838581
 10
2339.999264463964
 20
-1386.694600925199
 10
2338.751394947513
 20
-1380.862663754647
 97
        0
 97
        1
330
84
 92
        1
 93
        1
 72
     4
 94
        3
 73
     0
 74
     0
 95
       23
 96
       19
 40
0.0
 40
0.0
 40
0.0
 40
0.0
 40
1.0
 40
1.0
 40
1.0
 40
2.0
 40
2.0
 40
2.0
 40
3.0
 40
3.0
 40
3.0
 40
4.0
 40
4.0
 40
4.0
 40
5.0
 40
5.0
 40
5.0
 40
6.0
 40
6.0
 40
6.0
 40
6.0
 10
2318.326544025207
 20
-1409.191538416129
 10
2318.181422627782
 20
-1416.718253233601
 10
2318.191540352682
 20
-1416.760167125467
 10
2324.480411094208
 20
-1415.451440248806
 10
2326.977198813358
 20
-1414.9318287983
 10
2329.454556473747
 20
-1414.27714655935
 10
2331.893951692044
 20
-1413.530884647938
 10
2340.410055840126
 20
-1410.925746665885
 10
2340.878441064902
 20
-1410.022131480677
 10
2339.699684166786
 20
-1401.152024414008
 10
2339.334271541848
 20
-1398.402369077808
 10
2338.599108925659
 20
-1397.132787561324
 10
2335.543539227354
 20
-1398.148821912069
 10
2332.258156230426
 20
-1399.2412845164
 10
2328.890052862436
 20
-1400.269148047995
 10
2325.476948270273
 20
-1400.751845742652
 10
2319.832784664126
 20
-1401.550088933891
 10
2317.399438268098
 20
-1404.429898817419
 10
2318.326544025207
 20
-1409.191538416129
 97
        0
 97
        1
330
85
 92
        1
 93
        1
 72
     4
 94
        3
 73
     0
 74
     0
 95
       47
 96
       43
 40
0.0
 40
0.0
 40
0.0
 40
0.0
 40
1.0
 40
1.0
 40
1.0
 40
2.0
 40
2.0
 40
2.0
 40
3.0
 40
3.0
 40
3.0
 40
4.0
 40
4.0
 40
4.0
 40
5.0
 40
5.0
 40
5.0
 40
6.0
 40
6.0
 40
6.0
 40
7.0
 40
7.0
 40
7.0
 40
8.0
 40
8.0
 40
8.0
 40
9.0
 40
9.0
 40
9.0
 40
10.0
 40
10.0
 40
10.0
 40
11.0
 40
11.0
 40
11.0
 40
12.0
 40
12.0
 40
12.0
 40
13.0
 40
13.0
 40
13.0
 40
14.0
 40
14.0
 40
14.0
 40
14.0
 10
2349.6632437976
 20
-1454.897882443823
 10
2354.710520361168
 20
-1454.935131779271
 10
2358.563427185796
 20
-1453.823759264556
 10
2361.681163004745
 20
-1451.019085653162
 10
2366.819088007389
 20
-1446.397080725437
 10
2372.836734927822
 20
-1444.351823745721
 10
2379.636634671617
 20
-1443.897381853268
 10
2382.897562305298
 20
-1443.679422903966
 10
2386.189531051849
 20
-1443.059271805712
 10
2389.331478938837
 20
-1442.151025622046
 10
2393.123679414074
 20
-1441.05475418927
 10
2395.600844116194
 20
-1438.359714432747
 10
2396.164433273098
 20
-1434.346551570797
 10
2396.733593051338
 20
-1430.293958106013
 10
2393.749115891004
 20
-1428.599482480735
 10
2390.858349333583
 20
-1426.8554753067
 10
2384.898271093294
 20
-1423.259773465437
 10
2378.122784765299
 20
-1422.456630812059
 10
2371.500909998571
 20
-1421.246128083912
 10
2364.831315812919
 20
-1420.026933844165
 10
2364.812909271936
 20
-1420.196535773306
 10
2365.581101310118
 20
-1426.969001884914
 10
2366.011381471469
 20
-1430.762360109766
 10
2367.065604780537
 20
-1434.743978489445
 10
2363.23707781375
 20
-1437.564290110134
 10
2358.903621003898
 20
-1440.756558157936
 10
2354.143407618479
 20
-1443.00383405602
 10
2348.765736161089
 20
-1443.823084530133
 10
2346.42459025978
 20
-1444.179738527549
 10
2344.237148204129
 20
-1444.127589457923
 10
2343.381839702144
 20
-1441.420670183608
 10
2341.986977932007
 20
-1437.006120563746
 10
2339.317190540278
 20
-1437.545699000369
 10
2336.236511098508
 20
-1439.425548795927
 10
2334.205549809693
 20
-1440.664877811592
 10
2332.215613126811
 20
-1441.972463717618
 10
2330.168527238282
 20
-1443.184006742522
 10
2328.348997875581
 20
-1444.260848116537
 10
2327.637334220785
 20
-1445.380375215496
 10
2329.863930026106
 20
-1446.732559650179
 10
2336.281931797181
 20
-1450.630249572241
 10
2342.652323212702
 20
-1454.662540471312
 10
2349.6632437976
 20
-1454.897882443823
 97
        0
 97
        1
330
86
 92
        1
 93
        1
 72
     4
 94
        3
 73
     0
 74
     0
 95
      134
 96
      130
 40
0.0
 40
0.0
 40
0.0
 40
0.0
 40
1.0
 40
1.0
 40
1.0
 40
2.0
 40
2.0
 40
2.0
 40
3.0
 40
3.0
 40
3.0
 40
4.0
 40
4.0
 40
4.0
 40
5.0
 40
5.0
 40
5.0
 40
6.0
 40
6.0
 40
6.0
 40
7.0
 40
7.0
 40
7.0
 40
8.0
 40
8.0
 40
8.0
 40
9.0
 40
9.0
 40
9.0
 40
10.0
 40
10.0
 40
10.0
 40
11.0
 40
11.0
 40
11.0
 40
12.0
 40
12.0
 40
12.0
 40
13.0
 40
13.0
 40
13.0
 40
14.0
 40
14.0
 40
14.0
 40
15.0
 40
15.0
 40
15.0
 40
16.0
 40
16.0
 40
16.0
 40
17.0
 40
17.0
 40
17.0
 40
18.0
 40
18.0
 40
18.0
 40
19.0
 40
19.0
 40
19.0
 40
20.0
 40
20.0
 40
20.0
 40
21.0
 40
21.0
 40
21.0
 40
22.0
 40
22.0
 40
22.0
 40
23.0
 40
23.0
 40
23.0
 40
24.0
 40
24.0
 40
24.0
 40
25.0
 40
25.0
 40
25.0
 40
26.0
 40
26.0
 40
26.0
 40
27.0
 40
27.0
 40
27.0
 40
28.0
 40
28.0
 40
28.0
 40
29.0
 40
29.0
 40
29.0
 40
30.0
 40
30.0
 40
30.0
 40
31.0
 40
31.0
 40
31.0
 40
32.0
 40
32.0
 40
32.0
 40
33.0
 40
33.0
 40
33.0
 40
34.0
 40
34.0
 40
34.0
 40
35.0
 40
35.0
 40
35.0
 40
36.0
 40
36.0
 40
36.0
 40
37.0
 40
37.0
 40
37.0
 40
38.0
 40
38.0
 40
38.0
 40
39.0
 40
39.0
 40
39.0
 40
40.0
 40
40.0
 40
40.0
 40
41.0
 40
41.0
 40
41.0
 40
42.0
 40
42.0
 40
42.0
 40
43.0
 40
43.0
 40
43.0
 40
43.0
 10
2282.30384429563
 20
-1384.347154516927
 10
2282.809336234523
 20
-1376.86070925129
 10
2283.3308101518
 20
-1369.375287503433
 10
2283.811704106113
 20
-1361.887265013683
 10
2283.982019141902
 20
-1359.235481467422
 10
2284.90539157598
 20
-1357.442378998112
 10
2287.867552693006
 20
-1356.947701111781
 10
2307.943652517446
 20
-1353.594958899921
 10
2327.428100341045
 20
-1347.694261469609
 10
2347.223773073896
 20
-1343.132761543515
 10
2351.466120022722
 20
-1342.15520139375
 10
2355.952114539126
 20
-1341.64921447495
 10
2360.292350056872
 20
-1341.813229003776
 10
2367.647197782906
 20
-1342.091172806336
 10
2370.241949576385
 20
-1345.658719519273
 10
2368.171742253511
 20
-1352.725623170714
 10
2363.338892663971
 20
-1369.223085376477
 10
2360.934783640471
 20
-1385.920972497519
 10
2361.984224940259
 20
-1403.157884348846
 10
2362.296481756775
 20
-1408.286916492128
 10
2363.73803103857
 20
-1410.288715913823
 10
2369.163010829878
 20
-1410.757252149415
 10
2384.511649837725
 20
-1412.082825121928
 10
2398.881252145573
 20
-1416.72050161691
 10
2411.764605969089
 20
-1425.482786958542
 10
2423.267620229599
 20
-1433.306288373031
 10
2425.473082909695
 20
-1447.21384791052
 10
2416.287715589102
 20
-1455.321484571163
 10
2412.466118341028
 20
-1458.69469713854
 10
2407.757953351355
 20
-1460.35175563857
 10
2402.721440503412
 20
-1460.650589271143
 10
2395.134455590031
 20
-1461.100836418613
 10
2387.895617731238
 20
-1462.767660284964
 10
2380.9309651835
 20
-1465.801803225895
 10
2372.809167063795
 20
-1469.340087397835
 10
2364.861132060256
 20
-1467.749675006089
 10
2356.879102843377
 20
-1464.993996016095
 10
2345.439303389758
 20
-1461.044559719925
 10
2334.089925858989
 20
-1456.867768245687
 10
2323.480048310719
 20
-1451.012407619149
 10
2319.5547317982
 20
-1448.846140636171
 10
2316.344082377884
 20
-1448.687646391743
 10
2313.118843634518
 20
-1451.893908108806
 10
2310.513277788476
 20
-1454.484213472602
 10
2307.436440733109
 20
-1454.974226802511
 10
2303.994946106901
 20
-1453.886613323378
 10
2302.42569200885
 20
-1453.390727350496
 10
2300.819775839649
 20
-1453.004038979005
 10
2299.21845711095
 20
-1452.617652629153
 10
2291.46545258064
 20
-1450.746729250921
 10
2291.476744834134
 20
-1450.754313349851
 10
2290.476272987275
 20
-1458.820573045985
 10
2290.163865159939
 20
-1461.339366397311
 10
2290.263104436741
 20
-1464.370992491254
 10
2287.07811846623
 20
-1465.038930124348
 10
2283.792248878883
 20
-1465.728076388077
 10
2281.949832987553
 20
-1463.10934743228
 10
2280.831266485197
 20
-1460.683073376291
 10
2278.462573693585
 20
-1455.545148373643
 10
2276.180301038108
 20
-1450.30436822402
 10
2274.58616371282
 20
-1444.892643826861
 10
2273.351524422043
 20
-1440.701321756001
 10
2270.990889735545
 20
-1439.406018063287
 10
2267.005147921549
 20
-1439.489074013945
 10
2261.490937514969
 20
-1439.604010026473
 10
2256.049786981753
 20
-1438.828183552421
 10
2250.685022754675
 20
-1437.546940644886
 10
2248.183994148349
 20
-1436.949676075259
 10
2245.802759069238
 20
-1436.101599313624
 10
2243.599035110936
 20
-1434.708541283831
 10
2240.27753745708
 20
-1432.60888685118
 10
2237.502793351137
 20
-1429.990426359058
 10
2238.957574955981
 20
-1425.799003614323
 10
2240.524601644447
 20
-1421.284182810395
 10
2244.481714323935
 20
-1423.543707363831
 10
2247.474608240078
 20
-1423.773143135408
 10
2252.208734506448
 20
-1424.136038913359
 10
2256.909973972153
 20
-1424.910590184932
 10
2261.632665363701
 20
-1425.44426242062
 10
2268.207642881522
 20
-1426.187235651967
 10
2268.626211314883
 20
-1425.738431496771
 10
2267.376865248196
 20
-1419.089425119495
 10
2266.059291654364
 20
-1412.07728805855
 10
2264.546914103536
 20
-1405.099984159944
 10
2263.34027473552
 20
-1398.069591568834
 10
2262.869062252626
 20
-1395.324114198636
 10
2261.394324148525
 20
-1391.633678236681
 10
2264.832517510433
 20
-1390.19348805226
 10
2268.116084182784
 20
-1388.818081509354
 10
2270.706867747507
 20
-1391.621479918274
 10
2272.637906016087
 20
-1394.075590301967
 10
2275.87826262037
 20
-1398.193688904404
 10
2277.209930557343
 20
-1403.183086376702
 10
2278.322255279167
 20
-1408.207619032975
 10
2279.151401156694
 20
-1411.952989375222
 10
2279.677686446467
 20
-1415.779133726861
 10
2281.376407153667
 20
-1419.283390127497
 10
2281.93397685152
 20
-1420.433555643812
 10
2282.231367491819
 20
-1421.864030798853
 10
2283.102389508509
 20
-1422.682542997849
 10
2288.016021496925
 20
-1427.300017600995
 10
2293.046410017194
 20
-1423.156482064984
 10
2297.942264676374
 20
-1422.471429872359
 10
2300.940181799635
 20
-1422.05188825816
 10
2304.830665149817
 20
-1421.60197669029
 10
2304.678530138783
 20
-1416.827618624789
 10
2304.614551888306
 20
-1414.820181465838
 10
2305.034278071282
 20
-1412.781233382579
 10
2304.827896618128
 20
-1410.798897577606
 10
2304.623201452459
 20
-1408.832803825204
 10
2306.052032267468
 20
-1405.671946027833
 10
2303.046061233841
 20
-1405.275290942263
 10
2300.522754336911
 20
-1404.94242953839
 10
2297.531104162656
 20
-1405.663120284389
 10
2295.961321526735
 20
-1408.448967880304
 10
2294.972762755628
 20
-1410.203378021892
 10
2294.141582426783
 20
-1412.054133066245
 10
2293.060730876565
 20
-1413.747333489049
 10
2290.245058643826
 20
-1418.158258849242
 10
2289.042425257269
 20
-1418.113962342224
 10
2286.410860381822
 20
-1413.429237587515
 10
2284.129883902546
 20
-1409.368690886244
 10
2282.991295882384
 20
-1404.909005810368
 10
2282.824991022797
 20
-1400.293074873378
 10
2282.633945557304
 20
-1394.990078266171
 10
2282.78066095782
 20
-1389.674933677492
 10
2282.78066095782
 20
-1384.365057688512
 10
2282.621722070424
 20
-1384.359084371659
 10
2282.462783183026
 20
-1384.353127833783
 10
2282.30384429563
 20
-1384.347154516927
 97
        0
 97
        1
330
87
 75
     2
 76
     1
 98
        1
 10
0.0
 20
0.0
450
        0
451
        0
460
0.0
461
0.0
452
        0
462
0.0
453
        0
470

  0
SPLINE
  5
89
330
70
100
AcDbEntity
  8
Layer 1
100
AcDbSpline
210
0.0
220
0.0
230
1.0
 70
     9
 71
     3
 72
    89
 73
    85
 74
     0
 42
0.0000000001
 43
0.0000000001
 40
0.0
 40
0.0
 40
0.0
 40
0.0
 40
1.0
 40
1.0
 40
1.0
 40
2.0
 40
2.0
 40
2.0
 40
3.0
 40
3.0
 40
3.0
 40
4.0
 40
4.0
 40
4.0
 40
5.0
 40
5.0
 40
5.0
 40
6.0
 40
6.0
 40
6.0
 40
7.0
 40
7.0
 40
7.0
 40
8.0
 40
8.0
 40
8.0
 40
9.0
 40
9.0
 40
9.0
 40
10.0
 40
10.0
 40
10.0
 40
11.0
 40
11.0
 40
11.0
 40
12.0
 40
12.0
 40
12.0
 40
13.0
 40
13.0
 40
13.0
 40
14.0
 40
14.0
 40
14.0
 40
15.0
 40
15.0
 40
15.0
 40
16.0
 40
16.0
 40
16.0
 40
17.0
 40
17.0
 40
17.0
 40
18.0
 40
18.0
 40
18.0
 40
19.0
 40
19.0
 40
19.0
 40
20.0
 40
20.0
 40
20.0
 40
21.0
 40
21.0
 40
21.0
 40
22.0
 40
22.0
 40
22.0
 40
23.0
 40
23.0
 40
23.0
 40
24.0
 40
24.0
 40
24.0
 40
25.0
 40
25.0
 40
25.0
 40
26.0
 40
26.0
 40
26.0
 40
27.0
 40
27.0
 40
27.0
 40
28.0
 40
28.0
 40
28.0
 40
28.0
 10
2384.036133546477
 20
-1331.761713960164
 30
0.0
 10
2363.337567124558
 20
-1330.801268369931
 30
0.0
 10
2344.652444736403
 20
-1334.966348116173
 30
0.0
 10
2326.144499986829
 20
-1340.529469249253
 30
0.0
 10
2308.111106737157
 20
-1345.949969052919
 30
0.0
 10
2290.178605493809
 20
-1352.204132474457
 30
0.0
 10
2270.791194705896
 20
-1349.35351801601
 30
0.0
 10
2262.273232285785
 20
-1348.101101395998
 30
0.0
 10
2253.662750570333
 20
-1347.273998359276
 30
0.0
 10
2246.255109881317
 20
-1342.241210444877
 30
0.0
 10
2242.071088764104
 20
-1339.398532443942
 30
0.0
 10
2242.171158600413
 20
-1338.510051898633
 30
0.0
 10
2246.608439543332
 20
-1336.090187412974
 30
0.0
 10
2252.131140113757
 20
-1333.078410852293
 30
0.0
 10
2257.810317256273
 20
-1332.069625020878
 30
0.0
 10
2264.06520217395
 20
-1333.450199489605
 30
0.0
 10
2276.041660521683
 20
-1336.093610324882
 30
0.0
 10
2288.041458430502
 20
-1338.664049376439
 30
0.0
 10
2300.481402540871
 20
-1337.043736842457
 30
0.0
 10
2304.329116271208
 20
-1336.542599048855
 30
0.0
 10
2307.068083397193
 20
-1334.963562805504
 30
0.0
 10
2308.414957284727
 20
-1331.314067554584
 30
0.0
 10
2309.752141311354
 20
-1327.690831407253
 30
0.0
 10
2309.939151432174
 20
-1324.441967860144
 30
0.0
 10
2305.308824130403
 20
-1322.951272946127
 30
0.0
 10
2301.255500779989
 20
-1321.646338118931
 30
0.0
 10
2301.273001256057
 20
-1319.492890276622
 30
0.0
 10
2303.831250378695
 20
-1316.466885140955
 30
0.0
 10
2307.978150100182
 20
-1311.561768484855
 30
0.0
 10
2311.341521795832
 20
-1306.114220965541
 30
0.0
 10
2314.372812310176
 20
-1300.443865371722
 30
0.0
 10
2315.962125678732
 20
-1297.470915370599
 30
0.0
 10
2318.08729255037
 20
-1294.397291489891
 30
0.0
 10
2322.015914521937
 20
-1295.646587219635
 30
0.0
 10
2325.723028789942
 20
-1296.82546157061
 30
0.0
 10
2324.552241907293
 20
-1300.439469278979
 30
0.0
 10
2324.496502135962
 20
-1303.233253332401
 30
0.0
 10
2324.351716318137
 20
-1310.4897258991
 30
0.0
 10
2321.75933875032
 20
-1317.193079392371
 30
0.0
 10
2319.611511866286
 20
-1323.993432168627
 30
0.0
 10
2318.891534226936
 20
-1326.273007603078
 30
0.0
 10
2317.829022101781
 20
-1328.93923785106
 30
0.0
 10
2320.714595564914
 20
-1330.269978749395
 30
0.0
 10
2323.491315395742
 20
-1331.550516939769
 30
0.0
 10
2324.967068628128
 20
-1329.183573356818
 30
0.0
 10
2326.365034509552
 20
-1327.200163697129
 30
0.0
 10
2331.049482411094
 20
-1320.553942630522
 30
0.0
 10
2334.214300047726
 20
-1313.155268208906
 30
0.0
 10
2336.97086832366
 20
-1305.575313688114
 30
0.0
 10
2338.633472276557
 20
-1301.003477910381
 30
0.0
 10
2337.992137716143
 20
-1296.827273700444
 30
0.0
 10
2333.78553838406
 20
-1293.843836836862
 30
0.0
 10
2329.829969370723
 20
-1291.038492066272
 30
0.0
 10
2330.034404462203
 20
-1288.225898776349
 30
0.0
 10
2333.120428009082
 20
-1284.870874623219
 30
0.0
 10
2336.930405813557
 20
-1280.728815637438
 30
0.0
 10
2341.544205820095
 20
-1277.918604962666
 30
0.0
 10
2346.680452924749
 20
-1275.80128226415
 30
0.0
 10
2349.526637732492
 20
-1274.62796175553
 30
0.0
 10
2351.578186829682
 20
-1275.819990826771
 30
0.0
 10
2353.568693997881
 20
-1277.703565555872
 30
0.0
 10
2359.640285338792
 20
-1283.448939968963
 30
0.0
 10
2361.101063331589
 20
-1293.980417733503
 30
0.0
 10
2356.906855276184
 20
-1303.292046878076
 30
0.0
 10
2355.033146587284
 20
-1307.451925140543
 30
0.0
 10
2352.579019424608
 20
-1311.370202870981
 30
0.0
 10
2350.942733301734
 20
-1315.612012892448
 30
0.0
 10
2349.066079901855
 20
-1320.476927112639
 30
0.0
 10
2350.173786209452
 20
-1321.612746601109
 30
0.0
 10
2355.399867972657
 20
-1320.513069035409
 30
0.0
 10
2369.781232345438
 20
-1317.486946446883
 30
0.0
 10
2384.255904625614
 20
-1315.634832305157
 30
0.0
 10
2398.995600893803
 20
-1316.170098543935
 30
0.0
 10
2402.511636138355
 20
-1316.297769802229
 30
0.0
 10
2405.939548180308
 20
-1316.802481518556
 30
0.0
 10
2409.24848047557
 20
-1317.820176988316
 30
0.0
 10
2412.042264528988
 20
-1318.679462108543
 30
0.0
 10
2413.084608320265
 20
-1320.613508009275
 30
0.0
 10
2410.939264725261
 20
-1323.187286077838
 30
0.0
 10
2406.628140737697
 20
-1328.359305967704
 30
0.0
 10
2402.114645473186
 20
-1332.943021263228
 30
0.0
 10
2394.348695959859
 20
-1331.853142621807
 30
0.0
 10
2390.578610180171
 20
-1331.324034268662
 30
0.0
 10
2386.672832789784
 20
-1331.761713960164
 30
0.0
 10
2384.036133546477
 20
-1331.761713960164
 30
0.0
  0
HATCH
  5
8A
330
70
100
AcDbEntity
  8
Layer 1
 62
   246
420
  8590872
440
 33554687
100
AcDbHatch
 10
0.0
 20
0.0
 30
0.0
210
0.0
220
0.0
230
1.0
  2
SOLID
 70
     1
 71
     1
 91
        1
 92
        1
 93
        1
 72
     4
 94
        3
 73
     0
 74
     0
 95
       89
 96
       85
 40
0.0
 40
0.0
 40
0.0
 40
0.0
 40
1.0
 40
1.0
 40
1.0
 40
2.0
 40
2.0
 40
2.0
 40
3.0
 40
3.0
 40
3.0
 40
4.0
 40
4.0
 40
4.0
 40
5.0
 40
5.0
 40
5.0
 40
6.0
 40
6.0
 40
6.0
 40
7.0
 40
7.0
 40
7.0
 40
8.0
 40
8.0
 40
8.0
 40
9.0
 40
9.0
 40
9.0
 40
10.0
 40
10.0
 40
10.0
 40
11.0
 40
11.0
 40
11.0
 40
12.0
 40
12.0
 40
12.0
 40
13.0
 40
13.0
 40
13.0
 40
14.0
 40
14.0
 40
14.0
 40
15.0
 40
15.0
 40
15.0
 40
16.0
 40
16.0
 40
16.0
 40
17.0
 40
17.0
 40
17.0
 40
18.0
 40
18.0
 40
18.0
 40
19.0
 40
19.0
 40
19.0
 40
20.0
 40
20.0
 40
20.0
 40
21.0
 40
21.0
 40
21.0
 40
22.0
 40
22.0
 40
22.0
 40
23.0
 40
23.0
 40
23.0
 40
24.0
 40
24.0
 40
24.0
 40
25.0
 40
25.0
 40
25.0
 40
26.0
 40
26.0
 40
26.0
 40
27.0
 40
27.0
 40
27.0
 40
28.0
 40
28.0
 40
28.0
 40
28.0
 10
2384.036133546477
 20
-1331.761713960164
 10
2363.337567124558
 20
-1330.801268369931
 10
2344.652444736403
 20
-1334.966348116173
 10
2326.144499986829
 20
-1340.529469249253
 10
2308.111106737157
 20
-1345.949969052919
 10
2290.178605493809
 20
-1352.204132474457
 10
2270.791194705896
 20
-1349.35351801601
 10
2262.273232285785
 20
-1348.101101395998
 10
2253.662750570333
 20
-1347.273998359276
 10
2246.255109881317
 20
-1342.241210444877
 10
2242.071088764104
 20
-1339.398532443942
 10
2242.171158600413
 20
-1338.510051898633
 10
2246.608439543332
 20
-1336.090187412974
 10
2252.131140113757
 20
-1333.078410852293
 10
2257.810317256273
 20
-1332.069625020878
 10
2264.06520217395
 20
-1333.450199489605
 10
2276.041660521683
 20
-1336.093610324882
 10
2288.041458430502
 20
-1338.664049376439
 10
2300.481402540871
 20
-1337.043736842457
 10
2304.329116271208
 20
-1336.542599048855
 10
2307.068083397193
 20
-1334.963562805504
 10
2308.414957284727
 20
-1331.314067554584
 10
2309.752141311354
 20
-1327.690831407253
 10
2309.939151432174
 20
-1324.441967860144
 10
2305.308824130403
 20
-1322.951272946127
 10
2301.255500779989
 20
-1321.646338118931
 10
2301.273001256057
 20
-1319.492890276622
 10
2303.831250378695
 20
-1316.466885140955
 10
2307.978150100182
 20
-1311.561768484855
 10
2311.341521795832
 20
-1306.114220965541
 10
2314.372812310176
 20
-1300.443865371722
 10
2315.962125678732
 20
-1297.470915370599
 10
2318.08729255037
 20
-1294.397291489891
 10
2322.015914521937
 20
-1295.646587219635
 10
2325.723028789942
 20
-1296.82546157061
 10
2324.552241907293
 20
-1300.439469278979
 10
2324.496502135962
 20
-1303.233253332401
 10
2324.351716318137
 20
-1310.4897258991
 10
2321.75933875032
 20
-1317.193079392371
 10
2319.611511866286
 20
-1323.993432168627
 10
2318.891534226936
 20
-1326.273007603078
 10
2317.829022101781
 20
-1328.93923785106
 10
2320.714595564914
 20
-1330.269978749395
 10
2323.491315395742
 20
-1331.550516939769
 10
2324.967068628128
 20
-1329.183573356818
 10
2326.365034509552
 20
-1327.200163697129
 10
2331.049482411094
 20
-1320.553942630522
 10
2334.214300047726
 20
-1313.155268208906
 10
2336.97086832366
 20
-1305.575313688114
 10
2338.633472276557
 20
-1301.003477910381
 10
2337.992137716143
 20
-1296.827273700444
 10
2333.78553838406
 20
-1293.843836836862
 10
2329.829969370723
 20
-1291.038492066272
 10
2330.034404462203
 20
-1288.225898776349
 10
2333.120428009082
 20
-1284.870874623219
 10
2336.930405813557
 20
-1280.728815637438
 10
2341.544205820095
 20
-1277.918604962666
 10
2346.680452924749
 20
-1275.80128226415
 10
2349.526637732492
 20
-1274.62796175553
 10
2351.578186829682
 20
-1275.819990826771
 10
2353.568693997881
 20
-1277.703565555872
 10
2359.640285338792
 20
-1283.448939968963
 10
2361.101063331589
 20
-1293.980417733503
 10
2356.906855276184
 20
-1303.292046878076
 10
2355.033146587284
 20
-1307.451925140543
 10
2352.579019424608
 20
-1311.370202870981
 10
2350.942733301734
 20
-1315.612012892448
 10
2349.066079901855
 20
-1320.476927112639
 10
2350.173786209452
 20
-1321.612746601109
 10
2355.399867972657
 20
-1320.513069035409
 10
2369.781232345438
 20
-1317.486946446883
 10
2384.255904625614
 20
-1315.634832305157
 10
2398.995600893803
 20
-1316.170098543935
 10
2402.511636138355
 20
-1316.297769802229
 10
2405.939548180308
 20
-1316.802481518556
 10
2409.24848047557
 20
-1317.820176988316
 10
2412.042264528988
 20
-1318.679462108543
 10
2413.084608320265
 20
-1320.613508009275
 10
2410.939264725261
 20
-1323.187286077838
 10
2406.628140737697
 20
-1328.359305967704
 10
2402.114645473186
 20
-1332.943021263228
 10
2394.348695959859
 20
-1331.853142621807
 10
2390.578610180171
 20
-1331.324034268662
 10
2386.672832789784
 20
-1331.761713960164
 10
2384.036133546477
 20
-1331.761713960164
 97
        0
 97
        1
330
89
 75
     2
 76
     1
 98
        1
 10
0.0
 20
0.0
450
        0
451
        0
460
0.0
461
0.0
452
        0
462
0.0
453
        0
470

  0
SPLINE
  5
8B
330
70
100
AcDbEntity
  8
Layer 1
100
AcDbSpline
210
0.0
220
0.0
230
1.0
 70
     9
 71
     3
 72
    50
 73
    46
 74
     0
 42
0.0000000001
 43
0.0000000001
 40
0.0
 40
0.0
 40
0.0
 40
0.0
 40
1.0
 40
1.0
 40
1.0
 40
2.0
 40
2.0
 40
2.0
 40
3.0
 40
3.0
 40
3.0
 40
4.0
 40
4.0
 40
4.0
 40
5.0
 40
5.0
 40
5.0
 40
6.0
 40
6.0
 40
6.0
 40
7.0
 40
7.0
 40
7.0
 40
8.0
 40
8.0
 40
8.0
 40
9.0
 40
9.0
 40
9.0
 40
10.0
 40
10.0
 40
10.0
 40
11.0
 40
11.0
 40
11.0
 40
12.0
 40
12.0
 40
12.0
 40
13.0
 40
13.0
 40
13.0
 40
14.0
 40
14.0
 40
14.0
 40
15.0
 40
15.0
 40
15.0
 40
15.0
 10
2348.41508903849
 20
-1231.484262943217
 30
0.0
 10
2334.33770105563
 20
-1229.879210891482
 30
0.0
 10
2322.40907957968
 20
-1233.505534371121
 30
0.0
 10
2310.646511278617
 20
-1237.751362958283
 30
0.0
 10
2292.09614087829
 20
-1244.447325310895
 30
0.0
 10
2273.239969373972
 20
-1249.440288316425
 30
0.0
 10
2253.31688965176
 20
-1249.212740180093
 30
0.0
 10
2249.082282007426
 20
-1249.16437477044
 30
0.0
 10
2244.891897462074
 20
-1248.96522505764
 30
0.0
 10
2240.936722754767
 20
-1247.220311818691
 30
0.0
 10
2239.390053163705
 20
-1246.537952652343
 30
0.0
 10
2237.802348479847
 20
-1245.772814388507
 30
0.0
 10
2237.727497450375
 20
-1243.85737637652
 30
0.0
 10
2237.650244929398
 20
-1241.880359508184
 30
0.0
 10
2239.301221049204
 20
-1241.028289349327
 30
0.0
 10
2240.802283275443
 20
-1240.387449768819
 30
0.0
 10
2248.070891239378
 20
-1237.28432844139
 30
0.0
 10
2255.584052835807
 20
-1234.246250829666
 30
0.0
 10
2263.407067659878
 20
-1233.854168016129
 30
0.0
 10
2289.166640045698
 20
-1232.563134573804
 30
0.0
 10
2313.442669557697
 20
-1224.982517283304
 30
0.0
 10
2337.80093285034
 20
-1217.550360407236
 30
0.0
 10
2345.156032261073
 20
-1215.306180230949
 30
0.0
 10
2352.525276351889
 20
-1213.085406731665
 30
0.0
 10
2359.964388115139
 20
-1211.146830506353
 30
0.0
 10
2365.829698676776
 20
-1209.618391276981
 30
0.0
 10
2371.677106066826
 20
-1210.42216314211
 30
0.0
 10
2377.15163418587
 20
-1212.898841253813
 30
0.0
 10
2387.842294133017
 20
-1217.735315103018
 30
0.0
 10
2398.845294791579
 20
-1221.75226162494
 30
0.0
 10
2409.841114046734
 20
-1225.801801315378
 30
0.0
 10
2415.087615828514
 20
-1227.733984749338
 30
0.0
 10
2419.72215465425
 20
-1230.604960499931
 30
0.0
 10
2419.96773180452
 20
-1236.791898938376
 30
0.0
 10
2420.221346086177
 20
-1243.181955318374
 30
0.0
 10
2417.112402452713
 20
-1248.458306905453
 30
0.0
 10
2412.405630118376
 20
-1252.599258478556
 30
0.0
 10
2410.177666826192
 20
-1254.55938730359
 30
0.0
 10
2407.435880831578
 20
-1254.24830501567
 30
0.0
 10
2404.653321915732
 20
-1253.091545360243
 30
0.0
 10
2396.330360605636
 20
-1249.631543519172
 30
0.0
 10
2388.719297856052
 20
-1244.851715506214
 30
0.0
 10
2380.855946364227
 20
-1240.542093237352
 30
0.0
 10
2370.336650139114
 20
-1234.776844122534
 30
0.0
 10
2359.760540287956
 20
-1229.295386284782
 30
0.0
 10
2348.41508903849
 20
-1231.484262943217
 30
0.0
  0
HATCH
  5
8C
330
70
100
AcDbEntity
  8
Layer 1
 62
    18
420
        0
440
 33554687
100
AcDbHatch
 10
0.0
 20
0.0
 30
0.0
210
0.0
220
0.0
230
1.0
  2
SOLID
 70
     1
 71
     1
 91
        1
 92
        1
 93
        1
 72
     4
 94
        3
 73
     0
 74
     0
 95
       50
 96
       46
 40
0.0
 40
0.0
 40
0.0
 40
0.0
 40
1.0
 40
1.0
 40
1.0
 40
2.0
 40
2.0
 40
2.0
 40
3.0
 40
3.0
 40
3.0
 40
4.0
 40
4.0
 40
4.0
 40
5.0
 40
5.0
 40
5.0
 40
6.0
 40
6.0
 40
6.0
 40
7.0
 40
7.0
 40
7.0
 40
8.0
 40
8.0
 40
8.0
 40
9.0
 40
9.0
 40
9.0
 40
10.0
 40
10.0
 40
10.0
 40
11.0
 40
11.0
 40
11.0
 40
12.0
 40
12.0
 40
12.0
 40
13.0
 40
13.0
 40
13.0
 40
14.0
 40
14.0
 40
14.0
 40
15.0
 40
15.0
 40
15.0
 40
15.0
 10
2348.41508903849
 20
-1231.484262943217
 10
2334.33770105563
 20
-1229.879210891482
 10
2322.40907957968
 20
-1233.505534371121
 10
2310.646511278617
 20
-1237.751362958283
 10
2292.09614087829
 20
-1244.447325310895
 10
2273.239969373972
 20
-1249.440288316425
 10
2253.31688965176
 20
-1249.212740180093
 10
2249.082282007426
 20
-1249.16437477044
 10
2244.891897462074
 20
-1248.96522505764
 10
2240.936722754767
 20
-1247.220311818691
 10
2239.390053163705
 20
-1246.537952652343
 10
2237.802348479847
 20
-1245.772814388507
 10
2237.727497450375
 20
-1243.85737637652
 10
2237.650244929398
 20
-1241.880359508184
 10
2239.301221049204
 20
-1241.028289349327
 10
2240.802283275443
 20
-1240.387449768819
 10
2248.070891239378
 20
-1237.28432844139
 10
2255.584052835807
 20
-1234.246250829666
 10
2263.407067659878
 20
-1233.854168016129
 10
2289.166640045698
 20
-1232.563134573804
 10
2313.442669557697
 20
-1224.982517283304
 10
2337.80093285034
 20
-1217.550360407236
 10
2345.156032261073
 20
-1215.306180230949
 10
2352.525276351889
 20
-1213.085406731665
 10
2359.964388115139
 20
-1211.146830506353
 10
2365.829698676776
 20
-1209.618391276981
 10
2371.677106066826
 20
-1210.42216314211
 10
2377.15163418587
 20
-1212.898841253813
 10
2387.842294133017
 20
-1217.735315103018
 10
2398.845294791579
 20
-1221.75226162494
 10
2409.841114046734
 20
-1225.801801315378
 10
2415.087615828514
 20
-1227.733984749338
 10
2419.72215465425
 20
-1230.604960499931
 10
2419.96773180452
 20
-1236.791898938376
 10
2420.221346086177
 20
-1243.181955318374
 10
2417.112402452713
 20
-1248.458306905453
 10
2412.405630118376
 20
-1252.599258478556
 10
2410.177666826192
 20
-1254.55938730359
 10
2407.435880831578
 20
-1254.24830501567
 10
2404.653321915732
 20
-1253.091545360243
 10
2396.330360605636
 20
-1249.631543519172
 10
2388.719297856052
 20
-1244.851715506214
 10
2380.855946364227
 20
-1240.542093237352
 10
2370.336650139114
 20
-1234.776844122534
 10
2359.760540287956
 20
-1229.295386284782
 10
2348.41508903849
 20
-1231.484262943217
 97
        0
 97
        1
330
8B
 75
     2
 76
     1
 98
        1
 10
0.0
 20
0.0
450
        0
451
        0
460
0.0
461
0.0
452
        0
462
0.0
453
        0
470

  0
SPLINE
  5
8D
330
70
100
AcDbEntity
  8
Layer 1
100
AcDbSpline
210
0.0
220
0.0
230
1.0
 70
     9
 71
     3
 72
    35
 73
    31
 74
     0
 42
0.0000000001
 43
0.0000000001
 40
0.0
 40
0.0
 40
0.0
 40
0.0
 40
1.0
 40
1.0
 40
1.0
 40
2.0
 40
2.0
 40
2.0
 40
3.0
 40
3.0
 40
3.0
 40
4.0
 40
4.0
 40
4.0
 40
5.0
 40
5.0
 40
5.0
 40
6.0
 40
6.0
 40
6.0
 40
7.0
 40
7.0
 40
7.0
 40
8.0
 40
8.0
 40
8.0
 40
9.0
 40
9.0
 40
9.0
 40
10.0
 40
10.0
 40
10.0
 40
10.0
 10
2294.082327459157
 20
-1185.136299112451
 30
0.0
 10
2285.88311951554
 20
-1184.88914054332
 30
0.0
 10
2279.358420211083
 20
-1182.828660834064
 30
0.0
 10
2273.612760555336
 20
-1178.543435202024
 30
0.0
 10
2270.510285218636
 20
-1176.229538364121
 30
0.0
 10
2269.685631912984
 20
-1173.899709884776
 30
0.0
 10
2273.607047312667
 20
-1171.380539006397
 30
0.0
 10
2279.130490352956
 20
-1167.832216809715
 30
0.0
 10
2284.789742456803
 20
-1165.776921805256
 30
0.0
 10
2291.63830963189
 20
-1166.472548949983
 30
0.0
 10
2306.901417789537
 20
-1168.022867969183
 30
0.0
 10
2321.297673507008
 20
-1163.187665127705
 30
0.0
 10
2335.751262998901
 20
-1159.360069394304
 30
0.0
 10
2348.458781502232
 20
-1155.994860400355
 30
0.0
 10
2361.029803003821
 20
-1152.115763685429
 30
0.0
 10
2373.674945649256
 20
-1148.512167334105
 30
0.0
 10
2375.98593133414
 20
-1147.853586079695
 30
0.0
 10
2378.558534874108
 20
-1147.265185006217
 30
0.0
 10
2380.188428205631
 20
-1149.660495552118
 30
0.0
 10
2381.92085788351
 20
-1152.206481337798
 30
0.0
 10
2380.518806320473
 20
-1154.58736405833
 30
0.0
 10
2378.985845156011
 20
-1156.717526871241
 30
0.0
 10
2373.437908999771
 20
-1164.426817964086
 30
0.0
 10
2367.235324162539
 20
-1170.360637100781
 30
0.0
 10
2356.898247659479
 20
-1172.141604172855
 30
0.0
 10
2339.633281353708
 20
-1175.116169150798
 30
0.0
 10
2322.663826442484
 20
-1179.78552435989
 30
0.0
 10
2305.53310875514
 20
-1183.574696229247
 30
0.0
 10
2301.447964069288
 20
-1184.478298830217
 30
0.0
 10
2297.217203006105
 20
-1184.723636880026
 30
0.0
 10
2294.082327459157
 20
-1185.136299112451
 30
0.0
  0
HATCH
  5
8E
330
70
100
AcDbEntity
  8
Layer 1
 62
    18
420
        0
440
 33554687
100
AcDbHatch
 10
0.0
 20
0.0
 30
0.0
210
0.0
220
0.0
230
1.0
  2
SOLID
 70
     1
 71
     1
 91
        1
 92
        1
 93
        1
 72
     4
 94
        3
 73
     0
 74
     0
 95
       35
 96
       31
 40
0.0
 40
0.0
 40
0.0
 40
0.0
 40
1.0
 40
1.0
 40
1.0
 40
2.0
 40
2.0
 40
2.0
 40
3.0
 40
3.0
 40
3.0
 40
4.0
 40
4.0
 40
4.0
 40
5.0
 40
5.0
 40
5.0
 40
6.0
 40
6.0
 40
6.0
 40
7.0
 40
7.0
 40
7.0
 40
8.0
 40
8.0
 40
8.0
 40
9.0
 40
9.0
 40
9.0
 40
10.0
 40
10.0
 40
10.0
 40
10.0
 10
2294.082327459157
 20
-1185.136299112451
 10
2285.88311951554
 20
-1184.88914054332
 10
2279.358420211083
 20
-1182.828660834064
 10
2273.612760555336
 20
-1178.543435202024
 10
2270.510285218636
 20
-1176.229538364121
 10
2269.685631912984
 20
-1173.899709884776
 10
2273.607047312667
 20
-1171.380539006397
 10
2279.130490352956
 20
-1167.832216809715
 10
2284.789742456803
 20
-1165.776921805256
 10
2291.63830963189
 20
-1166.472548949983
 10
2306.901417789537
 20
-1168.022867969183
 10
2321.297673507008
 20
-1163.187665127705
 10
2335.751262998901
 20
-1159.360069394304
 10
2348.458781502232
 20
-1155.994860400355
 10
2361.029803003821
 20
-1152.115763685429
 10
2373.674945649256
 20
-1148.512167334105
 10
2375.98593133414
 20
-1147.853586079695
 10
2378.558534874108
 20
-1147.265185006217
 10
2380.188428205631
 20
-1149.660495552118
 10
2381.92085788351
 20
-1152.206481337798
 10
2380.518806320473
 20
-1154.58736405833
 10
2378.985845156011
 20
-1156.717526871241
 10
2373.437908999771
 20
-1164.426817964086
 10
2367.235324162539
 20
-1170.360637100781
 10
2356.898247659479
 20
-1172.141604172855
 10
2339.633281353708
 20
-1175.116169150798
 10
2322.663826442484
 20
-1179.78552435989
 10
2305.53310875514
 20
-1183.574696229247
 10
2301.447964069288
 20
-1184.478298830217
 10
2297.217203006105
 20
-1184.723636880026
 10
2294.082327459157
 20
-1185.136299112451
 97
        0
 97
        1
330
8D
 75
     2
 76
     1
 98
        1
 10
0.0
 20
0.0
450
        0
451
        0
460
0.0
461
0.0
452
        0
462
0.0
453
        0
470

  0
SPLINE
  5
8F
330
70
100
AcDbEntity
  8
Layer 1
100
AcDbSpline
210
0.0
220
0.0
230
1.0
 70
     9
 71
     3
 72
    35
 73
    31
 74
     0
 42
0.0000000001
 43
0.0000000001
 40
0.0
 40
0.0
 40
0.0
 40
0.0
 40
1.0
 40
1.0
 40
1.0
 40
2.0
 40
2.0
 40
2.0
 40
3.0
 40
3.0
 40
3.0
 40
4.0
 40
4.0
 40
4.0
 40
5.0
 40
5.0
 40
5.0
 40
6.0
 40
6.0
 40
6.0
 40
7.0
 40
7.0
 40
7.0
 40
8.0
 40
8.0
 40
8.0
 40
9.0
 40
9.0
 40
9.0
 40
10.0
 40
10.0
 40
10.0
 40
10.0
 10
2287.313611449563
 20
-1200.904513292451
 30
0.0
 10
2296.913637701193
 20
-1201.633568359946
 30
0.0
 10
2304.795630639721
 20
-1199.041945846227
 30
0.0
 10
2312.756803584545
 20
-1196.978877979312
 30
0.0
 10
2329.401165759605
 20
-1192.665623061301
 30
0.0
 10
2345.44164405746
 20
-1186.215963549839
 30
0.0
 10
2362.372691883622
 20
-1182.919523205135
 30
0.0
 10
2364.989810057348
 20
-1182.409983337333
 30
0.0
 10
2368.057158599562
 20
-1180.95290510961
 30
0.0
 10
2369.974576531182
 20
-1183.818821997753
 30
0.0
 10
2371.96563740572
 20
-1186.794808994243
 30
0.0
 10
2370.530430578339
 20
-1190.048387434715
 30
0.0
 10
2368.73647238105
 20
-1192.530074071925
 30
0.0
 10
2366.185882862752
 20
-1196.058475424685
 30
0.0
 10
2363.271575396488
 20
-1199.512411664513
 30
0.0
 10
2358.942095204881
 20
-1201.028551901592
 30
0.0
 10
2340.105576080809
 20
-1207.624914229334
 30
0.0
 10
2321.215641074124
 20
-1214.148455784176
 30
0.0
 10
2301.381670319581
 20
-1217.053190842391
 30
0.0
 10
2289.995127348262
 20
-1218.720786541817
 30
0.0
 10
2278.765006417352
 20
-1216.831062316574
 30
0.0
 10
2267.760978046268
 20
-1213.724744593466
 30
0.0
 10
2266.208607796773
 20
-1213.286536364099
 30
0.0
 10
2264.455783268786
 20
-1212.65059624573
 30
0.0
 10
2264.138547289975
 20
-1210.755964168857
 30
0.0
 10
2263.801285598614
 20
-1208.741748302014
 30
0.0
 10
2265.521227520681
 20
-1207.71868355868
 30
0.0
 10
2266.891524864201
 20
-1207.055796398545
 30
0.0
 10
2273.715951281911
 20
-1203.75446498119
 30
0.0
 10
2280.13081538374
 20
-1198.813441308033
 30
0.0
 10
2287.313611449563
 20
-1200.904513292451
 30
0.0
  0
HATCH
  5
90
330
70
100
AcDbEntity
  8
Layer 1
 62
    18
420
        0
440
 33554687
100
AcDbHatch
 10
0.0
 20
0.0
 30
0.0
210
0.0
220
0.0
230
1.0
  2
SOLID
 70
     1
 71
     1
 91
        1
 92
        1
 93
        1
 72
     4
 94
        3
 73
     0
 74
     0
 95
       35
 96
       31
 40
0.0
 40
0.0
 40
0.0
 40
0.0
 40
1.0
 40
1.0
 40
1.0
 40
2.0
 40
2.0
 40
2.0
 40
3.0
 40
3.0
 40
3.0
 40
4.0
 40
4.0
 40
4.0
 40
5.0
 40
5.0
 40
5.0
 40
6.0
 40
6.0
 40
6.0
 40
7.0
 40
7.0
 40
7.0
 40
8.0
 40
8.0
 40
8.0
 40
9.0
 40
9.0
 40
9.0
 40
10.0
 40
10.0
 40
10.0
 40
10.0
 10
2287.313611449563
 20
-1200.904513292451
 10
2296.913637701193
 20
-1201.633568359946
 10
2304.795630639721
 20
-1199.041945846227
 10
2312.756803584545
 20
-1196.978877979312
 10
2329.401165759605
 20
-1192.665623061301
 10
2345.44164405746
 20
-1186.215963549839
 10
2362.372691883622
 20
-1182.919523205135
 10
2364.989810057348
 20
-1182.409983337333
 10
2368.057158599562
 20
-1180.95290510961
 10
2369.974576531182
 20
-1183.818821997753
 10
2371.96563740572
 20
-1186.794808994243
 10
2370.530430578339
 20
-1190.048387434715
 10
2368.73647238105
 20
-1192.530074071925
 10
2366.185882862752
 20
-1196.058475424685
 10
2363.271575396488
 20
-1199.512411664513
 10
2358.942095204881
 20
-1201.028551901592
 10
2340.105576080809
 20
-1207.624914229334
 10
2321.215641074124
 20
-1214.148455784176
 10
2301.381670319581
 20
-1217.053190842391
 10
2289.995127348262
 20
-1218.720786541817
 10
2278.765006417352
 20
-1216.831062316574
 10
2267.760978046268
 20
-1213.724744593466
 10
2266.208607796773
 20
-1213.286536364099
 10
2264.455783268786
 20
-1212.65059624573
 10
2264.138547289975
 20
-1210.755964168857
 10
2263.801285598614
 20
-1208.741748302014
 10
2265.521227520681
 20
-1207.71868355868
 10
2266.891524864201
 20
-1207.055796398545
 10
2273.715951281911
 20
-1203.75446498119
 10
2280.13081538374
 20
-1198.813441308033
 10
2287.313611449563
 20
-1200.904513292451
 97
        0
 97
        1
330
8F
 75
     2
 76
     1
 98
        1
 10
0.0
 20
0.0
450
        0
451
        0
460
0.0
461
0.0
452
        0
462
0.0
453
        0
470

  0
ENDSEC
  0
SECTION
  2
OBJECTS
  0
DICTIONARY
  5
C
330
0
100
AcDbDictionary
281
     1
  3
ACAD_COLOR
350
63
  3
ACAD_DETAILVIEWSTYLE
350
6A
  3
ACAD_GROUP
350
D
  3
ACAD_LAYOUT
350
62
  3
ACAD_MATERIAL
350
10
  3
ACAD_MLEADERSTYLE
350
66
  3
ACAD_MLINESTYLE
350
5F
  3
ACAD_PLOTSETTINGS
350
61
  3
ACAD_PLOTSTYLENAME
350
E
  3
ACAD_SCALELIST
350
42
  3
ACAD_SECTIONVIEWSTYLE
350
68
  3
ACAD_TABLESTYLE
350
64
  3
ACAD_VISUALSTYLE
350
29
  3
ACDB_RECOMPOSE_DATA
350
99
  3
AcDbVariableDictionary
350
91
  0
DICTIONARY
  5
63
102
{ACAD_REACTORS
330
C
102
}
330
C
100
AcDbDictionary
281
     1
  0
DICTIONARY
  5
6A
102
{ACAD_REACTORS
330
C
102
}
330
C
100
AcDbDictionary
281
     1
  3
Imperial24
350
6B
  0
DICTIONARY
  5
D
102
{ACAD_REACTORS
330
C
102
}
330
C
100
AcDbDictionary
281
     1
  0
DICTIONARY
  5
62
102
{ACAD_REACTORS
330
C
102
}
330
C
100
AcDbDictionary
281
     1
  3
Layout1
350
6F
  3
Layout2
350
77
  3
Model
350
73
  0
DICTIONARY
  5
10
102
{ACAD_REACTORS
330
C
102
}
330
C
100
AcDbDictionary
281
     1
  3
ByBlock
350
19
  3
ByLayer
350
11
  3
Global
350
21
  0
DICTIONARY
  5
66
102
{ACAD_REACTORS
330
C
102
}
330
C
100
AcDbDictionary
281
     1
  3
Standard
350
67
  0
DICTIONARY
  5
5F
102
{ACAD_REACTORS
330
C
102
}
330
C
100
AcDbDictionary
281
     1
  3
Standard
350
60
  0
DICTIONARY
  5
61
102
{ACAD_REACTORS
330
C
102
}
330
C
100
AcDbDictionary
281
     1
  0
ACDBDICTIONARYWDFLT
  5
E
102
{ACAD_REACTORS
330
C
102
}
330
C
100
AcDbDictionary
281
     1
  3
Normal
350
F
100
AcDbDictionaryWithDefault
340
F
  0
DICTIONARY
  5
42
102
{ACAD_REACTORS
330
C
102
}
330
C
100
AcDbDictionary
281
     1
  3
A0
350
43
  3
A1
350
44
  3
A2
350
45
  3
A3
350
46
  3
A4
350
47
  3
A5
350
48
  3
A6
350
49
  3
A7
350
4A
  3
A8
350
4B
  3
A9
350
4C
  3
B0
350
4D
  3
B1
350
4E
  3
B2
350
4F
  3
B3
350
50
  3
B4
350
51
  3
B5
350
52
  3
B6
350
53
  0
DICTIONARY
  5
68
102
{ACAD_REACTORS
330
C
102
}
330
C
100
AcDbDictionary
281
     1
  3
Imperial24
350
69
  0
DICTIONARY
  5
64
102
{ACAD_REACTORS
330
C
102
}
330
C
100
AcDbDictionary
281
     1
  3
Standard
350
65
  0
DICTIONARY
  5
29
102
{ACAD_REACTORS
330
C
102
}
330
C
100
AcDbDictionary
281
     1
  3
2dWireframe
350
2F
  3
Basic
350
2E
  3
Brighten
350
35
  3
ColorChange
350
39
  3
Conceptual
350
32
  3
Dim
350
34
  3
EdgeColorOff
350
41
  3
Facepattern
350
38
  3
Flat
350
2A
  3
FlatWithEdges
350
2B
  3
Gouraud
350
2C
  3
GouraudWithEdges
350
2D
  3
Hidden
350
31
  3
JitterOff
350
3F
  3
Linepattern
350
37
  3
OverhangOff
350
40
  3
Realistic
350
33
  3
Shaded
350
3E
  3
Shaded with edges
350
3D
  3
Shades of Gray
350
3A
  3
Sketchy
350
3B
  3
Thicken
350
36
  3
Wireframe
350
30
  3
X-Ray
350
3C
  0
XRECORD
  5
99
102
{ACAD_REACTORS
330
C
102
}
330
C
100
AcDbXrecord
280
     1
 90
        1
330
65
  0
DICTIONARY
  5
91
102
{ACAD_REACTORS
330
C
102
}
330
C
100
AcDbDictionary
281
     1
  3
CANNOSCALE
350
96
  3
CMLEADERSTYLE
350
93
  3
CTABLESTYLE
350
92
  3
CVIEWDETAILSTYLE
350
94
  3
CVIEWSECTIONSTYLE
350
95
  0
ACDBDETAILVIEWSTYLE
  5
6B
102
{ACAD_REACTORS
330
6A
102
}
330
6A
100
AcDbModelDocViewStyle
 70
     0
  3
Imperial24
290
     1
300
Imperial24
 90
        0
100
AcDbDetailViewStyle
 70
     0
 71
     0
 90
        3
 71
     1
340
55
 62
   256
 40
0.24
340
0
 62
   256
 40
0.24
300

 40
0.36
280
     3
 71
     2
340
5D
 90
       25
 62
   256
 71
     3
340
55
 62
   256
 40
0.24
 90
        1
 40
0.75
 90
        1
300
%<\AcVar ViewType \f "%tc1">% %<\AcVar ViewDetailId>%\PSCALE %<\AcVar ViewScale \f "%sn">%
 71
     4
340
5D
 90
       25
 62
   256
340
5D
 90
       25
 62
   256
280
     0
  0
LAYOUT
  5
6F
102
{ACAD_REACTORS
330
62
102
}
330
62
100
AcDbPlotSettings
  1

  2

  4

  6

 40
0.0
 41
0.0
 42
0.0
 43
0.0
 44
0.0
 45
0.0
 46
0.0
 47
0.0
 48
0.0
 49
0.0
140
0.0
141
0.0
142
1.0
143
1.0
 70
   688
 72
     0
 73
     0
 74
     5
  7

 75
    16
147
1.0
 76
     0
 77
     2
 78
   300
148
0.0
149
0.0
100
AcDbLayout
  1
Layout1
 70
     1
 71
     1
 10
0.0
 20
0.0
 11
12.0
 21
9.0
 12
0.0
 22
0.0
 32
0.0
 14
0.0
 24
0.0
 34
0.0
 15
0.0
 25
0.0
 35
0.0
146
0.0
 13
0.0
 23
0.0
 33
0.0
 16
1.0
 26
0.0
 36
0.0
 17
0.0
 27
1.0
 37
0.0
 76
     0
330
6C
  0
LAYOUT
  5
77
102
{ACAD_REACTORS
330
62
102
}
330
62
100
AcDbPlotSettings
  1

  2

  4

  6

 40
0.0
 41
0.0
 42
0.0
 43
0.0
 44
0.0
 45
0.0
 46
0.0
 47
0.0
 48
0.0
 49
0.0
140
0.0
141
0.0
142
1.0
143
1.0
 70
   688
 72
     0
 73
     0
 74
     5
  7

 75
    16
147
1.0
 76
     0
 77
     2
 78
   300
148
0.0
149
0.0
100
AcDbLayout
  1
Layout2
 70
     1
 71
     2
 10
0.0
 20
0.0
 11
12.0
 21
9.0
 12
0.0
 22
0.0
 32
0.0
 14
0.0
 24
0.0
 34
0.0
 15
0.0
 25
0.0
 35
0.0
146
0.0
 13
0.0
 23
0.0
 33
0.0
 16
1.0
 26
0.0
 36
0.0
 17
0.0
 27
1.0
 37
0.0
 76
     0
330
74
  0
LAYOUT
  5
73
102
{ACAD_REACTORS
330
62
102
}
330
62
100
AcDbPlotSettings
  1

  2

  4

  6

 40
0.0
 41
0.0
 42
0.0
 43
0.0
 44
0.0
 45
0.0
 46
0.0
 47
0.0
 48
0.0
 49
0.0
140
0.0
141
0.0
142
1.0
143
1.0
 70
  1712
 72
     0
 73
     0
 74
     0
  7

 75
     0
147
1.0
 76
     0
 77
     2
 78
   300
148
0.0
149
0.0
100
AcDbLayout
  1
Model
 70
     1
 71
     0
 10
0.0
 20
0.0
 11
12.0
 21
9.0
 12
0.0
 22
0.0
 32
0.0
 14
0.0
 24
0.0
 34
0.0
 15
0.0
 25
0.0
 35
0.0
146
0.0
 13
0.0
 23
0.0
 33
0.0
 16
1.0
 26
0.0
 36
0.0
 17
0.0
 27
1.0
 37
0.0
 76
     0
330
70
  0
MATERIAL
  5
19
102
{ACAD_XDICTIONARY
360
1A
102
}
102
{ACAD_REACTORS
330
10
102
}
330
10
100
AcDbMaterial
  1
ByBlock
 72
     0
 43
0.0208333333333333
 43
0.0
 43
0.0
 43
0.0
 43
0.0
 43
0.0208333333333333
 43
0.0
 43
0.0
 43
0.0
 43
0.0
 43
1.0
 43
0.0
 43
0.0
 43
0.0
 43
0.0
 43
1.0
 77
     0
 47
0.0208333333333333
 47
0.0
 47
0.0
 47
0.0
 47
0.0
 47
0.0208333333333333
 47
0.0
 47
0.0
 47
0.0
 47
0.0
 47
1.0
 47
0.0
 47
0.0
 47
0.0
 47
0.0
 47
1.0
171
     0
 49
0.0208333333333333
 49
0.0
 49
0.0
 49
0.0
 49
0.0
 49
0.0208333333333333
 49
0.0
 49
0.0
 49
0.0
 49
0.0
 49
1.0
 49
0.0
 49
0.0
 49
0.0
 49
0.0
 49
1.0
175
     0
142
0.0208333333333333
142
0.0
142
0.0
142
0.0
142
0.0
142
0.0208333333333333
142
0.0
142
0.0
142
0.0
142
0.0
142
1.0
142
0.0
142
0.0
142
0.0
142
0.0
142
1.0
179
     0
144
0.0208333333333333
144
0.0
144
0.0
144
0.0
144
0.0
144
0.0208333333333333
144
0.0
144
0.0
144
0.0
144
0.0
144
1.0
144
0.0
144
0.0
144
0.0
144
0.0
144
1.0
147
0.0208333333333333
147
0.0
147
0.0
147
0.0
147
0.0
147
0.0208333333333333
147
0.0
147
0.0
147
0.0
147
0.0
147
1.0
147
0.0
147
0.0
147
0.0
147
0.0
147
1.0
  0
MATERIAL
  5
11
102
{ACAD_XDICTIONARY
360
12
102
}
102
{ACAD_REACTORS
330
10
102
}
330
10
100
AcDbMaterial
  1
ByLayer
 72
     0
 43
0.0208333333333333
 43
0.0
 43
0.0
 43
0.0
 43
0.0
 43
0.0208333333333333
 43
0.0
 43
0.0
 43
0.0
 43
0.0
 43
1.0
 43
0.0
 43
0.0
 43
0.0
 43
0.0
 43
1.0
 77
     0
 47
0.0208333333333333
 47
0.0
 47
0.0
 47
0.0
 47
0.0
 47
0.0208333333333333
 47
0.0
 47
0.0
 47
0.0
 47
0.0
 47
1.0
 47
0.0
 47
0.0
 47
0.0
 47
0.0
 47
1.0
171
     0
 49
0.0208333333333333
 49
0.0
 49
0.0
 49
0.0
 49
0.0
 49
0.0208333333333333
 49
0.0
 49
0.0
 49
0.0
 49
0.0
 49
1.0
 49
0.0
 49
0.0
 49
0.0
 49
0.0
 49
1.0
175
     0
142
0.0208333333333333
142
0.0
142
0.0
142
0.0
142
0.0
142
0.0208333333333333
142
0.0
142
0.0
142
0.0
142
0.0
142
1.0
142
0.0
142
0.0
142
0.0
142
0.0
142
1.0
179
     0
144
0.0208333333333333
144
0.0
144
0.0
144
0.0
144
0.0
144
0.0208333333333333
144
0.0
144
0.0
144
0.0
144
0.0
144
1.0
144
0.0
144
0.0
144
0.0
144
0.0
144
1.0
147
0.0208333333333333
147
0.0
147
0.0
147
0.0
147
0.0
147
0.0208333333333333
147
0.0
147
0.0
147
0.0
147
0.0
147
1.0
147
0.0
147
0.0
147
0.0
147
0.0
147
1.0
  0
MATERIAL
  5
21
102
{ACAD_XDICTIONARY
360
22
102
}
102
{ACAD_REACTORS
330
10
102
}
330
10
100
AcDbMaterial
  1
Global
 72
     0
 43
0.0208333333333333
 43
0.0
 43
0.0
 43
0.0
 43
0.0
 43
0.0208333333333333
 43
0.0
 43
0.0
 43
0.0
 43
0.0
 43
1.0
 43
0.0
 43
0.0
 43
0.0
 43
0.0
 43
1.0
 77
     0
 47
0.0208333333333333
 47
0.0
 47
0.0
 47
0.0
 47
0.0
 47
0.0208333333333333
 47
0.0
 47
0.0
 47
0.0
 47
0.0
 47
1.0
 47
0.0
 47
0.0
 47
0.0
 47
0.0
 47
1.0
171
     0
 49
0.0208333333333333
 49
0.0
 49
0.0
 49
0.0
 49
0.0
 49
0.0208333333333333
 49
0.0
 49
0.0
 49
0.0
 49
0.0
 49
1.0
 49
0.0
 49
0.0
 49
0.0
 49
0.0
 49
1.0
175
     0
142
0.0208333333333333
142
0.0
142
0.0
142
0.0
142
0.0
142
0.0208333333333333
142
0.0
142
0.0
142
0.0
142
0.0
142
1.0
142
0.0
142
0.0
142
0.0
142
0.0
142
1.0
179
     0
144
0.0208333333333333
144
0.0
144
0.0
144
0.0
144
0.0
144
0.0208333333333333
144
0.0
144
0.0
144
0.0
144
0.0
144
1.0
144
0.0
144
0.0
144
0.0
144
0.0
144
1.0
147
0.0208333333333333
147
0.0
147
0.0
147
0.0
147
0.0
147
0.0208333333333333
147
0.0
147
0.0
147
0.0
147
0.0
147
1.0
147
0.0
147
0.0
147
0.0
147
0.0
147
1.0
  0
MLEADERSTYLE
  5
67
102
{ACAD_REACTORS
330
66
102
}
330
66
100
AcDbMLeaderStyle
179
     2
170
     2
171
     1
172
     0
 90
        2
 40
0.0
 41
0.0
173
     1
 91
-1056964608
340
5B
 92
       -2
290
     1
 42
0.09
291
     1
 43
0.36
  3
Standard
 44
0.18
300

342
55
174
     1
178
     6
175
     1
176
     0
 93
-1056964608
 45
0.18
292
     0
297
     0
 46
0.18
 94
-1056964608
 47
1.0
 49
1.0
140
1.0
293
     1
141
0.0
294
     1
177
     0
142
1.0
295
     1
296
     0
143
0.125
271
     0
272
     9
273
     9
298
     1
  0
MLINESTYLE
  5
60
102
{ACAD_REACTORS
330
5F
102
}
330
5F
100
AcDbMlineStyle
  2
STANDARD
 70
     0
  3

 62
   256
 51
90.0
 52
90.0
 71
     2
 49
0.5
 62
   256
  6
BYLAYER
 49
-0.5
 62
   256
  6
BYLAYER
  0
ACDBPLACEHOLDER
  5
F
102
{ACAD_REACTORS
330
E
102
}
330
E
  0
SCALE
  5
43
102
{ACAD_REACTORS
330
42
102
}
330
42
100
AcDbScale
 70
     0
300
1:1
140
1.0
141
1.0
290
     1
  0
SCALE
  5
44
102
{ACAD_REACTORS
330
42
102
}
330
42
100
AcDbScale
 70
     0
300
1/128" = 1'-0"
140
0.0078125
141
12.0
290
     0
  0
SCALE
  5
45
102
{ACAD_REACTORS
330
42
102
}
330
42
100
AcDbScale
 70
     0
300
1/64" = 1'-0"
140
0.015625
141
12.0
290
     0
  0
SCALE
  5
46
102
{ACAD_REACTORS
330
42
102
}
330
42
100
AcDbScale
 70
     0
300
1/32" = 1'-0"
140
0.03125
141
12.0
290
     0
  0
SCALE
  5
47
102
{ACAD_REACTORS
330
42
102
}
330
42
100
AcDbScale
 70
     0
300
1/16" = 1'-0"
140
0.0625
141
12.0
290
     0
  0
SCALE
  5
48
102
{ACAD_REACTORS
330
42
102
}
330
42
100
AcDbScale
 70
     0
300
3/32" = 1'-0"
140
0.09375
141
12.0
290
     0
  0
SCALE
  5
49
102
{ACAD_REACTORS
330
42
102
}
330
42
100
AcDbScale
 70
     0
300
1/8" = 1'-0"
140
0.125
141
12.0
290
     0
  0
SCALE
  5
4A
102
{ACAD_REACTORS
330
42
102
}
330
42
100
AcDbScale
 70
     0
300
3/16" = 1'-0"
140
0.1875
141
12.0
290
     0
  0
SCALE
  5
4B
102
{ACAD_REACTORS
330
42
102
}
330
42
100
AcDbScale
 70
     0
300
1/4" = 1'-0"
140
0.25
141
12.0
290
     0
  0
SCALE
  5
4C
102
{ACAD_REACTORS
330
42
102
}
330
42
100
AcDbScale
 70
     0
300
3/8" = 1'-0"
140
0.375
141
12.0
290
     0
  0
SCALE
  5
4D
102
{ACAD_REACTORS
330
42
102
}
330
42
100
AcDbScale
 70
     0
300
1/2" = 1'-0"
140
0.5
141
12.0
290
     0
  0
SCALE
  5
4E
102
{ACAD_REACTORS
330
42
102
}
330
42
100
AcDbScale
 70
     0
300
3/4" = 1'-0"
140
0.75
141
12.0
290
     0
  0
SCALE
  5
4F
102
{ACAD_REACTORS
330
42
102
}
330
42
100
AcDbScale
 70
     0
300
1" = 1'-0"
140
1.0
141
12.0
290
     0
  0
SCALE
  5
50
102
{ACAD_REACTORS
330
42
102
}
330
42
100
AcDbScale
 70
     0
300
1-1/2" = 1'-0"
140
1.5
141
12.0
290
     0
  0
SCALE
  5
51
102
{ACAD_REACTORS
330
42
102
}
330
42
100
AcDbScale
 70
     0
300
3" = 1'-0"
140
3.0
141
12.0
290
     0
  0
SCALE
  5
52
102
{ACAD_REACTORS
330
42
102
}
330
42
100
AcDbScale
 70
     0
300
6" = 1'-0"
140
6.0
141
12.0
290
     0
  0
SCALE
  5
53
102
{ACAD_REACTORS
330
42
102
}
330
42
100
AcDbScale
 70
     0
300
1'-0" = 1'-0"
140
12.0
141
12.0
290
     0
  0
ACDBSECTIONVIEWSTYLE
  5
69
102
{ACAD_REACTORS
330
68
102
}
330
68
100
AcDbModelDocViewStyle
 70
     0
  3
Imperial24
290
     1
300
Imperial24
 90
        0
100
AcDbSectionViewStyle
 70
     0
 71
     0
 90
       78
 71
     1
340
55
 62
   256
 40
0.24
340
0
340
0
 62
   256
 40
0.24
300
I, O, Q, S, X, Z
 40
0.48
 90
        3
 40
0.18
 90
        1
 71
     2
340
5D
 90
       25
 62
   256
340
5D
 90
       50
 62
   256
 40
0.24
 40
0.0
 40
0.24
 71
     3
340
55
 62
   256
 40
0.24
 90
        1
 40
0.75
 90
        1
300
%<\AcVar ViewType \f "%tc1">% %<\AcVar ViewSectionStartId>%-%<\AcVar ViewSectionEndId>%\PSCALE %<\AcVar ViewScale \f "%sn">%
 71
     4
 62
   256
 62
   257
300
ANSI31
 40
1.0
 90
        0
290
     0
290
     0
 90
        6
 40
0.0
 40
1.570796326794896
 40
0.2617993877991494
 40
1.308996938995747
 40
-0.2617993877991494
 40
1.832595714594046
  0
TABLESTYLE
  5
65
102
{ACAD_XDICTIONARY
360
97
102
}
102
{ACAD_REACTORS
330
64
102
}
330
64
100
AcDbTableStyle
280
     0
  3
Standard
 70
     0
 71
     0
 40
0.06
 41
0.06
280
     0
281
     0
  7
Standard
140
0.18
170
     2
 62
     0
 63
     7
283
     0
 90
      512
 91
        0
  1

274
    -2
284
     1
 64
     0
275
    -2
285
     1
 65
     0
276
    -2
286
     1
 66
     0
277
    -2
287
     1
 67
     0
278
    -2
288
     1
 68
     0
279
    -2
289
     1
 69
     0
  7
Standard
140
0.25
170
     5
 62
     0
 63
     7
283
     0
 90
      512
 91
        0
  1

274
    -2
284
     1
 64
     0
275
    -2
285
     1
 65
     0
276
    -2
286
     1
 66
     0
277
    -2
287
     1
 67
     0
278
    -2
288
     1
 68
     0
279
    -2
289
     1
 69
     0
  7
Standard
140
0.18
170
     5
 62
     0
 63
     7
283
     0
 90
      512
 91
        0
  1

274
    -2
284
     1
 64
     0
275
    -2
285
     1
 65
     0
276
    -2
286
     1
 66
     0
277
    -2
287
     1
 67
     0
278
    -2
288
     1
 68
     0
279
    -2
289
     1
 69
     0
  0
VISUALSTYLE
  5
2F
102
{ACAD_REACTORS
330
29
102
}
330
29
100
AcDbVisualStyle
  2
2dWireframe
 70
     4
177
     3
291
     0
 70
    58
 90
        0
176
     1
 90
        2
176
     1
 90
        0
176
     1
 90
        0
176
     1
 40
0.6
176
     1
 40
30.0
176
     1
 62
     7
420
 16777215
176
     1
 90
        1
176
     1
 90
        4
176
     1
 62
     7
176
     1
 62
   257
176
     1
 90
        1
176
     1
 90
        1
176
     1
 40
1.0
176
     1
 90
        0
176
     1
 62
   257
176
     1
 40
1.0
176
     1
 90
        1
176
     1
 90
        6
176
     1
 90
        2
176
     1
 62
     7
176
     1
 90
        5
176
     1
 90
        0
176
     1
 90
        0
176
     1
290
     0
176
     1
 90
        1
176
     1
 40
0.0
176
     1
 90
        0
176
     1
290
     1
176
     1
290
     1
176
     1
290
     0
176
     1
290
     0
176
     1
290
     0
176
     1
290
     0
176
     1
290
     0
176
     1
290
     0
176
     1
290
     0
176
     1
 90
       50
176
     1
 40
0.0
176
     1
 40
1.0
176
     1
 90
        0
176
     1
 62
    18
420
        0
176
     1
 90
       50
176
     1
 90
        3
176
     1
 62
     5
420
      255
176
     1
290
     0
176
     1
 90
       50
176
     1
 90
       50
176
     1
 90
       50
176
     1
290
     0
176
     1
 90
       50
176
     1
 62
   256
176
     0
 40
1.0
176
     0
 90
        2
176
     1
  1
strokes_ogs.tif
176
     1
290
     0
176
     1
 40
1.0
176
     1
 40
1.0
176
     1
  0
VISUALSTYLE
  5
2E
102
{ACAD_REACTORS
330
29
102
}
330
29
100
AcDbVisualStyle
  2
Basic
 70
     7
177
     3
291
     1
 70
    58
 90
        1
176
     1
 90
        0
176
     1
 90
        1
176
     1
 90
        0
176
     1
 40
0.6
176
     1
 40
30.0
176
     1
 62
     7
420
 16777215
176
     1
 90
        0
176
     1
 90
        4
176
     1
 62
     7
176
     1
 62
   257
176
     1
 90
        1
176
     1
 90
        1
176
     1
 40
1.0
176
     1
 90
        8
176
     1
 62
     7
176
     1
 40
1.0
176
     1
 90
        1
176
     1
 90
        6
176
     1
 90
        2
176
     1
 62
     7
176
     1
 90
        5
176
     1
 90
        0
176
     1
 90
        0
176
     1
290
     0
176
     1
 90
        1
176
     1
 40
0.0
176
     1
 90
        0
176
     1
290
     0
176
     1
290
     1
176
     1
290
     1
176
     1
290
     0
176
     1
290
     0
176
     1
290
     0
176
     1
290
     0
176
     1
290
     0
176
     1
290
     0
176
     1
 90
       50
176
     1
 40
0.0
176
     1
 40
1.0
176
     1
 90
        0
176
     1
 62
    18
420
        0
176
     1
 90
       50
176
     1
 90
        3
176
     1
 62
     5
420
      255
176
     1
290
     0
176
     1
 90
       50
176
     1
 90
       50
176
     1
 90
       50
176
     1
290
     0
176
     1
 90
       50
176
     1
 62
   256
176
     0
 40
1.0
176
     0
 90
        2
176
     1
  1
strokes_ogs.tif
176
     1
290
     0
176
     1
 40
1.0
176
     1
 40
1.0
176
     1
  0
VISUALSTYLE
  5
35
102
{ACAD_REACTORS
330
29
102
}
330
29
100
AcDbVisualStyle
  2
Brighten
 70
    12
177
     3
291
     1
 70
    58
 90
        2
176
     1
 90
        2
176
     1
 90
        0
176
     1
 90
        0
176
     1
 40
0.6
176
     1
 40
30.0
176
     1
 62
     7
420
 16777215
176
     1
 90
        1
176
     1
 90
        4
176
     1
 62
     7
176
     1
 62
   257
176
     1
 90
        1
176
     1
 90
        1
176
     1
 40
1.0
176
     1
 90
        8
176
     1
 62
     7
176
     1
 40
1.0
176
     1
 90
        1
176
     1
 90
        6
176
     1
 90
        2
176
     1
 62
     7
176
     1
 90
        5
176
     1
 90
        0
176
     1
 90
        0
176
     1
290
     0
176
     1
 90
        1
176
     1
 40
50.0
176
     1
 90
        0
176
     1
290
     0
176
     1
290
     1
176
     1
290
     1
176
     1
290
     0
176
     1
290
     0
176
     1
290
     0
176
     1
290
     0
176
     1
290
     0
176
     1
290
     0
176
     1
 90
       50
176
     1
 40
0.0
176
     1
 40
1.0
176
     1
 90
        0
176
     1
 62
    18
420
        0
176
     1
 90
       50
176
     1
 90
        3
176
     1
 62
     5
420
      255
176
     1
290
     0
176
     1
 90
       50
176
     1
 90
       50
176
     1
 90
       50
176
     1
290
     0
176
     1
 90
       50
176
     1
 62
   256
176
     0
 40
1.0
176
     0
 90
        2
176
     1
  1
strokes_ogs.tif
176
     1
290
     0
176
     1
 40
1.0
176
     1
 40
1.0
176
     1
  0
VISUALSTYLE
  5
39
102
{ACAD_REACTORS
330
29
102
}
330
29
100
AcDbVisualStyle
  2
ColorChange
 70
    16
177
     3
291
     1
 70
    58
 90
        2
176
     1
 90
        2
176
     1
 90
        3
176
     1
 90
        0
176
     1
 40
0.6
176
     1
 40
30.0
176
     1
 62
     8
420
  8421504
176
     1
 90
        1
176
     1
 90
        4
176
     1
 62
     7
176
     1
 62
   257
176
     1
 90
        1
176
     1
 90
        1
176
     1
 40
1.0
176
     1
 90
        8
176
     1
 62
     8
420
  8421504
176
     1
 40
1.0
176
     1
 90
        1
176
     1
 90
        6
176
     1
 90
        2
176
     1
 62
     7
176
     1
 90
        5
176
     1
 90
        0
176
     1
 90
        0
176
     1
290
     0
176
     1
 90
        1
176
     1
 40
0.0
176
     1
 90
        0
176
     1
290
     0
176
     1
290
     1
176
     1
290
     1
176
     1
290
     0
176
     1
290
     0
176
     1
290
     0
176
     1
290
     0
176
     1
290
     0
176
     1
290
     0
176
     1
 90
       50
176
     1
 40
0.0
176
     1
 40
1.0
176
     1
 90
        0
176
     1
 62
    18
420
        0
176
     1
 90
       50
176
     1
 90
        3
176
     1
 62
     5
420
      255
176
     1
290
     0
176
     1
 90
       50
176
     1
 90
       50
176
     1
 90
       50
176
     1
290
     0
176
     1
 90
       50
176
     1
 62
   256
176
     0
 40
1.0
176
     0
 90
        2
176
     1
  1
strokes_ogs.tif
176
     1
290
     0
176
     1
 40
1.0
176
     1
 40
1.0
176
     1
  0
VISUALSTYLE
  5
32
102
{ACAD_REACTORS
330
29
102
}
330
29
100
AcDbVisualStyle
  2
Conceptual
 70
     9
177
     3
291
     0
 70
    58
 90
        3
176
     1
 90
        2
176
     1
 90
        0
176
     1
 90
        0
176
     1
 40
0.6
176
     1
 40
30.0
176
     1
 62
     7
420
 16777215
176
     1
 90
        2
176
     1
 90
        2
176
     1
 62
     7
176
     1
 62
   257
176
     1
 90
        1
176
     1
 90
        1
176
     1
 40
179.0
176
     1
 90
        8
176
     1
 62
     7
176
     1
 40
1.0
176
     1
 90
        1
176
     1
 90
        6
176
     1
 90
        2
176
     1
 62
     7
176
     1
 90
        3
176
     1
 90
        0
176
     1
 90
        0
176
     1
290
     0
176
     1
 90
        1
176
     1
 40
0.0
176
     1
 90
        0
176
     1
290
     0
176
     1
290
     1
176
     1
290
     1
176
     1
290
     0
176
     1
290
     0
176
     1
290
     0
176
     1
290
     0
176
     1
290
     0
176
     1
290
     0
176
     1
 90
       50
176
     1
 40
0.0
176
     1
 40
1.0
176
     1
 90
        0
176
     1
 62
    18
420
        0
176
     1
 90
       50
176
     1
 90
        3
176
     1
 62
     5
420
      255
176
     1
290
     0
176
     1
 90
       50
176
     1
 90
       50
176
     1
 90
       50
176
     1
290
     0
176
     1
 90
       50
176
     1
 62
   256
176
     0
 40
1.0
176
     0
 90
        2
176
     1
  1
strokes_ogs.tif
176
     1
290
     0
176
     1
 40
1.0
176
     1
 40
1.0
176
     1
  0
VISUALSTYLE
  5
34
102
{ACAD_REACTORS
330
29
102
}
330
29
100
AcDbVisualStyle
  2
Dim
 70
    11
177
     3
291
     1
 70
    58
 90
        2
176
     1
 90
        2
176
     1
 90
        0
176
     1
 90
        0
176
     1
 40
0.6
176
     1
 40
30.0
176
     1
 62
     7
420
 16777215
176
     1
 90
        1
176
     1
 90
        4
176
     1
 62
     7
176
     1
 62
   257
176
     1
 90
        1
176
     1
 90
        1
176
     1
 40
1.0
176
     1
 90
        8
176
     1
 62
     7
176
     1
 40
1.0
176
     1
 90
        1
176
     1
 90
        6
176
     1
 90
        2
176
     1
 62
     7
176
     1
 90
        5
176
     1
 90
        0
176
     1
 90
        0
176
     1
290
     0
176
     1
 90
        1
176
     1
 40
-50.0
176
     1
 90
        0
176
     1
290
     0
176
     1
290
     1
176
     1
290
     1
176
     1
290
     0
176
     1
290
     0
176
     1
290
     0
176
     1
290
     0
176
     1
290
     0
176
     1
290
     0
176
     1
 90
       50
176
     1
 40
0.0
176
     1
 40
1.0
176
     1
 90
        0
176
     1
 62
    18
420
        0
176
     1
 90
       50
176
     1
 90
        3
176
     1
 62
     5
420
      255
176
     1
290
     0
176
     1
 90
       50
176
     1
 90
       50
176
     1
 90
       50
176
     1
290
     0
176
     1
 90
       50
176
     1
 62
   256
176
     0
 40
1.0
176
     0
 90
        2
176
     1
  1
strokes_ogs.tif
176
     1
290
     0
176
     1
 40
1.0
176
     1
 40
1.0
176
     1
  0
VISUALSTYLE
  5
41
102
{ACAD_REACTORS
330
29
102
}
330
29
100
AcDbVisualStyle
  2
EdgeColorOff
 70
    22
177
     3
291
     1
 70
    58
 90
        2
176
     0
 90
        2
176
     0
 90
        0
176
     0
 90
        0
176
     0
 40
0.6
176
     0
 40
30.0
176
     0
 62
     7
420
 16777215
176
     0
 90
        1
176
     0
 90
        4
176
     0
 62
     7
176
     0
 62
   257
176
     0
 90
        1
176
     0
 90
        1
176
     0
 40
1.0
176
     0
 90
        8
176
     2
 62
     7
176
     0
 40
1.0
176
     0
 90
        1
176
     0
 90
        6
176
     0
 90
        2
176
     0
 62
     7
176
     0
 90
        5
176
     0
 90
        0
176
     0
 90
        0
176
     0
290
     0
176
     0
 90
        1
176
     0
 40
0.0
176
     0
 90
        0
176
     0
290
     0
176
     0
290
     1
176
     0
290
     1
176
     0
290
     0
176
     0
290
     0
176
     0
290
     0
176
     0
290
     0
176
     0
290
     0
176
     0
290
     0
176
     0
 90
       50
176
     0
 40
0.0
176
     0
 40
1.0
176
     0
 90
        0
176
     0
 62
    18
420
        0
176
     0
 90
       50
176
     0
 90
        3
176
     0
 62
     5
420
      255
176
     0
290
     0
176
     0
 90
       50
176
     0
 90
       50
176
     0
 90
       50
176
     0
290
     0
176
     0
 90
       50
176
     0
 62
   256
176
     0
 40
1.0
176
     0
 90
        2
176
     0
  1
strokes_ogs.tif
176
     0
290
     0
176
     0
 40
1.0
176
     0
 40
1.0
176
     0
  0
VISUALSTYLE
  5
38
102
{ACAD_REACTORS
330
29
102
}
330
29
100
AcDbVisualStyle
  2
Facepattern
 70
    15
177
     3
291
     1
 70
    58
 90
        2
176
     1
 90
        2
176
     1
 90
        0
176
     1
 90
        0
176
     1
 40
0.6
176
     1
 40
30.0
176
     1
 62
     7
420
 16777215
176
     1
 90
        1
176
     1
 90
        4
176
     1
 62
     7
176
     1
 62
   257
176
     1
 90
        1
176
     1
 90
        1
176
     1
 40
1.0
176
     1
 90
        8
176
     1
 62
     7
176
     1
 40
1.0
176
     1
 90
        1
176
     1
 90
        6
176
     1
 90
        2
176
     1
 62
     7
176
     1
 90
        5
176
     1
 90
        0
176
     1
 90
        0
176
     1
290
     0
176
     1
 90
        1
176
     1
 40
0.0
176
     1
 90
        0
176
     1
290
     0
176
     1
290
     1
176
     1
290
     1
176
     1
290
     0
176
     1
290
     0
176
     1
290
     0
176
     1
290
     0
176
     1
290
     0
176
     1
290
     0
176
     1
 90
       50
176
     1
 40
0.0
176
     1
 40
1.0
176
     1
 90
        0
176
     1
 62
    18
420
        0
176
     1
 90
       50
176
     1
 90
        3
176
     1
 62
     5
420
      255
176
     1
290
     0
176
     1
 90
       50
176
     1
 90
       50
176
     1
 90
       50
176
     1
290
     0
176
     1
 90
       50
176
     1
 62
   256
176
     0
 40
1.0
176
     0
 90
        2
176
     1
  1
strokes_ogs.tif
176
     1
290
     0
176
     1
 40
1.0
176
     1
 40
1.0
176
     1
  0
VISUALSTYLE
  5
2A
102
{ACAD_REACTORS
330
29
102
}
330
29
100
AcDbVisualStyle
  2
Flat
 70
     0
177
     3
291
     1
 70
    58
 90
        2
176
     1
 90
        1
176
     1
 90
        1
176
     1
 90
        2
176
     1
 40
0.6
176
     1
 40
30.0
176
     1
 62
     7
420
 16777215
176
     1
 90
        0
176
     1
 90
        0
176
     1
 62
     7
176
     1
 62
   257
176
     1
 90
        1
176
     1
 90
        1
176
     1
 40
1.0
176
     1
 90
        8
176
     1
 62
     7
176
     1
 40
1.0
176
     1
 90
        1
176
     1
 90
        6
176
     1
 90
        2
176
     1
 62
     7
176
     1
 90
        5
176
     1
 90
        0
176
     1
 90
        0
176
     1
290
     0
176
     1
 90
       13
176
     1
 40
0.0
176
     1
 90
        0
176
     1
290
     0
176
     1
290
     1
176
     1
290
     1
176
     1
290
     0
176
     1
290
     0
176
     1
290
     0
176
     1
290
     0
176
     1
290
     0
176
     1
290
     0
176
     1
 90
       50
176
     1
 40
0.0
176
     1
 40
1.0
176
     1
 90
        0
176
     1
 62
    18
420
        0
176
     1
 90
       50
176
     1
 90
        3
176
     1
 62
     5
420
      255
176
     1
290
     0
176
     1
 90
       50
176
     1
 90
       50
176
     1
 90
       50
176
     1
290
     0
176
     1
 90
       50
176
     1
 62
   256
176
     0
 40
1.0
176
     0
 90
        2
176
     1
  1
strokes_ogs.tif
176
     1
290
     0
176
     1
 40
1.0
176
     1
 40
1.0
176
     1
  0
VISUALSTYLE
  5
2B
102
{ACAD_REACTORS
330
29
102
}
330
29
100
AcDbVisualStyle
  2
FlatWithEdges
 70
     1
177
     3
291
     1
 70
    58
 90
        2
176
     1
 90
        1
176
     1
 90
        1
176
     1
 90
        2
176
     1
 40
0.6
176
     1
 40
30.0
176
     1
 62
     7
420
 16777215
176
     1
 90
        1
176
     1
 90
        0
176
     1
 62
     7
176
     1
 62
   257
176
     1
 90
        1
176
     1
 90
        1
176
     1
 40
1.0
176
     1
 90
        0
176
     1
 62
   257
176
     1
 40
1.0
176
     1
 90
        1
176
     1
 90
        6
176
     1
 90
        2
176
     1
 62
     7
176
     1
 90
        5
176
     1
 90
        0
176
     1
 90
        0
176
     1
290
     0
176
     1
 90
       13
176
     1
 40
0.0
176
     1
 90
        0
176
     1
290
     0
176
     1
290
     1
176
     1
290
     1
176
     1
290
     0
176
     1
290
     0
176
     1
290
     0
176
     1
290
     0
176
     1
290
     0
176
     1
290
     0
176
     1
 90
       50
176
     1
 40
0.0
176
     1
 40
1.0
176
     1
 90
        0
176
     1
 62
    18
420
        0
176
     1
 90
       50
176
     1
 90
        3
176
     1
 62
     5
420
      255
176
     1
290
     0
176
     1
 90
       50
176
     1
 90
       50
176
     1
 90
       50
176
     1
290
     0
176
     1
 90
       50
176
     1
 62
   256
176
     0
 40
1.0
176
     0
 90
        2
176
     1
  1
strokes_ogs.tif
176
     1
290
     0
176
     1
 40
1.0
176
     1
 40
1.0
176
     1
  0
VISUALSTYLE
  5
2C
102
{ACAD_REACTORS
330
29
102
}
330
29
100
AcDbVisualStyle
  2
Gouraud
 70
     2
177
     3
291
     1
 70
    58
 90
        2
176
     1
 90
        2
176
     1
 90
        1
176
     1
 90
        2
176
     1
 40
0.6
176
     1
 40
30.0
176
     1
 62
     7
420
 16777215
176
     1
 90
        0
176
     1
 90
        0
176
     1
 62
     7
176
     1
 62
   257
176
     1
 90
        1
176
     1
 90
        1
176
     1
 40
1.0
176
     1
 90
        0
176
     1
 62
     7
176
     1
 40
1.0
176
     1
 90
        1
176
     1
 90
        6
176
     1
 90
        2
176
     1
 62
     7
176
     1
 90
        5
176
     1
 90
        0
176
     1
 90
        0
176
     1
290
     0
176
     1
 90
       13
176
     1
 40
0.0
176
     1
 90
        0
176
     1
290
     0
176
     1
290
     1
176
     1
290
     1
176
     1
290
     0
176
     1
290
     0
176
     1
290
     0
176
     1
290
     0
176
     1
290
     0
176
     1
290
     0
176
     1
 90
       50
176
     1
 40
0.0
176
     1
 40
1.0
176
     1
 90
        0
176
     1
 62
    18
420
        0
176
     1
 90
       50
176
     1
 90
        3
176
     1
 62
     5
420
      255
176
     1
290
     0
176
     1
 90
       50
176
     1
 90
       50
176
     1
 90
       50
176
     1
290
     0
176
     1
 90
       50
176
     1
 62
   256
176
     0
 40
1.0
176
     0
 90
        2
176
     1
  1
strokes_ogs.tif
176
     1
290
     0
176
     1
 40
1.0
176
     1
 40
1.0
176
     1
  0
VISUALSTYLE
  5
2D
102
{ACAD_REACTORS
330
29
102
}
330
29
100
AcDbVisualStyle
  2
GouraudWithEdges
 70
     3
177
     3
291
     1
 70
    58
 90
        2
176
     1
 90
        2
176
     1
 90
        1
176
     1
 90
        2
176
     1
 40
0.6
176
     1
 40
30.0
176
     1
 62
     7
420
 16777215
176
     1
 90
        1
176
     1
 90
        0
176
     1
 62
     7
176
     1
 62
   257
176
     1
 90
        1
176
     1
 90
        1
176
     1
 40
1.0
176
     1
 90
        0
176
     1
 62
   257
176
     1
 40
1.0
176
     1
 90
        1
176
     1
 90
        6
176
     1
 90
        2
176
     1
 62
     7
176
     1
 90
        5
176
     1
 90
        0
176
     1
 90
        0
176
     1
290
     0
176
     1
 90
       13
176
     1
 40
0.0
176
     1
 90
        0
176
     1
290
     0
176
     1
290
     1
176
     1
290
     1
176
     1
290
     0
176
     1
290
     0
176
     1
290
     0
176
     1
290
     0
176
     1
290
     0
176
     1
290
     0
176
     1
 90
       50
176
     1
 40
0.0
176
     1
 40
1.0
176
     1
 90
        0
176
     1
 62
    18
420
        0
176
     1
 90
       50
176
     1
 90
        3
176
     1
 62
     5
420
      255
176
     1
290
     0
176
     1
 90
       50
176
     1
 90
       50
176
     1
 90
       50
176
     1
290
     0
176
     1
 90
       50
176
     1
 62
   256
176
     0
 40
1.0
176
     0
 90
        2
176
     1
  1
strokes_ogs.tif
176
     1
290
     0
176
     1
 40
1.0
176
     1
 40
1.0
176
     1
  0
VISUALSTYLE
  5
31
102
{ACAD_REACTORS
330
29
102
}
330
29
100
AcDbVisualStyle
  2
Hidden
 70
     6
177
     3
291
     0
 70
    58
 90
        1
176
     1
 90
        2
176
     1
 90
        2
176
     1
 90
        0
176
     1
 40
0.6
176
     1
 40
30.0
176
     1
 62
     7
420
 16777215
176
     1
 90
        2
176
     1
 90
        2
176
     1
 62
     7
176
     1
 62
   257
176
     1
 90
        2
176
     1
 90
        1
176
     1
 40
40.0
176
     1
 90
        0
176
     1
 62
   257
176
     1
 40
1.0
176
     1
 90
        1
176
     1
 90
        6
176
     1
 90
        2
176
     1
 62
     7
176
     1
 90
        3
176
     1
 90
        0
176
     1
 90
        0
176
     1
290
     0
176
     1
 90
        1
176
     1
 40
0.0
176
     1
 90
        0
176
     1
290
     0
176
     1
290
     1
176
     1
290
     1
176
     1
290
     0
176
     1
290
     0
176
     1
290
     0
176
     1
290
     0
176
     1
290
     0
176
     1
290
     0
176
     1
 90
       50
176
     1
 40
0.0
176
     1
 40
1.0
176
     1
 90
        0
176
     1
 62
    18
420
        0
176
     1
 90
       50
176
     1
 90
        3
176
     1
 62
     5
420
      255
176
     1
290
     0
176
     1
 90
       50
176
     1
 90
       50
176
     1
 90
       50
176
     1
290
     0
176
     1
 90
       50
176
     1
 62
   256
176
     0
 40
1.0
176
     0
 90
        2
176
     1
  1
strokes_ogs.tif
176
     1
290
     0
176
     1
 40
1.0
176
     1
 40
1.0
176
     1
  0
VISUALSTYLE
  5
3F
102
{ACAD_REACTORS
330
29
102
}
330
29
100
AcDbVisualStyle
  2
JitterOff
 70
    20
177
     3
291
     1
 70
    58
 90
        2
176
     0
 90
        2
176
     0
 90
        0
176
     0
 90
        0
176
     0
 40
0.6
176
     0
 40
30.0
176
     0
 62
     7
420
 16777215
176
     0
 90
        1
176
     0
 90
        4
176
     0
 62
     7
176
     0
 62
   257
176
     0
 90
        1
176
     0
 90
        1
176
     0
 40
1.0
176
     0
 90
       10
176
     2
 62
     7
176
     0
 40
1.0
176
     0
 90
        1
176
     0
 90
        6
176
     0
 90
        2
176
     0
 62
     7
176
     0
 90
        5
176
     0
 90
        0
176
     0
 90
        0
176
     0
290
     0
176
     0
 90
        1
176
     0
 40
0.0
176
     0
 90
        0
176
     0
290
     0
176
     0
290
     1
176
     0
290
     1
176
     0
290
     0
176
     0
290
     0
176
     0
290
     0
176
     0
290
     0
176
     0
290
     0
176
     0
290
     0
176
     0
 90
       50
176
     0
 40
0.0
176
     0
 40
1.0
176
     0
 90
        0
176
     0
 62
    18
420
        0
176
     0
 90
       50
176
     0
 90
        3
176
     0
 62
     5
420
      255
176
     0
290
     0
176
     0
 90
       50
176
     0
 90
       50
176
     0
 90
       50
176
     0
290
     0
176
     0
 90
       50
176
     0
 62
   256
176
     0
 40
1.0
176
     0
 90
        2
176
     0
  1
strokes_ogs.tif
176
     0
290
     0
176
     0
 40
1.0
176
     0
 40
1.0
176
     0
  0
VISUALSTYLE
  5
37
102
{ACAD_REACTORS
330
29
102
}
330
29
100
AcDbVisualStyle
  2
Linepattern
 70
    14
177
     3
291
     1
 70
    58
 90
        2
176
     1
 90
        2
176
     1
 90
        0
176
     1
 90
        0
176
     1
 40
0.6
176
     1
 40
30.0
176
     1
 62
     7
420
 16777215
176
     1
 90
        1
176
     1
 90
        4
176
     1
 62
     7
176
     1
 62
   257
176
     1
 90
        7
176
     1
 90
        7
176
     1
 40
1.0
176
     1
 90
        8
176
     1
 62
     7
176
     1
 40
1.0
176
     1
 90
        1
176
     1
 90
        6
176
     1
 90
        2
176
     1
 62
     7
176
     1
 90
        5
176
     1
 90
        0
176
     1
 90
        0
176
     1
290
     0
176
     1
 90
        1
176
     1
 40
0.0
176
     1
 90
        0
176
     1
290
     0
176
     1
290
     1
176
     1
290
     1
176
     1
290
     0
176
     1
290
     0
176
     1
290
     0
176
     1
290
     0
176
     1
290
     0
176
     1
290
     0
176
     1
 90
       50
176
     1
 40
0.0
176
     1
 40
1.0
176
     1
 90
        0
176
     1
 62
    18
420
        0
176
     1
 90
       50
176
     1
 90
        3
176
     1
 62
     5
420
      255
176
     1
290
     0
176
     1
 90
       50
176
     1
 90
       50
176
     1
 90
       50
176
     1
290
     0
176
     1
 90
       50
176
     1
 62
   256
176
     0
 40
1.0
176
     0
 90
        2
176
     1
  1
strokes_ogs.tif
176
     1
290
     0
176
     1
 40
1.0
176
     1
 40
1.0
176
     1
  0
VISUALSTYLE
  5
40
102
{ACAD_REACTORS
330
29
102
}
330
29
100
AcDbVisualStyle
  2
OverhangOff
 70
    21
177
     3
291
     1
 70
    58
 90
        2
176
     0
 90
        2
176
     0
 90
        0
176
     0
 90
        0
176
     0
 40
0.6
176
     0
 40
30.0
176
     0
 62
     7
420
 16777215
176
     0
 90
        1
176
     0
 90
        4
176
     0
 62
     7
176
     0
 62
   257
176
     0
 90
        1
176
     0
 90
        1
176
     0
 40
1.0
176
     0
 90
        9
176
     2
 62
     7
176
     0
 40
1.0
176
     0
 90
        1
176
     0
 90
        6
176
     0
 90
        2
176
     0
 62
     7
176
     0
 90
        5
176
     0
 90
        0
176
     0
 90
        0
176
     0
290
     0
176
     0
 90
        1
176
     0
 40
0.0
176
     0
 90
        0
176
     0
290
     0
176
     0
290
     1
176
     0
290
     1
176
     0
290
     0
176
     0
290
     0
176
     0
290
     0
176
     0
290
     0
176
     0
290
     0
176
     0
290
     0
176
     0
 90
       50
176
     0
 40
0.0
176
     0
 40
1.0
176
     0
 90
        0
176
     0
 62
    18
420
        0
176
     0
 90
       50
176
     0
 90
        3
176
     0
 62
     5
420
      255
176
     0
290
     0
176
     0
 90
       50
176
     0
 90
       50
176
     0
 90
       50
176
     0
290
     0
176
     0
 90
       50
176
     0
 62
   256
176
     0
 40
1.0
176
     0
 90
        2
176
     0
  1
strokes_ogs.tif
176
     0
290
     0
176
     0
 40
1.0
176
     0
 40
1.0
176
     0
  0
VISUALSTYLE
  5
33
102
{ACAD_REACTORS
330
29
102
}
330
29
100
AcDbVisualStyle
  2
Realistic
 70
     8
177
     3
291
     0
 70
    58
 90
        2
176
     1
 90
        3
176
     1
 90
        0
176
     1
 90
        2
176
     1
 40
0.6
176
     1
 40
30.0
176
     1
 62
     7
420
 16777215
176
     1
 90
        0
176
     1
 90
        0
176
     1
 62
     7
176
     1
 62
   257
176
     1
 90
        1
176
     1
 90
        1
176
     1
 40
1.0
176
     1
 90
        8
176
     1
 62
   257
176
     1
 40
1.0
176
     1
 90
        1
176
     1
 90
        6
176
     1
 90
        2
176
     1
 62
     7
176
     1
 90
        3
176
     1
 90
        0
176
     1
 90
        0
176
     1
290
     0
176
     1
 90
       13
176
     1
 40
0.0
176
     1
 90
        0
176
     1
290
     0
176
     1
290
     1
176
     1
290
     1
176
     1
290
     0
176
     1
290
     0
176
     1
290
     0
176
     1
290
     0
176
     1
290
     0
176
     1
290
     0
176
     1
 90
       50
176
     1
 40
0.0
176
     1
 40
1.0
176
     1
 90
        0
176
     1
 62
    18
420
        0
176
     1
 90
       50
176
     1
 90
        3
176
     1
 62
     5
420
      255
176
     1
290
     0
176
     1
 90
       50
176
     1
 90
       50
176
     1
 90
       50
176
     1
290
     0
176
     1
 90
       50
176
     1
 62
   256
176
     0
 40
1.0
176
     0
 90
        2
176
     1
  1
strokes_ogs.tif
176
     1
290
     0
176
     1
 40
1.0
176
     1
 40
1.0
176
     1
  0
VISUALSTYLE
  5
3E
102
{ACAD_REACTORS
330
29
102
}
330
29
100
AcDbVisualStyle
  2
Shaded
 70
    27
177
     3
291
     0
 70
    58
 90
        2
176
     1
 90
        2
176
     1
 90
        1
176
     1
 90
        2
176
     1
 40
0.6
176
     1
 40
30.0
176
     1
 62
     7
420
 16777215
176
     1
 90
        0
176
     1
 90
        4
176
     1
 62
     7
176
     1
 62
   257
176
     1
 90
        1
176
     1
 90
        1
176
     1
 40
1.0
176
     1
 90
        8
176
     1
 62
   257
176
     1
 40
1.0
176
     1
 90
        1
176
     1
 90
        6
176
     1
 90
        2
176
     1
 62
     8
420
  7895160
176
     1
 90
        3
176
     1
 90
        0
176
     1
 90
        0
176
     1
290
     0
176
     1
 90
        5
176
     1
 40
0.0
176
     1
 90
        0
176
     1
290
     0
176
     1
290
     1
176
     1
290
     1
176
     1
290
     0
176
     1
290
     0
176
     1
290
     0
176
     1
290
     0
176
     1
290
     0
176
     1
290
     0
176
     1
 90
       50
176
     1
 40
0.0
176
     1
 40
1.0
176
     1
 90
        0
176
     1
 62
    18
420
        0
176
     1
 90
       50
176
     1
 90
        3
176
     1
 62
     5
420
      255
176
     1
290
     0
176
     1
 90
       50
176
     1
 90
       50
176
     1
 90
       50
176
     1
290
     0
176
     1
 90
       50
176
     1
 62
   256
176
     0
 40
1.0
176
     0
 90
        2
176
     1
  1
strokes_ogs.tif
176
     1
290
     0
176
     1
 40
1.0
176
     1
 40
1.0
176
     1
  0
VISUALSTYLE
  5
3D
102
{ACAD_REACTORS
330
29
102
}
330
29
100
AcDbVisualStyle
  2
Shaded with edges
 70
    26
177
     3
291
     0
 70
    58
 90
        2
176
     1
 90
        2
176
     1
 90
        1
176
     1
 90
        2
176
     1
 40
0.6
176
     1
 40
30.0
176
     1
 62
     7
420
 16777215
176
     1
 90
        1
176
     1
 90
        2
176
     1
 62
     7
176
     1
 62
   257
176
     1
 90
        2
176
     1
 90
        1
176
     1
 40
1.0
176
     1
 90
        8
176
     1
 62
   257
176
     1
 40
1.0
176
     1
 90
        1
176
     1
 90
        6
176
     1
 90
        2
176
     1
 62
     7
176
     1
 90
        3
176
     1
 90
        0
176
     1
 90
        0
176
     1
290
     0
176
     1
 90
        5
176
     1
 40
0.0
176
     1
 90
        0
176
     1
290
     0
176
     1
290
     1
176
     1
290
     1
176
     1
290
     0
176
     1
290
     0
176
     1
290
     0
176
     1
290
     0
176
     1
290
     0
176
     1
290
     0
176
     1
 90
       50
176
     1
 40
0.0
176
     1
 40
1.0
176
     1
 90
        0
176
     1
 62
    18
420
        0
176
     1
 90
       50
176
     1
 90
        3
176
     1
 62
     5
420
      255
176
     1
290
     0
176
     1
 90
       50
176
     1
 90
       50
176
     1
 90
       50
176
     1
290
     0
176
     1
 90
       50
176
     1
 62
   256
176
     0
 40
1.0
176
     0
 90
        2
176
     1
  1
strokes_ogs.tif
176
     1
290
     0
176
     1
 40
1.0
176
     1
 40
1.0
176
     1
  0
VISUALSTYLE
  5
3A
102
{ACAD_REACTORS
330
29
102
}
330
29
100
AcDbVisualStyle
  2
Shades of Gray
 70
    23
177
     3
291
     0
 70
    58
 90
        2
176
     1
 90
        2
176
     1
 90
        3
176
     1
 90
        0
176
     1
 40
0.6
176
     1
 40
30.0
176
     1
 62
     7
420
 16777215
176
     1
 90
        2
176
     1
 90
        2
176
     1
 62
     7
176
     1
 62
     7
176
     1
 90
        1
176
     1
 90
        1
176
     1
 40
40.0
176
     1
 90
        8
176
     1
 62
     7
176
     1
 40
1.0
176
     1
 90
        1
176
     1
 90
        6
176
     1
 90
        2
176
     1
 62
     7
176
     1
 90
        3
176
     1
 90
        0
176
     1
 90
        0
176
     1
290
     0
176
     1
 90
        1
176
     1
 40
0.0
176
     1
 90
        0
176
     1
290
     0
176
     1
290
     1
176
     1
290
     1
176
     1
290
     0
176
     1
290
     0
176
     1
290
     0
176
     1
290
     0
176
     1
290
     0
176
     1
290
     0
176
     1
 90
       50
176
     1
 40
0.0
176
     1
 40
1.0
176
     1
 90
        0
176
     1
 62
    18
420
        0
176
     1
 90
       50
176
     1
 90
        3
176
     1
 62
     5
420
      255
176
     1
290
     0
176
     1
 90
       50
176
     1
 90
       50
176
     1
 90
       50
176
     1
290
     0
176
     1
 90
       50
176
     1
 62
   256
176
     0
 40
1.0
176
     0
 90
        2
176
     1
  1
strokes_ogs.tif
176
     1
290
     0
176
     1
 40
1.0
176
     1
 40
1.0
176
     1
  0
VISUALSTYLE
  5
3B
102
{ACAD_REACTORS
330
29
102
}
330
29
100
AcDbVisualStyle
  2
Sketchy
 70
    24
177
     3
291
     0
 70
    58
 90
        1
176
     1
 90
        2
176
     1
 90
        2
176
     1
 90
        0
176
     1
 40
0.6
176
     1
 40
30.0
176
     1
 62
     7
420
 16777215
176
     1
 90
        2
176
     1
 90
        2
176
     1
 62
     7
176
     1
 62
     7
176
     1
 90
        1
176
     1
 90
        1
176
     1
 40
40.0
176
     1
 90
       11
176
     1
 62
     7
176
     1
 40
1.0
176
     1
 90
        1
176
     1
 90
        6
176
     1
 90
        2
176
     1
 62
     7
176
     1
 90
        6
176
     1
 90
        0
176
     1
 90
        0
176
     1
290
     0
176
     1
 90
        1
176
     1
 40
0.0
176
     1
 90
        0
176
     1
290
     0
176
     1
290
     1
176
     1
290
     1
176
     1
290
     0
176
     1
290
     0
176
     1
290
     0
176
     1
290
     0
176
     1
290
     0
176
     1
290
     0
176
     1
 90
       50
176
     1
 40
0.0
176
     1
 40
1.0
176
     1
 90
        0
176
     1
 62
    18
420
        0
176
     1
 90
       50
176
     1
 90
        3
176
     1
 62
     5
420
      255
176
     1
290
     0
176
     1
 90
       50
176
     1
 90
       50
176
     1
 90
       50
176
     1
290
     0
176
     1
 90
       50
176
     1
 62
   256
176
     0
 40
1.0
176
     0
 90
        2
176
     1
  1
strokes_ogs.tif
176
     1
290
     0
176
     1
 40
1.0
176
     1
 40
1.0
176
     1
  0
VISUALSTYLE
  5
36
102
{ACAD_REACTORS
330
29
102
}
330
29
100
AcDbVisualStyle
  2
Thicken
 70
    13
177
     3
291
     1
 70
    58
 90
        2
176
     1
 90
        2
176
     1
 90
        0
176
     1
 90
        0
176
     1
 40
0.6
176
     1
 40
30.0
176
     1
 62
     7
420
 16777215
176
     1
 90
        1
176
     1
 90
        4
176
     1
 62
     7
176
     1
 62
   257
176
     1
 90
        1
176
     1
 90
        1
176
     1
 40
1.0
176
     1
 90
       12
176
     1
 62
     7
176
     1
 40
1.0
176
     1
 90
        1
176
     1
 90
        6
176
     1
 90
        2
176
     1
 62
     7
176
     1
 90
        5
176
     1
 90
        0
176
     1
 90
        0
176
     1
290
     0
176
     1
 90
        1
176
     1
 40
0.0
176
     1
 90
        0
176
     1
290
     0
176
     1
290
     1
176
     1
290
     1
176
     1
290
     0
176
     1
290
     0
176
     1
290
     0
176
     1
290
     0
176
     1
290
     0
176
     1
290
     0
176
     1
 90
       50
176
     1
 40
0.0
176
     1
 40
1.0
176
     1
 90
        0
176
     1
 62
    18
420
        0
176
     1
 90
       50
176
     1
 90
        3
176
     1
 62
     5
420
      255
176
     1
290
     0
176
     1
 90
       50
176
     1
 90
       50
176
     1
 90
       50
176
     1
290
     0
176
     1
 90
       50
176
     1
 62
   256
176
     0
 40
1.0
176
     0
 90
        2
176
     1
  1
strokes_ogs.tif
176
     1
290
     0
176
     1
 40
1.0
176
     1
 40
1.0
176
     1
  0
VISUALSTYLE
  5
30
102
{ACAD_REACTORS
330
29
102
}
330
29
100
AcDbVisualStyle
  2
Wireframe
 70
     5
177
     3
291
     0
 70
    58
 90
        0
176
     1
 90
        2
176
     1
 90
        0
176
     1
 90
        0
176
     1
 40
0.6
176
     1
 40
30.0
176
     1
 62
     7
420
 16777215
176
     1
 90
        1
176
     1
 90
        4
176
     1
 62
     7
176
     1
 62
   257
176
     1
 90
        1
176
     1
 90
        1
176
     1
 40
1.0
176
     1
 90
        0
176
     1
 62
   257
176
     1
 40
1.0
176
     1
 90
        1
176
     1
 90
        6
176
     1
 90
        2
176
     1
 62
     7
176
     1
 90
        3
176
     1
 90
        0
176
     1
 90
        0
176
     1
290
     0
176
     1
 90
        1
176
     1
 40
0.0
176
     1
 90
        0
176
     1
290
     0
176
     1
290
     1
176
     1
290
     1
176
     1
290
     0
176
     1
290
     0
176
     1
290
     0
176
     1
290
     0
176
     1
290
     0
176
     1
290
     0
176
     1
 90
       50
176
     1
 40
0.0
176
     1
 40
1.0
176
     1
 90
        0
176
     1
 62
    18
420
        0
176
     1
 90
       50
176
     1
 90
        3
176
     1
 62
     5
420
      255
176
     1
290
     0
176
     1
 90
       50
176
     1
 90
       50
176
     1
 90
       50
176
     1
290
     0
176
     1
 90
       50
176
     1
 62
   256
176
     0
 40
1.0
176
     0
 90
        2
176
     1
  1
strokes_ogs.tif
176
     1
290
     0
176
     1
 40
1.0
176
     1
 40
1.0
176
     1
  0
VISUALSTYLE
  5
3C
102
{ACAD_REACTORS
330
29
102
}
330
29
100
AcDbVisualStyle
  2
X-Ray
 70
    25
177
     3
291
     0
 70
    58
 90
        2
176
     1
 90
        2
176
     1
 90
        1
176
     1
 90
        1
176
     1
 40
0.5
176
     1
 40
30.0
176
     1
 62
     7
420
 16777215
176
     1
 90
        1
176
     1
 90
        0
176
     1
 62
     7
176
     1
 62
   257
176
     1
 90
        1
176
     1
 90
        1
176
     1
 40
1.0
176
     1
 90
        8
176
     1
 62
     7
176
     1
 40
1.0
176
     1
 90
        1
176
     1
 90
        6
176
     1
 90
        2
176
     1
 62
     7
176
     1
 90
        3
176
     1
 90
        0
176
     1
 90
        0
176
     1
290
     0
176
     1
 90
       13
176
     1
 40
0.0
176
     1
 90
        0
176
     1
290
     0
176
     1
290
     1
176
     1
290
     1
176
     1
290
     0
176
     1
290
     0
176
     1
290
     0
176
     1
290
     0
176
     1
290
     0
176
     1
290
     0
176
     1
 90
       50
176
     1
 40
0.0
176
     1
 40
1.0
176
     1
 90
        0
176
     1
 62
    18
420
        0
176
     1
 90
       50
176
     1
 90
        3
176
     1
 62
     5
420
      255
176
     1
290
     0
176
     1
 90
       50
176
     1
 90
       50
176
     1
 90
       50
176
     1
290
     0
176
     1
 90
       50
176
     1
 62
   256
176
     0
 40
1.0
176
     0
 90
        2
176
     1
  1
strokes_ogs.tif
176
     1
290
     0
176
     1
 40
1.0
176
     1
 40
1.0
176
     1
  0
DICTIONARYVAR
  5
96
102
{ACAD_REACTORS
330
91
102
}
330
91
100
DictionaryVariables
280
     0
  1
1:1
  0
DICTIONARYVAR
  5
93
102
{ACAD_REACTORS
330
91
102
}
330
91
100
DictionaryVariables
280
     0
  1
STANDARD
  0
DICTIONARYVAR
  5
92
102
{ACAD_REACTORS
330
91
102
}
330
91
100
DictionaryVariables
280
     0
  1
STANDARD
  0
DICTIONARYVAR
  5
94
102
{ACAD_REACTORS
330
91
102
}
330
91
100
DictionaryVariables
280
     0
  1
Imperial24
  0
DICTIONARYVAR
  5
95
102
{ACAD_REACTORS
330
91
102
}
330
91
100
DictionaryVariables
280
     0
  1
Imperial24
  0
DICTIONARY
  5
1A
330
19
100
AcDbDictionary
280
     1
281
     1
  3
BUMPTILE
360
1C
  3
DIFFUSETILE
360
1B
  3
OPACITYTILE
360
1F
  3
REFLECTIONTILE
360
1E
  3
REFRACTIONTILE
360
20
  3
SPECULARTILE
360
1D
  0
DICTIONARY
  5
12
330
11
100
AcDbDictionary
280
     1
281
     1
  3
BUMPTILE
360
14
  3
DIFFUSETILE
360
13
  3
OPACITYTILE
360
17
  3
REFLECTIONTILE
360
16
  3
REFRACTIONTILE
360
18
  3
SPECULARTILE
360
15
  0
DICTIONARY
  5
22
330
21
100
AcDbDictionary
280
     1
281
     1
  3
BUMPTILE
360
24
  3
DIFFUSETILE
360
23
  3
OPACITYTILE
360
27
  3
REFLECTIONTILE
360
26
  3
REFRACTIONTILE
360
28
  3
SPECULARTILE
360
25
  0
DICTIONARY
  5
97
330
65
100
AcDbDictionary
280
     1
281
     1
  3
ACAD_ROUNDTRIP_2008_TABLESTYLE_CELLSTYLEMAP
360
98
  0
XRECORD
  5
1C
102
{ACAD_REACTORS
330
1A
102
}
330
1A
100
AcDbXrecord
280
     1
270
     1
271
     1
  0
XRECORD
  5
1B
102
{ACAD_REACTORS
330
1A
102
}
330
1A
100
AcDbXrecord
280
     1
270
     1
271
     1
  0
XRECORD
  5
1F
102
{ACAD_REACTORS
330
1A
102
}
330
1A
100
AcDbXrecord
280
     1
270
     1
271
     1
  0
XRECORD
  5
1E
102
{ACAD_REACTORS
330
1A
102
}
330
1A
100
AcDbXrecord
280
     1
270
     1
271
     1
  0
XRECORD
  5
20
102
{ACAD_REACTORS
330
1A
102
}
330
1A
100
AcDbXrecord
280
     1
270
     1
271
     1
  0
XRECORD
  5
1D
102
{ACAD_REACTORS
330
1A
102
}
330
1A
100
AcDbXrecord
280
     1
270
     1
271
     1
  0
XRECORD
  5
14
102
{ACAD_REACTORS
330
12
102
}
330
12
100
AcDbXrecord
280
     1
270
     1
271
     1
  0
XRECORD
  5
13
102
{ACAD_REACTORS
330
12
102
}
330
12
100
AcDbXrecord
280
     1
270
     1
271
     1
  0
XRECORD
  5
17
102
{ACAD_REACTORS
330
12
102
}
330
12
100
AcDbXrecord
280
     1
270
     1
271
     1
  0
XRECORD
  5
16
102
{ACAD_REACTORS
330
12
102
}
330
12
100
AcDbXrecord
280
     1
270
     1
271
     1
  0
XRECORD
  5
18
102
{ACAD_REACTORS
330
12
102
}
330
12
100
AcDbXrecord
280
     1
270
     1
271
     1
  0
XRECORD
  5
15
102
{ACAD_REACTORS
330
12
102
}
330
12
100
AcDbXrecord
280
     1
270
     1
271
     1
  0
XRECORD
  5
24
102
{ACAD_REACTORS
330
22
102
}
330
22
100
AcDbXrecord
280
     1
270
     1
271
     1
  0
XRECORD
  5
23
102
{ACAD_REACTORS
330
22
102
}
330
22
100
AcDbXrecord
280
     1
270
     1
271
     1
  0
XRECORD
  5
27
102
{ACAD_REACTORS
330
22
102
}
330
22
100
AcDbXrecord
280
     1
270
     1
271
     1
  0
XRECORD
  5
26
102
{ACAD_REACTORS
330
22
102
}
330
22
100
AcDbXrecord
280
     1
270
     1
271
     1
  0
XRECORD
  5
28
102
{ACAD_REACTORS
330
22
102
}
330
22
100
AcDbXrecord
280
     1
270
     1
271
     1
  0
XRECORD
  5
25
102
{ACAD_REACTORS
330
22
102
}
330
22
100
AcDbXrecord
280
     1
270
     1
271
     1
  0
CELLSTYLEMAP
  5
98
102
{ACAD_REACTORS
330
97
102
}
330
97
100
AcDbCellStyleMap
 90
        3
300
CELLSTYLE
  1
TABLEFORMAT_BEGIN
 90
        5
170
     1
 91
        0
 92
    32768
 62
   257
 93
        1
300
CONTENTFORMAT
  1
CONTENTFORMAT_BEGIN
 90
        0
 91
        0
 92
      512
 93
        0
300

 40
0.0
140
1.0
 94
        5
 62
     0
340
55
144
0.25
309
CONTENTFORMAT_END
171
     0
 94
        0
309
TABLEFORMAT_END
  1
CELLSTYLE_BEGIN
 90
        1
 91
        1
300
_TITLE
309
CELLSTYLE_END
300
CELLSTYLE
  1
TABLEFORMAT_BEGIN
 90
        5
170
     1
 91
        0
 92
        0
 62
   257
 93
        1
300
CONTENTFORMAT
  1
CONTENTFORMAT_BEGIN
 90
        0
 91
        0
 92
      512
 93
        0
300

 40
0.0
140
1.0
 94
        5
 62
     0
340
55
144
0.18
309
CONTENTFORMAT_END
171
     0
 94
        0
309
TABLEFORMAT_END
  1
CELLSTYLE_BEGIN
 90
        2
 91
        1
300
_HEADER
309
CELLSTYLE_END
300
CELLSTYLE
  1
TABLEFORMAT_BEGIN
 90
        5
170
     1
 91
        0
 92
        0
 62
   257
 93
        1
300
CONTENTFORMAT
  1
CONTENTFORMAT_BEGIN
 90
        0
 91
        0
 92
      512
 93
        0
300

 40
0.0
140
1.0
 94
        2
 62
     0
340
55
144
0.18
309
CONTENTFORMAT_END
171
     0
 94
        0
309
TABLEFORMAT_END
  1
CELLSTYLE_BEGIN
 90
        3
 91
        2
300
_DATA
309
CELLSTYLE_END
  0
ENDSEC
  0
EOF
