<?xml version="1.0" encoding="UTF-8"?>
<svg id="Layer_1" data-name="Layer 1" xmlns="http://www.w3.org/2000/svg" viewBox="0 0 500 500">
  <defs>
    <style>
      .cls-1 {
        fill: #fff;
      }

      .cls-2 {
        fill: #831618;
      }

      .cls-3 {
        fill: #0f592d;
      }
    </style>
  </defs>
  <g>
    <path d="M402.45,299.19c0-77.84,.02-155.7,0-233.54,0-10.31-3.95-18.92-11.49-25.92-7.18-6.67-15.82-9.34-25.47-9.32-20.07,.03-40.14,.03-60.21,.03-59.06,0-118.11-.02-177.16-.03-11.34,0-20.72,4.34-28.15,12.89-6.27,7.22-8.35,15.73-8.34,25.12,.08,59.52,.04,119.04,.04,178.55,0,49.66-.01,99.31,0,148.97,0,11.71-.06,23.43,.17,35.14,.17,8.21,3.52,15.25,9.04,21.3,8.08,8.86,18.27,11.9,30.02,11.88,72.97-.12,145.95-.03,218.92-.1,7.99-.01,16.05,.84,23.98-.63,17.04-3.17,28.65-17.63,28.66-35.57,.03-42.93-.01-85.85-.01-128.78Zm-2.43-51.84h-.05c0,59.4,0,118.79,0,178.2,0,5.01-.29,9.96-2.06,14.73-4.8,12.96-17.23,21.4-31.66,21.4-77.27,0-154.53-.02-231.79-.03-2.55,0-5.11,.06-7.66-.03-18.18-.65-31.86-14.28-32.59-32.44-.03-.93-.02-1.85-.02-2.78,0-119.38,.02-238.75-.03-358.13,0-9.73,2.62-18.27,9.62-25.26,6.96-6.93,15.36-10.01,25.14-10,56.96,.06,113.93,.03,170.89,.03,22.28,0,44.55-.09,66.82,.03,16.55,.09,29.64,10.91,32.75,26.74,.84,4.24,.62,8.55,.63,12.84,0,58.24,0,116.48,0,174.72Z"/>
    <path class="cls-1" d="M400.02,247.35h-.05c0,59.4,0,118.79,0,178.2,0,5.01-.29,9.96-2.06,14.73-4.8,12.96-17.23,21.4-31.66,21.4-77.27,0-154.53-.02-231.79-.03-2.55,0-5.11,.06-7.66-.03-18.18-.65-31.86-14.28-32.59-32.44-.03-.93-.02-1.85-.02-2.78,0-119.38,.02-238.75-.03-358.13,0-9.73,2.62-18.27,9.62-25.26,6.96-6.93,15.36-10.01,25.14-10,56.96,.06,113.93,.03,170.89,.03,22.28,0,44.55-.09,66.82,.03,16.55,.09,29.64,10.91,32.75,26.74,.84,4.24,.62,8.55,.63,12.84,0,58.24,0,116.48,0,174.72Z"/>
  </g>
  <g>
    <path class="cls-2" d="M237.85,296.95c.2-19.61-17.21-37.2-36.45-36.84-18.65,.35-35.13,17.13-35.11,35.76,.02,20.15,15.6,35.84,35.66,35.89,18.9,.05,35.72-16.26,35.9-34.8Zm-15.55-18.65c7.59,.69,8.33,7.3,9.3,12.72-.14,4.61-.59,9-5.8,8.85-8.68-.25-9.2-7.41-9.87-13.65-.46-4.26,1.78-8.33,6.37-7.91Zm-20.61-12.33c5.38,.52,11.5,.07,11.33,6.97-.15,6.05-5.39,7.6-10.7,7.58-5.55-.02-11.46-1.02-11.3-7.92,.16-6.7,6.44-6.01,10.67-6.63Zm-28.92,24.9c.6-5.65,1.61-11.97,8.59-12.73,5.27-.57,6.81,3.89,6.85,8.56-1.25,5.81-1.26,12.79-9.4,13.13-5.88,.25-6.51-4.56-6.04-8.97Zm19.81,33.38c-7.1-.9-12.94-4.63-14.19-12.04-.79-4.71,3.64-7.17,7.67-6.51,6.55,1.08,11.44,4.97,13.08,11.31-.27,4.8-2.41,7.76-6.56,7.24Zm9.03-19.17c-5.53-.38-9.22-4.1-8.8-9.88,.41-5.56,4.71-7.34,9.8-7.5,5.17,.55,9.1,2.95,8.8,8.5-.31,5.63-4.1,9.26-9.79,8.87Zm24.24,6.98c-1.02,7.71-7.46,10.39-13.76,12.14-4.72-.13-7.31-2.41-6.91-6.59,.72-7.5,6.26-10.86,12.81-11.92,4.05-.66,8.48,1.68,7.86,6.37Z"/>
    <path class="cls-2" d="M201.93,293.36c-1.54,.32-2.43,1.34-2.07,2.8,.19,.76,1.2,1.72,1.97,1.87,1.49,.29,2.57-.71,2.6-2.23,.04-1.52-.96-2.35-2.5-2.44Z"/>
    <path class="cls-2" d="M291.94,331.76c18.9,.05,35.72-16.26,35.9-34.8,.2-19.61-17.21-37.2-36.45-36.84-18.65,.35-35.13,17.13-35.11,35.76,.02,20.15,15.6,35.84,35.66,35.89Zm-9.36-7.5c-7.1-.9-12.94-4.63-14.19-12.04-.79-4.71,3.64-7.17,7.67-6.51,6.55,1.08,11.44,4.97,13.08,11.31-.27,4.8-2.41,7.76-6.56,7.24Zm9.03-19.17c-5.53-.38-9.22-4.1-8.8-9.88,.41-5.56,4.71-7.34,9.8-7.5,5.17,.55,9.1,2.95,8.8,8.5-.31,5.63-4.1,9.26-9.79,8.87Zm24.24,6.98c-1.02,7.71-7.46,10.39-13.76,12.14-4.72-.13-7.31-2.41-6.91-6.59,.72-7.5,6.26-10.86,12.81-11.92,4.05-.66,8.48,1.68,7.86,6.37Zm-3.56-33.76c7.59,.69,8.33,7.3,9.3,12.72-.14,4.61-.59,9-5.8,8.85-8.68-.25-9.2-7.41-9.87-13.65-.46-4.26,1.78-8.33,6.37-7.91Zm-20.61-12.33c5.38,.52,11.5,.07,11.33,6.97-.15,6.05-5.39,7.6-10.7,7.58-5.55-.02-11.46-1.02-11.3-7.92,.16-6.7,6.44-6.01,10.67-6.63Zm-28.92,24.9c.6-5.65,1.61-11.97,8.59-12.73,5.27-.57,6.81,3.89,6.85,8.56-1.25,5.81-1.26,12.79-9.4,13.13-5.88,.25-6.51-4.56-6.04-8.97Z"/>
    <path class="cls-2" d="M291.93,293.36c-1.54,.32-2.43,1.34-2.07,2.8,.19,.76,1.2,1.72,1.97,1.87,1.49,.29,2.57-.71,2.6-2.23,.04-1.52-.96-2.35-2.5-2.44Z"/>
    <path class="cls-2" d="M201.39,349.11c-18.65,.35-35.13,17.13-35.11,35.76,.02,20.15,15.6,35.84,35.66,35.89,18.9,.05,35.72-16.26,35.9-34.8,.2-19.61-17.21-37.2-36.45-36.84Zm.29,5.87c5.38,.52,11.5,.07,11.33,6.97-.15,6.05-5.39,7.6-10.7,7.58-5.55-.02-11.46-1.02-11.3-7.92,.16-6.7,6.44-6.01,10.67-6.63Zm-28.92,24.9c.6-5.65,1.61-11.97,8.59-12.73,5.27-.57,6.81,3.89,6.85,8.56-1.25,5.81-1.26,12.79-9.4,13.13-5.88,.25-6.51-4.56-6.04-8.97Zm19.81,33.38c-7.1-.9-12.94-4.63-14.19-12.04-.79-4.71,3.64-7.17,7.67-6.51,6.55,1.08,11.44,4.97,13.08,11.31-.27,4.8-2.41,7.76-6.56,7.24Zm9.03-19.17c-5.53-.38-9.22-4.1-8.8-9.88,.41-5.56,4.71-7.34,9.8-7.5,5.17,.55,9.1,2.95,8.8,8.5-.31,5.63-4.1,9.26-9.79,8.87Zm24.24,6.98c-1.02,7.71-7.46,10.39-13.76,12.14-4.72-.13-7.31-2.41-6.91-6.59,.72-7.5,6.26-10.86,12.81-11.92,4.05-.66,8.48,1.68,7.86,6.37Zm5.74-21.04c-.14,4.61-.59,9-5.8,8.85-8.68-.25-9.2-7.41-9.87-13.65-.46-4.26,1.78-8.33,6.37-7.91,7.59,.69,8.33,7.3,9.3,12.72Z"/>
    <path class="cls-2" d="M201.93,382.36c-1.54,.32-2.43,1.34-2.07,2.8,.19,.76,1.2,1.72,1.97,1.87,1.49,.29,2.57-.71,2.6-2.23,.04-1.52-.96-2.35-2.5-2.44Z"/>
    <path class="cls-2" d="M310.44,340.55c17.4-7.45,30.1-24.69,30.3-44.31,.26-25.46-22.11-48.09-48.04-48.6-19.95-.39-38.19,12.6-45.71,30.34-7.4-17.13-24.84-29.96-44.29-30.34-25.87-.5-48.89,21.49-49.35,47.17-.36,20.09,12.24,38.17,29.81,45.8-16.92,7.41-29.48,24.3-29.81,43.2-.47,26.14,20.99,48.89,46.83,49.64,20.64,.6,39.2-12.39,46.85-30.53,7.15,17.24,23.94,29.97,43.15,30.53,26.9,.78,50.29-21.52,50.56-48.21,.2-19.37-12.7-37.09-30.3-44.69Zm-18.85-85.08c21.9-.24,40.79,18.4,40.83,40.28,.04,23.56-16.51,40.29-39.99,40.4-23.75,.12-40.66-16.33-40.66-39.55,0-23.17,17.14-40.88,39.82-41.13Zm-18.42,85.14c-11.65,5.1-21.23,14.7-26.18,26.37-5.04-11.67-14.74-21.33-26.55-26.43,11.89-5.09,21.58-14.75,26.59-26.63,4.93,11.87,14.43,21.6,26.14,26.69Zm-111.41-44.01c0-23.17,17.14-40.88,39.82-41.13,21.9-.24,40.79,18.4,40.83,40.28,.04,23.56-16.51,40.29-39.99,40.4-23.75,.12-40.66-16.33-40.66-39.55Zm40.66,128.55c-23.75,.12-40.66-16.33-40.66-39.55,0-23.17,17.14-40.88,39.82-41.13,21.9-.24,40.79,18.4,40.83,40.28,.04,23.56-16.51,40.29-39.99,40.4Zm90,0c-23.75,.12-40.66-16.33-40.66-39.55,0-23.17,17.14-40.88,39.82-41.13,21.9-.24,40.79,18.4,40.83,40.28,.04,23.56-16.51,40.29-39.99,40.4Z"/>
    <path class="cls-2" d="M291.39,349.11c-18.65,.35-35.13,17.13-35.11,35.76,.02,20.15,15.6,35.84,35.66,35.89,18.9,.05,35.72-16.26,35.9-34.8,.2-19.61-17.21-37.2-36.45-36.84Zm.29,5.87c5.38,.52,11.5,.07,11.33,6.97-.15,6.05-5.39,7.6-10.7,7.58-5.55-.02-11.46-1.02-11.3-7.92,.16-6.7,6.44-6.01,10.67-6.63Zm-28.92,24.9c.6-5.65,1.61-11.97,8.59-12.73,5.27-.57,6.81,3.89,6.85,8.56-1.25,5.81-1.26,12.79-9.4,13.13-5.88,.25-6.51-4.56-6.04-8.97Zm19.81,33.38c-7.1-.9-12.94-4.63-14.19-12.04-.79-4.71,3.64-7.17,7.67-6.51,6.55,1.08,11.44,4.97,13.08,11.31-.27,4.8-2.41,7.76-6.56,7.24Zm9.03-19.17c-5.53-.38-9.22-4.1-8.8-9.88,.41-5.56,4.71-7.34,9.8-7.5,5.17,.55,9.1,2.95,8.8,8.5-.31,5.63-4.1,9.26-9.79,8.87Zm24.24,6.98c-1.02,7.71-7.46,10.39-13.76,12.14-4.72-.13-7.31-2.41-6.91-6.59,.72-7.5,6.26-10.86,12.81-11.92,4.05-.66,8.48,1.68,7.86,6.37Zm5.74-21.04c-.14,4.61-.59,9-5.8,8.85-8.68-.25-9.2-7.41-9.87-13.65-.46-4.26,1.78-8.33,6.37-7.91,7.59,.69,8.33,7.3,9.3,12.72Z"/>
    <path class="cls-2" d="M291.93,382.36c-1.54,.32-2.43,1.34-2.07,2.8,.19,.76,1.2,1.72,1.97,1.87,1.49,.29,2.57-.71,2.6-2.23,.04-1.52-.96-2.35-2.5-2.44Z"/>
  </g>
  <g>
    <path class="cls-3" d="M203.98,130.25c-19.71-1.08-36.87,14.3-37.66,33.77-.79,19.27,15.05,36.64,34.33,37.66,18.75,1,36.24-15.43,37.12-34.86,.86-18.97-14.42-35.51-33.79-36.57Zm-2.06,4.63c5.04-.06,10.85,.85,11.17,7.16,.35,6.78-5.07,8.5-10.91,8.72-5.75-.17-11.25-1.69-11.16-8.46,.08-6.43,5.89-7.36,10.91-7.42Zm-29.01,25.37c.69-5.48,1.37-12.13,8.51-12.59,4.97-.32,6.68,4.24,6.77,8.92-1.18,5.44-1.36,12-8.81,12.42-5.48,.31-7.05-4.19-6.47-8.75Zm18.9,33.16c-6.94-1.14-13.1-4.23-13.83-12.17-.39-4.23,3.26-5.78,7.83-5.86,5.47,1.93,12.06,3.57,13.08,11.18,.62,4.62-2.35,7.62-7.09,6.85Zm10.27-19.4c-5.76-.11-9.53-3.17-9.08-9.11,.38-5.12,4-8.39,9.19-8.24,5.66,.17,8.61,3.93,9.36,9.29-.89,5.58-4.25,8.16-9.47,8.06Zm24.08,7.43c-.87,7.95-7.31,10.41-13.34,12.1-4.92,.13-7.35-1.93-7.71-6.12-.43-5.09,7.73-12.02,14.01-11.99,4.04,.02,7.5,1.8,7.04,6.01Zm5.17-21.53c-.03,4.61-.78,8.96-5.78,8.98-7.56,.03-8.58-6.32-9.37-11.95-.68-4.85,1.48-9.03,6.78-8.51,6.61,.64,7.32,6.68,8.36,11.48Z"/>
    <path class="cls-3" d="M202.02,163.68c-1.52,.22-2.55,1.12-2.27,2.63,.14,.79,1.08,1.81,1.86,2.02,1.5,.42,2.64-.52,2.78-2.05,.14-1.53-.84-2.41-2.37-2.6Z"/>
    <path class="cls-3" d="M292.08,117.41c-19.69,0-37.52,12.84-45,30.16-7.42-17.38-25.18-30.15-45-30.16-25.96,0-48.72,22.32-48.73,47.78-.02,26.23,22.7,49.05,48.77,48.99,20.11-.05,37.69-12.88,45.01-30.67,7.51,17.69,25.29,30.72,44.99,30.67,26.54-.06,48.7-22.39,48.64-49-.06-25.65-22.59-47.77-48.68-47.77Zm-91.06,88.94c-22.5-.44-39.67-18.52-39.27-41.37,.41-23.07,17.57-39.59,40.92-39.38,23.23,.21,39.97,17.26,39.71,40.45-.26,23.38-18.09,40.75-41.36,40.3Zm90,0c-22.5-.44-39.67-18.52-39.27-41.37,.41-23.07,17.57-39.59,40.92-39.38,23.23,.21,39.97,17.26,39.71,40.45-.26,23.38-18.09,40.75-41.36,40.3Z"/>
    <path class="cls-3" d="M293.98,130.25c-19.71-1.08-36.87,14.3-37.66,33.77-.79,19.27,15.05,36.64,34.33,37.66,18.75,1,36.24-15.43,37.12-34.86,.86-18.97-14.42-35.51-33.79-36.57Zm-2.06,4.63c5.04-.06,10.85,.85,11.17,7.16,.35,6.78-5.07,8.5-10.91,8.72-5.75-.17-11.25-1.69-11.16-8.46,.08-6.43,5.89-7.36,10.91-7.42Zm-29.01,25.37c.69-5.48,1.37-12.13,8.51-12.59,4.97-.32,6.68,4.24,6.77,8.92-1.18,5.44-1.36,12-8.81,12.42-5.48,.31-7.05-4.19-6.47-8.75Zm18.9,33.16c-6.94-1.14-13.1-4.23-13.83-12.17-.39-4.23,3.26-5.78,7.83-5.86,5.47,1.93,12.06,3.57,13.08,11.18,.62,4.62-2.35,7.62-7.09,6.85Zm10.27-19.4c-5.76-.11-9.53-3.17-9.08-9.11,.38-5.12,4-8.39,9.19-8.24,5.66,.17,8.61,3.93,9.36,9.29-.89,5.58-4.25,8.16-9.47,8.06Zm24.08,7.43c-.87,7.95-7.31,10.41-13.34,12.1-4.92,.13-7.35-1.93-7.71-6.12-.43-5.09,7.73-12.02,14.01-11.99,4.04,.02,7.5,1.8,7.04,6.01Zm-.61-12.55c-7.56,.03-8.58-6.32-9.37-11.95-.68-4.85,1.48-9.03,6.78-8.51,6.61,.64,7.32,6.68,8.36,11.48-.03,4.61-.78,8.96-5.78,8.98Z"/>
    <path class="cls-3" d="M292.02,163.68c-1.52,.22-2.55,1.12-2.27,2.63,.14,.79,1.08,1.81,1.86,2.02,1.5,.42,2.64-.52,2.78-2.05,.14-1.53-.84-2.41-2.37-2.6Z"/>
  </g>
  <path class="cls-2" d="M132.76,73.54c-5.51,0-9.64,3.11-12.01,6.87h-.23c1.15-9.8,6.73-19.04,17.29-21.15,1.91-.37,3.67-.46,5.05-.37v-6.59c-1.22,0-2.91,.09-4.9,.46-6.27,.92-11.78,3.94-15.91,8.79-4.9,5.86-8.42,15.11-8.42,26.82,0,15.47,6.96,25.36,17.6,25.36s16.52-10.07,16.52-20.97c0-11.63-6.2-19.23-14.99-19.23Zm-1.53,33.97c-7.04,0-10.79-7.23-10.94-17.03,0-1.46,.31-2.66,.77-3.57,1.84-4.3,5.58-7.32,9.64-7.32,6.2,0,10.25,5.13,10.25,13.64s-3.9,14.28-9.72,14.28Z"/>
</svg>