<?xml version="1.0" encoding="UTF-8"?>
<svg id="Layer_1" data-name="Layer 1" xmlns="http://www.w3.org/2000/svg" viewBox="0 0 500 500">
  <defs>
    <style>
      .cls-1 {
        fill: #fff;
      }

      .cls-2 {
        fill: #831618;
      }

      .cls-3 {
        fill: #064e29;
      }

      .cls-4 {
        fill: #1b2251;
      }
    </style>
  </defs>
  <g>
    <path d="M405.64,305.39c0-77.26,.02-154.52,0-231.78,0-10.23-3.92-18.78-11.41-25.72-7.13-6.62-15.7-9.27-25.28-9.25-19.92,.03-39.84,.03-59.76,.03-58.61,0-117.22-.02-175.83-.03-11.25,0-20.56,4.3-27.93,12.8-6.22,7.16-8.29,15.61-8.28,24.93,.08,59.07,.04,118.14,.04,177.2,0,49.28-.01,98.56,0,147.85,0,11.62-.06,23.25,.17,34.87,.17,8.15,3.5,15.14,8.97,21.14,8.01,8.79,18.14,11.81,29.79,11.79,72.42-.12,144.85-.03,217.27-.1,7.93-.01,15.93,.83,23.79-.63,16.91-3.15,28.43-17.49,28.44-35.31,.03-42.6-.01-85.2-.01-127.81Zm-2.41-51.45h-.05c0,58.95,0,117.9,0,176.85,0,4.97-.29,9.89-2.05,14.62-4.77,12.86-17.1,21.24-31.42,21.24-76.68,0-153.37-.02-230.04-.03-2.54,0-5.07,.06-7.6-.03-18.05-.64-31.62-14.17-32.34-32.2-.03-.92-.02-1.84-.02-2.76,0-118.48,.02-236.95-.03-355.43,0-9.66,2.6-18.14,9.55-25.07,6.91-6.88,15.25-9.94,24.95-9.93,56.53,.06,113.07,.03,169.6,.03,22.11,0,44.22-.09,66.32,.03,16.42,.09,29.42,10.83,32.51,26.54,.83,4.21,.62,8.48,.62,12.74,0,57.8,0,115.6,0,173.4Z"/>
    <path class="cls-1" d="M403.23,253.94h-.05c0,58.95,0,117.9,0,176.85,0,4.97-.29,9.89-2.05,14.62-4.77,12.86-17.1,21.24-31.42,21.24-76.68,0-153.37-.02-230.04-.03-2.54,0-5.07,.06-7.6-.03-18.05-.64-31.62-14.17-32.34-32.2-.03-.92-.02-1.84-.02-2.76,0-118.48,.02-236.95-.03-355.43,0-9.66,2.6-18.14,9.55-25.07,6.91-6.88,15.25-9.94,24.95-9.93,56.53,.06,113.07,.03,169.6,.03,22.11,0,44.22-.09,66.32,.03,16.42,.09,29.42,10.83,32.51,26.54,.83,4.21,.62,8.48,.62,12.74,0,57.8,0,115.6,0,173.4Z"/>
  </g>
  <path class="cls-4" d="M131.72,119.64v-54.92c-2.19,1.36-4.08,2.53-6.34,3.93,0-2.7-.04-5.02,.04-7.34,.01-.34,.49-.75,.86-.99,2.4-1.54,4.69-3.35,7.31-4.45,1.87-.78,4.23-.6,6.49-.86V119.64h-8.36Z"/>
  <g>
    <path class="cls-2" d="M243.69,297.22c13.31-.31,24.52,5.76,35.5,12.04,6.5,3.72,13.14,7.11,19.72,10.65,6.92,3.72,11.54,9.24,14.1,16.69,1.9,5.53,.76,10.22-3.24,14.16-8.92,8.77-17.82,17.58-31.51,18.36-4.12,.23-7.03,3.33-9.96,5.89-7.01,6.13-14.49,8.97-23.42,4.13-2.51-1.36-4.7-.92-6.52,1.53-2.44,3.28-5.73,6.1-7.49,9.68-6.58,13.37-18.2,19.68-31.72,23.14-10.78,2.75-21.41,5.47-29.92,13.23-1.62,1.48-3.64,1.52-5.38,.08-1.97-1.62-2.13-4.01-.85-5.8,3.18-4.44,4.83-8.75,2.97-14.41-.94-2.85,2.18-3.2,4.37-2.66,4.89,1.23,9.86,1.19,14.84,1.5,14.83,.92,24.9-7.94,35.03-16.7,2.39-2.07,2.79-4.37-.3-6.56-3.36-2.39-5.95-5.6-8.34-8.95-3.6-5.06-8.24-8.99-13.94-11.29-7.32-2.95-10.84-8.1-11.23-15.88-.29-5.92-1.66-11.43-5.73-16.27-3.6-4.27-2.32-12.1,1.99-16.73,3.6-3.87,7.93-7,13.18-7.64,13.47-1.64,26.62-4.8,39.88-7.44,2.6-.52,5.31-.52,7.97-.75Zm-37.5,51.77c-4.54,.38-5.35-.58-4.31-5.14,.44-1.9,.98-3.78,1.35-5.69,.17-.88,0-1.93-1.04-2.15-.55-.12-1.31,.28-1.85,.63-2.85,1.9-5.2,10.12-3.7,13.08,2.18,4.31,6.16,3.44,9.8,3.11,1.69-.15,4.11-.54,3.76-2.83-.34-2.19-2.49-1.27-4.01-1.01Zm73.17,10.46c2.67,.12,5.59,.43,7-2.51,1.39-2.89,.94-5.93-.42-8.75-.34-.7-1.23-1.53-1.91-1.57-1.32-.09-1.8,1.21-1.64,2.24,.77,5-1.76,6.17-6.11,5.72-1.69-.18-2.63,1.08-2.62,2.7,0,1.52,1.14,2.1,2.51,2.17,1.06,.05,2.13,.01,3.2,.01Zm-15.8,6.15c-.22-1.14,.26-2.64-1.28-3.18-1.02-.36-1.62,.46-2.05,1.26-2.4,4.5-5.24,3.97-8.45,.86-.96-.94-2.18-2.3-3.6-.74-1.28,1.41-.18,2.64,.77,3.71,2.41,2.68,5.43,3.76,9.04,3.73,3.87-.03,5.41-2.06,5.57-5.64Zm-36.41,4.2c.07-.01,.79-.04,1.46-.25,2.04-.65,4.57-1.25,4.33-3.92-.3-3.23-2.83-1.71-4.58-1.48-1.75,.24-3.09-.56-4.45-1.43-1.23-.79-2.49-2.73-3.92-.52-1.01,1.57-.91,3.44,.38,4.97,1.59,1.89,3.67,2.75,6.78,2.63Zm-35.16-48.55c-.57-1.9,.18-5.24-2.2-5.16-2.55,.09-3,3.46-3.45,5.81-.37,1.92,.56,3.77,2.57,3.87,3.03,.15,2.63-2.57,3.08-4.52Zm100.17,.5c-1.48,.19-3.05,.49-2.89,2.31,.21,2.36,1.76,3.76,4.18,3.84,1.54,.05,2.95-.7,2.94-2.33,0-2.61-2.14-3.28-4.23-3.82Zm-50.2,21.66c-.3-1.49-.97-2.7-2.71-2.47-1.57,.2-2.41,1.42-2.54,2.88-.16,1.79,1.1,2.51,2.65,2.33,1.47-.17,2.52-1.07,2.6-2.74Z"/>
    <path class="cls-3" d="M207.79,185.17c.19,7.76-1.93,15.21-5.76,22.21-2.06,3.76-3.89,7.64-4.66,11.88-.53,2.93,.15,5.79,2.57,7.72,2.21,1.75,4.45,.29,6.5-.69,6.46-3.1,13.13-5.55,20.31-6.16,5.23-.44,6.77,1.4,4.95,6.3-4.3,11.54-12.71,19.5-23.17,25.51-.77,.44-1.61,.77-2.41,1.15-2.25,1.07-5.44,2.37-3.77,5.17,1.42,2.38,3.78-.27,5.43-1.32,9.67-6.13,19.91-11.01,30.81-14.53,5.82-1.88,8.52,.2,6.6,6.07-3.72,11.38-8.78,22.21-17.79,30.56-4.57,4.24-9.56,7.95-15.47,10.29-1.6,.63-3.05,1.84-4.34,3.03-8.47,7.82-20.43,8.5-29.97,1.87-5.51-3.83-9.84-8.66-13.56-14.16-3.39-5.01-7.14-9.79-10.33-14.92-3.74-6.02-2.37-8.42,4.6-8.75,7.59-.36,14.83,1.2,21.89,3.95,6.06,2.37,7.38,1.46,7.09-4.94-.43-9.42-1.31-18.81-1.18-28.26,.05-4.16-1.43-7.91-3.85-11.43-14.86-21.67-12.2-46.54,6.76-64.65,4.41-4.21,6.84-4.08,9.23,1.43,4.52,10.38,10.25,20.47,9.53,32.68Zm-14.37,94.41c-.17-.35-.27-.71-.48-.97-3.4-4.14-7.36-7.61-12.22-9.96-1.03-.5-2.11-.47-2.76,.66-.64,1.11-.1,2.04,.71,2.82,3.59,3.46,7.58,6.35,12.07,8.53,1.15,.56,2.45,.88,2.68-1.07Zm22.44-17.43c.12-1.34-.19-2.27-1.54-2.48-1.76-.26-7.84,5.5-7.79,7.4,.04,1.22,.6,2.01,1.93,2.01,.18,0,.36-.02,.52-.08,3.3-1.33,5.68-3.59,6.88-6.84Zm3.15,12.22c2.84-.66,4.42-2.71,5.08-5.47,.31-1.32-.23-2.83-1.87-2.47-2.98,.65-3.92,3.4-4.92,5.85-.49,1.21,.23,2.02,1.72,2.09Z"/>
    <path class="cls-3" d="M341.14,335.51c0,4.1,.18,8.2-.05,12.29-.29,5.24-3.13,7.41-8.18,6.24-4.85-1.12-9.66-2.44-14.41-3.93-1.77-.55-4.87-.67-3.59-3.91,.88-2.26-.25-6.06,4.45-5.83,4.91,.24,4.12-2.29,2.16-5.32-8.27-12.8-19.97-21.08-34.1-26.19-17.37-6.28-26.16-18.8-25.76-37.33,.13-5.86,.9-11.71,1.34-17.57,.25-3.29,2.01-4.98,4.85-2.98,9.93,6.99,21.92,11.23,29.29,21.68,1.05,1.49,2.22,2.94,4.25,2.8,2.53-.17,2.94-2.36,3.4-4.22,4.94-19.84,16.43-27.38,41.92-31.81,4.7-.82,6.6,1.23,7.01,5.47,2.21,23.02-4.43,40.07-24.22,50.19-3.22,1.65-8.46,2.26-8.44,6.34,.02,3.76,5.19,4.01,8.26,5.56,7.52,3.81,11.27,10.1,11.79,18.36,.21,3.37,.04,6.77,.03,10.15Zm-6.51-79.83c-.4-2.96-1.51-3.88-4.23-2.12-7.78,5.04-12.78,12.06-15.32,20.9-.39,1.35-.97,2.86,.66,3.78,1.58,.89,2.62-.35,3.69-1.26,6.19-5.24,9.51-12.68,14.45-18.89,.51-.64,.53-1.66,.75-2.42Zm-6.18,29.4c.45-.11,1.06-.11,1.46-.39,6.37-4.39,10.54-10.41,12.93-17.71,.31-.95-.02-1.79-.82-2.31-1.28-.84-2.6-.32-3.34,.66-4.02,5.4-7.96,10.85-11.8,16.37-1.09,1.58-.88,3.07,1.57,3.38Zm-51.4-.23c-1.95,.39-2.08,1.54-1.48,2.83,1.98,4.25,4.85,7.81,8.67,10.55,1.03,.74,2.27,1.22,3.4,.18,1.24-1.14,.55-2.31-.28-3.27-2.55-2.93-5.14-5.83-7.81-8.66-.7-.74-1.74-1.16-2.49-1.64Zm15.73-1.52c-.19-3.74-3.59-9.44-6.79-11.61-1.04-.71-2.18-2.39-3.61-.94-1.08,1.1-.87,2.9-.04,3.98,2.57,3.34,5.4,6.49,8.15,9.69,.49,.57,1.26,.89,1.8,.27,.41-.47,.45-1.26,.49-1.39Zm31.28,32.89c-1.1-.14-1.96,.51-1.58,1.43,1.51,3.72,2.31,7.95,6.03,10.36,1.8,1.17,3.07,.52,3.37-1.62,.34-2.44-5.48-9.95-7.81-10.17Z"/>
    <path class="cls-2" d="M276.57,149.27s.58,.03,1.11,0c2.02-.15,4.62,1.03,5.71-1.55,.97-2.31,.26-4.52-1.94-6.09-1.87-1.34-1.82-2.99-.23-4.48,3.06-2.87,2.55-5.35-.31-8.11-2.63-2.54-2.3-5.21,1.59-5.52,4.81-.38,6.22-3.14,7.15-7.14,.51-2.19,.04-5.42,3.63-5.7,3.54-.28,6.66,1.05,7.83,4.37,1.85,5.25,5.3,7.22,10.59,6.91,1.69-.1,3.75-.37,4.54,1.85,.77,2.17-.92,3.31-2.23,4.42-1.89,1.58-2.64,3.12-1.22,5.5,1.22,2.05,.6,4.12-.85,5.95-1.95,2.45-.45,3.25,1.76,3.1,3.01-.2,6.02-.64,8.97-1.26,4.08-.85,8.16-.96,12.2-.18,2.93,.56,4.67,2.66,4.62,5.72-.04,3.08-2.16,4.24-4.94,4.56-3.36,.38-6.74,.67-10.08,1.24-3.16,.54-3.85,2.14-1.69,4.79,2.07,2.53,4.63,4.4,7.39,6.06,2.44,1.47,4.98,2.81,7.28,4.47,2.19,1.58,5.92,3.01,4.77,6.16-1.27,3.47-5.22,3.2-8.45,2.73-4.09-.59-7.9-2.13-11.58-3.98-2.71-1.36-4.22-1.76-4.84,2.32-2.21,14.54-2.38,14.51-16.97,14.48-2.85,0-5.71-.17-8.55,.03-5.05,.34-8.54-1.35-10.32-6.41-1.46-4.15-4.14-4.95-7.84-2.12-2.25,1.72-4.77,3.1-7.25,4.49-2.29,1.29-4.66,1.01-6.33-.94-1.78-2.08,.28-3.72,1.45-5.06,3.27-3.75,6.87-7.22,10.17-10.94,4.41-4.97,3.59-8.22-2.55-10.92-1.14-.5-2.32-.94-3.38-1.58-1.37-.83-2.82-1.75-2.44-3.73,.33-1.71,1.9-2.01,3.21-2.45,3.08-1.04,6.28-1.19,10-.96Zm28.32,24.2c-.26-1.34-.57-3.8-1.23-6.17-.44-1.59-1.9-2.01-3.45-1.67-1.41,.31-2.72,.92-3.34,2.34-.34,.78,.2,1.39,.96,1.53,5.81,1.05,3.86,4.21,1.94,7.27-.83,1.31-1.61,2.52,.24,3.48,1.61,.84,3.14,.5,4.18-1.04,.95-1.4,.78-3.03,.68-5.74Z"/>
    <path class="cls-3" d="M265.95,431.02c-14.84-.28-25.77-7.15-33.31-19.72-3.45-5.75-2.01-13.05,3.84-16.9,7.1-4.68,15.06-7.2,23.62-7.47,4.71-.15,8.6,2,12.1,4.91,8.98,7.45,13.12,17.98,17.77,28.16,.86,1.88,.09,3.47-1.81,4.41-7.04,3.5-14.1,6.92-22.22,6.6Zm-4.52-12.05c1.2-.21,3.76,1.37,4.5-1.3,.56-2.01-1.66-3.08-3.11-3.89-4.65-2.6-9.44-4.96-14.19-7.38-1.64-.84-3.42-2.84-5.14-.61-1.54,2-.35,4.06,.98,5.84,4.09,5.47,9.8,7.39,16.95,7.33Zm6.21-14.99c-.14-.4-.24-.92-.49-1.37-1.29-2.4-13.62-7.04-15.97-5.99-1.75,.79-1.49,1.91-.07,2.64,4.4,2.26,8.83,4.44,13.33,6.5,1.47,.67,2.78,.17,3.2-1.79Z"/>
    <path class="cls-3" d="M188.04,400.5c-6.24,.36-12.1-2.23-17.4-6.51-8.11-6.55-14.62-14.5-20.46-23.04-2.7-3.95-1.77-6.59,2.86-8.07,8.72-2.78,17.71-3.82,26.83-3.43,2.88,.12,5.5,1.5,7.87,3.07,4.45,2.95,9.01,5.68,13.86,7.93,5.63,2.62,8.11,7.85,10.23,13.09,1.48,3.65-.38,6.95-3.11,9.57-5.58,5.33-12.4,7.4-20.68,7.39Zm6.15-12.02c-7.39-2.97-14.03-5.66-20.69-8.3-1.08-.43-2.29-1.57-3.37-.29-1.03,1.23,.22,2.29,.72,3.36,3.15,6.67,12.38,8.98,23.34,5.23Zm-18.53-19.58c4.22,2.59,8.4,5.56,14.64,6.27-3.96-5.52-8.75-6.93-14.64-6.27Z"/>
    <path class="cls-3" d="M289.13,372.95c15.32-.58,25.01,7.45,31.26,20.57,1.98,4.16,3.61,8.49,5.4,12.75,1.41,3.34,.24,5.37-3.12,6.54-12.2,4.23-30.45,1.92-37.38-11.91-2.38-4.75-6.84-8.17-9.1-13.09-4.16-9.06-1.32-13.91,8.68-14.65,1.42-.1,2.84-.14,4.26-.21Zm15.39,30.13c-1.21-3.45-4-5.44-7.35-6.78-1.45-.58-3.31-1.37-4.45,.06-1.43,1.81,.69,2.79,1.69,3.79,1.85,1.86,3.56,3.95,6.09,4.98,1.94,.8,3.46,.56,4.02-2.06Zm-5.68-18.43c-1.78,.19-2.46,1.38-2.2,2.63,.55,2.63,2.66,3.62,5.12,3.9,1.36,.16,2.88-.25,2.39-1.88-.77-2.56-3.38-3.38-5.3-4.65Z"/>
    <path class="cls-3" d="M145.07,308.65c.07-5.94,1.06-12.23,3.54-18.25,1.46-3.53,3.95-4.81,7.67-3.87,9.06,2.29,15.09,9.15,22.03,14.6,1.51,1.18,1.58,3.21,.22,4.82-1.45,1.73-3.24,2.08-5.22,.82-.45-.29-.9-.58-1.33-.88-1.79-1.26-3.27-4.43-5.67-2.86-2.8,1.84-.2,4.54,.56,6.66,1.62,4.51,3.71,8.86,5.45,13.33,.62,1.6,1.41,3.56-.74,4.73-1.79,.97-3.12-.28-4.13-1.52-2.36-2.88-4.53-5.92-6.88-8.81-1.09-1.35-2.52-3.39-4.29-2.08-1.67,1.23,.28,2.86,1.11,3.99,5.03,6.82,9.3,14.41,17.81,17.77,1.3,.51,2.69,1.39,2.32,3.15-.4,1.9-1.89,2.95-3.57,3.68-5.23,2.26-13.72-.35-18.19-5.76-6.94-8.4-10.43-18.11-10.69-29.53Z"/>
  </g>
</svg>