  0
SECTION
  2
HEADER
  9
$ACADVER
  1
AC1032
  9
$ACADMAINTVER
 90
      228
  9
$DWGCODEPAGE
  3
ANSI_1252
  9
$REQUIREDVERSIONS
160
                 0
  9
$INSBASE
 10
0.0
 20
0.0
 30
0.0
  9
$EXTMIN
 10
1.000000000000000E+20
 20
1.000000000000000E+20
 30
1.000000000000000E+20
  9
$EXTMAX
 10
-1.000000000000000E+20
 20
-1.000000000000000E+20
 30
-1.000000000000000E+20
  9
$LIMMIN
 10
0.0
 20
0.0
  9
$LIMMAX
 10
12.0
 20
9.0
  9
$ORTHOMODE
 70
     0
  9
$REGENMODE
 70
     1
  9
$FILLMODE
 70
     1
  9
$QTEXTMODE
 70
     0
  9
$MIRRTEXT
 70
     0
  9
$LTSCALE
 40
1.0
  9
$ATTMODE
 70
     1
  9
$TEXTSIZE
 40
0.2
  9
$TRACEWID
 40
0.05
  9
$TEXTSTYLE
  7
Standard
  9
$CLAYER
  8
0
  9
$CELTYPE
  6
ByLayer
  9
$CECOLOR
 62
   256
  9
$CELTSCALE
 40
1.0
  9
$DISPSILH
 70
     0
  9
$DIMSCALE
 40
1.0
  9
$DIMASZ
 40
0.18
  9
$DIMEXO
 40
0.0625
  9
$DIMDLI
 40
0.38
  9
$DIMRND
 40
0.0
  9
$DIMDLE
 40
0.0
  9
$DIMEXE
 40
0.18
  9
$DIMTP
 40
0.0
  9
$DIMTM
 40
0.0
  9
$DIMTXT
 40
0.18
  9
$DIMCEN
 40
0.09
  9
$DIMTSZ
 40
0.0
  9
$DIMTOL
 70
     0
  9
$DIMLIM
 70
     0
  9
$DIMTIH
 70
     1
  9
$DIMTOH
 70
     1
  9
$DIMSE1
 70
     0
  9
$DIMSE2
 70
     0
  9
$DIMTAD
 70
     0
  9
$DIMZIN
 70
     0
  9
$DIMBLK
  1

  9
$DIMASO
 70
     1
  9
$DIMSHO
 70
     1
  9
$DIMPOST
  1

  9
$DIMAPOST
  1

  9
$DIMALT
 70
     0
  9
$DIMALTD
 70
     2
  9
$DIMALTF
 40
25.4
  9
$DIMLFAC
 40
1.0
  9
$DIMTOFL
 70
     0
  9
$DIMTVP
 40
0.0
  9
$DIMTIX
 70
     0
  9
$DIMSOXD
 70
     0
  9
$DIMSAH
 70
     0
  9
$DIMBLK1
  1

  9
$DIMBLK2
  1

  9
$DIMSTYLE
  2
Standard
  9
$DIMCLRD
 70
     0
  9
$DIMCLRE
 70
     0
  9
$DIMCLRT
 70
     0
  9
$DIMTFAC
 40
1.0
  9
$DIMGAP
 40
0.09
  9
$DIMJUST
 70
     0
  9
$DIMSD1
 70
     0
  9
$DIMSD2
 70
     0
  9
$DIMTOLJ
 70
     1
  9
$DIMTZIN
 70
     0
  9
$DIMALTZ
 70
     0
  9
$DIMALTTZ
 70
     0
  9
$DIMUPT
 70
     0
  9
$DIMDEC
 70
     4
  9
$DIMTDEC
 70
     4
  9
$DIMALTU
 70
     2
  9
$DIMALTTD
 70
     2
  9
$DIMTXSTY
  7
Standard
  9
$DIMAUNIT
 70
     0
  9
$DIMADEC
 70
     0
  9
$DIMALTRND
 40
0.0
  9
$DIMAZIN
 70
     0
  9
$DIMDSEP
 70
    46
  9
$DIMATFIT
 70
     3
  9
$DIMFRAC
 70
     0
  9
$DIMLDRBLK
  1

  9
$DIMLUNIT
 70
     2
  9
$DIMLWD
 70
    -2
  9
$DIMLWE
 70
    -2
  9
$DIMTMOVE
 70
     0
  9
$DIMFXL
 40
1.0
  9
$DIMFXLON
 70
     0
  9
$DIMJOGANG
 40
0.7853981633974483
  9
$DIMTFILL
 70
     0
  9
$DIMTFILLCLR
 70
     0
  9
$DIMARCSYM
 70
     0
  9
$DIMLTYPE
  6

  9
$DIMLTEX1
  6

  9
$DIMLTEX2
  6

  9
$DIMTXTDIRECTION
 70
     0
  9
$LUNITS
 70
     2
  9
$LUPREC
 70
     4
  9
$SKETCHINC
 40
0.1
  9
$FILLETRAD
 40
0.0
  9
$AUNITS
 70
     0
  9
$AUPREC
 70
     0
  9
$MENU
  1
.
  9
$ELEVATION
 40
0.0
  9
$PELEVATION
 40
0.0
  9
$THICKNESS
 40
0.0
  9
$LIMCHECK
 70
     0
  9
$CHAMFERA
 40
0.0
  9
$CHAMFERB
 40
0.0
  9
$CHAMFERC
 40
0.0
  9
$CHAMFERD
 40
0.0
  9
$SKPOLY
 70
     0
  9
$TDCREATE
 40
2460929.580567130
  9
$TDUCREATE
 40
2460929.372233797
  9
$TDUPDATE
 40
2460929.580567130
  9
$TDUUPDATE
 40
2460929.372233797
  9
$TDINDWG
 40
0.0000000000
  9
$TDUSRTIMER
 40
0.0000000000
  9
$USRTIMER
 70
     1
  9
$ANGBASE
 50
0.0
  9
$ANGDIR
 70
     0
  9
$PDMODE
 70
     0
  9
$PDSIZE
 40
0.0
  9
$PLINEWID
 40
0.0
  9
$SPLFRAME
 70
     0
  9
$SPLINETYPE
 70
     6
  9
$SPLINESEGS
 70
     8
  9
$HANDSEED
  5
94
  9
$SURFTAB1
 70
     6
  9
$SURFTAB2
 70
     6
  9
$SURFTYPE
 70
     6
  9
$SURFU
 70
     6
  9
$SURFV
 70
     6
  9
$UCSBASE
  2

  9
$UCSNAME
  2

  9
$UCSORG
 10
0.0
 20
0.0
 30
0.0
  9
$UCSXDIR
 10
1.0
 20
0.0
 30
0.0
  9
$UCSYDIR
 10
0.0
 20
1.0
 30
0.0
  9
$UCSORTHOREF
  2

  9
$UCSORTHOVIEW
 70
     0
  9
$UCSORGTOP
 10
0.0
 20
0.0
 30
0.0
  9
$UCSORGBOTTOM
 10
0.0
 20
0.0
 30
0.0
  9
$UCSORGLEFT
 10
0.0
 20
0.0
 30
0.0
  9
$UCSORGRIGHT
 10
0.0
 20
0.0
 30
0.0
  9
$UCSORGFRONT
 10
0.0
 20
0.0
 30
0.0
  9
$UCSORGBACK
 10
0.0
 20
0.0
 30
0.0
  9
$PUCSBASE
  2

  9
$PUCSNAME
  2

  9
$PUCSORG
 10
0.0
 20
0.0
 30
0.0
  9
$PUCSXDIR
 10
1.0
 20
0.0
 30
0.0
  9
$PUCSYDIR
 10
0.0
 20
1.0
 30
0.0
  9
$PUCSORTHOREF
  2

  9
$PUCSORTHOVIEW
 70
     0
  9
$PUCSORGTOP
 10
0.0
 20
0.0
 30
0.0
  9
$PUCSORGBOTTOM
 10
0.0
 20
0.0
 30
0.0
  9
$PUCSORGLEFT
 10
0.0
 20
0.0
 30
0.0
  9
$PUCSORGRIGHT
 10
0.0
 20
0.0
 30
0.0
  9
$PUCSORGFRONT
 10
0.0
 20
0.0
 30
0.0
  9
$PUCSORGBACK
 10
0.0
 20
0.0
 30
0.0
  9
$USERI1
 70
     0
  9
$USERI2
 70
     0
  9
$USERI3
 70
     0
  9
$USERI4
 70
     0
  9
$USERI5
 70
     0
  9
$USERR1
 40
0.0
  9
$USERR2
 40
0.0
  9
$USERR3
 40
0.0
  9
$USERR4
 40
0.0
  9
$USERR5
 40
0.0
  9
$WORLDVIEW
 70
     1
  9
$SHADEDGE
 70
     3
  9
$SHADEDIF
 70
    70
  9
$TILEMODE
 70
     1
  9
$MAXACTVP
 70
    64
  9
$PINSBASE
 10
0.0
 20
0.0
 30
0.0
  9
$PLIMCHECK
 70
     0
  9
$PEXTMIN
 10
1.000000000000000E+20
 20
1.000000000000000E+20
 30
1.000000000000000E+20
  9
$PEXTMAX
 10
-1.000000000000000E+20
 20
-1.000000000000000E+20
 30
-1.000000000000000E+20
  9
$PLIMMIN
 10
0.0
 20
0.0
  9
$PLIMMAX
 10
12.0
 20
9.0
  9
$UNITMODE
 70
     0
  9
$VISRETAIN
 70
     1
  9
$PLINEGEN
 70
     0
  9
$PSLTSCALE
 70
     1
  9
$TREEDEPTH
 70
  3020
  9
$CMLSTYLE
  2
Standard
  9
$CMLJUST
 70
     0
  9
$CMLSCALE
 40
1.0
  9
$PROXYGRAPHICS
 70
     1
  9
$MEASUREMENT
 70
     0
  9
$CELWEIGHT
370
    -1
  9
$ENDCAPS
280
     0
  9
$JOINSTYLE
280
     0
  9
$LWDISPLAY
290
     1
  9
$INSUNITS
 70
     0
  9
$HYPERLINKBASE
  1

  9
$STYLESHEET
  1

  9
$XEDIT
290
     1
  9
$CEPSNTYPE
380
     0
  9
$PSTYLEMODE
290
     1
  9
$FINGERPRINTGUID
  2
{613FD671-ECB1-364A-80E9-F64AF1EE515B}
  9
$VERSIONGUID
  2
{1A8F7FE0-68B4-3945-80AF-D9A74599552F}
  9
$EXTNAMES
290
     1
  9
$PSVPSCALE
 40
0.0
  9
$OLESTARTUP
290
     0
  9
$SORTENTS
280
   127
  9
$INDEXCTL
280
     0
  9
$HIDETEXT
280
     1
  9
$XCLIPFRAME
280
     2
  9
$HALOGAP
280
     0
  9
$OBSCOLOR
 70
   257
  9
$OBSLTYPE
280
     0
  9
$INTERSECTIONDISPLAY
280
     0
  9
$INTERSECTIONCOLOR
 70
   257
  9
$DIMASSOC
280
     2
  9
$PROJECTNAME
  1

  9
$CAMERADISPLAY
290
     0
  9
$LENSLENGTH
 40
50.0
  9
$CAMERAHEIGHT
 40
0.0
  9
$STEPSPERSEC
 40
2.0
  9
$STEPSIZE
 40
6.0
  9
$3DDWFPREC
 40
2.0
  9
$PSOLWIDTH
 40
0.25
  9
$PSOLHEIGHT
 40
4.0
  9
$LOFTANG1
 40
1.570796326794896
  9
$LOFTANG2
 40
1.570796326794896
  9
$LOFTMAG1
 40
0.0
  9
$LOFTMAG2
 40
0.0
  9
$LOFTPARAM
 70
     7
  9
$LOFTNORMALS
280
     1
  9
$LATITUDE
 40
37.795
  9
$LONGITUDE
 40
-122.394
  9
$NORTHDIRECTION
 40
0.0
  9
$TIMEZONE
 70
 -8000
  9
$LIGHTGLYPHDISPLAY
280
     1
  9
$TILEMODELIGHTSYNCH
280
     1
  9
$CMATERIAL
347
11
  9
$SOLIDHIST
280
     0
  9
$SHOWHIST
280
     1
  9
$DWFFRAME
280
     2
  9
$DGNFRAME
280
     0
  9
$REALWORLDSCALE
290
     1
  9
$INTERFERECOLOR
 62
     1
  9
$INTERFEREOBJVS
345
33
  9
$INTERFEREVPVS
346
30
  9
$CSHADOW
280
     0
  9
$SHADOWPLANELOCATION
 40
0.0
  0
ENDSEC
  0
SECTION
  2
CLASSES
  0
CLASS
  1
ACDBDICTIONARYWDFLT
  2
AcDbDictionaryWithDefault
  3
ObjectDBX Classes
 90
        0
 91
        1
280
     0
281
     0
  0
CLASS
  1
MATERIAL
  2
AcDbMaterial
  3
ObjectDBX Classes
 90
     1153
 91
        3
280
     0
281
     0
  0
CLASS
  1
VISUALSTYLE
  2
AcDbVisualStyle
  3
ObjectDBX Classes
 90
     4095
 91
       24
280
     0
281
     0
  0
CLASS
  1
SCALE
  2
AcDbScale
  3
ObjectDBX Classes
 90
     1153
 91
       17
280
     0
281
     0
  0
CLASS
  1
TABLESTYLE
  2
AcDbTableStyle
  3
ObjectDBX Classes
 90
     4095
 91
        1
280
     0
281
     0
  0
CLASS
  1
MLEADERSTYLE
  2
AcDbMLeaderStyle
  3
ACDB_MLEADERSTYLE_CLASS
 90
     4095
 91
        1
280
     0
281
     0
  0
CLASS
  1
ACDBSECTIONVIEWSTYLE
  2
AcDbSectionViewStyle
  3
ObjectDBX Classes
 90
     1025
 91
        1
280
     0
281
     0
  0
CLASS
  1
ACDBDETAILVIEWSTYLE
  2
AcDbDetailViewStyle
  3
ObjectDBX Classes
 90
     1025
 91
        1
280
     0
281
     0
  0
CLASS
  1
DICTIONARYVAR
  2
AcDbDictionaryVar
  3
ObjectDBX Classes
 90
        0
 91
        5
280
     0
281
     0
  0
CLASS
  1
CELLSTYLEMAP
  2
AcDbCellStyleMap
  3
ObjectDBX Classes
 90
     1152
 91
        1
280
     0
281
     0
  0
ENDSEC
  0
SECTION
  2
TABLES
  0
TABLE
  2
VPORT
  5
8
330
0
100
AcDbSymbolTable
 70
     1
  0
VPORT
  5
57
330
8
100
AcDbSymbolTableRecord
100
AcDbViewportTableRecord
  2
*Active
 70
     0
 10
0.0
 20
0.0
 11
1.0
 21
1.0
 12
0.0
 22
0.0
 13
0.0
 23
0.0
 14
1.0
 24
1.0
 15
0.0
 25
0.0
 16
0.0
 26
0.0
 36
1.0
 17
2070.329143804109
 27
-1549.708560332395
 37
0.0
 40
3099.36839297975
 41
1.304893925962813
 42
50.0
 43
0.0
 44
0.0
 50
0.0
 51
0.0
 71
     0
 72
   100
 73
     1
 74
     1
 75
     0
 76
     0
 77
     0
 78
     0
281
     0
 65
     1
110
0.0
120
0.0
130
0.0
111
1.0
121
0.0
131
0.0
112
0.0
122
1.0
132
0.0
 79
     0
146
0.0
 60
     3
 61
     5
292
     1
282
     1
141
0.0
142
0.0
 63
   250
421
  3355443
  0
ENDTAB
  0
TABLE
  2
LTYPE
  5
5
330
0
100
AcDbSymbolTable
 70
     1
  0
LTYPE
  5
5B
330
5
100
AcDbSymbolTableRecord
100
AcDbLinetypeTableRecord
  2
ByBlock
 70
     0
  3

 72
    65
 73
     0
 40
0.0
  0
LTYPE
  5
5C
330
5
100
AcDbSymbolTableRecord
100
AcDbLinetypeTableRecord
  2
ByLayer
 70
     0
  3

 72
    65
 73
     0
 40
0.0
  0
LTYPE
  5
5D
330
5
100
AcDbSymbolTableRecord
100
AcDbLinetypeTableRecord
  2
Continuous
 70
     0
  3
Solid line
 72
    65
 73
     0
 40
0.0
  0
ENDTAB
  0
TABLE
  2
LAYER
  5
2
330
0
100
AcDbSymbolTable
 70
     2
  0
LAYER
  5
54
330
2
100
AcDbSymbolTableRecord
100
AcDbLayerTableRecord
  2
0
 70
     0
 62
     7
  6
Continuous
370
    -3
390
F
347
21
348
0
  0
LAYER
  5
78
330
2
100
AcDbSymbolTableRecord
100
AcDbLayerTableRecord
  2
Layer 1
 70
     0
 62
     7
  6
Continuous
370
     0
390
F
347
21
348
0
  0
ENDTAB
  0
TABLE
  2
STYLE
  5
3
330
0
100
AcDbSymbolTable
 70
     2
  0
STYLE
  5
55
330
3
100
AcDbSymbolTableRecord
100
AcDbTextStyleTableRecord
  2
Standard
 70
     0
 40
0.0
 41
1.0
 50
0.0
 71
     0
 42
0.2
  3
txt
  4

  0
STYLE
  5
5A
330
3
100
AcDbSymbolTableRecord
100
AcDbTextStyleTableRecord
  2
Annotative
 70
     0
 40
0.0
 41
1.0
 50
0.0
 71
     0
 42
0.2
  3
txt
  4

1001
AcadAnnotative
1000
AnnotativeData
1002
{
1070
     1
1070
     1
1002
}
  0
ENDTAB
  0
TABLE
  2
VIEW
  5
6
330
0
100
AcDbSymbolTable
 70
     0
  0
ENDTAB
  0
TABLE
  2
UCS
  5
7
330
0
100
AcDbSymbolTable
 70
     0
  0
ENDTAB
  0
TABLE
  2
APPID
  5
9
330
0
100
AcDbSymbolTable
 70
     2
  0
APPID
  5
56
330
9
100
AcDbSymbolTableRecord
100
AcDbRegAppTableRecord
  2
ACAD
 70
     0
  0
APPID
  5
5E
330
9
100
AcDbSymbolTableRecord
100
AcDbRegAppTableRecord
  2
AcadAnnotative
 70
     0
  0
ENDTAB
  0
TABLE
  2
DIMSTYLE
  5
A
330
0
100
AcDbSymbolTable
 70
     2
100
AcDbDimStyleTable
 71
     0
  0
DIMSTYLE
105
58
330
A
100
AcDbSymbolTableRecord
100
AcDbDimStyleTableRecord
  2
Standard
 70
     0
340
55
  0
DIMSTYLE
105
59
330
A
100
AcDbSymbolTableRecord
100
AcDbDimStyleTableRecord
  2
Annotative
 70
     0
340
55
1001
AcadAnnotative
1000
AnnotativeData
1002
{
1070
     1
1070
     1
1002
}
  0
ENDTAB
  0
TABLE
  2
BLOCK_RECORD
  5
1
330
0
100
AcDbSymbolTable
 70
     1
  0
BLOCK_RECORD
  5
70
330
1
100
AcDbSymbolTableRecord
100
AcDbBlockTableRecord
  2
*Model_Space
340
73
 70
     0
280
     1
281
     0
  0
BLOCK_RECORD
  5
6C
330
1
100
AcDbSymbolTableRecord
100
AcDbBlockTableRecord
  2
*Paper_Space
340
6F
 70
     0
280
     1
281
     0
  0
BLOCK_RECORD
  5
74
330
1
100
AcDbSymbolTableRecord
100
AcDbBlockTableRecord
  2
*Paper_Space0
340
77
 70
     0
280
     1
281
     0
  0
ENDTAB
  0
ENDSEC
  0
SECTION
  2
BLOCKS
  0
BLOCK
  5
71
330
70
100
AcDbEntity
  8
0
100
AcDbBlockBegin
  2
*Model_Space
 70
     0
 10
0.0
 20
0.0
 30
0.0
  3
*Model_Space
  1

  0
ENDBLK
  5
72
330
70
100
AcDbEntity
  8
0
100
AcDbBlockEnd
  0
BLOCK
  5
6D
330
6C
100
AcDbEntity
 67
     1
  8
0
100
AcDbBlockBegin
  2
*Paper_Space
 70
     0
 10
0.0
 20
0.0
 30
0.0
  3
*Paper_Space
  1

  0
ENDBLK
  5
6E
330
6C
100
AcDbEntity
 67
     1
  8
0
100
AcDbBlockEnd
  0
BLOCK
  5
75
330
74
100
AcDbEntity
 67
     1
  8
0
100
AcDbBlockBegin
  2
*Paper_Space0
 70
     0
 10
0.0
 20
0.0
 30
0.0
  3
*Paper_Space0
  1

  0
ENDBLK
  5
76
330
74
100
AcDbEntity
 67
     1
  8
0
100
AcDbBlockEnd
  0
ENDSEC
  0
SECTION
  2
ENTITIES
  0
SPLINE
  5
79
330
70
100
AcDbEntity
  8
Layer 1
100
AcDbSpline
210
0.0
220
0.0
230
1.0
 70
     9
 71
     3
 72
    53
 73
    49
 74
     0
 42
0.0000000001
 43
0.0000000001
 40
0.0
 40
0.0
 40
0.0
 40
0.0
 40
1.0
 40
1.0
 40
1.0
 40
2.0
 40
2.0
 40
2.0
 40
3.0
 40
3.0
 40
3.0
 40
4.0
 40
4.0
 40
4.0
 40
5.0
 40
5.0
 40
5.0
 40
6.0
 40
6.0
 40
6.0
 40
7.0
 40
7.0
 40
7.0
 40
8.0
 40
8.0
 40
8.0
 40
9.0
 40
9.0
 40
9.0
 40
10.0
 40
10.0
 40
10.0
 40
11.0
 40
11.0
 40
11.0
 40
12.0
 40
12.0
 40
12.0
 40
13.0
 40
13.0
 40
13.0
 40
14.0
 40
14.0
 40
14.0
 40
15.0
 40
15.0
 40
15.0
 40
16.0
 40
16.0
 40
16.0
 40
16.0
 10
921.1095617272375
 20
-2325.938800692886
 30
0.0
 10
921.1095617272375
 20
-2325.938800692886
 30
0.0
 10
921.0612353516017
 20
-2325.938800692886
 30
0.0
 10
921.0612353516017
 20
-2325.938800692886
 30
0.0
 10
921.0612353516017
 20
-2384.886984767367
 30
0.0
 10
921.0543195351938
 20
-2443.835168841848
 30
0.0
 10
921.0681511680132
 20
-2502.790226563124
 30
0.0
 10
921.0681511680132
 20
-2507.764764871659
 30
0.0
 10
920.7779398965403
 20
-2512.67714517174
 30
0.0
 10
919.0230936525559
 20
-2517.409840754044
 30
0.0
 10
914.2557346489857
 20
-2530.267608545349
 30
0.0
 10
901.9231472085857
 20
-2538.648312943784
 30
0.0
 10
887.6005757663234
 20
-2538.648312943784
 30
0.0
 10
810.9168226824921
 20
-2538.641397127376
 30
0.0
 10
734.2330695986647
 20
-2538.62760766417
 30
0.0
 10
657.5562323312452
 20
-2538.613776031354
 30
0.0
 10
655.0205735469289
 20
-2538.613776031354
 30
0.0
 10
652.4849991018355
 20
-2538.675934039806
 30
0.0
 10
649.9562561339234
 20
-2538.586154935333
 30
0.0
 10
631.9097705734902
 20
-2537.943574383939
 30
0.0
 10
618.3334325895239
 20
-2524.415647114827
 30
0.0
 10
617.6149467360856
 20
-2506.389866834008
 30
0.0
 10
617.5803676540462
 20
-2505.470948813567
 30
0.0
 10
617.594199286862
 20
-2504.552072962739
 30
0.0
 10
617.594199286862
 20
-2503.62623912589
 30
0.0
 10
617.594199286862
 20
-2385.149532773208
 30
0.0
 10
617.6149467360856
 20
-2266.67278425091
 30
0.0
 10
617.5596202048191
 20
-2148.196077898225
 30
0.0
 10
617.5596202048191
 20
-2138.537212552634
 30
0.0
 10
620.1574369975869
 20
-2130.059771063712
 30
0.0
 10
627.1080011663298
 20
-2123.123038527785
 30
0.0
 10
634.0170704366219
 20
-2116.241632523128
 30
0.0
 10
642.3562799366054
 20
-2113.187877882763
 30
0.0
 10
652.0565558414209
 20
-2113.194793699171
 30
0.0
 10
708.5866078409135
 20
-2113.249951551988
 30
0.0
 10
765.1235756568103
 20
-2113.22237262558
 30
0.0
 10
821.653458977854
 20
-2113.22237262558
 30
0.0
 10
843.7624806427892
 20
-2113.22237262558
 30
0.0
 10
865.8715023077212
 20
-2113.132551351497
 30
0.0
 10
887.9736924954713
 20
-2113.256867368396
 30
0.0
 10
904.396479306005
 20
-2113.346772981702
 30
0.0
 10
917.3924790862519
 20
-2124.08349361629
 30
0.0
 10
920.4808128086561
 20
-2139.794710389793
 30
0.0
 10
921.3099517246273
 20
-2144.002225621193
 30
0.0
 10
921.0958144336446
 20
-2148.2789833559
 30
0.0
 10
921.1026459108298
 20
-2152.534993641384
 30
0.0
 10
921.1095617272375
 20
-2210.336206432403
 30
0.0
 10
921.1095617272375
 20
-2268.137587901867
 30
0.0
 10
921.1095617272375
 20
-2325.938800692886
 30
0.0
  0
SPLINE
  5
7A
330
70
100
AcDbEntity
  8
Layer 1
100
AcDbSpline
210
0.0
220
0.0
230
1.0
 70
     9
 71
     3
 72
    53
 73
    49
 74
     0
 42
0.0000000001
 43
0.0000000001
 40
0.0
 40
0.0
 40
0.0
 40
0.0
 40
1.0
 40
1.0
 40
1.0
 40
2.0
 40
2.0
 40
2.0
 40
3.0
 40
3.0
 40
3.0
 40
4.0
 40
4.0
 40
4.0
 40
5.0
 40
5.0
 40
5.0
 40
6.0
 40
6.0
 40
6.0
 40
7.0
 40
7.0
 40
7.0
 40
8.0
 40
8.0
 40
8.0
 40
9.0
 40
9.0
 40
9.0
 40
10.0
 40
10.0
 40
10.0
 40
11.0
 40
11.0
 40
11.0
 40
12.0
 40
12.0
 40
12.0
 40
13.0
 40
13.0
 40
13.0
 40
14.0
 40
14.0
 40
14.0
 40
15.0
 40
15.0
 40
15.0
 40
16.0
 40
16.0
 40
16.0
 40
16.0
 10
923.5208201554314
 20
-2377.390619307334
 30
0.0
 10
923.5208201554314
 20
-2300.133443836192
 30
0.0
 10
923.541567604655
 20
-2222.869352548642
 30
0.0
 10
923.5277359718393
 20
-2145.612092738276
 30
0.0
 10
923.5277359718393
 20
-2135.379720666148
 30
0.0
 10
919.6033475170562
 20
-2126.833289691589
 30
0.0
 10
912.1208558594489
 20
-2119.889641339254
 30
0.0
 10
904.9907334817662
 20
-2113.270699001212
 30
0.0
 10
896.4165549023537
 20
-2110.617640016404
 30
0.0
 10
886.8405950144342
 20
-2110.638387465628
 30
0.0
 10
866.9216943310793
 20
-2110.672882208444
 30
0.0
 10
847.0028779869508
 20
-2110.672882208444
 30
0.0
 10
827.0840616428221
 20
-2110.672882208444
 30
0.0
 10
768.4743730458331
 20
-2110.665966392037
 30
0.0
 10
709.8647687880702
 20
-2110.652219098443
 30
0.0
 10
651.2551645303074
 20
-2110.645303282035
 30
0.0
 10
640.0002637004518
 20
-2110.645303282035
 30
0.0
 10
630.6937676347815
 20
-2114.949639943152
 30
0.0
 10
623.321760361262
 20
-2123.440828725667
 30
0.0
 10
617.0967665408142
 20
-2130.605614524615
 30
0.0
 10
615.0308772369108
 20
-2139.055392747905
 30
0.0
 10
615.0447088697265
 20
-2148.375720446391
 30
0.0
 10
615.1276143274017
 20
-2207.448262707385
 30
0.0
 10
615.0861194289509
 20
-2266.513889151971
 30
0.0
 10
615.0861194289509
 20
-2325.579515596553
 30
0.0
 10
615.0861194289509
 20
-2374.861918509036
 30
0.0
 10
615.0722877961352
 20
-2424.144321421518
 30
0.0
 10
615.0930352453587
 20
-2473.426682164387
 30
0.0
 10
615.0930352453587
 20
-2485.04774173737
 30
0.0
 10
615.0308772369108
 20
-2496.675717126764
 30
0.0
 10
615.265761977117
 20
-2508.296776699746
 30
0.0
 10
615.4315728924675
 20
-2516.449470004769
 30
0.0
 10
618.7617915107121
 20
-2523.434528916325
 30
0.0
 10
624.2337203956785
 20
-2529.438511798995
 30
0.0
 10
632.248308220599
 20
-2538.226869839004
 30
0.0
 10
642.3700272301949
 20
-2541.25304555296
 30
0.0
 10
654.0257080548335
 20
-2541.232298103736
 30
0.0
 10
726.4465350367727
 20
-2541.114855733631
 30
0.0
 10
798.8742778351161
 20
-2541.204677007714
 30
0.0
 10
871.2951891562779
 20
-2541.135561013245
 30
0.0
 10
879.2267871842968
 20
-2541.121771550039
 30
0.0
 10
887.2275433763979
 20
-2541.9646577596
 30
0.0
 10
895.0899832403347
 20
-2540.506854264277
 30
0.0
 10
912.0033713197344
 20
-2537.356320363808
 30
0.0
 10
923.5208201554314
 20
-2523.013085811545
 30
0.0
 10
923.5346517882472
 20
-2505.201527160931
 30
0.0
 10
923.5691465310637
 20
-2462.600182425329
 30
0.0
 10
923.5208201554314
 20
-2419.998879859341
 30
0.0
 10
923.5208201554314
 20
-2377.390619307334
 30
0.0
  0
HATCH
  5
7B
330
70
100
AcDbEntity
  8
Layer 1
 62
    18
420
        0
440
 33554687
100
AcDbHatch
 10
0.0
 20
0.0
 30
0.0
210
0.0
220
0.0
230
1.0
  2
SOLID
 70
     1
 71
     1
 91
        2
 92
        1
 93
        1
 72
     4
 94
        3
 73
     0
 74
     0
 95
       53
 96
       49
 40
0.0
 40
0.0
 40
0.0
 40
0.0
 40
1.0
 40
1.0
 40
1.0
 40
2.0
 40
2.0
 40
2.0
 40
3.0
 40
3.0
 40
3.0
 40
4.0
 40
4.0
 40
4.0
 40
5.0
 40
5.0
 40
5.0
 40
6.0
 40
6.0
 40
6.0
 40
7.0
 40
7.0
 40
7.0
 40
8.0
 40
8.0
 40
8.0
 40
9.0
 40
9.0
 40
9.0
 40
10.0
 40
10.0
 40
10.0
 40
11.0
 40
11.0
 40
11.0
 40
12.0
 40
12.0
 40
12.0
 40
13.0
 40
13.0
 40
13.0
 40
14.0
 40
14.0
 40
14.0
 40
15.0
 40
15.0
 40
15.0
 40
16.0
 40
16.0
 40
16.0
 40
16.0
 10
921.1095617272375
 20
-2325.938800692886
 10
921.1095617272375
 20
-2325.938800692886
 10
921.0612353516017
 20
-2325.938800692886
 10
921.0612353516017
 20
-2325.938800692886
 10
921.0612353516017
 20
-2384.886984767367
 10
921.0543195351938
 20
-2443.835168841848
 10
921.0681511680132
 20
-2502.790226563124
 10
921.0681511680132
 20
-2507.764764871659
 10
920.7779398965403
 20
-2512.67714517174
 10
919.0230936525559
 20
-2517.409840754044
 10
914.2557346489857
 20
-2530.267608545349
 10
901.9231472085857
 20
-2538.648312943784
 10
887.6005757663234
 20
-2538.648312943784
 10
810.9168226824921
 20
-2538.641397127376
 10
734.2330695986647
 20
-2538.62760766417
 10
657.5562323312452
 20
-2538.613776031354
 10
655.0205735469289
 20
-2538.613776031354
 10
652.4849991018355
 20
-2538.675934039806
 10
649.9562561339234
 20
-2538.586154935333
 10
631.9097705734902
 20
-2537.943574383939
 10
618.3334325895239
 20
-2524.415647114827
 10
617.6149467360856
 20
-2506.389866834008
 10
617.5803676540462
 20
-2505.470948813567
 10
617.594199286862
 20
-2504.552072962739
 10
617.594199286862
 20
-2503.62623912589
 10
617.594199286862
 20
-2385.149532773208
 10
617.6149467360856
 20
-2266.67278425091
 10
617.5596202048191
 20
-2148.196077898225
 10
617.5596202048191
 20
-2138.537212552634
 10
620.1574369975869
 20
-2130.059771063712
 10
627.1080011663298
 20
-2123.123038527785
 10
634.0170704366219
 20
-2116.241632523128
 10
642.3562799366054
 20
-2113.187877882763
 10
652.0565558414209
 20
-2113.194793699171
 10
708.5866078409135
 20
-2113.249951551988
 10
765.1235756568103
 20
-2113.22237262558
 10
821.653458977854
 20
-2113.22237262558
 10
843.7624806427892
 20
-2113.22237262558
 10
865.8715023077212
 20
-2113.132551351497
 10
887.9736924954713
 20
-2113.256867368396
 10
904.396479306005
 20
-2113.346772981702
 10
917.3924790862519
 20
-2124.08349361629
 10
920.4808128086561
 20
-2139.794710389793
 10
921.3099517246273
 20
-2144.002225621193
 10
921.0958144336446
 20
-2148.2789833559
 10
921.1026459108298
 20
-2152.534993641384
 10
921.1095617272375
 20
-2210.336206432403
 10
921.1095617272375
 20
-2268.137587901867
 10
921.1095617272375
 20
-2325.938800692886
 97
        0
 97
        1
330
79
 92
        1
 93
        1
 72
     4
 94
        3
 73
     0
 74
     0
 95
       53
 96
       49
 40
0.0
 40
0.0
 40
0.0
 40
0.0
 40
1.0
 40
1.0
 40
1.0
 40
2.0
 40
2.0
 40
2.0
 40
3.0
 40
3.0
 40
3.0
 40
4.0
 40
4.0
 40
4.0
 40
5.0
 40
5.0
 40
5.0
 40
6.0
 40
6.0
 40
6.0
 40
7.0
 40
7.0
 40
7.0
 40
8.0
 40
8.0
 40
8.0
 40
9.0
 40
9.0
 40
9.0
 40
10.0
 40
10.0
 40
10.0
 40
11.0
 40
11.0
 40
11.0
 40
12.0
 40
12.0
 40
12.0
 40
13.0
 40
13.0
 40
13.0
 40
14.0
 40
14.0
 40
14.0
 40
15.0
 40
15.0
 40
15.0
 40
16.0
 40
16.0
 40
16.0
 40
16.0
 10
923.5208201554314
 20
-2377.390619307334
 10
923.5208201554314
 20
-2300.133443836192
 10
923.541567604655
 20
-2222.869352548642
 10
923.5277359718393
 20
-2145.612092738276
 10
923.5277359718393
 20
-2135.379720666148
 10
919.6033475170562
 20
-2126.833289691589
 10
912.1208558594489
 20
-2119.889641339254
 10
904.9907334817662
 20
-2113.270699001212
 10
896.4165549023537
 20
-2110.617640016404
 10
886.8405950144342
 20
-2110.638387465628
 10
866.9216943310793
 20
-2110.672882208444
 10
847.0028779869508
 20
-2110.672882208444
 10
827.0840616428221
 20
-2110.672882208444
 10
768.4743730458331
 20
-2110.665966392037
 10
709.8647687880702
 20
-2110.652219098443
 10
651.2551645303074
 20
-2110.645303282035
 10
640.0002637004518
 20
-2110.645303282035
 10
630.6937676347815
 20
-2114.949639943152
 10
623.321760361262
 20
-2123.440828725667
 10
617.0967665408142
 20
-2130.605614524615
 10
615.0308772369108
 20
-2139.055392747905
 10
615.0447088697265
 20
-2148.375720446391
 10
615.1276143274017
 20
-2207.448262707385
 10
615.0861194289509
 20
-2266.513889151971
 10
615.0861194289509
 20
-2325.579515596553
 10
615.0861194289509
 20
-2374.861918509036
 10
615.0722877961352
 20
-2424.144321421518
 10
615.0930352453587
 20
-2473.426682164387
 10
615.0930352453587
 20
-2485.04774173737
 10
615.0308772369108
 20
-2496.675717126764
 10
615.265761977117
 20
-2508.296776699746
 10
615.4315728924675
 20
-2516.449470004769
 10
618.7617915107121
 20
-2523.434528916325
 10
624.2337203956785
 20
-2529.438511798995
 10
632.248308220599
 20
-2538.226869839004
 10
642.3700272301949
 20
-2541.25304555296
 10
654.0257080548335
 20
-2541.232298103736
 10
726.4465350367727
 20
-2541.114855733631
 10
798.8742778351161
 20
-2541.204677007714
 10
871.2951891562779
 20
-2541.135561013245
 10
879.2267871842968
 20
-2541.121771550039
 10
887.2275433763979
 20
-2541.9646577596
 10
895.0899832403347
 20
-2540.506854264277
 10
912.0033713197344
 20
-2537.356320363808
 10
923.5208201554314
 20
-2523.013085811545
 10
923.5346517882472
 20
-2505.201527160931
 10
923.5691465310637
 20
-2462.600182425329
 10
923.5208201554314
 20
-2419.998879859341
 10
923.5208201554314
 20
-2377.390619307334
 97
        0
 97
        1
330
7A
 75
     2
 76
     1
 98
        1
 10
0.0
 20
0.0
450
        0
451
        0
460
0.0
461
0.0
452
        0
462
0.0
453
        0
470

  0
SPLINE
  5
7C
330
70
100
AcDbEntity
  8
Layer 1
100
AcDbSpline
210
0.0
220
0.0
230
1.0
 70
     9
 71
     3
 72
    53
 73
    49
 74
     0
 42
0.0000000001
 43
0.0000000001
 40
0.0
 40
0.0
 40
0.0
 40
0.0
 40
1.0
 40
1.0
 40
1.0
 40
2.0
 40
2.0
 40
2.0
 40
3.0
 40
3.0
 40
3.0
 40
4.0
 40
4.0
 40
4.0
 40
5.0
 40
5.0
 40
5.0
 40
6.0
 40
6.0
 40
6.0
 40
7.0
 40
7.0
 40
7.0
 40
8.0
 40
8.0
 40
8.0
 40
9.0
 40
9.0
 40
9.0
 40
10.0
 40
10.0
 40
10.0
 40
11.0
 40
11.0
 40
11.0
 40
12.0
 40
12.0
 40
12.0
 40
13.0
 40
13.0
 40
13.0
 40
14.0
 40
14.0
 40
14.0
 40
15.0
 40
15.0
 40
15.0
 40
16.0
 40
16.0
 40
16.0
 40
16.0
 10
921.1095617272375
 20
-2325.938800692886
 30
0.0
 10
921.1095617272375
 20
-2325.938800692886
 30
0.0
 10
921.0612353516017
 20
-2325.938800692886
 30
0.0
 10
921.0612353516017
 20
-2325.938800692886
 30
0.0
 10
921.0612353516017
 20
-2384.886984767367
 30
0.0
 10
921.0543195351938
 20
-2443.835168841848
 30
0.0
 10
921.0681511680132
 20
-2502.790226563124
 30
0.0
 10
921.0681511680132
 20
-2507.764764871659
 30
0.0
 10
920.7779398965403
 20
-2512.67714517174
 30
0.0
 10
919.0230936525559
 20
-2517.409840754044
 30
0.0
 10
914.2557346489857
 20
-2530.267608545349
 30
0.0
 10
901.9231472085857
 20
-2538.648312943784
 30
0.0
 10
887.6005757663234
 20
-2538.648312943784
 30
0.0
 10
810.9168226824921
 20
-2538.641397127376
 30
0.0
 10
734.2330695986647
 20
-2538.62760766417
 30
0.0
 10
657.5562323312452
 20
-2538.613776031354
 30
0.0
 10
655.0205735469289
 20
-2538.613776031354
 30
0.0
 10
652.4849991018355
 20
-2538.675934039806
 30
0.0
 10
649.9562561339234
 20
-2538.586154935333
 30
0.0
 10
631.9097705734902
 20
-2537.943574383939
 30
0.0
 10
618.3334325895239
 20
-2524.415647114827
 30
0.0
 10
617.6149467360856
 20
-2506.389866834008
 30
0.0
 10
617.5803676540462
 20
-2505.470948813567
 30
0.0
 10
617.594199286862
 20
-2504.552072962739
 30
0.0
 10
617.594199286862
 20
-2503.62623912589
 30
0.0
 10
617.594199286862
 20
-2385.149532773208
 30
0.0
 10
617.6149467360856
 20
-2266.67278425091
 30
0.0
 10
617.5596202048191
 20
-2148.196077898225
 30
0.0
 10
617.5596202048191
 20
-2138.537212552634
 30
0.0
 10
620.1574369975869
 20
-2130.059771063712
 30
0.0
 10
627.1080011663298
 20
-2123.123038527785
 30
0.0
 10
634.0170704366219
 20
-2116.241632523128
 30
0.0
 10
642.3562799366054
 20
-2113.187877882763
 30
0.0
 10
652.0565558414209
 20
-2113.194793699171
 30
0.0
 10
708.5866078409135
 20
-2113.249951551988
 30
0.0
 10
765.1235756568103
 20
-2113.22237262558
 30
0.0
 10
821.653458977854
 20
-2113.22237262558
 30
0.0
 10
843.7624806427892
 20
-2113.22237262558
 30
0.0
 10
865.8715023077212
 20
-2113.132551351497
 30
0.0
 10
887.9736924954713
 20
-2113.256867368396
 30
0.0
 10
904.396479306005
 20
-2113.346772981702
 30
0.0
 10
917.3924790862519
 20
-2124.08349361629
 30
0.0
 10
920.4808128086561
 20
-2139.794710389793
 30
0.0
 10
921.3099517246273
 20
-2144.002225621193
 30
0.0
 10
921.0958144336446
 20
-2148.2789833559
 30
0.0
 10
921.1026459108298
 20
-2152.534993641384
 30
0.0
 10
921.1095617272375
 20
-2210.336206432403
 30
0.0
 10
921.1095617272375
 20
-2268.137587901867
 30
0.0
 10
921.1095617272375
 20
-2325.938800692886
 30
0.0
  0
SPLINE
  5
7D
330
70
100
AcDbEntity
  8
Layer 1
100
AcDbSpline
210
0.0
220
0.0
230
1.0
 70
     9
 71
     3
 72
    41
 73
    37
 74
     0
 42
0.0000000001
 43
0.0000000001
 40
0.0
 40
0.0
 40
0.0
 40
0.0
 40
1.0
 40
1.0
 40
1.0
 40
2.0
 40
2.0
 40
2.0
 40
3.0
 40
3.0
 40
3.0
 40
4.0
 40
4.0
 40
4.0
 40
5.0
 40
5.0
 40
5.0
 40
6.0
 40
6.0
 40
6.0
 40
7.0
 40
7.0
 40
7.0
 40
8.0
 40
8.0
 40
8.0
 40
9.0
 40
9.0
 40
9.0
 40
10.0
 40
10.0
 40
10.0
 40
11.0
 40
11.0
 40
11.0
 40
12.0
 40
12.0
 40
12.0
 40
12.0
 10
668.4556130799401
 20
-2331.635624508064
 30
0.0
 10
668.4039438638656
 20
-2331.635624508064
 30
0.0
 10
668.3522722140123
 20
-2331.635605037798
 30
0.0
 10
668.3006029979378
 20
-2331.635605037798
 30
0.0
 10
668.3006029979378
 20
-2376.507109036374
 30
0.0
 10
668.3006638425186
 20
-2421.378613034947
 30
0.0
 10
668.3005664911916
 20
-2466.25011703352
 30
0.0
 10
668.30053485201
 20
-2480.023810927858
 30
0.0
 10
674.7743736678103
 20
-2486.490353261797
 30
0.0
 10
688.5655396913071
 20
-2486.487783186804
 30
0.0
 10
710.4688091448597
 20
-2486.483733371657
 30
0.0
 10
732.3720785984123
 20
-2486.471389223567
 30
0.0
 10
754.275348051965
 20
-2486.474387644398
 30
0.0
 10
787.2377767714397
 20
-2486.478943686438
 30
0.0
 10
820.2003515178994
 20
-2486.550788964742
 30
0.0
 10
853.1625563293246
 20
-2486.471389223567
 30
0.0
 10
863.8646601382761
 20
-2486.445649533074
 30
0.0
 10
870.224232835627
 20
-2480.009948099087
 30
0.0
 10
870.4301503595752
 20
-2469.422387859861
 30
0.0
 10
870.5252431344424
 20
-2464.532742298285
 30
0.0
 10
870.5117697109754
 20
-2459.640604542776
 30
0.0
 10
870.5129379268809
 20
-2454.749596062644
 30
0.0
 10
870.5334985268537
 20
-2368.835337821009
 30
0.0
 10
870.5092775170387
 20
-2282.921021168579
 30
0.0
 10
870.6054411564846
 20
-2197.006850543138
 30
0.0
 10
870.6208031956675
 20
-2183.287658788449
 30
0.0
 10
864.710954682142
 20
-2176.94229451707
 30
0.0
 10
851.1372982916881
 20
-2176.937563242645
 30
0.0
 10
796.9104681930339
 20
-2176.91865761521
 30
0.0
 10
742.6836283592465
 20
-2176.896286280582
 30
0.0
 10
688.4567982605922
 20
-2176.861590268134
 30
0.0
 10
674.2237497025426
 20
-2176.852483051622
 30
0.0
 10
668.4680837847491
 20
-2182.596152852315
 30
0.0
 10
668.4622524403466
 20
-2197.028326245567
 30
0.0
 10
668.4441231897335
 20
-2241.897425666401
 30
0.0
 10
668.4556130799401
 20
-2286.766525087231
 30
0.0
 10
668.4556130799401
 20
-2331.635624508064
 30
0.0
  0
SPLINE
  5
7E
330
70
100
AcDbEntity
  8
Layer 1
100
AcDbSpline
210
0.0
220
0.0
230
1.0
 70
     9
 71
     3
 72
    38
 73
    34
 74
     0
 42
0.0000000001
 43
0.0000000001
 40
0.0
 40
0.0
 40
0.0
 40
0.0
 40
1.0
 40
1.0
 40
1.0
 40
2.0
 40
2.0
 40
2.0
 40
3.0
 40
3.0
 40
3.0
 40
4.0
 40
4.0
 40
4.0
 40
5.0
 40
5.0
 40
5.0
 40
6.0
 40
6.0
 40
6.0
 40
7.0
 40
7.0
 40
7.0
 40
8.0
 40
8.0
 40
8.0
 40
9.0
 40
9.0
 40
9.0
 40
10.0
 40
10.0
 40
10.0
 40
11.0
 40
11.0
 40
11.0
 40
11.0
 10
654.8290827507599
 20
-2330.98808243058
 30
0.0
 10
654.8290827507599
 20
-2282.732140126613
 30
0.0
 10
654.7977696968746
 20
-2234.47616861725
 30
0.0
 10
654.8493792852577
 20
-2186.220274988948
 30
0.0
 10
654.8636789780985
 20
-2172.850012289324
 30
0.0
 10
661.358158708711
 20
-2166.052859986015
 30
0.0
 10
674.6928419326041
 20
-2166.028524588393
 30
0.0
 10
737.829973582754
 20
-2165.913297125608
 30
0.0
 10
800.9675554827854
 20
-2165.907108015082
 30
0.0
 10
864.1046895667214
 20
-2166.021257311935
 30
0.0
 10
877.5379653456338
 20
-2166.045544033896
 30
0.0
 10
883.9056376732779
 20
-2172.880432144797
 30
0.0
 10
883.9050925058518
 20
-2186.215811430666
 30
0.0
 10
883.9010621609714
 20
-2282.306549336408
 30
0.0
 10
883.9059686677838
 20
-2378.397282374583
 30
0.0
 10
883.9027950145691
 20
-2474.488025147886
 30
0.0
 10
883.9022693174092
 20
-2490.64604770927
 30
0.0
 10
877.6546506445201
 20
-2497.12314292691
 30
0.0
 10
861.7467431089144
 20
-2497.133773691665
 30
0.0
 10
800.0957354213433
 20
-2497.1750117132
 30
0.0
 10
738.4446790581068
 20
-2497.140276760216
 30
0.0
 10
676.7936372975718
 20
-2497.160447954884
 30
0.0
 10
672.0693940720057
 20
-2497.162005576094
 30
0.0
 10
667.40670852341
 20
-2496.959982105171
 30
0.0
 10
663.2518926716556
 20
-2494.391425789523
 30
0.0
 10
657.0525018454727
 20
-2490.558976683635
 30
0.0
 10
654.6788075938575
 20
-2484.808901165718
 30
0.0
 10
654.6866346404394
 20
-2477.675463310756
 30
0.0
 10
654.7402861728778
 20
-2428.779708624563
 30
0.0
 10
654.7147935113725
 20
-2379.883895527572
 30
0.0
 10
654.7147935113725
 20
-2330.98808243058
 30
0.0
 10
654.7528895188706
 20
-2330.98808243058
 30
0.0
 10
654.7909867432617
 20
-2330.98808243058
 30
0.0
 10
654.8290827507599
 20
-2330.98808243058
 30
0.0
  0
HATCH
  5
7F
330
70
100
AcDbEntity
  8
Layer 1
 62
   168
420
   922409
440
 33554687
100
AcDbHatch
 10
0.0
 20
0.0
 30
0.0
210
0.0
220
0.0
230
1.0
  2
SOLID
 70
     1
 71
     1
 91
        2
 92
        1
 93
        1
 72
     4
 94
        3
 73
     0
 74
     0
 95
       41
 96
       37
 40
0.0
 40
0.0
 40
0.0
 40
0.0
 40
1.0
 40
1.0
 40
1.0
 40
2.0
 40
2.0
 40
2.0
 40
3.0
 40
3.0
 40
3.0
 40
4.0
 40
4.0
 40
4.0
 40
5.0
 40
5.0
 40
5.0
 40
6.0
 40
6.0
 40
6.0
 40
7.0
 40
7.0
 40
7.0
 40
8.0
 40
8.0
 40
8.0
 40
9.0
 40
9.0
 40
9.0
 40
10.0
 40
10.0
 40
10.0
 40
11.0
 40
11.0
 40
11.0
 40
12.0
 40
12.0
 40
12.0
 40
12.0
 10
668.4556130799401
 20
-2331.635624508064
 10
668.4039438638656
 20
-2331.635624508064
 10
668.3522722140123
 20
-2331.635605037798
 10
668.3006029979378
 20
-2331.635605037798
 10
668.3006029979378
 20
-2376.507109036374
 10
668.3006638425186
 20
-2421.378613034947
 10
668.3005664911916
 20
-2466.25011703352
 10
668.30053485201
 20
-2480.023810927858
 10
674.7743736678103
 20
-2486.490353261797
 10
688.5655396913071
 20
-2486.487783186804
 10
710.4688091448597
 20
-2486.483733371657
 10
732.3720785984123
 20
-2486.471389223567
 10
754.275348051965
 20
-2486.474387644398
 10
787.2377767714397
 20
-2486.478943686438
 10
820.2003515178994
 20
-2486.550788964742
 10
853.1625563293246
 20
-2486.471389223567
 10
863.8646601382761
 20
-2486.445649533074
 10
870.224232835627
 20
-2480.009948099087
 10
870.4301503595752
 20
-2469.422387859861
 10
870.5252431344424
 20
-2464.532742298285
 10
870.5117697109754
 20
-2459.640604542776
 10
870.5129379268809
 20
-2454.749596062644
 10
870.5334985268537
 20
-2368.835337821009
 10
870.5092775170387
 20
-2282.921021168579
 10
870.6054411564846
 20
-2197.006850543138
 10
870.6208031956675
 20
-2183.287658788449
 10
864.710954682142
 20
-2176.94229451707
 10
851.1372982916881
 20
-2176.937563242645
 10
796.9104681930339
 20
-2176.91865761521
 10
742.6836283592465
 20
-2176.896286280582
 10
688.4567982605922
 20
-2176.861590268134
 10
674.2237497025426
 20
-2176.852483051622
 10
668.4680837847491
 20
-2182.596152852315
 10
668.4622524403466
 20
-2197.028326245567
 10
668.4441231897335
 20
-2241.897425666401
 10
668.4556130799401
 20
-2286.766525087231
 10
668.4556130799401
 20
-2331.635624508064
 97
        0
 97
        1
330
7D
 92
        1
 93
        1
 72
     4
 94
        3
 73
     0
 74
     0
 95
       38
 96
       34
 40
0.0
 40
0.0
 40
0.0
 40
0.0
 40
1.0
 40
1.0
 40
1.0
 40
2.0
 40
2.0
 40
2.0
 40
3.0
 40
3.0
 40
3.0
 40
4.0
 40
4.0
 40
4.0
 40
5.0
 40
5.0
 40
5.0
 40
6.0
 40
6.0
 40
6.0
 40
7.0
 40
7.0
 40
7.0
 40
8.0
 40
8.0
 40
8.0
 40
9.0
 40
9.0
 40
9.0
 40
10.0
 40
10.0
 40
10.0
 40
11.0
 40
11.0
 40
11.0
 40
11.0
 10
654.8290827507599
 20
-2330.98808243058
 10
654.8290827507599
 20
-2282.732140126613
 10
654.7977696968746
 20
-2234.47616861725
 10
654.8493792852577
 20
-2186.220274988948
 10
654.8636789780985
 20
-2172.850012289324
 10
661.358158708711
 20
-2166.052859986015
 10
674.6928419326041
 20
-2166.028524588393
 10
737.829973582754
 20
-2165.913297125608
 10
800.9675554827854
 20
-2165.907108015082
 10
864.1046895667214
 20
-2166.021257311935
 10
877.5379653456338
 20
-2166.045544033896
 10
883.9056376732779
 20
-2172.880432144797
 10
883.9050925058518
 20
-2186.215811430666
 10
883.9010621609714
 20
-2282.306549336408
 10
883.9059686677838
 20
-2378.397282374583
 10
883.9027950145691
 20
-2474.488025147886
 10
883.9022693174092
 20
-2490.64604770927
 10
877.6546506445201
 20
-2497.12314292691
 10
861.7467431089144
 20
-2497.133773691665
 10
800.0957354213433
 20
-2497.1750117132
 10
738.4446790581068
 20
-2497.140276760216
 10
676.7936372975718
 20
-2497.160447954884
 10
672.0693940720057
 20
-2497.162005576094
 10
667.40670852341
 20
-2496.959982105171
 10
663.2518926716556
 20
-2494.391425789523
 10
657.0525018454727
 20
-2490.558976683635
 10
654.6788075938575
 20
-2484.808901165718
 10
654.6866346404394
 20
-2477.675463310756
 10
654.7402861728778
 20
-2428.779708624563
 10
654.7147935113725
 20
-2379.883895527572
 10
654.7147935113725
 20
-2330.98808243058
 10
654.7528895188706
 20
-2330.98808243058
 10
654.7909867432617
 20
-2330.98808243058
 10
654.8290827507599
 20
-2330.98808243058
 97
        0
 97
        1
330
7E
 75
     2
 76
     1
 98
        1
 10
0.0
 20
0.0
450
        0
451
        0
460
0.0
461
0.0
452
        0
462
0.0
453
        0
470

  0
SPLINE
  5
80
330
70
100
AcDbEntity
  8
Layer 1
100
AcDbSpline
210
0.0
220
0.0
230
1.0
 70
     9
 71
     3
 72
    20
 73
    16
 74
     0
 42
0.0000000001
 43
0.0000000001
 40
0.0
 40
0.0
 40
0.0
 40
0.0
 40
1.0
 40
1.0
 40
1.0
 40
2.0
 40
2.0
 40
2.0
 40
3.0
 40
3.0
 40
3.0
 40
4.0
 40
4.0
 40
4.0
 40
5.0
 40
5.0
 40
5.0
 40
5.0
 10
700.9847553869158
 20
-2468.199713620889
 30
0.0
 10
702.6840617161151
 20
-2468.199713620889
 30
0.0
 10
704.3838742722118
 20
-2468.226056889598
 30
0.0
 10
706.0825526853595
 20
-2468.193307903661
 30
0.0
 10
708.4100817214757
 20
-2468.148448412816
 30
0.0
 10
709.1618140552027
 20
-2467.224973738001
 30
0.0
 10
707.9409262130548
 20
-2465.006551200073
 30
0.0
 10
703.4565980281268
 20
-2456.858206305275
 30
0.0
 10
697.5949092153869
 20
-2449.986409873047
 30
0.0
 10
689.6042442626939
 20
-2445.082512077403
 30
0.0
 10
688.1534953380623
 20
-2444.192175793825
 30
0.0
 10
686.6718130297167
 20
-2443.119753590814
 30
0.0
 10
685.712775915651
 20
-2445.868604561507
 30
0.0
 10
681.5046675144667
 20
-2457.930219632719
 30
0.0
 10
688.564103759255
 20
-2468.335791303838
 30
0.0
 10
700.9847553869158
 20
-2468.199713620889
 30
0.0
  0
SPLINE
  5
81
330
70
100
AcDbEntity
  8
Layer 1
100
AcDbSpline
210
0.0
220
0.0
230
1.0
 70
     9
 71
     3
 72
    20
 73
    16
 74
     0
 42
0.0000000001
 43
0.0000000001
 40
0.0
 40
0.0
 40
0.0
 40
0.0
 40
1.0
 40
1.0
 40
1.0
 40
2.0
 40
2.0
 40
2.0
 40
3.0
 40
3.0
 40
3.0
 40
4.0
 40
4.0
 40
4.0
 40
5.0
 40
5.0
 40
5.0
 40
5.0
 10
685.6410815318968
 20
-2211.66080972641
 30
0.0
 10
685.6410815318968
 20
-2213.143392534519
 30
0.0
 10
685.7031137965832
 20
-2214.629129525579
 30
0.0
 10
685.6279731759031
 20
-2216.107891294159
 30
0.0
 10
685.4786800504999
 20
-2219.045847214864
 30
0.0
 10
686.2613214301136
 20
-2220.284516276635
 30
0.0
 10
689.2053618086692
 20
-2218.361871403769
 30
0.0
 10
697.1611506489616
 20
-2213.166221420379
 30
0.0
 10
703.4524654643546
 20
-2206.458374355625
 30
0.0
 10
708.0154291825501
 20
-2198.103722531578
 30
0.0
 10
709.1378704966673
 20
-2196.048577636975
 30
0.0
 10
708.8648779093682
 20
-2195.229375967028
 30
0.0
 10
706.4337329898307
 20
-2194.736077329857
 30
0.0
 10
692.86003279128
 20
-2191.981867168688
 30
0.0
 10
685.7047541664187
 20
-2197.754182596946
 30
0.0
 10
685.6410815318968
 20
-2211.66080972641
 30
0.0
  0
SPLINE
  5
82
330
70
100
AcDbEntity
  8
Layer 1
100
AcDbSpline
210
0.0
220
0.0
230
1.0
 70
     9
 71
     3
 72
    20
 73
    16
 74
     0
 42
0.0000000001
 43
0.0000000001
 40
0.0
 40
0.0
 40
0.0
 40
0.0
 40
1.0
 40
1.0
 40
1.0
 40
2.0
 40
2.0
 40
2.0
 40
3.0
 40
3.0
 40
3.0
 40
4.0
 40
4.0
 40
4.0
 40
5.0
 40
5.0
 40
5.0
 40
5.0
 10
853.143689642421
 20
-2450.987804548891
 30
0.0
 10
853.143689642421
 20
-2450.798339398971
 30
0.0
 10
853.1539699424039
 20
-2448.900222192591
 30
0.0
 10
853.1411585079558
 20
-2447.002260748333
 30
0.0
 10
853.1239467935856
 20
-2444.452532179061
 30
0.0
 10
851.6775592083403
 20
-2444.046460329643
 30
0.0
 10
849.8565442518529
 20
-2445.199586781593
 30
0.0
 10
841.676209711456
 20
-2450.379748169078
 30
0.0
 10
835.2165403811023
 20
-2457.21470685969
 30
0.0
 10
830.732324150199
 20
-2465.826794529203
 30
0.0
 10
829.8432923743867
 20
-2467.534181018429
 30
0.0
 10
830.5991280664903
 20
-2468.342781129017
 30
0.0
 10
832.5305978370243
 20
-2468.807224833275
 30
0.0
 10
845.5429264839631
 20
-2471.935979617065
 30
0.0
 10
852.9191390747483
 20
-2466.21579095611
 30
0.0
 10
853.143689642421
 20
-2450.987804548891
 30
0.0
  0
SPLINE
  5
83
330
70
100
AcDbEntity
  8
Layer 1
100
AcDbSpline
210
0.0
220
0.0
230
1.0
 70
     9
 71
     3
 72
    23
 73
    19
 74
     0
 42
0.0000000001
 43
0.0000000001
 40
0.0
 40
0.0
 40
0.0
 40
0.0
 40
1.0
 40
1.0
 40
1.0
 40
2.0
 40
2.0
 40
2.0
 40
3.0
 40
3.0
 40
3.0
 40
4.0
 40
4.0
 40
4.0
 40
5.0
 40
5.0
 40
5.0
 40
6.0
 40
6.0
 40
6.0
 40
6.0
 10
853.0178727891916
 20
-2211.368663265796
 30
0.0
 10
853.4120677768852
 20
-2206.288783478831
 30
0.0
 10
853.2588367903636
 20
-2202.347977479964
 30
0.0
 10
850.5592650606967
 20
-2198.929159553932
 30
0.0
 10
847.540692507243
 20
-2195.10633362658
 30
0.0
 10
835.1929618900403
 20
-2192.099740153746
 30
0.0
 10
831.1696652454093
 20
-2194.287161162032
 30
0.0
 10
829.0270793901372
 20
-2195.452057389248
 30
0.0
 10
830.4086309925196
 20
-2196.806078036745
 30
0.0
 10
831.0932833953275
 20
-2197.947517462057
 30
0.0
 10
834.7977933890879
 20
-2204.123432016066
 30
0.0
 10
838.8850303843836
 20
-2210.017387925684
 30
0.0
 10
844.7680683428343
 20
-2214.361559407116
 30
0.0
 10
847.0494577181753
 20
-2216.046199759112
 30
0.0
 10
849.3902314021406
 20
-2219.462418404754
 30
0.0
 10
852.1584358163645
 20
-2218.007882513553
 30
0.0
 10
854.4438555365859
 20
-2216.807010103956
 30
0.0
 10
852.6684983518107
 20
-2212.971163436803
 30
0.0
 10
853.0178727891916
 20
-2211.368663265796
 30
0.0
  0
SPLINE
  5
84
330
70
100
AcDbEntity
  8
Layer 1
100
AcDbSpline
210
0.0
220
0.0
230
1.0
 70
     9
 71
     3
 72
    56
 73
    52
 74
     0
 42
0.0000000001
 43
0.0000000001
 40
0.0
 40
0.0
 40
0.0
 40
0.0
 40
1.0
 40
1.0
 40
1.0
 40
2.0
 40
2.0
 40
2.0
 40
3.0
 40
3.0
 40
3.0
 40
4.0
 40
4.0
 40
4.0
 40
5.0
 40
5.0
 40
5.0
 40
6.0
 40
6.0
 40
6.0
 40
7.0
 40
7.0
 40
7.0
 40
8.0
 40
8.0
 40
8.0
 40
9.0
 40
9.0
 40
9.0
 40
10.0
 40
10.0
 40
10.0
 40
11.0
 40
11.0
 40
11.0
 40
12.0
 40
12.0
 40
12.0
 40
13.0
 40
13.0
 40
13.0
 40
14.0
 40
14.0
 40
14.0
 40
15.0
 40
15.0
 40
15.0
 40
16.0
 40
16.0
 40
16.0
 40
17.0
 40
17.0
 40
17.0
 40
17.0
 10
848.0136252470993
 20
-2332.09062513374
 30
0.0
 10
848.0136252470993
 20
-2299.128089327809
 30
0.0
 10
847.9528390793829
 20
-2266.165310143562
 30
0.0
 10
848.0891309352491
 20
-2233.20333897532
 30
0.0
 10
848.1065178820035
 20
-2228.997790913996
 30
0.0
 10
847.0457778380669
 20
-2226.031247776522
 30
0.0
 10
843.4857956223178
 20
-2223.513873920317
 30
0.0
 10
834.6870075805354
 20
-2217.291990070353
 30
0.0
 10
827.7511734463159
 20
-2209.221375341498
 30
0.0
 10
822.3260177127786
 20
-2199.960801286641
 30
0.0
 10
820.4925223163455
 20
-2196.83104865177
 30
0.0
 10
818.4807377021762
 20
-2195.461150003062
 30
0.0
 10
814.7918428610436
 20
-2195.493373291844
 30
0.0
 10
784.5980469016295
 20
-2195.757078562678
 30
0.0
 10
754.4028296128608
 20
-2195.879035435846
 30
0.0
 10
724.2078264970086
 20
-2195.949853657669
 30
0.0
 10
720.7082410436787
 20
-2195.958060374418
 30
0.0
 10
718.4178174653216
 20
-2196.929879717536
 30
0.0
 10
716.5483799594703
 20
-2200.221805058191
 30
0.0
 10
711.6817482512715
 20
-2208.791559503759
 30
0.0
 10
705.4792762556362
 20
-2216.502592508747
 30
0.0
 10
697.4226995879335
 20
-2222.180311653902
 30
0.0
 10
692.3003356824674
 20
-2225.790186424027
 30
0.0
 10
690.5493406669311
 20
-2229.783523198195
 30
0.0
 10
690.5688644752817
 20
-2235.936915523023
 30
0.0
 10
690.7739739832295
 20
-2300.585127148075
 30
0.0
 10
690.7443207694459
 20
-2365.234292816116
 30
0.0
 10
690.6269004680516
 20
-2429.882893846468
 30
0.0
 10
690.6190052755419
 20
-2434.232395312982
 30
0.0
 10
692.1573363202669
 20
-2436.951534659096
 30
0.0
 10
695.5740757954999
 20
-2439.409772452553
 30
0.0
 10
704.1355505108231
 20
-2445.569463408148
 30
0.0
 10
711.1831683046812
 20
-2453.274587187669
 30
0.0
 10
716.2461479015192
 20
-2462.518270787529
 30
0.0
 10
718.3312624017134
 20
-2466.325174905575
 30
0.0
 10
720.945826953849
 20
-2467.320241745249
 30
0.0
 10
724.9242835778978
 20
-2467.305736397732
 30
0.0
 10
754.9083166360041
 20
-2467.196430329328
 30
0.0
 10
784.8931285047119
 20
-2467.171936735802
 30
0.0
 10
814.8769668601644
 20
-2467.294443643961
 30
0.0
 10
818.5696389327322
 20
-2467.309513629167
 30
0.0
 10
820.74865365405
 20
-2465.993927285024
 30
0.0
 10
822.474147489841
 20
-2462.865678728129
 30
0.0
 10
827.4834573008638
 20
-2453.783929323305
 30
0.0
 10
834.3375747323598
 20
-2446.168349293086
 30
0.0
 10
842.7942507456545
 20
-2440.296681969471
 30
0.0
 10
847.0964978787133
 20
-2437.309534423926
 30
0.0
 10
848.1219772725134
 20
-2433.893671110626
 30
0.0
 10
848.0994307054979
 20
-2429.060119382874
 30
0.0
 10
847.9486140318522
 20
-2396.737532251027
 30
0.0
 10
848.0211018289056
 20
-2364.41391319513
 30
0.0
 10
848.0136252470993
 20
-2332.09062513374
 30
0.0
  0
SPLINE
  5
85
330
70
100
AcDbEntity
  8
Layer 1
100
AcDbSpline
210
0.0
220
0.0
230
1.0
 70
     9
 71
     3
 72
    38
 73
    34
 74
     0
 42
0.0000000001
 43
0.0000000001
 40
0.0
 40
0.0
 40
0.0
 40
0.0
 40
1.0
 40
1.0
 40
1.0
 40
2.0
 40
2.0
 40
2.0
 40
3.0
 40
3.0
 40
3.0
 40
4.0
 40
4.0
 40
4.0
 40
5.0
 40
5.0
 40
5.0
 40
6.0
 40
6.0
 40
6.0
 40
7.0
 40
7.0
 40
7.0
 40
8.0
 40
8.0
 40
8.0
 40
9.0
 40
9.0
 40
9.0
 40
10.0
 40
10.0
 40
10.0
 40
11.0
 40
11.0
 40
11.0
 40
11.0
 10
860.6362954781152
 20
-2331.656730275456
 30
0.0
 10
860.6362954781152
 20
-2374.379398463654
 30
0.0
 10
860.6381840938347
 20
-2417.102086122119
 30
0.0
 10
860.6350688514149
 20
-2459.824754310317
 30
0.0
 10
860.6341926894829
 20
-2471.745209959383
 30
0.0
 10
855.1108678791942
 20
-2477.679941471735
 30
0.0
 10
843.2459219559941
 20
-2477.707394545559
 30
0.0
 10
793.7222122790308
 20
-2477.822035466608
 30
0.0
 10
744.1980547859648
 20
-2477.825345411679
 30
0.0
 10
694.6742477576744
 20
-2477.746023551565
 30
0.0
 10
684.2398795644412
 20
-2477.729318064088
 30
0.0
 10
678.194785721801
 20
-2471.176113580081
 30
0.0
 10
678.1794942623283
 20
-2460.071306277576
 30
0.0
 10
678.1068993788148
 20
-2407.358445054411
 30
0.0
 10
678.1227627773232
 20
-2354.645447539391
 30
0.0
 10
678.1166126073267
 20
-2301.932498700033
 30
0.0
 10
678.1128670150728
 20
-2269.837032210853
 30
0.0
 10
678.1038790539359
 20
-2237.741546251411
 30
0.0
 10
678.1420651114103
 20
-2205.64611870276
 30
0.0
 10
678.1597684499729
 20
-2190.766416398074
 30
0.0
 10
683.3107098370756
 20
-2185.600609463552
 30
0.0
 10
697.9203206239662
 20
-2185.599743036753
 30
0.0
 10
745.9572224452904
 20
-2185.596905245613
 30
0.0
 10
793.9941340017476
 20
-2185.586624945627
 30
0.0
 10
842.0310358230718
 20
-2185.590626085112
 30
0.0
 10
855.2852046331109
 20
-2185.591731022658
 30
0.0
 10
860.5728613543442
 20
-2190.892418218824
 30
0.0
 10
860.5736206946831
 20
-2204.129618692808
 30
0.0
 10
860.5760350075588
 20
-2246.63865913207
 30
0.0
 10
860.5744968566151
 20
-2289.147699571327
 30
0.0
 10
860.5744968566151
 20
-2331.656730275456
 30
0.0
 10
860.5950963971126
 20
-2331.656730275456
 30
0.0
 10
860.6156959376139
 20
-2331.656730275456
 30
0.0
 10
860.6362954781152
 20
-2331.656730275456
 30
0.0
  0
HATCH
  5
86
330
70
100
AcDbEntity
  8
Layer 1
 62
   168
420
   922409
440
 33554687
100
AcDbHatch
 10
0.0
 20
0.0
 30
0.0
210
0.0
220
0.0
230
1.0
  2
SOLID
 70
     1
 71
     1
 91
        6
 92
        1
 93
        1
 72
     4
 94
        3
 73
     0
 74
     0
 95
       20
 96
       16
 40
0.0
 40
0.0
 40
0.0
 40
0.0
 40
1.0
 40
1.0
 40
1.0
 40
2.0
 40
2.0
 40
2.0
 40
3.0
 40
3.0
 40
3.0
 40
4.0
 40
4.0
 40
4.0
 40
5.0
 40
5.0
 40
5.0
 40
5.0
 10
700.9847553869158
 20
-2468.199713620889
 10
702.6840617161151
 20
-2468.199713620889
 10
704.3838742722118
 20
-2468.226056889598
 10
706.0825526853595
 20
-2468.193307903661
 10
708.4100817214757
 20
-2468.148448412816
 10
709.1618140552027
 20
-2467.224973738001
 10
707.9409262130548
 20
-2465.006551200073
 10
703.4565980281268
 20
-2456.858206305275
 10
697.5949092153869
 20
-2449.986409873047
 10
689.6042442626939
 20
-2445.082512077403
 10
688.1534953380623
 20
-2444.192175793825
 10
686.6718130297167
 20
-2443.119753590814
 10
685.712775915651
 20
-2445.868604561507
 10
681.5046675144667
 20
-2457.930219632719
 10
688.564103759255
 20
-2468.335791303838
 10
700.9847553869158
 20
-2468.199713620889
 97
        0
 97
        1
330
80
 92
        1
 93
        1
 72
     4
 94
        3
 73
     0
 74
     0
 95
       20
 96
       16
 40
0.0
 40
0.0
 40
0.0
 40
0.0
 40
1.0
 40
1.0
 40
1.0
 40
2.0
 40
2.0
 40
2.0
 40
3.0
 40
3.0
 40
3.0
 40
4.0
 40
4.0
 40
4.0
 40
5.0
 40
5.0
 40
5.0
 40
5.0
 10
685.6410815318968
 20
-2211.66080972641
 10
685.6410815318968
 20
-2213.143392534519
 10
685.7031137965832
 20
-2214.629129525579
 10
685.6279731759031
 20
-2216.107891294159
 10
685.4786800504999
 20
-2219.045847214864
 10
686.2613214301136
 20
-2220.284516276635
 10
689.2053618086692
 20
-2218.361871403769
 10
697.1611506489616
 20
-2213.166221420379
 10
703.4524654643546
 20
-2206.458374355625
 10
708.0154291825501
 20
-2198.103722531578
 10
709.1378704966673
 20
-2196.048577636975
 10
708.8648779093682
 20
-2195.229375967028
 10
706.4337329898307
 20
-2194.736077329857
 10
692.86003279128
 20
-2191.981867168688
 10
685.7047541664187
 20
-2197.754182596946
 10
685.6410815318968
 20
-2211.66080972641
 97
        0
 97
        1
330
81
 92
        1
 93
        1
 72
     4
 94
        3
 73
     0
 74
     0
 95
       20
 96
       16
 40
0.0
 40
0.0
 40
0.0
 40
0.0
 40
1.0
 40
1.0
 40
1.0
 40
2.0
 40
2.0
 40
2.0
 40
3.0
 40
3.0
 40
3.0
 40
4.0
 40
4.0
 40
4.0
 40
5.0
 40
5.0
 40
5.0
 40
5.0
 10
853.143689642421
 20
-2450.987804548891
 10
853.143689642421
 20
-2450.798339398971
 10
853.1539699424039
 20
-2448.900222192591
 10
853.1411585079558
 20
-2447.002260748333
 10
853.1239467935856
 20
-2444.452532179061
 10
851.6775592083403
 20
-2444.046460329643
 10
849.8565442518529
 20
-2445.199586781593
 10
841.676209711456
 20
-2450.379748169078
 10
835.2165403811023
 20
-2457.21470685969
 10
830.732324150199
 20
-2465.826794529203
 10
829.8432923743867
 20
-2467.534181018429
 10
830.5991280664903
 20
-2468.342781129017
 10
832.5305978370243
 20
-2468.807224833275
 10
845.5429264839631
 20
-2471.935979617065
 10
852.9191390747483
 20
-2466.21579095611
 10
853.143689642421
 20
-2450.987804548891
 97
        0
 97
        1
330
82
 92
        1
 93
        1
 72
     4
 94
        3
 73
     0
 74
     0
 95
       23
 96
       19
 40
0.0
 40
0.0
 40
0.0
 40
0.0
 40
1.0
 40
1.0
 40
1.0
 40
2.0
 40
2.0
 40
2.0
 40
3.0
 40
3.0
 40
3.0
 40
4.0
 40
4.0
 40
4.0
 40
5.0
 40
5.0
 40
5.0
 40
6.0
 40
6.0
 40
6.0
 40
6.0
 10
853.0178727891916
 20
-2211.368663265796
 10
853.4120677768852
 20
-2206.288783478831
 10
853.2588367903636
 20
-2202.347977479964
 10
850.5592650606967
 20
-2198.929159553932
 10
847.540692507243
 20
-2195.10633362658
 10
835.1929618900403
 20
-2192.099740153746
 10
831.1696652454093
 20
-2194.287161162032
 10
829.0270793901372
 20
-2195.452057389248
 10
830.4086309925196
 20
-2196.806078036745
 10
831.0932833953275
 20
-2197.947517462057
 10
834.7977933890879
 20
-2204.123432016066
 10
838.8850303843836
 20
-2210.017387925684
 10
844.7680683428343
 20
-2214.361559407116
 10
847.0494577181753
 20
-2216.046199759112
 10
849.3902314021406
 20
-2219.462418404754
 10
852.1584358163645
 20
-2218.007882513553
 10
854.4438555365859
 20
-2216.807010103956
 10
852.6684983518107
 20
-2212.971163436803
 10
853.0178727891916
 20
-2211.368663265796
 97
        0
 97
        1
330
83
 92
        1
 93
        1
 72
     4
 94
        3
 73
     0
 74
     0
 95
       56
 96
       52
 40
0.0
 40
0.0
 40
0.0
 40
0.0
 40
1.0
 40
1.0
 40
1.0
 40
2.0
 40
2.0
 40
2.0
 40
3.0
 40
3.0
 40
3.0
 40
4.0
 40
4.0
 40
4.0
 40
5.0
 40
5.0
 40
5.0
 40
6.0
 40
6.0
 40
6.0
 40
7.0
 40
7.0
 40
7.0
 40
8.0
 40
8.0
 40
8.0
 40
9.0
 40
9.0
 40
9.0
 40
10.0
 40
10.0
 40
10.0
 40
11.0
 40
11.0
 40
11.0
 40
12.0
 40
12.0
 40
12.0
 40
13.0
 40
13.0
 40
13.0
 40
14.0
 40
14.0
 40
14.0
 40
15.0
 40
15.0
 40
15.0
 40
16.0
 40
16.0
 40
16.0
 40
17.0
 40
17.0
 40
17.0
 40
17.0
 10
848.0136252470993
 20
-2332.09062513374
 10
848.0136252470993
 20
-2299.128089327809
 10
847.9528390793829
 20
-2266.165310143562
 10
848.0891309352491
 20
-2233.20333897532
 10
848.1065178820035
 20
-2228.997790913996
 10
847.0457778380669
 20
-2226.031247776522
 10
843.4857956223178
 20
-2223.513873920317
 10
834.6870075805354
 20
-2217.291990070353
 10
827.7511734463159
 20
-2209.221375341498
 10
822.3260177127786
 20
-2199.960801286641
 10
820.4925223163455
 20
-2196.83104865177
 10
818.4807377021762
 20
-2195.461150003062
 10
814.7918428610436
 20
-2195.493373291844
 10
784.5980469016295
 20
-2195.757078562678
 10
754.4028296128608
 20
-2195.879035435846
 10
724.2078264970086
 20
-2195.949853657669
 10
720.7082410436787
 20
-2195.958060374418
 10
718.4178174653216
 20
-2196.929879717536
 10
716.5483799594703
 20
-2200.221805058191
 10
711.6817482512715
 20
-2208.791559503759
 10
705.4792762556362
 20
-2216.502592508747
 10
697.4226995879335
 20
-2222.180311653902
 10
692.3003356824674
 20
-2225.790186424027
 10
690.5493406669311
 20
-2229.783523198195
 10
690.5688644752817
 20
-2235.936915523023
 10
690.7739739832295
 20
-2300.585127148075
 10
690.7443207694459
 20
-2365.234292816116
 10
690.6269004680516
 20
-2429.882893846468
 10
690.6190052755419
 20
-2434.232395312982
 10
692.1573363202669
 20
-2436.951534659096
 10
695.5740757954999
 20
-2439.409772452553
 10
704.1355505108231
 20
-2445.569463408148
 10
711.1831683046812
 20
-2453.274587187669
 10
716.2461479015192
 20
-2462.518270787529
 10
718.3312624017134
 20
-2466.325174905575
 10
720.945826953849
 20
-2467.320241745249
 10
724.9242835778978
 20
-2467.305736397732
 10
754.9083166360041
 20
-2467.196430329328
 10
784.8931285047119
 20
-2467.171936735802
 10
814.8769668601644
 20
-2467.294443643961
 10
818.5696389327322
 20
-2467.309513629167
 10
820.74865365405
 20
-2465.993927285024
 10
822.474147489841
 20
-2462.865678728129
 10
827.4834573008638
 20
-2453.783929323305
 10
834.3375747323598
 20
-2446.168349293086
 10
842.7942507456545
 20
-2440.296681969471
 10
847.0964978787133
 20
-2437.309534423926
 10
848.1219772725134
 20
-2433.893671110626
 10
848.0994307054979
 20
-2429.060119382874
 10
847.9486140318522
 20
-2396.737532251027
 10
848.0211018289056
 20
-2364.41391319513
 10
848.0136252470993
 20
-2332.09062513374
 97
        0
 97
        1
330
84
 92
        1
 93
        1
 72
     4
 94
        3
 73
     0
 74
     0
 95
       38
 96
       34
 40
0.0
 40
0.0
 40
0.0
 40
0.0
 40
1.0
 40
1.0
 40
1.0
 40
2.0
 40
2.0
 40
2.0
 40
3.0
 40
3.0
 40
3.0
 40
4.0
 40
4.0
 40
4.0
 40
5.0
 40
5.0
 40
5.0
 40
6.0
 40
6.0
 40
6.0
 40
7.0
 40
7.0
 40
7.0
 40
8.0
 40
8.0
 40
8.0
 40
9.0
 40
9.0
 40
9.0
 40
10.0
 40
10.0
 40
10.0
 40
11.0
 40
11.0
 40
11.0
 40
11.0
 10
860.6362954781152
 20
-2331.656730275456
 10
860.6362954781152
 20
-2374.379398463654
 10
860.6381840938347
 20
-2417.102086122119
 10
860.6350688514149
 20
-2459.824754310317
 10
860.6341926894829
 20
-2471.745209959383
 10
855.1108678791942
 20
-2477.679941471735
 10
843.2459219559941
 20
-2477.707394545559
 10
793.7222122790308
 20
-2477.822035466608
 10
744.1980547859648
 20
-2477.825345411679
 10
694.6742477576744
 20
-2477.746023551565
 10
684.2398795644412
 20
-2477.729318064088
 10
678.194785721801
 20
-2471.176113580081
 10
678.1794942623283
 20
-2460.071306277576
 10
678.1068993788148
 20
-2407.358445054411
 10
678.1227627773232
 20
-2354.645447539391
 10
678.1166126073267
 20
-2301.932498700033
 10
678.1128670150728
 20
-2269.837032210853
 10
678.1038790539359
 20
-2237.741546251411
 10
678.1420651114103
 20
-2205.64611870276
 10
678.1597684499729
 20
-2190.766416398074
 10
683.3107098370756
 20
-2185.600609463552
 10
697.9203206239662
 20
-2185.599743036753
 10
745.9572224452904
 20
-2185.596905245613
 10
793.9941340017476
 20
-2185.586624945627
 10
842.0310358230718
 20
-2185.590626085112
 10
855.2852046331109
 20
-2185.591731022658
 10
860.5728613543442
 20
-2190.892418218824
 10
860.5736206946831
 20
-2204.129618692808
 10
860.5760350075588
 20
-2246.63865913207
 10
860.5744968566151
 20
-2289.147699571327
 10
860.5744968566151
 20
-2331.656730275456
 10
860.5950963971126
 20
-2331.656730275456
 10
860.6156959376139
 20
-2331.656730275456
 10
860.6362954781152
 20
-2331.656730275456
 97
        0
 97
        1
330
85
 75
     2
 76
     1
 98
        1
 10
0.0
 20
0.0
450
        0
451
        0
460
0.0
461
0.0
452
        0
462
0.0
453
        0
470

  0
SPLINE
  5
87
330
70
100
AcDbEntity
  8
Layer 1
100
AcDbSpline
210
0.0
220
0.0
230
1.0
 70
     9
 71
     3
 72
    29
 73
    25
 74
     0
 42
0.0000000001
 43
0.0000000001
 40
0.0
 40
0.0
 40
0.0
 40
0.0
 40
1.0
 40
1.0
 40
1.0
 40
2.0
 40
2.0
 40
2.0
 40
3.0
 40
3.0
 40
3.0
 40
4.0
 40
4.0
 40
4.0
 40
5.0
 40
5.0
 40
5.0
 40
6.0
 40
6.0
 40
6.0
 40
7.0
 40
7.0
 40
7.0
 40
8.0
 40
8.0
 40
8.0
 40
8.0
 10
756.63667260077
 20
-2311.960707427654
 30
0.0
 10
756.6785239356513
 20
-2311.96072689792
 30
0.0
 10
756.7203655354033
 20
-2311.960746368182
 30
0.0
 10
756.7622168702846
 20
-2311.960785308714
 30
0.0
 10
756.7622168702846
 20
-2315.144777234658
 30
0.0
 10
756.7496682844148
 20
-2318.328847041659
 30
0.0
 10
756.7666463556024
 20
-2321.512761086542
 30
0.0
 10
756.777890433711
 20
-2323.622636896406
 30
0.0
 10
757.3312937793207
 20
-2325.365887613993
 30
0.0
 10
759.8967445876815
 20
-2325.38701285165
 30
0.0
 10
764.1339220946947
 20
-2325.421923037018
 30
0.0
 10
768.4144404118751
 20
-2325.758817034453
 30
0.0
 10
772.4850887412876
 20
-2324.158341771021
 30
0.0
 10
779.718691375173
 20
-2321.314300674138
 30
0.0
 10
783.3267262052477
 20
-2314.439603172406
 30
0.0
 10
781.347417993301
 20
-2307.349321160094
 30
0.0
 10
779.524524156227
 20
-2300.819364172643
 30
0.0
 10
771.6521605344287
 20
-2297.305584896036
 30
0.0
 10
761.5492736049246
 20
-2298.634907512223
 30
0.0
 10
752.9644248363192
 20
-2299.764494413641
 30
0.0
 10
758.0133469017355
 20
-2306.559626676943
 30
0.0
 10
756.6534657044367
 20
-2310.692258595376
 30
0.0
 10
756.527376267496
 20
-2311.075433413011
 30
0.0
 10
756.63667260077
 20
-2311.53604147504
 30
0.0
 10
756.63667260077
 20
-2311.960707427654
 30
0.0
  0
SPLINE
  5
88
330
70
100
AcDbEntity
  8
Layer 1
100
AcDbSpline
210
0.0
220
0.0
230
1.0
 70
     9
 71
     3
 72
    20
 73
    16
 74
     0
 42
0.0000000001
 43
0.0000000001
 40
0.0
 40
0.0
 40
0.0
 40
0.0
 40
1.0
 40
1.0
 40
1.0
 40
2.0
 40
2.0
 40
2.0
 40
3.0
 40
3.0
 40
3.0
 40
4.0
 40
4.0
 40
4.0
 40
5.0
 40
5.0
 40
5.0
 40
5.0
 10
765.0279771989126
 20
-2334.614867125965
 30
0.0
 10
756.834217910714
 20
-2334.522208134243
 30
0.0
 10
756.790234581801
 20
-2334.521682437084
 30
0.0
 10
756.6928929913128
 20
-2342.801782615974
 30
0.0
 10
756.6232478529646
 20
-2348.726292239135
 30
0.0
 10
756.6348229255827
 20
-2354.653313526502
 30
0.0
 10
756.7317069648388
 20
-2360.577258511974
 30
0.0
 10
756.7615938218014
 20
-2362.404153488533
 30
0.0
 10
756.5439551982499
 20
-2364.437939502292
 30
0.0
 10
758.6989144070075
 20
-2365.546771101086
 30
0.0
 10
765.5120371952843
 20
-2369.052333925814
 30
0.0
 10
780.3817123134331
 20
-2363.397312242225
 30
0.0
 10
783.3607115530185
 20
-2356.132605859802
 30
0.0
 10
788.1640551644314
 20
-2344.418982837146
 30
0.0
 10
779.9549435721865
 20
-2334.783654854324
 30
0.0
 10
765.0279771989126
 20
-2334.614867125965
 30
0.0
  0
SPLINE
  5
89
330
70
100
AcDbEntity
  8
Layer 1
100
AcDbSpline
210
0.0
220
0.0
230
1.0
 70
     9
 71
     3
 72
    32
 73
    28
 74
     0
 42
0.0000000001
 43
0.0000000001
 40
0.0
 40
0.0
 40
0.0
 40
0.0
 40
1.0
 40
1.0
 40
1.0
 40
2.0
 40
2.0
 40
2.0
 40
3.0
 40
3.0
 40
3.0
 40
4.0
 40
4.0
 40
4.0
 40
5.0
 40
5.0
 40
5.0
 40
6.0
 40
6.0
 40
6.0
 40
7.0
 40
7.0
 40
7.0
 40
8.0
 40
8.0
 40
8.0
 40
9.0
 40
9.0
 40
9.0
 40
9.0
 10
781.3970184937033
 20
-2328.955717746172
 30
0.0
 10
788.2302638009869
 20
-2331.973102613451
 30
0.0
 10
793.3857368922954
 20
-2335.924865504017
 30
0.0
 10
795.819841292131
 20
-2342.446625509852
 30
0.0
 10
800.4125068997719
 20
-2354.751852538291
 30
0.0
 10
794.3192484887813
 20
-2367.84299681845
 30
0.0
 10
781.7606743705519
 20
-2372.429295649395
 30
0.0
 10
770.6722610312835
 20
-2376.478740860086
 30
0.0
 10
759.1772209400378
 20
-2375.490527553735
 30
0.0
 10
747.716292753289
 20
-2374.703967783269
 30
0.0
 10
744.7202180911854
 20
-2374.49836178356
 30
0.0
 10
744.3737349881785
 20
-2372.536012172539
 30
0.0
 10
744.3724402155467
 20
-2370.318757850517
 30
0.0
 10
744.3578277815695
 20
-2345.257645037083
 30
0.0
 10
744.4170173875472
 20
-2320.196434872324
 30
0.0
 10
744.350857426657
 20
-2295.135507026411
 30
0.0
 10
744.3412391156861
 20
-2291.492727508223
 30
0.0
 10
746.2347516043637
 20
-2290.43374952328
 30
0.0
 10
749.3934029802485
 20
-2290.085981382774
 30
0.0
 10
757.4371049351366
 20
-2289.200395843888
 30
0.0
 10
765.4520882489678
 20
-2288.739875398049
 30
0.0
 10
773.5217343321355
 20
-2289.91861498377
 30
0.0
 10
785.0443053782664
 20
-2291.601731787519
 30
0.0
 10
791.9247758136052
 20
-2297.002043462759
 30
0.0
 10
793.9097401375666
 20
-2306.198988691191
 30
0.0
 10
795.6391767020477
 20
-2314.211976302846
 30
0.0
 10
791.4243121188637
 20
-2322.300625364773
 30
0.0
 10
781.3970184937033
 20
-2328.955717746172
 30
0.0
  0
HATCH
  5
8A
330
70
100
AcDbEntity
  8
Layer 1
 62
   246
420
  8590872
440
 33554687
100
AcDbHatch
 10
0.0
 20
0.0
 30
0.0
210
0.0
220
0.0
230
1.0
  2
SOLID
 70
     1
 71
     1
 91
        3
 92
        1
 93
        1
 72
     4
 94
        3
 73
     0
 74
     0
 95
       29
 96
       25
 40
0.0
 40
0.0
 40
0.0
 40
0.0
 40
1.0
 40
1.0
 40
1.0
 40
2.0
 40
2.0
 40
2.0
 40
3.0
 40
3.0
 40
3.0
 40
4.0
 40
4.0
 40
4.0
 40
5.0
 40
5.0
 40
5.0
 40
6.0
 40
6.0
 40
6.0
 40
7.0
 40
7.0
 40
7.0
 40
8.0
 40
8.0
 40
8.0
 40
8.0
 10
756.63667260077
 20
-2311.960707427654
 10
756.6785239356513
 20
-2311.96072689792
 10
756.7203655354033
 20
-2311.960746368182
 10
756.7622168702846
 20
-2311.960785308714
 10
756.7622168702846
 20
-2315.144777234658
 10
756.7496682844148
 20
-2318.328847041659
 10
756.7666463556024
 20
-2321.512761086542
 10
756.777890433711
 20
-2323.622636896406
 10
757.3312937793207
 20
-2325.365887613993
 10
759.8967445876815
 20
-2325.38701285165
 10
764.1339220946947
 20
-2325.421923037018
 10
768.4144404118751
 20
-2325.758817034453
 10
772.4850887412876
 20
-2324.158341771021
 10
779.718691375173
 20
-2321.314300674138
 10
783.3267262052477
 20
-2314.439603172406
 10
781.347417993301
 20
-2307.349321160094
 10
779.524524156227
 20
-2300.819364172643
 10
771.6521605344287
 20
-2297.305584896036
 10
761.5492736049246
 20
-2298.634907512223
 10
752.9644248363192
 20
-2299.764494413641
 10
758.0133469017355
 20
-2306.559626676943
 10
756.6534657044367
 20
-2310.692258595376
 10
756.527376267496
 20
-2311.075433413011
 10
756.63667260077
 20
-2311.53604147504
 10
756.63667260077
 20
-2311.960707427654
 97
        0
 97
        1
330
87
 92
        1
 93
        1
 72
     4
 94
        3
 73
     0
 74
     0
 95
       20
 96
       16
 40
0.0
 40
0.0
 40
0.0
 40
0.0
 40
1.0
 40
1.0
 40
1.0
 40
2.0
 40
2.0
 40
2.0
 40
3.0
 40
3.0
 40
3.0
 40
4.0
 40
4.0
 40
4.0
 40
5.0
 40
5.0
 40
5.0
 40
5.0
 10
765.0279771989126
 20
-2334.614867125965
 10
756.834217910714
 20
-2334.522208134243
 10
756.790234581801
 20
-2334.521682437084
 10
756.6928929913128
 20
-2342.801782615974
 10
756.6232478529646
 20
-2348.726292239135
 10
756.6348229255827
 20
-2354.653313526502
 10
756.7317069648388
 20
-2360.577258511974
 10
756.7615938218014
 20
-2362.404153488533
 10
756.5439551982499
 20
-2364.437939502292
 10
758.6989144070075
 20
-2365.546771101086
 10
765.5120371952843
 20
-2369.052333925814
 10
780.3817123134331
 20
-2363.397312242225
 10
783.3607115530185
 20
-2356.132605859802
 10
788.1640551644314
 20
-2344.418982837146
 10
779.9549435721865
 20
-2334.783654854324
 10
765.0279771989126
 20
-2334.614867125965
 97
        0
 97
        1
330
88
 92
        1
 93
        1
 72
     4
 94
        3
 73
     0
 74
     0
 95
       32
 96
       28
 40
0.0
 40
0.0
 40
0.0
 40
0.0
 40
1.0
 40
1.0
 40
1.0
 40
2.0
 40
2.0
 40
2.0
 40
3.0
 40
3.0
 40
3.0
 40
4.0
 40
4.0
 40
4.0
 40
5.0
 40
5.0
 40
5.0
 40
6.0
 40
6.0
 40
6.0
 40
7.0
 40
7.0
 40
7.0
 40
8.0
 40
8.0
 40
8.0
 40
9.0
 40
9.0
 40
9.0
 40
9.0
 10
781.3970184937033
 20
-2328.955717746172
 10
788.2302638009869
 20
-2331.973102613451
 10
793.3857368922954
 20
-2335.924865504017
 10
795.819841292131
 20
-2342.446625509852
 10
800.4125068997719
 20
-2354.751852538291
 10
794.3192484887813
 20
-2367.84299681845
 10
781.7606743705519
 20
-2372.429295649395
 10
770.6722610312835
 20
-2376.478740860086
 10
759.1772209400378
 20
-2375.490527553735
 10
747.716292753289
 20
-2374.703967783269
 10
744.7202180911854
 20
-2374.49836178356
 10
744.3737349881785
 20
-2372.536012172539
 10
744.3724402155467
 20
-2370.318757850517
 10
744.3578277815695
 20
-2345.257645037083
 10
744.4170173875472
 20
-2320.196434872324
 10
744.350857426657
 20
-2295.135507026411
 10
744.3412391156861
 20
-2291.492727508223
 10
746.2347516043637
 20
-2290.43374952328
 10
749.3934029802485
 20
-2290.085981382774
 10
757.4371049351366
 20
-2289.200395843888
 10
765.4520882489678
 20
-2288.739875398049
 10
773.5217343321355
 20
-2289.91861498377
 10
785.0443053782664
 20
-2291.601731787519
 10
791.9247758136052
 20
-2297.002043462759
 10
793.9097401375666
 20
-2306.198988691191
 10
795.6391767020477
 20
-2314.211976302846
 10
791.4243121188637
 20
-2322.300625364773
 10
781.3970184937033
 20
-2328.955717746172
 97
        0
 97
        1
330
89
 75
     2
 76
     1
 98
        1
 10
0.0
 20
0.0
450
        0
451
        0
460
0.0
461
0.0
452
        0
462
0.0
453
        0
470

  0
ENDSEC
  0
SECTION
  2
OBJECTS
  0
DICTIONARY
  5
C
330
0
100
AcDbDictionary
281
     1
  3
ACAD_COLOR
350
63
  3
ACAD_DETAILVIEWSTYLE
350
6A
  3
ACAD_GROUP
350
D
  3
ACAD_LAYOUT
350
62
  3
ACAD_MATERIAL
350
10
  3
ACAD_MLEADERSTYLE
350
66
  3
ACAD_MLINESTYLE
350
5F
  3
ACAD_PLOTSETTINGS
350
61
  3
ACAD_PLOTSTYLENAME
350
E
  3
ACAD_SCALELIST
350
42
  3
ACAD_SECTIONVIEWSTYLE
350
68
  3
ACAD_TABLESTYLE
350
64
  3
ACAD_VISUALSTYLE
350
29
  3
ACDB_RECOMPOSE_DATA
350
93
  3
AcDbVariableDictionary
350
8B
  0
DICTIONARY
  5
63
102
{ACAD_REACTORS
330
C
102
}
330
C
100
AcDbDictionary
281
     1
  0
DICTIONARY
  5
6A
102
{ACAD_REACTORS
330
C
102
}
330
C
100
AcDbDictionary
281
     1
  3
Imperial24
350
6B
  0
DICTIONARY
  5
D
102
{ACAD_REACTORS
330
C
102
}
330
C
100
AcDbDictionary
281
     1
  0
DICTIONARY
  5
62
102
{ACAD_REACTORS
330
C
102
}
330
C
100
AcDbDictionary
281
     1
  3
Layout1
350
6F
  3
Layout2
350
77
  3
Model
350
73
  0
DICTIONARY
  5
10
102
{ACAD_REACTORS
330
C
102
}
330
C
100
AcDbDictionary
281
     1
  3
ByBlock
350
19
  3
ByLayer
350
11
  3
Global
350
21
  0
DICTIONARY
  5
66
102
{ACAD_REACTORS
330
C
102
}
330
C
100
AcDbDictionary
281
     1
  3
Standard
350
67
  0
DICTIONARY
  5
5F
102
{ACAD_REACTORS
330
C
102
}
330
C
100
AcDbDictionary
281
     1
  3
Standard
350
60
  0
DICTIONARY
  5
61
102
{ACAD_REACTORS
330
C
102
}
330
C
100
AcDbDictionary
281
     1
  0
ACDBDICTIONARYWDFLT
  5
E
102
{ACAD_REACTORS
330
C
102
}
330
C
100
AcDbDictionary
281
     1
  3
Normal
350
F
100
AcDbDictionaryWithDefault
340
F
  0
DICTIONARY
  5
42
102
{ACAD_REACTORS
330
C
102
}
330
C
100
AcDbDictionary
281
     1
  3
A0
350
43
  3
A1
350
44
  3
A2
350
45
  3
A3
350
46
  3
A4
350
47
  3
A5
350
48
  3
A6
350
49
  3
A7
350
4A
  3
A8
350
4B
  3
A9
350
4C
  3
B0
350
4D
  3
B1
350
4E
  3
B2
350
4F
  3
B3
350
50
  3
B4
350
51
  3
B5
350
52
  3
B6
350
53
  0
DICTIONARY
  5
68
102
{ACAD_REACTORS
330
C
102
}
330
C
100
AcDbDictionary
281
     1
  3
Imperial24
350
69
  0
DICTIONARY
  5
64
102
{ACAD_REACTORS
330
C
102
}
330
C
100
AcDbDictionary
281
     1
  3
Standard
350
65
  0
DICTIONARY
  5
29
102
{ACAD_REACTORS
330
C
102
}
330
C
100
AcDbDictionary
281
     1
  3
2dWireframe
350
2F
  3
Basic
350
2E
  3
Brighten
350
35
  3
ColorChange
350
39
  3
Conceptual
350
32
  3
Dim
350
34
  3
EdgeColorOff
350
41
  3
Facepattern
350
38
  3
Flat
350
2A
  3
FlatWithEdges
350
2B
  3
Gouraud
350
2C
  3
GouraudWithEdges
350
2D
  3
Hidden
350
31
  3
JitterOff
350
3F
  3
Linepattern
350
37
  3
OverhangOff
350
40
  3
Realistic
350
33
  3
Shaded
350
3E
  3
Shaded with edges
350
3D
  3
Shades of Gray
350
3A
  3
Sketchy
350
3B
  3
Thicken
350
36
  3
Wireframe
350
30
  3
X-Ray
350
3C
  0
XRECORD
  5
93
102
{ACAD_REACTORS
330
C
102
}
330
C
100
AcDbXrecord
280
     1
 90
        1
330
65
  0
DICTIONARY
  5
8B
102
{ACAD_REACTORS
330
C
102
}
330
C
100
AcDbDictionary
281
     1
  3
CANNOSCALE
350
90
  3
CMLEADERSTYLE
350
8D
  3
CTABLESTYLE
350
8C
  3
CVIEWDETAILSTYLE
350
8E
  3
CVIEWSECTIONSTYLE
350
8F
  0
ACDBDETAILVIEWSTYLE
  5
6B
102
{ACAD_REACTORS
330
6A
102
}
330
6A
100
AcDbModelDocViewStyle
 70
     0
  3
Imperial24
290
     1
300
Imperial24
 90
        0
100
AcDbDetailViewStyle
 70
     0
 71
     0
 90
        3
 71
     1
340
55
 62
   256
 40
0.24
340
0
 62
   256
 40
0.24
300

 40
0.36
280
     3
 71
     2
340
5D
 90
       25
 62
   256
 71
     3
340
55
 62
   256
 40
0.24
 90
        1
 40
0.75
 90
        1
300
%<\AcVar ViewType \f "%tc1">% %<\AcVar ViewDetailId>%\PSCALE %<\AcVar ViewScale \f "%sn">%
 71
     4
340
5D
 90
       25
 62
   256
340
5D
 90
       25
 62
   256
280
     0
  0
LAYOUT
  5
6F
102
{ACAD_REACTORS
330
62
102
}
330
62
100
AcDbPlotSettings
  1

  2

  4

  6

 40
0.0
 41
0.0
 42
0.0
 43
0.0
 44
0.0
 45
0.0
 46
0.0
 47
0.0
 48
0.0
 49
0.0
140
0.0
141
0.0
142
1.0
143
1.0
 70
   688
 72
     0
 73
     0
 74
     5
  7

 75
    16
147
1.0
 76
     0
 77
     2
 78
   300
148
0.0
149
0.0
100
AcDbLayout
  1
Layout1
 70
     1
 71
     1
 10
0.0
 20
0.0
 11
12.0
 21
9.0
 12
0.0
 22
0.0
 32
0.0
 14
0.0
 24
0.0
 34
0.0
 15
0.0
 25
0.0
 35
0.0
146
0.0
 13
0.0
 23
0.0
 33
0.0
 16
1.0
 26
0.0
 36
0.0
 17
0.0
 27
1.0
 37
0.0
 76
     0
330
6C
  0
LAYOUT
  5
77
102
{ACAD_REACTORS
330
62
102
}
330
62
100
AcDbPlotSettings
  1

  2

  4

  6

 40
0.0
 41
0.0
 42
0.0
 43
0.0
 44
0.0
 45
0.0
 46
0.0
 47
0.0
 48
0.0
 49
0.0
140
0.0
141
0.0
142
1.0
143
1.0
 70
   688
 72
     0
 73
     0
 74
     5
  7

 75
    16
147
1.0
 76
     0
 77
     2
 78
   300
148
0.0
149
0.0
100
AcDbLayout
  1
Layout2
 70
     1
 71
     2
 10
0.0
 20
0.0
 11
12.0
 21
9.0
 12
0.0
 22
0.0
 32
0.0
 14
0.0
 24
0.0
 34
0.0
 15
0.0
 25
0.0
 35
0.0
146
0.0
 13
0.0
 23
0.0
 33
0.0
 16
1.0
 26
0.0
 36
0.0
 17
0.0
 27
1.0
 37
0.0
 76
     0
330
74
  0
LAYOUT
  5
73
102
{ACAD_REACTORS
330
62
102
}
330
62
100
AcDbPlotSettings
  1

  2

  4

  6

 40
0.0
 41
0.0
 42
0.0
 43
0.0
 44
0.0
 45
0.0
 46
0.0
 47
0.0
 48
0.0
 49
0.0
140
0.0
141
0.0
142
1.0
143
1.0
 70
  1712
 72
     0
 73
     0
 74
     0
  7

 75
     0
147
1.0
 76
     0
 77
     2
 78
   300
148
0.0
149
0.0
100
AcDbLayout
  1
Model
 70
     1
 71
     0
 10
0.0
 20
0.0
 11
12.0
 21
9.0
 12
0.0
 22
0.0
 32
0.0
 14
0.0
 24
0.0
 34
0.0
 15
0.0
 25
0.0
 35
0.0
146
0.0
 13
0.0
 23
0.0
 33
0.0
 16
1.0
 26
0.0
 36
0.0
 17
0.0
 27
1.0
 37
0.0
 76
     0
330
70
  0
MATERIAL
  5
19
102
{ACAD_XDICTIONARY
360
1A
102
}
102
{ACAD_REACTORS
330
10
102
}
330
10
100
AcDbMaterial
  1
ByBlock
 72
     0
 43
0.0208333333333333
 43
0.0
 43
0.0
 43
0.0
 43
0.0
 43
0.0208333333333333
 43
0.0
 43
0.0
 43
0.0
 43
0.0
 43
1.0
 43
0.0
 43
0.0
 43
0.0
 43
0.0
 43
1.0
 77
     0
 47
0.0208333333333333
 47
0.0
 47
0.0
 47
0.0
 47
0.0
 47
0.0208333333333333
 47
0.0
 47
0.0
 47
0.0
 47
0.0
 47
1.0
 47
0.0
 47
0.0
 47
0.0
 47
0.0
 47
1.0
171
     0
 49
0.0208333333333333
 49
0.0
 49
0.0
 49
0.0
 49
0.0
 49
0.0208333333333333
 49
0.0
 49
0.0
 49
0.0
 49
0.0
 49
1.0
 49
0.0
 49
0.0
 49
0.0
 49
0.0
 49
1.0
175
     0
142
0.0208333333333333
142
0.0
142
0.0
142
0.0
142
0.0
142
0.0208333333333333
142
0.0
142
0.0
142
0.0
142
0.0
142
1.0
142
0.0
142
0.0
142
0.0
142
0.0
142
1.0
179
     0
144
0.0208333333333333
144
0.0
144
0.0
144
0.0
144
0.0
144
0.0208333333333333
144
0.0
144
0.0
144
0.0
144
0.0
144
1.0
144
0.0
144
0.0
144
0.0
144
0.0
144
1.0
147
0.0208333333333333
147
0.0
147
0.0
147
0.0
147
0.0
147
0.0208333333333333
147
0.0
147
0.0
147
0.0
147
0.0
147
1.0
147
0.0
147
0.0
147
0.0
147
0.0
147
1.0
  0
MATERIAL
  5
11
102
{ACAD_XDICTIONARY
360
12
102
}
102
{ACAD_REACTORS
330
10
102
}
330
10
100
AcDbMaterial
  1
ByLayer
 72
     0
 43
0.0208333333333333
 43
0.0
 43
0.0
 43
0.0
 43
0.0
 43
0.0208333333333333
 43
0.0
 43
0.0
 43
0.0
 43
0.0
 43
1.0
 43
0.0
 43
0.0
 43
0.0
 43
0.0
 43
1.0
 77
     0
 47
0.0208333333333333
 47
0.0
 47
0.0
 47
0.0
 47
0.0
 47
0.0208333333333333
 47
0.0
 47
0.0
 47
0.0
 47
0.0
 47
1.0
 47
0.0
 47
0.0
 47
0.0
 47
0.0
 47
1.0
171
     0
 49
0.0208333333333333
 49
0.0
 49
0.0
 49
0.0
 49
0.0
 49
0.0208333333333333
 49
0.0
 49
0.0
 49
0.0
 49
0.0
 49
1.0
 49
0.0
 49
0.0
 49
0.0
 49
0.0
 49
1.0
175
     0
142
0.0208333333333333
142
0.0
142
0.0
142
0.0
142
0.0
142
0.0208333333333333
142
0.0
142
0.0
142
0.0
142
0.0
142
1.0
142
0.0
142
0.0
142
0.0
142
0.0
142
1.0
179
     0
144
0.0208333333333333
144
0.0
144
0.0
144
0.0
144
0.0
144
0.0208333333333333
144
0.0
144
0.0
144
0.0
144
0.0
144
1.0
144
0.0
144
0.0
144
0.0
144
0.0
144
1.0
147
0.0208333333333333
147
0.0
147
0.0
147
0.0
147
0.0
147
0.0208333333333333
147
0.0
147
0.0
147
0.0
147
0.0
147
1.0
147
0.0
147
0.0
147
0.0
147
0.0
147
1.0
  0
MATERIAL
  5
21
102
{ACAD_XDICTIONARY
360
22
102
}
102
{ACAD_REACTORS
330
10
102
}
330
10
100
AcDbMaterial
  1
Global
 72
     0
 43
0.0208333333333333
 43
0.0
 43
0.0
 43
0.0
 43
0.0
 43
0.0208333333333333
 43
0.0
 43
0.0
 43
0.0
 43
0.0
 43
1.0
 43
0.0
 43
0.0
 43
0.0
 43
0.0
 43
1.0
 77
     0
 47
0.0208333333333333
 47
0.0
 47
0.0
 47
0.0
 47
0.0
 47
0.0208333333333333
 47
0.0
 47
0.0
 47
0.0
 47
0.0
 47
1.0
 47
0.0
 47
0.0
 47
0.0
 47
0.0
 47
1.0
171
     0
 49
0.0208333333333333
 49
0.0
 49
0.0
 49
0.0
 49
0.0
 49
0.0208333333333333
 49
0.0
 49
0.0
 49
0.0
 49
0.0
 49
1.0
 49
0.0
 49
0.0
 49
0.0
 49
0.0
 49
1.0
175
     0
142
0.0208333333333333
142
0.0
142
0.0
142
0.0
142
0.0
142
0.0208333333333333
142
0.0
142
0.0
142
0.0
142
0.0
142
1.0
142
0.0
142
0.0
142
0.0
142
0.0
142
1.0
179
     0
144
0.0208333333333333
144
0.0
144
0.0
144
0.0
144
0.0
144
0.0208333333333333
144
0.0
144
0.0
144
0.0
144
0.0
144
1.0
144
0.0
144
0.0
144
0.0
144
0.0
144
1.0
147
0.0208333333333333
147
0.0
147
0.0
147
0.0
147
0.0
147
0.0208333333333333
147
0.0
147
0.0
147
0.0
147
0.0
147
1.0
147
0.0
147
0.0
147
0.0
147
0.0
147
1.0
  0
MLEADERSTYLE
  5
67
102
{ACAD_REACTORS
330
66
102
}
330
66
100
AcDbMLeaderStyle
179
     2
170
     2
171
     1
172
     0
 90
        2
 40
0.0
 41
0.0
173
     1
 91
-1056964608
340
5B
 92
       -2
290
     1
 42
0.09
291
     1
 43
0.36
  3
Standard
 44
0.18
300

342
55
174
     1
178
     6
175
     1
176
     0
 93
-1056964608
 45
0.18
292
     0
297
     0
 46
0.18
 94
-1056964608
 47
1.0
 49
1.0
140
1.0
293
     1
141
0.0
294
     1
177
     0
142
1.0
295
     1
296
     0
143
0.125
271
     0
272
     9
273
     9
298
     1
  0
MLINESTYLE
  5
60
102
{ACAD_REACTORS
330
5F
102
}
330
5F
100
AcDbMlineStyle
  2
STANDARD
 70
     0
  3

 62
   256
 51
90.0
 52
90.0
 71
     2
 49
0.5
 62
   256
  6
BYLAYER
 49
-0.5
 62
   256
  6
BYLAYER
  0
ACDBPLACEHOLDER
  5
F
102
{ACAD_REACTORS
330
E
102
}
330
E
  0
SCALE
  5
43
102
{ACAD_REACTORS
330
42
102
}
330
42
100
AcDbScale
 70
     0
300
1:1
140
1.0
141
1.0
290
     1
  0
SCALE
  5
44
102
{ACAD_REACTORS
330
42
102
}
330
42
100
AcDbScale
 70
     0
300
1/128" = 1'-0"
140
0.0078125
141
12.0
290
     0
  0
SCALE
  5
45
102
{ACAD_REACTORS
330
42
102
}
330
42
100
AcDbScale
 70
     0
300
1/64" = 1'-0"
140
0.015625
141
12.0
290
     0
  0
SCALE
  5
46
102
{ACAD_REACTORS
330
42
102
}
330
42
100
AcDbScale
 70
     0
300
1/32" = 1'-0"
140
0.03125
141
12.0
290
     0
  0
SCALE
  5
47
102
{ACAD_REACTORS
330
42
102
}
330
42
100
AcDbScale
 70
     0
300
1/16" = 1'-0"
140
0.0625
141
12.0
290
     0
  0
SCALE
  5
48
102
{ACAD_REACTORS
330
42
102
}
330
42
100
AcDbScale
 70
     0
300
3/32" = 1'-0"
140
0.09375
141
12.0
290
     0
  0
SCALE
  5
49
102
{ACAD_REACTORS
330
42
102
}
330
42
100
AcDbScale
 70
     0
300
1/8" = 1'-0"
140
0.125
141
12.0
290
     0
  0
SCALE
  5
4A
102
{ACAD_REACTORS
330
42
102
}
330
42
100
AcDbScale
 70
     0
300
3/16" = 1'-0"
140
0.1875
141
12.0
290
     0
  0
SCALE
  5
4B
102
{ACAD_REACTORS
330
42
102
}
330
42
100
AcDbScale
 70
     0
300
1/4" = 1'-0"
140
0.25
141
12.0
290
     0
  0
SCALE
  5
4C
102
{ACAD_REACTORS
330
42
102
}
330
42
100
AcDbScale
 70
     0
300
3/8" = 1'-0"
140
0.375
141
12.0
290
     0
  0
SCALE
  5
4D
102
{ACAD_REACTORS
330
42
102
}
330
42
100
AcDbScale
 70
     0
300
1/2" = 1'-0"
140
0.5
141
12.0
290
     0
  0
SCALE
  5
4E
102
{ACAD_REACTORS
330
42
102
}
330
42
100
AcDbScale
 70
     0
300
3/4" = 1'-0"
140
0.75
141
12.0
290
     0
  0
SCALE
  5
4F
102
{ACAD_REACTORS
330
42
102
}
330
42
100
AcDbScale
 70
     0
300
1" = 1'-0"
140
1.0
141
12.0
290
     0
  0
SCALE
  5
50
102
{ACAD_REACTORS
330
42
102
}
330
42
100
AcDbScale
 70
     0
300
1-1/2" = 1'-0"
140
1.5
141
12.0
290
     0
  0
SCALE
  5
51
102
{ACAD_REACTORS
330
42
102
}
330
42
100
AcDbScale
 70
     0
300
3" = 1'-0"
140
3.0
141
12.0
290
     0
  0
SCALE
  5
52
102
{ACAD_REACTORS
330
42
102
}
330
42
100
AcDbScale
 70
     0
300
6" = 1'-0"
140
6.0
141
12.0
290
     0
  0
SCALE
  5
53
102
{ACAD_REACTORS
330
42
102
}
330
42
100
AcDbScale
 70
     0
300
1'-0" = 1'-0"
140
12.0
141
12.0
290
     0
  0
ACDBSECTIONVIEWSTYLE
  5
69
102
{ACAD_REACTORS
330
68
102
}
330
68
100
AcDbModelDocViewStyle
 70
     0
  3
Imperial24
290
     1
300
Imperial24
 90
        0
100
AcDbSectionViewStyle
 70
     0
 71
     0
 90
       78
 71
     1
340
55
 62
   256
 40
0.24
340
0
340
0
 62
   256
 40
0.24
300
I, O, Q, S, X, Z
 40
0.48
 90
        3
 40
0.18
 90
        1
 71
     2
340
5D
 90
       25
 62
   256
340
5D
 90
       50
 62
   256
 40
0.24
 40
0.0
 40
0.24
 71
     3
340
55
 62
   256
 40
0.24
 90
        1
 40
0.75
 90
        1
300
%<\AcVar ViewType \f "%tc1">% %<\AcVar ViewSectionStartId>%-%<\AcVar ViewSectionEndId>%\PSCALE %<\AcVar ViewScale \f "%sn">%
 71
     4
 62
   256
 62
   257
300
ANSI31
 40
1.0
 90
        0
290
     0
290
     0
 90
        6
 40
0.0
 40
1.570796326794896
 40
0.2617993877991494
 40
1.308996938995747
 40
-0.2617993877991494
 40
1.832595714594046
  0
TABLESTYLE
  5
65
102
{ACAD_XDICTIONARY
360
91
102
}
102
{ACAD_REACTORS
330
64
102
}
330
64
100
AcDbTableStyle
280
     0
  3
Standard
 70
     0
 71
     0
 40
0.06
 41
0.06
280
     0
281
     0
  7
Standard
140
0.18
170
     2
 62
     0
 63
     7
283
     0
 90
      512
 91
        0
  1

274
    -2
284
     1
 64
     0
275
    -2
285
     1
 65
     0
276
    -2
286
     1
 66
     0
277
    -2
287
     1
 67
     0
278
    -2
288
     1
 68
     0
279
    -2
289
     1
 69
     0
  7
Standard
140
0.25
170
     5
 62
     0
 63
     7
283
     0
 90
      512
 91
        0
  1

274
    -2
284
     1
 64
     0
275
    -2
285
     1
 65
     0
276
    -2
286
     1
 66
     0
277
    -2
287
     1
 67
     0
278
    -2
288
     1
 68
     0
279
    -2
289
     1
 69
     0
  7
Standard
140
0.18
170
     5
 62
     0
 63
     7
283
     0
 90
      512
 91
        0
  1

274
    -2
284
     1
 64
     0
275
    -2
285
     1
 65
     0
276
    -2
286
     1
 66
     0
277
    -2
287
     1
 67
     0
278
    -2
288
     1
 68
     0
279
    -2
289
     1
 69
     0
  0
VISUALSTYLE
  5
2F
102
{ACAD_REACTORS
330
29
102
}
330
29
100
AcDbVisualStyle
  2
2dWireframe
 70
     4
177
     3
291
     0
 70
    58
 90
        0
176
     1
 90
        2
176
     1
 90
        0
176
     1
 90
        0
176
     1
 40
0.6
176
     1
 40
30.0
176
     1
 62
     7
420
 16777215
176
     1
 90
        1
176
     1
 90
        4
176
     1
 62
     7
176
     1
 62
   257
176
     1
 90
        1
176
     1
 90
        1
176
     1
 40
1.0
176
     1
 90
        0
176
     1
 62
   257
176
     1
 40
1.0
176
     1
 90
        1
176
     1
 90
        6
176
     1
 90
        2
176
     1
 62
     7
176
     1
 90
        5
176
     1
 90
        0
176
     1
 90
        0
176
     1
290
     0
176
     1
 90
        1
176
     1
 40
0.0
176
     1
 90
        0
176
     1
290
     1
176
     1
290
     1
176
     1
290
     0
176
     1
290
     0
176
     1
290
     0
176
     1
290
     0
176
     1
290
     0
176
     1
290
     0
176
     1
290
     0
176
     1
 90
       50
176
     1
 40
0.0
176
     1
 40
1.0
176
     1
 90
        0
176
     1
 62
    18
420
        0
176
     1
 90
       50
176
     1
 90
        3
176
     1
 62
     5
420
      255
176
     1
290
     0
176
     1
 90
       50
176
     1
 90
       50
176
     1
 90
       50
176
     1
290
     0
176
     1
 90
       50
176
     1
 62
   256
176
     0
 40
1.0
176
     0
 90
        2
176
     1
  1
strokes_ogs.tif
176
     1
290
     0
176
     1
 40
1.0
176
     1
 40
1.0
176
     1
  0
VISUALSTYLE
  5
2E
102
{ACAD_REACTORS
330
29
102
}
330
29
100
AcDbVisualStyle
  2
Basic
 70
     7
177
     3
291
     1
 70
    58
 90
        1
176
     1
 90
        0
176
     1
 90
        1
176
     1
 90
        0
176
     1
 40
0.6
176
     1
 40
30.0
176
     1
 62
     7
420
 16777215
176
     1
 90
        0
176
     1
 90
        4
176
     1
 62
     7
176
     1
 62
   257
176
     1
 90
        1
176
     1
 90
        1
176
     1
 40
1.0
176
     1
 90
        8
176
     1
 62
     7
176
     1
 40
1.0
176
     1
 90
        1
176
     1
 90
        6
176
     1
 90
        2
176
     1
 62
     7
176
     1
 90
        5
176
     1
 90
        0
176
     1
 90
        0
176
     1
290
     0
176
     1
 90
        1
176
     1
 40
0.0
176
     1
 90
        0
176
     1
290
     0
176
     1
290
     1
176
     1
290
     1
176
     1
290
     0
176
     1
290
     0
176
     1
290
     0
176
     1
290
     0
176
     1
290
     0
176
     1
290
     0
176
     1
 90
       50
176
     1
 40
0.0
176
     1
 40
1.0
176
     1
 90
        0
176
     1
 62
    18
420
        0
176
     1
 90
       50
176
     1
 90
        3
176
     1
 62
     5
420
      255
176
     1
290
     0
176
     1
 90
       50
176
     1
 90
       50
176
     1
 90
       50
176
     1
290
     0
176
     1
 90
       50
176
     1
 62
   256
176
     0
 40
1.0
176
     0
 90
        2
176
     1
  1
strokes_ogs.tif
176
     1
290
     0
176
     1
 40
1.0
176
     1
 40
1.0
176
     1
  0
VISUALSTYLE
  5
35
102
{ACAD_REACTORS
330
29
102
}
330
29
100
AcDbVisualStyle
  2
Brighten
 70
    12
177
     3
291
     1
 70
    58
 90
        2
176
     1
 90
        2
176
     1
 90
        0
176
     1
 90
        0
176
     1
 40
0.6
176
     1
 40
30.0
176
     1
 62
     7
420
 16777215
176
     1
 90
        1
176
     1
 90
        4
176
     1
 62
     7
176
     1
 62
   257
176
     1
 90
        1
176
     1
 90
        1
176
     1
 40
1.0
176
     1
 90
        8
176
     1
 62
     7
176
     1
 40
1.0
176
     1
 90
        1
176
     1
 90
        6
176
     1
 90
        2
176
     1
 62
     7
176
     1
 90
        5
176
     1
 90
        0
176
     1
 90
        0
176
     1
290
     0
176
     1
 90
        1
176
     1
 40
50.0
176
     1
 90
        0
176
     1
290
     0
176
     1
290
     1
176
     1
290
     1
176
     1
290
     0
176
     1
290
     0
176
     1
290
     0
176
     1
290
     0
176
     1
290
     0
176
     1
290
     0
176
     1
 90
       50
176
     1
 40
0.0
176
     1
 40
1.0
176
     1
 90
        0
176
     1
 62
    18
420
        0
176
     1
 90
       50
176
     1
 90
        3
176
     1
 62
     5
420
      255
176
     1
290
     0
176
     1
 90
       50
176
     1
 90
       50
176
     1
 90
       50
176
     1
290
     0
176
     1
 90
       50
176
     1
 62
   256
176
     0
 40
1.0
176
     0
 90
        2
176
     1
  1
strokes_ogs.tif
176
     1
290
     0
176
     1
 40
1.0
176
     1
 40
1.0
176
     1
  0
VISUALSTYLE
  5
39
102
{ACAD_REACTORS
330
29
102
}
330
29
100
AcDbVisualStyle
  2
ColorChange
 70
    16
177
     3
291
     1
 70
    58
 90
        2
176
     1
 90
        2
176
     1
 90
        3
176
     1
 90
        0
176
     1
 40
0.6
176
     1
 40
30.0
176
     1
 62
     8
420
  8421504
176
     1
 90
        1
176
     1
 90
        4
176
     1
 62
     7
176
     1
 62
   257
176
     1
 90
        1
176
     1
 90
        1
176
     1
 40
1.0
176
     1
 90
        8
176
     1
 62
     8
420
  8421504
176
     1
 40
1.0
176
     1
 90
        1
176
     1
 90
        6
176
     1
 90
        2
176
     1
 62
     7
176
     1
 90
        5
176
     1
 90
        0
176
     1
 90
        0
176
     1
290
     0
176
     1
 90
        1
176
     1
 40
0.0
176
     1
 90
        0
176
     1
290
     0
176
     1
290
     1
176
     1
290
     1
176
     1
290
     0
176
     1
290
     0
176
     1
290
     0
176
     1
290
     0
176
     1
290
     0
176
     1
290
     0
176
     1
 90
       50
176
     1
 40
0.0
176
     1
 40
1.0
176
     1
 90
        0
176
     1
 62
    18
420
        0
176
     1
 90
       50
176
     1
 90
        3
176
     1
 62
     5
420
      255
176
     1
290
     0
176
     1
 90
       50
176
     1
 90
       50
176
     1
 90
       50
176
     1
290
     0
176
     1
 90
       50
176
     1
 62
   256
176
     0
 40
1.0
176
     0
 90
        2
176
     1
  1
strokes_ogs.tif
176
     1
290
     0
176
     1
 40
1.0
176
     1
 40
1.0
176
     1
  0
VISUALSTYLE
  5
32
102
{ACAD_REACTORS
330
29
102
}
330
29
100
AcDbVisualStyle
  2
Conceptual
 70
     9
177
     3
291
     0
 70
    58
 90
        3
176
     1
 90
        2
176
     1
 90
        0
176
     1
 90
        0
176
     1
 40
0.6
176
     1
 40
30.0
176
     1
 62
     7
420
 16777215
176
     1
 90
        2
176
     1
 90
        2
176
     1
 62
     7
176
     1
 62
   257
176
     1
 90
        1
176
     1
 90
        1
176
     1
 40
179.0
176
     1
 90
        8
176
     1
 62
     7
176
     1
 40
1.0
176
     1
 90
        1
176
     1
 90
        6
176
     1
 90
        2
176
     1
 62
     7
176
     1
 90
        3
176
     1
 90
        0
176
     1
 90
        0
176
     1
290
     0
176
     1
 90
        1
176
     1
 40
0.0
176
     1
 90
        0
176
     1
290
     0
176
     1
290
     1
176
     1
290
     1
176
     1
290
     0
176
     1
290
     0
176
     1
290
     0
176
     1
290
     0
176
     1
290
     0
176
     1
290
     0
176
     1
 90
       50
176
     1
 40
0.0
176
     1
 40
1.0
176
     1
 90
        0
176
     1
 62
    18
420
        0
176
     1
 90
       50
176
     1
 90
        3
176
     1
 62
     5
420
      255
176
     1
290
     0
176
     1
 90
       50
176
     1
 90
       50
176
     1
 90
       50
176
     1
290
     0
176
     1
 90
       50
176
     1
 62
   256
176
     0
 40
1.0
176
     0
 90
        2
176
     1
  1
strokes_ogs.tif
176
     1
290
     0
176
     1
 40
1.0
176
     1
 40
1.0
176
     1
  0
VISUALSTYLE
  5
34
102
{ACAD_REACTORS
330
29
102
}
330
29
100
AcDbVisualStyle
  2
Dim
 70
    11
177
     3
291
     1
 70
    58
 90
        2
176
     1
 90
        2
176
     1
 90
        0
176
     1
 90
        0
176
     1
 40
0.6
176
     1
 40
30.0
176
     1
 62
     7
420
 16777215
176
     1
 90
        1
176
     1
 90
        4
176
     1
 62
     7
176
     1
 62
   257
176
     1
 90
        1
176
     1
 90
        1
176
     1
 40
1.0
176
     1
 90
        8
176
     1
 62
     7
176
     1
 40
1.0
176
     1
 90
        1
176
     1
 90
        6
176
     1
 90
        2
176
     1
 62
     7
176
     1
 90
        5
176
     1
 90
        0
176
     1
 90
        0
176
     1
290
     0
176
     1
 90
        1
176
     1
 40
-50.0
176
     1
 90
        0
176
     1
290
     0
176
     1
290
     1
176
     1
290
     1
176
     1
290
     0
176
     1
290
     0
176
     1
290
     0
176
     1
290
     0
176
     1
290
     0
176
     1
290
     0
176
     1
 90
       50
176
     1
 40
0.0
176
     1
 40
1.0
176
     1
 90
        0
176
     1
 62
    18
420
        0
176
     1
 90
       50
176
     1
 90
        3
176
     1
 62
     5
420
      255
176
     1
290
     0
176
     1
 90
       50
176
     1
 90
       50
176
     1
 90
       50
176
     1
290
     0
176
     1
 90
       50
176
     1
 62
   256
176
     0
 40
1.0
176
     0
 90
        2
176
     1
  1
strokes_ogs.tif
176
     1
290
     0
176
     1
 40
1.0
176
     1
 40
1.0
176
     1
  0
VISUALSTYLE
  5
41
102
{ACAD_REACTORS
330
29
102
}
330
29
100
AcDbVisualStyle
  2
EdgeColorOff
 70
    22
177
     3
291
     1
 70
    58
 90
        2
176
     0
 90
        2
176
     0
 90
        0
176
     0
 90
        0
176
     0
 40
0.6
176
     0
 40
30.0
176
     0
 62
     7
420
 16777215
176
     0
 90
        1
176
     0
 90
        4
176
     0
 62
     7
176
     0
 62
   257
176
     0
 90
        1
176
     0
 90
        1
176
     0
 40
1.0
176
     0
 90
        8
176
     2
 62
     7
176
     0
 40
1.0
176
     0
 90
        1
176
     0
 90
        6
176
     0
 90
        2
176
     0
 62
     7
176
     0
 90
        5
176
     0
 90
        0
176
     0
 90
        0
176
     0
290
     0
176
     0
 90
        1
176
     0
 40
0.0
176
     0
 90
        0
176
     0
290
     0
176
     0
290
     1
176
     0
290
     1
176
     0
290
     0
176
     0
290
     0
176
     0
290
     0
176
     0
290
     0
176
     0
290
     0
176
     0
290
     0
176
     0
 90
       50
176
     0
 40
0.0
176
     0
 40
1.0
176
     0
 90
        0
176
     0
 62
    18
420
        0
176
     0
 90
       50
176
     0
 90
        3
176
     0
 62
     5
420
      255
176
     0
290
     0
176
     0
 90
       50
176
     0
 90
       50
176
     0
 90
       50
176
     0
290
     0
176
     0
 90
       50
176
     0
 62
   256
176
     0
 40
1.0
176
     0
 90
        2
176
     0
  1
strokes_ogs.tif
176
     0
290
     0
176
     0
 40
1.0
176
     0
 40
1.0
176
     0
  0
VISUALSTYLE
  5
38
102
{ACAD_REACTORS
330
29
102
}
330
29
100
AcDbVisualStyle
  2
Facepattern
 70
    15
177
     3
291
     1
 70
    58
 90
        2
176
     1
 90
        2
176
     1
 90
        0
176
     1
 90
        0
176
     1
 40
0.6
176
     1
 40
30.0
176
     1
 62
     7
420
 16777215
176
     1
 90
        1
176
     1
 90
        4
176
     1
 62
     7
176
     1
 62
   257
176
     1
 90
        1
176
     1
 90
        1
176
     1
 40
1.0
176
     1
 90
        8
176
     1
 62
     7
176
     1
 40
1.0
176
     1
 90
        1
176
     1
 90
        6
176
     1
 90
        2
176
     1
 62
     7
176
     1
 90
        5
176
     1
 90
        0
176
     1
 90
        0
176
     1
290
     0
176
     1
 90
        1
176
     1
 40
0.0
176
     1
 90
        0
176
     1
290
     0
176
     1
290
     1
176
     1
290
     1
176
     1
290
     0
176
     1
290
     0
176
     1
290
     0
176
     1
290
     0
176
     1
290
     0
176
     1
290
     0
176
     1
 90
       50
176
     1
 40
0.0
176
     1
 40
1.0
176
     1
 90
        0
176
     1
 62
    18
420
        0
176
     1
 90
       50
176
     1
 90
        3
176
     1
 62
     5
420
      255
176
     1
290
     0
176
     1
 90
       50
176
     1
 90
       50
176
     1
 90
       50
176
     1
290
     0
176
     1
 90
       50
176
     1
 62
   256
176
     0
 40
1.0
176
     0
 90
        2
176
     1
  1
strokes_ogs.tif
176
     1
290
     0
176
     1
 40
1.0
176
     1
 40
1.0
176
     1
  0
VISUALSTYLE
  5
2A
102
{ACAD_REACTORS
330
29
102
}
330
29
100
AcDbVisualStyle
  2
Flat
 70
     0
177
     3
291
     1
 70
    58
 90
        2
176
     1
 90
        1
176
     1
 90
        1
176
     1
 90
        2
176
     1
 40
0.6
176
     1
 40
30.0
176
     1
 62
     7
420
 16777215
176
     1
 90
        0
176
     1
 90
        0
176
     1
 62
     7
176
     1
 62
   257
176
     1
 90
        1
176
     1
 90
        1
176
     1
 40
1.0
176
     1
 90
        8
176
     1
 62
     7
176
     1
 40
1.0
176
     1
 90
        1
176
     1
 90
        6
176
     1
 90
        2
176
     1
 62
     7
176
     1
 90
        5
176
     1
 90
        0
176
     1
 90
        0
176
     1
290
     0
176
     1
 90
       13
176
     1
 40
0.0
176
     1
 90
        0
176
     1
290
     0
176
     1
290
     1
176
     1
290
     1
176
     1
290
     0
176
     1
290
     0
176
     1
290
     0
176
     1
290
     0
176
     1
290
     0
176
     1
290
     0
176
     1
 90
       50
176
     1
 40
0.0
176
     1
 40
1.0
176
     1
 90
        0
176
     1
 62
    18
420
        0
176
     1
 90
       50
176
     1
 90
        3
176
     1
 62
     5
420
      255
176
     1
290
     0
176
     1
 90
       50
176
     1
 90
       50
176
     1
 90
       50
176
     1
290
     0
176
     1
 90
       50
176
     1
 62
   256
176
     0
 40
1.0
176
     0
 90
        2
176
     1
  1
strokes_ogs.tif
176
     1
290
     0
176
     1
 40
1.0
176
     1
 40
1.0
176
     1
  0
VISUALSTYLE
  5
2B
102
{ACAD_REACTORS
330
29
102
}
330
29
100
AcDbVisualStyle
  2
FlatWithEdges
 70
     1
177
     3
291
     1
 70
    58
 90
        2
176
     1
 90
        1
176
     1
 90
        1
176
     1
 90
        2
176
     1
 40
0.6
176
     1
 40
30.0
176
     1
 62
     7
420
 16777215
176
     1
 90
        1
176
     1
 90
        0
176
     1
 62
     7
176
     1
 62
   257
176
     1
 90
        1
176
     1
 90
        1
176
     1
 40
1.0
176
     1
 90
        0
176
     1
 62
   257
176
     1
 40
1.0
176
     1
 90
        1
176
     1
 90
        6
176
     1
 90
        2
176
     1
 62
     7
176
     1
 90
        5
176
     1
 90
        0
176
     1
 90
        0
176
     1
290
     0
176
     1
 90
       13
176
     1
 40
0.0
176
     1
 90
        0
176
     1
290
     0
176
     1
290
     1
176
     1
290
     1
176
     1
290
     0
176
     1
290
     0
176
     1
290
     0
176
     1
290
     0
176
     1
290
     0
176
     1
290
     0
176
     1
 90
       50
176
     1
 40
0.0
176
     1
 40
1.0
176
     1
 90
        0
176
     1
 62
    18
420
        0
176
     1
 90
       50
176
     1
 90
        3
176
     1
 62
     5
420
      255
176
     1
290
     0
176
     1
 90
       50
176
     1
 90
       50
176
     1
 90
       50
176
     1
290
     0
176
     1
 90
       50
176
     1
 62
   256
176
     0
 40
1.0
176
     0
 90
        2
176
     1
  1
strokes_ogs.tif
176
     1
290
     0
176
     1
 40
1.0
176
     1
 40
1.0
176
     1
  0
VISUALSTYLE
  5
2C
102
{ACAD_REACTORS
330
29
102
}
330
29
100
AcDbVisualStyle
  2
Gouraud
 70
     2
177
     3
291
     1
 70
    58
 90
        2
176
     1
 90
        2
176
     1
 90
        1
176
     1
 90
        2
176
     1
 40
0.6
176
     1
 40
30.0
176
     1
 62
     7
420
 16777215
176
     1
 90
        0
176
     1
 90
        0
176
     1
 62
     7
176
     1
 62
   257
176
     1
 90
        1
176
     1
 90
        1
176
     1
 40
1.0
176
     1
 90
        0
176
     1
 62
     7
176
     1
 40
1.0
176
     1
 90
        1
176
     1
 90
        6
176
     1
 90
        2
176
     1
 62
     7
176
     1
 90
        5
176
     1
 90
        0
176
     1
 90
        0
176
     1
290
     0
176
     1
 90
       13
176
     1
 40
0.0
176
     1
 90
        0
176
     1
290
     0
176
     1
290
     1
176
     1
290
     1
176
     1
290
     0
176
     1
290
     0
176
     1
290
     0
176
     1
290
     0
176
     1
290
     0
176
     1
290
     0
176
     1
 90
       50
176
     1
 40
0.0
176
     1
 40
1.0
176
     1
 90
        0
176
     1
 62
    18
420
        0
176
     1
 90
       50
176
     1
 90
        3
176
     1
 62
     5
420
      255
176
     1
290
     0
176
     1
 90
       50
176
     1
 90
       50
176
     1
 90
       50
176
     1
290
     0
176
     1
 90
       50
176
     1
 62
   256
176
     0
 40
1.0
176
     0
 90
        2
176
     1
  1
strokes_ogs.tif
176
     1
290
     0
176
     1
 40
1.0
176
     1
 40
1.0
176
     1
  0
VISUALSTYLE
  5
2D
102
{ACAD_REACTORS
330
29
102
}
330
29
100
AcDbVisualStyle
  2
GouraudWithEdges
 70
     3
177
     3
291
     1
 70
    58
 90
        2
176
     1
 90
        2
176
     1
 90
        1
176
     1
 90
        2
176
     1
 40
0.6
176
     1
 40
30.0
176
     1
 62
     7
420
 16777215
176
     1
 90
        1
176
     1
 90
        0
176
     1
 62
     7
176
     1
 62
   257
176
     1
 90
        1
176
     1
 90
        1
176
     1
 40
1.0
176
     1
 90
        0
176
     1
 62
   257
176
     1
 40
1.0
176
     1
 90
        1
176
     1
 90
        6
176
     1
 90
        2
176
     1
 62
     7
176
     1
 90
        5
176
     1
 90
        0
176
     1
 90
        0
176
     1
290
     0
176
     1
 90
       13
176
     1
 40
0.0
176
     1
 90
        0
176
     1
290
     0
176
     1
290
     1
176
     1
290
     1
176
     1
290
     0
176
     1
290
     0
176
     1
290
     0
176
     1
290
     0
176
     1
290
     0
176
     1
290
     0
176
     1
 90
       50
176
     1
 40
0.0
176
     1
 40
1.0
176
     1
 90
        0
176
     1
 62
    18
420
        0
176
     1
 90
       50
176
     1
 90
        3
176
     1
 62
     5
420
      255
176
     1
290
     0
176
     1
 90
       50
176
     1
 90
       50
176
     1
 90
       50
176
     1
290
     0
176
     1
 90
       50
176
     1
 62
   256
176
     0
 40
1.0
176
     0
 90
        2
176
     1
  1
strokes_ogs.tif
176
     1
290
     0
176
     1
 40
1.0
176
     1
 40
1.0
176
     1
  0
VISUALSTYLE
  5
31
102
{ACAD_REACTORS
330
29
102
}
330
29
100
AcDbVisualStyle
  2
Hidden
 70
     6
177
     3
291
     0
 70
    58
 90
        1
176
     1
 90
        2
176
     1
 90
        2
176
     1
 90
        0
176
     1
 40
0.6
176
     1
 40
30.0
176
     1
 62
     7
420
 16777215
176
     1
 90
        2
176
     1
 90
        2
176
     1
 62
     7
176
     1
 62
   257
176
     1
 90
        2
176
     1
 90
        1
176
     1
 40
40.0
176
     1
 90
        0
176
     1
 62
   257
176
     1
 40
1.0
176
     1
 90
        1
176
     1
 90
        6
176
     1
 90
        2
176
     1
 62
     7
176
     1
 90
        3
176
     1
 90
        0
176
     1
 90
        0
176
     1
290
     0
176
     1
 90
        1
176
     1
 40
0.0
176
     1
 90
        0
176
     1
290
     0
176
     1
290
     1
176
     1
290
     1
176
     1
290
     0
176
     1
290
     0
176
     1
290
     0
176
     1
290
     0
176
     1
290
     0
176
     1
290
     0
176
     1
 90
       50
176
     1
 40
0.0
176
     1
 40
1.0
176
     1
 90
        0
176
     1
 62
    18
420
        0
176
     1
 90
       50
176
     1
 90
        3
176
     1
 62
     5
420
      255
176
     1
290
     0
176
     1
 90
       50
176
     1
 90
       50
176
     1
 90
       50
176
     1
290
     0
176
     1
 90
       50
176
     1
 62
   256
176
     0
 40
1.0
176
     0
 90
        2
176
     1
  1
strokes_ogs.tif
176
     1
290
     0
176
     1
 40
1.0
176
     1
 40
1.0
176
     1
  0
VISUALSTYLE
  5
3F
102
{ACAD_REACTORS
330
29
102
}
330
29
100
AcDbVisualStyle
  2
JitterOff
 70
    20
177
     3
291
     1
 70
    58
 90
        2
176
     0
 90
        2
176
     0
 90
        0
176
     0
 90
        0
176
     0
 40
0.6
176
     0
 40
30.0
176
     0
 62
     7
420
 16777215
176
     0
 90
        1
176
     0
 90
        4
176
     0
 62
     7
176
     0
 62
   257
176
     0
 90
        1
176
     0
 90
        1
176
     0
 40
1.0
176
     0
 90
       10
176
     2
 62
     7
176
     0
 40
1.0
176
     0
 90
        1
176
     0
 90
        6
176
     0
 90
        2
176
     0
 62
     7
176
     0
 90
        5
176
     0
 90
        0
176
     0
 90
        0
176
     0
290
     0
176
     0
 90
        1
176
     0
 40
0.0
176
     0
 90
        0
176
     0
290
     0
176
     0
290
     1
176
     0
290
     1
176
     0
290
     0
176
     0
290
     0
176
     0
290
     0
176
     0
290
     0
176
     0
290
     0
176
     0
290
     0
176
     0
 90
       50
176
     0
 40
0.0
176
     0
 40
1.0
176
     0
 90
        0
176
     0
 62
    18
420
        0
176
     0
 90
       50
176
     0
 90
        3
176
     0
 62
     5
420
      255
176
     0
290
     0
176
     0
 90
       50
176
     0
 90
       50
176
     0
 90
       50
176
     0
290
     0
176
     0
 90
       50
176
     0
 62
   256
176
     0
 40
1.0
176
     0
 90
        2
176
     0
  1
strokes_ogs.tif
176
     0
290
     0
176
     0
 40
1.0
176
     0
 40
1.0
176
     0
  0
VISUALSTYLE
  5
37
102
{ACAD_REACTORS
330
29
102
}
330
29
100
AcDbVisualStyle
  2
Linepattern
 70
    14
177
     3
291
     1
 70
    58
 90
        2
176
     1
 90
        2
176
     1
 90
        0
176
     1
 90
        0
176
     1
 40
0.6
176
     1
 40
30.0
176
     1
 62
     7
420
 16777215
176
     1
 90
        1
176
     1
 90
        4
176
     1
 62
     7
176
     1
 62
   257
176
     1
 90
        7
176
     1
 90
        7
176
     1
 40
1.0
176
     1
 90
        8
176
     1
 62
     7
176
     1
 40
1.0
176
     1
 90
        1
176
     1
 90
        6
176
     1
 90
        2
176
     1
 62
     7
176
     1
 90
        5
176
     1
 90
        0
176
     1
 90
        0
176
     1
290
     0
176
     1
 90
        1
176
     1
 40
0.0
176
     1
 90
        0
176
     1
290
     0
176
     1
290
     1
176
     1
290
     1
176
     1
290
     0
176
     1
290
     0
176
     1
290
     0
176
     1
290
     0
176
     1
290
     0
176
     1
290
     0
176
     1
 90
       50
176
     1
 40
0.0
176
     1
 40
1.0
176
     1
 90
        0
176
     1
 62
    18
420
        0
176
     1
 90
       50
176
     1
 90
        3
176
     1
 62
     5
420
      255
176
     1
290
     0
176
     1
 90
       50
176
     1
 90
       50
176
     1
 90
       50
176
     1
290
     0
176
     1
 90
       50
176
     1
 62
   256
176
     0
 40
1.0
176
     0
 90
        2
176
     1
  1
strokes_ogs.tif
176
     1
290
     0
176
     1
 40
1.0
176
     1
 40
1.0
176
     1
  0
VISUALSTYLE
  5
40
102
{ACAD_REACTORS
330
29
102
}
330
29
100
AcDbVisualStyle
  2
OverhangOff
 70
    21
177
     3
291
     1
 70
    58
 90
        2
176
     0
 90
        2
176
     0
 90
        0
176
     0
 90
        0
176
     0
 40
0.6
176
     0
 40
30.0
176
     0
 62
     7
420
 16777215
176
     0
 90
        1
176
     0
 90
        4
176
     0
 62
     7
176
     0
 62
   257
176
     0
 90
        1
176
     0
 90
        1
176
     0
 40
1.0
176
     0
 90
        9
176
     2
 62
     7
176
     0
 40
1.0
176
     0
 90
        1
176
     0
 90
        6
176
     0
 90
        2
176
     0
 62
     7
176
     0
 90
        5
176
     0
 90
        0
176
     0
 90
        0
176
     0
290
     0
176
     0
 90
        1
176
     0
 40
0.0
176
     0
 90
        0
176
     0
290
     0
176
     0
290
     1
176
     0
290
     1
176
     0
290
     0
176
     0
290
     0
176
     0
290
     0
176
     0
290
     0
176
     0
290
     0
176
     0
290
     0
176
     0
 90
       50
176
     0
 40
0.0
176
     0
 40
1.0
176
     0
 90
        0
176
     0
 62
    18
420
        0
176
     0
 90
       50
176
     0
 90
        3
176
     0
 62
     5
420
      255
176
     0
290
     0
176
     0
 90
       50
176
     0
 90
       50
176
     0
 90
       50
176
     0
290
     0
176
     0
 90
       50
176
     0
 62
   256
176
     0
 40
1.0
176
     0
 90
        2
176
     0
  1
strokes_ogs.tif
176
     0
290
     0
176
     0
 40
1.0
176
     0
 40
1.0
176
     0
  0
VISUALSTYLE
  5
33
102
{ACAD_REACTORS
330
29
102
}
330
29
100
AcDbVisualStyle
  2
Realistic
 70
     8
177
     3
291
     0
 70
    58
 90
        2
176
     1
 90
        3
176
     1
 90
        0
176
     1
 90
        2
176
     1
 40
0.6
176
     1
 40
30.0
176
     1
 62
     7
420
 16777215
176
     1
 90
        0
176
     1
 90
        0
176
     1
 62
     7
176
     1
 62
   257
176
     1
 90
        1
176
     1
 90
        1
176
     1
 40
1.0
176
     1
 90
        8
176
     1
 62
   257
176
     1
 40
1.0
176
     1
 90
        1
176
     1
 90
        6
176
     1
 90
        2
176
     1
 62
     7
176
     1
 90
        3
176
     1
 90
        0
176
     1
 90
        0
176
     1
290
     0
176
     1
 90
       13
176
     1
 40
0.0
176
     1
 90
        0
176
     1
290
     0
176
     1
290
     1
176
     1
290
     1
176
     1
290
     0
176
     1
290
     0
176
     1
290
     0
176
     1
290
     0
176
     1
290
     0
176
     1
290
     0
176
     1
 90
       50
176
     1
 40
0.0
176
     1
 40
1.0
176
     1
 90
        0
176
     1
 62
    18
420
        0
176
     1
 90
       50
176
     1
 90
        3
176
     1
 62
     5
420
      255
176
     1
290
     0
176
     1
 90
       50
176
     1
 90
       50
176
     1
 90
       50
176
     1
290
     0
176
     1
 90
       50
176
     1
 62
   256
176
     0
 40
1.0
176
     0
 90
        2
176
     1
  1
strokes_ogs.tif
176
     1
290
     0
176
     1
 40
1.0
176
     1
 40
1.0
176
     1
  0
VISUALSTYLE
  5
3E
102
{ACAD_REACTORS
330
29
102
}
330
29
100
AcDbVisualStyle
  2
Shaded
 70
    27
177
     3
291
     0
 70
    58
 90
        2
176
     1
 90
        2
176
     1
 90
        1
176
     1
 90
        2
176
     1
 40
0.6
176
     1
 40
30.0
176
     1
 62
     7
420
 16777215
176
     1
 90
        0
176
     1
 90
        4
176
     1
 62
     7
176
     1
 62
   257
176
     1
 90
        1
176
     1
 90
        1
176
     1
 40
1.0
176
     1
 90
        8
176
     1
 62
   257
176
     1
 40
1.0
176
     1
 90
        1
176
     1
 90
        6
176
     1
 90
        2
176
     1
 62
     8
420
  7895160
176
     1
 90
        3
176
     1
 90
        0
176
     1
 90
        0
176
     1
290
     0
176
     1
 90
        5
176
     1
 40
0.0
176
     1
 90
        0
176
     1
290
     0
176
     1
290
     1
176
     1
290
     1
176
     1
290
     0
176
     1
290
     0
176
     1
290
     0
176
     1
290
     0
176
     1
290
     0
176
     1
290
     0
176
     1
 90
       50
176
     1
 40
0.0
176
     1
 40
1.0
176
     1
 90
        0
176
     1
 62
    18
420
        0
176
     1
 90
       50
176
     1
 90
        3
176
     1
 62
     5
420
      255
176
     1
290
     0
176
     1
 90
       50
176
     1
 90
       50
176
     1
 90
       50
176
     1
290
     0
176
     1
 90
       50
176
     1
 62
   256
176
     0
 40
1.0
176
     0
 90
        2
176
     1
  1
strokes_ogs.tif
176
     1
290
     0
176
     1
 40
1.0
176
     1
 40
1.0
176
     1
  0
VISUALSTYLE
  5
3D
102
{ACAD_REACTORS
330
29
102
}
330
29
100
AcDbVisualStyle
  2
Shaded with edges
 70
    26
177
     3
291
     0
 70
    58
 90
        2
176
     1
 90
        2
176
     1
 90
        1
176
     1
 90
        2
176
     1
 40
0.6
176
     1
 40
30.0
176
     1
 62
     7
420
 16777215
176
     1
 90
        1
176
     1
 90
        2
176
     1
 62
     7
176
     1
 62
   257
176
     1
 90
        2
176
     1
 90
        1
176
     1
 40
1.0
176
     1
 90
        8
176
     1
 62
   257
176
     1
 40
1.0
176
     1
 90
        1
176
     1
 90
        6
176
     1
 90
        2
176
     1
 62
     7
176
     1
 90
        3
176
     1
 90
        0
176
     1
 90
        0
176
     1
290
     0
176
     1
 90
        5
176
     1
 40
0.0
176
     1
 90
        0
176
     1
290
     0
176
     1
290
     1
176
     1
290
     1
176
     1
290
     0
176
     1
290
     0
176
     1
290
     0
176
     1
290
     0
176
     1
290
     0
176
     1
290
     0
176
     1
 90
       50
176
     1
 40
0.0
176
     1
 40
1.0
176
     1
 90
        0
176
     1
 62
    18
420
        0
176
     1
 90
       50
176
     1
 90
        3
176
     1
 62
     5
420
      255
176
     1
290
     0
176
     1
 90
       50
176
     1
 90
       50
176
     1
 90
       50
176
     1
290
     0
176
     1
 90
       50
176
     1
 62
   256
176
     0
 40
1.0
176
     0
 90
        2
176
     1
  1
strokes_ogs.tif
176
     1
290
     0
176
     1
 40
1.0
176
     1
 40
1.0
176
     1
  0
VISUALSTYLE
  5
3A
102
{ACAD_REACTORS
330
29
102
}
330
29
100
AcDbVisualStyle
  2
Shades of Gray
 70
    23
177
     3
291
     0
 70
    58
 90
        2
176
     1
 90
        2
176
     1
 90
        3
176
     1
 90
        0
176
     1
 40
0.6
176
     1
 40
30.0
176
     1
 62
     7
420
 16777215
176
     1
 90
        2
176
     1
 90
        2
176
     1
 62
     7
176
     1
 62
     7
176
     1
 90
        1
176
     1
 90
        1
176
     1
 40
40.0
176
     1
 90
        8
176
     1
 62
     7
176
     1
 40
1.0
176
     1
 90
        1
176
     1
 90
        6
176
     1
 90
        2
176
     1
 62
     7
176
     1
 90
        3
176
     1
 90
        0
176
     1
 90
        0
176
     1
290
     0
176
     1
 90
        1
176
     1
 40
0.0
176
     1
 90
        0
176
     1
290
     0
176
     1
290
     1
176
     1
290
     1
176
     1
290
     0
176
     1
290
     0
176
     1
290
     0
176
     1
290
     0
176
     1
290
     0
176
     1
290
     0
176
     1
 90
       50
176
     1
 40
0.0
176
     1
 40
1.0
176
     1
 90
        0
176
     1
 62
    18
420
        0
176
     1
 90
       50
176
     1
 90
        3
176
     1
 62
     5
420
      255
176
     1
290
     0
176
     1
 90
       50
176
     1
 90
       50
176
     1
 90
       50
176
     1
290
     0
176
     1
 90
       50
176
     1
 62
   256
176
     0
 40
1.0
176
     0
 90
        2
176
     1
  1
strokes_ogs.tif
176
     1
290
     0
176
     1
 40
1.0
176
     1
 40
1.0
176
     1
  0
VISUALSTYLE
  5
3B
102
{ACAD_REACTORS
330
29
102
}
330
29
100
AcDbVisualStyle
  2
Sketchy
 70
    24
177
     3
291
     0
 70
    58
 90
        1
176
     1
 90
        2
176
     1
 90
        2
176
     1
 90
        0
176
     1
 40
0.6
176
     1
 40
30.0
176
     1
 62
     7
420
 16777215
176
     1
 90
        2
176
     1
 90
        2
176
     1
 62
     7
176
     1
 62
     7
176
     1
 90
        1
176
     1
 90
        1
176
     1
 40
40.0
176
     1
 90
       11
176
     1
 62
     7
176
     1
 40
1.0
176
     1
 90
        1
176
     1
 90
        6
176
     1
 90
        2
176
     1
 62
     7
176
     1
 90
        6
176
     1
 90
        0
176
     1
 90
        0
176
     1
290
     0
176
     1
 90
        1
176
     1
 40
0.0
176
     1
 90
        0
176
     1
290
     0
176
     1
290
     1
176
     1
290
     1
176
     1
290
     0
176
     1
290
     0
176
     1
290
     0
176
     1
290
     0
176
     1
290
     0
176
     1
290
     0
176
     1
 90
       50
176
     1
 40
0.0
176
     1
 40
1.0
176
     1
 90
        0
176
     1
 62
    18
420
        0
176
     1
 90
       50
176
     1
 90
        3
176
     1
 62
     5
420
      255
176
     1
290
     0
176
     1
 90
       50
176
     1
 90
       50
176
     1
 90
       50
176
     1
290
     0
176
     1
 90
       50
176
     1
 62
   256
176
     0
 40
1.0
176
     0
 90
        2
176
     1
  1
strokes_ogs.tif
176
     1
290
     0
176
     1
 40
1.0
176
     1
 40
1.0
176
     1
  0
VISUALSTYLE
  5
36
102
{ACAD_REACTORS
330
29
102
}
330
29
100
AcDbVisualStyle
  2
Thicken
 70
    13
177
     3
291
     1
 70
    58
 90
        2
176
     1
 90
        2
176
     1
 90
        0
176
     1
 90
        0
176
     1
 40
0.6
176
     1
 40
30.0
176
     1
 62
     7
420
 16777215
176
     1
 90
        1
176
     1
 90
        4
176
     1
 62
     7
176
     1
 62
   257
176
     1
 90
        1
176
     1
 90
        1
176
     1
 40
1.0
176
     1
 90
       12
176
     1
 62
     7
176
     1
 40
1.0
176
     1
 90
        1
176
     1
 90
        6
176
     1
 90
        2
176
     1
 62
     7
176
     1
 90
        5
176
     1
 90
        0
176
     1
 90
        0
176
     1
290
     0
176
     1
 90
        1
176
     1
 40
0.0
176
     1
 90
        0
176
     1
290
     0
176
     1
290
     1
176
     1
290
     1
176
     1
290
     0
176
     1
290
     0
176
     1
290
     0
176
     1
290
     0
176
     1
290
     0
176
     1
290
     0
176
     1
 90
       50
176
     1
 40
0.0
176
     1
 40
1.0
176
     1
 90
        0
176
     1
 62
    18
420
        0
176
     1
 90
       50
176
     1
 90
        3
176
     1
 62
     5
420
      255
176
     1
290
     0
176
     1
 90
       50
176
     1
 90
       50
176
     1
 90
       50
176
     1
290
     0
176
     1
 90
       50
176
     1
 62
   256
176
     0
 40
1.0
176
     0
 90
        2
176
     1
  1
strokes_ogs.tif
176
     1
290
     0
176
     1
 40
1.0
176
     1
 40
1.0
176
     1
  0
VISUALSTYLE
  5
30
102
{ACAD_REACTORS
330
29
102
}
330
29
100
AcDbVisualStyle
  2
Wireframe
 70
     5
177
     3
291
     0
 70
    58
 90
        0
176
     1
 90
        2
176
     1
 90
        0
176
     1
 90
        0
176
     1
 40
0.6
176
     1
 40
30.0
176
     1
 62
     7
420
 16777215
176
     1
 90
        1
176
     1
 90
        4
176
     1
 62
     7
176
     1
 62
   257
176
     1
 90
        1
176
     1
 90
        1
176
     1
 40
1.0
176
     1
 90
        0
176
     1
 62
   257
176
     1
 40
1.0
176
     1
 90
        1
176
     1
 90
        6
176
     1
 90
        2
176
     1
 62
     7
176
     1
 90
        3
176
     1
 90
        0
176
     1
 90
        0
176
     1
290
     0
176
     1
 90
        1
176
     1
 40
0.0
176
     1
 90
        0
176
     1
290
     0
176
     1
290
     1
176
     1
290
     1
176
     1
290
     0
176
     1
290
     0
176
     1
290
     0
176
     1
290
     0
176
     1
290
     0
176
     1
290
     0
176
     1
 90
       50
176
     1
 40
0.0
176
     1
 40
1.0
176
     1
 90
        0
176
     1
 62
    18
420
        0
176
     1
 90
       50
176
     1
 90
        3
176
     1
 62
     5
420
      255
176
     1
290
     0
176
     1
 90
       50
176
     1
 90
       50
176
     1
 90
       50
176
     1
290
     0
176
     1
 90
       50
176
     1
 62
   256
176
     0
 40
1.0
176
     0
 90
        2
176
     1
  1
strokes_ogs.tif
176
     1
290
     0
176
     1
 40
1.0
176
     1
 40
1.0
176
     1
  0
VISUALSTYLE
  5
3C
102
{ACAD_REACTORS
330
29
102
}
330
29
100
AcDbVisualStyle
  2
X-Ray
 70
    25
177
     3
291
     0
 70
    58
 90
        2
176
     1
 90
        2
176
     1
 90
        1
176
     1
 90
        1
176
     1
 40
0.5
176
     1
 40
30.0
176
     1
 62
     7
420
 16777215
176
     1
 90
        1
176
     1
 90
        0
176
     1
 62
     7
176
     1
 62
   257
176
     1
 90
        1
176
     1
 90
        1
176
     1
 40
1.0
176
     1
 90
        8
176
     1
 62
     7
176
     1
 40
1.0
176
     1
 90
        1
176
     1
 90
        6
176
     1
 90
        2
176
     1
 62
     7
176
     1
 90
        3
176
     1
 90
        0
176
     1
 90
        0
176
     1
290
     0
176
     1
 90
       13
176
     1
 40
0.0
176
     1
 90
        0
176
     1
290
     0
176
     1
290
     1
176
     1
290
     1
176
     1
290
     0
176
     1
290
     0
176
     1
290
     0
176
     1
290
     0
176
     1
290
     0
176
     1
290
     0
176
     1
 90
       50
176
     1
 40
0.0
176
     1
 40
1.0
176
     1
 90
        0
176
     1
 62
    18
420
        0
176
     1
 90
       50
176
     1
 90
        3
176
     1
 62
     5
420
      255
176
     1
290
     0
176
     1
 90
       50
176
     1
 90
       50
176
     1
 90
       50
176
     1
290
     0
176
     1
 90
       50
176
     1
 62
   256
176
     0
 40
1.0
176
     0
 90
        2
176
     1
  1
strokes_ogs.tif
176
     1
290
     0
176
     1
 40
1.0
176
     1
 40
1.0
176
     1
  0
DICTIONARYVAR
  5
90
102
{ACAD_REACTORS
330
8B
102
}
330
8B
100
DictionaryVariables
280
     0
  1
1:1
  0
DICTIONARYVAR
  5
8D
102
{ACAD_REACTORS
330
8B
102
}
330
8B
100
DictionaryVariables
280
     0
  1
STANDARD
  0
DICTIONARYVAR
  5
8C
102
{ACAD_REACTORS
330
8B
102
}
330
8B
100
DictionaryVariables
280
     0
  1
STANDARD
  0
DICTIONARYVAR
  5
8E
102
{ACAD_REACTORS
330
8B
102
}
330
8B
100
DictionaryVariables
280
     0
  1
Imperial24
  0
DICTIONARYVAR
  5
8F
102
{ACAD_REACTORS
330
8B
102
}
330
8B
100
DictionaryVariables
280
     0
  1
Imperial24
  0
DICTIONARY
  5
1A
330
19
100
AcDbDictionary
280
     1
281
     1
  3
BUMPTILE
360
1C
  3
DIFFUSETILE
360
1B
  3
OPACITYTILE
360
1F
  3
REFLECTIONTILE
360
1E
  3
REFRACTIONTILE
360
20
  3
SPECULARTILE
360
1D
  0
DICTIONARY
  5
12
330
11
100
AcDbDictionary
280
     1
281
     1
  3
BUMPTILE
360
14
  3
DIFFUSETILE
360
13
  3
OPACITYTILE
360
17
  3
REFLECTIONTILE
360
16
  3
REFRACTIONTILE
360
18
  3
SPECULARTILE
360
15
  0
DICTIONARY
  5
22
330
21
100
AcDbDictionary
280
     1
281
     1
  3
BUMPTILE
360
24
  3
DIFFUSETILE
360
23
  3
OPACITYTILE
360
27
  3
REFLECTIONTILE
360
26
  3
REFRACTIONTILE
360
28
  3
SPECULARTILE
360
25
  0
DICTIONARY
  5
91
330
65
100
AcDbDictionary
280
     1
281
     1
  3
ACAD_ROUNDTRIP_2008_TABLESTYLE_CELLSTYLEMAP
360
92
  0
XRECORD
  5
1C
102
{ACAD_REACTORS
330
1A
102
}
330
1A
100
AcDbXrecord
280
     1
270
     1
271
     1
  0
XRECORD
  5
1B
102
{ACAD_REACTORS
330
1A
102
}
330
1A
100
AcDbXrecord
280
     1
270
     1
271
     1
  0
XRECORD
  5
1F
102
{ACAD_REACTORS
330
1A
102
}
330
1A
100
AcDbXrecord
280
     1
270
     1
271
     1
  0
XRECORD
  5
1E
102
{ACAD_REACTORS
330
1A
102
}
330
1A
100
AcDbXrecord
280
     1
270
     1
271
     1
  0
XRECORD
  5
20
102
{ACAD_REACTORS
330
1A
102
}
330
1A
100
AcDbXrecord
280
     1
270
     1
271
     1
  0
XRECORD
  5
1D
102
{ACAD_REACTORS
330
1A
102
}
330
1A
100
AcDbXrecord
280
     1
270
     1
271
     1
  0
XRECORD
  5
14
102
{ACAD_REACTORS
330
12
102
}
330
12
100
AcDbXrecord
280
     1
270
     1
271
     1
  0
XRECORD
  5
13
102
{ACAD_REACTORS
330
12
102
}
330
12
100
AcDbXrecord
280
     1
270
     1
271
     1
  0
XRECORD
  5
17
102
{ACAD_REACTORS
330
12
102
}
330
12
100
AcDbXrecord
280
     1
270
     1
271
     1
  0
XRECORD
  5
16
102
{ACAD_REACTORS
330
12
102
}
330
12
100
AcDbXrecord
280
     1
270
     1
271
     1
  0
XRECORD
  5
18
102
{ACAD_REACTORS
330
12
102
}
330
12
100
AcDbXrecord
280
     1
270
     1
271
     1
  0
XRECORD
  5
15
102
{ACAD_REACTORS
330
12
102
}
330
12
100
AcDbXrecord
280
     1
270
     1
271
     1
  0
XRECORD
  5
24
102
{ACAD_REACTORS
330
22
102
}
330
22
100
AcDbXrecord
280
     1
270
     1
271
     1
  0
XRECORD
  5
23
102
{ACAD_REACTORS
330
22
102
}
330
22
100
AcDbXrecord
280
     1
270
     1
271
     1
  0
XRECORD
  5
27
102
{ACAD_REACTORS
330
22
102
}
330
22
100
AcDbXrecord
280
     1
270
     1
271
     1
  0
XRECORD
  5
26
102
{ACAD_REACTORS
330
22
102
}
330
22
100
AcDbXrecord
280
     1
270
     1
271
     1
  0
XRECORD
  5
28
102
{ACAD_REACTORS
330
22
102
}
330
22
100
AcDbXrecord
280
     1
270
     1
271
     1
  0
XRECORD
  5
25
102
{ACAD_REACTORS
330
22
102
}
330
22
100
AcDbXrecord
280
     1
270
     1
271
     1
  0
CELLSTYLEMAP
  5
92
102
{ACAD_REACTORS
330
91
102
}
330
91
100
AcDbCellStyleMap
 90
        3
300
CELLSTYLE
  1
TABLEFORMAT_BEGIN
 90
        5
170
     1
 91
        0
 92
    32768
 62
   257
 93
        1
300
CONTENTFORMAT
  1
CONTENTFORMAT_BEGIN
 90
        0
 91
        0
 92
      512
 93
        0
300

 40
0.0
140
1.0
 94
        5
 62
     0
340
55
144
0.25
309
CONTENTFORMAT_END
171
     0
 94
        0
309
TABLEFORMAT_END
  1
CELLSTYLE_BEGIN
 90
        1
 91
        1
300
_TITLE
309
CELLSTYLE_END
300
CELLSTYLE
  1
TABLEFORMAT_BEGIN
 90
        5
170
     1
 91
        0
 92
        0
 62
   257
 93
        1
300
CONTENTFORMAT
  1
CONTENTFORMAT_BEGIN
 90
        0
 91
        0
 92
      512
 93
        0
300

 40
0.0
140
1.0
 94
        5
 62
     0
340
55
144
0.18
309
CONTENTFORMAT_END
171
     0
 94
        0
309
TABLEFORMAT_END
  1
CELLSTYLE_BEGIN
 90
        2
 91
        1
300
_HEADER
309
CELLSTYLE_END
300
CELLSTYLE
  1
TABLEFORMAT_BEGIN
 90
        5
170
     1
 91
        0
 92
        0
 62
   257
 93
        1
300
CONTENTFORMAT
  1
CONTENTFORMAT_BEGIN
 90
        0
 91
        0
 92
      512
 93
        0
300

 40
0.0
140
1.0
 94
        2
 62
     0
340
55
144
0.18
309
CONTENTFORMAT_END
171
     0
 94
        0
309
TABLEFORMAT_END
  1
CELLSTYLE_BEGIN
 90
        3
 91
        2
300
_DATA
309
CELLSTYLE_END
  0
ENDSEC
  0
EOF
