<?xml version="1.0" encoding="UTF-8"?>
<svg id="Layer_1" data-name="Layer 1" xmlns="http://www.w3.org/2000/svg" viewBox="0 0 500 500">
  <defs>
    <style>
      .cls-1 {
        fill: #fff;
      }

      .cls-2 {
        fill: #0e1329;
      }

      .cls-3 {
        fill: #831618;
      }
    </style>
  </defs>
  <g>
    <path d="M403.52,297.39c0-77.26,.02-154.52,0-231.78,0-10.23-3.92-18.78-11.41-25.72-7.13-6.62-15.7-9.27-25.28-9.25-19.92,.03-39.84,.03-59.76,.03-58.61,0-117.22-.02-175.83-.03-11.25,0-20.56,4.3-27.93,12.8-6.22,7.16-8.29,15.61-8.28,24.93,.08,59.07,.04,118.14,.04,177.2,0,49.28-.01,98.56,0,147.85,0,11.62-.06,23.25,.17,34.87,.17,8.15,3.5,15.14,8.97,21.14,8.01,8.79,18.14,11.81,29.79,11.79,72.42-.12,144.85-.03,217.27-.1,7.93-.01,15.93,.83,23.79-.63,16.91-3.15,28.43-17.49,28.44-35.31,.03-42.6-.01-85.2-.01-127.81Zm-2.41-51.45h-.05c0,58.95,0,117.9,0,176.85,0,4.97-.29,9.89-2.05,14.62-4.77,12.86-17.1,21.24-31.42,21.24-76.68,0-153.37-.02-230.04-.03-2.54,0-5.07,.06-7.6-.03-18.05-.64-31.62-14.17-32.34-32.2-.03-.92-.02-1.84-.02-2.76,0-118.48,.02-236.95-.03-355.43,0-9.66,2.6-18.14,9.55-25.07,6.91-6.88,15.25-9.94,24.95-9.93,56.53,.06,113.07,.03,169.6,.03,22.11,0,44.22-.09,66.32,.03,16.42,.09,29.42,10.83,32.51,26.54,.83,4.21,.62,8.48,.62,12.74,0,57.8,0,115.6,0,173.4Z"/>
    <path class="cls-1" d="M401.11,245.94h-.05c0,58.95,0,117.9,0,176.85,0,4.97-.29,9.89-2.05,14.62-4.77,12.86-17.1,21.24-31.42,21.24-76.68,0-153.37-.02-230.04-.03-2.54,0-5.07,.06-7.6-.03-18.05-.64-31.62-14.17-32.34-32.2-.03-.92-.02-1.84-.02-2.76,0-118.48,.02-236.95-.03-355.43,0-9.66,2.6-18.14,9.55-25.07,6.91-6.88,15.25-9.94,24.95-9.93,56.53,.06,113.07,.03,169.6,.03,22.11,0,44.22-.09,66.32,.03,16.42,.09,29.42,10.83,32.51,26.54,.83,4.21,.62,8.48,.62,12.74,0,57.8,0,115.6,0,173.4Z"/>
  </g>
  <g>
    <path class="cls-2" d="M134.83,250.99c0-48.26-.03-96.51,.02-144.77,.01-13.37,6.51-20.17,19.84-20.19,63.14-.12,126.27-.12,189.41,0,13.43,.02,19.8,6.86,19.8,20.19,0,96.09,0,192.18,0,288.27,0,16.16-6.25,22.64-22.16,22.65-61.65,.04-123.3,0-184.95,.03-4.72,0-9.39-.2-13.54-2.77-6.2-3.83-8.57-9.58-8.57-16.72,.05-48.9,.03-97.79,.03-146.69h.11Zm13.63,.65c-.05,0-.1,0-.16,0,0,44.87,0,89.74,0,134.61,0,13.77,6.47,20.24,20.26,20.24,21.9,0,43.81-.02,65.71-.01,32.96,0,65.93,.08,98.89,0,10.7-.03,17.06-6.46,17.27-17.05,.1-4.89,.08-9.78,.08-14.67,.02-85.91,0-171.83,.09-257.74,.02-13.72-5.89-20.06-19.47-20.07-54.23-.02-108.45-.04-162.68-.08-14.23,0-19.99,5.73-19.99,20.17-.02,44.87,0,89.74,0,134.61Z"/>
    <path class="cls-2" d="M340.64,251.66c0,42.72,0,85.45,0,128.17,0,11.92-5.52,17.86-17.39,17.88-49.52,.11-99.05,.12-148.57,.04-10.43-.02-16.48-6.57-16.49-17.67-.07-52.71-.06-105.43-.06-158.14,0-32.1-.01-64.19,.03-96.29,.02-14.88,5.17-20.05,19.78-20.05,48.04,0,96.07-.01,144.11,0,13.25,0,18.54,5.3,18.54,18.54,0,42.51,0,85.02,0,127.53h.06Zm-12.62,.43c0-32.96-.06-65.93,.08-98.89,.02-4.21-1.04-7.17-4.6-9.69-8.8-6.22-15.73-14.29-21.16-23.55-1.83-3.13-3.85-4.5-7.53-4.47-30.19,.26-60.39,.39-90.58,.46-3.5,0-5.79,.98-7.66,4.27-4.87,8.57-11.07,16.28-19.13,21.96-5.12,3.61-6.87,7.6-6.85,13.76,.21,64.65,.18,129.3,.06,193.95,0,4.35,1.53,7.07,4.95,9.53,8.56,6.16,15.61,13.86,20.67,23.11,2.09,3.81,4.7,4.8,8.68,4.79,29.98-.11,59.97-.13,89.95-.01,3.69,.02,5.87-1.3,7.6-4.43,5.01-9.08,11.86-16.7,20.32-22.57,4.3-2.99,5.33-6.4,5.31-11.24-.15-32.32-.08-64.65-.09-96.97Zm5-120.72c.39-5.08,.24-9.02-2.46-12.44-3.02-3.82-15.37-6.83-19.39-4.64-2.14,1.16-.76,2.52-.08,3.66,3.7,6.18,7.79,12.07,13.67,16.41,2.28,1.68,4.62,5.1,7.39,3.65,2.29-1.2,.51-5.04,.86-6.64Zm.13,239.62c0-.19,.01-2.09,0-3.99-.02-2.55-1.46-2.96-3.28-1.8-8.18,5.18-14.64,12.02-19.12,20.63-.89,1.71-.13,2.52,1.8,2.98,13.01,3.13,20.39-2.59,20.61-17.82ZM165.64,131.66c0,1.48,.06,2.97-.01,4.45-.15,2.94,.63,4.18,3.58,2.25,7.96-5.2,14.25-11.9,18.81-20.26,1.12-2.06,.85-2.87-1.58-3.37-13.57-2.75-20.73,3.02-20.79,16.92Zm15.34,256.54c1.7,0,3.4,.03,5.1,0,2.33-.04,3.08-.97,1.86-3.19-4.48-8.15-10.35-15.02-18.34-19.92-1.45-.89-2.93-1.96-3.89,.79-4.21,12.06,2.85,22.47,15.27,22.33Z"/>
    <path class="cls-3" d="M261.4,248.96c6.83,3.02,11.99,6.97,14.42,13.49,4.59,12.31-1.5,25.4-14.06,29.98-11.09,4.05-22.58,3.06-34.04,2.27-3-.21-3.34-2.17-3.34-4.39-.01-25.06,.04-50.12-.02-75.18,0-3.64,1.88-4.7,5.04-5.05,8.04-.89,16.06-1.35,24.13-.17,11.52,1.68,18.4,7.08,20.39,16.28,1.73,8.01-2.49,16.1-12.51,22.76Zm-16.37,5.66c-8.19-.09-8.24-.09-8.34,8.19-.07,5.92-.06,11.85,.04,17.78,.03,1.83-.19,3.86,1.97,4.97,6.81,3.51,21.68-2.15,24.66-9.41,4.8-11.71-3.41-21.35-18.33-21.52Zm-8.39-22.65s.08,0,.13,0c0,3.18-.01,6.37,0,9.55,.01,2.11,.56,3.85,3.13,3.87,4.24,.03,8.52,.37,12.59-1.23,7.23-2.84,10.84-9.72,8.86-16.81-1.82-6.53-9.7-10.04-19.8-8.71-8.58,1.13-3.54,7.92-4.9,12.06-.13,.38-.02,.84-.02,1.27Z"/>
  </g>
</svg>