  0
SECTION
  2
HEADER
  9
$ACADVER
  1
AC1032
  9
$ACADMAINTVER
 90
      228
  9
$DWGCODEPAGE
  3
ANSI_1252
  9
$REQUIREDVERSIONS
160
                 0
  9
$INSBASE
 10
0.0
 20
0.0
 30
0.0
  9
$EXTMIN
 10
1.000000000000000E+20
 20
1.000000000000000E+20
 30
1.000000000000000E+20
  9
$EXTMAX
 10
-1.000000000000000E+20
 20
-1.000000000000000E+20
 30
-1.000000000000000E+20
  9
$LIMMIN
 10
0.0
 20
0.0
  9
$LIMMAX
 10
12.0
 20
9.0
  9
$ORTHOMODE
 70
     0
  9
$REGENMODE
 70
     1
  9
$FILLMODE
 70
     1
  9
$QTEXTMODE
 70
     0
  9
$MIRRTEXT
 70
     0
  9
$LTSCALE
 40
1.0
  9
$ATTMODE
 70
     1
  9
$TEXTSIZE
 40
0.2
  9
$TRACEWID
 40
0.05
  9
$TEXTSTYLE
  7
Standard
  9
$CLAYER
  8
0
  9
$CELTYPE
  6
ByLayer
  9
$CECOLOR
 62
   256
  9
$CELTSCALE
 40
1.0
  9
$DISPSILH
 70
     0
  9
$DIMSCALE
 40
1.0
  9
$DIMASZ
 40
0.18
  9
$DIMEXO
 40
0.0625
  9
$DIMDLI
 40
0.38
  9
$DIMRND
 40
0.0
  9
$DIMDLE
 40
0.0
  9
$DIMEXE
 40
0.18
  9
$DIMTP
 40
0.0
  9
$DIMTM
 40
0.0
  9
$DIMTXT
 40
0.18
  9
$DIMCEN
 40
0.09
  9
$DIMTSZ
 40
0.0
  9
$DIMTOL
 70
     0
  9
$DIMLIM
 70
     0
  9
$DIMTIH
 70
     1
  9
$DIMTOH
 70
     1
  9
$DIMSE1
 70
     0
  9
$DIMSE2
 70
     0
  9
$DIMTAD
 70
     0
  9
$DIMZIN
 70
     0
  9
$DIMBLK
  1

  9
$DIMASO
 70
     1
  9
$DIMSHO
 70
     1
  9
$DIMPOST
  1

  9
$DIMAPOST
  1

  9
$DIMALT
 70
     0
  9
$DIMALTD
 70
     2
  9
$DIMALTF
 40
25.4
  9
$DIMLFAC
 40
1.0
  9
$DIMTOFL
 70
     0
  9
$DIMTVP
 40
0.0
  9
$DIMTIX
 70
     0
  9
$DIMSOXD
 70
     0
  9
$DIMSAH
 70
     0
  9
$DIMBLK1
  1

  9
$DIMBLK2
  1

  9
$DIMSTYLE
  2
Standard
  9
$DIMCLRD
 70
     0
  9
$DIMCLRE
 70
     0
  9
$DIMCLRT
 70
     0
  9
$DIMTFAC
 40
1.0
  9
$DIMGAP
 40
0.09
  9
$DIMJUST
 70
     0
  9
$DIMSD1
 70
     0
  9
$DIMSD2
 70
     0
  9
$DIMTOLJ
 70
     1
  9
$DIMTZIN
 70
     0
  9
$DIMALTZ
 70
     0
  9
$DIMALTTZ
 70
     0
  9
$DIMUPT
 70
     0
  9
$DIMDEC
 70
     4
  9
$DIMTDEC
 70
     4
  9
$DIMALTU
 70
     2
  9
$DIMALTTD
 70
     2
  9
$DIMTXSTY
  7
Standard
  9
$DIMAUNIT
 70
     0
  9
$DIMADEC
 70
     0
  9
$DIMALTRND
 40
0.0
  9
$DIMAZIN
 70
     0
  9
$DIMDSEP
 70
    46
  9
$DIMATFIT
 70
     3
  9
$DIMFRAC
 70
     0
  9
$DIMLDRBLK
  1

  9
$DIMLUNIT
 70
     2
  9
$DIMLWD
 70
    -2
  9
$DIMLWE
 70
    -2
  9
$DIMTMOVE
 70
     0
  9
$DIMFXL
 40
1.0
  9
$DIMFXLON
 70
     0
  9
$DIMJOGANG
 40
0.7853981633974483
  9
$DIMTFILL
 70
     0
  9
$DIMTFILLCLR
 70
     0
  9
$DIMARCSYM
 70
     0
  9
$DIMLTYPE
  6

  9
$DIMLTEX1
  6

  9
$DIMLTEX2
  6

  9
$DIMTXTDIRECTION
 70
     0
  9
$LUNITS
 70
     2
  9
$LUPREC
 70
     4
  9
$SKETCHINC
 40
0.1
  9
$FILLETRAD
 40
0.0
  9
$AUNITS
 70
     0
  9
$AUPREC
 70
     0
  9
$MENU
  1
.
  9
$ELEVATION
 40
0.0
  9
$PELEVATION
 40
0.0
  9
$THICKNESS
 40
0.0
  9
$LIMCHECK
 70
     0
  9
$CHAMFERA
 40
0.0
  9
$CHAMFERB
 40
0.0
  9
$CHAMFERC
 40
0.0
  9
$CHAMFERD
 40
0.0
  9
$SKPOLY
 70
     0
  9
$TDCREATE
 40
2460929.578888889
  9
$TDUCREATE
 40
2460929.370555556
  9
$TDUPDATE
 40
2460929.578888889
  9
$TDUUPDATE
 40
2460929.370555556
  9
$TDINDWG
 40
0.0000000000
  9
$TDUSRTIMER
 40
0.0000000000
  9
$USRTIMER
 70
     1
  9
$ANGBASE
 50
0.0
  9
$ANGDIR
 70
     0
  9
$PDMODE
 70
     0
  9
$PDSIZE
 40
0.0
  9
$PLINEWID
 40
0.0
  9
$SPLFRAME
 70
     0
  9
$SPLINETYPE
 70
     6
  9
$SPLINESEGS
 70
     8
  9
$HANDSEED
  5
98
  9
$SURFTAB1
 70
     6
  9
$SURFTAB2
 70
     6
  9
$SURFTYPE
 70
     6
  9
$SURFU
 70
     6
  9
$SURFV
 70
     6
  9
$UCSBASE
  2

  9
$UCSNAME
  2

  9
$UCSORG
 10
0.0
 20
0.0
 30
0.0
  9
$UCSXDIR
 10
1.0
 20
0.0
 30
0.0
  9
$UCSYDIR
 10
0.0
 20
1.0
 30
0.0
  9
$UCSORTHOREF
  2

  9
$UCSORTHOVIEW
 70
     0
  9
$UCSORGTOP
 10
0.0
 20
0.0
 30
0.0
  9
$UCSORGBOTTOM
 10
0.0
 20
0.0
 30
0.0
  9
$UCSORGLEFT
 10
0.0
 20
0.0
 30
0.0
  9
$UCSORGRIGHT
 10
0.0
 20
0.0
 30
0.0
  9
$UCSORGFRONT
 10
0.0
 20
0.0
 30
0.0
  9
$UCSORGBACK
 10
0.0
 20
0.0
 30
0.0
  9
$PUCSBASE
  2

  9
$PUCSNAME
  2

  9
$PUCSORG
 10
0.0
 20
0.0
 30
0.0
  9
$PUCSXDIR
 10
1.0
 20
0.0
 30
0.0
  9
$PUCSYDIR
 10
0.0
 20
1.0
 30
0.0
  9
$PUCSORTHOREF
  2

  9
$PUCSORTHOVIEW
 70
     0
  9
$PUCSORGTOP
 10
0.0
 20
0.0
 30
0.0
  9
$PUCSORGBOTTOM
 10
0.0
 20
0.0
 30
0.0
  9
$PUCSORGLEFT
 10
0.0
 20
0.0
 30
0.0
  9
$PUCSORGRIGHT
 10
0.0
 20
0.0
 30
0.0
  9
$PUCSORGFRONT
 10
0.0
 20
0.0
 30
0.0
  9
$PUCSORGBACK
 10
0.0
 20
0.0
 30
0.0
  9
$USERI1
 70
     0
  9
$USERI2
 70
     0
  9
$USERI3
 70
     0
  9
$USERI4
 70
     0
  9
$USERI5
 70
     0
  9
$USERR1
 40
0.0
  9
$USERR2
 40
0.0
  9
$USERR3
 40
0.0
  9
$USERR4
 40
0.0
  9
$USERR5
 40
0.0
  9
$WORLDVIEW
 70
     1
  9
$SHADEDGE
 70
     3
  9
$SHADEDIF
 70
    70
  9
$TILEMODE
 70
     1
  9
$MAXACTVP
 70
    64
  9
$PINSBASE
 10
0.0
 20
0.0
 30
0.0
  9
$PLIMCHECK
 70
     0
  9
$PEXTMIN
 10
1.000000000000000E+20
 20
1.000000000000000E+20
 30
1.000000000000000E+20
  9
$PEXTMAX
 10
-1.000000000000000E+20
 20
-1.000000000000000E+20
 30
-1.000000000000000E+20
  9
$PLIMMIN
 10
0.0
 20
0.0
  9
$PLIMMAX
 10
12.0
 20
9.0
  9
$UNITMODE
 70
     0
  9
$VISRETAIN
 70
     1
  9
$PLINEGEN
 70
     0
  9
$PSLTSCALE
 70
     1
  9
$TREEDEPTH
 70
  3020
  9
$CMLSTYLE
  2
Standard
  9
$CMLJUST
 70
     0
  9
$CMLSCALE
 40
1.0
  9
$PROXYGRAPHICS
 70
     1
  9
$MEASUREMENT
 70
     0
  9
$CELWEIGHT
370
    -1
  9
$ENDCAPS
280
     0
  9
$JOINSTYLE
280
     0
  9
$LWDISPLAY
290
     1
  9
$INSUNITS
 70
     0
  9
$HYPERLINKBASE
  1

  9
$STYLESHEET
  1

  9
$XEDIT
290
     1
  9
$CEPSNTYPE
380
     0
  9
$PSTYLEMODE
290
     1
  9
$FINGERPRINTGUID
  2
{6C49B396-878F-D149-8511-C1EB8C9B41BE}
  9
$VERSIONGUID
  2
{FE1550DB-47EE-E440-81B0-89D7476DC470}
  9
$EXTNAMES
290
     1
  9
$PSVPSCALE
 40
0.0
  9
$OLESTARTUP
290
     0
  9
$SORTENTS
280
   127
  9
$INDEXCTL
280
     0
  9
$HIDETEXT
280
     1
  9
$XCLIPFRAME
280
     2
  9
$HALOGAP
280
     0
  9
$OBSCOLOR
 70
   257
  9
$OBSLTYPE
280
     0
  9
$INTERSECTIONDISPLAY
280
     0
  9
$INTERSECTIONCOLOR
 70
   257
  9
$DIMASSOC
280
     2
  9
$PROJECTNAME
  1

  9
$CAMERADISPLAY
290
     0
  9
$LENSLENGTH
 40
50.0
  9
$CAMERAHEIGHT
 40
0.0
  9
$STEPSPERSEC
 40
2.0
  9
$STEPSIZE
 40
6.0
  9
$3DDWFPREC
 40
2.0
  9
$PSOLWIDTH
 40
0.25
  9
$PSOLHEIGHT
 40
4.0
  9
$LOFTANG1
 40
1.570796326794896
  9
$LOFTANG2
 40
1.570796326794896
  9
$LOFTMAG1
 40
0.0
  9
$LOFTMAG2
 40
0.0
  9
$LOFTPARAM
 70
     7
  9
$LOFTNORMALS
280
     1
  9
$LATITUDE
 40
37.795
  9
$LONGITUDE
 40
-122.394
  9
$NORTHDIRECTION
 40
0.0
  9
$TIMEZONE
 70
 -8000
  9
$LIGHTGLYPHDISPLAY
280
     1
  9
$TILEMODELIGHTSYNCH
280
     1
  9
$CMATERIAL
347
11
  9
$SOLIDHIST
280
     0
  9
$SHOWHIST
280
     1
  9
$DWFFRAME
280
     2
  9
$DGNFRAME
280
     0
  9
$REALWORLDSCALE
290
     1
  9
$INTERFERECOLOR
 62
     1
  9
$INTERFEREOBJVS
345
33
  9
$INTERFEREVPVS
346
30
  9
$CSHADOW
280
     0
  9
$SHADOWPLANELOCATION
 40
0.0
  0
ENDSEC
  0
SECTION
  2
CLASSES
  0
CLASS
  1
ACDBDICTIONARYWDFLT
  2
AcDbDictionaryWithDefault
  3
ObjectDBX Classes
 90
        0
 91
        1
280
     0
281
     0
  0
CLASS
  1
MATERIAL
  2
AcDbMaterial
  3
ObjectDBX Classes
 90
     1153
 91
        3
280
     0
281
     0
  0
CLASS
  1
VISUALSTYLE
  2
AcDbVisualStyle
  3
ObjectDBX Classes
 90
     4095
 91
       24
280
     0
281
     0
  0
CLASS
  1
SCALE
  2
AcDbScale
  3
ObjectDBX Classes
 90
     1153
 91
       17
280
     0
281
     0
  0
CLASS
  1
TABLESTYLE
  2
AcDbTableStyle
  3
ObjectDBX Classes
 90
     4095
 91
        1
280
     0
281
     0
  0
CLASS
  1
MLEADERSTYLE
  2
AcDbMLeaderStyle
  3
ACDB_MLEADERSTYLE_CLASS
 90
     4095
 91
        1
280
     0
281
     0
  0
CLASS
  1
ACDBSECTIONVIEWSTYLE
  2
AcDbSectionViewStyle
  3
ObjectDBX Classes
 90
     1025
 91
        1
280
     0
281
     0
  0
CLASS
  1
ACDBDETAILVIEWSTYLE
  2
AcDbDetailViewStyle
  3
ObjectDBX Classes
 90
     1025
 91
        1
280
     0
281
     0
  0
CLASS
  1
DICTIONARYVAR
  2
AcDbDictionaryVar
  3
ObjectDBX Classes
 90
        0
 91
        5
280
     0
281
     0
  0
CLASS
  1
CELLSTYLEMAP
  2
AcDbCellStyleMap
  3
ObjectDBX Classes
 90
     1152
 91
        1
280
     0
281
     0
  0
ENDSEC
  0
SECTION
  2
TABLES
  0
TABLE
  2
VPORT
  5
8
330
0
100
AcDbSymbolTable
 70
     1
  0
VPORT
  5
57
330
8
100
AcDbSymbolTableRecord
100
AcDbViewportTableRecord
  2
*Active
 70
     0
 10
0.0
 20
0.0
 11
1.0
 21
1.0
 12
0.0
 22
0.0
 13
0.0
 23
0.0
 14
1.0
 24
1.0
 15
0.0
 25
0.0
 16
0.0
 26
0.0
 36
1.0
 17
2070.329143804109
 27
-1549.708560332395
 37
0.0
 40
3099.36839297975
 41
1.304893925962813
 42
50.0
 43
0.0
 44
0.0
 50
0.0
 51
0.0
 71
     0
 72
   100
 73
     1
 74
     1
 75
     0
 76
     0
 77
     0
 78
     0
281
     0
 65
     1
110
0.0
120
0.0
130
0.0
111
1.0
121
0.0
131
0.0
112
0.0
122
1.0
132
0.0
 79
     0
146
0.0
 60
     3
 61
     5
292
     1
282
     1
141
0.0
142
0.0
 63
   250
421
  3355443
  0
ENDTAB
  0
TABLE
  2
LTYPE
  5
5
330
0
100
AcDbSymbolTable
 70
     1
  0
LTYPE
  5
5B
330
5
100
AcDbSymbolTableRecord
100
AcDbLinetypeTableRecord
  2
ByBlock
 70
     0
  3

 72
    65
 73
     0
 40
0.0
  0
LTYPE
  5
5C
330
5
100
AcDbSymbolTableRecord
100
AcDbLinetypeTableRecord
  2
ByLayer
 70
     0
  3

 72
    65
 73
     0
 40
0.0
  0
LTYPE
  5
5D
330
5
100
AcDbSymbolTableRecord
100
AcDbLinetypeTableRecord
  2
Continuous
 70
     0
  3
Solid line
 72
    65
 73
     0
 40
0.0
  0
ENDTAB
  0
TABLE
  2
LAYER
  5
2
330
0
100
AcDbSymbolTable
 70
     2
  0
LAYER
  5
54
330
2
100
AcDbSymbolTableRecord
100
AcDbLayerTableRecord
  2
0
 70
     0
 62
     7
  6
Continuous
370
    -3
390
F
347
21
348
0
  0
LAYER
  5
78
330
2
100
AcDbSymbolTableRecord
100
AcDbLayerTableRecord
  2
Layer 1
 70
     0
 62
     7
  6
Continuous
370
     0
390
F
347
21
348
0
  0
ENDTAB
  0
TABLE
  2
STYLE
  5
3
330
0
100
AcDbSymbolTable
 70
     2
  0
STYLE
  5
55
330
3
100
AcDbSymbolTableRecord
100
AcDbTextStyleTableRecord
  2
Standard
 70
     0
 40
0.0
 41
1.0
 50
0.0
 71
     0
 42
0.2
  3
txt
  4

  0
STYLE
  5
5A
330
3
100
AcDbSymbolTableRecord
100
AcDbTextStyleTableRecord
  2
Annotative
 70
     0
 40
0.0
 41
1.0
 50
0.0
 71
     0
 42
0.2
  3
txt
  4

1001
AcadAnnotative
1000
AnnotativeData
1002
{
1070
     1
1070
     1
1002
}
  0
ENDTAB
  0
TABLE
  2
VIEW
  5
6
330
0
100
AcDbSymbolTable
 70
     0
  0
ENDTAB
  0
TABLE
  2
UCS
  5
7
330
0
100
AcDbSymbolTable
 70
     0
  0
ENDTAB
  0
TABLE
  2
APPID
  5
9
330
0
100
AcDbSymbolTable
 70
     2
  0
APPID
  5
56
330
9
100
AcDbSymbolTableRecord
100
AcDbRegAppTableRecord
  2
ACAD
 70
     0
  0
APPID
  5
5E
330
9
100
AcDbSymbolTableRecord
100
AcDbRegAppTableRecord
  2
AcadAnnotative
 70
     0
  0
ENDTAB
  0
TABLE
  2
DIMSTYLE
  5
A
330
0
100
AcDbSymbolTable
 70
     2
100
AcDbDimStyleTable
 71
     0
  0
DIMSTYLE
105
58
330
A
100
AcDbSymbolTableRecord
100
AcDbDimStyleTableRecord
  2
Standard
 70
     0
340
55
  0
DIMSTYLE
105
59
330
A
100
AcDbSymbolTableRecord
100
AcDbDimStyleTableRecord
  2
Annotative
 70
     0
340
55
1001
AcadAnnotative
1000
AnnotativeData
1002
{
1070
     1
1070
     1
1002
}
  0
ENDTAB
  0
TABLE
  2
BLOCK_RECORD
  5
1
330
0
100
AcDbSymbolTable
 70
     1
  0
BLOCK_RECORD
  5
70
330
1
100
AcDbSymbolTableRecord
100
AcDbBlockTableRecord
  2
*Model_Space
340
73
 70
     0
280
     1
281
     0
  0
BLOCK_RECORD
  5
6C
330
1
100
AcDbSymbolTableRecord
100
AcDbBlockTableRecord
  2
*Paper_Space
340
6F
 70
     0
280
     1
281
     0
  0
BLOCK_RECORD
  5
74
330
1
100
AcDbSymbolTableRecord
100
AcDbBlockTableRecord
  2
*Paper_Space0
340
77
 70
     0
280
     1
281
     0
  0
ENDTAB
  0
ENDSEC
  0
SECTION
  2
BLOCKS
  0
BLOCK
  5
71
330
70
100
AcDbEntity
  8
0
100
AcDbBlockBegin
  2
*Model_Space
 70
     0
 10
0.0
 20
0.0
 30
0.0
  3
*Model_Space
  1

  0
ENDBLK
  5
72
330
70
100
AcDbEntity
  8
0
100
AcDbBlockEnd
  0
BLOCK
  5
6D
330
6C
100
AcDbEntity
 67
     1
  8
0
100
AcDbBlockBegin
  2
*Paper_Space
 70
     0
 10
0.0
 20
0.0
 30
0.0
  3
*Paper_Space
  1

  0
ENDBLK
  5
6E
330
6C
100
AcDbEntity
 67
     1
  8
0
100
AcDbBlockEnd
  0
BLOCK
  5
75
330
74
100
AcDbEntity
 67
     1
  8
0
100
AcDbBlockBegin
  2
*Paper_Space0
 70
     0
 10
0.0
 20
0.0
 30
0.0
  3
*Paper_Space0
  1

  0
ENDBLK
  5
76
330
74
100
AcDbEntity
 67
     1
  8
0
100
AcDbBlockEnd
  0
ENDSEC
  0
SECTION
  2
ENTITIES
  0
SPLINE
  5
79
330
70
100
AcDbEntity
  8
Layer 1
100
AcDbSpline
210
0.0
220
0.0
230
1.0
 70
     9
 71
     3
 72
    53
 73
    49
 74
     0
 42
0.0000000001
 43
0.0000000001
 40
0.0
 40
0.0
 40
0.0
 40
0.0
 40
1.0
 40
1.0
 40
1.0
 40
2.0
 40
2.0
 40
2.0
 40
3.0
 40
3.0
 40
3.0
 40
4.0
 40
4.0
 40
4.0
 40
5.0
 40
5.0
 40
5.0
 40
6.0
 40
6.0
 40
6.0
 40
7.0
 40
7.0
 40
7.0
 40
8.0
 40
8.0
 40
8.0
 40
9.0
 40
9.0
 40
9.0
 40
10.0
 40
10.0
 40
10.0
 40
11.0
 40
11.0
 40
11.0
 40
12.0
 40
12.0
 40
12.0
 40
13.0
 40
13.0
 40
13.0
 40
14.0
 40
14.0
 40
14.0
 40
15.0
 40
15.0
 40
15.0
 40
16.0
 40
16.0
 40
16.0
 40
16.0
 10
1937.595789928
 20
-1281.867610958129
 30
0.0
 10
1937.595789928
 20
-1281.867610958129
 30
0.0
 10
1937.547096362514
 20
-1281.867610958129
 30
0.0
 10
1937.547096362514
 20
-1281.867610958129
 30
0.0
 10
1937.547096362514
 20
-1341.263690710072
 30
0.0
 10
1937.540127998869
 20
-1400.659770462015
 30
0.0
 10
1937.554064726164
 20
-1460.062776087584
 30
0.0
 10
1937.554064726164
 20
-1465.075111560539
 30
0.0
 10
1937.261648393143
 20
-1470.024816740716
 30
0.0
 10
1935.493468607854
 20
-1474.793471936152
 30
0.0
 10
1930.68988661414
 20
-1487.748934655738
 30
0.0
 10
1918.263594631467
 20
-1496.193316694681
 30
0.0
 10
1903.832198499525
 20
-1496.193316694681
 30
0.0
 10
1826.565792666046
 20
-1496.186348331034
 30
0.0
 10
1749.299386832568
 20
-1496.172454093762
 30
0.0
 10
1672.039949362735
 20
-1496.158517366469
 30
0.0
 10
1669.485024325746
 20
-1496.158517366469
 30
0.0
 10
1666.9301842688
 20
-1496.221147659246
 30
0.0
 10
1664.382227595453
 20
-1496.130686401907
 30
0.0
 10
1646.198622579981
 20
-1495.483223443091
 30
0.0
 10
1632.519129881508
 20
-1481.852509290141
 30
0.0
 10
1631.795184882669
 20
-1463.689766875585
 30
0.0
 10
1631.760343064436
 20
-1462.763866801063
 30
0.0
 10
1631.774279791729
 20
-1461.838009216562
 30
0.0
 10
1631.774279791729
 20
-1460.905140778393
 30
0.0
 10
1631.774279791729
 20
-1341.528233588507
 30
0.0
 10
1631.795184882669
 20
-1222.1512839086
 30
0.0
 10
1631.739437973496
 20
-1102.774376718714
 30
0.0
 10
1631.739437973496
 20
-1093.042122105829
 30
0.0
 10
1634.356993303263
 20
-1084.500267955879
 30
0.0
 10
1641.360368728125
 20
-1077.510829258311
 30
0.0
 10
1648.32193397111
 20
-1070.577137469912
 30
0.0
 10
1656.724505828173
 20
-1067.500180019739
 30
0.0
 10
1666.498485642891
 20
-1067.507148383386
 30
0.0
 10
1723.458060049814
 20
-1067.562725332472
 30
0.0
 10
1780.42460282038
 20
-1067.534936857931
 30
0.0
 10
1837.384007267214
 20
-1067.534936857931
 30
0.0
 10
1859.661016044763
 20
-1067.534936857931
 30
0.0
 10
1881.938024822313
 20
-1067.44443311057
 30
0.0
 10
1904.208150216262
 20
-1067.569693696118
 30
0.0
 10
1920.755719415596
 20
-1067.660282423524
 30
0.0
 10
1933.850464428071
 20
-1078.478582004733
 30
0.0
 10
1936.962263696472
 20
-1094.309174568877
 30
0.0
 10
1937.797702513659
 20
-1098.548659027398
 30
0.0
 10
1937.581938180749
 20
-1102.857912102428
 30
0.0
 10
1937.588821564352
 20
-1107.146260086517
 30
0.0
 10
1937.595789928
 20
-1165.386653723694
 30
0.0
 10
1937.595789928
 20
-1223.627217320955
 30
0.0
 10
1937.595789928
 20
-1281.867610958129
 30
0.0
  0
SPLINE
  5
7A
330
70
100
AcDbEntity
  8
Layer 1
100
AcDbSpline
210
0.0
220
0.0
230
1.0
 70
     9
 71
     3
 72
    53
 73
    49
 74
     0
 42
0.0000000001
 43
0.0000000001
 40
0.0
 40
0.0
 40
0.0
 40
0.0
 40
1.0
 40
1.0
 40
1.0
 40
2.0
 40
2.0
 40
2.0
 40
3.0
 40
3.0
 40
3.0
 40
4.0
 40
4.0
 40
4.0
 40
5.0
 40
5.0
 40
5.0
 40
6.0
 40
6.0
 40
6.0
 40
7.0
 40
7.0
 40
7.0
 40
8.0
 40
8.0
 40
8.0
 40
9.0
 40
9.0
 40
9.0
 40
10.0
 40
10.0
 40
10.0
 40
11.0
 40
11.0
 40
11.0
 40
12.0
 40
12.0
 40
12.0
 40
13.0
 40
13.0
 40
13.0
 40
14.0
 40
14.0
 40
14.0
 40
15.0
 40
15.0
 40
15.0
 40
16.0
 40
16.0
 40
16.0
 40
16.0
 10
1940.025369399396
 20
-1333.710366927419
 30
0.0
 10
1940.025369399396
 20
-1255.866181771592
 30
0.0
 10
1940.046274490334
 20
-1178.015028252114
 30
0.0
 10
1940.032337763043
 20
-1100.170758116242
 30
0.0
 10
1940.032337763043
 20
-1089.860639200961
 30
0.0
 10
1936.07813131381
 20
-1081.249271374637
 30
0.0
 10
1928.538786748471
 20
-1074.252864313418
 30
0.0
 10
1921.354488808931
 20
-1067.583630423412
 30
0.0
 10
1912.715162547976
 20
-1064.910413164519
 30
0.0
 10
1903.066443318803
 20
-1064.931318255455
 30
0.0
 10
1882.996196336053
 20
-1064.966075093646
 30
0.0
 10
1862.926034333344
 20
-1064.966075093646
 30
0.0
 10
1842.855872330639
 20
-1064.966075093646
 30
0.0
 10
1783.800859987175
 20
-1064.959106729999
 30
0.0
 10
1724.745932623757
 20
-1064.945254982752
 30
0.0
 10
1665.691005260338
 20
-1064.938286619101
 30
0.0
 10
1654.350588285901
 20
-1064.938286619101
 30
0.0
 10
1644.973380298814
 20
-1069.275328168675
 30
0.0
 10
1637.545359591733
 20
-1077.831034065872
 30
0.0
 10
1631.273067489443
 20
-1085.050258803691
 30
0.0
 10
1629.191481300151
 20
-1093.564239499055
 30
0.0
 10
1629.205418027444
 20
-1102.955384213434
 30
0.0
 10
1629.288953411158
 20
-1162.47676704095
 30
0.0
 10
1629.247143229278
 20
-1221.991181504819
 30
0.0
 10
1629.247143229278
 20
-1281.505595968684
 30
0.0
 10
1629.247143229278
 20
-1331.162452744099
 30
0.0
 10
1629.233206501987
 20
-1380.81930951951
 30
0.0
 10
1629.254111592925
 20
-1430.4761238049
 30
0.0
 10
1629.254111592925
 20
-1442.185481642403
 30
0.0
 10
1629.191481300151
 20
-1453.901807843552
 30
0.0
 10
1629.428150724001
 20
-1465.611165681054
 30
0.0
 10
1629.595221491429
 20
-1473.825804169771
 30
0.0
 10
1632.950743527372
 20
-1480.863936432824
 30
0.0
 10
1638.464248812586
 20
-1486.913538328576
 30
0.0
 10
1646.539732478484
 20
-1495.768671412466
 30
0.0
 10
1656.738357575421
 20
-1498.817840388093
 30
0.0
 10
1668.482599721177
 20
-1498.796935297153
 30
0.0
 10
1741.453689206919
 20
-1498.678600585227
 30
0.0
 10
1814.431747056305
 20
-1498.769104332587
 30
0.0
 10
1887.402921522089
 20
-1498.699463186146
 30
0.0
 10
1895.394784824228
 20
-1498.685568948874
 30
0.0
 10
1903.45633176283
 20
-1499.534859513308
 30
0.0
 10
1911.378511428505
 20
-1498.065979444645
 30
0.0
 10
1928.420409546525
 20
-1494.891507393445
 30
0.0
 10
1940.025369399396
 20
-1480.439291150605
 30
0.0
 10
1940.03930612669
 20
-1462.492398049003
 30
0.0
 10
1940.074062964877
 20
-1419.567362966351
 30
0.0
 10
1940.025369399396
 20
-1376.642370373721
 30
0.0
 10
1940.025369399396
 20
-1333.710366927419
 30
0.0
  0
HATCH
  5
7B
330
70
100
AcDbEntity
  8
Layer 1
 62
    18
420
        0
440
 33554687
100
AcDbHatch
 10
0.0
 20
0.0
 30
0.0
210
0.0
220
0.0
230
1.0
  2
SOLID
 70
     1
 71
     1
 91
        2
 92
        1
 93
        1
 72
     4
 94
        3
 73
     0
 74
     0
 95
       53
 96
       49
 40
0.0
 40
0.0
 40
0.0
 40
0.0
 40
1.0
 40
1.0
 40
1.0
 40
2.0
 40
2.0
 40
2.0
 40
3.0
 40
3.0
 40
3.0
 40
4.0
 40
4.0
 40
4.0
 40
5.0
 40
5.0
 40
5.0
 40
6.0
 40
6.0
 40
6.0
 40
7.0
 40
7.0
 40
7.0
 40
8.0
 40
8.0
 40
8.0
 40
9.0
 40
9.0
 40
9.0
 40
10.0
 40
10.0
 40
10.0
 40
11.0
 40
11.0
 40
11.0
 40
12.0
 40
12.0
 40
12.0
 40
13.0
 40
13.0
 40
13.0
 40
14.0
 40
14.0
 40
14.0
 40
15.0
 40
15.0
 40
15.0
 40
16.0
 40
16.0
 40
16.0
 40
16.0
 10
1937.595789928
 20
-1281.867610958129
 10
1937.595789928
 20
-1281.867610958129
 10
1937.547096362514
 20
-1281.867610958129
 10
1937.547096362514
 20
-1281.867610958129
 10
1937.547096362514
 20
-1341.263690710072
 10
1937.540127998869
 20
-1400.659770462015
 10
1937.554064726164
 20
-1460.062776087584
 10
1937.554064726164
 20
-1465.075111560539
 10
1937.261648393143
 20
-1470.024816740716
 10
1935.493468607854
 20
-1474.793471936152
 10
1930.68988661414
 20
-1487.748934655738
 10
1918.263594631467
 20
-1496.193316694681
 10
1903.832198499525
 20
-1496.193316694681
 10
1826.565792666046
 20
-1496.186348331034
 10
1749.299386832568
 20
-1496.172454093762
 10
1672.039949362735
 20
-1496.158517366469
 10
1669.485024325746
 20
-1496.158517366469
 10
1666.9301842688
 20
-1496.221147659246
 10
1664.382227595453
 20
-1496.130686401907
 10
1646.198622579981
 20
-1495.483223443091
 10
1632.519129881508
 20
-1481.852509290141
 10
1631.795184882669
 20
-1463.689766875585
 10
1631.760343064436
 20
-1462.763866801063
 10
1631.774279791729
 20
-1461.838009216562
 10
1631.774279791729
 20
-1460.905140778393
 10
1631.774279791729
 20
-1341.528233588507
 10
1631.795184882669
 20
-1222.1512839086
 10
1631.739437973496
 20
-1102.774376718714
 10
1631.739437973496
 20
-1093.042122105829
 10
1634.356993303263
 20
-1084.500267955879
 10
1641.360368728125
 20
-1077.510829258311
 10
1648.32193397111
 20
-1070.577137469912
 10
1656.724505828173
 20
-1067.500180019739
 10
1666.498485642891
 20
-1067.507148383386
 10
1723.458060049814
 20
-1067.562725332472
 10
1780.42460282038
 20
-1067.534936857931
 10
1837.384007267214
 20
-1067.534936857931
 10
1859.661016044763
 20
-1067.534936857931
 10
1881.938024822313
 20
-1067.44443311057
 10
1904.208150216262
 20
-1067.569693696118
 10
1920.755719415596
 20
-1067.660282423524
 10
1933.850464428071
 20
-1078.478582004733
 10
1936.962263696472
 20
-1094.309174568877
 10
1937.797702513659
 20
-1098.548659027398
 10
1937.581938180749
 20
-1102.857912102428
 10
1937.588821564352
 20
-1107.146260086517
 10
1937.595789928
 20
-1165.386653723694
 10
1937.595789928
 20
-1223.627217320955
 10
1937.595789928
 20
-1281.867610958129
 97
        0
 97
        1
330
79
 92
        1
 93
        1
 72
     4
 94
        3
 73
     0
 74
     0
 95
       53
 96
       49
 40
0.0
 40
0.0
 40
0.0
 40
0.0
 40
1.0
 40
1.0
 40
1.0
 40
2.0
 40
2.0
 40
2.0
 40
3.0
 40
3.0
 40
3.0
 40
4.0
 40
4.0
 40
4.0
 40
5.0
 40
5.0
 40
5.0
 40
6.0
 40
6.0
 40
6.0
 40
7.0
 40
7.0
 40
7.0
 40
8.0
 40
8.0
 40
8.0
 40
9.0
 40
9.0
 40
9.0
 40
10.0
 40
10.0
 40
10.0
 40
11.0
 40
11.0
 40
11.0
 40
12.0
 40
12.0
 40
12.0
 40
13.0
 40
13.0
 40
13.0
 40
14.0
 40
14.0
 40
14.0
 40
15.0
 40
15.0
 40
15.0
 40
16.0
 40
16.0
 40
16.0
 40
16.0
 10
1940.025369399396
 20
-1333.710366927419
 10
1940.025369399396
 20
-1255.866181771592
 10
1940.046274490334
 20
-1178.015028252114
 10
1940.032337763043
 20
-1100.170758116242
 10
1940.032337763043
 20
-1089.860639200961
 10
1936.07813131381
 20
-1081.249271374637
 10
1928.538786748471
 20
-1074.252864313418
 10
1921.354488808931
 20
-1067.583630423412
 10
1912.715162547976
 20
-1064.910413164519
 10
1903.066443318803
 20
-1064.931318255455
 10
1882.996196336053
 20
-1064.966075093646
 10
1862.926034333344
 20
-1064.966075093646
 10
1842.855872330639
 20
-1064.966075093646
 10
1783.800859987175
 20
-1064.959106729999
 10
1724.745932623757
 20
-1064.945254982752
 10
1665.691005260338
 20
-1064.938286619101
 10
1654.350588285901
 20
-1064.938286619101
 10
1644.973380298814
 20
-1069.275328168675
 10
1637.545359591733
 20
-1077.831034065872
 10
1631.273067489443
 20
-1085.050258803691
 10
1629.191481300151
 20
-1093.564239499055
 10
1629.205418027444
 20
-1102.955384213434
 10
1629.288953411158
 20
-1162.47676704095
 10
1629.247143229278
 20
-1221.991181504819
 10
1629.247143229278
 20
-1281.505595968684
 10
1629.247143229278
 20
-1331.162452744099
 10
1629.233206501987
 20
-1380.81930951951
 10
1629.254111592925
 20
-1430.4761238049
 10
1629.254111592925
 20
-1442.185481642403
 10
1629.191481300151
 20
-1453.901807843552
 10
1629.428150724001
 20
-1465.611165681054
 10
1629.595221491429
 20
-1473.825804169771
 10
1632.950743527372
 20
-1480.863936432824
 10
1638.464248812586
 20
-1486.913538328576
 10
1646.539732478484
 20
-1495.768671412466
 10
1656.738357575421
 20
-1498.817840388093
 10
1668.482599721177
 20
-1498.796935297153
 10
1741.453689206919
 20
-1498.678600585227
 10
1814.431747056305
 20
-1498.769104332587
 10
1887.402921522089
 20
-1498.699463186146
 10
1895.394784824228
 20
-1498.685568948874
 10
1903.45633176283
 20
-1499.534859513308
 10
1911.378511428505
 20
-1498.065979444645
 10
1928.420409546525
 20
-1494.891507393445
 10
1940.025369399396
 20
-1480.439291150605
 10
1940.03930612669
 20
-1462.492398049003
 10
1940.074062964877
 20
-1419.567362966351
 10
1940.025369399396
 20
-1376.642370373721
 10
1940.025369399396
 20
-1333.710366927419
 97
        0
 97
        1
330
7A
 75
     2
 76
     1
 98
        1
 10
0.0
 20
0.0
450
        0
451
        0
460
0.0
461
0.0
452
        0
462
0.0
453
        0
470

  0
SPLINE
  5
7C
330
70
100
AcDbEntity
  8
Layer 1
100
AcDbSpline
210
0.0
220
0.0
230
1.0
 70
     9
 71
     3
 72
    53
 73
    49
 74
     0
 42
0.0000000001
 43
0.0000000001
 40
0.0
 40
0.0
 40
0.0
 40
0.0
 40
1.0
 40
1.0
 40
1.0
 40
2.0
 40
2.0
 40
2.0
 40
3.0
 40
3.0
 40
3.0
 40
4.0
 40
4.0
 40
4.0
 40
5.0
 40
5.0
 40
5.0
 40
6.0
 40
6.0
 40
6.0
 40
7.0
 40
7.0
 40
7.0
 40
8.0
 40
8.0
 40
8.0
 40
9.0
 40
9.0
 40
9.0
 40
10.0
 40
10.0
 40
10.0
 40
11.0
 40
11.0
 40
11.0
 40
12.0
 40
12.0
 40
12.0
 40
13.0
 40
13.0
 40
13.0
 40
14.0
 40
14.0
 40
14.0
 40
15.0
 40
15.0
 40
15.0
 40
16.0
 40
16.0
 40
16.0
 40
16.0
 10
1937.595789928
 20
-1281.867610958129
 30
0.0
 10
1937.595789928
 20
-1281.867610958129
 30
0.0
 10
1937.547096362514
 20
-1281.867610958129
 30
0.0
 10
1937.547096362514
 20
-1281.867610958129
 30
0.0
 10
1937.547096362514
 20
-1341.263690710072
 30
0.0
 10
1937.540127998869
 20
-1400.659770462015
 30
0.0
 10
1937.554064726164
 20
-1460.062776087584
 30
0.0
 10
1937.554064726164
 20
-1465.075111560539
 30
0.0
 10
1937.261648393143
 20
-1470.024816740716
 30
0.0
 10
1935.493468607854
 20
-1474.793471936152
 30
0.0
 10
1930.68988661414
 20
-1487.748934655738
 30
0.0
 10
1918.263594631467
 20
-1496.193316694681
 30
0.0
 10
1903.832198499525
 20
-1496.193316694681
 30
0.0
 10
1826.565792666046
 20
-1496.186348331034
 30
0.0
 10
1749.299386832568
 20
-1496.172454093762
 30
0.0
 10
1672.039949362735
 20
-1496.158517366469
 30
0.0
 10
1669.485024325746
 20
-1496.158517366469
 30
0.0
 10
1666.9301842688
 20
-1496.221147659246
 30
0.0
 10
1664.382227595453
 20
-1496.130686401907
 30
0.0
 10
1646.198622579981
 20
-1495.483223443091
 30
0.0
 10
1632.519129881508
 20
-1481.852509290141
 30
0.0
 10
1631.795184882669
 20
-1463.689766875585
 30
0.0
 10
1631.760343064436
 20
-1462.763866801063
 30
0.0
 10
1631.774279791729
 20
-1461.838009216562
 30
0.0
 10
1631.774279791729
 20
-1460.905140778393
 30
0.0
 10
1631.774279791729
 20
-1341.528233588507
 30
0.0
 10
1631.795184882669
 20
-1222.1512839086
 30
0.0
 10
1631.739437973496
 20
-1102.774376718714
 30
0.0
 10
1631.739437973496
 20
-1093.042122105829
 30
0.0
 10
1634.356993303263
 20
-1084.500267955879
 30
0.0
 10
1641.360368728125
 20
-1077.510829258311
 30
0.0
 10
1648.32193397111
 20
-1070.577137469912
 30
0.0
 10
1656.724505828173
 20
-1067.500180019739
 30
0.0
 10
1666.498485642891
 20
-1067.507148383386
 30
0.0
 10
1723.458060049814
 20
-1067.562725332472
 30
0.0
 10
1780.42460282038
 20
-1067.534936857931
 30
0.0
 10
1837.384007267214
 20
-1067.534936857931
 30
0.0
 10
1859.661016044763
 20
-1067.534936857931
 30
0.0
 10
1881.938024822313
 20
-1067.44443311057
 30
0.0
 10
1904.208150216262
 20
-1067.569693696118
 30
0.0
 10
1920.755719415596
 20
-1067.660282423524
 30
0.0
 10
1933.850464428071
 20
-1078.478582004733
 30
0.0
 10
1936.962263696472
 20
-1094.309174568877
 30
0.0
 10
1937.797702513659
 20
-1098.548659027398
 30
0.0
 10
1937.581938180749
 20
-1102.857912102428
 30
0.0
 10
1937.588821564352
 20
-1107.146260086517
 30
0.0
 10
1937.595789928
 20
-1165.386653723694
 30
0.0
 10
1937.595789928
 20
-1223.627217320955
 30
0.0
 10
1937.595789928
 20
-1281.867610958129
 30
0.0
  0
SPLINE
  5
7D
330
70
100
AcDbEntity
  8
Layer 1
100
AcDbSpline
210
0.0
220
0.0
230
1.0
 70
    11
 71
     3
 72
    47
 73
    43
 74
     0
 42
0.0000000001
 43
0.0000000001
 40
0.0
 40
0.0
 40
0.0
 40
0.0
 40
1.0
 40
1.0
 40
1.0
 40
2.0
 40
2.0
 40
2.0
 40
3.0
 40
3.0
 40
3.0
 40
4.0
 40
4.0
 40
4.0
 40
5.0
 40
5.0
 40
5.0
 40
6.0
 40
6.0
 40
6.0
 40
7.0
 40
7.0
 40
7.0
 40
8.0
 40
8.0
 40
8.0
 40
9.0
 40
9.0
 40
9.0
 40
10.0
 40
10.0
 40
10.0
 40
11.0
 40
11.0
 40
11.0
 40
12.0
 40
12.0
 40
12.0
 40
13.0
 40
13.0
 40
13.0
 40
14.0
 40
14.0
 40
14.0
 40
14.0
 10
1664.440700222907
 20
-1140.828169327557
 30
0.0
 10
1664.440700222907
 20
-1140.828169327557
 30
0.0
 10
1664.440700222907
 20
-1140.623091202557
 30
0.0
 10
1664.440700222907
 20
-1140.623091202557
 30
0.0
 10
1664.440700222907
 20
-1140.623091202557
 30
0.0
 10
1668.889430691657
 20
-1135.708540421307
 30
0.0
 10
1668.889430691657
 20
-1135.708540421307
 30
0.0
 10
1680.610622097907
 20
-1122.193891983807
 30
0.0
 10
1688.053981472907
 20
-1112.262251358807
 30
0.0
 10
1688.053981472907
 20
-1099.976118546307
 30
0.0
 10
1688.053981472907
 20
-1090.454145890057
 30
0.0
 10
1683.006129910407
 20
-1080.625044327558
 30
0.0
 10
1671.028590847907
 20
-1080.625044327558
 30
0.0
 10
1664.611598660407
 20
-1080.625044327558
 30
0.0
 10
1659.136012722907
 20
-1083.491743546307
 30
0.0
 10
1655.285915066657
 20
-1087.382368546307
 30
0.0
 10
1655.285915066657
 20
-1087.382368546307
 30
0.0
 10
1657.681422879157
 20
-1093.730513077557
 30
0.0
 10
1657.681422879157
 20
-1093.730513077557
 30
0.0
 10
1660.248317410407
 20
-1091.170454483807
 30
0.0
 10
1664.440700222907
 20
-1088.099165421307
 30
0.0
 10
1669.488551785407
 20
-1088.099165421307
 30
0.0
 10
1677.787379910407
 20
-1088.099165421307
 30
0.0
 10
1680.525172879157
 20
-1094.344770890057
 30
0.0
 10
1680.525172879157
 20
-1101.102095108807
 30
0.0
 10
1680.439723660407
 20
-1111.135786515057
 30
0.0
 10
1674.022731472907
 20
-1119.736372452557
 30
0.0
 10
1659.820583035407
 20
-1135.913618546307
 30
0.0
 10
1659.820583035407
 20
-1135.913618546307
 30
0.0
 10
1653.917262722907
 20
-1142.773481827557
 30
0.0
 10
1653.917262722907
 20
-1142.773481827557
 30
0.0
 10
1653.917262722907
 20
-1142.773481827557
 30
0.0
 10
1653.917262722907
 20
-1148.302290421307
 30
0.0
 10
1653.917262722907
 20
-1148.302290421307
 30
0.0
 10
1653.917262722907
 20
-1148.302290421307
 30
0.0
 10
1689.423122097907
 20
-1148.302290421307
 30
0.0
 10
1689.423122097907
 20
-1148.302290421307
 30
0.0
 10
1689.423122097907
 20
-1148.302290421307
 30
0.0
 10
1689.423122097907
 20
-1140.828169327557
 30
0.0
 10
1689.423122097907
 20
-1140.828169327557
 30
0.0
 10
1689.423122097907
 20
-1140.828169327557
 30
0.0
 10
1664.440700222907
 20
-1140.828169327557
 30
0.0
 10
1664.440700222907
 20
-1140.828169327557
 30
0.0
  0
HATCH
  5
7E
330
70
100
AcDbEntity
  8
Layer 1
 62
   246
420
  8590872
440
 33554687
100
AcDbHatch
 10
0.0
 20
0.0
 30
0.0
210
0.0
220
0.0
230
1.0
  2
SOLID
 70
     1
 71
     1
 91
        1
 92
        1
 93
        1
 72
     4
 94
        3
 73
     0
 74
     0
 95
       47
 96
       43
 40
0.0
 40
0.0
 40
0.0
 40
0.0
 40
1.0
 40
1.0
 40
1.0
 40
2.0
 40
2.0
 40
2.0
 40
3.0
 40
3.0
 40
3.0
 40
4.0
 40
4.0
 40
4.0
 40
5.0
 40
5.0
 40
5.0
 40
6.0
 40
6.0
 40
6.0
 40
7.0
 40
7.0
 40
7.0
 40
8.0
 40
8.0
 40
8.0
 40
9.0
 40
9.0
 40
9.0
 40
10.0
 40
10.0
 40
10.0
 40
11.0
 40
11.0
 40
11.0
 40
12.0
 40
12.0
 40
12.0
 40
13.0
 40
13.0
 40
13.0
 40
14.0
 40
14.0
 40
14.0
 40
14.0
 10
1664.440700222907
 20
-1140.828169327557
 10
1664.440700222907
 20
-1140.828169327557
 10
1664.440700222907
 20
-1140.623091202557
 10
1664.440700222907
 20
-1140.623091202557
 10
1664.440700222907
 20
-1140.623091202557
 10
1668.889430691657
 20
-1135.708540421307
 10
1668.889430691657
 20
-1135.708540421307
 10
1680.610622097907
 20
-1122.193891983807
 10
1688.053981472907
 20
-1112.262251358807
 10
1688.053981472907
 20
-1099.976118546307
 10
1688.053981472907
 20
-1090.454145890057
 10
1683.006129910407
 20
-1080.625044327558
 10
1671.028590847907
 20
-1080.625044327558
 10
1664.611598660407
 20
-1080.625044327558
 10
1659.136012722907
 20
-1083.491743546307
 10
1655.285915066657
 20
-1087.382368546307
 10
1655.285915066657
 20
-1087.382368546307
 10
1657.681422879157
 20
-1093.730513077557
 10
1657.681422879157
 20
-1093.730513077557
 10
1660.248317410407
 20
-1091.170454483807
 10
1664.440700222907
 20
-1088.099165421307
 10
1669.488551785407
 20
-1088.099165421307
 10
1677.787379910407
 20
-1088.099165421307
 10
1680.525172879157
 20
-1094.344770890057
 10
1680.525172879157
 20
-1101.102095108807
 10
1680.439723660407
 20
-1111.135786515057
 10
1674.022731472907
 20
-1119.736372452557
 10
1659.820583035407
 20
-1135.913618546307
 10
1659.820583035407
 20
-1135.913618546307
 10
1653.917262722907
 20
-1142.773481827557
 10
1653.917262722907
 20
-1142.773481827557
 10
1653.917262722907
 20
-1142.773481827557
 10
1653.917262722907
 20
-1148.302290421307
 10
1653.917262722907
 20
-1148.302290421307
 10
1653.917262722907
 20
-1148.302290421307
 10
1689.423122097907
 20
-1148.302290421307
 10
1689.423122097907
 20
-1148.302290421307
 10
1689.423122097907
 20
-1148.302290421307
 10
1689.423122097907
 20
-1140.828169327557
 10
1689.423122097907
 20
-1140.828169327557
 10
1689.423122097907
 20
-1140.828169327557
 10
1664.440700222907
 20
-1140.828169327557
 10
1664.440700222907
 20
-1140.828169327557
 97
        0
 97
        1
330
7D
 75
     2
 76
     1
 98
        1
 10
0.0
 20
0.0
450
        0
451
        0
460
0.0
461
0.0
452
        0
462
0.0
453
        0
470

  0
SPLINE
  5
7F
330
70
100
AcDbEntity
  8
Layer 1
100
AcDbSpline
210
0.0
220
0.0
230
1.0
 70
     9
 71
     3
 72
    17
 73
    13
 74
     0
 42
0.0000000001
 43
0.0000000001
 40
0.0
 40
0.0
 40
0.0
 40
0.0
 40
1.0
 40
1.0
 40
1.0
 40
2.0
 40
2.0
 40
2.0
 40
3.0
 40
3.0
 40
3.0
 40
4.0
 40
4.0
 40
4.0
 40
4.0
 10
1757.368332804912
 20
-1375.059183177583
 30
0.0
 10
1757.410600139969
 20
-1372.215596129813
 30
0.0
 10
1757.937650197667
 20
-1368.860578957368
 30
0.0
 10
1753.392731156644
 20
-1369.505931258221
 30
0.0
 10
1749.410907460365
 20
-1370.071341352971
 30
0.0
 10
1744.228802556498
 20
-1369.551522574283
 30
0.0
 10
1744.998669889517
 20
-1376.129875421001
 30
0.0
 10
1745.327938447954
 20
-1378.943352200728
 30
0.0
 10
1743.53764598258
 20
-1383.063533134192
 30
0.0
 10
1749.025270109854
 20
-1383.128642422279
 30
0.0
 10
1755.669769252661
 20
-1383.207473548381
 30
0.0
 10
1757.247271379752
 20
-1381.791161352504
 30
0.0
 10
1757.368332804912
 20
-1375.059183177583
 30
0.0
  0
SPLINE
  5
80
330
70
100
AcDbEntity
  8
Layer 1
100
AcDbSpline
210
0.0
220
0.0
230
1.0
 70
     9
 71
     3
 72
    17
 73
    13
 74
     0
 42
0.0000000001
 43
0.0000000001
 40
0.0
 40
0.0
 40
0.0
 40
0.0
 40
1.0
 40
1.0
 40
1.0
 40
2.0
 40
2.0
 40
2.0
 40
3.0
 40
3.0
 40
3.0
 40
4.0
 40
4.0
 40
4.0
 40
4.0
 10
1745.066899460607
 20
-1354.362262680149
 30
0.0
 10
1745.36966876101
 20
-1357.32147612007
 30
0.0
 10
1744.436518962771
 20
-1360.744195100608
 30
0.0
 10
1749.358334858296
 20
-1360.625476202452
 30
0.0
 10
1756.532050664806
 20
-1360.452388456219
 30
0.0
 10
1758.779682176784
 20
-1358.346502975431
 30
0.0
 10
1758.800098271811
 20
-1351.619543178513
 30
0.0
 10
1758.809190609823
 20
-1348.627238072547
 30
0.0
 10
1757.634658681267
 20
-1347.315274806807
 30
0.0
 10
1754.885254181621
 20
-1348.248433864043
 30
0.0
 10
1751.179033879709
 20
-1349.50630605171
 30
0.0
 10
1744.802008729257
 20
-1346.840584394181
 30
0.0
 10
1745.066899460607
 20
-1354.362262680149
 30
0.0
  0
SPLINE
  5
81
330
70
100
AcDbEntity
  8
Layer 1
100
AcDbSpline
210
0.0
220
0.0
230
1.0
 70
     9
 71
     3
 72
    23
 73
    19
 74
     0
 42
0.0000000001
 43
0.0000000001
 40
0.0
 40
0.0
 40
0.0
 40
0.0
 40
1.0
 40
1.0
 40
1.0
 40
2.0
 40
2.0
 40
2.0
 40
3.0
 40
3.0
 40
3.0
 40
4.0
 40
4.0
 40
4.0
 40
5.0
 40
5.0
 40
5.0
 40
6.0
 40
6.0
 40
6.0
 40
6.0
 10
1753.319344322546
 20
-1422.804920396866
 30
0.0
 10
1749.593902336608
 20
-1424.004294222458
 30
0.0
 10
1745.24271861184
 20
-1425.514622304458
 30
0.0
 10
1740.823509013982
 20
-1426.788994030147
 30
0.0
 10
1737.926608644144
 20
-1427.624378047255
 30
0.0
 10
1735.982653814566
 20
-1428.690237092666
 30
0.0
 10
1737.431529913487
 20
-1432.214434713337
 30
0.0
 10
1738.600737917037
 20
-1435.058318049109
 30
0.0
 10
1739.475380094196
 20
-1438.334818901451
 30
0.0
 10
1743.58201511064
 20
-1437.053595515751
 30
0.0
 10
1747.971355174457
 20
-1435.684263485939
 30
0.0
 10
1752.23616168811
 20
-1433.914683403594
 30
0.0
 10
1756.55148530583
 20
-1432.309506125465
 30
0.0
 10
1759.395007540599
 20
-1431.251795000063
 30
0.0
 10
1758.421469984309
 20
-1429.19833397734
 30
0.0
 10
1757.743155643409
 20
-1427.337015722875
 30
0.0
 10
1757.047554749488
 20
-1425.428217316345
 30
0.0
 10
1757.295353366817
 20
-1422.659183736673
 30
0.0
 10
1753.319344322546
 20
-1422.804920396866
 30
0.0
  0
SPLINE
  5
82
330
70
100
AcDbEntity
  8
Layer 1
100
AcDbSpline
210
0.0
220
0.0
230
1.0
 70
     9
 71
     3
 72
    23
 73
    19
 74
     0
 42
0.0000000001
 43
0.0000000001
 40
0.0
 40
0.0
 40
0.0
 40
0.0
 40
1.0
 40
1.0
 40
1.0
 40
2.0
 40
2.0
 40
2.0
 40
3.0
 40
3.0
 40
3.0
 40
4.0
 40
4.0
 40
4.0
 40
5.0
 40
5.0
 40
5.0
 40
6.0
 40
6.0
 40
6.0
 40
6.0
 10
1771.788540158026
 20
-1421.113004806623
 30
0.0
 10
1771.821779968071
 20
-1425.28148068415
 30
0.0
 10
1773.42116111219
 20
-1427.750670807422
 30
0.0
 10
1777.718846334886
 20
-1426.381672101605
 30
0.0
 10
1782.686540575472
 20
-1424.799271963508
 30
0.0
 10
1787.648364610048
 20
-1423.054283785198
 30
0.0
 10
1792.345927525275
 20
-1420.819124146234
 30
0.0
 10
1795.441118639377
 20
-1419.346387604281
 30
0.0
 10
1794.466127420084
 20
-1415.764561967536
 30
0.0
 10
1794.102906108603
 20
-1413.267446700226
 30
0.0
 10
1793.743230994127
 20
-1410.794701120948
 30
0.0
 10
1791.134433668669
 20
-1411.867745150369
 30
0.0
 10
1789.54439485556
 20
-1412.274733754909
 30
0.0
 10
1784.675225634108
 20
-1413.520958120561
 30
0.0
 10
1779.884044969756
 20
-1415.069618462615
 30
0.0
 10
1775.023060704314
 20
-1416.350952956313
 30
0.0
 10
1772.320534521732
 20
-1417.063303381256
 30
0.0
 10
1771.575203538743
 20
-1418.817624631582
 30
0.0
 10
1771.788540158026
 20
-1421.113004806623
 30
0.0
  0
SPLINE
  5
83
330
70
100
AcDbEntity
  8
Layer 1
100
AcDbSpline
210
0.0
220
0.0
230
1.0
 70
     9
 71
     3
 72
    23
 73
    19
 74
     0
 42
0.0000000001
 43
0.0000000001
 40
0.0
 40
0.0
 40
0.0
 40
0.0
 40
1.0
 40
1.0
 40
1.0
 40
2.0
 40
2.0
 40
2.0
 40
3.0
 40
3.0
 40
3.0
 40
4.0
 40
4.0
 40
4.0
 40
5.0
 40
5.0
 40
5.0
 40
6.0
 40
6.0
 40
6.0
 40
6.0
 10
1794.888319302645
 20
-1345.3475891602
 30
0.0
 10
1795.996973446113
 20
-1340.099754615244
 30
0.0
 10
1794.299039505862
 20
-1338.645480519318
 30
0.0
 10
1789.513849414521
 20
-1340.327544533546
 30
0.0
 10
1786.098102460994
 20
-1341.528251655139
 30
0.0
 10
1782.533896701268
 20
-1342.689626544678
 30
0.0
 10
1778.963635555538
 20
-1342.980229519061
 30
0.0
 10
1773.243110541955
 20
-1343.445827593678
 30
0.0
 10
1771.14267861217
 20
-1346.251508295398
 30
0.0
 10
1770.566611408407
 20
-1351.762465102704
 30
0.0
 10
1770.129003290827
 20
-1355.948829368252
 30
0.0
 10
1770.670738122544
 20
-1357.53326648635
 30
0.0
 10
1775.103058464419
 20
-1356.411371972864
 30
0.0
 10
1779.017245165607
 20
-1355.420640453552
 30
0.0
 10
1782.973606611851
 20
-1354.186249089916
 30
0.0
 10
1786.958717253133
 20
-1353.981495563644
 30
0.0
 10
1793.042519132197
 20
-1353.668911723228
 30
0.0
 10
1796.129525290289
 20
-1351.383420160201
 30
0.0
 10
1794.888319302645
 20
-1345.3475891602
 30
0.0
  0
SPLINE
  5
84
330
70
100
AcDbEntity
  8
Layer 1
100
AcDbSpline
210
0.0
220
0.0
230
1.0
 70
     9
 71
     3
 72
    23
 73
    19
 74
     0
 42
0.0000000001
 43
0.0000000001
 40
0.0
 40
0.0
 40
0.0
 40
0.0
 40
1.0
 40
1.0
 40
1.0
 40
2.0
 40
2.0
 40
2.0
 40
3.0
 40
3.0
 40
3.0
 40
4.0
 40
4.0
 40
4.0
 40
5.0
 40
5.0
 40
5.0
 40
6.0
 40
6.0
 40
6.0
 40
6.0
 10
1794.026704538502
 20
-1368.467441816844
 30
0.0
 10
1794.298308044863
 20
-1360.677382156519
 30
0.0
 10
1794.31248357388
 20
-1360.733825020595
 30
0.0
 10
1787.383140554697
 20
-1362.474202216902
 30
0.0
 10
1783.09254772601
 20
-1363.55182019233
 30
0.0
 10
1778.757326517263
 20
-1364.456109687527
 30
0.0
 10
1774.430753214528
 20
-1365.38512071276
 30
0.0
 10
1767.807688656749
 20
-1366.807229042643
 30
0.0
 10
1769.748208397323
 20
-1372.027656947562
 30
0.0
 10
1769.998627311653
 20
-1376.086135904942
 30
0.0
 10
1770.295091233047
 20
-1380.890779155311
 30
0.0
 10
1774.019283253983
 20
-1378.802726508545
 30
0.0
 10
1776.466418439228
 20
-1378.40064517401
 30
0.0
 10
1780.227785345212
 20
-1377.78258840519
 30
0.0
 10
1783.890164282067
 20
-1376.569770511582
 30
0.0
 10
1787.648614603049
 20
-1375.924177476729
 30
0.0
 10
1792.328752080251
 20
-1375.120255541661
 30
0.0
 10
1795.215143485076
 20
-1373.161551125068
 30
0.0
 10
1794.026704538502
 20
-1368.467441816844
 30
0.0
  0
SPLINE
  5
85
330
70
100
AcDbEntity
  8
Layer 1
100
AcDbSpline
210
0.0
220
0.0
230
1.0
 70
     9
 71
     3
 72
    23
 73
    19
 74
     0
 42
0.0000000001
 43
0.0000000001
 40
0.0
 40
0.0
 40
0.0
 40
0.0
 40
1.0
 40
1.0
 40
1.0
 40
2.0
 40
2.0
 40
2.0
 40
3.0
 40
3.0
 40
3.0
 40
4.0
 40
4.0
 40
4.0
 40
5.0
 40
5.0
 40
5.0
 40
6.0
 40
6.0
 40
6.0
 40
6.0
 10
1771.112133171129
 20
-1397.294338383054
 30
0.0
 10
1771.078384116085
 20
-1406.286494014971
 30
0.0
 10
1771.349811701444
 20
-1406.519487491282
 30
0.0
 10
1779.163342926802
 20
-1404.569505052696
 30
0.0
 10
1781.496277605895
 20
-1403.987299131925
 30
0.0
 10
1783.801463061949
 20
-1403.284503994994
 30
0.0
 10
1786.098824662995
 20
-1402.570857310046
 30
0.0
 10
1795.946687817048
 20
-1399.511794813993
 30
0.0
 10
1796.038611169169
 20
-1399.160841677528
 30
0.0
 10
1794.910179801673
 20
-1389.157843978269
 30
0.0
 10
1794.496283983124
 20
-1385.488872633407
 30
0.0
 10
1792.956641907085
 20
-1384.822872762522
 30
0.0
 10
1789.757712956843
 20
-1385.76493897777
 30
0.0
 10
1786.106963324006
 20
-1386.840075541197
 30
0.0
 10
1782.438704922142
 20
-1388.050745346802
 30
0.0
 10
1778.690893192175
 20
-1388.556323783473
 30
0.0
 10
1772.807465332376
 20
-1389.349968228523
 30
0.0
 10
1769.886760073507
 20
-1392.017171326058
 30
0.0
 10
1771.112133171129
 20
-1397.294338383054
 30
0.0
  0
SPLINE
  5
86
330
70
100
AcDbEntity
  8
Layer 1
100
AcDbSpline
210
0.0
220
0.0
230
1.0
 70
     9
 71
     3
 72
    47
 73
    43
 74
     0
 42
0.0000000001
 43
0.0000000001
 40
0.0
 40
0.0
 40
0.0
 40
0.0
 40
1.0
 40
1.0
 40
1.0
 40
2.0
 40
2.0
 40
2.0
 40
3.0
 40
3.0
 40
3.0
 40
4.0
 40
4.0
 40
4.0
 40
5.0
 40
5.0
 40
5.0
 40
6.0
 40
6.0
 40
6.0
 40
7.0
 40
7.0
 40
7.0
 40
8.0
 40
8.0
 40
8.0
 40
9.0
 40
9.0
 40
9.0
 40
10.0
 40
10.0
 40
10.0
 40
11.0
 40
11.0
 40
11.0
 40
12.0
 40
12.0
 40
12.0
 40
13.0
 40
13.0
 40
13.0
 40
14.0
 40
14.0
 40
14.0
 40
14.0
 10
1807.837151186808
 20
-1448.380870950766
 30
0.0
 10
1810.853529692806
 20
-1447.878514646102
 30
0.0
 10
1814.321451111402
 20
-1447.843441554055
 30
0.0
 10
1816.767938166644
 20
-1445.510025406959
 30
0.0
 10
1824.255969246569
 20
-1438.368040193495
 30
0.0
 10
1833.505876920831
 20
-1436.261025114702
 30
0.0
 10
1843.364341629898
 20
-1435.560155849774
 30
0.0
 10
1845.566094796815
 20
-1435.403604677566
 30
0.0
 10
1847.853938145848
 20
-1435.126056893198
 30
0.0
 10
1849.897584628557
 20
-1434.359115404179
 30
0.0
 10
1853.93639746991
 20
-1432.84338006617
 30
0.0
 10
1856.57665687741
 20
-1429.964497710357
 30
0.0
 10
1857.08947585209
 20
-1425.453661048378
 30
0.0
 10
1857.570869780727
 20
-1421.219298126766
 30
0.0
 10
1854.642451774845
 20
-1419.375053468321
 30
0.0
 10
1851.669886856905
 20
-1417.520512801861
 30
0.0
 10
1845.139532666249
 20
-1413.446293544462
 30
0.0
 10
1837.672204710352
 20
-1412.50146814721
 30
0.0
 10
1830.33720638263
 20
-1411.127321437388
 30
0.0
 10
1822.696309212502
 20
-1409.695880035492
 30
0.0
 10
1822.184490209825
 20
-1410.105572268033
 30
0.0
 10
1823.392493423425
 20
-1417.709581582113
 30
0.0
 10
1824.086103632344
 20
-1422.0754963759
 30
0.0
 10
1824.584126725005
 20
-1426.408152841643
 30
0.0
 10
1820.56755400168
 20
-1429.339441137527
 30
0.0
 10
1815.804557733367
 20
-1432.815454922137
 30
0.0
 10
1810.447911420268
 20
-1435.185203385278
 30
0.0
 10
1804.552576486454
 20
-1436.1842865226
 30
0.0
 10
1802.161365661284
 20
-1436.589534435138
 30
0.0
 10
1800.25656714276
 20
-1436.405169226892
 30
0.0
 10
1799.019935101119
 20
-1433.840944727494
 30
0.0
 10
1798.073054205866
 20
-1431.877518220893
 30
0.0
 10
1797.771951525466
 20
-1428.631238744588
 30
0.0
 10
1794.145404918659
 20
-1429.949942562337
 30
0.0
 10
1789.959596193112
 20
-1431.471974020355
 30
0.0
 10
1786.024141568896
 20
-1433.536027339092
 30
0.0
 10
1783.061752291967
 20
-1436.902933067552
 30
0.0
 10
1782.234331014872
 20
-1437.843314144801
 30
0.0
 10
1783.527600359586
 20
-1439.133352098511
 30
0.0
 10
1784.589116933994
 20
-1439.786148635373
 30
0.0
 10
1791.706139883427
 20
-1444.163211265176
 30
0.0
 10
1799.196930145355
 20
-1447.547005409663
 30
0.0
 10
1807.837151186808
 20
-1448.380870950766
 30
0.0
  0
SPLINE
  5
87
330
70
100
AcDbEntity
  8
Layer 1
100
AcDbSpline
210
0.0
220
0.0
230
1.0
 70
     9
 71
     3
 72
   128
 73
   124
 74
     0
 42
0.0000000001
 43
0.0000000001
 40
0.0
 40
0.0
 40
0.0
 40
0.0
 40
1.0
 40
1.0
 40
1.0
 40
2.0
 40
2.0
 40
2.0
 40
3.0
 40
3.0
 40
3.0
 40
4.0
 40
4.0
 40
4.0
 40
5.0
 40
5.0
 40
5.0
 40
6.0
 40
6.0
 40
6.0
 40
7.0
 40
7.0
 40
7.0
 40
8.0
 40
8.0
 40
8.0
 40
9.0
 40
9.0
 40
9.0
 40
10.0
 40
10.0
 40
10.0
 40
11.0
 40
11.0
 40
11.0
 40
12.0
 40
12.0
 40
12.0
 40
13.0
 40
13.0
 40
13.0
 40
14.0
 40
14.0
 40
14.0
 40
15.0
 40
15.0
 40
15.0
 40
16.0
 40
16.0
 40
16.0
 40
17.0
 40
17.0
 40
17.0
 40
18.0
 40
18.0
 40
18.0
 40
19.0
 40
19.0
 40
19.0
 40
20.0
 40
20.0
 40
20.0
 40
21.0
 40
21.0
 40
21.0
 40
22.0
 40
22.0
 40
22.0
 40
23.0
 40
23.0
 40
23.0
 40
24.0
 40
24.0
 40
24.0
 40
25.0
 40
25.0
 40
25.0
 40
26.0
 40
26.0
 40
26.0
 40
27.0
 40
27.0
 40
27.0
 40
28.0
 40
28.0
 40
28.0
 40
29.0
 40
29.0
 40
29.0
 40
30.0
 40
30.0
 40
30.0
 40
31.0
 40
31.0
 40
31.0
 40
32.0
 40
32.0
 40
32.0
 40
33.0
 40
33.0
 40
33.0
 40
34.0
 40
34.0
 40
34.0
 40
35.0
 40
35.0
 40
35.0
 40
36.0
 40
36.0
 40
36.0
 40
37.0
 40
37.0
 40
37.0
 40
38.0
 40
38.0
 40
38.0
 40
39.0
 40
39.0
 40
39.0
 40
40.0
 40
40.0
 40
40.0
 40
41.0
 40
41.0
 40
41.0
 40
41.0
 10
1731.552675999695
 20
-1369.425396476113
 30
0.0
 10
1732.062819123372
 20
-1361.563357349693
 30
0.0
 10
1732.623997855115
 20
-1353.704132959277
 30
0.0
 10
1733.058596797691
 20
-1345.837927282851
 30
0.0
 10
1733.238795455931
 20
-1342.576314902527
 30
0.0
 10
1734.475529346569
 20
-1340.727366672077
 30
0.0
 10
1737.969644476201
 20
-1340.128846393284
 30
0.0
 10
1759.304047124478
 20
-1336.474467232438
 30
0.0
 10
1780.089641065029
 20
-1330.446654526448
 30
0.0
 10
1801.09428442787
 20
-1325.360093243708
 30
0.0
 10
1805.99898043237
 20
-1324.172367240132
 30
0.0
 10
1810.999321906998
 20
-1323.283003252953
 30
0.0
 10
1816.093345943751
 20
-1323.420332741135
 30
0.0
 10
1825.546877546281
 20
-1323.675214493473
 30
0.0
 10
1828.629643082368
 20
-1327.528995478581
 30
0.0
 10
1825.912793226765
 20
-1336.562094408554
 30
0.0
 10
1820.374911247425
 20
-1354.974652940961
 30
0.0
 10
1818.198805510541
 20
-1373.679240333754
 30
0.0
 10
1819.545434472328
 20
-1392.873128841192
 30
0.0
 10
1819.861110818745
 20
-1397.372262127156
 30
0.0
 10
1821.212072992535
 20
-1398.930588865221
 30
0.0
 10
1825.902941650753
 20
-1399.359206493788
 30
0.0
 10
1843.873901436573
 20
-1401.001271627968
 30
0.0
 10
1860.803408901012
 20
-1405.991946706582
 30
0.0
 10
1875.52068201052
 20
-1416.976528033142
 30
0.0
 10
1883.808857353504
 20
-1423.162614085341
 30
0.0
 10
1887.383905402243
 20
-1431.626006744559
 30
0.0
 10
1884.800199966819
 20
-1440.146138555851
 30
0.0
 10
1881.96398308306
 20
-1449.498913720247
 30
0.0
 10
1874.418046217059
 20
-1453.409841253434
 30
0.0
 10
1865.550887085305
 20
-1454.426701670779
 30
0.0
 10
1856.647266011503
 20
-1455.447747156134
 30
0.0
 10
1848.07385791414
 20
-1457.06736847428
 30
0.0
 10
1839.725091675074
 20
-1460.489383770816
 30
0.0
 10
1833.264902186511
 20
-1463.137272594326
 30
0.0
 10
1826.42914913945
 20
-1463.394154290666
 30
0.0
 10
1819.534194046311
 20
-1461.202845275763
 30
0.0
 10
1804.2860654301
 20
-1456.357017993338
 30
0.0
 10
1789.333826677282
 20
-1450.807580781985
 30
0.0
 10
1775.23168449259
 20
-1443.19375692789
 30
0.0
 10
1772.639294115153
 20
-1441.794055378036
 30
0.0
 10
1770.12380899182
 20
-1440.99018899697
 30
0.0
 10
1768.037321116055
 20
-1443.187942275884
 30
0.0
 10
1762.211456459332
 20
-1449.324585268016
 30
0.0
 10
1755.626807492605
 20
-1447.402231685469
 30
0.0
 10
1748.876977965658
 20
-1445.608393023093
 30
0.0
 10
1741.391761621737
 20
-1443.619041316456
 30
0.0
 10
1741.420779327774
 20
-1443.715001592581
 30
0.0
 10
1740.529156144594
 20
-1451.47078443486
 30
0.0
 10
1740.174749401123
 20
-1454.553587006948
 30
0.0
 10
1740.816194403973
 20
-1458.595140512306
 30
0.0
 10
1736.597358825382
 20
-1459.379488921347
 30
0.0
 10
1732.341977973741
 20
-1460.170614918393
 30
0.0
 10
1730.56759247039
 20
-1456.445830321457
 30
0.0
 10
1729.200130758576
 20
-1453.418729893446
 30
0.0
 10
1726.709320870275
 20
-1447.904847242135
 30
0.0
 10
1724.48754974533
 20
-1442.232117186618
 30
0.0
 10
1722.678211516932
 20
-1436.461130622968
 30
0.0
 10
1721.503725883376
 20
-1432.715013290003
 30
0.0
 10
1719.459875702667
 20
-1431.303312076129
 30
0.0
 10
1715.694166325677
 20
-1431.349273752193
 30
0.0
 10
1708.797452022534
 20
-1431.433530652303
 30
0.0
 10
1701.977300390494
 20
-1430.592294947187
 30
0.0
 10
1695.319357179669
 20
-1428.742013420736
 30
0.0
 10
1691.192097740699
 20
-1427.595082571214
 30
0.0
 10
1687.272855625504
 20
-1426.024867277135
 30
0.0
 10
1684.61317546548
 20
-1422.35474781627
 30
0.0
 10
1683.06746411493
 20
-1420.221807537441
 30
0.0
 10
1682.59975498831
 20
-1417.871502974326
 30
0.0
 10
1683.609314684148
 20
-1415.485125347165
 30
0.0
 10
1684.722195561124
 20
-1412.854421227676
 30
0.0
 10
1687.251272896476
 20
-1413.261187616216
 30
0.0
 10
1689.407578261835
 20
-1413.485070236515
 30
0.0
 10
1696.637042507416
 20
-1414.235752921509
 30
0.0
 10
1703.85311823898
 20
-1415.117987478677
 30
0.0
 10
1711.070240237546
 20
-1415.983889159827
 30
0.0
 10
1714.873351345088
 20
-1416.440135644429
 30
0.0
 10
1716.138079822263
 20
-1415.053211514591
 30
0.0
 10
1715.34274560971
 20
-1411.156653949428
 30
0.0
 10
1713.5246067018
 20
-1402.24908854162
 30
0.0
 10
1711.933901240691
 20
-1393.292431915747
 30
0.0
 10
1710.41678631168
 20
-1384.327627369866
 30
0.0
 10
1709.96392862108
 20
-1381.65168377632
 30
0.0
 10
1708.86191781012
 20
-1378.306425589887
 30
0.0
 10
1712.335102970224
 20
-1376.855225481963
 30
0.0
 10
1715.41862311481
 20
-1375.566817112253
 30
0.0
 10
1717.824856667499
 20
-1377.854067885285
 30
0.0
 10
1719.716933320007
 20
-1379.885733221978
 30
0.0
 10
1724.002230000688
 20
-1384.487141422077
 30
0.0
 10
1725.493493801665
 20
-1390.44819673798
 30
0.0
 10
1726.886575166511
 20
-1396.358994201812
 30
0.0
 10
1727.8601682768
 20
-1400.489915575287
 30
0.0
 10
1729.047375776374
 20
-1404.54065400866
 30
0.0
 10
1730.25899925898
 20
-1408.606280914046
 30
0.0
 10
1732.055310074362
 20
-1414.633889922036
 30
0.0
 10
1735.742021663247
 20
-1415.991888935835
 30
0.0
 10
1741.271237218576
 20
-1414.490634673847
 30
0.0
 10
1742.440482258127
 20
-1414.173199117424
 30
0.0
 10
1743.639374615715
 20
-1413.966612309153
 30
0.0
 10
1744.81954527528
 20
-1413.68750901278
 30
0.0
 10
1756.391341641618
 20
-1410.950881933154
 30
0.0
 10
1758.495625315407
 20
-1407.606679272722
 30
0.0
 10
1756.37141627359
 20
-1395.809361443084
 30
0.0
 10
1755.948678110031
 20
-1393.461538291974
 30
0.0
 10
1755.119803169933
 20
-1392.626987584867
 30
0.0
 10
1752.752693521795
 20
-1393.387503327875
 30
0.0
 10
1749.129563485993
 20
-1394.551563327416
 30
0.0
 10
1746.331252948284
 20
-1396.407252109876
 30
0.0
 10
1744.719807327148
 20
-1400.130851554813
 30
0.0
 10
1743.667994184754
 20
-1402.561302022034
 30
0.0
 10
1742.69976203547
 20
-1406.265976070944
 30
0.0
 10
1739.460010154176
 20
-1405.896245682456
 30
0.0
 10
1736.517268475276
 20
-1405.56036619801
 30
0.0
 10
1735.598377537058
 20
-1402.029316917328
 30
0.0
 10
1734.599562910733
 20
-1399.412130937861
 30
0.0
 10
1731.580008567731
 20
-1391.500111729373
 30
0.0
 10
1731.543704028683
 20
-1383.205899518381
 30
0.0
 10
1731.709903078903
 20
-1374.89950246337
 30
0.0
 10
1731.746300207951
 20
-1373.080868198959
 30
0.0
 10
1731.715236262911
 20
-1371.260845084548
 30
0.0
 10
1731.715236262911
 20
-1369.441470100134
 30
0.0
 10
1731.661052594838
 20
-1369.436099880128
 30
0.0
 10
1731.606859667767
 20
-1369.430748178122
 30
0.0
 10
1731.552675999695
 20
-1369.425396476113
 30
0.0
  0
HATCH
  5
88
330
70
100
AcDbEntity
  8
Layer 1
 62
   246
420
  8590872
440
 33554687
100
AcDbHatch
 10
0.0
 20
0.0
 30
0.0
210
0.0
220
0.0
230
1.0
  2
SOLID
 70
     1
 71
     1
 91
        9
 92
        1
 93
        1
 72
     4
 94
        3
 73
     0
 74
     0
 95
       17
 96
       13
 40
0.0
 40
0.0
 40
0.0
 40
0.0
 40
1.0
 40
1.0
 40
1.0
 40
2.0
 40
2.0
 40
2.0
 40
3.0
 40
3.0
 40
3.0
 40
4.0
 40
4.0
 40
4.0
 40
4.0
 10
1757.368332804912
 20
-1375.059183177583
 10
1757.410600139969
 20
-1372.215596129813
 10
1757.937650197667
 20
-1368.860578957368
 10
1753.392731156644
 20
-1369.505931258221
 10
1749.410907460365
 20
-1370.071341352971
 10
1744.228802556498
 20
-1369.551522574283
 10
1744.998669889517
 20
-1376.129875421001
 10
1745.327938447954
 20
-1378.943352200728
 10
1743.53764598258
 20
-1383.063533134192
 10
1749.025270109854
 20
-1383.128642422279
 10
1755.669769252661
 20
-1383.207473548381
 10
1757.247271379752
 20
-1381.791161352504
 10
1757.368332804912
 20
-1375.059183177583
 97
        0
 97
        1
330
7F
 92
        1
 93
        1
 72
     4
 94
        3
 73
     0
 74
     0
 95
       17
 96
       13
 40
0.0
 40
0.0
 40
0.0
 40
0.0
 40
1.0
 40
1.0
 40
1.0
 40
2.0
 40
2.0
 40
2.0
 40
3.0
 40
3.0
 40
3.0
 40
4.0
 40
4.0
 40
4.0
 40
4.0
 10
1745.066899460607
 20
-1354.362262680149
 10
1745.36966876101
 20
-1357.32147612007
 10
1744.436518962771
 20
-1360.744195100608
 10
1749.358334858296
 20
-1360.625476202452
 10
1756.532050664806
 20
-1360.452388456219
 10
1758.779682176784
 20
-1358.346502975431
 10
1758.800098271811
 20
-1351.619543178513
 10
1758.809190609823
 20
-1348.627238072547
 10
1757.634658681267
 20
-1347.315274806807
 10
1754.885254181621
 20
-1348.248433864043
 10
1751.179033879709
 20
-1349.50630605171
 10
1744.802008729257
 20
-1346.840584394181
 10
1745.066899460607
 20
-1354.362262680149
 97
        0
 97
        1
330
80
 92
        1
 93
        1
 72
     4
 94
        3
 73
     0
 74
     0
 95
       23
 96
       19
 40
0.0
 40
0.0
 40
0.0
 40
0.0
 40
1.0
 40
1.0
 40
1.0
 40
2.0
 40
2.0
 40
2.0
 40
3.0
 40
3.0
 40
3.0
 40
4.0
 40
4.0
 40
4.0
 40
5.0
 40
5.0
 40
5.0
 40
6.0
 40
6.0
 40
6.0
 40
6.0
 10
1753.319344322546
 20
-1422.804920396866
 10
1749.593902336608
 20
-1424.004294222458
 10
1745.24271861184
 20
-1425.514622304458
 10
1740.823509013982
 20
-1426.788994030147
 10
1737.926608644144
 20
-1427.624378047255
 10
1735.982653814566
 20
-1428.690237092666
 10
1737.431529913487
 20
-1432.214434713337
 10
1738.600737917037
 20
-1435.058318049109
 10
1739.475380094196
 20
-1438.334818901451
 10
1743.58201511064
 20
-1437.053595515751
 10
1747.971355174457
 20
-1435.684263485939
 10
1752.23616168811
 20
-1433.914683403594
 10
1756.55148530583
 20
-1432.309506125465
 10
1759.395007540599
 20
-1431.251795000063
 10
1758.421469984309
 20
-1429.19833397734
 10
1757.743155643409
 20
-1427.337015722875
 10
1757.047554749488
 20
-1425.428217316345
 10
1757.295353366817
 20
-1422.659183736673
 10
1753.319344322546
 20
-1422.804920396866
 97
        0
 97
        1
330
81
 92
        1
 93
        1
 72
     4
 94
        3
 73
     0
 74
     0
 95
       23
 96
       19
 40
0.0
 40
0.0
 40
0.0
 40
0.0
 40
1.0
 40
1.0
 40
1.0
 40
2.0
 40
2.0
 40
2.0
 40
3.0
 40
3.0
 40
3.0
 40
4.0
 40
4.0
 40
4.0
 40
5.0
 40
5.0
 40
5.0
 40
6.0
 40
6.0
 40
6.0
 40
6.0
 10
1771.788540158026
 20
-1421.113004806623
 10
1771.821779968071
 20
-1425.28148068415
 10
1773.42116111219
 20
-1427.750670807422
 10
1777.718846334886
 20
-1426.381672101605
 10
1782.686540575472
 20
-1424.799271963508
 10
1787.648364610048
 20
-1423.054283785198
 10
1792.345927525275
 20
-1420.819124146234
 10
1795.441118639377
 20
-1419.346387604281
 10
1794.466127420084
 20
-1415.764561967536
 10
1794.102906108603
 20
-1413.267446700226
 10
1793.743230994127
 20
-1410.794701120948
 10
1791.134433668669
 20
-1411.867745150369
 10
1789.54439485556
 20
-1412.274733754909
 10
1784.675225634108
 20
-1413.520958120561
 10
1779.884044969756
 20
-1415.069618462615
 10
1775.023060704314
 20
-1416.350952956313
 10
1772.320534521732
 20
-1417.063303381256
 10
1771.575203538743
 20
-1418.817624631582
 10
1771.788540158026
 20
-1421.113004806623
 97
        0
 97
        1
330
82
 92
        1
 93
        1
 72
     4
 94
        3
 73
     0
 74
     0
 95
       23
 96
       19
 40
0.0
 40
0.0
 40
0.0
 40
0.0
 40
1.0
 40
1.0
 40
1.0
 40
2.0
 40
2.0
 40
2.0
 40
3.0
 40
3.0
 40
3.0
 40
4.0
 40
4.0
 40
4.0
 40
5.0
 40
5.0
 40
5.0
 40
6.0
 40
6.0
 40
6.0
 40
6.0
 10
1794.888319302645
 20
-1345.3475891602
 10
1795.996973446113
 20
-1340.099754615244
 10
1794.299039505862
 20
-1338.645480519318
 10
1789.513849414521
 20
-1340.327544533546
 10
1786.098102460994
 20
-1341.528251655139
 10
1782.533896701268
 20
-1342.689626544678
 10
1778.963635555538
 20
-1342.980229519061
 10
1773.243110541955
 20
-1343.445827593678
 10
1771.14267861217
 20
-1346.251508295398
 10
1770.566611408407
 20
-1351.762465102704
 10
1770.129003290827
 20
-1355.948829368252
 10
1770.670738122544
 20
-1357.53326648635
 10
1775.103058464419
 20
-1356.411371972864
 10
1779.017245165607
 20
-1355.420640453552
 10
1782.973606611851
 20
-1354.186249089916
 10
1786.958717253133
 20
-1353.981495563644
 10
1793.042519132197
 20
-1353.668911723228
 10
1796.129525290289
 20
-1351.383420160201
 10
1794.888319302645
 20
-1345.3475891602
 97
        0
 97
        1
330
83
 92
        1
 93
        1
 72
     4
 94
        3
 73
     0
 74
     0
 95
       23
 96
       19
 40
0.0
 40
0.0
 40
0.0
 40
0.0
 40
1.0
 40
1.0
 40
1.0
 40
2.0
 40
2.0
 40
2.0
 40
3.0
 40
3.0
 40
3.0
 40
4.0
 40
4.0
 40
4.0
 40
5.0
 40
5.0
 40
5.0
 40
6.0
 40
6.0
 40
6.0
 40
6.0
 10
1794.026704538502
 20
-1368.467441816844
 10
1794.298308044863
 20
-1360.677382156519
 10
1794.31248357388
 20
-1360.733825020595
 10
1787.383140554697
 20
-1362.474202216902
 10
1783.09254772601
 20
-1363.55182019233
 10
1778.757326517263
 20
-1364.456109687527
 10
1774.430753214528
 20
-1365.38512071276
 10
1767.807688656749
 20
-1366.807229042643
 10
1769.748208397323
 20
-1372.027656947562
 10
1769.998627311653
 20
-1376.086135904942
 10
1770.295091233047
 20
-1380.890779155311
 10
1774.019283253983
 20
-1378.802726508545
 10
1776.466418439228
 20
-1378.40064517401
 10
1780.227785345212
 20
-1377.78258840519
 10
1783.890164282067
 20
-1376.569770511582
 10
1787.648614603049
 20
-1375.924177476729
 10
1792.328752080251
 20
-1375.120255541661
 10
1795.215143485076
 20
-1373.161551125068
 10
1794.026704538502
 20
-1368.467441816844
 97
        0
 97
        1
330
84
 92
        1
 93
        1
 72
     4
 94
        3
 73
     0
 74
     0
 95
       23
 96
       19
 40
0.0
 40
0.0
 40
0.0
 40
0.0
 40
1.0
 40
1.0
 40
1.0
 40
2.0
 40
2.0
 40
2.0
 40
3.0
 40
3.0
 40
3.0
 40
4.0
 40
4.0
 40
4.0
 40
5.0
 40
5.0
 40
5.0
 40
6.0
 40
6.0
 40
6.0
 40
6.0
 10
1771.112133171129
 20
-1397.294338383054
 10
1771.078384116085
 20
-1406.286494014971
 10
1771.349811701444
 20
-1406.519487491282
 10
1779.163342926802
 20
-1404.569505052696
 10
1781.496277605895
 20
-1403.987299131925
 10
1783.801463061949
 20
-1403.284503994994
 10
1786.098824662995
 20
-1402.570857310046
 10
1795.946687817048
 20
-1399.511794813993
 10
1796.038611169169
 20
-1399.160841677528
 10
1794.910179801673
 20
-1389.157843978269
 10
1794.496283983124
 20
-1385.488872633407
 10
1792.956641907085
 20
-1384.822872762522
 10
1789.757712956843
 20
-1385.76493897777
 10
1786.106963324006
 20
-1386.840075541197
 10
1782.438704922142
 20
-1388.050745346802
 10
1778.690893192175
 20
-1388.556323783473
 10
1772.807465332376
 20
-1389.349968228523
 10
1769.886760073507
 20
-1392.017171326058
 10
1771.112133171129
 20
-1397.294338383054
 97
        0
 97
        1
330
85
 92
        1
 93
        1
 72
     4
 94
        3
 73
     0
 74
     0
 95
       47
 96
       43
 40
0.0
 40
0.0
 40
0.0
 40
0.0
 40
1.0
 40
1.0
 40
1.0
 40
2.0
 40
2.0
 40
2.0
 40
3.0
 40
3.0
 40
3.0
 40
4.0
 40
4.0
 40
4.0
 40
5.0
 40
5.0
 40
5.0
 40
6.0
 40
6.0
 40
6.0
 40
7.0
 40
7.0
 40
7.0
 40
8.0
 40
8.0
 40
8.0
 40
9.0
 40
9.0
 40
9.0
 40
10.0
 40
10.0
 40
10.0
 40
11.0
 40
11.0
 40
11.0
 40
12.0
 40
12.0
 40
12.0
 40
13.0
 40
13.0
 40
13.0
 40
14.0
 40
14.0
 40
14.0
 40
14.0
 10
1807.837151186808
 20
-1448.380870950766
 10
1810.853529692806
 20
-1447.878514646102
 10
1814.321451111402
 20
-1447.843441554055
 10
1816.767938166644
 20
-1445.510025406959
 10
1824.255969246569
 20
-1438.368040193495
 10
1833.505876920831
 20
-1436.261025114702
 10
1843.364341629898
 20
-1435.560155849774
 10
1845.566094796815
 20
-1435.403604677566
 10
1847.853938145848
 20
-1435.126056893198
 10
1849.897584628557
 20
-1434.359115404179
 10
1853.93639746991
 20
-1432.84338006617
 10
1856.57665687741
 20
-1429.964497710357
 10
1857.08947585209
 20
-1425.453661048378
 10
1857.570869780727
 20
-1421.219298126766
 10
1854.642451774845
 20
-1419.375053468321
 10
1851.669886856905
 20
-1417.520512801861
 10
1845.139532666249
 20
-1413.446293544462
 10
1837.672204710352
 20
-1412.50146814721
 10
1830.33720638263
 20
-1411.127321437388
 10
1822.696309212502
 20
-1409.695880035492
 10
1822.184490209825
 20
-1410.105572268033
 10
1823.392493423425
 20
-1417.709581582113
 10
1824.086103632344
 20
-1422.0754963759
 10
1824.584126725005
 20
-1426.408152841643
 10
1820.56755400168
 20
-1429.339441137527
 10
1815.804557733367
 20
-1432.815454922137
 10
1810.447911420268
 20
-1435.185203385278
 10
1804.552576486454
 20
-1436.1842865226
 10
1802.161365661284
 20
-1436.589534435138
 10
1800.25656714276
 20
-1436.405169226892
 10
1799.019935101119
 20
-1433.840944727494
 10
1798.073054205866
 20
-1431.877518220893
 10
1797.771951525466
 20
-1428.631238744588
 10
1794.145404918659
 20
-1429.949942562337
 10
1789.959596193112
 20
-1431.471974020355
 10
1786.024141568896
 20
-1433.536027339092
 10
1783.061752291967
 20
-1436.902933067552
 10
1782.234331014872
 20
-1437.843314144801
 10
1783.527600359586
 20
-1439.133352098511
 10
1784.589116933994
 20
-1439.786148635373
 10
1791.706139883427
 20
-1444.163211265176
 10
1799.196930145355
 20
-1447.547005409663
 10
1807.837151186808
 20
-1448.380870950766
 97
        0
 97
        1
330
86
 92
        1
 93
        1
 72
     4
 94
        3
 73
     0
 74
     0
 95
      128
 96
      124
 40
0.0
 40
0.0
 40
0.0
 40
0.0
 40
1.0
 40
1.0
 40
1.0
 40
2.0
 40
2.0
 40
2.0
 40
3.0
 40
3.0
 40
3.0
 40
4.0
 40
4.0
 40
4.0
 40
5.0
 40
5.0
 40
5.0
 40
6.0
 40
6.0
 40
6.0
 40
7.0
 40
7.0
 40
7.0
 40
8.0
 40
8.0
 40
8.0
 40
9.0
 40
9.0
 40
9.0
 40
10.0
 40
10.0
 40
10.0
 40
11.0
 40
11.0
 40
11.0
 40
12.0
 40
12.0
 40
12.0
 40
13.0
 40
13.0
 40
13.0
 40
14.0
 40
14.0
 40
14.0
 40
15.0
 40
15.0
 40
15.0
 40
16.0
 40
16.0
 40
16.0
 40
17.0
 40
17.0
 40
17.0
 40
18.0
 40
18.0
 40
18.0
 40
19.0
 40
19.0
 40
19.0
 40
20.0
 40
20.0
 40
20.0
 40
21.0
 40
21.0
 40
21.0
 40
22.0
 40
22.0
 40
22.0
 40
23.0
 40
23.0
 40
23.0
 40
24.0
 40
24.0
 40
24.0
 40
25.0
 40
25.0
 40
25.0
 40
26.0
 40
26.0
 40
26.0
 40
27.0
 40
27.0
 40
27.0
 40
28.0
 40
28.0
 40
28.0
 40
29.0
 40
29.0
 40
29.0
 40
30.0
 40
30.0
 40
30.0
 40
31.0
 40
31.0
 40
31.0
 40
32.0
 40
32.0
 40
32.0
 40
33.0
 40
33.0
 40
33.0
 40
34.0
 40
34.0
 40
34.0
 40
35.0
 40
35.0
 40
35.0
 40
36.0
 40
36.0
 40
36.0
 40
37.0
 40
37.0
 40
37.0
 40
38.0
 40
38.0
 40
38.0
 40
39.0
 40
39.0
 40
39.0
 40
40.0
 40
40.0
 40
40.0
 40
41.0
 40
41.0
 40
41.0
 40
41.0
 10
1731.552675999695
 20
-1369.425396476113
 10
1732.062819123372
 20
-1361.563357349693
 10
1732.623997855115
 20
-1353.704132959277
 10
1733.058596797691
 20
-1345.837927282851
 10
1733.238795455931
 20
-1342.576314902527
 10
1734.475529346569
 20
-1340.727366672077
 10
1737.969644476201
 20
-1340.128846393284
 10
1759.304047124478
 20
-1336.474467232438
 10
1780.089641065029
 20
-1330.446654526448
 10
1801.09428442787
 20
-1325.360093243708
 10
1805.99898043237
 20
-1324.172367240132
 10
1810.999321906998
 20
-1323.283003252953
 10
1816.093345943751
 20
-1323.420332741135
 10
1825.546877546281
 20
-1323.675214493473
 10
1828.629643082368
 20
-1327.528995478581
 10
1825.912793226765
 20
-1336.562094408554
 10
1820.374911247425
 20
-1354.974652940961
 10
1818.198805510541
 20
-1373.679240333754
 10
1819.545434472328
 20
-1392.873128841192
 10
1819.861110818745
 20
-1397.372262127156
 10
1821.212072992535
 20
-1398.930588865221
 10
1825.902941650753
 20
-1399.359206493788
 10
1843.873901436573
 20
-1401.001271627968
 10
1860.803408901012
 20
-1405.991946706582
 10
1875.52068201052
 20
-1416.976528033142
 10
1883.808857353504
 20
-1423.162614085341
 10
1887.383905402243
 20
-1431.626006744559
 10
1884.800199966819
 20
-1440.146138555851
 10
1881.96398308306
 20
-1449.498913720247
 10
1874.418046217059
 20
-1453.409841253434
 10
1865.550887085305
 20
-1454.426701670779
 10
1856.647266011503
 20
-1455.447747156134
 10
1848.07385791414
 20
-1457.06736847428
 10
1839.725091675074
 20
-1460.489383770816
 10
1833.264902186511
 20
-1463.137272594326
 10
1826.42914913945
 20
-1463.394154290666
 10
1819.534194046311
 20
-1461.202845275763
 10
1804.2860654301
 20
-1456.357017993338
 10
1789.333826677282
 20
-1450.807580781985
 10
1775.23168449259
 20
-1443.19375692789
 10
1772.639294115153
 20
-1441.794055378036
 10
1770.12380899182
 20
-1440.99018899697
 10
1768.037321116055
 20
-1443.187942275884
 10
1762.211456459332
 20
-1449.324585268016
 10
1755.626807492605
 20
-1447.402231685469
 10
1748.876977965658
 20
-1445.608393023093
 10
1741.391761621737
 20
-1443.619041316456
 10
1741.420779327774
 20
-1443.715001592581
 10
1740.529156144594
 20
-1451.47078443486
 10
1740.174749401123
 20
-1454.553587006948
 10
1740.816194403973
 20
-1458.595140512306
 10
1736.597358825382
 20
-1459.379488921347
 10
1732.341977973741
 20
-1460.170614918393
 10
1730.56759247039
 20
-1456.445830321457
 10
1729.200130758576
 20
-1453.418729893446
 10
1726.709320870275
 20
-1447.904847242135
 10
1724.48754974533
 20
-1442.232117186618
 10
1722.678211516932
 20
-1436.461130622968
 10
1721.503725883376
 20
-1432.715013290003
 10
1719.459875702667
 20
-1431.303312076129
 10
1715.694166325677
 20
-1431.349273752193
 10
1708.797452022534
 20
-1431.433530652303
 10
1701.977300390494
 20
-1430.592294947187
 10
1695.319357179669
 20
-1428.742013420736
 10
1691.192097740699
 20
-1427.595082571214
 10
1687.272855625504
 20
-1426.024867277135
 10
1684.61317546548
 20
-1422.35474781627
 10
1683.06746411493
 20
-1420.221807537441
 10
1682.59975498831
 20
-1417.871502974326
 10
1683.609314684148
 20
-1415.485125347165
 10
1684.722195561124
 20
-1412.854421227676
 10
1687.251272896476
 20
-1413.261187616216
 10
1689.407578261835
 20
-1413.485070236515
 10
1696.637042507416
 20
-1414.235752921509
 10
1703.85311823898
 20
-1415.117987478677
 10
1711.070240237546
 20
-1415.983889159827
 10
1714.873351345088
 20
-1416.440135644429
 10
1716.138079822263
 20
-1415.053211514591
 10
1715.34274560971
 20
-1411.156653949428
 10
1713.5246067018
 20
-1402.24908854162
 10
1711.933901240691
 20
-1393.292431915747
 10
1710.41678631168
 20
-1384.327627369866
 10
1709.96392862108
 20
-1381.65168377632
 10
1708.86191781012
 20
-1378.306425589887
 10
1712.335102970224
 20
-1376.855225481963
 10
1715.41862311481
 20
-1375.566817112253
 10
1717.824856667499
 20
-1377.854067885285
 10
1719.716933320007
 20
-1379.885733221978
 10
1724.002230000688
 20
-1384.487141422077
 10
1725.493493801665
 20
-1390.44819673798
 10
1726.886575166511
 20
-1396.358994201812
 10
1727.8601682768
 20
-1400.489915575287
 10
1729.047375776374
 20
-1404.54065400866
 10
1730.25899925898
 20
-1408.606280914046
 10
1732.055310074362
 20
-1414.633889922036
 10
1735.742021663247
 20
-1415.991888935835
 10
1741.271237218576
 20
-1414.490634673847
 10
1742.440482258127
 20
-1414.173199117424
 10
1743.639374615715
 20
-1413.966612309153
 10
1744.81954527528
 20
-1413.68750901278
 10
1756.391341641618
 20
-1410.950881933154
 10
1758.495625315407
 20
-1407.606679272722
 10
1756.37141627359
 20
-1395.809361443084
 10
1755.948678110031
 20
-1393.461538291974
 10
1755.119803169933
 20
-1392.626987584867
 10
1752.752693521795
 20
-1393.387503327875
 10
1749.129563485993
 20
-1394.551563327416
 10
1746.331252948284
 20
-1396.407252109876
 10
1744.719807327148
 20
-1400.130851554813
 10
1743.667994184754
 20
-1402.561302022034
 10
1742.69976203547
 20
-1406.265976070944
 10
1739.460010154176
 20
-1405.896245682456
 10
1736.517268475276
 20
-1405.56036619801
 10
1735.598377537058
 20
-1402.029316917328
 10
1734.599562910733
 20
-1399.412130937861
 10
1731.580008567731
 20
-1391.500111729373
 10
1731.543704028683
 20
-1383.205899518381
 10
1731.709903078903
 20
-1374.89950246337
 10
1731.746300207951
 20
-1373.080868198959
 10
1731.715236262911
 20
-1371.260845084548
 10
1731.715236262911
 20
-1369.441470100134
 10
1731.661052594838
 20
-1369.436099880128
 10
1731.606859667767
 20
-1369.430748178122
 10
1731.552675999695
 20
-1369.425396476113
 97
        0
 97
        1
330
87
 75
     2
 76
     1
 98
        1
 10
0.0
 20
0.0
450
        0
451
        0
460
0.0
461
0.0
452
        0
462
0.0
453
        0
470

  0
SPLINE
  5
89
330
70
100
AcDbEntity
  8
Layer 1
100
AcDbSpline
210
0.0
220
0.0
230
1.0
 70
     9
 71
     3
 72
    92
 73
    88
 74
     0
 42
0.0000000001
 43
0.0000000001
 40
0.0
 40
0.0
 40
0.0
 40
0.0
 40
1.0
 40
1.0
 40
1.0
 40
2.0
 40
2.0
 40
2.0
 40
3.0
 40
3.0
 40
3.0
 40
4.0
 40
4.0
 40
4.0
 40
5.0
 40
5.0
 40
5.0
 40
6.0
 40
6.0
 40
6.0
 40
7.0
 40
7.0
 40
7.0
 40
8.0
 40
8.0
 40
8.0
 40
9.0
 40
9.0
 40
9.0
 40
10.0
 40
10.0
 40
10.0
 40
11.0
 40
11.0
 40
11.0
 40
12.0
 40
12.0
 40
12.0
 40
13.0
 40
13.0
 40
13.0
 40
14.0
 40
14.0
 40
14.0
 40
15.0
 40
15.0
 40
15.0
 40
16.0
 40
16.0
 40
16.0
 40
17.0
 40
17.0
 40
17.0
 40
18.0
 40
18.0
 40
18.0
 40
19.0
 40
19.0
 40
19.0
 40
20.0
 40
20.0
 40
20.0
 40
21.0
 40
21.0
 40
21.0
 40
22.0
 40
22.0
 40
22.0
 40
23.0
 40
23.0
 40
23.0
 40
24.0
 40
24.0
 40
24.0
 40
25.0
 40
25.0
 40
25.0
 40
26.0
 40
26.0
 40
26.0
 40
27.0
 40
27.0
 40
27.0
 40
28.0
 40
28.0
 40
28.0
 40
29.0
 40
29.0
 40
29.0
 40
29.0
 10
1842.313685862506
 20
-1312.422307346559
 30
0.0
 10
1817.241684161272
 20
-1310.934774922586
 30
0.0
 10
1793.740934762123
 20
-1317.71184442757
 30
0.0
 10
1770.330108771093
 20
-1325.055583251303
 30
0.0
 10
1749.219727628111
 20
-1331.677712650079
 30
0.0
 10
1727.894111770845
 20
-1335.151707972684
 30
0.0
 10
1705.838923748613
 20
-1329.863022719674
 30
0.0
 10
1700.413459917921
 20
-1328.56202210995
 30
0.0
 10
1695.5687066795
 20
-1326.338102897004
 30
0.0
 10
1690.902434554815
 20
-1323.467905483198
 30
0.0
 10
1686.82435892391
 20
-1320.959512753875
 30
0.0
 10
1687.852668094772
 20
-1319.378057033778
 30
0.0
 10
1691.518903405133
 20
-1317.348299051086
 30
0.0
 10
1698.462185848835
 20
-1313.504351123994
 30
0.0
 10
1705.550751261731
 20
-1312.843647401118
 30
0.0
 10
1713.20094909737
 20
-1314.597042751441
 30
0.0
 10
1725.828502940109
 20
-1317.491239493277
 30
0.0
 10
1738.505425770911
 20
-1320.040594038656
 30
0.0
 10
1751.628863877306
 20
-1318.225589302249
 30
0.0
 10
1756.431914579672
 20
-1317.561311605369
 30
0.0
 10
1759.453644787678
 20
-1315.3200595444
 30
0.0
 10
1760.673045830294
 20
-1310.643097904202
 30
0.0
 10
1761.580390795496
 20
-1307.162973123589
 30
0.0
 10
1761.443385372315
 20
-1304.257221149736
 30
0.0
 10
1757.249641683756
 20
-1302.945017149996
 30
0.0
 10
1752.593355390585
 20
-1301.488076462065
 30
0.0
 10
1752.414314107347
 20
-1298.888056668621
 30
0.0
 10
1755.337074864221
 20
-1295.271009795827
 30
0.0
 10
1759.787339148119
 20
-1289.763626962526
 30
0.0
 10
1763.741895089361
 20
-1283.901976270755
 30
0.0
 10
1767.03731207873
 20
-1277.60468962841
 30
0.0
 10
1767.768291611697
 20
-1276.207858368559
 30
0.0
 10
1768.872242183161
 20
-1274.9572452369
 30
0.0
 10
1769.991960831645
 20
-1273.824647319398
 30
0.0
 10
1771.537695329694
 20
-1272.261135541325
 30
0.0
 10
1773.502584758298
 20
-1271.862054122798
 30
0.0
 10
1775.594100271069
 20
-1272.582811719753
 30
0.0
 10
1777.990875755248
 20
-1273.408751556847
 30
0.0
 10
1778.11395564241
 20
-1275.476675137587
 30
0.0
 10
1778.154926717465
 20
-1277.553691056343
 30
0.0
 10
1778.304820668664
 20
-1285.153570856416
 30
0.0
 10
1776.207379395883
 20
-1292.296556041882
 30
0.0
 10
1774.141603903144
 20
-1299.521835219458
 30
0.0
 10
1773.114567844783
 20
-1303.113993900221
 30
0.0
 10
1768.573056115763
 20
-1308.285034299076
 30
0.0
 10
1774.207518724232
 20
-1310.593580772133
 30
0.0
 10
1779.181435012826
 20
-1312.631523710836
 30
0.0
 10
1780.715040220859
 20
-1306.324700298476
 30
0.0
 10
1782.861609747702
 20
-1303.011607878086
 30
0.0
 10
1786.494674690519
 20
-1297.404209326652
 30
0.0
 10
1788.805971086581
 20
-1291.090293520284
 30
0.0
 10
1791.29380883588
 20
-1284.894892914072
 30
0.0
 10
1793.688464009054
 20
-1278.931522848169
 30
0.0
 10
1792.985965160124
 20
-1273.703613671238
 30
0.0
 10
1787.531201223893
 20
-1269.843573602121
 30
0.0
 10
1783.611394309697
 20
-1267.069743860445
 30
0.0
 10
1784.315717181631
 20
-1264.377022958878
 30
0.0
 10
1786.967355900146
 20
-1261.28660948878
 30
0.0
 10
1791.291197797876
 20
-1256.247250588102
 30
0.0
 10
1796.761313156126
 20
-1252.944898607723
 30
0.0
 10
1802.823513788162
 20
-1250.462616258433
 30
0.0
 10
1805.727506552011
 20
-1249.273519922856
 30
0.0
 10
1807.840151102811
 20
-1250.484189728461
 30
0.0
 10
1809.87640890351
 20
-1252.415098627022
 30
0.0
 10
1816.855213500761
 20
-1259.032857777792
 30
0.0
 10
1818.392374164798
 20
-1271.571228932412
 30
0.0
 10
1813.39999543018
 20
-1281.736981333885
 30
0.0
 10
1811.355571191472
 20
-1285.899938847405
 30
0.0
 10
1808.992100330339
 20
-1289.932066690749
 30
0.0
 10
1807.277926104067
 20
-1294.225002046439
 30
0.0
 10
1804.980879309021
 20
-1299.977692826062
 30
0.0
 10
1806.132754464548
 20
-1301.283137755793
 30
0.0
 10
1812.161900466539
 20
-1300.006395726102
 30
0.0
 10
1828.046270527595
 20
-1296.642712129645
 30
0.0
 10
1844.040785652794
 20
-1294.626268588971
 30
0.0
 10
1860.320496496373
 20
-1295.228899863768
 30
0.0
 10
1864.202202625518
 20
-1295.372599543961
 30
0.0
 10
1867.990300264539
 20
-1295.808513264536
 30
0.0
 10
1871.629642809363
 20
-1297.131216970291
 30
0.0
 10
1874.875385263663
 20
-1298.310869125854
 30
0.0
 10
1875.627271618661
 20
-1300.403699416628
 30
0.0
 10
1873.328613757614
 20
-1303.161677750283
 30
0.0
 10
1868.546414323275
 20
-1308.899535611887
 30
0.0
 10
1863.470723106548
 20
-1313.799435454385
 30
0.0
 10
1854.915333023208
 20
-1312.5289154727
 30
0.0
 10
1850.7606530557
 20
-1311.911914229881
 30
0.0
 10
1846.438570367973
 20
-1312.422307346559
 30
0.0
 10
1842.313685862506
 20
-1312.422307346559
 30
0.0
  0
HATCH
  5
8A
330
70
100
AcDbEntity
  8
Layer 1
 62
   246
420
  8590872
440
 33554687
100
AcDbHatch
 10
0.0
 20
0.0
 30
0.0
210
0.0
220
0.0
230
1.0
  2
SOLID
 70
     1
 71
     1
 91
        1
 92
        1
 93
        1
 72
     4
 94
        3
 73
     0
 74
     0
 95
       92
 96
       88
 40
0.0
 40
0.0
 40
0.0
 40
0.0
 40
1.0
 40
1.0
 40
1.0
 40
2.0
 40
2.0
 40
2.0
 40
3.0
 40
3.0
 40
3.0
 40
4.0
 40
4.0
 40
4.0
 40
5.0
 40
5.0
 40
5.0
 40
6.0
 40
6.0
 40
6.0
 40
7.0
 40
7.0
 40
7.0
 40
8.0
 40
8.0
 40
8.0
 40
9.0
 40
9.0
 40
9.0
 40
10.0
 40
10.0
 40
10.0
 40
11.0
 40
11.0
 40
11.0
 40
12.0
 40
12.0
 40
12.0
 40
13.0
 40
13.0
 40
13.0
 40
14.0
 40
14.0
 40
14.0
 40
15.0
 40
15.0
 40
15.0
 40
16.0
 40
16.0
 40
16.0
 40
17.0
 40
17.0
 40
17.0
 40
18.0
 40
18.0
 40
18.0
 40
19.0
 40
19.0
 40
19.0
 40
20.0
 40
20.0
 40
20.0
 40
21.0
 40
21.0
 40
21.0
 40
22.0
 40
22.0
 40
22.0
 40
23.0
 40
23.0
 40
23.0
 40
24.0
 40
24.0
 40
24.0
 40
25.0
 40
25.0
 40
25.0
 40
26.0
 40
26.0
 40
26.0
 40
27.0
 40
27.0
 40
27.0
 40
28.0
 40
28.0
 40
28.0
 40
29.0
 40
29.0
 40
29.0
 40
29.0
 10
1842.313685862506
 20
-1312.422307346559
 10
1817.241684161272
 20
-1310.934774922586
 10
1793.740934762123
 20
-1317.71184442757
 10
1770.330108771093
 20
-1325.055583251303
 10
1749.219727628111
 20
-1331.677712650079
 10
1727.894111770845
 20
-1335.151707972684
 10
1705.838923748613
 20
-1329.863022719674
 10
1700.413459917921
 20
-1328.56202210995
 10
1695.5687066795
 20
-1326.338102897004
 10
1690.902434554815
 20
-1323.467905483198
 10
1686.82435892391
 20
-1320.959512753875
 10
1687.852668094772
 20
-1319.378057033778
 10
1691.518903405133
 20
-1317.348299051086
 10
1698.462185848835
 20
-1313.504351123994
 10
1705.550751261731
 20
-1312.843647401118
 10
1713.20094909737
 20
-1314.597042751441
 10
1725.828502940109
 20
-1317.491239493277
 10
1738.505425770911
 20
-1320.040594038656
 10
1751.628863877306
 20
-1318.225589302249
 10
1756.431914579672
 20
-1317.561311605369
 10
1759.453644787678
 20
-1315.3200595444
 10
1760.673045830294
 20
-1310.643097904202
 10
1761.580390795496
 20
-1307.162973123589
 10
1761.443385372315
 20
-1304.257221149736
 10
1757.249641683756
 20
-1302.945017149996
 10
1752.593355390585
 20
-1301.488076462065
 10
1752.414314107347
 20
-1298.888056668621
 10
1755.337074864221
 20
-1295.271009795827
 10
1759.787339148119
 20
-1289.763626962526
 10
1763.741895089361
 20
-1283.901976270755
 10
1767.03731207873
 20
-1277.60468962841
 10
1767.768291611697
 20
-1276.207858368559
 10
1768.872242183161
 20
-1274.9572452369
 10
1769.991960831645
 20
-1273.824647319398
 10
1771.537695329694
 20
-1272.261135541325
 10
1773.502584758298
 20
-1271.862054122798
 10
1775.594100271069
 20
-1272.582811719753
 10
1777.990875755248
 20
-1273.408751556847
 10
1778.11395564241
 20
-1275.476675137587
 10
1778.154926717465
 20
-1277.553691056343
 10
1778.304820668664
 20
-1285.153570856416
 10
1776.207379395883
 20
-1292.296556041882
 10
1774.141603903144
 20
-1299.521835219458
 10
1773.114567844783
 20
-1303.113993900221
 10
1768.573056115763
 20
-1308.285034299076
 10
1774.207518724232
 20
-1310.593580772133
 10
1779.181435012826
 20
-1312.631523710836
 10
1780.715040220859
 20
-1306.324700298476
 10
1782.861609747702
 20
-1303.011607878086
 10
1786.494674690519
 20
-1297.404209326652
 10
1788.805971086581
 20
-1291.090293520284
 10
1791.29380883588
 20
-1284.894892914072
 10
1793.688464009054
 20
-1278.931522848169
 10
1792.985965160124
 20
-1273.703613671238
 10
1787.531201223893
 20
-1269.843573602121
 10
1783.611394309697
 20
-1267.069743860445
 10
1784.315717181631
 20
-1264.377022958878
 10
1786.967355900146
 20
-1261.28660948878
 10
1791.291197797876
 20
-1256.247250588102
 10
1796.761313156126
 20
-1252.944898607723
 10
1802.823513788162
 20
-1250.462616258433
 10
1805.727506552011
 20
-1249.273519922856
 10
1807.840151102811
 20
-1250.484189728461
 10
1809.87640890351
 20
-1252.415098627022
 10
1816.855213500761
 20
-1259.032857777792
 10
1818.392374164798
 20
-1271.571228932412
 10
1813.39999543018
 20
-1281.736981333885
 10
1811.355571191472
 20
-1285.899938847405
 10
1808.992100330339
 20
-1289.932066690749
 10
1807.277926104067
 20
-1294.225002046439
 10
1804.980879309021
 20
-1299.977692826062
 10
1806.132754464548
 20
-1301.283137755793
 10
1812.161900466539
 20
-1300.006395726102
 10
1828.046270527595
 20
-1296.642712129645
 10
1844.040785652794
 20
-1294.626268588971
 10
1860.320496496373
 20
-1295.228899863768
 10
1864.202202625518
 20
-1295.372599543961
 10
1867.990300264539
 20
-1295.808513264536
 10
1871.629642809363
 20
-1297.131216970291
 10
1874.875385263663
 20
-1298.310869125854
 10
1875.627271618661
 20
-1300.403699416628
 10
1873.328613757614
 20
-1303.161677750283
 10
1868.546414323275
 20
-1308.899535611887
 10
1863.470723106548
 20
-1313.799435454385
 10
1854.915333023208
 20
-1312.5289154727
 10
1850.7606530557
 20
-1311.911914229881
 10
1846.438570367973
 20
-1312.422307346559
 10
1842.313685862506
 20
-1312.422307346559
 97
        0
 97
        1
330
89
 75
     2
 76
     1
 98
        1
 10
0.0
 20
0.0
450
        0
451
        0
460
0.0
461
0.0
452
        0
462
0.0
453
        0
470

  0
SPLINE
  5
8B
330
70
100
AcDbEntity
  8
Layer 1
100
AcDbSpline
210
0.0
220
0.0
230
1.0
 70
     9
 71
     3
 72
    41
 73
    37
 74
     0
 42
0.0000000001
 43
0.0000000001
 40
0.0
 40
0.0
 40
0.0
 40
0.0
 40
1.0
 40
1.0
 40
1.0
 40
2.0
 40
2.0
 40
2.0
 40
3.0
 40
3.0
 40
3.0
 40
4.0
 40
4.0
 40
4.0
 40
5.0
 40
5.0
 40
5.0
 40
6.0
 40
6.0
 40
6.0
 40
7.0
 40
7.0
 40
7.0
 40
8.0
 40
8.0
 40
8.0
 40
9.0
 40
9.0
 40
9.0
 40
10.0
 40
10.0
 40
10.0
 40
11.0
 40
11.0
 40
11.0
 40
12.0
 40
12.0
 40
12.0
 40
12.0
 10
1704.990674350989
 20
-1229.720872941941
 30
0.0
 10
1696.381572808577
 20
-1229.722021057944
 30
0.0
 10
1689.237041370108
 20
-1227.98492154764
 30
0.0
 10
1682.717168367466
 20
-1223.848352184156
 30
0.0
 10
1679.212271132319
 20
-1221.624655187211
 30
0.0
 10
1678.928901751695
 20
-1219.326154729163
 30
0.0
 10
1682.429602345084
 20
-1216.981775926056
 30
0.0
 10
1687.508575877316
 20
-1213.580426717549
 30
0.0
 10
1693.013093050113
 20
-1209.885678316649
 30
0.0
 10
1699.164777287766
 20
-1210.844327400923
 30
0.0
 10
1720.068793838474
 20
-1214.101930634239
 30
0.0
 10
1739.189119590817
 20
-1207.429997074397
 30
0.0
 10
1758.37008253424
 20
-1201.116266448026
 30
0.0
 10
1778.714031433206
 20
-1194.41971320715
 30
0.0
 10
1798.652815750634
 20
-1186.484629829633
 30
0.0
 10
1819.450900082202
 20
-1181.180861665602
 30
0.0
 10
1842.271020390448
 20
-1175.36142275489
 30
0.0
 10
1863.113399778074
 20
-1180.832667711141
 30
0.0
 10
1882.553096217842
 20
-1192.853821866077
 30
0.0
 10
1889.620602035209
 20
-1197.224236533869
 30
0.0
 10
1890.734293074685
 20
-1201.918373619091
 30
0.0
 10
1887.802615900799
 20
-1208.209317846428
 30
0.0
 10
1884.0312585338
 20
-1216.302044958153
 30
0.0
 10
1877.388500082994
 20
-1220.096503530186
 30
0.0
 10
1869.951337949138
 20
-1218.070588032501
 30
0.0
 10
1865.08702970269
 20
-1216.745532540743
 30
0.0
 10
1860.199907280212
 20
-1215.315368880846
 30
0.0
 10
1855.570055432076
 20
-1213.350238718242
 30
0.0
 10
1831.42347226407
 20
-1203.101284942656
 30
0.0
 10
1806.922861971596
 20
-1202.836449765306
 30
0.0
 10
1782.007633658572
 20
-1210.08843189892
 30
0.0
 10
1762.22444683635
 20
-1215.846641042551
 30
0.0
 10
1742.400177831074
 20
-1221.465668898
 30
0.0
 10
1722.561529598779
 20
-1227.030170502375
 30
0.0
 10
1716.525707857778
 20
-1228.723160136619
 30
0.0
 10
1710.369403379118
 20
-1229.944357425237
 30
0.0
 10
1704.990674350989
 20
-1229.720872941941
 30
0.0
  0
HATCH
  5
8C
330
70
100
AcDbEntity
  8
Layer 1
 62
    18
420
        0
440
 33554687
100
AcDbHatch
 10
0.0
 20
0.0
 30
0.0
210
0.0
220
0.0
230
1.0
  2
SOLID
 70
     1
 71
     1
 91
        1
 92
        1
 93
        1
 72
     4
 94
        3
 73
     0
 74
     0
 95
       41
 96
       37
 40
0.0
 40
0.0
 40
0.0
 40
0.0
 40
1.0
 40
1.0
 40
1.0
 40
2.0
 40
2.0
 40
2.0
 40
3.0
 40
3.0
 40
3.0
 40
4.0
 40
4.0
 40
4.0
 40
5.0
 40
5.0
 40
5.0
 40
6.0
 40
6.0
 40
6.0
 40
7.0
 40
7.0
 40
7.0
 40
8.0
 40
8.0
 40
8.0
 40
9.0
 40
9.0
 40
9.0
 40
10.0
 40
10.0
 40
10.0
 40
11.0
 40
11.0
 40
11.0
 40
12.0
 40
12.0
 40
12.0
 40
12.0
 10
1704.990674350989
 20
-1229.720872941941
 10
1696.381572808577
 20
-1229.722021057944
 10
1689.237041370108
 20
-1227.98492154764
 10
1682.717168367466
 20
-1223.848352184156
 10
1679.212271132319
 20
-1221.624655187211
 10
1678.928901751695
 20
-1219.326154729163
 10
1682.429602345084
 20
-1216.981775926056
 10
1687.508575877316
 20
-1213.580426717549
 10
1693.013093050113
 20
-1209.885678316649
 10
1699.164777287766
 20
-1210.844327400923
 10
1720.068793838474
 20
-1214.101930634239
 10
1739.189119590817
 20
-1207.429997074397
 10
1758.37008253424
 20
-1201.116266448026
 10
1778.714031433206
 20
-1194.41971320715
 10
1798.652815750634
 20
-1186.484629829633
 10
1819.450900082202
 20
-1181.180861665602
 10
1842.271020390448
 20
-1175.36142275489
 10
1863.113399778074
 20
-1180.832667711141
 10
1882.553096217842
 20
-1192.853821866077
 10
1889.620602035209
 20
-1197.224236533869
 10
1890.734293074685
 20
-1201.918373619091
 10
1887.802615900799
 20
-1208.209317846428
 10
1884.0312585338
 20
-1216.302044958153
 10
1877.388500082994
 20
-1220.096503530186
 10
1869.951337949138
 20
-1218.070588032501
 10
1865.08702970269
 20
-1216.745532540743
 10
1860.199907280212
 20
-1215.315368880846
 10
1855.570055432076
 20
-1213.350238718242
 10
1831.42347226407
 20
-1203.101284942656
 10
1806.922861971596
 20
-1202.836449765306
 10
1782.007633658572
 20
-1210.08843189892
 10
1762.22444683635
 20
-1215.846641042551
 10
1742.400177831074
 20
-1221.465668898
 10
1722.561529598779
 20
-1227.030170502375
 10
1716.525707857778
 20
-1228.723160136619
 10
1710.369403379118
 20
-1229.944357425237
 10
1704.990674350989
 20
-1229.720872941941
 97
        0
 97
        1
330
8B
 75
     2
 76
     1
 98
        1
 10
0.0
 20
0.0
450
        0
451
        0
460
0.0
461
0.0
452
        0
462
0.0
453
        0
470

  0
SPLINE
  5
8D
330
70
100
AcDbEntity
  8
Layer 1
100
AcDbSpline
210
0.0
220
0.0
230
1.0
 70
     9
 71
     3
 72
    38
 73
    34
 74
     0
 42
0.0000000001
 43
0.0000000001
 40
0.0
 40
0.0
 40
0.0
 40
0.0
 40
1.0
 40
1.0
 40
1.0
 40
2.0
 40
2.0
 40
2.0
 40
3.0
 40
3.0
 40
3.0
 40
4.0
 40
4.0
 40
4.0
 40
5.0
 40
5.0
 40
5.0
 40
6.0
 40
6.0
 40
6.0
 40
7.0
 40
7.0
 40
7.0
 40
8.0
 40
8.0
 40
8.0
 40
9.0
 40
9.0
 40
9.0
 40
10.0
 40
10.0
 40
10.0
 40
11.0
 40
11.0
 40
11.0
 40
11.0
 10
1731.11071615211
 20
-1172.346673832894
 30
0.0
 10
1730.303118394038
 20
-1172.346673832894
 30
0.0
 10
1729.486382002957
 20
-1172.425532735998
 30
0.0
 10
1728.6895061669
 20
-1172.333118656877
 30
0.0
 10
1725.097338227138
 20
-1171.916537728325
 30
0.0
 10
1720.72209962034
 20
-1172.052552438505
 30
0.0
 10
1720.099663344514
 20
-1167.387275656322
 30
0.0
 10
1719.518929604745
 20
-1163.034480865551
 30
0.0
 10
1723.663350600238
 20
-1161.904410655054
 30
0.0
 10
1726.759476873342
 20
-1160.690273353943
 30
0.0
 10
1745.037705833569
 20
-1153.522548120444
 30
0.0
 10
1764.385580770215
 20
-1149.891885888131
 30
0.0
 10
1783.008670444899
 20
-1143.839499796108
 30
0.0
 10
1795.097850472923
 20
-1139.9105959144
 30
0.0
 10
1807.241001212018
 20
-1136.143312507408
 30
0.0
 10
1819.403605110139
 20
-1132.447198404007
 30
0.0
 10
1823.633875553745
 20
-1131.161655694804
 30
0.0
 10
1828.75167670253
 20
-1129.378738022941
 30
0.0
 10
1831.799313592568
 20
-1133.461526484851
 30
0.0
 10
1834.703843378418
 20
-1137.352593463009
 30
0.0
 10
1831.087055757624
 20
-1141.408614155888
 30
0.0
 10
1829.238218635173
 20
-1145.154166689853
 30
0.0
 10
1827.234385852518
 20
-1149.213779874732
 30
0.0
 10
1824.132731956406
 20
-1151.501799144765
 30
0.0
 10
1819.657394300475
 20
-1152.681414264328
 30
0.0
 10
1795.647557303649
 20
-1159.009963920217
 30
0.0
 10
1771.643090526833
 20
-1165.354378872625
 30
0.0
 10
1747.310595897583
 20
-1170.340044832232
 30
0.0
 10
1741.990402267531
 20
-1171.430143939677
 30
0.0
 10
1736.535721662299
 20
-1171.863891054255
 30
0.0
 10
1731.142983767153
 20
-1172.599916742228
 30
0.0
 10
1731.132224809138
 20
-1172.515502439118
 30
0.0
 10
1731.121475110123
 20
-1172.431088136008
 30
0.0
 10
1731.11071615211
 20
-1172.346673832894
 30
0.0
  0
HATCH
  5
8E
330
70
100
AcDbEntity
  8
Layer 1
 62
    18
420
        0
440
 33554687
100
AcDbHatch
 10
0.0
 20
0.0
 30
0.0
210
0.0
220
0.0
230
1.0
  2
SOLID
 70
     1
 71
     1
 91
        1
 92
        1
 93
        1
 72
     4
 94
        3
 73
     0
 74
     0
 95
       38
 96
       34
 40
0.0
 40
0.0
 40
0.0
 40
0.0
 40
1.0
 40
1.0
 40
1.0
 40
2.0
 40
2.0
 40
2.0
 40
3.0
 40
3.0
 40
3.0
 40
4.0
 40
4.0
 40
4.0
 40
5.0
 40
5.0
 40
5.0
 40
6.0
 40
6.0
 40
6.0
 40
7.0
 40
7.0
 40
7.0
 40
8.0
 40
8.0
 40
8.0
 40
9.0
 40
9.0
 40
9.0
 40
10.0
 40
10.0
 40
10.0
 40
11.0
 40
11.0
 40
11.0
 40
11.0
 10
1731.11071615211
 20
-1172.346673832894
 10
1730.303118394038
 20
-1172.346673832894
 10
1729.486382002957
 20
-1172.425532735998
 10
1728.6895061669
 20
-1172.333118656877
 10
1725.097338227138
 20
-1171.916537728325
 10
1720.72209962034
 20
-1172.052552438505
 10
1720.099663344514
 20
-1167.387275656322
 10
1719.518929604745
 20
-1163.034480865551
 10
1723.663350600238
 20
-1161.904410655054
 10
1726.759476873342
 20
-1160.690273353943
 10
1745.037705833569
 20
-1153.522548120444
 10
1764.385580770215
 20
-1149.891885888131
 10
1783.008670444899
 20
-1143.839499796108
 10
1795.097850472923
 20
-1139.9105959144
 10
1807.241001212018
 20
-1136.143312507408
 10
1819.403605110139
 20
-1132.447198404007
 10
1823.633875553745
 20
-1131.161655694804
 10
1828.75167670253
 20
-1129.378738022941
 10
1831.799313592568
 20
-1133.461526484851
 10
1834.703843378418
 20
-1137.352593463009
 10
1831.087055757624
 20
-1141.408614155888
 10
1829.238218635173
 20
-1145.154166689853
 10
1827.234385852518
 20
-1149.213779874732
 10
1824.132731956406
 20
-1151.501799144765
 10
1819.657394300475
 20
-1152.681414264328
 10
1795.647557303649
 20
-1159.009963920217
 10
1771.643090526833
 20
-1165.354378872625
 10
1747.310595897583
 20
-1170.340044832232
 10
1741.990402267531
 20
-1171.430143939677
 10
1736.535721662299
 20
-1171.863891054255
 10
1731.142983767153
 20
-1172.599916742228
 10
1731.132224809138
 20
-1172.515502439118
 10
1731.121475110123
 20
-1172.431088136008
 10
1731.11071615211
 20
-1172.346673832894
 97
        0
 97
        1
330
8D
 75
     2
 76
     1
 98
        1
 10
0.0
 20
0.0
450
        0
451
        0
460
0.0
461
0.0
452
        0
462
0.0
453
        0
470

  0
ENDSEC
  0
SECTION
  2
OBJECTS
  0
DICTIONARY
  5
C
330
0
100
AcDbDictionary
281
     1
  3
ACAD_COLOR
350
63
  3
ACAD_DETAILVIEWSTYLE
350
6A
  3
ACAD_GROUP
350
D
  3
ACAD_LAYOUT
350
62
  3
ACAD_MATERIAL
350
10
  3
ACAD_MLEADERSTYLE
350
66
  3
ACAD_MLINESTYLE
350
5F
  3
ACAD_PLOTSETTINGS
350
61
  3
ACAD_PLOTSTYLENAME
350
E
  3
ACAD_SCALELIST
350
42
  3
ACAD_SECTIONVIEWSTYLE
350
68
  3
ACAD_TABLESTYLE
350
64
  3
ACAD_VISUALSTYLE
350
29
  3
ACDB_RECOMPOSE_DATA
350
97
  3
AcDbVariableDictionary
350
8F
  0
DICTIONARY
  5
63
102
{ACAD_REACTORS
330
C
102
}
330
C
100
AcDbDictionary
281
     1
  0
DICTIONARY
  5
6A
102
{ACAD_REACTORS
330
C
102
}
330
C
100
AcDbDictionary
281
     1
  3
Imperial24
350
6B
  0
DICTIONARY
  5
D
102
{ACAD_REACTORS
330
C
102
}
330
C
100
AcDbDictionary
281
     1
  0
DICTIONARY
  5
62
102
{ACAD_REACTORS
330
C
102
}
330
C
100
AcDbDictionary
281
     1
  3
Layout1
350
6F
  3
Layout2
350
77
  3
Model
350
73
  0
DICTIONARY
  5
10
102
{ACAD_REACTORS
330
C
102
}
330
C
100
AcDbDictionary
281
     1
  3
ByBlock
350
19
  3
ByLayer
350
11
  3
Global
350
21
  0
DICTIONARY
  5
66
102
{ACAD_REACTORS
330
C
102
}
330
C
100
AcDbDictionary
281
     1
  3
Standard
350
67
  0
DICTIONARY
  5
5F
102
{ACAD_REACTORS
330
C
102
}
330
C
100
AcDbDictionary
281
     1
  3
Standard
350
60
  0
DICTIONARY
  5
61
102
{ACAD_REACTORS
330
C
102
}
330
C
100
AcDbDictionary
281
     1
  0
ACDBDICTIONARYWDFLT
  5
E
102
{ACAD_REACTORS
330
C
102
}
330
C
100
AcDbDictionary
281
     1
  3
Normal
350
F
100
AcDbDictionaryWithDefault
340
F
  0
DICTIONARY
  5
42
102
{ACAD_REACTORS
330
C
102
}
330
C
100
AcDbDictionary
281
     1
  3
A0
350
43
  3
A1
350
44
  3
A2
350
45
  3
A3
350
46
  3
A4
350
47
  3
A5
350
48
  3
A6
350
49
  3
A7
350
4A
  3
A8
350
4B
  3
A9
350
4C
  3
B0
350
4D
  3
B1
350
4E
  3
B2
350
4F
  3
B3
350
50
  3
B4
350
51
  3
B5
350
52
  3
B6
350
53
  0
DICTIONARY
  5
68
102
{ACAD_REACTORS
330
C
102
}
330
C
100
AcDbDictionary
281
     1
  3
Imperial24
350
69
  0
DICTIONARY
  5
64
102
{ACAD_REACTORS
330
C
102
}
330
C
100
AcDbDictionary
281
     1
  3
Standard
350
65
  0
DICTIONARY
  5
29
102
{ACAD_REACTORS
330
C
102
}
330
C
100
AcDbDictionary
281
     1
  3
2dWireframe
350
2F
  3
Basic
350
2E
  3
Brighten
350
35
  3
ColorChange
350
39
  3
Conceptual
350
32
  3
Dim
350
34
  3
EdgeColorOff
350
41
  3
Facepattern
350
38
  3
Flat
350
2A
  3
FlatWithEdges
350
2B
  3
Gouraud
350
2C
  3
GouraudWithEdges
350
2D
  3
Hidden
350
31
  3
JitterOff
350
3F
  3
Linepattern
350
37
  3
OverhangOff
350
40
  3
Realistic
350
33
  3
Shaded
350
3E
  3
Shaded with edges
350
3D
  3
Shades of Gray
350
3A
  3
Sketchy
350
3B
  3
Thicken
350
36
  3
Wireframe
350
30
  3
X-Ray
350
3C
  0
XRECORD
  5
97
102
{ACAD_REACTORS
330
C
102
}
330
C
100
AcDbXrecord
280
     1
 90
        1
330
65
  0
DICTIONARY
  5
8F
102
{ACAD_REACTORS
330
C
102
}
330
C
100
AcDbDictionary
281
     1
  3
CANNOSCALE
350
94
  3
CMLEADERSTYLE
350
91
  3
CTABLESTYLE
350
90
  3
CVIEWDETAILSTYLE
350
92
  3
CVIEWSECTIONSTYLE
350
93
  0
ACDBDETAILVIEWSTYLE
  5
6B
102
{ACAD_REACTORS
330
6A
102
}
330
6A
100
AcDbModelDocViewStyle
 70
     0
  3
Imperial24
290
     1
300
Imperial24
 90
        0
100
AcDbDetailViewStyle
 70
     0
 71
     0
 90
        3
 71
     1
340
55
 62
   256
 40
0.24
340
0
 62
   256
 40
0.24
300

 40
0.36
280
     3
 71
     2
340
5D
 90
       25
 62
   256
 71
     3
340
55
 62
   256
 40
0.24
 90
        1
 40
0.75
 90
        1
300
%<\AcVar ViewType \f "%tc1">% %<\AcVar ViewDetailId>%\PSCALE %<\AcVar ViewScale \f "%sn">%
 71
     4
340
5D
 90
       25
 62
   256
340
5D
 90
       25
 62
   256
280
     0
  0
LAYOUT
  5
6F
102
{ACAD_REACTORS
330
62
102
}
330
62
100
AcDbPlotSettings
  1

  2

  4

  6

 40
0.0
 41
0.0
 42
0.0
 43
0.0
 44
0.0
 45
0.0
 46
0.0
 47
0.0
 48
0.0
 49
0.0
140
0.0
141
0.0
142
1.0
143
1.0
 70
   688
 72
     0
 73
     0
 74
     5
  7

 75
    16
147
1.0
 76
     0
 77
     2
 78
   300
148
0.0
149
0.0
100
AcDbLayout
  1
Layout1
 70
     1
 71
     1
 10
0.0
 20
0.0
 11
12.0
 21
9.0
 12
0.0
 22
0.0
 32
0.0
 14
0.0
 24
0.0
 34
0.0
 15
0.0
 25
0.0
 35
0.0
146
0.0
 13
0.0
 23
0.0
 33
0.0
 16
1.0
 26
0.0
 36
0.0
 17
0.0
 27
1.0
 37
0.0
 76
     0
330
6C
  0
LAYOUT
  5
77
102
{ACAD_REACTORS
330
62
102
}
330
62
100
AcDbPlotSettings
  1

  2

  4

  6

 40
0.0
 41
0.0
 42
0.0
 43
0.0
 44
0.0
 45
0.0
 46
0.0
 47
0.0
 48
0.0
 49
0.0
140
0.0
141
0.0
142
1.0
143
1.0
 70
   688
 72
     0
 73
     0
 74
     5
  7

 75
    16
147
1.0
 76
     0
 77
     2
 78
   300
148
0.0
149
0.0
100
AcDbLayout
  1
Layout2
 70
     1
 71
     2
 10
0.0
 20
0.0
 11
12.0
 21
9.0
 12
0.0
 22
0.0
 32
0.0
 14
0.0
 24
0.0
 34
0.0
 15
0.0
 25
0.0
 35
0.0
146
0.0
 13
0.0
 23
0.0
 33
0.0
 16
1.0
 26
0.0
 36
0.0
 17
0.0
 27
1.0
 37
0.0
 76
     0
330
74
  0
LAYOUT
  5
73
102
{ACAD_REACTORS
330
62
102
}
330
62
100
AcDbPlotSettings
  1

  2

  4

  6

 40
0.0
 41
0.0
 42
0.0
 43
0.0
 44
0.0
 45
0.0
 46
0.0
 47
0.0
 48
0.0
 49
0.0
140
0.0
141
0.0
142
1.0
143
1.0
 70
  1712
 72
     0
 73
     0
 74
     0
  7

 75
     0
147
1.0
 76
     0
 77
     2
 78
   300
148
0.0
149
0.0
100
AcDbLayout
  1
Model
 70
     1
 71
     0
 10
0.0
 20
0.0
 11
12.0
 21
9.0
 12
0.0
 22
0.0
 32
0.0
 14
0.0
 24
0.0
 34
0.0
 15
0.0
 25
0.0
 35
0.0
146
0.0
 13
0.0
 23
0.0
 33
0.0
 16
1.0
 26
0.0
 36
0.0
 17
0.0
 27
1.0
 37
0.0
 76
     0
330
70
  0
MATERIAL
  5
19
102
{ACAD_XDICTIONARY
360
1A
102
}
102
{ACAD_REACTORS
330
10
102
}
330
10
100
AcDbMaterial
  1
ByBlock
 72
     0
 43
0.0208333333333333
 43
0.0
 43
0.0
 43
0.0
 43
0.0
 43
0.0208333333333333
 43
0.0
 43
0.0
 43
0.0
 43
0.0
 43
1.0
 43
0.0
 43
0.0
 43
0.0
 43
0.0
 43
1.0
 77
     0
 47
0.0208333333333333
 47
0.0
 47
0.0
 47
0.0
 47
0.0
 47
0.0208333333333333
 47
0.0
 47
0.0
 47
0.0
 47
0.0
 47
1.0
 47
0.0
 47
0.0
 47
0.0
 47
0.0
 47
1.0
171
     0
 49
0.0208333333333333
 49
0.0
 49
0.0
 49
0.0
 49
0.0
 49
0.0208333333333333
 49
0.0
 49
0.0
 49
0.0
 49
0.0
 49
1.0
 49
0.0
 49
0.0
 49
0.0
 49
0.0
 49
1.0
175
     0
142
0.0208333333333333
142
0.0
142
0.0
142
0.0
142
0.0
142
0.0208333333333333
142
0.0
142
0.0
142
0.0
142
0.0
142
1.0
142
0.0
142
0.0
142
0.0
142
0.0
142
1.0
179
     0
144
0.0208333333333333
144
0.0
144
0.0
144
0.0
144
0.0
144
0.0208333333333333
144
0.0
144
0.0
144
0.0
144
0.0
144
1.0
144
0.0
144
0.0
144
0.0
144
0.0
144
1.0
147
0.0208333333333333
147
0.0
147
0.0
147
0.0
147
0.0
147
0.0208333333333333
147
0.0
147
0.0
147
0.0
147
0.0
147
1.0
147
0.0
147
0.0
147
0.0
147
0.0
147
1.0
  0
MATERIAL
  5
11
102
{ACAD_XDICTIONARY
360
12
102
}
102
{ACAD_REACTORS
330
10
102
}
330
10
100
AcDbMaterial
  1
ByLayer
 72
     0
 43
0.0208333333333333
 43
0.0
 43
0.0
 43
0.0
 43
0.0
 43
0.0208333333333333
 43
0.0
 43
0.0
 43
0.0
 43
0.0
 43
1.0
 43
0.0
 43
0.0
 43
0.0
 43
0.0
 43
1.0
 77
     0
 47
0.0208333333333333
 47
0.0
 47
0.0
 47
0.0
 47
0.0
 47
0.0208333333333333
 47
0.0
 47
0.0
 47
0.0
 47
0.0
 47
1.0
 47
0.0
 47
0.0
 47
0.0
 47
0.0
 47
1.0
171
     0
 49
0.0208333333333333
 49
0.0
 49
0.0
 49
0.0
 49
0.0
 49
0.0208333333333333
 49
0.0
 49
0.0
 49
0.0
 49
0.0
 49
1.0
 49
0.0
 49
0.0
 49
0.0
 49
0.0
 49
1.0
175
     0
142
0.0208333333333333
142
0.0
142
0.0
142
0.0
142
0.0
142
0.0208333333333333
142
0.0
142
0.0
142
0.0
142
0.0
142
1.0
142
0.0
142
0.0
142
0.0
142
0.0
142
1.0
179
     0
144
0.0208333333333333
144
0.0
144
0.0
144
0.0
144
0.0
144
0.0208333333333333
144
0.0
144
0.0
144
0.0
144
0.0
144
1.0
144
0.0
144
0.0
144
0.0
144
0.0
144
1.0
147
0.0208333333333333
147
0.0
147
0.0
147
0.0
147
0.0
147
0.0208333333333333
147
0.0
147
0.0
147
0.0
147
0.0
147
1.0
147
0.0
147
0.0
147
0.0
147
0.0
147
1.0
  0
MATERIAL
  5
21
102
{ACAD_XDICTIONARY
360
22
102
}
102
{ACAD_REACTORS
330
10
102
}
330
10
100
AcDbMaterial
  1
Global
 72
     0
 43
0.0208333333333333
 43
0.0
 43
0.0
 43
0.0
 43
0.0
 43
0.0208333333333333
 43
0.0
 43
0.0
 43
0.0
 43
0.0
 43
1.0
 43
0.0
 43
0.0
 43
0.0
 43
0.0
 43
1.0
 77
     0
 47
0.0208333333333333
 47
0.0
 47
0.0
 47
0.0
 47
0.0
 47
0.0208333333333333
 47
0.0
 47
0.0
 47
0.0
 47
0.0
 47
1.0
 47
0.0
 47
0.0
 47
0.0
 47
0.0
 47
1.0
171
     0
 49
0.0208333333333333
 49
0.0
 49
0.0
 49
0.0
 49
0.0
 49
0.0208333333333333
 49
0.0
 49
0.0
 49
0.0
 49
0.0
 49
1.0
 49
0.0
 49
0.0
 49
0.0
 49
0.0
 49
1.0
175
     0
142
0.0208333333333333
142
0.0
142
0.0
142
0.0
142
0.0
142
0.0208333333333333
142
0.0
142
0.0
142
0.0
142
0.0
142
1.0
142
0.0
142
0.0
142
0.0
142
0.0
142
1.0
179
     0
144
0.0208333333333333
144
0.0
144
0.0
144
0.0
144
0.0
144
0.0208333333333333
144
0.0
144
0.0
144
0.0
144
0.0
144
1.0
144
0.0
144
0.0
144
0.0
144
0.0
144
1.0
147
0.0208333333333333
147
0.0
147
0.0
147
0.0
147
0.0
147
0.0208333333333333
147
0.0
147
0.0
147
0.0
147
0.0
147
1.0
147
0.0
147
0.0
147
0.0
147
0.0
147
1.0
  0
MLEADERSTYLE
  5
67
102
{ACAD_REACTORS
330
66
102
}
330
66
100
AcDbMLeaderStyle
179
     2
170
     2
171
     1
172
     0
 90
        2
 40
0.0
 41
0.0
173
     1
 91
-1056964608
340
5B
 92
       -2
290
     1
 42
0.09
291
     1
 43
0.36
  3
Standard
 44
0.18
300

342
55
174
     1
178
     6
175
     1
176
     0
 93
-1056964608
 45
0.18
292
     0
297
     0
 46
0.18
 94
-1056964608
 47
1.0
 49
1.0
140
1.0
293
     1
141
0.0
294
     1
177
     0
142
1.0
295
     1
296
     0
143
0.125
271
     0
272
     9
273
     9
298
     1
  0
MLINESTYLE
  5
60
102
{ACAD_REACTORS
330
5F
102
}
330
5F
100
AcDbMlineStyle
  2
STANDARD
 70
     0
  3

 62
   256
 51
90.0
 52
90.0
 71
     2
 49
0.5
 62
   256
  6
BYLAYER
 49
-0.5
 62
   256
  6
BYLAYER
  0
ACDBPLACEHOLDER
  5
F
102
{ACAD_REACTORS
330
E
102
}
330
E
  0
SCALE
  5
43
102
{ACAD_REACTORS
330
42
102
}
330
42
100
AcDbScale
 70
     0
300
1:1
140
1.0
141
1.0
290
     1
  0
SCALE
  5
44
102
{ACAD_REACTORS
330
42
102
}
330
42
100
AcDbScale
 70
     0
300
1/128" = 1'-0"
140
0.0078125
141
12.0
290
     0
  0
SCALE
  5
45
102
{ACAD_REACTORS
330
42
102
}
330
42
100
AcDbScale
 70
     0
300
1/64" = 1'-0"
140
0.015625
141
12.0
290
     0
  0
SCALE
  5
46
102
{ACAD_REACTORS
330
42
102
}
330
42
100
AcDbScale
 70
     0
300
1/32" = 1'-0"
140
0.03125
141
12.0
290
     0
  0
SCALE
  5
47
102
{ACAD_REACTORS
330
42
102
}
330
42
100
AcDbScale
 70
     0
300
1/16" = 1'-0"
140
0.0625
141
12.0
290
     0
  0
SCALE
  5
48
102
{ACAD_REACTORS
330
42
102
}
330
42
100
AcDbScale
 70
     0
300
3/32" = 1'-0"
140
0.09375
141
12.0
290
     0
  0
SCALE
  5
49
102
{ACAD_REACTORS
330
42
102
}
330
42
100
AcDbScale
 70
     0
300
1/8" = 1'-0"
140
0.125
141
12.0
290
     0
  0
SCALE
  5
4A
102
{ACAD_REACTORS
330
42
102
}
330
42
100
AcDbScale
 70
     0
300
3/16" = 1'-0"
140
0.1875
141
12.0
290
     0
  0
SCALE
  5
4B
102
{ACAD_REACTORS
330
42
102
}
330
42
100
AcDbScale
 70
     0
300
1/4" = 1'-0"
140
0.25
141
12.0
290
     0
  0
SCALE
  5
4C
102
{ACAD_REACTORS
330
42
102
}
330
42
100
AcDbScale
 70
     0
300
3/8" = 1'-0"
140
0.375
141
12.0
290
     0
  0
SCALE
  5
4D
102
{ACAD_REACTORS
330
42
102
}
330
42
100
AcDbScale
 70
     0
300
1/2" = 1'-0"
140
0.5
141
12.0
290
     0
  0
SCALE
  5
4E
102
{ACAD_REACTORS
330
42
102
}
330
42
100
AcDbScale
 70
     0
300
3/4" = 1'-0"
140
0.75
141
12.0
290
     0
  0
SCALE
  5
4F
102
{ACAD_REACTORS
330
42
102
}
330
42
100
AcDbScale
 70
     0
300
1" = 1'-0"
140
1.0
141
12.0
290
     0
  0
SCALE
  5
50
102
{ACAD_REACTORS
330
42
102
}
330
42
100
AcDbScale
 70
     0
300
1-1/2" = 1'-0"
140
1.5
141
12.0
290
     0
  0
SCALE
  5
51
102
{ACAD_REACTORS
330
42
102
}
330
42
100
AcDbScale
 70
     0
300
3" = 1'-0"
140
3.0
141
12.0
290
     0
  0
SCALE
  5
52
102
{ACAD_REACTORS
330
42
102
}
330
42
100
AcDbScale
 70
     0
300
6" = 1'-0"
140
6.0
141
12.0
290
     0
  0
SCALE
  5
53
102
{ACAD_REACTORS
330
42
102
}
330
42
100
AcDbScale
 70
     0
300
1'-0" = 1'-0"
140
12.0
141
12.0
290
     0
  0
ACDBSECTIONVIEWSTYLE
  5
69
102
{ACAD_REACTORS
330
68
102
}
330
68
100
AcDbModelDocViewStyle
 70
     0
  3
Imperial24
290
     1
300
Imperial24
 90
        0
100
AcDbSectionViewStyle
 70
     0
 71
     0
 90
       78
 71
     1
340
55
 62
   256
 40
0.24
340
0
340
0
 62
   256
 40
0.24
300
I, O, Q, S, X, Z
 40
0.48
 90
        3
 40
0.18
 90
        1
 71
     2
340
5D
 90
       25
 62
   256
340
5D
 90
       50
 62
   256
 40
0.24
 40
0.0
 40
0.24
 71
     3
340
55
 62
   256
 40
0.24
 90
        1
 40
0.75
 90
        1
300
%<\AcVar ViewType \f "%tc1">% %<\AcVar ViewSectionStartId>%-%<\AcVar ViewSectionEndId>%\PSCALE %<\AcVar ViewScale \f "%sn">%
 71
     4
 62
   256
 62
   257
300
ANSI31
 40
1.0
 90
        0
290
     0
290
     0
 90
        6
 40
0.0
 40
1.570796326794896
 40
0.2617993877991494
 40
1.308996938995747
 40
-0.2617993877991494
 40
1.832595714594046
  0
TABLESTYLE
  5
65
102
{ACAD_XDICTIONARY
360
95
102
}
102
{ACAD_REACTORS
330
64
102
}
330
64
100
AcDbTableStyle
280
     0
  3
Standard
 70
     0
 71
     0
 40
0.06
 41
0.06
280
     0
281
     0
  7
Standard
140
0.18
170
     2
 62
     0
 63
     7
283
     0
 90
      512
 91
        0
  1

274
    -2
284
     1
 64
     0
275
    -2
285
     1
 65
     0
276
    -2
286
     1
 66
     0
277
    -2
287
     1
 67
     0
278
    -2
288
     1
 68
     0
279
    -2
289
     1
 69
     0
  7
Standard
140
0.25
170
     5
 62
     0
 63
     7
283
     0
 90
      512
 91
        0
  1

274
    -2
284
     1
 64
     0
275
    -2
285
     1
 65
     0
276
    -2
286
     1
 66
     0
277
    -2
287
     1
 67
     0
278
    -2
288
     1
 68
     0
279
    -2
289
     1
 69
     0
  7
Standard
140
0.18
170
     5
 62
     0
 63
     7
283
     0
 90
      512
 91
        0
  1

274
    -2
284
     1
 64
     0
275
    -2
285
     1
 65
     0
276
    -2
286
     1
 66
     0
277
    -2
287
     1
 67
     0
278
    -2
288
     1
 68
     0
279
    -2
289
     1
 69
     0
  0
VISUALSTYLE
  5
2F
102
{ACAD_REACTORS
330
29
102
}
330
29
100
AcDbVisualStyle
  2
2dWireframe
 70
     4
177
     3
291
     0
 70
    58
 90
        0
176
     1
 90
        2
176
     1
 90
        0
176
     1
 90
        0
176
     1
 40
0.6
176
     1
 40
30.0
176
     1
 62
     7
420
 16777215
176
     1
 90
        1
176
     1
 90
        4
176
     1
 62
     7
176
     1
 62
   257
176
     1
 90
        1
176
     1
 90
        1
176
     1
 40
1.0
176
     1
 90
        0
176
     1
 62
   257
176
     1
 40
1.0
176
     1
 90
        1
176
     1
 90
        6
176
     1
 90
        2
176
     1
 62
     7
176
     1
 90
        5
176
     1
 90
        0
176
     1
 90
        0
176
     1
290
     0
176
     1
 90
        1
176
     1
 40
0.0
176
     1
 90
        0
176
     1
290
     1
176
     1
290
     1
176
     1
290
     0
176
     1
290
     0
176
     1
290
     0
176
     1
290
     0
176
     1
290
     0
176
     1
290
     0
176
     1
290
     0
176
     1
 90
       50
176
     1
 40
0.0
176
     1
 40
1.0
176
     1
 90
        0
176
     1
 62
    18
420
        0
176
     1
 90
       50
176
     1
 90
        3
176
     1
 62
     5
420
      255
176
     1
290
     0
176
     1
 90
       50
176
     1
 90
       50
176
     1
 90
       50
176
     1
290
     0
176
     1
 90
       50
176
     1
 62
   256
176
     0
 40
1.0
176
     0
 90
        2
176
     1
  1
strokes_ogs.tif
176
     1
290
     0
176
     1
 40
1.0
176
     1
 40
1.0
176
     1
  0
VISUALSTYLE
  5
2E
102
{ACAD_REACTORS
330
29
102
}
330
29
100
AcDbVisualStyle
  2
Basic
 70
     7
177
     3
291
     1
 70
    58
 90
        1
176
     1
 90
        0
176
     1
 90
        1
176
     1
 90
        0
176
     1
 40
0.6
176
     1
 40
30.0
176
     1
 62
     7
420
 16777215
176
     1
 90
        0
176
     1
 90
        4
176
     1
 62
     7
176
     1
 62
   257
176
     1
 90
        1
176
     1
 90
        1
176
     1
 40
1.0
176
     1
 90
        8
176
     1
 62
     7
176
     1
 40
1.0
176
     1
 90
        1
176
     1
 90
        6
176
     1
 90
        2
176
     1
 62
     7
176
     1
 90
        5
176
     1
 90
        0
176
     1
 90
        0
176
     1
290
     0
176
     1
 90
        1
176
     1
 40
0.0
176
     1
 90
        0
176
     1
290
     0
176
     1
290
     1
176
     1
290
     1
176
     1
290
     0
176
     1
290
     0
176
     1
290
     0
176
     1
290
     0
176
     1
290
     0
176
     1
290
     0
176
     1
 90
       50
176
     1
 40
0.0
176
     1
 40
1.0
176
     1
 90
        0
176
     1
 62
    18
420
        0
176
     1
 90
       50
176
     1
 90
        3
176
     1
 62
     5
420
      255
176
     1
290
     0
176
     1
 90
       50
176
     1
 90
       50
176
     1
 90
       50
176
     1
290
     0
176
     1
 90
       50
176
     1
 62
   256
176
     0
 40
1.0
176
     0
 90
        2
176
     1
  1
strokes_ogs.tif
176
     1
290
     0
176
     1
 40
1.0
176
     1
 40
1.0
176
     1
  0
VISUALSTYLE
  5
35
102
{ACAD_REACTORS
330
29
102
}
330
29
100
AcDbVisualStyle
  2
Brighten
 70
    12
177
     3
291
     1
 70
    58
 90
        2
176
     1
 90
        2
176
     1
 90
        0
176
     1
 90
        0
176
     1
 40
0.6
176
     1
 40
30.0
176
     1
 62
     7
420
 16777215
176
     1
 90
        1
176
     1
 90
        4
176
     1
 62
     7
176
     1
 62
   257
176
     1
 90
        1
176
     1
 90
        1
176
     1
 40
1.0
176
     1
 90
        8
176
     1
 62
     7
176
     1
 40
1.0
176
     1
 90
        1
176
     1
 90
        6
176
     1
 90
        2
176
     1
 62
     7
176
     1
 90
        5
176
     1
 90
        0
176
     1
 90
        0
176
     1
290
     0
176
     1
 90
        1
176
     1
 40
50.0
176
     1
 90
        0
176
     1
290
     0
176
     1
290
     1
176
     1
290
     1
176
     1
290
     0
176
     1
290
     0
176
     1
290
     0
176
     1
290
     0
176
     1
290
     0
176
     1
290
     0
176
     1
 90
       50
176
     1
 40
0.0
176
     1
 40
1.0
176
     1
 90
        0
176
     1
 62
    18
420
        0
176
     1
 90
       50
176
     1
 90
        3
176
     1
 62
     5
420
      255
176
     1
290
     0
176
     1
 90
       50
176
     1
 90
       50
176
     1
 90
       50
176
     1
290
     0
176
     1
 90
       50
176
     1
 62
   256
176
     0
 40
1.0
176
     0
 90
        2
176
     1
  1
strokes_ogs.tif
176
     1
290
     0
176
     1
 40
1.0
176
     1
 40
1.0
176
     1
  0
VISUALSTYLE
  5
39
102
{ACAD_REACTORS
330
29
102
}
330
29
100
AcDbVisualStyle
  2
ColorChange
 70
    16
177
     3
291
     1
 70
    58
 90
        2
176
     1
 90
        2
176
     1
 90
        3
176
     1
 90
        0
176
     1
 40
0.6
176
     1
 40
30.0
176
     1
 62
     8
420
  8421504
176
     1
 90
        1
176
     1
 90
        4
176
     1
 62
     7
176
     1
 62
   257
176
     1
 90
        1
176
     1
 90
        1
176
     1
 40
1.0
176
     1
 90
        8
176
     1
 62
     8
420
  8421504
176
     1
 40
1.0
176
     1
 90
        1
176
     1
 90
        6
176
     1
 90
        2
176
     1
 62
     7
176
     1
 90
        5
176
     1
 90
        0
176
     1
 90
        0
176
     1
290
     0
176
     1
 90
        1
176
     1
 40
0.0
176
     1
 90
        0
176
     1
290
     0
176
     1
290
     1
176
     1
290
     1
176
     1
290
     0
176
     1
290
     0
176
     1
290
     0
176
     1
290
     0
176
     1
290
     0
176
     1
290
     0
176
     1
 90
       50
176
     1
 40
0.0
176
     1
 40
1.0
176
     1
 90
        0
176
     1
 62
    18
420
        0
176
     1
 90
       50
176
     1
 90
        3
176
     1
 62
     5
420
      255
176
     1
290
     0
176
     1
 90
       50
176
     1
 90
       50
176
     1
 90
       50
176
     1
290
     0
176
     1
 90
       50
176
     1
 62
   256
176
     0
 40
1.0
176
     0
 90
        2
176
     1
  1
strokes_ogs.tif
176
     1
290
     0
176
     1
 40
1.0
176
     1
 40
1.0
176
     1
  0
VISUALSTYLE
  5
32
102
{ACAD_REACTORS
330
29
102
}
330
29
100
AcDbVisualStyle
  2
Conceptual
 70
     9
177
     3
291
     0
 70
    58
 90
        3
176
     1
 90
        2
176
     1
 90
        0
176
     1
 90
        0
176
     1
 40
0.6
176
     1
 40
30.0
176
     1
 62
     7
420
 16777215
176
     1
 90
        2
176
     1
 90
        2
176
     1
 62
     7
176
     1
 62
   257
176
     1
 90
        1
176
     1
 90
        1
176
     1
 40
179.0
176
     1
 90
        8
176
     1
 62
     7
176
     1
 40
1.0
176
     1
 90
        1
176
     1
 90
        6
176
     1
 90
        2
176
     1
 62
     7
176
     1
 90
        3
176
     1
 90
        0
176
     1
 90
        0
176
     1
290
     0
176
     1
 90
        1
176
     1
 40
0.0
176
     1
 90
        0
176
     1
290
     0
176
     1
290
     1
176
     1
290
     1
176
     1
290
     0
176
     1
290
     0
176
     1
290
     0
176
     1
290
     0
176
     1
290
     0
176
     1
290
     0
176
     1
 90
       50
176
     1
 40
0.0
176
     1
 40
1.0
176
     1
 90
        0
176
     1
 62
    18
420
        0
176
     1
 90
       50
176
     1
 90
        3
176
     1
 62
     5
420
      255
176
     1
290
     0
176
     1
 90
       50
176
     1
 90
       50
176
     1
 90
       50
176
     1
290
     0
176
     1
 90
       50
176
     1
 62
   256
176
     0
 40
1.0
176
     0
 90
        2
176
     1
  1
strokes_ogs.tif
176
     1
290
     0
176
     1
 40
1.0
176
     1
 40
1.0
176
     1
  0
VISUALSTYLE
  5
34
102
{ACAD_REACTORS
330
29
102
}
330
29
100
AcDbVisualStyle
  2
Dim
 70
    11
177
     3
291
     1
 70
    58
 90
        2
176
     1
 90
        2
176
     1
 90
        0
176
     1
 90
        0
176
     1
 40
0.6
176
     1
 40
30.0
176
     1
 62
     7
420
 16777215
176
     1
 90
        1
176
     1
 90
        4
176
     1
 62
     7
176
     1
 62
   257
176
     1
 90
        1
176
     1
 90
        1
176
     1
 40
1.0
176
     1
 90
        8
176
     1
 62
     7
176
     1
 40
1.0
176
     1
 90
        1
176
     1
 90
        6
176
     1
 90
        2
176
     1
 62
     7
176
     1
 90
        5
176
     1
 90
        0
176
     1
 90
        0
176
     1
290
     0
176
     1
 90
        1
176
     1
 40
-50.0
176
     1
 90
        0
176
     1
290
     0
176
     1
290
     1
176
     1
290
     1
176
     1
290
     0
176
     1
290
     0
176
     1
290
     0
176
     1
290
     0
176
     1
290
     0
176
     1
290
     0
176
     1
 90
       50
176
     1
 40
0.0
176
     1
 40
1.0
176
     1
 90
        0
176
     1
 62
    18
420
        0
176
     1
 90
       50
176
     1
 90
        3
176
     1
 62
     5
420
      255
176
     1
290
     0
176
     1
 90
       50
176
     1
 90
       50
176
     1
 90
       50
176
     1
290
     0
176
     1
 90
       50
176
     1
 62
   256
176
     0
 40
1.0
176
     0
 90
        2
176
     1
  1
strokes_ogs.tif
176
     1
290
     0
176
     1
 40
1.0
176
     1
 40
1.0
176
     1
  0
VISUALSTYLE
  5
41
102
{ACAD_REACTORS
330
29
102
}
330
29
100
AcDbVisualStyle
  2
EdgeColorOff
 70
    22
177
     3
291
     1
 70
    58
 90
        2
176
     0
 90
        2
176
     0
 90
        0
176
     0
 90
        0
176
     0
 40
0.6
176
     0
 40
30.0
176
     0
 62
     7
420
 16777215
176
     0
 90
        1
176
     0
 90
        4
176
     0
 62
     7
176
     0
 62
   257
176
     0
 90
        1
176
     0
 90
        1
176
     0
 40
1.0
176
     0
 90
        8
176
     2
 62
     7
176
     0
 40
1.0
176
     0
 90
        1
176
     0
 90
        6
176
     0
 90
        2
176
     0
 62
     7
176
     0
 90
        5
176
     0
 90
        0
176
     0
 90
        0
176
     0
290
     0
176
     0
 90
        1
176
     0
 40
0.0
176
     0
 90
        0
176
     0
290
     0
176
     0
290
     1
176
     0
290
     1
176
     0
290
     0
176
     0
290
     0
176
     0
290
     0
176
     0
290
     0
176
     0
290
     0
176
     0
290
     0
176
     0
 90
       50
176
     0
 40
0.0
176
     0
 40
1.0
176
     0
 90
        0
176
     0
 62
    18
420
        0
176
     0
 90
       50
176
     0
 90
        3
176
     0
 62
     5
420
      255
176
     0
290
     0
176
     0
 90
       50
176
     0
 90
       50
176
     0
 90
       50
176
     0
290
     0
176
     0
 90
       50
176
     0
 62
   256
176
     0
 40
1.0
176
     0
 90
        2
176
     0
  1
strokes_ogs.tif
176
     0
290
     0
176
     0
 40
1.0
176
     0
 40
1.0
176
     0
  0
VISUALSTYLE
  5
38
102
{ACAD_REACTORS
330
29
102
}
330
29
100
AcDbVisualStyle
  2
Facepattern
 70
    15
177
     3
291
     1
 70
    58
 90
        2
176
     1
 90
        2
176
     1
 90
        0
176
     1
 90
        0
176
     1
 40
0.6
176
     1
 40
30.0
176
     1
 62
     7
420
 16777215
176
     1
 90
        1
176
     1
 90
        4
176
     1
 62
     7
176
     1
 62
   257
176
     1
 90
        1
176
     1
 90
        1
176
     1
 40
1.0
176
     1
 90
        8
176
     1
 62
     7
176
     1
 40
1.0
176
     1
 90
        1
176
     1
 90
        6
176
     1
 90
        2
176
     1
 62
     7
176
     1
 90
        5
176
     1
 90
        0
176
     1
 90
        0
176
     1
290
     0
176
     1
 90
        1
176
     1
 40
0.0
176
     1
 90
        0
176
     1
290
     0
176
     1
290
     1
176
     1
290
     1
176
     1
290
     0
176
     1
290
     0
176
     1
290
     0
176
     1
290
     0
176
     1
290
     0
176
     1
290
     0
176
     1
 90
       50
176
     1
 40
0.0
176
     1
 40
1.0
176
     1
 90
        0
176
     1
 62
    18
420
        0
176
     1
 90
       50
176
     1
 90
        3
176
     1
 62
     5
420
      255
176
     1
290
     0
176
     1
 90
       50
176
     1
 90
       50
176
     1
 90
       50
176
     1
290
     0
176
     1
 90
       50
176
     1
 62
   256
176
     0
 40
1.0
176
     0
 90
        2
176
     1
  1
strokes_ogs.tif
176
     1
290
     0
176
     1
 40
1.0
176
     1
 40
1.0
176
     1
  0
VISUALSTYLE
  5
2A
102
{ACAD_REACTORS
330
29
102
}
330
29
100
AcDbVisualStyle
  2
Flat
 70
     0
177
     3
291
     1
 70
    58
 90
        2
176
     1
 90
        1
176
     1
 90
        1
176
     1
 90
        2
176
     1
 40
0.6
176
     1
 40
30.0
176
     1
 62
     7
420
 16777215
176
     1
 90
        0
176
     1
 90
        0
176
     1
 62
     7
176
     1
 62
   257
176
     1
 90
        1
176
     1
 90
        1
176
     1
 40
1.0
176
     1
 90
        8
176
     1
 62
     7
176
     1
 40
1.0
176
     1
 90
        1
176
     1
 90
        6
176
     1
 90
        2
176
     1
 62
     7
176
     1
 90
        5
176
     1
 90
        0
176
     1
 90
        0
176
     1
290
     0
176
     1
 90
       13
176
     1
 40
0.0
176
     1
 90
        0
176
     1
290
     0
176
     1
290
     1
176
     1
290
     1
176
     1
290
     0
176
     1
290
     0
176
     1
290
     0
176
     1
290
     0
176
     1
290
     0
176
     1
290
     0
176
     1
 90
       50
176
     1
 40
0.0
176
     1
 40
1.0
176
     1
 90
        0
176
     1
 62
    18
420
        0
176
     1
 90
       50
176
     1
 90
        3
176
     1
 62
     5
420
      255
176
     1
290
     0
176
     1
 90
       50
176
     1
 90
       50
176
     1
 90
       50
176
     1
290
     0
176
     1
 90
       50
176
     1
 62
   256
176
     0
 40
1.0
176
     0
 90
        2
176
     1
  1
strokes_ogs.tif
176
     1
290
     0
176
     1
 40
1.0
176
     1
 40
1.0
176
     1
  0
VISUALSTYLE
  5
2B
102
{ACAD_REACTORS
330
29
102
}
330
29
100
AcDbVisualStyle
  2
FlatWithEdges
 70
     1
177
     3
291
     1
 70
    58
 90
        2
176
     1
 90
        1
176
     1
 90
        1
176
     1
 90
        2
176
     1
 40
0.6
176
     1
 40
30.0
176
     1
 62
     7
420
 16777215
176
     1
 90
        1
176
     1
 90
        0
176
     1
 62
     7
176
     1
 62
   257
176
     1
 90
        1
176
     1
 90
        1
176
     1
 40
1.0
176
     1
 90
        0
176
     1
 62
   257
176
     1
 40
1.0
176
     1
 90
        1
176
     1
 90
        6
176
     1
 90
        2
176
     1
 62
     7
176
     1
 90
        5
176
     1
 90
        0
176
     1
 90
        0
176
     1
290
     0
176
     1
 90
       13
176
     1
 40
0.0
176
     1
 90
        0
176
     1
290
     0
176
     1
290
     1
176
     1
290
     1
176
     1
290
     0
176
     1
290
     0
176
     1
290
     0
176
     1
290
     0
176
     1
290
     0
176
     1
290
     0
176
     1
 90
       50
176
     1
 40
0.0
176
     1
 40
1.0
176
     1
 90
        0
176
     1
 62
    18
420
        0
176
     1
 90
       50
176
     1
 90
        3
176
     1
 62
     5
420
      255
176
     1
290
     0
176
     1
 90
       50
176
     1
 90
       50
176
     1
 90
       50
176
     1
290
     0
176
     1
 90
       50
176
     1
 62
   256
176
     0
 40
1.0
176
     0
 90
        2
176
     1
  1
strokes_ogs.tif
176
     1
290
     0
176
     1
 40
1.0
176
     1
 40
1.0
176
     1
  0
VISUALSTYLE
  5
2C
102
{ACAD_REACTORS
330
29
102
}
330
29
100
AcDbVisualStyle
  2
Gouraud
 70
     2
177
     3
291
     1
 70
    58
 90
        2
176
     1
 90
        2
176
     1
 90
        1
176
     1
 90
        2
176
     1
 40
0.6
176
     1
 40
30.0
176
     1
 62
     7
420
 16777215
176
     1
 90
        0
176
     1
 90
        0
176
     1
 62
     7
176
     1
 62
   257
176
     1
 90
        1
176
     1
 90
        1
176
     1
 40
1.0
176
     1
 90
        0
176
     1
 62
     7
176
     1
 40
1.0
176
     1
 90
        1
176
     1
 90
        6
176
     1
 90
        2
176
     1
 62
     7
176
     1
 90
        5
176
     1
 90
        0
176
     1
 90
        0
176
     1
290
     0
176
     1
 90
       13
176
     1
 40
0.0
176
     1
 90
        0
176
     1
290
     0
176
     1
290
     1
176
     1
290
     1
176
     1
290
     0
176
     1
290
     0
176
     1
290
     0
176
     1
290
     0
176
     1
290
     0
176
     1
290
     0
176
     1
 90
       50
176
     1
 40
0.0
176
     1
 40
1.0
176
     1
 90
        0
176
     1
 62
    18
420
        0
176
     1
 90
       50
176
     1
 90
        3
176
     1
 62
     5
420
      255
176
     1
290
     0
176
     1
 90
       50
176
     1
 90
       50
176
     1
 90
       50
176
     1
290
     0
176
     1
 90
       50
176
     1
 62
   256
176
     0
 40
1.0
176
     0
 90
        2
176
     1
  1
strokes_ogs.tif
176
     1
290
     0
176
     1
 40
1.0
176
     1
 40
1.0
176
     1
  0
VISUALSTYLE
  5
2D
102
{ACAD_REACTORS
330
29
102
}
330
29
100
AcDbVisualStyle
  2
GouraudWithEdges
 70
     3
177
     3
291
     1
 70
    58
 90
        2
176
     1
 90
        2
176
     1
 90
        1
176
     1
 90
        2
176
     1
 40
0.6
176
     1
 40
30.0
176
     1
 62
     7
420
 16777215
176
     1
 90
        1
176
     1
 90
        0
176
     1
 62
     7
176
     1
 62
   257
176
     1
 90
        1
176
     1
 90
        1
176
     1
 40
1.0
176
     1
 90
        0
176
     1
 62
   257
176
     1
 40
1.0
176
     1
 90
        1
176
     1
 90
        6
176
     1
 90
        2
176
     1
 62
     7
176
     1
 90
        5
176
     1
 90
        0
176
     1
 90
        0
176
     1
290
     0
176
     1
 90
       13
176
     1
 40
0.0
176
     1
 90
        0
176
     1
290
     0
176
     1
290
     1
176
     1
290
     1
176
     1
290
     0
176
     1
290
     0
176
     1
290
     0
176
     1
290
     0
176
     1
290
     0
176
     1
290
     0
176
     1
 90
       50
176
     1
 40
0.0
176
     1
 40
1.0
176
     1
 90
        0
176
     1
 62
    18
420
        0
176
     1
 90
       50
176
     1
 90
        3
176
     1
 62
     5
420
      255
176
     1
290
     0
176
     1
 90
       50
176
     1
 90
       50
176
     1
 90
       50
176
     1
290
     0
176
     1
 90
       50
176
     1
 62
   256
176
     0
 40
1.0
176
     0
 90
        2
176
     1
  1
strokes_ogs.tif
176
     1
290
     0
176
     1
 40
1.0
176
     1
 40
1.0
176
     1
  0
VISUALSTYLE
  5
31
102
{ACAD_REACTORS
330
29
102
}
330
29
100
AcDbVisualStyle
  2
Hidden
 70
     6
177
     3
291
     0
 70
    58
 90
        1
176
     1
 90
        2
176
     1
 90
        2
176
     1
 90
        0
176
     1
 40
0.6
176
     1
 40
30.0
176
     1
 62
     7
420
 16777215
176
     1
 90
        2
176
     1
 90
        2
176
     1
 62
     7
176
     1
 62
   257
176
     1
 90
        2
176
     1
 90
        1
176
     1
 40
40.0
176
     1
 90
        0
176
     1
 62
   257
176
     1
 40
1.0
176
     1
 90
        1
176
     1
 90
        6
176
     1
 90
        2
176
     1
 62
     7
176
     1
 90
        3
176
     1
 90
        0
176
     1
 90
        0
176
     1
290
     0
176
     1
 90
        1
176
     1
 40
0.0
176
     1
 90
        0
176
     1
290
     0
176
     1
290
     1
176
     1
290
     1
176
     1
290
     0
176
     1
290
     0
176
     1
290
     0
176
     1
290
     0
176
     1
290
     0
176
     1
290
     0
176
     1
 90
       50
176
     1
 40
0.0
176
     1
 40
1.0
176
     1
 90
        0
176
     1
 62
    18
420
        0
176
     1
 90
       50
176
     1
 90
        3
176
     1
 62
     5
420
      255
176
     1
290
     0
176
     1
 90
       50
176
     1
 90
       50
176
     1
 90
       50
176
     1
290
     0
176
     1
 90
       50
176
     1
 62
   256
176
     0
 40
1.0
176
     0
 90
        2
176
     1
  1
strokes_ogs.tif
176
     1
290
     0
176
     1
 40
1.0
176
     1
 40
1.0
176
     1
  0
VISUALSTYLE
  5
3F
102
{ACAD_REACTORS
330
29
102
}
330
29
100
AcDbVisualStyle
  2
JitterOff
 70
    20
177
     3
291
     1
 70
    58
 90
        2
176
     0
 90
        2
176
     0
 90
        0
176
     0
 90
        0
176
     0
 40
0.6
176
     0
 40
30.0
176
     0
 62
     7
420
 16777215
176
     0
 90
        1
176
     0
 90
        4
176
     0
 62
     7
176
     0
 62
   257
176
     0
 90
        1
176
     0
 90
        1
176
     0
 40
1.0
176
     0
 90
       10
176
     2
 62
     7
176
     0
 40
1.0
176
     0
 90
        1
176
     0
 90
        6
176
     0
 90
        2
176
     0
 62
     7
176
     0
 90
        5
176
     0
 90
        0
176
     0
 90
        0
176
     0
290
     0
176
     0
 90
        1
176
     0
 40
0.0
176
     0
 90
        0
176
     0
290
     0
176
     0
290
     1
176
     0
290
     1
176
     0
290
     0
176
     0
290
     0
176
     0
290
     0
176
     0
290
     0
176
     0
290
     0
176
     0
290
     0
176
     0
 90
       50
176
     0
 40
0.0
176
     0
 40
1.0
176
     0
 90
        0
176
     0
 62
    18
420
        0
176
     0
 90
       50
176
     0
 90
        3
176
     0
 62
     5
420
      255
176
     0
290
     0
176
     0
 90
       50
176
     0
 90
       50
176
     0
 90
       50
176
     0
290
     0
176
     0
 90
       50
176
     0
 62
   256
176
     0
 40
1.0
176
     0
 90
        2
176
     0
  1
strokes_ogs.tif
176
     0
290
     0
176
     0
 40
1.0
176
     0
 40
1.0
176
     0
  0
VISUALSTYLE
  5
37
102
{ACAD_REACTORS
330
29
102
}
330
29
100
AcDbVisualStyle
  2
Linepattern
 70
    14
177
     3
291
     1
 70
    58
 90
        2
176
     1
 90
        2
176
     1
 90
        0
176
     1
 90
        0
176
     1
 40
0.6
176
     1
 40
30.0
176
     1
 62
     7
420
 16777215
176
     1
 90
        1
176
     1
 90
        4
176
     1
 62
     7
176
     1
 62
   257
176
     1
 90
        7
176
     1
 90
        7
176
     1
 40
1.0
176
     1
 90
        8
176
     1
 62
     7
176
     1
 40
1.0
176
     1
 90
        1
176
     1
 90
        6
176
     1
 90
        2
176
     1
 62
     7
176
     1
 90
        5
176
     1
 90
        0
176
     1
 90
        0
176
     1
290
     0
176
     1
 90
        1
176
     1
 40
0.0
176
     1
 90
        0
176
     1
290
     0
176
     1
290
     1
176
     1
290
     1
176
     1
290
     0
176
     1
290
     0
176
     1
290
     0
176
     1
290
     0
176
     1
290
     0
176
     1
290
     0
176
     1
 90
       50
176
     1
 40
0.0
176
     1
 40
1.0
176
     1
 90
        0
176
     1
 62
    18
420
        0
176
     1
 90
       50
176
     1
 90
        3
176
     1
 62
     5
420
      255
176
     1
290
     0
176
     1
 90
       50
176
     1
 90
       50
176
     1
 90
       50
176
     1
290
     0
176
     1
 90
       50
176
     1
 62
   256
176
     0
 40
1.0
176
     0
 90
        2
176
     1
  1
strokes_ogs.tif
176
     1
290
     0
176
     1
 40
1.0
176
     1
 40
1.0
176
     1
  0
VISUALSTYLE
  5
40
102
{ACAD_REACTORS
330
29
102
}
330
29
100
AcDbVisualStyle
  2
OverhangOff
 70
    21
177
     3
291
     1
 70
    58
 90
        2
176
     0
 90
        2
176
     0
 90
        0
176
     0
 90
        0
176
     0
 40
0.6
176
     0
 40
30.0
176
     0
 62
     7
420
 16777215
176
     0
 90
        1
176
     0
 90
        4
176
     0
 62
     7
176
     0
 62
   257
176
     0
 90
        1
176
     0
 90
        1
176
     0
 40
1.0
176
     0
 90
        9
176
     2
 62
     7
176
     0
 40
1.0
176
     0
 90
        1
176
     0
 90
        6
176
     0
 90
        2
176
     0
 62
     7
176
     0
 90
        5
176
     0
 90
        0
176
     0
 90
        0
176
     0
290
     0
176
     0
 90
        1
176
     0
 40
0.0
176
     0
 90
        0
176
     0
290
     0
176
     0
290
     1
176
     0
290
     1
176
     0
290
     0
176
     0
290
     0
176
     0
290
     0
176
     0
290
     0
176
     0
290
     0
176
     0
290
     0
176
     0
 90
       50
176
     0
 40
0.0
176
     0
 40
1.0
176
     0
 90
        0
176
     0
 62
    18
420
        0
176
     0
 90
       50
176
     0
 90
        3
176
     0
 62
     5
420
      255
176
     0
290
     0
176
     0
 90
       50
176
     0
 90
       50
176
     0
 90
       50
176
     0
290
     0
176
     0
 90
       50
176
     0
 62
   256
176
     0
 40
1.0
176
     0
 90
        2
176
     0
  1
strokes_ogs.tif
176
     0
290
     0
176
     0
 40
1.0
176
     0
 40
1.0
176
     0
  0
VISUALSTYLE
  5
33
102
{ACAD_REACTORS
330
29
102
}
330
29
100
AcDbVisualStyle
  2
Realistic
 70
     8
177
     3
291
     0
 70
    58
 90
        2
176
     1
 90
        3
176
     1
 90
        0
176
     1
 90
        2
176
     1
 40
0.6
176
     1
 40
30.0
176
     1
 62
     7
420
 16777215
176
     1
 90
        0
176
     1
 90
        0
176
     1
 62
     7
176
     1
 62
   257
176
     1
 90
        1
176
     1
 90
        1
176
     1
 40
1.0
176
     1
 90
        8
176
     1
 62
   257
176
     1
 40
1.0
176
     1
 90
        1
176
     1
 90
        6
176
     1
 90
        2
176
     1
 62
     7
176
     1
 90
        3
176
     1
 90
        0
176
     1
 90
        0
176
     1
290
     0
176
     1
 90
       13
176
     1
 40
0.0
176
     1
 90
        0
176
     1
290
     0
176
     1
290
     1
176
     1
290
     1
176
     1
290
     0
176
     1
290
     0
176
     1
290
     0
176
     1
290
     0
176
     1
290
     0
176
     1
290
     0
176
     1
 90
       50
176
     1
 40
0.0
176
     1
 40
1.0
176
     1
 90
        0
176
     1
 62
    18
420
        0
176
     1
 90
       50
176
     1
 90
        3
176
     1
 62
     5
420
      255
176
     1
290
     0
176
     1
 90
       50
176
     1
 90
       50
176
     1
 90
       50
176
     1
290
     0
176
     1
 90
       50
176
     1
 62
   256
176
     0
 40
1.0
176
     0
 90
        2
176
     1
  1
strokes_ogs.tif
176
     1
290
     0
176
     1
 40
1.0
176
     1
 40
1.0
176
     1
  0
VISUALSTYLE
  5
3E
102
{ACAD_REACTORS
330
29
102
}
330
29
100
AcDbVisualStyle
  2
Shaded
 70
    27
177
     3
291
     0
 70
    58
 90
        2
176
     1
 90
        2
176
     1
 90
        1
176
     1
 90
        2
176
     1
 40
0.6
176
     1
 40
30.0
176
     1
 62
     7
420
 16777215
176
     1
 90
        0
176
     1
 90
        4
176
     1
 62
     7
176
     1
 62
   257
176
     1
 90
        1
176
     1
 90
        1
176
     1
 40
1.0
176
     1
 90
        8
176
     1
 62
   257
176
     1
 40
1.0
176
     1
 90
        1
176
     1
 90
        6
176
     1
 90
        2
176
     1
 62
     8
420
  7895160
176
     1
 90
        3
176
     1
 90
        0
176
     1
 90
        0
176
     1
290
     0
176
     1
 90
        5
176
     1
 40
0.0
176
     1
 90
        0
176
     1
290
     0
176
     1
290
     1
176
     1
290
     1
176
     1
290
     0
176
     1
290
     0
176
     1
290
     0
176
     1
290
     0
176
     1
290
     0
176
     1
290
     0
176
     1
 90
       50
176
     1
 40
0.0
176
     1
 40
1.0
176
     1
 90
        0
176
     1
 62
    18
420
        0
176
     1
 90
       50
176
     1
 90
        3
176
     1
 62
     5
420
      255
176
     1
290
     0
176
     1
 90
       50
176
     1
 90
       50
176
     1
 90
       50
176
     1
290
     0
176
     1
 90
       50
176
     1
 62
   256
176
     0
 40
1.0
176
     0
 90
        2
176
     1
  1
strokes_ogs.tif
176
     1
290
     0
176
     1
 40
1.0
176
     1
 40
1.0
176
     1
  0
VISUALSTYLE
  5
3D
102
{ACAD_REACTORS
330
29
102
}
330
29
100
AcDbVisualStyle
  2
Shaded with edges
 70
    26
177
     3
291
     0
 70
    58
 90
        2
176
     1
 90
        2
176
     1
 90
        1
176
     1
 90
        2
176
     1
 40
0.6
176
     1
 40
30.0
176
     1
 62
     7
420
 16777215
176
     1
 90
        1
176
     1
 90
        2
176
     1
 62
     7
176
     1
 62
   257
176
     1
 90
        2
176
     1
 90
        1
176
     1
 40
1.0
176
     1
 90
        8
176
     1
 62
   257
176
     1
 40
1.0
176
     1
 90
        1
176
     1
 90
        6
176
     1
 90
        2
176
     1
 62
     7
176
     1
 90
        3
176
     1
 90
        0
176
     1
 90
        0
176
     1
290
     0
176
     1
 90
        5
176
     1
 40
0.0
176
     1
 90
        0
176
     1
290
     0
176
     1
290
     1
176
     1
290
     1
176
     1
290
     0
176
     1
290
     0
176
     1
290
     0
176
     1
290
     0
176
     1
290
     0
176
     1
290
     0
176
     1
 90
       50
176
     1
 40
0.0
176
     1
 40
1.0
176
     1
 90
        0
176
     1
 62
    18
420
        0
176
     1
 90
       50
176
     1
 90
        3
176
     1
 62
     5
420
      255
176
     1
290
     0
176
     1
 90
       50
176
     1
 90
       50
176
     1
 90
       50
176
     1
290
     0
176
     1
 90
       50
176
     1
 62
   256
176
     0
 40
1.0
176
     0
 90
        2
176
     1
  1
strokes_ogs.tif
176
     1
290
     0
176
     1
 40
1.0
176
     1
 40
1.0
176
     1
  0
VISUALSTYLE
  5
3A
102
{ACAD_REACTORS
330
29
102
}
330
29
100
AcDbVisualStyle
  2
Shades of Gray
 70
    23
177
     3
291
     0
 70
    58
 90
        2
176
     1
 90
        2
176
     1
 90
        3
176
     1
 90
        0
176
     1
 40
0.6
176
     1
 40
30.0
176
     1
 62
     7
420
 16777215
176
     1
 90
        2
176
     1
 90
        2
176
     1
 62
     7
176
     1
 62
     7
176
     1
 90
        1
176
     1
 90
        1
176
     1
 40
40.0
176
     1
 90
        8
176
     1
 62
     7
176
     1
 40
1.0
176
     1
 90
        1
176
     1
 90
        6
176
     1
 90
        2
176
     1
 62
     7
176
     1
 90
        3
176
     1
 90
        0
176
     1
 90
        0
176
     1
290
     0
176
     1
 90
        1
176
     1
 40
0.0
176
     1
 90
        0
176
     1
290
     0
176
     1
290
     1
176
     1
290
     1
176
     1
290
     0
176
     1
290
     0
176
     1
290
     0
176
     1
290
     0
176
     1
290
     0
176
     1
290
     0
176
     1
 90
       50
176
     1
 40
0.0
176
     1
 40
1.0
176
     1
 90
        0
176
     1
 62
    18
420
        0
176
     1
 90
       50
176
     1
 90
        3
176
     1
 62
     5
420
      255
176
     1
290
     0
176
     1
 90
       50
176
     1
 90
       50
176
     1
 90
       50
176
     1
290
     0
176
     1
 90
       50
176
     1
 62
   256
176
     0
 40
1.0
176
     0
 90
        2
176
     1
  1
strokes_ogs.tif
176
     1
290
     0
176
     1
 40
1.0
176
     1
 40
1.0
176
     1
  0
VISUALSTYLE
  5
3B
102
{ACAD_REACTORS
330
29
102
}
330
29
100
AcDbVisualStyle
  2
Sketchy
 70
    24
177
     3
291
     0
 70
    58
 90
        1
176
     1
 90
        2
176
     1
 90
        2
176
     1
 90
        0
176
     1
 40
0.6
176
     1
 40
30.0
176
     1
 62
     7
420
 16777215
176
     1
 90
        2
176
     1
 90
        2
176
     1
 62
     7
176
     1
 62
     7
176
     1
 90
        1
176
     1
 90
        1
176
     1
 40
40.0
176
     1
 90
       11
176
     1
 62
     7
176
     1
 40
1.0
176
     1
 90
        1
176
     1
 90
        6
176
     1
 90
        2
176
     1
 62
     7
176
     1
 90
        6
176
     1
 90
        0
176
     1
 90
        0
176
     1
290
     0
176
     1
 90
        1
176
     1
 40
0.0
176
     1
 90
        0
176
     1
290
     0
176
     1
290
     1
176
     1
290
     1
176
     1
290
     0
176
     1
290
     0
176
     1
290
     0
176
     1
290
     0
176
     1
290
     0
176
     1
290
     0
176
     1
 90
       50
176
     1
 40
0.0
176
     1
 40
1.0
176
     1
 90
        0
176
     1
 62
    18
420
        0
176
     1
 90
       50
176
     1
 90
        3
176
     1
 62
     5
420
      255
176
     1
290
     0
176
     1
 90
       50
176
     1
 90
       50
176
     1
 90
       50
176
     1
290
     0
176
     1
 90
       50
176
     1
 62
   256
176
     0
 40
1.0
176
     0
 90
        2
176
     1
  1
strokes_ogs.tif
176
     1
290
     0
176
     1
 40
1.0
176
     1
 40
1.0
176
     1
  0
VISUALSTYLE
  5
36
102
{ACAD_REACTORS
330
29
102
}
330
29
100
AcDbVisualStyle
  2
Thicken
 70
    13
177
     3
291
     1
 70
    58
 90
        2
176
     1
 90
        2
176
     1
 90
        0
176
     1
 90
        0
176
     1
 40
0.6
176
     1
 40
30.0
176
     1
 62
     7
420
 16777215
176
     1
 90
        1
176
     1
 90
        4
176
     1
 62
     7
176
     1
 62
   257
176
     1
 90
        1
176
     1
 90
        1
176
     1
 40
1.0
176
     1
 90
       12
176
     1
 62
     7
176
     1
 40
1.0
176
     1
 90
        1
176
     1
 90
        6
176
     1
 90
        2
176
     1
 62
     7
176
     1
 90
        5
176
     1
 90
        0
176
     1
 90
        0
176
     1
290
     0
176
     1
 90
        1
176
     1
 40
0.0
176
     1
 90
        0
176
     1
290
     0
176
     1
290
     1
176
     1
290
     1
176
     1
290
     0
176
     1
290
     0
176
     1
290
     0
176
     1
290
     0
176
     1
290
     0
176
     1
290
     0
176
     1
 90
       50
176
     1
 40
0.0
176
     1
 40
1.0
176
     1
 90
        0
176
     1
 62
    18
420
        0
176
     1
 90
       50
176
     1
 90
        3
176
     1
 62
     5
420
      255
176
     1
290
     0
176
     1
 90
       50
176
     1
 90
       50
176
     1
 90
       50
176
     1
290
     0
176
     1
 90
       50
176
     1
 62
   256
176
     0
 40
1.0
176
     0
 90
        2
176
     1
  1
strokes_ogs.tif
176
     1
290
     0
176
     1
 40
1.0
176
     1
 40
1.0
176
     1
  0
VISUALSTYLE
  5
30
102
{ACAD_REACTORS
330
29
102
}
330
29
100
AcDbVisualStyle
  2
Wireframe
 70
     5
177
     3
291
     0
 70
    58
 90
        0
176
     1
 90
        2
176
     1
 90
        0
176
     1
 90
        0
176
     1
 40
0.6
176
     1
 40
30.0
176
     1
 62
     7
420
 16777215
176
     1
 90
        1
176
     1
 90
        4
176
     1
 62
     7
176
     1
 62
   257
176
     1
 90
        1
176
     1
 90
        1
176
     1
 40
1.0
176
     1
 90
        0
176
     1
 62
   257
176
     1
 40
1.0
176
     1
 90
        1
176
     1
 90
        6
176
     1
 90
        2
176
     1
 62
     7
176
     1
 90
        3
176
     1
 90
        0
176
     1
 90
        0
176
     1
290
     0
176
     1
 90
        1
176
     1
 40
0.0
176
     1
 90
        0
176
     1
290
     0
176
     1
290
     1
176
     1
290
     1
176
     1
290
     0
176
     1
290
     0
176
     1
290
     0
176
     1
290
     0
176
     1
290
     0
176
     1
290
     0
176
     1
 90
       50
176
     1
 40
0.0
176
     1
 40
1.0
176
     1
 90
        0
176
     1
 62
    18
420
        0
176
     1
 90
       50
176
     1
 90
        3
176
     1
 62
     5
420
      255
176
     1
290
     0
176
     1
 90
       50
176
     1
 90
       50
176
     1
 90
       50
176
     1
290
     0
176
     1
 90
       50
176
     1
 62
   256
176
     0
 40
1.0
176
     0
 90
        2
176
     1
  1
strokes_ogs.tif
176
     1
290
     0
176
     1
 40
1.0
176
     1
 40
1.0
176
     1
  0
VISUALSTYLE
  5
3C
102
{ACAD_REACTORS
330
29
102
}
330
29
100
AcDbVisualStyle
  2
X-Ray
 70
    25
177
     3
291
     0
 70
    58
 90
        2
176
     1
 90
        2
176
     1
 90
        1
176
     1
 90
        1
176
     1
 40
0.5
176
     1
 40
30.0
176
     1
 62
     7
420
 16777215
176
     1
 90
        1
176
     1
 90
        0
176
     1
 62
     7
176
     1
 62
   257
176
     1
 90
        1
176
     1
 90
        1
176
     1
 40
1.0
176
     1
 90
        8
176
     1
 62
     7
176
     1
 40
1.0
176
     1
 90
        1
176
     1
 90
        6
176
     1
 90
        2
176
     1
 62
     7
176
     1
 90
        3
176
     1
 90
        0
176
     1
 90
        0
176
     1
290
     0
176
     1
 90
       13
176
     1
 40
0.0
176
     1
 90
        0
176
     1
290
     0
176
     1
290
     1
176
     1
290
     1
176
     1
290
     0
176
     1
290
     0
176
     1
290
     0
176
     1
290
     0
176
     1
290
     0
176
     1
290
     0
176
     1
 90
       50
176
     1
 40
0.0
176
     1
 40
1.0
176
     1
 90
        0
176
     1
 62
    18
420
        0
176
     1
 90
       50
176
     1
 90
        3
176
     1
 62
     5
420
      255
176
     1
290
     0
176
     1
 90
       50
176
     1
 90
       50
176
     1
 90
       50
176
     1
290
     0
176
     1
 90
       50
176
     1
 62
   256
176
     0
 40
1.0
176
     0
 90
        2
176
     1
  1
strokes_ogs.tif
176
     1
290
     0
176
     1
 40
1.0
176
     1
 40
1.0
176
     1
  0
DICTIONARYVAR
  5
94
102
{ACAD_REACTORS
330
8F
102
}
330
8F
100
DictionaryVariables
280
     0
  1
1:1
  0
DICTIONARYVAR
  5
91
102
{ACAD_REACTORS
330
8F
102
}
330
8F
100
DictionaryVariables
280
     0
  1
STANDARD
  0
DICTIONARYVAR
  5
90
102
{ACAD_REACTORS
330
8F
102
}
330
8F
100
DictionaryVariables
280
     0
  1
STANDARD
  0
DICTIONARYVAR
  5
92
102
{ACAD_REACTORS
330
8F
102
}
330
8F
100
DictionaryVariables
280
     0
  1
Imperial24
  0
DICTIONARYVAR
  5
93
102
{ACAD_REACTORS
330
8F
102
}
330
8F
100
DictionaryVariables
280
     0
  1
Imperial24
  0
DICTIONARY
  5
1A
330
19
100
AcDbDictionary
280
     1
281
     1
  3
BUMPTILE
360
1C
  3
DIFFUSETILE
360
1B
  3
OPACITYTILE
360
1F
  3
REFLECTIONTILE
360
1E
  3
REFRACTIONTILE
360
20
  3
SPECULARTILE
360
1D
  0
DICTIONARY
  5
12
330
11
100
AcDbDictionary
280
     1
281
     1
  3
BUMPTILE
360
14
  3
DIFFUSETILE
360
13
  3
OPACITYTILE
360
17
  3
REFLECTIONTILE
360
16
  3
REFRACTIONTILE
360
18
  3
SPECULARTILE
360
15
  0
DICTIONARY
  5
22
330
21
100
AcDbDictionary
280
     1
281
     1
  3
BUMPTILE
360
24
  3
DIFFUSETILE
360
23
  3
OPACITYTILE
360
27
  3
REFLECTIONTILE
360
26
  3
REFRACTIONTILE
360
28
  3
SPECULARTILE
360
25
  0
DICTIONARY
  5
95
330
65
100
AcDbDictionary
280
     1
281
     1
  3
ACAD_ROUNDTRIP_2008_TABLESTYLE_CELLSTYLEMAP
360
96
  0
XRECORD
  5
1C
102
{ACAD_REACTORS
330
1A
102
}
330
1A
100
AcDbXrecord
280
     1
270
     1
271
     1
  0
XRECORD
  5
1B
102
{ACAD_REACTORS
330
1A
102
}
330
1A
100
AcDbXrecord
280
     1
270
     1
271
     1
  0
XRECORD
  5
1F
102
{ACAD_REACTORS
330
1A
102
}
330
1A
100
AcDbXrecord
280
     1
270
     1
271
     1
  0
XRECORD
  5
1E
102
{ACAD_REACTORS
330
1A
102
}
330
1A
100
AcDbXrecord
280
     1
270
     1
271
     1
  0
XRECORD
  5
20
102
{ACAD_REACTORS
330
1A
102
}
330
1A
100
AcDbXrecord
280
     1
270
     1
271
     1
  0
XRECORD
  5
1D
102
{ACAD_REACTORS
330
1A
102
}
330
1A
100
AcDbXrecord
280
     1
270
     1
271
     1
  0
XRECORD
  5
14
102
{ACAD_REACTORS
330
12
102
}
330
12
100
AcDbXrecord
280
     1
270
     1
271
     1
  0
XRECORD
  5
13
102
{ACAD_REACTORS
330
12
102
}
330
12
100
AcDbXrecord
280
     1
270
     1
271
     1
  0
XRECORD
  5
17
102
{ACAD_REACTORS
330
12
102
}
330
12
100
AcDbXrecord
280
     1
270
     1
271
     1
  0
XRECORD
  5
16
102
{ACAD_REACTORS
330
12
102
}
330
12
100
AcDbXrecord
280
     1
270
     1
271
     1
  0
XRECORD
  5
18
102
{ACAD_REACTORS
330
12
102
}
330
12
100
AcDbXrecord
280
     1
270
     1
271
     1
  0
XRECORD
  5
15
102
{ACAD_REACTORS
330
12
102
}
330
12
100
AcDbXrecord
280
     1
270
     1
271
     1
  0
XRECORD
  5
24
102
{ACAD_REACTORS
330
22
102
}
330
22
100
AcDbXrecord
280
     1
270
     1
271
     1
  0
XRECORD
  5
23
102
{ACAD_REACTORS
330
22
102
}
330
22
100
AcDbXrecord
280
     1
270
     1
271
     1
  0
XRECORD
  5
27
102
{ACAD_REACTORS
330
22
102
}
330
22
100
AcDbXrecord
280
     1
270
     1
271
     1
  0
XRECORD
  5
26
102
{ACAD_REACTORS
330
22
102
}
330
22
100
AcDbXrecord
280
     1
270
     1
271
     1
  0
XRECORD
  5
28
102
{ACAD_REACTORS
330
22
102
}
330
22
100
AcDbXrecord
280
     1
270
     1
271
     1
  0
XRECORD
  5
25
102
{ACAD_REACTORS
330
22
102
}
330
22
100
AcDbXrecord
280
     1
270
     1
271
     1
  0
CELLSTYLEMAP
  5
96
102
{ACAD_REACTORS
330
95
102
}
330
95
100
AcDbCellStyleMap
 90
        3
300
CELLSTYLE
  1
TABLEFORMAT_BEGIN
 90
        5
170
     1
 91
        0
 92
    32768
 62
   257
 93
        1
300
CONTENTFORMAT
  1
CONTENTFORMAT_BEGIN
 90
        0
 91
        0
 92
      512
 93
        0
300

 40
0.0
140
1.0
 94
        5
 62
     0
340
55
144
0.25
309
CONTENTFORMAT_END
171
     0
 94
        0
309
TABLEFORMAT_END
  1
CELLSTYLE_BEGIN
 90
        1
 91
        1
300
_TITLE
309
CELLSTYLE_END
300
CELLSTYLE
  1
TABLEFORMAT_BEGIN
 90
        5
170
     1
 91
        0
 92
        0
 62
   257
 93
        1
300
CONTENTFORMAT
  1
CONTENTFORMAT_BEGIN
 90
        0
 91
        0
 92
      512
 93
        0
300

 40
0.0
140
1.0
 94
        5
 62
     0
340
55
144
0.18
309
CONTENTFORMAT_END
171
     0
 94
        0
309
TABLEFORMAT_END
  1
CELLSTYLE_BEGIN
 90
        2
 91
        1
300
_HEADER
309
CELLSTYLE_END
300
CELLSTYLE
  1
TABLEFORMAT_BEGIN
 90
        5
170
     1
 91
        0
 92
        0
 62
   257
 93
        1
300
CONTENTFORMAT
  1
CONTENTFORMAT_BEGIN
 90
        0
 91
        0
 92
      512
 93
        0
300

 40
0.0
140
1.0
 94
        2
 62
     0
340
55
144
0.18
309
CONTENTFORMAT_END
171
     0
 94
        0
309
TABLEFORMAT_END
  1
CELLSTYLE_BEGIN
 90
        3
 91
        2
300
_DATA
309
CELLSTYLE_END
  0
ENDSEC
  0
EOF
