<?xml version="1.0" encoding="UTF-8"?>
<svg id="Layer_1" data-name="Layer 1" xmlns="http://www.w3.org/2000/svg" viewBox="0 0 500 500">
  <defs>
    <style>
      .cls-1 {
        fill: #fff;
      }

      .cls-2 {
        fill: #831618;
      }
    </style>
  </defs>
  <g>
    <path d="M380.03,293.71c0-77.84,.02-155.7,0-233.54,0-10.31-3.95-18.92-11.49-25.92-7.18-6.67-15.82-9.34-25.47-9.32-20.07,.03-40.14,.03-60.21,.03-59.06,0-118.11-.02-177.16-.03-11.34,0-20.72,4.34-28.15,12.89-6.27,7.22-8.35,15.73-8.34,25.12,.08,59.52,.04,119.04,.04,178.55,0,49.66-.01,99.31,0,148.97,0,11.71-.06,23.43,.17,35.14,.17,8.21,3.52,15.25,9.04,21.3,8.08,8.86,18.27,11.9,30.02,11.88,72.97-.12,145.95-.03,218.92-.1,7.99-.01,16.05,.84,23.98-.63,17.04-3.17,28.65-17.63,28.66-35.57,.03-42.93-.01-85.85-.01-128.78Zm-2.43-51.84h-.05c0,59.4,0,118.79,0,178.2,0,5.01-.29,9.96-2.06,14.73-4.8,12.96-17.23,21.4-31.66,21.4-77.27,0-154.53-.02-231.79-.03-2.55,0-5.11,.06-7.66-.03-18.18-.65-31.86-14.28-32.59-32.44-.03-.93-.02-1.85-.02-2.78,0-119.38,.02-238.75-.03-358.13,0-9.73,2.62-18.27,9.62-25.26,6.96-6.93,15.36-10.01,25.14-10,56.96,.06,113.93,.03,170.89,.03,22.28,0,44.55-.09,66.82,.03,16.55,.09,29.64,10.91,32.75,26.74,.84,4.24,.62,8.55,.63,12.84,0,58.24,0,116.48,0,174.72Z"/>
    <path class="cls-1" d="M377.6,241.87h-.05c0,59.4,0,118.79,0,178.2,0,5.01-.29,9.96-2.06,14.73-4.8,12.96-17.23,21.4-31.66,21.4-77.27,0-154.53-.02-231.79-.03-2.55,0-5.11,.06-7.66-.03-18.18-.65-31.86-14.28-32.59-32.44-.03-.93-.02-1.85-.02-2.78,0-119.38,.02-238.75-.03-358.13,0-9.73,2.62-18.27,9.62-25.26,6.96-6.93,15.36-10.01,25.14-10,56.96,.06,113.93,.03,170.89,.03,22.28,0,44.55-.09,66.82,.03,16.55,.09,29.64,10.91,32.75,26.74,.84,4.24,.62,8.55,.63,12.84,0,58.24,0,116.48,0,174.72Z"/>
    <path class="cls-2" d="M104.44,100.83v-.21l4.45-4.91c11.72-13.51,19.16-23.45,19.16-35.73,0-9.52-5.05-19.35-17.03-19.35-6.42,0-11.89,2.87-15.74,6.76l2.4,6.35c2.57-2.56,6.76-5.63,11.81-5.63,8.3,0,11.04,6.25,11.04,13-.09,10.03-6.5,18.63-20.7,34.81l-5.9,6.86v5.53h35.51v-7.47h-24.98Z"/>
  </g>
  <g>
    <path class="cls-2" d="M171.55,329.43c.51-7.86,1.07-15.72,1.51-23.59,.18-3.26,1.42-5.11,4.91-5.71,21.33-3.65,42.12-9.68,63.12-14.77,4.9-1.19,9.91-2.08,15-1.94,9.45,.25,12.54,4.11,9.82,13.14-5.54,18.41-7.71,37.12-6.37,56.31,.32,4.5,1.67,6.06,6.36,6.49,17.97,1.64,34.9,6.63,49.62,17.62,8.29,6.19,11.86,14.65,9.28,23.17-2.84,9.35-10.38,13.26-19.25,14.28-8.9,1.02-17.48,2.64-25.83,6.06-6.46,2.65-13.3,2.9-20.19,.71-15.25-4.85-30.2-10.4-44.3-18.01-2.59-1.4-5.11-2.2-7.19,0-5.83,6.14-12.41,4.21-19.16,2.42-7.49-1.99-7.46-1.89-8.35,5.86-.35,3.08,.29,7.12-3.93,7.91-4.26,.79-6.03-2.93-7.4-5.96-2.49-5.51-4.71-11.19-6.52-16.96-1.17-3.75-3.22-5.16-6.98-5.11-6.9,.08-13.72-.76-20.37-2.61-4.13-1.15-8.05-2.72-10.71-6.39-1.55-2.13-2.01-4.48-1-6.87,1.11-2.63,3.64-2.22,5.8-2,7.23,.75,14.45,1.63,21.66,2.5,3.8,.46,5.07-.93,4.27-4.83-1.82-8.91-3.41-17.86-4.93-26.83-.45-2.68-1.55-6.02,1.92-7.47,3.08-1.29,5.49,1,7.38,3.03,4.29,4.6,5.78,10.56,7.17,16.47,.97,4.13,2.16,8.18,3.37,12.25,1.8,6.03,5.48,7.39,11.01,5.88,1.17-.32,2.37-.52,3.55-.8,11.57-2.74,13.68-6.08,11.55-17.88-.42-2.35-1.25-3.18-3.62-2.42-3.62,1.16-6.42,3.02-8.03,6.74-1.05,2.43-2.02,6.14-5.26,5.77-2.94-.34-3.86-3.87-4.86-6.48-3.02-7.91-3.06-16.21-2.89-24.51,.04-1.82,0-3.64,0-5.46-.05,0-.11-.01-.16-.02Zm76.28,78.96c3.02-.5,6.48-.54,8.93-2.87,7.49-7.14,16.74-9.25,26.6-9.95,2.2-.16,4.49-.43,6.53-1.2,4.04-1.52,6.68-4.39,7.19-8.91,.48-4.23-2.45-6.08-5.42-7.93-6.53-4.07-14-5.02-21.33-6.39-7.64-1.43-8.15-1.02-6.94,6.58,.69,4.37,1.19,8.7-2.82,11.63-4.76,3.48-10.12,5.85-16.01,6.84-2.39,.41-4.3,.22-5.53-2.34-.95-1.96-1.25-5.21-4.87-3.89-4.19,1.52-8.12,3.59-11.08,6.95-.83,.94,.47,2.23,1.53,2.88,7.12,4.38,14.61,7.76,23.25,8.59Zm-36.73-51.09c-.03,8.99,.24,9.23,8.05,7.28,2.33-.58,4.64-1.29,6.94-2,9.85-3.06,9.94-3.41,8.81-13.41-.41-3.67-1.95-4.33-5.15-3.39-3.65,1.08-7.32,2.29-11.07,2.79-5.88,.79-8.8,3.46-7.58,8.74Zm22.91-28.83c.27-7.79,.29-7.73-6.64-5.99-4.29,1.08-8.63,1.98-12.95,2.91-6.62,1.42-4.68,6.64-4.43,10.7,.3,4.8,4.02,2.72,6.47,2.31,3.76-.62,7.42-1.83,11.18-2.48,4.68-.8,7.57-2.76,6.38-7.46Zm.86-23.12c1.11-5.25-.59-6.7-5.37-5.02-3.42,1.2-6.98,2.36-10.55,2.65-5.72,.47-7.82,3.27-8.4,8.78-.44,4.19,.1,5.77,4.54,4.65,3.91-.99,7.87-2.23,11.86-2.43,6.08-.31,9.17-2.6,7.93-8.63Zm-23.1,75.77c.03,4.17,1.63,6.64,5.93,5.27,4.97-1.58,9.93-3.33,14.63-5.56,3.1-1.47,2.12-5.05,1.76-7.55-.36-2.47-2.97-1.4-4.56-.99-4.87,1.25-9.66,2.79-14.52,4.08-2.7,.71-3.45,2.47-3.23,4.76Zm-18.47,1.69c-3.73,1.2-8.08,2.71-12.5,3.98-2.9,.84-4.84,1.9-3.39,5.43,1.17,2.84,2.04,6.12,6.15,4.84,4.39-1.37,8.65-3.14,12.97-4.74,2.84-1.06,1.87-3.11,1.19-4.97-.7-1.91-.45-4.68-4.42-4.53Zm-8.25-68.44c.3,2.96-.63,6.38,4.29,6.26,7.17-.17,9.42-2.28,9.44-9.01,0-2.99-1.17-4.3-3.91-3.37-3.71,1.26-10.08-1.41-9.82,6.11Zm12.3,20.7c.04-2.84,.57-6.2-3.98-5.55-3.98,.57-9.16,.05-8.39,6.62,.33,2.81-1.46,6.93,4.03,7,6.64,.08,8.22-1.34,8.34-8.07Z"/>
    <path class="cls-2" d="M282.31,272.42c-25.07-1.49-48.57,5.29-71.98,12.63-21.11,6.62-42.44,10.1-64.49,4.81-5.43-1.3-10.27-3.52-14.94-6.4-4.08-2.51-3.05-4.09,.62-6.12,6.94-3.84,14.03-4.5,21.68-2.75,12.63,2.89,25.3,5.44,38.43,3.63,4.8-.66,7.82-2.91,9.04-7.58,.91-3.48,.77-6.39-3.42-7.7-4.66-1.46-4.84-4.06-1.91-7.67,4.45-5.51,8.4-11.37,11.7-17.67,.73-1.4,1.83-2.65,2.95-3.78,1.55-1.56,3.51-1.96,5.6-1.24,2.4,.83,2.52,2.89,2.56,4.97,.15,7.6-1.95,14.74-4.01,21.97-1.03,3.59-5.57,8.76,.07,11.07,4.97,2.04,6.51-4.27,8.65-7.58,3.63-5.61,5.94-11.92,8.43-18.12,2.39-5.96,1.69-11.19-3.76-15.05-3.92-2.77-3.22-5.47-.56-8.56,4.32-5.04,9.79-8.34,15.86-10.82,2.9-1.19,5.02,.02,7.05,1.95,6.98,6.62,8.52,19.16,3.52,29.32-2.04,4.16-4.41,8.2-6.12,12.49-2.3,5.75-1.15,7.06,4.88,5.78,15.88-3.36,31.88-5.38,48.16-4.78,3.88,.14,7.67,.58,11.31,1.9,3.25,1.18,4,3.27,1.7,6.03-4.78,5.74-9.86,10.64-18.41,9.37-4.15-.62-8.48-.11-12.6-.11Z"/>
    <path d="M144.99,189.72c-8.61,0-15.75-1.74-22.27-5.87-3.5-2.22-3.79-4.52-.29-6.87,5.08-3.4,10.58-7.1,16.74-6.14,20.9,3.26,40.02-3.41,59.21-9.73,20.34-6.7,40.28-14.63,61.08-19.94,22.82-5.82,43.66-.35,63.1,11.67,7.07,4.37,8.18,9.06,5.25,15.36-3.77,8.09-10.41,11.89-17.85,9.86-4.86-1.33-9.75-2.76-14.38-4.72-24.15-10.25-48.65-10.51-73.56-3.26-19.78,5.76-39.61,11.38-59.45,16.94-6.04,1.69-12.19,2.91-17.57,2.69Z"/>
    <path d="M171.11,132.35c-.81,0-1.62,.08-2.42-.01-3.59-.42-7.97-.28-8.59-4.95-.58-4.35,3.56-5.48,6.66-6.7,18.28-7.17,37.63-10.8,56.25-16.85,12.09-3.93,24.23-7.7,36.39-11.39,4.23-1.29,9.35-3.07,12.4,1.01,2.9,3.89-.71,7.95-2.56,11.69-2,4.06-5.11,6.35-9.58,7.53-24.01,6.33-48.01,12.67-72.35,17.66-5.32,1.09-10.77,1.52-16.17,2.26-.01-.08-.02-.17-.03-.25Z"/>
  </g>
</svg>