<?xml version="1.0" encoding="UTF-8"?>
<svg id="Layer_1" data-name="Layer 1" xmlns="http://www.w3.org/2000/svg" viewBox="0 0 500 500">
  <defs>
    <style>
      .cls-1, .cls-2, .cls-3, .cls-4, .cls-5 {
        stroke-width: 0px;
      }

      .cls-2 {
        fill: #0e1329;
      }

      .cls-3 {
        fill: #fff;
      }

      .cls-4 {
        fill: #831618;
      }

      .cls-5 {
        fill: #0f592d;
      }
    </style>
  </defs>
  <g>
    <path class="cls-1" d="m380.03,299.19c0-77.84.02-155.7,0-233.54,0-10.31-3.95-18.92-11.49-25.92-7.18-6.67-15.82-9.34-25.47-9.32-20.07.03-40.14.03-60.21.03-59.06,0-118.11-.02-177.16-.03-11.34,0-20.72,4.34-28.15,12.89-6.27,7.22-8.35,15.73-8.34,25.12.08,59.52.04,119.04.04,178.55,0,49.66-.01,99.31,0,148.97,0,11.71-.06,23.43.17,35.14.17,8.21,3.52,15.25,9.04,21.3,8.08,8.86,18.27,11.9,30.02,11.88,72.97-.12,145.95-.03,218.92-.1,7.99-.01,16.05.84,23.98-.63,17.04-3.17,28.65-17.63,28.66-35.57.03-42.93-.01-85.85-.01-128.78h0Zm-2.43-51.84h-.05v178.2c0,5.01-.29,9.96-2.06,14.73-4.8,12.96-17.23,21.4-31.66,21.4-77.27,0-154.53-.02-231.79-.03-2.55,0-5.11.06-7.66-.03-18.18-.65-31.86-14.28-32.59-32.44-.03-.93-.02-1.85-.02-2.78,0-119.38.02-238.75-.03-358.13,0-9.73,2.62-18.27,9.62-25.26,6.96-6.93,15.36-10.01,25.14-10,56.96.06,113.93.03,170.89.03,22.28,0,44.55-.09,66.82.03,16.55.09,29.64,10.91,32.75,26.74.84,4.24.62,8.55.63,12.84v174.72-.02Z"/>
    <path class="cls-3" d="m377.6,247.35h-.05v178.2c0,5.01-.29,9.96-2.06,14.73-4.8,12.96-17.23,21.4-31.66,21.4-77.27,0-154.53-.02-231.79-.03-2.55,0-5.11.06-7.66-.03-18.18-.65-31.86-14.28-32.59-32.44-.03-.93-.02-1.85-.02-2.78,0-119.38.02-238.75-.03-358.13,0-9.73,2.62-18.27,9.62-25.26,6.96-6.93,15.36-10.01,25.14-10,56.96.06,113.93.03,170.89.03,22.28,0,44.55-.09,66.82.03,16.55.09,29.64,10.91,32.75,26.74.84,4.24.62,8.55.63,12.84v174.72-.02Z"/>
  </g>
  <g>
    <path class="cls-5" d="m201.24,192.18c-.06-25.65-22.59-47.77-48.68-47.77s-48.72,22.32-48.73,47.78c-.02,26.23,22.7,49.05,48.77,48.99,26.54-.06,48.7-22.39,48.64-49Zm-49.74,41.18c-22.5-.44-39.67-18.52-39.27-41.37.41-23.07,17.57-39.59,40.92-39.38,23.23.21,39.97,17.26,39.71,40.45-.26,23.38-18.09,40.75-41.36,40.3h0Z"/>
    <path class="cls-5" d="m154.47,157.25c-19.71-1.09-36.87,14.3-37.66,33.77-.79,19.27,15.05,36.64,34.33,37.66,18.75,1,36.24-15.43,37.12-34.86.86-18.97-14.42-35.51-33.79-36.57Zm-2.06,4.63c5.04-.06,10.85.85,11.17,7.16.35,6.78-5.07,8.5-10.91,8.72-5.75-.17-11.25-1.69-11.16-8.46.08-6.43,5.89-7.36,10.91-7.42h0Zm-29.01,25.37c.69-5.48,1.37-12.13,8.51-12.59,4.97-.32,6.68,4.24,6.77,8.92-1.18,5.44-1.36,12-8.81,12.42-5.48.31-7.05-4.19-6.47-8.75Zm18.9,33.16c-6.94-1.14-13.1-4.23-13.83-12.17-.39-4.23,3.26-5.78,7.83-5.86,5.47,1.93,12.06,3.57,13.08,11.18.62,4.62-2.35,7.62-7.09,6.85h0Zm10.27-19.4c-5.76-.11-9.53-3.17-9.08-9.11.38-5.12,4-8.39,9.19-8.24,5.66.17,8.61,3.93,9.36,9.29-.89,5.58-4.25,8.16-9.47,8.06h0Zm24.08,7.43c-.87,7.95-7.31,10.41-13.34,12.1-4.92.13-7.35-1.93-7.71-6.12-.43-5.09,7.73-12.02,14.01-11.99,4.04.02,7.5,1.8,7.04,6.01h0Zm-.61-12.55c-7.56.03-8.58-6.32-9.37-11.95-.68-4.85,1.48-9.03,6.78-8.51,6.61.64,7.32,6.68,8.36,11.48-.03,4.61-.78,8.96-5.78,8.98h0Z"/>
    <path class="cls-5" d="m152.51,190.68c-1.52.22-2.55,1.12-2.27,2.63.14.79,1.08,1.81,1.86,2.02,1.5.42,2.64-.52,2.78-2.05s-.84-2.41-2.37-2.6Z"/>
    <path class="cls-2" d="m201.24,387.18c-.06-25.65-22.59-47.77-48.68-47.77s-48.72,22.32-48.73,47.78c-.02,26.23,22.7,49.05,48.77,48.99,26.54-.06,48.7-22.39,48.64-49Zm-49.74,41.18c-22.5-.44-39.67-18.52-39.27-41.37.41-23.07,17.57-39.59,40.92-39.38,23.23.21,39.97,17.26,39.71,40.45-.26,23.38-18.09,40.75-41.36,40.3h0Z"/>
    <path class="cls-2" d="m154.47,352.25c-19.71-1.09-36.87,14.3-37.66,33.77-.79,19.27,15.05,36.64,34.33,37.66,18.75,1,36.24-15.43,37.12-34.86.86-18.97-14.42-35.51-33.79-36.57Zm-2.06,4.63c5.04-.06,10.85.85,11.17,7.16.35,6.78-5.07,8.5-10.91,8.72-5.75-.17-11.25-1.69-11.16-8.46.08-6.43,5.89-7.36,10.91-7.42h0Zm-29.01,25.37c.69-5.48,1.37-12.13,8.51-12.59,4.97-.32,6.68,4.24,6.77,8.92-1.18,5.44-1.36,12-8.81,12.42-5.48.31-7.05-4.19-6.47-8.75h0Zm18.9,33.16c-6.94-1.14-13.1-4.23-13.83-12.17-.39-4.23,3.26-5.78,7.83-5.86,5.47,1.93,12.06,3.57,13.08,11.18.62,4.62-2.35,7.62-7.09,6.85h0Zm10.27-19.4c-5.76-.11-9.53-3.17-9.08-9.11.38-5.12,4-8.39,9.19-8.24,5.66.17,8.61,3.93,9.36,9.29-.89,5.58-4.25,8.16-9.47,8.06h0Zm24.08,7.43c-.87,7.95-7.31,10.41-13.34,12.1-4.92.13-7.35-1.93-7.71-6.12-.43-5.09,7.73-12.02,14.01-11.99,4.04.02,7.5,1.8,7.04,6.01h0Zm-.61-12.55c-7.56.03-8.58-6.32-9.37-11.95-.68-4.85,1.48-9.03,6.78-8.51,6.61.64,7.32,6.68,8.36,11.48-.03,4.61-.78,8.96-5.78,8.98h0Z"/>
    <path class="cls-2" d="m152.51,385.68c-1.52.22-2.55,1.12-2.27,2.63.14.79,1.08,1.81,1.86,2.02,1.5.42,2.64-.52,2.78-2.05s-.84-2.41-2.37-2.6Z"/>
  </g>
  <g>
    <path class="cls-2" d="m346.24,192.18c-.06-25.65-22.59-47.77-48.68-47.77s-48.72,22.32-48.73,47.78c-.02,26.23,22.7,49.05,48.77,48.99,26.54-.06,48.7-22.39,48.64-49Zm-49.74,41.18c-22.5-.44-39.67-18.52-39.27-41.37.41-23.07,17.57-39.59,40.92-39.38,23.23.21,39.97,17.26,39.71,40.45-.26,23.38-18.09,40.75-41.36,40.3Z"/>
    <path class="cls-2" d="m299.47,157.25c-19.71-1.09-36.87,14.3-37.66,33.77-.79,19.27,15.05,36.64,34.33,37.66,18.75,1,36.24-15.43,37.12-34.86.86-18.97-14.42-35.51-33.79-36.57Zm-2.06,4.63c5.04-.06,10.85.85,11.17,7.16.35,6.78-5.07,8.5-10.91,8.72-5.75-.17-11.25-1.69-11.16-8.46.08-6.43,5.89-7.36,10.91-7.42h-.01Zm-29.01,25.37c.69-5.48,1.37-12.13,8.51-12.59,4.97-.32,6.68,4.24,6.77,8.92-1.18,5.44-1.36,12-8.81,12.42-5.48.31-7.05-4.19-6.47-8.75Zm18.9,33.16c-6.94-1.14-13.1-4.23-13.83-12.17-.39-4.23,3.26-5.78,7.83-5.86,5.47,1.93,12.06,3.57,13.08,11.18.62,4.62-2.35,7.62-7.09,6.85h.01Zm10.27-19.4c-5.76-.11-9.53-3.17-9.08-9.11.38-5.12,4-8.39,9.19-8.24,5.66.17,8.61,3.93,9.36,9.29-.89,5.58-4.25,8.16-9.47,8.06h0Zm24.08,7.43c-.87,7.95-7.31,10.41-13.34,12.1-4.92.13-7.35-1.93-7.71-6.12-.43-5.09,7.73-12.02,14.01-11.99,4.04.02,7.5,1.8,7.04,6.01h0Zm-.61-12.55c-7.56.03-8.58-6.32-9.37-11.95-.68-4.85,1.48-9.03,6.78-8.51,6.61.64,7.32,6.68,8.36,11.48-.03,4.61-.78,8.96-5.78,8.98h.01Z"/>
    <path class="cls-2" d="m297.51,190.68c-1.52.22-2.55,1.12-2.27,2.63.14.79,1.08,1.81,1.86,2.02,1.5.42,2.64-.52,2.78-2.05.14-1.53-.84-2.41-2.37-2.6Z"/>
    <path class="cls-5" d="m346.24,387.18c-.06-25.65-22.59-47.77-48.68-47.77s-48.72,22.32-48.73,47.78c-.02,26.23,22.7,49.05,48.77,48.99,26.54-.06,48.7-22.39,48.64-49Zm-49.74,41.18c-22.5-.44-39.67-18.52-39.27-41.37.41-23.07,17.57-39.59,40.92-39.38,23.23.21,39.97,17.26,39.71,40.45-.26,23.38-18.09,40.75-41.36,40.3Z"/>
    <path class="cls-5" d="m299.47,352.25c-19.71-1.09-36.87,14.3-37.66,33.77-.79,19.27,15.05,36.64,34.33,37.66,18.75,1,36.24-15.43,37.12-34.86.86-18.97-14.42-35.51-33.79-36.57Zm-2.06,4.63c5.04-.06,10.85.85,11.17,7.16.35,6.78-5.07,8.5-10.91,8.72-5.75-.17-11.25-1.69-11.16-8.46.08-6.43,5.89-7.36,10.91-7.42h-.01Zm-29.01,25.37c.69-5.48,1.37-12.13,8.51-12.59,4.97-.32,6.68,4.24,6.77,8.92-1.18,5.44-1.36,12-8.81,12.42-5.48.31-7.05-4.19-6.47-8.75h0Zm18.9,33.16c-6.94-1.14-13.1-4.23-13.83-12.17-.39-4.23,3.26-5.78,7.83-5.86,5.47,1.93,12.06,3.57,13.08,11.18.62,4.62-2.35,7.62-7.09,6.85h.01Zm10.27-19.4c-5.76-.11-9.53-3.17-9.08-9.11.38-5.12,4-8.39,9.19-8.24,5.66.17,8.61,3.93,9.36,9.29-.89,5.58-4.25,8.16-9.47,8.06h0Zm24.08,7.43c-.87,7.95-7.31,10.41-13.34,12.1-4.92.13-7.35-1.93-7.71-6.12-.43-5.09,7.73-12.02,14.01-11.99,4.04.02,7.5,1.8,7.04,6.01h0Zm-.61-12.55c-7.56.03-8.58-6.32-9.37-11.95-.68-4.85,1.48-9.03,6.78-8.51,6.61.64,7.32,6.68,8.36,11.48-.03,4.61-.78,8.96-5.78,8.98h.01Z"/>
    <path class="cls-5" d="m297.51,385.68c-1.52.22-2.55,1.12-2.27,2.63.14.79,1.08,1.81,1.86,2.02,1.5.42,2.64-.52,2.78-2.05.14-1.53-.84-2.41-2.37-2.6Z"/>
  </g>
  <path class="cls-4" d="m126.34,90.59v-41.36h-8.13l-24.81,42.49v5.94h25.84v18.12h7.1v-18.12h7.79v-7.06h-7.79Zm-7.1-22.22v22.22h-18.22v-.2l13.6-22.63c1.54-3.07,2.91-5.94,4.62-9.83h.26c-.17,3.48-.26,6.96-.26,10.44Z"/>
</svg>