  0
SECTION
  2
HEADER
  9
$ACADVER
  1
AC1032
  9
$ACADMAINTVER
 90
      228
  9
$DWGCODEPAGE
  3
ANSI_1252
  9
$REQUIREDVERSIONS
160
                 0
  9
$INSBASE
 10
0.0
 20
0.0
 30
0.0
  9
$EXTMIN
 10
1.000000000000000E+20
 20
1.000000000000000E+20
 30
1.000000000000000E+20
  9
$EXTMAX
 10
-1.000000000000000E+20
 20
-1.000000000000000E+20
 30
-1.000000000000000E+20
  9
$LIMMIN
 10
0.0
 20
0.0
  9
$LIMMAX
 10
12.0
 20
9.0
  9
$ORTHOMODE
 70
     0
  9
$REGENMODE
 70
     1
  9
$FILLMODE
 70
     1
  9
$QTEXTMODE
 70
     0
  9
$MIRRTEXT
 70
     0
  9
$LTSCALE
 40
1.0
  9
$ATTMODE
 70
     1
  9
$TEXTSIZE
 40
0.2
  9
$TRACEWID
 40
0.05
  9
$TEXTSTYLE
  7
Standard
  9
$CLAYER
  8
0
  9
$CELTYPE
  6
ByLayer
  9
$CECOLOR
 62
   256
  9
$CELTSCALE
 40
1.0
  9
$DISPSILH
 70
     0
  9
$DIMSCALE
 40
1.0
  9
$DIMASZ
 40
0.18
  9
$DIMEXO
 40
0.0625
  9
$DIMDLI
 40
0.38
  9
$DIMRND
 40
0.0
  9
$DIMDLE
 40
0.0
  9
$DIMEXE
 40
0.18
  9
$DIMTP
 40
0.0
  9
$DIMTM
 40
0.0
  9
$DIMTXT
 40
0.18
  9
$DIMCEN
 40
0.09
  9
$DIMTSZ
 40
0.0
  9
$DIMTOL
 70
     0
  9
$DIMLIM
 70
     0
  9
$DIMTIH
 70
     1
  9
$DIMTOH
 70
     1
  9
$DIMSE1
 70
     0
  9
$DIMSE2
 70
     0
  9
$DIMTAD
 70
     0
  9
$DIMZIN
 70
     0
  9
$DIMBLK
  1

  9
$DIMASO
 70
     1
  9
$DIMSHO
 70
     1
  9
$DIMPOST
  1

  9
$DIMAPOST
  1

  9
$DIMALT
 70
     0
  9
$DIMALTD
 70
     2
  9
$DIMALTF
 40
25.4
  9
$DIMLFAC
 40
1.0
  9
$DIMTOFL
 70
     0
  9
$DIMTVP
 40
0.0
  9
$DIMTIX
 70
     0
  9
$DIMSOXD
 70
     0
  9
$DIMSAH
 70
     0
  9
$DIMBLK1
  1

  9
$DIMBLK2
  1

  9
$DIMSTYLE
  2
Standard
  9
$DIMCLRD
 70
     0
  9
$DIMCLRE
 70
     0
  9
$DIMCLRT
 70
     0
  9
$DIMTFAC
 40
1.0
  9
$DIMGAP
 40
0.09
  9
$DIMJUST
 70
     0
  9
$DIMSD1
 70
     0
  9
$DIMSD2
 70
     0
  9
$DIMTOLJ
 70
     1
  9
$DIMTZIN
 70
     0
  9
$DIMALTZ
 70
     0
  9
$DIMALTTZ
 70
     0
  9
$DIMUPT
 70
     0
  9
$DIMDEC
 70
     4
  9
$DIMTDEC
 70
     4
  9
$DIMALTU
 70
     2
  9
$DIMALTTD
 70
     2
  9
$DIMTXSTY
  7
Standard
  9
$DIMAUNIT
 70
     0
  9
$DIMADEC
 70
     0
  9
$DIMALTRND
 40
0.0
  9
$DIMAZIN
 70
     0
  9
$DIMDSEP
 70
    46
  9
$DIMATFIT
 70
     3
  9
$DIMFRAC
 70
     0
  9
$DIMLDRBLK
  1

  9
$DIMLUNIT
 70
     2
  9
$DIMLWD
 70
    -2
  9
$DIMLWE
 70
    -2
  9
$DIMTMOVE
 70
     0
  9
$DIMFXL
 40
1.0
  9
$DIMFXLON
 70
     0
  9
$DIMJOGANG
 40
0.7853981633974483
  9
$DIMTFILL
 70
     0
  9
$DIMTFILLCLR
 70
     0
  9
$DIMARCSYM
 70
     0
  9
$DIMLTYPE
  6

  9
$DIMLTEX1
  6

  9
$DIMLTEX2
  6

  9
$DIMTXTDIRECTION
 70
     0
  9
$LUNITS
 70
     2
  9
$LUPREC
 70
     4
  9
$SKETCHINC
 40
0.1
  9
$FILLETRAD
 40
0.0
  9
$AUNITS
 70
     0
  9
$AUPREC
 70
     0
  9
$MENU
  1
.
  9
$ELEVATION
 40
0.0
  9
$PELEVATION
 40
0.0
  9
$THICKNESS
 40
0.0
  9
$LIMCHECK
 70
     0
  9
$CHAMFERA
 40
0.0
  9
$CHAMFERB
 40
0.0
  9
$CHAMFERC
 40
0.0
  9
$CHAMFERD
 40
0.0
  9
$SKPOLY
 70
     0
  9
$TDCREATE
 40
2460929.579965278
  9
$TDUCREATE
 40
2460929.371631945
  9
$TDUPDATE
 40
2460929.579965278
  9
$TDUUPDATE
 40
2460929.371631945
  9
$TDINDWG
 40
0.0000000000
  9
$TDUSRTIMER
 40
0.0000000000
  9
$USRTIMER
 70
     1
  9
$ANGBASE
 50
0.0
  9
$ANGDIR
 70
     0
  9
$PDMODE
 70
     0
  9
$PDSIZE
 40
0.0
  9
$PLINEWID
 40
0.0
  9
$SPLFRAME
 70
     0
  9
$SPLINETYPE
 70
     6
  9
$SPLINESEGS
 70
     8
  9
$HANDSEED
  5
8D
  9
$SURFTAB1
 70
     6
  9
$SURFTAB2
 70
     6
  9
$SURFTYPE
 70
     6
  9
$SURFU
 70
     6
  9
$SURFV
 70
     6
  9
$UCSBASE
  2

  9
$UCSNAME
  2

  9
$UCSORG
 10
0.0
 20
0.0
 30
0.0
  9
$UCSXDIR
 10
1.0
 20
0.0
 30
0.0
  9
$UCSYDIR
 10
0.0
 20
1.0
 30
0.0
  9
$UCSORTHOREF
  2

  9
$UCSORTHOVIEW
 70
     0
  9
$UCSORGTOP
 10
0.0
 20
0.0
 30
0.0
  9
$UCSORGBOTTOM
 10
0.0
 20
0.0
 30
0.0
  9
$UCSORGLEFT
 10
0.0
 20
0.0
 30
0.0
  9
$UCSORGRIGHT
 10
0.0
 20
0.0
 30
0.0
  9
$UCSORGFRONT
 10
0.0
 20
0.0
 30
0.0
  9
$UCSORGBACK
 10
0.0
 20
0.0
 30
0.0
  9
$PUCSBASE
  2

  9
$PUCSNAME
  2

  9
$PUCSORG
 10
0.0
 20
0.0
 30
0.0
  9
$PUCSXDIR
 10
1.0
 20
0.0
 30
0.0
  9
$PUCSYDIR
 10
0.0
 20
1.0
 30
0.0
  9
$PUCSORTHOREF
  2

  9
$PUCSORTHOVIEW
 70
     0
  9
$PUCSORGTOP
 10
0.0
 20
0.0
 30
0.0
  9
$PUCSORGBOTTOM
 10
0.0
 20
0.0
 30
0.0
  9
$PUCSORGLEFT
 10
0.0
 20
0.0
 30
0.0
  9
$PUCSORGRIGHT
 10
0.0
 20
0.0
 30
0.0
  9
$PUCSORGFRONT
 10
0.0
 20
0.0
 30
0.0
  9
$PUCSORGBACK
 10
0.0
 20
0.0
 30
0.0
  9
$USERI1
 70
     0
  9
$USERI2
 70
     0
  9
$USERI3
 70
     0
  9
$USERI4
 70
     0
  9
$USERI5
 70
     0
  9
$USERR1
 40
0.0
  9
$USERR2
 40
0.0
  9
$USERR3
 40
0.0
  9
$USERR4
 40
0.0
  9
$USERR5
 40
0.0
  9
$WORLDVIEW
 70
     1
  9
$SHADEDGE
 70
     3
  9
$SHADEDIF
 70
    70
  9
$TILEMODE
 70
     1
  9
$MAXACTVP
 70
    64
  9
$PINSBASE
 10
0.0
 20
0.0
 30
0.0
  9
$PLIMCHECK
 70
     0
  9
$PEXTMIN
 10
1.000000000000000E+20
 20
1.000000000000000E+20
 30
1.000000000000000E+20
  9
$PEXTMAX
 10
-1.000000000000000E+20
 20
-1.000000000000000E+20
 30
-1.000000000000000E+20
  9
$PLIMMIN
 10
0.0
 20
0.0
  9
$PLIMMAX
 10
12.0
 20
9.0
  9
$UNITMODE
 70
     0
  9
$VISRETAIN
 70
     1
  9
$PLINEGEN
 70
     0
  9
$PSLTSCALE
 70
     1
  9
$TREEDEPTH
 70
  3020
  9
$CMLSTYLE
  2
Standard
  9
$CMLJUST
 70
     0
  9
$CMLSCALE
 40
1.0
  9
$PROXYGRAPHICS
 70
     1
  9
$MEASUREMENT
 70
     0
  9
$CELWEIGHT
370
    -1
  9
$ENDCAPS
280
     0
  9
$JOINSTYLE
280
     0
  9
$LWDISPLAY
290
     1
  9
$INSUNITS
 70
     0
  9
$HYPERLINKBASE
  1

  9
$STYLESHEET
  1

  9
$XEDIT
290
     1
  9
$CEPSNTYPE
380
     0
  9
$PSTYLEMODE
290
     1
  9
$FINGERPRINTGUID
  2
{E99B51E6-E159-7A46-A269-8775D36BE0A8}
  9
$VERSIONGUID
  2
{238DB753-04EB-3843-BBBF-467244CC059B}
  9
$EXTNAMES
290
     1
  9
$PSVPSCALE
 40
0.0
  9
$OLESTARTUP
290
     0
  9
$SORTENTS
280
   127
  9
$INDEXCTL
280
     0
  9
$HIDETEXT
280
     1
  9
$XCLIPFRAME
280
     2
  9
$HALOGAP
280
     0
  9
$OBSCOLOR
 70
   257
  9
$OBSLTYPE
280
     0
  9
$INTERSECTIONDISPLAY
280
     0
  9
$INTERSECTIONCOLOR
 70
   257
  9
$DIMASSOC
280
     2
  9
$PROJECTNAME
  1

  9
$CAMERADISPLAY
290
     0
  9
$LENSLENGTH
 40
50.0
  9
$CAMERAHEIGHT
 40
0.0
  9
$STEPSPERSEC
 40
2.0
  9
$STEPSIZE
 40
6.0
  9
$3DDWFPREC
 40
2.0
  9
$PSOLWIDTH
 40
0.25
  9
$PSOLHEIGHT
 40
4.0
  9
$LOFTANG1
 40
1.570796326794896
  9
$LOFTANG2
 40
1.570796326794896
  9
$LOFTMAG1
 40
0.0
  9
$LOFTMAG2
 40
0.0
  9
$LOFTPARAM
 70
     7
  9
$LOFTNORMALS
280
     1
  9
$LATITUDE
 40
37.795
  9
$LONGITUDE
 40
-122.394
  9
$NORTHDIRECTION
 40
0.0
  9
$TIMEZONE
 70
 -8000
  9
$LIGHTGLYPHDISPLAY
280
     1
  9
$TILEMODELIGHTSYNCH
280
     1
  9
$CMATERIAL
347
11
  9
$SOLIDHIST
280
     0
  9
$SHOWHIST
280
     1
  9
$DWFFRAME
280
     2
  9
$DGNFRAME
280
     0
  9
$REALWORLDSCALE
290
     1
  9
$INTERFERECOLOR
 62
     1
  9
$INTERFEREOBJVS
345
33
  9
$INTERFEREVPVS
346
30
  9
$CSHADOW
280
     0
  9
$SHADOWPLANELOCATION
 40
0.0
  0
ENDSEC
  0
SECTION
  2
CLASSES
  0
CLASS
  1
ACDBDICTIONARYWDFLT
  2
AcDbDictionaryWithDefault
  3
ObjectDBX Classes
 90
        0
 91
        1
280
     0
281
     0
  0
CLASS
  1
MATERIAL
  2
AcDbMaterial
  3
ObjectDBX Classes
 90
     1153
 91
        3
280
     0
281
     0
  0
CLASS
  1
VISUALSTYLE
  2
AcDbVisualStyle
  3
ObjectDBX Classes
 90
     4095
 91
       24
280
     0
281
     0
  0
CLASS
  1
SCALE
  2
AcDbScale
  3
ObjectDBX Classes
 90
     1153
 91
       17
280
     0
281
     0
  0
CLASS
  1
TABLESTYLE
  2
AcDbTableStyle
  3
ObjectDBX Classes
 90
     4095
 91
        1
280
     0
281
     0
  0
CLASS
  1
MLEADERSTYLE
  2
AcDbMLeaderStyle
  3
ACDB_MLEADERSTYLE_CLASS
 90
     4095
 91
        1
280
     0
281
     0
  0
CLASS
  1
ACDBSECTIONVIEWSTYLE
  2
AcDbSectionViewStyle
  3
ObjectDBX Classes
 90
     1025
 91
        1
280
     0
281
     0
  0
CLASS
  1
ACDBDETAILVIEWSTYLE
  2
AcDbDetailViewStyle
  3
ObjectDBX Classes
 90
     1025
 91
        1
280
     0
281
     0
  0
CLASS
  1
DICTIONARYVAR
  2
AcDbDictionaryVar
  3
ObjectDBX Classes
 90
        0
 91
        5
280
     0
281
     0
  0
CLASS
  1
CELLSTYLEMAP
  2
AcDbCellStyleMap
  3
ObjectDBX Classes
 90
     1152
 91
        1
280
     0
281
     0
  0
ENDSEC
  0
SECTION
  2
TABLES
  0
TABLE
  2
VPORT
  5
8
330
0
100
AcDbSymbolTable
 70
     1
  0
VPORT
  5
57
330
8
100
AcDbSymbolTableRecord
100
AcDbViewportTableRecord
  2
*Active
 70
     0
 10
0.0
 20
0.0
 11
1.0
 21
1.0
 12
0.0
 22
0.0
 13
0.0
 23
0.0
 14
1.0
 24
1.0
 15
0.0
 25
0.0
 16
0.0
 26
0.0
 36
1.0
 17
2070.329143804109
 27
-1549.708560332395
 37
0.0
 40
3099.36839297975
 41
1.304893925962813
 42
50.0
 43
0.0
 44
0.0
 50
0.0
 51
0.0
 71
     0
 72
   100
 73
     1
 74
     1
 75
     0
 76
     0
 77
     0
 78
     0
281
     0
 65
     1
110
0.0
120
0.0
130
0.0
111
1.0
121
0.0
131
0.0
112
0.0
122
1.0
132
0.0
 79
     0
146
0.0
 60
     3
 61
     5
292
     1
282
     1
141
0.0
142
0.0
 63
   250
421
  3355443
  0
ENDTAB
  0
TABLE
  2
LTYPE
  5
5
330
0
100
AcDbSymbolTable
 70
     1
  0
LTYPE
  5
5B
330
5
100
AcDbSymbolTableRecord
100
AcDbLinetypeTableRecord
  2
ByBlock
 70
     0
  3

 72
    65
 73
     0
 40
0.0
  0
LTYPE
  5
5C
330
5
100
AcDbSymbolTableRecord
100
AcDbLinetypeTableRecord
  2
ByLayer
 70
     0
  3

 72
    65
 73
     0
 40
0.0
  0
LTYPE
  5
5D
330
5
100
AcDbSymbolTableRecord
100
AcDbLinetypeTableRecord
  2
Continuous
 70
     0
  3
Solid line
 72
    65
 73
     0
 40
0.0
  0
ENDTAB
  0
TABLE
  2
LAYER
  5
2
330
0
100
AcDbSymbolTable
 70
     2
  0
LAYER
  5
54
330
2
100
AcDbSymbolTableRecord
100
AcDbLayerTableRecord
  2
0
 70
     0
 62
     7
  6
Continuous
370
    -3
390
F
347
21
348
0
  0
LAYER
  5
78
330
2
100
AcDbSymbolTableRecord
100
AcDbLayerTableRecord
  2
Layer 1
 70
     0
 62
     7
  6
Continuous
370
     0
390
F
347
21
348
0
  0
ENDTAB
  0
TABLE
  2
STYLE
  5
3
330
0
100
AcDbSymbolTable
 70
     2
  0
STYLE
  5
55
330
3
100
AcDbSymbolTableRecord
100
AcDbTextStyleTableRecord
  2
Standard
 70
     0
 40
0.0
 41
1.0
 50
0.0
 71
     0
 42
0.2
  3
txt
  4

  0
STYLE
  5
5A
330
3
100
AcDbSymbolTableRecord
100
AcDbTextStyleTableRecord
  2
Annotative
 70
     0
 40
0.0
 41
1.0
 50
0.0
 71
     0
 42
0.2
  3
txt
  4

1001
AcadAnnotative
1000
AnnotativeData
1002
{
1070
     1
1070
     1
1002
}
  0
ENDTAB
  0
TABLE
  2
VIEW
  5
6
330
0
100
AcDbSymbolTable
 70
     0
  0
ENDTAB
  0
TABLE
  2
UCS
  5
7
330
0
100
AcDbSymbolTable
 70
     0
  0
ENDTAB
  0
TABLE
  2
APPID
  5
9
330
0
100
AcDbSymbolTable
 70
     2
  0
APPID
  5
56
330
9
100
AcDbSymbolTableRecord
100
AcDbRegAppTableRecord
  2
ACAD
 70
     0
  0
APPID
  5
5E
330
9
100
AcDbSymbolTableRecord
100
AcDbRegAppTableRecord
  2
AcadAnnotative
 70
     0
  0
ENDTAB
  0
TABLE
  2
DIMSTYLE
  5
A
330
0
100
AcDbSymbolTable
 70
     2
100
AcDbDimStyleTable
 71
     0
  0
DIMSTYLE
105
58
330
A
100
AcDbSymbolTableRecord
100
AcDbDimStyleTableRecord
  2
Standard
 70
     0
340
55
  0
DIMSTYLE
105
59
330
A
100
AcDbSymbolTableRecord
100
AcDbDimStyleTableRecord
  2
Annotative
 70
     0
340
55
1001
AcadAnnotative
1000
AnnotativeData
1002
{
1070
     1
1070
     1
1002
}
  0
ENDTAB
  0
TABLE
  2
BLOCK_RECORD
  5
1
330
0
100
AcDbSymbolTable
 70
     1
  0
BLOCK_RECORD
  5
70
330
1
100
AcDbSymbolTableRecord
100
AcDbBlockTableRecord
  2
*Model_Space
340
73
 70
     0
280
     1
281
     0
  0
BLOCK_RECORD
  5
6C
330
1
100
AcDbSymbolTableRecord
100
AcDbBlockTableRecord
  2
*Paper_Space
340
6F
 70
     0
280
     1
281
     0
  0
BLOCK_RECORD
  5
74
330
1
100
AcDbSymbolTableRecord
100
AcDbBlockTableRecord
  2
*Paper_Space0
340
77
 70
     0
280
     1
281
     0
  0
ENDTAB
  0
ENDSEC
  0
SECTION
  2
BLOCKS
  0
BLOCK
  5
71
330
70
100
AcDbEntity
  8
0
100
AcDbBlockBegin
  2
*Model_Space
 70
     0
 10
0.0
 20
0.0
 30
0.0
  3
*Model_Space
  1

  0
ENDBLK
  5
72
330
70
100
AcDbEntity
  8
0
100
AcDbBlockEnd
  0
BLOCK
  5
6D
330
6C
100
AcDbEntity
 67
     1
  8
0
100
AcDbBlockBegin
  2
*Paper_Space
 70
     0
 10
0.0
 20
0.0
 30
0.0
  3
*Paper_Space
  1

  0
ENDBLK
  5
6E
330
6C
100
AcDbEntity
 67
     1
  8
0
100
AcDbBlockEnd
  0
BLOCK
  5
75
330
74
100
AcDbEntity
 67
     1
  8
0
100
AcDbBlockBegin
  2
*Paper_Space0
 70
     0
 10
0.0
 20
0.0
 30
0.0
  3
*Paper_Space0
  1

  0
ENDBLK
  5
76
330
74
100
AcDbEntity
 67
     1
  8
0
100
AcDbBlockEnd
  0
ENDSEC
  0
SECTION
  2
ENTITIES
  0
SPLINE
  5
79
330
70
100
AcDbEntity
  8
Layer 1
100
AcDbSpline
210
0.0
220
0.0
230
1.0
 70
     9
 71
     3
 72
    53
 73
    49
 74
     0
 42
0.0000000001
 43
0.0000000001
 40
0.0
 40
0.0
 40
0.0
 40
0.0
 40
1.0
 40
1.0
 40
1.0
 40
2.0
 40
2.0
 40
2.0
 40
3.0
 40
3.0
 40
3.0
 40
4.0
 40
4.0
 40
4.0
 40
5.0
 40
5.0
 40
5.0
 40
6.0
 40
6.0
 40
6.0
 40
7.0
 40
7.0
 40
7.0
 40
8.0
 40
8.0
 40
8.0
 40
9.0
 40
9.0
 40
9.0
 40
10.0
 40
10.0
 40
10.0
 40
11.0
 40
11.0
 40
11.0
 40
12.0
 40
12.0
 40
12.0
 40
13.0
 40
13.0
 40
13.0
 40
14.0
 40
14.0
 40
14.0
 40
15.0
 40
15.0
 40
15.0
 40
16.0
 40
16.0
 40
16.0
 40
16.0
 10
2492.023699881489
 20
-1799.93391542475
 30
0.0
 10
2492.023699881489
 20
-1799.93391542475
 30
0.0
 10
2491.975373505853
 20
-1799.93391542475
 30
0.0
 10
2491.975373505853
 20
-1799.93391542475
 30
0.0
 10
2491.975373505853
 20
-1858.882099499233
 30
0.0
 10
2491.968457689445
 20
-1917.830283573714
 30
0.0
 10
2491.982289322264
 20
-1976.78534129499
 30
0.0
 10
2491.982289322264
 20
-1981.759879603525
 30
0.0
 10
2491.692078050792
 20
-1986.672259903605
 30
0.0
 10
2489.937231806807
 20
-1991.40495548591
 30
0.0
 10
2485.169872803237
 20
-2004.262723277216
 30
0.0
 10
2472.837285362837
 20
-2012.64342767565
 30
0.0
 10
2458.514713920575
 20
-2012.64342767565
 30
0.0
 10
2381.830960836744
 20
-2012.636511859242
 30
0.0
 10
2305.147207752916
 20
-2012.622722396036
 30
0.0
 10
2228.470370485497
 20
-2012.60889076322
 30
0.0
 10
2225.93471170118
 20
-2012.60889076322
 30
0.0
 10
2223.399137256087
 20
-2012.671048771672
 30
0.0
 10
2220.870394288175
 20
-2012.581269667198
 30
0.0
 10
2202.823908727742
 20
-2011.938689115805
 30
0.0
 10
2189.247570743775
 20
-1998.410761846693
 30
0.0
 10
2188.529084890337
 20
-1980.384981565874
 30
0.0
 10
2188.494505808298
 20
-1979.466063545433
 30
0.0
 10
2188.508337441113
 20
-1978.547187694605
 30
0.0
 10
2188.508337441113
 20
-1977.621353857756
 30
0.0
 10
2188.508337441113
 20
-1859.144647505074
 30
0.0
 10
2188.529084890337
 20
-1740.667898982774
 30
0.0
 10
2188.473758359071
 20
-1622.191192630089
 30
0.0
 10
2188.473758359071
 20
-1612.532327284498
 30
0.0
 10
2191.071575151838
 20
-1604.054885795576
 30
0.0
 10
2198.022139320581
 20
-1597.118153259649
 30
0.0
 10
2204.931208590873
 20
-1590.236747254992
 30
0.0
 10
2213.270418090857
 20
-1587.182992614627
 30
0.0
 10
2222.970693995673
 20
-1587.189908431035
 30
0.0
 10
2279.500745995165
 20
-1587.245066283853
 30
0.0
 10
2336.037713811062
 20
-1587.217487357444
 30
0.0
 10
2392.567597132105
 20
-1587.217487357444
 30
0.0
 10
2414.676618797041
 20
-1587.217487357444
 30
0.0
 10
2436.785640461973
 20
-1587.127666083361
 30
0.0
 10
2458.887830649723
 20
-1587.251982100261
 30
0.0
 10
2475.310617460257
 20
-1587.341887713566
 30
0.0
 10
2488.306617240504
 20
-1598.078608348154
 30
0.0
 10
2491.394950962908
 20
-1613.789825121657
 30
0.0
 10
2492.224089878879
 20
-1617.997340353056
 30
0.0
 10
2492.009952587896
 20
-1622.274098087764
 30
0.0
 10
2492.016784065081
 20
-1626.530108373248
 30
0.0
 10
2492.023699881489
 20
-1684.331321164267
 30
0.0
 10
2492.023699881489
 20
-1742.132702633731
 30
0.0
 10
2492.023699881489
 20
-1799.93391542475
 30
0.0
  0
SPLINE
  5
7A
330
70
100
AcDbEntity
  8
Layer 1
100
AcDbSpline
210
0.0
220
0.0
230
1.0
 70
     9
 71
     3
 72
    53
 73
    49
 74
     0
 42
0.0000000001
 43
0.0000000001
 40
0.0
 40
0.0
 40
0.0
 40
0.0
 40
1.0
 40
1.0
 40
1.0
 40
2.0
 40
2.0
 40
2.0
 40
3.0
 40
3.0
 40
3.0
 40
4.0
 40
4.0
 40
4.0
 40
5.0
 40
5.0
 40
5.0
 40
6.0
 40
6.0
 40
6.0
 40
7.0
 40
7.0
 40
7.0
 40
8.0
 40
8.0
 40
8.0
 40
9.0
 40
9.0
 40
9.0
 40
10.0
 40
10.0
 40
10.0
 40
11.0
 40
11.0
 40
11.0
 40
12.0
 40
12.0
 40
12.0
 40
13.0
 40
13.0
 40
13.0
 40
14.0
 40
14.0
 40
14.0
 40
15.0
 40
15.0
 40
15.0
 40
16.0
 40
16.0
 40
16.0
 40
16.0
 10
2494.434958309683
 20
-1851.385734039198
 30
0.0
 10
2494.434958309683
 20
-1774.128558568056
 30
0.0
 10
2494.455705758907
 20
-1696.864467280506
 30
0.0
 10
2494.441874126091
 20
-1619.60720747014
 30
0.0
 10
2494.441874126091
 20
-1609.374835398012
 30
0.0
 10
2490.517485671308
 20
-1600.828404423453
 30
0.0
 10
2483.034994013701
 20
-1593.884756071118
 30
0.0
 10
2475.904871636018
 20
-1587.265813733076
 30
0.0
 10
2467.330693056605
 20
-1584.612754748268
 30
0.0
 10
2457.754733168686
 20
-1584.633502197492
 30
0.0
 10
2437.835832485331
 20
-1584.667996940308
 30
0.0
 10
2417.917016141202
 20
-1584.667996940308
 30
0.0
 10
2397.998199797074
 20
-1584.667996940308
 30
0.0
 10
2339.388511200084
 20
-1584.661081123901
 30
0.0
 10
2280.778906942321
 20
-1584.647333830307
 30
0.0
 10
2222.169302684559
 20
-1584.6404180139
 30
0.0
 10
2210.914401854703
 20
-1584.6404180139
 30
0.0
 10
2201.607905789033
 20
-1588.944754675016
 30
0.0
 10
2194.235898515513
 20
-1597.435943457531
 30
0.0
 10
2188.010904695066
 20
-1604.600729256479
 30
0.0
 10
2185.945015391162
 20
-1613.050507479769
 30
0.0
 10
2185.958847023978
 20
-1622.370835178255
 30
0.0
 10
2186.041752481653
 20
-1681.443377439249
 30
0.0
 10
2186.000257583202
 20
-1740.509003883835
 30
0.0
 10
2186.000257583202
 20
-1799.574630328418
 30
0.0
 10
2186.000257583202
 20
-1848.8570332409
 30
0.0
 10
2185.986425950387
 20
-1898.139436153384
 30
0.0
 10
2186.00717339961
 20
-1947.421796896253
 30
0.0
 10
2186.00717339961
 20
-1959.042856469235
 30
0.0
 10
2185.945015391162
 20
-1970.67083185863
 30
0.0
 10
2186.179900131369
 20
-1982.291891431612
 30
0.0
 10
2186.345711046719
 20
-1990.444584736635
 30
0.0
 10
2189.675929664963
 20
-1997.429643648191
 30
0.0
 10
2195.14785854993
 20
-2003.433626530861
 30
0.0
 10
2203.16244637485
 20
-2012.221984570869
 30
0.0
 10
2213.284165384446
 20
-2015.248160284826
 30
0.0
 10
2224.939846209085
 20
-2015.227412835602
 30
0.0
 10
2297.360673191024
 20
-2015.109970465497
 30
0.0
 10
2369.788415989368
 20
-2015.19979173958
 30
0.0
 10
2442.209327310529
 20
-2015.130675745111
 30
0.0
 10
2450.140925338548
 20
-2015.116886281905
 30
0.0
 10
2458.14168153065
 20
-2015.959772491466
 30
0.0
 10
2466.004121394586
 20
-2014.501968996142
 30
0.0
 10
2482.917509473986
 20
-2011.351435095674
 30
0.0
 10
2494.434958309683
 20
-1997.00820054341
 30
0.0
 10
2494.448789942499
 20
-1979.196641892797
 30
0.0
 10
2494.483284685315
 20
-1936.595297157195
 30
0.0
 10
2494.434958309683
 20
-1893.993994591206
 30
0.0
 10
2494.434958309683
 20
-1851.385734039198
 30
0.0
  0
HATCH
  5
7B
330
70
100
AcDbEntity
  8
Layer 1
 62
    18
420
        0
440
 33554687
100
AcDbHatch
 10
0.0
 20
0.0
 30
0.0
210
0.0
220
0.0
230
1.0
  2
SOLID
 70
     1
 71
     1
 91
        2
 92
        1
 93
        1
 72
     4
 94
        3
 73
     0
 74
     0
 95
       53
 96
       49
 40
0.0
 40
0.0
 40
0.0
 40
0.0
 40
1.0
 40
1.0
 40
1.0
 40
2.0
 40
2.0
 40
2.0
 40
3.0
 40
3.0
 40
3.0
 40
4.0
 40
4.0
 40
4.0
 40
5.0
 40
5.0
 40
5.0
 40
6.0
 40
6.0
 40
6.0
 40
7.0
 40
7.0
 40
7.0
 40
8.0
 40
8.0
 40
8.0
 40
9.0
 40
9.0
 40
9.0
 40
10.0
 40
10.0
 40
10.0
 40
11.0
 40
11.0
 40
11.0
 40
12.0
 40
12.0
 40
12.0
 40
13.0
 40
13.0
 40
13.0
 40
14.0
 40
14.0
 40
14.0
 40
15.0
 40
15.0
 40
15.0
 40
16.0
 40
16.0
 40
16.0
 40
16.0
 10
2492.023699881489
 20
-1799.93391542475
 10
2492.023699881489
 20
-1799.93391542475
 10
2491.975373505853
 20
-1799.93391542475
 10
2491.975373505853
 20
-1799.93391542475
 10
2491.975373505853
 20
-1858.882099499233
 10
2491.968457689445
 20
-1917.830283573714
 10
2491.982289322264
 20
-1976.78534129499
 10
2491.982289322264
 20
-1981.759879603525
 10
2491.692078050792
 20
-1986.672259903605
 10
2489.937231806807
 20
-1991.40495548591
 10
2485.169872803237
 20
-2004.262723277216
 10
2472.837285362837
 20
-2012.64342767565
 10
2458.514713920575
 20
-2012.64342767565
 10
2381.830960836744
 20
-2012.636511859242
 10
2305.147207752916
 20
-2012.622722396036
 10
2228.470370485497
 20
-2012.60889076322
 10
2225.93471170118
 20
-2012.60889076322
 10
2223.399137256087
 20
-2012.671048771672
 10
2220.870394288175
 20
-2012.581269667198
 10
2202.823908727742
 20
-2011.938689115805
 10
2189.247570743775
 20
-1998.410761846693
 10
2188.529084890337
 20
-1980.384981565874
 10
2188.494505808298
 20
-1979.466063545433
 10
2188.508337441113
 20
-1978.547187694605
 10
2188.508337441113
 20
-1977.621353857756
 10
2188.508337441113
 20
-1859.144647505074
 10
2188.529084890337
 20
-1740.667898982774
 10
2188.473758359071
 20
-1622.191192630089
 10
2188.473758359071
 20
-1612.532327284498
 10
2191.071575151838
 20
-1604.054885795576
 10
2198.022139320581
 20
-1597.118153259649
 10
2204.931208590873
 20
-1590.236747254992
 10
2213.270418090857
 20
-1587.182992614627
 10
2222.970693995673
 20
-1587.189908431035
 10
2279.500745995165
 20
-1587.245066283853
 10
2336.037713811062
 20
-1587.217487357444
 10
2392.567597132105
 20
-1587.217487357444
 10
2414.676618797041
 20
-1587.217487357444
 10
2436.785640461973
 20
-1587.127666083361
 10
2458.887830649723
 20
-1587.251982100261
 10
2475.310617460257
 20
-1587.341887713566
 10
2488.306617240504
 20
-1598.078608348154
 10
2491.394950962908
 20
-1613.789825121657
 10
2492.224089878879
 20
-1617.997340353056
 10
2492.009952587896
 20
-1622.274098087764
 10
2492.016784065081
 20
-1626.530108373248
 10
2492.023699881489
 20
-1684.331321164267
 10
2492.023699881489
 20
-1742.132702633731
 10
2492.023699881489
 20
-1799.93391542475
 97
        0
 97
        1
330
79
 92
        1
 93
        1
 72
     4
 94
        3
 73
     0
 74
     0
 95
       53
 96
       49
 40
0.0
 40
0.0
 40
0.0
 40
0.0
 40
1.0
 40
1.0
 40
1.0
 40
2.0
 40
2.0
 40
2.0
 40
3.0
 40
3.0
 40
3.0
 40
4.0
 40
4.0
 40
4.0
 40
5.0
 40
5.0
 40
5.0
 40
6.0
 40
6.0
 40
6.0
 40
7.0
 40
7.0
 40
7.0
 40
8.0
 40
8.0
 40
8.0
 40
9.0
 40
9.0
 40
9.0
 40
10.0
 40
10.0
 40
10.0
 40
11.0
 40
11.0
 40
11.0
 40
12.0
 40
12.0
 40
12.0
 40
13.0
 40
13.0
 40
13.0
 40
14.0
 40
14.0
 40
14.0
 40
15.0
 40
15.0
 40
15.0
 40
16.0
 40
16.0
 40
16.0
 40
16.0
 10
2494.434958309683
 20
-1851.385734039198
 10
2494.434958309683
 20
-1774.128558568056
 10
2494.455705758907
 20
-1696.864467280506
 10
2494.441874126091
 20
-1619.60720747014
 10
2494.441874126091
 20
-1609.374835398012
 10
2490.517485671308
 20
-1600.828404423453
 10
2483.034994013701
 20
-1593.884756071118
 10
2475.904871636018
 20
-1587.265813733076
 10
2467.330693056605
 20
-1584.612754748268
 10
2457.754733168686
 20
-1584.633502197492
 10
2437.835832485331
 20
-1584.667996940308
 10
2417.917016141202
 20
-1584.667996940308
 10
2397.998199797074
 20
-1584.667996940308
 10
2339.388511200084
 20
-1584.661081123901
 10
2280.778906942321
 20
-1584.647333830307
 10
2222.169302684559
 20
-1584.6404180139
 10
2210.914401854703
 20
-1584.6404180139
 10
2201.607905789033
 20
-1588.944754675016
 10
2194.235898515513
 20
-1597.435943457531
 10
2188.010904695066
 20
-1604.600729256479
 10
2185.945015391162
 20
-1613.050507479769
 10
2185.958847023978
 20
-1622.370835178255
 10
2186.041752481653
 20
-1681.443377439249
 10
2186.000257583202
 20
-1740.509003883835
 10
2186.000257583202
 20
-1799.574630328418
 10
2186.000257583202
 20
-1848.8570332409
 10
2185.986425950387
 20
-1898.139436153384
 10
2186.00717339961
 20
-1947.421796896253
 10
2186.00717339961
 20
-1959.042856469235
 10
2185.945015391162
 20
-1970.67083185863
 10
2186.179900131369
 20
-1982.291891431612
 10
2186.345711046719
 20
-1990.444584736635
 10
2189.675929664963
 20
-1997.429643648191
 10
2195.14785854993
 20
-2003.433626530861
 10
2203.16244637485
 20
-2012.221984570869
 10
2213.284165384446
 20
-2015.248160284826
 10
2224.939846209085
 20
-2015.227412835602
 10
2297.360673191024
 20
-2015.109970465497
 10
2369.788415989368
 20
-2015.19979173958
 10
2442.209327310529
 20
-2015.130675745111
 10
2450.140925338548
 20
-2015.116886281905
 10
2458.14168153065
 20
-2015.959772491466
 10
2466.004121394586
 20
-2014.501968996142
 10
2482.917509473986
 20
-2011.351435095674
 10
2494.434958309683
 20
-1997.00820054341
 10
2494.448789942499
 20
-1979.196641892797
 10
2494.483284685315
 20
-1936.595297157195
 10
2494.434958309683
 20
-1893.993994591206
 10
2494.434958309683
 20
-1851.385734039198
 97
        0
 97
        1
330
7A
 75
     2
 76
     1
 98
        1
 10
0.0
 20
0.0
450
        0
451
        0
460
0.0
461
0.0
452
        0
462
0.0
453
        0
470

  0
SPLINE
  5
7C
330
70
100
AcDbEntity
  8
Layer 1
100
AcDbSpline
210
0.0
220
0.0
230
1.0
 70
     9
 71
     3
 72
    53
 73
    49
 74
     0
 42
0.0000000001
 43
0.0000000001
 40
0.0
 40
0.0
 40
0.0
 40
0.0
 40
1.0
 40
1.0
 40
1.0
 40
2.0
 40
2.0
 40
2.0
 40
3.0
 40
3.0
 40
3.0
 40
4.0
 40
4.0
 40
4.0
 40
5.0
 40
5.0
 40
5.0
 40
6.0
 40
6.0
 40
6.0
 40
7.0
 40
7.0
 40
7.0
 40
8.0
 40
8.0
 40
8.0
 40
9.0
 40
9.0
 40
9.0
 40
10.0
 40
10.0
 40
10.0
 40
11.0
 40
11.0
 40
11.0
 40
12.0
 40
12.0
 40
12.0
 40
13.0
 40
13.0
 40
13.0
 40
14.0
 40
14.0
 40
14.0
 40
15.0
 40
15.0
 40
15.0
 40
16.0
 40
16.0
 40
16.0
 40
16.0
 10
2492.023699881489
 20
-1799.93391542475
 30
0.0
 10
2492.023699881489
 20
-1799.93391542475
 30
0.0
 10
2491.975373505853
 20
-1799.93391542475
 30
0.0
 10
2491.975373505853
 20
-1799.93391542475
 30
0.0
 10
2491.975373505853
 20
-1858.882099499233
 30
0.0
 10
2491.968457689445
 20
-1917.830283573714
 30
0.0
 10
2491.982289322264
 20
-1976.78534129499
 30
0.0
 10
2491.982289322264
 20
-1981.759879603525
 30
0.0
 10
2491.692078050792
 20
-1986.672259903605
 30
0.0
 10
2489.937231806807
 20
-1991.40495548591
 30
0.0
 10
2485.169872803237
 20
-2004.262723277216
 30
0.0
 10
2472.837285362837
 20
-2012.64342767565
 30
0.0
 10
2458.514713920575
 20
-2012.64342767565
 30
0.0
 10
2381.830960836744
 20
-2012.636511859242
 30
0.0
 10
2305.147207752916
 20
-2012.622722396036
 30
0.0
 10
2228.470370485497
 20
-2012.60889076322
 30
0.0
 10
2225.93471170118
 20
-2012.60889076322
 30
0.0
 10
2223.399137256087
 20
-2012.671048771672
 30
0.0
 10
2220.870394288175
 20
-2012.581269667198
 30
0.0
 10
2202.823908727742
 20
-2011.938689115805
 30
0.0
 10
2189.247570743775
 20
-1998.410761846693
 30
0.0
 10
2188.529084890337
 20
-1980.384981565874
 30
0.0
 10
2188.494505808298
 20
-1979.466063545433
 30
0.0
 10
2188.508337441113
 20
-1978.547187694605
 30
0.0
 10
2188.508337441113
 20
-1977.621353857756
 30
0.0
 10
2188.508337441113
 20
-1859.144647505074
 30
0.0
 10
2188.529084890337
 20
-1740.667898982774
 30
0.0
 10
2188.473758359071
 20
-1622.191192630089
 30
0.0
 10
2188.473758359071
 20
-1612.532327284498
 30
0.0
 10
2191.071575151838
 20
-1604.054885795576
 30
0.0
 10
2198.022139320581
 20
-1597.118153259649
 30
0.0
 10
2204.931208590873
 20
-1590.236747254992
 30
0.0
 10
2213.270418090857
 20
-1587.182992614627
 30
0.0
 10
2222.970693995673
 20
-1587.189908431035
 30
0.0
 10
2279.500745995165
 20
-1587.245066283853
 30
0.0
 10
2336.037713811062
 20
-1587.217487357444
 30
0.0
 10
2392.567597132105
 20
-1587.217487357444
 30
0.0
 10
2414.676618797041
 20
-1587.217487357444
 30
0.0
 10
2436.785640461973
 20
-1587.127666083361
 30
0.0
 10
2458.887830649723
 20
-1587.251982100261
 30
0.0
 10
2475.310617460257
 20
-1587.341887713566
 30
0.0
 10
2488.306617240504
 20
-1598.078608348154
 30
0.0
 10
2491.394950962908
 20
-1613.789825121657
 30
0.0
 10
2492.224089878879
 20
-1617.997340353056
 30
0.0
 10
2492.009952587896
 20
-1622.274098087764
 30
0.0
 10
2492.016784065081
 20
-1626.530108373248
 30
0.0
 10
2492.023699881489
 20
-1684.331321164267
 30
0.0
 10
2492.023699881489
 20
-1742.132702633731
 30
0.0
 10
2492.023699881489
 20
-1799.93391542475
 30
0.0
  0
SPLINE
  5
7D
330
70
100
AcDbEntity
  8
Layer 1
100
AcDbSpline
210
0.0
220
0.0
230
1.0
 70
     9
 71
     3
 72
    47
 73
    43
 74
     0
 42
0.0000000001
 43
0.0000000001
 40
0.0
 40
0.0
 40
0.0
 40
0.0
 40
1.0
 40
1.0
 40
1.0
 40
2.0
 40
2.0
 40
2.0
 40
3.0
 40
3.0
 40
3.0
 40
4.0
 40
4.0
 40
4.0
 40
5.0
 40
5.0
 40
5.0
 40
6.0
 40
6.0
 40
6.0
 40
7.0
 40
7.0
 40
7.0
 40
8.0
 40
8.0
 40
8.0
 40
9.0
 40
9.0
 40
9.0
 40
10.0
 40
10.0
 40
10.0
 40
11.0
 40
11.0
 40
11.0
 40
12.0
 40
12.0
 40
12.0
 40
13.0
 40
13.0
 40
13.0
 40
14.0
 40
14.0
 40
14.0
 40
14.0
 10
2233.466447927019
 20
-1631.72072966806
 30
0.0
 10
2226.370857468495
 20
-1628.346467939867
 30
0.0
 10
2223.104315559058
 20
-1625.815590582242
 30
0.0
 10
2223.104315559058
 20
-1620.191821035252
 30
0.0
 10
2223.104315559058
 20
-1615.130428442964
 30
0.0
 10
2226.370857468495
 20
-1610.912782344199
 30
0.0
 10
2232.227424792456
 20
-1610.912782344199
 30
0.0
 10
2237.296076678931
 20
-1610.912782344199
 30
0.0
 10
2241.237974677641
 20
-1613.162290162996
 30
0.0
 10
2243.378052800725
 20
-1614.849421027091
 30
0.0
 10
2243.378052800725
 20
-1614.849421027091
 30
0.0
 10
2245.856099069855
 20
-1605.851389751907
 30
0.0
 10
2245.856099069855
 20
-1605.851389751907
 30
0.0
 10
2242.814965958254
 20
-1603.601881933115
 30
0.0
 10
2237.971722869612
 20
-1601.633381530187
 30
0.0
 10
2232.452833590289
 20
-1601.633381530187
 30
0.0
 10
2220.73911873955
 20
-1601.633381530187
 30
0.0
 10
2213.643238179613
 20
-1610.631412805371
 30
0.0
 10
2213.643238179613
 20
-1621.597944483481
 30
0.0
 10
2213.643238179613
 20
-1629.752229265134
 30
0.0
 10
2218.261362571832
 20
-1636.50075272152
 30
0.0
 10
2228.06011799591
 20
-1640.859264651179
 30
0.0
 10
2235.381407353683
 20
-1644.233526379372
 30
0.0
 10
2238.197131667448
 20
-1647.46728439963
 30
0.0
 10
2238.197131667448
 20
-1653.37206136249
 30
0.0
 10
2238.197131667448
 20
-1658.99583090948
 30
0.0
 10
2234.818030409797
 20
-1663.494846547069
 30
0.0
 10
2227.60959050165
 20
-1663.494846547069
 30
0.0
 10
2222.653788064798
 20
-1663.494846547069
 30
0.0
 10
2217.472866931525
 20
-1660.964331312403
 30
0.0
 10
2214.54429316813
 20
-1658.574319785672
 30
0.0
 10
2214.54429316813
 20
-1658.574319785672
 30
0.0
 10
2212.066537000412
 20
-1667.993862184663
 30
0.0
 10
2212.066537000412
 20
-1667.993862184663
 30
0.0
 10
2215.895875650911
 20
-1670.805746958158
 30
0.0
 10
2221.41476493023
 20
-1672.633381530188
 30
0.0
 10
2227.384471805226
 20
-1672.633381530188
 30
0.0
 10
2240.33691968912
 20
-1672.633381530188
 30
0.0
 10
2247.770768395107
 20
-1664.198089332662
 30
0.0
 10
2247.770768395107
 20
-1652.24730745309
 30
0.0
 10
2247.770768395107
 20
-1642.12452226851
 30
0.0
 10
2242.927525306464
 20
-1636.21974530565
 30
0.0
 10
2233.466447927019
 20
-1631.72072966806
 30
0.0
  0
HATCH
  5
7E
330
70
100
AcDbEntity
  8
Layer 1
 62
   246
420
  8590872
440
 33554687
100
AcDbHatch
 10
0.0
 20
0.0
 30
0.0
210
0.0
220
0.0
230
1.0
  2
SOLID
 70
     1
 71
     1
 91
        1
 92
        1
 93
        1
 72
     4
 94
        3
 73
     0
 74
     0
 95
       47
 96
       43
 40
0.0
 40
0.0
 40
0.0
 40
0.0
 40
1.0
 40
1.0
 40
1.0
 40
2.0
 40
2.0
 40
2.0
 40
3.0
 40
3.0
 40
3.0
 40
4.0
 40
4.0
 40
4.0
 40
5.0
 40
5.0
 40
5.0
 40
6.0
 40
6.0
 40
6.0
 40
7.0
 40
7.0
 40
7.0
 40
8.0
 40
8.0
 40
8.0
 40
9.0
 40
9.0
 40
9.0
 40
10.0
 40
10.0
 40
10.0
 40
11.0
 40
11.0
 40
11.0
 40
12.0
 40
12.0
 40
12.0
 40
13.0
 40
13.0
 40
13.0
 40
14.0
 40
14.0
 40
14.0
 40
14.0
 10
2233.466447927019
 20
-1631.72072966806
 10
2226.370857468495
 20
-1628.346467939867
 10
2223.104315559058
 20
-1625.815590582242
 10
2223.104315559058
 20
-1620.191821035252
 10
2223.104315559058
 20
-1615.130428442964
 10
2226.370857468495
 20
-1610.912782344199
 10
2232.227424792456
 20
-1610.912782344199
 10
2237.296076678931
 20
-1610.912782344199
 10
2241.237974677641
 20
-1613.162290162996
 10
2243.378052800725
 20
-1614.849421027091
 10
2243.378052800725
 20
-1614.849421027091
 10
2245.856099069855
 20
-1605.851389751907
 10
2245.856099069855
 20
-1605.851389751907
 10
2242.814965958254
 20
-1603.601881933115
 10
2237.971722869612
 20
-1601.633381530187
 10
2232.452833590289
 20
-1601.633381530187
 10
2220.73911873955
 20
-1601.633381530187
 10
2213.643238179613
 20
-1610.631412805371
 10
2213.643238179613
 20
-1621.597944483481
 10
2213.643238179613
 20
-1629.752229265134
 10
2218.261362571832
 20
-1636.50075272152
 10
2228.06011799591
 20
-1640.859264651179
 10
2235.381407353683
 20
-1644.233526379372
 10
2238.197131667448
 20
-1647.46728439963
 10
2238.197131667448
 20
-1653.37206136249
 10
2238.197131667448
 20
-1658.99583090948
 10
2234.818030409797
 20
-1663.494846547069
 10
2227.60959050165
 20
-1663.494846547069
 10
2222.653788064798
 20
-1663.494846547069
 10
2217.472866931525
 20
-1660.964331312403
 10
2214.54429316813
 20
-1658.574319785672
 10
2214.54429316813
 20
-1658.574319785672
 10
2212.066537000412
 20
-1667.993862184663
 10
2212.066537000412
 20
-1667.993862184663
 10
2215.895875650911
 20
-1670.805746958158
 10
2221.41476493023
 20
-1672.633381530188
 10
2227.384471805226
 20
-1672.633381530188
 10
2240.33691968912
 20
-1672.633381530188
 10
2247.770768395107
 20
-1664.198089332662
 10
2247.770768395107
 20
-1652.24730745309
 10
2247.770768395107
 20
-1642.12452226851
 10
2242.927525306464
 20
-1636.21974530565
 10
2233.466447927019
 20
-1631.72072966806
 97
        0
 97
        1
330
7D
 75
     2
 76
     1
 98
        1
 10
0.0
 20
0.0
450
        0
451
        0
460
0.0
461
0.0
452
        0
462
0.0
453
        0
470

  0
SPLINE
  5
7F
330
70
100
AcDbEntity
  8
Layer 1
100
AcDbSpline
210
0.0
220
0.0
230
1.0
 70
     9
 71
     3
 72
    23
 73
    19
 74
     0
 42
0.0000000001
 43
0.0000000001
 40
0.0
 40
0.0
 40
0.0
 40
0.0
 40
1.0
 40
1.0
 40
1.0
 40
2.0
 40
2.0
 40
2.0
 40
3.0
 40
3.0
 40
3.0
 40
4.0
 40
4.0
 40
4.0
 40
5.0
 40
5.0
 40
5.0
 40
6.0
 40
6.0
 40
6.0
 40
6.0
 10
2369.482507493491
 20
-1807.638818686344
 30
0.0
 10
2369.644646052586
 20
-1803.092639969989
 30
0.0
 10
2366.532286799948
 20
-1801.421893935337
 30
0.0
 10
2361.32989354764
 20
-1803.617223690438
 30
0.0
 10
2352.429995581037
 20
-1807.372798991604
 30
0.0
 10
2344.014724998791
 20
-1812.45811688729
 30
0.0
 10
2334.613081858779
 20
-1814.777648479798
 30
0.0
 10
2328.739482659623
 20
-1816.226752954739
 30
0.0
 10
2327.131326877561
 20
-1819.895867406627
 30
0.0
 10
2326.125754637478
 20
-1824.922749939265
 30
0.0
 10
2325.527957670611
 20
-1827.911103088048
 30
0.0
 10
2326.471428991988
 20
-1828.433195654161
 30
0.0
 10
2329.062638758367
 20
-1827.709533114666
 30
0.0
 10
2341.741359834241
 20
-1824.168659729003
 30
0.0
 10
2354.26558485663
 20
-1820.256461996189
 30
0.0
 10
2365.817281021756
 20
-1813.718391863862
 30
0.0
 10
2368.338133472216
 20
-1812.291636602073
 30
0.0
 10
2369.35206887327
 20
-1810.322966303269
 30
0.0
 10
2369.482507493491
 20
-1807.638818686344
 30
0.0
  0
SPLINE
  5
80
330
70
100
AcDbEntity
  8
Layer 1
100
AcDbSpline
210
0.0
220
0.0
230
1.0
 70
     9
 71
     3
 72
    26
 73
    22
 74
     0
 42
0.0000000001
 43
0.0000000001
 40
0.0
 40
0.0
 40
0.0
 40
0.0
 40
1.0
 40
1.0
 40
1.0
 40
2.0
 40
2.0
 40
2.0
 40
3.0
 40
3.0
 40
3.0
 40
4.0
 40
4.0
 40
4.0
 40
5.0
 40
5.0
 40
5.0
 40
6.0
 40
6.0
 40
6.0
 40
7.0
 40
7.0
 40
7.0
 40
7.0
 10
2358.262837715925
 20
-1828.953953673314
 30
0.0
 10
2343.841829991166
 20
-1830.880398906189
 30
0.0
 10
2329.72469861002
 20
-1834.029111218115
 30
0.0
 10
2316.099863809783
 20
-1839.250570698045
 30
0.0
 10
2313.18765991074
 20
-1840.366607838794
 30
0.0
 10
2312.677071139455
 20
-1841.602344945193
 30
0.0
 10
2314.451217872846
 20
-1844.30793428333
 30
0.0
 10
2317.85131434781
 20
-1849.49309408585
 30
0.0
 10
2320.474971399364
 20
-1855.11742660315
 30
0.0
 10
2322.829076655211
 20
-1860.855142230475
 30
0.0
 10
2325.988572106604
 20
-1868.555816295598
 30
0.0
 10
2326.051055595437
 20
-1868.760126538744
 30
0.0
 10
2333.951395680275
 20
-1866.041921283309
 30
0.0
 10
2339.124019638317
 20
-1864.262187246632
 30
0.0
 10
2345.329049127389
 20
-1864.016719575129
 30
0.0
 10
2348.481062218803
 20
-1858.49543187738
 30
0.0
 10
2353.284781808192
 20
-1850.080899744455
 30
0.0
 10
2357.037865955028
 20
-1841.166962343795
 30
0.0
 10
2360.572867334055
 20
-1832.150051299424
 30
0.0
 10
2361.657444754381
 20
-1829.383535443911
 30
0.0
 10
2361.038384005891
 20
-1828.560635992206
 30
0.0
 10
2358.262837715925
 20
-1828.953953673314
 30
0.0
  0
SPLINE
  5
81
330
70
100
AcDbEntity
  8
Layer 1
100
AcDbSpline
210
0.0
220
0.0
230
1.0
 70
     9
 71
     3
 72
    71
 73
    67
 74
     0
 42
0.0000000001
 43
0.0000000001
 40
0.0
 40
0.0
 40
0.0
 40
0.0
 40
1.0
 40
1.0
 40
1.0
 40
2.0
 40
2.0
 40
2.0
 40
3.0
 40
3.0
 40
3.0
 40
4.0
 40
4.0
 40
4.0
 40
5.0
 40
5.0
 40
5.0
 40
6.0
 40
6.0
 40
6.0
 40
7.0
 40
7.0
 40
7.0
 40
8.0
 40
8.0
 40
8.0
 40
9.0
 40
9.0
 40
9.0
 40
10.0
 40
10.0
 40
10.0
 40
11.0
 40
11.0
 40
11.0
 40
12.0
 40
12.0
 40
12.0
 40
13.0
 40
13.0
 40
13.0
 40
14.0
 40
14.0
 40
14.0
 40
15.0
 40
15.0
 40
15.0
 40
16.0
 40
16.0
 40
16.0
 40
17.0
 40
17.0
 40
17.0
 40
18.0
 40
18.0
 40
18.0
 40
19.0
 40
19.0
 40
19.0
 40
20.0
 40
20.0
 40
20.0
 40
21.0
 40
21.0
 40
21.0
 40
22.0
 40
22.0
 40
22.0
 40
22.0
 10
2361.067735142113
 20
-1856.031466715491
 30
0.0
 10
2362.585079451788
 20
-1857.151204999818
 30
0.0
 10
2363.698563159347
 20
-1856.447738604371
 30
0.0
 10
2364.816023816858
 20
-1856.320707527398
 30
0.0
 10
2369.634467907743
 20
-1855.772956071663
 30
0.0
 10
2374.44591897254
 20
-1854.908667870126
 30
0.0
 10
2379.275893549193
 20
-1854.785248966933
 30
0.0
 10
2384.661093044577
 20
-1854.647683865927
 30
0.0
 10
2389.965863842952
 20
-1859.50803273147
 30
0.0
 10
2389.371776916641
 20
-1863.970028225363
 30
0.0
 10
2388.599198782443
 20
-1869.772691804914
 30
0.0
 10
2383.567938935763
 20
-1868.125202475346
 30
0.0
 10
2380.095252002955
 20
-1868.228247294895
 30
0.0
 10
2370.740015509358
 20
-1868.505815269362
 30
0.0
 10
2361.535271428353
 20
-1869.550142753267
 30
0.0
 10
2352.34878394981
 20
-1871.370251284085
 30
0.0
 10
2347.902607285929
 20
-1872.251141249848
 30
0.0
 10
2346.320813254888
 20
-1874.218868468799
 30
0.0
 10
2345.979302686906
 20
-1878.665632333346
 30
0.0
 10
2344.927911001074
 20
-1892.355717583125
 30
0.0
 10
2344.75288071831
 20
-1892.346304578541
 30
0.0
 10
2358.159241283631
 20
-1887.709839311612
 30
0.0
 10
2363.113382109774
 20
-1885.99649453788
 30
0.0
 10
2367.969745128388
 20
-1883.903871517099
 30
0.0
 10
2373.033114175008
 20
-1882.629485930631
 30
0.0
 10
2378.30985948715
 20
-1881.30138038039
 30
0.0
 10
2382.063957889679
 20
-1884.497762709854
 30
0.0
 10
2382.598808724766
 20
-1889.998320444769
 30
0.0
 10
2383.163731351431
 20
-1895.808101608125
 30
0.0
 10
2381.893135878339
 20
-1897.056419043905
 30
0.0
 10
2375.199528745898
 20
-1897.263932199761
 30
0.0
 10
2367.020900031237
 20
-1897.517442740964
 30
0.0
 10
2358.996278036173
 20
-1898.961902992474
 30
0.0
 10
2350.933710422442
 20
-1900.211163508107
 30
0.0
 10
2346.151877403258
 20
-1900.95208618833
 30
0.0
 10
2343.829605540983
 20
-1902.869741205204
 30
0.0
 10
2343.97812282407
 20
-1908.086449697946
 30
0.0
 10
2344.1265778283
 20
-1913.301022915542
 30
0.0
 10
2343.068486716709
 20
-1918.539991651634
 30
0.0
 10
2343.018414514636
 20
-1923.772857059613
 30
0.0
 10
2342.963813749864
 20
-1929.479451051747
 30
0.0
 10
2338.260816868309
 20
-1936.194535493321
 30
0.0
 10
2341.860944139158
 20
-1940.318534726239
 30
0.0
 10
2345.417725324629
 20
-1944.392888812106
 30
0.0
 10
2352.457540630365
 20
-1945.49155904837
 30
0.0
 10
2358.040715719306
 20
-1947.716693685654
 30
0.0
 10
2366.182377483076
 20
-1950.961422203121
 30
0.0
 10
2367.254739350197
 20
-1950.625543423326
 30
0.0
 10
2372.714513329904
 20
-1943.640916083024
 30
0.0
 10
2381.740979730532
 20
-1932.093348116507
 30
0.0
 10
2388.793953669329
 20
-1919.369990893187
 30
0.0
 10
2394.852903647765
 20
-1906.077049025813
 30
0.0
 10
2400.967548719485
 20
-1892.661880450532
 30
0.0
 10
2408.543309188817
 20
-1879.911316263116
 30
0.0
 10
2413.102459701661
 20
-1865.785955175694
 30
0.0
 10
2414.79751228501
 20
-1860.534317140429
 30
0.0
 10
2415.086059132495
 20
-1855.359549010265
 30
0.0
 10
2411.828287642706
 20
-1850.695770015478
 30
0.0
 10
2406.26212357906
 20
-1842.727368035499
 30
0.0
 10
2400.119755518418
 20
-1835.19472233007
 30
0.0
 10
2393.252070080047
 20
-1828.298014943728
 30
0.0
 10
2390.576516945572
 20
-1825.611144851002
 30
0.0
 10
2381.194029002976
 20
-1824.702834393625
 30
0.0
 10
2379.177777656428
 20
-1827.326820633428
 30
0.0
 10
2372.255357998592
 20
-1836.335831159773
 30
0.0
 10
2365.669947036977
 20
-1845.612836510365
 30
0.0
 10
2361.067735142113
 20
-1856.031466715491
 30
0.0
  0
SPLINE
  5
82
330
70
100
AcDbEntity
  8
Layer 1
100
AcDbSpline
210
0.0
220
0.0
230
1.0
 70
     9
 71
     3
 72
   251
 73
   247
 74
     0
 42
0.0000000001
 43
0.0000000001
 40
0.0
 40
0.0
 40
0.0
 40
0.0
 40
1.0
 40
1.0
 40
1.0
 40
2.0
 40
2.0
 40
2.0
 40
3.0
 40
3.0
 40
3.0
 40
4.0
 40
4.0
 40
4.0
 40
5.0
 40
5.0
 40
5.0
 40
6.0
 40
6.0
 40
6.0
 40
7.0
 40
7.0
 40
7.0
 40
8.0
 40
8.0
 40
8.0
 40
9.0
 40
9.0
 40
9.0
 40
10.0
 40
10.0
 40
10.0
 40
11.0
 40
11.0
 40
11.0
 40
12.0
 40
12.0
 40
12.0
 40
13.0
 40
13.0
 40
13.0
 40
14.0
 40
14.0
 40
14.0
 40
15.0
 40
15.0
 40
15.0
 40
16.0
 40
16.0
 40
16.0
 40
17.0
 40
17.0
 40
17.0
 40
18.0
 40
18.0
 40
18.0
 40
19.0
 40
19.0
 40
19.0
 40
20.0
 40
20.0
 40
20.0
 40
21.0
 40
21.0
 40
21.0
 40
22.0
 40
22.0
 40
22.0
 40
23.0
 40
23.0
 40
23.0
 40
24.0
 40
24.0
 40
24.0
 40
25.0
 40
25.0
 40
25.0
 40
26.0
 40
26.0
 40
26.0
 40
27.0
 40
27.0
 40
27.0
 40
28.0
 40
28.0
 40
28.0
 40
29.0
 40
29.0
 40
29.0
 40
30.0
 40
30.0
 40
30.0
 40
31.0
 40
31.0
 40
31.0
 40
32.0
 40
32.0
 40
32.0
 40
33.0
 40
33.0
 40
33.0
 40
34.0
 40
34.0
 40
34.0
 40
35.0
 40
35.0
 40
35.0
 40
36.0
 40
36.0
 40
36.0
 40
37.0
 40
37.0
 40
37.0
 40
38.0
 40
38.0
 40
38.0
 40
39.0
 40
39.0
 40
39.0
 40
40.0
 40
40.0
 40
40.0
 40
41.0
 40
41.0
 40
41.0
 40
42.0
 40
42.0
 40
42.0
 40
43.0
 40
43.0
 40
43.0
 40
44.0
 40
44.0
 40
44.0
 40
45.0
 40
45.0
 40
45.0
 40
46.0
 40
46.0
 40
46.0
 40
47.0
 40
47.0
 40
47.0
 40
48.0
 40
48.0
 40
48.0
 40
49.0
 40
49.0
 40
49.0
 40
50.0
 40
50.0
 40
50.0
 40
51.0
 40
51.0
 40
51.0
 40
52.0
 40
52.0
 40
52.0
 40
53.0
 40
53.0
 40
53.0
 40
54.0
 40
54.0
 40
54.0
 40
55.0
 40
55.0
 40
55.0
 40
56.0
 40
56.0
 40
56.0
 40
57.0
 40
57.0
 40
57.0
 40
58.0
 40
58.0
 40
58.0
 40
59.0
 40
59.0
 40
59.0
 40
60.0
 40
60.0
 40
60.0
 40
61.0
 40
61.0
 40
61.0
 40
62.0
 40
62.0
 40
62.0
 40
63.0
 40
63.0
 40
63.0
 40
64.0
 40
64.0
 40
64.0
 40
65.0
 40
65.0
 40
65.0
 40
66.0
 40
66.0
 40
66.0
 40
67.0
 40
67.0
 40
67.0
 40
68.0
 40
68.0
 40
68.0
 40
69.0
 40
69.0
 40
69.0
 40
70.0
 40
70.0
 40
70.0
 40
71.0
 40
71.0
 40
71.0
 40
72.0
 40
72.0
 40
72.0
 40
73.0
 40
73.0
 40
73.0
 40
74.0
 40
74.0
 40
74.0
 40
75.0
 40
75.0
 40
75.0
 40
76.0
 40
76.0
 40
76.0
 40
77.0
 40
77.0
 40
77.0
 40
78.0
 40
78.0
 40
78.0
 40
79.0
 40
79.0
 40
79.0
 40
80.0
 40
80.0
 40
80.0
 40
81.0
 40
81.0
 40
81.0
 40
82.0
 40
82.0
 40
82.0
 40
82.0
 10
2398.940211736162
 20
-1803.937710695252
 30
0.0
 10
2400.657097507838
 20
-1805.380694048119
 30
0.0
 10
2402.516228191869
 20
-1804.981112893263
 30
0.0
 10
2404.163023557018
 20
-1804.895844239268
 30
0.0
 10
2416.601695222062
 20
-1804.251827462562
 30
0.0
 10
2425.127368426112
 20
-1810.64683416039
 30
0.0
 10
2431.91900248152
 20
-1820.158808746371
 30
0.0
 10
2437.673319873071
 20
-1828.217995507792
 30
0.0
 10
2443.204714539823
 20
-1836.438840391402
 30
0.0
 10
2449.064283201902
 20
-1844.419609173245
 30
0.0
 10
2453.979223935237
 20
-1851.11378571239
 30
0.0
 10
2454.850558544744
 20
-1858.212774830494
 30
0.0
 10
2452.213173453425
 20
-1865.920780006936
 30
0.0
 10
2447.152251076235
 20
-1880.711759737916
 30
0.0
 10
2439.810000737611
 20
-1894.440422291924
 30
0.0
 10
2431.793590654861
 20
-1907.740214833711
 30
0.0
 10
2420.561776499928
 20
-1926.374636437942
 30
0.0
 10
2411.620899044565
 20
-1946.268870375801
 30
0.0
 10
2399.698430145034
 20
-1964.530455146325
 30
0.0
 10
2391.603121645798
 20
-1976.929997894394
 30
0.0
 10
2381.637063006967
 20
-1979.568770914555
 30
0.0
 10
2368.374353076806
 20
-1970.694816540925
 30
0.0
 10
2350.967011817675
 20
-1959.047780340721
 30
0.0
 10
2334.197530625259
 20
-1946.42349988398
 30
0.0
 10
2316.33917477129
 20
-1935.405355594894
 30
0.0
 10
2316.089267506892
 20
-1935.251170935704
 30
0.0
 10
2316.060459086437
 20
-1934.738633725848
 30
0.0
 10
2315.920794298209
 20
-1934.373305943054
 30
0.0
 10
2316.204679128301
 20
-1934.163408396622
 30
0.0
 10
2316.493973322087
 20
-1933.766015898787
 30
0.0
 10
2316.751354049486
 20
-1933.785713811967
 30
0.0
 10
2326.099410680419
 20
-1934.50110216029
 30
0.0
 10
2326.153299686806
 20
-1934.508451065567
 30
0.0
 10
2326.499418890306
 20
-1925.132778209469
 30
0.0
 10
2326.664182058428
 20
-1920.669519344448
 30
0.0
 10
2326.510406660304
 20
-1916.195210430573
 30
0.0
 10
2326.626921507204
 20
-1911.729193501831
 30
0.0
 10
2326.708764823992
 20
-1908.592207409225
 30
0.0
 10
2325.685727812647
 20
-1907.490174114615
 30
0.0
 10
2322.455759384598
 20
-1908.575961524189
 30
0.0
 10
2318.411041138299
 20
-1909.935633558611
 30
0.0
 10
2314.248829377326
 20
-1910.946312665071
 30
0.0
 10
2310.135559902001
 20
-1912.101336371115
 30
0.0
 10
2308.046611333857
 20
-1912.687878658593
 30
0.0
 10
2305.897234479203
 20
-1913.018312486778
 30
0.0
 10
2303.827316550762
 20
-1912.264026542956
 30
0.0
 10
2301.544983230617
 20
-1911.432354669212
 30
0.0
 10
2299.456301571868
 20
-1909.796662734801
 30
0.0
 10
2299.119693239735
 20
-1907.475244982581
 30
0.0
 10
2298.692629314404
 20
-1904.530042185625
 30
0.0
 10
2301.771251219803
 20
-1904.596662770045
 30
0.0
 10
2303.606689246744
 20
-1903.979158993015
 30
0.0
 10
2309.864771426108
 20
-1901.873706527424
 30
0.0
 10
2316.155585594001
 20
-1899.843718244132
 30
0.0
 10
2322.510475810106
 20
-1898.057347060554
 30
0.0
 10
2325.518678120725
 20
-1897.211760310465
 30
0.0
 10
2326.800394818512
 20
-1895.788510458698
 30
0.0
 10
2326.036517930514
 20
-1892.654300223779
 30
0.0
 10
2325.6705406682
 20
-1891.152703568272
 30
0.0
 10
2325.580316396483
 20
-1889.582849284064
 30
0.0
 10
2325.380908389185
 20
-1888.04185680219
 30
0.0
 10
2324.053078645315
 20
-1877.780400641461
 30
0.0
 10
2324.039804351514
 20
-1877.743638321104
 30
0.0
 10
2314.285929782915
 20
-1881.64914552514
 30
0.0
 10
2311.767532898872
 20
-1882.657547004784
 30
0.0
 10
2309.352803622957
 20
-1883.935153297925
 30
0.0
 10
2306.926721800873
 20
-1885.16087240512
 30
0.0
 10
2304.542793868883
 20
-1886.365309936738
 30
0.0
 10
2302.13713061534
 20
-1886.78296975446
 30
0.0
 10
2299.664579867984
 20
-1885.544385614537
 30
0.0
 10
2297.568033279129
 20
-1884.494150536071
 30
0.0
 10
2295.027745376394
 20
-1883.343610907827
 30
0.0
 10
2294.779199349896
 20
-1880.941675488802
 30
0.0
 10
2294.511102210379
 20
-1878.350786013698
 30
0.0
 10
2297.484641887868
 20
-1877.958660527876
 30
0.0
 10
2299.275701779776
 20
-1877.143465860639
 30
0.0
 10
2303.686504052146
 20
-1875.135897966336
 30
0.0
 10
2308.157707920085
 20
-1873.174024960068
 30
0.0
 10
2312.771699416151
 20
-1871.726183856253
 30
0.0
 10
2316.758827512482
 20
-1870.475054974869
 30
0.0
 10
2317.272699269301
 20
-1868.418393546266
 30
0.0
 10
2316.086269224712
 20
-1864.760845168066
 30
0.0
 10
2313.948111461532
 20
-1858.169250805518
 30
0.0
 10
2310.500389453924
 20
-1852.434453387557
 30
0.0
 10
2306.096526825766
 20
-1847.146426705083
 30
0.0
 10
2304.272032083927
 20
-1844.95563440966
 30
0.0
 10
2302.539007190977
 20
-1844.845845679454
 30
0.0
 10
2300.003243402445
 20
-1845.790598165917
 30
0.0
 10
2291.217017697711
 20
-1849.064046134037
 30
0.0
 10
2283.009482695817
 20
-1853.403031985808
 30
0.0
 10
2275.179224120531
 20
-1858.516944774432
 30
0.0
 10
2270.838191963417
 20
-1861.352074137836
 30
0.0
 10
2269.799981153096
 20
-1865.065050699924
 30
0.0
 10
2271.143193774964
 20
-1870.077342185761
 30
0.0
 10
2274.849599917505
 20
-1883.908070891544
 30
0.0
 10
2281.6914752176
 20
-1896.36206315573
 30
0.0
 10
2287.849261744161
 20
-1909.114335563257
 30
0.0
 10
2291.667004691384
 20
-1917.020583242653
 30
0.0
 10
2294.913370253123
 20
-1925.133240852416
 30
0.0
 10
2296.92443466047
 20
-1933.661511974557
 30
0.0
 10
2298.772444119806
 20
-1941.498309829965
 30
0.0
 10
2295.879502181944
 20
-1947.198142117484
 30
0.0
 10
2289.52128449541
 20
-1949.362990819934
 30
0.0
 10
2284.265829655828
 20
-1951.15238697663
 30
0.0
 10
2279.540439076221
 20
-1949.275729242478
 30
0.0
 10
2275.033318101001
 20
-1943.394896798776
 30
0.0
 10
2267.647027712579
 20
-1933.7574392103
 30
0.0
 10
2262.438562271583
 20
-1922.838389481751
 30
0.0
 10
2257.594056702745
 20
-1911.843003666885
 30
0.0
 10
2248.125083444176
 20
-1890.35163730489
 30
0.0
 10
2236.485522931211
 20
-1869.82489928213
 30
0.0
 10
2228.881771451439
 20
-1847.519975297171
 30
0.0
 10
2228.022638493612
 20
-1844.999816811134
 30
0.0
 10
2225.211720314403
 20
-1842.000164498058
 30
0.0
 10
2227.851507868289
 20
-1839.465681874615
 30
0.0
 10
2230.720907841651
 20
-1836.710749886744
 30
0.0
 10
2234.363893532174
 20
-1838.187346029135
 30
0.0
 10
2237.735336171712
 20
-1839.355893144409
 30
0.0
 10
2244.590246659276
 20
-1841.731867176502
 30
0.0
 10
2250.752681857759
 20
-1845.418188387237
 30
0.0
 10
2256.743567716812
 20
-1849.377486730886
 30
0.0
 10
2260.79910246625
 20
-1852.057719676717
 30
0.0
 10
2264.586626821723
 20
-1852.609492567301
 30
0.0
 10
2269.245552514052
 20
-1850.582991900075
 30
0.0
 10
2277.249684764736
 20
-1847.101354605631
 30
0.0
 10
2285.508199460639
 20
-1844.196401745096
 30
0.0
 10
2293.701432567572
 20
-1841.161446216345
 30
0.0
 10
2297.235891230832
 20
-1839.852202263188
 30
0.0
 10
2297.966146432327
 20
-1838.635842778698
 30
0.0
 10
2294.68711116092
 20
-1835.834842229644
 30
0.0
 10
2284.170498517729
 20
-1826.851419417082
 30
0.0
 10
2271.856882800153
 20
-1821.23891988286
 30
0.0
 10
2259.227769059156
 20
-1816.089419175208
 30
0.0
 10
2255.782222363103
 20
-1814.6845148957
 30
0.0
 10
2249.689657370896
 20
-1814.305023121135
 30
0.0
 10
2252.204023923108
 20
-1808.515420307867
 30
0.0
 10
2254.42916968162
 20
-1803.391809811306
 30
0.0
 10
2259.064489462407
 20
-1806.724333725018
 30
0.0
 10
2262.331144586488
 20
-1808.222015709434
 30
0.0
 10
2277.832299035648
 20
-1815.328994315354
 30
0.0
 10
2293.879474477986
 20
-1821.452767688304
 30
0.0
 10
2307.15342574207
 20
-1832.695400570625
 30
0.0
 10
2309.908580154433
 20
-1835.028936009272
 30
0.0
 10
2319.09126862262
 20
-1831.126062311247
 30
0.0
 10
2319.880911163995
 20
-1827.260680485913
 30
0.0
 10
2322.369690002425
 20
-1815.077779194929
 30
0.0
 10
2324.188339428563
 20
-1802.785106967701
 30
0.0
 10
2325.39683398295
 20
-1790.400511145621
 30
0.0
 10
2325.791922163027
 20
-1786.351620215817
 30
0.0
 10
2323.521590868577
 20
-1786.342456326667
 30
0.0
 10
2320.741791822284
 20
-1786.945546996492
 30
0.0
 10
2313.504267832382
 20
-1788.515792747807
 30
0.0
 10
2306.193601771896
 20
-1789.430722558121
 30
0.0
 10
2298.7889302233
 20
-1789.579444471743
 30
0.0
 10
2297.62383513617
 20
-1789.602852425487
 30
0.0
 10
2296.455697281961
 20
-1789.622995187656
 30
0.0
 10
2295.292612912255
 20
-1789.567816119201
 30
0.0
 10
2292.686669747402
 20
-1789.444192585473
 30
0.0
 10
2289.454881886994
 20
-1788.994138864454
 30
0.0
 10
2289.009565807692
 20
-1786.38528638722
 30
0.0
 10
2288.525779187921
 20
-1783.551046721793
 30
0.0
 10
2292.052915636845
 20
-1783.515022850755
 30
0.0
 10
2294.050523362306
 20
-1782.809839338217
 30
0.0
 10
2304.472739050272
 20
-1779.130609020347
 30
0.0
 10
2315.392482743244
 20
-1776.872653424736
 30
0.0
 10
2325.264553687919
 20
-1771.606219712132
 30
0.0
 10
2327.686720838907
 20
-1770.314075754068
 30
0.0
 10
2329.406880699133
 20
-1768.882195831938
 30
0.0
 10
2329.594651456909
 20
-1765.980659411627
 30
0.0
 10
2330.560098318287
 20
-1751.062515148976
 30
0.0
 10
2332.939826875836
 20
-1736.199914730951
 30
0.0
 10
2332.155059879367
 20
-1721.22131549085
 30
0.0
 10
2331.849279582091
 20
-1715.385128091573
 30
0.0
 10
2332.917806850934
 20
-1708.306989045533
 30
0.0
 10
2324.894510505854
 20
-1705.713345955191
 30
0.0
 10
2323.249396669884
 20
-1705.181537887183
 30
0.0
 10
2324.323208744701
 20
-1703.856919953003
 30
0.0
 10
2324.819615730257
 20
-1702.850942900342
 30
0.0
 10
2330.109332838887
 20
-1692.131136584969
 30
0.0
 10
2336.989474048916
 20
-1682.574694894159
 30
0.0
 10
2345.500556206169
 20
-1674.164646839032
 30
0.0
 10
2347.420070691815
 20
-1672.267924191281
 30
0.0
 10
2349.161565509496
 20
-1672.078745486458
 30
0.0
 10
2351.005268830629
 20
-1673.903246901031
 30
0.0
 10
2363.184006335088
 20
-1685.955186874231
 30
0.0
 10
2373.301055617378
 20
-1699.466429485423
 30
0.0
 10
2377.423844861047
 20
-1716.356971881396
 30
0.0
 10
2380.007652340266
 20
-1726.942509426764
 30
0.0
 10
2376.375122269141
 20
-1729.64659517532
 30
0.0
 10
2365.840217435571
 20
-1726.909234722472
 30
0.0
 10
2362.676540403694
 20
-1726.087180483842
 30
0.0
 10
2359.397914393352
 20
-1721.984222608051
 30
0.0
 10
2356.83986367053
 20
-1724.279536621663
 30
0.0
 10
2354.685433331377
 20
-1726.212699074258
 30
0.0
 10
2354.794216702869
 20
-1730.733307870789
 30
0.0
 10
2354.030001729638
 20
-1734.137488059463
 30
0.0
 10
2352.253470605674
 20
-1742.050977880382
 30
0.0
 10
2350.554707981764
 20
-1749.981914678603
 30
0.0
 10
2348.663165600477
 20
-1758.644325564542
 30
0.0
 10
2352.796293134621
 20
-1757.500440877156
 30
0.0
 10
2355.22735726537
 20
-1754.776034426832
 30
0.0
 10
2357.958222922995
 20
-1752.638170263984
 30
0.0
 10
2362.540825874477
 20
-1749.050650013451
 30
0.0
 10
2366.940320085576
 20
-1745.228827801013
 30
0.0
 10
2371.531989059427
 20
-1741.653451927847
 30
0.0
 10
2374.914060253408
 20
-1739.019954816686
 30
0.0
 10
2378.00394573518
 20
-1739.634193402144
 30
0.0
 10
2380.576792135338
 20
-1743.037332644188
 30
0.0
 10
2381.161483851023
 20
-1743.810711506565
 30
0.0
 10
2381.855821945237
 20
-1744.502807561883
 30
0.0
 10
2382.422257058462
 20
-1745.288143965055
 30
0.0
 10
2392.674104481057
 20
-1759.501522873215
 30
0.0
 10
2391.919854125156
 20
-1762.124930809336
 30
0.0
 10
2376.041894789314
 20
-1768.561735518062
 30
0.0
 10
2366.668713087545
 20
-1772.361555499563
 30
0.0
 10
2357.162058895459
 20
-1775.776687870318
 30
0.0
 10
2347.356039128501
 20
-1778.227343150491
 30
0.0
 10
2342.995220088409
 20
-1779.317178685855
 30
0.0
 10
2340.313608110717
 20
-1781.285163917219
 30
0.0
 10
2339.030138707918
 20
-1785.877945013541
 30
0.0
 10
2336.996556044805
 20
-1793.154998284502
 30
0.0
 10
2334.200751331931
 20
-1800.216904790977
 30
0.0
 10
2331.828167049125
 20
-1807.403102104657
 30
0.0
 10
2331.304392953838
 20
-1808.989540359129
 30
0.0
 10
2329.799104051732
 20
-1811.026414904754
 30
0.0
 10
2331.214195373059
 20
-1812.285284158526
 30
0.0
 10
2332.8157229052
 20
-1813.709993114972
 30
0.0
 10
2334.813246109357
 20
-1811.952732849157
 30
0.0
 10
2336.46088668758
 20
-1811.233358653906
 30
0.0
 10
2347.405372881256
 20
-1806.454968765887
 30
0.0
 10
2356.918192680312
 20
-1799.358666535674
 30
0.0
 10
2366.421412638212
 20
-1792.296635471484
 30
0.0
 10
2374.683984356887
 20
-1786.156580625578
 30
0.0
 10
2382.939776576981
 20
-1780.033412247252
 30
0.0
 10
2391.571252664309
 20
-1774.399266361284
 30
0.0
 10
2394.736851443815
 20
-1772.332951709643
 30
0.0
 10
2396.782071356449
 20
-1772.668812695479
 30
0.0
 10
2399.048559155644
 20
-1775.248616533809
 30
0.0
 10
2400.328478663521
 20
-1776.705452484159
 30
0.0
 10
2401.781159724325
 20
-1778.010176771597
 30
0.0
 10
2403.066613153611
 20
-1779.462573129047
 30
0.0
 10
2410.634989129745
 20
-1788.013887428762
 30
0.0
 10
2410.409432898939
 20
-1792.438328771099
 30
0.0
 10
2402.087447149448
 20
-1800.134767873856
 30
0.0
 10
2400.971196481185
 20
-1801.167120023009
 30
0.0
 10
2399.497910015265
 20
-1801.899412632869
 30
0.0
 10
2398.940211736162
 20
-1803.937710695252
 30
0.0
  0
HATCH
  5
83
330
70
100
AcDbEntity
  8
Layer 1
 62
   168
420
   922409
440
 33554687
100
AcDbHatch
 10
0.0
 20
0.0
 30
0.0
210
0.0
220
0.0
230
1.0
  2
SOLID
 70
     1
 71
     1
 91
        4
 92
        1
 93
        1
 72
     4
 94
        3
 73
     0
 74
     0
 95
       23
 96
       19
 40
0.0
 40
0.0
 40
0.0
 40
0.0
 40
1.0
 40
1.0
 40
1.0
 40
2.0
 40
2.0
 40
2.0
 40
3.0
 40
3.0
 40
3.0
 40
4.0
 40
4.0
 40
4.0
 40
5.0
 40
5.0
 40
5.0
 40
6.0
 40
6.0
 40
6.0
 40
6.0
 10
2369.482507493491
 20
-1807.638818686344
 10
2369.644646052586
 20
-1803.092639969989
 10
2366.532286799948
 20
-1801.421893935337
 10
2361.32989354764
 20
-1803.617223690438
 10
2352.429995581037
 20
-1807.372798991604
 10
2344.014724998791
 20
-1812.45811688729
 10
2334.613081858779
 20
-1814.777648479798
 10
2328.739482659623
 20
-1816.226752954739
 10
2327.131326877561
 20
-1819.895867406627
 10
2326.125754637478
 20
-1824.922749939265
 10
2325.527957670611
 20
-1827.911103088048
 10
2326.471428991988
 20
-1828.433195654161
 10
2329.062638758367
 20
-1827.709533114666
 10
2341.741359834241
 20
-1824.168659729003
 10
2354.26558485663
 20
-1820.256461996189
 10
2365.817281021756
 20
-1813.718391863862
 10
2368.338133472216
 20
-1812.291636602073
 10
2369.35206887327
 20
-1810.322966303269
 10
2369.482507493491
 20
-1807.638818686344
 97
        0
 97
        1
330
7F
 92
        1
 93
        1
 72
     4
 94
        3
 73
     0
 74
     0
 95
       26
 96
       22
 40
0.0
 40
0.0
 40
0.0
 40
0.0
 40
1.0
 40
1.0
 40
1.0
 40
2.0
 40
2.0
 40
2.0
 40
3.0
 40
3.0
 40
3.0
 40
4.0
 40
4.0
 40
4.0
 40
5.0
 40
5.0
 40
5.0
 40
6.0
 40
6.0
 40
6.0
 40
7.0
 40
7.0
 40
7.0
 40
7.0
 10
2358.262837715925
 20
-1828.953953673314
 10
2343.841829991166
 20
-1830.880398906189
 10
2329.72469861002
 20
-1834.029111218115
 10
2316.099863809783
 20
-1839.250570698045
 10
2313.18765991074
 20
-1840.366607838794
 10
2312.677071139455
 20
-1841.602344945193
 10
2314.451217872846
 20
-1844.30793428333
 10
2317.85131434781
 20
-1849.49309408585
 10
2320.474971399364
 20
-1855.11742660315
 10
2322.829076655211
 20
-1860.855142230475
 10
2325.988572106604
 20
-1868.555816295598
 10
2326.051055595437
 20
-1868.760126538744
 10
2333.951395680275
 20
-1866.041921283309
 10
2339.124019638317
 20
-1864.262187246632
 10
2345.329049127389
 20
-1864.016719575129
 10
2348.481062218803
 20
-1858.49543187738
 10
2353.284781808192
 20
-1850.080899744455
 10
2357.037865955028
 20
-1841.166962343795
 10
2360.572867334055
 20
-1832.150051299424
 10
2361.657444754381
 20
-1829.383535443911
 10
2361.038384005891
 20
-1828.560635992206
 10
2358.262837715925
 20
-1828.953953673314
 97
        0
 97
        1
330
80
 92
        1
 93
        1
 72
     4
 94
        3
 73
     0
 74
     0
 95
       71
 96
       67
 40
0.0
 40
0.0
 40
0.0
 40
0.0
 40
1.0
 40
1.0
 40
1.0
 40
2.0
 40
2.0
 40
2.0
 40
3.0
 40
3.0
 40
3.0
 40
4.0
 40
4.0
 40
4.0
 40
5.0
 40
5.0
 40
5.0
 40
6.0
 40
6.0
 40
6.0
 40
7.0
 40
7.0
 40
7.0
 40
8.0
 40
8.0
 40
8.0
 40
9.0
 40
9.0
 40
9.0
 40
10.0
 40
10.0
 40
10.0
 40
11.0
 40
11.0
 40
11.0
 40
12.0
 40
12.0
 40
12.0
 40
13.0
 40
13.0
 40
13.0
 40
14.0
 40
14.0
 40
14.0
 40
15.0
 40
15.0
 40
15.0
 40
16.0
 40
16.0
 40
16.0
 40
17.0
 40
17.0
 40
17.0
 40
18.0
 40
18.0
 40
18.0
 40
19.0
 40
19.0
 40
19.0
 40
20.0
 40
20.0
 40
20.0
 40
21.0
 40
21.0
 40
21.0
 40
22.0
 40
22.0
 40
22.0
 40
22.0
 10
2361.067735142113
 20
-1856.031466715491
 10
2362.585079451788
 20
-1857.151204999818
 10
2363.698563159347
 20
-1856.447738604371
 10
2364.816023816858
 20
-1856.320707527398
 10
2369.634467907743
 20
-1855.772956071663
 10
2374.44591897254
 20
-1854.908667870126
 10
2379.275893549193
 20
-1854.785248966933
 10
2384.661093044577
 20
-1854.647683865927
 10
2389.965863842952
 20
-1859.50803273147
 10
2389.371776916641
 20
-1863.970028225363
 10
2388.599198782443
 20
-1869.772691804914
 10
2383.567938935763
 20
-1868.125202475346
 10
2380.095252002955
 20
-1868.228247294895
 10
2370.740015509358
 20
-1868.505815269362
 10
2361.535271428353
 20
-1869.550142753267
 10
2352.34878394981
 20
-1871.370251284085
 10
2347.902607285929
 20
-1872.251141249848
 10
2346.320813254888
 20
-1874.218868468799
 10
2345.979302686906
 20
-1878.665632333346
 10
2344.927911001074
 20
-1892.355717583125
 10
2344.75288071831
 20
-1892.346304578541
 10
2358.159241283631
 20
-1887.709839311612
 10
2363.113382109774
 20
-1885.99649453788
 10
2367.969745128388
 20
-1883.903871517099
 10
2373.033114175008
 20
-1882.629485930631
 10
2378.30985948715
 20
-1881.30138038039
 10
2382.063957889679
 20
-1884.497762709854
 10
2382.598808724766
 20
-1889.998320444769
 10
2383.163731351431
 20
-1895.808101608125
 10
2381.893135878339
 20
-1897.056419043905
 10
2375.199528745898
 20
-1897.263932199761
 10
2367.020900031237
 20
-1897.517442740964
 10
2358.996278036173
 20
-1898.961902992474
 10
2350.933710422442
 20
-1900.211163508107
 10
2346.151877403258
 20
-1900.95208618833
 10
2343.829605540983
 20
-1902.869741205204
 10
2343.97812282407
 20
-1908.086449697946
 10
2344.1265778283
 20
-1913.301022915542
 10
2343.068486716709
 20
-1918.539991651634
 10
2343.018414514636
 20
-1923.772857059613
 10
2342.963813749864
 20
-1929.479451051747
 10
2338.260816868309
 20
-1936.194535493321
 10
2341.860944139158
 20
-1940.318534726239
 10
2345.417725324629
 20
-1944.392888812106
 10
2352.457540630365
 20
-1945.49155904837
 10
2358.040715719306
 20
-1947.716693685654
 10
2366.182377483076
 20
-1950.961422203121
 10
2367.254739350197
 20
-1950.625543423326
 10
2372.714513329904
 20
-1943.640916083024
 10
2381.740979730532
 20
-1932.093348116507
 10
2388.793953669329
 20
-1919.369990893187
 10
2394.852903647765
 20
-1906.077049025813
 10
2400.967548719485
 20
-1892.661880450532
 10
2408.543309188817
 20
-1879.911316263116
 10
2413.102459701661
 20
-1865.785955175694
 10
2414.79751228501
 20
-1860.534317140429
 10
2415.086059132495
 20
-1855.359549010265
 10
2411.828287642706
 20
-1850.695770015478
 10
2406.26212357906
 20
-1842.727368035499
 10
2400.119755518418
 20
-1835.19472233007
 10
2393.252070080047
 20
-1828.298014943728
 10
2390.576516945572
 20
-1825.611144851002
 10
2381.194029002976
 20
-1824.702834393625
 10
2379.177777656428
 20
-1827.326820633428
 10
2372.255357998592
 20
-1836.335831159773
 10
2365.669947036977
 20
-1845.612836510365
 10
2361.067735142113
 20
-1856.031466715491
 97
        0
 97
        1
330
81
 92
        1
 93
        1
 72
     4
 94
        3
 73
     0
 74
     0
 95
      251
 96
      247
 40
0.0
 40
0.0
 40
0.0
 40
0.0
 40
1.0
 40
1.0
 40
1.0
 40
2.0
 40
2.0
 40
2.0
 40
3.0
 40
3.0
 40
3.0
 40
4.0
 40
4.0
 40
4.0
 40
5.0
 40
5.0
 40
5.0
 40
6.0
 40
6.0
 40
6.0
 40
7.0
 40
7.0
 40
7.0
 40
8.0
 40
8.0
 40
8.0
 40
9.0
 40
9.0
 40
9.0
 40
10.0
 40
10.0
 40
10.0
 40
11.0
 40
11.0
 40
11.0
 40
12.0
 40
12.0
 40
12.0
 40
13.0
 40
13.0
 40
13.0
 40
14.0
 40
14.0
 40
14.0
 40
15.0
 40
15.0
 40
15.0
 40
16.0
 40
16.0
 40
16.0
 40
17.0
 40
17.0
 40
17.0
 40
18.0
 40
18.0
 40
18.0
 40
19.0
 40
19.0
 40
19.0
 40
20.0
 40
20.0
 40
20.0
 40
21.0
 40
21.0
 40
21.0
 40
22.0
 40
22.0
 40
22.0
 40
23.0
 40
23.0
 40
23.0
 40
24.0
 40
24.0
 40
24.0
 40
25.0
 40
25.0
 40
25.0
 40
26.0
 40
26.0
 40
26.0
 40
27.0
 40
27.0
 40
27.0
 40
28.0
 40
28.0
 40
28.0
 40
29.0
 40
29.0
 40
29.0
 40
30.0
 40
30.0
 40
30.0
 40
31.0
 40
31.0
 40
31.0
 40
32.0
 40
32.0
 40
32.0
 40
33.0
 40
33.0
 40
33.0
 40
34.0
 40
34.0
 40
34.0
 40
35.0
 40
35.0
 40
35.0
 40
36.0
 40
36.0
 40
36.0
 40
37.0
 40
37.0
 40
37.0
 40
38.0
 40
38.0
 40
38.0
 40
39.0
 40
39.0
 40
39.0
 40
40.0
 40
40.0
 40
40.0
 40
41.0
 40
41.0
 40
41.0
 40
42.0
 40
42.0
 40
42.0
 40
43.0
 40
43.0
 40
43.0
 40
44.0
 40
44.0
 40
44.0
 40
45.0
 40
45.0
 40
45.0
 40
46.0
 40
46.0
 40
46.0
 40
47.0
 40
47.0
 40
47.0
 40
48.0
 40
48.0
 40
48.0
 40
49.0
 40
49.0
 40
49.0
 40
50.0
 40
50.0
 40
50.0
 40
51.0
 40
51.0
 40
51.0
 40
52.0
 40
52.0
 40
52.0
 40
53.0
 40
53.0
 40
53.0
 40
54.0
 40
54.0
 40
54.0
 40
55.0
 40
55.0
 40
55.0
 40
56.0
 40
56.0
 40
56.0
 40
57.0
 40
57.0
 40
57.0
 40
58.0
 40
58.0
 40
58.0
 40
59.0
 40
59.0
 40
59.0
 40
60.0
 40
60.0
 40
60.0
 40
61.0
 40
61.0
 40
61.0
 40
62.0
 40
62.0
 40
62.0
 40
63.0
 40
63.0
 40
63.0
 40
64.0
 40
64.0
 40
64.0
 40
65.0
 40
65.0
 40
65.0
 40
66.0
 40
66.0
 40
66.0
 40
67.0
 40
67.0
 40
67.0
 40
68.0
 40
68.0
 40
68.0
 40
69.0
 40
69.0
 40
69.0
 40
70.0
 40
70.0
 40
70.0
 40
71.0
 40
71.0
 40
71.0
 40
72.0
 40
72.0
 40
72.0
 40
73.0
 40
73.0
 40
73.0
 40
74.0
 40
74.0
 40
74.0
 40
75.0
 40
75.0
 40
75.0
 40
76.0
 40
76.0
 40
76.0
 40
77.0
 40
77.0
 40
77.0
 40
78.0
 40
78.0
 40
78.0
 40
79.0
 40
79.0
 40
79.0
 40
80.0
 40
80.0
 40
80.0
 40
81.0
 40
81.0
 40
81.0
 40
82.0
 40
82.0
 40
82.0
 40
82.0
 10
2398.940211736162
 20
-1803.937710695252
 10
2400.657097507838
 20
-1805.380694048119
 10
2402.516228191869
 20
-1804.981112893263
 10
2404.163023557018
 20
-1804.895844239268
 10
2416.601695222062
 20
-1804.251827462562
 10
2425.127368426112
 20
-1810.64683416039
 10
2431.91900248152
 20
-1820.158808746371
 10
2437.673319873071
 20
-1828.217995507792
 10
2443.204714539823
 20
-1836.438840391402
 10
2449.064283201902
 20
-1844.419609173245
 10
2453.979223935237
 20
-1851.11378571239
 10
2454.850558544744
 20
-1858.212774830494
 10
2452.213173453425
 20
-1865.920780006936
 10
2447.152251076235
 20
-1880.711759737916
 10
2439.810000737611
 20
-1894.440422291924
 10
2431.793590654861
 20
-1907.740214833711
 10
2420.561776499928
 20
-1926.374636437942
 10
2411.620899044565
 20
-1946.268870375801
 10
2399.698430145034
 20
-1964.530455146325
 10
2391.603121645798
 20
-1976.929997894394
 10
2381.637063006967
 20
-1979.568770914555
 10
2368.374353076806
 20
-1970.694816540925
 10
2350.967011817675
 20
-1959.047780340721
 10
2334.197530625259
 20
-1946.42349988398
 10
2316.33917477129
 20
-1935.405355594894
 10
2316.089267506892
 20
-1935.251170935704
 10
2316.060459086437
 20
-1934.738633725848
 10
2315.920794298209
 20
-1934.373305943054
 10
2316.204679128301
 20
-1934.163408396622
 10
2316.493973322087
 20
-1933.766015898787
 10
2316.751354049486
 20
-1933.785713811967
 10
2326.099410680419
 20
-1934.50110216029
 10
2326.153299686806
 20
-1934.508451065567
 10
2326.499418890306
 20
-1925.132778209469
 10
2326.664182058428
 20
-1920.669519344448
 10
2326.510406660304
 20
-1916.195210430573
 10
2326.626921507204
 20
-1911.729193501831
 10
2326.708764823992
 20
-1908.592207409225
 10
2325.685727812647
 20
-1907.490174114615
 10
2322.455759384598
 20
-1908.575961524189
 10
2318.411041138299
 20
-1909.935633558611
 10
2314.248829377326
 20
-1910.946312665071
 10
2310.135559902001
 20
-1912.101336371115
 10
2308.046611333857
 20
-1912.687878658593
 10
2305.897234479203
 20
-1913.018312486778
 10
2303.827316550762
 20
-1912.264026542956
 10
2301.544983230617
 20
-1911.432354669212
 10
2299.456301571868
 20
-1909.796662734801
 10
2299.119693239735
 20
-1907.475244982581
 10
2298.692629314404
 20
-1904.530042185625
 10
2301.771251219803
 20
-1904.596662770045
 10
2303.606689246744
 20
-1903.979158993015
 10
2309.864771426108
 20
-1901.873706527424
 10
2316.155585594001
 20
-1899.843718244132
 10
2322.510475810106
 20
-1898.057347060554
 10
2325.518678120725
 20
-1897.211760310465
 10
2326.800394818512
 20
-1895.788510458698
 10
2326.036517930514
 20
-1892.654300223779
 10
2325.6705406682
 20
-1891.152703568272
 10
2325.580316396483
 20
-1889.582849284064
 10
2325.380908389185
 20
-1888.04185680219
 10
2324.053078645315
 20
-1877.780400641461
 10
2324.039804351514
 20
-1877.743638321104
 10
2314.285929782915
 20
-1881.64914552514
 10
2311.767532898872
 20
-1882.657547004784
 10
2309.352803622957
 20
-1883.935153297925
 10
2306.926721800873
 20
-1885.16087240512
 10
2304.542793868883
 20
-1886.365309936738
 10
2302.13713061534
 20
-1886.78296975446
 10
2299.664579867984
 20
-1885.544385614537
 10
2297.568033279129
 20
-1884.494150536071
 10
2295.027745376394
 20
-1883.343610907827
 10
2294.779199349896
 20
-1880.941675488802
 10
2294.511102210379
 20
-1878.350786013698
 10
2297.484641887868
 20
-1877.958660527876
 10
2299.275701779776
 20
-1877.143465860639
 10
2303.686504052146
 20
-1875.135897966336
 10
2308.157707920085
 20
-1873.174024960068
 10
2312.771699416151
 20
-1871.726183856253
 10
2316.758827512482
 20
-1870.475054974869
 10
2317.272699269301
 20
-1868.418393546266
 10
2316.086269224712
 20
-1864.760845168066
 10
2313.948111461532
 20
-1858.169250805518
 10
2310.500389453924
 20
-1852.434453387557
 10
2306.096526825766
 20
-1847.146426705083
 10
2304.272032083927
 20
-1844.95563440966
 10
2302.539007190977
 20
-1844.845845679454
 10
2300.003243402445
 20
-1845.790598165917
 10
2291.217017697711
 20
-1849.064046134037
 10
2283.009482695817
 20
-1853.403031985808
 10
2275.179224120531
 20
-1858.516944774432
 10
2270.838191963417
 20
-1861.352074137836
 10
2269.799981153096
 20
-1865.065050699924
 10
2271.143193774964
 20
-1870.077342185761
 10
2274.849599917505
 20
-1883.908070891544
 10
2281.6914752176
 20
-1896.36206315573
 10
2287.849261744161
 20
-1909.114335563257
 10
2291.667004691384
 20
-1917.020583242653
 10
2294.913370253123
 20
-1925.133240852416
 10
2296.92443466047
 20
-1933.661511974557
 10
2298.772444119806
 20
-1941.498309829965
 10
2295.879502181944
 20
-1947.198142117484
 10
2289.52128449541
 20
-1949.362990819934
 10
2284.265829655828
 20
-1951.15238697663
 10
2279.540439076221
 20
-1949.275729242478
 10
2275.033318101001
 20
-1943.394896798776
 10
2267.647027712579
 20
-1933.7574392103
 10
2262.438562271583
 20
-1922.838389481751
 10
2257.594056702745
 20
-1911.843003666885
 10
2248.125083444176
 20
-1890.35163730489
 10
2236.485522931211
 20
-1869.82489928213
 10
2228.881771451439
 20
-1847.519975297171
 10
2228.022638493612
 20
-1844.999816811134
 10
2225.211720314403
 20
-1842.000164498058
 10
2227.851507868289
 20
-1839.465681874615
 10
2230.720907841651
 20
-1836.710749886744
 10
2234.363893532174
 20
-1838.187346029135
 10
2237.735336171712
 20
-1839.355893144409
 10
2244.590246659276
 20
-1841.731867176502
 10
2250.752681857759
 20
-1845.418188387237
 10
2256.743567716812
 20
-1849.377486730886
 10
2260.79910246625
 20
-1852.057719676717
 10
2264.586626821723
 20
-1852.609492567301
 10
2269.245552514052
 20
-1850.582991900075
 10
2277.249684764736
 20
-1847.101354605631
 10
2285.508199460639
 20
-1844.196401745096
 10
2293.701432567572
 20
-1841.161446216345
 10
2297.235891230832
 20
-1839.852202263188
 10
2297.966146432327
 20
-1838.635842778698
 10
2294.68711116092
 20
-1835.834842229644
 10
2284.170498517729
 20
-1826.851419417082
 10
2271.856882800153
 20
-1821.23891988286
 10
2259.227769059156
 20
-1816.089419175208
 10
2255.782222363103
 20
-1814.6845148957
 10
2249.689657370896
 20
-1814.305023121135
 10
2252.204023923108
 20
-1808.515420307867
 10
2254.42916968162
 20
-1803.391809811306
 10
2259.064489462407
 20
-1806.724333725018
 10
2262.331144586488
 20
-1808.222015709434
 10
2277.832299035648
 20
-1815.328994315354
 10
2293.879474477986
 20
-1821.452767688304
 10
2307.15342574207
 20
-1832.695400570625
 10
2309.908580154433
 20
-1835.028936009272
 10
2319.09126862262
 20
-1831.126062311247
 10
2319.880911163995
 20
-1827.260680485913
 10
2322.369690002425
 20
-1815.077779194929
 10
2324.188339428563
 20
-1802.785106967701
 10
2325.39683398295
 20
-1790.400511145621
 10
2325.791922163027
 20
-1786.351620215817
 10
2323.521590868577
 20
-1786.342456326667
 10
2320.741791822284
 20
-1786.945546996492
 10
2313.504267832382
 20
-1788.515792747807
 10
2306.193601771896
 20
-1789.430722558121
 10
2298.7889302233
 20
-1789.579444471743
 10
2297.62383513617
 20
-1789.602852425487
 10
2296.455697281961
 20
-1789.622995187656
 10
2295.292612912255
 20
-1789.567816119201
 10
2292.686669747402
 20
-1789.444192585473
 10
2289.454881886994
 20
-1788.994138864454
 10
2289.009565807692
 20
-1786.38528638722
 10
2288.525779187921
 20
-1783.551046721793
 10
2292.052915636845
 20
-1783.515022850755
 10
2294.050523362306
 20
-1782.809839338217
 10
2304.472739050272
 20
-1779.130609020347
 10
2315.392482743244
 20
-1776.872653424736
 10
2325.264553687919
 20
-1771.606219712132
 10
2327.686720838907
 20
-1770.314075754068
 10
2329.406880699133
 20
-1768.882195831938
 10
2329.594651456909
 20
-1765.980659411627
 10
2330.560098318287
 20
-1751.062515148976
 10
2332.939826875836
 20
-1736.199914730951
 10
2332.155059879367
 20
-1721.22131549085
 10
2331.849279582091
 20
-1715.385128091573
 10
2332.917806850934
 20
-1708.306989045533
 10
2324.894510505854
 20
-1705.713345955191
 10
2323.249396669884
 20
-1705.181537887183
 10
2324.323208744701
 20
-1703.856919953003
 10
2324.819615730257
 20
-1702.850942900342
 10
2330.109332838887
 20
-1692.131136584969
 10
2336.989474048916
 20
-1682.574694894159
 10
2345.500556206169
 20
-1674.164646839032
 10
2347.420070691815
 20
-1672.267924191281
 10
2349.161565509496
 20
-1672.078745486458
 10
2351.005268830629
 20
-1673.903246901031
 10
2363.184006335088
 20
-1685.955186874231
 10
2373.301055617378
 20
-1699.466429485423
 10
2377.423844861047
 20
-1716.356971881396
 10
2380.007652340266
 20
-1726.942509426764
 10
2376.375122269141
 20
-1729.64659517532
 10
2365.840217435571
 20
-1726.909234722472
 10
2362.676540403694
 20
-1726.087180483842
 10
2359.397914393352
 20
-1721.984222608051
 10
2356.83986367053
 20
-1724.279536621663
 10
2354.685433331377
 20
-1726.212699074258
 10
2354.794216702869
 20
-1730.733307870789
 10
2354.030001729638
 20
-1734.137488059463
 10
2352.253470605674
 20
-1742.050977880382
 10
2350.554707981764
 20
-1749.981914678603
 10
2348.663165600477
 20
-1758.644325564542
 10
2352.796293134621
 20
-1757.500440877156
 10
2355.22735726537
 20
-1754.776034426832
 10
2357.958222922995
 20
-1752.638170263984
 10
2362.540825874477
 20
-1749.050650013451
 10
2366.940320085576
 20
-1745.228827801013
 10
2371.531989059427
 20
-1741.653451927847
 10
2374.914060253408
 20
-1739.019954816686
 10
2378.00394573518
 20
-1739.634193402144
 10
2380.576792135338
 20
-1743.037332644188
 10
2381.161483851023
 20
-1743.810711506565
 10
2381.855821945237
 20
-1744.502807561883
 10
2382.422257058462
 20
-1745.288143965055
 10
2392.674104481057
 20
-1759.501522873215
 10
2391.919854125156
 20
-1762.124930809336
 10
2376.041894789314
 20
-1768.561735518062
 10
2366.668713087545
 20
-1772.361555499563
 10
2357.162058895459
 20
-1775.776687870318
 10
2347.356039128501
 20
-1778.227343150491
 10
2342.995220088409
 20
-1779.317178685855
 10
2340.313608110717
 20
-1781.285163917219
 10
2339.030138707918
 20
-1785.877945013541
 10
2336.996556044805
 20
-1793.154998284502
 10
2334.200751331931
 20
-1800.216904790977
 10
2331.828167049125
 20
-1807.403102104657
 10
2331.304392953838
 20
-1808.989540359129
 10
2329.799104051732
 20
-1811.026414904754
 10
2331.214195373059
 20
-1812.285284158526
 10
2332.8157229052
 20
-1813.709993114972
 10
2334.813246109357
 20
-1811.952732849157
 10
2336.46088668758
 20
-1811.233358653906
 10
2347.405372881256
 20
-1806.454968765887
 10
2356.918192680312
 20
-1799.358666535674
 10
2366.421412638212
 20
-1792.296635471484
 10
2374.683984356887
 20
-1786.156580625578
 10
2382.939776576981
 20
-1780.033412247252
 10
2391.571252664309
 20
-1774.399266361284
 10
2394.736851443815
 20
-1772.332951709643
 10
2396.782071356449
 20
-1772.668812695479
 10
2399.048559155644
 20
-1775.248616533809
 10
2400.328478663521
 20
-1776.705452484159
 10
2401.781159724325
 20
-1778.010176771597
 10
2403.066613153611
 20
-1779.462573129047
 10
2410.634989129745
 20
-1788.013887428762
 10
2410.409432898939
 20
-1792.438328771099
 10
2402.087447149448
 20
-1800.134767873856
 10
2400.971196481185
 20
-1801.167120023009
 10
2399.497910015265
 20
-1801.899412632869
 10
2398.940211736162
 20
-1803.937710695252
 97
        0
 97
        1
330
82
 75
     2
 76
     1
 98
        1
 10
0.0
 20
0.0
450
        0
451
        0
460
0.0
461
0.0
452
        0
462
0.0
453
        0
470

  0
ENDSEC
  0
SECTION
  2
OBJECTS
  0
DICTIONARY
  5
C
330
0
100
AcDbDictionary
281
     1
  3
ACAD_COLOR
350
63
  3
ACAD_DETAILVIEWSTYLE
350
6A
  3
ACAD_GROUP
350
D
  3
ACAD_LAYOUT
350
62
  3
ACAD_MATERIAL
350
10
  3
ACAD_MLEADERSTYLE
350
66
  3
ACAD_MLINESTYLE
350
5F
  3
ACAD_PLOTSETTINGS
350
61
  3
ACAD_PLOTSTYLENAME
350
E
  3
ACAD_SCALELIST
350
42
  3
ACAD_SECTIONVIEWSTYLE
350
68
  3
ACAD_TABLESTYLE
350
64
  3
ACAD_VISUALSTYLE
350
29
  3
ACDB_RECOMPOSE_DATA
350
8C
  3
AcDbVariableDictionary
350
84
  0
DICTIONARY
  5
63
102
{ACAD_REACTORS
330
C
102
}
330
C
100
AcDbDictionary
281
     1
  0
DICTIONARY
  5
6A
102
{ACAD_REACTORS
330
C
102
}
330
C
100
AcDbDictionary
281
     1
  3
Imperial24
350
6B
  0
DICTIONARY
  5
D
102
{ACAD_REACTORS
330
C
102
}
330
C
100
AcDbDictionary
281
     1
  0
DICTIONARY
  5
62
102
{ACAD_REACTORS
330
C
102
}
330
C
100
AcDbDictionary
281
     1
  3
Layout1
350
6F
  3
Layout2
350
77
  3
Model
350
73
  0
DICTIONARY
  5
10
102
{ACAD_REACTORS
330
C
102
}
330
C
100
AcDbDictionary
281
     1
  3
ByBlock
350
19
  3
ByLayer
350
11
  3
Global
350
21
  0
DICTIONARY
  5
66
102
{ACAD_REACTORS
330
C
102
}
330
C
100
AcDbDictionary
281
     1
  3
Standard
350
67
  0
DICTIONARY
  5
5F
102
{ACAD_REACTORS
330
C
102
}
330
C
100
AcDbDictionary
281
     1
  3
Standard
350
60
  0
DICTIONARY
  5
61
102
{ACAD_REACTORS
330
C
102
}
330
C
100
AcDbDictionary
281
     1
  0
ACDBDICTIONARYWDFLT
  5
E
102
{ACAD_REACTORS
330
C
102
}
330
C
100
AcDbDictionary
281
     1
  3
Normal
350
F
100
AcDbDictionaryWithDefault
340
F
  0
DICTIONARY
  5
42
102
{ACAD_REACTORS
330
C
102
}
330
C
100
AcDbDictionary
281
     1
  3
A0
350
43
  3
A1
350
44
  3
A2
350
45
  3
A3
350
46
  3
A4
350
47
  3
A5
350
48
  3
A6
350
49
  3
A7
350
4A
  3
A8
350
4B
  3
A9
350
4C
  3
B0
350
4D
  3
B1
350
4E
  3
B2
350
4F
  3
B3
350
50
  3
B4
350
51
  3
B5
350
52
  3
B6
350
53
  0
DICTIONARY
  5
68
102
{ACAD_REACTORS
330
C
102
}
330
C
100
AcDbDictionary
281
     1
  3
Imperial24
350
69
  0
DICTIONARY
  5
64
102
{ACAD_REACTORS
330
C
102
}
330
C
100
AcDbDictionary
281
     1
  3
Standard
350
65
  0
DICTIONARY
  5
29
102
{ACAD_REACTORS
330
C
102
}
330
C
100
AcDbDictionary
281
     1
  3
2dWireframe
350
2F
  3
Basic
350
2E
  3
Brighten
350
35
  3
ColorChange
350
39
  3
Conceptual
350
32
  3
Dim
350
34
  3
EdgeColorOff
350
41
  3
Facepattern
350
38
  3
Flat
350
2A
  3
FlatWithEdges
350
2B
  3
Gouraud
350
2C
  3
GouraudWithEdges
350
2D
  3
Hidden
350
31
  3
JitterOff
350
3F
  3
Linepattern
350
37
  3
OverhangOff
350
40
  3
Realistic
350
33
  3
Shaded
350
3E
  3
Shaded with edges
350
3D
  3
Shades of Gray
350
3A
  3
Sketchy
350
3B
  3
Thicken
350
36
  3
Wireframe
350
30
  3
X-Ray
350
3C
  0
XRECORD
  5
8C
102
{ACAD_REACTORS
330
C
102
}
330
C
100
AcDbXrecord
280
     1
 90
        1
330
65
  0
DICTIONARY
  5
84
102
{ACAD_REACTORS
330
C
102
}
330
C
100
AcDbDictionary
281
     1
  3
CANNOSCALE
350
89
  3
CMLEADERSTYLE
350
86
  3
CTABLESTYLE
350
85
  3
CVIEWDETAILSTYLE
350
87
  3
CVIEWSECTIONSTYLE
350
88
  0
ACDBDETAILVIEWSTYLE
  5
6B
102
{ACAD_REACTORS
330
6A
102
}
330
6A
100
AcDbModelDocViewStyle
 70
     0
  3
Imperial24
290
     1
300
Imperial24
 90
        0
100
AcDbDetailViewStyle
 70
     0
 71
     0
 90
        3
 71
     1
340
55
 62
   256
 40
0.24
340
0
 62
   256
 40
0.24
300

 40
0.36
280
     3
 71
     2
340
5D
 90
       25
 62
   256
 71
     3
340
55
 62
   256
 40
0.24
 90
        1
 40
0.75
 90
        1
300
%<\AcVar ViewType \f "%tc1">% %<\AcVar ViewDetailId>%\PSCALE %<\AcVar ViewScale \f "%sn">%
 71
     4
340
5D
 90
       25
 62
   256
340
5D
 90
       25
 62
   256
280
     0
  0
LAYOUT
  5
6F
102
{ACAD_REACTORS
330
62
102
}
330
62
100
AcDbPlotSettings
  1

  2

  4

  6

 40
0.0
 41
0.0
 42
0.0
 43
0.0
 44
0.0
 45
0.0
 46
0.0
 47
0.0
 48
0.0
 49
0.0
140
0.0
141
0.0
142
1.0
143
1.0
 70
   688
 72
     0
 73
     0
 74
     5
  7

 75
    16
147
1.0
 76
     0
 77
     2
 78
   300
148
0.0
149
0.0
100
AcDbLayout
  1
Layout1
 70
     1
 71
     1
 10
0.0
 20
0.0
 11
12.0
 21
9.0
 12
0.0
 22
0.0
 32
0.0
 14
0.0
 24
0.0
 34
0.0
 15
0.0
 25
0.0
 35
0.0
146
0.0
 13
0.0
 23
0.0
 33
0.0
 16
1.0
 26
0.0
 36
0.0
 17
0.0
 27
1.0
 37
0.0
 76
     0
330
6C
  0
LAYOUT
  5
77
102
{ACAD_REACTORS
330
62
102
}
330
62
100
AcDbPlotSettings
  1

  2

  4

  6

 40
0.0
 41
0.0
 42
0.0
 43
0.0
 44
0.0
 45
0.0
 46
0.0
 47
0.0
 48
0.0
 49
0.0
140
0.0
141
0.0
142
1.0
143
1.0
 70
   688
 72
     0
 73
     0
 74
     5
  7

 75
    16
147
1.0
 76
     0
 77
     2
 78
   300
148
0.0
149
0.0
100
AcDbLayout
  1
Layout2
 70
     1
 71
     2
 10
0.0
 20
0.0
 11
12.0
 21
9.0
 12
0.0
 22
0.0
 32
0.0
 14
0.0
 24
0.0
 34
0.0
 15
0.0
 25
0.0
 35
0.0
146
0.0
 13
0.0
 23
0.0
 33
0.0
 16
1.0
 26
0.0
 36
0.0
 17
0.0
 27
1.0
 37
0.0
 76
     0
330
74
  0
LAYOUT
  5
73
102
{ACAD_REACTORS
330
62
102
}
330
62
100
AcDbPlotSettings
  1

  2

  4

  6

 40
0.0
 41
0.0
 42
0.0
 43
0.0
 44
0.0
 45
0.0
 46
0.0
 47
0.0
 48
0.0
 49
0.0
140
0.0
141
0.0
142
1.0
143
1.0
 70
  1712
 72
     0
 73
     0
 74
     0
  7

 75
     0
147
1.0
 76
     0
 77
     2
 78
   300
148
0.0
149
0.0
100
AcDbLayout
  1
Model
 70
     1
 71
     0
 10
0.0
 20
0.0
 11
12.0
 21
9.0
 12
0.0
 22
0.0
 32
0.0
 14
0.0
 24
0.0
 34
0.0
 15
0.0
 25
0.0
 35
0.0
146
0.0
 13
0.0
 23
0.0
 33
0.0
 16
1.0
 26
0.0
 36
0.0
 17
0.0
 27
1.0
 37
0.0
 76
     0
330
70
  0
MATERIAL
  5
19
102
{ACAD_XDICTIONARY
360
1A
102
}
102
{ACAD_REACTORS
330
10
102
}
330
10
100
AcDbMaterial
  1
ByBlock
 72
     0
 43
0.0208333333333333
 43
0.0
 43
0.0
 43
0.0
 43
0.0
 43
0.0208333333333333
 43
0.0
 43
0.0
 43
0.0
 43
0.0
 43
1.0
 43
0.0
 43
0.0
 43
0.0
 43
0.0
 43
1.0
 77
     0
 47
0.0208333333333333
 47
0.0
 47
0.0
 47
0.0
 47
0.0
 47
0.0208333333333333
 47
0.0
 47
0.0
 47
0.0
 47
0.0
 47
1.0
 47
0.0
 47
0.0
 47
0.0
 47
0.0
 47
1.0
171
     0
 49
0.0208333333333333
 49
0.0
 49
0.0
 49
0.0
 49
0.0
 49
0.0208333333333333
 49
0.0
 49
0.0
 49
0.0
 49
0.0
 49
1.0
 49
0.0
 49
0.0
 49
0.0
 49
0.0
 49
1.0
175
     0
142
0.0208333333333333
142
0.0
142
0.0
142
0.0
142
0.0
142
0.0208333333333333
142
0.0
142
0.0
142
0.0
142
0.0
142
1.0
142
0.0
142
0.0
142
0.0
142
0.0
142
1.0
179
     0
144
0.0208333333333333
144
0.0
144
0.0
144
0.0
144
0.0
144
0.0208333333333333
144
0.0
144
0.0
144
0.0
144
0.0
144
1.0
144
0.0
144
0.0
144
0.0
144
0.0
144
1.0
147
0.0208333333333333
147
0.0
147
0.0
147
0.0
147
0.0
147
0.0208333333333333
147
0.0
147
0.0
147
0.0
147
0.0
147
1.0
147
0.0
147
0.0
147
0.0
147
0.0
147
1.0
  0
MATERIAL
  5
11
102
{ACAD_XDICTIONARY
360
12
102
}
102
{ACAD_REACTORS
330
10
102
}
330
10
100
AcDbMaterial
  1
ByLayer
 72
     0
 43
0.0208333333333333
 43
0.0
 43
0.0
 43
0.0
 43
0.0
 43
0.0208333333333333
 43
0.0
 43
0.0
 43
0.0
 43
0.0
 43
1.0
 43
0.0
 43
0.0
 43
0.0
 43
0.0
 43
1.0
 77
     0
 47
0.0208333333333333
 47
0.0
 47
0.0
 47
0.0
 47
0.0
 47
0.0208333333333333
 47
0.0
 47
0.0
 47
0.0
 47
0.0
 47
1.0
 47
0.0
 47
0.0
 47
0.0
 47
0.0
 47
1.0
171
     0
 49
0.0208333333333333
 49
0.0
 49
0.0
 49
0.0
 49
0.0
 49
0.0208333333333333
 49
0.0
 49
0.0
 49
0.0
 49
0.0
 49
1.0
 49
0.0
 49
0.0
 49
0.0
 49
0.0
 49
1.0
175
     0
142
0.0208333333333333
142
0.0
142
0.0
142
0.0
142
0.0
142
0.0208333333333333
142
0.0
142
0.0
142
0.0
142
0.0
142
1.0
142
0.0
142
0.0
142
0.0
142
0.0
142
1.0
179
     0
144
0.0208333333333333
144
0.0
144
0.0
144
0.0
144
0.0
144
0.0208333333333333
144
0.0
144
0.0
144
0.0
144
0.0
144
1.0
144
0.0
144
0.0
144
0.0
144
0.0
144
1.0
147
0.0208333333333333
147
0.0
147
0.0
147
0.0
147
0.0
147
0.0208333333333333
147
0.0
147
0.0
147
0.0
147
0.0
147
1.0
147
0.0
147
0.0
147
0.0
147
0.0
147
1.0
  0
MATERIAL
  5
21
102
{ACAD_XDICTIONARY
360
22
102
}
102
{ACAD_REACTORS
330
10
102
}
330
10
100
AcDbMaterial
  1
Global
 72
     0
 43
0.0208333333333333
 43
0.0
 43
0.0
 43
0.0
 43
0.0
 43
0.0208333333333333
 43
0.0
 43
0.0
 43
0.0
 43
0.0
 43
1.0
 43
0.0
 43
0.0
 43
0.0
 43
0.0
 43
1.0
 77
     0
 47
0.0208333333333333
 47
0.0
 47
0.0
 47
0.0
 47
0.0
 47
0.0208333333333333
 47
0.0
 47
0.0
 47
0.0
 47
0.0
 47
1.0
 47
0.0
 47
0.0
 47
0.0
 47
0.0
 47
1.0
171
     0
 49
0.0208333333333333
 49
0.0
 49
0.0
 49
0.0
 49
0.0
 49
0.0208333333333333
 49
0.0
 49
0.0
 49
0.0
 49
0.0
 49
1.0
 49
0.0
 49
0.0
 49
0.0
 49
0.0
 49
1.0
175
     0
142
0.0208333333333333
142
0.0
142
0.0
142
0.0
142
0.0
142
0.0208333333333333
142
0.0
142
0.0
142
0.0
142
0.0
142
1.0
142
0.0
142
0.0
142
0.0
142
0.0
142
1.0
179
     0
144
0.0208333333333333
144
0.0
144
0.0
144
0.0
144
0.0
144
0.0208333333333333
144
0.0
144
0.0
144
0.0
144
0.0
144
1.0
144
0.0
144
0.0
144
0.0
144
0.0
144
1.0
147
0.0208333333333333
147
0.0
147
0.0
147
0.0
147
0.0
147
0.0208333333333333
147
0.0
147
0.0
147
0.0
147
0.0
147
1.0
147
0.0
147
0.0
147
0.0
147
0.0
147
1.0
  0
MLEADERSTYLE
  5
67
102
{ACAD_REACTORS
330
66
102
}
330
66
100
AcDbMLeaderStyle
179
     2
170
     2
171
     1
172
     0
 90
        2
 40
0.0
 41
0.0
173
     1
 91
-1056964608
340
5B
 92
       -2
290
     1
 42
0.09
291
     1
 43
0.36
  3
Standard
 44
0.18
300

342
55
174
     1
178
     6
175
     1
176
     0
 93
-1056964608
 45
0.18
292
     0
297
     0
 46
0.18
 94
-1056964608
 47
1.0
 49
1.0
140
1.0
293
     1
141
0.0
294
     1
177
     0
142
1.0
295
     1
296
     0
143
0.125
271
     0
272
     9
273
     9
298
     1
  0
MLINESTYLE
  5
60
102
{ACAD_REACTORS
330
5F
102
}
330
5F
100
AcDbMlineStyle
  2
STANDARD
 70
     0
  3

 62
   256
 51
90.0
 52
90.0
 71
     2
 49
0.5
 62
   256
  6
BYLAYER
 49
-0.5
 62
   256
  6
BYLAYER
  0
ACDBPLACEHOLDER
  5
F
102
{ACAD_REACTORS
330
E
102
}
330
E
  0
SCALE
  5
43
102
{ACAD_REACTORS
330
42
102
}
330
42
100
AcDbScale
 70
     0
300
1:1
140
1.0
141
1.0
290
     1
  0
SCALE
  5
44
102
{ACAD_REACTORS
330
42
102
}
330
42
100
AcDbScale
 70
     0
300
1/128" = 1'-0"
140
0.0078125
141
12.0
290
     0
  0
SCALE
  5
45
102
{ACAD_REACTORS
330
42
102
}
330
42
100
AcDbScale
 70
     0
300
1/64" = 1'-0"
140
0.015625
141
12.0
290
     0
  0
SCALE
  5
46
102
{ACAD_REACTORS
330
42
102
}
330
42
100
AcDbScale
 70
     0
300
1/32" = 1'-0"
140
0.03125
141
12.0
290
     0
  0
SCALE
  5
47
102
{ACAD_REACTORS
330
42
102
}
330
42
100
AcDbScale
 70
     0
300
1/16" = 1'-0"
140
0.0625
141
12.0
290
     0
  0
SCALE
  5
48
102
{ACAD_REACTORS
330
42
102
}
330
42
100
AcDbScale
 70
     0
300
3/32" = 1'-0"
140
0.09375
141
12.0
290
     0
  0
SCALE
  5
49
102
{ACAD_REACTORS
330
42
102
}
330
42
100
AcDbScale
 70
     0
300
1/8" = 1'-0"
140
0.125
141
12.0
290
     0
  0
SCALE
  5
4A
102
{ACAD_REACTORS
330
42
102
}
330
42
100
AcDbScale
 70
     0
300
3/16" = 1'-0"
140
0.1875
141
12.0
290
     0
  0
SCALE
  5
4B
102
{ACAD_REACTORS
330
42
102
}
330
42
100
AcDbScale
 70
     0
300
1/4" = 1'-0"
140
0.25
141
12.0
290
     0
  0
SCALE
  5
4C
102
{ACAD_REACTORS
330
42
102
}
330
42
100
AcDbScale
 70
     0
300
3/8" = 1'-0"
140
0.375
141
12.0
290
     0
  0
SCALE
  5
4D
102
{ACAD_REACTORS
330
42
102
}
330
42
100
AcDbScale
 70
     0
300
1/2" = 1'-0"
140
0.5
141
12.0
290
     0
  0
SCALE
  5
4E
102
{ACAD_REACTORS
330
42
102
}
330
42
100
AcDbScale
 70
     0
300
3/4" = 1'-0"
140
0.75
141
12.0
290
     0
  0
SCALE
  5
4F
102
{ACAD_REACTORS
330
42
102
}
330
42
100
AcDbScale
 70
     0
300
1" = 1'-0"
140
1.0
141
12.0
290
     0
  0
SCALE
  5
50
102
{ACAD_REACTORS
330
42
102
}
330
42
100
AcDbScale
 70
     0
300
1-1/2" = 1'-0"
140
1.5
141
12.0
290
     0
  0
SCALE
  5
51
102
{ACAD_REACTORS
330
42
102
}
330
42
100
AcDbScale
 70
     0
300
3" = 1'-0"
140
3.0
141
12.0
290
     0
  0
SCALE
  5
52
102
{ACAD_REACTORS
330
42
102
}
330
42
100
AcDbScale
 70
     0
300
6" = 1'-0"
140
6.0
141
12.0
290
     0
  0
SCALE
  5
53
102
{ACAD_REACTORS
330
42
102
}
330
42
100
AcDbScale
 70
     0
300
1'-0" = 1'-0"
140
12.0
141
12.0
290
     0
  0
ACDBSECTIONVIEWSTYLE
  5
69
102
{ACAD_REACTORS
330
68
102
}
330
68
100
AcDbModelDocViewStyle
 70
     0
  3
Imperial24
290
     1
300
Imperial24
 90
        0
100
AcDbSectionViewStyle
 70
     0
 71
     0
 90
       78
 71
     1
340
55
 62
   256
 40
0.24
340
0
340
0
 62
   256
 40
0.24
300
I, O, Q, S, X, Z
 40
0.48
 90
        3
 40
0.18
 90
        1
 71
     2
340
5D
 90
       25
 62
   256
340
5D
 90
       50
 62
   256
 40
0.24
 40
0.0
 40
0.24
 71
     3
340
55
 62
   256
 40
0.24
 90
        1
 40
0.75
 90
        1
300
%<\AcVar ViewType \f "%tc1">% %<\AcVar ViewSectionStartId>%-%<\AcVar ViewSectionEndId>%\PSCALE %<\AcVar ViewScale \f "%sn">%
 71
     4
 62
   256
 62
   257
300
ANSI31
 40
1.0
 90
        0
290
     0
290
     0
 90
        6
 40
0.0
 40
1.570796326794896
 40
0.2617993877991494
 40
1.308996938995747
 40
-0.2617993877991494
 40
1.832595714594046
  0
TABLESTYLE
  5
65
102
{ACAD_XDICTIONARY
360
8A
102
}
102
{ACAD_REACTORS
330
64
102
}
330
64
100
AcDbTableStyle
280
     0
  3
Standard
 70
     0
 71
     0
 40
0.06
 41
0.06
280
     0
281
     0
  7
Standard
140
0.18
170
     2
 62
     0
 63
     7
283
     0
 90
      512
 91
        0
  1

274
    -2
284
     1
 64
     0
275
    -2
285
     1
 65
     0
276
    -2
286
     1
 66
     0
277
    -2
287
     1
 67
     0
278
    -2
288
     1
 68
     0
279
    -2
289
     1
 69
     0
  7
Standard
140
0.25
170
     5
 62
     0
 63
     7
283
     0
 90
      512
 91
        0
  1

274
    -2
284
     1
 64
     0
275
    -2
285
     1
 65
     0
276
    -2
286
     1
 66
     0
277
    -2
287
     1
 67
     0
278
    -2
288
     1
 68
     0
279
    -2
289
     1
 69
     0
  7
Standard
140
0.18
170
     5
 62
     0
 63
     7
283
     0
 90
      512
 91
        0
  1

274
    -2
284
     1
 64
     0
275
    -2
285
     1
 65
     0
276
    -2
286
     1
 66
     0
277
    -2
287
     1
 67
     0
278
    -2
288
     1
 68
     0
279
    -2
289
     1
 69
     0
  0
VISUALSTYLE
  5
2F
102
{ACAD_REACTORS
330
29
102
}
330
29
100
AcDbVisualStyle
  2
2dWireframe
 70
     4
177
     3
291
     0
 70
    58
 90
        0
176
     1
 90
        2
176
     1
 90
        0
176
     1
 90
        0
176
     1
 40
0.6
176
     1
 40
30.0
176
     1
 62
     7
420
 16777215
176
     1
 90
        1
176
     1
 90
        4
176
     1
 62
     7
176
     1
 62
   257
176
     1
 90
        1
176
     1
 90
        1
176
     1
 40
1.0
176
     1
 90
        0
176
     1
 62
   257
176
     1
 40
1.0
176
     1
 90
        1
176
     1
 90
        6
176
     1
 90
        2
176
     1
 62
     7
176
     1
 90
        5
176
     1
 90
        0
176
     1
 90
        0
176
     1
290
     0
176
     1
 90
        1
176
     1
 40
0.0
176
     1
 90
        0
176
     1
290
     1
176
     1
290
     1
176
     1
290
     0
176
     1
290
     0
176
     1
290
     0
176
     1
290
     0
176
     1
290
     0
176
     1
290
     0
176
     1
290
     0
176
     1
 90
       50
176
     1
 40
0.0
176
     1
 40
1.0
176
     1
 90
        0
176
     1
 62
    18
420
        0
176
     1
 90
       50
176
     1
 90
        3
176
     1
 62
     5
420
      255
176
     1
290
     0
176
     1
 90
       50
176
     1
 90
       50
176
     1
 90
       50
176
     1
290
     0
176
     1
 90
       50
176
     1
 62
   256
176
     0
 40
1.0
176
     0
 90
        2
176
     1
  1
strokes_ogs.tif
176
     1
290
     0
176
     1
 40
1.0
176
     1
 40
1.0
176
     1
  0
VISUALSTYLE
  5
2E
102
{ACAD_REACTORS
330
29
102
}
330
29
100
AcDbVisualStyle
  2
Basic
 70
     7
177
     3
291
     1
 70
    58
 90
        1
176
     1
 90
        0
176
     1
 90
        1
176
     1
 90
        0
176
     1
 40
0.6
176
     1
 40
30.0
176
     1
 62
     7
420
 16777215
176
     1
 90
        0
176
     1
 90
        4
176
     1
 62
     7
176
     1
 62
   257
176
     1
 90
        1
176
     1
 90
        1
176
     1
 40
1.0
176
     1
 90
        8
176
     1
 62
     7
176
     1
 40
1.0
176
     1
 90
        1
176
     1
 90
        6
176
     1
 90
        2
176
     1
 62
     7
176
     1
 90
        5
176
     1
 90
        0
176
     1
 90
        0
176
     1
290
     0
176
     1
 90
        1
176
     1
 40
0.0
176
     1
 90
        0
176
     1
290
     0
176
     1
290
     1
176
     1
290
     1
176
     1
290
     0
176
     1
290
     0
176
     1
290
     0
176
     1
290
     0
176
     1
290
     0
176
     1
290
     0
176
     1
 90
       50
176
     1
 40
0.0
176
     1
 40
1.0
176
     1
 90
        0
176
     1
 62
    18
420
        0
176
     1
 90
       50
176
     1
 90
        3
176
     1
 62
     5
420
      255
176
     1
290
     0
176
     1
 90
       50
176
     1
 90
       50
176
     1
 90
       50
176
     1
290
     0
176
     1
 90
       50
176
     1
 62
   256
176
     0
 40
1.0
176
     0
 90
        2
176
     1
  1
strokes_ogs.tif
176
     1
290
     0
176
     1
 40
1.0
176
     1
 40
1.0
176
     1
  0
VISUALSTYLE
  5
35
102
{ACAD_REACTORS
330
29
102
}
330
29
100
AcDbVisualStyle
  2
Brighten
 70
    12
177
     3
291
     1
 70
    58
 90
        2
176
     1
 90
        2
176
     1
 90
        0
176
     1
 90
        0
176
     1
 40
0.6
176
     1
 40
30.0
176
     1
 62
     7
420
 16777215
176
     1
 90
        1
176
     1
 90
        4
176
     1
 62
     7
176
     1
 62
   257
176
     1
 90
        1
176
     1
 90
        1
176
     1
 40
1.0
176
     1
 90
        8
176
     1
 62
     7
176
     1
 40
1.0
176
     1
 90
        1
176
     1
 90
        6
176
     1
 90
        2
176
     1
 62
     7
176
     1
 90
        5
176
     1
 90
        0
176
     1
 90
        0
176
     1
290
     0
176
     1
 90
        1
176
     1
 40
50.0
176
     1
 90
        0
176
     1
290
     0
176
     1
290
     1
176
     1
290
     1
176
     1
290
     0
176
     1
290
     0
176
     1
290
     0
176
     1
290
     0
176
     1
290
     0
176
     1
290
     0
176
     1
 90
       50
176
     1
 40
0.0
176
     1
 40
1.0
176
     1
 90
        0
176
     1
 62
    18
420
        0
176
     1
 90
       50
176
     1
 90
        3
176
     1
 62
     5
420
      255
176
     1
290
     0
176
     1
 90
       50
176
     1
 90
       50
176
     1
 90
       50
176
     1
290
     0
176
     1
 90
       50
176
     1
 62
   256
176
     0
 40
1.0
176
     0
 90
        2
176
     1
  1
strokes_ogs.tif
176
     1
290
     0
176
     1
 40
1.0
176
     1
 40
1.0
176
     1
  0
VISUALSTYLE
  5
39
102
{ACAD_REACTORS
330
29
102
}
330
29
100
AcDbVisualStyle
  2
ColorChange
 70
    16
177
     3
291
     1
 70
    58
 90
        2
176
     1
 90
        2
176
     1
 90
        3
176
     1
 90
        0
176
     1
 40
0.6
176
     1
 40
30.0
176
     1
 62
     8
420
  8421504
176
     1
 90
        1
176
     1
 90
        4
176
     1
 62
     7
176
     1
 62
   257
176
     1
 90
        1
176
     1
 90
        1
176
     1
 40
1.0
176
     1
 90
        8
176
     1
 62
     8
420
  8421504
176
     1
 40
1.0
176
     1
 90
        1
176
     1
 90
        6
176
     1
 90
        2
176
     1
 62
     7
176
     1
 90
        5
176
     1
 90
        0
176
     1
 90
        0
176
     1
290
     0
176
     1
 90
        1
176
     1
 40
0.0
176
     1
 90
        0
176
     1
290
     0
176
     1
290
     1
176
     1
290
     1
176
     1
290
     0
176
     1
290
     0
176
     1
290
     0
176
     1
290
     0
176
     1
290
     0
176
     1
290
     0
176
     1
 90
       50
176
     1
 40
0.0
176
     1
 40
1.0
176
     1
 90
        0
176
     1
 62
    18
420
        0
176
     1
 90
       50
176
     1
 90
        3
176
     1
 62
     5
420
      255
176
     1
290
     0
176
     1
 90
       50
176
     1
 90
       50
176
     1
 90
       50
176
     1
290
     0
176
     1
 90
       50
176
     1
 62
   256
176
     0
 40
1.0
176
     0
 90
        2
176
     1
  1
strokes_ogs.tif
176
     1
290
     0
176
     1
 40
1.0
176
     1
 40
1.0
176
     1
  0
VISUALSTYLE
  5
32
102
{ACAD_REACTORS
330
29
102
}
330
29
100
AcDbVisualStyle
  2
Conceptual
 70
     9
177
     3
291
     0
 70
    58
 90
        3
176
     1
 90
        2
176
     1
 90
        0
176
     1
 90
        0
176
     1
 40
0.6
176
     1
 40
30.0
176
     1
 62
     7
420
 16777215
176
     1
 90
        2
176
     1
 90
        2
176
     1
 62
     7
176
     1
 62
   257
176
     1
 90
        1
176
     1
 90
        1
176
     1
 40
179.0
176
     1
 90
        8
176
     1
 62
     7
176
     1
 40
1.0
176
     1
 90
        1
176
     1
 90
        6
176
     1
 90
        2
176
     1
 62
     7
176
     1
 90
        3
176
     1
 90
        0
176
     1
 90
        0
176
     1
290
     0
176
     1
 90
        1
176
     1
 40
0.0
176
     1
 90
        0
176
     1
290
     0
176
     1
290
     1
176
     1
290
     1
176
     1
290
     0
176
     1
290
     0
176
     1
290
     0
176
     1
290
     0
176
     1
290
     0
176
     1
290
     0
176
     1
 90
       50
176
     1
 40
0.0
176
     1
 40
1.0
176
     1
 90
        0
176
     1
 62
    18
420
        0
176
     1
 90
       50
176
     1
 90
        3
176
     1
 62
     5
420
      255
176
     1
290
     0
176
     1
 90
       50
176
     1
 90
       50
176
     1
 90
       50
176
     1
290
     0
176
     1
 90
       50
176
     1
 62
   256
176
     0
 40
1.0
176
     0
 90
        2
176
     1
  1
strokes_ogs.tif
176
     1
290
     0
176
     1
 40
1.0
176
     1
 40
1.0
176
     1
  0
VISUALSTYLE
  5
34
102
{ACAD_REACTORS
330
29
102
}
330
29
100
AcDbVisualStyle
  2
Dim
 70
    11
177
     3
291
     1
 70
    58
 90
        2
176
     1
 90
        2
176
     1
 90
        0
176
     1
 90
        0
176
     1
 40
0.6
176
     1
 40
30.0
176
     1
 62
     7
420
 16777215
176
     1
 90
        1
176
     1
 90
        4
176
     1
 62
     7
176
     1
 62
   257
176
     1
 90
        1
176
     1
 90
        1
176
     1
 40
1.0
176
     1
 90
        8
176
     1
 62
     7
176
     1
 40
1.0
176
     1
 90
        1
176
     1
 90
        6
176
     1
 90
        2
176
     1
 62
     7
176
     1
 90
        5
176
     1
 90
        0
176
     1
 90
        0
176
     1
290
     0
176
     1
 90
        1
176
     1
 40
-50.0
176
     1
 90
        0
176
     1
290
     0
176
     1
290
     1
176
     1
290
     1
176
     1
290
     0
176
     1
290
     0
176
     1
290
     0
176
     1
290
     0
176
     1
290
     0
176
     1
290
     0
176
     1
 90
       50
176
     1
 40
0.0
176
     1
 40
1.0
176
     1
 90
        0
176
     1
 62
    18
420
        0
176
     1
 90
       50
176
     1
 90
        3
176
     1
 62
     5
420
      255
176
     1
290
     0
176
     1
 90
       50
176
     1
 90
       50
176
     1
 90
       50
176
     1
290
     0
176
     1
 90
       50
176
     1
 62
   256
176
     0
 40
1.0
176
     0
 90
        2
176
     1
  1
strokes_ogs.tif
176
     1
290
     0
176
     1
 40
1.0
176
     1
 40
1.0
176
     1
  0
VISUALSTYLE
  5
41
102
{ACAD_REACTORS
330
29
102
}
330
29
100
AcDbVisualStyle
  2
EdgeColorOff
 70
    22
177
     3
291
     1
 70
    58
 90
        2
176
     0
 90
        2
176
     0
 90
        0
176
     0
 90
        0
176
     0
 40
0.6
176
     0
 40
30.0
176
     0
 62
     7
420
 16777215
176
     0
 90
        1
176
     0
 90
        4
176
     0
 62
     7
176
     0
 62
   257
176
     0
 90
        1
176
     0
 90
        1
176
     0
 40
1.0
176
     0
 90
        8
176
     2
 62
     7
176
     0
 40
1.0
176
     0
 90
        1
176
     0
 90
        6
176
     0
 90
        2
176
     0
 62
     7
176
     0
 90
        5
176
     0
 90
        0
176
     0
 90
        0
176
     0
290
     0
176
     0
 90
        1
176
     0
 40
0.0
176
     0
 90
        0
176
     0
290
     0
176
     0
290
     1
176
     0
290
     1
176
     0
290
     0
176
     0
290
     0
176
     0
290
     0
176
     0
290
     0
176
     0
290
     0
176
     0
290
     0
176
     0
 90
       50
176
     0
 40
0.0
176
     0
 40
1.0
176
     0
 90
        0
176
     0
 62
    18
420
        0
176
     0
 90
       50
176
     0
 90
        3
176
     0
 62
     5
420
      255
176
     0
290
     0
176
     0
 90
       50
176
     0
 90
       50
176
     0
 90
       50
176
     0
290
     0
176
     0
 90
       50
176
     0
 62
   256
176
     0
 40
1.0
176
     0
 90
        2
176
     0
  1
strokes_ogs.tif
176
     0
290
     0
176
     0
 40
1.0
176
     0
 40
1.0
176
     0
  0
VISUALSTYLE
  5
38
102
{ACAD_REACTORS
330
29
102
}
330
29
100
AcDbVisualStyle
  2
Facepattern
 70
    15
177
     3
291
     1
 70
    58
 90
        2
176
     1
 90
        2
176
     1
 90
        0
176
     1
 90
        0
176
     1
 40
0.6
176
     1
 40
30.0
176
     1
 62
     7
420
 16777215
176
     1
 90
        1
176
     1
 90
        4
176
     1
 62
     7
176
     1
 62
   257
176
     1
 90
        1
176
     1
 90
        1
176
     1
 40
1.0
176
     1
 90
        8
176
     1
 62
     7
176
     1
 40
1.0
176
     1
 90
        1
176
     1
 90
        6
176
     1
 90
        2
176
     1
 62
     7
176
     1
 90
        5
176
     1
 90
        0
176
     1
 90
        0
176
     1
290
     0
176
     1
 90
        1
176
     1
 40
0.0
176
     1
 90
        0
176
     1
290
     0
176
     1
290
     1
176
     1
290
     1
176
     1
290
     0
176
     1
290
     0
176
     1
290
     0
176
     1
290
     0
176
     1
290
     0
176
     1
290
     0
176
     1
 90
       50
176
     1
 40
0.0
176
     1
 40
1.0
176
     1
 90
        0
176
     1
 62
    18
420
        0
176
     1
 90
       50
176
     1
 90
        3
176
     1
 62
     5
420
      255
176
     1
290
     0
176
     1
 90
       50
176
     1
 90
       50
176
     1
 90
       50
176
     1
290
     0
176
     1
 90
       50
176
     1
 62
   256
176
     0
 40
1.0
176
     0
 90
        2
176
     1
  1
strokes_ogs.tif
176
     1
290
     0
176
     1
 40
1.0
176
     1
 40
1.0
176
     1
  0
VISUALSTYLE
  5
2A
102
{ACAD_REACTORS
330
29
102
}
330
29
100
AcDbVisualStyle
  2
Flat
 70
     0
177
     3
291
     1
 70
    58
 90
        2
176
     1
 90
        1
176
     1
 90
        1
176
     1
 90
        2
176
     1
 40
0.6
176
     1
 40
30.0
176
     1
 62
     7
420
 16777215
176
     1
 90
        0
176
     1
 90
        0
176
     1
 62
     7
176
     1
 62
   257
176
     1
 90
        1
176
     1
 90
        1
176
     1
 40
1.0
176
     1
 90
        8
176
     1
 62
     7
176
     1
 40
1.0
176
     1
 90
        1
176
     1
 90
        6
176
     1
 90
        2
176
     1
 62
     7
176
     1
 90
        5
176
     1
 90
        0
176
     1
 90
        0
176
     1
290
     0
176
     1
 90
       13
176
     1
 40
0.0
176
     1
 90
        0
176
     1
290
     0
176
     1
290
     1
176
     1
290
     1
176
     1
290
     0
176
     1
290
     0
176
     1
290
     0
176
     1
290
     0
176
     1
290
     0
176
     1
290
     0
176
     1
 90
       50
176
     1
 40
0.0
176
     1
 40
1.0
176
     1
 90
        0
176
     1
 62
    18
420
        0
176
     1
 90
       50
176
     1
 90
        3
176
     1
 62
     5
420
      255
176
     1
290
     0
176
     1
 90
       50
176
     1
 90
       50
176
     1
 90
       50
176
     1
290
     0
176
     1
 90
       50
176
     1
 62
   256
176
     0
 40
1.0
176
     0
 90
        2
176
     1
  1
strokes_ogs.tif
176
     1
290
     0
176
     1
 40
1.0
176
     1
 40
1.0
176
     1
  0
VISUALSTYLE
  5
2B
102
{ACAD_REACTORS
330
29
102
}
330
29
100
AcDbVisualStyle
  2
FlatWithEdges
 70
     1
177
     3
291
     1
 70
    58
 90
        2
176
     1
 90
        1
176
     1
 90
        1
176
     1
 90
        2
176
     1
 40
0.6
176
     1
 40
30.0
176
     1
 62
     7
420
 16777215
176
     1
 90
        1
176
     1
 90
        0
176
     1
 62
     7
176
     1
 62
   257
176
     1
 90
        1
176
     1
 90
        1
176
     1
 40
1.0
176
     1
 90
        0
176
     1
 62
   257
176
     1
 40
1.0
176
     1
 90
        1
176
     1
 90
        6
176
     1
 90
        2
176
     1
 62
     7
176
     1
 90
        5
176
     1
 90
        0
176
     1
 90
        0
176
     1
290
     0
176
     1
 90
       13
176
     1
 40
0.0
176
     1
 90
        0
176
     1
290
     0
176
     1
290
     1
176
     1
290
     1
176
     1
290
     0
176
     1
290
     0
176
     1
290
     0
176
     1
290
     0
176
     1
290
     0
176
     1
290
     0
176
     1
 90
       50
176
     1
 40
0.0
176
     1
 40
1.0
176
     1
 90
        0
176
     1
 62
    18
420
        0
176
     1
 90
       50
176
     1
 90
        3
176
     1
 62
     5
420
      255
176
     1
290
     0
176
     1
 90
       50
176
     1
 90
       50
176
     1
 90
       50
176
     1
290
     0
176
     1
 90
       50
176
     1
 62
   256
176
     0
 40
1.0
176
     0
 90
        2
176
     1
  1
strokes_ogs.tif
176
     1
290
     0
176
     1
 40
1.0
176
     1
 40
1.0
176
     1
  0
VISUALSTYLE
  5
2C
102
{ACAD_REACTORS
330
29
102
}
330
29
100
AcDbVisualStyle
  2
Gouraud
 70
     2
177
     3
291
     1
 70
    58
 90
        2
176
     1
 90
        2
176
     1
 90
        1
176
     1
 90
        2
176
     1
 40
0.6
176
     1
 40
30.0
176
     1
 62
     7
420
 16777215
176
     1
 90
        0
176
     1
 90
        0
176
     1
 62
     7
176
     1
 62
   257
176
     1
 90
        1
176
     1
 90
        1
176
     1
 40
1.0
176
     1
 90
        0
176
     1
 62
     7
176
     1
 40
1.0
176
     1
 90
        1
176
     1
 90
        6
176
     1
 90
        2
176
     1
 62
     7
176
     1
 90
        5
176
     1
 90
        0
176
     1
 90
        0
176
     1
290
     0
176
     1
 90
       13
176
     1
 40
0.0
176
     1
 90
        0
176
     1
290
     0
176
     1
290
     1
176
     1
290
     1
176
     1
290
     0
176
     1
290
     0
176
     1
290
     0
176
     1
290
     0
176
     1
290
     0
176
     1
290
     0
176
     1
 90
       50
176
     1
 40
0.0
176
     1
 40
1.0
176
     1
 90
        0
176
     1
 62
    18
420
        0
176
     1
 90
       50
176
     1
 90
        3
176
     1
 62
     5
420
      255
176
     1
290
     0
176
     1
 90
       50
176
     1
 90
       50
176
     1
 90
       50
176
     1
290
     0
176
     1
 90
       50
176
     1
 62
   256
176
     0
 40
1.0
176
     0
 90
        2
176
     1
  1
strokes_ogs.tif
176
     1
290
     0
176
     1
 40
1.0
176
     1
 40
1.0
176
     1
  0
VISUALSTYLE
  5
2D
102
{ACAD_REACTORS
330
29
102
}
330
29
100
AcDbVisualStyle
  2
GouraudWithEdges
 70
     3
177
     3
291
     1
 70
    58
 90
        2
176
     1
 90
        2
176
     1
 90
        1
176
     1
 90
        2
176
     1
 40
0.6
176
     1
 40
30.0
176
     1
 62
     7
420
 16777215
176
     1
 90
        1
176
     1
 90
        0
176
     1
 62
     7
176
     1
 62
   257
176
     1
 90
        1
176
     1
 90
        1
176
     1
 40
1.0
176
     1
 90
        0
176
     1
 62
   257
176
     1
 40
1.0
176
     1
 90
        1
176
     1
 90
        6
176
     1
 90
        2
176
     1
 62
     7
176
     1
 90
        5
176
     1
 90
        0
176
     1
 90
        0
176
     1
290
     0
176
     1
 90
       13
176
     1
 40
0.0
176
     1
 90
        0
176
     1
290
     0
176
     1
290
     1
176
     1
290
     1
176
     1
290
     0
176
     1
290
     0
176
     1
290
     0
176
     1
290
     0
176
     1
290
     0
176
     1
290
     0
176
     1
 90
       50
176
     1
 40
0.0
176
     1
 40
1.0
176
     1
 90
        0
176
     1
 62
    18
420
        0
176
     1
 90
       50
176
     1
 90
        3
176
     1
 62
     5
420
      255
176
     1
290
     0
176
     1
 90
       50
176
     1
 90
       50
176
     1
 90
       50
176
     1
290
     0
176
     1
 90
       50
176
     1
 62
   256
176
     0
 40
1.0
176
     0
 90
        2
176
     1
  1
strokes_ogs.tif
176
     1
290
     0
176
     1
 40
1.0
176
     1
 40
1.0
176
     1
  0
VISUALSTYLE
  5
31
102
{ACAD_REACTORS
330
29
102
}
330
29
100
AcDbVisualStyle
  2
Hidden
 70
     6
177
     3
291
     0
 70
    58
 90
        1
176
     1
 90
        2
176
     1
 90
        2
176
     1
 90
        0
176
     1
 40
0.6
176
     1
 40
30.0
176
     1
 62
     7
420
 16777215
176
     1
 90
        2
176
     1
 90
        2
176
     1
 62
     7
176
     1
 62
   257
176
     1
 90
        2
176
     1
 90
        1
176
     1
 40
40.0
176
     1
 90
        0
176
     1
 62
   257
176
     1
 40
1.0
176
     1
 90
        1
176
     1
 90
        6
176
     1
 90
        2
176
     1
 62
     7
176
     1
 90
        3
176
     1
 90
        0
176
     1
 90
        0
176
     1
290
     0
176
     1
 90
        1
176
     1
 40
0.0
176
     1
 90
        0
176
     1
290
     0
176
     1
290
     1
176
     1
290
     1
176
     1
290
     0
176
     1
290
     0
176
     1
290
     0
176
     1
290
     0
176
     1
290
     0
176
     1
290
     0
176
     1
 90
       50
176
     1
 40
0.0
176
     1
 40
1.0
176
     1
 90
        0
176
     1
 62
    18
420
        0
176
     1
 90
       50
176
     1
 90
        3
176
     1
 62
     5
420
      255
176
     1
290
     0
176
     1
 90
       50
176
     1
 90
       50
176
     1
 90
       50
176
     1
290
     0
176
     1
 90
       50
176
     1
 62
   256
176
     0
 40
1.0
176
     0
 90
        2
176
     1
  1
strokes_ogs.tif
176
     1
290
     0
176
     1
 40
1.0
176
     1
 40
1.0
176
     1
  0
VISUALSTYLE
  5
3F
102
{ACAD_REACTORS
330
29
102
}
330
29
100
AcDbVisualStyle
  2
JitterOff
 70
    20
177
     3
291
     1
 70
    58
 90
        2
176
     0
 90
        2
176
     0
 90
        0
176
     0
 90
        0
176
     0
 40
0.6
176
     0
 40
30.0
176
     0
 62
     7
420
 16777215
176
     0
 90
        1
176
     0
 90
        4
176
     0
 62
     7
176
     0
 62
   257
176
     0
 90
        1
176
     0
 90
        1
176
     0
 40
1.0
176
     0
 90
       10
176
     2
 62
     7
176
     0
 40
1.0
176
     0
 90
        1
176
     0
 90
        6
176
     0
 90
        2
176
     0
 62
     7
176
     0
 90
        5
176
     0
 90
        0
176
     0
 90
        0
176
     0
290
     0
176
     0
 90
        1
176
     0
 40
0.0
176
     0
 90
        0
176
     0
290
     0
176
     0
290
     1
176
     0
290
     1
176
     0
290
     0
176
     0
290
     0
176
     0
290
     0
176
     0
290
     0
176
     0
290
     0
176
     0
290
     0
176
     0
 90
       50
176
     0
 40
0.0
176
     0
 40
1.0
176
     0
 90
        0
176
     0
 62
    18
420
        0
176
     0
 90
       50
176
     0
 90
        3
176
     0
 62
     5
420
      255
176
     0
290
     0
176
     0
 90
       50
176
     0
 90
       50
176
     0
 90
       50
176
     0
290
     0
176
     0
 90
       50
176
     0
 62
   256
176
     0
 40
1.0
176
     0
 90
        2
176
     0
  1
strokes_ogs.tif
176
     0
290
     0
176
     0
 40
1.0
176
     0
 40
1.0
176
     0
  0
VISUALSTYLE
  5
37
102
{ACAD_REACTORS
330
29
102
}
330
29
100
AcDbVisualStyle
  2
Linepattern
 70
    14
177
     3
291
     1
 70
    58
 90
        2
176
     1
 90
        2
176
     1
 90
        0
176
     1
 90
        0
176
     1
 40
0.6
176
     1
 40
30.0
176
     1
 62
     7
420
 16777215
176
     1
 90
        1
176
     1
 90
        4
176
     1
 62
     7
176
     1
 62
   257
176
     1
 90
        7
176
     1
 90
        7
176
     1
 40
1.0
176
     1
 90
        8
176
     1
 62
     7
176
     1
 40
1.0
176
     1
 90
        1
176
     1
 90
        6
176
     1
 90
        2
176
     1
 62
     7
176
     1
 90
        5
176
     1
 90
        0
176
     1
 90
        0
176
     1
290
     0
176
     1
 90
        1
176
     1
 40
0.0
176
     1
 90
        0
176
     1
290
     0
176
     1
290
     1
176
     1
290
     1
176
     1
290
     0
176
     1
290
     0
176
     1
290
     0
176
     1
290
     0
176
     1
290
     0
176
     1
290
     0
176
     1
 90
       50
176
     1
 40
0.0
176
     1
 40
1.0
176
     1
 90
        0
176
     1
 62
    18
420
        0
176
     1
 90
       50
176
     1
 90
        3
176
     1
 62
     5
420
      255
176
     1
290
     0
176
     1
 90
       50
176
     1
 90
       50
176
     1
 90
       50
176
     1
290
     0
176
     1
 90
       50
176
     1
 62
   256
176
     0
 40
1.0
176
     0
 90
        2
176
     1
  1
strokes_ogs.tif
176
     1
290
     0
176
     1
 40
1.0
176
     1
 40
1.0
176
     1
  0
VISUALSTYLE
  5
40
102
{ACAD_REACTORS
330
29
102
}
330
29
100
AcDbVisualStyle
  2
OverhangOff
 70
    21
177
     3
291
     1
 70
    58
 90
        2
176
     0
 90
        2
176
     0
 90
        0
176
     0
 90
        0
176
     0
 40
0.6
176
     0
 40
30.0
176
     0
 62
     7
420
 16777215
176
     0
 90
        1
176
     0
 90
        4
176
     0
 62
     7
176
     0
 62
   257
176
     0
 90
        1
176
     0
 90
        1
176
     0
 40
1.0
176
     0
 90
        9
176
     2
 62
     7
176
     0
 40
1.0
176
     0
 90
        1
176
     0
 90
        6
176
     0
 90
        2
176
     0
 62
     7
176
     0
 90
        5
176
     0
 90
        0
176
     0
 90
        0
176
     0
290
     0
176
     0
 90
        1
176
     0
 40
0.0
176
     0
 90
        0
176
     0
290
     0
176
     0
290
     1
176
     0
290
     1
176
     0
290
     0
176
     0
290
     0
176
     0
290
     0
176
     0
290
     0
176
     0
290
     0
176
     0
290
     0
176
     0
 90
       50
176
     0
 40
0.0
176
     0
 40
1.0
176
     0
 90
        0
176
     0
 62
    18
420
        0
176
     0
 90
       50
176
     0
 90
        3
176
     0
 62
     5
420
      255
176
     0
290
     0
176
     0
 90
       50
176
     0
 90
       50
176
     0
 90
       50
176
     0
290
     0
176
     0
 90
       50
176
     0
 62
   256
176
     0
 40
1.0
176
     0
 90
        2
176
     0
  1
strokes_ogs.tif
176
     0
290
     0
176
     0
 40
1.0
176
     0
 40
1.0
176
     0
  0
VISUALSTYLE
  5
33
102
{ACAD_REACTORS
330
29
102
}
330
29
100
AcDbVisualStyle
  2
Realistic
 70
     8
177
     3
291
     0
 70
    58
 90
        2
176
     1
 90
        3
176
     1
 90
        0
176
     1
 90
        2
176
     1
 40
0.6
176
     1
 40
30.0
176
     1
 62
     7
420
 16777215
176
     1
 90
        0
176
     1
 90
        0
176
     1
 62
     7
176
     1
 62
   257
176
     1
 90
        1
176
     1
 90
        1
176
     1
 40
1.0
176
     1
 90
        8
176
     1
 62
   257
176
     1
 40
1.0
176
     1
 90
        1
176
     1
 90
        6
176
     1
 90
        2
176
     1
 62
     7
176
     1
 90
        3
176
     1
 90
        0
176
     1
 90
        0
176
     1
290
     0
176
     1
 90
       13
176
     1
 40
0.0
176
     1
 90
        0
176
     1
290
     0
176
     1
290
     1
176
     1
290
     1
176
     1
290
     0
176
     1
290
     0
176
     1
290
     0
176
     1
290
     0
176
     1
290
     0
176
     1
290
     0
176
     1
 90
       50
176
     1
 40
0.0
176
     1
 40
1.0
176
     1
 90
        0
176
     1
 62
    18
420
        0
176
     1
 90
       50
176
     1
 90
        3
176
     1
 62
     5
420
      255
176
     1
290
     0
176
     1
 90
       50
176
     1
 90
       50
176
     1
 90
       50
176
     1
290
     0
176
     1
 90
       50
176
     1
 62
   256
176
     0
 40
1.0
176
     0
 90
        2
176
     1
  1
strokes_ogs.tif
176
     1
290
     0
176
     1
 40
1.0
176
     1
 40
1.0
176
     1
  0
VISUALSTYLE
  5
3E
102
{ACAD_REACTORS
330
29
102
}
330
29
100
AcDbVisualStyle
  2
Shaded
 70
    27
177
     3
291
     0
 70
    58
 90
        2
176
     1
 90
        2
176
     1
 90
        1
176
     1
 90
        2
176
     1
 40
0.6
176
     1
 40
30.0
176
     1
 62
     7
420
 16777215
176
     1
 90
        0
176
     1
 90
        4
176
     1
 62
     7
176
     1
 62
   257
176
     1
 90
        1
176
     1
 90
        1
176
     1
 40
1.0
176
     1
 90
        8
176
     1
 62
   257
176
     1
 40
1.0
176
     1
 90
        1
176
     1
 90
        6
176
     1
 90
        2
176
     1
 62
     8
420
  7895160
176
     1
 90
        3
176
     1
 90
        0
176
     1
 90
        0
176
     1
290
     0
176
     1
 90
        5
176
     1
 40
0.0
176
     1
 90
        0
176
     1
290
     0
176
     1
290
     1
176
     1
290
     1
176
     1
290
     0
176
     1
290
     0
176
     1
290
     0
176
     1
290
     0
176
     1
290
     0
176
     1
290
     0
176
     1
 90
       50
176
     1
 40
0.0
176
     1
 40
1.0
176
     1
 90
        0
176
     1
 62
    18
420
        0
176
     1
 90
       50
176
     1
 90
        3
176
     1
 62
     5
420
      255
176
     1
290
     0
176
     1
 90
       50
176
     1
 90
       50
176
     1
 90
       50
176
     1
290
     0
176
     1
 90
       50
176
     1
 62
   256
176
     0
 40
1.0
176
     0
 90
        2
176
     1
  1
strokes_ogs.tif
176
     1
290
     0
176
     1
 40
1.0
176
     1
 40
1.0
176
     1
  0
VISUALSTYLE
  5
3D
102
{ACAD_REACTORS
330
29
102
}
330
29
100
AcDbVisualStyle
  2
Shaded with edges
 70
    26
177
     3
291
     0
 70
    58
 90
        2
176
     1
 90
        2
176
     1
 90
        1
176
     1
 90
        2
176
     1
 40
0.6
176
     1
 40
30.0
176
     1
 62
     7
420
 16777215
176
     1
 90
        1
176
     1
 90
        2
176
     1
 62
     7
176
     1
 62
   257
176
     1
 90
        2
176
     1
 90
        1
176
     1
 40
1.0
176
     1
 90
        8
176
     1
 62
   257
176
     1
 40
1.0
176
     1
 90
        1
176
     1
 90
        6
176
     1
 90
        2
176
     1
 62
     7
176
     1
 90
        3
176
     1
 90
        0
176
     1
 90
        0
176
     1
290
     0
176
     1
 90
        5
176
     1
 40
0.0
176
     1
 90
        0
176
     1
290
     0
176
     1
290
     1
176
     1
290
     1
176
     1
290
     0
176
     1
290
     0
176
     1
290
     0
176
     1
290
     0
176
     1
290
     0
176
     1
290
     0
176
     1
 90
       50
176
     1
 40
0.0
176
     1
 40
1.0
176
     1
 90
        0
176
     1
 62
    18
420
        0
176
     1
 90
       50
176
     1
 90
        3
176
     1
 62
     5
420
      255
176
     1
290
     0
176
     1
 90
       50
176
     1
 90
       50
176
     1
 90
       50
176
     1
290
     0
176
     1
 90
       50
176
     1
 62
   256
176
     0
 40
1.0
176
     0
 90
        2
176
     1
  1
strokes_ogs.tif
176
     1
290
     0
176
     1
 40
1.0
176
     1
 40
1.0
176
     1
  0
VISUALSTYLE
  5
3A
102
{ACAD_REACTORS
330
29
102
}
330
29
100
AcDbVisualStyle
  2
Shades of Gray
 70
    23
177
     3
291
     0
 70
    58
 90
        2
176
     1
 90
        2
176
     1
 90
        3
176
     1
 90
        0
176
     1
 40
0.6
176
     1
 40
30.0
176
     1
 62
     7
420
 16777215
176
     1
 90
        2
176
     1
 90
        2
176
     1
 62
     7
176
     1
 62
     7
176
     1
 90
        1
176
     1
 90
        1
176
     1
 40
40.0
176
     1
 90
        8
176
     1
 62
     7
176
     1
 40
1.0
176
     1
 90
        1
176
     1
 90
        6
176
     1
 90
        2
176
     1
 62
     7
176
     1
 90
        3
176
     1
 90
        0
176
     1
 90
        0
176
     1
290
     0
176
     1
 90
        1
176
     1
 40
0.0
176
     1
 90
        0
176
     1
290
     0
176
     1
290
     1
176
     1
290
     1
176
     1
290
     0
176
     1
290
     0
176
     1
290
     0
176
     1
290
     0
176
     1
290
     0
176
     1
290
     0
176
     1
 90
       50
176
     1
 40
0.0
176
     1
 40
1.0
176
     1
 90
        0
176
     1
 62
    18
420
        0
176
     1
 90
       50
176
     1
 90
        3
176
     1
 62
     5
420
      255
176
     1
290
     0
176
     1
 90
       50
176
     1
 90
       50
176
     1
 90
       50
176
     1
290
     0
176
     1
 90
       50
176
     1
 62
   256
176
     0
 40
1.0
176
     0
 90
        2
176
     1
  1
strokes_ogs.tif
176
     1
290
     0
176
     1
 40
1.0
176
     1
 40
1.0
176
     1
  0
VISUALSTYLE
  5
3B
102
{ACAD_REACTORS
330
29
102
}
330
29
100
AcDbVisualStyle
  2
Sketchy
 70
    24
177
     3
291
     0
 70
    58
 90
        1
176
     1
 90
        2
176
     1
 90
        2
176
     1
 90
        0
176
     1
 40
0.6
176
     1
 40
30.0
176
     1
 62
     7
420
 16777215
176
     1
 90
        2
176
     1
 90
        2
176
     1
 62
     7
176
     1
 62
     7
176
     1
 90
        1
176
     1
 90
        1
176
     1
 40
40.0
176
     1
 90
       11
176
     1
 62
     7
176
     1
 40
1.0
176
     1
 90
        1
176
     1
 90
        6
176
     1
 90
        2
176
     1
 62
     7
176
     1
 90
        6
176
     1
 90
        0
176
     1
 90
        0
176
     1
290
     0
176
     1
 90
        1
176
     1
 40
0.0
176
     1
 90
        0
176
     1
290
     0
176
     1
290
     1
176
     1
290
     1
176
     1
290
     0
176
     1
290
     0
176
     1
290
     0
176
     1
290
     0
176
     1
290
     0
176
     1
290
     0
176
     1
 90
       50
176
     1
 40
0.0
176
     1
 40
1.0
176
     1
 90
        0
176
     1
 62
    18
420
        0
176
     1
 90
       50
176
     1
 90
        3
176
     1
 62
     5
420
      255
176
     1
290
     0
176
     1
 90
       50
176
     1
 90
       50
176
     1
 90
       50
176
     1
290
     0
176
     1
 90
       50
176
     1
 62
   256
176
     0
 40
1.0
176
     0
 90
        2
176
     1
  1
strokes_ogs.tif
176
     1
290
     0
176
     1
 40
1.0
176
     1
 40
1.0
176
     1
  0
VISUALSTYLE
  5
36
102
{ACAD_REACTORS
330
29
102
}
330
29
100
AcDbVisualStyle
  2
Thicken
 70
    13
177
     3
291
     1
 70
    58
 90
        2
176
     1
 90
        2
176
     1
 90
        0
176
     1
 90
        0
176
     1
 40
0.6
176
     1
 40
30.0
176
     1
 62
     7
420
 16777215
176
     1
 90
        1
176
     1
 90
        4
176
     1
 62
     7
176
     1
 62
   257
176
     1
 90
        1
176
     1
 90
        1
176
     1
 40
1.0
176
     1
 90
       12
176
     1
 62
     7
176
     1
 40
1.0
176
     1
 90
        1
176
     1
 90
        6
176
     1
 90
        2
176
     1
 62
     7
176
     1
 90
        5
176
     1
 90
        0
176
     1
 90
        0
176
     1
290
     0
176
     1
 90
        1
176
     1
 40
0.0
176
     1
 90
        0
176
     1
290
     0
176
     1
290
     1
176
     1
290
     1
176
     1
290
     0
176
     1
290
     0
176
     1
290
     0
176
     1
290
     0
176
     1
290
     0
176
     1
290
     0
176
     1
 90
       50
176
     1
 40
0.0
176
     1
 40
1.0
176
     1
 90
        0
176
     1
 62
    18
420
        0
176
     1
 90
       50
176
     1
 90
        3
176
     1
 62
     5
420
      255
176
     1
290
     0
176
     1
 90
       50
176
     1
 90
       50
176
     1
 90
       50
176
     1
290
     0
176
     1
 90
       50
176
     1
 62
   256
176
     0
 40
1.0
176
     0
 90
        2
176
     1
  1
strokes_ogs.tif
176
     1
290
     0
176
     1
 40
1.0
176
     1
 40
1.0
176
     1
  0
VISUALSTYLE
  5
30
102
{ACAD_REACTORS
330
29
102
}
330
29
100
AcDbVisualStyle
  2
Wireframe
 70
     5
177
     3
291
     0
 70
    58
 90
        0
176
     1
 90
        2
176
     1
 90
        0
176
     1
 90
        0
176
     1
 40
0.6
176
     1
 40
30.0
176
     1
 62
     7
420
 16777215
176
     1
 90
        1
176
     1
 90
        4
176
     1
 62
     7
176
     1
 62
   257
176
     1
 90
        1
176
     1
 90
        1
176
     1
 40
1.0
176
     1
 90
        0
176
     1
 62
   257
176
     1
 40
1.0
176
     1
 90
        1
176
     1
 90
        6
176
     1
 90
        2
176
     1
 62
     7
176
     1
 90
        3
176
     1
 90
        0
176
     1
 90
        0
176
     1
290
     0
176
     1
 90
        1
176
     1
 40
0.0
176
     1
 90
        0
176
     1
290
     0
176
     1
290
     1
176
     1
290
     1
176
     1
290
     0
176
     1
290
     0
176
     1
290
     0
176
     1
290
     0
176
     1
290
     0
176
     1
290
     0
176
     1
 90
       50
176
     1
 40
0.0
176
     1
 40
1.0
176
     1
 90
        0
176
     1
 62
    18
420
        0
176
     1
 90
       50
176
     1
 90
        3
176
     1
 62
     5
420
      255
176
     1
290
     0
176
     1
 90
       50
176
     1
 90
       50
176
     1
 90
       50
176
     1
290
     0
176
     1
 90
       50
176
     1
 62
   256
176
     0
 40
1.0
176
     0
 90
        2
176
     1
  1
strokes_ogs.tif
176
     1
290
     0
176
     1
 40
1.0
176
     1
 40
1.0
176
     1
  0
VISUALSTYLE
  5
3C
102
{ACAD_REACTORS
330
29
102
}
330
29
100
AcDbVisualStyle
  2
X-Ray
 70
    25
177
     3
291
     0
 70
    58
 90
        2
176
     1
 90
        2
176
     1
 90
        1
176
     1
 90
        1
176
     1
 40
0.5
176
     1
 40
30.0
176
     1
 62
     7
420
 16777215
176
     1
 90
        1
176
     1
 90
        0
176
     1
 62
     7
176
     1
 62
   257
176
     1
 90
        1
176
     1
 90
        1
176
     1
 40
1.0
176
     1
 90
        8
176
     1
 62
     7
176
     1
 40
1.0
176
     1
 90
        1
176
     1
 90
        6
176
     1
 90
        2
176
     1
 62
     7
176
     1
 90
        3
176
     1
 90
        0
176
     1
 90
        0
176
     1
290
     0
176
     1
 90
       13
176
     1
 40
0.0
176
     1
 90
        0
176
     1
290
     0
176
     1
290
     1
176
     1
290
     1
176
     1
290
     0
176
     1
290
     0
176
     1
290
     0
176
     1
290
     0
176
     1
290
     0
176
     1
290
     0
176
     1
 90
       50
176
     1
 40
0.0
176
     1
 40
1.0
176
     1
 90
        0
176
     1
 62
    18
420
        0
176
     1
 90
       50
176
     1
 90
        3
176
     1
 62
     5
420
      255
176
     1
290
     0
176
     1
 90
       50
176
     1
 90
       50
176
     1
 90
       50
176
     1
290
     0
176
     1
 90
       50
176
     1
 62
   256
176
     0
 40
1.0
176
     0
 90
        2
176
     1
  1
strokes_ogs.tif
176
     1
290
     0
176
     1
 40
1.0
176
     1
 40
1.0
176
     1
  0
DICTIONARYVAR
  5
89
102
{ACAD_REACTORS
330
84
102
}
330
84
100
DictionaryVariables
280
     0
  1
1:1
  0
DICTIONARYVAR
  5
86
102
{ACAD_REACTORS
330
84
102
}
330
84
100
DictionaryVariables
280
     0
  1
STANDARD
  0
DICTIONARYVAR
  5
85
102
{ACAD_REACTORS
330
84
102
}
330
84
100
DictionaryVariables
280
     0
  1
STANDARD
  0
DICTIONARYVAR
  5
87
102
{ACAD_REACTORS
330
84
102
}
330
84
100
DictionaryVariables
280
     0
  1
Imperial24
  0
DICTIONARYVAR
  5
88
102
{ACAD_REACTORS
330
84
102
}
330
84
100
DictionaryVariables
280
     0
  1
Imperial24
  0
DICTIONARY
  5
1A
330
19
100
AcDbDictionary
280
     1
281
     1
  3
BUMPTILE
360
1C
  3
DIFFUSETILE
360
1B
  3
OPACITYTILE
360
1F
  3
REFLECTIONTILE
360
1E
  3
REFRACTIONTILE
360
20
  3
SPECULARTILE
360
1D
  0
DICTIONARY
  5
12
330
11
100
AcDbDictionary
280
     1
281
     1
  3
BUMPTILE
360
14
  3
DIFFUSETILE
360
13
  3
OPACITYTILE
360
17
  3
REFLECTIONTILE
360
16
  3
REFRACTIONTILE
360
18
  3
SPECULARTILE
360
15
  0
DICTIONARY
  5
22
330
21
100
AcDbDictionary
280
     1
281
     1
  3
BUMPTILE
360
24
  3
DIFFUSETILE
360
23
  3
OPACITYTILE
360
27
  3
REFLECTIONTILE
360
26
  3
REFRACTIONTILE
360
28
  3
SPECULARTILE
360
25
  0
DICTIONARY
  5
8A
330
65
100
AcDbDictionary
280
     1
281
     1
  3
ACAD_ROUNDTRIP_2008_TABLESTYLE_CELLSTYLEMAP
360
8B
  0
XRECORD
  5
1C
102
{ACAD_REACTORS
330
1A
102
}
330
1A
100
AcDbXrecord
280
     1
270
     1
271
     1
  0
XRECORD
  5
1B
102
{ACAD_REACTORS
330
1A
102
}
330
1A
100
AcDbXrecord
280
     1
270
     1
271
     1
  0
XRECORD
  5
1F
102
{ACAD_REACTORS
330
1A
102
}
330
1A
100
AcDbXrecord
280
     1
270
     1
271
     1
  0
XRECORD
  5
1E
102
{ACAD_REACTORS
330
1A
102
}
330
1A
100
AcDbXrecord
280
     1
270
     1
271
     1
  0
XRECORD
  5
20
102
{ACAD_REACTORS
330
1A
102
}
330
1A
100
AcDbXrecord
280
     1
270
     1
271
     1
  0
XRECORD
  5
1D
102
{ACAD_REACTORS
330
1A
102
}
330
1A
100
AcDbXrecord
280
     1
270
     1
271
     1
  0
XRECORD
  5
14
102
{ACAD_REACTORS
330
12
102
}
330
12
100
AcDbXrecord
280
     1
270
     1
271
     1
  0
XRECORD
  5
13
102
{ACAD_REACTORS
330
12
102
}
330
12
100
AcDbXrecord
280
     1
270
     1
271
     1
  0
XRECORD
  5
17
102
{ACAD_REACTORS
330
12
102
}
330
12
100
AcDbXrecord
280
     1
270
     1
271
     1
  0
XRECORD
  5
16
102
{ACAD_REACTORS
330
12
102
}
330
12
100
AcDbXrecord
280
     1
270
     1
271
     1
  0
XRECORD
  5
18
102
{ACAD_REACTORS
330
12
102
}
330
12
100
AcDbXrecord
280
     1
270
     1
271
     1
  0
XRECORD
  5
15
102
{ACAD_REACTORS
330
12
102
}
330
12
100
AcDbXrecord
280
     1
270
     1
271
     1
  0
XRECORD
  5
24
102
{ACAD_REACTORS
330
22
102
}
330
22
100
AcDbXrecord
280
     1
270
     1
271
     1
  0
XRECORD
  5
23
102
{ACAD_REACTORS
330
22
102
}
330
22
100
AcDbXrecord
280
     1
270
     1
271
     1
  0
XRECORD
  5
27
102
{ACAD_REACTORS
330
22
102
}
330
22
100
AcDbXrecord
280
     1
270
     1
271
     1
  0
XRECORD
  5
26
102
{ACAD_REACTORS
330
22
102
}
330
22
100
AcDbXrecord
280
     1
270
     1
271
     1
  0
XRECORD
  5
28
102
{ACAD_REACTORS
330
22
102
}
330
22
100
AcDbXrecord
280
     1
270
     1
271
     1
  0
XRECORD
  5
25
102
{ACAD_REACTORS
330
22
102
}
330
22
100
AcDbXrecord
280
     1
270
     1
271
     1
  0
CELLSTYLEMAP
  5
8B
102
{ACAD_REACTORS
330
8A
102
}
330
8A
100
AcDbCellStyleMap
 90
        3
300
CELLSTYLE
  1
TABLEFORMAT_BEGIN
 90
        5
170
     1
 91
        0
 92
    32768
 62
   257
 93
        1
300
CONTENTFORMAT
  1
CONTENTFORMAT_BEGIN
 90
        0
 91
        0
 92
      512
 93
        0
300

 40
0.0
140
1.0
 94
        5
 62
     0
340
55
144
0.25
309
CONTENTFORMAT_END
171
     0
 94
        0
309
TABLEFORMAT_END
  1
CELLSTYLE_BEGIN
 90
        1
 91
        1
300
_TITLE
309
CELLSTYLE_END
300
CELLSTYLE
  1
TABLEFORMAT_BEGIN
 90
        5
170
     1
 91
        0
 92
        0
 62
   257
 93
        1
300
CONTENTFORMAT
  1
CONTENTFORMAT_BEGIN
 90
        0
 91
        0
 92
      512
 93
        0
300

 40
0.0
140
1.0
 94
        5
 62
     0
340
55
144
0.18
309
CONTENTFORMAT_END
171
     0
 94
        0
309
TABLEFORMAT_END
  1
CELLSTYLE_BEGIN
 90
        2
 91
        1
300
_HEADER
309
CELLSTYLE_END
300
CELLSTYLE
  1
TABLEFORMAT_BEGIN
 90
        5
170
     1
 91
        0
 92
        0
 62
   257
 93
        1
300
CONTENTFORMAT
  1
CONTENTFORMAT_BEGIN
 90
        0
 91
        0
 92
      512
 93
        0
300

 40
0.0
140
1.0
 94
        2
 62
     0
340
55
144
0.18
309
CONTENTFORMAT_END
171
     0
 94
        0
309
TABLEFORMAT_END
  1
CELLSTYLE_BEGIN
 90
        3
 91
        2
300
_DATA
309
CELLSTYLE_END
  0
ENDSEC
  0
EOF
