<?xml version="1.0" encoding="UTF-8"?>
<svg id="Layer_1" data-name="Layer 1" xmlns="http://www.w3.org/2000/svg" viewBox="0 0 500 500">
  <defs>
    <style>
      .cls-1 {
        fill: #fff;
      }

      .cls-2 {
        fill: #0e1329;
      }

      .cls-3 {
        fill: #831618;
      }
    </style>
  </defs>
  <g>
    <g>
      <path d="M414.43,291.39c0-77.26,.02-154.52,0-231.78,0-10.23-3.92-18.78-11.41-25.72-7.13-6.62-15.7-9.27-25.28-9.25-19.92,.03-39.84,.03-59.76,.03-58.61,0-117.22-.02-175.83-.03-11.25,0-20.56,4.3-27.93,12.8-6.22,7.16-8.29,15.61-8.28,24.93,.08,59.07,.04,118.14,.04,177.2,0,49.28-.01,98.56,0,147.85,0,11.62-.06,23.25,.17,34.87,.17,8.15,3.5,15.14,8.97,21.14,8.01,8.79,18.14,11.81,29.79,11.79,72.42-.12,144.85-.03,217.27-.1,7.93-.01,15.93,.83,23.79-.63,16.91-3.15,28.43-17.49,28.44-35.31,.03-42.6-.01-85.2-.01-127.81Zm-2.41-51.45h-.05c0,58.95,0,117.9,0,176.85,0,4.97-.29,9.89-2.05,14.62-4.77,12.86-17.1,21.24-31.42,21.24-76.68,0-153.37-.02-230.04-.03-2.54,0-5.07,.06-7.6-.03-18.05-.64-31.62-14.17-32.34-32.2-.03-.92-.02-1.84-.02-2.76,0-118.48,.02-236.95-.03-355.43,0-9.66,2.6-18.14,9.55-25.07,6.91-6.88,15.25-9.94,24.95-9.93,56.53,.06,113.07,.03,169.6,.03,22.11,0,44.22-.09,66.32,.03,16.42,.09,29.42,10.83,32.51,26.54,.83,4.21,.62,8.48,.62,12.74,0,57.8,0,115.6,0,173.4Z"/>
      <path class="cls-1" d="M412.02,239.93h-.05c0,58.95,0,117.9,0,176.85,0,4.97-.29,9.89-2.05,14.62-4.77,12.86-17.1,21.24-31.42,21.24-76.68,0-153.37-.02-230.04-.03-2.54,0-5.07,.06-7.6-.03-18.05-.64-31.62-14.17-32.34-32.2-.03-.92-.02-1.84-.02-2.76,0-118.48,.02-236.95-.03-355.43,0-9.66,2.6-18.14,9.55-25.07,6.91-6.88,15.25-9.94,24.95-9.93,56.53,.06,113.07,.03,169.6,.03,22.11,0,44.22-.09,66.32,.03,16.42,.09,29.42,10.83,32.51,26.54,.83,4.21,.62,8.48,.62,12.74,0,57.8,0,115.6,0,173.4Z"/>
    </g>
    <path class="cls-3" d="M153.47,71.72c-7.1-3.37-10.36-5.91-10.36-11.53,0-5.06,3.27-9.28,9.12-9.28,5.07,0,9.01,2.25,11.15,3.94l2.48-9c-3.04-2.25-7.88-4.22-13.4-4.22-11.71,0-18.81,9-18.81,19.96,0,8.15,4.62,14.9,14.42,19.26,7.32,3.37,10.14,6.61,10.14,12.51s-3.38,10.12-10.59,10.12c-4.96,0-10.14-2.53-13.07-4.92l-2.48,9.42c3.83,2.81,9.35,4.64,15.32,4.64,12.95,0,20.39-8.44,20.39-20.39,0-10.12-4.84-16.03-14.3-20.53Z"/>
  </g>
  <path class="cls-2" d="M318.94,243.94c1.72,1.44,3.58,1.04,5.22,.96,12.44-.64,20.96,5.75,27.76,15.26,5.75,8.06,11.29,16.28,17.15,24.26,4.91,6.69,5.79,13.79,3.15,21.5-5.06,14.79-12.4,28.52-20.42,41.82-11.23,18.63-20.17,38.53-32.1,56.79-8.1,12.4-18.06,15.04-31.32,6.16-17.41-11.65-34.18-24.27-52.04-35.29-.25-.15-.28-.67-.42-1.03,.28-.21,.57-.61,.83-.59,9.35,.72,9.4,.72,9.75-8.65,.16-4.46,.01-8.94,.13-13.4,.08-3.14-.94-4.24-4.17-3.15-4.04,1.36-8.21,2.37-12.32,3.53-2.09,.59-4.24,.92-6.31,.16-2.28-.83-4.37-2.47-4.71-4.79-.43-2.95,2.65-2.88,4.49-3.5,6.26-2.11,12.55-4.14,18.9-5.92,3.01-.85,4.29-2.27,3.53-5.4-.37-1.5-.46-3.07-.66-4.61-1.33-10.26-1.34-10.3-11.09-6.39-2.52,1.01-4.93,2.29-7.36,3.51-2.38,1.2-4.79,1.62-7.26,.38-2.1-1.05-4.64-2.2-4.89-4.6-.27-2.59,2.71-2.98,4.5-3.8,4.41-2.01,8.88-3.97,13.5-5.42,3.99-1.25,4.5-3.31,3.31-6.97-2.14-6.59-5.59-12.33-9.99-17.61-1.82-2.19-3.56-2.3-6.09-1.36-8.79,3.27-16.99,7.61-24.82,12.73-4.34,2.84-5.38,6.55-4.04,11.56,3.71,13.83,10.55,26.28,16.71,39.04,3.82,7.91,7.06,16.02,9.08,24.55,1.85,7.84-1.04,13.54-7.4,15.7-5.26,1.79-9.98-.09-14.49-5.97-7.39-9.64-12.59-20.56-17.44-31.55-9.47-21.49-21.11-42.02-28.71-64.32-.86-2.52-3.67-5.52-1.03-8.05,2.87-2.75,6.51-1.28,9.88-.11,6.85,2.38,13.02,6.06,19.01,10.02,4.06,2.68,7.84,3.23,12.5,1.21,8-3.48,16.26-6.39,24.46-9.42,3.53-1.31,4.26-2.53,.99-5.33-10.52-8.98-22.83-14.6-35.46-19.75-3.45-1.4-9.54-1.78-7.02-7.57,2.23-5.12,6.86-1.79,10.13-.29,15.5,7.11,31.55,13.23,44.82,24.47,2.76,2.33,11.94-1.57,12.73-5.43,2.49-12.18,4.31-24.48,5.52-36.86,.4-4.05-1.88-4.06-4.66-3.45-7.24,1.57-14.55,2.49-21.95,2.63-1.17,.02-2.33,.04-3.5-.01-2.61-.12-5.84-.57-6.28-3.18-.48-2.83,3.04-2.87,5.04-3.58,10.42-3.68,21.34-5.94,31.21-11.2,2.42-1.29,4.14-2.72,4.33-5.63,.97-14.92,3.35-29.78,2.56-44.76-.31-5.84,.76-12.91-7.26-15.51-1.65-.53-.57-1.86-.07-2.86,5.29-10.72,12.17-20.28,20.68-28.69,1.92-1.9,3.66-2.09,5.5-.26,12.18,12.05,22.3,25.56,26.42,42.45,2.58,10.59-1.05,13.29-11.58,10.55-3.16-.82-6.44-4.93-9-2.63-2.15,1.93-2.05,6.45-2.81,9.86-1.78,7.91-3.48,15.84-5.37,24.51,4.13-1.14,6.56-3.87,9.3-6.01,4.58-3.59,8.98-7.41,13.57-10.98,3.38-2.63,6.47-2.02,9.04,1.38,.58,.77,1.28,1.47,1.85,2.25,10.25,14.21,9.5,16.84-6.38,23.27-9.37,3.8-18.88,7.21-28.69,9.67-4.36,1.09-7.04,3.06-8.33,7.65-2.03,7.28-4.83,14.34-7.2,21.53-.52,1.59-2.03,3.62-.61,4.88,1.6,1.42,3.6-.33,5.25-1.05,10.94-4.78,20.46-11.87,29.96-18.94,8.26-6.14,16.52-12.26,25.15-17.9,3.17-2.07,5.21-1.73,7.48,.85,1.28,1.46,2.73,2.76,4.02,4.21,7.57,8.55,7.34,12.98-.98,20.67-1.12,1.03-2.59,1.76-3.15,3.8Zm-37.87,52.09c1.52,1.12,2.63,.42,3.75,.29,4.82-.55,9.63-1.41,14.46-1.54,5.39-.14,10.69,4.72,10.1,9.18-.77,5.8-5.8,4.16-9.28,4.26-9.36,.28-18.56,1.32-27.75,3.14-4.45,.88-6.03,2.85-6.37,7.3-1.05,13.69-1.23,13.68,12.18,9.04,4.95-1.71,9.81-3.81,14.87-5.08,5.28-1.33,9.03,1.87,9.57,7.37,.56,5.81-.71,7.06-7.4,7.27-8.18,.25-16.2,1.7-24.27,2.95-4.78,.74-7.1,2.66-6.96,7.88,.15,5.21-.91,10.45-.96,15.69-.05,5.71-4.76,12.42-1.16,16.55,3.56,4.07,10.6,5.17,16.18,7.4,8.14,3.24,9.21,2.91,14.67-4.08,9.03-11.55,16.08-24.27,22.14-37.56,6.11-13.42,13.69-26.17,18.25-40.29,1.7-5.25,1.98-10.43-1.27-15.09-5.57-7.97-11.71-15.5-18.58-22.4-2.68-2.69-12.06-3.6-14.07-.97-6.92,9.01-13.51,18.29-18.11,28.7Zm-2.8-27.08c-14.42,1.93-28.54,5.08-42.16,10.3-2.91,1.12-3.42,2.35-1.65,5.06,3.4,5.19,6.02,10.81,8.38,16.55,3.16,7.7,3.22,7.9,11.12,5.19,5.17-1.78,11.38-2.03,14.53-7.55,4.8-8.41,8.56-17.33,12.09-26.35,1.08-2.77,.47-3.59-2.31-3.2Zm11.22-21.32c.16-4.55-2.95-6.22-8.15-4.02-8.9,3.76-17.32,8.84-26.72,11.16-5.87,1.45-7.48,5.12-8.49,10.15-.6,2.99,.35,3.51,2.94,2.79,12.68-3.54,25.2-7.45,36.75-13.99,2.52-1.43,3.53-3.4,3.67-6.08Z"/>
</svg>