  0
SECTION
  2
HEADER
  9
$ACADVER
  1
AC1032
  9
$ACADMAINTVER
 90
      228
  9
$DWGCODEPAGE
  3
ANSI_1252
  9
$REQUIREDVERSIONS
160
                 0
  9
$INSBASE
 10
0.0
 20
0.0
 30
0.0
  9
$EXTMIN
 10
1.000000000000000E+20
 20
1.000000000000000E+20
 30
1.000000000000000E+20
  9
$EXTMAX
 10
-1.000000000000000E+20
 20
-1.000000000000000E+20
 30
-1.000000000000000E+20
  9
$LIMMIN
 10
0.0
 20
0.0
  9
$LIMMAX
 10
12.0
 20
9.0
  9
$ORTHOMODE
 70
     0
  9
$REGENMODE
 70
     1
  9
$FILLMODE
 70
     1
  9
$QTEXTMODE
 70
     0
  9
$MIRRTEXT
 70
     0
  9
$LTSCALE
 40
1.0
  9
$ATTMODE
 70
     1
  9
$TEXTSIZE
 40
0.2
  9
$TRACEWID
 40
0.05
  9
$TEXTSTYLE
  7
Standard
  9
$CLAYER
  8
0
  9
$CELTYPE
  6
ByLayer
  9
$CECOLOR
 62
   256
  9
$CELTSCALE
 40
1.0
  9
$DISPSILH
 70
     0
  9
$DIMSCALE
 40
1.0
  9
$DIMASZ
 40
0.18
  9
$DIMEXO
 40
0.0625
  9
$DIMDLI
 40
0.38
  9
$DIMRND
 40
0.0
  9
$DIMDLE
 40
0.0
  9
$DIMEXE
 40
0.18
  9
$DIMTP
 40
0.0
  9
$DIMTM
 40
0.0
  9
$DIMTXT
 40
0.18
  9
$DIMCEN
 40
0.09
  9
$DIMTSZ
 40
0.0
  9
$DIMTOL
 70
     0
  9
$DIMLIM
 70
     0
  9
$DIMTIH
 70
     1
  9
$DIMTOH
 70
     1
  9
$DIMSE1
 70
     0
  9
$DIMSE2
 70
     0
  9
$DIMTAD
 70
     0
  9
$DIMZIN
 70
     0
  9
$DIMBLK
  1

  9
$DIMASO
 70
     1
  9
$DIMSHO
 70
     1
  9
$DIMPOST
  1

  9
$DIMAPOST
  1

  9
$DIMALT
 70
     0
  9
$DIMALTD
 70
     2
  9
$DIMALTF
 40
25.4
  9
$DIMLFAC
 40
1.0
  9
$DIMTOFL
 70
     0
  9
$DIMTVP
 40
0.0
  9
$DIMTIX
 70
     0
  9
$DIMSOXD
 70
     0
  9
$DIMSAH
 70
     0
  9
$DIMBLK1
  1

  9
$DIMBLK2
  1

  9
$DIMSTYLE
  2
Standard
  9
$DIMCLRD
 70
     0
  9
$DIMCLRE
 70
     0
  9
$DIMCLRT
 70
     0
  9
$DIMTFAC
 40
1.0
  9
$DIMGAP
 40
0.09
  9
$DIMJUST
 70
     0
  9
$DIMSD1
 70
     0
  9
$DIMSD2
 70
     0
  9
$DIMTOLJ
 70
     1
  9
$DIMTZIN
 70
     0
  9
$DIMALTZ
 70
     0
  9
$DIMALTTZ
 70
     0
  9
$DIMUPT
 70
     0
  9
$DIMDEC
 70
     4
  9
$DIMTDEC
 70
     4
  9
$DIMALTU
 70
     2
  9
$DIMALTTD
 70
     2
  9
$DIMTXSTY
  7
Standard
  9
$DIMAUNIT
 70
     0
  9
$DIMADEC
 70
     0
  9
$DIMALTRND
 40
0.0
  9
$DIMAZIN
 70
     0
  9
$DIMDSEP
 70
    46
  9
$DIMATFIT
 70
     3
  9
$DIMFRAC
 70
     0
  9
$DIMLDRBLK
  1

  9
$DIMLUNIT
 70
     2
  9
$DIMLWD
 70
    -2
  9
$DIMLWE
 70
    -2
  9
$DIMTMOVE
 70
     0
  9
$DIMFXL
 40
1.0
  9
$DIMFXLON
 70
     0
  9
$DIMJOGANG
 40
0.7853981633974483
  9
$DIMTFILL
 70
     0
  9
$DIMTFILLCLR
 70
     0
  9
$DIMARCSYM
 70
     0
  9
$DIMLTYPE
  6

  9
$DIMLTEX1
  6

  9
$DIMLTEX2
  6

  9
$DIMTXTDIRECTION
 70
     0
  9
$LUNITS
 70
     2
  9
$LUPREC
 70
     4
  9
$SKETCHINC
 40
0.1
  9
$FILLETRAD
 40
0.0
  9
$AUNITS
 70
     0
  9
$AUPREC
 70
     0
  9
$MENU
  1
.
  9
$ELEVATION
 40
0.0
  9
$PELEVATION
 40
0.0
  9
$THICKNESS
 40
0.0
  9
$LIMCHECK
 70
     0
  9
$CHAMFERA
 40
0.0
  9
$CHAMFERB
 40
0.0
  9
$CHAMFERC
 40
0.0
  9
$CHAMFERD
 40
0.0
  9
$SKPOLY
 70
     0
  9
$TDCREATE
 40
2460929.579641204
  9
$TDUCREATE
 40
2460929.371307870
  9
$TDUPDATE
 40
2460929.579641204
  9
$TDUUPDATE
 40
2460929.371307870
  9
$TDINDWG
 40
0.0000000000
  9
$TDUSRTIMER
 40
0.0000000000
  9
$USRTIMER
 70
     1
  9
$ANGBASE
 50
0.0
  9
$ANGDIR
 70
     0
  9
$PDMODE
 70
     0
  9
$PDSIZE
 40
0.0
  9
$PLINEWID
 40
0.0
  9
$SPLFRAME
 70
     0
  9
$SPLINETYPE
 70
     6
  9
$SPLINESEGS
 70
     8
  9
$HANDSEED
  5
9A
  9
$SURFTAB1
 70
     6
  9
$SURFTAB2
 70
     6
  9
$SURFTYPE
 70
     6
  9
$SURFU
 70
     6
  9
$SURFV
 70
     6
  9
$UCSBASE
  2

  9
$UCSNAME
  2

  9
$UCSORG
 10
0.0
 20
0.0
 30
0.0
  9
$UCSXDIR
 10
1.0
 20
0.0
 30
0.0
  9
$UCSYDIR
 10
0.0
 20
1.0
 30
0.0
  9
$UCSORTHOREF
  2

  9
$UCSORTHOVIEW
 70
     0
  9
$UCSORGTOP
 10
0.0
 20
0.0
 30
0.0
  9
$UCSORGBOTTOM
 10
0.0
 20
0.0
 30
0.0
  9
$UCSORGLEFT
 10
0.0
 20
0.0
 30
0.0
  9
$UCSORGRIGHT
 10
0.0
 20
0.0
 30
0.0
  9
$UCSORGFRONT
 10
0.0
 20
0.0
 30
0.0
  9
$UCSORGBACK
 10
0.0
 20
0.0
 30
0.0
  9
$PUCSBASE
  2

  9
$PUCSNAME
  2

  9
$PUCSORG
 10
0.0
 20
0.0
 30
0.0
  9
$PUCSXDIR
 10
1.0
 20
0.0
 30
0.0
  9
$PUCSYDIR
 10
0.0
 20
1.0
 30
0.0
  9
$PUCSORTHOREF
  2

  9
$PUCSORTHOVIEW
 70
     0
  9
$PUCSORGTOP
 10
0.0
 20
0.0
 30
0.0
  9
$PUCSORGBOTTOM
 10
0.0
 20
0.0
 30
0.0
  9
$PUCSORGLEFT
 10
0.0
 20
0.0
 30
0.0
  9
$PUCSORGRIGHT
 10
0.0
 20
0.0
 30
0.0
  9
$PUCSORGFRONT
 10
0.0
 20
0.0
 30
0.0
  9
$PUCSORGBACK
 10
0.0
 20
0.0
 30
0.0
  9
$USERI1
 70
     0
  9
$USERI2
 70
     0
  9
$USERI3
 70
     0
  9
$USERI4
 70
     0
  9
$USERI5
 70
     0
  9
$USERR1
 40
0.0
  9
$USERR2
 40
0.0
  9
$USERR3
 40
0.0
  9
$USERR4
 40
0.0
  9
$USERR5
 40
0.0
  9
$WORLDVIEW
 70
     1
  9
$SHADEDGE
 70
     3
  9
$SHADEDIF
 70
    70
  9
$TILEMODE
 70
     1
  9
$MAXACTVP
 70
    64
  9
$PINSBASE
 10
0.0
 20
0.0
 30
0.0
  9
$PLIMCHECK
 70
     0
  9
$PEXTMIN
 10
1.000000000000000E+20
 20
1.000000000000000E+20
 30
1.000000000000000E+20
  9
$PEXTMAX
 10
-1.000000000000000E+20
 20
-1.000000000000000E+20
 30
-1.000000000000000E+20
  9
$PLIMMIN
 10
0.0
 20
0.0
  9
$PLIMMAX
 10
12.0
 20
9.0
  9
$UNITMODE
 70
     0
  9
$VISRETAIN
 70
     1
  9
$PLINEGEN
 70
     0
  9
$PSLTSCALE
 70
     1
  9
$TREEDEPTH
 70
  3020
  9
$CMLSTYLE
  2
Standard
  9
$CMLJUST
 70
     0
  9
$CMLSCALE
 40
1.0
  9
$PROXYGRAPHICS
 70
     1
  9
$MEASUREMENT
 70
     0
  9
$CELWEIGHT
370
    -1
  9
$ENDCAPS
280
     0
  9
$JOINSTYLE
280
     0
  9
$LWDISPLAY
290
     1
  9
$INSUNITS
 70
     0
  9
$HYPERLINKBASE
  1

  9
$STYLESHEET
  1

  9
$XEDIT
290
     1
  9
$CEPSNTYPE
380
     0
  9
$PSTYLEMODE
290
     1
  9
$FINGERPRINTGUID
  2
{46E76855-F7B8-5243-AD55-5A4E4FA18CDB}
  9
$VERSIONGUID
  2
{8B4BF517-82F5-064B-9535-A5952A6467C6}
  9
$EXTNAMES
290
     1
  9
$PSVPSCALE
 40
0.0
  9
$OLESTARTUP
290
     0
  9
$SORTENTS
280
   127
  9
$INDEXCTL
280
     0
  9
$HIDETEXT
280
     1
  9
$XCLIPFRAME
280
     2
  9
$HALOGAP
280
     0
  9
$OBSCOLOR
 70
   257
  9
$OBSLTYPE
280
     0
  9
$INTERSECTIONDISPLAY
280
     0
  9
$INTERSECTIONCOLOR
 70
   257
  9
$DIMASSOC
280
     2
  9
$PROJECTNAME
  1

  9
$CAMERADISPLAY
290
     0
  9
$LENSLENGTH
 40
50.0
  9
$CAMERAHEIGHT
 40
0.0
  9
$STEPSPERSEC
 40
2.0
  9
$STEPSIZE
 40
6.0
  9
$3DDWFPREC
 40
2.0
  9
$PSOLWIDTH
 40
0.25
  9
$PSOLHEIGHT
 40
4.0
  9
$LOFTANG1
 40
1.570796326794896
  9
$LOFTANG2
 40
1.570796326794896
  9
$LOFTMAG1
 40
0.0
  9
$LOFTMAG2
 40
0.0
  9
$LOFTPARAM
 70
     7
  9
$LOFTNORMALS
280
     1
  9
$LATITUDE
 40
37.795
  9
$LONGITUDE
 40
-122.394
  9
$NORTHDIRECTION
 40
0.0
  9
$TIMEZONE
 70
 -8000
  9
$LIGHTGLYPHDISPLAY
280
     1
  9
$TILEMODELIGHTSYNCH
280
     1
  9
$CMATERIAL
347
11
  9
$SOLIDHIST
280
     0
  9
$SHOWHIST
280
     1
  9
$DWFFRAME
280
     2
  9
$DGNFRAME
280
     0
  9
$REALWORLDSCALE
290
     1
  9
$INTERFERECOLOR
 62
     1
  9
$INTERFEREOBJVS
345
33
  9
$INTERFEREVPVS
346
30
  9
$CSHADOW
280
     0
  9
$SHADOWPLANELOCATION
 40
0.0
  0
ENDSEC
  0
SECTION
  2
CLASSES
  0
CLASS
  1
ACDBDICTIONARYWDFLT
  2
AcDbDictionaryWithDefault
  3
ObjectDBX Classes
 90
        0
 91
        1
280
     0
281
     0
  0
CLASS
  1
MATERIAL
  2
AcDbMaterial
  3
ObjectDBX Classes
 90
     1153
 91
        3
280
     0
281
     0
  0
CLASS
  1
VISUALSTYLE
  2
AcDbVisualStyle
  3
ObjectDBX Classes
 90
     4095
 91
       24
280
     0
281
     0
  0
CLASS
  1
SCALE
  2
AcDbScale
  3
ObjectDBX Classes
 90
     1153
 91
       17
280
     0
281
     0
  0
CLASS
  1
TABLESTYLE
  2
AcDbTableStyle
  3
ObjectDBX Classes
 90
     4095
 91
        1
280
     0
281
     0
  0
CLASS
  1
MLEADERSTYLE
  2
AcDbMLeaderStyle
  3
ACDB_MLEADERSTYLE_CLASS
 90
     4095
 91
        1
280
     0
281
     0
  0
CLASS
  1
ACDBSECTIONVIEWSTYLE
  2
AcDbSectionViewStyle
  3
ObjectDBX Classes
 90
     1025
 91
        1
280
     0
281
     0
  0
CLASS
  1
ACDBDETAILVIEWSTYLE
  2
AcDbDetailViewStyle
  3
ObjectDBX Classes
 90
     1025
 91
        1
280
     0
281
     0
  0
CLASS
  1
DICTIONARYVAR
  2
AcDbDictionaryVar
  3
ObjectDBX Classes
 90
        0
 91
        5
280
     0
281
     0
  0
CLASS
  1
CELLSTYLEMAP
  2
AcDbCellStyleMap
  3
ObjectDBX Classes
 90
     1152
 91
        1
280
     0
281
     0
  0
ENDSEC
  0
SECTION
  2
TABLES
  0
TABLE
  2
VPORT
  5
8
330
0
100
AcDbSymbolTable
 70
     1
  0
VPORT
  5
57
330
8
100
AcDbSymbolTableRecord
100
AcDbViewportTableRecord
  2
*Active
 70
     0
 10
0.0
 20
0.0
 11
1.0
 21
1.0
 12
0.0
 22
0.0
 13
0.0
 23
0.0
 14
1.0
 24
1.0
 15
0.0
 25
0.0
 16
0.0
 26
0.0
 36
1.0
 17
2070.329143804109
 27
-1549.708560332395
 37
0.0
 40
3099.36839297975
 41
1.304893925962813
 42
50.0
 43
0.0
 44
0.0
 50
0.0
 51
0.0
 71
     0
 72
   100
 73
     1
 74
     1
 75
     0
 76
     0
 77
     0
 78
     0
281
     0
 65
     1
110
0.0
120
0.0
130
0.0
111
1.0
121
0.0
131
0.0
112
0.0
122
1.0
132
0.0
 79
     0
146
0.0
 60
     3
 61
     5
292
     1
282
     1
141
0.0
142
0.0
 63
   250
421
  3355443
  0
ENDTAB
  0
TABLE
  2
LTYPE
  5
5
330
0
100
AcDbSymbolTable
 70
     1
  0
LTYPE
  5
5B
330
5
100
AcDbSymbolTableRecord
100
AcDbLinetypeTableRecord
  2
ByBlock
 70
     0
  3

 72
    65
 73
     0
 40
0.0
  0
LTYPE
  5
5C
330
5
100
AcDbSymbolTableRecord
100
AcDbLinetypeTableRecord
  2
ByLayer
 70
     0
  3

 72
    65
 73
     0
 40
0.0
  0
LTYPE
  5
5D
330
5
100
AcDbSymbolTableRecord
100
AcDbLinetypeTableRecord
  2
Continuous
 70
     0
  3
Solid line
 72
    65
 73
     0
 40
0.0
  0
ENDTAB
  0
TABLE
  2
LAYER
  5
2
330
0
100
AcDbSymbolTable
 70
     2
  0
LAYER
  5
54
330
2
100
AcDbSymbolTableRecord
100
AcDbLayerTableRecord
  2
0
 70
     0
 62
     7
  6
Continuous
370
    -3
390
F
347
21
348
0
  0
LAYER
  5
78
330
2
100
AcDbSymbolTableRecord
100
AcDbLayerTableRecord
  2
Layer 1
 70
     0
 62
     7
  6
Continuous
370
     0
390
F
347
21
348
0
  0
ENDTAB
  0
TABLE
  2
STYLE
  5
3
330
0
100
AcDbSymbolTable
 70
     2
  0
STYLE
  5
55
330
3
100
AcDbSymbolTableRecord
100
AcDbTextStyleTableRecord
  2
Standard
 70
     0
 40
0.0
 41
1.0
 50
0.0
 71
     0
 42
0.2
  3
txt
  4

  0
STYLE
  5
5A
330
3
100
AcDbSymbolTableRecord
100
AcDbTextStyleTableRecord
  2
Annotative
 70
     0
 40
0.0
 41
1.0
 50
0.0
 71
     0
 42
0.2
  3
txt
  4

1001
AcadAnnotative
1000
AnnotativeData
1002
{
1070
     1
1070
     1
1002
}
  0
ENDTAB
  0
TABLE
  2
VIEW
  5
6
330
0
100
AcDbSymbolTable
 70
     0
  0
ENDTAB
  0
TABLE
  2
UCS
  5
7
330
0
100
AcDbSymbolTable
 70
     0
  0
ENDTAB
  0
TABLE
  2
APPID
  5
9
330
0
100
AcDbSymbolTable
 70
     2
  0
APPID
  5
56
330
9
100
AcDbSymbolTableRecord
100
AcDbRegAppTableRecord
  2
ACAD
 70
     0
  0
APPID
  5
5E
330
9
100
AcDbSymbolTableRecord
100
AcDbRegAppTableRecord
  2
AcadAnnotative
 70
     0
  0
ENDTAB
  0
TABLE
  2
DIMSTYLE
  5
A
330
0
100
AcDbSymbolTable
 70
     2
100
AcDbDimStyleTable
 71
     0
  0
DIMSTYLE
105
58
330
A
100
AcDbSymbolTableRecord
100
AcDbDimStyleTableRecord
  2
Standard
 70
     0
340
55
  0
DIMSTYLE
105
59
330
A
100
AcDbSymbolTableRecord
100
AcDbDimStyleTableRecord
  2
Annotative
 70
     0
340
55
1001
AcadAnnotative
1000
AnnotativeData
1002
{
1070
     1
1070
     1
1002
}
  0
ENDTAB
  0
TABLE
  2
BLOCK_RECORD
  5
1
330
0
100
AcDbSymbolTable
 70
     1
  0
BLOCK_RECORD
  5
70
330
1
100
AcDbSymbolTableRecord
100
AcDbBlockTableRecord
  2
*Model_Space
340
73
 70
     0
280
     1
281
     0
  0
BLOCK_RECORD
  5
6C
330
1
100
AcDbSymbolTableRecord
100
AcDbBlockTableRecord
  2
*Paper_Space
340
6F
 70
     0
280
     1
281
     0
  0
BLOCK_RECORD
  5
74
330
1
100
AcDbSymbolTableRecord
100
AcDbBlockTableRecord
  2
*Paper_Space0
340
77
 70
     0
280
     1
281
     0
  0
ENDTAB
  0
ENDSEC
  0
SECTION
  2
BLOCKS
  0
BLOCK
  5
71
330
70
100
AcDbEntity
  8
0
100
AcDbBlockBegin
  2
*Model_Space
 70
     0
 10
0.0
 20
0.0
 30
0.0
  3
*Model_Space
  1

  0
ENDBLK
  5
72
330
70
100
AcDbEntity
  8
0
100
AcDbBlockEnd
  0
BLOCK
  5
6D
330
6C
100
AcDbEntity
 67
     1
  8
0
100
AcDbBlockBegin
  2
*Paper_Space
 70
     0
 10
0.0
 20
0.0
 30
0.0
  3
*Paper_Space
  1

  0
ENDBLK
  5
6E
330
6C
100
AcDbEntity
 67
     1
  8
0
100
AcDbBlockEnd
  0
BLOCK
  5
75
330
74
100
AcDbEntity
 67
     1
  8
0
100
AcDbBlockBegin
  2
*Paper_Space0
 70
     0
 10
0.0
 20
0.0
 30
0.0
  3
*Paper_Space0
  1

  0
ENDBLK
  5
76
330
74
100
AcDbEntity
 67
     1
  8
0
100
AcDbBlockEnd
  0
ENDSEC
  0
SECTION
  2
ENTITIES
  0
SPLINE
  5
79
330
70
100
AcDbEntity
  8
Layer 1
100
AcDbSpline
210
0.0
220
0.0
230
1.0
 70
     9
 71
     3
 72
    53
 73
    49
 74
     0
 42
0.0000000001
 43
0.0000000001
 40
0.0
 40
0.0
 40
0.0
 40
0.0
 40
1.0
 40
1.0
 40
1.0
 40
2.0
 40
2.0
 40
2.0
 40
3.0
 40
3.0
 40
3.0
 40
4.0
 40
4.0
 40
4.0
 40
5.0
 40
5.0
 40
5.0
 40
6.0
 40
6.0
 40
6.0
 40
7.0
 40
7.0
 40
7.0
 40
8.0
 40
8.0
 40
8.0
 40
9.0
 40
9.0
 40
9.0
 40
10.0
 40
10.0
 40
10.0
 40
11.0
 40
11.0
 40
11.0
 40
12.0
 40
12.0
 40
12.0
 40
13.0
 40
13.0
 40
13.0
 40
14.0
 40
14.0
 40
14.0
 40
15.0
 40
15.0
 40
15.0
 40
16.0
 40
16.0
 40
16.0
 40
16.0
 10
922.2630612719923
 20
-1799.933435935762
 30
0.0
 10
922.2630612719923
 20
-1799.933435935762
 30
0.0
 10
922.2143677065078
 20
-1799.933435935762
 30
0.0
 10
922.2143677065078
 20
-1799.933435935762
 30
0.0
 10
922.2143677065078
 20
-1859.329515687704
 30
0.0
 10
922.2073993428612
 20
-1918.725595439648
 30
0.0
 10
922.221336070158
 20
-1978.128601065217
 30
0.0
 10
922.221336070158
 20
-1983.140936538171
 30
0.0
 10
921.9289197371372
 20
-1988.090641718349
 30
0.0
 10
920.1607399518479
 20
-1992.859296913784
 30
0.0
 10
915.3571579581338
 20
-2005.814759633375
 30
0.0
 10
902.9308659754615
 20
-2014.259141672313
 30
0.0
 10
888.4994698435193
 20
-2014.259141672313
 30
0.0
 10
811.2330640100417
 20
-2014.252173308667
 30
0.0
 10
733.9666581765641
 20
-2014.238279071398
 30
0.0
 10
656.7072207067294
 20
-2014.224342344105
 30
0.0
 10
654.1522956697417
 20
-2014.224342344105
 30
0.0
 10
651.5974556127957
 20
-2014.286972636879
 30
0.0
 10
649.0494989394473
 20
-2014.19651137954
 30
0.0
 10
630.865893923973
 20
-2013.549048420724
 30
0.0
 10
617.1864012255037
 20
-1999.918334267777
 30
0.0
 10
616.4624562266626
 20
-1981.755591853222
 30
0.0
 10
616.4276144084297
 20
-1980.829691778696
 30
0.0
 10
616.4415511357228
 20
-1979.903834194197
 30
0.0
 10
616.4415511357228
 20
-1978.970965756029
 30
0.0
 10
616.4415511357228
 20
-1859.594058566139
 30
0.0
 10
616.4624562266626
 20
-1740.217108886232
 30
0.0
 10
616.4067093174899
 20
-1620.840201696346
 30
0.0
 10
616.4067093174899
 20
-1611.107947083463
 30
0.0
 10
619.0242646472552
 20
-1602.566092933513
 30
0.0
 10
626.0276400721204
 20
-1595.576654235943
 30
0.0
 10
632.9892053151061
 20
-1588.642962447544
 30
0.0
 10
641.3917771721653
 20
-1585.566004997376
 30
0.0
 10
651.1657569868848
 20
-1585.572973361022
 30
0.0
 10
708.1253313938077
 20
-1585.628550310104
 30
0.0
 10
765.0918741643736
 20
-1585.600761835563
 30
0.0
 10
822.0512786112093
 20
-1585.600761835563
 30
0.0
 10
844.3282873887593
 20
-1585.600761835563
 30
0.0
 10
866.6052961663053
 20
-1585.510258088203
 30
0.0
 10
888.8754215602538
 20
-1585.635518673751
 30
0.0
 10
905.4229907595917
 20
-1585.726107401157
 30
0.0
 10
918.5177357720649
 20
-1596.54440698237
 30
0.0
 10
921.6295350404662
 20
-1612.374999546511
 30
0.0
 10
922.4649738576527
 20
-1616.614484005031
 30
0.0
 10
922.2492095247444
 20
-1620.92373708006
 30
0.0
 10
922.2560929083456
 20
-1625.212085064153
 30
0.0
 10
922.2630612719923
 20
-1683.452478701327
 30
0.0
 10
922.2630612719923
 20
-1741.693042298588
 30
0.0
 10
922.2630612719923
 20
-1799.933435935762
 30
0.0
  0
SPLINE
  5
7A
330
70
100
AcDbEntity
  8
Layer 1
100
AcDbSpline
210
0.0
220
0.0
230
1.0
 70
     9
 71
     3
 72
    53
 73
    49
 74
     0
 42
0.0000000001
 43
0.0000000001
 40
0.0
 40
0.0
 40
0.0
 40
0.0
 40
1.0
 40
1.0
 40
1.0
 40
2.0
 40
2.0
 40
2.0
 40
3.0
 40
3.0
 40
3.0
 40
4.0
 40
4.0
 40
4.0
 40
5.0
 40
5.0
 40
5.0
 40
6.0
 40
6.0
 40
6.0
 40
7.0
 40
7.0
 40
7.0
 40
8.0
 40
8.0
 40
8.0
 40
9.0
 40
9.0
 40
9.0
 40
10.0
 40
10.0
 40
10.0
 40
11.0
 40
11.0
 40
11.0
 40
12.0
 40
12.0
 40
12.0
 40
13.0
 40
13.0
 40
13.0
 40
14.0
 40
14.0
 40
14.0
 40
15.0
 40
15.0
 40
15.0
 40
16.0
 40
16.0
 40
16.0
 40
16.0
 10
924.6926407433901
 20
-1851.776191905055
 30
0.0
 10
924.6926407433901
 20
-1773.932006749224
 30
0.0
 10
924.7135458343301
 20
-1696.08085322975
 30
0.0
 10
924.6996091070368
 20
-1618.236583093874
 30
0.0
 10
924.6996091070368
 20
-1607.926464178594
 30
0.0
 10
920.7454026578025
 20
-1599.315096352269
 30
0.0
 10
913.2060580924635
 20
-1592.318689291052
 30
0.0
 10
906.0217601529229
 20
-1585.649455401044
 30
0.0
 10
897.3824338919703
 20
-1582.976238142151
 30
0.0
 10
887.7337146627988
 20
-1582.997143233091
 30
0.0
 10
867.6634676800468
 20
-1583.031900071279
 30
0.0
 10
847.5933056773401
 20
-1583.031900071279
 30
0.0
 10
827.5231436746334
 20
-1583.031900071279
 30
0.0
 10
768.4681313311712
 20
-1583.024931707632
 30
0.0
 10
709.4132039677506
 20
-1583.011079960384
 30
0.0
 10
650.35827660433
 20
-1583.004111596738
 30
0.0
 10
639.0178596298946
 20
-1583.004111596738
 30
0.0
 10
629.6406516428078
 20
-1587.34115314631
 30
0.0
 10
622.2126309357272
 20
-1595.896859043507
 30
0.0
 10
615.9403388334367
 20
-1603.116083781324
 30
0.0
 10
613.8587526441451
 20
-1611.630064476687
 30
0.0
 10
613.8726893714383
 20
-1621.021209191071
 30
0.0
 10
613.9562247551521
 20
-1680.542592018582
 30
0.0
 10
613.9144145732725
 20
-1740.057006482451
 30
0.0
 10
613.9144145732725
 20
-1799.57142094632
 30
0.0
 10
613.9144145732725
 20
-1849.228277721731
 30
0.0
 10
613.9004778459793
 20
-1898.885134497146
 30
0.0
 10
613.9213829369191
 20
-1948.541948782536
 30
0.0
 10
613.9213829369191
 20
-1960.251306620035
 30
0.0
 10
613.8587526441451
 20
-1971.967632821184
 30
0.0
 10
614.0954220679969
 20
-1983.676990658687
 30
0.0
 10
614.2624928354243
 20
-1991.891629147403
 30
0.0
 10
617.6180148713656
 20
-1998.929761410456
 30
0.0
 10
623.1315201565821
 20
-2004.979363306209
 30
0.0
 10
631.2070038224783
 20
-2013.834496390098
 30
0.0
 10
641.4056289194132
 20
-2016.883665365726
 30
0.0
 10
653.1498710651731
 20
-2016.862760274786
 30
0.0
 10
726.1209605509147
 20
-2016.744425562864
 30
0.0
 10
799.0990184002994
 20
-2016.834929310224
 30
0.0
 10
872.0701928660828
 20
-2016.765288163779
 30
0.0
 10
880.0620561682235
 20
-2016.75139392651
 30
0.0
 10
888.1236031068265
 20
-2017.600684490941
 30
0.0
 10
896.0457827725013
 20
-2016.131804422277
 30
0.0
 10
913.0876808905204
 20
-2012.957332371078
 30
0.0
 10
924.6926407433901
 20
-1998.505116128241
 30
0.0
 10
924.7065774706834
 20
-1980.558223026639
 30
0.0
 10
924.7413343088711
 20
-1937.633187943984
 30
0.0
 10
924.6926407433901
 20
-1894.708195351353
 30
0.0
 10
924.6926407433901
 20
-1851.776191905055
 30
0.0
  0
HATCH
  5
7B
330
70
100
AcDbEntity
  8
Layer 1
 62
    18
420
        0
440
 33554687
100
AcDbHatch
 10
0.0
 20
0.0
 30
0.0
210
0.0
220
0.0
230
1.0
  2
SOLID
 70
     1
 71
     1
 91
        2
 92
        1
 93
        1
 72
     4
 94
        3
 73
     0
 74
     0
 95
       53
 96
       49
 40
0.0
 40
0.0
 40
0.0
 40
0.0
 40
1.0
 40
1.0
 40
1.0
 40
2.0
 40
2.0
 40
2.0
 40
3.0
 40
3.0
 40
3.0
 40
4.0
 40
4.0
 40
4.0
 40
5.0
 40
5.0
 40
5.0
 40
6.0
 40
6.0
 40
6.0
 40
7.0
 40
7.0
 40
7.0
 40
8.0
 40
8.0
 40
8.0
 40
9.0
 40
9.0
 40
9.0
 40
10.0
 40
10.0
 40
10.0
 40
11.0
 40
11.0
 40
11.0
 40
12.0
 40
12.0
 40
12.0
 40
13.0
 40
13.0
 40
13.0
 40
14.0
 40
14.0
 40
14.0
 40
15.0
 40
15.0
 40
15.0
 40
16.0
 40
16.0
 40
16.0
 40
16.0
 10
922.2630612719923
 20
-1799.933435935762
 10
922.2630612719923
 20
-1799.933435935762
 10
922.2143677065078
 20
-1799.933435935762
 10
922.2143677065078
 20
-1799.933435935762
 10
922.2143677065078
 20
-1859.329515687704
 10
922.2073993428612
 20
-1918.725595439648
 10
922.221336070158
 20
-1978.128601065217
 10
922.221336070158
 20
-1983.140936538171
 10
921.9289197371372
 20
-1988.090641718349
 10
920.1607399518479
 20
-1992.859296913784
 10
915.3571579581338
 20
-2005.814759633375
 10
902.9308659754615
 20
-2014.259141672313
 10
888.4994698435193
 20
-2014.259141672313
 10
811.2330640100417
 20
-2014.252173308667
 10
733.9666581765641
 20
-2014.238279071398
 10
656.7072207067294
 20
-2014.224342344105
 10
654.1522956697417
 20
-2014.224342344105
 10
651.5974556127957
 20
-2014.286972636879
 10
649.0494989394473
 20
-2014.19651137954
 10
630.865893923973
 20
-2013.549048420724
 10
617.1864012255037
 20
-1999.918334267777
 10
616.4624562266626
 20
-1981.755591853222
 10
616.4276144084297
 20
-1980.829691778696
 10
616.4415511357228
 20
-1979.903834194197
 10
616.4415511357228
 20
-1978.970965756029
 10
616.4415511357228
 20
-1859.594058566139
 10
616.4624562266626
 20
-1740.217108886232
 10
616.4067093174899
 20
-1620.840201696346
 10
616.4067093174899
 20
-1611.107947083463
 10
619.0242646472552
 20
-1602.566092933513
 10
626.0276400721204
 20
-1595.576654235943
 10
632.9892053151061
 20
-1588.642962447544
 10
641.3917771721653
 20
-1585.566004997376
 10
651.1657569868848
 20
-1585.572973361022
 10
708.1253313938077
 20
-1585.628550310104
 10
765.0918741643736
 20
-1585.600761835563
 10
822.0512786112093
 20
-1585.600761835563
 10
844.3282873887593
 20
-1585.600761835563
 10
866.6052961663053
 20
-1585.510258088203
 10
888.8754215602538
 20
-1585.635518673751
 10
905.4229907595917
 20
-1585.726107401157
 10
918.5177357720649
 20
-1596.54440698237
 10
921.6295350404662
 20
-1612.374999546511
 10
922.4649738576527
 20
-1616.614484005031
 10
922.2492095247444
 20
-1620.92373708006
 10
922.2560929083456
 20
-1625.212085064153
 10
922.2630612719923
 20
-1683.452478701327
 10
922.2630612719923
 20
-1741.693042298588
 10
922.2630612719923
 20
-1799.933435935762
 97
        0
 97
        1
330
79
 92
        1
 93
        1
 72
     4
 94
        3
 73
     0
 74
     0
 95
       53
 96
       49
 40
0.0
 40
0.0
 40
0.0
 40
0.0
 40
1.0
 40
1.0
 40
1.0
 40
2.0
 40
2.0
 40
2.0
 40
3.0
 40
3.0
 40
3.0
 40
4.0
 40
4.0
 40
4.0
 40
5.0
 40
5.0
 40
5.0
 40
6.0
 40
6.0
 40
6.0
 40
7.0
 40
7.0
 40
7.0
 40
8.0
 40
8.0
 40
8.0
 40
9.0
 40
9.0
 40
9.0
 40
10.0
 40
10.0
 40
10.0
 40
11.0
 40
11.0
 40
11.0
 40
12.0
 40
12.0
 40
12.0
 40
13.0
 40
13.0
 40
13.0
 40
14.0
 40
14.0
 40
14.0
 40
15.0
 40
15.0
 40
15.0
 40
16.0
 40
16.0
 40
16.0
 40
16.0
 10
924.6926407433901
 20
-1851.776191905055
 10
924.6926407433901
 20
-1773.932006749224
 10
924.7135458343301
 20
-1696.08085322975
 10
924.6996091070368
 20
-1618.236583093874
 10
924.6996091070368
 20
-1607.926464178594
 10
920.7454026578025
 20
-1599.315096352269
 10
913.2060580924635
 20
-1592.318689291052
 10
906.0217601529229
 20
-1585.649455401044
 10
897.3824338919703
 20
-1582.976238142151
 10
887.7337146627988
 20
-1582.997143233091
 10
867.6634676800468
 20
-1583.031900071279
 10
847.5933056773401
 20
-1583.031900071279
 10
827.5231436746334
 20
-1583.031900071279
 10
768.4681313311712
 20
-1583.024931707632
 10
709.4132039677506
 20
-1583.011079960384
 10
650.35827660433
 20
-1583.004111596738
 10
639.0178596298946
 20
-1583.004111596738
 10
629.6406516428078
 20
-1587.34115314631
 10
622.2126309357272
 20
-1595.896859043507
 10
615.9403388334367
 20
-1603.116083781324
 10
613.8587526441451
 20
-1611.630064476687
 10
613.8726893714383
 20
-1621.021209191071
 10
613.9562247551521
 20
-1680.542592018582
 10
613.9144145732725
 20
-1740.057006482451
 10
613.9144145732725
 20
-1799.57142094632
 10
613.9144145732725
 20
-1849.228277721731
 10
613.9004778459793
 20
-1898.885134497146
 10
613.9213829369191
 20
-1948.541948782536
 10
613.9213829369191
 20
-1960.251306620035
 10
613.8587526441451
 20
-1971.967632821184
 10
614.0954220679969
 20
-1983.676990658687
 10
614.2624928354243
 20
-1991.891629147403
 10
617.6180148713656
 20
-1998.929761410456
 10
623.1315201565821
 20
-2004.979363306209
 10
631.2070038224783
 20
-2013.834496390098
 10
641.4056289194132
 20
-2016.883665365726
 10
653.1498710651731
 20
-2016.862760274786
 10
726.1209605509147
 20
-2016.744425562864
 10
799.0990184002994
 20
-2016.834929310224
 10
872.0701928660828
 20
-2016.765288163779
 10
880.0620561682235
 20
-2016.75139392651
 10
888.1236031068265
 20
-2017.600684490941
 10
896.0457827725013
 20
-2016.131804422277
 10
913.0876808905204
 20
-2012.957332371078
 10
924.6926407433901
 20
-1998.505116128241
 10
924.7065774706834
 20
-1980.558223026639
 10
924.7413343088711
 20
-1937.633187943984
 10
924.6926407433901
 20
-1894.708195351353
 10
924.6926407433901
 20
-1851.776191905055
 97
        0
 97
        1
330
7A
 75
     2
 76
     1
 98
        1
 10
0.0
 20
0.0
450
        0
451
        0
460
0.0
461
0.0
452
        0
462
0.0
453
        0
470

  0
SPLINE
  5
7C
330
70
100
AcDbEntity
  8
Layer 1
100
AcDbSpline
210
0.0
220
0.0
230
1.0
 70
     9
 71
     3
 72
    53
 73
    49
 74
     0
 42
0.0000000001
 43
0.0000000001
 40
0.0
 40
0.0
 40
0.0
 40
0.0
 40
1.0
 40
1.0
 40
1.0
 40
2.0
 40
2.0
 40
2.0
 40
3.0
 40
3.0
 40
3.0
 40
4.0
 40
4.0
 40
4.0
 40
5.0
 40
5.0
 40
5.0
 40
6.0
 40
6.0
 40
6.0
 40
7.0
 40
7.0
 40
7.0
 40
8.0
 40
8.0
 40
8.0
 40
9.0
 40
9.0
 40
9.0
 40
10.0
 40
10.0
 40
10.0
 40
11.0
 40
11.0
 40
11.0
 40
12.0
 40
12.0
 40
12.0
 40
13.0
 40
13.0
 40
13.0
 40
14.0
 40
14.0
 40
14.0
 40
15.0
 40
15.0
 40
15.0
 40
16.0
 40
16.0
 40
16.0
 40
16.0
 10
922.2630612719923
 20
-1799.933435935762
 30
0.0
 10
922.2630612719923
 20
-1799.933435935762
 30
0.0
 10
922.2143677065078
 20
-1799.933435935762
 30
0.0
 10
922.2143677065078
 20
-1799.933435935762
 30
0.0
 10
922.2143677065078
 20
-1859.329515687704
 30
0.0
 10
922.2073993428612
 20
-1918.725595439648
 30
0.0
 10
922.221336070158
 20
-1978.128601065217
 30
0.0
 10
922.221336070158
 20
-1983.140936538171
 30
0.0
 10
921.9289197371372
 20
-1988.090641718349
 30
0.0
 10
920.1607399518479
 20
-1992.859296913784
 30
0.0
 10
915.3571579581338
 20
-2005.814759633375
 30
0.0
 10
902.9308659754615
 20
-2014.259141672313
 30
0.0
 10
888.4994698435193
 20
-2014.259141672313
 30
0.0
 10
811.2330640100417
 20
-2014.252173308667
 30
0.0
 10
733.9666581765641
 20
-2014.238279071398
 30
0.0
 10
656.7072207067294
 20
-2014.224342344105
 30
0.0
 10
654.1522956697417
 20
-2014.224342344105
 30
0.0
 10
651.5974556127957
 20
-2014.286972636879
 30
0.0
 10
649.0494989394473
 20
-2014.19651137954
 30
0.0
 10
630.865893923973
 20
-2013.549048420724
 30
0.0
 10
617.1864012255037
 20
-1999.918334267777
 30
0.0
 10
616.4624562266626
 20
-1981.755591853222
 30
0.0
 10
616.4276144084297
 20
-1980.829691778696
 30
0.0
 10
616.4415511357228
 20
-1979.903834194197
 30
0.0
 10
616.4415511357228
 20
-1978.970965756029
 30
0.0
 10
616.4415511357228
 20
-1859.594058566139
 30
0.0
 10
616.4624562266626
 20
-1740.217108886232
 30
0.0
 10
616.4067093174899
 20
-1620.840201696346
 30
0.0
 10
616.4067093174899
 20
-1611.107947083463
 30
0.0
 10
619.0242646472552
 20
-1602.566092933513
 30
0.0
 10
626.0276400721204
 20
-1595.576654235943
 30
0.0
 10
632.9892053151061
 20
-1588.642962447544
 30
0.0
 10
641.3917771721653
 20
-1585.566004997376
 30
0.0
 10
651.1657569868848
 20
-1585.572973361022
 30
0.0
 10
708.1253313938077
 20
-1585.628550310104
 30
0.0
 10
765.0918741643736
 20
-1585.600761835563
 30
0.0
 10
822.0512786112093
 20
-1585.600761835563
 30
0.0
 10
844.3282873887593
 20
-1585.600761835563
 30
0.0
 10
866.6052961663053
 20
-1585.510258088203
 30
0.0
 10
888.8754215602538
 20
-1585.635518673751
 30
0.0
 10
905.4229907595917
 20
-1585.726107401157
 30
0.0
 10
918.5177357720649
 20
-1596.54440698237
 30
0.0
 10
921.6295350404662
 20
-1612.374999546511
 30
0.0
 10
922.4649738576527
 20
-1616.614484005031
 30
0.0
 10
922.2492095247444
 20
-1620.92373708006
 30
0.0
 10
922.2560929083456
 20
-1625.212085064153
 30
0.0
 10
922.2630612719923
 20
-1683.452478701327
 30
0.0
 10
922.2630612719923
 20
-1741.693042298588
 30
0.0
 10
922.2630612719923
 20
-1799.933435935762
 30
0.0
  0
SPLINE
  5
7D
330
70
100
AcDbEntity
  8
Layer 1
100
AcDbSpline
210
0.0
220
0.0
230
1.0
 70
     9
 71
     3
 72
    17
 73
    13
 74
     0
 42
0.0000000001
 43
0.0000000001
 40
0.0
 40
0.0
 40
0.0
 40
0.0
 40
1.0
 40
1.0
 40
1.0
 40
2.0
 40
2.0
 40
2.0
 40
3.0
 40
3.0
 40
3.0
 40
4.0
 40
4.0
 40
4.0
 40
4.0
 10
644.1816596830804
 20
-1614.186281530166
 30
0.0
 10
644.1816596830804
 20
-1619.439229202051
 30
0.0
 10
647.4902844639409
 20
-1622.267650549371
 30
0.0
 10
652.5551588809548
 20
-1623.884001432414
 30
0.0
 10
656.3366645710893
 20
-1622.348583712328
 30
0.0
 10
659.2402381411529
 20
-1619.115881946241
 30
0.0
 10
659.2402381411529
 20
-1614.348147856081
 30
0.0
 10
659.2402381411529
 20
-1610.145789718572
 30
0.0
 10
657.1471523886948
 20
-1605.781950651164
 30
0.0
 10
651.8121153658112
 20
-1605.781950651164
 30
0.0
 10
646.8825149497397
 20
-1605.781950651164
 30
0.0
 10
644.1816596830804
 20
-1609.660961532862
 30
0.0
 10
644.1816596830804
 20
-1614.186281530166
 30
0.0
  0
SPLINE
  5
7E
330
70
100
AcDbEntity
  8
Layer 1
100
AcDbSpline
210
0.0
220
0.0
230
1.0
 70
     9
 71
     3
 72
    17
 73
    13
 74
     0
 42
0.0000000001
 43
0.0000000001
 40
0.0
 40
0.0
 40
0.0
 40
0.0
 40
1.0
 40
1.0
 40
1.0
 40
2.0
 40
2.0
 40
2.0
 40
3.0
 40
3.0
 40
3.0
 40
4.0
 40
4.0
 40
4.0
 40
4.0
 10
660.523606868036
 20
-1640.450634493578
 30
0.0
 10
660.523606868036
 20
-1634.066549520374
 30
0.0
 10
656.8095454803633
 20
-1630.995328684186
 30
0.0
 10
650.8667389432785
 20
-1628.975082778388
 30
0.0
 10
645.7348056198143
 20
-1630.75291459133
 30
0.0
 10
642.9661206546779
 20
-1634.793791798938
 30
0.0
 10
642.9661206546779
 20
-1639.803939981955
 30
0.0
 10
642.7634023512737
 20
-1645.137820816797
 30
0.0
 10
646.1398568306113
 20
-1649.825007140016
 30
0.0
 10
651.7446710633493
 20
-1649.825007140016
 30
0.0
 10
657.079708086233
 20
-1649.825007140016
 30
0.0
 10
660.523606868036
 20
-1645.865063095361
 30
0.0
 10
660.523606868036
 20
-1640.450634493578
 30
0.0
  0
SPLINE
  5
7F
330
70
100
AcDbEntity
  8
Layer 1
100
AcDbSpline
210
0.0
220
0.0
230
1.0
 70
     9
 71
     3
 72
    35
 73
    31
 74
     0
 42
0.0000000001
 43
0.0000000001
 40
0.0
 40
0.0
 40
0.0
 40
0.0
 40
1.0
 40
1.0
 40
1.0
 40
2.0
 40
2.0
 40
2.0
 40
3.0
 40
3.0
 40
3.0
 40
4.0
 40
4.0
 40
4.0
 40
5.0
 40
5.0
 40
5.0
 40
6.0
 40
6.0
 40
6.0
 40
7.0
 40
7.0
 40
7.0
 40
8.0
 40
8.0
 40
8.0
 40
9.0
 40
9.0
 40
9.0
 40
10.0
 40
10.0
 40
10.0
 40
10.0
 10
636.8884255126658
 20
-1640.773981749391
 30
0.0
 10
636.8884255126658
 20
-1634.147097287315
 30
0.0
 10
640.1974356895379
 20
-1629.459910964096
 30
0.0
 10
645.5995316188719
 20
-1626.712422779734
 30
0.0
 10
645.5995316188719
 20
-1626.712422779734
 30
0.0
 10
645.53208731641
 20
-1626.470008686879
 30
0.0
 10
645.53208731641
 20
-1626.470008686879
 30
0.0
 10
640.6699312028004
 20
-1623.722520502515
 30
0.0
 10
638.5768454503423
 20
-1619.196815109197
 30
0.0
 10
638.5768454503423
 20
-1614.671109715878
 30
0.0
 10
638.5768454503423
 20
-1606.347711999831
 30
0.0
 10
644.4518222889501
 20
-1600.690869305194
 30
0.0
 10
652.1501076701579
 20
-1600.690869305194
 30
0.0
 10
660.6584954729632
 20
-1600.690869305194
 30
0.0
 10
664.9128820723717
 20
-1607.074954278398
 30
0.0
 10
664.9128820723717
 20
-1613.620905577514
 30
0.0
 10
664.9128820723717
 20
-1618.065292411864
 30
0.0
 10
663.0895735297681
 20
-1622.833411898038
 30
0.0
 10
657.687092204419
 20
-1625.904247338212
 30
0.0
 10
657.687092204419
 20
-1625.904247338212
 30
0.0
 10
657.687092204419
 20
-1626.146661431068
 30
0.0
 10
657.687092204419
 20
-1626.146661431068
 30
0.0
 10
663.1570178322299
 20
-1628.732668685532
 30
0.0
 10
666.5334723115711
 20
-1633.338921845794
 30
0.0
 10
666.5334723115711
 20
-1639.723392215013
 30
0.0
 10
666.5334723115711
 20
-1648.85496537258
 30
0.0
 10
659.9832816562966
 20
-1654.997021648943
 30
0.0
 10
651.6097824584221
 20
-1654.997021648943
 30
0.0
 10
642.4257954429386
 20
-1654.997021648943
 30
0.0
 10
636.8884255126658
 20
-1648.451070349825
 30
0.0
 10
636.8884255126658
 20
-1640.773981749391
 30
0.0
  0
HATCH
  5
80
330
70
100
AcDbEntity
  8
Layer 1
 62
   246
420
  8590872
440
 33554687
100
AcDbHatch
 10
0.0
 20
0.0
 30
0.0
210
0.0
220
0.0
230
1.0
  2
SOLID
 70
     1
 71
     1
 91
        3
 92
        1
 93
        1
 72
     4
 94
        3
 73
     0
 74
     0
 95
       17
 96
       13
 40
0.0
 40
0.0
 40
0.0
 40
0.0
 40
1.0
 40
1.0
 40
1.0
 40
2.0
 40
2.0
 40
2.0
 40
3.0
 40
3.0
 40
3.0
 40
4.0
 40
4.0
 40
4.0
 40
4.0
 10
644.1816596830804
 20
-1614.186281530166
 10
644.1816596830804
 20
-1619.439229202051
 10
647.4902844639409
 20
-1622.267650549371
 10
652.5551588809548
 20
-1623.884001432414
 10
656.3366645710893
 20
-1622.348583712328
 10
659.2402381411529
 20
-1619.115881946241
 10
659.2402381411529
 20
-1614.348147856081
 10
659.2402381411529
 20
-1610.145789718572
 10
657.1471523886948
 20
-1605.781950651164
 10
651.8121153658112
 20
-1605.781950651164
 10
646.8825149497397
 20
-1605.781950651164
 10
644.1816596830804
 20
-1609.660961532862
 10
644.1816596830804
 20
-1614.186281530166
 97
        0
 97
        1
330
7D
 92
        1
 93
        1
 72
     4
 94
        3
 73
     0
 74
     0
 95
       17
 96
       13
 40
0.0
 40
0.0
 40
0.0
 40
0.0
 40
1.0
 40
1.0
 40
1.0
 40
2.0
 40
2.0
 40
2.0
 40
3.0
 40
3.0
 40
3.0
 40
4.0
 40
4.0
 40
4.0
 40
4.0
 10
660.523606868036
 20
-1640.450634493578
 10
660.523606868036
 20
-1634.066549520374
 10
656.8095454803633
 20
-1630.995328684186
 10
650.8667389432785
 20
-1628.975082778388
 10
645.7348056198143
 20
-1630.75291459133
 10
642.9661206546779
 20
-1634.793791798938
 10
642.9661206546779
 20
-1639.803939981955
 10
642.7634023512737
 20
-1645.137820816797
 10
646.1398568306113
 20
-1649.825007140016
 10
651.7446710633493
 20
-1649.825007140016
 10
657.079708086233
 20
-1649.825007140016
 10
660.523606868036
 20
-1645.865063095361
 10
660.523606868036
 20
-1640.450634493578
 97
        0
 97
        1
330
7E
 92
        1
 93
        1
 72
     4
 94
        3
 73
     0
 74
     0
 95
       35
 96
       31
 40
0.0
 40
0.0
 40
0.0
 40
0.0
 40
1.0
 40
1.0
 40
1.0
 40
2.0
 40
2.0
 40
2.0
 40
3.0
 40
3.0
 40
3.0
 40
4.0
 40
4.0
 40
4.0
 40
5.0
 40
5.0
 40
5.0
 40
6.0
 40
6.0
 40
6.0
 40
7.0
 40
7.0
 40
7.0
 40
8.0
 40
8.0
 40
8.0
 40
9.0
 40
9.0
 40
9.0
 40
10.0
 40
10.0
 40
10.0
 40
10.0
 10
636.8884255126658
 20
-1640.773981749391
 10
636.8884255126658
 20
-1634.147097287315
 10
640.1974356895379
 20
-1629.459910964096
 10
645.5995316188719
 20
-1626.712422779734
 10
645.5995316188719
 20
-1626.712422779734
 10
645.53208731641
 20
-1626.470008686879
 10
645.53208731641
 20
-1626.470008686879
 10
640.6699312028004
 20
-1623.722520502515
 10
638.5768454503423
 20
-1619.196815109197
 10
638.5768454503423
 20
-1614.671109715878
 10
638.5768454503423
 20
-1606.347711999831
 10
644.4518222889501
 20
-1600.690869305194
 10
652.1501076701579
 20
-1600.690869305194
 10
660.6584954729632
 20
-1600.690869305194
 10
664.9128820723717
 20
-1607.074954278398
 10
664.9128820723717
 20
-1613.620905577514
 10
664.9128820723717
 20
-1618.065292411864
 10
663.0895735297681
 20
-1622.833411898038
 10
657.687092204419
 20
-1625.904247338212
 10
657.687092204419
 20
-1625.904247338212
 10
657.687092204419
 20
-1626.146661431068
 10
657.687092204419
 20
-1626.146661431068
 10
663.1570178322299
 20
-1628.732668685532
 10
666.5334723115711
 20
-1633.338921845794
 10
666.5334723115711
 20
-1639.723392215013
 10
666.5334723115711
 20
-1648.85496537258
 10
659.9832816562966
 20
-1654.997021648943
 10
651.6097824584221
 20
-1654.997021648943
 10
642.4257954429386
 20
-1654.997021648943
 10
636.8884255126658
 20
-1648.451070349825
 10
636.8884255126658
 20
-1640.773981749391
 97
        0
 97
        1
330
7F
 75
     2
 76
     1
 98
        1
 10
0.0
 20
0.0
450
        0
451
        0
460
0.0
461
0.0
452
        0
462
0.0
453
        0
470

  0
SPLINE
  5
81
330
70
100
AcDbEntity
  8
Layer 1
100
AcDbSpline
210
0.0
220
0.0
230
1.0
 70
     9
 71
     3
 72
    17
 73
    13
 74
     0
 42
0.0000000001
 43
0.0000000001
 40
0.0
 40
0.0
 40
0.0
 40
0.0
 40
1.0
 40
1.0
 40
1.0
 40
2.0
 40
2.0
 40
2.0
 40
3.0
 40
3.0
 40
3.0
 40
4.0
 40
4.0
 40
4.0
 40
4.0
 10
736.1457299964322
 20
-1879.428435598734
 30
0.0
 10
736.0186207919659
 20
-1881.918136552771
 30
0.0
 10
736.1601568438827
 20
-1884.525366047246
 30
0.0
 10
740.4075530575109
 20
-1884.371353650784
 30
0.0
 10
746.765359039914
 20
-1884.140850607515
 30
0.0
 10
748.6194881940364
 20
-1882.524493771789
 30
0.0
 10
748.7718680109801
 20
-1876.77238338407
 30
0.0
 10
748.8430914407008
 20
-1874.083576468705
 30
0.0
 10
748.2559556974092
 20
-1872.014685774904
 30
0.0
 10
745.1243846235201
 20
-1872.922743689336
 30
0.0
 10
741.590941211839
 20
-1873.947350596494
 30
0.0
 10
735.5901460005088
 20
-1871.629912559457
 30
0.0
 10
736.1457299964322
 20
-1879.428435598734
 30
0.0
  0
SPLINE
  5
82
330
70
100
AcDbEntity
  8
Layer 1
100
AcDbSpline
210
0.0
220
0.0
230
1.0
 70
     9
 71
     3
 72
    17
 73
    13
 74
     0
 42
0.0000000001
 43
0.0000000001
 40
0.0
 40
0.0
 40
0.0
 40
0.0
 40
1.0
 40
1.0
 40
1.0
 40
2.0
 40
2.0
 40
2.0
 40
3.0
 40
3.0
 40
3.0
 40
4.0
 40
4.0
 40
4.0
 40
4.0
 10
736.1124425592579
 20
-1899.853947312416
 30
0.0
 10
736.436672852059
 20
-1902.349937993871
 30
0.0
 10
735.3799127208667
 20
-1905.88349310836
 30
0.0
 10
740.308146149754
 20
-1905.670570368771
 30
0.0
 10
746.2639938691218
 20
-1905.413241466222
 30
0.0
 10
747.6523051233861
 20
-1904.175368118524
 30
0.0
 10
747.5592223131398
 20
-1897.849638027443
 30
0.0
 10
747.5278252311991
 20
-1895.71611436967
 30
0.0
 10
748.6100965655323
 20
-1892.793040885617
 30
0.0
 10
744.3886669588037
 20
-1892.868483244516
 30
0.0
 10
737.6938536007192
 20
-1892.988125545811
 30
0.0
 10
736.1106553143117
 20
-1894.08448002664
 30
0.0
 10
736.1124425592579
 20
-1899.853947312416
 30
0.0
  0
SPLINE
  5
83
330
70
100
AcDbEntity
  8
Layer 1
100
AcDbSpline
210
0.0
220
0.0
230
1.0
 70
     9
 71
     3
 72
    23
 73
    19
 74
     0
 42
0.0000000001
 43
0.0000000001
 40
0.0
 40
0.0
 40
0.0
 40
0.0
 40
1.0
 40
1.0
 40
1.0
 40
2.0
 40
2.0
 40
2.0
 40
3.0
 40
3.0
 40
3.0
 40
4.0
 40
4.0
 40
4.0
 40
5.0
 40
5.0
 40
5.0
 40
6.0
 40
6.0
 40
6.0
 40
6.0
 10
744.4283214561083
 20
-1942.059152489541
 30
0.0
 10
740.1537642747653
 20
-1943.421720542521
 30
0.0
 10
735.8892173836438
 20
-1944.816940185914
 30
0.0
 10
731.6006028333768
 20
-1946.133727272126
 30
0.0
 10
729.3046632908708
 20
-1946.838657924092
 30
0.0
 10
727.8361494195242
 20
-1947.991465286241
 30
0.0
 10
728.9650609730061
 20
-1950.594999995485
 30
0.0
 10
729.9630224638831
 20
-1952.896490308363
 30
0.0
 10
730.3678162597653
 20
-1956.149791666825
 30
0.0
 10
734.0145606901796
 20
-1955.463558346628
 30
0.0
 10
738.6203167011163
 20
-1954.596950766974
 30
0.0
 10
743.0149887725574
 20
-1952.929004418393
 30
0.0
 10
747.2136911538555
 20
-1950.845317398622
 30
0.0
 10
750.5066985647654
 20
-1949.211088113405
 30
0.0
 10
747.795834640824
 20
-1946.961324793761
 30
0.0
 10
747.5523568866274
 20
-1945.031890761116
 30
0.0
 10
747.3466604595496
 20
-1943.401820257417
 30
0.0
 10
746.9960167486106
 20
-1941.492595840731
 30
0.0
 10
744.4283214561083
 20
-1942.059152489541
 30
0.0
  0
SPLINE
  5
84
330
70
100
AcDbEntity
  8
Layer 1
100
AcDbSpline
210
0.0
220
0.0
230
1.0
 70
     9
 71
     3
 72
    23
 73
    19
 74
     0
 42
0.0000000001
 43
0.0000000001
 40
0.0
 40
0.0
 40
0.0
 40
0.0
 40
1.0
 40
1.0
 40
1.0
 40
2.0
 40
2.0
 40
2.0
 40
3.0
 40
3.0
 40
3.0
 40
4.0
 40
4.0
 40
4.0
 40
5.0
 40
5.0
 40
5.0
 40
6.0
 40
6.0
 40
6.0
 40
6.0
 10
782.0491316364396
 20
-1936.233833799107
 30
0.0
 10
782.1566155165647
 20
-1932.205589904812
 30
0.0
 10
781.6869567585718
 20
-1931.651423675315
 30
0.0
 10
778.133449803835
 20
-1932.45262496386
 30
0.0
 10
773.5645814975405
 20
-1933.482713901196
 30
0.0
 10
769.1138346158232
 20
-1935.032564602769
 30
0.0
 10
764.5501905639949
 20
-1936.091129163955
 30
0.0
 10
760.3237429233713
 20
-1937.071501758628
 30
0.0
 10
760.5775145210691
 20
-1940.020284073869
 30
0.0
 10
761.1945092845425
 20
-1943.080116166611
 30
0.0
 10
761.8879345471514
 20
-1946.519016038999
 30
0.0
 10
764.6013590431839
 20
-1946.280075137367
 30
0.0
 10
766.9724831688772
 20
-1945.51221284114
 30
0.0
 10
770.7023001193201
 20
-1944.304344586524
 30
0.0
 10
774.2190826273663
 20
-1942.410827303336
 30
0.0
 10
777.974763074425
 20
-1941.319233080687
 30
0.0
 10
781.0972432581411
 20
-1940.411690717685
 30
0.0
 10
782.2671153725432
 20
-1938.650842001856
 30
0.0
 10
782.0491316364396
 20
-1936.233833799107
 30
0.0
  0
SPLINE
  5
85
330
70
100
AcDbEntity
  8
Layer 1
100
AcDbSpline
210
0.0
220
0.0
230
1.0
 70
     9
 71
     3
 72
    23
 73
    19
 74
     0
 42
0.0000000001
 43
0.0000000001
 40
0.0
 40
0.0
 40
0.0
 40
0.0
 40
1.0
 40
1.0
 40
1.0
 40
2.0
 40
2.0
 40
2.0
 40
3.0
 40
3.0
 40
3.0
 40
4.0
 40
4.0
 40
4.0
 40
5.0
 40
5.0
 40
5.0
 40
6.0
 40
6.0
 40
6.0
 40
6.0
 10
782.5781733263693
 20
-1870.015480449061
 30
0.0
 10
783.3625246757556
 20
-1865.418961401201
 30
0.0
 10
781.5200297988458
 20
-1864.257045963832
 30
0.0
 10
777.5545285132875
 20
-1865.44807287181
 30
0.0
 10
774.3444389569822
 20
-1866.412188411467
 30
0.0
 10
771.1137874912355
 20
-1867.620881548364
 30
0.0
 10
767.8192506110945
 20
-1867.921791731593
 30
0.0
 10
761.9978243339401
 20
-1868.453479918846
 30
0.0
 10
760.0442023468176
 20
-1871.677068330033
 30
0.0
 10
759.5906202008381
 20
-1877.039318728219
 30
0.0
 10
759.319672148079
 20
-1880.242439747732
 30
0.0
 10
760.1899916980118
 20
-1881.230511243722
 30
0.0
 10
763.177715331084
 20
-1880.627487923937
 30
0.0
 10
767.3783510302318
 20
-1879.779680786339
 30
0.0
 10
771.541042144313
 20
-1878.477036994294
 30
0.0
 10
775.7800262771533
 20
-1878.15182715378
 30
0.0
 10
781.398411217081
 20
-1877.72080897528
 30
0.0
 10
783.2140286795666
 20
-1874.827946804884
 30
0.0
 10
782.5781733263693
 20
-1870.015480449061
 30
0.0
  0
SPLINE
  5
86
330
70
100
AcDbEntity
  8
Layer 1
100
AcDbSpline
210
0.0
220
0.0
230
1.0
 70
     9
 71
     3
 72
    23
 73
    19
 74
     0
 42
0.0000000001
 43
0.0000000001
 40
0.0
 40
0.0
 40
0.0
 40
0.0
 40
1.0
 40
1.0
 40
1.0
 40
2.0
 40
2.0
 40
2.0
 40
3.0
 40
3.0
 40
3.0
 40
4.0
 40
4.0
 40
4.0
 40
5.0
 40
5.0
 40
5.0
 40
6.0
 40
6.0
 40
6.0
 40
6.0
 10
781.4147885674328
 20
-1890.80560731737
 30
0.0
 10
782.9423416697582
 20
-1884.795463440152
 30
0.0
 10
780.2635965997551
 20
-1884.368535302978
 30
0.0
 10
775.5093274075816
 20
-1885.92206360473
 30
0.0
 10
771.6210557258755
 20
-1887.192571357796
 30
0.0
 10
767.5654016806811
 20
-1887.985592563689
 30
0.0
 10
763.5485686579823
 20
-1888.819909438929
 30
0.0
 10
757.3934431268071
 20
-1890.098373869024
 30
0.0
 10
759.0116989102944
 20
-1895.060470434177
 30
0.0
 10
759.2715711998835
 20
-1898.729632759167
 30
0.0
 10
759.5934299561204
 20
-1903.273960817509
 30
0.0
 10
763.4055546919744
 20
-1901.264839719208
 30
0.0
 10
765.8370412973136
 20
-1900.919128116928
 30
0.0
 10
768.9627264924029
 20
-1900.474757156453
 30
0.0
 10
771.9732203135253
 20
-1899.191034101795
 30
0.0
 10
775.1001256469944
 20
-1898.790949008953
 30
0.0
 10
780.0610794064823
 20
-1898.156253646468
 30
0.0
 10
782.7821684337368
 20
-1896.098189532642
 30
0.0
 10
781.4147885674328
 20
-1890.80560731737
 30
0.0
  0
SPLINE
  5
87
330
70
100
AcDbEntity
  8
Layer 1
100
AcDbSpline
210
0.0
220
0.0
230
1.0
 70
     9
 71
     3
 72
    23
 73
    19
 74
     0
 42
0.0000000001
 43
0.0000000001
 40
0.0
 40
0.0
 40
0.0
 40
0.0
 40
1.0
 40
1.0
 40
1.0
 40
2.0
 40
2.0
 40
2.0
 40
3.0
 40
3.0
 40
3.0
 40
4.0
 40
4.0
 40
4.0
 40
5.0
 40
5.0
 40
5.0
 40
6.0
 40
6.0
 40
6.0
 40
6.0
 10
782.4344204033122
 20
-1914.972905367138
 30
0.0
 10
782.1690488984941
 20
-1906.484385482245
 30
0.0
 10
782.1692637115893
 20
-1906.485193179482
 30
0.0
 10
774.5823573482821
 20
-1908.516792320022
 30
0.0
 10
772.7727116898359
 20
-1909.001341921752
 30
0.0
 10
770.9652227548586
 20
-1909.494655897748
 30
0.0
 10
769.1498029204203
 20
-1909.956693087139
 30
0.0
 10
759.7778427017629
 20
-1912.341857396708
 30
0.0
 10
759.6291662625745
 20
-1912.704736861529
 30
0.0
 10
760.3109314703951
 20
-1922.598426532369
 30
0.0
 10
760.5231066604146
 20
-1925.67741995317
 30
0.0
 10
761.687995111014
 20
-1926.645178722914
 30
0.0
 10
764.5285975517045
 20
-1925.893178225609
 30
0.0
 10
768.5084139819019
 20
-1924.839597328222
 30
0.0
 10
772.4400177610959
 20
-1923.548794033957
 30
0.0
 10
776.4701004554817
 20
-1922.754466764448
 30
0.0
 10
781.222084036327
 20
-1921.817881671026
 30
0.0
 10
783.4019901375368
 20
-1919.376539440897
 30
0.0
 10
782.4344204033122
 20
-1914.972905367138
 30
0.0
  0
SPLINE
  5
88
330
70
100
AcDbEntity
  8
Layer 1
100
AcDbSpline
210
0.0
220
0.0
230
1.0
 70
     9
 71
     3
 72
    47
 73
    43
 74
     0
 42
0.0000000001
 43
0.0000000001
 40
0.0
 40
0.0
 40
0.0
 40
0.0
 40
1.0
 40
1.0
 40
1.0
 40
2.0
 40
2.0
 40
2.0
 40
3.0
 40
3.0
 40
3.0
 40
4.0
 40
4.0
 40
4.0
 40
5.0
 40
5.0
 40
5.0
 40
6.0
 40
6.0
 40
6.0
 40
7.0
 40
7.0
 40
7.0
 40
8.0
 40
8.0
 40
8.0
 40
9.0
 40
9.0
 40
9.0
 40
10.0
 40
10.0
 40
10.0
 40
11.0
 40
11.0
 40
11.0
 40
12.0
 40
12.0
 40
12.0
 40
13.0
 40
13.0
 40
13.0
 40
14.0
 40
14.0
 40
14.0
 40
14.0
 10
793.6074853117725
 20
-1965.524991266955
 30
0.0
 10
798.1939339217469
 20
-1965.789297298821
 30
0.0
 10
802.0156650992039
 20
-1963.946957087342
 30
0.0
 10
805.5212085861285
 20
-1961.246808040572
 30
0.0
 10
809.7032758413634
 20
-1958.025505240714
 30
0.0
 10
813.9134406493985
 20
-1955.129137320609
 30
0.0
 10
819.5623548263656
 20
-1954.855723213519
 30
0.0
 10
824.0296766864748
 20
-1954.639535314893
 30
0.0
 10
828.5281722229056
 20
-1953.924362374562
 30
0.0
 10
832.8848395616123
 20
-1952.89116294361
 30
0.0
 10
837.0871679879501
 20
-1951.894602034112
 30
0.0
 10
839.4705966077136
 20
-1948.828583324239
 30
0.0
 10
840.0879350721378
 20
-1944.472998643532
 30
0.0
 10
840.6552650480852
 20
-1940.470085509378
 30
0.0
 10
837.7925282661063
 20
-1938.885108570545
 30
0.0
 10
835.065811135767
 20
-1937.162994951975
 30
0.0
 10
828.6934923806811
 20
-1933.138377102719
 30
0.0
 10
821.367231634108
 20
-1932.286514293895
 30
0.0
 10
814.2075799238781
 20
-1930.930218783282
 30
0.0
 10
807.9777595833702
 20
-1929.750052825378
 30
0.0
 10
807.9483731519985
 20
-1929.843281708532
 30
0.0
 10
808.6375451153298
 20
-1936.311888285241
 30
0.0
 10
809.6518581789869
 20
-1945.832576498231
 30
0.0
 10
808.7223705102124
 20
-1947.583182925698
 30
0.0
 10
800.0486473674873
 20
-1951.440023155372
 30
0.0
 10
797.4960491392894
 20
-1952.575061178317
 30
0.0
 10
794.7493973537502
 20
-1953.275180016962
 30
0.0
 10
792.0878802939523
 20
-1954.163303276194
 30
0.0
 10
789.165786357612
 20
-1955.138417246306
 30
0.0
 10
787.0209549385263
 20
-1954.574713315398
 30
0.0
 10
785.8291718884547
 20
-1951.389224154709
 30
0.0
 10
785.2015138029537
 20
-1949.711551069196
 30
0.0
 10
784.4672053121403
 20
-1947.571050282104
 30
0.0
 10
781.8856846488533
 20
-1948.448450071644
 30
0.0
 10
778.1184902199101
 20
-1949.728839227069
 30
0.0
 10
774.834530736557
 20
-1951.956055764278
 30
0.0
 10
771.6364964911308
 20
-1954.241323392232
 30
0.0
 10
769.8852026617578
 20
-1955.492772927524
 30
0.0
 10
771.3155829125144
 20
-1956.558795799365
 30
0.0
 10
772.3998047497453
 20
-1957.250700185262
 30
0.0
 10
778.9173973046026
 20
-1961.410065992635
 30
0.0
 10
785.6292152672694
 20
-1965.109113115379
 30
0.0
 10
793.6074853117725
 20
-1965.524991266955
 30
0.0
  0
SPLINE
  5
89
330
70
100
AcDbEntity
  8
Layer 1
100
AcDbSpline
210
0.0
220
0.0
230
1.0
 70
     9
 71
     3
 72
   128
 73
   124
 74
     0
 42
0.0000000001
 43
0.0000000001
 40
0.0
 40
0.0
 40
0.0
 40
0.0
 40
1.0
 40
1.0
 40
1.0
 40
2.0
 40
2.0
 40
2.0
 40
3.0
 40
3.0
 40
3.0
 40
4.0
 40
4.0
 40
4.0
 40
5.0
 40
5.0
 40
5.0
 40
6.0
 40
6.0
 40
6.0
 40
7.0
 40
7.0
 40
7.0
 40
8.0
 40
8.0
 40
8.0
 40
9.0
 40
9.0
 40
9.0
 40
10.0
 40
10.0
 40
10.0
 40
11.0
 40
11.0
 40
11.0
 40
12.0
 40
12.0
 40
12.0
 40
13.0
 40
13.0
 40
13.0
 40
14.0
 40
14.0
 40
14.0
 40
15.0
 40
15.0
 40
15.0
 40
16.0
 40
16.0
 40
16.0
 40
17.0
 40
17.0
 40
17.0
 40
18.0
 40
18.0
 40
18.0
 40
19.0
 40
19.0
 40
19.0
 40
20.0
 40
20.0
 40
20.0
 40
21.0
 40
21.0
 40
21.0
 40
22.0
 40
22.0
 40
22.0
 40
23.0
 40
23.0
 40
23.0
 40
24.0
 40
24.0
 40
24.0
 40
25.0
 40
25.0
 40
25.0
 40
26.0
 40
26.0
 40
26.0
 40
27.0
 40
27.0
 40
27.0
 40
28.0
 40
28.0
 40
28.0
 40
29.0
 40
29.0
 40
29.0
 40
30.0
 40
30.0
 40
30.0
 40
31.0
 40
31.0
 40
31.0
 40
32.0
 40
32.0
 40
32.0
 40
33.0
 40
33.0
 40
33.0
 40
34.0
 40
34.0
 40
34.0
 40
35.0
 40
35.0
 40
35.0
 40
36.0
 40
36.0
 40
36.0
 40
37.0
 40
37.0
 40
37.0
 40
38.0
 40
38.0
 40
38.0
 40
39.0
 40
39.0
 40
39.0
 40
40.0
 40
40.0
 40
40.0
 40
41.0
 40
41.0
 40
41.0
 40
41.0
 10
723.5433331251234
 20
-1893.366110667457
 30
0.0
 10
724.0418369854933
 20
-1885.696286449549
 30
0.0
 10
724.5455393227539
 20
-1878.026805932591
 30
0.0
 10
725.0357771752324
 20
-1870.356483348305
 30
0.0
 10
725.1896950539348
 20
-1867.948239519827
 30
0.0
 10
725.7539660914162
 20
-1865.899146000842
 30
0.0
 10
728.6310180180343
 20
-1865.471564831861
 30
0.0
 10
752.0573311859998
 20
-1861.990166336791
 30
0.0
 10
774.3827358355274
 20
-1853.62690826375
 30
0.0
 10
797.74958014632
 20
-1849.886342066044
 30
0.0
 10
799.2225793150874
 20
-1849.650546028117
 30
0.0
 10
800.7442637236644
 20
-1849.54595782851
 30
0.0
 10
802.2331934315415
 20
-1849.611140714003
 30
0.0
 10
810.8362001034519
 20
-1849.987751031845
 30
0.0
 10
813.7207103407245
 20
-1853.877792773457
 30
0.0
 10
811.2002997066529
 20
-1862.143078890213
 30
0.0
 10
805.9968563332049
 20
-1879.206989075546
 30
0.0
 10
803.9522137415488
 20
-1896.561962411839
 30
0.0
 10
805.2917366457158
 20
-1914.384420597611
 30
0.0
 10
805.6129423701396
 20
-1918.658084156477
 30
0.0
 10
807.0557474102979
 20
-1920.007041651772
 30
0.0
 10
811.2756905104115
 20
-1920.388291932459
 30
0.0
 10
828.1398760727034
 20
-1921.911918251413
 30
0.0
 10
844.092394860575
 20
-1926.286234633991
 30
0.0
 10
857.7290394507372
 20
-1936.981727070039
 30
0.0
 10
864.4637393042657
 20
-1942.263929516574
 30
0.0
 10
868.0092036567339
 20
-1948.924716480435
 30
0.0
 10
865.8961989457758
 20
-1957.595019798691
 30
0.0
 10
863.8426029443262
 20
-1966.0215016618
 30
0.0
 10
857.3105663569741
 20
-1969.943095150776
 30
0.0
 10
849.5370819320278
 20
-1970.979078559439
 30
0.0
 10
840.1881238995638
 20
-1972.22496013931
 30
0.0
 10
831.1539787538213
 20
-1974.01712001184
 30
0.0
 10
822.2976816655437
 20
-1977.400649660909
 30
0.0
 10
816.0578596273417
 20
-1979.784559462007
 30
0.0
 10
809.5399319640609
 20
-1979.000886921998
 30
0.0
 10
803.0204060913501
 20
-1976.799654176737
 30
0.0
 10
789.6719547492039
 20
-1972.292566116515
 30
0.0
 10
776.4151426733051
 20
-1967.649613070078
 30
0.0
 10
764.0549260850975
 20
-1960.789513924314
 30
0.0
 10
761.6726918261384
 20
-1959.46733073316
 30
0.0
 10
759.1027882550234
 20
-1959.031002374957
 30
0.0
 10
757.2714035113794
 20
-1960.980508543181
 30
0.0
 10
752.0278416443407
 20
-1966.562418219609
 30
0.0
 10
746.132322034523
 20
-1964.835664638193
 30
0.0
 10
740.072143891256
 20
-1963.182084989394
 30
0.0
 10
732.8142108938854
 20
-1961.201783215898
 30
0.0
 10
732.8280190796185
 20
-1961.264474269488
 30
0.0
 10
731.9949653053745
 20
-1968.844283208144
 30
0.0
 10
731.6754179380414
 20
-1971.751924519465
 30
0.0
 10
732.0866217566735
 20
-1975.454271171342
 30
0.0
 10
728.1362862756114
 20
-1976.048427006573
 30
0.0
 10
724.511787889297
 20
-1976.593536715992
 30
0.0
 10
722.898979765895
 20
-1973.294626241239
 30
0.0
 10
721.6690115400861
 20
-1970.713019652716
 30
0.0
 10
719.3371380630788
 20
-1965.818580619909
 30
0.0
 10
717.1136635699813
 20
-1960.783980338992
 30
0.0
 10
715.6773931441684
 20
-1955.578010763549
 30
0.0
 10
714.421204832005
 20
-1951.024832405701
 30
0.0
 10
711.9918749501384
 20
-1949.637758474864
 30
0.0
 10
707.5992092330025
 20
-1949.873365477264
 30
0.0
 10
701.3615009556533
 20
-1950.207923983666
 30
0.0
 10
695.2931212484299
 20
-1948.800399846199
 30
0.0
 10
689.3006478963916
 20
-1947.235013861611
 30
0.0
 10
685.8107814691257
 20
-1946.323381457283
 30
0.0
 10
682.6271182197424
 20
-1944.692073630156
 30
0.0
 10
680.2121485932666
 20
-1941.913285805631
 30
0.0
 10
678.4489154520861
 20
-1939.884453457753
 30
0.0
 10
678.3372684941832
 20
-1937.377326865464
 30
0.0
 10
679.1409444295795
 20
-1935.019057155363
 30
0.0
 10
680.0440637909605
 20
-1932.368950967162
 30
0.0
 10
682.5833994586837
 20
-1933.121535756088
 30
0.0
 10
684.4821130706377
 20
-1933.29457200023
 30
0.0
 10
690.8212754245405
 20
-1933.872298929966
 30
0.0
 10
697.1863120157149
 20
-1934.412940527016
 30
0.0
 10
703.4502231943706
 20
-1935.495529784728
 30
0.0
 10
709.0002889776233
 20
-1936.454799140965
 30
0.0
 10
709.2885724471353
 20
-1933.972350277012
 30
0.0
 10
708.3771591521626
 20
-1929.655346028134
 30
0.0
 10
706.7513591327852
 20
-1921.954571539523
 30
0.0
 10
705.3451281701536
 20
-1914.206125728908
 30
0.0
 10
703.9419647385121
 20
-1906.46042952591
 30
0.0
 10
703.4804989519552
 20
-1903.913072737223
 30
0.0
 10
702.5312742560317
 20
-1900.717083512461
 30
0.0
 10
705.4355043354052
 20
-1899.34597449083
 30
0.0
 10
708.3376593202856
 20
-1897.975845016912
 30
0.0
 10
710.7630881963496
 20
-1900.316792199044
 30
0.0
 10
712.7433040446094
 20
-1902.291422906839
 30
0.0
 10
716.0367625630178
 20
-1905.575657350955
 30
0.0
 10
717.4748631964003
 20
-1909.881749094618
 30
0.0
 10
718.6869074175783
 20
-1914.238107102466
 30
0.0
 10
719.1883628098667
 20
-1916.040388968022
 30
0.0
 10
719.3673880430915
 20
-1917.931912785692
 30
0.0
 10
719.8604485396363
 20
-1919.737116109341
 30
0.0
 10
724.9982794014004
 20
-1938.547903566816
 30
0.0
 10
725.1411301094604
 20
-1935.738010806164
 30
0.0
 10
741.1350906395791
 20
-1932.089762684083
 30
0.0
 10
745.103332940228
 20
-1931.184591857649
 30
0.0
 10
746.8087942476858
 20
-1928.874732426599
 30
0.0
 10
746.5331374918869
 20
-1924.883006758422
 30
0.0
 10
746.4301389091824
 20
-1923.391516478454
 30
0.0
 10
746.8262112934143
 20
-1921.816902123313
 30
0.0
 10
746.4865144577861
 20
-1920.402229006051
 30
0.0
 10
746.0192701989772
 20
-1918.456383252962
 30
0.0
 10
748.0463324869569
 20
-1915.172114438754
 30
0.0
 10
744.7062208606157
 20
-1914.780931200557
 30
0.0
 10
741.829615745236
 20
-1914.444001157592
 30
0.0
 10
738.7544288124745
 20
-1915.349773460695
 30
0.0
 10
737.1461833192088
 20
-1918.520311629983
 30
0.0
 10
736.2159910634882
 20
-1920.354093687763
 30
0.0
 10
734.9386522540089
 20
-1922.016764226735
 30
0.0
 10
734.0632717075614
 20
-1923.872371294952
 30
0.0
 10
731.7927316653849
 20
-1928.685370387249
 30
0.0
 10
729.7779824640029
 20
-1926.733131796458
 30
0.0
 10
728.0053018429107
 20
-1923.635337933601
 30
0.0
 10
724.9486919465935
 20
-1918.293795517753
 30
0.0
 10
723.9477058873426
 20
-1912.397519765842
 30
0.0
 10
723.8511087348606
 20
-1906.328448360449
 30
0.0
 10
723.782454469755
 20
-1902.01453742014
 30
0.0
 10
723.837798915506
 20
-1897.698650199354
 30
0.0
 10
723.837798915506
 20
-1893.383656601045
 30
0.0
 10
723.739646516221
 20
-1893.377813684865
 30
0.0
 10
723.641494116936
 20
-1893.371953583637
 30
0.0
 10
723.5433331251234
 20
-1893.366110667457
 30
0.0
  0
HATCH
  5
8A
330
70
100
AcDbEntity
  8
Layer 1
 62
   246
420
  8590872
440
 33554687
100
AcDbHatch
 10
0.0
 20
0.0
 30
0.0
210
0.0
220
0.0
230
1.0
  2
SOLID
 70
     1
 71
     1
 91
        9
 92
        1
 93
        1
 72
     4
 94
        3
 73
     0
 74
     0
 95
       17
 96
       13
 40
0.0
 40
0.0
 40
0.0
 40
0.0
 40
1.0
 40
1.0
 40
1.0
 40
2.0
 40
2.0
 40
2.0
 40
3.0
 40
3.0
 40
3.0
 40
4.0
 40
4.0
 40
4.0
 40
4.0
 10
736.1457299964322
 20
-1879.428435598734
 10
736.0186207919659
 20
-1881.918136552771
 10
736.1601568438827
 20
-1884.525366047246
 10
740.4075530575109
 20
-1884.371353650784
 10
746.765359039914
 20
-1884.140850607515
 10
748.6194881940364
 20
-1882.524493771789
 10
748.7718680109801
 20
-1876.77238338407
 10
748.8430914407008
 20
-1874.083576468705
 10
748.2559556974092
 20
-1872.014685774904
 10
745.1243846235201
 20
-1872.922743689336
 10
741.590941211839
 20
-1873.947350596494
 10
735.5901460005088
 20
-1871.629912559457
 10
736.1457299964322
 20
-1879.428435598734
 97
        0
 97
        1
330
81
 92
        1
 93
        1
 72
     4
 94
        3
 73
     0
 74
     0
 95
       17
 96
       13
 40
0.0
 40
0.0
 40
0.0
 40
0.0
 40
1.0
 40
1.0
 40
1.0
 40
2.0
 40
2.0
 40
2.0
 40
3.0
 40
3.0
 40
3.0
 40
4.0
 40
4.0
 40
4.0
 40
4.0
 10
736.1124425592579
 20
-1899.853947312416
 10
736.436672852059
 20
-1902.349937993871
 10
735.3799127208667
 20
-1905.88349310836
 10
740.308146149754
 20
-1905.670570368771
 10
746.2639938691218
 20
-1905.413241466222
 10
747.6523051233861
 20
-1904.175368118524
 10
747.5592223131398
 20
-1897.849638027443
 10
747.5278252311991
 20
-1895.71611436967
 10
748.6100965655323
 20
-1892.793040885617
 10
744.3886669588037
 20
-1892.868483244516
 10
737.6938536007192
 20
-1892.988125545811
 10
736.1106553143117
 20
-1894.08448002664
 10
736.1124425592579
 20
-1899.853947312416
 97
        0
 97
        1
330
82
 92
        1
 93
        1
 72
     4
 94
        3
 73
     0
 74
     0
 95
       23
 96
       19
 40
0.0
 40
0.0
 40
0.0
 40
0.0
 40
1.0
 40
1.0
 40
1.0
 40
2.0
 40
2.0
 40
2.0
 40
3.0
 40
3.0
 40
3.0
 40
4.0
 40
4.0
 40
4.0
 40
5.0
 40
5.0
 40
5.0
 40
6.0
 40
6.0
 40
6.0
 40
6.0
 10
744.4283214561083
 20
-1942.059152489541
 10
740.1537642747653
 20
-1943.421720542521
 10
735.8892173836438
 20
-1944.816940185914
 10
731.6006028333768
 20
-1946.133727272126
 10
729.3046632908708
 20
-1946.838657924092
 10
727.8361494195242
 20
-1947.991465286241
 10
728.9650609730061
 20
-1950.594999995485
 10
729.9630224638831
 20
-1952.896490308363
 10
730.3678162597653
 20
-1956.149791666825
 10
734.0145606901796
 20
-1955.463558346628
 10
738.6203167011163
 20
-1954.596950766974
 10
743.0149887725574
 20
-1952.929004418393
 10
747.2136911538555
 20
-1950.845317398622
 10
750.5066985647654
 20
-1949.211088113405
 10
747.795834640824
 20
-1946.961324793761
 10
747.5523568866274
 20
-1945.031890761116
 10
747.3466604595496
 20
-1943.401820257417
 10
746.9960167486106
 20
-1941.492595840731
 10
744.4283214561083
 20
-1942.059152489541
 97
        0
 97
        1
330
83
 92
        1
 93
        1
 72
     4
 94
        3
 73
     0
 74
     0
 95
       23
 96
       19
 40
0.0
 40
0.0
 40
0.0
 40
0.0
 40
1.0
 40
1.0
 40
1.0
 40
2.0
 40
2.0
 40
2.0
 40
3.0
 40
3.0
 40
3.0
 40
4.0
 40
4.0
 40
4.0
 40
5.0
 40
5.0
 40
5.0
 40
6.0
 40
6.0
 40
6.0
 40
6.0
 10
782.0491316364396
 20
-1936.233833799107
 10
782.1566155165647
 20
-1932.205589904812
 10
781.6869567585718
 20
-1931.651423675315
 10
778.133449803835
 20
-1932.45262496386
 10
773.5645814975405
 20
-1933.482713901196
 10
769.1138346158232
 20
-1935.032564602769
 10
764.5501905639949
 20
-1936.091129163955
 10
760.3237429233713
 20
-1937.071501758628
 10
760.5775145210691
 20
-1940.020284073869
 10
761.1945092845425
 20
-1943.080116166611
 10
761.8879345471514
 20
-1946.519016038999
 10
764.6013590431839
 20
-1946.280075137367
 10
766.9724831688772
 20
-1945.51221284114
 10
770.7023001193201
 20
-1944.304344586524
 10
774.2190826273663
 20
-1942.410827303336
 10
777.974763074425
 20
-1941.319233080687
 10
781.0972432581411
 20
-1940.411690717685
 10
782.2671153725432
 20
-1938.650842001856
 10
782.0491316364396
 20
-1936.233833799107
 97
        0
 97
        1
330
84
 92
        1
 93
        1
 72
     4
 94
        3
 73
     0
 74
     0
 95
       23
 96
       19
 40
0.0
 40
0.0
 40
0.0
 40
0.0
 40
1.0
 40
1.0
 40
1.0
 40
2.0
 40
2.0
 40
2.0
 40
3.0
 40
3.0
 40
3.0
 40
4.0
 40
4.0
 40
4.0
 40
5.0
 40
5.0
 40
5.0
 40
6.0
 40
6.0
 40
6.0
 40
6.0
 10
782.5781733263693
 20
-1870.015480449061
 10
783.3625246757556
 20
-1865.418961401201
 10
781.5200297988458
 20
-1864.257045963832
 10
777.5545285132875
 20
-1865.44807287181
 10
774.3444389569822
 20
-1866.412188411467
 10
771.1137874912355
 20
-1867.620881548364
 10
767.8192506110945
 20
-1867.921791731593
 10
761.9978243339401
 20
-1868.453479918846
 10
760.0442023468176
 20
-1871.677068330033
 10
759.5906202008381
 20
-1877.039318728219
 10
759.319672148079
 20
-1880.242439747732
 10
760.1899916980118
 20
-1881.230511243722
 10
763.177715331084
 20
-1880.627487923937
 10
767.3783510302318
 20
-1879.779680786339
 10
771.541042144313
 20
-1878.477036994294
 10
775.7800262771533
 20
-1878.15182715378
 10
781.398411217081
 20
-1877.72080897528
 10
783.2140286795666
 20
-1874.827946804884
 10
782.5781733263693
 20
-1870.015480449061
 97
        0
 97
        1
330
85
 92
        1
 93
        1
 72
     4
 94
        3
 73
     0
 74
     0
 95
       23
 96
       19
 40
0.0
 40
0.0
 40
0.0
 40
0.0
 40
1.0
 40
1.0
 40
1.0
 40
2.0
 40
2.0
 40
2.0
 40
3.0
 40
3.0
 40
3.0
 40
4.0
 40
4.0
 40
4.0
 40
5.0
 40
5.0
 40
5.0
 40
6.0
 40
6.0
 40
6.0
 40
6.0
 10
781.4147885674328
 20
-1890.80560731737
 10
782.9423416697582
 20
-1884.795463440152
 10
780.2635965997551
 20
-1884.368535302978
 10
775.5093274075816
 20
-1885.92206360473
 10
771.6210557258755
 20
-1887.192571357796
 10
767.5654016806811
 20
-1887.985592563689
 10
763.5485686579823
 20
-1888.819909438929
 10
757.3934431268071
 20
-1890.098373869024
 10
759.0116989102944
 20
-1895.060470434177
 10
759.2715711998835
 20
-1898.729632759167
 10
759.5934299561204
 20
-1903.273960817509
 10
763.4055546919744
 20
-1901.264839719208
 10
765.8370412973136
 20
-1900.919128116928
 10
768.9627264924029
 20
-1900.474757156453
 10
771.9732203135253
 20
-1899.191034101795
 10
775.1001256469944
 20
-1898.790949008953
 10
780.0610794064823
 20
-1898.156253646468
 10
782.7821684337368
 20
-1896.098189532642
 10
781.4147885674328
 20
-1890.80560731737
 97
        0
 97
        1
330
86
 92
        1
 93
        1
 72
     4
 94
        3
 73
     0
 74
     0
 95
       23
 96
       19
 40
0.0
 40
0.0
 40
0.0
 40
0.0
 40
1.0
 40
1.0
 40
1.0
 40
2.0
 40
2.0
 40
2.0
 40
3.0
 40
3.0
 40
3.0
 40
4.0
 40
4.0
 40
4.0
 40
5.0
 40
5.0
 40
5.0
 40
6.0
 40
6.0
 40
6.0
 40
6.0
 10
782.4344204033122
 20
-1914.972905367138
 10
782.1690488984941
 20
-1906.484385482245
 10
782.1692637115893
 20
-1906.485193179482
 10
774.5823573482821
 20
-1908.516792320022
 10
772.7727116898359
 20
-1909.001341921752
 10
770.9652227548586
 20
-1909.494655897748
 10
769.1498029204203
 20
-1909.956693087139
 10
759.7778427017629
 20
-1912.341857396708
 10
759.6291662625745
 20
-1912.704736861529
 10
760.3109314703951
 20
-1922.598426532369
 10
760.5231066604146
 20
-1925.67741995317
 10
761.687995111014
 20
-1926.645178722914
 10
764.5285975517045
 20
-1925.893178225609
 10
768.5084139819019
 20
-1924.839597328222
 10
772.4400177610959
 20
-1923.548794033957
 10
776.4701004554817
 20
-1922.754466764448
 10
781.222084036327
 20
-1921.817881671026
 10
783.4019901375368
 20
-1919.376539440897
 10
782.4344204033122
 20
-1914.972905367138
 97
        0
 97
        1
330
87
 92
        1
 93
        1
 72
     4
 94
        3
 73
     0
 74
     0
 95
       47
 96
       43
 40
0.0
 40
0.0
 40
0.0
 40
0.0
 40
1.0
 40
1.0
 40
1.0
 40
2.0
 40
2.0
 40
2.0
 40
3.0
 40
3.0
 40
3.0
 40
4.0
 40
4.0
 40
4.0
 40
5.0
 40
5.0
 40
5.0
 40
6.0
 40
6.0
 40
6.0
 40
7.0
 40
7.0
 40
7.0
 40
8.0
 40
8.0
 40
8.0
 40
9.0
 40
9.0
 40
9.0
 40
10.0
 40
10.0
 40
10.0
 40
11.0
 40
11.0
 40
11.0
 40
12.0
 40
12.0
 40
12.0
 40
13.0
 40
13.0
 40
13.0
 40
14.0
 40
14.0
 40
14.0
 40
14.0
 10
793.6074853117725
 20
-1965.524991266955
 10
798.1939339217469
 20
-1965.789297298821
 10
802.0156650992039
 20
-1963.946957087342
 10
805.5212085861285
 20
-1961.246808040572
 10
809.7032758413634
 20
-1958.025505240714
 10
813.9134406493985
 20
-1955.129137320609
 10
819.5623548263656
 20
-1954.855723213519
 10
824.0296766864748
 20
-1954.639535314893
 10
828.5281722229056
 20
-1953.924362374562
 10
832.8848395616123
 20
-1952.89116294361
 10
837.0871679879501
 20
-1951.894602034112
 10
839.4705966077136
 20
-1948.828583324239
 10
840.0879350721378
 20
-1944.472998643532
 10
840.6552650480852
 20
-1940.470085509378
 10
837.7925282661063
 20
-1938.885108570545
 10
835.065811135767
 20
-1937.162994951975
 10
828.6934923806811
 20
-1933.138377102719
 10
821.367231634108
 20
-1932.286514293895
 10
814.2075799238781
 20
-1930.930218783282
 10
807.9777595833702
 20
-1929.750052825378
 10
807.9483731519985
 20
-1929.843281708532
 10
808.6375451153298
 20
-1936.311888285241
 10
809.6518581789869
 20
-1945.832576498231
 10
808.7223705102124
 20
-1947.583182925698
 10
800.0486473674873
 20
-1951.440023155372
 10
797.4960491392894
 20
-1952.575061178317
 10
794.7493973537502
 20
-1953.275180016962
 10
792.0878802939523
 20
-1954.163303276194
 10
789.165786357612
 20
-1955.138417246306
 10
787.0209549385263
 20
-1954.574713315398
 10
785.8291718884547
 20
-1951.389224154709
 10
785.2015138029537
 20
-1949.711551069196
 10
784.4672053121403
 20
-1947.571050282104
 10
781.8856846488533
 20
-1948.448450071644
 10
778.1184902199101
 20
-1949.728839227069
 10
774.834530736557
 20
-1951.956055764278
 10
771.6364964911308
 20
-1954.241323392232
 10
769.8852026617578
 20
-1955.492772927524
 10
771.3155829125144
 20
-1956.558795799365
 10
772.3998047497453
 20
-1957.250700185262
 10
778.9173973046026
 20
-1961.410065992635
 10
785.6292152672694
 20
-1965.109113115379
 10
793.6074853117725
 20
-1965.524991266955
 97
        0
 97
        1
330
88
 92
        1
 93
        1
 72
     4
 94
        3
 73
     0
 74
     0
 95
      128
 96
      124
 40
0.0
 40
0.0
 40
0.0
 40
0.0
 40
1.0
 40
1.0
 40
1.0
 40
2.0
 40
2.0
 40
2.0
 40
3.0
 40
3.0
 40
3.0
 40
4.0
 40
4.0
 40
4.0
 40
5.0
 40
5.0
 40
5.0
 40
6.0
 40
6.0
 40
6.0
 40
7.0
 40
7.0
 40
7.0
 40
8.0
 40
8.0
 40
8.0
 40
9.0
 40
9.0
 40
9.0
 40
10.0
 40
10.0
 40
10.0
 40
11.0
 40
11.0
 40
11.0
 40
12.0
 40
12.0
 40
12.0
 40
13.0
 40
13.0
 40
13.0
 40
14.0
 40
14.0
 40
14.0
 40
15.0
 40
15.0
 40
15.0
 40
16.0
 40
16.0
 40
16.0
 40
17.0
 40
17.0
 40
17.0
 40
18.0
 40
18.0
 40
18.0
 40
19.0
 40
19.0
 40
19.0
 40
20.0
 40
20.0
 40
20.0
 40
21.0
 40
21.0
 40
21.0
 40
22.0
 40
22.0
 40
22.0
 40
23.0
 40
23.0
 40
23.0
 40
24.0
 40
24.0
 40
24.0
 40
25.0
 40
25.0
 40
25.0
 40
26.0
 40
26.0
 40
26.0
 40
27.0
 40
27.0
 40
27.0
 40
28.0
 40
28.0
 40
28.0
 40
29.0
 40
29.0
 40
29.0
 40
30.0
 40
30.0
 40
30.0
 40
31.0
 40
31.0
 40
31.0
 40
32.0
 40
32.0
 40
32.0
 40
33.0
 40
33.0
 40
33.0
 40
34.0
 40
34.0
 40
34.0
 40
35.0
 40
35.0
 40
35.0
 40
36.0
 40
36.0
 40
36.0
 40
37.0
 40
37.0
 40
37.0
 40
38.0
 40
38.0
 40
38.0
 40
39.0
 40
39.0
 40
39.0
 40
40.0
 40
40.0
 40
40.0
 40
41.0
 40
41.0
 40
41.0
 40
41.0
 10
723.5433331251234
 20
-1893.366110667457
 10
724.0418369854933
 20
-1885.696286449549
 10
724.5455393227539
 20
-1878.026805932591
 10
725.0357771752324
 20
-1870.356483348305
 10
725.1896950539348
 20
-1867.948239519827
 10
725.7539660914162
 20
-1865.899146000842
 10
728.6310180180343
 20
-1865.471564831861
 10
752.0573311859998
 20
-1861.990166336791
 10
774.3827358355274
 20
-1853.62690826375
 10
797.74958014632
 20
-1849.886342066044
 10
799.2225793150874
 20
-1849.650546028117
 10
800.7442637236644
 20
-1849.54595782851
 10
802.2331934315415
 20
-1849.611140714003
 10
810.8362001034519
 20
-1849.987751031845
 10
813.7207103407245
 20
-1853.877792773457
 10
811.2002997066529
 20
-1862.143078890213
 10
805.9968563332049
 20
-1879.206989075546
 10
803.9522137415488
 20
-1896.561962411839
 10
805.2917366457158
 20
-1914.384420597611
 10
805.6129423701396
 20
-1918.658084156477
 10
807.0557474102979
 20
-1920.007041651772
 10
811.2756905104115
 20
-1920.388291932459
 10
828.1398760727034
 20
-1921.911918251413
 10
844.092394860575
 20
-1926.286234633991
 10
857.7290394507372
 20
-1936.981727070039
 10
864.4637393042657
 20
-1942.263929516574
 10
868.0092036567339
 20
-1948.924716480435
 10
865.8961989457758
 20
-1957.595019798691
 10
863.8426029443262
 20
-1966.0215016618
 10
857.3105663569741
 20
-1969.943095150776
 10
849.5370819320278
 20
-1970.979078559439
 10
840.1881238995638
 20
-1972.22496013931
 10
831.1539787538213
 20
-1974.01712001184
 10
822.2976816655437
 20
-1977.400649660909
 10
816.0578596273417
 20
-1979.784559462007
 10
809.5399319640609
 20
-1979.000886921998
 10
803.0204060913501
 20
-1976.799654176737
 10
789.6719547492039
 20
-1972.292566116515
 10
776.4151426733051
 20
-1967.649613070078
 10
764.0549260850975
 20
-1960.789513924314
 10
761.6726918261384
 20
-1959.46733073316
 10
759.1027882550234
 20
-1959.031002374957
 10
757.2714035113794
 20
-1960.980508543181
 10
752.0278416443407
 20
-1966.562418219609
 10
746.132322034523
 20
-1964.835664638193
 10
740.072143891256
 20
-1963.182084989394
 10
732.8142108938854
 20
-1961.201783215898
 10
732.8280190796185
 20
-1961.264474269488
 10
731.9949653053745
 20
-1968.844283208144
 10
731.6754179380414
 20
-1971.751924519465
 10
732.0866217566735
 20
-1975.454271171342
 10
728.1362862756114
 20
-1976.048427006573
 10
724.511787889297
 20
-1976.593536715992
 10
722.898979765895
 20
-1973.294626241239
 10
721.6690115400861
 20
-1970.713019652716
 10
719.3371380630788
 20
-1965.818580619909
 10
717.1136635699813
 20
-1960.783980338992
 10
715.6773931441684
 20
-1955.578010763549
 10
714.421204832005
 20
-1951.024832405701
 10
711.9918749501384
 20
-1949.637758474864
 10
707.5992092330025
 20
-1949.873365477264
 10
701.3615009556533
 20
-1950.207923983666
 10
695.2931212484299
 20
-1948.800399846199
 10
689.3006478963916
 20
-1947.235013861611
 10
685.8107814691257
 20
-1946.323381457283
 10
682.6271182197424
 20
-1944.692073630156
 10
680.2121485932666
 20
-1941.913285805631
 10
678.4489154520861
 20
-1939.884453457753
 10
678.3372684941832
 20
-1937.377326865464
 10
679.1409444295795
 20
-1935.019057155363
 10
680.0440637909605
 20
-1932.368950967162
 10
682.5833994586837
 20
-1933.121535756088
 10
684.4821130706377
 20
-1933.29457200023
 10
690.8212754245405
 20
-1933.872298929966
 10
697.1863120157149
 20
-1934.412940527016
 10
703.4502231943706
 20
-1935.495529784728
 10
709.0002889776233
 20
-1936.454799140965
 10
709.2885724471353
 20
-1933.972350277012
 10
708.3771591521626
 20
-1929.655346028134
 10
706.7513591327852
 20
-1921.954571539523
 10
705.3451281701536
 20
-1914.206125728908
 10
703.9419647385121
 20
-1906.46042952591
 10
703.4804989519552
 20
-1903.913072737223
 10
702.5312742560317
 20
-1900.717083512461
 10
705.4355043354052
 20
-1899.34597449083
 10
708.3376593202856
 20
-1897.975845016912
 10
710.7630881963496
 20
-1900.316792199044
 10
712.7433040446094
 20
-1902.291422906839
 10
716.0367625630178
 20
-1905.575657350955
 10
717.4748631964003
 20
-1909.881749094618
 10
718.6869074175783
 20
-1914.238107102466
 10
719.1883628098667
 20
-1916.040388968022
 10
719.3673880430915
 20
-1917.931912785692
 10
719.8604485396363
 20
-1919.737116109341
 10
724.9982794014004
 20
-1938.547903566816
 10
725.1411301094604
 20
-1935.738010806164
 10
741.1350906395791
 20
-1932.089762684083
 10
745.103332940228
 20
-1931.184591857649
 10
746.8087942476858
 20
-1928.874732426599
 10
746.5331374918869
 20
-1924.883006758422
 10
746.4301389091824
 20
-1923.391516478454
 10
746.8262112934143
 20
-1921.816902123313
 10
746.4865144577861
 20
-1920.402229006051
 10
746.0192701989772
 20
-1918.456383252962
 10
748.0463324869569
 20
-1915.172114438754
 10
744.7062208606157
 20
-1914.780931200557
 10
741.829615745236
 20
-1914.444001157592
 10
738.7544288124745
 20
-1915.349773460695
 10
737.1461833192088
 20
-1918.520311629983
 10
736.2159910634882
 20
-1920.354093687763
 10
734.9386522540089
 20
-1922.016764226735
 10
734.0632717075614
 20
-1923.872371294952
 10
731.7927316653849
 20
-1928.685370387249
 10
729.7779824640029
 20
-1926.733131796458
 10
728.0053018429107
 20
-1923.635337933601
 10
724.9486919465935
 20
-1918.293795517753
 10
723.9477058873426
 20
-1912.397519765842
 10
723.8511087348606
 20
-1906.328448360449
 10
723.782454469755
 20
-1902.01453742014
 10
723.837798915506
 20
-1897.698650199354
 10
723.837798915506
 20
-1893.383656601045
 10
723.739646516221
 20
-1893.377813684865
 10
723.641494116936
 20
-1893.371953583637
 10
723.5433331251234
 20
-1893.366110667457
 97
        0
 97
        1
330
89
 75
     2
 76
     1
 98
        1
 10
0.0
 20
0.0
450
        0
451
        0
460
0.0
461
0.0
452
        0
462
0.0
453
        0
470

  0
SPLINE
  5
8B
330
70
100
AcDbEntity
  8
Layer 1
100
AcDbSpline
210
0.0
220
0.0
230
1.0
 70
     9
 71
     3
 72
    98
 73
    94
 74
     0
 42
0.0000000001
 43
0.0000000001
 40
0.0
 40
0.0
 40
0.0
 40
0.0
 40
1.0
 40
1.0
 40
1.0
 40
2.0
 40
2.0
 40
2.0
 40
3.0
 40
3.0
 40
3.0
 40
4.0
 40
4.0
 40
4.0
 40
5.0
 40
5.0
 40
5.0
 40
6.0
 40
6.0
 40
6.0
 40
7.0
 40
7.0
 40
7.0
 40
8.0
 40
8.0
 40
8.0
 40
9.0
 40
9.0
 40
9.0
 40
10.0
 40
10.0
 40
10.0
 40
11.0
 40
11.0
 40
11.0
 40
12.0
 40
12.0
 40
12.0
 40
13.0
 40
13.0
 40
13.0
 40
14.0
 40
14.0
 40
14.0
 40
15.0
 40
15.0
 40
15.0
 40
16.0
 40
16.0
 40
16.0
 40
17.0
 40
17.0
 40
17.0
 40
18.0
 40
18.0
 40
18.0
 40
19.0
 40
19.0
 40
19.0
 40
20.0
 40
20.0
 40
20.0
 40
21.0
 40
21.0
 40
21.0
 40
22.0
 40
22.0
 40
22.0
 40
23.0
 40
23.0
 40
23.0
 40
24.0
 40
24.0
 40
24.0
 40
25.0
 40
25.0
 40
25.0
 40
26.0
 40
26.0
 40
26.0
 40
27.0
 40
27.0
 40
27.0
 40
28.0
 40
28.0
 40
28.0
 40
29.0
 40
29.0
 40
29.0
 40
30.0
 40
30.0
 40
30.0
 40
31.0
 40
31.0
 40
31.0
 40
31.0
 10
724.3113071241614
 20
-1858.206637520119
 30
0.0
 10
714.0234697944188
 20
-1858.036694584544
 30
0.0
 10
705.8370931199142
 20
-1857.25728393634
 30
0.0
 10
697.7954961750592
 20
-1855.211850832491
 30
0.0
 10
693.9450358943004
 20
-1854.232440600483
 30
0.0
 10
690.2981969461261
 20
-1852.799516962686
 30
0.0
 10
687.0492648860135
 20
-1850.502254171517
 30
0.0
 10
685.5757931284397
 20
-1849.460376291534
 30
0.0
 10
683.1082071825157
 20
-1848.797944262247
 30
0.0
 10
683.3634266204726
 20
-1846.700921645546
 30
0.0
 10
683.6033277366377
 20
-1844.729813872504
 30
0.0
 10
686.0978061339019
 20
-1844.38881097326
 30
0.0
 10
687.7026618765349
 20
-1843.534610997964
 30
0.0
 10
693.2147572971453
 20
-1840.600779674119
 30
0.0
 10
698.987730332633
 20
-1839.937471207404
 30
0.0
 10
705.1285450154291
 20
-1841.345493711249
 30
0.0
 10
716.8478065875688
 20
-1844.03254775176
 30
0.0
 10
728.6493802413797
 20
-1846.134880548163
 30
0.0
 10
740.7782345339374
 20
-1845.03969465057
 30
0.0
 10
744.662502099557
 20
-1844.688947829347
 30
0.0
 10
748.3773594660788
 20
-1843.990358459936
 30
0.0
 10
749.9311283584984
 20
-1839.821798652106
 30
0.0
 10
751.3879306199132
 20
-1835.913420464721
 30
0.0
 10
752.2823350140397
 20
-1832.141233779455
 30
0.0
 10
746.5979508988575
 20
-1830.485591924947
 30
0.0
 10
742.8800861490099
 20
-1829.402710521424
 30
0.0
 10
742.6705059011774
 20
-1826.902457948172
 30
0.0
 10
745.0454880700536
 20
-1824.058332572729
 30
0.0
 10
749.5100775075997
 20
-1818.711840863178
 30
0.0
 10
753.1352289257202
 20
-1812.819019305827
 30
0.0
 10
756.5645051714609
 20
-1806.772443127729
 30
0.0
 10
758.1552648788101
 20
-1803.967568400969
 30
0.0
 10
760.3252895776541
 20
-1801.066818293728
 30
0.0
 10
764.1017897098654
 20
-1802.356092118758
 30
0.0
 10
767.8516702033639
 20
-1803.63629223866
 30
0.0
 10
766.8129543721379
 20
-1807.308565057259
 30
0.0
 10
766.7488885147368
 20
-1810.151831180325
 30
0.0
 10
766.57737314731
 20
-1817.763071571013
 30
0.0
 10
763.757762242244
 20
-1824.795021192634
 30
0.0
 10
761.5658781628708
 20
-1831.950754712014
 30
0.0
 10
760.8903339422731
 20
-1834.156180608885
 30
0.0
 10
759.8619463246477
 20
-1836.458942615283
 30
0.0
 10
762.624726277344
 20
-1837.819259427031
 30
0.0
 10
765.2379705384746
 20
-1839.105972679966
 30
0.0
 10
766.9069909525287
 20
-1837.189478988153
 30
0.0
 10
768.2037574583018
 20
-1835.344148578397
 30
0.0
 10
773.4190413295337
 20
-1827.922717038292
 30
0.0
 10
777.1590576057215
 20
-1819.758100930294
 30
0.0
 10
779.8835063097767
 20
-1811.133148952615
 30
0.0
 10
781.414505014146
 20
-1806.286415611909
 30
0.0
 10
779.0572148517576
 20
-1802.750574886087
 30
0.0
 10
775.5019120595471
 20
-1799.874880578229
 30
0.0
 10
772.271518369519
 20
-1797.261945647953
 30
0.0
 10
772.4634925360996
 20
-1794.89652695806
 30
0.0
 10
775.1154289318701
 20
-1791.886308097697
 30
0.0
 10
778.1610489902568
 20
-1788.429235037491
 30
0.0
 10
781.7823853278142
 20
-1785.878527164523
 30
0.0
 10
785.7611792476791
 20
-1783.738000599858
 30
0.0
 10
792.3715366894039
 20
-1780.181752630031
 30
0.0
 10
797.7731580316076
 20
-1782.096484854466
 30
0.0
 10
800.3948917062453
 20
-1789.23625346464
 30
0.0
 10
803.4691076838143
 20
-1797.608275911951
 30
0.0
 10
802.9863796971303
 20
-1805.835205002493
 30
0.0
 10
798.1835541530026
 20
-1813.525445056935
 30
0.0
 10
796.0807573603133
 20
-1816.892442690225
 30
0.0
 10
794.4647270404902
 20
-1820.433473300416
 30
0.0
 10
793.2706927491863
 20
-1824.200246695693
 30
0.0
 10
792.2193201304117
 20
-1827.516995249838
 30
0.0
 10
793.1869156422044
 20
-1828.725705571784
 30
0.0
 10
796.7527270910149
 20
-1828.099637103189
 30
0.0
 10
805.0520739720823
 20
-1826.64236225296
 30
0.0
 10
813.3602539676148
 20
-1825.188799373014
 30
0.0
 10
821.7112591017258
 20
-1824.084814731059
 30
0.0
 10
830.8434277588975
 20
-1822.877565138156
 30
0.0
 10
840.0444225316505
 20
-1822.844071480411
 30
0.0
 10
849.1927966886951
 20
-1823.987805137434
 30
0.0
 10
851.707261296303
 20
-1824.302171212921
 30
0.0
 10
855.0999162056369
 20
-1824.459551878712
 30
0.0
 10
855.990685962196
 20
-1827.164117482714
 30
0.0
 10
856.9692713119229
 20
-1830.135360655151
 30
0.0
 10
854.127998654375
 20
-1832.218875824446
 30
0.0
 10
852.1889066249904
 20
-1834.122016734285
 30
0.0
 10
848.0268255800956
 20
-1838.20693691552
 30
0.0
 10
843.3642128392211
 20
-1840.239257828058
 30
0.0
 10
837.0594141360971
 20
-1839.718499331067
 30
0.0
 10
816.1113394954272
 20
-1837.988291555086
 30
0.0
 10
795.5464226757294
 20
-1840.52028491123
 30
0.0
 10
775.3811097675434
 20
-1846.5773955235
 30
0.0
 10
764.4361076255964
 20
-1849.864946681797
 30
0.0
 10
753.3727434684051
 20
-1852.770182086458
 30
0.0
 10
742.3160471096752
 20
-1855.66971205532
 30
0.0
 10
735.7754265910561
 20
-1857.384951654853
 30
0.0
 10
729.106554062303
 20
-1858.448224919082
 30
0.0
 10
724.3113071241614
 20
-1858.206637520119
 30
0.0
  0
HATCH
  5
8C
330
70
100
AcDbEntity
  8
Layer 1
 62
   246
420
  8590872
440
 33554687
100
AcDbHatch
 10
0.0
 20
0.0
 30
0.0
210
0.0
220
0.0
230
1.0
  2
SOLID
 70
     1
 71
     1
 91
        1
 92
        1
 93
        1
 72
     4
 94
        3
 73
     0
 74
     0
 95
       98
 96
       94
 40
0.0
 40
0.0
 40
0.0
 40
0.0
 40
1.0
 40
1.0
 40
1.0
 40
2.0
 40
2.0
 40
2.0
 40
3.0
 40
3.0
 40
3.0
 40
4.0
 40
4.0
 40
4.0
 40
5.0
 40
5.0
 40
5.0
 40
6.0
 40
6.0
 40
6.0
 40
7.0
 40
7.0
 40
7.0
 40
8.0
 40
8.0
 40
8.0
 40
9.0
 40
9.0
 40
9.0
 40
10.0
 40
10.0
 40
10.0
 40
11.0
 40
11.0
 40
11.0
 40
12.0
 40
12.0
 40
12.0
 40
13.0
 40
13.0
 40
13.0
 40
14.0
 40
14.0
 40
14.0
 40
15.0
 40
15.0
 40
15.0
 40
16.0
 40
16.0
 40
16.0
 40
17.0
 40
17.0
 40
17.0
 40
18.0
 40
18.0
 40
18.0
 40
19.0
 40
19.0
 40
19.0
 40
20.0
 40
20.0
 40
20.0
 40
21.0
 40
21.0
 40
21.0
 40
22.0
 40
22.0
 40
22.0
 40
23.0
 40
23.0
 40
23.0
 40
24.0
 40
24.0
 40
24.0
 40
25.0
 40
25.0
 40
25.0
 40
26.0
 40
26.0
 40
26.0
 40
27.0
 40
27.0
 40
27.0
 40
28.0
 40
28.0
 40
28.0
 40
29.0
 40
29.0
 40
29.0
 40
30.0
 40
30.0
 40
30.0
 40
31.0
 40
31.0
 40
31.0
 40
31.0
 10
724.3113071241614
 20
-1858.206637520119
 10
714.0234697944188
 20
-1858.036694584544
 10
705.8370931199142
 20
-1857.25728393634
 10
697.7954961750592
 20
-1855.211850832491
 10
693.9450358943004
 20
-1854.232440600483
 10
690.2981969461261
 20
-1852.799516962686
 10
687.0492648860135
 20
-1850.502254171517
 10
685.5757931284397
 20
-1849.460376291534
 10
683.1082071825157
 20
-1848.797944262247
 10
683.3634266204726
 20
-1846.700921645546
 10
683.6033277366377
 20
-1844.729813872504
 10
686.0978061339019
 20
-1844.38881097326
 10
687.7026618765349
 20
-1843.534610997964
 10
693.2147572971453
 20
-1840.600779674119
 10
698.987730332633
 20
-1839.937471207404
 10
705.1285450154291
 20
-1841.345493711249
 10
716.8478065875688
 20
-1844.03254775176
 10
728.6493802413797
 20
-1846.134880548163
 10
740.7782345339374
 20
-1845.03969465057
 10
744.662502099557
 20
-1844.688947829347
 10
748.3773594660788
 20
-1843.990358459936
 10
749.9311283584984
 20
-1839.821798652106
 10
751.3879306199132
 20
-1835.913420464721
 10
752.2823350140397
 20
-1832.141233779455
 10
746.5979508988575
 20
-1830.485591924947
 10
742.8800861490099
 20
-1829.402710521424
 10
742.6705059011774
 20
-1826.902457948172
 10
745.0454880700536
 20
-1824.058332572729
 10
749.5100775075997
 20
-1818.711840863178
 10
753.1352289257202
 20
-1812.819019305827
 10
756.5645051714609
 20
-1806.772443127729
 10
758.1552648788101
 20
-1803.967568400969
 10
760.3252895776541
 20
-1801.066818293728
 10
764.1017897098654
 20
-1802.356092118758
 10
767.8516702033639
 20
-1803.63629223866
 10
766.8129543721379
 20
-1807.308565057259
 10
766.7488885147368
 20
-1810.151831180325
 10
766.57737314731
 20
-1817.763071571013
 10
763.757762242244
 20
-1824.795021192634
 10
761.5658781628708
 20
-1831.950754712014
 10
760.8903339422731
 20
-1834.156180608885
 10
759.8619463246477
 20
-1836.458942615283
 10
762.624726277344
 20
-1837.819259427031
 10
765.2379705384746
 20
-1839.105972679966
 10
766.9069909525287
 20
-1837.189478988153
 10
768.2037574583018
 20
-1835.344148578397
 10
773.4190413295337
 20
-1827.922717038292
 10
777.1590576057215
 20
-1819.758100930294
 10
779.8835063097767
 20
-1811.133148952615
 10
781.414505014146
 20
-1806.286415611909
 10
779.0572148517576
 20
-1802.750574886087
 10
775.5019120595471
 20
-1799.874880578229
 10
772.271518369519
 20
-1797.261945647953
 10
772.4634925360996
 20
-1794.89652695806
 10
775.1154289318701
 20
-1791.886308097697
 10
778.1610489902568
 20
-1788.429235037491
 10
781.7823853278142
 20
-1785.878527164523
 10
785.7611792476791
 20
-1783.738000599858
 10
792.3715366894039
 20
-1780.181752630031
 10
797.7731580316076
 20
-1782.096484854466
 10
800.3948917062453
 20
-1789.23625346464
 10
803.4691076838143
 20
-1797.608275911951
 10
802.9863796971303
 20
-1805.835205002493
 10
798.1835541530026
 20
-1813.525445056935
 10
796.0807573603133
 20
-1816.892442690225
 10
794.4647270404902
 20
-1820.433473300416
 10
793.2706927491863
 20
-1824.200246695693
 10
792.2193201304117
 20
-1827.516995249838
 10
793.1869156422044
 20
-1828.725705571784
 10
796.7527270910149
 20
-1828.099637103189
 10
805.0520739720823
 20
-1826.64236225296
 10
813.3602539676148
 20
-1825.188799373014
 10
821.7112591017258
 20
-1824.084814731059
 10
830.8434277588975
 20
-1822.877565138156
 10
840.0444225316505
 20
-1822.844071480411
 10
849.1927966886951
 20
-1823.987805137434
 10
851.707261296303
 20
-1824.302171212921
 10
855.0999162056369
 20
-1824.459551878712
 10
855.990685962196
 20
-1827.164117482714
 10
856.9692713119229
 20
-1830.135360655151
 10
854.127998654375
 20
-1832.218875824446
 10
852.1889066249904
 20
-1834.122016734285
 10
848.0268255800956
 20
-1838.20693691552
 10
843.3642128392211
 20
-1840.239257828058
 10
837.0594141360971
 20
-1839.718499331067
 10
816.1113394954272
 20
-1837.988291555086
 10
795.5464226757294
 20
-1840.52028491123
 10
775.3811097675434
 20
-1846.5773955235
 10
764.4361076255964
 20
-1849.864946681797
 10
753.3727434684051
 20
-1852.770182086458
 10
742.3160471096752
 20
-1855.66971205532
 10
735.7754265910561
 20
-1857.384951654853
 10
729.106554062303
 20
-1858.448224919082
 10
724.3113071241614
 20
-1858.206637520119
 97
        0
 97
        1
330
8B
 75
     2
 76
     1
 98
        1
 10
0.0
 20
0.0
450
        0
451
        0
460
0.0
461
0.0
452
        0
462
0.0
453
        0
470

  0
SPLINE
  5
8D
330
70
100
AcDbEntity
  8
Layer 1
100
AcDbSpline
210
0.0
220
0.0
230
1.0
 70
     9
 71
     3
 72
    41
 73
    37
 74
     0
 42
0.0000000001
 43
0.0000000001
 40
0.0
 40
0.0
 40
0.0
 40
0.0
 40
1.0
 40
1.0
 40
1.0
 40
2.0
 40
2.0
 40
2.0
 40
3.0
 40
3.0
 40
3.0
 40
4.0
 40
4.0
 40
4.0
 40
5.0
 40
5.0
 40
5.0
 40
6.0
 40
6.0
 40
6.0
 40
7.0
 40
7.0
 40
7.0
 40
8.0
 40
8.0
 40
8.0
 40
9.0
 40
9.0
 40
9.0
 40
10.0
 40
10.0
 40
10.0
 40
11.0
 40
11.0
 40
11.0
 40
12.0
 40
12.0
 40
12.0
 40
12.0
 10
860.5783718955981
 20
-1748.527126975192
 30
0.0
 10
838.5338912189554
 20
-1747.065323864926
 30
0.0
 10
817.0602978231155
 20
-1742.068719724224
 30
0.0
 10
796.1267961027961
 20
-1734.453140109019
 30
0.0
 10
789.2680631683187
 20
-1731.957939939757
 30
0.0
 10
783.3637619991796
 20
-1728.172417657564
 30
0.0
 10
778.2642108309127
 20
-1723.044485383207
 30
0.0
 10
769.1165154832497
 20
-1713.845875035809
 30
0.0
 10
760.9221692429282
 20
-1703.818756359249
 30
0.0
 10
752.9642892573875
 20
-1693.600849284395
 30
0.0
 10
748.4288802387391
 20
-1687.777373690316
 30
0.0
 10
743.4931799066808
 20
-1682.55109138863
 30
0.0
 10
736.9075345633874
 20
-1678.901846533792
 30
0.0
 10
731.2299471345259
 20
-1675.755773427872
 30
0.0
 10
731.1678145949781
 20
-1673.920986044804
 30
0.0
 10
735.5792850504339
 20
-1669.075176400403
 30
0.0
 10
745.2900312971987
 20
-1658.408326068353
 30
0.0
 10
756.611334426133
 20
-1658.076503206715
 30
0.0
 10
766.869183847838
 20
-1668.208744967486
 30
0.0
 10
774.1038568833037
 20
-1675.354824786385
 30
0.0
 10
780.2672484223667
 20
-1683.423679364843
 30
0.0
 10
786.3332866668579
 20
-1691.532577252305
 30
0.0
 10
794.8862418876752
 20
-1702.965944076544
 30
0.0
 10
805.81900827574
 20
-1711.112679142528
 30
0.0
 10
818.8577163202035
 20
-1716.730286459054
 30
0.0
 10
836.2526277070911
 20
-1724.224720081305
 30
0.0
 10
853.5875460928519
 20
-1731.860578052658
 30
0.0
 10
870.8825779831686
 20
-1739.582696370371
 30
0.0
 10
873.834247386404
 20
-1740.900591892152
 30
0.0
 10
878.6960004587026
 20
-1742.226255055442
 30
0.0
 10
878.0808788654185
 20
-1745.487633386268
 30
0.0
 10
877.5424197694128
 20
-1748.342473638882
 30
0.0
 10
872.5011345049869
 20
-1748.200318925255
 30
0.0
 10
869.2308543195077
 20
-1748.478089441907
 30
0.0
 10
866.4391777092978
 20
-1748.715191543446
 30
0.0
 10
863.6113953141075
 20
-1748.527126975192
 30
0.0
 10
860.5783718955981
 20
-1748.527126975192
 30
0.0
  0
HATCH
  5
8E
330
70
100
AcDbEntity
  8
Layer 1
 62
    18
420
        0
440
 33554687
100
AcDbHatch
 10
0.0
 20
0.0
 30
0.0
210
0.0
220
0.0
230
1.0
  2
SOLID
 70
     1
 71
     1
 91
        1
 92
        1
 93
        1
 72
     4
 94
        3
 73
     0
 74
     0
 95
       41
 96
       37
 40
0.0
 40
0.0
 40
0.0
 40
0.0
 40
1.0
 40
1.0
 40
1.0
 40
2.0
 40
2.0
 40
2.0
 40
3.0
 40
3.0
 40
3.0
 40
4.0
 40
4.0
 40
4.0
 40
5.0
 40
5.0
 40
5.0
 40
6.0
 40
6.0
 40
6.0
 40
7.0
 40
7.0
 40
7.0
 40
8.0
 40
8.0
 40
8.0
 40
9.0
 40
9.0
 40
9.0
 40
10.0
 40
10.0
 40
10.0
 40
11.0
 40
11.0
 40
11.0
 40
12.0
 40
12.0
 40
12.0
 40
12.0
 10
860.5783718955981
 20
-1748.527126975192
 10
838.5338912189554
 20
-1747.065323864926
 10
817.0602978231155
 20
-1742.068719724224
 10
796.1267961027961
 20
-1734.453140109019
 10
789.2680631683187
 20
-1731.957939939757
 10
783.3637619991796
 20
-1728.172417657564
 10
778.2642108309127
 20
-1723.044485383207
 10
769.1165154832497
 20
-1713.845875035809
 10
760.9221692429282
 20
-1703.818756359249
 10
752.9642892573875
 20
-1693.600849284395
 10
748.4288802387391
 20
-1687.777373690316
 10
743.4931799066808
 20
-1682.55109138863
 10
736.9075345633874
 20
-1678.901846533792
 10
731.2299471345259
 20
-1675.755773427872
 10
731.1678145949781
 20
-1673.920986044804
 10
735.5792850504339
 20
-1669.075176400403
 10
745.2900312971987
 20
-1658.408326068353
 10
756.611334426133
 20
-1658.076503206715
 10
766.869183847838
 20
-1668.208744967486
 10
774.1038568833037
 20
-1675.354824786385
 10
780.2672484223667
 20
-1683.423679364843
 10
786.3332866668579
 20
-1691.532577252305
 10
794.8862418876752
 20
-1702.965944076544
 10
805.81900827574
 20
-1711.112679142528
 10
818.8577163202035
 20
-1716.730286459054
 10
836.2526277070911
 20
-1724.224720081305
 10
853.5875460928519
 20
-1731.860578052658
 10
870.8825779831686
 20
-1739.582696370371
 10
873.834247386404
 20
-1740.900591892152
 10
878.6960004587026
 20
-1742.226255055442
 10
878.0808788654185
 20
-1745.487633386268
 10
877.5424197694128
 20
-1748.342473638882
 10
872.5011345049869
 20
-1748.200318925255
 10
869.2308543195077
 20
-1748.478089441907
 10
866.4391777092978
 20
-1748.715191543446
 10
863.6113953141075
 20
-1748.527126975192
 10
860.5783718955981
 20
-1748.527126975192
 97
        0
 97
        1
330
8D
 75
     2
 76
     1
 98
        1
 10
0.0
 20
0.0
450
        0
451
        0
460
0.0
461
0.0
452
        0
462
0.0
453
        0
470

  0
SPLINE
  5
8F
330
70
100
AcDbEntity
  8
Layer 1
100
AcDbSpline
210
0.0
220
0.0
230
1.0
 70
     9
 71
     3
 72
    29
 73
    25
 74
     0
 42
0.0000000001
 43
0.0000000001
 40
0.0
 40
0.0
 40
0.0
 40
0.0
 40
1.0
 40
1.0
 40
1.0
 40
2.0
 40
2.0
 40
2.0
 40
3.0
 40
3.0
 40
3.0
 40
4.0
 40
4.0
 40
4.0
 40
5.0
 40
5.0
 40
5.0
 40
6.0
 40
6.0
 40
6.0
 40
7.0
 40
7.0
 40
7.0
 40
8.0
 40
8.0
 40
8.0
 40
8.0
 10
660.4576259885043
 20
-1775.590432059065
 30
0.0
 10
664.8629441969251
 20
-1771.101225040855
 30
0.0
 10
670.1919254170507
 20
-1769.252749767389
 30
0.0
 10
675.1865382403675
 20
-1766.963667058868
 30
0.0
 10
687.3560652442984
 20
-1761.386234087336
 30
0.0
 10
698.8769039607514
 20
-1754.916897146102
 30
0.0
 10
708.1204746888952
 20
-1744.96987368008
 30
0.0
 10
713.4535019136647
 20
-1739.230995779004
 30
0.0
 10
717.2106344972462
 20
-1732.555472636837
 30
0.0
 10
719.4123699051496
 20
-1725.125491535558
 30
0.0
 10
720.6991647870609
 20
-1720.783079193827
 30
0.0
 10
723.4303843998686
 20
-1719.708730166431
 30
0.0
 10
727.3850075503041
 20
-1719.820733714072
 30
0.0
 10
736.2279862267032
 20
-1720.071162820013
 30
0.0
 10
746.0012516765864
 20
-1726.958414340961
 30
0.0
 10
749.1545962057653
 20
-1735.242286086681
 30
0.0
 10
751.4240965525577
 20
-1741.204277460563
 30
0.0
 10
750.1251131756443
 20
-1746.462601283476
 30
0.0
 10
744.4689726861697
 20
-1749.147902449132
 30
0.0
 10
719.405019001043
 20
-1761.047250431186
 30
0.0
 10
693.895860880636
 20
-1771.788162948001
 30
0.0
 10
666.2353915041357
 20
-1776.233333281774
 30
0.0
 10
664.5820030389923
 20
-1776.499039895023
 30
0.0
 10
662.8893220366125
 20
-1776.699924508777
 30
0.0
 10
660.4576259885043
 20
-1775.590432059065
 30
0.0
  0
HATCH
  5
90
330
70
100
AcDbEntity
  8
Layer 1
 62
    18
420
        0
440
 33554687
100
AcDbHatch
 10
0.0
 20
0.0
 30
0.0
210
0.0
220
0.0
230
1.0
  2
SOLID
 70
     1
 71
     1
 91
        1
 92
        1
 93
        1
 72
     4
 94
        3
 73
     0
 74
     0
 95
       29
 96
       25
 40
0.0
 40
0.0
 40
0.0
 40
0.0
 40
1.0
 40
1.0
 40
1.0
 40
2.0
 40
2.0
 40
2.0
 40
3.0
 40
3.0
 40
3.0
 40
4.0
 40
4.0
 40
4.0
 40
5.0
 40
5.0
 40
5.0
 40
6.0
 40
6.0
 40
6.0
 40
7.0
 40
7.0
 40
7.0
 40
8.0
 40
8.0
 40
8.0
 40
8.0
 10
660.4576259885043
 20
-1775.590432059065
 10
664.8629441969251
 20
-1771.101225040855
 10
670.1919254170507
 20
-1769.252749767389
 10
675.1865382403675
 20
-1766.963667058868
 10
687.3560652442984
 20
-1761.386234087336
 10
698.8769039607514
 20
-1754.916897146102
 10
708.1204746888952
 20
-1744.96987368008
 10
713.4535019136647
 20
-1739.230995779004
 10
717.2106344972462
 20
-1732.555472636837
 10
719.4123699051496
 20
-1725.125491535558
 10
720.6991647870609
 20
-1720.783079193827
 10
723.4303843998686
 20
-1719.708730166431
 10
727.3850075503041
 20
-1719.820733714072
 10
736.2279862267032
 20
-1720.071162820013
 10
746.0012516765864
 20
-1726.958414340961
 10
749.1545962057653
 20
-1735.242286086681
 10
751.4240965525577
 20
-1741.204277460563
 10
750.1251131756443
 20
-1746.462601283476
 10
744.4689726861697
 20
-1749.147902449132
 10
719.405019001043
 20
-1761.047250431186
 10
693.895860880636
 20
-1771.788162948001
 10
666.2353915041357
 20
-1776.233333281774
 10
664.5820030389923
 20
-1776.499039895023
 10
662.8893220366125
 20
-1776.699924508777
 10
660.4576259885043
 20
-1775.590432059065
 97
        0
 97
        1
330
8F
 75
     2
 76
     1
 98
        1
 10
0.0
 20
0.0
450
        0
451
        0
460
0.0
461
0.0
452
        0
462
0.0
453
        0
470

  0
ENDSEC
  0
SECTION
  2
OBJECTS
  0
DICTIONARY
  5
C
330
0
100
AcDbDictionary
281
     1
  3
ACAD_COLOR
350
63
  3
ACAD_DETAILVIEWSTYLE
350
6A
  3
ACAD_GROUP
350
D
  3
ACAD_LAYOUT
350
62
  3
ACAD_MATERIAL
350
10
  3
ACAD_MLEADERSTYLE
350
66
  3
ACAD_MLINESTYLE
350
5F
  3
ACAD_PLOTSETTINGS
350
61
  3
ACAD_PLOTSTYLENAME
350
E
  3
ACAD_SCALELIST
350
42
  3
ACAD_SECTIONVIEWSTYLE
350
68
  3
ACAD_TABLESTYLE
350
64
  3
ACAD_VISUALSTYLE
350
29
  3
ACDB_RECOMPOSE_DATA
350
99
  3
AcDbVariableDictionary
350
91
  0
DICTIONARY
  5
63
102
{ACAD_REACTORS
330
C
102
}
330
C
100
AcDbDictionary
281
     1
  0
DICTIONARY
  5
6A
102
{ACAD_REACTORS
330
C
102
}
330
C
100
AcDbDictionary
281
     1
  3
Imperial24
350
6B
  0
DICTIONARY
  5
D
102
{ACAD_REACTORS
330
C
102
}
330
C
100
AcDbDictionary
281
     1
  0
DICTIONARY
  5
62
102
{ACAD_REACTORS
330
C
102
}
330
C
100
AcDbDictionary
281
     1
  3
Layout1
350
6F
  3
Layout2
350
77
  3
Model
350
73
  0
DICTIONARY
  5
10
102
{ACAD_REACTORS
330
C
102
}
330
C
100
AcDbDictionary
281
     1
  3
ByBlock
350
19
  3
ByLayer
350
11
  3
Global
350
21
  0
DICTIONARY
  5
66
102
{ACAD_REACTORS
330
C
102
}
330
C
100
AcDbDictionary
281
     1
  3
Standard
350
67
  0
DICTIONARY
  5
5F
102
{ACAD_REACTORS
330
C
102
}
330
C
100
AcDbDictionary
281
     1
  3
Standard
350
60
  0
DICTIONARY
  5
61
102
{ACAD_REACTORS
330
C
102
}
330
C
100
AcDbDictionary
281
     1
  0
ACDBDICTIONARYWDFLT
  5
E
102
{ACAD_REACTORS
330
C
102
}
330
C
100
AcDbDictionary
281
     1
  3
Normal
350
F
100
AcDbDictionaryWithDefault
340
F
  0
DICTIONARY
  5
42
102
{ACAD_REACTORS
330
C
102
}
330
C
100
AcDbDictionary
281
     1
  3
A0
350
43
  3
A1
350
44
  3
A2
350
45
  3
A3
350
46
  3
A4
350
47
  3
A5
350
48
  3
A6
350
49
  3
A7
350
4A
  3
A8
350
4B
  3
A9
350
4C
  3
B0
350
4D
  3
B1
350
4E
  3
B2
350
4F
  3
B3
350
50
  3
B4
350
51
  3
B5
350
52
  3
B6
350
53
  0
DICTIONARY
  5
68
102
{ACAD_REACTORS
330
C
102
}
330
C
100
AcDbDictionary
281
     1
  3
Imperial24
350
69
  0
DICTIONARY
  5
64
102
{ACAD_REACTORS
330
C
102
}
330
C
100
AcDbDictionary
281
     1
  3
Standard
350
65
  0
DICTIONARY
  5
29
102
{ACAD_REACTORS
330
C
102
}
330
C
100
AcDbDictionary
281
     1
  3
2dWireframe
350
2F
  3
Basic
350
2E
  3
Brighten
350
35
  3
ColorChange
350
39
  3
Conceptual
350
32
  3
Dim
350
34
  3
EdgeColorOff
350
41
  3
Facepattern
350
38
  3
Flat
350
2A
  3
FlatWithEdges
350
2B
  3
Gouraud
350
2C
  3
GouraudWithEdges
350
2D
  3
Hidden
350
31
  3
JitterOff
350
3F
  3
Linepattern
350
37
  3
OverhangOff
350
40
  3
Realistic
350
33
  3
Shaded
350
3E
  3
Shaded with edges
350
3D
  3
Shades of Gray
350
3A
  3
Sketchy
350
3B
  3
Thicken
350
36
  3
Wireframe
350
30
  3
X-Ray
350
3C
  0
XRECORD
  5
99
102
{ACAD_REACTORS
330
C
102
}
330
C
100
AcDbXrecord
280
     1
 90
        1
330
65
  0
DICTIONARY
  5
91
102
{ACAD_REACTORS
330
C
102
}
330
C
100
AcDbDictionary
281
     1
  3
CANNOSCALE
350
96
  3
CMLEADERSTYLE
350
93
  3
CTABLESTYLE
350
92
  3
CVIEWDETAILSTYLE
350
94
  3
CVIEWSECTIONSTYLE
350
95
  0
ACDBDETAILVIEWSTYLE
  5
6B
102
{ACAD_REACTORS
330
6A
102
}
330
6A
100
AcDbModelDocViewStyle
 70
     0
  3
Imperial24
290
     1
300
Imperial24
 90
        0
100
AcDbDetailViewStyle
 70
     0
 71
     0
 90
        3
 71
     1
340
55
 62
   256
 40
0.24
340
0
 62
   256
 40
0.24
300

 40
0.36
280
     3
 71
     2
340
5D
 90
       25
 62
   256
 71
     3
340
55
 62
   256
 40
0.24
 90
        1
 40
0.75
 90
        1
300
%<\AcVar ViewType \f "%tc1">% %<\AcVar ViewDetailId>%\PSCALE %<\AcVar ViewScale \f "%sn">%
 71
     4
340
5D
 90
       25
 62
   256
340
5D
 90
       25
 62
   256
280
     0
  0
LAYOUT
  5
6F
102
{ACAD_REACTORS
330
62
102
}
330
62
100
AcDbPlotSettings
  1

  2

  4

  6

 40
0.0
 41
0.0
 42
0.0
 43
0.0
 44
0.0
 45
0.0
 46
0.0
 47
0.0
 48
0.0
 49
0.0
140
0.0
141
0.0
142
1.0
143
1.0
 70
   688
 72
     0
 73
     0
 74
     5
  7

 75
    16
147
1.0
 76
     0
 77
     2
 78
   300
148
0.0
149
0.0
100
AcDbLayout
  1
Layout1
 70
     1
 71
     1
 10
0.0
 20
0.0
 11
12.0
 21
9.0
 12
0.0
 22
0.0
 32
0.0
 14
0.0
 24
0.0
 34
0.0
 15
0.0
 25
0.0
 35
0.0
146
0.0
 13
0.0
 23
0.0
 33
0.0
 16
1.0
 26
0.0
 36
0.0
 17
0.0
 27
1.0
 37
0.0
 76
     0
330
6C
  0
LAYOUT
  5
77
102
{ACAD_REACTORS
330
62
102
}
330
62
100
AcDbPlotSettings
  1

  2

  4

  6

 40
0.0
 41
0.0
 42
0.0
 43
0.0
 44
0.0
 45
0.0
 46
0.0
 47
0.0
 48
0.0
 49
0.0
140
0.0
141
0.0
142
1.0
143
1.0
 70
   688
 72
     0
 73
     0
 74
     5
  7

 75
    16
147
1.0
 76
     0
 77
     2
 78
   300
148
0.0
149
0.0
100
AcDbLayout
  1
Layout2
 70
     1
 71
     2
 10
0.0
 20
0.0
 11
12.0
 21
9.0
 12
0.0
 22
0.0
 32
0.0
 14
0.0
 24
0.0
 34
0.0
 15
0.0
 25
0.0
 35
0.0
146
0.0
 13
0.0
 23
0.0
 33
0.0
 16
1.0
 26
0.0
 36
0.0
 17
0.0
 27
1.0
 37
0.0
 76
     0
330
74
  0
LAYOUT
  5
73
102
{ACAD_REACTORS
330
62
102
}
330
62
100
AcDbPlotSettings
  1

  2

  4

  6

 40
0.0
 41
0.0
 42
0.0
 43
0.0
 44
0.0
 45
0.0
 46
0.0
 47
0.0
 48
0.0
 49
0.0
140
0.0
141
0.0
142
1.0
143
1.0
 70
  1712
 72
     0
 73
     0
 74
     0
  7

 75
     0
147
1.0
 76
     0
 77
     2
 78
   300
148
0.0
149
0.0
100
AcDbLayout
  1
Model
 70
     1
 71
     0
 10
0.0
 20
0.0
 11
12.0
 21
9.0
 12
0.0
 22
0.0
 32
0.0
 14
0.0
 24
0.0
 34
0.0
 15
0.0
 25
0.0
 35
0.0
146
0.0
 13
0.0
 23
0.0
 33
0.0
 16
1.0
 26
0.0
 36
0.0
 17
0.0
 27
1.0
 37
0.0
 76
     0
330
70
  0
MATERIAL
  5
19
102
{ACAD_XDICTIONARY
360
1A
102
}
102
{ACAD_REACTORS
330
10
102
}
330
10
100
AcDbMaterial
  1
ByBlock
 72
     0
 43
0.0208333333333333
 43
0.0
 43
0.0
 43
0.0
 43
0.0
 43
0.0208333333333333
 43
0.0
 43
0.0
 43
0.0
 43
0.0
 43
1.0
 43
0.0
 43
0.0
 43
0.0
 43
0.0
 43
1.0
 77
     0
 47
0.0208333333333333
 47
0.0
 47
0.0
 47
0.0
 47
0.0
 47
0.0208333333333333
 47
0.0
 47
0.0
 47
0.0
 47
0.0
 47
1.0
 47
0.0
 47
0.0
 47
0.0
 47
0.0
 47
1.0
171
     0
 49
0.0208333333333333
 49
0.0
 49
0.0
 49
0.0
 49
0.0
 49
0.0208333333333333
 49
0.0
 49
0.0
 49
0.0
 49
0.0
 49
1.0
 49
0.0
 49
0.0
 49
0.0
 49
0.0
 49
1.0
175
     0
142
0.0208333333333333
142
0.0
142
0.0
142
0.0
142
0.0
142
0.0208333333333333
142
0.0
142
0.0
142
0.0
142
0.0
142
1.0
142
0.0
142
0.0
142
0.0
142
0.0
142
1.0
179
     0
144
0.0208333333333333
144
0.0
144
0.0
144
0.0
144
0.0
144
0.0208333333333333
144
0.0
144
0.0
144
0.0
144
0.0
144
1.0
144
0.0
144
0.0
144
0.0
144
0.0
144
1.0
147
0.0208333333333333
147
0.0
147
0.0
147
0.0
147
0.0
147
0.0208333333333333
147
0.0
147
0.0
147
0.0
147
0.0
147
1.0
147
0.0
147
0.0
147
0.0
147
0.0
147
1.0
  0
MATERIAL
  5
11
102
{ACAD_XDICTIONARY
360
12
102
}
102
{ACAD_REACTORS
330
10
102
}
330
10
100
AcDbMaterial
  1
ByLayer
 72
     0
 43
0.0208333333333333
 43
0.0
 43
0.0
 43
0.0
 43
0.0
 43
0.0208333333333333
 43
0.0
 43
0.0
 43
0.0
 43
0.0
 43
1.0
 43
0.0
 43
0.0
 43
0.0
 43
0.0
 43
1.0
 77
     0
 47
0.0208333333333333
 47
0.0
 47
0.0
 47
0.0
 47
0.0
 47
0.0208333333333333
 47
0.0
 47
0.0
 47
0.0
 47
0.0
 47
1.0
 47
0.0
 47
0.0
 47
0.0
 47
0.0
 47
1.0
171
     0
 49
0.0208333333333333
 49
0.0
 49
0.0
 49
0.0
 49
0.0
 49
0.0208333333333333
 49
0.0
 49
0.0
 49
0.0
 49
0.0
 49
1.0
 49
0.0
 49
0.0
 49
0.0
 49
0.0
 49
1.0
175
     0
142
0.0208333333333333
142
0.0
142
0.0
142
0.0
142
0.0
142
0.0208333333333333
142
0.0
142
0.0
142
0.0
142
0.0
142
1.0
142
0.0
142
0.0
142
0.0
142
0.0
142
1.0
179
     0
144
0.0208333333333333
144
0.0
144
0.0
144
0.0
144
0.0
144
0.0208333333333333
144
0.0
144
0.0
144
0.0
144
0.0
144
1.0
144
0.0
144
0.0
144
0.0
144
0.0
144
1.0
147
0.0208333333333333
147
0.0
147
0.0
147
0.0
147
0.0
147
0.0208333333333333
147
0.0
147
0.0
147
0.0
147
0.0
147
1.0
147
0.0
147
0.0
147
0.0
147
0.0
147
1.0
  0
MATERIAL
  5
21
102
{ACAD_XDICTIONARY
360
22
102
}
102
{ACAD_REACTORS
330
10
102
}
330
10
100
AcDbMaterial
  1
Global
 72
     0
 43
0.0208333333333333
 43
0.0
 43
0.0
 43
0.0
 43
0.0
 43
0.0208333333333333
 43
0.0
 43
0.0
 43
0.0
 43
0.0
 43
1.0
 43
0.0
 43
0.0
 43
0.0
 43
0.0
 43
1.0
 77
     0
 47
0.0208333333333333
 47
0.0
 47
0.0
 47
0.0
 47
0.0
 47
0.0208333333333333
 47
0.0
 47
0.0
 47
0.0
 47
0.0
 47
1.0
 47
0.0
 47
0.0
 47
0.0
 47
0.0
 47
1.0
171
     0
 49
0.0208333333333333
 49
0.0
 49
0.0
 49
0.0
 49
0.0
 49
0.0208333333333333
 49
0.0
 49
0.0
 49
0.0
 49
0.0
 49
1.0
 49
0.0
 49
0.0
 49
0.0
 49
0.0
 49
1.0
175
     0
142
0.0208333333333333
142
0.0
142
0.0
142
0.0
142
0.0
142
0.0208333333333333
142
0.0
142
0.0
142
0.0
142
0.0
142
1.0
142
0.0
142
0.0
142
0.0
142
0.0
142
1.0
179
     0
144
0.0208333333333333
144
0.0
144
0.0
144
0.0
144
0.0
144
0.0208333333333333
144
0.0
144
0.0
144
0.0
144
0.0
144
1.0
144
0.0
144
0.0
144
0.0
144
0.0
144
1.0
147
0.0208333333333333
147
0.0
147
0.0
147
0.0
147
0.0
147
0.0208333333333333
147
0.0
147
0.0
147
0.0
147
0.0
147
1.0
147
0.0
147
0.0
147
0.0
147
0.0
147
1.0
  0
MLEADERSTYLE
  5
67
102
{ACAD_REACTORS
330
66
102
}
330
66
100
AcDbMLeaderStyle
179
     2
170
     2
171
     1
172
     0
 90
        2
 40
0.0
 41
0.0
173
     1
 91
-1056964608
340
5B
 92
       -2
290
     1
 42
0.09
291
     1
 43
0.36
  3
Standard
 44
0.18
300

342
55
174
     1
178
     6
175
     1
176
     0
 93
-1056964608
 45
0.18
292
     0
297
     0
 46
0.18
 94
-1056964608
 47
1.0
 49
1.0
140
1.0
293
     1
141
0.0
294
     1
177
     0
142
1.0
295
     1
296
     0
143
0.125
271
     0
272
     9
273
     9
298
     1
  0
MLINESTYLE
  5
60
102
{ACAD_REACTORS
330
5F
102
}
330
5F
100
AcDbMlineStyle
  2
STANDARD
 70
     0
  3

 62
   256
 51
90.0
 52
90.0
 71
     2
 49
0.5
 62
   256
  6
BYLAYER
 49
-0.5
 62
   256
  6
BYLAYER
  0
ACDBPLACEHOLDER
  5
F
102
{ACAD_REACTORS
330
E
102
}
330
E
  0
SCALE
  5
43
102
{ACAD_REACTORS
330
42
102
}
330
42
100
AcDbScale
 70
     0
300
1:1
140
1.0
141
1.0
290
     1
  0
SCALE
  5
44
102
{ACAD_REACTORS
330
42
102
}
330
42
100
AcDbScale
 70
     0
300
1/128" = 1'-0"
140
0.0078125
141
12.0
290
     0
  0
SCALE
  5
45
102
{ACAD_REACTORS
330
42
102
}
330
42
100
AcDbScale
 70
     0
300
1/64" = 1'-0"
140
0.015625
141
12.0
290
     0
  0
SCALE
  5
46
102
{ACAD_REACTORS
330
42
102
}
330
42
100
AcDbScale
 70
     0
300
1/32" = 1'-0"
140
0.03125
141
12.0
290
     0
  0
SCALE
  5
47
102
{ACAD_REACTORS
330
42
102
}
330
42
100
AcDbScale
 70
     0
300
1/16" = 1'-0"
140
0.0625
141
12.0
290
     0
  0
SCALE
  5
48
102
{ACAD_REACTORS
330
42
102
}
330
42
100
AcDbScale
 70
     0
300
3/32" = 1'-0"
140
0.09375
141
12.0
290
     0
  0
SCALE
  5
49
102
{ACAD_REACTORS
330
42
102
}
330
42
100
AcDbScale
 70
     0
300
1/8" = 1'-0"
140
0.125
141
12.0
290
     0
  0
SCALE
  5
4A
102
{ACAD_REACTORS
330
42
102
}
330
42
100
AcDbScale
 70
     0
300
3/16" = 1'-0"
140
0.1875
141
12.0
290
     0
  0
SCALE
  5
4B
102
{ACAD_REACTORS
330
42
102
}
330
42
100
AcDbScale
 70
     0
300
1/4" = 1'-0"
140
0.25
141
12.0
290
     0
  0
SCALE
  5
4C
102
{ACAD_REACTORS
330
42
102
}
330
42
100
AcDbScale
 70
     0
300
3/8" = 1'-0"
140
0.375
141
12.0
290
     0
  0
SCALE
  5
4D
102
{ACAD_REACTORS
330
42
102
}
330
42
100
AcDbScale
 70
     0
300
1/2" = 1'-0"
140
0.5
141
12.0
290
     0
  0
SCALE
  5
4E
102
{ACAD_REACTORS
330
42
102
}
330
42
100
AcDbScale
 70
     0
300
3/4" = 1'-0"
140
0.75
141
12.0
290
     0
  0
SCALE
  5
4F
102
{ACAD_REACTORS
330
42
102
}
330
42
100
AcDbScale
 70
     0
300
1" = 1'-0"
140
1.0
141
12.0
290
     0
  0
SCALE
  5
50
102
{ACAD_REACTORS
330
42
102
}
330
42
100
AcDbScale
 70
     0
300
1-1/2" = 1'-0"
140
1.5
141
12.0
290
     0
  0
SCALE
  5
51
102
{ACAD_REACTORS
330
42
102
}
330
42
100
AcDbScale
 70
     0
300
3" = 1'-0"
140
3.0
141
12.0
290
     0
  0
SCALE
  5
52
102
{ACAD_REACTORS
330
42
102
}
330
42
100
AcDbScale
 70
     0
300
6" = 1'-0"
140
6.0
141
12.0
290
     0
  0
SCALE
  5
53
102
{ACAD_REACTORS
330
42
102
}
330
42
100
AcDbScale
 70
     0
300
1'-0" = 1'-0"
140
12.0
141
12.0
290
     0
  0
ACDBSECTIONVIEWSTYLE
  5
69
102
{ACAD_REACTORS
330
68
102
}
330
68
100
AcDbModelDocViewStyle
 70
     0
  3
Imperial24
290
     1
300
Imperial24
 90
        0
100
AcDbSectionViewStyle
 70
     0
 71
     0
 90
       78
 71
     1
340
55
 62
   256
 40
0.24
340
0
340
0
 62
   256
 40
0.24
300
I, O, Q, S, X, Z
 40
0.48
 90
        3
 40
0.18
 90
        1
 71
     2
340
5D
 90
       25
 62
   256
340
5D
 90
       50
 62
   256
 40
0.24
 40
0.0
 40
0.24
 71
     3
340
55
 62
   256
 40
0.24
 90
        1
 40
0.75
 90
        1
300
%<\AcVar ViewType \f "%tc1">% %<\AcVar ViewSectionStartId>%-%<\AcVar ViewSectionEndId>%\PSCALE %<\AcVar ViewScale \f "%sn">%
 71
     4
 62
   256
 62
   257
300
ANSI31
 40
1.0
 90
        0
290
     0
290
     0
 90
        6
 40
0.0
 40
1.570796326794896
 40
0.2617993877991494
 40
1.308996938995747
 40
-0.2617993877991494
 40
1.832595714594046
  0
TABLESTYLE
  5
65
102
{ACAD_XDICTIONARY
360
97
102
}
102
{ACAD_REACTORS
330
64
102
}
330
64
100
AcDbTableStyle
280
     0
  3
Standard
 70
     0
 71
     0
 40
0.06
 41
0.06
280
     0
281
     0
  7
Standard
140
0.18
170
     2
 62
     0
 63
     7
283
     0
 90
      512
 91
        0
  1

274
    -2
284
     1
 64
     0
275
    -2
285
     1
 65
     0
276
    -2
286
     1
 66
     0
277
    -2
287
     1
 67
     0
278
    -2
288
     1
 68
     0
279
    -2
289
     1
 69
     0
  7
Standard
140
0.25
170
     5
 62
     0
 63
     7
283
     0
 90
      512
 91
        0
  1

274
    -2
284
     1
 64
     0
275
    -2
285
     1
 65
     0
276
    -2
286
     1
 66
     0
277
    -2
287
     1
 67
     0
278
    -2
288
     1
 68
     0
279
    -2
289
     1
 69
     0
  7
Standard
140
0.18
170
     5
 62
     0
 63
     7
283
     0
 90
      512
 91
        0
  1

274
    -2
284
     1
 64
     0
275
    -2
285
     1
 65
     0
276
    -2
286
     1
 66
     0
277
    -2
287
     1
 67
     0
278
    -2
288
     1
 68
     0
279
    -2
289
     1
 69
     0
  0
VISUALSTYLE
  5
2F
102
{ACAD_REACTORS
330
29
102
}
330
29
100
AcDbVisualStyle
  2
2dWireframe
 70
     4
177
     3
291
     0
 70
    58
 90
        0
176
     1
 90
        2
176
     1
 90
        0
176
     1
 90
        0
176
     1
 40
0.6
176
     1
 40
30.0
176
     1
 62
     7
420
 16777215
176
     1
 90
        1
176
     1
 90
        4
176
     1
 62
     7
176
     1
 62
   257
176
     1
 90
        1
176
     1
 90
        1
176
     1
 40
1.0
176
     1
 90
        0
176
     1
 62
   257
176
     1
 40
1.0
176
     1
 90
        1
176
     1
 90
        6
176
     1
 90
        2
176
     1
 62
     7
176
     1
 90
        5
176
     1
 90
        0
176
     1
 90
        0
176
     1
290
     0
176
     1
 90
        1
176
     1
 40
0.0
176
     1
 90
        0
176
     1
290
     1
176
     1
290
     1
176
     1
290
     0
176
     1
290
     0
176
     1
290
     0
176
     1
290
     0
176
     1
290
     0
176
     1
290
     0
176
     1
290
     0
176
     1
 90
       50
176
     1
 40
0.0
176
     1
 40
1.0
176
     1
 90
        0
176
     1
 62
    18
420
        0
176
     1
 90
       50
176
     1
 90
        3
176
     1
 62
     5
420
      255
176
     1
290
     0
176
     1
 90
       50
176
     1
 90
       50
176
     1
 90
       50
176
     1
290
     0
176
     1
 90
       50
176
     1
 62
   256
176
     0
 40
1.0
176
     0
 90
        2
176
     1
  1
strokes_ogs.tif
176
     1
290
     0
176
     1
 40
1.0
176
     1
 40
1.0
176
     1
  0
VISUALSTYLE
  5
2E
102
{ACAD_REACTORS
330
29
102
}
330
29
100
AcDbVisualStyle
  2
Basic
 70
     7
177
     3
291
     1
 70
    58
 90
        1
176
     1
 90
        0
176
     1
 90
        1
176
     1
 90
        0
176
     1
 40
0.6
176
     1
 40
30.0
176
     1
 62
     7
420
 16777215
176
     1
 90
        0
176
     1
 90
        4
176
     1
 62
     7
176
     1
 62
   257
176
     1
 90
        1
176
     1
 90
        1
176
     1
 40
1.0
176
     1
 90
        8
176
     1
 62
     7
176
     1
 40
1.0
176
     1
 90
        1
176
     1
 90
        6
176
     1
 90
        2
176
     1
 62
     7
176
     1
 90
        5
176
     1
 90
        0
176
     1
 90
        0
176
     1
290
     0
176
     1
 90
        1
176
     1
 40
0.0
176
     1
 90
        0
176
     1
290
     0
176
     1
290
     1
176
     1
290
     1
176
     1
290
     0
176
     1
290
     0
176
     1
290
     0
176
     1
290
     0
176
     1
290
     0
176
     1
290
     0
176
     1
 90
       50
176
     1
 40
0.0
176
     1
 40
1.0
176
     1
 90
        0
176
     1
 62
    18
420
        0
176
     1
 90
       50
176
     1
 90
        3
176
     1
 62
     5
420
      255
176
     1
290
     0
176
     1
 90
       50
176
     1
 90
       50
176
     1
 90
       50
176
     1
290
     0
176
     1
 90
       50
176
     1
 62
   256
176
     0
 40
1.0
176
     0
 90
        2
176
     1
  1
strokes_ogs.tif
176
     1
290
     0
176
     1
 40
1.0
176
     1
 40
1.0
176
     1
  0
VISUALSTYLE
  5
35
102
{ACAD_REACTORS
330
29
102
}
330
29
100
AcDbVisualStyle
  2
Brighten
 70
    12
177
     3
291
     1
 70
    58
 90
        2
176
     1
 90
        2
176
     1
 90
        0
176
     1
 90
        0
176
     1
 40
0.6
176
     1
 40
30.0
176
     1
 62
     7
420
 16777215
176
     1
 90
        1
176
     1
 90
        4
176
     1
 62
     7
176
     1
 62
   257
176
     1
 90
        1
176
     1
 90
        1
176
     1
 40
1.0
176
     1
 90
        8
176
     1
 62
     7
176
     1
 40
1.0
176
     1
 90
        1
176
     1
 90
        6
176
     1
 90
        2
176
     1
 62
     7
176
     1
 90
        5
176
     1
 90
        0
176
     1
 90
        0
176
     1
290
     0
176
     1
 90
        1
176
     1
 40
50.0
176
     1
 90
        0
176
     1
290
     0
176
     1
290
     1
176
     1
290
     1
176
     1
290
     0
176
     1
290
     0
176
     1
290
     0
176
     1
290
     0
176
     1
290
     0
176
     1
290
     0
176
     1
 90
       50
176
     1
 40
0.0
176
     1
 40
1.0
176
     1
 90
        0
176
     1
 62
    18
420
        0
176
     1
 90
       50
176
     1
 90
        3
176
     1
 62
     5
420
      255
176
     1
290
     0
176
     1
 90
       50
176
     1
 90
       50
176
     1
 90
       50
176
     1
290
     0
176
     1
 90
       50
176
     1
 62
   256
176
     0
 40
1.0
176
     0
 90
        2
176
     1
  1
strokes_ogs.tif
176
     1
290
     0
176
     1
 40
1.0
176
     1
 40
1.0
176
     1
  0
VISUALSTYLE
  5
39
102
{ACAD_REACTORS
330
29
102
}
330
29
100
AcDbVisualStyle
  2
ColorChange
 70
    16
177
     3
291
     1
 70
    58
 90
        2
176
     1
 90
        2
176
     1
 90
        3
176
     1
 90
        0
176
     1
 40
0.6
176
     1
 40
30.0
176
     1
 62
     8
420
  8421504
176
     1
 90
        1
176
     1
 90
        4
176
     1
 62
     7
176
     1
 62
   257
176
     1
 90
        1
176
     1
 90
        1
176
     1
 40
1.0
176
     1
 90
        8
176
     1
 62
     8
420
  8421504
176
     1
 40
1.0
176
     1
 90
        1
176
     1
 90
        6
176
     1
 90
        2
176
     1
 62
     7
176
     1
 90
        5
176
     1
 90
        0
176
     1
 90
        0
176
     1
290
     0
176
     1
 90
        1
176
     1
 40
0.0
176
     1
 90
        0
176
     1
290
     0
176
     1
290
     1
176
     1
290
     1
176
     1
290
     0
176
     1
290
     0
176
     1
290
     0
176
     1
290
     0
176
     1
290
     0
176
     1
290
     0
176
     1
 90
       50
176
     1
 40
0.0
176
     1
 40
1.0
176
     1
 90
        0
176
     1
 62
    18
420
        0
176
     1
 90
       50
176
     1
 90
        3
176
     1
 62
     5
420
      255
176
     1
290
     0
176
     1
 90
       50
176
     1
 90
       50
176
     1
 90
       50
176
     1
290
     0
176
     1
 90
       50
176
     1
 62
   256
176
     0
 40
1.0
176
     0
 90
        2
176
     1
  1
strokes_ogs.tif
176
     1
290
     0
176
     1
 40
1.0
176
     1
 40
1.0
176
     1
  0
VISUALSTYLE
  5
32
102
{ACAD_REACTORS
330
29
102
}
330
29
100
AcDbVisualStyle
  2
Conceptual
 70
     9
177
     3
291
     0
 70
    58
 90
        3
176
     1
 90
        2
176
     1
 90
        0
176
     1
 90
        0
176
     1
 40
0.6
176
     1
 40
30.0
176
     1
 62
     7
420
 16777215
176
     1
 90
        2
176
     1
 90
        2
176
     1
 62
     7
176
     1
 62
   257
176
     1
 90
        1
176
     1
 90
        1
176
     1
 40
179.0
176
     1
 90
        8
176
     1
 62
     7
176
     1
 40
1.0
176
     1
 90
        1
176
     1
 90
        6
176
     1
 90
        2
176
     1
 62
     7
176
     1
 90
        3
176
     1
 90
        0
176
     1
 90
        0
176
     1
290
     0
176
     1
 90
        1
176
     1
 40
0.0
176
     1
 90
        0
176
     1
290
     0
176
     1
290
     1
176
     1
290
     1
176
     1
290
     0
176
     1
290
     0
176
     1
290
     0
176
     1
290
     0
176
     1
290
     0
176
     1
290
     0
176
     1
 90
       50
176
     1
 40
0.0
176
     1
 40
1.0
176
     1
 90
        0
176
     1
 62
    18
420
        0
176
     1
 90
       50
176
     1
 90
        3
176
     1
 62
     5
420
      255
176
     1
290
     0
176
     1
 90
       50
176
     1
 90
       50
176
     1
 90
       50
176
     1
290
     0
176
     1
 90
       50
176
     1
 62
   256
176
     0
 40
1.0
176
     0
 90
        2
176
     1
  1
strokes_ogs.tif
176
     1
290
     0
176
     1
 40
1.0
176
     1
 40
1.0
176
     1
  0
VISUALSTYLE
  5
34
102
{ACAD_REACTORS
330
29
102
}
330
29
100
AcDbVisualStyle
  2
Dim
 70
    11
177
     3
291
     1
 70
    58
 90
        2
176
     1
 90
        2
176
     1
 90
        0
176
     1
 90
        0
176
     1
 40
0.6
176
     1
 40
30.0
176
     1
 62
     7
420
 16777215
176
     1
 90
        1
176
     1
 90
        4
176
     1
 62
     7
176
     1
 62
   257
176
     1
 90
        1
176
     1
 90
        1
176
     1
 40
1.0
176
     1
 90
        8
176
     1
 62
     7
176
     1
 40
1.0
176
     1
 90
        1
176
     1
 90
        6
176
     1
 90
        2
176
     1
 62
     7
176
     1
 90
        5
176
     1
 90
        0
176
     1
 90
        0
176
     1
290
     0
176
     1
 90
        1
176
     1
 40
-50.0
176
     1
 90
        0
176
     1
290
     0
176
     1
290
     1
176
     1
290
     1
176
     1
290
     0
176
     1
290
     0
176
     1
290
     0
176
     1
290
     0
176
     1
290
     0
176
     1
290
     0
176
     1
 90
       50
176
     1
 40
0.0
176
     1
 40
1.0
176
     1
 90
        0
176
     1
 62
    18
420
        0
176
     1
 90
       50
176
     1
 90
        3
176
     1
 62
     5
420
      255
176
     1
290
     0
176
     1
 90
       50
176
     1
 90
       50
176
     1
 90
       50
176
     1
290
     0
176
     1
 90
       50
176
     1
 62
   256
176
     0
 40
1.0
176
     0
 90
        2
176
     1
  1
strokes_ogs.tif
176
     1
290
     0
176
     1
 40
1.0
176
     1
 40
1.0
176
     1
  0
VISUALSTYLE
  5
41
102
{ACAD_REACTORS
330
29
102
}
330
29
100
AcDbVisualStyle
  2
EdgeColorOff
 70
    22
177
     3
291
     1
 70
    58
 90
        2
176
     0
 90
        2
176
     0
 90
        0
176
     0
 90
        0
176
     0
 40
0.6
176
     0
 40
30.0
176
     0
 62
     7
420
 16777215
176
     0
 90
        1
176
     0
 90
        4
176
     0
 62
     7
176
     0
 62
   257
176
     0
 90
        1
176
     0
 90
        1
176
     0
 40
1.0
176
     0
 90
        8
176
     2
 62
     7
176
     0
 40
1.0
176
     0
 90
        1
176
     0
 90
        6
176
     0
 90
        2
176
     0
 62
     7
176
     0
 90
        5
176
     0
 90
        0
176
     0
 90
        0
176
     0
290
     0
176
     0
 90
        1
176
     0
 40
0.0
176
     0
 90
        0
176
     0
290
     0
176
     0
290
     1
176
     0
290
     1
176
     0
290
     0
176
     0
290
     0
176
     0
290
     0
176
     0
290
     0
176
     0
290
     0
176
     0
290
     0
176
     0
 90
       50
176
     0
 40
0.0
176
     0
 40
1.0
176
     0
 90
        0
176
     0
 62
    18
420
        0
176
     0
 90
       50
176
     0
 90
        3
176
     0
 62
     5
420
      255
176
     0
290
     0
176
     0
 90
       50
176
     0
 90
       50
176
     0
 90
       50
176
     0
290
     0
176
     0
 90
       50
176
     0
 62
   256
176
     0
 40
1.0
176
     0
 90
        2
176
     0
  1
strokes_ogs.tif
176
     0
290
     0
176
     0
 40
1.0
176
     0
 40
1.0
176
     0
  0
VISUALSTYLE
  5
38
102
{ACAD_REACTORS
330
29
102
}
330
29
100
AcDbVisualStyle
  2
Facepattern
 70
    15
177
     3
291
     1
 70
    58
 90
        2
176
     1
 90
        2
176
     1
 90
        0
176
     1
 90
        0
176
     1
 40
0.6
176
     1
 40
30.0
176
     1
 62
     7
420
 16777215
176
     1
 90
        1
176
     1
 90
        4
176
     1
 62
     7
176
     1
 62
   257
176
     1
 90
        1
176
     1
 90
        1
176
     1
 40
1.0
176
     1
 90
        8
176
     1
 62
     7
176
     1
 40
1.0
176
     1
 90
        1
176
     1
 90
        6
176
     1
 90
        2
176
     1
 62
     7
176
     1
 90
        5
176
     1
 90
        0
176
     1
 90
        0
176
     1
290
     0
176
     1
 90
        1
176
     1
 40
0.0
176
     1
 90
        0
176
     1
290
     0
176
     1
290
     1
176
     1
290
     1
176
     1
290
     0
176
     1
290
     0
176
     1
290
     0
176
     1
290
     0
176
     1
290
     0
176
     1
290
     0
176
     1
 90
       50
176
     1
 40
0.0
176
     1
 40
1.0
176
     1
 90
        0
176
     1
 62
    18
420
        0
176
     1
 90
       50
176
     1
 90
        3
176
     1
 62
     5
420
      255
176
     1
290
     0
176
     1
 90
       50
176
     1
 90
       50
176
     1
 90
       50
176
     1
290
     0
176
     1
 90
       50
176
     1
 62
   256
176
     0
 40
1.0
176
     0
 90
        2
176
     1
  1
strokes_ogs.tif
176
     1
290
     0
176
     1
 40
1.0
176
     1
 40
1.0
176
     1
  0
VISUALSTYLE
  5
2A
102
{ACAD_REACTORS
330
29
102
}
330
29
100
AcDbVisualStyle
  2
Flat
 70
     0
177
     3
291
     1
 70
    58
 90
        2
176
     1
 90
        1
176
     1
 90
        1
176
     1
 90
        2
176
     1
 40
0.6
176
     1
 40
30.0
176
     1
 62
     7
420
 16777215
176
     1
 90
        0
176
     1
 90
        0
176
     1
 62
     7
176
     1
 62
   257
176
     1
 90
        1
176
     1
 90
        1
176
     1
 40
1.0
176
     1
 90
        8
176
     1
 62
     7
176
     1
 40
1.0
176
     1
 90
        1
176
     1
 90
        6
176
     1
 90
        2
176
     1
 62
     7
176
     1
 90
        5
176
     1
 90
        0
176
     1
 90
        0
176
     1
290
     0
176
     1
 90
       13
176
     1
 40
0.0
176
     1
 90
        0
176
     1
290
     0
176
     1
290
     1
176
     1
290
     1
176
     1
290
     0
176
     1
290
     0
176
     1
290
     0
176
     1
290
     0
176
     1
290
     0
176
     1
290
     0
176
     1
 90
       50
176
     1
 40
0.0
176
     1
 40
1.0
176
     1
 90
        0
176
     1
 62
    18
420
        0
176
     1
 90
       50
176
     1
 90
        3
176
     1
 62
     5
420
      255
176
     1
290
     0
176
     1
 90
       50
176
     1
 90
       50
176
     1
 90
       50
176
     1
290
     0
176
     1
 90
       50
176
     1
 62
   256
176
     0
 40
1.0
176
     0
 90
        2
176
     1
  1
strokes_ogs.tif
176
     1
290
     0
176
     1
 40
1.0
176
     1
 40
1.0
176
     1
  0
VISUALSTYLE
  5
2B
102
{ACAD_REACTORS
330
29
102
}
330
29
100
AcDbVisualStyle
  2
FlatWithEdges
 70
     1
177
     3
291
     1
 70
    58
 90
        2
176
     1
 90
        1
176
     1
 90
        1
176
     1
 90
        2
176
     1
 40
0.6
176
     1
 40
30.0
176
     1
 62
     7
420
 16777215
176
     1
 90
        1
176
     1
 90
        0
176
     1
 62
     7
176
     1
 62
   257
176
     1
 90
        1
176
     1
 90
        1
176
     1
 40
1.0
176
     1
 90
        0
176
     1
 62
   257
176
     1
 40
1.0
176
     1
 90
        1
176
     1
 90
        6
176
     1
 90
        2
176
     1
 62
     7
176
     1
 90
        5
176
     1
 90
        0
176
     1
 90
        0
176
     1
290
     0
176
     1
 90
       13
176
     1
 40
0.0
176
     1
 90
        0
176
     1
290
     0
176
     1
290
     1
176
     1
290
     1
176
     1
290
     0
176
     1
290
     0
176
     1
290
     0
176
     1
290
     0
176
     1
290
     0
176
     1
290
     0
176
     1
 90
       50
176
     1
 40
0.0
176
     1
 40
1.0
176
     1
 90
        0
176
     1
 62
    18
420
        0
176
     1
 90
       50
176
     1
 90
        3
176
     1
 62
     5
420
      255
176
     1
290
     0
176
     1
 90
       50
176
     1
 90
       50
176
     1
 90
       50
176
     1
290
     0
176
     1
 90
       50
176
     1
 62
   256
176
     0
 40
1.0
176
     0
 90
        2
176
     1
  1
strokes_ogs.tif
176
     1
290
     0
176
     1
 40
1.0
176
     1
 40
1.0
176
     1
  0
VISUALSTYLE
  5
2C
102
{ACAD_REACTORS
330
29
102
}
330
29
100
AcDbVisualStyle
  2
Gouraud
 70
     2
177
     3
291
     1
 70
    58
 90
        2
176
     1
 90
        2
176
     1
 90
        1
176
     1
 90
        2
176
     1
 40
0.6
176
     1
 40
30.0
176
     1
 62
     7
420
 16777215
176
     1
 90
        0
176
     1
 90
        0
176
     1
 62
     7
176
     1
 62
   257
176
     1
 90
        1
176
     1
 90
        1
176
     1
 40
1.0
176
     1
 90
        0
176
     1
 62
     7
176
     1
 40
1.0
176
     1
 90
        1
176
     1
 90
        6
176
     1
 90
        2
176
     1
 62
     7
176
     1
 90
        5
176
     1
 90
        0
176
     1
 90
        0
176
     1
290
     0
176
     1
 90
       13
176
     1
 40
0.0
176
     1
 90
        0
176
     1
290
     0
176
     1
290
     1
176
     1
290
     1
176
     1
290
     0
176
     1
290
     0
176
     1
290
     0
176
     1
290
     0
176
     1
290
     0
176
     1
290
     0
176
     1
 90
       50
176
     1
 40
0.0
176
     1
 40
1.0
176
     1
 90
        0
176
     1
 62
    18
420
        0
176
     1
 90
       50
176
     1
 90
        3
176
     1
 62
     5
420
      255
176
     1
290
     0
176
     1
 90
       50
176
     1
 90
       50
176
     1
 90
       50
176
     1
290
     0
176
     1
 90
       50
176
     1
 62
   256
176
     0
 40
1.0
176
     0
 90
        2
176
     1
  1
strokes_ogs.tif
176
     1
290
     0
176
     1
 40
1.0
176
     1
 40
1.0
176
     1
  0
VISUALSTYLE
  5
2D
102
{ACAD_REACTORS
330
29
102
}
330
29
100
AcDbVisualStyle
  2
GouraudWithEdges
 70
     3
177
     3
291
     1
 70
    58
 90
        2
176
     1
 90
        2
176
     1
 90
        1
176
     1
 90
        2
176
     1
 40
0.6
176
     1
 40
30.0
176
     1
 62
     7
420
 16777215
176
     1
 90
        1
176
     1
 90
        0
176
     1
 62
     7
176
     1
 62
   257
176
     1
 90
        1
176
     1
 90
        1
176
     1
 40
1.0
176
     1
 90
        0
176
     1
 62
   257
176
     1
 40
1.0
176
     1
 90
        1
176
     1
 90
        6
176
     1
 90
        2
176
     1
 62
     7
176
     1
 90
        5
176
     1
 90
        0
176
     1
 90
        0
176
     1
290
     0
176
     1
 90
       13
176
     1
 40
0.0
176
     1
 90
        0
176
     1
290
     0
176
     1
290
     1
176
     1
290
     1
176
     1
290
     0
176
     1
290
     0
176
     1
290
     0
176
     1
290
     0
176
     1
290
     0
176
     1
290
     0
176
     1
 90
       50
176
     1
 40
0.0
176
     1
 40
1.0
176
     1
 90
        0
176
     1
 62
    18
420
        0
176
     1
 90
       50
176
     1
 90
        3
176
     1
 62
     5
420
      255
176
     1
290
     0
176
     1
 90
       50
176
     1
 90
       50
176
     1
 90
       50
176
     1
290
     0
176
     1
 90
       50
176
     1
 62
   256
176
     0
 40
1.0
176
     0
 90
        2
176
     1
  1
strokes_ogs.tif
176
     1
290
     0
176
     1
 40
1.0
176
     1
 40
1.0
176
     1
  0
VISUALSTYLE
  5
31
102
{ACAD_REACTORS
330
29
102
}
330
29
100
AcDbVisualStyle
  2
Hidden
 70
     6
177
     3
291
     0
 70
    58
 90
        1
176
     1
 90
        2
176
     1
 90
        2
176
     1
 90
        0
176
     1
 40
0.6
176
     1
 40
30.0
176
     1
 62
     7
420
 16777215
176
     1
 90
        2
176
     1
 90
        2
176
     1
 62
     7
176
     1
 62
   257
176
     1
 90
        2
176
     1
 90
        1
176
     1
 40
40.0
176
     1
 90
        0
176
     1
 62
   257
176
     1
 40
1.0
176
     1
 90
        1
176
     1
 90
        6
176
     1
 90
        2
176
     1
 62
     7
176
     1
 90
        3
176
     1
 90
        0
176
     1
 90
        0
176
     1
290
     0
176
     1
 90
        1
176
     1
 40
0.0
176
     1
 90
        0
176
     1
290
     0
176
     1
290
     1
176
     1
290
     1
176
     1
290
     0
176
     1
290
     0
176
     1
290
     0
176
     1
290
     0
176
     1
290
     0
176
     1
290
     0
176
     1
 90
       50
176
     1
 40
0.0
176
     1
 40
1.0
176
     1
 90
        0
176
     1
 62
    18
420
        0
176
     1
 90
       50
176
     1
 90
        3
176
     1
 62
     5
420
      255
176
     1
290
     0
176
     1
 90
       50
176
     1
 90
       50
176
     1
 90
       50
176
     1
290
     0
176
     1
 90
       50
176
     1
 62
   256
176
     0
 40
1.0
176
     0
 90
        2
176
     1
  1
strokes_ogs.tif
176
     1
290
     0
176
     1
 40
1.0
176
     1
 40
1.0
176
     1
  0
VISUALSTYLE
  5
3F
102
{ACAD_REACTORS
330
29
102
}
330
29
100
AcDbVisualStyle
  2
JitterOff
 70
    20
177
     3
291
     1
 70
    58
 90
        2
176
     0
 90
        2
176
     0
 90
        0
176
     0
 90
        0
176
     0
 40
0.6
176
     0
 40
30.0
176
     0
 62
     7
420
 16777215
176
     0
 90
        1
176
     0
 90
        4
176
     0
 62
     7
176
     0
 62
   257
176
     0
 90
        1
176
     0
 90
        1
176
     0
 40
1.0
176
     0
 90
       10
176
     2
 62
     7
176
     0
 40
1.0
176
     0
 90
        1
176
     0
 90
        6
176
     0
 90
        2
176
     0
 62
     7
176
     0
 90
        5
176
     0
 90
        0
176
     0
 90
        0
176
     0
290
     0
176
     0
 90
        1
176
     0
 40
0.0
176
     0
 90
        0
176
     0
290
     0
176
     0
290
     1
176
     0
290
     1
176
     0
290
     0
176
     0
290
     0
176
     0
290
     0
176
     0
290
     0
176
     0
290
     0
176
     0
290
     0
176
     0
 90
       50
176
     0
 40
0.0
176
     0
 40
1.0
176
     0
 90
        0
176
     0
 62
    18
420
        0
176
     0
 90
       50
176
     0
 90
        3
176
     0
 62
     5
420
      255
176
     0
290
     0
176
     0
 90
       50
176
     0
 90
       50
176
     0
 90
       50
176
     0
290
     0
176
     0
 90
       50
176
     0
 62
   256
176
     0
 40
1.0
176
     0
 90
        2
176
     0
  1
strokes_ogs.tif
176
     0
290
     0
176
     0
 40
1.0
176
     0
 40
1.0
176
     0
  0
VISUALSTYLE
  5
37
102
{ACAD_REACTORS
330
29
102
}
330
29
100
AcDbVisualStyle
  2
Linepattern
 70
    14
177
     3
291
     1
 70
    58
 90
        2
176
     1
 90
        2
176
     1
 90
        0
176
     1
 90
        0
176
     1
 40
0.6
176
     1
 40
30.0
176
     1
 62
     7
420
 16777215
176
     1
 90
        1
176
     1
 90
        4
176
     1
 62
     7
176
     1
 62
   257
176
     1
 90
        7
176
     1
 90
        7
176
     1
 40
1.0
176
     1
 90
        8
176
     1
 62
     7
176
     1
 40
1.0
176
     1
 90
        1
176
     1
 90
        6
176
     1
 90
        2
176
     1
 62
     7
176
     1
 90
        5
176
     1
 90
        0
176
     1
 90
        0
176
     1
290
     0
176
     1
 90
        1
176
     1
 40
0.0
176
     1
 90
        0
176
     1
290
     0
176
     1
290
     1
176
     1
290
     1
176
     1
290
     0
176
     1
290
     0
176
     1
290
     0
176
     1
290
     0
176
     1
290
     0
176
     1
290
     0
176
     1
 90
       50
176
     1
 40
0.0
176
     1
 40
1.0
176
     1
 90
        0
176
     1
 62
    18
420
        0
176
     1
 90
       50
176
     1
 90
        3
176
     1
 62
     5
420
      255
176
     1
290
     0
176
     1
 90
       50
176
     1
 90
       50
176
     1
 90
       50
176
     1
290
     0
176
     1
 90
       50
176
     1
 62
   256
176
     0
 40
1.0
176
     0
 90
        2
176
     1
  1
strokes_ogs.tif
176
     1
290
     0
176
     1
 40
1.0
176
     1
 40
1.0
176
     1
  0
VISUALSTYLE
  5
40
102
{ACAD_REACTORS
330
29
102
}
330
29
100
AcDbVisualStyle
  2
OverhangOff
 70
    21
177
     3
291
     1
 70
    58
 90
        2
176
     0
 90
        2
176
     0
 90
        0
176
     0
 90
        0
176
     0
 40
0.6
176
     0
 40
30.0
176
     0
 62
     7
420
 16777215
176
     0
 90
        1
176
     0
 90
        4
176
     0
 62
     7
176
     0
 62
   257
176
     0
 90
        1
176
     0
 90
        1
176
     0
 40
1.0
176
     0
 90
        9
176
     2
 62
     7
176
     0
 40
1.0
176
     0
 90
        1
176
     0
 90
        6
176
     0
 90
        2
176
     0
 62
     7
176
     0
 90
        5
176
     0
 90
        0
176
     0
 90
        0
176
     0
290
     0
176
     0
 90
        1
176
     0
 40
0.0
176
     0
 90
        0
176
     0
290
     0
176
     0
290
     1
176
     0
290
     1
176
     0
290
     0
176
     0
290
     0
176
     0
290
     0
176
     0
290
     0
176
     0
290
     0
176
     0
290
     0
176
     0
 90
       50
176
     0
 40
0.0
176
     0
 40
1.0
176
     0
 90
        0
176
     0
 62
    18
420
        0
176
     0
 90
       50
176
     0
 90
        3
176
     0
 62
     5
420
      255
176
     0
290
     0
176
     0
 90
       50
176
     0
 90
       50
176
     0
 90
       50
176
     0
290
     0
176
     0
 90
       50
176
     0
 62
   256
176
     0
 40
1.0
176
     0
 90
        2
176
     0
  1
strokes_ogs.tif
176
     0
290
     0
176
     0
 40
1.0
176
     0
 40
1.0
176
     0
  0
VISUALSTYLE
  5
33
102
{ACAD_REACTORS
330
29
102
}
330
29
100
AcDbVisualStyle
  2
Realistic
 70
     8
177
     3
291
     0
 70
    58
 90
        2
176
     1
 90
        3
176
     1
 90
        0
176
     1
 90
        2
176
     1
 40
0.6
176
     1
 40
30.0
176
     1
 62
     7
420
 16777215
176
     1
 90
        0
176
     1
 90
        0
176
     1
 62
     7
176
     1
 62
   257
176
     1
 90
        1
176
     1
 90
        1
176
     1
 40
1.0
176
     1
 90
        8
176
     1
 62
   257
176
     1
 40
1.0
176
     1
 90
        1
176
     1
 90
        6
176
     1
 90
        2
176
     1
 62
     7
176
     1
 90
        3
176
     1
 90
        0
176
     1
 90
        0
176
     1
290
     0
176
     1
 90
       13
176
     1
 40
0.0
176
     1
 90
        0
176
     1
290
     0
176
     1
290
     1
176
     1
290
     1
176
     1
290
     0
176
     1
290
     0
176
     1
290
     0
176
     1
290
     0
176
     1
290
     0
176
     1
290
     0
176
     1
 90
       50
176
     1
 40
0.0
176
     1
 40
1.0
176
     1
 90
        0
176
     1
 62
    18
420
        0
176
     1
 90
       50
176
     1
 90
        3
176
     1
 62
     5
420
      255
176
     1
290
     0
176
     1
 90
       50
176
     1
 90
       50
176
     1
 90
       50
176
     1
290
     0
176
     1
 90
       50
176
     1
 62
   256
176
     0
 40
1.0
176
     0
 90
        2
176
     1
  1
strokes_ogs.tif
176
     1
290
     0
176
     1
 40
1.0
176
     1
 40
1.0
176
     1
  0
VISUALSTYLE
  5
3E
102
{ACAD_REACTORS
330
29
102
}
330
29
100
AcDbVisualStyle
  2
Shaded
 70
    27
177
     3
291
     0
 70
    58
 90
        2
176
     1
 90
        2
176
     1
 90
        1
176
     1
 90
        2
176
     1
 40
0.6
176
     1
 40
30.0
176
     1
 62
     7
420
 16777215
176
     1
 90
        0
176
     1
 90
        4
176
     1
 62
     7
176
     1
 62
   257
176
     1
 90
        1
176
     1
 90
        1
176
     1
 40
1.0
176
     1
 90
        8
176
     1
 62
   257
176
     1
 40
1.0
176
     1
 90
        1
176
     1
 90
        6
176
     1
 90
        2
176
     1
 62
     8
420
  7895160
176
     1
 90
        3
176
     1
 90
        0
176
     1
 90
        0
176
     1
290
     0
176
     1
 90
        5
176
     1
 40
0.0
176
     1
 90
        0
176
     1
290
     0
176
     1
290
     1
176
     1
290
     1
176
     1
290
     0
176
     1
290
     0
176
     1
290
     0
176
     1
290
     0
176
     1
290
     0
176
     1
290
     0
176
     1
 90
       50
176
     1
 40
0.0
176
     1
 40
1.0
176
     1
 90
        0
176
     1
 62
    18
420
        0
176
     1
 90
       50
176
     1
 90
        3
176
     1
 62
     5
420
      255
176
     1
290
     0
176
     1
 90
       50
176
     1
 90
       50
176
     1
 90
       50
176
     1
290
     0
176
     1
 90
       50
176
     1
 62
   256
176
     0
 40
1.0
176
     0
 90
        2
176
     1
  1
strokes_ogs.tif
176
     1
290
     0
176
     1
 40
1.0
176
     1
 40
1.0
176
     1
  0
VISUALSTYLE
  5
3D
102
{ACAD_REACTORS
330
29
102
}
330
29
100
AcDbVisualStyle
  2
Shaded with edges
 70
    26
177
     3
291
     0
 70
    58
 90
        2
176
     1
 90
        2
176
     1
 90
        1
176
     1
 90
        2
176
     1
 40
0.6
176
     1
 40
30.0
176
     1
 62
     7
420
 16777215
176
     1
 90
        1
176
     1
 90
        2
176
     1
 62
     7
176
     1
 62
   257
176
     1
 90
        2
176
     1
 90
        1
176
     1
 40
1.0
176
     1
 90
        8
176
     1
 62
   257
176
     1
 40
1.0
176
     1
 90
        1
176
     1
 90
        6
176
     1
 90
        2
176
     1
 62
     7
176
     1
 90
        3
176
     1
 90
        0
176
     1
 90
        0
176
     1
290
     0
176
     1
 90
        5
176
     1
 40
0.0
176
     1
 90
        0
176
     1
290
     0
176
     1
290
     1
176
     1
290
     1
176
     1
290
     0
176
     1
290
     0
176
     1
290
     0
176
     1
290
     0
176
     1
290
     0
176
     1
290
     0
176
     1
 90
       50
176
     1
 40
0.0
176
     1
 40
1.0
176
     1
 90
        0
176
     1
 62
    18
420
        0
176
     1
 90
       50
176
     1
 90
        3
176
     1
 62
     5
420
      255
176
     1
290
     0
176
     1
 90
       50
176
     1
 90
       50
176
     1
 90
       50
176
     1
290
     0
176
     1
 90
       50
176
     1
 62
   256
176
     0
 40
1.0
176
     0
 90
        2
176
     1
  1
strokes_ogs.tif
176
     1
290
     0
176
     1
 40
1.0
176
     1
 40
1.0
176
     1
  0
VISUALSTYLE
  5
3A
102
{ACAD_REACTORS
330
29
102
}
330
29
100
AcDbVisualStyle
  2
Shades of Gray
 70
    23
177
     3
291
     0
 70
    58
 90
        2
176
     1
 90
        2
176
     1
 90
        3
176
     1
 90
        0
176
     1
 40
0.6
176
     1
 40
30.0
176
     1
 62
     7
420
 16777215
176
     1
 90
        2
176
     1
 90
        2
176
     1
 62
     7
176
     1
 62
     7
176
     1
 90
        1
176
     1
 90
        1
176
     1
 40
40.0
176
     1
 90
        8
176
     1
 62
     7
176
     1
 40
1.0
176
     1
 90
        1
176
     1
 90
        6
176
     1
 90
        2
176
     1
 62
     7
176
     1
 90
        3
176
     1
 90
        0
176
     1
 90
        0
176
     1
290
     0
176
     1
 90
        1
176
     1
 40
0.0
176
     1
 90
        0
176
     1
290
     0
176
     1
290
     1
176
     1
290
     1
176
     1
290
     0
176
     1
290
     0
176
     1
290
     0
176
     1
290
     0
176
     1
290
     0
176
     1
290
     0
176
     1
 90
       50
176
     1
 40
0.0
176
     1
 40
1.0
176
     1
 90
        0
176
     1
 62
    18
420
        0
176
     1
 90
       50
176
     1
 90
        3
176
     1
 62
     5
420
      255
176
     1
290
     0
176
     1
 90
       50
176
     1
 90
       50
176
     1
 90
       50
176
     1
290
     0
176
     1
 90
       50
176
     1
 62
   256
176
     0
 40
1.0
176
     0
 90
        2
176
     1
  1
strokes_ogs.tif
176
     1
290
     0
176
     1
 40
1.0
176
     1
 40
1.0
176
     1
  0
VISUALSTYLE
  5
3B
102
{ACAD_REACTORS
330
29
102
}
330
29
100
AcDbVisualStyle
  2
Sketchy
 70
    24
177
     3
291
     0
 70
    58
 90
        1
176
     1
 90
        2
176
     1
 90
        2
176
     1
 90
        0
176
     1
 40
0.6
176
     1
 40
30.0
176
     1
 62
     7
420
 16777215
176
     1
 90
        2
176
     1
 90
        2
176
     1
 62
     7
176
     1
 62
     7
176
     1
 90
        1
176
     1
 90
        1
176
     1
 40
40.0
176
     1
 90
       11
176
     1
 62
     7
176
     1
 40
1.0
176
     1
 90
        1
176
     1
 90
        6
176
     1
 90
        2
176
     1
 62
     7
176
     1
 90
        6
176
     1
 90
        0
176
     1
 90
        0
176
     1
290
     0
176
     1
 90
        1
176
     1
 40
0.0
176
     1
 90
        0
176
     1
290
     0
176
     1
290
     1
176
     1
290
     1
176
     1
290
     0
176
     1
290
     0
176
     1
290
     0
176
     1
290
     0
176
     1
290
     0
176
     1
290
     0
176
     1
 90
       50
176
     1
 40
0.0
176
     1
 40
1.0
176
     1
 90
        0
176
     1
 62
    18
420
        0
176
     1
 90
       50
176
     1
 90
        3
176
     1
 62
     5
420
      255
176
     1
290
     0
176
     1
 90
       50
176
     1
 90
       50
176
     1
 90
       50
176
     1
290
     0
176
     1
 90
       50
176
     1
 62
   256
176
     0
 40
1.0
176
     0
 90
        2
176
     1
  1
strokes_ogs.tif
176
     1
290
     0
176
     1
 40
1.0
176
     1
 40
1.0
176
     1
  0
VISUALSTYLE
  5
36
102
{ACAD_REACTORS
330
29
102
}
330
29
100
AcDbVisualStyle
  2
Thicken
 70
    13
177
     3
291
     1
 70
    58
 90
        2
176
     1
 90
        2
176
     1
 90
        0
176
     1
 90
        0
176
     1
 40
0.6
176
     1
 40
30.0
176
     1
 62
     7
420
 16777215
176
     1
 90
        1
176
     1
 90
        4
176
     1
 62
     7
176
     1
 62
   257
176
     1
 90
        1
176
     1
 90
        1
176
     1
 40
1.0
176
     1
 90
       12
176
     1
 62
     7
176
     1
 40
1.0
176
     1
 90
        1
176
     1
 90
        6
176
     1
 90
        2
176
     1
 62
     7
176
     1
 90
        5
176
     1
 90
        0
176
     1
 90
        0
176
     1
290
     0
176
     1
 90
        1
176
     1
 40
0.0
176
     1
 90
        0
176
     1
290
     0
176
     1
290
     1
176
     1
290
     1
176
     1
290
     0
176
     1
290
     0
176
     1
290
     0
176
     1
290
     0
176
     1
290
     0
176
     1
290
     0
176
     1
 90
       50
176
     1
 40
0.0
176
     1
 40
1.0
176
     1
 90
        0
176
     1
 62
    18
420
        0
176
     1
 90
       50
176
     1
 90
        3
176
     1
 62
     5
420
      255
176
     1
290
     0
176
     1
 90
       50
176
     1
 90
       50
176
     1
 90
       50
176
     1
290
     0
176
     1
 90
       50
176
     1
 62
   256
176
     0
 40
1.0
176
     0
 90
        2
176
     1
  1
strokes_ogs.tif
176
     1
290
     0
176
     1
 40
1.0
176
     1
 40
1.0
176
     1
  0
VISUALSTYLE
  5
30
102
{ACAD_REACTORS
330
29
102
}
330
29
100
AcDbVisualStyle
  2
Wireframe
 70
     5
177
     3
291
     0
 70
    58
 90
        0
176
     1
 90
        2
176
     1
 90
        0
176
     1
 90
        0
176
     1
 40
0.6
176
     1
 40
30.0
176
     1
 62
     7
420
 16777215
176
     1
 90
        1
176
     1
 90
        4
176
     1
 62
     7
176
     1
 62
   257
176
     1
 90
        1
176
     1
 90
        1
176
     1
 40
1.0
176
     1
 90
        0
176
     1
 62
   257
176
     1
 40
1.0
176
     1
 90
        1
176
     1
 90
        6
176
     1
 90
        2
176
     1
 62
     7
176
     1
 90
        3
176
     1
 90
        0
176
     1
 90
        0
176
     1
290
     0
176
     1
 90
        1
176
     1
 40
0.0
176
     1
 90
        0
176
     1
290
     0
176
     1
290
     1
176
     1
290
     1
176
     1
290
     0
176
     1
290
     0
176
     1
290
     0
176
     1
290
     0
176
     1
290
     0
176
     1
290
     0
176
     1
 90
       50
176
     1
 40
0.0
176
     1
 40
1.0
176
     1
 90
        0
176
     1
 62
    18
420
        0
176
     1
 90
       50
176
     1
 90
        3
176
     1
 62
     5
420
      255
176
     1
290
     0
176
     1
 90
       50
176
     1
 90
       50
176
     1
 90
       50
176
     1
290
     0
176
     1
 90
       50
176
     1
 62
   256
176
     0
 40
1.0
176
     0
 90
        2
176
     1
  1
strokes_ogs.tif
176
     1
290
     0
176
     1
 40
1.0
176
     1
 40
1.0
176
     1
  0
VISUALSTYLE
  5
3C
102
{ACAD_REACTORS
330
29
102
}
330
29
100
AcDbVisualStyle
  2
X-Ray
 70
    25
177
     3
291
     0
 70
    58
 90
        2
176
     1
 90
        2
176
     1
 90
        1
176
     1
 90
        1
176
     1
 40
0.5
176
     1
 40
30.0
176
     1
 62
     7
420
 16777215
176
     1
 90
        1
176
     1
 90
        0
176
     1
 62
     7
176
     1
 62
   257
176
     1
 90
        1
176
     1
 90
        1
176
     1
 40
1.0
176
     1
 90
        8
176
     1
 62
     7
176
     1
 40
1.0
176
     1
 90
        1
176
     1
 90
        6
176
     1
 90
        2
176
     1
 62
     7
176
     1
 90
        3
176
     1
 90
        0
176
     1
 90
        0
176
     1
290
     0
176
     1
 90
       13
176
     1
 40
0.0
176
     1
 90
        0
176
     1
290
     0
176
     1
290
     1
176
     1
290
     1
176
     1
290
     0
176
     1
290
     0
176
     1
290
     0
176
     1
290
     0
176
     1
290
     0
176
     1
290
     0
176
     1
 90
       50
176
     1
 40
0.0
176
     1
 40
1.0
176
     1
 90
        0
176
     1
 62
    18
420
        0
176
     1
 90
       50
176
     1
 90
        3
176
     1
 62
     5
420
      255
176
     1
290
     0
176
     1
 90
       50
176
     1
 90
       50
176
     1
 90
       50
176
     1
290
     0
176
     1
 90
       50
176
     1
 62
   256
176
     0
 40
1.0
176
     0
 90
        2
176
     1
  1
strokes_ogs.tif
176
     1
290
     0
176
     1
 40
1.0
176
     1
 40
1.0
176
     1
  0
DICTIONARYVAR
  5
96
102
{ACAD_REACTORS
330
91
102
}
330
91
100
DictionaryVariables
280
     0
  1
1:1
  0
DICTIONARYVAR
  5
93
102
{ACAD_REACTORS
330
91
102
}
330
91
100
DictionaryVariables
280
     0
  1
STANDARD
  0
DICTIONARYVAR
  5
92
102
{ACAD_REACTORS
330
91
102
}
330
91
100
DictionaryVariables
280
     0
  1
STANDARD
  0
DICTIONARYVAR
  5
94
102
{ACAD_REACTORS
330
91
102
}
330
91
100
DictionaryVariables
280
     0
  1
Imperial24
  0
DICTIONARYVAR
  5
95
102
{ACAD_REACTORS
330
91
102
}
330
91
100
DictionaryVariables
280
     0
  1
Imperial24
  0
DICTIONARY
  5
1A
330
19
100
AcDbDictionary
280
     1
281
     1
  3
BUMPTILE
360
1C
  3
DIFFUSETILE
360
1B
  3
OPACITYTILE
360
1F
  3
REFLECTIONTILE
360
1E
  3
REFRACTIONTILE
360
20
  3
SPECULARTILE
360
1D
  0
DICTIONARY
  5
12
330
11
100
AcDbDictionary
280
     1
281
     1
  3
BUMPTILE
360
14
  3
DIFFUSETILE
360
13
  3
OPACITYTILE
360
17
  3
REFLECTIONTILE
360
16
  3
REFRACTIONTILE
360
18
  3
SPECULARTILE
360
15
  0
DICTIONARY
  5
22
330
21
100
AcDbDictionary
280
     1
281
     1
  3
BUMPTILE
360
24
  3
DIFFUSETILE
360
23
  3
OPACITYTILE
360
27
  3
REFLECTIONTILE
360
26
  3
REFRACTIONTILE
360
28
  3
SPECULARTILE
360
25
  0
DICTIONARY
  5
97
330
65
100
AcDbDictionary
280
     1
281
     1
  3
ACAD_ROUNDTRIP_2008_TABLESTYLE_CELLSTYLEMAP
360
98
  0
XRECORD
  5
1C
102
{ACAD_REACTORS
330
1A
102
}
330
1A
100
AcDbXrecord
280
     1
270
     1
271
     1
  0
XRECORD
  5
1B
102
{ACAD_REACTORS
330
1A
102
}
330
1A
100
AcDbXrecord
280
     1
270
     1
271
     1
  0
XRECORD
  5
1F
102
{ACAD_REACTORS
330
1A
102
}
330
1A
100
AcDbXrecord
280
     1
270
     1
271
     1
  0
XRECORD
  5
1E
102
{ACAD_REACTORS
330
1A
102
}
330
1A
100
AcDbXrecord
280
     1
270
     1
271
     1
  0
XRECORD
  5
20
102
{ACAD_REACTORS
330
1A
102
}
330
1A
100
AcDbXrecord
280
     1
270
     1
271
     1
  0
XRECORD
  5
1D
102
{ACAD_REACTORS
330
1A
102
}
330
1A
100
AcDbXrecord
280
     1
270
     1
271
     1
  0
XRECORD
  5
14
102
{ACAD_REACTORS
330
12
102
}
330
12
100
AcDbXrecord
280
     1
270
     1
271
     1
  0
XRECORD
  5
13
102
{ACAD_REACTORS
330
12
102
}
330
12
100
AcDbXrecord
280
     1
270
     1
271
     1
  0
XRECORD
  5
17
102
{ACAD_REACTORS
330
12
102
}
330
12
100
AcDbXrecord
280
     1
270
     1
271
     1
  0
XRECORD
  5
16
102
{ACAD_REACTORS
330
12
102
}
330
12
100
AcDbXrecord
280
     1
270
     1
271
     1
  0
XRECORD
  5
18
102
{ACAD_REACTORS
330
12
102
}
330
12
100
AcDbXrecord
280
     1
270
     1
271
     1
  0
XRECORD
  5
15
102
{ACAD_REACTORS
330
12
102
}
330
12
100
AcDbXrecord
280
     1
270
     1
271
     1
  0
XRECORD
  5
24
102
{ACAD_REACTORS
330
22
102
}
330
22
100
AcDbXrecord
280
     1
270
     1
271
     1
  0
XRECORD
  5
23
102
{ACAD_REACTORS
330
22
102
}
330
22
100
AcDbXrecord
280
     1
270
     1
271
     1
  0
XRECORD
  5
27
102
{ACAD_REACTORS
330
22
102
}
330
22
100
AcDbXrecord
280
     1
270
     1
271
     1
  0
XRECORD
  5
26
102
{ACAD_REACTORS
330
22
102
}
330
22
100
AcDbXrecord
280
     1
270
     1
271
     1
  0
XRECORD
  5
28
102
{ACAD_REACTORS
330
22
102
}
330
22
100
AcDbXrecord
280
     1
270
     1
271
     1
  0
XRECORD
  5
25
102
{ACAD_REACTORS
330
22
102
}
330
22
100
AcDbXrecord
280
     1
270
     1
271
     1
  0
CELLSTYLEMAP
  5
98
102
{ACAD_REACTORS
330
97
102
}
330
97
100
AcDbCellStyleMap
 90
        3
300
CELLSTYLE
  1
TABLEFORMAT_BEGIN
 90
        5
170
     1
 91
        0
 92
    32768
 62
   257
 93
        1
300
CONTENTFORMAT
  1
CONTENTFORMAT_BEGIN
 90
        0
 91
        0
 92
      512
 93
        0
300

 40
0.0
140
1.0
 94
        5
 62
     0
340
55
144
0.25
309
CONTENTFORMAT_END
171
     0
 94
        0
309
TABLEFORMAT_END
  1
CELLSTYLE_BEGIN
 90
        1
 91
        1
300
_TITLE
309
CELLSTYLE_END
300
CELLSTYLE
  1
TABLEFORMAT_BEGIN
 90
        5
170
     1
 91
        0
 92
        0
 62
   257
 93
        1
300
CONTENTFORMAT
  1
CONTENTFORMAT_BEGIN
 90
        0
 91
        0
 92
      512
 93
        0
300

 40
0.0
140
1.0
 94
        5
 62
     0
340
55
144
0.18
309
CONTENTFORMAT_END
171
     0
 94
        0
309
TABLEFORMAT_END
  1
CELLSTYLE_BEGIN
 90
        2
 91
        1
300
_HEADER
309
CELLSTYLE_END
300
CELLSTYLE
  1
TABLEFORMAT_BEGIN
 90
        5
170
     1
 91
        0
 92
        0
 62
   257
 93
        1
300
CONTENTFORMAT
  1
CONTENTFORMAT_BEGIN
 90
        0
 91
        0
 92
      512
 93
        0
300

 40
0.0
140
1.0
 94
        2
 62
     0
340
55
144
0.18
309
CONTENTFORMAT_END
171
     0
 94
        0
309
TABLEFORMAT_END
  1
CELLSTYLE_BEGIN
 90
        3
 91
        2
300
_DATA
309
CELLSTYLE_END
  0
ENDSEC
  0
EOF
