<?xml version="1.0" encoding="UTF-8"?>
<svg id="Layer_1" data-name="Layer 1" xmlns="http://www.w3.org/2000/svg" viewBox="0 0 500 500">
  <defs>
    <style>
      .cls-1 {
        fill: #fff;
      }

      .cls-2 {
        fill: #831618;
      }
    </style>
  </defs>
  <g>
    <g>
      <path d="M404.69,291.78c0-77.84,.02-155.7,0-233.54,0-10.31-3.95-18.92-11.49-25.92-7.18-6.67-15.82-9.34-25.47-9.32-20.07,.03-40.14,.03-60.21,.03-59.06,0-118.11-.02-177.16-.03-11.34,0-20.72,4.34-28.15,12.89-6.27,7.22-8.35,15.73-8.34,25.12,.08,59.52,.04,119.04,.04,178.55,0,49.66-.01,99.31,0,148.97,0,11.71-.06,23.43,.17,35.14,.17,8.21,3.52,15.25,9.04,21.3,8.08,8.86,18.27,11.9,30.02,11.88,72.97-.12,145.95-.03,218.92-.1,7.99-.01,16.05,.84,23.98-.63,17.04-3.17,28.65-17.63,28.66-35.57,.03-42.93-.01-85.85-.01-128.78Zm-2.43-51.84h-.05c0,59.4,0,118.79,0,178.2,0,5.01-.29,9.96-2.06,14.73-4.8,12.96-17.23,21.4-31.66,21.4-77.27,0-154.53-.02-231.79-.03-2.55,0-5.11,.06-7.66-.03-18.18-.65-31.86-14.28-32.59-32.44-.03-.93-.02-1.85-.02-2.78,0-119.38,.02-238.75-.03-358.13,0-9.73,2.62-18.27,9.62-25.26,6.96-6.93,15.36-10.01,25.14-10,56.96,.06,113.93,.03,170.89,.03,22.28,0,44.55-.09,66.82,.03,16.55,.09,29.64,10.91,32.75,26.74,.84,4.24,.62,8.55,.63,12.84,0,58.24,0,116.48,0,174.72Z"/>
      <path class="cls-1" d="M402.26,239.93h-.05c0,59.4,0,118.79,0,178.2,0,5.01-.29,9.96-2.06,14.73-4.8,12.96-17.23,21.4-31.66,21.4-77.27,0-154.53-.02-231.79-.03-2.55,0-5.11,.06-7.66-.03-18.18-.65-31.86-14.28-32.59-32.44-.03-.93-.02-1.85-.02-2.78,0-119.38,.02-238.75-.03-358.13,0-9.73,2.62-18.27,9.62-25.26,6.96-6.93,15.36-10.01,25.14-10,56.96,.06,113.93,.03,170.89,.03,22.28,0,44.55-.09,66.82,.03,16.55,.09,29.64,10.91,32.75,26.74,.84,4.24,.62,8.55,.63,12.84,0,58.24,0,116.48,0,174.72Z"/>
    </g>
    <path class="cls-2" d="M116.89,80.77c0-6.63,3.31-11.31,8.71-14.06l-.07-.24c-4.86-2.75-6.96-7.27-6.96-11.8,0-8.32,5.87-13.98,13.57-13.98,8.51,0,12.76,6.38,12.76,12.93,0,4.44-1.82,9.21-7.23,12.28v.24c5.47,2.59,8.85,7.19,8.85,13.58,0,9.13-6.55,15.27-14.92,15.27-9.18,0-14.72-6.55-14.72-14.22Zm23.64-.32c0-6.38-3.71-9.46-9.66-11.48-5.13,1.78-7.9,5.82-7.9,10.83-.2,5.33,3.17,10.02,8.78,10.02s8.78-3.96,8.78-9.37Zm-16.34-26.26c0,5.25,3.31,8.08,8.37,9.7,3.78-1.54,6.69-4.77,6.69-9.54,0-4.2-2.09-8.57-7.43-8.57-4.93,0-7.63,3.88-7.63,8.4Z"/>
  </g>
  <g>
    <path class="cls-2" d="M203.54,333.37c.5-7.67,1-15.34,1.49-23.01,.15-2.41,.72-4.46,3.6-4.88,23.43-3.48,45.75-11.84,69.12-15.59,1.47-.24,2.99-.34,4.48-.28,8.6,.38,11.49,4.27,8.97,12.53-5.2,17.06-7.25,34.42-5.91,52.24,.32,4.27,1.76,5.62,5.98,6,16.86,1.52,32.82,5.9,46.45,16.59,6.73,5.28,10.28,11.94,8.17,20.61-2.05,8.43-8.59,12.35-16.36,13.38-9.35,1.25-18.38,3.04-27.24,6.42-6.24,2.38-12.76,1.6-19.28-.6-13.35-4.51-26.61-9.15-38.97-16.01-2.38-1.32-4.95-1.76-6.78,.19-5.24,5.58-11.14,3.86-17.2,2.2-7.26-1.98-7.24-1.92-8.08,5.66-.32,2.91,.09,6.61-3.86,7.2-3.62,.55-5.24-2.75-6.47-5.34-2.33-4.89-4.56-9.93-5.99-15.14-1.26-4.55-3.69-5.94-8.08-5.7-6.24,.33-12.31-1.07-18.3-2.64-3.49-.91-6.67-2.54-9.09-5.32-1.76-2.03-1.87-4.54-1.07-6.89,.9-2.65,3.44-1.9,5.34-1.72,6.34,.58,12.7,1.12,18.97,2.2,5.55,.96,5.84-1.52,4.93-5.84-1.63-7.7-3.03-15.45-4.44-23.19-.46-2.55-1.41-5.74,1.49-7.11,2.9-1.37,5.33,.97,7.31,2.95,3.29,3.28,4.73,7.59,5.94,11.95,.5,1.8,.68,3.69,1.17,5.5,5.14,18.81,5.28,16,21.27,12.35,3.97-.91,5.67-3.22,5.4-7.21-.1-1.49,.29-3.07-.05-4.48-.47-1.95,1.56-5.23-1.78-5.62-2.88-.34-5.95,.57-7.56,3.74-.93,1.83-2.21,3.5-3.08,5.35-2.27,4.81-4.29,2.86-6.06-.24-3.06-5.34-4.06-11.24-4.15-17.31-.07-4.31-.01-8.63-.01-12.94-.1,0-.2-.01-.29-.02Zm70.06,72.16c4.59,.26,8.41-1.58,11.91-4.28,4.18-3.22,8.39-6.12,14.04-6.39,4.47-.22,8.97-.93,13.32-1.96,4.2-1,6.59-4.06,7.2-8.42,.57-4-2.3-5.59-5.02-7.31-6.37-4.02-13.7-4.88-20.86-6.23-6.23-1.18-6.26-1.09-5.57,5.38,1.01,9.52,.08,11.27-8.59,15.13-2.55,1.14-5.3,1.84-7.96,2.72-2.92,.98-5.07,.41-6.26-2.77-.63-1.68-1.36-3.82-3.94-2.94-3.77,1.28-7.05,3.51-10.25,5.79-1.75,1.25-.32,2.32,.76,3.01,6.52,4.16,13.23,7.86,21.21,8.27Zm-11.17-50.55q-.27-8.49-7.85-6.46c-1.81,.48-3.62,.98-5.43,1.44-9.37,2.39-9.52,2.75-8.84,12.64,.21,3.08,1.38,4.05,4.22,3.29,3.98-1.05,7.91-2.34,11.94-3.14,4.75-.94,6.93-3.38,5.96-7.78Zm-1.02-24.17c1.53-6.01-1.15-6.44-5.91-4.88-3.89,1.27-7.94,2.06-11.96,2.9-6.16,1.28-4.54,6.24-4.28,9.91,.32,4.54,4.13,2.54,6.57,2.19,3.13-.44,6.14-1.73,9.26-2.13,4.96-.63,7.68-2.69,6.31-7.99Zm1.16-20.79c.78-4.6-1.06-5.76-5.02-4.57-3.21,.96-6.44,2.17-9.74,2.47-5.82,.53-7.78,3.76-8.23,9.12-.27,3.2,.6,4.19,3.59,3.59,4.2-.85,8.36-2.15,12.6-2.48,5.62-.43,7.43-3.32,6.8-8.14Zm-.53,66.22c.11-4.03-.36-4.58-3.92-3.78-4.57,1.03-9.02,2.58-13.58,3.64-4.23,.98-3.97,3.93-3.36,6.99,.69,3.44,3.41,3.2,5.78,2.43,3.73-1.21,7.25-3.1,11-4.19,3.12-.91,4.29-2.67,4.07-5.09Zm-37.62,5.83c-4.27,1.36-8.54,2.76-12.83,4.07-2.3,.7-3.76,1.86-2.64,4.46,1,2.3,1.4,5.55,5.05,4.87,4.61-.87,9-2.53,13.2-4.62,3.29-1.63,.58-3.88,.34-5.81-.21-1.63-.56-3.54-3.12-2.97Zm-8.32-42.21c.32,2.5-.73,6.03,4.2,5.82,5.96-.26,7.34-1.5,7.25-7.82-.03-2.13,1.05-5.06-3.17-4.98-6.69,.12-8.28,1.22-8.28,6.99Zm.03-20.43c-.13,2.49,.01,5.1,4.26,4.94,6.36-.23,8.21-1.85,8.36-7.6,.07-2.69-.52-4.76-3.65-3.85-3.53,1.02-9.53-1.29-8.98,6.51Z"/>
    <path class="cls-2" d="M204.31,298.21c-10.29-.17-18.47-.95-26.52-2.99-3.85-.98-7.5-2.41-10.75-4.71-1.47-1.04-3.94-1.7-3.69-3.8,.24-1.97,2.73-2.31,4.34-3.17,5.51-2.93,11.29-3.6,17.43-2.19,11.72,2.69,23.52,4.79,35.65,3.69,3.88-.35,7.6-1.05,9.15-5.22,1.46-3.91,2.35-7.68-3.33-9.34-3.72-1.08-3.93-3.58-1.55-6.43,4.46-5.35,8.09-11.24,11.52-17.29,1.59-2.8,3.76-5.71,7.54-4.42,3.75,1.28,2.71,4.95,2.65,7.8-.17,7.61-2.99,14.64-5.18,21.8-.68,2.21-1.7,4.51,1.06,5.87,2.61,1.29,4.28-.63,5.58-2.48,5.22-7.42,8.96-15.59,11.68-24.21,1.53-4.85-.83-8.38-4.38-11.26-3.23-2.61-3.04-4.98-.39-7.99,3.05-3.46,6.67-6.01,10.65-8.15,6.61-3.56,12.01-1.64,14.63,5.5,3.07,8.37,2.59,16.6-2.21,24.29-2.1,3.37-3.72,6.91-4.91,10.67-1.05,3.32-.08,4.53,3.48,3.9,8.3-1.46,16.61-2.91,24.96-4.01,9.13-1.21,18.33-1.24,27.48-.1,2.51,.31,5.91,.47,6.8,3.18,.98,2.97-1.86,5.05-3.8,6.96-4.16,4.08-8.82,6.12-15.13,5.6-20.95-1.73-41.51,.8-61.68,6.86-10.95,3.29-22.01,6.19-33.07,9.09-6.54,1.72-13.21,2.78-18,2.54Z"/>
    <path d="M340.58,188.53c-22.04-1.46-43.52-6.46-64.45-14.07-6.86-2.5-12.76-6.28-17.86-11.41-9.15-9.2-17.34-19.23-25.3-29.44-4.54-5.82-9.47-11.05-16.06-14.7-5.68-3.15-5.74-4.98-1.33-9.83,9.71-10.67,21.03-11,31.29-.87,7.23,7.15,13.4,15.21,19.46,23.32,8.55,11.43,19.49,19.58,32.52,25.2,17.39,7.49,34.73,15.13,52.02,22.85,2.95,1.32,7.81,2.64,7.2,5.9-.54,2.85-5.58,2.71-8.85,2.99-2.79,.24-5.62,.05-8.65,.05Z"/>
    <path d="M140.46,215.59c4.41-4.49,9.73-6.34,14.73-8.63,12.17-5.58,23.69-12.05,32.93-21.99,5.33-5.74,9.09-12.41,11.29-19.84,1.29-4.34,4.02-5.42,7.97-5.3,8.84,.25,18.62,7.14,21.77,15.42,2.27,5.96,.97,11.22-4.69,13.91-25.06,11.9-50.57,22.64-78.23,27.09-1.65,.27-3.35,.47-5.78-.64Z"/>
  </g>
</svg>