  0
SECTION
  2
HEADER
  9
$ACADVER
  1
AC1032
  9
$ACADMAINTVER
 90
      228
  9
$DWGCODEPAGE
  3
ANSI_1252
  9
$REQUIREDVERSIONS
160
                 0
  9
$INSBASE
 10
0.0
 20
0.0
 30
0.0
  9
$EXTMIN
 10
1.000000000000000E+20
 20
1.000000000000000E+20
 30
1.000000000000000E+20
  9
$EXTMAX
 10
-1.000000000000000E+20
 20
-1.000000000000000E+20
 30
-1.000000000000000E+20
  9
$LIMMIN
 10
0.0
 20
0.0
  9
$LIMMAX
 10
12.0
 20
9.0
  9
$ORTHOMODE
 70
     0
  9
$REGENMODE
 70
     1
  9
$FILLMODE
 70
     1
  9
$QTEXTMODE
 70
     0
  9
$MIRRTEXT
 70
     0
  9
$LTSCALE
 40
1.0
  9
$ATTMODE
 70
     1
  9
$TEXTSIZE
 40
0.2
  9
$TRACEWID
 40
0.05
  9
$TEXTSTYLE
  7
Standard
  9
$CLAYER
  8
0
  9
$CELTYPE
  6
ByLayer
  9
$CECOLOR
 62
   256
  9
$CELTSCALE
 40
1.0
  9
$DISPSILH
 70
     0
  9
$DIMSCALE
 40
1.0
  9
$DIMASZ
 40
0.18
  9
$DIMEXO
 40
0.0625
  9
$DIMDLI
 40
0.38
  9
$DIMRND
 40
0.0
  9
$DIMDLE
 40
0.0
  9
$DIMEXE
 40
0.18
  9
$DIMTP
 40
0.0
  9
$DIMTM
 40
0.0
  9
$DIMTXT
 40
0.18
  9
$DIMCEN
 40
0.09
  9
$DIMTSZ
 40
0.0
  9
$DIMTOL
 70
     0
  9
$DIMLIM
 70
     0
  9
$DIMTIH
 70
     1
  9
$DIMTOH
 70
     1
  9
$DIMSE1
 70
     0
  9
$DIMSE2
 70
     0
  9
$DIMTAD
 70
     0
  9
$DIMZIN
 70
     0
  9
$DIMBLK
  1

  9
$DIMASO
 70
     1
  9
$DIMSHO
 70
     1
  9
$DIMPOST
  1

  9
$DIMAPOST
  1

  9
$DIMALT
 70
     0
  9
$DIMALTD
 70
     2
  9
$DIMALTF
 40
25.4
  9
$DIMLFAC
 40
1.0
  9
$DIMTOFL
 70
     0
  9
$DIMTVP
 40
0.0
  9
$DIMTIX
 70
     0
  9
$DIMSOXD
 70
     0
  9
$DIMSAH
 70
     0
  9
$DIMBLK1
  1

  9
$DIMBLK2
  1

  9
$DIMSTYLE
  2
Standard
  9
$DIMCLRD
 70
     0
  9
$DIMCLRE
 70
     0
  9
$DIMCLRT
 70
     0
  9
$DIMTFAC
 40
1.0
  9
$DIMGAP
 40
0.09
  9
$DIMJUST
 70
     0
  9
$DIMSD1
 70
     0
  9
$DIMSD2
 70
     0
  9
$DIMTOLJ
 70
     1
  9
$DIMTZIN
 70
     0
  9
$DIMALTZ
 70
     0
  9
$DIMALTTZ
 70
     0
  9
$DIMUPT
 70
     0
  9
$DIMDEC
 70
     4
  9
$DIMTDEC
 70
     4
  9
$DIMALTU
 70
     2
  9
$DIMALTTD
 70
     2
  9
$DIMTXSTY
  7
Standard
  9
$DIMAUNIT
 70
     0
  9
$DIMADEC
 70
     0
  9
$DIMALTRND
 40
0.0
  9
$DIMAZIN
 70
     0
  9
$DIMDSEP
 70
    46
  9
$DIMATFIT
 70
     3
  9
$DIMFRAC
 70
     0
  9
$DIMLDRBLK
  1

  9
$DIMLUNIT
 70
     2
  9
$DIMLWD
 70
    -2
  9
$DIMLWE
 70
    -2
  9
$DIMTMOVE
 70
     0
  9
$DIMFXL
 40
1.0
  9
$DIMFXLON
 70
     0
  9
$DIMJOGANG
 40
0.7853981633974483
  9
$DIMTFILL
 70
     0
  9
$DIMTFILLCLR
 70
     0
  9
$DIMARCSYM
 70
     0
  9
$DIMLTYPE
  6

  9
$DIMLTEX1
  6

  9
$DIMLTEX2
  6

  9
$DIMTXTDIRECTION
 70
     0
  9
$LUNITS
 70
     2
  9
$LUPREC
 70
     4
  9
$SKETCHINC
 40
0.1
  9
$FILLETRAD
 40
0.0
  9
$AUNITS
 70
     0
  9
$AUPREC
 70
     0
  9
$MENU
  1
.
  9
$ELEVATION
 40
0.0
  9
$PELEVATION
 40
0.0
  9
$THICKNESS
 40
0.0
  9
$LIMCHECK
 70
     0
  9
$CHAMFERA
 40
0.0
  9
$CHAMFERB
 40
0.0
  9
$CHAMFERC
 40
0.0
  9
$CHAMFERD
 40
0.0
  9
$SKPOLY
 70
     0
  9
$TDCREATE
 40
2460993.946226852
  9
$TDUCREATE
 40
2460994.279560185
  9
$TDUPDATE
 40
2460993.946226852
  9
$TDUUPDATE
 40
2460994.279560185
  9
$TDINDWG
 40
0.0000000000
  9
$TDUSRTIMER
 40
0.0000000000
  9
$USRTIMER
 70
     1
  9
$ANGBASE
 50
0.0
  9
$ANGDIR
 70
     0
  9
$PDMODE
 70
     0
  9
$PDSIZE
 40
0.0
  9
$PLINEWID
 40
0.0
  9
$SPLFRAME
 70
     0
  9
$SPLINETYPE
 70
     6
  9
$SPLINESEGS
 70
     8
  9
$HANDSEED
  5
B7
  9
$SURFTAB1
 70
     6
  9
$SURFTAB2
 70
     6
  9
$SURFTYPE
 70
     6
  9
$SURFU
 70
     6
  9
$SURFV
 70
     6
  9
$UCSBASE
  2

  9
$UCSNAME
  2

  9
$UCSORG
 10
0.0
 20
0.0
 30
0.0
  9
$UCSXDIR
 10
1.0
 20
0.0
 30
0.0
  9
$UCSYDIR
 10
0.0
 20
1.0
 30
0.0
  9
$UCSORTHOREF
  2

  9
$UCSORTHOVIEW
 70
     0
  9
$UCSORGTOP
 10
0.0
 20
0.0
 30
0.0
  9
$UCSORGBOTTOM
 10
0.0
 20
0.0
 30
0.0
  9
$UCSORGLEFT
 10
0.0
 20
0.0
 30
0.0
  9
$UCSORGRIGHT
 10
0.0
 20
0.0
 30
0.0
  9
$UCSORGFRONT
 10
0.0
 20
0.0
 30
0.0
  9
$UCSORGBACK
 10
0.0
 20
0.0
 30
0.0
  9
$PUCSBASE
  2

  9
$PUCSNAME
  2

  9
$PUCSORG
 10
0.0
 20
0.0
 30
0.0
  9
$PUCSXDIR
 10
1.0
 20
0.0
 30
0.0
  9
$PUCSYDIR
 10
0.0
 20
1.0
 30
0.0
  9
$PUCSORTHOREF
  2

  9
$PUCSORTHOVIEW
 70
     0
  9
$PUCSORGTOP
 10
0.0
 20
0.0
 30
0.0
  9
$PUCSORGBOTTOM
 10
0.0
 20
0.0
 30
0.0
  9
$PUCSORGLEFT
 10
0.0
 20
0.0
 30
0.0
  9
$PUCSORGRIGHT
 10
0.0
 20
0.0
 30
0.0
  9
$PUCSORGFRONT
 10
0.0
 20
0.0
 30
0.0
  9
$PUCSORGBACK
 10
0.0
 20
0.0
 30
0.0
  9
$USERI1
 70
     0
  9
$USERI2
 70
     0
  9
$USERI3
 70
     0
  9
$USERI4
 70
     0
  9
$USERI5
 70
     0
  9
$USERR1
 40
0.0
  9
$USERR2
 40
0.0
  9
$USERR3
 40
0.0
  9
$USERR4
 40
0.0
  9
$USERR5
 40
0.0
  9
$WORLDVIEW
 70
     1
  9
$SHADEDGE
 70
     3
  9
$SHADEDIF
 70
    70
  9
$TILEMODE
 70
     1
  9
$MAXACTVP
 70
    64
  9
$PINSBASE
 10
0.0
 20
0.0
 30
0.0
  9
$PLIMCHECK
 70
     0
  9
$PEXTMIN
 10
1.000000000000000E+20
 20
1.000000000000000E+20
 30
1.000000000000000E+20
  9
$PEXTMAX
 10
-1.000000000000000E+20
 20
-1.000000000000000E+20
 30
-1.000000000000000E+20
  9
$PLIMMIN
 10
0.0
 20
0.0
  9
$PLIMMAX
 10
12.0
 20
9.0
  9
$UNITMODE
 70
     0
  9
$VISRETAIN
 70
     1
  9
$PLINEGEN
 70
     0
  9
$PSLTSCALE
 70
     1
  9
$TREEDEPTH
 70
  3020
  9
$CMLSTYLE
  2
Standard
  9
$CMLJUST
 70
     0
  9
$CMLSCALE
 40
1.0
  9
$PROXYGRAPHICS
 70
     1
  9
$MEASUREMENT
 70
     0
  9
$CELWEIGHT
370
    -1
  9
$ENDCAPS
280
     0
  9
$JOINSTYLE
280
     0
  9
$LWDISPLAY
290
     1
  9
$INSUNITS
 70
     0
  9
$HYPERLINKBASE
  1

  9
$STYLESHEET
  1

  9
$XEDIT
290
     1
  9
$CEPSNTYPE
380
     0
  9
$PSTYLEMODE
290
     1
  9
$FINGERPRINTGUID
  2
{DD8FF539-1C8E-BD46-AC34-1033E6B46AA1}
  9
$VERSIONGUID
  2
{A545AE3B-949B-4143-8E3F-60A12C180FD8}
  9
$EXTNAMES
290
     1
  9
$PSVPSCALE
 40
0.0
  9
$OLESTARTUP
290
     0
  9
$SORTENTS
280
   127
  9
$INDEXCTL
280
     0
  9
$HIDETEXT
280
     1
  9
$XCLIPFRAME
280
     2
  9
$HALOGAP
280
     0
  9
$OBSCOLOR
 70
   257
  9
$OBSLTYPE
280
     0
  9
$INTERSECTIONDISPLAY
280
     0
  9
$INTERSECTIONCOLOR
 70
   257
  9
$DIMASSOC
280
     2
  9
$PROJECTNAME
  1

  9
$CAMERADISPLAY
290
     0
  9
$LENSLENGTH
 40
50.0
  9
$CAMERAHEIGHT
 40
0.0
  9
$STEPSPERSEC
 40
2.0
  9
$STEPSIZE
 40
6.0
  9
$3DDWFPREC
 40
2.0
  9
$PSOLWIDTH
 40
0.25
  9
$PSOLHEIGHT
 40
4.0
  9
$LOFTANG1
 40
1.570796326794896
  9
$LOFTANG2
 40
1.570796326794896
  9
$LOFTMAG1
 40
0.0
  9
$LOFTMAG2
 40
0.0
  9
$LOFTPARAM
 70
     7
  9
$LOFTNORMALS
280
     1
  9
$LATITUDE
 40
37.795
  9
$LONGITUDE
 40
-122.394
  9
$NORTHDIRECTION
 40
0.0
  9
$TIMEZONE
 70
 -8000
  9
$LIGHTGLYPHDISPLAY
280
     1
  9
$TILEMODELIGHTSYNCH
280
     1
  9
$CMATERIAL
347
11
  9
$SOLIDHIST
280
     0
  9
$SHOWHIST
280
     1
  9
$DWFFRAME
280
     2
  9
$DGNFRAME
280
     0
  9
$REALWORLDSCALE
290
     1
  9
$INTERFERECOLOR
 62
     1
  9
$INTERFEREOBJVS
345
33
  9
$INTERFEREVPVS
346
30
  9
$CSHADOW
280
     0
  9
$SHADOWPLANELOCATION
 40
0.0
  0
ENDSEC
  0
SECTION
  2
CLASSES
  0
CLASS
  1
ACDBDICTIONARYWDFLT
  2
AcDbDictionaryWithDefault
  3
ObjectDBX Classes
 90
        0
 91
        1
280
     0
281
     0
  0
CLASS
  1
MATERIAL
  2
AcDbMaterial
  3
ObjectDBX Classes
 90
     1153
 91
        3
280
     0
281
     0
  0
CLASS
  1
VISUALSTYLE
  2
AcDbVisualStyle
  3
ObjectDBX Classes
 90
     4095
 91
       24
280
     0
281
     0
  0
CLASS
  1
SCALE
  2
AcDbScale
  3
ObjectDBX Classes
 90
     1153
 91
       17
280
     0
281
     0
  0
CLASS
  1
TABLESTYLE
  2
AcDbTableStyle
  3
ObjectDBX Classes
 90
     4095
 91
        1
280
     0
281
     0
  0
CLASS
  1
MLEADERSTYLE
  2
AcDbMLeaderStyle
  3
ACDB_MLEADERSTYLE_CLASS
 90
     4095
 91
        1
280
     0
281
     0
  0
CLASS
  1
ACDBSECTIONVIEWSTYLE
  2
AcDbSectionViewStyle
  3
ObjectDBX Classes
 90
     1025
 91
        1
280
     0
281
     0
  0
CLASS
  1
ACDBDETAILVIEWSTYLE
  2
AcDbDetailViewStyle
  3
ObjectDBX Classes
 90
     1025
 91
        1
280
     0
281
     0
  0
CLASS
  1
DICTIONARYVAR
  2
AcDbDictionaryVar
  3
ObjectDBX Classes
 90
        0
 91
        5
280
     0
281
     0
  0
CLASS
  1
CELLSTYLEMAP
  2
AcDbCellStyleMap
  3
ObjectDBX Classes
 90
     1152
 91
        1
280
     0
281
     0
  0
ENDSEC
  0
SECTION
  2
TABLES
  0
TABLE
  2
VPORT
  5
8
330
0
100
AcDbSymbolTable
 70
     1
  0
VPORT
  5
57
330
8
100
AcDbSymbolTableRecord
100
AcDbViewportTableRecord
  2
*Active
 70
     0
 10
0.0
 20
0.0
 11
1.0
 21
1.0
 12
0.0
 22
0.0
 13
0.0
 23
0.0
 14
1.0
 24
1.0
 15
0.0
 25
0.0
 16
0.0
 26
0.0
 36
1.0
 17
250.0
 27
250.0
 37
0.0
 40
510.0
 41
1.0
 42
50.0
 43
0.0
 44
0.0
 50
0.0
 51
0.0
 71
     0
 72
   100
 73
     1
 74
     1
 75
     0
 76
     0
 77
     0
 78
     0
281
     0
 65
     1
110
0.0
120
0.0
130
0.0
111
1.0
121
0.0
131
0.0
112
0.0
122
1.0
132
0.0
 79
     0
146
0.0
 60
     3
 61
     5
292
     1
282
     1
141
0.0
142
0.0
 63
   250
421
  3355443
  0
ENDTAB
  0
TABLE
  2
LTYPE
  5
5
330
0
100
AcDbSymbolTable
 70
     1
  0
LTYPE
  5
5B
330
5
100
AcDbSymbolTableRecord
100
AcDbLinetypeTableRecord
  2
ByBlock
 70
     0
  3

 72
    65
 73
     0
 40
0.0
  0
LTYPE
  5
5C
330
5
100
AcDbSymbolTableRecord
100
AcDbLinetypeTableRecord
  2
ByLayer
 70
     0
  3

 72
    65
 73
     0
 40
0.0
  0
LTYPE
  5
5D
330
5
100
AcDbSymbolTableRecord
100
AcDbLinetypeTableRecord
  2
Continuous
 70
     0
  3
Solid line
 72
    65
 73
     0
 40
0.0
  0
ENDTAB
  0
TABLE
  2
LAYER
  5
2
330
0
100
AcDbSymbolTable
 70
     2
  0
LAYER
  5
54
330
2
100
AcDbSymbolTableRecord
100
AcDbLayerTableRecord
  2
0
 70
     0
 62
     7
  6
Continuous
370
    -3
390
F
347
21
348
0
  0
LAYER
  5
78
330
2
100
AcDbSymbolTableRecord
100
AcDbLayerTableRecord
  2
Layer 1
 70
     0
 62
     7
  6
Continuous
370
     0
390
F
347
21
348
0
  0
ENDTAB
  0
TABLE
  2
STYLE
  5
3
330
0
100
AcDbSymbolTable
 70
     2
  0
STYLE
  5
55
330
3
100
AcDbSymbolTableRecord
100
AcDbTextStyleTableRecord
  2
Standard
 70
     0
 40
0.0
 41
1.0
 50
0.0
 71
     0
 42
0.2
  3
txt
  4

  0
STYLE
  5
5A
330
3
100
AcDbSymbolTableRecord
100
AcDbTextStyleTableRecord
  2
Annotative
 70
     0
 40
0.0
 41
1.0
 50
0.0
 71
     0
 42
0.2
  3
txt
  4

1001
AcadAnnotative
1000
AnnotativeData
1002
{
1070
     1
1070
     1
1002
}
  0
ENDTAB
  0
TABLE
  2
VIEW
  5
6
330
0
100
AcDbSymbolTable
 70
     0
  0
ENDTAB
  0
TABLE
  2
UCS
  5
7
330
0
100
AcDbSymbolTable
 70
     0
  0
ENDTAB
  0
TABLE
  2
APPID
  5
9
330
0
100
AcDbSymbolTable
 70
     2
  0
APPID
  5
56
330
9
100
AcDbSymbolTableRecord
100
AcDbRegAppTableRecord
  2
ACAD
 70
     0
  0
APPID
  5
5E
330
9
100
AcDbSymbolTableRecord
100
AcDbRegAppTableRecord
  2
AcadAnnotative
 70
     0
  0
ENDTAB
  0
TABLE
  2
DIMSTYLE
  5
A
330
0
100
AcDbSymbolTable
 70
     2
100
AcDbDimStyleTable
 71
     0
  0
DIMSTYLE
105
58
330
A
100
AcDbSymbolTableRecord
100
AcDbDimStyleTableRecord
  2
Standard
 70
     0
340
55
  0
DIMSTYLE
105
59
330
A
100
AcDbSymbolTableRecord
100
AcDbDimStyleTableRecord
  2
Annotative
 70
     0
340
55
1001
AcadAnnotative
1000
AnnotativeData
1002
{
1070
     1
1070
     1
1002
}
  0
ENDTAB
  0
TABLE
  2
BLOCK_RECORD
  5
1
330
0
100
AcDbSymbolTable
 70
     3
  0
BLOCK_RECORD
  5
70
330
1
100
AcDbSymbolTableRecord
100
AcDbBlockTableRecord
  2
*Model_Space
340
73
 70
     0
280
     1
281
     0
  0
BLOCK_RECORD
  5
6C
330
1
100
AcDbSymbolTableRecord
100
AcDbBlockTableRecord
  2
*Paper_Space
340
6F
 70
     0
280
     1
281
     0
  0
BLOCK_RECORD
  5
74
330
1
100
AcDbSymbolTableRecord
100
AcDbBlockTableRecord
  2
*Paper_Space0
340
77
 70
     0
280
     1
281
     0
  0
BLOCK_RECORD
  5
79
330
1
100
AcDbSymbolTableRecord
100
AcDbBlockTableRecord
  2
Block_0
340
0
102
{BLKREFS
331
7A
102
}
 70
     0
280
     1
281
     0
  0
BLOCK_RECORD
  5
81
330
1
100
AcDbSymbolTableRecord
100
AcDbBlockTableRecord
  2
Block_1
340
0
102
{BLKREFS
331
82
102
}
 70
     0
280
     1
281
     0
  0
ENDTAB
  0
ENDSEC
  0
SECTION
  2
BLOCKS
  0
BLOCK
  5
71
330
70
100
AcDbEntity
  8
0
100
AcDbBlockBegin
  2
*Model_Space
 70
     0
 10
0.0
 20
0.0
 30
0.0
  3
*Model_Space
  1

  0
ENDBLK
  5
72
330
70
100
AcDbEntity
  8
0
100
AcDbBlockEnd
  0
BLOCK
  5
6D
330
6C
100
AcDbEntity
 67
     1
  8
0
100
AcDbBlockBegin
  2
*Paper_Space
 70
     0
 10
0.0
 20
0.0
 30
0.0
  3
*Paper_Space
  1

  0
ENDBLK
  5
6E
330
6C
100
AcDbEntity
 67
     1
  8
0
100
AcDbBlockEnd
  0
BLOCK
  5
75
330
74
100
AcDbEntity
 67
     1
  8
0
100
AcDbBlockBegin
  2
*Paper_Space0
 70
     0
 10
0.0
 20
0.0
 30
0.0
  3
*Paper_Space0
  1

  0
ENDBLK
  5
76
330
74
100
AcDbEntity
 67
     1
  8
0
100
AcDbBlockEnd
  0
BLOCK
  5
7B
330
79
100
AcDbEntity
  8
0
100
AcDbBlockBegin
  2
Block_0
 70
     0
 10
0.0
 20
0.0
 30
0.0
  3
Block_0
  1

  0
SPLINE
  5
7D
330
79
100
AcDbEntity
  8
Layer 1
100
AcDbSpline
210
0.0
220
0.0
230
1.0
 70
    11
 71
     3
 72
    56
 73
    52
 74
     0
 42
0.0000000001
 43
0.0000000001
 40
0.0
 40
0.0
 40
0.0
 40
0.0
 40
1.0
 40
1.0
 40
1.0
 40
2.0
 40
2.0
 40
2.0
 40
3.0
 40
3.0
 40
3.0
 40
4.0
 40
4.0
 40
4.0
 40
5.0
 40
5.0
 40
5.0
 40
6.0
 40
6.0
 40
6.0
 40
7.0
 40
7.0
 40
7.0
 40
8.0
 40
8.0
 40
8.0
 40
9.0
 40
9.0
 40
9.0
 40
10.0
 40
10.0
 40
10.0
 40
11.0
 40
11.0
 40
11.0
 40
12.0
 40
12.0
 40
12.0
 40
13.0
 40
13.0
 40
13.0
 40
14.0
 40
14.0
 40
14.0
 40
15.0
 40
15.0
 40
15.0
 40
16.0
 40
16.0
 40
16.0
 40
17.0
 40
17.0
 40
17.0
 40
17.0
 10
395.4800109863281
 20
252.6499938964844
 30
0.0
 10
395.4800109863281
 20
252.6499938964844
 30
0.0
 10
395.4300231933594
 20
252.6499938964844
 30
0.0
 10
395.4300231933594
 20
252.6499938964844
 30
0.0
 10
395.4300231933594
 20
193.25
 30
0.0
 10
395.4300231933594
 20
133.8599853515625
 30
0.0
 10
395.4300231933594
 20
74.45001220703125
 30
0.0
 10
395.4300231933594
 20
69.44000244140625
 30
0.0
 10
395.1400146484375
 20
64.49002075195313
 30
0.0
 10
393.3700256347656
 20
59.72000122070312
 30
0.0
 10
388.5700378417969
 20
46.760009765625
 30
0.0
 10
376.1400146484375
 20
38.32000732421875
 30
0.0
 10
361.7100219726562
 20
38.32000732421875
 30
0.0
 10
284.4400329589844
 20
38.32000732421875
 30
0.0
 10
207.1800231933594
 20
38.33999633789062
 30
0.0
 10
129.9200286865234
 20
38.35000610351563
 30
0.0
 10
127.3700256347656
 20
38.35000610351563
 30
0.0
 10
124.8100280761718
 20
38.29000854492188
 30
0.0
 10
122.260025024414
 20
38.3800048828125
 30
0.0
 10
104.0800247192382
 20
39.02999877929687
 30
0.0
 10
90.40002441406249
 20
52.66000366210938
 30
0.0
 10
89.67002868652343
 20
70.82000732421875
 30
0.0
 10
89.64002990722656
 20
71.75
 30
0.0
 10
89.65003204345704
 20
72.67001342773437
 30
0.0
 10
89.65003204345704
 20
73.60000610351562
 30
0.0
 10
89.65003204345704
 20
192.9800109863281
 30
0.0
 10
89.67002868652343
 20
312.3500061035156
 30
0.0
 10
89.62003326416015
 20
431.7300109863281
 30
0.0
 10
89.62003326416015
 20
441.4600105285644
 30
0.0
 10
92.24003601074219
 20
450.0000114440918
 30
0.0
 10
99.24003601074218
 20
456.9900131225586
 30
0.0
 10
106.2000350952148
 20
463.9200134277343
 30
0.0
 10
114.6000366210937
 20
467.000015258789
 30
0.0
 10
124.3800354003906
 20
466.9900131225586
 30
0.0
 10
181.3400268554687
 20
466.9300117492675
 30
0.0
 10
238.3100280761719
 20
466.9600143432616
 30
0.0
 10
295.27001953125
 20
466.9600143432616
 30
0.0
 10
317.5500183105469
 20
466.9600143432616
 30
0.0
 10
339.8200073242187
 20
467.0500144958496
 30
0.0
 10
362.0900268554688
 20
466.9300155639648
 30
0.0
 10
378.6400146484375
 20
466.8400154113769
 30
0.0
 10
391.7300415039063
 20
456.0200157165527
 30
0.0
 10
394.8400268554688
 20
440.1900177001953
 30
0.0
 10
395.6800231933594
 20
435.9500198364258
 30
0.0
 10
395.4600219726562
 20
431.6400146484375
 30
0.0
 10
395.4700317382813
 20
427.3500213623046
 30
0.0
 10
395.4700317382813
 20
369.1100158691406
 30
0.0
 10
395.4700317382813
 20
310.8700256347656
 30
0.0
 10
395.4700317382813
 20
252.6300201416016
 30
0.0
 10
395.4700317382813
 20
252.6300201416016
 30
0.0
 10
395.4800109863281
 20
252.6499938964844
 30
0.0
 10
395.4800109863281
 20
252.6499938964844
 30
0.0
  0
SPLINE
  5
7E
330
79
100
AcDbEntity
  8
Layer 1
100
AcDbSpline
210
0.0
220
0.0
230
1.0
 70
     9
 71
     3
 72
    56
 73
    52
 74
     0
 42
0.0000000001
 43
0.0000000001
 40
0.0
 40
0.0
 40
0.0
 40
0.0
 40
1.0
 40
1.0
 40
1.0
 40
2.0
 40
2.0
 40
2.0
 40
3.0
 40
3.0
 40
3.0
 40
4.0
 40
4.0
 40
4.0
 40
5.0
 40
5.0
 40
5.0
 40
6.0
 40
6.0
 40
6.0
 40
7.0
 40
7.0
 40
7.0
 40
8.0
 40
8.0
 40
8.0
 40
9.0
 40
9.0
 40
9.0
 40
10.0
 40
10.0
 40
10.0
 40
11.0
 40
11.0
 40
11.0
 40
12.0
 40
12.0
 40
12.0
 40
13.0
 40
13.0
 40
13.0
 40
14.0
 40
14.0
 40
14.0
 40
15.0
 40
15.0
 40
15.0
 40
16.0
 40
16.0
 40
16.0
 40
17.0
 40
17.0
 40
17.0
 40
17.0
 10
397.9100036621094
 20
200.8099975585937
 30
0.0
 10
397.9100036621094
 20
278.6499938964844
 30
0.0
 10
397.9299926757812
 20
356.509994506836
 30
0.0
 10
397.9100036621094
 20
434.3499908447265
 30
0.0
 10
397.9100036621094
 20
444.6599922180175
 30
0.0
 10
393.9599914550781
 20
453.2699890136719
 30
0.0
 10
386.4200134277344
 20
460.2699890136718
 30
0.0
 10
379.2400207519531
 20
466.9399871826171
 30
0.0
 10
370.6000061035156
 20
469.6099891662597
 30
0.0
 10
360.9500122070313
 20
469.589988708496
 30
0.0
 10
340.8800048828125
 20
469.5599880218505
 30
0.0
 10
320.8099975585938
 20
469.5599880218505
 30
0.0
 10
300.7400207519531
 20
469.5599880218505
 30
0.0
 10
241.6800231933594
 20
469.5599880218505
 30
0.0
 10
182.6300201416015
 20
469.5799884796143
 30
0.0
 10
123.5800170898437
 20
469.589988708496
 30
0.0
 10
112.2400207519531
 20
469.589988708496
 30
0.0
 10
102.8600158691406
 20
465.2499885559081
 30
0.0
 10
95.43001556396484
 20
456.6999893188476
 30
0.0
 10
89.16001892089843
 20
449.4799880981445
 30
0.0
 10
87.08001708984374
 20
440.9699897766113
 30
0.0
 10
87.09001159667968
 20
431.5799865722656
 30
0.0
 10
87.17001342773437
 20
372.0599822998047
 30
0.0
 10
87.13001251220703
 20
312.5399780273438
 30
0.0
 10
87.13001251220703
 20
253.0299835205078
 30
0.0
 10
87.13001251220703
 20
203.3699951171875
 30
0.0
 10
87.12001037597657
 20
153.719970703125
 30
0.0
 10
87.13001251220703
 20
104.0599975585937
 30
0.0
 10
87.13001251220703
 20
92.35000610351562
 30
0.0
 10
87.07001495361328
 20
80.6300048828125
 30
0.0
 10
87.30001068115234
 20
68.91998291015625
 30
0.0
 10
87.47000885009766
 20
60.70999145507812
 30
0.0
 10
90.82000732421875
 20
53.66998291015625
 30
0.0
 10
96.34001159667969
 20
47.6199951171875
 30
0.0
 10
104.4200134277343
 20
38.760009765625
 30
0.0
 10
114.6100158691406
 20
35.72000122070313
 30
0.0
 10
126.3600158691406
 20
35.739990234375
 30
0.0
 10
199.3300170898437
 20
35.8599853515625
 30
0.0
 10
272.3099975585938
 20
35.76998901367188
 30
0.0
 10
345.280029296875
 20
35.83999633789062
 30
0.0
 10
353.27001953125
 20
35.85000610351563
 30
0.0
 10
361.3300170898437
 20
35.0
 30
0.0
 10
369.2600402832031
 20
36.47000122070313
 30
0.0
 10
386.300048828125
 20
39.6400146484375
 30
0.0
 10
397.9100341796875
 20
54.10000610351563
 30
0.0
 10
397.9200439453125
 20
72.04000854492187
 30
0.0
 10
397.9500427246094
 20
114.9700012207031
 30
0.0
 10
397.9100341796875
 20
157.8900146484375
 30
0.0
 10
397.9100341796875
 20
200.8200073242187
 30
0.0
 10
397.9100341796875
 20
200.8200073242187
 30
0.0
 10
397.9100036621094
 20
200.8099975585937
 30
0.0
 10
397.9100036621094
 20
200.8099975585937
 30
0.0
  0
HATCH
  5
7F
330
79
100
AcDbEntity
  8
Layer 1
 62
    18
420
        0
440
 33554687
100
AcDbHatch
 10
0.0
 20
0.0
 30
0.0
210
0.0
220
0.0
230
1.0
  2
SOLID
 70
     1
 71
     1
 91
        2
 92
        1
 93
        1
 72
     4
 94
        3
 73
     0
 74
     0
 95
       56
 96
       52
 40
0.0
 40
0.0
 40
0.0
 40
0.0
 40
1.0
 40
1.0
 40
1.0
 40
2.0
 40
2.0
 40
2.0
 40
3.0
 40
3.0
 40
3.0
 40
4.0
 40
4.0
 40
4.0
 40
5.0
 40
5.0
 40
5.0
 40
6.0
 40
6.0
 40
6.0
 40
7.0
 40
7.0
 40
7.0
 40
8.0
 40
8.0
 40
8.0
 40
9.0
 40
9.0
 40
9.0
 40
10.0
 40
10.0
 40
10.0
 40
11.0
 40
11.0
 40
11.0
 40
12.0
 40
12.0
 40
12.0
 40
13.0
 40
13.0
 40
13.0
 40
14.0
 40
14.0
 40
14.0
 40
15.0
 40
15.0
 40
15.0
 40
16.0
 40
16.0
 40
16.0
 40
17.0
 40
17.0
 40
17.0
 40
17.0
 10
395.4800109863281
 20
252.6499938964844
 10
395.4800109863281
 20
252.6499938964844
 10
395.4300231933594
 20
252.6499938964844
 10
395.4300231933594
 20
252.6499938964844
 10
395.4300231933594
 20
193.25
 10
395.4300231933594
 20
133.8599853515625
 10
395.4300231933594
 20
74.45001220703125
 10
395.4300231933594
 20
69.44000244140625
 10
395.1400146484375
 20
64.49002075195313
 10
393.3700256347656
 20
59.72000122070312
 10
388.5700378417969
 20
46.760009765625
 10
376.1400146484375
 20
38.32000732421875
 10
361.7100219726562
 20
38.32000732421875
 10
284.4400329589844
 20
38.32000732421875
 10
207.1800231933594
 20
38.33999633789062
 10
129.9200286865234
 20
38.35000610351563
 10
127.3700256347656
 20
38.35000610351563
 10
124.8100280761718
 20
38.29000854492188
 10
122.260025024414
 20
38.3800048828125
 10
104.0800247192382
 20
39.02999877929687
 10
90.40002441406249
 20
52.66000366210938
 10
89.67002868652343
 20
70.82000732421875
 10
89.64002990722656
 20
71.75
 10
89.65003204345704
 20
72.67001342773437
 10
89.65003204345704
 20
73.60000610351562
 10
89.65003204345704
 20
192.9800109863281
 10
89.67002868652343
 20
312.3500061035156
 10
89.62003326416015
 20
431.7300109863281
 10
89.62003326416015
 20
441.4600105285644
 10
92.24003601074219
 20
450.0000114440918
 10
99.24003601074218
 20
456.9900131225586
 10
106.2000350952148
 20
463.9200134277343
 10
114.6000366210937
 20
467.000015258789
 10
124.3800354003906
 20
466.9900131225586
 10
181.3400268554687
 20
466.9300117492675
 10
238.3100280761719
 20
466.9600143432616
 10
295.27001953125
 20
466.9600143432616
 10
317.5500183105469
 20
466.9600143432616
 10
339.8200073242187
 20
467.0500144958496
 10
362.0900268554688
 20
466.9300155639648
 10
378.6400146484375
 20
466.8400154113769
 10
391.7300415039063
 20
456.0200157165527
 10
394.8400268554688
 20
440.1900177001953
 10
395.6800231933594
 20
435.9500198364258
 10
395.4600219726562
 20
431.6400146484375
 10
395.4700317382813
 20
427.3500213623046
 10
395.4700317382813
 20
369.1100158691406
 10
395.4700317382813
 20
310.8700256347656
 10
395.4700317382813
 20
252.6300201416016
 10
395.4700317382813
 20
252.6300201416016
 10
395.4800109863281
 20
252.6499938964844
 10
395.4800109863281
 20
252.6499938964844
 97
        0
 97
        1
330
7D
 92
        1
 93
        1
 72
     4
 94
        3
 73
     0
 74
     0
 95
       56
 96
       52
 40
0.0
 40
0.0
 40
0.0
 40
0.0
 40
1.0
 40
1.0
 40
1.0
 40
2.0
 40
2.0
 40
2.0
 40
3.0
 40
3.0
 40
3.0
 40
4.0
 40
4.0
 40
4.0
 40
5.0
 40
5.0
 40
5.0
 40
6.0
 40
6.0
 40
6.0
 40
7.0
 40
7.0
 40
7.0
 40
8.0
 40
8.0
 40
8.0
 40
9.0
 40
9.0
 40
9.0
 40
10.0
 40
10.0
 40
10.0
 40
11.0
 40
11.0
 40
11.0
 40
12.0
 40
12.0
 40
12.0
 40
13.0
 40
13.0
 40
13.0
 40
14.0
 40
14.0
 40
14.0
 40
15.0
 40
15.0
 40
15.0
 40
16.0
 40
16.0
 40
16.0
 40
17.0
 40
17.0
 40
17.0
 40
17.0
 10
397.9100036621094
 20
200.8099975585937
 10
397.9100036621094
 20
278.6499938964844
 10
397.9299926757812
 20
356.509994506836
 10
397.9100036621094
 20
434.3499908447265
 10
397.9100036621094
 20
444.6599922180175
 10
393.9599914550781
 20
453.2699890136719
 10
386.4200134277344
 20
460.2699890136718
 10
379.2400207519531
 20
466.9399871826171
 10
370.6000061035156
 20
469.6099891662597
 10
360.9500122070313
 20
469.589988708496
 10
340.8800048828125
 20
469.5599880218505
 10
320.8099975585938
 20
469.5599880218505
 10
300.7400207519531
 20
469.5599880218505
 10
241.6800231933594
 20
469.5599880218505
 10
182.6300201416015
 20
469.5799884796143
 10
123.5800170898437
 20
469.589988708496
 10
112.2400207519531
 20
469.589988708496
 10
102.8600158691406
 20
465.2499885559081
 10
95.43001556396484
 20
456.6999893188476
 10
89.16001892089843
 20
449.4799880981445
 10
87.08001708984374
 20
440.9699897766113
 10
87.09001159667968
 20
431.5799865722656
 10
87.17001342773437
 20
372.0599822998047
 10
87.13001251220703
 20
312.5399780273438
 10
87.13001251220703
 20
253.0299835205078
 10
87.13001251220703
 20
203.3699951171875
 10
87.12001037597657
 20
153.719970703125
 10
87.13001251220703
 20
104.0599975585937
 10
87.13001251220703
 20
92.35000610351562
 10
87.07001495361328
 20
80.6300048828125
 10
87.30001068115234
 20
68.91998291015625
 10
87.47000885009766
 20
60.70999145507812
 10
90.82000732421875
 20
53.66998291015625
 10
96.34001159667969
 20
47.6199951171875
 10
104.4200134277343
 20
38.760009765625
 10
114.6100158691406
 20
35.72000122070313
 10
126.3600158691406
 20
35.739990234375
 10
199.3300170898437
 20
35.8599853515625
 10
272.3099975585938
 20
35.76998901367188
 10
345.280029296875
 20
35.83999633789062
 10
353.27001953125
 20
35.85000610351563
 10
361.3300170898437
 20
35.0
 10
369.2600402832031
 20
36.47000122070313
 10
386.300048828125
 20
39.6400146484375
 10
397.9100341796875
 20
54.10000610351563
 10
397.9200439453125
 20
72.04000854492187
 10
397.9500427246094
 20
114.9700012207031
 10
397.9100341796875
 20
157.8900146484375
 10
397.9100341796875
 20
200.8200073242187
 10
397.9100341796875
 20
200.8200073242187
 10
397.9100036621094
 20
200.8099975585937
 10
397.9100036621094
 20
200.8099975585937
 97
        0
 97
        1
330
7E
 75
     2
 76
     1
 98
        1
 10
0.0
 20
0.0
450
        0
451
        0
460
0.0
461
0.0
452
        0
462
0.0
453
        0
470

  0
SPLINE
  5
80
330
79
100
AcDbEntity
  8
Layer 1
100
AcDbSpline
210
0.0
220
0.0
230
1.0
 70
    11
 71
     3
 72
    56
 73
    52
 74
     0
 42
0.0000000001
 43
0.0000000001
 40
0.0
 40
0.0
 40
0.0
 40
0.0
 40
1.0
 40
1.0
 40
1.0
 40
2.0
 40
2.0
 40
2.0
 40
3.0
 40
3.0
 40
3.0
 40
4.0
 40
4.0
 40
4.0
 40
5.0
 40
5.0
 40
5.0
 40
6.0
 40
6.0
 40
6.0
 40
7.0
 40
7.0
 40
7.0
 40
8.0
 40
8.0
 40
8.0
 40
9.0
 40
9.0
 40
9.0
 40
10.0
 40
10.0
 40
10.0
 40
11.0
 40
11.0
 40
11.0
 40
12.0
 40
12.0
 40
12.0
 40
13.0
 40
13.0
 40
13.0
 40
14.0
 40
14.0
 40
14.0
 40
15.0
 40
15.0
 40
15.0
 40
16.0
 40
16.0
 40
16.0
 40
17.0
 40
17.0
 40
17.0
 40
17.0
 10
395.4800109863281
 20
252.6499938964844
 30
0.0
 10
395.4800109863281
 20
252.6499938964844
 30
0.0
 10
395.4300231933594
 20
252.6499938964844
 30
0.0
 10
395.4300231933594
 20
252.6499938964844
 30
0.0
 10
395.4300231933594
 20
193.25
 30
0.0
 10
395.4300231933594
 20
133.8599853515625
 30
0.0
 10
395.4300231933594
 20
74.45001220703125
 30
0.0
 10
395.4300231933594
 20
69.44000244140625
 30
0.0
 10
395.1400146484375
 20
64.49002075195313
 30
0.0
 10
393.3700256347656
 20
59.72000122070312
 30
0.0
 10
388.5700378417969
 20
46.760009765625
 30
0.0
 10
376.1400146484375
 20
38.32000732421875
 30
0.0
 10
361.7100219726562
 20
38.32000732421875
 30
0.0
 10
284.4400329589844
 20
38.32000732421875
 30
0.0
 10
207.1800231933594
 20
38.33999633789062
 30
0.0
 10
129.9200286865234
 20
38.35000610351563
 30
0.0
 10
127.3700256347656
 20
38.35000610351563
 30
0.0
 10
124.8100280761718
 20
38.29000854492188
 30
0.0
 10
122.260025024414
 20
38.3800048828125
 30
0.0
 10
104.0800247192382
 20
39.02999877929687
 30
0.0
 10
90.40002441406249
 20
52.66000366210938
 30
0.0
 10
89.67002868652343
 20
70.82000732421875
 30
0.0
 10
89.64002990722656
 20
71.75
 30
0.0
 10
89.65003204345704
 20
72.67001342773437
 30
0.0
 10
89.65003204345704
 20
73.60000610351562
 30
0.0
 10
89.65003204345704
 20
192.9800109863281
 30
0.0
 10
89.67002868652343
 20
312.3500061035156
 30
0.0
 10
89.62003326416015
 20
431.7300109863281
 30
0.0
 10
89.62003326416015
 20
441.4600105285644
 30
0.0
 10
92.24003601074219
 20
450.0000114440918
 30
0.0
 10
99.24003601074218
 20
456.9900131225586
 30
0.0
 10
106.2000350952148
 20
463.9200134277343
 30
0.0
 10
114.6000366210937
 20
467.000015258789
 30
0.0
 10
124.3800354003906
 20
466.9900131225586
 30
0.0
 10
181.3400268554687
 20
466.9300117492675
 30
0.0
 10
238.3100280761719
 20
466.9600143432616
 30
0.0
 10
295.27001953125
 20
466.9600143432616
 30
0.0
 10
317.5500183105469
 20
466.9600143432616
 30
0.0
 10
339.8200073242187
 20
467.0500144958496
 30
0.0
 10
362.0900268554688
 20
466.9300155639648
 30
0.0
 10
378.6400146484375
 20
466.8400154113769
 30
0.0
 10
391.7300415039063
 20
456.0200157165527
 30
0.0
 10
394.8400268554688
 20
440.1900177001953
 30
0.0
 10
395.6800231933594
 20
435.9500198364258
 30
0.0
 10
395.4600219726562
 20
431.6400146484375
 30
0.0
 10
395.4700317382813
 20
427.3500213623046
 30
0.0
 10
395.4700317382813
 20
369.1100158691406
 30
0.0
 10
395.4700317382813
 20
310.8700256347656
 30
0.0
 10
395.4700317382813
 20
252.6300201416016
 30
0.0
 10
395.4700317382813
 20
252.6300201416016
 30
0.0
 10
395.4800109863281
 20
252.6499938964844
 30
0.0
 10
395.4800109863281
 20
252.6499938964844
 30
0.0
  0
ENDBLK
  5
7C
330
79
100
AcDbEntity
  8
0
100
AcDbBlockEnd
  0
BLOCK
  5
83
330
81
100
AcDbEntity
  8
0
100
AcDbBlockBegin
  2
Block_1
 70
     0
 10
0.0
 20
0.0
 30
0.0
  3
Block_1
  1

  0
SPLINE
  5
85
330
81
100
AcDbEntity
  8
Layer 1
100
AcDbSpline
210
0.0
220
0.0
230
1.0
 70
     9
 71
     3
 72
    17
 73
    13
 74
     0
 42
0.0000000001
 43
0.0000000001
 40
0.0
 40
0.0
 40
0.0
 40
0.0
 40
1.0
 40
1.0
 40
1.0
 40
2.0
 40
2.0
 40
2.0
 40
3.0
 40
3.0
 40
3.0
 40
4.0
 40
4.0
 40
4.0
 40
4.0
 10
258.9500122070313
 20
184.8099975585937
 30
0.0
 10
236.0700073242187
 20
184.8399963378906
 30
0.0
 10
218.7400207519531
 20
202.239990234375
 30
0.0
 10
218.77001953125
 20
225.1400146484375
 30
0.0
 10
218.8000183105469
 20
247.8300170898438
 30
0.0
 10
236.4400177001953
 20
265.4200134277344
 30
0.0
 10
259.1300048828125
 20
265.3900146484375
 30
0.0
 10
281.739990234375
 20
265.3600158691406
 30
0.0
 10
299.3999938964844
 20
247.6100158691406
 30
0.0
 10
299.3600158691407
 20
224.9400024414062
 30
0.0
 10
299.3200073242188
 20
202.1300048828125
 30
0.0
 10
281.8400268554687
 20
184.77001953125
 30
0.0
 10
258.9500122070313
 20
184.8099975585937
 30
0.0
  0
SPLINE
  5
86
330
81
100
AcDbEntity
  8
Layer 1
100
AcDbSpline
210
0.0
220
0.0
230
1.0
 70
     9
 71
     3
 72
    17
 73
    13
 74
     0
 42
0.0000000001
 43
0.0000000001
 40
0.0
 40
0.0
 40
0.0
 40
0.0
 40
1.0
 40
1.0
 40
1.0
 40
2.0
 40
2.0
 40
2.0
 40
3.0
 40
3.0
 40
3.0
 40
4.0
 40
4.0
 40
4.0
 40
4.0
 10
307.760009765625
 20
226.2900085449219
 30
0.0
 10
307.4700012207031
 20
251.760009765625
 30
0.0
 10
284.760009765625
 20
273.8400115966797
 30
0.0
 10
258.9400024414063
 20
273.760009765625
 30
0.0
 10
232.8800048828125
 20
273.6800079345703
 30
0.0
 10
210.5
 20
251.7500152587891
 30
0.0
 10
210.3399963378906
 20
226.1300048828125
 30
0.0
 10
210.1699981689453
 20
199.1499938964843
 30
0.0
 10
232.5099945068359
 20
176.3800048828125
 30
0.0
 10
259.1300048828125
 20
176.4100036621093
 30
0.0
 10
285.6900024414063
 20
176.4400024414062
 30
0.0
 10
308.0700073242188
 20
199.3900146484375
 30
0.0
 10
307.760009765625
 20
226.2900085449219
 30
0.0
  0
HATCH
  5
87
330
81
100
AcDbEntity
  8
Layer 1
 62
   246
420
  8590872
440
 33554687
100
AcDbHatch
 10
0.0
 20
0.0
 30
0.0
210
0.0
220
0.0
230
1.0
  2
SOLID
 70
     1
 71
     1
 91
        2
 92
        1
 93
        1
 72
     4
 94
        3
 73
     0
 74
     0
 95
       17
 96
       13
 40
0.0
 40
0.0
 40
0.0
 40
0.0
 40
1.0
 40
1.0
 40
1.0
 40
2.0
 40
2.0
 40
2.0
 40
3.0
 40
3.0
 40
3.0
 40
4.0
 40
4.0
 40
4.0
 40
4.0
 10
258.9500122070313
 20
184.8099975585937
 10
236.0700073242187
 20
184.8399963378906
 10
218.7400207519531
 20
202.239990234375
 10
218.77001953125
 20
225.1400146484375
 10
218.8000183105469
 20
247.8300170898438
 10
236.4400177001953
 20
265.4200134277344
 10
259.1300048828125
 20
265.3900146484375
 10
281.739990234375
 20
265.3600158691406
 10
299.3999938964844
 20
247.6100158691406
 10
299.3600158691407
 20
224.9400024414062
 10
299.3200073242188
 20
202.1300048828125
 10
281.8400268554687
 20
184.77001953125
 10
258.9500122070313
 20
184.8099975585937
 97
        0
 97
        1
330
85
 92
        1
 93
        1
 72
     4
 94
        3
 73
     0
 74
     0
 95
       17
 96
       13
 40
0.0
 40
0.0
 40
0.0
 40
0.0
 40
1.0
 40
1.0
 40
1.0
 40
2.0
 40
2.0
 40
2.0
 40
3.0
 40
3.0
 40
3.0
 40
4.0
 40
4.0
 40
4.0
 40
4.0
 10
307.760009765625
 20
226.2900085449219
 10
307.4700012207031
 20
251.760009765625
 10
284.760009765625
 20
273.8400115966797
 10
258.9400024414063
 20
273.760009765625
 10
232.8800048828125
 20
273.6800079345703
 10
210.5
 20
251.7500152587891
 10
210.3399963378906
 20
226.1300048828125
 10
210.1699981689453
 20
199.1499938964843
 10
232.5099945068359
 20
176.3800048828125
 10
259.1300048828125
 20
176.4100036621093
 10
285.6900024414063
 20
176.4400024414062
 10
308.0700073242188
 20
199.3900146484375
 10
307.760009765625
 20
226.2900085449219
 97
        0
 97
        1
330
86
 75
     2
 76
     1
 98
        1
 10
0.0
 20
0.0
450
        0
451
        0
460
0.0
461
0.0
452
        0
462
0.0
453
        0
470

  0
SPLINE
  5
88
330
81
100
AcDbEntity
  8
Layer 1
100
AcDbSpline
210
0.0
220
0.0
230
1.0
 70
     9
 71
     3
 72
    17
 73
    13
 74
     0
 42
0.0000000001
 43
0.0000000001
 40
0.0
 40
0.0
 40
0.0
 40
0.0
 40
1.0
 40
1.0
 40
1.0
 40
2.0
 40
2.0
 40
2.0
 40
3.0
 40
3.0
 40
3.0
 40
4.0
 40
4.0
 40
4.0
 40
4.0
 10
321.010009765625
 20
69.8499755859375
 30
0.0
 10
297.260009765625
 20
69.72998046875
 30
0.0
 10
280.3500061035156
 20
86.17996215820312
 30
0.0
 10
280.3500061035156
 20
109.3999633789062
 30
0.0
 10
280.3500061035156
 20
132.5699768066406
 30
0.0
 10
297.489990234375
 20
150.2799682617187
 30
0.0
 10
320.1700134277344
 20
150.5299682617187
 30
0.0
 10
342.0700073242187
 20
150.7699584960937
 30
0.0
 10
360.9600219726563
 20
132.1299743652343
 30
0.0
 10
361.0
 20
110.2499694824218
 30
0.0
 10
361.0400085449219
 20
86.68997192382812
 30
0.0
 10
344.489990234375
 20
69.9599609375
 30
0.0
 10
321.010009765625
 20
69.8499755859375
 30
0.0
  0
SPLINE
  5
89
330
81
100
AcDbEntity
  8
Layer 1
100
AcDbSpline
210
0.0
220
0.0
230
1.0
 70
     9
 71
     3
 72
    17
 73
    13
 74
     0
 42
0.0000000001
 43
0.0000000001
 40
0.0
 40
0.0
 40
0.0
 40
0.0
 40
1.0
 40
1.0
 40
1.0
 40
2.0
 40
2.0
 40
2.0
 40
3.0
 40
3.0
 40
3.0
 40
4.0
 40
4.0
 40
4.0
 40
4.0
 10
321.2900085449219
 20
158.3599853515625
 30
0.0
 10
295.4200134277344
 20
158.8599853515625
 30
0.0
 10
272.4000244140625
 20
136.8699951171875
 30
0.0
 10
271.9400024414063
 20
111.1900024414062
 30
0.0
 10
271.4700012207031
 20
85.04998779296874
 30
0.0
 10
292.9299926757813
 20
62.29998779296875
 30
0.0
 10
318.77001953125
 20
61.54998779296875
 30
0.0
 10
345.6700134277344
 20
60.76998901367187
 30
0.0
 10
369.0600280761719
 20
83.06997680664062
 30
0.0
 10
369.3300170898437
 20
109.7599792480469
 30
0.0
 10
369.5900268554688
 20
135.219970703125
 30
0.0
 10
347.2200317382812
 20
157.8499755859375
 30
0.0
 10
321.2900085449219
 20
158.3599853515625
 30
0.0
  0
HATCH
  5
8A
330
81
100
AcDbEntity
  8
Layer 1
 62
   168
420
   922410
440
 33554687
100
AcDbHatch
 10
0.0
 20
0.0
 30
0.0
210
0.0
220
0.0
230
1.0
  2
SOLID
 70
     1
 71
     1
 91
        2
 92
        1
 93
        1
 72
     4
 94
        3
 73
     0
 74
     0
 95
       17
 96
       13
 40
0.0
 40
0.0
 40
0.0
 40
0.0
 40
1.0
 40
1.0
 40
1.0
 40
2.0
 40
2.0
 40
2.0
 40
3.0
 40
3.0
 40
3.0
 40
4.0
 40
4.0
 40
4.0
 40
4.0
 10
321.010009765625
 20
69.8499755859375
 10
297.260009765625
 20
69.72998046875
 10
280.3500061035156
 20
86.17996215820312
 10
280.3500061035156
 20
109.3999633789062
 10
280.3500061035156
 20
132.5699768066406
 10
297.489990234375
 20
150.2799682617187
 10
320.1700134277344
 20
150.5299682617187
 10
342.0700073242187
 20
150.7699584960937
 10
360.9600219726563
 20
132.1299743652343
 10
361.0
 20
110.2499694824218
 10
361.0400085449219
 20
86.68997192382812
 10
344.489990234375
 20
69.9599609375
 10
321.010009765625
 20
69.8499755859375
 97
        0
 97
        1
330
88
 92
        1
 93
        1
 72
     4
 94
        3
 73
     0
 74
     0
 95
       17
 96
       13
 40
0.0
 40
0.0
 40
0.0
 40
0.0
 40
1.0
 40
1.0
 40
1.0
 40
2.0
 40
2.0
 40
2.0
 40
3.0
 40
3.0
 40
3.0
 40
4.0
 40
4.0
 40
4.0
 40
4.0
 10
321.2900085449219
 20
158.3599853515625
 10
295.4200134277344
 20
158.8599853515625
 10
272.4000244140625
 20
136.8699951171875
 10
271.9400024414063
 20
111.1900024414062
 10
271.4700012207031
 20
85.04998779296874
 10
292.9299926757813
 20
62.29998779296875
 10
318.77001953125
 20
61.54998779296875
 10
345.6700134277344
 20
60.76998901367187
 10
369.0600280761719
 20
83.06997680664062
 10
369.3300170898437
 20
109.7599792480469
 10
369.5900268554688
 20
135.219970703125
 10
347.2200317382812
 20
157.8499755859375
 10
321.2900085449219
 20
158.3599853515625
 97
        0
 97
        1
330
89
 75
     2
 76
     1
 98
        1
 10
0.0
 20
0.0
450
        0
451
        0
460
0.0
461
0.0
452
        0
462
0.0
453
        0
470

  0
SPLINE
  5
8B
330
81
100
AcDbEntity
  8
Layer 1
100
AcDbSpline
210
0.0
220
0.0
230
1.0
 70
     9
 71
     3
 72
    17
 73
    13
 74
     0
 42
0.0000000001
 43
0.0000000001
 40
0.0
 40
0.0
 40
0.0
 40
0.0
 40
1.0
 40
1.0
 40
1.0
 40
2.0
 40
2.0
 40
2.0
 40
3.0
 40
3.0
 40
3.0
 40
4.0
 40
4.0
 40
4.0
 40
4.0
 10
196.3899993896484
 20
299.6400146484375
 30
0.0
 10
173.8899993896484
 20
300.0800170898437
 30
0.0
 10
156.7200012207031
 20
318.1600189208984
 30
0.0
 10
157.1199951171875
 20
341.010009765625
 30
0.0
 10
157.5299987792968
 20
364.0800170898438
 30
0.0
 10
174.6900024414062
 20
380.6000061035156
 30
0.0
 10
198.0399932861328
 20
380.3900146484375
 30
0.0
 10
221.2699890136719
 20
380.1800155639648
 30
0.0
 10
238.0099945068359
 20
363.1300201416016
 30
0.0
 10
237.75
 20
339.9400177001953
 30
0.0
 10
237.4900054931641
 20
316.5600128173828
 30
0.0
 10
219.6600036621094
 20
299.1900177001953
 30
0.0
 10
196.3899993896484
 20
299.6400146484375
 30
0.0
  0
SPLINE
  5
8C
330
81
100
AcDbEntity
  8
Layer 1
100
AcDbSpline
210
0.0
220
0.0
230
1.0
 70
     9
 71
     3
 72
    20
 73
    16
 74
     0
 42
0.0000000001
 43
0.0000000001
 40
0.0
 40
0.0
 40
0.0
 40
0.0
 40
1.0
 40
1.0
 40
1.0
 40
2.0
 40
2.0
 40
2.0
 40
3.0
 40
3.0
 40
3.0
 40
4.0
 40
4.0
 40
4.0
 40
5.0
 40
5.0
 40
5.0
 40
5.0
 10
246.1300048828125
 20
340.8200073242188
 30
0.0
 10
246.0700073242187
 20
366.4700012207031
 30
0.0
 10
223.5400085449219
 20
388.5900115966797
 30
0.0
 10
197.4500122070312
 20
388.5900115966797
 30
0.0
 10
171.4900207519531
 20
388.5900115966797
 30
0.0
 10
148.7300109863281
 20
366.27001953125
 30
0.0
 10
148.7200164794922
 20
340.8100128173828
 30
0.0
 10
148.7000122070312
 20
314.5800170898437
 30
0.0
 10
171.4200134277344
 20
291.760009765625
 30
0.0
 10
197.4900207519531
 20
291.8200073242187
 30
0.0
 10
224.030029296875
 20
291.8800048828125
 30
0.0
 10
246.1900177001953
 20
314.2100067138672
 30
0.0
 10
246.1300201416015
 20
340.8200073242188
 30
0.0
 10
246.1300201416015
 20
340.8200073242188
 30
0.0
 10
246.1300048828125
 20
340.8200073242188
 30
0.0
 10
246.1300048828125
 20
340.8200073242188
 30
0.0
  0
HATCH
  5
8D
330
81
100
AcDbEntity
  8
Layer 1
 62
   118
420
  1005869
440
 33554687
100
AcDbHatch
 10
0.0
 20
0.0
 30
0.0
210
0.0
220
0.0
230
1.0
  2
SOLID
 70
     1
 71
     1
 91
        2
 92
        1
 93
        1
 72
     4
 94
        3
 73
     0
 74
     0
 95
       17
 96
       13
 40
0.0
 40
0.0
 40
0.0
 40
0.0
 40
1.0
 40
1.0
 40
1.0
 40
2.0
 40
2.0
 40
2.0
 40
3.0
 40
3.0
 40
3.0
 40
4.0
 40
4.0
 40
4.0
 40
4.0
 10
196.3899993896484
 20
299.6400146484375
 10
173.8899993896484
 20
300.0800170898437
 10
156.7200012207031
 20
318.1600189208984
 10
157.1199951171875
 20
341.010009765625
 10
157.5299987792968
 20
364.0800170898438
 10
174.6900024414062
 20
380.6000061035156
 10
198.0399932861328
 20
380.3900146484375
 10
221.2699890136719
 20
380.1800155639648
 10
238.0099945068359
 20
363.1300201416016
 10
237.75
 20
339.9400177001953
 10
237.4900054931641
 20
316.5600128173828
 10
219.6600036621094
 20
299.1900177001953
 10
196.3899993896484
 20
299.6400146484375
 97
        0
 97
        1
330
8B
 92
        1
 93
        1
 72
     4
 94
        3
 73
     0
 74
     0
 95
       20
 96
       16
 40
0.0
 40
0.0
 40
0.0
 40
0.0
 40
1.0
 40
1.0
 40
1.0
 40
2.0
 40
2.0
 40
2.0
 40
3.0
 40
3.0
 40
3.0
 40
4.0
 40
4.0
 40
4.0
 40
5.0
 40
5.0
 40
5.0
 40
5.0
 10
246.1300048828125
 20
340.8200073242188
 10
246.0700073242187
 20
366.4700012207031
 10
223.5400085449219
 20
388.5900115966797
 10
197.4500122070312
 20
388.5900115966797
 10
171.4900207519531
 20
388.5900115966797
 10
148.7300109863281
 20
366.27001953125
 10
148.7200164794922
 20
340.8100128173828
 10
148.7000122070312
 20
314.5800170898437
 10
171.4200134277344
 20
291.760009765625
 10
197.4900207519531
 20
291.8200073242187
 10
224.030029296875
 20
291.8800048828125
 10
246.1900177001953
 20
314.2100067138672
 10
246.1300201416015
 20
340.8200073242188
 10
246.1300201416015
 20
340.8200073242188
 10
246.1300048828125
 20
340.8200073242188
 10
246.1300048828125
 20
340.8200073242188
 97
        0
 97
        1
330
8C
 75
     2
 76
     1
 98
        1
 10
0.0
 20
0.0
450
        0
451
        0
460
0.0
461
0.0
452
        0
462
0.0
453
        0
470

  0
SPLINE
  5
8E
330
81
100
AcDbEntity
  8
Layer 1
100
AcDbSpline
210
0.0
220
0.0
230
1.0
 70
     9
 71
     3
 72
    20
 73
    16
 74
     0
 42
0.0000000001
 43
0.0000000001
 40
0.0
 40
0.0
 40
0.0
 40
0.0
 40
1.0
 40
1.0
 40
1.0
 40
2.0
 40
2.0
 40
2.0
 40
3.0
 40
3.0
 40
3.0
 40
4.0
 40
4.0
 40
4.0
 40
5.0
 40
5.0
 40
5.0
 40
5.0
 10
282.9700012207031
 20
220.5199890136719
 30
0.0
 10
272.6300048828125
 20
220.97998046875
 30
0.0
 10
273.4500122070313
 20
229.7799987792969
 30
0.0
 10
272.3399963378906
 20
236.1199951171875
 30
0.0
 10
271.6099853515625
 20
240.260009765625
 30
0.0
 10
274.8999938964844
 20
245.2200012207031
 30
0.0
 10
279.9199829101563
 20
244.1999969482422
 30
0.0
 10
288.1899719238281
 20
242.5199890136719
 30
0.0
 10
287.969970703125
 20
234.6300048828125
 30
0.0
 10
289.2599792480469
 20
229.010009765625
 30
0.0
 10
289.3399658203125
 20
223.8300170898437
 30
0.0
 10
288.4299926757813
 20
220.2799987792969
 30
0.0
 10
282.969970703125
 20
220.52001953125
 30
0.0
 10
282.969970703125
 20
220.52001953125
 30
0.0
 10
282.9700012207031
 20
220.5199890136719
 30
0.0
 10
282.9700012207031
 20
220.5199890136719
 30
0.0
  0
SPLINE
  5
8F
330
81
100
AcDbEntity
  8
Layer 1
100
AcDbSpline
210
0.0
220
0.0
230
1.0
 70
     9
 71
     3
 72
    17
 73
    13
 74
     0
 42
0.0000000001
 43
0.0000000001
 40
0.0
 40
0.0
 40
0.0
 40
0.0
 40
1.0
 40
1.0
 40
1.0
 40
2.0
 40
2.0
 40
2.0
 40
3.0
 40
3.0
 40
3.0
 40
4.0
 40
4.0
 40
4.0
 40
4.0
 10
266.5
 20
196.1799926757812
 30
0.0
 10
262.6799926757812
 20
196.5799865722656
 30
0.0
 10
261.0700073242187
 20
199.8999938964844
 30
0.0
 10
261.6600036621094
 20
204.1600036621094
 30
0.0
 10
262.75
 20
212.0500183105469
 30
0.0
 10
269.1400146484375
 20
215.0
 30
0.0
 10
275.6199951171875
 20
216.2099914550781
 30
0.0
 10
279.6199951171875
 20
216.9599914550781
 30
0.0
 10
284.1499938964844
 20
214.7200012207031
 30
0.0
 10
284.1499938964844
 20
209.1600036621094
 30
0.0
 10
284.1499938964844
 20
204.3200073242187
 30
0.0
 10
273.47998046875
 20
196.1000061035156
 30
0.0
 10
266.5
 20
196.1799926757812
 30
0.0
  0
SPLINE
  5
90
330
81
100
AcDbEntity
  8
Layer 1
100
AcDbSpline
210
0.0
220
0.0
230
1.0
 70
     9
 71
     3
 72
    20
 73
    16
 74
     0
 42
0.0000000001
 43
0.0000000001
 40
0.0
 40
0.0
 40
0.0
 40
0.0
 40
1.0
 40
1.0
 40
1.0
 40
2.0
 40
2.0
 40
2.0
 40
3.0
 40
3.0
 40
3.0
 40
4.0
 40
4.0
 40
4.0
 40
5.0
 40
5.0
 40
5.0
 40
5.0
 10
249.1399993896485
 20
224.6099853515625
 30
0.0
 10
248.8099975585937
 20
230.6299743652344
 30
0.0
 10
252.8999938964844
 20
233.97998046875
 30
0.0
 10
258.6799926757812
 20
235.22998046875
 30
0.0
 10
264.7099914550781
 20
234.5099792480469
 30
0.0
 10
268.6499938964844
 20
231.1999816894531
 30
0.0
 10
268.9299926757812
 20
225.2499694824219
 30
0.0
 10
269.1900024414063
 20
219.5599670410156
 30
0.0
 10
265.3599853515625
 20
216.0499572753906
 30
0.0
 10
259.8800048828125
 20
215.6299743652344
 30
0.0
 10
253.8400115966797
 20
215.1699829101563
 30
0.0
 10
249.4800109863281
 20
218.5199890136719
 30
0.0
 10
249.1500091552734
 20
224.6099853515625
 30
0.0
 10
249.1500091552734
 20
224.6099853515625
 30
0.0
 10
249.1399993896485
 20
224.6099853515625
 30
0.0
 10
249.1399993896485
 20
224.6099853515625
 30
0.0
  0
SPLINE
  5
91
330
81
100
AcDbEntity
  8
Layer 1
100
AcDbSpline
210
0.0
220
0.0
230
1.0
 70
     9
 71
     3
 72
    20
 73
    16
 74
     0
 42
0.0000000001
 43
0.0000000001
 40
0.0
 40
0.0
 40
0.0
 40
0.0
 40
1.0
 40
1.0
 40
1.0
 40
2.0
 40
2.0
 40
2.0
 40
3.0
 40
3.0
 40
3.0
 40
4.0
 40
4.0
 40
4.0
 40
5.0
 40
5.0
 40
5.0
 40
5.0
 10
250.9299926757813
 20
196.1499938964843
 30
0.0
 10
245.6299896240234
 20
195.4700012207031
 30
0.0
 10
234.4499969482422
 20
203.7699890136719
 30
0.0
 10
234.0
 20
208.6900024414063
 30
0.0
 10
233.4700012207031
 20
214.4700012207031
 30
0.0
 10
237.9400024414063
 20
215.3699951171875
 30
0.0
 10
242.6999969482422
 20
216.7699890136719
 30
0.0
 10
248.259994506836
 20
214.2699890136719
 30
0.0
 10
255.0
 20
212.47998046875
 30
0.0
 10
256.3999938964844
 20
204.7200012207031
 30
0.0
 10
257.1399841308594
 20
200.6199951171875
 30
0.0
 10
255.9599914550781
 20
196.7900085449219
 30
0.0
 10
250.9299926757813
 20
196.1400146484375
 30
0.0
 10
250.9299926757813
 20
196.1400146484375
 30
0.0
 10
250.9299926757813
 20
196.1499938964843
 30
0.0
 10
250.9299926757813
 20
196.1499938964843
 30
0.0
  0
SPLINE
  5
92
330
81
100
AcDbEntity
  8
Layer 1
100
AcDbSpline
210
0.0
220
0.0
230
1.0
 70
     9
 71
     3
 72
    17
 73
    13
 74
     0
 42
0.0000000001
 43
0.0000000001
 40
0.0
 40
0.0
 40
0.0
 40
0.0
 40
1.0
 40
1.0
 40
1.0
 40
2.0
 40
2.0
 40
2.0
 40
3.0
 40
3.0
 40
3.0
 40
4.0
 40
4.0
 40
4.0
 40
4.0
 10
228.7599945068359
 20
228.9700012207031
 30
0.0
 10
230.0099945068359
 20
234.7099914550781
 30
0.0
 10
229.9299926757813
 20
242.5400085449219
 30
0.0
 10
238.1900024414063
 20
244.2100067138672
 30
0.0
 10
243.25
 20
245.2300109863281
 30
0.0
 10
246.4700012207031
 20
240.2300109863281
 30
0.0
 10
245.75
 20
236.1000061035156
 30
0.0
 10
244.6499938964844
 20
229.7300109863281
 30
0.0
 10
245.3500061035156
 20
220.9599914550781
 30
0.0
 10
235.0599975585938
 20
220.510009765625
 30
0.0
 10
229.5899963378906
 20
220.27001953125
 30
0.0
 10
228.739990234375
 20
223.9100036621094
 30
0.0
 10
228.7599945068359
 20
228.9700012207031
 30
0.0
  0
SPLINE
  5
93
330
81
100
AcDbEntity
  8
Layer 1
100
AcDbSpline
210
0.0
220
0.0
230
1.0
 70
     9
 71
     3
 72
    20
 73
    16
 74
     0
 42
0.0000000001
 43
0.0000000001
 40
0.0
 40
0.0
 40
0.0
 40
0.0
 40
1.0
 40
1.0
 40
1.0
 40
2.0
 40
2.0
 40
2.0
 40
3.0
 40
3.0
 40
3.0
 40
4.0
 40
4.0
 40
4.0
 40
5.0
 40
5.0
 40
5.0
 40
5.0
 10
259.0
 20
255.3200073242187
 30
0.0
 10
264.0499877929688
 20
255.3400115966797
 30
0.0
 10
271.0599975585938
 20
256.1000061035156
 30
0.0
 10
271.0400085449219
 20
248.6100006103516
 30
0.0
 10
271.02001953125
 20
241.8399963378906
 30
0.0
 10
265.8000183105469
 20
239.2000122070312
 30
0.0
 10
259.0800170898437
 20
240.4100036621094
 30
0.0
 10
252.4200134277344
 20
239.2000122070312
 30
0.0
 10
247.1500244140625
 20
241.739990234375
 30
0.0
 10
247.0500183105469
 20
248.5299987792969
 30
0.0
 10
246.9300231933594
 20
256.0899963378906
 30
0.0
 10
253.9600219726562
 20
255.3000030517578
 30
0.0
 10
259.0000305175781
 20
255.3199920654297
 30
0.0
 10
259.0000305175781
 20
255.3199920654297
 30
0.0
 10
259.0
 20
255.3200073242187
 30
0.0
 10
259.0
 20
255.3200073242187
 30
0.0
  0
SPLINE
  5
94
330
81
100
AcDbEntity
  8
Layer 1
100
AcDbSpline
210
0.0
220
0.0
230
1.0
 70
     9
 71
     3
 72
    20
 73
    16
 74
     0
 42
0.0000000001
 43
0.0000000001
 40
0.0
 40
0.0
 40
0.0
 40
0.0
 40
1.0
 40
1.0
 40
1.0
 40
2.0
 40
2.0
 40
2.0
 40
3.0
 40
3.0
 40
3.0
 40
4.0
 40
4.0
 40
4.0
 40
5.0
 40
5.0
 40
5.0
 40
5.0
 10
259.1600036621094
 20
260.6600036621094
 30
0.0
 10
239.3399963378906
 20
260.7200012207031
 30
0.0
 10
223.0700073242187
 20
244.6600036621094
 30
0.0
 10
223.1600036621094
 20
225.1300048828125
 30
0.0
 10
223.25
 20
205.4599914550781
 30
0.0
 10
239.3200073242188
 20
189.3500061035156
 30
0.0
 10
258.8800048828125
 20
189.3200073242187
 30
0.0
 10
278.5
 20
189.2799987792969
 30
0.0
 10
294.75
 20
205.3200073242187
 30
0.0
 10
294.8800048828125
 20
224.8500061035156
 30
0.0
 10
295.010009765625
 20
244.5
 30
0.0
 10
278.9500122070312
 20
260.6100006103515
 30
0.0
 10
259.1499938964844
 20
260.6700134277344
 30
0.0
 10
259.1499938964844
 20
260.6700134277344
 30
0.0
 10
259.1600036621094
 20
260.6600036621094
 30
0.0
 10
259.1600036621094
 20
260.6600036621094
 30
0.0
  0
HATCH
  5
95
330
81
100
AcDbEntity
  8
Layer 1
 62
   246
420
  8590872
440
 33554687
100
AcDbHatch
 10
0.0
 20
0.0
 30
0.0
210
0.0
220
0.0
230
1.0
  2
SOLID
 70
     1
 71
     1
 91
        7
 92
        1
 93
        1
 72
     4
 94
        3
 73
     0
 74
     0
 95
       20
 96
       16
 40
0.0
 40
0.0
 40
0.0
 40
0.0
 40
1.0
 40
1.0
 40
1.0
 40
2.0
 40
2.0
 40
2.0
 40
3.0
 40
3.0
 40
3.0
 40
4.0
 40
4.0
 40
4.0
 40
5.0
 40
5.0
 40
5.0
 40
5.0
 10
282.9700012207031
 20
220.5199890136719
 10
272.6300048828125
 20
220.97998046875
 10
273.4500122070313
 20
229.7799987792969
 10
272.3399963378906
 20
236.1199951171875
 10
271.6099853515625
 20
240.260009765625
 10
274.8999938964844
 20
245.2200012207031
 10
279.9199829101563
 20
244.1999969482422
 10
288.1899719238281
 20
242.5199890136719
 10
287.969970703125
 20
234.6300048828125
 10
289.2599792480469
 20
229.010009765625
 10
289.3399658203125
 20
223.8300170898437
 10
288.4299926757813
 20
220.2799987792969
 10
282.969970703125
 20
220.52001953125
 10
282.969970703125
 20
220.52001953125
 10
282.9700012207031
 20
220.5199890136719
 10
282.9700012207031
 20
220.5199890136719
 97
        0
 97
        1
330
8E
 92
        1
 93
        1
 72
     4
 94
        3
 73
     0
 74
     0
 95
       17
 96
       13
 40
0.0
 40
0.0
 40
0.0
 40
0.0
 40
1.0
 40
1.0
 40
1.0
 40
2.0
 40
2.0
 40
2.0
 40
3.0
 40
3.0
 40
3.0
 40
4.0
 40
4.0
 40
4.0
 40
4.0
 10
266.5
 20
196.1799926757812
 10
262.6799926757812
 20
196.5799865722656
 10
261.0700073242187
 20
199.8999938964844
 10
261.6600036621094
 20
204.1600036621094
 10
262.75
 20
212.0500183105469
 10
269.1400146484375
 20
215.0
 10
275.6199951171875
 20
216.2099914550781
 10
279.6199951171875
 20
216.9599914550781
 10
284.1499938964844
 20
214.7200012207031
 10
284.1499938964844
 20
209.1600036621094
 10
284.1499938964844
 20
204.3200073242187
 10
273.47998046875
 20
196.1000061035156
 10
266.5
 20
196.1799926757812
 97
        0
 97
        1
330
8F
 92
        1
 93
        1
 72
     4
 94
        3
 73
     0
 74
     0
 95
       20
 96
       16
 40
0.0
 40
0.0
 40
0.0
 40
0.0
 40
1.0
 40
1.0
 40
1.0
 40
2.0
 40
2.0
 40
2.0
 40
3.0
 40
3.0
 40
3.0
 40
4.0
 40
4.0
 40
4.0
 40
5.0
 40
5.0
 40
5.0
 40
5.0
 10
249.1399993896485
 20
224.6099853515625
 10
248.8099975585937
 20
230.6299743652344
 10
252.8999938964844
 20
233.97998046875
 10
258.6799926757812
 20
235.22998046875
 10
264.7099914550781
 20
234.5099792480469
 10
268.6499938964844
 20
231.1999816894531
 10
268.9299926757812
 20
225.2499694824219
 10
269.1900024414063
 20
219.5599670410156
 10
265.3599853515625
 20
216.0499572753906
 10
259.8800048828125
 20
215.6299743652344
 10
253.8400115966797
 20
215.1699829101563
 10
249.4800109863281
 20
218.5199890136719
 10
249.1500091552734
 20
224.6099853515625
 10
249.1500091552734
 20
224.6099853515625
 10
249.1399993896485
 20
224.6099853515625
 10
249.1399993896485
 20
224.6099853515625
 97
        0
 97
        1
330
90
 92
        1
 93
        1
 72
     4
 94
        3
 73
     0
 74
     0
 95
       20
 96
       16
 40
0.0
 40
0.0
 40
0.0
 40
0.0
 40
1.0
 40
1.0
 40
1.0
 40
2.0
 40
2.0
 40
2.0
 40
3.0
 40
3.0
 40
3.0
 40
4.0
 40
4.0
 40
4.0
 40
5.0
 40
5.0
 40
5.0
 40
5.0
 10
250.9299926757813
 20
196.1499938964843
 10
245.6299896240234
 20
195.4700012207031
 10
234.4499969482422
 20
203.7699890136719
 10
234.0
 20
208.6900024414063
 10
233.4700012207031
 20
214.4700012207031
 10
237.9400024414063
 20
215.3699951171875
 10
242.6999969482422
 20
216.7699890136719
 10
248.259994506836
 20
214.2699890136719
 10
255.0
 20
212.47998046875
 10
256.3999938964844
 20
204.7200012207031
 10
257.1399841308594
 20
200.6199951171875
 10
255.9599914550781
 20
196.7900085449219
 10
250.9299926757813
 20
196.1400146484375
 10
250.9299926757813
 20
196.1400146484375
 10
250.9299926757813
 20
196.1499938964843
 10
250.9299926757813
 20
196.1499938964843
 97
        0
 97
        1
330
91
 92
        1
 93
        1
 72
     4
 94
        3
 73
     0
 74
     0
 95
       17
 96
       13
 40
0.0
 40
0.0
 40
0.0
 40
0.0
 40
1.0
 40
1.0
 40
1.0
 40
2.0
 40
2.0
 40
2.0
 40
3.0
 40
3.0
 40
3.0
 40
4.0
 40
4.0
 40
4.0
 40
4.0
 10
228.7599945068359
 20
228.9700012207031
 10
230.0099945068359
 20
234.7099914550781
 10
229.9299926757813
 20
242.5400085449219
 10
238.1900024414063
 20
244.2100067138672
 10
243.25
 20
245.2300109863281
 10
246.4700012207031
 20
240.2300109863281
 10
245.75
 20
236.1000061035156
 10
244.6499938964844
 20
229.7300109863281
 10
245.3500061035156
 20
220.9599914550781
 10
235.0599975585938
 20
220.510009765625
 10
229.5899963378906
 20
220.27001953125
 10
228.739990234375
 20
223.9100036621094
 10
228.7599945068359
 20
228.9700012207031
 97
        0
 97
        1
330
92
 92
        1
 93
        1
 72
     4
 94
        3
 73
     0
 74
     0
 95
       20
 96
       16
 40
0.0
 40
0.0
 40
0.0
 40
0.0
 40
1.0
 40
1.0
 40
1.0
 40
2.0
 40
2.0
 40
2.0
 40
3.0
 40
3.0
 40
3.0
 40
4.0
 40
4.0
 40
4.0
 40
5.0
 40
5.0
 40
5.0
 40
5.0
 10
259.0
 20
255.3200073242187
 10
264.0499877929688
 20
255.3400115966797
 10
271.0599975585938
 20
256.1000061035156
 10
271.0400085449219
 20
248.6100006103516
 10
271.02001953125
 20
241.8399963378906
 10
265.8000183105469
 20
239.2000122070312
 10
259.0800170898437
 20
240.4100036621094
 10
252.4200134277344
 20
239.2000122070312
 10
247.1500244140625
 20
241.739990234375
 10
247.0500183105469
 20
248.5299987792969
 10
246.9300231933594
 20
256.0899963378906
 10
253.9600219726562
 20
255.3000030517578
 10
259.0000305175781
 20
255.3199920654297
 10
259.0000305175781
 20
255.3199920654297
 10
259.0
 20
255.3200073242187
 10
259.0
 20
255.3200073242187
 97
        0
 97
        1
330
93
 92
        1
 93
        1
 72
     4
 94
        3
 73
     0
 74
     0
 95
       20
 96
       16
 40
0.0
 40
0.0
 40
0.0
 40
0.0
 40
1.0
 40
1.0
 40
1.0
 40
2.0
 40
2.0
 40
2.0
 40
3.0
 40
3.0
 40
3.0
 40
4.0
 40
4.0
 40
4.0
 40
5.0
 40
5.0
 40
5.0
 40
5.0
 10
259.1600036621094
 20
260.6600036621094
 10
239.3399963378906
 20
260.7200012207031
 10
223.0700073242187
 20
244.6600036621094
 10
223.1600036621094
 20
225.1300048828125
 10
223.25
 20
205.4599914550781
 10
239.3200073242188
 20
189.3500061035156
 10
258.8800048828125
 20
189.3200073242187
 10
278.5
 20
189.2799987792969
 10
294.75
 20
205.3200073242187
 10
294.8800048828125
 20
224.8500061035156
 10
295.010009765625
 20
244.5
 10
278.9500122070312
 20
260.6100006103515
 10
259.1499938964844
 20
260.6700134277344
 10
259.1499938964844
 20
260.6700134277344
 10
259.1600036621094
 20
260.6600036621094
 10
259.1600036621094
 20
260.6600036621094
 97
        0
 97
        1
330
94
 75
     2
 76
     1
 98
        1
 10
0.0
 20
0.0
450
        0
451
        0
460
0.0
461
0.0
452
        0
462
0.0
453
        0
470

  0
SPLINE
  5
96
330
81
100
AcDbEntity
  8
Layer 1
100
AcDbSpline
210
0.0
220
0.0
230
1.0
 70
     9
 71
     3
 72
    20
 73
    16
 74
     0
 42
0.0000000001
 43
0.0000000001
 40
0.0
 40
0.0
 40
0.0
 40
0.0
 40
1.0
 40
1.0
 40
1.0
 40
2.0
 40
2.0
 40
2.0
 40
3.0
 40
3.0
 40
3.0
 40
4.0
 40
4.0
 40
4.0
 40
5.0
 40
5.0
 40
5.0
 40
5.0
 10
350.1699829101562
 20
114.9700317382812
 30
0.0
 10
350.0299682617188
 20
110.3600463867187
 30
0.0
 10
349.5799865722656
 20
105.9700317382812
 30
0.0
 10
344.3699951171875
 20
106.1200256347656
 30
0.0
 10
335.6900024414063
 20
106.3700256347656
 30
0.0
 10
335.1699829101562
 20
113.530029296875
 30
0.0
 10
334.5
 20
119.77001953125
 30
0.0
 10
334.0400085449219
 20
124.030029296875
 30
0.0
 10
336.2799987792969
 20
128.1000061035156
 30
0.0
 10
340.8699951171875
 20
127.6800231933594
 30
0.0
 10
348.4599914550781
 20
126.9900207519531
 30
0.0
 10
349.1999816894531
 20
120.3800354003906
 30
0.0
 10
350.1699829101562
 20
114.9600219726562
 30
0.0
 10
350.1699829101562
 20
114.9600219726562
 30
0.0
 10
350.1699829101562
 20
114.9700317382812
 30
0.0
 10
350.1699829101562
 20
114.9700317382812
 30
0.0
  0
SPLINE
  5
97
330
81
100
AcDbEntity
  8
Layer 1
100
AcDbSpline
210
0.0
220
0.0
230
1.0
 70
     9
 71
     3
 72
    20
 73
    16
 74
     0
 42
0.0000000001
 43
0.0000000001
 40
0.0
 40
0.0
 40
0.0
 40
0.0
 40
1.0
 40
1.0
 40
1.0
 40
2.0
 40
2.0
 40
2.0
 40
3.0
 40
3.0
 40
3.0
 40
4.0
 40
4.0
 40
4.0
 40
5.0
 40
5.0
 40
5.0
 40
5.0
 10
344.4299926757813
 20
93.93002319335938
 30
0.0
 10
343.4100036621094
 20
86.22003173828124
 30
0.0
 10
336.9700012207031
 20
83.54000854492188
 30
0.0
 10
330.6699829101563
 20
81.79000854492187
 30
0.0
 10
325.9499816894531
 20
81.92001342773437
 30
0.0
 10
323.3599853515625
 20
84.20001220703126
 30
0.0
 10
323.7599792480469
 20
88.38000488281251
 30
0.0
 10
324.47998046875
 20
95.88000488281251
 30
0.0
 10
330.0199890136719
 20
99.23999023437501
 30
0.0
 10
336.5699768066406
 20
100.3000183105468
 30
0.0
 10
340.6199645996094
 20
100.9600219726562
 30
0.0
 10
345.0499877929687
 20
98.62002563476563
 30
0.0
 10
344.4299621582031
 20
93.93002319335938
 30
0.0
 10
344.4299621582031
 20
93.93002319335938
 30
0.0
 10
344.4299926757813
 20
93.93002319335938
 30
0.0
 10
344.4299926757813
 20
93.93002319335938
 30
0.0
  0
SPLINE
  5
98
330
81
100
AcDbEntity
  8
Layer 1
100
AcDbSpline
210
0.0
220
0.0
230
1.0
 70
     9
 71
     3
 72
    20
 73
    16
 74
     0
 42
0.0000000001
 43
0.0000000001
 40
0.0
 40
0.0
 40
0.0
 40
0.0
 40
1.0
 40
1.0
 40
1.0
 40
2.0
 40
2.0
 40
2.0
 40
3.0
 40
3.0
 40
3.0
 40
4.0
 40
4.0
 40
4.0
 40
5.0
 40
5.0
 40
5.0
 40
5.0
 10
320.1900024414062
 20
100.9100341796875
 30
0.0
 10
314.6600036621094
 20
101.2900390625
 30
0.0
 10
310.9700012207031
 20
105.0100402832031
 30
0.0
 10
311.3900146484375
 20
110.7900390625
 30
0.0
 10
311.8000183105469
 20
116.3500366210937
 30
0.0
 10
316.1000061035156
 20
118.1300354003906
 30
0.0
 10
321.1900024414063
 20
118.2900390625
 30
0.0
 10
326.3600158691406
 20
117.7400512695312
 30
0.0
 10
330.2900085449219
 20
115.3400268554687
 30
0.0
 10
329.989990234375
 20
109.7900390625
 30
0.0
 10
329.6799926757813
 20
104.1600341796875
 30
0.0
 10
325.8899841308594
 20
100.530029296875
 30
0.0
 10
320.1999816894531
 20
100.9200439453125
 30
0.0
 10
320.1999816894531
 20
100.9200439453125
 30
0.0
 10
320.1900024414062
 20
100.9100341796875
 30
0.0
 10
320.1900024414062
 20
100.9100341796875
 30
0.0
  0
SPLINE
  5
99
330
81
100
AcDbEntity
  8
Layer 1
100
AcDbSpline
210
0.0
220
0.0
230
1.0
 70
     9
 71
     3
 72
    20
 73
    16
 74
     0
 42
0.0000000001
 43
0.0000000001
 40
0.0
 40
0.0
 40
0.0
 40
0.0
 40
1.0
 40
1.0
 40
1.0
 40
2.0
 40
2.0
 40
2.0
 40
3.0
 40
3.0
 40
3.0
 40
4.0
 40
4.0
 40
4.0
 40
5.0
 40
5.0
 40
5.0
 40
5.0
 10
311.1600036621094
 20
81.74002075195312
 30
0.0
 10
304.0599975585938
 20
82.64001464843749
 30
0.0
 10
298.2200012207031
 20
86.37002563476562
 30
0.0
 10
296.9700012207031
 20
93.780029296875
 30
0.0
 10
296.1799926757812
 20
98.49002075195313
 30
0.0
 10
300.6100158691406
 20
100.9500427246093
 30
0.0
 10
304.6400146484375
 20
100.2900390625
 30
0.0
 10
311.1900024414063
 20
99.21005249023437
 30
0.0
 10
316.0800170898438
 20
95.32003784179687
 30
0.0
 10
317.7200012207031
 20
88.98004150390624
 30
0.0
 10
317.4500122070313
 20
84.1800537109375
 30
0.0
 10
315.3099975585937
 20
81.22003173828124
 30
0.0
 10
311.1600036621094
 20
81.74005126953124
 30
0.0
 10
311.1600036621094
 20
81.74005126953124
 30
0.0
 10
311.1600036621094
 20
81.74002075195312
 30
0.0
 10
311.1600036621094
 20
81.74002075195312
 30
0.0
  0
SPLINE
  5
9A
330
81
100
AcDbEntity
  8
Layer 1
100
AcDbSpline
210
0.0
220
0.0
230
1.0
 70
     9
 71
     3
 72
    20
 73
    16
 74
     0
 42
0.0000000001
 43
0.0000000001
 40
0.0
 40
0.0
 40
0.0
 40
0.0
 40
1.0
 40
1.0
 40
1.0
 40
2.0
 40
2.0
 40
2.0
 40
3.0
 40
3.0
 40
3.0
 40
4.0
 40
4.0
 40
4.0
 40
5.0
 40
5.0
 40
5.0
 40
5.0
 10
291.3500061035156
 20
115.1200256347656
 30
0.0
 10
291.9500122070313
 20
120.77001953125
 30
0.0
 10
292.9599914550781
 20
127.0900268554687
 30
0.0
 10
299.9400024414062
 20
127.8500366210937
 30
0.0
 10
305.2099914550781
 20
128.4200439453125
 30
0.0
 10
306.75
 20
123.9600219726562
 30
0.0
 10
306.7900085449219
 20
119.2900390625
 30
0.0
 10
305.5400085449219
 20
113.4800415039062
 30
0.0
 10
305.5299987792969
 20
106.5000305175781
 30
0.0
 10
297.3900146484375
 20
106.1600341796875
 30
0.0
 10
291.510009765625
 20
105.9100341796875
 30
0.0
 10
290.8800048828125
 20
110.7200317382812
 30
0.0
 10
291.3500061035156
 20
115.1300354003906
 30
0.0
 10
291.3500061035156
 20
115.1300354003906
 30
0.0
 10
291.3500061035156
 20
115.1200256347656
 30
0.0
 10
291.3500061035156
 20
115.1200256347656
 30
0.0
  0
SPLINE
  5
9B
330
81
100
AcDbEntity
  8
Layer 1
100
AcDbSpline
210
0.0
220
0.0
230
1.0
 70
     9
 71
     3
 72
    20
 73
    16
 74
     0
 42
0.0000000001
 43
0.0000000001
 40
0.0
 40
0.0
 40
0.0
 40
0.0
 40
1.0
 40
1.0
 40
1.0
 40
2.0
 40
2.0
 40
2.0
 40
3.0
 40
3.0
 40
3.0
 40
4.0
 40
4.0
 40
4.0
 40
5.0
 40
5.0
 40
5.0
 40
5.0
 10
320.27001953125
 20
140.02001953125
 30
0.0
 10
325.6500244140625
 20
139.5000305175781
 30
0.0
 10
331.77001953125
 20
139.9500122070312
 30
0.0
 10
331.6000061035156
 20
133.0500183105469
 30
0.0
 10
331.4500122070313
 20
127.0000305175781
 30
0.0
 10
326.2099914550781
 20
125.4500122070312
 30
0.0
 10
320.8999938964844
 20
125.4700317382812
 30
0.0
 10
315.3500061035156
 20
125.4900207519531
 30
0.0
 10
309.4400024414063
 20
126.4900207519531
 30
0.0
 10
309.6000061035156
 20
133.3900451660156
 30
0.0
 10
309.760009765625
 20
140.0900573730468
 30
0.0
 10
316.0400085449219
 20
139.4000549316406
 30
0.0
 10
320.27001953125
 20
140.0200500488281
 30
0.0
 10
320.27001953125
 20
140.0200500488281
 30
0.0
 10
320.27001953125
 20
140.02001953125
 30
0.0
 10
320.27001953125
 20
140.02001953125
 30
0.0
  0
SPLINE
  5
9C
330
81
100
AcDbEntity
  8
Layer 1
100
AcDbSpline
210
0.0
220
0.0
230
1.0
 70
     9
 71
     3
 72
    20
 73
    16
 74
     0
 42
0.0000000001
 43
0.0000000001
 40
0.0
 40
0.0
 40
0.0
 40
0.0
 40
1.0
 40
1.0
 40
1.0
 40
2.0
 40
2.0
 40
2.0
 40
3.0
 40
3.0
 40
3.0
 40
4.0
 40
4.0
 40
4.0
 40
5.0
 40
5.0
 40
5.0
 40
5.0
 10
319.9800109863281
 20
145.8900146484375
 30
0.0
 10
301.3300170898438
 20
145.5400085449219
 30
0.0
 10
284.8500061035156
 20
128.760009765625
 30
0.0
 10
284.8699951171875
 20
110.1300048828125
 30
0.0
 10
284.8899841308594
 20
89.98001098632812
 30
0.0
 10
300.4700012207031
 20
74.29000854492187
 30
0.0
 10
320.5299987792969
 20
74.239990234375
 30
0.0
 10
339.4299926757812
 20
74.19000244140625
 30
0.0
 10
356.25
 20
90.5
 30
0.0
 10
356.4299926757812
 20
109.0399780273437
 30
0.0
 10
356.6300048828125
 20
128.6499633789062
 30
0.0
 10
339.2200012207031
 20
146.239990234375
 30
0.0
 10
319.97998046875
 20
145.8799743652344
 30
0.0
 10
319.97998046875
 20
145.8799743652344
 30
0.0
 10
319.9800109863281
 20
145.8900146484375
 30
0.0
 10
319.9800109863281
 20
145.8900146484375
 30
0.0
  0
HATCH
  5
9D
330
81
100
AcDbEntity
  8
Layer 1
 62
   168
420
   922409
440
 33554687
100
AcDbHatch
 10
0.0
 20
0.0
 30
0.0
210
0.0
220
0.0
230
1.0
  2
SOLID
 70
     1
 71
     1
 91
        7
 92
        1
 93
        1
 72
     4
 94
        3
 73
     0
 74
     0
 95
       20
 96
       16
 40
0.0
 40
0.0
 40
0.0
 40
0.0
 40
1.0
 40
1.0
 40
1.0
 40
2.0
 40
2.0
 40
2.0
 40
3.0
 40
3.0
 40
3.0
 40
4.0
 40
4.0
 40
4.0
 40
5.0
 40
5.0
 40
5.0
 40
5.0
 10
350.1699829101562
 20
114.9700317382812
 10
350.0299682617188
 20
110.3600463867187
 10
349.5799865722656
 20
105.9700317382812
 10
344.3699951171875
 20
106.1200256347656
 10
335.6900024414063
 20
106.3700256347656
 10
335.1699829101562
 20
113.530029296875
 10
334.5
 20
119.77001953125
 10
334.0400085449219
 20
124.030029296875
 10
336.2799987792969
 20
128.1000061035156
 10
340.8699951171875
 20
127.6800231933594
 10
348.4599914550781
 20
126.9900207519531
 10
349.1999816894531
 20
120.3800354003906
 10
350.1699829101562
 20
114.9600219726562
 10
350.1699829101562
 20
114.9600219726562
 10
350.1699829101562
 20
114.9700317382812
 10
350.1699829101562
 20
114.9700317382812
 97
        0
 97
        1
330
96
 92
        1
 93
        1
 72
     4
 94
        3
 73
     0
 74
     0
 95
       20
 96
       16
 40
0.0
 40
0.0
 40
0.0
 40
0.0
 40
1.0
 40
1.0
 40
1.0
 40
2.0
 40
2.0
 40
2.0
 40
3.0
 40
3.0
 40
3.0
 40
4.0
 40
4.0
 40
4.0
 40
5.0
 40
5.0
 40
5.0
 40
5.0
 10
344.4299926757813
 20
93.93002319335938
 10
343.4100036621094
 20
86.22003173828124
 10
336.9700012207031
 20
83.54000854492188
 10
330.6699829101563
 20
81.79000854492187
 10
325.9499816894531
 20
81.92001342773437
 10
323.3599853515625
 20
84.20001220703126
 10
323.7599792480469
 20
88.38000488281251
 10
324.47998046875
 20
95.88000488281251
 10
330.0199890136719
 20
99.23999023437501
 10
336.5699768066406
 20
100.3000183105468
 10
340.6199645996094
 20
100.9600219726562
 10
345.0499877929687
 20
98.62002563476563
 10
344.4299621582031
 20
93.93002319335938
 10
344.4299621582031
 20
93.93002319335938
 10
344.4299926757813
 20
93.93002319335938
 10
344.4299926757813
 20
93.93002319335938
 97
        0
 97
        1
330
97
 92
        1
 93
        1
 72
     4
 94
        3
 73
     0
 74
     0
 95
       20
 96
       16
 40
0.0
 40
0.0
 40
0.0
 40
0.0
 40
1.0
 40
1.0
 40
1.0
 40
2.0
 40
2.0
 40
2.0
 40
3.0
 40
3.0
 40
3.0
 40
4.0
 40
4.0
 40
4.0
 40
5.0
 40
5.0
 40
5.0
 40
5.0
 10
320.1900024414062
 20
100.9100341796875
 10
314.6600036621094
 20
101.2900390625
 10
310.9700012207031
 20
105.0100402832031
 10
311.3900146484375
 20
110.7900390625
 10
311.8000183105469
 20
116.3500366210937
 10
316.1000061035156
 20
118.1300354003906
 10
321.1900024414063
 20
118.2900390625
 10
326.3600158691406
 20
117.7400512695312
 10
330.2900085449219
 20
115.3400268554687
 10
329.989990234375
 20
109.7900390625
 10
329.6799926757813
 20
104.1600341796875
 10
325.8899841308594
 20
100.530029296875
 10
320.1999816894531
 20
100.9200439453125
 10
320.1999816894531
 20
100.9200439453125
 10
320.1900024414062
 20
100.9100341796875
 10
320.1900024414062
 20
100.9100341796875
 97
        0
 97
        1
330
98
 92
        1
 93
        1
 72
     4
 94
        3
 73
     0
 74
     0
 95
       20
 96
       16
 40
0.0
 40
0.0
 40
0.0
 40
0.0
 40
1.0
 40
1.0
 40
1.0
 40
2.0
 40
2.0
 40
2.0
 40
3.0
 40
3.0
 40
3.0
 40
4.0
 40
4.0
 40
4.0
 40
5.0
 40
5.0
 40
5.0
 40
5.0
 10
311.1600036621094
 20
81.74002075195312
 10
304.0599975585938
 20
82.64001464843749
 10
298.2200012207031
 20
86.37002563476562
 10
296.9700012207031
 20
93.780029296875
 10
296.1799926757812
 20
98.49002075195313
 10
300.6100158691406
 20
100.9500427246093
 10
304.6400146484375
 20
100.2900390625
 10
311.1900024414063
 20
99.21005249023437
 10
316.0800170898438
 20
95.32003784179687
 10
317.7200012207031
 20
88.98004150390624
 10
317.4500122070313
 20
84.1800537109375
 10
315.3099975585937
 20
81.22003173828124
 10
311.1600036621094
 20
81.74005126953124
 10
311.1600036621094
 20
81.74005126953124
 10
311.1600036621094
 20
81.74002075195312
 10
311.1600036621094
 20
81.74002075195312
 97
        0
 97
        1
330
99
 92
        1
 93
        1
 72
     4
 94
        3
 73
     0
 74
     0
 95
       20
 96
       16
 40
0.0
 40
0.0
 40
0.0
 40
0.0
 40
1.0
 40
1.0
 40
1.0
 40
2.0
 40
2.0
 40
2.0
 40
3.0
 40
3.0
 40
3.0
 40
4.0
 40
4.0
 40
4.0
 40
5.0
 40
5.0
 40
5.0
 40
5.0
 10
291.3500061035156
 20
115.1200256347656
 10
291.9500122070313
 20
120.77001953125
 10
292.9599914550781
 20
127.0900268554687
 10
299.9400024414062
 20
127.8500366210937
 10
305.2099914550781
 20
128.4200439453125
 10
306.75
 20
123.9600219726562
 10
306.7900085449219
 20
119.2900390625
 10
305.5400085449219
 20
113.4800415039062
 10
305.5299987792969
 20
106.5000305175781
 10
297.3900146484375
 20
106.1600341796875
 10
291.510009765625
 20
105.9100341796875
 10
290.8800048828125
 20
110.7200317382812
 10
291.3500061035156
 20
115.1300354003906
 10
291.3500061035156
 20
115.1300354003906
 10
291.3500061035156
 20
115.1200256347656
 10
291.3500061035156
 20
115.1200256347656
 97
        0
 97
        1
330
9A
 92
        1
 93
        1
 72
     4
 94
        3
 73
     0
 74
     0
 95
       20
 96
       16
 40
0.0
 40
0.0
 40
0.0
 40
0.0
 40
1.0
 40
1.0
 40
1.0
 40
2.0
 40
2.0
 40
2.0
 40
3.0
 40
3.0
 40
3.0
 40
4.0
 40
4.0
 40
4.0
 40
5.0
 40
5.0
 40
5.0
 40
5.0
 10
320.27001953125
 20
140.02001953125
 10
325.6500244140625
 20
139.5000305175781
 10
331.77001953125
 20
139.9500122070312
 10
331.6000061035156
 20
133.0500183105469
 10
331.4500122070313
 20
127.0000305175781
 10
326.2099914550781
 20
125.4500122070312
 10
320.8999938964844
 20
125.4700317382812
 10
315.3500061035156
 20
125.4900207519531
 10
309.4400024414063
 20
126.4900207519531
 10
309.6000061035156
 20
133.3900451660156
 10
309.760009765625
 20
140.0900573730468
 10
316.0400085449219
 20
139.4000549316406
 10
320.27001953125
 20
140.0200500488281
 10
320.27001953125
 20
140.0200500488281
 10
320.27001953125
 20
140.02001953125
 10
320.27001953125
 20
140.02001953125
 97
        0
 97
        1
330
9B
 92
        1
 93
        1
 72
     4
 94
        3
 73
     0
 74
     0
 95
       20
 96
       16
 40
0.0
 40
0.0
 40
0.0
 40
0.0
 40
1.0
 40
1.0
 40
1.0
 40
2.0
 40
2.0
 40
2.0
 40
3.0
 40
3.0
 40
3.0
 40
4.0
 40
4.0
 40
4.0
 40
5.0
 40
5.0
 40
5.0
 40
5.0
 10
319.9800109863281
 20
145.8900146484375
 10
301.3300170898438
 20
145.5400085449219
 10
284.8500061035156
 20
128.760009765625
 10
284.8699951171875
 20
110.1300048828125
 10
284.8899841308594
 20
89.98001098632812
 10
300.4700012207031
 20
74.29000854492187
 10
320.5299987792969
 20
74.239990234375
 10
339.4299926757812
 20
74.19000244140625
 10
356.25
 20
90.5
 10
356.4299926757812
 20
109.0399780273437
 10
356.6300048828125
 20
128.6499633789062
 10
339.2200012207031
 20
146.239990234375
 10
319.97998046875
 20
145.8799743652344
 10
319.97998046875
 20
145.8799743652344
 10
319.9800109863281
 20
145.8900146484375
 10
319.9800109863281
 20
145.8900146484375
 97
        0
 97
        1
330
9C
 75
     2
 76
     1
 98
        1
 10
0.0
 20
0.0
450
        0
451
        0
460
0.0
461
0.0
452
        0
462
0.0
453
        0
470

  0
SPLINE
  5
9E
330
81
100
AcDbEntity
  8
Layer 1
100
AcDbSpline
210
0.0
220
0.0
230
1.0
 70
     9
 71
     3
 72
    20
 73
    16
 74
     0
 42
0.0000000001
 43
0.0000000001
 40
0.0
 40
0.0
 40
0.0
 40
0.0
 40
1.0
 40
1.0
 40
1.0
 40
2.0
 40
2.0
 40
2.0
 40
3.0
 40
3.0
 40
3.0
 40
4.0
 40
4.0
 40
4.0
 40
5.0
 40
5.0
 40
5.0
 40
5.0
 10
220.9300079345703
 20
337.1100006103516
 30
0.0
 10
213.3700103759766
 20
337.0800018310547
 30
0.0
 10
212.3500061035156
 20
343.4300079345703
 30
0.0
 10
211.5600128173828
 20
349.0599975585937
 30
0.0
 10
210.8800201416016
 20
353.9100036621094
 30
0.0
 10
213.0400085449219
 20
358.0899963378906
 30
0.0
 10
218.3400115966797
 20
357.5699920654297
 30
0.0
 10
224.9500122070312
 20
356.9299926757813
 30
0.0
 10
225.6600189208985
 20
350.8899993896485
 30
0.0
 10
226.7000122070312
 20
346.0899963378906
 30
0.0
 10
226.6700134277344
 20
341.4799957275391
 30
0.0
 10
225.9200134277344
 20
337.1299896240234
 30
0.0
 10
220.9200134277344
 20
337.1100006103516
 30
0.0
 10
220.9200134277344
 20
337.1100006103516
 30
0.0
 10
220.9300079345703
 20
337.1100006103516
 30
0.0
 10
220.9300079345703
 20
337.1100006103516
 30
0.0
  0
SPLINE
  5
9F
330
81
100
AcDbEntity
  8
Layer 1
100
AcDbSpline
210
0.0
220
0.0
230
1.0
 70
     9
 71
     3
 72
    20
 73
    16
 74
     0
 42
0.0000000001
 43
0.0000000001
 40
0.0
 40
0.0
 40
0.0
 40
0.0
 40
1.0
 40
1.0
 40
1.0
 40
2.0
 40
2.0
 40
2.0
 40
3.0
 40
3.0
 40
3.0
 40
4.0
 40
4.0
 40
4.0
 40
5.0
 40
5.0
 40
5.0
 40
5.0
 10
221.5400085449219
 20
324.5599975585938
 30
0.0
 10
220.6700134277344
 20
316.6100006103516
 30
0.0
 10
214.2300109863281
 20
314.1499938964844
 30
0.0
 10
208.2000122070312
 20
312.4599914550781
 30
0.0
 10
203.2800140380859
 20
312.3299865722656
 30
0.0
 10
200.8500061035156
 20
314.3899841308594
 30
0.0
 10
200.4900054931641
 20
318.5799865722656
 30
0.0
 10
200.0600128173828
 20
323.6699829101563
 30
0.0
 10
208.2200012207031
 20
330.5999908447266
 30
0.0
 10
214.5
 20
330.5699920654297
 30
0.0
 10
218.5399932861328
 20
330.5499877929687
 30
0.0
 10
222.0
 20
328.7699890136719
 30
0.0
 10
221.5399932861328
 20
324.5599975585938
 30
0.0
 10
221.5399932861328
 20
324.5599975585938
 30
0.0
 10
221.5400085449219
 20
324.5599975585938
 30
0.0
 10
221.5400085449219
 20
324.5599975585938
 30
0.0
  0
SPLINE
  5
A0
330
81
100
AcDbEntity
  8
Layer 1
100
AcDbSpline
210
0.0
220
0.0
230
1.0
 70
     9
 71
     3
 72
    20
 73
    16
 74
     0
 42
0.0000000001
 43
0.0000000001
 40
0.0
 40
0.0
 40
0.0
 40
0.0
 40
1.0
 40
1.0
 40
1.0
 40
2.0
 40
2.0
 40
2.0
 40
3.0
 40
3.0
 40
3.0
 40
4.0
 40
4.0
 40
4.0
 40
5.0
 40
5.0
 40
5.0
 40
5.0
 10
197.4600067138672
 20
331.989990234375
 30
0.0
 10
191.7000122070312
 20
332.0999908447266
 30
0.0
 10
187.9300079345703
 20
335.1599884033203
 30
0.0
 10
188.3800048828125
 20
341.0999908447266
 30
0.0
 10
188.760009765625
 20
346.2199859619141
 30
0.0
 10
192.3800048828125
 20
349.489990234375
 30
0.0
 10
197.5700073242187
 20
349.3399963378906
 30
0.0
 10
203.2300109863281
 20
349.1699981689453
 30
0.0
 10
206.1800079345703
 20
345.4100036621094
 30
0.0
 10
206.9300079345703
 20
340.0500030517578
 30
0.0
 10
206.0400085449219
 20
334.4700012207031
 30
0.0
 10
202.6800079345703
 20
331.8899993896484
 30
0.0
 10
197.4600067138672
 20
331.9900054931641
 30
0.0
 10
197.4600067138672
 20
331.9900054931641
 30
0.0
 10
197.4600067138672
 20
331.989990234375
 30
0.0
 10
197.4600067138672
 20
331.989990234375
 30
0.0
  0
SPLINE
  5
A1
330
81
100
AcDbEntity
  8
Layer 1
100
AcDbSpline
210
0.0
220
0.0
230
1.0
 70
     9
 71
     3
 72
    20
 73
    16
 74
     0
 42
0.0000000001
 43
0.0000000001
 40
0.0
 40
0.0
 40
0.0
 40
0.0
 40
1.0
 40
1.0
 40
1.0
 40
2.0
 40
2.0
 40
2.0
 40
3.0
 40
3.0
 40
3.0
 40
4.0
 40
4.0
 40
4.0
 40
5.0
 40
5.0
 40
5.0
 40
5.0
 10
187.1900024414062
 20
312.5899963378906
 30
0.0
 10
180.25
 20
313.7299957275391
 30
0.0
 10
174.0899963378906
 20
316.8199920654297
 30
0.0
 10
173.3600006103515
 20
324.7599945068359
 30
0.0
 10
172.9700012207031
 20
328.989990234375
 30
0.0
 10
176.6199951171875
 20
330.5399932861328
 30
0.0
 10
181.1900024414062
 20
330.6199951171875
 30
0.0
 10
186.6600036621093
 20
328.6900024414062
 30
0.0
 10
193.25
 20
327.0499877929688
 30
0.0
 10
194.2700042724609
 20
319.4400024414063
 30
0.0
 10
194.8899993896484
 20
314.8200073242187
 30
0.0
 10
191.9199981689453
 20
311.8200073242188
 30
0.0
 10
187.1800079345703
 20
312.5899963378906
 30
0.0
 10
187.1800079345703
 20
312.5899963378906
 30
0.0
 10
187.1900024414062
 20
312.5899963378906
 30
0.0
 10
187.1900024414062
 20
312.5899963378906
 30
0.0
  0
SPLINE
  5
A2
330
81
100
AcDbEntity
  8
Layer 1
100
AcDbSpline
210
0.0
220
0.0
230
1.0
 70
     9
 71
     3
 72
    17
 73
    13
 74
     0
 42
0.0000000001
 43
0.0000000001
 40
0.0
 40
0.0
 40
0.0
 40
0.0
 40
1.0
 40
1.0
 40
1.0
 40
2.0
 40
2.0
 40
2.0
 40
3.0
 40
3.0
 40
3.0
 40
4.0
 40
4.0
 40
4.0
 40
4.0
 10
168.2900085449219
 20
345.75
 30
0.0
 10
168.9800109863281
 20
351.2299957275391
 30
0.0
 10
169.6600036621093
 20
357.8800048828125
 30
0.0
 10
176.8000030517578
 20
358.3399963378906
 30
0.0
 10
181.7700042724609
 20
358.6600036621094
 30
0.0
 10
183.479995727539
 20
354.0999908447266
 30
0.0
 10
183.5700073242187
 20
349.4199981689453
 30
0.0
 10
182.3900146484375
 20
343.9799957275391
 30
0.0
 10
182.2100067138672
 20
337.4199981689453
 30
0.0
 10
174.760009765625
 20
337.0
 30
0.0
 10
169.2800140380859
 20
336.6900024414062
 30
0.0
 10
167.7100067138672
 20
341.1900024414062
 30
0.0
 10
168.2900085449219
 20
345.75
 30
0.0
  0
SPLINE
  5
A3
330
81
100
AcDbEntity
  8
Layer 1
100
AcDbSpline
210
0.0
220
0.0
230
1.0
 70
     9
 71
     3
 72
    20
 73
    16
 74
     0
 42
0.0000000001
 43
0.0000000001
 40
0.0
 40
0.0
 40
0.0
 40
0.0
 40
1.0
 40
1.0
 40
1.0
 40
2.0
 40
2.0
 40
2.0
 40
3.0
 40
3.0
 40
3.0
 40
4.0
 40
4.0
 40
4.0
 40
5.0
 40
5.0
 40
5.0
 40
5.0
 10
197.3000030517578
 20
371.1199951171875
 30
0.0
 10
202.3399963378906
 20
371.1799926757813
 30
0.0
 10
208.1500091552734
 20
370.2699890136719
 30
0.0
 10
208.4700012207031
 20
363.9599914550781
 30
0.0
 10
208.8200073242187
 20
357.1799926757813
 30
0.0
 10
203.3999938964844
 20
355.4599914550781
 30
0.0
 10
197.5599975585937
 20
355.239990234375
 30
0.0
 10
191.8099975585937
 20
355.4099884033203
 30
0.0
 10
186.3099975585937
 20
356.9299926757813
 30
0.0
 10
186.3999938964844
 20
363.6999969482422
 30
0.0
 10
186.479995727539
 20
370.1299896240235
 30
0.0
 10
192.2899932861328
 20
371.0599975585938
 30
0.0
 10
197.3099975585937
 20
371.1199951171875
 30
0.0
 10
197.3099975585937
 20
371.1199951171875
 30
0.0
 10
197.3000030517578
 20
371.1199951171875
 30
0.0
 10
197.3000030517578
 20
371.1199951171875
 30
0.0
  0
SPLINE
  5
A4
330
81
100
AcDbEntity
  8
Layer 1
100
AcDbSpline
210
0.0
220
0.0
230
1.0
 70
     9
 71
     3
 72
    20
 73
    16
 74
     0
 42
0.0000000001
 43
0.0000000001
 40
0.0
 40
0.0
 40
0.0
 40
0.0
 40
1.0
 40
1.0
 40
1.0
 40
2.0
 40
2.0
 40
2.0
 40
3.0
 40
3.0
 40
3.0
 40
4.0
 40
4.0
 40
4.0
 40
5.0
 40
5.0
 40
5.0
 40
5.0
 10
199.3600006103515
 20
375.75
 30
0.0
 10
179.6499938964843
 20
376.8399963378906
 30
0.0
 10
162.490005493164
 20
361.4499969482422
 30
0.0
 10
161.6999969482422
 20
341.9799957275391
 30
0.0
 10
160.9100036621093
 20
322.7099914550781
 30
0.0
 10
176.75
 20
305.3399963378906
 30
0.0
 10
196.0299987792969
 20
304.3199920654297
 30
0.0
 10
214.7799987792969
 20
303.3199920654297
 30
0.0
 10
232.2700042724609
 20
319.75
 30
0.0
 10
233.1499938964844
 20
339.1799926757812
 30
0.0
 10
234.0099945068359
 20
358.1499938964844
 30
0.0
 10
218.7299957275391
 20
374.6899871826172
 30
0.0
 10
199.3599853515625
 20
375.7499923706055
 30
0.0
 10
199.3599853515625
 20
375.7499923706055
 30
0.0
 10
199.3600006103515
 20
375.75
 30
0.0
 10
199.3600006103515
 20
375.75
 30
0.0
  0
HATCH
  5
A5
330
81
100
AcDbEntity
  8
Layer 1
 62
   118
420
  1005869
440
 33554687
100
AcDbHatch
 10
0.0
 20
0.0
 30
0.0
210
0.0
220
0.0
230
1.0
  2
SOLID
 70
     1
 71
     1
 91
        7
 92
        1
 93
        1
 72
     4
 94
        3
 73
     0
 74
     0
 95
       20
 96
       16
 40
0.0
 40
0.0
 40
0.0
 40
0.0
 40
1.0
 40
1.0
 40
1.0
 40
2.0
 40
2.0
 40
2.0
 40
3.0
 40
3.0
 40
3.0
 40
4.0
 40
4.0
 40
4.0
 40
5.0
 40
5.0
 40
5.0
 40
5.0
 10
220.9300079345703
 20
337.1100006103516
 10
213.3700103759766
 20
337.0800018310547
 10
212.3500061035156
 20
343.4300079345703
 10
211.5600128173828
 20
349.0599975585937
 10
210.8800201416016
 20
353.9100036621094
 10
213.0400085449219
 20
358.0899963378906
 10
218.3400115966797
 20
357.5699920654297
 10
224.9500122070312
 20
356.9299926757813
 10
225.6600189208985
 20
350.8899993896485
 10
226.7000122070312
 20
346.0899963378906
 10
226.6700134277344
 20
341.4799957275391
 10
225.9200134277344
 20
337.1299896240234
 10
220.9200134277344
 20
337.1100006103516
 10
220.9200134277344
 20
337.1100006103516
 10
220.9300079345703
 20
337.1100006103516
 10
220.9300079345703
 20
337.1100006103516
 97
        0
 97
        1
330
9E
 92
        1
 93
        1
 72
     4
 94
        3
 73
     0
 74
     0
 95
       20
 96
       16
 40
0.0
 40
0.0
 40
0.0
 40
0.0
 40
1.0
 40
1.0
 40
1.0
 40
2.0
 40
2.0
 40
2.0
 40
3.0
 40
3.0
 40
3.0
 40
4.0
 40
4.0
 40
4.0
 40
5.0
 40
5.0
 40
5.0
 40
5.0
 10
221.5400085449219
 20
324.5599975585938
 10
220.6700134277344
 20
316.6100006103516
 10
214.2300109863281
 20
314.1499938964844
 10
208.2000122070312
 20
312.4599914550781
 10
203.2800140380859
 20
312.3299865722656
 10
200.8500061035156
 20
314.3899841308594
 10
200.4900054931641
 20
318.5799865722656
 10
200.0600128173828
 20
323.6699829101563
 10
208.2200012207031
 20
330.5999908447266
 10
214.5
 20
330.5699920654297
 10
218.5399932861328
 20
330.5499877929687
 10
222.0
 20
328.7699890136719
 10
221.5399932861328
 20
324.5599975585938
 10
221.5399932861328
 20
324.5599975585938
 10
221.5400085449219
 20
324.5599975585938
 10
221.5400085449219
 20
324.5599975585938
 97
        0
 97
        1
330
9F
 92
        1
 93
        1
 72
     4
 94
        3
 73
     0
 74
     0
 95
       20
 96
       16
 40
0.0
 40
0.0
 40
0.0
 40
0.0
 40
1.0
 40
1.0
 40
1.0
 40
2.0
 40
2.0
 40
2.0
 40
3.0
 40
3.0
 40
3.0
 40
4.0
 40
4.0
 40
4.0
 40
5.0
 40
5.0
 40
5.0
 40
5.0
 10
197.4600067138672
 20
331.989990234375
 10
191.7000122070312
 20
332.0999908447266
 10
187.9300079345703
 20
335.1599884033203
 10
188.3800048828125
 20
341.0999908447266
 10
188.760009765625
 20
346.2199859619141
 10
192.3800048828125
 20
349.489990234375
 10
197.5700073242187
 20
349.3399963378906
 10
203.2300109863281
 20
349.1699981689453
 10
206.1800079345703
 20
345.4100036621094
 10
206.9300079345703
 20
340.0500030517578
 10
206.0400085449219
 20
334.4700012207031
 10
202.6800079345703
 20
331.8899993896484
 10
197.4600067138672
 20
331.9900054931641
 10
197.4600067138672
 20
331.9900054931641
 10
197.4600067138672
 20
331.989990234375
 10
197.4600067138672
 20
331.989990234375
 97
        0
 97
        1
330
A0
 92
        1
 93
        1
 72
     4
 94
        3
 73
     0
 74
     0
 95
       20
 96
       16
 40
0.0
 40
0.0
 40
0.0
 40
0.0
 40
1.0
 40
1.0
 40
1.0
 40
2.0
 40
2.0
 40
2.0
 40
3.0
 40
3.0
 40
3.0
 40
4.0
 40
4.0
 40
4.0
 40
5.0
 40
5.0
 40
5.0
 40
5.0
 10
187.1900024414062
 20
312.5899963378906
 10
180.25
 20
313.7299957275391
 10
174.0899963378906
 20
316.8199920654297
 10
173.3600006103515
 20
324.7599945068359
 10
172.9700012207031
 20
328.989990234375
 10
176.6199951171875
 20
330.5399932861328
 10
181.1900024414062
 20
330.6199951171875
 10
186.6600036621093
 20
328.6900024414062
 10
193.25
 20
327.0499877929688
 10
194.2700042724609
 20
319.4400024414063
 10
194.8899993896484
 20
314.8200073242187
 10
191.9199981689453
 20
311.8200073242188
 10
187.1800079345703
 20
312.5899963378906
 10
187.1800079345703
 20
312.5899963378906
 10
187.1900024414062
 20
312.5899963378906
 10
187.1900024414062
 20
312.5899963378906
 97
        0
 97
        1
330
A1
 92
        1
 93
        1
 72
     4
 94
        3
 73
     0
 74
     0
 95
       17
 96
       13
 40
0.0
 40
0.0
 40
0.0
 40
0.0
 40
1.0
 40
1.0
 40
1.0
 40
2.0
 40
2.0
 40
2.0
 40
3.0
 40
3.0
 40
3.0
 40
4.0
 40
4.0
 40
4.0
 40
4.0
 10
168.2900085449219
 20
345.75
 10
168.9800109863281
 20
351.2299957275391
 10
169.6600036621093
 20
357.8800048828125
 10
176.8000030517578
 20
358.3399963378906
 10
181.7700042724609
 20
358.6600036621094
 10
183.479995727539
 20
354.0999908447266
 10
183.5700073242187
 20
349.4199981689453
 10
182.3900146484375
 20
343.9799957275391
 10
182.2100067138672
 20
337.4199981689453
 10
174.760009765625
 20
337.0
 10
169.2800140380859
 20
336.6900024414062
 10
167.7100067138672
 20
341.1900024414062
 10
168.2900085449219
 20
345.75
 97
        0
 97
        1
330
A2
 92
        1
 93
        1
 72
     4
 94
        3
 73
     0
 74
     0
 95
       20
 96
       16
 40
0.0
 40
0.0
 40
0.0
 40
0.0
 40
1.0
 40
1.0
 40
1.0
 40
2.0
 40
2.0
 40
2.0
 40
3.0
 40
3.0
 40
3.0
 40
4.0
 40
4.0
 40
4.0
 40
5.0
 40
5.0
 40
5.0
 40
5.0
 10
197.3000030517578
 20
371.1199951171875
 10
202.3399963378906
 20
371.1799926757813
 10
208.1500091552734
 20
370.2699890136719
 10
208.4700012207031
 20
363.9599914550781
 10
208.8200073242187
 20
357.1799926757813
 10
203.3999938964844
 20
355.4599914550781
 10
197.5599975585937
 20
355.239990234375
 10
191.8099975585937
 20
355.4099884033203
 10
186.3099975585937
 20
356.9299926757813
 10
186.3999938964844
 20
363.6999969482422
 10
186.479995727539
 20
370.1299896240235
 10
192.2899932861328
 20
371.0599975585938
 10
197.3099975585937
 20
371.1199951171875
 10
197.3099975585937
 20
371.1199951171875
 10
197.3000030517578
 20
371.1199951171875
 10
197.3000030517578
 20
371.1199951171875
 97
        0
 97
        1
330
A3
 92
        1
 93
        1
 72
     4
 94
        3
 73
     0
 74
     0
 95
       20
 96
       16
 40
0.0
 40
0.0
 40
0.0
 40
0.0
 40
1.0
 40
1.0
 40
1.0
 40
2.0
 40
2.0
 40
2.0
 40
3.0
 40
3.0
 40
3.0
 40
4.0
 40
4.0
 40
4.0
 40
5.0
 40
5.0
 40
5.0
 40
5.0
 10
199.3600006103515
 20
375.75
 10
179.6499938964843
 20
376.8399963378906
 10
162.490005493164
 20
361.4499969482422
 10
161.6999969482422
 20
341.9799957275391
 10
160.9100036621093
 20
322.7099914550781
 10
176.75
 20
305.3399963378906
 10
196.0299987792969
 20
304.3199920654297
 10
214.7799987792969
 20
303.3199920654297
 10
232.2700042724609
 20
319.75
 10
233.1499938964844
 20
339.1799926757812
 10
234.0099945068359
 20
358.1499938964844
 10
218.7299957275391
 20
374.6899871826172
 10
199.3599853515625
 20
375.7499923706055
 10
199.3599853515625
 20
375.7499923706055
 10
199.3600006103515
 20
375.75
 10
199.3600006103515
 20
375.75
 97
        0
 97
        1
330
A4
 75
     2
 76
     1
 98
        1
 10
0.0
 20
0.0
450
        0
451
        0
460
0.0
461
0.0
452
        0
462
0.0
453
        0
470

  0
SPLINE
  5
A6
330
81
100
AcDbEntity
  8
Layer 1
100
AcDbSpline
210
0.0
220
0.0
230
1.0
 70
     9
 71
     3
 72
    20
 73
    16
 74
     0
 42
0.0000000001
 43
0.0000000001
 40
0.0
 40
0.0
 40
0.0
 40
0.0
 40
1.0
 40
1.0
 40
1.0
 40
2.0
 40
2.0
 40
2.0
 40
3.0
 40
3.0
 40
3.0
 40
4.0
 40
4.0
 40
4.0
 40
5.0
 40
5.0
 40
5.0
 40
5.0
 10
258.8099975585937
 20
229.010009765625
 30
0.0
 10
256.2200012207031
 20
228.8300170898438
 30
0.0
 10
255.0800018310547
 20
227.3500061035156
 30
0.0
 10
255.1999969482422
 20
224.8600158691406
 30
0.0
 10
255.3199920654297
 20
222.280029296875
 30
0.0
 10
256.8399963378906
 20
221.1300048828125
 30
0.0
 10
259.2999877929687
 20
221.2200012207031
 30
0.0
 10
261.8899841308594
 20
221.3200073242187
 30
0.0
 10
262.97998046875
 20
222.9100036621094
 30
0.0
 10
262.9099731445312
 20
225.3500061035156
 30
0.0
 10
262.8299865722656
 20
227.9500122070313
 30
0.0
 10
261.2799682617187
 20
229.02001953125
 30
0.0
 10
258.8099670410156
 20
229.010009765625
 30
0.0
 10
258.8099670410156
 20
229.010009765625
 30
0.0
 10
258.8099975585937
 20
229.010009765625
 30
0.0
 10
258.8099975585937
 20
229.010009765625
 30
0.0
  0
HATCH
  5
A7
330
81
100
AcDbEntity
  8
Layer 1
 62
   246
420
  8590872
440
 33554687
100
AcDbHatch
 10
0.0
 20
0.0
 30
0.0
210
0.0
220
0.0
230
1.0
  2
SOLID
 70
     1
 71
     1
 91
        1
 92
        1
 93
        1
 72
     4
 94
        3
 73
     0
 74
     0
 95
       20
 96
       16
 40
0.0
 40
0.0
 40
0.0
 40
0.0
 40
1.0
 40
1.0
 40
1.0
 40
2.0
 40
2.0
 40
2.0
 40
3.0
 40
3.0
 40
3.0
 40
4.0
 40
4.0
 40
4.0
 40
5.0
 40
5.0
 40
5.0
 40
5.0
 10
258.8099975585937
 20
229.010009765625
 10
256.2200012207031
 20
228.8300170898438
 10
255.0800018310547
 20
227.3500061035156
 10
255.1999969482422
 20
224.8600158691406
 10
255.3199920654297
 20
222.280029296875
 10
256.8399963378906
 20
221.1300048828125
 10
259.2999877929687
 20
221.2200012207031
 10
261.8899841308594
 20
221.3200073242187
 10
262.97998046875
 20
222.9100036621094
 10
262.9099731445312
 20
225.3500061035156
 10
262.8299865722656
 20
227.9500122070313
 10
261.2799682617187
 20
229.02001953125
 10
258.8099670410156
 20
229.010009765625
 10
258.8099670410156
 20
229.010009765625
 10
258.8099975585937
 20
229.010009765625
 10
258.8099975585937
 20
229.010009765625
 97
        0
 97
        1
330
A6
 75
     2
 76
     1
 98
        1
 10
0.0
 20
0.0
450
        0
451
        0
460
0.0
461
0.0
452
        0
462
0.0
453
        0
470

  0
SPLINE
  5
A8
330
81
100
AcDbEntity
  8
Layer 1
100
AcDbSpline
210
0.0
220
0.0
230
1.0
 70
     9
 71
     3
 72
    20
 73
    16
 74
     0
 42
0.0000000001
 43
0.0000000001
 40
0.0
 40
0.0
 40
0.0
 40
0.0
 40
1.0
 40
1.0
 40
1.0
 40
2.0
 40
2.0
 40
2.0
 40
3.0
 40
3.0
 40
3.0
 40
4.0
 40
4.0
 40
4.0
 40
5.0
 40
5.0
 40
5.0
 40
5.0
 10
320.5199890136719
 20
112.6400146484375
 30
0.0
 10
318.97998046875
 20
112.3200073242187
 30
0.0
 10
318.0899963378906
 20
111.3000183105468
 30
0.0
 10
318.4499816894531
 20
109.8400268554687
 30
0.0
 10
318.6399841308594
 20
109.0800170898437
 30
0.0
 10
319.6499938964844
 20
108.1200256347656
 30
0.0
 10
320.4199829101562
 20
107.9700317382812
 30
0.0
 10
321.9099731445313
 20
107.6800231933594
 30
0.0
 10
322.989990234375
 20
108.6800231933594
 30
0.0
 10
323.0199890136719
 20
110.2000427246093
 30
0.0
 10
323.0599975585938
 20
111.7200317382812
 30
0.0
 10
322.0599975585937
 20
112.550048828125
 30
0.0
 10
320.5199890136719
 20
112.6400451660156
 30
0.0
 10
320.5199890136719
 20
112.6400451660156
 30
0.0
 10
320.5199890136719
 20
112.6400146484375
 30
0.0
 10
320.5199890136719
 20
112.6400146484375
 30
0.0
  0
HATCH
  5
A9
330
81
100
AcDbEntity
  8
Layer 1
 62
   168
420
   856875
440
 33554687
100
AcDbHatch
 10
0.0
 20
0.0
 30
0.0
210
0.0
220
0.0
230
1.0
  2
SOLID
 70
     1
 71
     1
 91
        1
 92
        1
 93
        1
 72
     4
 94
        3
 73
     0
 74
     0
 95
       20
 96
       16
 40
0.0
 40
0.0
 40
0.0
 40
0.0
 40
1.0
 40
1.0
 40
1.0
 40
2.0
 40
2.0
 40
2.0
 40
3.0
 40
3.0
 40
3.0
 40
4.0
 40
4.0
 40
4.0
 40
5.0
 40
5.0
 40
5.0
 40
5.0
 10
320.5199890136719
 20
112.6400146484375
 10
318.97998046875
 20
112.3200073242187
 10
318.0899963378906
 20
111.3000183105468
 10
318.4499816894531
 20
109.8400268554687
 10
318.6399841308594
 20
109.0800170898437
 10
319.6499938964844
 20
108.1200256347656
 10
320.4199829101562
 20
107.9700317382812
 10
321.9099731445313
 20
107.6800231933594
 10
322.989990234375
 20
108.6800231933594
 10
323.0199890136719
 20
110.2000427246093
 10
323.0599975585938
 20
111.7200317382812
 10
322.0599975585937
 20
112.550048828125
 10
320.5199890136719
 20
112.6400451660156
 10
320.5199890136719
 20
112.6400451660156
 10
320.5199890136719
 20
112.6400146484375
 10
320.5199890136719
 20
112.6400146484375
 97
        0
 97
        1
330
A8
 75
     2
 76
     1
 98
        1
 10
0.0
 20
0.0
450
        0
451
        0
460
0.0
461
0.0
452
        0
462
0.0
453
        0
470

  0
SPLINE
  5
AA
330
81
100
AcDbEntity
  8
Layer 1
100
AcDbSpline
210
0.0
220
0.0
230
1.0
 70
     9
 71
     3
 72
    17
 73
    13
 74
     0
 42
0.0000000001
 43
0.0000000001
 40
0.0
 40
0.0
 40
0.0
 40
0.0
 40
1.0
 40
1.0
 40
1.0
 40
2.0
 40
2.0
 40
2.0
 40
3.0
 40
3.0
 40
3.0
 40
4.0
 40
4.0
 40
4.0
 40
4.0
 10
197.3899993896484
 20
342.3200073242187
 30
0.0
 10
195.8699951171875
 20
342.1000061035156
 30
0.0
 10
194.8399963378906
 20
341.2000122070312
 30
0.0
 10
195.1199951171875
 20
339.6900024414062
 30
0.0
 10
195.2599945068359
 20
338.9000091552734
 30
0.0
 10
196.1999969482422
 20
337.8800048828125
 30
0.0
 10
196.979995727539
 20
337.6699981689453
 30
0.0
 10
198.479995727539
 20
337.25
 30
0.0
 10
199.6199951171875
 20
338.1900024414063
 30
0.0
 10
199.7599945068359
 20
339.7200012207031
 30
0.0
 10
199.8999938964844
 20
341.25
 30
0.0
 10
198.9199981689453
 20
342.1300048828125
 30
0.0
 10
197.3899993896484
 20
342.3200073242187
 30
0.0
  0
HATCH
  5
AB
330
81
100
AcDbEntity
  8
Layer 1
 62
   118
420
  1005869
440
 33554687
100
AcDbHatch
 10
0.0
 20
0.0
 30
0.0
210
0.0
220
0.0
230
1.0
  2
SOLID
 70
     1
 71
     1
 91
        1
 92
        1
 93
        1
 72
     4
 94
        3
 73
     0
 74
     0
 95
       17
 96
       13
 40
0.0
 40
0.0
 40
0.0
 40
0.0
 40
1.0
 40
1.0
 40
1.0
 40
2.0
 40
2.0
 40
2.0
 40
3.0
 40
3.0
 40
3.0
 40
4.0
 40
4.0
 40
4.0
 40
4.0
 10
197.3899993896484
 20
342.3200073242187
 10
195.8699951171875
 20
342.1000061035156
 10
194.8399963378906
 20
341.2000122070312
 10
195.1199951171875
 20
339.6900024414062
 10
195.2599945068359
 20
338.9000091552734
 10
196.1999969482422
 20
337.8800048828125
 10
196.979995727539
 20
337.6699981689453
 10
198.479995727539
 20
337.25
 10
199.6199951171875
 20
338.1900024414063
 10
199.7599945068359
 20
339.7200012207031
 10
199.8999938964844
 20
341.25
 10
198.9199981689453
 20
342.1300048828125
 10
197.3899993896484
 20
342.3200073242187
 97
        0
 97
        1
330
AA
 75
     2
 76
     1
 98
        1
 10
0.0
 20
0.0
450
        0
451
        0
460
0.0
461
0.0
452
        0
462
0.0
453
        0
470

  0
ENDBLK
  5
84
330
81
100
AcDbEntity
  8
0
100
AcDbBlockEnd
  0
ENDSEC
  0
SECTION
  2
ENTITIES
  0
INSERT
  5
7A
330
70
100
AcDbEntity
  8
Layer 1
100
AcDbBlockReference
  2
Block_0
 10
0.0
 20
0.0
 30
0.0
  0
INSERT
  5
82
330
70
100
AcDbEntity
  8
Layer 1
100
AcDbBlockReference
  2
Block_1
 10
0.0
 20
0.0
 30
0.0
  0
SPLINE
  5
AC
330
70
100
AcDbEntity
  8
Layer 1
100
AcDbSpline
210
0.0
220
0.0
230
1.0
 70
    11
 71
     3
 72
    62
 73
    58
 74
     0
 42
0.0000000001
 43
0.0000000001
 40
0.0
 40
0.0
 40
0.0
 40
0.0
 40
1.0
 40
1.0
 40
1.0
 40
2.0
 40
2.0
 40
2.0
 40
3.0
 40
3.0
 40
3.0
 40
4.0
 40
4.0
 40
4.0
 40
5.0
 40
5.0
 40
5.0
 40
6.0
 40
6.0
 40
6.0
 40
7.0
 40
7.0
 40
7.0
 40
8.0
 40
8.0
 40
8.0
 40
9.0
 40
9.0
 40
9.0
 40
10.0
 40
10.0
 40
10.0
 40
11.0
 40
11.0
 40
11.0
 40
12.0
 40
12.0
 40
12.0
 40
13.0
 40
13.0
 40
13.0
 40
14.0
 40
14.0
 40
14.0
 40
15.0
 40
15.0
 40
15.0
 40
16.0
 40
16.0
 40
16.0
 40
17.0
 40
17.0
 40
17.0
 40
18.0
 40
18.0
 40
18.0
 40
19.0
 40
19.0
 40
19.0
 40
19.0
 10
134.9199981689453
 20
415.1600036621093
 30
0.0
 10
134.9199981689453
 20
415.1600036621093
 30
0.0
 10
134.9199981689453
 20
415.370002746582
 30
0.0
 10
134.9199981689453
 20
415.370002746582
 30
0.0
 10
141.7599945068359
 20
418.3400039672851
 30
0.0
 10
145.1900024414062
 20
424.1800003051757
 30
0.0
 10
145.1900024414062
 20
431.0400009155273
 30
0.0
 10
145.1900024414062
 20
439.1300010681152
 30
0.0
 10
140.229995727539
 20
446.9099998474121
 30
0.0
 10
129.2799987792968
 20
446.9099998474121
 30
0.0
 10
123.2900009155273
 20
446.9099998474121
 30
0.0
 10
117.6399993896484
 20
444.3499984741211
 30
0.0
 10
114.7399978637695
 20
441.7900009155273
 30
0.0
 10
114.7399978637695
 20
441.7900009155273
 30
0.0
 10
116.7099990844726
 20
435.2399978637695
 30
0.0
 10
116.7099990844726
 20
435.2399978637695
 30
0.0
 10
119.1100006103515
 20
437.28999710083
 30
0.0
 10
123.3799972534179
 20
439.6399993896484
 30
0.0
 10
127.8300018310547
 20
439.6399993896484
 30
0.0
 10
134.7599945068359
 20
439.6399993896484
 30
0.0
 10
137.5800018310547
 20
434.9300003051758
 30
0.0
 10
137.5800018310547
 20
429.6100006103515
 30
0.0
 10
137.5800018310547
 20
421.7300033569335
 30
0.0
 10
130.6500091552734
 20
418.349998474121
 30
0.0
 10
125.1699981689453
 20
418.349998474121
 30
0.0
 10
125.1699981689453
 20
418.349998474121
 30
0.0
 10
120.979995727539
 20
418.349998474121
 30
0.0
 10
120.979995727539
 20
418.349998474121
 30
0.0
 10
120.979995727539
 20
418.349998474121
 30
0.0
 10
120.979995727539
 20
411.5899963378906
 30
0.0
 10
120.979995727539
 20
411.5899963378906
 30
0.0
 10
120.979995727539
 20
411.5899963378906
 30
0.0
 10
125.1699981689453
 20
411.5899963378906
 30
0.0
 10
125.1699981689453
 20
411.5899963378906
 30
0.0
 10
132.4400024414062
 20
411.5899963378906
 30
0.0
 10
139.4599914550781
 20
407.599998474121
 30
0.0
 10
139.5399932861328
 20
398.2799987792969
 30
0.0
 10
139.6299896240234
 20
392.75
 30
0.0
 10
136.6299896240234
 20
385.379997253418
 30
0.0
 10
126.9599914550781
 20
385.379997253418
 30
0.0
 10
121.739990234375
 20
385.379997253418
 30
0.0
 10
116.7799911499023
 20
387.9399948120117
 30
0.0
 10
114.6399917602539
 20
389.5799942016602
 30
0.0
 10
114.6399917602539
 20
389.5799942016602
 30
0.0
 10
112.5899887084961
 20
382.6199951171875
 30
0.0
 10
112.5899887084961
 20
382.6199951171875
 30
0.0
 10
115.3299865722656
 20
380.4699935913086
 30
0.0
 10
120.7999877929687
 20
378.109992980957
 30
0.0
 10
127.0499877929687
 20
378.109992980957
 30
0.0
 10
140.3999938964844
 20
378.109992980957
 30
0.0
 10
147.3299865722656
 20
387.4299926757812
 30
0.0
 10
147.3299865722656
 20
398.0799942016602
 30
0.0
 10
147.3299865722656
 20
407.3999938964844
 30
0.0
 10
141.7699890136718
 20
413.5399932861328
 30
0.0
 10
134.9199829101562
 20
415.1799926757812
 30
0.0
 10
134.9199829101562
 20
415.1799926757812
 30
0.0
 10
134.9199981689453
 20
415.1600036621093
 30
0.0
 10
134.9199981689453
 20
415.1600036621093
 30
0.0
  0
HATCH
  5
AD
330
70
100
AcDbEntity
  8
Layer 1
 62
   246
420
  8590872
440
 33554687
100
AcDbHatch
 10
0.0
 20
0.0
 30
0.0
210
0.0
220
0.0
230
1.0
  2
SOLID
 70
     1
 71
     1
 91
        1
 92
        1
 93
        1
 72
     4
 94
        3
 73
     0
 74
     0
 95
       62
 96
       58
 40
0.0
 40
0.0
 40
0.0
 40
0.0
 40
1.0
 40
1.0
 40
1.0
 40
2.0
 40
2.0
 40
2.0
 40
3.0
 40
3.0
 40
3.0
 40
4.0
 40
4.0
 40
4.0
 40
5.0
 40
5.0
 40
5.0
 40
6.0
 40
6.0
 40
6.0
 40
7.0
 40
7.0
 40
7.0
 40
8.0
 40
8.0
 40
8.0
 40
9.0
 40
9.0
 40
9.0
 40
10.0
 40
10.0
 40
10.0
 40
11.0
 40
11.0
 40
11.0
 40
12.0
 40
12.0
 40
12.0
 40
13.0
 40
13.0
 40
13.0
 40
14.0
 40
14.0
 40
14.0
 40
15.0
 40
15.0
 40
15.0
 40
16.0
 40
16.0
 40
16.0
 40
17.0
 40
17.0
 40
17.0
 40
18.0
 40
18.0
 40
18.0
 40
19.0
 40
19.0
 40
19.0
 40
19.0
 10
134.9199981689453
 20
415.1600036621093
 10
134.9199981689453
 20
415.1600036621093
 10
134.9199981689453
 20
415.370002746582
 10
134.9199981689453
 20
415.370002746582
 10
141.7599945068359
 20
418.3400039672851
 10
145.1900024414062
 20
424.1800003051757
 10
145.1900024414062
 20
431.0400009155273
 10
145.1900024414062
 20
439.1300010681152
 10
140.229995727539
 20
446.9099998474121
 10
129.2799987792968
 20
446.9099998474121
 10
123.2900009155273
 20
446.9099998474121
 10
117.6399993896484
 20
444.3499984741211
 10
114.7399978637695
 20
441.7900009155273
 10
114.7399978637695
 20
441.7900009155273
 10
116.7099990844726
 20
435.2399978637695
 10
116.7099990844726
 20
435.2399978637695
 10
119.1100006103515
 20
437.28999710083
 10
123.3799972534179
 20
439.6399993896484
 10
127.8300018310547
 20
439.6399993896484
 10
134.7599945068359
 20
439.6399993896484
 10
137.5800018310547
 20
434.9300003051758
 10
137.5800018310547
 20
429.6100006103515
 10
137.5800018310547
 20
421.7300033569335
 10
130.6500091552734
 20
418.349998474121
 10
125.1699981689453
 20
418.349998474121
 10
125.1699981689453
 20
418.349998474121
 10
120.979995727539
 20
418.349998474121
 10
120.979995727539
 20
418.349998474121
 10
120.979995727539
 20
418.349998474121
 10
120.979995727539
 20
411.5899963378906
 10
120.979995727539
 20
411.5899963378906
 10
120.979995727539
 20
411.5899963378906
 10
125.1699981689453
 20
411.5899963378906
 10
125.1699981689453
 20
411.5899963378906
 10
132.4400024414062
 20
411.5899963378906
 10
139.4599914550781
 20
407.599998474121
 10
139.5399932861328
 20
398.2799987792969
 10
139.6299896240234
 20
392.75
 10
136.6299896240234
 20
385.379997253418
 10
126.9599914550781
 20
385.379997253418
 10
121.739990234375
 20
385.379997253418
 10
116.7799911499023
 20
387.9399948120117
 10
114.6399917602539
 20
389.5799942016602
 10
114.6399917602539
 20
389.5799942016602
 10
112.5899887084961
 20
382.6199951171875
 10
112.5899887084961
 20
382.6199951171875
 10
115.3299865722656
 20
380.4699935913086
 10
120.7999877929687
 20
378.109992980957
 10
127.0499877929687
 20
378.109992980957
 10
140.3999938964844
 20
378.109992980957
 10
147.3299865722656
 20
387.4299926757812
 10
147.3299865722656
 20
398.0799942016602
 10
147.3299865722656
 20
407.3999938964844
 10
141.7699890136718
 20
413.5399932861328
 10
134.9199829101562
 20
415.1799926757812
 10
134.9199829101562
 20
415.1799926757812
 10
134.9199981689453
 20
415.1600036621093
 10
134.9199981689453
 20
415.1600036621093
 97
        0
 97
        1
330
AC
 75
     2
 76
     1
 98
        1
 10
0.0
 20
0.0
450
        0
451
        0
460
0.0
461
0.0
452
        0
462
0.0
453
        0
470

  0
ENDSEC
  0
SECTION
  2
OBJECTS
  0
DICTIONARY
  5
C
330
0
100
AcDbDictionary
281
     1
  3
ACAD_COLOR
350
63
  3
ACAD_DETAILVIEWSTYLE
350
6A
  3
ACAD_GROUP
350
D
  3
ACAD_LAYOUT
350
62
  3
ACAD_MATERIAL
350
10
  3
ACAD_MLEADERSTYLE
350
66
  3
ACAD_MLINESTYLE
350
5F
  3
ACAD_PLOTSETTINGS
350
61
  3
ACAD_PLOTSTYLENAME
350
E
  3
ACAD_SCALELIST
350
42
  3
ACAD_SECTIONVIEWSTYLE
350
68
  3
ACAD_TABLESTYLE
350
64
  3
ACAD_VISUALSTYLE
350
29
  3
ACDB_RECOMPOSE_DATA
350
B6
  3
AcDbVariableDictionary
350
AE
  0
DICTIONARY
  5
63
102
{ACAD_REACTORS
330
C
102
}
330
C
100
AcDbDictionary
281
     1
  0
DICTIONARY
  5
6A
102
{ACAD_REACTORS
330
C
102
}
330
C
100
AcDbDictionary
281
     1
  3
Imperial24
350
6B
  0
DICTIONARY
  5
D
102
{ACAD_REACTORS
330
C
102
}
330
C
100
AcDbDictionary
281
     1
  0
DICTIONARY
  5
62
102
{ACAD_REACTORS
330
C
102
}
330
C
100
AcDbDictionary
281
     1
  3
Layout1
350
6F
  3
Layout2
350
77
  3
Model
350
73
  0
DICTIONARY
  5
10
102
{ACAD_REACTORS
330
C
102
}
330
C
100
AcDbDictionary
281
     1
  3
ByBlock
350
19
  3
ByLayer
350
11
  3
Global
350
21
  0
DICTIONARY
  5
66
102
{ACAD_REACTORS
330
C
102
}
330
C
100
AcDbDictionary
281
     1
  3
Standard
350
67
  0
DICTIONARY
  5
5F
102
{ACAD_REACTORS
330
C
102
}
330
C
100
AcDbDictionary
281
     1
  3
Standard
350
60
  0
DICTIONARY
  5
61
102
{ACAD_REACTORS
330
C
102
}
330
C
100
AcDbDictionary
281
     1
  0
ACDBDICTIONARYWDFLT
  5
E
102
{ACAD_REACTORS
330
C
102
}
330
C
100
AcDbDictionary
281
     1
  3
Normal
350
F
100
AcDbDictionaryWithDefault
340
F
  0
DICTIONARY
  5
42
102
{ACAD_REACTORS
330
C
102
}
330
C
100
AcDbDictionary
281
     1
  3
A0
350
43
  3
A1
350
44
  3
A2
350
45
  3
A3
350
46
  3
A4
350
47
  3
A5
350
48
  3
A6
350
49
  3
A7
350
4A
  3
A8
350
4B
  3
A9
350
4C
  3
B0
350
4D
  3
B1
350
4E
  3
B2
350
4F
  3
B3
350
50
  3
B4
350
51
  3
B5
350
52
  3
B6
350
53
  0
DICTIONARY
  5
68
102
{ACAD_REACTORS
330
C
102
}
330
C
100
AcDbDictionary
281
     1
  3
Imperial24
350
69
  0
DICTIONARY
  5
64
102
{ACAD_REACTORS
330
C
102
}
330
C
100
AcDbDictionary
281
     1
  3
Standard
350
65
  0
DICTIONARY
  5
29
102
{ACAD_REACTORS
330
C
102
}
330
C
100
AcDbDictionary
281
     1
  3
2dWireframe
350
2F
  3
Basic
350
2E
  3
Brighten
350
35
  3
ColorChange
350
39
  3
Conceptual
350
32
  3
Dim
350
34
  3
EdgeColorOff
350
41
  3
Facepattern
350
38
  3
Flat
350
2A
  3
FlatWithEdges
350
2B
  3
Gouraud
350
2C
  3
GouraudWithEdges
350
2D
  3
Hidden
350
31
  3
JitterOff
350
3F
  3
Linepattern
350
37
  3
OverhangOff
350
40
  3
Realistic
350
33
  3
Shaded
350
3E
  3
Shaded with edges
350
3D
  3
Shades of Gray
350
3A
  3
Sketchy
350
3B
  3
Thicken
350
36
  3
Wireframe
350
30
  3
X-Ray
350
3C
  0
XRECORD
  5
B6
102
{ACAD_REACTORS
330
C
102
}
330
C
100
AcDbXrecord
280
     1
 90
        1
330
65
  0
DICTIONARY
  5
AE
102
{ACAD_REACTORS
330
C
102
}
330
C
100
AcDbDictionary
281
     1
  3
CANNOSCALE
350
B3
  3
CMLEADERSTYLE
350
B0
  3
CTABLESTYLE
350
AF
  3
CVIEWDETAILSTYLE
350
B1
  3
CVIEWSECTIONSTYLE
350
B2
  0
ACDBDETAILVIEWSTYLE
  5
6B
102
{ACAD_REACTORS
330
6A
102
}
330
6A
100
AcDbModelDocViewStyle
 70
     0
  3
Imperial24
290
     1
300
Imperial24
 90
        0
100
AcDbDetailViewStyle
 70
     0
 71
     0
 90
        3
 71
     1
340
55
 62
   256
 40
0.24
340
0
 62
   256
 40
0.24
300

 40
0.36
280
     3
 71
     2
340
5D
 90
       25
 62
   256
 71
     3
340
55
 62
   256
 40
0.24
 90
        1
 40
0.75
 90
        1
300
%<\AcVar ViewType \f "%tc1">% %<\AcVar ViewDetailId>%\PSCALE %<\AcVar ViewScale \f "%sn">%
 71
     4
340
5D
 90
       25
 62
   256
340
5D
 90
       25
 62
   256
280
     0
  0
LAYOUT
  5
6F
102
{ACAD_REACTORS
330
62
102
}
330
62
100
AcDbPlotSettings
  1

  2

  4

  6

 40
0.0
 41
0.0
 42
0.0
 43
0.0
 44
0.0
 45
0.0
 46
0.0
 47
0.0
 48
0.0
 49
0.0
140
0.0
141
0.0
142
1.0
143
1.0
 70
   688
 72
     0
 73
     0
 74
     5
  7

 75
    16
147
1.0
 76
     0
 77
     2
 78
   300
148
0.0
149
0.0
100
AcDbLayout
  1
Layout1
 70
     1
 71
     1
 10
0.0
 20
0.0
 11
12.0
 21
9.0
 12
0.0
 22
0.0
 32
0.0
 14
0.0
 24
0.0
 34
0.0
 15
0.0
 25
0.0
 35
0.0
146
0.0
 13
0.0
 23
0.0
 33
0.0
 16
1.0
 26
0.0
 36
0.0
 17
0.0
 27
1.0
 37
0.0
 76
     0
330
6C
  0
LAYOUT
  5
77
102
{ACAD_REACTORS
330
62
102
}
330
62
100
AcDbPlotSettings
  1

  2

  4

  6

 40
0.0
 41
0.0
 42
0.0
 43
0.0
 44
0.0
 45
0.0
 46
0.0
 47
0.0
 48
0.0
 49
0.0
140
0.0
141
0.0
142
1.0
143
1.0
 70
   688
 72
     0
 73
     0
 74
     5
  7

 75
    16
147
1.0
 76
     0
 77
     2
 78
   300
148
0.0
149
0.0
100
AcDbLayout
  1
Layout2
 70
     1
 71
     2
 10
0.0
 20
0.0
 11
12.0
 21
9.0
 12
0.0
 22
0.0
 32
0.0
 14
0.0
 24
0.0
 34
0.0
 15
0.0
 25
0.0
 35
0.0
146
0.0
 13
0.0
 23
0.0
 33
0.0
 16
1.0
 26
0.0
 36
0.0
 17
0.0
 27
1.0
 37
0.0
 76
     0
330
74
  0
LAYOUT
  5
73
102
{ACAD_REACTORS
330
62
102
}
330
62
100
AcDbPlotSettings
  1

  2

  4

  6

 40
0.0
 41
0.0
 42
0.0
 43
0.0
 44
0.0
 45
0.0
 46
0.0
 47
0.0
 48
0.0
 49
0.0
140
0.0
141
0.0
142
1.0
143
1.0
 70
  1712
 72
     0
 73
     0
 74
     0
  7

 75
     0
147
1.0
 76
     0
 77
     2
 78
   300
148
0.0
149
0.0
100
AcDbLayout
  1
Model
 70
     1
 71
     0
 10
0.0
 20
0.0
 11
12.0
 21
9.0
 12
0.0
 22
0.0
 32
0.0
 14
0.0
 24
0.0
 34
0.0
 15
0.0
 25
0.0
 35
0.0
146
0.0
 13
0.0
 23
0.0
 33
0.0
 16
1.0
 26
0.0
 36
0.0
 17
0.0
 27
1.0
 37
0.0
 76
     0
330
70
  0
MATERIAL
  5
19
102
{ACAD_XDICTIONARY
360
1A
102
}
102
{ACAD_REACTORS
330
10
102
}
330
10
100
AcDbMaterial
  1
ByBlock
 72
     0
 43
0.0208333333333333
 43
0.0
 43
0.0
 43
0.0
 43
0.0
 43
0.0208333333333333
 43
0.0
 43
0.0
 43
0.0
 43
0.0
 43
1.0
 43
0.0
 43
0.0
 43
0.0
 43
0.0
 43
1.0
 77
     0
 47
0.0208333333333333
 47
0.0
 47
0.0
 47
0.0
 47
0.0
 47
0.0208333333333333
 47
0.0
 47
0.0
 47
0.0
 47
0.0
 47
1.0
 47
0.0
 47
0.0
 47
0.0
 47
0.0
 47
1.0
171
     0
 49
0.0208333333333333
 49
0.0
 49
0.0
 49
0.0
 49
0.0
 49
0.0208333333333333
 49
0.0
 49
0.0
 49
0.0
 49
0.0
 49
1.0
 49
0.0
 49
0.0
 49
0.0
 49
0.0
 49
1.0
175
     0
142
0.0208333333333333
142
0.0
142
0.0
142
0.0
142
0.0
142
0.0208333333333333
142
0.0
142
0.0
142
0.0
142
0.0
142
1.0
142
0.0
142
0.0
142
0.0
142
0.0
142
1.0
179
     0
144
0.0208333333333333
144
0.0
144
0.0
144
0.0
144
0.0
144
0.0208333333333333
144
0.0
144
0.0
144
0.0
144
0.0
144
1.0
144
0.0
144
0.0
144
0.0
144
0.0
144
1.0
147
0.0208333333333333
147
0.0
147
0.0
147
0.0
147
0.0
147
0.0208333333333333
147
0.0
147
0.0
147
0.0
147
0.0
147
1.0
147
0.0
147
0.0
147
0.0
147
0.0
147
1.0
  0
MATERIAL
  5
11
102
{ACAD_XDICTIONARY
360
12
102
}
102
{ACAD_REACTORS
330
10
102
}
330
10
100
AcDbMaterial
  1
ByLayer
 72
     0
 43
0.0208333333333333
 43
0.0
 43
0.0
 43
0.0
 43
0.0
 43
0.0208333333333333
 43
0.0
 43
0.0
 43
0.0
 43
0.0
 43
1.0
 43
0.0
 43
0.0
 43
0.0
 43
0.0
 43
1.0
 77
     0
 47
0.0208333333333333
 47
0.0
 47
0.0
 47
0.0
 47
0.0
 47
0.0208333333333333
 47
0.0
 47
0.0
 47
0.0
 47
0.0
 47
1.0
 47
0.0
 47
0.0
 47
0.0
 47
0.0
 47
1.0
171
     0
 49
0.0208333333333333
 49
0.0
 49
0.0
 49
0.0
 49
0.0
 49
0.0208333333333333
 49
0.0
 49
0.0
 49
0.0
 49
0.0
 49
1.0
 49
0.0
 49
0.0
 49
0.0
 49
0.0
 49
1.0
175
     0
142
0.0208333333333333
142
0.0
142
0.0
142
0.0
142
0.0
142
0.0208333333333333
142
0.0
142
0.0
142
0.0
142
0.0
142
1.0
142
0.0
142
0.0
142
0.0
142
0.0
142
1.0
179
     0
144
0.0208333333333333
144
0.0
144
0.0
144
0.0
144
0.0
144
0.0208333333333333
144
0.0
144
0.0
144
0.0
144
0.0
144
1.0
144
0.0
144
0.0
144
0.0
144
0.0
144
1.0
147
0.0208333333333333
147
0.0
147
0.0
147
0.0
147
0.0
147
0.0208333333333333
147
0.0
147
0.0
147
0.0
147
0.0
147
1.0
147
0.0
147
0.0
147
0.0
147
0.0
147
1.0
  0
MATERIAL
  5
21
102
{ACAD_XDICTIONARY
360
22
102
}
102
{ACAD_REACTORS
330
10
102
}
330
10
100
AcDbMaterial
  1
Global
 72
     0
 43
0.0208333333333333
 43
0.0
 43
0.0
 43
0.0
 43
0.0
 43
0.0208333333333333
 43
0.0
 43
0.0
 43
0.0
 43
0.0
 43
1.0
 43
0.0
 43
0.0
 43
0.0
 43
0.0
 43
1.0
 77
     0
 47
0.0208333333333333
 47
0.0
 47
0.0
 47
0.0
 47
0.0
 47
0.0208333333333333
 47
0.0
 47
0.0
 47
0.0
 47
0.0
 47
1.0
 47
0.0
 47
0.0
 47
0.0
 47
0.0
 47
1.0
171
     0
 49
0.0208333333333333
 49
0.0
 49
0.0
 49
0.0
 49
0.0
 49
0.0208333333333333
 49
0.0
 49
0.0
 49
0.0
 49
0.0
 49
1.0
 49
0.0
 49
0.0
 49
0.0
 49
0.0
 49
1.0
175
     0
142
0.0208333333333333
142
0.0
142
0.0
142
0.0
142
0.0
142
0.0208333333333333
142
0.0
142
0.0
142
0.0
142
0.0
142
1.0
142
0.0
142
0.0
142
0.0
142
0.0
142
1.0
179
     0
144
0.0208333333333333
144
0.0
144
0.0
144
0.0
144
0.0
144
0.0208333333333333
144
0.0
144
0.0
144
0.0
144
0.0
144
1.0
144
0.0
144
0.0
144
0.0
144
0.0
144
1.0
147
0.0208333333333333
147
0.0
147
0.0
147
0.0
147
0.0
147
0.0208333333333333
147
0.0
147
0.0
147
0.0
147
0.0
147
1.0
147
0.0
147
0.0
147
0.0
147
0.0
147
1.0
  0
MLEADERSTYLE
  5
67
102
{ACAD_REACTORS
330
66
102
}
330
66
100
AcDbMLeaderStyle
179
     2
170
     2
171
     1
172
     0
 90
        2
 40
0.0
 41
0.0
173
     1
 91
-1056964608
340
5B
 92
       -2
290
     1
 42
0.09
291
     1
 43
0.36
  3
Standard
 44
0.18
300

342
55
174
     1
178
     6
175
     1
176
     0
 93
-1056964608
 45
0.18
292
     0
297
     0
 46
0.18
 94
-1056964608
 47
1.0
 49
1.0
140
1.0
293
     1
141
0.0
294
     1
177
     0
142
1.0
295
     1
296
     0
143
0.125
271
     0
272
     9
273
     9
298
     1
  0
MLINESTYLE
  5
60
102
{ACAD_REACTORS
330
5F
102
}
330
5F
100
AcDbMlineStyle
  2
STANDARD
 70
     0
  3

 62
   256
 51
90.0
 52
90.0
 71
     2
 49
0.5
 62
   256
  6
BYLAYER
 49
-0.5
 62
   256
  6
BYLAYER
  0
ACDBPLACEHOLDER
  5
F
102
{ACAD_REACTORS
330
E
102
}
330
E
  0
SCALE
  5
43
102
{ACAD_REACTORS
330
42
102
}
330
42
100
AcDbScale
 70
     0
300
1:1
140
1.0
141
1.0
290
     1
  0
SCALE
  5
44
102
{ACAD_REACTORS
330
42
102
}
330
42
100
AcDbScale
 70
     0
300
1/128" = 1'-0"
140
0.0078125
141
12.0
290
     0
  0
SCALE
  5
45
102
{ACAD_REACTORS
330
42
102
}
330
42
100
AcDbScale
 70
     0
300
1/64" = 1'-0"
140
0.015625
141
12.0
290
     0
  0
SCALE
  5
46
102
{ACAD_REACTORS
330
42
102
}
330
42
100
AcDbScale
 70
     0
300
1/32" = 1'-0"
140
0.03125
141
12.0
290
     0
  0
SCALE
  5
47
102
{ACAD_REACTORS
330
42
102
}
330
42
100
AcDbScale
 70
     0
300
1/16" = 1'-0"
140
0.0625
141
12.0
290
     0
  0
SCALE
  5
48
102
{ACAD_REACTORS
330
42
102
}
330
42
100
AcDbScale
 70
     0
300
3/32" = 1'-0"
140
0.09375
141
12.0
290
     0
  0
SCALE
  5
49
102
{ACAD_REACTORS
330
42
102
}
330
42
100
AcDbScale
 70
     0
300
1/8" = 1'-0"
140
0.125
141
12.0
290
     0
  0
SCALE
  5
4A
102
{ACAD_REACTORS
330
42
102
}
330
42
100
AcDbScale
 70
     0
300
3/16" = 1'-0"
140
0.1875
141
12.0
290
     0
  0
SCALE
  5
4B
102
{ACAD_REACTORS
330
42
102
}
330
42
100
AcDbScale
 70
     0
300
1/4" = 1'-0"
140
0.25
141
12.0
290
     0
  0
SCALE
  5
4C
102
{ACAD_REACTORS
330
42
102
}
330
42
100
AcDbScale
 70
     0
300
3/8" = 1'-0"
140
0.375
141
12.0
290
     0
  0
SCALE
  5
4D
102
{ACAD_REACTORS
330
42
102
}
330
42
100
AcDbScale
 70
     0
300
1/2" = 1'-0"
140
0.5
141
12.0
290
     0
  0
SCALE
  5
4E
102
{ACAD_REACTORS
330
42
102
}
330
42
100
AcDbScale
 70
     0
300
3/4" = 1'-0"
140
0.75
141
12.0
290
     0
  0
SCALE
  5
4F
102
{ACAD_REACTORS
330
42
102
}
330
42
100
AcDbScale
 70
     0
300
1" = 1'-0"
140
1.0
141
12.0
290
     0
  0
SCALE
  5
50
102
{ACAD_REACTORS
330
42
102
}
330
42
100
AcDbScale
 70
     0
300
1-1/2" = 1'-0"
140
1.5
141
12.0
290
     0
  0
SCALE
  5
51
102
{ACAD_REACTORS
330
42
102
}
330
42
100
AcDbScale
 70
     0
300
3" = 1'-0"
140
3.0
141
12.0
290
     0
  0
SCALE
  5
52
102
{ACAD_REACTORS
330
42
102
}
330
42
100
AcDbScale
 70
     0
300
6" = 1'-0"
140
6.0
141
12.0
290
     0
  0
SCALE
  5
53
102
{ACAD_REACTORS
330
42
102
}
330
42
100
AcDbScale
 70
     0
300
1'-0" = 1'-0"
140
12.0
141
12.0
290
     0
  0
ACDBSECTIONVIEWSTYLE
  5
69
102
{ACAD_REACTORS
330
68
102
}
330
68
100
AcDbModelDocViewStyle
 70
     0
  3
Imperial24
290
     1
300
Imperial24
 90
        0
100
AcDbSectionViewStyle
 70
     0
 71
     0
 90
       78
 71
     1
340
55
 62
   256
 40
0.24
340
0
340
0
 62
   256
 40
0.24
300
I, O, Q, S, X, Z
 40
0.48
 90
        3
 40
0.18
 90
        1
 71
     2
340
5D
 90
       25
 62
   256
340
5D
 90
       50
 62
   256
 40
0.24
 40
0.0
 40
0.24
 71
     3
340
55
 62
   256
 40
0.24
 90
        1
 40
0.75
 90
        1
300
%<\AcVar ViewType \f "%tc1">% %<\AcVar ViewSectionStartId>%-%<\AcVar ViewSectionEndId>%\PSCALE %<\AcVar ViewScale \f "%sn">%
 71
     4
 62
   256
 62
   257
300
ANSI31
 40
1.0
 90
        0
290
     0
290
     0
 90
        6
 40
0.0
 40
1.570796326794896
 40
0.2617993877991494
 40
1.308996938995747
 40
-0.2617993877991494
 40
1.832595714594046
  0
TABLESTYLE
  5
65
102
{ACAD_XDICTIONARY
360
B4
102
}
102
{ACAD_REACTORS
330
64
102
}
330
64
100
AcDbTableStyle
280
     0
  3
Standard
 70
     0
 71
     0
 40
0.06
 41
0.06
280
     0
281
     0
  7
Standard
140
0.18
170
     2
 62
     0
 63
     7
283
     0
 90
      512
 91
        0
  1

274
    -2
284
     1
 64
     0
275
    -2
285
     1
 65
     0
276
    -2
286
     1
 66
     0
277
    -2
287
     1
 67
     0
278
    -2
288
     1
 68
     0
279
    -2
289
     1
 69
     0
  7
Standard
140
0.25
170
     5
 62
     0
 63
     7
283
     0
 90
      512
 91
        0
  1

274
    -2
284
     1
 64
     0
275
    -2
285
     1
 65
     0
276
    -2
286
     1
 66
     0
277
    -2
287
     1
 67
     0
278
    -2
288
     1
 68
     0
279
    -2
289
     1
 69
     0
  7
Standard
140
0.18
170
     5
 62
     0
 63
     7
283
     0
 90
      512
 91
        0
  1

274
    -2
284
     1
 64
     0
275
    -2
285
     1
 65
     0
276
    -2
286
     1
 66
     0
277
    -2
287
     1
 67
     0
278
    -2
288
     1
 68
     0
279
    -2
289
     1
 69
     0
  0
VISUALSTYLE
  5
2F
102
{ACAD_REACTORS
330
29
102
}
330
29
100
AcDbVisualStyle
  2
2dWireframe
 70
     4
177
     3
291
     0
 70
    58
 90
        0
176
     1
 90
        2
176
     1
 90
        0
176
     1
 90
        0
176
     1
 40
0.6
176
     1
 40
30.0
176
     1
 62
     7
420
 16777215
176
     1
 90
        1
176
     1
 90
        4
176
     1
 62
     7
176
     1
 62
   257
176
     1
 90
        1
176
     1
 90
        1
176
     1
 40
1.0
176
     1
 90
        0
176
     1
 62
   257
176
     1
 40
1.0
176
     1
 90
        1
176
     1
 90
        6
176
     1
 90
        2
176
     1
 62
     7
176
     1
 90
        5
176
     1
 90
        0
176
     1
 90
        0
176
     1
290
     0
176
     1
 90
        1
176
     1
 40
0.0
176
     1
 90
        0
176
     1
290
     1
176
     1
290
     1
176
     1
290
     0
176
     1
290
     0
176
     1
290
     0
176
     1
290
     0
176
     1
290
     0
176
     1
290
     0
176
     1
290
     0
176
     1
 90
       50
176
     1
 40
0.0
176
     1
 40
1.0
176
     1
 90
        0
176
     1
 62
    18
420
        0
176
     1
 90
       50
176
     1
 90
        3
176
     1
 62
     5
420
      255
176
     1
290
     0
176
     1
 90
       50
176
     1
 90
       50
176
     1
 90
       50
176
     1
290
     0
176
     1
 90
       50
176
     1
 62
   256
176
     0
 40
1.0
176
     0
 90
        2
176
     1
  1
strokes_ogs.tif
176
     1
290
     0
176
     1
 40
1.0
176
     1
 40
1.0
176
     1
  0
VISUALSTYLE
  5
2E
102
{ACAD_REACTORS
330
29
102
}
330
29
100
AcDbVisualStyle
  2
Basic
 70
     7
177
     3
291
     1
 70
    58
 90
        1
176
     1
 90
        0
176
     1
 90
        1
176
     1
 90
        0
176
     1
 40
0.6
176
     1
 40
30.0
176
     1
 62
     7
420
 16777215
176
     1
 90
        0
176
     1
 90
        4
176
     1
 62
     7
176
     1
 62
   257
176
     1
 90
        1
176
     1
 90
        1
176
     1
 40
1.0
176
     1
 90
        8
176
     1
 62
     7
176
     1
 40
1.0
176
     1
 90
        1
176
     1
 90
        6
176
     1
 90
        2
176
     1
 62
     7
176
     1
 90
        5
176
     1
 90
        0
176
     1
 90
        0
176
     1
290
     0
176
     1
 90
        1
176
     1
 40
0.0
176
     1
 90
        0
176
     1
290
     0
176
     1
290
     1
176
     1
290
     1
176
     1
290
     0
176
     1
290
     0
176
     1
290
     0
176
     1
290
     0
176
     1
290
     0
176
     1
290
     0
176
     1
 90
       50
176
     1
 40
0.0
176
     1
 40
1.0
176
     1
 90
        0
176
     1
 62
    18
420
        0
176
     1
 90
       50
176
     1
 90
        3
176
     1
 62
     5
420
      255
176
     1
290
     0
176
     1
 90
       50
176
     1
 90
       50
176
     1
 90
       50
176
     1
290
     0
176
     1
 90
       50
176
     1
 62
   256
176
     0
 40
1.0
176
     0
 90
        2
176
     1
  1
strokes_ogs.tif
176
     1
290
     0
176
     1
 40
1.0
176
     1
 40
1.0
176
     1
  0
VISUALSTYLE
  5
35
102
{ACAD_REACTORS
330
29
102
}
330
29
100
AcDbVisualStyle
  2
Brighten
 70
    12
177
     3
291
     1
 70
    58
 90
        2
176
     1
 90
        2
176
     1
 90
        0
176
     1
 90
        0
176
     1
 40
0.6
176
     1
 40
30.0
176
     1
 62
     7
420
 16777215
176
     1
 90
        1
176
     1
 90
        4
176
     1
 62
     7
176
     1
 62
   257
176
     1
 90
        1
176
     1
 90
        1
176
     1
 40
1.0
176
     1
 90
        8
176
     1
 62
     7
176
     1
 40
1.0
176
     1
 90
        1
176
     1
 90
        6
176
     1
 90
        2
176
     1
 62
     7
176
     1
 90
        5
176
     1
 90
        0
176
     1
 90
        0
176
     1
290
     0
176
     1
 90
        1
176
     1
 40
50.0
176
     1
 90
        0
176
     1
290
     0
176
     1
290
     1
176
     1
290
     1
176
     1
290
     0
176
     1
290
     0
176
     1
290
     0
176
     1
290
     0
176
     1
290
     0
176
     1
290
     0
176
     1
 90
       50
176
     1
 40
0.0
176
     1
 40
1.0
176
     1
 90
        0
176
     1
 62
    18
420
        0
176
     1
 90
       50
176
     1
 90
        3
176
     1
 62
     5
420
      255
176
     1
290
     0
176
     1
 90
       50
176
     1
 90
       50
176
     1
 90
       50
176
     1
290
     0
176
     1
 90
       50
176
     1
 62
   256
176
     0
 40
1.0
176
     0
 90
        2
176
     1
  1
strokes_ogs.tif
176
     1
290
     0
176
     1
 40
1.0
176
     1
 40
1.0
176
     1
  0
VISUALSTYLE
  5
39
102
{ACAD_REACTORS
330
29
102
}
330
29
100
AcDbVisualStyle
  2
ColorChange
 70
    16
177
     3
291
     1
 70
    58
 90
        2
176
     1
 90
        2
176
     1
 90
        3
176
     1
 90
        0
176
     1
 40
0.6
176
     1
 40
30.0
176
     1
 62
     8
420
  8421504
176
     1
 90
        1
176
     1
 90
        4
176
     1
 62
     7
176
     1
 62
   257
176
     1
 90
        1
176
     1
 90
        1
176
     1
 40
1.0
176
     1
 90
        8
176
     1
 62
     8
420
  8421504
176
     1
 40
1.0
176
     1
 90
        1
176
     1
 90
        6
176
     1
 90
        2
176
     1
 62
     7
176
     1
 90
        5
176
     1
 90
        0
176
     1
 90
        0
176
     1
290
     0
176
     1
 90
        1
176
     1
 40
0.0
176
     1
 90
        0
176
     1
290
     0
176
     1
290
     1
176
     1
290
     1
176
     1
290
     0
176
     1
290
     0
176
     1
290
     0
176
     1
290
     0
176
     1
290
     0
176
     1
290
     0
176
     1
 90
       50
176
     1
 40
0.0
176
     1
 40
1.0
176
     1
 90
        0
176
     1
 62
    18
420
        0
176
     1
 90
       50
176
     1
 90
        3
176
     1
 62
     5
420
      255
176
     1
290
     0
176
     1
 90
       50
176
     1
 90
       50
176
     1
 90
       50
176
     1
290
     0
176
     1
 90
       50
176
     1
 62
   256
176
     0
 40
1.0
176
     0
 90
        2
176
     1
  1
strokes_ogs.tif
176
     1
290
     0
176
     1
 40
1.0
176
     1
 40
1.0
176
     1
  0
VISUALSTYLE
  5
32
102
{ACAD_REACTORS
330
29
102
}
330
29
100
AcDbVisualStyle
  2
Conceptual
 70
     9
177
     3
291
     0
 70
    58
 90
        3
176
     1
 90
        2
176
     1
 90
        0
176
     1
 90
        0
176
     1
 40
0.6
176
     1
 40
30.0
176
     1
 62
     7
420
 16777215
176
     1
 90
        2
176
     1
 90
        2
176
     1
 62
     7
176
     1
 62
   257
176
     1
 90
        1
176
     1
 90
        1
176
     1
 40
179.0
176
     1
 90
        8
176
     1
 62
     7
176
     1
 40
1.0
176
     1
 90
        1
176
     1
 90
        6
176
     1
 90
        2
176
     1
 62
     7
176
     1
 90
        3
176
     1
 90
        0
176
     1
 90
        0
176
     1
290
     0
176
     1
 90
        1
176
     1
 40
0.0
176
     1
 90
        0
176
     1
290
     0
176
     1
290
     1
176
     1
290
     1
176
     1
290
     0
176
     1
290
     0
176
     1
290
     0
176
     1
290
     0
176
     1
290
     0
176
     1
290
     0
176
     1
 90
       50
176
     1
 40
0.0
176
     1
 40
1.0
176
     1
 90
        0
176
     1
 62
    18
420
        0
176
     1
 90
       50
176
     1
 90
        3
176
     1
 62
     5
420
      255
176
     1
290
     0
176
     1
 90
       50
176
     1
 90
       50
176
     1
 90
       50
176
     1
290
     0
176
     1
 90
       50
176
     1
 62
   256
176
     0
 40
1.0
176
     0
 90
        2
176
     1
  1
strokes_ogs.tif
176
     1
290
     0
176
     1
 40
1.0
176
     1
 40
1.0
176
     1
  0
VISUALSTYLE
  5
34
102
{ACAD_REACTORS
330
29
102
}
330
29
100
AcDbVisualStyle
  2
Dim
 70
    11
177
     3
291
     1
 70
    58
 90
        2
176
     1
 90
        2
176
     1
 90
        0
176
     1
 90
        0
176
     1
 40
0.6
176
     1
 40
30.0
176
     1
 62
     7
420
 16777215
176
     1
 90
        1
176
     1
 90
        4
176
     1
 62
     7
176
     1
 62
   257
176
     1
 90
        1
176
     1
 90
        1
176
     1
 40
1.0
176
     1
 90
        8
176
     1
 62
     7
176
     1
 40
1.0
176
     1
 90
        1
176
     1
 90
        6
176
     1
 90
        2
176
     1
 62
     7
176
     1
 90
        5
176
     1
 90
        0
176
     1
 90
        0
176
     1
290
     0
176
     1
 90
        1
176
     1
 40
-50.0
176
     1
 90
        0
176
     1
290
     0
176
     1
290
     1
176
     1
290
     1
176
     1
290
     0
176
     1
290
     0
176
     1
290
     0
176
     1
290
     0
176
     1
290
     0
176
     1
290
     0
176
     1
 90
       50
176
     1
 40
0.0
176
     1
 40
1.0
176
     1
 90
        0
176
     1
 62
    18
420
        0
176
     1
 90
       50
176
     1
 90
        3
176
     1
 62
     5
420
      255
176
     1
290
     0
176
     1
 90
       50
176
     1
 90
       50
176
     1
 90
       50
176
     1
290
     0
176
     1
 90
       50
176
     1
 62
   256
176
     0
 40
1.0
176
     0
 90
        2
176
     1
  1
strokes_ogs.tif
176
     1
290
     0
176
     1
 40
1.0
176
     1
 40
1.0
176
     1
  0
VISUALSTYLE
  5
41
102
{ACAD_REACTORS
330
29
102
}
330
29
100
AcDbVisualStyle
  2
EdgeColorOff
 70
    22
177
     3
291
     1
 70
    58
 90
        2
176
     0
 90
        2
176
     0
 90
        0
176
     0
 90
        0
176
     0
 40
0.6
176
     0
 40
30.0
176
     0
 62
     7
420
 16777215
176
     0
 90
        1
176
     0
 90
        4
176
     0
 62
     7
176
     0
 62
   257
176
     0
 90
        1
176
     0
 90
        1
176
     0
 40
1.0
176
     0
 90
        8
176
     2
 62
     7
176
     0
 40
1.0
176
     0
 90
        1
176
     0
 90
        6
176
     0
 90
        2
176
     0
 62
     7
176
     0
 90
        5
176
     0
 90
        0
176
     0
 90
        0
176
     0
290
     0
176
     0
 90
        1
176
     0
 40
0.0
176
     0
 90
        0
176
     0
290
     0
176
     0
290
     1
176
     0
290
     1
176
     0
290
     0
176
     0
290
     0
176
     0
290
     0
176
     0
290
     0
176
     0
290
     0
176
     0
290
     0
176
     0
 90
       50
176
     0
 40
0.0
176
     0
 40
1.0
176
     0
 90
        0
176
     0
 62
    18
420
        0
176
     0
 90
       50
176
     0
 90
        3
176
     0
 62
     5
420
      255
176
     0
290
     0
176
     0
 90
       50
176
     0
 90
       50
176
     0
 90
       50
176
     0
290
     0
176
     0
 90
       50
176
     0
 62
   256
176
     0
 40
1.0
176
     0
 90
        2
176
     0
  1
strokes_ogs.tif
176
     0
290
     0
176
     0
 40
1.0
176
     0
 40
1.0
176
     0
  0
VISUALSTYLE
  5
38
102
{ACAD_REACTORS
330
29
102
}
330
29
100
AcDbVisualStyle
  2
Facepattern
 70
    15
177
     3
291
     1
 70
    58
 90
        2
176
     1
 90
        2
176
     1
 90
        0
176
     1
 90
        0
176
     1
 40
0.6
176
     1
 40
30.0
176
     1
 62
     7
420
 16777215
176
     1
 90
        1
176
     1
 90
        4
176
     1
 62
     7
176
     1
 62
   257
176
     1
 90
        1
176
     1
 90
        1
176
     1
 40
1.0
176
     1
 90
        8
176
     1
 62
     7
176
     1
 40
1.0
176
     1
 90
        1
176
     1
 90
        6
176
     1
 90
        2
176
     1
 62
     7
176
     1
 90
        5
176
     1
 90
        0
176
     1
 90
        0
176
     1
290
     0
176
     1
 90
        1
176
     1
 40
0.0
176
     1
 90
        0
176
     1
290
     0
176
     1
290
     1
176
     1
290
     1
176
     1
290
     0
176
     1
290
     0
176
     1
290
     0
176
     1
290
     0
176
     1
290
     0
176
     1
290
     0
176
     1
 90
       50
176
     1
 40
0.0
176
     1
 40
1.0
176
     1
 90
        0
176
     1
 62
    18
420
        0
176
     1
 90
       50
176
     1
 90
        3
176
     1
 62
     5
420
      255
176
     1
290
     0
176
     1
 90
       50
176
     1
 90
       50
176
     1
 90
       50
176
     1
290
     0
176
     1
 90
       50
176
     1
 62
   256
176
     0
 40
1.0
176
     0
 90
        2
176
     1
  1
strokes_ogs.tif
176
     1
290
     0
176
     1
 40
1.0
176
     1
 40
1.0
176
     1
  0
VISUALSTYLE
  5
2A
102
{ACAD_REACTORS
330
29
102
}
330
29
100
AcDbVisualStyle
  2
Flat
 70
     0
177
     3
291
     1
 70
    58
 90
        2
176
     1
 90
        1
176
     1
 90
        1
176
     1
 90
        2
176
     1
 40
0.6
176
     1
 40
30.0
176
     1
 62
     7
420
 16777215
176
     1
 90
        0
176
     1
 90
        0
176
     1
 62
     7
176
     1
 62
   257
176
     1
 90
        1
176
     1
 90
        1
176
     1
 40
1.0
176
     1
 90
        8
176
     1
 62
     7
176
     1
 40
1.0
176
     1
 90
        1
176
     1
 90
        6
176
     1
 90
        2
176
     1
 62
     7
176
     1
 90
        5
176
     1
 90
        0
176
     1
 90
        0
176
     1
290
     0
176
     1
 90
       13
176
     1
 40
0.0
176
     1
 90
        0
176
     1
290
     0
176
     1
290
     1
176
     1
290
     1
176
     1
290
     0
176
     1
290
     0
176
     1
290
     0
176
     1
290
     0
176
     1
290
     0
176
     1
290
     0
176
     1
 90
       50
176
     1
 40
0.0
176
     1
 40
1.0
176
     1
 90
        0
176
     1
 62
    18
420
        0
176
     1
 90
       50
176
     1
 90
        3
176
     1
 62
     5
420
      255
176
     1
290
     0
176
     1
 90
       50
176
     1
 90
       50
176
     1
 90
       50
176
     1
290
     0
176
     1
 90
       50
176
     1
 62
   256
176
     0
 40
1.0
176
     0
 90
        2
176
     1
  1
strokes_ogs.tif
176
     1
290
     0
176
     1
 40
1.0
176
     1
 40
1.0
176
     1
  0
VISUALSTYLE
  5
2B
102
{ACAD_REACTORS
330
29
102
}
330
29
100
AcDbVisualStyle
  2
FlatWithEdges
 70
     1
177
     3
291
     1
 70
    58
 90
        2
176
     1
 90
        1
176
     1
 90
        1
176
     1
 90
        2
176
     1
 40
0.6
176
     1
 40
30.0
176
     1
 62
     7
420
 16777215
176
     1
 90
        1
176
     1
 90
        0
176
     1
 62
     7
176
     1
 62
   257
176
     1
 90
        1
176
     1
 90
        1
176
     1
 40
1.0
176
     1
 90
        0
176
     1
 62
   257
176
     1
 40
1.0
176
     1
 90
        1
176
     1
 90
        6
176
     1
 90
        2
176
     1
 62
     7
176
     1
 90
        5
176
     1
 90
        0
176
     1
 90
        0
176
     1
290
     0
176
     1
 90
       13
176
     1
 40
0.0
176
     1
 90
        0
176
     1
290
     0
176
     1
290
     1
176
     1
290
     1
176
     1
290
     0
176
     1
290
     0
176
     1
290
     0
176
     1
290
     0
176
     1
290
     0
176
     1
290
     0
176
     1
 90
       50
176
     1
 40
0.0
176
     1
 40
1.0
176
     1
 90
        0
176
     1
 62
    18
420
        0
176
     1
 90
       50
176
     1
 90
        3
176
     1
 62
     5
420
      255
176
     1
290
     0
176
     1
 90
       50
176
     1
 90
       50
176
     1
 90
       50
176
     1
290
     0
176
     1
 90
       50
176
     1
 62
   256
176
     0
 40
1.0
176
     0
 90
        2
176
     1
  1
strokes_ogs.tif
176
     1
290
     0
176
     1
 40
1.0
176
     1
 40
1.0
176
     1
  0
VISUALSTYLE
  5
2C
102
{ACAD_REACTORS
330
29
102
}
330
29
100
AcDbVisualStyle
  2
Gouraud
 70
     2
177
     3
291
     1
 70
    58
 90
        2
176
     1
 90
        2
176
     1
 90
        1
176
     1
 90
        2
176
     1
 40
0.6
176
     1
 40
30.0
176
     1
 62
     7
420
 16777215
176
     1
 90
        0
176
     1
 90
        0
176
     1
 62
     7
176
     1
 62
   257
176
     1
 90
        1
176
     1
 90
        1
176
     1
 40
1.0
176
     1
 90
        0
176
     1
 62
     7
176
     1
 40
1.0
176
     1
 90
        1
176
     1
 90
        6
176
     1
 90
        2
176
     1
 62
     7
176
     1
 90
        5
176
     1
 90
        0
176
     1
 90
        0
176
     1
290
     0
176
     1
 90
       13
176
     1
 40
0.0
176
     1
 90
        0
176
     1
290
     0
176
     1
290
     1
176
     1
290
     1
176
     1
290
     0
176
     1
290
     0
176
     1
290
     0
176
     1
290
     0
176
     1
290
     0
176
     1
290
     0
176
     1
 90
       50
176
     1
 40
0.0
176
     1
 40
1.0
176
     1
 90
        0
176
     1
 62
    18
420
        0
176
     1
 90
       50
176
     1
 90
        3
176
     1
 62
     5
420
      255
176
     1
290
     0
176
     1
 90
       50
176
     1
 90
       50
176
     1
 90
       50
176
     1
290
     0
176
     1
 90
       50
176
     1
 62
   256
176
     0
 40
1.0
176
     0
 90
        2
176
     1
  1
strokes_ogs.tif
176
     1
290
     0
176
     1
 40
1.0
176
     1
 40
1.0
176
     1
  0
VISUALSTYLE
  5
2D
102
{ACAD_REACTORS
330
29
102
}
330
29
100
AcDbVisualStyle
  2
GouraudWithEdges
 70
     3
177
     3
291
     1
 70
    58
 90
        2
176
     1
 90
        2
176
     1
 90
        1
176
     1
 90
        2
176
     1
 40
0.6
176
     1
 40
30.0
176
     1
 62
     7
420
 16777215
176
     1
 90
        1
176
     1
 90
        0
176
     1
 62
     7
176
     1
 62
   257
176
     1
 90
        1
176
     1
 90
        1
176
     1
 40
1.0
176
     1
 90
        0
176
     1
 62
   257
176
     1
 40
1.0
176
     1
 90
        1
176
     1
 90
        6
176
     1
 90
        2
176
     1
 62
     7
176
     1
 90
        5
176
     1
 90
        0
176
     1
 90
        0
176
     1
290
     0
176
     1
 90
       13
176
     1
 40
0.0
176
     1
 90
        0
176
     1
290
     0
176
     1
290
     1
176
     1
290
     1
176
     1
290
     0
176
     1
290
     0
176
     1
290
     0
176
     1
290
     0
176
     1
290
     0
176
     1
290
     0
176
     1
 90
       50
176
     1
 40
0.0
176
     1
 40
1.0
176
     1
 90
        0
176
     1
 62
    18
420
        0
176
     1
 90
       50
176
     1
 90
        3
176
     1
 62
     5
420
      255
176
     1
290
     0
176
     1
 90
       50
176
     1
 90
       50
176
     1
 90
       50
176
     1
290
     0
176
     1
 90
       50
176
     1
 62
   256
176
     0
 40
1.0
176
     0
 90
        2
176
     1
  1
strokes_ogs.tif
176
     1
290
     0
176
     1
 40
1.0
176
     1
 40
1.0
176
     1
  0
VISUALSTYLE
  5
31
102
{ACAD_REACTORS
330
29
102
}
330
29
100
AcDbVisualStyle
  2
Hidden
 70
     6
177
     3
291
     0
 70
    58
 90
        1
176
     1
 90
        2
176
     1
 90
        2
176
     1
 90
        0
176
     1
 40
0.6
176
     1
 40
30.0
176
     1
 62
     7
420
 16777215
176
     1
 90
        2
176
     1
 90
        2
176
     1
 62
     7
176
     1
 62
   257
176
     1
 90
        2
176
     1
 90
        1
176
     1
 40
40.0
176
     1
 90
        0
176
     1
 62
   257
176
     1
 40
1.0
176
     1
 90
        1
176
     1
 90
        6
176
     1
 90
        2
176
     1
 62
     7
176
     1
 90
        3
176
     1
 90
        0
176
     1
 90
        0
176
     1
290
     0
176
     1
 90
        1
176
     1
 40
0.0
176
     1
 90
        0
176
     1
290
     0
176
     1
290
     1
176
     1
290
     1
176
     1
290
     0
176
     1
290
     0
176
     1
290
     0
176
     1
290
     0
176
     1
290
     0
176
     1
290
     0
176
     1
 90
       50
176
     1
 40
0.0
176
     1
 40
1.0
176
     1
 90
        0
176
     1
 62
    18
420
        0
176
     1
 90
       50
176
     1
 90
        3
176
     1
 62
     5
420
      255
176
     1
290
     0
176
     1
 90
       50
176
     1
 90
       50
176
     1
 90
       50
176
     1
290
     0
176
     1
 90
       50
176
     1
 62
   256
176
     0
 40
1.0
176
     0
 90
        2
176
     1
  1
strokes_ogs.tif
176
     1
290
     0
176
     1
 40
1.0
176
     1
 40
1.0
176
     1
  0
VISUALSTYLE
  5
3F
102
{ACAD_REACTORS
330
29
102
}
330
29
100
AcDbVisualStyle
  2
JitterOff
 70
    20
177
     3
291
     1
 70
    58
 90
        2
176
     0
 90
        2
176
     0
 90
        0
176
     0
 90
        0
176
     0
 40
0.6
176
     0
 40
30.0
176
     0
 62
     7
420
 16777215
176
     0
 90
        1
176
     0
 90
        4
176
     0
 62
     7
176
     0
 62
   257
176
     0
 90
        1
176
     0
 90
        1
176
     0
 40
1.0
176
     0
 90
       10
176
     2
 62
     7
176
     0
 40
1.0
176
     0
 90
        1
176
     0
 90
        6
176
     0
 90
        2
176
     0
 62
     7
176
     0
 90
        5
176
     0
 90
        0
176
     0
 90
        0
176
     0
290
     0
176
     0
 90
        1
176
     0
 40
0.0
176
     0
 90
        0
176
     0
290
     0
176
     0
290
     1
176
     0
290
     1
176
     0
290
     0
176
     0
290
     0
176
     0
290
     0
176
     0
290
     0
176
     0
290
     0
176
     0
290
     0
176
     0
 90
       50
176
     0
 40
0.0
176
     0
 40
1.0
176
     0
 90
        0
176
     0
 62
    18
420
        0
176
     0
 90
       50
176
     0
 90
        3
176
     0
 62
     5
420
      255
176
     0
290
     0
176
     0
 90
       50
176
     0
 90
       50
176
     0
 90
       50
176
     0
290
     0
176
     0
 90
       50
176
     0
 62
   256
176
     0
 40
1.0
176
     0
 90
        2
176
     0
  1
strokes_ogs.tif
176
     0
290
     0
176
     0
 40
1.0
176
     0
 40
1.0
176
     0
  0
VISUALSTYLE
  5
37
102
{ACAD_REACTORS
330
29
102
}
330
29
100
AcDbVisualStyle
  2
Linepattern
 70
    14
177
     3
291
     1
 70
    58
 90
        2
176
     1
 90
        2
176
     1
 90
        0
176
     1
 90
        0
176
     1
 40
0.6
176
     1
 40
30.0
176
     1
 62
     7
420
 16777215
176
     1
 90
        1
176
     1
 90
        4
176
     1
 62
     7
176
     1
 62
   257
176
     1
 90
        7
176
     1
 90
        7
176
     1
 40
1.0
176
     1
 90
        8
176
     1
 62
     7
176
     1
 40
1.0
176
     1
 90
        1
176
     1
 90
        6
176
     1
 90
        2
176
     1
 62
     7
176
     1
 90
        5
176
     1
 90
        0
176
     1
 90
        0
176
     1
290
     0
176
     1
 90
        1
176
     1
 40
0.0
176
     1
 90
        0
176
     1
290
     0
176
     1
290
     1
176
     1
290
     1
176
     1
290
     0
176
     1
290
     0
176
     1
290
     0
176
     1
290
     0
176
     1
290
     0
176
     1
290
     0
176
     1
 90
       50
176
     1
 40
0.0
176
     1
 40
1.0
176
     1
 90
        0
176
     1
 62
    18
420
        0
176
     1
 90
       50
176
     1
 90
        3
176
     1
 62
     5
420
      255
176
     1
290
     0
176
     1
 90
       50
176
     1
 90
       50
176
     1
 90
       50
176
     1
290
     0
176
     1
 90
       50
176
     1
 62
   256
176
     0
 40
1.0
176
     0
 90
        2
176
     1
  1
strokes_ogs.tif
176
     1
290
     0
176
     1
 40
1.0
176
     1
 40
1.0
176
     1
  0
VISUALSTYLE
  5
40
102
{ACAD_REACTORS
330
29
102
}
330
29
100
AcDbVisualStyle
  2
OverhangOff
 70
    21
177
     3
291
     1
 70
    58
 90
        2
176
     0
 90
        2
176
     0
 90
        0
176
     0
 90
        0
176
     0
 40
0.6
176
     0
 40
30.0
176
     0
 62
     7
420
 16777215
176
     0
 90
        1
176
     0
 90
        4
176
     0
 62
     7
176
     0
 62
   257
176
     0
 90
        1
176
     0
 90
        1
176
     0
 40
1.0
176
     0
 90
        9
176
     2
 62
     7
176
     0
 40
1.0
176
     0
 90
        1
176
     0
 90
        6
176
     0
 90
        2
176
     0
 62
     7
176
     0
 90
        5
176
     0
 90
        0
176
     0
 90
        0
176
     0
290
     0
176
     0
 90
        1
176
     0
 40
0.0
176
     0
 90
        0
176
     0
290
     0
176
     0
290
     1
176
     0
290
     1
176
     0
290
     0
176
     0
290
     0
176
     0
290
     0
176
     0
290
     0
176
     0
290
     0
176
     0
290
     0
176
     0
 90
       50
176
     0
 40
0.0
176
     0
 40
1.0
176
     0
 90
        0
176
     0
 62
    18
420
        0
176
     0
 90
       50
176
     0
 90
        3
176
     0
 62
     5
420
      255
176
     0
290
     0
176
     0
 90
       50
176
     0
 90
       50
176
     0
 90
       50
176
     0
290
     0
176
     0
 90
       50
176
     0
 62
   256
176
     0
 40
1.0
176
     0
 90
        2
176
     0
  1
strokes_ogs.tif
176
     0
290
     0
176
     0
 40
1.0
176
     0
 40
1.0
176
     0
  0
VISUALSTYLE
  5
33
102
{ACAD_REACTORS
330
29
102
}
330
29
100
AcDbVisualStyle
  2
Realistic
 70
     8
177
     3
291
     0
 70
    58
 90
        2
176
     1
 90
        3
176
     1
 90
        0
176
     1
 90
        2
176
     1
 40
0.6
176
     1
 40
30.0
176
     1
 62
     7
420
 16777215
176
     1
 90
        0
176
     1
 90
        0
176
     1
 62
     7
176
     1
 62
   257
176
     1
 90
        1
176
     1
 90
        1
176
     1
 40
1.0
176
     1
 90
        8
176
     1
 62
   257
176
     1
 40
1.0
176
     1
 90
        1
176
     1
 90
        6
176
     1
 90
        2
176
     1
 62
     7
176
     1
 90
        3
176
     1
 90
        0
176
     1
 90
        0
176
     1
290
     0
176
     1
 90
       13
176
     1
 40
0.0
176
     1
 90
        0
176
     1
290
     0
176
     1
290
     1
176
     1
290
     1
176
     1
290
     0
176
     1
290
     0
176
     1
290
     0
176
     1
290
     0
176
     1
290
     0
176
     1
290
     0
176
     1
 90
       50
176
     1
 40
0.0
176
     1
 40
1.0
176
     1
 90
        0
176
     1
 62
    18
420
        0
176
     1
 90
       50
176
     1
 90
        3
176
     1
 62
     5
420
      255
176
     1
290
     0
176
     1
 90
       50
176
     1
 90
       50
176
     1
 90
       50
176
     1
290
     0
176
     1
 90
       50
176
     1
 62
   256
176
     0
 40
1.0
176
     0
 90
        2
176
     1
  1
strokes_ogs.tif
176
     1
290
     0
176
     1
 40
1.0
176
     1
 40
1.0
176
     1
  0
VISUALSTYLE
  5
3E
102
{ACAD_REACTORS
330
29
102
}
330
29
100
AcDbVisualStyle
  2
Shaded
 70
    27
177
     3
291
     0
 70
    58
 90
        2
176
     1
 90
        2
176
     1
 90
        1
176
     1
 90
        2
176
     1
 40
0.6
176
     1
 40
30.0
176
     1
 62
     7
420
 16777215
176
     1
 90
        0
176
     1
 90
        4
176
     1
 62
     7
176
     1
 62
   257
176
     1
 90
        1
176
     1
 90
        1
176
     1
 40
1.0
176
     1
 90
        8
176
     1
 62
   257
176
     1
 40
1.0
176
     1
 90
        1
176
     1
 90
        6
176
     1
 90
        2
176
     1
 62
     8
420
  7895160
176
     1
 90
        3
176
     1
 90
        0
176
     1
 90
        0
176
     1
290
     0
176
     1
 90
        5
176
     1
 40
0.0
176
     1
 90
        0
176
     1
290
     0
176
     1
290
     1
176
     1
290
     1
176
     1
290
     0
176
     1
290
     0
176
     1
290
     0
176
     1
290
     0
176
     1
290
     0
176
     1
290
     0
176
     1
 90
       50
176
     1
 40
0.0
176
     1
 40
1.0
176
     1
 90
        0
176
     1
 62
    18
420
        0
176
     1
 90
       50
176
     1
 90
        3
176
     1
 62
     5
420
      255
176
     1
290
     0
176
     1
 90
       50
176
     1
 90
       50
176
     1
 90
       50
176
     1
290
     0
176
     1
 90
       50
176
     1
 62
   256
176
     0
 40
1.0
176
     0
 90
        2
176
     1
  1
strokes_ogs.tif
176
     1
290
     0
176
     1
 40
1.0
176
     1
 40
1.0
176
     1
  0
VISUALSTYLE
  5
3D
102
{ACAD_REACTORS
330
29
102
}
330
29
100
AcDbVisualStyle
  2
Shaded with edges
 70
    26
177
     3
291
     0
 70
    58
 90
        2
176
     1
 90
        2
176
     1
 90
        1
176
     1
 90
        2
176
     1
 40
0.6
176
     1
 40
30.0
176
     1
 62
     7
420
 16777215
176
     1
 90
        1
176
     1
 90
        2
176
     1
 62
     7
176
     1
 62
   257
176
     1
 90
        2
176
     1
 90
        1
176
     1
 40
1.0
176
     1
 90
        8
176
     1
 62
   257
176
     1
 40
1.0
176
     1
 90
        1
176
     1
 90
        6
176
     1
 90
        2
176
     1
 62
     7
176
     1
 90
        3
176
     1
 90
        0
176
     1
 90
        0
176
     1
290
     0
176
     1
 90
        5
176
     1
 40
0.0
176
     1
 90
        0
176
     1
290
     0
176
     1
290
     1
176
     1
290
     1
176
     1
290
     0
176
     1
290
     0
176
     1
290
     0
176
     1
290
     0
176
     1
290
     0
176
     1
290
     0
176
     1
 90
       50
176
     1
 40
0.0
176
     1
 40
1.0
176
     1
 90
        0
176
     1
 62
    18
420
        0
176
     1
 90
       50
176
     1
 90
        3
176
     1
 62
     5
420
      255
176
     1
290
     0
176
     1
 90
       50
176
     1
 90
       50
176
     1
 90
       50
176
     1
290
     0
176
     1
 90
       50
176
     1
 62
   256
176
     0
 40
1.0
176
     0
 90
        2
176
     1
  1
strokes_ogs.tif
176
     1
290
     0
176
     1
 40
1.0
176
     1
 40
1.0
176
     1
  0
VISUALSTYLE
  5
3A
102
{ACAD_REACTORS
330
29
102
}
330
29
100
AcDbVisualStyle
  2
Shades of Gray
 70
    23
177
     3
291
     0
 70
    58
 90
        2
176
     1
 90
        2
176
     1
 90
        3
176
     1
 90
        0
176
     1
 40
0.6
176
     1
 40
30.0
176
     1
 62
     7
420
 16777215
176
     1
 90
        2
176
     1
 90
        2
176
     1
 62
     7
176
     1
 62
     7
176
     1
 90
        1
176
     1
 90
        1
176
     1
 40
40.0
176
     1
 90
        8
176
     1
 62
     7
176
     1
 40
1.0
176
     1
 90
        1
176
     1
 90
        6
176
     1
 90
        2
176
     1
 62
     7
176
     1
 90
        3
176
     1
 90
        0
176
     1
 90
        0
176
     1
290
     0
176
     1
 90
        1
176
     1
 40
0.0
176
     1
 90
        0
176
     1
290
     0
176
     1
290
     1
176
     1
290
     1
176
     1
290
     0
176
     1
290
     0
176
     1
290
     0
176
     1
290
     0
176
     1
290
     0
176
     1
290
     0
176
     1
 90
       50
176
     1
 40
0.0
176
     1
 40
1.0
176
     1
 90
        0
176
     1
 62
    18
420
        0
176
     1
 90
       50
176
     1
 90
        3
176
     1
 62
     5
420
      255
176
     1
290
     0
176
     1
 90
       50
176
     1
 90
       50
176
     1
 90
       50
176
     1
290
     0
176
     1
 90
       50
176
     1
 62
   256
176
     0
 40
1.0
176
     0
 90
        2
176
     1
  1
strokes_ogs.tif
176
     1
290
     0
176
     1
 40
1.0
176
     1
 40
1.0
176
     1
  0
VISUALSTYLE
  5
3B
102
{ACAD_REACTORS
330
29
102
}
330
29
100
AcDbVisualStyle
  2
Sketchy
 70
    24
177
     3
291
     0
 70
    58
 90
        1
176
     1
 90
        2
176
     1
 90
        2
176
     1
 90
        0
176
     1
 40
0.6
176
     1
 40
30.0
176
     1
 62
     7
420
 16777215
176
     1
 90
        2
176
     1
 90
        2
176
     1
 62
     7
176
     1
 62
     7
176
     1
 90
        1
176
     1
 90
        1
176
     1
 40
40.0
176
     1
 90
       11
176
     1
 62
     7
176
     1
 40
1.0
176
     1
 90
        1
176
     1
 90
        6
176
     1
 90
        2
176
     1
 62
     7
176
     1
 90
        6
176
     1
 90
        0
176
     1
 90
        0
176
     1
290
     0
176
     1
 90
        1
176
     1
 40
0.0
176
     1
 90
        0
176
     1
290
     0
176
     1
290
     1
176
     1
290
     1
176
     1
290
     0
176
     1
290
     0
176
     1
290
     0
176
     1
290
     0
176
     1
290
     0
176
     1
290
     0
176
     1
 90
       50
176
     1
 40
0.0
176
     1
 40
1.0
176
     1
 90
        0
176
     1
 62
    18
420
        0
176
     1
 90
       50
176
     1
 90
        3
176
     1
 62
     5
420
      255
176
     1
290
     0
176
     1
 90
       50
176
     1
 90
       50
176
     1
 90
       50
176
     1
290
     0
176
     1
 90
       50
176
     1
 62
   256
176
     0
 40
1.0
176
     0
 90
        2
176
     1
  1
strokes_ogs.tif
176
     1
290
     0
176
     1
 40
1.0
176
     1
 40
1.0
176
     1
  0
VISUALSTYLE
  5
36
102
{ACAD_REACTORS
330
29
102
}
330
29
100
AcDbVisualStyle
  2
Thicken
 70
    13
177
     3
291
     1
 70
    58
 90
        2
176
     1
 90
        2
176
     1
 90
        0
176
     1
 90
        0
176
     1
 40
0.6
176
     1
 40
30.0
176
     1
 62
     7
420
 16777215
176
     1
 90
        1
176
     1
 90
        4
176
     1
 62
     7
176
     1
 62
   257
176
     1
 90
        1
176
     1
 90
        1
176
     1
 40
1.0
176
     1
 90
       12
176
     1
 62
     7
176
     1
 40
1.0
176
     1
 90
        1
176
     1
 90
        6
176
     1
 90
        2
176
     1
 62
     7
176
     1
 90
        5
176
     1
 90
        0
176
     1
 90
        0
176
     1
290
     0
176
     1
 90
        1
176
     1
 40
0.0
176
     1
 90
        0
176
     1
290
     0
176
     1
290
     1
176
     1
290
     1
176
     1
290
     0
176
     1
290
     0
176
     1
290
     0
176
     1
290
     0
176
     1
290
     0
176
     1
290
     0
176
     1
 90
       50
176
     1
 40
0.0
176
     1
 40
1.0
176
     1
 90
        0
176
     1
 62
    18
420
        0
176
     1
 90
       50
176
     1
 90
        3
176
     1
 62
     5
420
      255
176
     1
290
     0
176
     1
 90
       50
176
     1
 90
       50
176
     1
 90
       50
176
     1
290
     0
176
     1
 90
       50
176
     1
 62
   256
176
     0
 40
1.0
176
     0
 90
        2
176
     1
  1
strokes_ogs.tif
176
     1
290
     0
176
     1
 40
1.0
176
     1
 40
1.0
176
     1
  0
VISUALSTYLE
  5
30
102
{ACAD_REACTORS
330
29
102
}
330
29
100
AcDbVisualStyle
  2
Wireframe
 70
     5
177
     3
291
     0
 70
    58
 90
        0
176
     1
 90
        2
176
     1
 90
        0
176
     1
 90
        0
176
     1
 40
0.6
176
     1
 40
30.0
176
     1
 62
     7
420
 16777215
176
     1
 90
        1
176
     1
 90
        4
176
     1
 62
     7
176
     1
 62
   257
176
     1
 90
        1
176
     1
 90
        1
176
     1
 40
1.0
176
     1
 90
        0
176
     1
 62
   257
176
     1
 40
1.0
176
     1
 90
        1
176
     1
 90
        6
176
     1
 90
        2
176
     1
 62
     7
176
     1
 90
        3
176
     1
 90
        0
176
     1
 90
        0
176
     1
290
     0
176
     1
 90
        1
176
     1
 40
0.0
176
     1
 90
        0
176
     1
290
     0
176
     1
290
     1
176
     1
290
     1
176
     1
290
     0
176
     1
290
     0
176
     1
290
     0
176
     1
290
     0
176
     1
290
     0
176
     1
290
     0
176
     1
 90
       50
176
     1
 40
0.0
176
     1
 40
1.0
176
     1
 90
        0
176
     1
 62
    18
420
        0
176
     1
 90
       50
176
     1
 90
        3
176
     1
 62
     5
420
      255
176
     1
290
     0
176
     1
 90
       50
176
     1
 90
       50
176
     1
 90
       50
176
     1
290
     0
176
     1
 90
       50
176
     1
 62
   256
176
     0
 40
1.0
176
     0
 90
        2
176
     1
  1
strokes_ogs.tif
176
     1
290
     0
176
     1
 40
1.0
176
     1
 40
1.0
176
     1
  0
VISUALSTYLE
  5
3C
102
{ACAD_REACTORS
330
29
102
}
330
29
100
AcDbVisualStyle
  2
X-Ray
 70
    25
177
     3
291
     0
 70
    58
 90
        2
176
     1
 90
        2
176
     1
 90
        1
176
     1
 90
        1
176
     1
 40
0.5
176
     1
 40
30.0
176
     1
 62
     7
420
 16777215
176
     1
 90
        1
176
     1
 90
        0
176
     1
 62
     7
176
     1
 62
   257
176
     1
 90
        1
176
     1
 90
        1
176
     1
 40
1.0
176
     1
 90
        8
176
     1
 62
     7
176
     1
 40
1.0
176
     1
 90
        1
176
     1
 90
        6
176
     1
 90
        2
176
     1
 62
     7
176
     1
 90
        3
176
     1
 90
        0
176
     1
 90
        0
176
     1
290
     0
176
     1
 90
       13
176
     1
 40
0.0
176
     1
 90
        0
176
     1
290
     0
176
     1
290
     1
176
     1
290
     1
176
     1
290
     0
176
     1
290
     0
176
     1
290
     0
176
     1
290
     0
176
     1
290
     0
176
     1
290
     0
176
     1
 90
       50
176
     1
 40
0.0
176
     1
 40
1.0
176
     1
 90
        0
176
     1
 62
    18
420
        0
176
     1
 90
       50
176
     1
 90
        3
176
     1
 62
     5
420
      255
176
     1
290
     0
176
     1
 90
       50
176
     1
 90
       50
176
     1
 90
       50
176
     1
290
     0
176
     1
 90
       50
176
     1
 62
   256
176
     0
 40
1.0
176
     0
 90
        2
176
     1
  1
strokes_ogs.tif
176
     1
290
     0
176
     1
 40
1.0
176
     1
 40
1.0
176
     1
  0
DICTIONARYVAR
  5
B3
102
{ACAD_REACTORS
330
AE
102
}
330
AE
100
DictionaryVariables
280
     0
  1
1:1
  0
DICTIONARYVAR
  5
B0
102
{ACAD_REACTORS
330
AE
102
}
330
AE
100
DictionaryVariables
280
     0
  1
STANDARD
  0
DICTIONARYVAR
  5
AF
102
{ACAD_REACTORS
330
AE
102
}
330
AE
100
DictionaryVariables
280
     0
  1
STANDARD
  0
DICTIONARYVAR
  5
B1
102
{ACAD_REACTORS
330
AE
102
}
330
AE
100
DictionaryVariables
280
     0
  1
Imperial24
  0
DICTIONARYVAR
  5
B2
102
{ACAD_REACTORS
330
AE
102
}
330
AE
100
DictionaryVariables
280
     0
  1
Imperial24
  0
DICTIONARY
  5
1A
330
19
100
AcDbDictionary
280
     1
281
     1
  3
BUMPTILE
360
1C
  3
DIFFUSETILE
360
1B
  3
OPACITYTILE
360
1F
  3
REFLECTIONTILE
360
1E
  3
REFRACTIONTILE
360
20
  3
SPECULARTILE
360
1D
  0
DICTIONARY
  5
12
330
11
100
AcDbDictionary
280
     1
281
     1
  3
BUMPTILE
360
14
  3
DIFFUSETILE
360
13
  3
OPACITYTILE
360
17
  3
REFLECTIONTILE
360
16
  3
REFRACTIONTILE
360
18
  3
SPECULARTILE
360
15
  0
DICTIONARY
  5
22
330
21
100
AcDbDictionary
280
     1
281
     1
  3
BUMPTILE
360
24
  3
DIFFUSETILE
360
23
  3
OPACITYTILE
360
27
  3
REFLECTIONTILE
360
26
  3
REFRACTIONTILE
360
28
  3
SPECULARTILE
360
25
  0
DICTIONARY
  5
B4
330
65
100
AcDbDictionary
280
     1
281
     1
  3
ACAD_ROUNDTRIP_2008_TABLESTYLE_CELLSTYLEMAP
360
B5
  0
XRECORD
  5
1C
102
{ACAD_REACTORS
330
1A
102
}
330
1A
100
AcDbXrecord
280
     1
270
     1
271
     1
  0
XRECORD
  5
1B
102
{ACAD_REACTORS
330
1A
102
}
330
1A
100
AcDbXrecord
280
     1
270
     1
271
     1
  0
XRECORD
  5
1F
102
{ACAD_REACTORS
330
1A
102
}
330
1A
100
AcDbXrecord
280
     1
270
     1
271
     1
  0
XRECORD
  5
1E
102
{ACAD_REACTORS
330
1A
102
}
330
1A
100
AcDbXrecord
280
     1
270
     1
271
     1
  0
XRECORD
  5
20
102
{ACAD_REACTORS
330
1A
102
}
330
1A
100
AcDbXrecord
280
     1
270
     1
271
     1
  0
XRECORD
  5
1D
102
{ACAD_REACTORS
330
1A
102
}
330
1A
100
AcDbXrecord
280
     1
270
     1
271
     1
  0
XRECORD
  5
14
102
{ACAD_REACTORS
330
12
102
}
330
12
100
AcDbXrecord
280
     1
270
     1
271
     1
  0
XRECORD
  5
13
102
{ACAD_REACTORS
330
12
102
}
330
12
100
AcDbXrecord
280
     1
270
     1
271
     1
  0
XRECORD
  5
17
102
{ACAD_REACTORS
330
12
102
}
330
12
100
AcDbXrecord
280
     1
270
     1
271
     1
  0
XRECORD
  5
16
102
{ACAD_REACTORS
330
12
102
}
330
12
100
AcDbXrecord
280
     1
270
     1
271
     1
  0
XRECORD
  5
18
102
{ACAD_REACTORS
330
12
102
}
330
12
100
AcDbXrecord
280
     1
270
     1
271
     1
  0
XRECORD
  5
15
102
{ACAD_REACTORS
330
12
102
}
330
12
100
AcDbXrecord
280
     1
270
     1
271
     1
  0
XRECORD
  5
24
102
{ACAD_REACTORS
330
22
102
}
330
22
100
AcDbXrecord
280
     1
270
     1
271
     1
  0
XRECORD
  5
23
102
{ACAD_REACTORS
330
22
102
}
330
22
100
AcDbXrecord
280
     1
270
     1
271
     1
  0
XRECORD
  5
27
102
{ACAD_REACTORS
330
22
102
}
330
22
100
AcDbXrecord
280
     1
270
     1
271
     1
  0
XRECORD
  5
26
102
{ACAD_REACTORS
330
22
102
}
330
22
100
AcDbXrecord
280
     1
270
     1
271
     1
  0
XRECORD
  5
28
102
{ACAD_REACTORS
330
22
102
}
330
22
100
AcDbXrecord
280
     1
270
     1
271
     1
  0
XRECORD
  5
25
102
{ACAD_REACTORS
330
22
102
}
330
22
100
AcDbXrecord
280
     1
270
     1
271
     1
  0
CELLSTYLEMAP
  5
B5
102
{ACAD_REACTORS
330
B4
102
}
330
B4
100
AcDbCellStyleMap
 90
        3
300
CELLSTYLE
  1
TABLEFORMAT_BEGIN
 90
        5
170
     1
 91
        0
 92
    32768
 62
   257
 93
        1
300
CONTENTFORMAT
  1
CONTENTFORMAT_BEGIN
 90
        0
 91
        0
 92
      512
 93
        0
300

 40
0.0
140
1.0
 94
        5
 62
     0
340
55
144
0.25
309
CONTENTFORMAT_END
171
     0
 94
        0
309
TABLEFORMAT_END
  1
CELLSTYLE_BEGIN
 90
        1
 91
        1
300
_TITLE
309
CELLSTYLE_END
300
CELLSTYLE
  1
TABLEFORMAT_BEGIN
 90
        5
170
     1
 91
        0
 92
        0
 62
   257
 93
        1
300
CONTENTFORMAT
  1
CONTENTFORMAT_BEGIN
 90
        0
 91
        0
 92
      512
 93
        0
300

 40
0.0
140
1.0
 94
        5
 62
     0
340
55
144
0.18
309
CONTENTFORMAT_END
171
     0
 94
        0
309
TABLEFORMAT_END
  1
CELLSTYLE_BEGIN
 90
        2
 91
        1
300
_HEADER
309
CELLSTYLE_END
300
CELLSTYLE
  1
TABLEFORMAT_BEGIN
 90
        5
170
     1
 91
        0
 92
        0
 62
   257
 93
        1
300
CONTENTFORMAT
  1
CONTENTFORMAT_BEGIN
 90
        0
 91
        0
 92
      512
 93
        0
300

 40
0.0
140
1.0
 94
        2
 62
     0
340
55
144
0.18
309
CONTENTFORMAT_END
171
     0
 94
        0
309
TABLEFORMAT_END
  1
CELLSTYLE_BEGIN
 90
        3
 91
        2
300
_DATA
309
CELLSTYLE_END
  0
ENDSEC
  0
EOF
