<?xml version="1.0" encoding="UTF-8"?>
<svg id="Layer_1" data-name="Layer 1" xmlns="http://www.w3.org/2000/svg" viewBox="0 0 500 500">
  <defs>
    <style>
      .cls-1 {
        fill: #0e132a;
      }

      .cls-1, .cls-2, .cls-3, .cls-4, .cls-5, .cls-6, .cls-7 {
        stroke-width: 0px;
      }

      .cls-3 {
        fill: #0e1329;
      }

      .cls-4 {
        fill: #0d132b;
      }

      .cls-5 {
        fill: #fff;
      }

      .cls-6 {
        fill: #831618;
      }

      .cls-7 {
        fill: #0f592d;
      }
    </style>
  </defs>
  <g>
    <path class="cls-2" d="m397.91,299.19c0-77.84.02-155.7,0-233.54,0-10.31-3.95-18.92-11.49-25.92-7.18-6.67-15.82-9.34-25.47-9.32-20.07.03-40.14.03-60.21.03-59.06,0-118.11-.02-177.16-.03-11.34,0-20.72,4.34-28.15,12.89-6.27,7.22-8.35,15.73-8.34,25.12.08,59.52.04,119.04.04,178.55,0,49.66-.01,99.31,0,148.97,0,11.71-.06,23.43.17,35.14.17,8.21,3.52,15.25,9.04,21.3,8.08,8.86,18.27,11.9,30.02,11.88,72.97-.12,145.95-.03,218.92-.1,7.99-.01,16.05.84,23.98-.63,17.04-3.17,28.65-17.63,28.66-35.57.03-42.93-.01-85.85-.01-128.78h0Zm-2.43-51.84h-.05v178.2c0,5.01-.29,9.96-2.06,14.73-4.8,12.96-17.23,21.4-31.66,21.4-77.27,0-154.53-.02-231.79-.03-2.55,0-5.11.06-7.66-.03-18.18-.65-31.86-14.28-32.59-32.44-.03-.93-.02-1.85-.02-2.78,0-119.38.02-238.75-.03-358.13,0-9.73,2.62-18.27,9.62-25.26,6.96-6.93,15.36-10.01,25.14-10,56.96.06,113.93.03,170.89.03,22.28,0,44.55-.09,66.82.03,16.55.09,29.64,10.91,32.75,26.74.84,4.24.62,8.55.63,12.84v174.72-.02Z"/>
    <path class="cls-5" d="m395.48,247.35h-.05v178.2c0,5.01-.29,9.96-2.06,14.73-4.8,12.96-17.23,21.4-31.66,21.4-77.27,0-154.53-.02-231.79-.03-2.55,0-5.11.06-7.66-.03-18.18-.65-31.86-14.28-32.59-32.44-.03-.93-.02-1.85-.02-2.78,0-119.38.02-238.75-.03-358.13,0-9.73,2.62-18.27,9.62-25.26,6.96-6.93,15.36-10.01,25.14-10,56.96.06,113.93.03,170.89.03,22.28,0,44.55-.09,66.82.03,16.55.09,29.64,10.91,32.75,26.74.84,4.24.62,8.55.63,12.84v174.72-.02Z"/>
  </g>
  <g>
    <path class="cls-6" d="m307.76,273.71c-.29-25.47-23-47.55-48.82-47.47-26.06.08-48.44,22.01-48.6,47.63-.17,26.98,22.17,49.75,48.79,49.72,26.56-.03,48.94-22.98,48.63-49.88Zm-48.81,41.48c-22.88-.03-40.21-17.43-40.18-40.33.03-22.69,17.67-40.28,40.36-40.25,22.61.03,40.27,17.78,40.23,40.45-.04,22.81-17.52,40.17-40.41,40.13Z"/>
    <path class="cls-1" d="m321.29,341.64c-25.87-.5-48.89,21.49-49.35,47.17-.47,26.14,20.99,48.89,46.83,49.64,26.9.78,50.29-21.52,50.56-48.21.26-25.46-22.11-48.09-48.04-48.6Zm-.28,88.51c-23.75.12-40.66-16.33-40.66-39.55s17.14-40.88,39.82-41.13c21.9-.24,40.79,18.4,40.83,40.28.04,23.56-16.51,40.29-39.99,40.4Z"/>
    <path class="cls-7" d="m246.13,159.18c-.06-25.65-22.59-47.77-48.68-47.77s-48.72,22.32-48.73,47.78c-.02,26.23,22.7,49.05,48.77,48.99,26.54-.06,48.7-22.39,48.64-49h0Zm-49.74,41.18c-22.5-.44-39.67-18.52-39.27-41.37.41-23.07,17.57-39.59,40.92-39.38,23.23.21,39.97,17.26,39.71,40.45-.26,23.38-18.09,40.75-41.36,40.3Z"/>
    <path class="cls-6" d="m259.16,239.34c-19.82-.06-36.09,16-36,35.53.09,19.67,16.16,35.78,35.72,35.81,19.62.04,35.87-16,36-35.53.13-19.65-15.93-35.76-35.73-35.82h.01Zm-.16,5.34c5.05-.02,12.06-.78,12.04,6.71-.02,6.77-5.24,9.41-11.96,8.2-6.66,1.21-11.93-1.33-12.03-8.12-.12-7.56,6.91-6.77,11.95-6.79h0Zm-30.24,26.35c1.25-5.74,1.17-13.57,9.43-15.24,5.06-1.02,8.28,3.98,7.56,8.11-1.1,6.37-.4,15.14-10.69,15.59-5.47.24-6.32-3.4-6.3-8.46Zm22.17,32.82c-5.3.68-16.48-7.62-16.93-12.54-.53-5.78,3.94-6.68,8.7-8.08,5.56,2.5,12.3,4.29,13.7,12.05.74,4.1-.44,7.93-5.47,8.58h0Zm-1.79-28.46c-.33-6.02,3.76-9.37,9.54-10.62,6.03.72,9.97,4.03,10.25,9.98.26,5.69-3.57,9.2-9.05,9.62-6.04.46-10.4-2.89-10.73-8.98h-.01Zm17.36,28.43c-3.82-.4-5.43-3.72-4.84-7.98,1.09-7.89,7.48-10.84,13.96-12.05,4-.75,8.53,1.49,8.53,7.05,0,4.84-10.67,13.06-17.65,12.98Zm16.47-24.34c-10.34-.46-9.52-9.26-10.63-15.6-.73-4.14,2.56-9.1,7.58-8.08,8.27,1.68,8.05,9.57,9.34,15.19.08,5.18-.83,8.73-6.29,8.49h0Z"/>
    <path class="cls-3" d="m319.98,354.11c-18.65.35-35.13,17.13-35.11,35.76.02,20.15,15.6,35.84,35.66,35.89,18.9.05,35.72-16.26,35.9-34.8.2-19.61-17.21-37.2-36.45-36.84h0Zm.29,5.87c5.38.52,11.5.07,11.33,6.97-.15,6.05-5.39,7.6-10.7,7.58-5.55-.02-11.46-1.02-11.3-7.92.16-6.7,6.44-6.01,10.67-6.63h0Zm-28.92,24.9c.6-5.65,1.61-11.97,8.59-12.73,5.27-.57,6.81,3.89,6.85,8.56-1.25,5.81-1.26,12.79-9.4,13.13-5.88.25-6.51-4.56-6.04-8.97h0Zm19.81,33.38c-7.1-.9-12.94-4.63-14.19-12.04-.79-4.71,3.64-7.17,7.67-6.51,6.55,1.08,11.44,4.97,13.08,11.31-.27,4.8-2.41,7.76-6.56,7.24h0Zm9.03-19.17c-5.53-.38-9.22-4.1-8.8-9.88.41-5.56,4.71-7.34,9.8-7.5,5.17.55,9.1,2.95,8.8,8.5-.31,5.63-4.1,9.26-9.79,8.87h0Zm24.24,6.98c-1.02,7.71-7.46,10.39-13.76,12.14-4.72-.13-7.31-2.41-6.91-6.59.72-7.5,6.26-10.86,12.81-11.92,4.05-.66,8.48,1.68,7.86,6.37h0Zm5.74-21.04c-.14,4.61-.59,9-5.8,8.85-8.68-.25-9.2-7.41-9.87-13.65-.46-4.26,1.78-8.33,6.37-7.91,7.59.69,8.33,7.3,9.3,12.72h0Z"/>
    <path class="cls-7" d="m199.36,124.25c-19.71-1.09-36.87,14.3-37.66,33.77-.79,19.27,15.05,36.64,34.33,37.66,18.75,1,36.24-15.43,37.12-34.86.86-18.97-14.42-35.51-33.79-36.57h0Zm-2.06,4.63c5.04-.06,10.85.85,11.17,7.16.35,6.78-5.07,8.5-10.91,8.72-5.75-.17-11.25-1.69-11.16-8.46.08-6.43,5.89-7.36,10.91-7.42h0Zm-29.01,25.37c.69-5.48,1.37-12.13,8.51-12.59,4.97-.32,6.68,4.24,6.77,8.92-1.18,5.44-1.36,12-8.81,12.42-5.48.31-7.05-4.19-6.47-8.75Zm18.9,33.16c-6.94-1.14-13.1-4.23-13.83-12.17-.39-4.23,3.26-5.78,7.83-5.86,5.47,1.93,12.06,3.57,13.08,11.18.62,4.62-2.35,7.62-7.09,6.85h0Zm10.27-19.4c-5.76-.11-9.53-3.17-9.08-9.11.38-5.12,4-8.39,9.19-8.24,5.66.17,8.61,3.93,9.36,9.29-.89,5.58-4.25,8.16-9.47,8.06h0Zm24.08,7.43c-.87,7.95-7.31,10.41-13.34,12.1-4.92.13-7.35-1.93-7.71-6.12-.43-5.09,7.73-12.02,14.01-11.99,4.04.02,7.5,1.8,7.04,6.01h0Zm-.61-12.55c-7.56.03-8.58-6.32-9.37-11.95-.68-4.85,1.48-9.03,6.78-8.51,6.61.64,7.32,6.68,8.36,11.48-.03,4.61-.78,8.96-5.78,8.98h0Z"/>
    <path class="cls-6" d="m258.81,270.99c-2.59.18-3.73,1.66-3.61,4.15.12,2.58,1.64,3.73,4.1,3.64,2.59-.1,3.68-1.69,3.61-4.13-.08-2.6-1.63-3.67-4.1-3.66h0Z"/>
    <path class="cls-4" d="m320.52,387.36c-1.54.32-2.43,1.34-2.07,2.8.19.76,1.2,1.72,1.97,1.87,1.49.29,2.57-.71,2.6-2.23.04-1.52-.96-2.35-2.5-2.44h0Z"/>
    <path class="cls-7" d="m197.39,157.68c-1.52.22-2.55,1.12-2.27,2.63.14.79,1.08,1.81,1.86,2.02,1.5.42,2.64-.52,2.78-2.05s-.84-2.41-2.37-2.6Z"/>
  </g>
  <path class="cls-6" d="m134.92,84.84v-.21c6.84-2.97,10.27-8.81,10.27-15.67,0-8.09-4.96-15.87-15.91-15.87-5.99,0-11.64,2.56-14.54,5.12l1.97,6.55c2.4-2.05,6.67-4.4,11.12-4.4,6.93,0,9.75,4.71,9.75,10.03,0,7.88-6.93,11.26-12.41,11.26h-4.19v6.76h4.19c7.27,0,14.29,3.99,14.37,13.31.09,5.53-2.91,12.9-12.58,12.9-5.22,0-10.18-2.56-12.32-4.2l-2.05,6.96c2.74,2.15,8.21,4.51,14.46,4.51,13.35,0,20.28-9.32,20.28-19.97,0-9.32-5.56-15.46-12.41-17.1v.02Z"/>
</svg>