<?xml version="1.0" encoding="UTF-8"?>
<svg id="Layer_1" data-name="Layer 1" xmlns="http://www.w3.org/2000/svg" viewBox="0 0 500 500">
  <defs>
    <style>
      .cls-1, .cls-2, .cls-3, .cls-4, .cls-5 {
        stroke-width: 0px;
      }

      .cls-2 {
        fill: #0e1329;
      }

      .cls-3 {
        fill: #fff;
      }

      .cls-4 {
        fill: #831618;
      }

      .cls-5 {
        fill: #0f592d;
      }
    </style>
  </defs>
  <g>
    <path class="cls-1" d="m398.37,299.19c0-77.84.02-155.7,0-233.54,0-10.31-3.95-18.92-11.49-25.92-7.18-6.67-15.82-9.34-25.47-9.32-20.07.03-40.14.03-60.21.03-59.06,0-118.11-.02-177.16-.03-11.34,0-20.72,4.34-28.15,12.89-6.27,7.22-8.35,15.73-8.34,25.12.08,59.52.04,119.04.04,178.55,0,49.66-.01,99.31,0,148.97,0,11.71-.06,23.43.17,35.14.17,8.21,3.52,15.25,9.04,21.3,8.08,8.86,18.27,11.9,30.02,11.88,72.97-.12,145.95-.03,218.92-.1,7.99-.01,16.05.84,23.98-.63,17.04-3.17,28.65-17.63,28.66-35.57.03-42.93-.01-85.85-.01-128.78h0Zm-2.43-51.84h-.05v178.2c0,5.01-.29,9.96-2.06,14.73-4.8,12.96-17.23,21.4-31.66,21.4-77.27,0-154.53-.02-231.79-.03-2.55,0-5.11.06-7.66-.03-18.18-.65-31.86-14.28-32.59-32.44-.03-.93-.02-1.85-.02-2.78,0-119.38.02-238.75-.03-358.13,0-9.73,2.62-18.27,9.62-25.26,6.96-6.93,15.36-10.01,25.14-10,56.96.06,113.93.03,170.89.03,22.28,0,44.55-.09,66.82.03,16.55.09,29.64,10.91,32.75,26.74.84,4.24.62,8.55.63,12.84v174.72-.02Z"/>
    <path class="cls-3" d="m395.95,247.35h-.05v178.2c0,5.01-.29,9.96-2.06,14.73-4.8,12.96-17.23,21.4-31.66,21.4-77.27,0-154.53-.02-231.79-.03-2.55,0-5.11.06-7.66-.03-18.18-.65-31.86-14.28-32.59-32.44-.03-.93-.02-1.85-.02-2.78,0-119.38.02-238.75-.03-358.13,0-9.73,2.62-18.27,9.62-25.26,6.96-6.93,15.36-10.01,25.14-10,56.96.06,113.93.03,170.89.03,22.28,0,44.55-.09,66.82.03,16.55.09,29.64,10.91,32.75,26.74.84,4.24.62,8.55.63,12.84v174.72-.02Z"/>
  </g>
  <g>
    <path class="cls-5" d="m216.7,173.43c-.06-27.94-24.61-52.02-53.02-52.02s-53.06,24.3-53.07,52.04c-.02,28.57,24.73,53.42,53.12,53.36,28.9-.07,53.04-24.39,52.97-53.37h0Zm-54.17,44.84c-24.51-.48-43.21-20.17-42.77-45.05.44-25.13,19.14-43.12,44.57-42.89,25.3.23,43.53,18.8,43.25,44.05-.28,25.47-19.7,44.38-45.05,43.89h0Z"/>
    <path class="cls-5" d="m165.76,135.39c-21.46-1.18-40.15,15.58-41.02,36.78-.86,20.99,16.39,39.91,37.39,41.02,20.42,1.08,39.47-16.8,40.43-37.97.94-20.66-15.7-38.67-36.8-39.83Zm-2.25,5.04c5.49-.06,11.81.92,12.16,7.8.38,7.39-5.52,9.26-11.89,9.5-6.26-.19-12.25-1.84-12.16-9.22.09-7,6.41-8.02,11.88-8.08h0Zm-31.59,27.63c.76-5.97,1.49-13.21,9.27-13.71,5.41-.35,7.27,4.62,7.37,9.71-1.29,5.92-1.48,13.07-9.59,13.53-5.97.34-7.67-4.57-7.05-9.53Zm20.58,36.12c-7.55-1.24-14.27-4.6-15.06-13.25-.42-4.61,3.55-6.3,8.53-6.38,5.95,2.11,13.14,3.89,14.25,12.18.67,5.03-2.56,8.3-7.72,7.46h0Zm11.19-21.13c-6.28-.12-10.38-3.45-9.89-9.92.42-5.58,4.36-9.14,10-8.97,6.17.19,9.38,4.28,10.2,10.12-.97,6.08-4.63,8.89-10.31,8.78h0Zm26.22,8.09c-.95,8.66-7.96,11.34-14.53,13.18-5.36.14-8-2.1-8.39-6.67-.47-5.54,8.42-13.09,15.25-13.05,4.4.02,8.17,1.96,7.67,6.54h0Zm-.66-13.67c-8.24.04-9.34-6.88-10.2-13.01-.74-5.29,1.61-9.83,7.39-9.27,7.2.7,7.97,7.27,9.11,12.5-.03,5.02-.85,9.76-6.29,9.78h-.01Z"/>
    <path class="cls-5" d="m163.62,171.81c-1.66.24-2.78,1.22-2.48,2.86.16.86,1.18,1.97,2.02,2.21,1.63.46,2.88-.57,3.03-2.23.15-1.66-.91-2.62-2.58-2.83h0Z"/>
    <path class="cls-2" d="m216.7,385.81c-.06-27.94-24.61-52.02-53.02-52.02s-53.06,24.3-53.07,52.04c-.02,28.57,24.73,53.42,53.12,53.36,28.9-.07,53.04-24.39,52.97-53.37h0Zm-54.17,44.84c-24.51-.48-43.21-20.17-42.77-45.05.44-25.13,19.14-43.12,44.57-42.89,25.3.23,43.53,18.8,43.25,44.05-.28,25.47-19.7,44.38-45.05,43.89h0Z"/>
    <path class="cls-2" d="m165.76,347.77c-21.46-1.18-40.15,15.58-41.02,36.78-.86,20.99,16.39,39.91,37.39,41.02,20.42,1.08,39.47-16.8,40.43-37.97.94-20.66-15.7-38.67-36.8-39.83h0Zm-2.25,5.04c5.49-.06,11.81.92,12.16,7.8.38,7.39-5.52,9.26-11.89,9.5-6.26-.19-12.25-1.84-12.16-9.22.09-7,6.41-8.02,11.88-8.08h0Zm-31.59,27.63c.76-5.97,1.49-13.21,9.27-13.71,5.41-.35,7.27,4.62,7.37,9.71-1.29,5.92-1.48,13.07-9.59,13.53-5.97.34-7.67-4.57-7.05-9.53Zm20.58,36.12c-7.55-1.24-14.27-4.6-15.06-13.25-.42-4.61,3.55-6.3,8.53-6.38,5.95,2.11,13.14,3.89,14.25,12.18.67,5.03-2.56,8.3-7.72,7.46h0Zm11.19-21.13c-6.28-.12-10.38-3.45-9.89-9.92.42-5.58,4.36-9.14,10-8.97,6.17.19,9.38,4.28,10.2,10.12-.97,6.08-4.63,8.89-10.31,8.78h0Zm26.22,8.09c-.95,8.66-7.96,11.34-14.53,13.18-5.36.14-8-2.1-8.39-6.67-.47-5.54,8.42-13.09,15.25-13.05,4.4.02,8.17,1.96,7.67,6.54Zm-.66-13.67c-8.24.04-9.34-6.88-10.2-13.01-.74-5.29,1.61-9.83,7.39-9.27,7.2.7,7.97,7.27,9.11,12.5-.03,5.02-.85,9.76-6.29,9.78h-.01Z"/>
    <path class="cls-2" d="m163.62,384.18c-1.66.24-2.78,1.22-2.48,2.86.16.86,1.18,1.97,2.02,2.21,1.63.46,2.88-.57,3.03-2.23s-.91-2.62-2.58-2.83h0Z"/>
  </g>
  <g>
    <path class="cls-2" d="m374.62,173.43c-.06-27.94-24.61-52.02-53.02-52.02s-53.06,24.3-53.07,52.04c-.02,28.57,24.73,53.42,53.12,53.36,28.9-.07,53.04-24.39,52.97-53.37h0Zm-54.17,44.84c-24.51-.48-43.21-20.17-42.77-45.05.44-25.13,19.14-43.12,44.57-42.89,25.3.23,43.53,18.8,43.25,44.05-.28,25.47-19.7,44.38-45.05,43.89h0Z"/>
    <path class="cls-2" d="m323.69,135.39c-21.46-1.18-40.15,15.58-41.02,36.78-.86,20.99,16.39,39.91,37.39,41.02,20.42,1.08,39.47-16.8,40.43-37.97.94-20.66-15.7-38.67-36.8-39.83Zm-2.25,5.04c5.49-.06,11.81.92,12.16,7.8.38,7.39-5.52,9.26-11.89,9.5-6.26-.19-12.25-1.84-12.16-9.22.09-7,6.41-8.02,11.88-8.08h.01Zm-31.59,27.63c.76-5.97,1.49-13.21,9.27-13.71,5.41-.35,7.27,4.62,7.37,9.71-1.29,5.92-1.48,13.07-9.59,13.53-5.97.34-7.67-4.57-7.05-9.53Zm20.58,36.12c-7.55-1.24-14.27-4.6-15.06-13.25-.42-4.61,3.55-6.3,8.53-6.38,5.95,2.11,13.14,3.89,14.25,12.18.67,5.03-2.56,8.3-7.72,7.46h0Zm11.19-21.13c-6.28-.12-10.38-3.45-9.89-9.92.42-5.58,4.36-9.14,10-8.97,6.17.19,9.38,4.28,10.2,10.12-.97,6.08-4.63,8.89-10.31,8.78h0Zm26.22,8.09c-.95,8.66-7.96,11.34-14.53,13.18-5.36.14-8-2.1-8.39-6.67-.47-5.54,8.42-13.09,15.25-13.05,4.4.02,8.17,1.96,7.67,6.54h0Zm-.66-13.67c-8.24.04-9.34-6.88-10.2-13.01-.74-5.29,1.61-9.83,7.39-9.27,7.2.7,7.97,7.27,9.11,12.5-.03,5.02-.85,9.76-6.29,9.78h0Z"/>
    <path class="cls-2" d="m321.54,171.81c-1.66.24-2.78,1.22-2.48,2.86.16.86,1.18,1.97,2.02,2.21,1.63.46,2.88-.57,3.03-2.23.15-1.66-.91-2.62-2.58-2.83h.01Z"/>
    <path class="cls-5" d="m374.62,385.81c-.06-27.94-24.61-52.02-53.02-52.02s-53.06,24.3-53.07,52.04c-.02,28.57,24.73,53.42,53.12,53.36,28.9-.07,53.04-24.39,52.97-53.37h0Zm-54.17,44.84c-24.51-.48-43.21-20.17-42.77-45.05.44-25.13,19.14-43.12,44.57-42.89,25.3.23,43.53,18.8,43.25,44.05-.28,25.47-19.7,44.38-45.05,43.89h0Z"/>
    <path class="cls-5" d="m323.69,347.77c-21.46-1.18-40.15,15.58-41.02,36.78-.86,20.99,16.39,39.91,37.39,41.02,20.42,1.08,39.47-16.8,40.43-37.97.94-20.66-15.7-38.67-36.8-39.83h0Zm-2.25,5.04c5.49-.06,11.81.92,12.16,7.8.38,7.39-5.52,9.26-11.89,9.5-6.26-.19-12.25-1.84-12.16-9.22.09-7,6.41-8.02,11.88-8.08h.01Zm-31.59,27.63c.76-5.97,1.49-13.21,9.27-13.71,5.41-.35,7.27,4.62,7.37,9.71-1.29,5.92-1.48,13.07-9.59,13.53-5.97.34-7.67-4.57-7.05-9.53Zm20.58,36.12c-7.55-1.24-14.27-4.6-15.06-13.25-.42-4.61,3.55-6.3,8.53-6.38,5.95,2.11,13.14,3.89,14.25,12.18.67,5.03-2.56,8.3-7.72,7.46h0Zm11.19-21.13c-6.28-.12-10.38-3.45-9.89-9.92.42-5.58,4.36-9.14,10-8.97,6.17.19,9.38,4.28,10.2,10.12-.97,6.08-4.63,8.89-10.31,8.78h0Zm26.22,8.09c-.95,8.66-7.96,11.34-14.53,13.18-5.36.14-8-2.1-8.39-6.67-.47-5.54,8.42-13.09,15.25-13.05,4.4.02,8.17,1.96,7.67,6.54Zm-.66-13.67c-8.24.04-9.34-6.88-10.2-13.01-.74-5.29,1.61-9.83,7.39-9.27,7.2.7,7.97,7.27,9.11,12.5-.03,5.02-.85,9.76-6.29,9.78h0Z"/>
    <path class="cls-5" d="m321.54,384.18c-1.66.24-2.78,1.22-2.48,2.86.16.86,1.18,1.97,2.02,2.21,1.63.46,2.88-.57,3.03-2.23s-.91-2.62-2.58-2.83h.01Z"/>
  </g>
  <g>
    <path class="cls-4" d="m296.06,279.66c-.31-27.74-25.04-51.78-53.17-51.7-28.38.08-52.76,23.97-52.93,51.87-.18,29.39,24.15,54.18,53.13,54.15,28.92-.03,53.3-25.03,52.96-54.32h.01Zm-53.16,45.18c-24.91-.04-43.8-18.99-43.76-43.93.03-24.71,19.25-43.87,43.96-43.84,24.63.03,43.86,19.37,43.81,44.06-.04,24.84-19.08,43.74-44.01,43.71h0Z"/>
    <path class="cls-4" d="m243.13,242.23c-21.59-.07-39.31,17.43-39.2,38.7.1,21.42,17.6,38.97,38.9,39.01,21.37.04,39.07-17.42,39.21-38.69.14-21.4-17.35-38.94-38.91-39.01h0Zm-.17,5.82c5.5-.02,13.14-.85,13.11,7.3-.02,7.37-5.71,10.25-13.02,8.93-7.25,1.32-12.99-1.45-13.1-8.84-.13-8.23,7.52-7.37,13.01-7.39h0Zm-32.93,28.7c1.36-6.25,1.27-14.78,10.27-16.59,5.51-1.11,9.01,4.33,8.24,8.83-1.2,6.94-.43,16.49-11.64,16.98-5.96.26-6.88-3.7-6.86-9.22h-.01Zm24.15,35.75c-5.77.74-17.95-8.3-18.44-13.66-.58-6.29,4.29-7.28,9.48-8.8,6.05,2.72,13.4,4.67,14.92,13.12.81,4.46-.48,8.64-5.96,9.34h0Zm-1.95-31c-.36-6.56,4.09-10.21,10.39-11.57,6.56.79,10.86,4.39,11.16,10.87.29,6.19-3.89,10.02-9.86,10.47-6.58.5-11.33-3.14-11.69-9.77Zm18.91,30.96c-4.16-.44-5.91-4.05-5.27-8.69,1.19-8.59,8.15-11.8,15.2-13.12,4.36-.82,9.29,1.62,9.29,7.68,0,5.27-11.62,14.22-19.22,14.14h0Zm17.93-26.51c-11.26-.5-10.36-10.09-11.58-17-.79-4.51,2.78-9.91,8.26-8.8,9.01,1.83,8.77,10.43,10.17,16.55.09,5.64-.9,9.51-6.85,9.24h0Z"/>
    <path class="cls-4" d="m242.74,276.7c-2.82.2-4.06,1.81-3.93,4.52.13,2.81,1.79,4.06,4.47,3.96,2.82-.11,4.01-1.84,3.93-4.5-.09-2.83-1.78-4-4.46-3.98h0Z"/>
  </g>
  <path class="cls-4" d="m138.95,55.97h-18.87l-1.9,15.2c1.14-.18,2.21-.36,4.03-.36,3.8,0,7.61,1,10.65,3.19,3.88,2.64,7.08,7.74,7.08,15.2,0,11.56-7.68,20.21-18.41,20.21-5.4,0-9.97-1.82-12.32-3.64l1.67-6.1c2.05,1.46,6.09,3.28,10.57,3.28,6.31,0,11.72-4.92,11.72-12.84-.08-7.65-4.34-13.11-14.23-13.11-2.81,0-5.02.36-6.85.64l3.2-28.41h23.66v6.74h0Z"/>
</svg>