<?xml version="1.0" encoding="UTF-8"?>
<svg id="Layer_1" data-name="Layer 1" xmlns="http://www.w3.org/2000/svg" viewBox="0 0 500 500">
  <defs>
    <style>
      .cls-1 {
        fill: #fff;
      }

      .cls-2 {
        fill: #0e1329;
      }

      .cls-3 {
        fill: #831618;
      }

      .cls-4 {
        fill: #0f592d;
      }

      .cls-5 {
        fill: #a42e22;
      }
    </style>
  </defs>
  <g>
    <path d="M403.52,295.18c0-77.26,.02-154.52,0-231.78,0-10.23-3.92-18.78-11.41-25.72-7.13-6.62-15.7-9.27-25.28-9.25-19.92,.03-39.84,.03-59.76,.03-58.61,0-117.22-.02-175.83-.03-11.25,0-20.56,4.3-27.93,12.8-6.22,7.16-8.29,15.61-8.28,24.93,.08,59.07,.04,118.14,.04,177.2,0,49.28-.01,98.56,0,147.85,0,11.62-.06,23.25,.17,34.87,.17,8.15,3.5,15.14,8.97,21.14,8.01,8.79,18.14,11.81,29.79,11.79,72.42-.12,144.85-.03,217.27-.1,7.93-.01,15.93,.83,23.79-.63,16.91-3.15,28.43-17.49,28.44-35.31,.03-42.6-.01-85.2-.01-127.81Zm-2.41-51.45h-.05c0,58.95,0,117.9,0,176.85,0,4.97-.29,9.89-2.05,14.62-4.77,12.86-17.1,21.24-31.42,21.24-76.68,0-153.37-.02-230.04-.03-2.54,0-5.07,.06-7.6-.03-18.05-.64-31.62-14.17-32.34-32.2-.03-.92-.02-1.84-.02-2.76,0-118.48,.02-236.95-.03-355.43,0-9.66,2.6-18.14,9.55-25.07,6.91-6.88,15.25-9.94,24.95-9.93,56.53,.06,113.07,.03,169.6,.03,22.11,0,44.22-.09,66.32,.03,16.42,.09,29.42,10.83,32.51,26.54,.83,4.21,.62,8.48,.62,12.74,0,57.8,0,115.6,0,173.4Z"/>
    <path class="cls-1" d="M401.11,243.73h-.05c0,58.95,0,117.9,0,176.85,0,4.97-.29,9.89-2.05,14.62-4.77,12.86-17.1,21.24-31.42,21.24-76.68,0-153.37-.02-230.04-.03-2.54,0-5.07,.06-7.6-.03-18.05-.64-31.62-14.17-32.34-32.2-.03-.92-.02-1.84-.02-2.76,0-118.48,.02-236.95-.03-355.43,0-9.66,2.6-18.14,9.55-25.07,6.91-6.88,15.25-9.94,24.95-9.93,56.53,.06,113.07,.03,169.6,.03,22.11,0,44.22-.09,66.32,.03,16.42,.09,29.42,10.83,32.51,26.54,.83,4.21,.62,8.48,.62,12.74,0,57.8,0,115.6,0,173.4Z"/>
  </g>
  <path class="cls-5" d="M129.92,88.32V51.33c-1.47,.91-2.75,1.71-4.27,2.65,0-1.82-.02-3.38,.03-4.94,0-.23,.33-.5,.58-.66,1.62-1.04,3.16-2.25,4.93-3,1.26-.53,2.85-.4,4.37-.58v43.53h-5.63Z"/>
  <g>
    <path class="cls-2" d="M316.04,309.7c-2.33-2.14-4.88-1.77-7.42-.77-2.95,1.15-5.91,2.04-9.13,1.88-2.95-.15-3.57-1.09-2.64-3.92,1.31-3.95,4.4-5.76,8.12-6.69,3.45-.86,7.01-1.32,10.43-2.28,1.41-.39,4.28-.28,3.53-2.64-.66-2.08-3-1.33-4.84-.75-4.32,1.37-8.48,3.18-12.89,4.29-2.1,.52-3.95,1.39-5.21-1.22-1.26-2.63-.58-5.12,1.98-6.68,2.89-1.76,6.24-2.36,9.34-3.61,3.7-1.49,7.51-2.72,11.26-4.09,.77-.28,2.1-.44,1.79-1.43-.4-1.26-1.63-.6-2.42-.2-4.64,2.38-9.5,4.12-14.61,5.18-2.59,.54-5.16,.63-7.64-.45-1.69-.74-2.33-1.84-1.08-3.55,1.36-1.88,2.91-3.37,5.21-4.15,5.93-2.01,11.8-4.19,17.69-6.3,.71-.26,1.44-.49,2.1-.85,.89-.49,2.35-.77,1.86-2.18-.43-1.23-1.79-1.11-2.84-.95-2.27,.36-4.31,1.4-6.26,2.57-4.32,2.6-8.95,4.29-13.94,4.96-4.73,.63-6.41-.93-6.09-5.28,.15-2,1.26-2.89,2.95-3.33,8.77-2.3,16.59-7.41,25.69-8.73,.41-.06,.8-.32,1.18-.52,1.16-.61,1.99-1.6,1.54-2.88-.54-1.57-1.92-1.08-3.02-.67-4.43,1.68-8.85,3.39-13.26,5.13-3.31,1.31-6.56,2.79-9.91,4.01-3.81,1.39-6.37,.65-7.24-1.83-1.11-3.17,.61-6.37,4.3-7.52,8.44-2.63,16.19-7.23,25.05-8.63,3.65-.58,4.86-4.03,7.07-6.29,.33-.34,.34-.81,0-1.17-.58-.63-1.16-.27-1.73,.06-3.3,1.89-7.1,2.68-10.41,4.44-5.86,3.11-12.2,4.92-18.27,7.45-2.12,.88-4.4,1.3-6.02-.5-1.59-1.77-.49-3.9,.37-5.78,.5-1.1,1.19-2.28,2.29-2.64,4.54-1.49,7.96-5.07,12.64-6.34,5.2-1.41,10.28-3.24,15.43-4.82,2.28-.7,3.94-2.14,5.36-3.97,.49-.64,.9-1.26,.19-1.99-.62-.62-1.32-.63-2.07-.21-7.06,3.98-15.08,5.81-22.13,9.83-2.33,1.33-4.88,2.29-7.41,3.23-2.92,1.09-5.28-.87-4.8-3.96,.41-2.65,2-4.4,4.37-5.66,7.9-4.21,16.34-7.4,23.81-12.44,.51-.35,1.25-.67,1.82-.59,4.11,.59,5.15-2.48,6.46-5.27,1.04-2.22,.05-3.1-2.06-2.97-2.67,.16-5.11,1.15-6.9,3.16-1.8,2.02-4.01,3.02-6.52,3.89-4.57,1.59-8.97,3.69-13.46,5.51-.98,.4-2.05,.74-3.1,.8-3,.18-4.56-1.56-3.79-4.45,.86-3.2,2.51-5.92,5.62-7.58,3.26-1.74,6.75-2.87,10.22-4.06,8.86-3.03,16.75-7.87,24.39-13.14,1.47-1.01,1.99-2.84,1.91-4.64-.09-2.01-1.99-2.81-4.12-1.52-7.64,4.63-16.29,7.43-23.44,12.98-1.44,1.12-3.09,1.98-4.68,2.89-3.25,1.85-5.8,.51-5.99-3.29-.22-4.18,2.16-6.92,5.62-8.74,6.21-3.26,12.45-6.48,18.77-9.54,10.36-5.01,18.28-13.35,27.47-19.95,1.05-.75,1.56-1.95,.77-3.13-.79-1.17-1.97-.65-2.9-.12-3.47,1.98-6.89,4.04-10.33,6.07-7.06,4.16-14.7,7.31-21.35,12.22-2.17,1.6-4.84,2.41-7.5,2.94-2.47,.49-3.61-.94-3.03-3.38,.89-3.67,3.12-6.51,6.06-8.51,3.65-2.47,7.28-5.02,11.27-6.99,5.9-2.91,11.83-5.79,17.47-9.15,3.96-2.36,7.84-4.94,11.6-7.59,3.91-2.74,5.58-7.29,6.31-12.02,.27-1.79-.37-2.64-2.37-2.29-2.33,.41-4.67,.61-6.85,1.71-10.72,5.42-21.38,11.13-30.26,19.2-10.21,9.27-18.51,20.19-23.43,33.34-2.99,7.99-6.87,15.72-9.03,23.92-1.87,7.1-3.44,14.48-3.44,21.96,0,4.23,2.11,8.12,2.22,12.39,.34,12.12,2.88,23.99,4.32,35.99,.76,6.32,2.43,12.5,3.11,18.86,.59,5.46,.15,10.79-1.22,16.05-.93,3.57-6.07,7.12-9.71,6.9-2.33-.14-2.9-2.01-3.66-3.63-1.17-2.53-1.47-5.48,.79-7.2,3.86-2.94,4.12-6.95,4.14-11.01,.02-6.26-.46-12.51-.58-18.77-.12-6.44-4.15-11.48-5.93-17.32-.34-1.13-1.05-2.24-1.05-3.36,.03-10.28-2.12-20.41-2.02-30.7,.03-3.48,.14-6.95,1.11-10.28,3.94-13.43,6.74-27.12,12.6-40.06,6-13.24,14.5-24.4,24.3-34.73,5.27-5.55,11.79-9.64,18.65-13.26,11.36-5.99,23.31-10.66,34.87-16.19,1.26-.6,2.41-1.44,3.68-2.03,.92-.43,1.9-1.26,2.95-.19,.91,.92,.76,1.98,.29,3.01-2.94,6.42-4.61,13.22-6.16,20.08-.66,2.91-.71,5.73-.53,8.63,.48,7.55-2.05,13.96-6.45,20.1-3.72,5.19-7.31,10.4-11.86,14.9-.64,.63-.87,1.43-.92,2.35-.5,8.76-2.67,17.26-4,25.89-1.19,7.72-3.06,15.42-1.91,23.39,.52,3.63,.08,7.3-.88,10.92-.49,1.84-.43,3.86-.44,5.79,0,3.79-.13,7.54-.9,11.28-.84,4.06-.5,8.16,.08,12.25,.59,4.12,.44,8.17-1.34,12.07-1.17,2.56-2.06,5.24-2.37,8.05-.97,8.8-5.22,16.32-10.33,23.09-4.51,6-10.99,9.69-18.98,9.6-1.19-.01-2.49,.17-2.92-1.37-.37-1.34-.2-2.58,1-3.49,.52-.39,.98-.9,1.56-1.16,4.68-2.13,9.6-3.29,14.98-3.7Z"/>
    <path class="cls-3" d="M265.01,342.61c-.41-11.54-3.63-20.77-6.15-30.14-.92-3.4-1.31-6.75-.59-10.22,1.19-5.69,4.53-8.93,10.21-9.82,3.06-.48,4.02,.91,3.12,4.44-1.78,6.98-2.26,14.04-1.25,21.19,.24,1.7,.5,3.41,.85,5.09,.64,3.13,2.85,4.51,5.8,4.66,2.17,.11,4.29,.38,6.41,.86,1.02,.23,1.86,.64,1.97,1.81,.12,1.36-.82,1.99-1.88,2.29-1.97,.57-3.97,1.02-5.98,1.43-1.35,.27-2.65,.53-2.54,2.29,.13,2.09,1.76,1.8,3.14,1.85,.86,.03,1.73,0,2.59,.04,.93,.04,2.05-.21,2.21,1.25,.13,1.17-.53,2.02-1.49,2.22-6.27,1.32-7.01,6.24-7.59,11.34-1.01,8.89-4.36,16.22-13.33,19.76-.5,.2-1,.43-1.44,.74-5.93,4.15-11.53,2.91-17-.97-.66-.47-1.35-1.36-2.25-.54-.83,.75-.61,1.81-.35,2.75,2.06,7.35,12.09,13.61,19.5,11.95,5.53-1.24,10.66-3.53,15.14-7.07,4-3.16,4.5-6.85,1.47-11.01-.56-.76-1.59-1.34-1.06-2.47,.59-1.24,1.8-1.35,3.03-1.45,1.8-.15,4.19,.87,5.28-.5,1.39-1.74-1.29-3.04-1.73-4.7-.37-1.41-1.37-3.1,.2-4.19,2.05-1.43,4.45-1.54,6.78-.51,.57,.25,.98,.83,1.48,1.24,.58,.47,1.21,1.16,1.97,.51,.9-.78,.24-1.63-.27-2.28-1-1.28-2.11-2.46-3.17-3.69-1.1-1.27-2-2.62-1.2-4.39,.79-1.74,2.4-1.56,3.91-1.57,.43,0,.87,.04,1.3-.02,.81-.11,1.89,.37,2.31-.64,.43-1.01-.58-1.46-1.16-2.07-1.34-1.42-3.99-2.46-2.92-4.85,1.06-2.4,3.48-.52,5.28-.71,.85-.09,1.73,.08,2.59,.04,.94-.04,2.3,1.21,2.74-.45,.4-1.47-.73-2.47-2.03-2.9-2.55-.86-4.36-2.77-6.44-4.28-.85-.62-1.96-1.3-1.52-2.59,.44-1.26,1.71-1.09,2.78-1.15,4-.23,7.64,1.22,11.35,2.36,5.01,1.53,7.63,1.03,10.33-3.32,2.46-3.97,5.78-6.92,9.15-9.92,5.3-4.71,8.32-10.64,9.63-17.55,1.71-9.09,4.58-17.76,9.55-25.64,2.69-4.26,3.21-4.46,8.03-2.92,2.85,.91,5.77,.74,8.68,.72,1.03,0,2.03-.2,2.24-1.39,.22-1.21-.74-1.7-1.66-2.06-2.73-1.07-5.53-1.86-8.5-1.8-1.19,.02-2.38-.02-3.57,0-1.3,.03-2.46-.23-2.68-1.72-.25-1.66,.95-2.39,2.28-2.6,3.52-.54,7.06-.92,10.59-1.36,.64-.08,1.32-.02,1.92-.22,.85-.27,1.64-.8,1.44-1.85-.18-.99-1.12-.83-1.85-.88-4.21-.31-8.37,.98-12.6,.36-.91-.13-2.15,.42-2.54-.81-.43-1.35,.53-2.34,1.57-2.9,3.7-2.01,7.47-3.84,11.75-4.4,.9-.12,2.67,.18,2.52-1.28-.12-1.15-1.75-.92-2.78-1.04-2.31-.26-4.52,.21-6.61,1.21-2.16,1.03-4.46,1.62-6.8,2.08-.85,.17-1.74,.65-2.29-.37-.44-.82-.16-1.67,.28-2.47,.62-1.13,1.76-1.52,2.79-2.1,3.29-1.85,6.6-3.69,9.81-5.67,1.25-.77,2.8-1.91,1.59-3.63-1.08-1.56-2.81-.97-4.09-.13-2.34,1.53-4.47,3.44-7.18,4.28-1.07,.33-2.48,1.74-3.41,0-.72-1.35-.11-2.72,.95-3.82,2.88-2.95,5.95-5.65,9.65-7.57,1.63-.85,3.28-1.71,4.41-3.23,.62-.84,1.59-1.8,.57-2.84-.87-.89-2.03-.51-3,.06-.55,.32-1.11,.73-1.47,1.24-2.17,3.13-5.83,3.99-8.83,5.83-1.51,.93-1.87-.2-1.8-1.49,.18-3.78,1.7-6.85,4.79-9.12,3.04-2.23,6.52-3.89,9-6.84,.97-1.16,1.87-2.37,2.74-3.6,.37-.52,.69-1.17,.11-1.76-.55-.57-1.18-.3-1.79-.05-3.33,1.41-5.49,4.16-7.57,6.89-1.59,2.09-3.42,3.91-5.32,5.65-1.89,1.74-3,1.25-3.33-1.36-.4-3.17,.54-5.99,2.6-8.41,3.57-4.2,6.55-8.79,9.64-13.35,3.54-5.23,9.01-8.92,14.4-12.3,1.78-1.11,3.56-.39,3.76,2.27,.24,3.2-.62,6.21-1.3,9.26-1.24,5.53-2.89,10.83-1.38,16.81,1.18,4.7-.12,9.87,.86,14.81,.37,1.87-1,3.49-2,5.01-1.45,2.19-1.71,4.21-.3,6.62,1.62,2.76,2.36,5.79,1,8.99-.65,1.52-.24,2.96,.54,4.34,1.84,3.26,2.21,6.7,1.27,10.32-1.41,5.36,.1,10.76-.16,16.14-.21,4.34-2.17,5.73-6.32,4.06-1.9-.77-3.79-1.58-5.69-2.36-5.3-2.17-8.98-.32-10.39,5.35-1.9,7.62-4.91,14.91-9.12,21.37-4.52,6.94-9.01,13.93-13.65,20.78-5.67,8.37-12.44,16.01-18.87,23.86-2.68,3.28-5.04,6.69-7.08,10.41-4.02,7.31-9.05,13.9-15.53,19.27-.58,.48-1.21,.96-1.64,1.56-5.46,7.61-13.91,10.35-22.15,13.08-6.35,2.1-12.43,.45-18.13-3.35-7.36-4.92-10.96-12.57-15.4-19.66-1.06-1.69-.85-3.13,1.06-4.35,3.31-2.11,6.76-3.89,10.57-4.81,2.71-.65,5.14-.49,7.31,1.95,4.02,4.53,9.64,4.21,13.65-.42,1.22-1.4,2.41-2.92,2.78-4.71,1.22-5.88,2.61-11.74,2.86-16.09Z"/>
    <path class="cls-2" d="M177.13,247.78c5.22-.6,9.8-2.04,14.54-2.21,7.04-.24,14.02,.09,20.91,1.83,3.65,.92,5.69,3,5.16,5.86-.38,2.02-3.7,3.58-6.76,3.07-1.59-.27-3.14-.77-4.73-1.08-4.42-.87-8.78-.39-13.18,.4-5,.9-10.18-.33-15.18,.82-7.74,1.78-15.87,2.4-22.6,7.33-.82,.6-2.28,.86-1.72,2.27,.52,1.27,1.86,.94,2.87,.7,4.29-1.05,8.65-1.91,12.81-3.36,3.45-1.2,6.95-1.46,10.49-1.79,2.05-.19,3.39,.66,3.79,2.66,.44,2.21-1.43,2.31-2.81,2.77-8.19,2.75-16.57,5.21-24,9.61-6.57,3.89-14.33,5.49-20.13,10.86-2.28,2.11-3.59,4.47-4.48,7.29-.58,1.84,.14,2.44,1.85,2.31,2.44-.19,4.59-1.2,6.54-2.61,6.03-4.38,11.82-9.11,18.1-13.09,5.98-3.79,11.81-8,18.64-10.26,5.75-1.9,10.61-6.1,16.68-6.98,7.63-1.11,14.66-5.11,22.76-4.07,10.65,1.36,20.93,3.37,30.51,8.74,5.15,2.89,10.59,5.27,15.51,8.61,1.51,1.03,3.38,.41,5.08,.52,1.46,.09,3.5-.34,3.35,1.91-.16,2.31,1.56,5.24-2.02,6.72-4.29,1.77-8.13,1.6-11.79-1.48-1.73-1.46-3.7-2.62-5.53-3.96-12.63-9.25-27.04-10.63-42-9.47-8.18,.63-16.31,1.43-24.03,4.74-3.78,1.62-7.52,3.37-10.96,5.5-9.06,5.61-18.2,11.06-26.06,18.54-7.41,7.06-15.29,13.7-23.79,19.5-.92,.63-1.85,1.74-3.17,.93-1.19-.73-.99-2.02-1.11-3.2-.48-4.79,1.5-9.11,2.54-13.61,.24-1.05,.61-2.04,.34-3.17-1.96-8.37,1.7-14.85,7.42-20.3,3.3-3.14,6.27-6.55,9.44-9.78,1.03-1.04,1.21-2.5,1.82-3.73,2.34-4.71,4.53-9.61,10.49-10.89,1.53-.33,2.57-1.55,3.65-2.61,3.32-3.25,6.54-6.61,9.97-9.73,5.09-4.62,11.11-7.2,17.97-8.14,7.31-1.01,14.2-3.16,20.63-7.15,9.4-5.84,20.04-8.76,30.92-9.81,8.11-.79,16.19,2.48,24.47,1.72,1.32-.12,2.38,.94,3.27,1.91,1.36,1.46,2.09,3.2,2.53,5.16,1.28,5.71,1.33,5.7-4.41,4.79-3.12-.5-3.8,.09-2.91,3.22,1.32,4.67,2.89,9.27,4.46,13.87,.89,2.59,1.22,5.26,1.45,7.95,.16,1.9-.42,3.57-2.4,4.09-1.98,.52-2.5-1.25-3.2-2.56-2.44-4.61-3.6-9.71-5.34-14.58-2.84-7.99-9.12-12.34-15.86-16.35-.66-.39-1.65-1.03-2.39-.35-.8,.73-.04,1.59,.29,2.35,1.4,3.23,3.38,6.14,6.17,8.21,4.5,3.35,6.93,8.2,9.86,12.69,1.08,1.66,2.28,4-.2,5.37-2.31,1.27-4.43,.77-5.82-2.05-1.92-3.91-4.7-7.2-8.11-9.99-2.42-1.98-4.43-4.41-6.59-6.68-4.67-4.9-10.63-6.29-17.21-5.26-1.02,.16-1.96,.6-2.13,1.7-.22,1.4,.95,1.86,1.96,2.17,4.02,1.23,8.06,2.43,12.11,3.55,5.12,1.41,9.04,4.41,12.17,8.63,1.04,1.4,.99,2.41-.19,3.67-1.18,1.25-2.14,2.38-4.07,1.24-15.92-9.43-33.6-10.04-51.37-10.09-2.76,0-4.2,1.75-5.33,4.64Z"/>
    <path class="cls-3" d="M217.26,361.84c-5.34-1.48-9.27,3.67-12.81,9.21-8.6,13.45-17.31,26.85-24.74,41.01-.97,1.85-2.3,2.43-4.21,2.15-2.07-.3-2.43-2-2.66-3.59-.37-2.63,.38-5.12,1.36-7.56,4.39-10.9,9.24-21.65,12.96-32.78,2.74-8.17,5.67-16.53,4.85-25.48-.41-4.43,1.26-8.04,4.41-11.01,2.45-2.31,3.77-5.16,4.64-8.36,2.42-8.85,4.84-17.69,9.67-25.66,4.89-8.06,10.71-15.1,19.24-19.58,5.47-2.87,14.35-1.58,18.61,2.91,2.61,2.74,2.5,4.73-.65,7.32-5.24,4.32-11.1,7.81-16.18,12.37-5.84,5.23-10.69,10.95-12.36,18.87-.6,2.85-.19,4.54,3.15,5.33,8.46,2,12.21,9.03,15.91,15.9,1.01,1.88,1.45,4.06,2.16,6.1,1.28,3.67,.52,6.12-2.77,8.38-5.44,3.73-11.42,5.57-20.6,4.46Zm9.15-8.91c3.9,.04,4.68-.88,4.24-3.96-.76-5.26-9.09-13.35-14.37-13.96-.21-.02-.43-.04-.65-.05-6.84-.45-15.49,7.21-16.07,14.16-.18,2.15,.65,3.49,2.67,4.23,1.47,.53,2.95,.65,4.46,.42,2.45-.37,4.91-.64,7.27-1.5,4.5-1.63,8.93-.6,12.45,.66Z"/>
    <path class="cls-4" d="M203.57,168.96c5.85,.23,9.17,4.32,12.74,7.82,4.85,4.75,9.16,10.05,14.85,13.91,3.37,2.28,4.39,2.31,7.16-.75,2.6-2.87,5.29-5.66,7.34-9.01,2.39-3.9,6.01-4.74,9.98-2.47,6.3,3.61,10.16,9.54,14.07,15.33,1.36,2.02,.06,6.14-1.96,7.62-1.67,1.22-3.23,.84-4.59-.63-1.39-1.51-2.87-2.89-4.6-4.05-4.52-3.04-8.24-2.49-11.37,2.02-2.15,3.1-3.89,6.48-6.11,9.51-2.76,3.77-4.29,3.75-7.83,.66-7.72-6.74-15.1-13.86-22.54-20.9-4.55-4.3-6.06-4.2-10.59,.22-5.41,5.29-11.81,9.39-17.17,14.76-5.15,5.15-9.24,11.12-13.91,16.63-.83,.99-1.65,2.06-2.7,2.77-2.08,1.4-4.24,2.68-6.72,.46-2.64-2.37-3.5-4.84-2.03-7.71,1.17-2.3,2.36-4.71,4.08-6.58,6.83-7.45,13-15.48,20.13-22.67,3.57-3.6,6.69-7.64,10.27-11.23,3.17-3.18,7.04-5.28,11.5-5.7Z"/>
    <path class="cls-3" d="M319.78,398.22c.12-3.86,.91-7.52,2.41-11.04,1.53-3.59,1.99-7.52,3.19-11.16,2.61-7.89,3.41-16.24,6.49-23.98,.04-.1,.12-.19,.14-.29,.47-2.03,1.12-4.5-.93-5.62-2.18-1.19-4.09,.72-4.96,2.53-4.84,10.05-10.9,19.36-13.77,30.54-2.67,10.42-1.76,20.47-1.37,30.72,.18,4.77-2.44,7.88-5.59,10.78-1.07,.98-2.2,.5-3.14-.47-1.6-1.64-3.02-3.44-3.76-5.61-1.11-3.26-2.36-6.53-2.92-9.9-.56-3.38,.9-6.59,2.58-9.48,4.67-8.02,8.86-16.24,12.4-24.86,3.32-8.07,4.81-16.54,6.85-24.89,1.07-4.38,2.59-8.3,5.43-11.89,3.66-4.64,7.84-8.92,10.68-14.2,1.23-2.3,3.13-3.55,5.84-3.18,2.6,.35,3.81,2.12,4.57,4.45,.7,2.14,.7,4.21,.1,6.36-.79,2.84-2.03,5.49-3.6,7.94-1.5,2.34-1.46,3.8,1.02,5.57,2.96,2.12,2.51,5.77,1.18,8.32-3.63,6.95-4.8,14.76-8.16,21.73-2.38,4.93-3.43,10.2-4.88,15.38-.63,2.26-.29,4.23,1.53,5.9,1.14,1.05,1.9,2.5,2.01,3.99,.38,5.23,2.18,10.1,3.53,15.09,.96,3.55-.43,8.13-2.57,9.03-2.43,1.03-7.27-1.04-9.24-3.99-3.58-5.38-4.85-11.43-5.06-17.76Z"/>
    <path class="cls-4" d="M278.56,166.18c-.05,1.9-.5,3.72-2.36,4.61-1.86,.89-3.33-.32-4.65-1.45-4.59-3.93-9.41-7.54-14.42-10.94-3.1-2.1-6.03-2.06-9.1-.42-1.32,.7-2.68,1.53-3.66,2.62-4.17,4.65-8.62,9.03-13.03,13.44-1.96,1.96-3.55,4.3-6.74,2.95-1.63-.69-2.97-6.39-2.19-8.64,.68-1.97,1.99-3.57,3.27-5.17,3.81-4.72,8.05-8.97,12.95-12.61,2.58-1.92,4.81-4.32,7.21-6.49,4.09-3.7,7.66-4.02,11.94-.84,6.07,4.51,11.48,9.79,16.93,15.01,2.18,2.09,4.02,4.57,3.86,7.93Z"/>
    <path class="cls-4" d="M218.82,129.15c5.58,1.58,10.95-1.26,16.36-4.06,1.71-.88,3.53-1.64,5.39-2.13,2.17-.57,4.06-.06,4.97,2.36,.87,2.31-.81,3.1-2.31,3.94-3.95,2.21-6.6,5.34-7.66,9.83-.97,4.12-5.6,6.67-9.69,4.82-5.2-2.35-10.5-3.69-16.16-4.13-3.11-.24-4.19-3.94-2.17-6.71,2.15-2.94,4.79-3.94,11.27-3.92Z"/>
    <path class="cls-4" d="M275.83,128.64c-.05-3.52,3.38-7.83,7.63-8.71,4.49-.93,8.44-2.25,12.21-5.1,2.91-2.19,6.88-2.37,10.49-.44,1.23,.66,2.17,1.44,2.07,2.96-.1,1.47-.98,2.59-2.3,2.82-4.38,.77-6.78,3.28-7.69,7.58-.31,1.46-1.58,2.2-3.22,2.15-2.59-.07-5.18,.02-7.78-.03-2.11-.04-4.08,.23-5.78,1.63-1.06,.87-2.27,1.34-3.57,.52-1.38-.87-2-2.2-2.05-3.39Z"/>
    <path class="cls-3" d="M207.54,351.25c-3.23,.05-4.99-1.55-5-4.56,0-3.16,2.08-5.38,5.11-5.43,3.49-.06,6.17,2.16,6.26,5.18,.08,2.91-2.36,4.75-6.38,4.81Z"/>
  </g>
</svg>