  0
SECTION
  2
HEADER
  9
$ACADVER
  1
AC1032
  9
$ACADMAINTVER
 90
      228
  9
$DWGCODEPAGE
  3
ANSI_1252
  9
$REQUIREDVERSIONS
160
                 0
  9
$INSBASE
 10
0.0
 20
0.0
 30
0.0
  9
$EXTMIN
 10
1.000000000000000E+20
 20
1.000000000000000E+20
 30
1.000000000000000E+20
  9
$EXTMAX
 10
-1.000000000000000E+20
 20
-1.000000000000000E+20
 30
-1.000000000000000E+20
  9
$LIMMIN
 10
0.0
 20
0.0
  9
$LIMMAX
 10
12.0
 20
9.0
  9
$ORTHOMODE
 70
     0
  9
$REGENMODE
 70
     1
  9
$FILLMODE
 70
     1
  9
$QTEXTMODE
 70
     0
  9
$MIRRTEXT
 70
     0
  9
$LTSCALE
 40
1.0
  9
$ATTMODE
 70
     1
  9
$TEXTSIZE
 40
0.2
  9
$TRACEWID
 40
0.05
  9
$TEXTSTYLE
  7
Standard
  9
$CLAYER
  8
0
  9
$CELTYPE
  6
ByLayer
  9
$CECOLOR
 62
   256
  9
$CELTSCALE
 40
1.0
  9
$DISPSILH
 70
     0
  9
$DIMSCALE
 40
1.0
  9
$DIMASZ
 40
0.18
  9
$DIMEXO
 40
0.0625
  9
$DIMDLI
 40
0.38
  9
$DIMRND
 40
0.0
  9
$DIMDLE
 40
0.0
  9
$DIMEXE
 40
0.18
  9
$DIMTP
 40
0.0
  9
$DIMTM
 40
0.0
  9
$DIMTXT
 40
0.18
  9
$DIMCEN
 40
0.09
  9
$DIMTSZ
 40
0.0
  9
$DIMTOL
 70
     0
  9
$DIMLIM
 70
     0
  9
$DIMTIH
 70
     1
  9
$DIMTOH
 70
     1
  9
$DIMSE1
 70
     0
  9
$DIMSE2
 70
     0
  9
$DIMTAD
 70
     0
  9
$DIMZIN
 70
     0
  9
$DIMBLK
  1

  9
$DIMASO
 70
     1
  9
$DIMSHO
 70
     1
  9
$DIMPOST
  1

  9
$DIMAPOST
  1

  9
$DIMALT
 70
     0
  9
$DIMALTD
 70
     2
  9
$DIMALTF
 40
25.4
  9
$DIMLFAC
 40
1.0
  9
$DIMTOFL
 70
     0
  9
$DIMTVP
 40
0.0
  9
$DIMTIX
 70
     0
  9
$DIMSOXD
 70
     0
  9
$DIMSAH
 70
     0
  9
$DIMBLK1
  1

  9
$DIMBLK2
  1

  9
$DIMSTYLE
  2
Standard
  9
$DIMCLRD
 70
     0
  9
$DIMCLRE
 70
     0
  9
$DIMCLRT
 70
     0
  9
$DIMTFAC
 40
1.0
  9
$DIMGAP
 40
0.09
  9
$DIMJUST
 70
     0
  9
$DIMSD1
 70
     0
  9
$DIMSD2
 70
     0
  9
$DIMTOLJ
 70
     1
  9
$DIMTZIN
 70
     0
  9
$DIMALTZ
 70
     0
  9
$DIMALTTZ
 70
     0
  9
$DIMUPT
 70
     0
  9
$DIMDEC
 70
     4
  9
$DIMTDEC
 70
     4
  9
$DIMALTU
 70
     2
  9
$DIMALTTD
 70
     2
  9
$DIMTXSTY
  7
Standard
  9
$DIMAUNIT
 70
     0
  9
$DIMADEC
 70
     0
  9
$DIMALTRND
 40
0.0
  9
$DIMAZIN
 70
     0
  9
$DIMDSEP
 70
    46
  9
$DIMATFIT
 70
     3
  9
$DIMFRAC
 70
     0
  9
$DIMLDRBLK
  1

  9
$DIMLUNIT
 70
     2
  9
$DIMLWD
 70
    -2
  9
$DIMLWE
 70
    -2
  9
$DIMTMOVE
 70
     0
  9
$DIMFXL
 40
1.0
  9
$DIMFXLON
 70
     0
  9
$DIMJOGANG
 40
0.7853981633974483
  9
$DIMTFILL
 70
     0
  9
$DIMTFILLCLR
 70
     0
  9
$DIMARCSYM
 70
     0
  9
$DIMLTYPE
  6

  9
$DIMLTEX1
  6

  9
$DIMLTEX2
  6

  9
$DIMTXTDIRECTION
 70
     0
  9
$LUNITS
 70
     2
  9
$LUPREC
 70
     4
  9
$SKETCHINC
 40
0.1
  9
$FILLETRAD
 40
0.0
  9
$AUNITS
 70
     0
  9
$AUPREC
 70
     0
  9
$MENU
  1
.
  9
$ELEVATION
 40
0.0
  9
$PELEVATION
 40
0.0
  9
$THICKNESS
 40
0.0
  9
$LIMCHECK
 70
     0
  9
$CHAMFERA
 40
0.0
  9
$CHAMFERB
 40
0.0
  9
$CHAMFERC
 40
0.0
  9
$CHAMFERD
 40
0.0
  9
$SKPOLY
 70
     0
  9
$TDCREATE
 40
2460929.580451389
  9
$TDUCREATE
 40
2460929.372118056
  9
$TDUPDATE
 40
2460929.580451389
  9
$TDUUPDATE
 40
2460929.372118056
  9
$TDINDWG
 40
0.0000000000
  9
$TDUSRTIMER
 40
0.0000000000
  9
$USRTIMER
 70
     1
  9
$ANGBASE
 50
0.0
  9
$ANGDIR
 70
     0
  9
$PDMODE
 70
     0
  9
$PDSIZE
 40
0.0
  9
$PLINEWID
 40
0.0
  9
$SPLFRAME
 70
     0
  9
$SPLINETYPE
 70
     6
  9
$SPLINESEGS
 70
     8
  9
$HANDSEED
  5
8E
  9
$SURFTAB1
 70
     6
  9
$SURFTAB2
 70
     6
  9
$SURFTYPE
 70
     6
  9
$SURFU
 70
     6
  9
$SURFV
 70
     6
  9
$UCSBASE
  2

  9
$UCSNAME
  2

  9
$UCSORG
 10
0.0
 20
0.0
 30
0.0
  9
$UCSXDIR
 10
1.0
 20
0.0
 30
0.0
  9
$UCSYDIR
 10
0.0
 20
1.0
 30
0.0
  9
$UCSORTHOREF
  2

  9
$UCSORTHOVIEW
 70
     0
  9
$UCSORGTOP
 10
0.0
 20
0.0
 30
0.0
  9
$UCSORGBOTTOM
 10
0.0
 20
0.0
 30
0.0
  9
$UCSORGLEFT
 10
0.0
 20
0.0
 30
0.0
  9
$UCSORGRIGHT
 10
0.0
 20
0.0
 30
0.0
  9
$UCSORGFRONT
 10
0.0
 20
0.0
 30
0.0
  9
$UCSORGBACK
 10
0.0
 20
0.0
 30
0.0
  9
$PUCSBASE
  2

  9
$PUCSNAME
  2

  9
$PUCSORG
 10
0.0
 20
0.0
 30
0.0
  9
$PUCSXDIR
 10
1.0
 20
0.0
 30
0.0
  9
$PUCSYDIR
 10
0.0
 20
1.0
 30
0.0
  9
$PUCSORTHOREF
  2

  9
$PUCSORTHOVIEW
 70
     0
  9
$PUCSORGTOP
 10
0.0
 20
0.0
 30
0.0
  9
$PUCSORGBOTTOM
 10
0.0
 20
0.0
 30
0.0
  9
$PUCSORGLEFT
 10
0.0
 20
0.0
 30
0.0
  9
$PUCSORGRIGHT
 10
0.0
 20
0.0
 30
0.0
  9
$PUCSORGFRONT
 10
0.0
 20
0.0
 30
0.0
  9
$PUCSORGBACK
 10
0.0
 20
0.0
 30
0.0
  9
$USERI1
 70
     0
  9
$USERI2
 70
     0
  9
$USERI3
 70
     0
  9
$USERI4
 70
     0
  9
$USERI5
 70
     0
  9
$USERR1
 40
0.0
  9
$USERR2
 40
0.0
  9
$USERR3
 40
0.0
  9
$USERR4
 40
0.0
  9
$USERR5
 40
0.0
  9
$WORLDVIEW
 70
     1
  9
$SHADEDGE
 70
     3
  9
$SHADEDIF
 70
    70
  9
$TILEMODE
 70
     1
  9
$MAXACTVP
 70
    64
  9
$PINSBASE
 10
0.0
 20
0.0
 30
0.0
  9
$PLIMCHECK
 70
     0
  9
$PEXTMIN
 10
1.000000000000000E+20
 20
1.000000000000000E+20
 30
1.000000000000000E+20
  9
$PEXTMAX
 10
-1.000000000000000E+20
 20
-1.000000000000000E+20
 30
-1.000000000000000E+20
  9
$PLIMMIN
 10
0.0
 20
0.0
  9
$PLIMMAX
 10
12.0
 20
9.0
  9
$UNITMODE
 70
     0
  9
$VISRETAIN
 70
     1
  9
$PLINEGEN
 70
     0
  9
$PSLTSCALE
 70
     1
  9
$TREEDEPTH
 70
  3020
  9
$CMLSTYLE
  2
Standard
  9
$CMLJUST
 70
     0
  9
$CMLSCALE
 40
1.0
  9
$PROXYGRAPHICS
 70
     1
  9
$MEASUREMENT
 70
     0
  9
$CELWEIGHT
370
    -1
  9
$ENDCAPS
280
     0
  9
$JOINSTYLE
280
     0
  9
$LWDISPLAY
290
     1
  9
$INSUNITS
 70
     0
  9
$HYPERLINKBASE
  1

  9
$STYLESHEET
  1

  9
$XEDIT
290
     1
  9
$CEPSNTYPE
380
     0
  9
$PSTYLEMODE
290
     1
  9
$FINGERPRINTGUID
  2
{E0B75FB5-63F5-A04B-BFF4-6C71A634B983}
  9
$VERSIONGUID
  2
{8B617DF6-6DF4-2F42-9D59-210F4E40FDCC}
  9
$EXTNAMES
290
     1
  9
$PSVPSCALE
 40
0.0
  9
$OLESTARTUP
290
     0
  9
$SORTENTS
280
   127
  9
$INDEXCTL
280
     0
  9
$HIDETEXT
280
     1
  9
$XCLIPFRAME
280
     2
  9
$HALOGAP
280
     0
  9
$OBSCOLOR
 70
   257
  9
$OBSLTYPE
280
     0
  9
$INTERSECTIONDISPLAY
280
     0
  9
$INTERSECTIONCOLOR
 70
   257
  9
$DIMASSOC
280
     2
  9
$PROJECTNAME
  1

  9
$CAMERADISPLAY
290
     0
  9
$LENSLENGTH
 40
50.0
  9
$CAMERAHEIGHT
 40
0.0
  9
$STEPSPERSEC
 40
2.0
  9
$STEPSIZE
 40
6.0
  9
$3DDWFPREC
 40
2.0
  9
$PSOLWIDTH
 40
0.25
  9
$PSOLHEIGHT
 40
4.0
  9
$LOFTANG1
 40
1.570796326794896
  9
$LOFTANG2
 40
1.570796326794896
  9
$LOFTMAG1
 40
0.0
  9
$LOFTMAG2
 40
0.0
  9
$LOFTPARAM
 70
     7
  9
$LOFTNORMALS
280
     1
  9
$LATITUDE
 40
37.795
  9
$LONGITUDE
 40
-122.394
  9
$NORTHDIRECTION
 40
0.0
  9
$TIMEZONE
 70
 -8000
  9
$LIGHTGLYPHDISPLAY
280
     1
  9
$TILEMODELIGHTSYNCH
280
     1
  9
$CMATERIAL
347
11
  9
$SOLIDHIST
280
     0
  9
$SHOWHIST
280
     1
  9
$DWFFRAME
280
     2
  9
$DGNFRAME
280
     0
  9
$REALWORLDSCALE
290
     1
  9
$INTERFERECOLOR
 62
     1
  9
$INTERFEREOBJVS
345
33
  9
$INTERFEREVPVS
346
30
  9
$CSHADOW
280
     0
  9
$SHADOWPLANELOCATION
 40
0.0
  0
ENDSEC
  0
SECTION
  2
CLASSES
  0
CLASS
  1
ACDBDICTIONARYWDFLT
  2
AcDbDictionaryWithDefault
  3
ObjectDBX Classes
 90
        0
 91
        1
280
     0
281
     0
  0
CLASS
  1
MATERIAL
  2
AcDbMaterial
  3
ObjectDBX Classes
 90
     1153
 91
        3
280
     0
281
     0
  0
CLASS
  1
VISUALSTYLE
  2
AcDbVisualStyle
  3
ObjectDBX Classes
 90
     4095
 91
       24
280
     0
281
     0
  0
CLASS
  1
SCALE
  2
AcDbScale
  3
ObjectDBX Classes
 90
     1153
 91
       17
280
     0
281
     0
  0
CLASS
  1
TABLESTYLE
  2
AcDbTableStyle
  3
ObjectDBX Classes
 90
     4095
 91
        1
280
     0
281
     0
  0
CLASS
  1
MLEADERSTYLE
  2
AcDbMLeaderStyle
  3
ACDB_MLEADERSTYLE_CLASS
 90
     4095
 91
        1
280
     0
281
     0
  0
CLASS
  1
ACDBSECTIONVIEWSTYLE
  2
AcDbSectionViewStyle
  3
ObjectDBX Classes
 90
     1025
 91
        1
280
     0
281
     0
  0
CLASS
  1
ACDBDETAILVIEWSTYLE
  2
AcDbDetailViewStyle
  3
ObjectDBX Classes
 90
     1025
 91
        1
280
     0
281
     0
  0
CLASS
  1
DICTIONARYVAR
  2
AcDbDictionaryVar
  3
ObjectDBX Classes
 90
        0
 91
        5
280
     0
281
     0
  0
CLASS
  1
CELLSTYLEMAP
  2
AcDbCellStyleMap
  3
ObjectDBX Classes
 90
     1152
 91
        1
280
     0
281
     0
  0
ENDSEC
  0
SECTION
  2
TABLES
  0
TABLE
  2
VPORT
  5
8
330
0
100
AcDbSymbolTable
 70
     1
  0
VPORT
  5
57
330
8
100
AcDbSymbolTableRecord
100
AcDbViewportTableRecord
  2
*Active
 70
     0
 10
0.0
 20
0.0
 11
1.0
 21
1.0
 12
0.0
 22
0.0
 13
0.0
 23
0.0
 14
1.0
 24
1.0
 15
0.0
 25
0.0
 16
0.0
 26
0.0
 36
1.0
 17
2070.329143804109
 27
-1549.708560332395
 37
0.0
 40
3099.36839297975
 41
1.304893925962813
 42
50.0
 43
0.0
 44
0.0
 50
0.0
 51
0.0
 71
     0
 72
   100
 73
     1
 74
     1
 75
     0
 76
     0
 77
     0
 78
     0
281
     0
 65
     1
110
0.0
120
0.0
130
0.0
111
1.0
121
0.0
131
0.0
112
0.0
122
1.0
132
0.0
 79
     0
146
0.0
 60
     3
 61
     5
292
     1
282
     1
141
0.0
142
0.0
 63
   250
421
  3355443
  0
ENDTAB
  0
TABLE
  2
LTYPE
  5
5
330
0
100
AcDbSymbolTable
 70
     1
  0
LTYPE
  5
5B
330
5
100
AcDbSymbolTableRecord
100
AcDbLinetypeTableRecord
  2
ByBlock
 70
     0
  3

 72
    65
 73
     0
 40
0.0
  0
LTYPE
  5
5C
330
5
100
AcDbSymbolTableRecord
100
AcDbLinetypeTableRecord
  2
ByLayer
 70
     0
  3

 72
    65
 73
     0
 40
0.0
  0
LTYPE
  5
5D
330
5
100
AcDbSymbolTableRecord
100
AcDbLinetypeTableRecord
  2
Continuous
 70
     0
  3
Solid line
 72
    65
 73
     0
 40
0.0
  0
ENDTAB
  0
TABLE
  2
LAYER
  5
2
330
0
100
AcDbSymbolTable
 70
     2
  0
LAYER
  5
54
330
2
100
AcDbSymbolTableRecord
100
AcDbLayerTableRecord
  2
0
 70
     0
 62
     7
  6
Continuous
370
    -3
390
F
347
21
348
0
  0
LAYER
  5
78
330
2
100
AcDbSymbolTableRecord
100
AcDbLayerTableRecord
  2
Layer 1
 70
     0
 62
     7
  6
Continuous
370
     0
390
F
347
21
348
0
  0
ENDTAB
  0
TABLE
  2
STYLE
  5
3
330
0
100
AcDbSymbolTable
 70
     2
  0
STYLE
  5
55
330
3
100
AcDbSymbolTableRecord
100
AcDbTextStyleTableRecord
  2
Standard
 70
     0
 40
0.0
 41
1.0
 50
0.0
 71
     0
 42
0.2
  3
txt
  4

  0
STYLE
  5
5A
330
3
100
AcDbSymbolTableRecord
100
AcDbTextStyleTableRecord
  2
Annotative
 70
     0
 40
0.0
 41
1.0
 50
0.0
 71
     0
 42
0.2
  3
txt
  4

1001
AcadAnnotative
1000
AnnotativeData
1002
{
1070
     1
1070
     1
1002
}
  0
ENDTAB
  0
TABLE
  2
VIEW
  5
6
330
0
100
AcDbSymbolTable
 70
     0
  0
ENDTAB
  0
TABLE
  2
UCS
  5
7
330
0
100
AcDbSymbolTable
 70
     0
  0
ENDTAB
  0
TABLE
  2
APPID
  5
9
330
0
100
AcDbSymbolTable
 70
     2
  0
APPID
  5
56
330
9
100
AcDbSymbolTableRecord
100
AcDbRegAppTableRecord
  2
ACAD
 70
     0
  0
APPID
  5
5E
330
9
100
AcDbSymbolTableRecord
100
AcDbRegAppTableRecord
  2
AcadAnnotative
 70
     0
  0
ENDTAB
  0
TABLE
  2
DIMSTYLE
  5
A
330
0
100
AcDbSymbolTable
 70
     2
100
AcDbDimStyleTable
 71
     0
  0
DIMSTYLE
105
58
330
A
100
AcDbSymbolTableRecord
100
AcDbDimStyleTableRecord
  2
Standard
 70
     0
340
55
  0
DIMSTYLE
105
59
330
A
100
AcDbSymbolTableRecord
100
AcDbDimStyleTableRecord
  2
Annotative
 70
     0
340
55
1001
AcadAnnotative
1000
AnnotativeData
1002
{
1070
     1
1070
     1
1002
}
  0
ENDTAB
  0
TABLE
  2
BLOCK_RECORD
  5
1
330
0
100
AcDbSymbolTable
 70
     1
  0
BLOCK_RECORD
  5
70
330
1
100
AcDbSymbolTableRecord
100
AcDbBlockTableRecord
  2
*Model_Space
340
73
 70
     0
280
     1
281
     0
  0
BLOCK_RECORD
  5
6C
330
1
100
AcDbSymbolTableRecord
100
AcDbBlockTableRecord
  2
*Paper_Space
340
6F
 70
     0
280
     1
281
     0
  0
BLOCK_RECORD
  5
74
330
1
100
AcDbSymbolTableRecord
100
AcDbBlockTableRecord
  2
*Paper_Space0
340
77
 70
     0
280
     1
281
     0
  0
ENDTAB
  0
ENDSEC
  0
SECTION
  2
BLOCKS
  0
BLOCK
  5
71
330
70
100
AcDbEntity
  8
0
100
AcDbBlockBegin
  2
*Model_Space
 70
     0
 10
0.0
 20
0.0
 30
0.0
  3
*Model_Space
  1

  0
ENDBLK
  5
72
330
70
100
AcDbEntity
  8
0
100
AcDbBlockEnd
  0
BLOCK
  5
6D
330
6C
100
AcDbEntity
 67
     1
  8
0
100
AcDbBlockBegin
  2
*Paper_Space
 70
     0
 10
0.0
 20
0.0
 30
0.0
  3
*Paper_Space
  1

  0
ENDBLK
  5
6E
330
6C
100
AcDbEntity
 67
     1
  8
0
100
AcDbBlockEnd
  0
BLOCK
  5
75
330
74
100
AcDbEntity
 67
     1
  8
0
100
AcDbBlockBegin
  2
*Paper_Space0
 70
     0
 10
0.0
 20
0.0
 30
0.0
  3
*Paper_Space0
  1

  0
ENDBLK
  5
76
330
74
100
AcDbEntity
 67
     1
  8
0
100
AcDbBlockEnd
  0
ENDSEC
  0
SECTION
  2
ENTITIES
  0
SPLINE
  5
79
330
70
100
AcDbEntity
  8
Layer 1
100
AcDbSpline
210
0.0
220
0.0
230
1.0
 70
     9
 71
     3
 72
    53
 73
    49
 74
     0
 42
0.0000000001
 43
0.0000000001
 40
0.0
 40
0.0
 40
0.0
 40
0.0
 40
1.0
 40
1.0
 40
1.0
 40
2.0
 40
2.0
 40
2.0
 40
3.0
 40
3.0
 40
3.0
 40
4.0
 40
4.0
 40
4.0
 40
5.0
 40
5.0
 40
5.0
 40
6.0
 40
6.0
 40
6.0
 40
7.0
 40
7.0
 40
7.0
 40
8.0
 40
8.0
 40
8.0
 40
9.0
 40
9.0
 40
9.0
 40
10.0
 40
10.0
 40
10.0
 40
11.0
 40
11.0
 40
11.0
 40
12.0
 40
12.0
 40
12.0
 40
13.0
 40
13.0
 40
13.0
 40
14.0
 40
14.0
 40
14.0
 40
15.0
 40
15.0
 40
15.0
 40
16.0
 40
16.0
 40
16.0
 40
16.0
 10
395.0430511291761
 20
-2325.938800692884
 30
0.0
 10
395.0430511291761
 20
-2325.938800692884
 30
0.0
 10
394.9947247535401
 20
-2325.938800692884
 30
0.0
 10
394.9947247535401
 20
-2325.938800692884
 30
0.0
 10
394.9947247535401
 20
-2384.886984767367
 30
0.0
 10
394.9878089371323
 20
-2443.835168841848
 30
0.0
 10
395.0016405699516
 20
-2502.790226563124
 30
0.0
 10
395.0016405699516
 20
-2507.764764871659
 30
0.0
 10
394.7114292984788
 20
-2512.67714517174
 30
0.0
 10
392.9565830544943
 20
-2517.409840754044
 30
0.0
 10
388.1892240509242
 20
-2530.267608545349
 30
0.0
 10
375.8566366105242
 20
-2538.648312943784
 30
0.0
 10
361.5340651682618
 20
-2538.648312943784
 30
0.0
 10
284.8503120844307
 20
-2538.641397127376
 30
0.0
 10
208.1665590006032
 20
-2538.62760766417
 30
0.0
 10
131.4897217331836
 20
-2538.613776031354
 30
0.0
 10
128.9540629488674
 20
-2538.613776031354
 30
0.0
 10
126.4184885037739
 20
-2538.675934039806
 30
0.0
 10
123.8897455358619
 20
-2538.586154935333
 30
0.0
 10
105.8432599754287
 20
-2537.943574383939
 30
0.0
 10
92.26692199146237
 20
-2524.415647114827
 30
0.0
 10
91.54843613802404
 20
-2506.389866834008
 30
0.0
 10
91.51385705598476
 20
-2505.470948813567
 30
0.0
 10
91.52768868880048
 20
-2504.552072962739
 30
0.0
 10
91.52768868880048
 20
-2503.62623912589
 30
0.0
 10
91.52768868880048
 20
-2385.149532773208
 30
0.0
 10
91.54843613802404
 20
-2266.672784250908
 30
0.0
 10
91.49310960675757
 20
-2148.196077898223
 30
0.0
 10
91.49310960675757
 20
-2138.537212552632
 30
0.0
 10
94.09092639952541
 20
-2130.05977106371
 30
0.0
 10
101.0414905682682
 20
-2123.123038527783
 30
0.0
 10
107.9505598385603
 20
-2116.241632523126
 30
0.0
 10
116.2897693385439
 20
-2113.187877882761
 30
0.0
 10
125.9900452433594
 20
-2113.194793699169
 30
0.0
 10
182.520097242852
 20
-2113.249951551987
 30
0.0
 10
239.0570650587488
 20
-2113.222372625578
 30
0.0
 10
295.5869483797924
 20
-2113.222372625578
 30
0.0
 10
317.6959700447278
 20
-2113.222372625578
 30
0.0
 10
339.8049917096596
 20
-2113.132551351495
 30
0.0
 10
361.9071818974098
 20
-2113.256867368395
 30
0.0
 10
378.3299687079434
 20
-2113.3467729817
 30
0.0
 10
391.3259684881905
 20
-2124.083493616288
 30
0.0
 10
394.4143022105945
 20
-2139.794710389791
 30
0.0
 10
395.2434411265658
 20
-2144.002225621191
 30
0.0
 10
395.0293038355831
 20
-2148.278983355898
 30
0.0
 10
395.0361353127683
 20
-2152.534993641382
 30
0.0
 10
395.0430511291761
 20
-2210.336206432401
 30
0.0
 10
395.0430511291761
 20
-2268.137587901865
 30
0.0
 10
395.0430511291761
 20
-2325.938800692884
 30
0.0
  0
SPLINE
  5
7A
330
70
100
AcDbEntity
  8
Layer 1
100
AcDbSpline
210
0.0
220
0.0
230
1.0
 70
     9
 71
     3
 72
    53
 73
    49
 74
     0
 42
0.0000000001
 43
0.0000000001
 40
0.0
 40
0.0
 40
0.0
 40
0.0
 40
1.0
 40
1.0
 40
1.0
 40
2.0
 40
2.0
 40
2.0
 40
3.0
 40
3.0
 40
3.0
 40
4.0
 40
4.0
 40
4.0
 40
5.0
 40
5.0
 40
5.0
 40
6.0
 40
6.0
 40
6.0
 40
7.0
 40
7.0
 40
7.0
 40
8.0
 40
8.0
 40
8.0
 40
9.0
 40
9.0
 40
9.0
 40
10.0
 40
10.0
 40
10.0
 40
11.0
 40
11.0
 40
11.0
 40
12.0
 40
12.0
 40
12.0
 40
13.0
 40
13.0
 40
13.0
 40
14.0
 40
14.0
 40
14.0
 40
15.0
 40
15.0
 40
15.0
 40
16.0
 40
16.0
 40
16.0
 40
16.0
 10
397.4543095573699
 20
-2377.390619307333
 30
0.0
 10
397.4543095573699
 20
-2300.13344383619
 30
0.0
 10
397.4750570065935
 20
-2222.86935254864
 30
0.0
 10
397.4612253737778
 20
-2145.612092738275
 30
0.0
 10
397.4612253737778
 20
-2135.379720666146
 30
0.0
 10
393.5368369189946
 20
-2126.833289691587
 30
0.0
 10
386.0543452613874
 20
-2119.889641339252
 30
0.0
 10
378.9242228837047
 20
-2113.27069900121
 30
0.0
 10
370.3500443042922
 20
-2110.617640016402
 30
0.0
 10
360.7740844163727
 20
-2110.638387465626
 30
0.0
 10
340.8551837330179
 20
-2110.672882208442
 30
0.0
 10
320.9363673888893
 20
-2110.672882208442
 30
0.0
 10
301.0175510447607
 20
-2110.672882208442
 30
0.0
 10
242.4078624477715
 20
-2110.665966392035
 30
0.0
 10
183.7982581900087
 20
-2110.652219098442
 30
0.0
 10
125.1886539322458
 20
-2110.645303282034
 30
0.0
 10
113.9337531023902
 20
-2110.645303282034
 30
0.0
 10
104.62725703672
 20
-2114.94963994315
 30
0.0
 10
97.25524976320048
 20
-2123.440828725665
 30
0.0
 10
91.03025594275278
 20
-2130.605614524613
 30
0.0
 10
88.96436663884925
 20
-2139.055392747903
 30
0.0
 10
88.97819827166495
 20
-2148.375720446389
 30
0.0
 10
89.06110372934017
 20
-2207.448262707383
 30
0.0
 10
89.01960883088941
 20
-2266.513889151969
 30
0.0
 10
89.01960883088941
 20
-2325.579515596551
 30
0.0
 10
89.01960883088941
 20
-2374.861918509034
 30
0.0
 10
89.00577719807371
 20
-2424.144321421518
 30
0.0
 10
89.02652464729726
 20
-2473.426682164387
 30
0.0
 10
89.02652464729726
 20
-2485.04774173737
 30
0.0
 10
88.96436663884925
 20
-2496.675717126764
 30
0.0
 10
89.19925137905556
 20
-2508.296776699746
 30
0.0
 10
89.36506229440601
 20
-2516.449470004769
 30
0.0
 10
92.69528091265057
 20
-2523.434528916325
 30
0.0
 10
98.16720979761704
 20
-2529.438511798995
 30
0.0
 10
106.1817976225375
 20
-2538.226869839004
 30
0.0
 10
116.3035166321333
 20
-2541.25304555296
 30
0.0
 10
127.959197456772
 20
-2541.232298103736
 30
0.0
 10
200.3800244387112
 20
-2541.114855733631
 30
0.0
 10
272.8077672370546
 20
-2541.204677007714
 30
0.0
 10
345.2286785582164
 20
-2541.135561013245
 30
0.0
 10
353.1602765862353
 20
-2541.121771550039
 30
0.0
 10
361.1610327783365
 20
-2541.9646577596
 30
0.0
 10
369.0234726422732
 20
-2540.506854264277
 30
0.0
 10
385.9368607216729
 20
-2537.356320363808
 30
0.0
 10
397.4543095573699
 20
-2523.013085811545
 30
0.0
 10
397.4681411901856
 20
-2505.201527160931
 30
0.0
 10
397.5026359330022
 20
-2462.600182425329
 30
0.0
 10
397.4543095573699
 20
-2419.998879859341
 30
0.0
 10
397.4543095573699
 20
-2377.390619307333
 30
0.0
  0
HATCH
  5
7B
330
70
100
AcDbEntity
  8
Layer 1
 62
    18
420
        0
440
 33554687
100
AcDbHatch
 10
0.0
 20
0.0
 30
0.0
210
0.0
220
0.0
230
1.0
  2
SOLID
 70
     1
 71
     1
 91
        2
 92
        1
 93
        1
 72
     4
 94
        3
 73
     0
 74
     0
 95
       53
 96
       49
 40
0.0
 40
0.0
 40
0.0
 40
0.0
 40
1.0
 40
1.0
 40
1.0
 40
2.0
 40
2.0
 40
2.0
 40
3.0
 40
3.0
 40
3.0
 40
4.0
 40
4.0
 40
4.0
 40
5.0
 40
5.0
 40
5.0
 40
6.0
 40
6.0
 40
6.0
 40
7.0
 40
7.0
 40
7.0
 40
8.0
 40
8.0
 40
8.0
 40
9.0
 40
9.0
 40
9.0
 40
10.0
 40
10.0
 40
10.0
 40
11.0
 40
11.0
 40
11.0
 40
12.0
 40
12.0
 40
12.0
 40
13.0
 40
13.0
 40
13.0
 40
14.0
 40
14.0
 40
14.0
 40
15.0
 40
15.0
 40
15.0
 40
16.0
 40
16.0
 40
16.0
 40
16.0
 10
395.0430511291761
 20
-2325.938800692884
 10
395.0430511291761
 20
-2325.938800692884
 10
394.9947247535401
 20
-2325.938800692884
 10
394.9947247535401
 20
-2325.938800692884
 10
394.9947247535401
 20
-2384.886984767367
 10
394.9878089371323
 20
-2443.835168841848
 10
395.0016405699516
 20
-2502.790226563124
 10
395.0016405699516
 20
-2507.764764871659
 10
394.7114292984788
 20
-2512.67714517174
 10
392.9565830544943
 20
-2517.409840754044
 10
388.1892240509242
 20
-2530.267608545349
 10
375.8566366105242
 20
-2538.648312943784
 10
361.5340651682618
 20
-2538.648312943784
 10
284.8503120844307
 20
-2538.641397127376
 10
208.1665590006032
 20
-2538.62760766417
 10
131.4897217331836
 20
-2538.613776031354
 10
128.9540629488674
 20
-2538.613776031354
 10
126.4184885037739
 20
-2538.675934039806
 10
123.8897455358619
 20
-2538.586154935333
 10
105.8432599754287
 20
-2537.943574383939
 10
92.26692199146237
 20
-2524.415647114827
 10
91.54843613802404
 20
-2506.389866834008
 10
91.51385705598476
 20
-2505.470948813567
 10
91.52768868880048
 20
-2504.552072962739
 10
91.52768868880048
 20
-2503.62623912589
 10
91.52768868880048
 20
-2385.149532773208
 10
91.54843613802404
 20
-2266.672784250908
 10
91.49310960675757
 20
-2148.196077898223
 10
91.49310960675757
 20
-2138.537212552632
 10
94.09092639952541
 20
-2130.05977106371
 10
101.0414905682682
 20
-2123.123038527783
 10
107.9505598385603
 20
-2116.241632523126
 10
116.2897693385439
 20
-2113.187877882761
 10
125.9900452433594
 20
-2113.194793699169
 10
182.520097242852
 20
-2113.249951551987
 10
239.0570650587488
 20
-2113.222372625578
 10
295.5869483797924
 20
-2113.222372625578
 10
317.6959700447278
 20
-2113.222372625578
 10
339.8049917096596
 20
-2113.132551351495
 10
361.9071818974098
 20
-2113.256867368395
 10
378.3299687079434
 20
-2113.3467729817
 10
391.3259684881905
 20
-2124.083493616288
 10
394.4143022105945
 20
-2139.794710389791
 10
395.2434411265658
 20
-2144.002225621191
 10
395.0293038355831
 20
-2148.278983355898
 10
395.0361353127683
 20
-2152.534993641382
 10
395.0430511291761
 20
-2210.336206432401
 10
395.0430511291761
 20
-2268.137587901865
 10
395.0430511291761
 20
-2325.938800692884
 97
        0
 97
        1
330
79
 92
        1
 93
        1
 72
     4
 94
        3
 73
     0
 74
     0
 95
       53
 96
       49
 40
0.0
 40
0.0
 40
0.0
 40
0.0
 40
1.0
 40
1.0
 40
1.0
 40
2.0
 40
2.0
 40
2.0
 40
3.0
 40
3.0
 40
3.0
 40
4.0
 40
4.0
 40
4.0
 40
5.0
 40
5.0
 40
5.0
 40
6.0
 40
6.0
 40
6.0
 40
7.0
 40
7.0
 40
7.0
 40
8.0
 40
8.0
 40
8.0
 40
9.0
 40
9.0
 40
9.0
 40
10.0
 40
10.0
 40
10.0
 40
11.0
 40
11.0
 40
11.0
 40
12.0
 40
12.0
 40
12.0
 40
13.0
 40
13.0
 40
13.0
 40
14.0
 40
14.0
 40
14.0
 40
15.0
 40
15.0
 40
15.0
 40
16.0
 40
16.0
 40
16.0
 40
16.0
 10
397.4543095573699
 20
-2377.390619307333
 10
397.4543095573699
 20
-2300.13344383619
 10
397.4750570065935
 20
-2222.86935254864
 10
397.4612253737778
 20
-2145.612092738275
 10
397.4612253737778
 20
-2135.379720666146
 10
393.5368369189946
 20
-2126.833289691587
 10
386.0543452613874
 20
-2119.889641339252
 10
378.9242228837047
 20
-2113.27069900121
 10
370.3500443042922
 20
-2110.617640016402
 10
360.7740844163727
 20
-2110.638387465626
 10
340.8551837330179
 20
-2110.672882208442
 10
320.9363673888893
 20
-2110.672882208442
 10
301.0175510447607
 20
-2110.672882208442
 10
242.4078624477715
 20
-2110.665966392035
 10
183.7982581900087
 20
-2110.652219098442
 10
125.1886539322458
 20
-2110.645303282034
 10
113.9337531023902
 20
-2110.645303282034
 10
104.62725703672
 20
-2114.94963994315
 10
97.25524976320048
 20
-2123.440828725665
 10
91.03025594275278
 20
-2130.605614524613
 10
88.96436663884925
 20
-2139.055392747903
 10
88.97819827166495
 20
-2148.375720446389
 10
89.06110372934017
 20
-2207.448262707383
 10
89.01960883088941
 20
-2266.513889151969
 10
89.01960883088941
 20
-2325.579515596551
 10
89.01960883088941
 20
-2374.861918509034
 10
89.00577719807371
 20
-2424.144321421518
 10
89.02652464729726
 20
-2473.426682164387
 10
89.02652464729726
 20
-2485.04774173737
 10
88.96436663884925
 20
-2496.675717126764
 10
89.19925137905556
 20
-2508.296776699746
 10
89.36506229440601
 20
-2516.449470004769
 10
92.69528091265057
 20
-2523.434528916325
 10
98.16720979761704
 20
-2529.438511798995
 10
106.1817976225375
 20
-2538.226869839004
 10
116.3035166321333
 20
-2541.25304555296
 10
127.959197456772
 20
-2541.232298103736
 10
200.3800244387112
 20
-2541.114855733631
 10
272.8077672370546
 20
-2541.204677007714
 10
345.2286785582164
 20
-2541.135561013245
 10
353.1602765862353
 20
-2541.121771550039
 10
361.1610327783365
 20
-2541.9646577596
 10
369.0234726422732
 20
-2540.506854264277
 10
385.9368607216729
 20
-2537.356320363808
 10
397.4543095573699
 20
-2523.013085811545
 10
397.4681411901856
 20
-2505.201527160931
 10
397.5026359330022
 20
-2462.600182425329
 10
397.4543095573699
 20
-2419.998879859341
 10
397.4543095573699
 20
-2377.390619307333
 97
        0
 97
        1
330
7A
 75
     2
 76
     1
 98
        1
 10
0.0
 20
0.0
450
        0
451
        0
460
0.0
461
0.0
452
        0
462
0.0
453
        0
470

  0
SPLINE
  5
7C
330
70
100
AcDbEntity
  8
Layer 1
100
AcDbSpline
210
0.0
220
0.0
230
1.0
 70
     9
 71
     3
 72
    53
 73
    49
 74
     0
 42
0.0000000001
 43
0.0000000001
 40
0.0
 40
0.0
 40
0.0
 40
0.0
 40
1.0
 40
1.0
 40
1.0
 40
2.0
 40
2.0
 40
2.0
 40
3.0
 40
3.0
 40
3.0
 40
4.0
 40
4.0
 40
4.0
 40
5.0
 40
5.0
 40
5.0
 40
6.0
 40
6.0
 40
6.0
 40
7.0
 40
7.0
 40
7.0
 40
8.0
 40
8.0
 40
8.0
 40
9.0
 40
9.0
 40
9.0
 40
10.0
 40
10.0
 40
10.0
 40
11.0
 40
11.0
 40
11.0
 40
12.0
 40
12.0
 40
12.0
 40
13.0
 40
13.0
 40
13.0
 40
14.0
 40
14.0
 40
14.0
 40
15.0
 40
15.0
 40
15.0
 40
16.0
 40
16.0
 40
16.0
 40
16.0
 10
395.0430511291761
 20
-2325.938800692884
 30
0.0
 10
395.0430511291761
 20
-2325.938800692884
 30
0.0
 10
394.9947247535401
 20
-2325.938800692884
 30
0.0
 10
394.9947247535401
 20
-2325.938800692884
 30
0.0
 10
394.9947247535401
 20
-2384.886984767367
 30
0.0
 10
394.9878089371323
 20
-2443.835168841848
 30
0.0
 10
395.0016405699516
 20
-2502.790226563124
 30
0.0
 10
395.0016405699516
 20
-2507.764764871659
 30
0.0
 10
394.7114292984788
 20
-2512.67714517174
 30
0.0
 10
392.9565830544943
 20
-2517.409840754044
 30
0.0
 10
388.1892240509242
 20
-2530.267608545349
 30
0.0
 10
375.8566366105242
 20
-2538.648312943784
 30
0.0
 10
361.5340651682618
 20
-2538.648312943784
 30
0.0
 10
284.8503120844307
 20
-2538.641397127376
 30
0.0
 10
208.1665590006032
 20
-2538.62760766417
 30
0.0
 10
131.4897217331836
 20
-2538.613776031354
 30
0.0
 10
128.9540629488674
 20
-2538.613776031354
 30
0.0
 10
126.4184885037739
 20
-2538.675934039806
 30
0.0
 10
123.8897455358619
 20
-2538.586154935333
 30
0.0
 10
105.8432599754287
 20
-2537.943574383939
 30
0.0
 10
92.26692199146237
 20
-2524.415647114827
 30
0.0
 10
91.54843613802404
 20
-2506.389866834008
 30
0.0
 10
91.51385705598476
 20
-2505.470948813567
 30
0.0
 10
91.52768868880048
 20
-2504.552072962739
 30
0.0
 10
91.52768868880048
 20
-2503.62623912589
 30
0.0
 10
91.52768868880048
 20
-2385.149532773208
 30
0.0
 10
91.54843613802404
 20
-2266.672784250908
 30
0.0
 10
91.49310960675757
 20
-2148.196077898223
 30
0.0
 10
91.49310960675757
 20
-2138.537212552632
 30
0.0
 10
94.09092639952541
 20
-2130.05977106371
 30
0.0
 10
101.0414905682682
 20
-2123.123038527783
 30
0.0
 10
107.9505598385603
 20
-2116.241632523126
 30
0.0
 10
116.2897693385439
 20
-2113.187877882761
 30
0.0
 10
125.9900452433594
 20
-2113.194793699169
 30
0.0
 10
182.520097242852
 20
-2113.249951551987
 30
0.0
 10
239.0570650587488
 20
-2113.222372625578
 30
0.0
 10
295.5869483797924
 20
-2113.222372625578
 30
0.0
 10
317.6959700447278
 20
-2113.222372625578
 30
0.0
 10
339.8049917096596
 20
-2113.132551351495
 30
0.0
 10
361.9071818974098
 20
-2113.256867368395
 30
0.0
 10
378.3299687079434
 20
-2113.3467729817
 30
0.0
 10
391.3259684881905
 20
-2124.083493616288
 30
0.0
 10
394.4143022105945
 20
-2139.794710389791
 30
0.0
 10
395.2434411265658
 20
-2144.002225621191
 30
0.0
 10
395.0293038355831
 20
-2148.278983355898
 30
0.0
 10
395.0361353127683
 20
-2152.534993641382
 30
0.0
 10
395.0430511291761
 20
-2210.336206432401
 30
0.0
 10
395.0430511291761
 20
-2268.137587901865
 30
0.0
 10
395.0430511291761
 20
-2325.938800692884
 30
0.0
  0
LWPOLYLINE
  5
7D
330
70
100
AcDbEntity
  8
Layer 1
100
AcDbPolyline
 90
       10
 70
     1
 43
0.0
 10
158.6074835399467
 20
-2138.372315849158
 10
158.6074835399467
 20
-2130.772785067884
 10
120.8176355878331
 20
-2130.772785067884
 10
120.8176355878331
 20
-2200.938800692884
 10
129.8747575527577
 20
-2200.938800692884
 10
129.8747575527577
 20
-2169.187123429625
 10
156.421096764474
 20
-2169.187123429625
 10
156.421096764474
 20
-2161.691629693834
 10
129.8747575527577
 20
-2161.691629693834
 10
129.8747575527577
 20
-2138.372315849158
  0
HATCH
  5
7E
330
70
100
AcDbEntity
  8
Layer 1
 62
   246
420
  8590872
440
 33554687
100
AcDbHatch
 10
0.0
 20
0.0
 30
0.0
210
0.0
220
0.0
230
1.0
  2
SOLID
 70
     1
 71
     1
 91
        1
 92
        1
 93
       10
 72
     1
 10
158.6074835399467
 20
-2138.372315849158
 11
158.6074835399467
 21
-2130.772785067884
 72
     1
 10
158.6074835399467
 20
-2130.772785067884
 11
120.8176355878331
 21
-2130.772785067884
 72
     1
 10
120.8176355878331
 20
-2130.772785067884
 11
120.8176355878331
 21
-2200.938800692884
 72
     1
 10
120.8176355878331
 20
-2200.938800692884
 11
129.8747575527577
 21
-2200.938800692884
 72
     1
 10
129.8747575527577
 20
-2200.938800692884
 11
129.8747575527577
 21
-2169.187123429625
 72
     1
 10
129.8747575527577
 20
-2169.187123429625
 11
156.421096764474
 21
-2169.187123429625
 72
     1
 10
156.421096764474
 20
-2169.187123429625
 11
156.421096764474
 21
-2161.691629693834
 72
     1
 10
156.421096764474
 20
-2161.691629693834
 11
129.8747575527577
 21
-2161.691629693834
 72
     1
 10
129.8747575527577
 20
-2161.691629693834
 11
129.8747575527577
 21
-2138.372315849158
 72
     1
 10
129.8747575527577
 20
-2138.372315849158
 11
158.6074835399467
 21
-2138.372315849158
 97
        1
330
7D
 75
     2
 76
     1
 98
        1
 10
0.0
 20
0.0
450
        0
451
        0
460
0.0
461
0.0
452
        0
462
0.0
453
        0
470

  0
SPLINE
  5
7F
330
70
100
AcDbEntity
  8
Layer 1
100
AcDbSpline
210
0.0
220
0.0
230
1.0
 70
     9
 71
     3
 72
    26
 73
    22
 74
     0
 42
0.0000000001
 43
0.0000000001
 40
0.0
 40
0.0
 40
0.0
 40
0.0
 40
1.0
 40
1.0
 40
1.0
 40
2.0
 40
2.0
 40
2.0
 40
3.0
 40
3.0
 40
3.0
 40
4.0
 40
4.0
 40
4.0
 40
5.0
 40
5.0
 40
5.0
 40
6.0
 40
6.0
 40
6.0
 40
7.0
 40
7.0
 40
7.0
 40
7.0
 10
174.9054799950227
 20
-2468.765376122523
 30
0.0
 10
179.6328398574169
 20
-2469.259598326644
 30
0.0
 10
183.1910761394119
 20
-2467.241216179577
 30
0.0
 10
186.1177276965991
 20
-2464.270225547978
 30
0.0
 10
191.9958416074205
 20
-2458.303024519166
 30
0.0
 10
197.034682615531
 20
-2451.650953490498
 30
0.0
 10
200.9374157836919
 20
-2444.212298420796
 30
0.0
 10
202.2250978230531
 20
-2441.757938095874
 30
0.0
 10
203.3918187095714
 20
-2439.158427795613
 30
0.0
 10
203.4315313202224
 20
-2436.312837336413
 30
0.0
 10
203.4900394724082
 20
-2432.120630676112
 30
0.0
 10
200.5871336877735
 20
-2429.59362720199
 30
0.0
 10
197.1639935556359
 20
-2431.150606921001
 30
0.0
 10
181.9430385491705
 20
-2438.07367114734
 30
0.0
 10
167.1521018468975
 20
-2445.780848559302
 30
0.0
 10
153.6620364397877
 20
-2455.789704471929
 30
0.0
 10
150.7297445161002
 20
-2457.965318225292
 30
0.0
 10
151.4651733298578
 20
-2459.437334598795
 30
0.0
 10
153.9975573046486
 20
-2461.237412409861
 30
0.0
 10
160.3624339922917
 20
-2465.761667957155
 30
0.0
 10
167.3174105943453
 20
-2468.515359635305
 30
0.0
 10
174.9054799950227
 20
-2468.765376122523
 30
0.0
  0
SPLINE
  5
80
330
70
100
AcDbEntity
  8
Layer 1
100
AcDbSpline
210
0.0
220
0.0
230
1.0
 70
     9
 71
     3
 72
    38
 73
    34
 74
     0
 42
0.0000000001
 43
0.0000000001
 40
0.0
 40
0.0
 40
0.0
 40
0.0
 40
1.0
 40
1.0
 40
1.0
 40
2.0
 40
2.0
 40
2.0
 40
3.0
 40
3.0
 40
3.0
 40
4.0
 40
4.0
 40
4.0
 40
5.0
 40
5.0
 40
5.0
 40
6.0
 40
6.0
 40
6.0
 40
7.0
 40
7.0
 40
7.0
 40
8.0
 40
8.0
 40
8.0
 40
9.0
 40
9.0
 40
9.0
 40
10.0
 40
10.0
 40
10.0
 40
11.0
 40
11.0
 40
11.0
 40
11.0
 10
229.5018676101154
 20
-2403.343497839808
 30
0.0
 10
231.1510187562908
 20
-2398.219540122751
 30
0.0
 10
232.5409260483011
 20
-2393.686696222841
 30
0.0
 10
234.0748501302314
 20
-2389.203116067787
 30
0.0
 10
235.3012549553041
 20
-2385.618364951137
 30
0.0
 10
235.0020684453284
 20
-2383.92666397068
 30
0.0
 10
230.4842286019211
 20
-2385.080792014774
 30
0.0
 10
224.0891180162089
 20
-2386.714487534318
 30
0.0
 10
218.186448914681
 20
-2389.255191475706
 30
0.0
 10
212.8683756841183
 20
-2393.13283268112
 30
0.0
 10
206.0929578491032
 20
-2398.073112118749
 30
0.0
 10
206.0091873303481
 20
-2400.381231883879
 30
0.0
 10
212.6237439576635
 20
-2405.830626819647
 30
0.0
 10
215.4800613374409
 20
-2408.183784314854
 30
0.0
 10
218.3599796465223
 20
-2410.244034680916
 30
0.0
 10
220.0204882074158
 20
-2413.866956253631
 30
0.0
 10
224.4638274999688
 20
-2423.561468236341
 30
0.0
 10
224.6178981153735
 20
-2423.490784731094
 30
0.0
 10
235.3260231507902
 20
-2421.774324075341
 30
0.0
 10
235.6929707404725
 20
-2421.715500676088
 30
0.0
 10
236.0608129502161
 20
-2421.662181320273
 30
0.0
 10
236.4278201812358
 20
-2421.603664647893
 30
0.0
 10
254.3358304513658
 20
-2418.748531574678
 30
0.0
 10
254.2060849815152
 20
-2418.739091202955
 30
0.0
 10
255.5206993448974
 20
-2400.649669024224
 30
0.0
 10
255.8255006607997
 20
-2396.455451598828
 30
0.0
 10
254.3675937237367
 20
-2395.61641726147
 30
0.0
 10
250.5467992332433
 20
-2394.728391825367
 30
0.0
 10
244.1891178469723
 20
-2393.250735085366
 30
0.0
 10
239.5077755366274
 20
-2394.425124143858
 30
0.0
 10
235.6917267925728
 20
-2399.778769172204
 30
0.0
 10
234.58373558321
 20
-2401.333192833889
 30
0.0
 10
233.0454917643965
 20
-2402.915750166536
 30
0.0
 10
229.5018676101154
 20
-2403.343497839808
 30
0.0
  0
SPLINE
  5
81
330
70
100
AcDbEntity
  8
Layer 1
100
AcDbSpline
210
0.0
220
0.0
230
1.0
 70
     9
 71
     3
 72
   350
 73
   346
 74
     0
 42
0.0000000001
 43
0.0000000001
 40
0.0
 40
0.0
 40
0.0
 40
0.0
 40
1.0
 40
1.0
 40
1.0
 40
2.0
 40
2.0
 40
2.0
 40
3.0
 40
3.0
 40
3.0
 40
4.0
 40
4.0
 40
4.0
 40
5.0
 40
5.0
 40
5.0
 40
6.0
 40
6.0
 40
6.0
 40
7.0
 40
7.0
 40
7.0
 40
8.0
 40
8.0
 40
8.0
 40
9.0
 40
9.0
 40
9.0
 40
10.0
 40
10.0
 40
10.0
 40
11.0
 40
11.0
 40
11.0
 40
12.0
 40
12.0
 40
12.0
 40
13.0
 40
13.0
 40
13.0
 40
14.0
 40
14.0
 40
14.0
 40
15.0
 40
15.0
 40
15.0
 40
16.0
 40
16.0
 40
16.0
 40
17.0
 40
17.0
 40
17.0
 40
18.0
 40
18.0
 40
18.0
 40
19.0
 40
19.0
 40
19.0
 40
20.0
 40
20.0
 40
20.0
 40
21.0
 40
21.0
 40
21.0
 40
22.0
 40
22.0
 40
22.0
 40
23.0
 40
23.0
 40
23.0
 40
24.0
 40
24.0
 40
24.0
 40
25.0
 40
25.0
 40
25.0
 40
26.0
 40
26.0
 40
26.0
 40
27.0
 40
27.0
 40
27.0
 40
28.0
 40
28.0
 40
28.0
 40
29.0
 40
29.0
 40
29.0
 40
30.0
 40
30.0
 40
30.0
 40
31.0
 40
31.0
 40
31.0
 40
32.0
 40
32.0
 40
32.0
 40
33.0
 40
33.0
 40
33.0
 40
34.0
 40
34.0
 40
34.0
 40
35.0
 40
35.0
 40
35.0
 40
36.0
 40
36.0
 40
36.0
 40
37.0
 40
37.0
 40
37.0
 40
38.0
 40
38.0
 40
38.0
 40
39.0
 40
39.0
 40
39.0
 40
40.0
 40
40.0
 40
40.0
 40
41.0
 40
41.0
 40
41.0
 40
42.0
 40
42.0
 40
42.0
 40
43.0
 40
43.0
 40
43.0
 40
44.0
 40
44.0
 40
44.0
 40
45.0
 40
45.0
 40
45.0
 40
46.0
 40
46.0
 40
46.0
 40
47.0
 40
47.0
 40
47.0
 40
48.0
 40
48.0
 40
48.0
 40
49.0
 40
49.0
 40
49.0
 40
50.0
 40
50.0
 40
50.0
 40
51.0
 40
51.0
 40
51.0
 40
52.0
 40
52.0
 40
52.0
 40
53.0
 40
53.0
 40
53.0
 40
54.0
 40
54.0
 40
54.0
 40
55.0
 40
55.0
 40
55.0
 40
56.0
 40
56.0
 40
56.0
 40
57.0
 40
57.0
 40
57.0
 40
58.0
 40
58.0
 40
58.0
 40
59.0
 40
59.0
 40
59.0
 40
60.0
 40
60.0
 40
60.0
 40
61.0
 40
61.0
 40
61.0
 40
62.0
 40
62.0
 40
62.0
 40
63.0
 40
63.0
 40
63.0
 40
64.0
 40
64.0
 40
64.0
 40
65.0
 40
65.0
 40
65.0
 40
66.0
 40
66.0
 40
66.0
 40
67.0
 40
67.0
 40
67.0
 40
68.0
 40
68.0
 40
68.0
 40
69.0
 40
69.0
 40
69.0
 40
70.0
 40
70.0
 40
70.0
 40
71.0
 40
71.0
 40
71.0
 40
72.0
 40
72.0
 40
72.0
 40
73.0
 40
73.0
 40
73.0
 40
74.0
 40
74.0
 40
74.0
 40
75.0
 40
75.0
 40
75.0
 40
76.0
 40
76.0
 40
76.0
 40
77.0
 40
77.0
 40
77.0
 40
78.0
 40
78.0
 40
78.0
 40
79.0
 40
79.0
 40
79.0
 40
80.0
 40
80.0
 40
80.0
 40
81.0
 40
81.0
 40
81.0
 40
82.0
 40
82.0
 40
82.0
 40
83.0
 40
83.0
 40
83.0
 40
84.0
 40
84.0
 40
84.0
 40
85.0
 40
85.0
 40
85.0
 40
86.0
 40
86.0
 40
86.0
 40
87.0
 40
87.0
 40
87.0
 40
88.0
 40
88.0
 40
88.0
 40
89.0
 40
89.0
 40
89.0
 40
90.0
 40
90.0
 40
90.0
 40
91.0
 40
91.0
 40
91.0
 40
92.0
 40
92.0
 40
92.0
 40
93.0
 40
93.0
 40
93.0
 40
94.0
 40
94.0
 40
94.0
 40
95.0
 40
95.0
 40
95.0
 40
96.0
 40
96.0
 40
96.0
 40
97.0
 40
97.0
 40
97.0
 40
98.0
 40
98.0
 40
98.0
 40
99.0
 40
99.0
 40
99.0
 40
100.0
 40
100.0
 40
100.0
 40
101.0
 40
101.0
 40
101.0
 40
102.0
 40
102.0
 40
102.0
 40
103.0
 40
103.0
 40
103.0
 40
104.0
 40
104.0
 40
104.0
 40
105.0
 40
105.0
 40
105.0
 40
106.0
 40
106.0
 40
106.0
 40
107.0
 40
107.0
 40
107.0
 40
108.0
 40
108.0
 40
108.0
 40
109.0
 40
109.0
 40
109.0
 40
110.0
 40
110.0
 40
110.0
 40
111.0
 40
111.0
 40
111.0
 40
112.0
 40
112.0
 40
112.0
 40
113.0
 40
113.0
 40
113.0
 40
114.0
 40
114.0
 40
114.0
 40
115.0
 40
115.0
 40
115.0
 40
115.0
 10
377.6680502325562
 20
-2438.457778401866
 30
0.0
 10
368.7842344316541
 20
-2437.895104982567
 30
0.0
 10
362.9079438417266
 20
-2434.705298803503
 30
0.0
 10
357.0334424919256
 20
-2431.562081029297
 30
0.0
 10
342.1213018113613
 20
-2423.583228804375
 30
0.0
 10
328.1663193973709
 20
-2413.917140179125
 30
0.0
 10
312.894762976046
 20
-2406.562017062829
 30
0.0
 10
307.6716302347541
 20
-2404.046430644761
 30
0.0
 10
306.285037297077
 20
-2398.679136270297
 30
0.0
 10
304.5225335286978
 20
-2393.893924310429
 30
0.0
 10
298.5938096828304
 20
-2377.797732674679
 30
0.0
 10
291.6997993080931
 20
-2362.194834542219
 30
0.0
 10
283.0015191882722
 20
-2347.370093981814
 30
0.0
 10
280.4022474533613
 20
-2342.940071747928
 30
0.0
 10
277.8965955781004
 20
-2340.236410631833
 30
0.0
 10
272.5696357882389
 20
-2342.925868589389
 30
0.0
 10
271.6518408044812
 20
-2343.389247701778
 30
0.0
 10
270.4174184795975
 20
-2343.622539053895
 30
0.0
 10
269.2706177998352
 20
-2342.768534740799
 30
0.0
 10
269.3355927770554
 20
-2342.299813468597
 30
0.0
 10
269.2128168235122
 20
-2341.587235807334
 30
0.0
 10
269.5102907750788
 20
-2341.274825960792
 30
0.0
 10
276.0281517537642
 20
-2334.429678881932
 30
0.0
 10
272.9615816185633
 20
-2328.10112802898
 30
0.0
 10
268.9563590718299
 20
-2321.386859605389
 30
0.0
 10
261.8956255979265
 20
-2309.550363063531
 30
0.0
 10
254.807593431784
 20
-2297.765677803667
 30
0.0
 10
245.9622036926794
 20
-2287.13784704904
 30
0.0
 10
244.0777759898647
 20
-2284.873687209818
 30
0.0
 10
242.6479686430011
 20
-2283.052377082566
 30
0.0
 10
240.4960580612369
 20
-2287.160455376087
 30
0.0
 10
229.7785267348609
 20
-2307.62068462586
 30
0.0
 10
217.0023553585397
 20
-2326.855501652821
 30
0.0
 10
204.9255127463421
 20
-2346.508072168907
 30
0.0
 10
203.8916557196153
 20
-2348.190469100695
 30
0.0
 10
201.184484284795
 20
-2349.81551662629
 30
0.0
 10
203.0008015800722
 20
-2352.311890013456
 30
0.0
 10
204.6233100887239
 20
-2354.541905186901
 30
0.0
 10
207.209085840952
 20
-2355.071929233965
 30
0.0
 10
209.946222787823
 20
-2355.219873831977
 30
0.0
 10
213.6131596676878
 20
-2355.418087557397
 30
0.0
 10
216.3054207681071
 20
-2353.328434011897
 30
0.0
 10
219.1606305230434
 20
-2351.674596760624
 30
0.0
 10
223.3799228708067
 20
-2349.230639589018
 30
0.0
 10
227.6199704040537
 20
-2348.816123772505
 30
0.0
 10
231.8741870150752
 20
-2351.259706055704
 30
0.0
 10
234.8798803849659
 20
-2352.98614385522
 30
0.0
 10
235.6223979977094
 20
-2355.188272443238
 30
0.0
 10
232.7096684327535
 20
-2357.903060928891
 30
0.0
 10
230.0790594350274
 20
-2360.354882236871
 30
0.0
 10
226.9940856870835
 20
-2362.054455873889
 30
0.0
 10
223.8728585260706
 20
-2363.701587734778
 30
0.0
 10
221.6590317156897
 20
-2364.869876336454
 30
0.0
 10
219.8699875520779
 20
-2366.332997630465
 30
0.0
 10
218.8538866035724
 20
-2368.688506698413
 30
0.0
 10
217.5723135412209
 20
-2371.659446208863
 30
0.0
 10
216.1487259338482
 20
-2375.147356833635
 30
0.0
 10
218.1159017324917
 20
-2377.71472897312
 30
0.0
 10
220.1606538709657
 20
-2380.383406184618
 30
0.0
 10
223.2039724046936
 20
-2377.49705513126
 30
0.0
 10
225.7932755160346
 20
-2377.042673340659
 30
0.0
 10
227.2369878147492
 20
-2376.78929989815
 30
0.0
 10
228.5954556016495
 20
-2376.064027152168
 30
0.0
 10
230.000775919334
 20
-2375.575717960661
 30
0.0
 10
236.1972808508344
 20
-2373.422648632912
 30
0.0
 10
239.9069379688062
 20
-2369.704675808446
 30
0.0
 10
241.3509910751618
 20
-2362.72945949247
 30
0.0
 10
244.8954587283606
 20
-2345.608783040187
 30
0.0
 10
248.5702512244079
 20
-2328.573325539144
 30
0.0
 10
247.5973135639451
 20
-2310.810925334668
 30
0.0
 10
260.2143874121229
 20
-2315.505763627689
 30
0.0
 10
266.6691478556259
 20
-2330.967090265067
 30
0.0
 10
260.9114583256141
 20
-2342.453492155213
 30
0.0
 10
255.299566305459
 20
-2353.648980640925
 30
0.0
 10
251.2219391748786
 20
-2365.395376162052
 30
0.0
 10
247.6107073043331
 20
-2377.340948190189
 30
0.0
 10
246.9385664699603
 20
-2379.564309094396
 30
0.0
 10
246.1993376509763
 20
-2381.660395384166
 30
0.0
 10
248.2953216984515
 20
-2383.486170091547
 30
0.0
 10
250.2709665670318
 20
-2385.207129408191
 30
0.0
 10
252.5661867628569
 20
-2385.863030758355
 30
0.0
 10
255.0348269280421
 20
-2384.855671525904
 30
0.0
 10
259.1638478512523
 20
-2383.170786698316
 30
0.0
 10
263.2562830739389
 20
-2381.388311602034
 30
0.0
 10
267.3101218310057
 20
-2379.529171826358
 30
0.0
 10
271.892638444946
 20
-2377.427615573912
 30
0.0
 10
276.4894348991457
 20
-2375.512838950448
 30
0.0
 10
281.6018903582353
 20
-2375.028414966078
 30
0.0
 10
286.1673495496198
 20
-2374.59581078389
 30
0.0
 10
288.9572690802652
 20
-2376.731294437241
 30
0.0
 10
290.9428314512679
 20
-2380.571651286464
 30
0.0
 10
292.5063546770307
 20
-2383.595739748911
 30
0.0
 10
291.8990184160593
 20
-2385.46849478994
 30
0.0
 10
288.503057693486
 20
-2386.360149827444
 30
0.0
 10
283.8314710019349
 20
-2387.586733576529
 30
0.0
 10
279.110586484765
 20
-2388.596086533693
 30
0.0
 10
274.6257623818146
 20
-2390.533748390415
 30
0.0
 10
271.9106842096644
 20
-2391.706808299099
 30
0.0
 10
270.4867387542709
 20
-2393.318436523732
 30
0.0
 10
270.2653841898627
 20
-2396.309074715977
 30
0.0
 10
269.8536885565973
 20
-2401.871055456748
 30
0.0
 10
269.2679254194536
 20
-2407.42255636249
 30
0.0
 10
268.6362725331219
 20
-2412.964923623382
 30
0.0
 10
268.2995716217938
 20
-2415.919436205423
 30
0.0
 10
269.4471220783689
 20
-2417.054342698426
 30
0.0
 10
272.3752731891891
 20
-2416.773483119476
 30
0.0
 10
281.5278498977004
 20
-2415.895545589618
 30
0.0
 10
290.9135049535525
 20
-2417.234323214922
 30
0.0
 10
299.6346021451009
 20
-2412.64221286582
 30
0.0
 10
304.6819633442956
 20
-2409.984526700824
 30
0.0
 10
319.9321340859951
 20
-2416.468511399751
 30
0.0
 10
322.3394799965081
 20
-2421.551538118831
 30
0.0
 10
323.3579836388944
 20
-2423.702034348873
 30
0.0
 10
321.982262465046
 20
-2424.651558524234
 30
0.0
 10
320.5508022011108
 20
-2425.574908672578
 30
0.0
 10
317.4909459764876
 20
-2427.548662058736
 30
0.0
 10
313.9932882531157
 20
-2428.063605367577
 30
0.0
 10
310.4707856525365
 20
-2428.531176413981
 30
0.0
 10
298.7652359274743
 20
-2430.08493550076
 30
0.0
 10
287.0466503100524
 20
-2428.244386782033
 30
0.0
 10
275.3363292779813
 20
-2428.717052902706
 30
0.0
 10
267.1491583810148
 20
-2429.04751703416
 30
0.0
 10
267.1562812607644
 20
-2428.988812917578
 30
0.0
 10
266.0223460695434
 20
-2437.287496075474
 30
0.0
 10
264.8641964952567
 20
-2445.763279925282
 30
0.0
 10
263.6556755512738
 20
-2454.232281702982
 30
0.0
 10
262.5266650305002
 20
-2462.71191667916
 30
0.0
 10
261.9533243319584
 20
-2467.0182086981
 30
0.0
 10
259.7956541010226
 20
-2470.290217680759
 30
0.0
 10
256.4969769202671
 20
-2473.02714162285
 30
0.0
 10
246.5388502253609
 20
-2481.289579887867
 30
0.0
 10
235.5462189692098
 20
-2487.831075876624
 30
0.0
 10
223.7032300417431
 20
-2492.974749315854
 30
0.0
 10
222.1749804070769
 20
-2493.638506282197
 30
0.0
 10
220.5656611542272
 20
-2494.249012054253
 30
0.0
 10
218.9337122738562
 20
-2494.515114662245
 30
0.0
 10
214.3995221837558
 20
-2495.254394602373
 30
0.0
 10
210.9765098544831
 20
-2493.524829892729
 30
0.0
 10
208.6697703603113
 20
-2489.514904200518
 30
0.0
 10
206.4481986962328
 20
-2485.653025348609
 30
0.0
 10
208.7177560765067
 20
-2482.973459332909
 30
0.0
 10
211.2927963879684
 20
-2480.802241998147
 30
0.0
 10
219.3845922659221
 20
-2473.979562663179
 30
0.0
 10
228.1583016374225
 20
-2468.005596602645
 30
0.0
 10
235.4474614343362
 20
-2460.183447732172
 30
0.0
 10
241.9292394037711
 20
-2453.227683012447
 30
0.0
 10
246.9288364117401
 20
-2445.656487850214
 30
0.0
 10
249.0444339390943
 20
-2436.254184340978
 30
0.0
 10
249.8667175807804
 20
-2432.599686940099
 30
0.0
 10
248.8754444690985
 20
-2431.524626269282
 30
0.0
 10
245.2567318707788
 20
-2431.991004488933
 30
0.0
 10
238.6158648933906
 20
-2432.84687472388
 30
0.0
 10
231.9577189684805
 20
-2433.624478483511
 30
0.0
 10
225.2844156236297
 20
-2434.151435261782
 30
0.0
 10
221.4592502751093
 20
-2434.453493076155
 30
0.0
 10
219.3866797127394
 20
-2436.315785322527
 30
0.0
 10
217.7553016851689
 20
-2439.688741529171
 30
0.0
 10
211.6033573530458
 20
-2452.408330316496
 30
0.0
 10
206.6548133300621
 20
-2465.700714510127
 30
0.0
 10
199.5666704014347
 20
-2477.971493711819
 30
0.0
 10
198.6369641905421
 20
-2479.580974848297
 30
0.0
 10
197.6803767767724
 20
-2481.181083774584
 30
0.0
 10
196.6349067295941
 20
-2482.716541490907
 30
0.0
 10
189.3668088450486
 20
-2493.39087544848
 30
0.0
 10
179.3995911062538
 20
-2494.942691931691
 30
0.0
 10
168.8725627323638
 20
-2487.27985359414
 30
0.0
 10
161.2084421060554
 20
-2481.701002875016
 30
0.0
 10
155.9853945666746
 20
-2473.917297106724
 30
0.0
 10
150.0439671158947
 20
-2466.805715132421
 30
0.0
 10
147.0487706214207
 20
-2463.220640248506
 30
0.0
 10
144.1758729497905
 20
-2461.697383445815
 30
0.0
 10
139.2150470713586
 20
-2462.367564636239
 30
0.0
 10
125.8417040220283
 20
-2464.174151873296
 30
0.0
 10
118.0296835287099
 20
-2457.872567425133
 30
0.0
 10
115.3151804694589
 20
-2444.213678691755
 30
0.0
 10
114.7409568661151
 20
-2441.324294450373
 30
0.0
 10
115.8168216299691
 20
-2440.498466409197
 30
0.0
 10
118.126242854285
 20
-2441.884224368147
 30
0.0
 10
132.9138758524623
 20
-2450.757526253248
 30
0.0
 10
146.5829717747638
 20
-2445.61935685746
 30
0.0
 10
160.4884646588343
 20
-2439.199239510912
 30
0.0
 10
174.8405305783762
 20
-2432.57293354009
 30
0.0
 10
189.4240730493347
 20
-2426.44243452893
 30
0.0
 10
203.4542802304222
 20
-2419.133456767551
 30
0.0
 10
209.6682685940304
 20
-2415.896295366434
 30
0.0
 10
209.7843050764295
 20
-2414.625287341027
 30
0.0
 10
204.9723311963589
 20
-2409.425619205984
 30
0.0
 10
199.0217530603568
 20
-2402.995618437774
 30
0.0
 10
195.5251518406785
 20
-2402.685653886074
 30
0.0
 10
187.886331921798
 20
-2408.395647386391
 30
0.0
 10
182.5299093111589
 20
-2412.399574864081
 30
0.0
 10
177.5950742756304
 20
-2416.984869060314
 30
0.0
 10
172.123535363231
 20
-2420.812445622909
 30
0.0
 10
166.801585445728
 20
-2424.53539423897
 30
0.0
 10
160.9904018959805
 20
-2424.238533741162
 30
0.0
 10
156.4424857780414
 20
-2421.059207397135
 30
0.0
 10
154.2350959720224
 20
-2419.516047428064
 30
0.0
 10
153.5916767018006
 20
-2418.371666482574
 30
0.0
 10
156.2851391491658
 20
-2416.636359164142
 30
0.0
 10
170.1726416497568
 20
-2407.68905089927
 30
0.0
 10
182.7575858573491
 20
-2396.736822389245
 30
0.0
 10
197.9325744329089
 20
-2389.761495310784
 30
0.0
 10
202.0540464668175
 20
-2387.867030822869
 30
0.0
 10
206.0042200589432
 20
-2379.415938486829
 30
0.0
 10
205.2523217158177
 20
-2374.98864271409
 30
0.0
 10
204.7739555873104
 20
-2372.171952743052
 30
0.0
 10
202.4817770997015
 20
-2372.119076437177
 30
0.0
 10
200.5528825196106
 20
-2372.101593005069
 30
0.0
 10
192.2850509736327
 20
-2372.026717565807
 30
0.0
 10
185.4112334517686
 20
-2375.254336352909
 30
0.0
 10
179.9479420843436
 20
-2381.438052477592
 30
0.0
 10
168.8532985803194
 20
-2393.995655391991
 30
0.0
 10
157.7505779351468
 20
-2406.532469040143
 30
0.0
 10
143.2427245816998
 20
-2415.408207699897
 30
0.0
 10
132.7045241072464
 20
-2421.855334052187
 30
0.0
 10
121.1931133262205
 20
-2425.463226007825
 30
0.0
 10
108.7906364658938
 20
-2427.011208405049
 30
0.0
 10
117.6397058625243
 20
-2419.445108317086
 30
0.0
 10
126.5482600382438
 20
-2411.94725495972
 30
0.0
 10
135.3250515888703
 20
-2404.29823637211
 30
0.0
 10
151.9028896266954
 20
-2389.850548348011
 30
0.0
 10
167.4493670537831
 20
-2374.397665220002
 30
0.0
 10
181.3280681969827
 20
-2357.284673980079
 30
0.0
 10
183.842589591166
 20
-2354.184159403592
 30
0.0
 10
183.9803610810213
 20
-2352.209000185905
 30
0.0
 10
181.1053589221937
 20
-2349.395181519265
 30
0.0
 10
174.0652954318666
 20
-2342.504894468033
 30
0.0
 10
167.2422071277269
 20
-2335.391242087297
 30
0.0
 10
160.3929234960942
 20
-2328.308356116568
 30
0.0
 10
156.4900966058285
 20
-2324.272418280971
 30
0.0
 10
153.1209361443125
 20
-2319.831694687082
 30
0.0
 10
151.1239993182116
 20
-2314.512667195117
 30
0.0
 10
150.7521142777968
 20
-2313.522109779488
 30
0.0
 10
150.3074412449332
 20
-2312.118246414482
 30
0.0
 10
150.7256250037117
 20
-2311.366339551163
 30
0.0
 10
151.5185139861478
 20
-2309.940724138314
 30
0.0
 10
153.0387077801442
 20
-2310.775506900323
 30
0.0
 10
154.2365870054655
 20
-2311.131088555097
 30
0.0
 10
164.6489336073409
 20
-2314.221907154124
 30
0.0
 10
173.0604411355944
 20
-2320.710586478339
 30
0.0
 10
181.3474260711318
 20
-2327.335639981075
 30
0.0
 10
185.2629821268765
 20
-2330.465924105212
 30
0.0
 10
188.9540907888531
 20
-2333.893469176141
 30
0.0
 10
192.5874069946931
 20
-2337.353799942366
 30
0.0
 10
194.6217389394714
 20
-2339.291282875076
 30
0.0
 10
195.992126473704
 20
-2339.568350968994
 30
0.0
 10
197.8943272951237
 20
-2337.08991258406
 30
0.0
 10
206.1940669567175
 20
-2326.275898613831
 30
0.0
 10
213.7016333319207
 20
-2315.003694327579
 30
0.0
 10
218.9142180766521
 20
-2302.336436553908
 30
0.0
 10
219.3738823857257
 20
-2301.21939690161
 30
0.0
 10
220.4993485070063
 20
-2299.981864706979
 30
0.0
 10
219.2555795325006
 20
-2298.793366212047
 30
0.0
 10
218.3104517757438
 20
-2297.890242997341
 30
0.0
 10
217.1534098262982
 20
-2298.705437840041
 30
0.0
 10
216.0924330313446
 20
-2298.888817912781
 30
0.0
 10
209.3719959894061
 20
-2300.050358523118
 30
0.0
 10
203.5876893824406
 20
-2303.57846740943
 30
0.0
 10
197.4762074377849
 20
-2306.270421782972
 30
0.0
 10
191.6700635810648
 20
-2308.827893460415
 30
0.0
 10
185.8655044798888
 20
-2311.358961065684
 30
0.0
 10
179.3439372180819
 20
-2311.255653748771
 30
0.0
 10
177.2658966930339
 20
-2311.222740250605
 30
0.0
 10
174.6657814592054
 20
-2310.97063631657
 30
0.0
 10
173.9198983709884
 20
-2309.121328841409
 30
0.0
 10
173.0736303913963
 20
-2307.023146584632
 30
0.0
 10
175.8229767720895
 20
-2306.310142913813
 30
0.0
 10
177.1919669949839
 20
-2305.311423155124
 30
0.0
 10
187.2591521357844
 20
-2297.967146242079
 30
0.0
 10
197.4414280177716
 20
-2290.780710128993
 30
0.0
 10
207.513699712652
 20
-2283.443313270249
 30
0.0
 10
214.4870586269699
 20
-2278.363400681012
 30
0.0
 10
220.3916618118765
 20
-2272.215107250768
 30
0.0
 10
225.2809138250905
 20
-2265.083149239481
 30
0.0
 10
227.8143500434835
 20
-2261.387648419002
 30
0.0
 10
230.8291855784101
 20
-2258.047441696845
 30
0.0
 10
234.2959916898599
 20
-2255.240268779251
 30
0.0
 10
238.5362011067391
 20
-2251.806855426714
 30
0.0
 10
243.2395084697
 20
-2251.758294597619
 30
0.0
 10
247.7558231989042
 20
-2254.73674678656
 30
0.0
 10
252.1783647050161
 20
-2257.65336155865
 30
0.0
 10
252.799094706379
 20
-2261.501529293053
 30
0.0
 10
250.6494504954444
 20
-2266.381328154263
 30
0.0
 10
249.3574487192036
 20
-2269.31418241056
 30
0.0
 10
246.7283563154906
 20
-2272.840646899995
 30
0.0
 10
248.4493667532825
 20
-2275.761274682087
 30
0.0
 10
251.1523973752355
 20
-2280.348417759784
 30
0.0
 10
254.8341423472102
 20
-2284.478201240096
 30
0.0
 10
258.652397820757
 20
-2288.242868971809
 30
0.0
 10
260.8487667596037
 20
-2290.408403339117
 30
0.0
 10
261.6538736960592
 20
-2287.263068297429
 30
0.0
 10
262.4374415894508
 20
-2285.880509670229
 30
0.0
 10
267.879134272478
 20
-2276.278906111214
 30
0.0
 10
271.240298534658
 20
-2265.804562338903
 30
0.0
 10
274.9270022578403
 20
-2255.476627400161
 30
0.0
 10
277.5545610271565
 20
-2248.11581066617
 30
0.0
 10
280.1899583722716
 20
-2240.778583146226
 30
0.0
 10
283.5861576601947
 20
-2233.712949497423
 30
0.0
 10
285.2426532110858
 20
-2230.266736687825
 30
0.0
 10
286.7240588351615
 20
-2230.117050243249
 30
0.0
 10
289.2082227885057
 20
-2232.788007670881
 30
0.0
 10
291.6265767859022
 20
-2235.388225679513
 30
0.0
 10
293.8305968563418
 20
-2238.10652341887
 30
0.0
 10
295.6656415316265
 20
-2241.156036131515
 30
0.0
 10
299.3193039537782
 20
-2247.227834221167
 30
0.0
 10
300.8796065473125
 20
-2252.702329639871
 30
0.0
 10
294.3779168913079
 20
-2258.396513925627
 30
0.0
 10
290.1596214059046
 20
-2262.090887950837
 30
0.0
 10
289.4239369864136
 20
-2268.27000743243
 30
0.0
 10
286.8860787888498
 20
-2273.223748771974
 30
0.0
 10
282.2120042015031
 20
-2282.347194947162
 30
0.0
 10
277.242057458514
 20
-2291.271353852857
 30
0.0
 10
271.2938053346752
 20
-2299.614116219336
 30
0.0
 10
269.5437580856651
 20
-2302.068646948081
 30
0.0
 10
269.1751575789112
 20
-2304.104572168593
 30
0.0
 10
271.0237493580225
 20
-2306.641365342273
 30
0.0
 10
273.7608777846999
 20
-2310.397517142998
 30
0.0
 10
276.3806320589811
 20
-2314.250143067382
 30
0.0
 10
278.8493063049263
 20
-2318.187757897851
 30
0.0
 10
281.059477953333
 20
-2321.713063641297
 30
0.0
 10
282.9788895607471
 20
-2322.209458494146
 30
0.0
 10
285.9766847135052
 20
-2318.810115255709
 30
0.0
 10
291.1989313549256
 20
-2312.888369446338
 30
0.0
 10
295.7928820653015
 20
-2306.571380492695
 30
0.0
 10
298.5350714854849
 20
-2299.183199034984
 30
0.0
 10
300.0623498183686
 20
-2295.068296068405
 30
0.0
 10
302.1508701784533
 20
-2295.289748615009
 30
0.0
 10
305.2816655140541
 20
-2296.881699458327
 30
0.0
 10
310.0906488070523
 20
-2299.326994299938
 30
0.0
 10
314.0541394578486
 20
-2302.662819513827
 30
0.0
 10
315.9232308167102
 20
-2307.801082631717
 30
0.0
 10
317.1887347986758
 20
-2311.280047055848
 30
0.0
 10
316.9962977628147
 20
-2314.429978740629
 30
0.0
 10
312.132734125722
 20
-2315.213060983131
 30
0.0
 10
303.0513691743053
 20
-2316.67525357631
 30
0.0
 10
298.4886875652137
 20
-2324.377267752474
 30
0.0
 10
292.3655670395328
 20
-2329.904954724129
 30
0.0
 10
290.8654851565934
 20
-2331.259162415487
 30
0.0
 10
291.70622353217
 20
-2332.633622601056
 30
0.0
 10
292.6441943284171
 20
-2333.848226961475
 30
0.0
 10
306.7513814359645
 20
-2352.11627494632
 30
0.0
 10
320.2192815659637
 20
-2371.344948915508
 30
0.0
 10
339.3680191023868
 20
-2384.531324891653
 30
0.0
 10
358.7769291938002
 20
-2397.896897526716
 30
0.0
 10
365.7279055661402
 20
-2418.76252172844
 30
0.0
 10
377.6680502325562
 20
-2438.457778401866
 30
0.0
  0
HATCH
  5
82
330
70
100
AcDbEntity
  8
Layer 1
 62
   118
420
  1005869
440
 33554687
100
AcDbHatch
 10
0.0
 20
0.0
 30
0.0
210
0.0
220
0.0
230
1.0
  2
SOLID
 70
     1
 71
     1
 91
        3
 92
        1
 93
        1
 72
     4
 94
        3
 73
     0
 74
     0
 95
       26
 96
       22
 40
0.0
 40
0.0
 40
0.0
 40
0.0
 40
1.0
 40
1.0
 40
1.0
 40
2.0
 40
2.0
 40
2.0
 40
3.0
 40
3.0
 40
3.0
 40
4.0
 40
4.0
 40
4.0
 40
5.0
 40
5.0
 40
5.0
 40
6.0
 40
6.0
 40
6.0
 40
7.0
 40
7.0
 40
7.0
 40
7.0
 10
174.9054799950227
 20
-2468.765376122523
 10
179.6328398574169
 20
-2469.259598326644
 10
183.1910761394119
 20
-2467.241216179577
 10
186.1177276965991
 20
-2464.270225547978
 10
191.9958416074205
 20
-2458.303024519166
 10
197.034682615531
 20
-2451.650953490498
 10
200.9374157836919
 20
-2444.212298420796
 10
202.2250978230531
 20
-2441.757938095874
 10
203.3918187095714
 20
-2439.158427795613
 10
203.4315313202224
 20
-2436.312837336413
 10
203.4900394724082
 20
-2432.120630676112
 10
200.5871336877735
 20
-2429.59362720199
 10
197.1639935556359
 20
-2431.150606921001
 10
181.9430385491705
 20
-2438.07367114734
 10
167.1521018468975
 20
-2445.780848559302
 10
153.6620364397877
 20
-2455.789704471929
 10
150.7297445161002
 20
-2457.965318225292
 10
151.4651733298578
 20
-2459.437334598795
 10
153.9975573046486
 20
-2461.237412409861
 10
160.3624339922917
 20
-2465.761667957155
 10
167.3174105943453
 20
-2468.515359635305
 10
174.9054799950227
 20
-2468.765376122523
 97
        0
 97
        1
330
7F
 92
        1
 93
        1
 72
     4
 94
        3
 73
     0
 74
     0
 95
       38
 96
       34
 40
0.0
 40
0.0
 40
0.0
 40
0.0
 40
1.0
 40
1.0
 40
1.0
 40
2.0
 40
2.0
 40
2.0
 40
3.0
 40
3.0
 40
3.0
 40
4.0
 40
4.0
 40
4.0
 40
5.0
 40
5.0
 40
5.0
 40
6.0
 40
6.0
 40
6.0
 40
7.0
 40
7.0
 40
7.0
 40
8.0
 40
8.0
 40
8.0
 40
9.0
 40
9.0
 40
9.0
 40
10.0
 40
10.0
 40
10.0
 40
11.0
 40
11.0
 40
11.0
 40
11.0
 10
229.5018676101154
 20
-2403.343497839808
 10
231.1510187562908
 20
-2398.219540122751
 10
232.5409260483011
 20
-2393.686696222841
 10
234.0748501302314
 20
-2389.203116067787
 10
235.3012549553041
 20
-2385.618364951137
 10
235.0020684453284
 20
-2383.92666397068
 10
230.4842286019211
 20
-2385.080792014774
 10
224.0891180162089
 20
-2386.714487534318
 10
218.186448914681
 20
-2389.255191475706
 10
212.8683756841183
 20
-2393.13283268112
 10
206.0929578491032
 20
-2398.073112118749
 10
206.0091873303481
 20
-2400.381231883879
 10
212.6237439576635
 20
-2405.830626819647
 10
215.4800613374409
 20
-2408.183784314854
 10
218.3599796465223
 20
-2410.244034680916
 10
220.0204882074158
 20
-2413.866956253631
 10
224.4638274999688
 20
-2423.561468236341
 10
224.6178981153735
 20
-2423.490784731094
 10
235.3260231507902
 20
-2421.774324075341
 10
235.6929707404725
 20
-2421.715500676088
 10
236.0608129502161
 20
-2421.662181320273
 10
236.4278201812358
 20
-2421.603664647893
 10
254.3358304513658
 20
-2418.748531574678
 10
254.2060849815152
 20
-2418.739091202955
 10
255.5206993448974
 20
-2400.649669024224
 10
255.8255006607997
 20
-2396.455451598828
 10
254.3675937237367
 20
-2395.61641726147
 10
250.5467992332433
 20
-2394.728391825367
 10
244.1891178469723
 20
-2393.250735085366
 10
239.5077755366274
 20
-2394.425124143858
 10
235.6917267925728
 20
-2399.778769172204
 10
234.58373558321
 20
-2401.333192833889
 10
233.0454917643965
 20
-2402.915750166536
 10
229.5018676101154
 20
-2403.343497839808
 97
        0
 97
        1
330
80
 92
        1
 93
        1
 72
     4
 94
        3
 73
     0
 74
     0
 95
      350
 96
      346
 40
0.0
 40
0.0
 40
0.0
 40
0.0
 40
1.0
 40
1.0
 40
1.0
 40
2.0
 40
2.0
 40
2.0
 40
3.0
 40
3.0
 40
3.0
 40
4.0
 40
4.0
 40
4.0
 40
5.0
 40
5.0
 40
5.0
 40
6.0
 40
6.0
 40
6.0
 40
7.0
 40
7.0
 40
7.0
 40
8.0
 40
8.0
 40
8.0
 40
9.0
 40
9.0
 40
9.0
 40
10.0
 40
10.0
 40
10.0
 40
11.0
 40
11.0
 40
11.0
 40
12.0
 40
12.0
 40
12.0
 40
13.0
 40
13.0
 40
13.0
 40
14.0
 40
14.0
 40
14.0
 40
15.0
 40
15.0
 40
15.0
 40
16.0
 40
16.0
 40
16.0
 40
17.0
 40
17.0
 40
17.0
 40
18.0
 40
18.0
 40
18.0
 40
19.0
 40
19.0
 40
19.0
 40
20.0
 40
20.0
 40
20.0
 40
21.0
 40
21.0
 40
21.0
 40
22.0
 40
22.0
 40
22.0
 40
23.0
 40
23.0
 40
23.0
 40
24.0
 40
24.0
 40
24.0
 40
25.0
 40
25.0
 40
25.0
 40
26.0
 40
26.0
 40
26.0
 40
27.0
 40
27.0
 40
27.0
 40
28.0
 40
28.0
 40
28.0
 40
29.0
 40
29.0
 40
29.0
 40
30.0
 40
30.0
 40
30.0
 40
31.0
 40
31.0
 40
31.0
 40
32.0
 40
32.0
 40
32.0
 40
33.0
 40
33.0
 40
33.0
 40
34.0
 40
34.0
 40
34.0
 40
35.0
 40
35.0
 40
35.0
 40
36.0
 40
36.0
 40
36.0
 40
37.0
 40
37.0
 40
37.0
 40
38.0
 40
38.0
 40
38.0
 40
39.0
 40
39.0
 40
39.0
 40
40.0
 40
40.0
 40
40.0
 40
41.0
 40
41.0
 40
41.0
 40
42.0
 40
42.0
 40
42.0
 40
43.0
 40
43.0
 40
43.0
 40
44.0
 40
44.0
 40
44.0
 40
45.0
 40
45.0
 40
45.0
 40
46.0
 40
46.0
 40
46.0
 40
47.0
 40
47.0
 40
47.0
 40
48.0
 40
48.0
 40
48.0
 40
49.0
 40
49.0
 40
49.0
 40
50.0
 40
50.0
 40
50.0
 40
51.0
 40
51.0
 40
51.0
 40
52.0
 40
52.0
 40
52.0
 40
53.0
 40
53.0
 40
53.0
 40
54.0
 40
54.0
 40
54.0
 40
55.0
 40
55.0
 40
55.0
 40
56.0
 40
56.0
 40
56.0
 40
57.0
 40
57.0
 40
57.0
 40
58.0
 40
58.0
 40
58.0
 40
59.0
 40
59.0
 40
59.0
 40
60.0
 40
60.0
 40
60.0
 40
61.0
 40
61.0
 40
61.0
 40
62.0
 40
62.0
 40
62.0
 40
63.0
 40
63.0
 40
63.0
 40
64.0
 40
64.0
 40
64.0
 40
65.0
 40
65.0
 40
65.0
 40
66.0
 40
66.0
 40
66.0
 40
67.0
 40
67.0
 40
67.0
 40
68.0
 40
68.0
 40
68.0
 40
69.0
 40
69.0
 40
69.0
 40
70.0
 40
70.0
 40
70.0
 40
71.0
 40
71.0
 40
71.0
 40
72.0
 40
72.0
 40
72.0
 40
73.0
 40
73.0
 40
73.0
 40
74.0
 40
74.0
 40
74.0
 40
75.0
 40
75.0
 40
75.0
 40
76.0
 40
76.0
 40
76.0
 40
77.0
 40
77.0
 40
77.0
 40
78.0
 40
78.0
 40
78.0
 40
79.0
 40
79.0
 40
79.0
 40
80.0
 40
80.0
 40
80.0
 40
81.0
 40
81.0
 40
81.0
 40
82.0
 40
82.0
 40
82.0
 40
83.0
 40
83.0
 40
83.0
 40
84.0
 40
84.0
 40
84.0
 40
85.0
 40
85.0
 40
85.0
 40
86.0
 40
86.0
 40
86.0
 40
87.0
 40
87.0
 40
87.0
 40
88.0
 40
88.0
 40
88.0
 40
89.0
 40
89.0
 40
89.0
 40
90.0
 40
90.0
 40
90.0
 40
91.0
 40
91.0
 40
91.0
 40
92.0
 40
92.0
 40
92.0
 40
93.0
 40
93.0
 40
93.0
 40
94.0
 40
94.0
 40
94.0
 40
95.0
 40
95.0
 40
95.0
 40
96.0
 40
96.0
 40
96.0
 40
97.0
 40
97.0
 40
97.0
 40
98.0
 40
98.0
 40
98.0
 40
99.0
 40
99.0
 40
99.0
 40
100.0
 40
100.0
 40
100.0
 40
101.0
 40
101.0
 40
101.0
 40
102.0
 40
102.0
 40
102.0
 40
103.0
 40
103.0
 40
103.0
 40
104.0
 40
104.0
 40
104.0
 40
105.0
 40
105.0
 40
105.0
 40
106.0
 40
106.0
 40
106.0
 40
107.0
 40
107.0
 40
107.0
 40
108.0
 40
108.0
 40
108.0
 40
109.0
 40
109.0
 40
109.0
 40
110.0
 40
110.0
 40
110.0
 40
111.0
 40
111.0
 40
111.0
 40
112.0
 40
112.0
 40
112.0
 40
113.0
 40
113.0
 40
113.0
 40
114.0
 40
114.0
 40
114.0
 40
115.0
 40
115.0
 40
115.0
 40
115.0
 10
377.6680502325562
 20
-2438.457778401866
 10
368.7842344316541
 20
-2437.895104982567
 10
362.9079438417266
 20
-2434.705298803503
 10
357.0334424919256
 20
-2431.562081029297
 10
342.1213018113613
 20
-2423.583228804375
 10
328.1663193973709
 20
-2413.917140179125
 10
312.894762976046
 20
-2406.562017062829
 10
307.6716302347541
 20
-2404.046430644761
 10
306.285037297077
 20
-2398.679136270297
 10
304.5225335286978
 20
-2393.893924310429
 10
298.5938096828304
 20
-2377.797732674679
 10
291.6997993080931
 20
-2362.194834542219
 10
283.0015191882722
 20
-2347.370093981814
 10
280.4022474533613
 20
-2342.940071747928
 10
277.8965955781004
 20
-2340.236410631833
 10
272.5696357882389
 20
-2342.925868589389
 10
271.6518408044812
 20
-2343.389247701778
 10
270.4174184795975
 20
-2343.622539053895
 10
269.2706177998352
 20
-2342.768534740799
 10
269.3355927770554
 20
-2342.299813468597
 10
269.2128168235122
 20
-2341.587235807334
 10
269.5102907750788
 20
-2341.274825960792
 10
276.0281517537642
 20
-2334.429678881932
 10
272.9615816185633
 20
-2328.10112802898
 10
268.9563590718299
 20
-2321.386859605389
 10
261.8956255979265
 20
-2309.550363063531
 10
254.807593431784
 20
-2297.765677803667
 10
245.9622036926794
 20
-2287.13784704904
 10
244.0777759898647
 20
-2284.873687209818
 10
242.6479686430011
 20
-2283.052377082566
 10
240.4960580612369
 20
-2287.160455376087
 10
229.7785267348609
 20
-2307.62068462586
 10
217.0023553585397
 20
-2326.855501652821
 10
204.9255127463421
 20
-2346.508072168907
 10
203.8916557196153
 20
-2348.190469100695
 10
201.184484284795
 20
-2349.81551662629
 10
203.0008015800722
 20
-2352.311890013456
 10
204.6233100887239
 20
-2354.541905186901
 10
207.209085840952
 20
-2355.071929233965
 10
209.946222787823
 20
-2355.219873831977
 10
213.6131596676878
 20
-2355.418087557397
 10
216.3054207681071
 20
-2353.328434011897
 10
219.1606305230434
 20
-2351.674596760624
 10
223.3799228708067
 20
-2349.230639589018
 10
227.6199704040537
 20
-2348.816123772505
 10
231.8741870150752
 20
-2351.259706055704
 10
234.8798803849659
 20
-2352.98614385522
 10
235.6223979977094
 20
-2355.188272443238
 10
232.7096684327535
 20
-2357.903060928891
 10
230.0790594350274
 20
-2360.354882236871
 10
226.9940856870835
 20
-2362.054455873889
 10
223.8728585260706
 20
-2363.701587734778
 10
221.6590317156897
 20
-2364.869876336454
 10
219.8699875520779
 20
-2366.332997630465
 10
218.8538866035724
 20
-2368.688506698413
 10
217.5723135412209
 20
-2371.659446208863
 10
216.1487259338482
 20
-2375.147356833635
 10
218.1159017324917
 20
-2377.71472897312
 10
220.1606538709657
 20
-2380.383406184618
 10
223.2039724046936
 20
-2377.49705513126
 10
225.7932755160346
 20
-2377.042673340659
 10
227.2369878147492
 20
-2376.78929989815
 10
228.5954556016495
 20
-2376.064027152168
 10
230.000775919334
 20
-2375.575717960661
 10
236.1972808508344
 20
-2373.422648632912
 10
239.9069379688062
 20
-2369.704675808446
 10
241.3509910751618
 20
-2362.72945949247
 10
244.8954587283606
 20
-2345.608783040187
 10
248.5702512244079
 20
-2328.573325539144
 10
247.5973135639451
 20
-2310.810925334668
 10
260.2143874121229
 20
-2315.505763627689
 10
266.6691478556259
 20
-2330.967090265067
 10
260.9114583256141
 20
-2342.453492155213
 10
255.299566305459
 20
-2353.648980640925
 10
251.2219391748786
 20
-2365.395376162052
 10
247.6107073043331
 20
-2377.340948190189
 10
246.9385664699603
 20
-2379.564309094396
 10
246.1993376509763
 20
-2381.660395384166
 10
248.2953216984515
 20
-2383.486170091547
 10
250.2709665670318
 20
-2385.207129408191
 10
252.5661867628569
 20
-2385.863030758355
 10
255.0348269280421
 20
-2384.855671525904
 10
259.1638478512523
 20
-2383.170786698316
 10
263.2562830739389
 20
-2381.388311602034
 10
267.3101218310057
 20
-2379.529171826358
 10
271.892638444946
 20
-2377.427615573912
 10
276.4894348991457
 20
-2375.512838950448
 10
281.6018903582353
 20
-2375.028414966078
 10
286.1673495496198
 20
-2374.59581078389
 10
288.9572690802652
 20
-2376.731294437241
 10
290.9428314512679
 20
-2380.571651286464
 10
292.5063546770307
 20
-2383.595739748911
 10
291.8990184160593
 20
-2385.46849478994
 10
288.503057693486
 20
-2386.360149827444
 10
283.8314710019349
 20
-2387.586733576529
 10
279.110586484765
 20
-2388.596086533693
 10
274.6257623818146
 20
-2390.533748390415
 10
271.9106842096644
 20
-2391.706808299099
 10
270.4867387542709
 20
-2393.318436523732
 10
270.2653841898627
 20
-2396.309074715977
 10
269.8536885565973
 20
-2401.871055456748
 10
269.2679254194536
 20
-2407.42255636249
 10
268.6362725331219
 20
-2412.964923623382
 10
268.2995716217938
 20
-2415.919436205423
 10
269.4471220783689
 20
-2417.054342698426
 10
272.3752731891891
 20
-2416.773483119476
 10
281.5278498977004
 20
-2415.895545589618
 10
290.9135049535525
 20
-2417.234323214922
 10
299.6346021451009
 20
-2412.64221286582
 10
304.6819633442956
 20
-2409.984526700824
 10
319.9321340859951
 20
-2416.468511399751
 10
322.3394799965081
 20
-2421.551538118831
 10
323.3579836388944
 20
-2423.702034348873
 10
321.982262465046
 20
-2424.651558524234
 10
320.5508022011108
 20
-2425.574908672578
 10
317.4909459764876
 20
-2427.548662058736
 10
313.9932882531157
 20
-2428.063605367577
 10
310.4707856525365
 20
-2428.531176413981
 10
298.7652359274743
 20
-2430.08493550076
 10
287.0466503100524
 20
-2428.244386782033
 10
275.3363292779813
 20
-2428.717052902706
 10
267.1491583810148
 20
-2429.04751703416
 10
267.1562812607644
 20
-2428.988812917578
 10
266.0223460695434
 20
-2437.287496075474
 10
264.8641964952567
 20
-2445.763279925282
 10
263.6556755512738
 20
-2454.232281702982
 10
262.5266650305002
 20
-2462.71191667916
 10
261.9533243319584
 20
-2467.0182086981
 10
259.7956541010226
 20
-2470.290217680759
 10
256.4969769202671
 20
-2473.02714162285
 10
246.5388502253609
 20
-2481.289579887867
 10
235.5462189692098
 20
-2487.831075876624
 10
223.7032300417431
 20
-2492.974749315854
 10
222.1749804070769
 20
-2493.638506282197
 10
220.5656611542272
 20
-2494.249012054253
 10
218.9337122738562
 20
-2494.515114662245
 10
214.3995221837558
 20
-2495.254394602373
 10
210.9765098544831
 20
-2493.524829892729
 10
208.6697703603113
 20
-2489.514904200518
 10
206.4481986962328
 20
-2485.653025348609
 10
208.7177560765067
 20
-2482.973459332909
 10
211.2927963879684
 20
-2480.802241998147
 10
219.3845922659221
 20
-2473.979562663179
 10
228.1583016374225
 20
-2468.005596602645
 10
235.4474614343362
 20
-2460.183447732172
 10
241.9292394037711
 20
-2453.227683012447
 10
246.9288364117401
 20
-2445.656487850214
 10
249.0444339390943
 20
-2436.254184340978
 10
249.8667175807804
 20
-2432.599686940099
 10
248.8754444690985
 20
-2431.524626269282
 10
245.2567318707788
 20
-2431.991004488933
 10
238.6158648933906
 20
-2432.84687472388
 10
231.9577189684805
 20
-2433.624478483511
 10
225.2844156236297
 20
-2434.151435261782
 10
221.4592502751093
 20
-2434.453493076155
 10
219.3866797127394
 20
-2436.315785322527
 10
217.7553016851689
 20
-2439.688741529171
 10
211.6033573530458
 20
-2452.408330316496
 10
206.6548133300621
 20
-2465.700714510127
 10
199.5666704014347
 20
-2477.971493711819
 10
198.6369641905421
 20
-2479.580974848297
 10
197.6803767767724
 20
-2481.181083774584
 10
196.6349067295941
 20
-2482.716541490907
 10
189.3668088450486
 20
-2493.39087544848
 10
179.3995911062538
 20
-2494.942691931691
 10
168.8725627323638
 20
-2487.27985359414
 10
161.2084421060554
 20
-2481.701002875016
 10
155.9853945666746
 20
-2473.917297106724
 10
150.0439671158947
 20
-2466.805715132421
 10
147.0487706214207
 20
-2463.220640248506
 10
144.1758729497905
 20
-2461.697383445815
 10
139.2150470713586
 20
-2462.367564636239
 10
125.8417040220283
 20
-2464.174151873296
 10
118.0296835287099
 20
-2457.872567425133
 10
115.3151804694589
 20
-2444.213678691755
 10
114.7409568661151
 20
-2441.324294450373
 10
115.8168216299691
 20
-2440.498466409197
 10
118.126242854285
 20
-2441.884224368147
 10
132.9138758524623
 20
-2450.757526253248
 10
146.5829717747638
 20
-2445.61935685746
 10
160.4884646588343
 20
-2439.199239510912
 10
174.8405305783762
 20
-2432.57293354009
 10
189.4240730493347
 20
-2426.44243452893
 10
203.4542802304222
 20
-2419.133456767551
 10
209.6682685940304
 20
-2415.896295366434
 10
209.7843050764295
 20
-2414.625287341027
 10
204.9723311963589
 20
-2409.425619205984
 10
199.0217530603568
 20
-2402.995618437774
 10
195.5251518406785
 20
-2402.685653886074
 10
187.886331921798
 20
-2408.395647386391
 10
182.5299093111589
 20
-2412.399574864081
 10
177.5950742756304
 20
-2416.984869060314
 10
172.123535363231
 20
-2420.812445622909
 10
166.801585445728
 20
-2424.53539423897
 10
160.9904018959805
 20
-2424.238533741162
 10
156.4424857780414
 20
-2421.059207397135
 10
154.2350959720224
 20
-2419.516047428064
 10
153.5916767018006
 20
-2418.371666482574
 10
156.2851391491658
 20
-2416.636359164142
 10
170.1726416497568
 20
-2407.68905089927
 10
182.7575858573491
 20
-2396.736822389245
 10
197.9325744329089
 20
-2389.761495310784
 10
202.0540464668175
 20
-2387.867030822869
 10
206.0042200589432
 20
-2379.415938486829
 10
205.2523217158177
 20
-2374.98864271409
 10
204.7739555873104
 20
-2372.171952743052
 10
202.4817770997015
 20
-2372.119076437177
 10
200.5528825196106
 20
-2372.101593005069
 10
192.2850509736327
 20
-2372.026717565807
 10
185.4112334517686
 20
-2375.254336352909
 10
179.9479420843436
 20
-2381.438052477592
 10
168.8532985803194
 20
-2393.995655391991
 10
157.7505779351468
 20
-2406.532469040143
 10
143.2427245816998
 20
-2415.408207699897
 10
132.7045241072464
 20
-2421.855334052187
 10
121.1931133262205
 20
-2425.463226007825
 10
108.7906364658938
 20
-2427.011208405049
 10
117.6397058625243
 20
-2419.445108317086
 10
126.5482600382438
 20
-2411.94725495972
 10
135.3250515888703
 20
-2404.29823637211
 10
151.9028896266954
 20
-2389.850548348011
 10
167.4493670537831
 20
-2374.397665220002
 10
181.3280681969827
 20
-2357.284673980079
 10
183.842589591166
 20
-2354.184159403592
 10
183.9803610810213
 20
-2352.209000185905
 10
181.1053589221937
 20
-2349.395181519265
 10
174.0652954318666
 20
-2342.504894468033
 10
167.2422071277269
 20
-2335.391242087297
 10
160.3929234960942
 20
-2328.308356116568
 10
156.4900966058285
 20
-2324.272418280971
 10
153.1209361443125
 20
-2319.831694687082
 10
151.1239993182116
 20
-2314.512667195117
 10
150.7521142777968
 20
-2313.522109779488
 10
150.3074412449332
 20
-2312.118246414482
 10
150.7256250037117
 20
-2311.366339551163
 10
151.5185139861478
 20
-2309.940724138314
 10
153.0387077801442
 20
-2310.775506900323
 10
154.2365870054655
 20
-2311.131088555097
 10
164.6489336073409
 20
-2314.221907154124
 10
173.0604411355944
 20
-2320.710586478339
 10
181.3474260711318
 20
-2327.335639981075
 10
185.2629821268765
 20
-2330.465924105212
 10
188.9540907888531
 20
-2333.893469176141
 10
192.5874069946931
 20
-2337.353799942366
 10
194.6217389394714
 20
-2339.291282875076
 10
195.992126473704
 20
-2339.568350968994
 10
197.8943272951237
 20
-2337.08991258406
 10
206.1940669567175
 20
-2326.275898613831
 10
213.7016333319207
 20
-2315.003694327579
 10
218.9142180766521
 20
-2302.336436553908
 10
219.3738823857257
 20
-2301.21939690161
 10
220.4993485070063
 20
-2299.981864706979
 10
219.2555795325006
 20
-2298.793366212047
 10
218.3104517757438
 20
-2297.890242997341
 10
217.1534098262982
 20
-2298.705437840041
 10
216.0924330313446
 20
-2298.888817912781
 10
209.3719959894061
 20
-2300.050358523118
 10
203.5876893824406
 20
-2303.57846740943
 10
197.4762074377849
 20
-2306.270421782972
 10
191.6700635810648
 20
-2308.827893460415
 10
185.8655044798888
 20
-2311.358961065684
 10
179.3439372180819
 20
-2311.255653748771
 10
177.2658966930339
 20
-2311.222740250605
 10
174.6657814592054
 20
-2310.97063631657
 10
173.9198983709884
 20
-2309.121328841409
 10
173.0736303913963
 20
-2307.023146584632
 10
175.8229767720895
 20
-2306.310142913813
 10
177.1919669949839
 20
-2305.311423155124
 10
187.2591521357844
 20
-2297.967146242079
 10
197.4414280177716
 20
-2290.780710128993
 10
207.513699712652
 20
-2283.443313270249
 10
214.4870586269699
 20
-2278.363400681012
 10
220.3916618118765
 20
-2272.215107250768
 10
225.2809138250905
 20
-2265.083149239481
 10
227.8143500434835
 20
-2261.387648419002
 10
230.8291855784101
 20
-2258.047441696845
 10
234.2959916898599
 20
-2255.240268779251
 10
238.5362011067391
 20
-2251.806855426714
 10
243.2395084697
 20
-2251.758294597619
 10
247.7558231989042
 20
-2254.73674678656
 10
252.1783647050161
 20
-2257.65336155865
 10
252.799094706379
 20
-2261.501529293053
 10
250.6494504954444
 20
-2266.381328154263
 10
249.3574487192036
 20
-2269.31418241056
 10
246.7283563154906
 20
-2272.840646899995
 10
248.4493667532825
 20
-2275.761274682087
 10
251.1523973752355
 20
-2280.348417759784
 10
254.8341423472102
 20
-2284.478201240096
 10
258.652397820757
 20
-2288.242868971809
 10
260.8487667596037
 20
-2290.408403339117
 10
261.6538736960592
 20
-2287.263068297429
 10
262.4374415894508
 20
-2285.880509670229
 10
267.879134272478
 20
-2276.278906111214
 10
271.240298534658
 20
-2265.804562338903
 10
274.9270022578403
 20
-2255.476627400161
 10
277.5545610271565
 20
-2248.11581066617
 10
280.1899583722716
 20
-2240.778583146226
 10
283.5861576601947
 20
-2233.712949497423
 10
285.2426532110858
 20
-2230.266736687825
 10
286.7240588351615
 20
-2230.117050243249
 10
289.2082227885057
 20
-2232.788007670881
 10
291.6265767859022
 20
-2235.388225679513
 10
293.8305968563418
 20
-2238.10652341887
 10
295.6656415316265
 20
-2241.156036131515
 10
299.3193039537782
 20
-2247.227834221167
 10
300.8796065473125
 20
-2252.702329639871
 10
294.3779168913079
 20
-2258.396513925627
 10
290.1596214059046
 20
-2262.090887950837
 10
289.4239369864136
 20
-2268.27000743243
 10
286.8860787888498
 20
-2273.223748771974
 10
282.2120042015031
 20
-2282.347194947162
 10
277.242057458514
 20
-2291.271353852857
 10
271.2938053346752
 20
-2299.614116219336
 10
269.5437580856651
 20
-2302.068646948081
 10
269.1751575789112
 20
-2304.104572168593
 10
271.0237493580225
 20
-2306.641365342273
 10
273.7608777846999
 20
-2310.397517142998
 10
276.3806320589811
 20
-2314.250143067382
 10
278.8493063049263
 20
-2318.187757897851
 10
281.059477953333
 20
-2321.713063641297
 10
282.9788895607471
 20
-2322.209458494146
 10
285.9766847135052
 20
-2318.810115255709
 10
291.1989313549256
 20
-2312.888369446338
 10
295.7928820653015
 20
-2306.571380492695
 10
298.5350714854849
 20
-2299.183199034984
 10
300.0623498183686
 20
-2295.068296068405
 10
302.1508701784533
 20
-2295.289748615009
 10
305.2816655140541
 20
-2296.881699458327
 10
310.0906488070523
 20
-2299.326994299938
 10
314.0541394578486
 20
-2302.662819513827
 10
315.9232308167102
 20
-2307.801082631717
 10
317.1887347986758
 20
-2311.280047055848
 10
316.9962977628147
 20
-2314.429978740629
 10
312.132734125722
 20
-2315.213060983131
 10
303.0513691743053
 20
-2316.67525357631
 10
298.4886875652137
 20
-2324.377267752474
 10
292.3655670395328
 20
-2329.904954724129
 10
290.8654851565934
 20
-2331.259162415487
 10
291.70622353217
 20
-2332.633622601056
 10
292.6441943284171
 20
-2333.848226961475
 10
306.7513814359645
 20
-2352.11627494632
 10
320.2192815659637
 20
-2371.344948915508
 10
339.3680191023868
 20
-2384.531324891653
 10
358.7769291938002
 20
-2397.896897526716
 10
365.7279055661402
 20
-2418.76252172844
 10
377.6680502325562
 20
-2438.457778401866
 97
        0
 97
        1
330
81
 75
     2
 76
     1
 98
        1
 10
0.0
 20
0.0
450
        0
451
        0
460
0.0
461
0.0
452
        0
462
0.0
453
        0
470

  0
SPLINE
  5
83
330
70
100
AcDbEntity
  8
Layer 1
100
AcDbSpline
210
0.0
220
0.0
230
1.0
 70
     9
 71
     3
 72
    29
 73
    25
 74
     0
 42
0.0000000001
 43
0.0000000001
 40
0.0
 40
0.0
 40
0.0
 40
0.0
 40
1.0
 40
1.0
 40
1.0
 40
2.0
 40
2.0
 40
2.0
 40
3.0
 40
3.0
 40
3.0
 40
4.0
 40
4.0
 40
4.0
 40
5.0
 40
5.0
 40
5.0
 40
6.0
 40
6.0
 40
6.0
 40
7.0
 40
7.0
 40
7.0
 40
8.0
 40
8.0
 40
8.0
 40
8.0
 10
297.917971085526
 20
-2448.612431824356
 30
0.0
 10
311.8124942235718
 20
-2448.879914703303
 30
0.0
 10
323.5491767268595
 20
-2452.889431426342
 30
0.0
 10
333.7934966403354
 20
-2461.045043535527
 30
0.0
 10
342.3369308073616
 20
-2467.846541675455
 30
0.0
 10
342.6017894674533
 20
-2479.566388281157
 30
0.0
 10
334.277221969036
 20
-2486.664423151637
 30
0.0
 10
327.7128748277883
 20
-2492.261541160446
 30
0.0
 10
319.9915368582424
 20
-2495.087535180148
 30
0.0
 10
311.3786120127206
 20
-2495.750303804325
 30
0.0
 10
307.5242990904972
 20
-2496.046908696404
 30
0.0
 10
305.1563505435679
 20
-2494.683439557335
 30
0.0
 10
303.3703480881722
 20
-2491.243548729523
 30
0.0
 10
299.178669679719
 20
-2483.17019054508
 30
0.0
 10
296.2500755189631
 20
-2474.481896089212
 30
0.0
 10
291.3639333754927
 20
-2466.754662147436
 30
0.0
 10
289.7762980089556
 20
-2464.243915197905
 30
0.0
 10
288.3080305195308
 20
-2461.652533159941
 30
0.0
 10
286.6258551127085
 20
-2459.207664327885
 30
0.0
 10
281.2282118175954
 20
-2451.362817668363
 30
0.0
 10
281.776281629378
 20
-2450.145248281446
 30
0.0
 10
291.5198528723613
 20
-2449.029375895327
 30
0.0
 10
293.9134983156091
 20
-2448.755264307718
 30
0.0
 10
296.3334370685461
 20
-2448.711061556362
 30
0.0
 10
297.917971085526
 20
-2448.612431824356
 30
0.0
  0
HATCH
  5
84
330
70
100
AcDbEntity
  8
Layer 1
 62
   118
420
  1005869
440
 33554687
100
AcDbHatch
 10
0.0
 20
0.0
 30
0.0
210
0.0
220
0.0
230
1.0
  2
SOLID
 70
     1
 71
     1
 91
        1
 92
        1
 93
        1
 72
     4
 94
        3
 73
     0
 74
     0
 95
       29
 96
       25
 40
0.0
 40
0.0
 40
0.0
 40
0.0
 40
1.0
 40
1.0
 40
1.0
 40
2.0
 40
2.0
 40
2.0
 40
3.0
 40
3.0
 40
3.0
 40
4.0
 40
4.0
 40
4.0
 40
5.0
 40
5.0
 40
5.0
 40
6.0
 40
6.0
 40
6.0
 40
7.0
 40
7.0
 40
7.0
 40
8.0
 40
8.0
 40
8.0
 40
8.0
 10
297.917971085526
 20
-2448.612431824356
 10
311.8124942235718
 20
-2448.879914703303
 10
323.5491767268595
 20
-2452.889431426342
 10
333.7934966403354
 20
-2461.045043535527
 10
342.3369308073616
 20
-2467.846541675455
 10
342.6017894674533
 20
-2479.566388281157
 10
334.277221969036
 20
-2486.664423151637
 10
327.7128748277883
 20
-2492.261541160446
 10
319.9915368582424
 20
-2495.087535180148
 10
311.3786120127206
 20
-2495.750303804325
 10
307.5242990904972
 20
-2496.046908696404
 10
305.1563505435679
 20
-2494.683439557335
 10
303.3703480881722
 20
-2491.243548729523
 10
299.178669679719
 20
-2483.17019054508
 10
296.2500755189631
 20
-2474.481896089212
 10
291.3639333754927
 20
-2466.754662147436
 10
289.7762980089556
 20
-2464.243915197905
 10
288.3080305195308
 20
-2461.652533159941
 10
286.6258551127085
 20
-2459.207664327885
 10
281.2282118175954
 20
-2451.362817668363
 10
281.776281629378
 20
-2450.145248281446
 10
291.5198528723613
 20
-2449.029375895327
 10
293.9134983156091
 20
-2448.755264307718
 10
296.3334370685461
 20
-2448.711061556362
 10
297.917971085526
 20
-2448.612431824356
 97
        0
 97
        1
330
83
 75
     2
 76
     1
 98
        1
 10
0.0
 20
0.0
450
        0
451
        0
460
0.0
461
0.0
452
        0
462
0.0
453
        0
470

  0
ENDSEC
  0
SECTION
  2
OBJECTS
  0
DICTIONARY
  5
C
330
0
100
AcDbDictionary
281
     1
  3
ACAD_COLOR
350
63
  3
ACAD_DETAILVIEWSTYLE
350
6A
  3
ACAD_GROUP
350
D
  3
ACAD_LAYOUT
350
62
  3
ACAD_MATERIAL
350
10
  3
ACAD_MLEADERSTYLE
350
66
  3
ACAD_MLINESTYLE
350
5F
  3
ACAD_PLOTSETTINGS
350
61
  3
ACAD_PLOTSTYLENAME
350
E
  3
ACAD_SCALELIST
350
42
  3
ACAD_SECTIONVIEWSTYLE
350
68
  3
ACAD_TABLESTYLE
350
64
  3
ACAD_VISUALSTYLE
350
29
  3
ACDB_RECOMPOSE_DATA
350
8D
  3
AcDbVariableDictionary
350
85
  0
DICTIONARY
  5
63
102
{ACAD_REACTORS
330
C
102
}
330
C
100
AcDbDictionary
281
     1
  0
DICTIONARY
  5
6A
102
{ACAD_REACTORS
330
C
102
}
330
C
100
AcDbDictionary
281
     1
  3
Imperial24
350
6B
  0
DICTIONARY
  5
D
102
{ACAD_REACTORS
330
C
102
}
330
C
100
AcDbDictionary
281
     1
  0
DICTIONARY
  5
62
102
{ACAD_REACTORS
330
C
102
}
330
C
100
AcDbDictionary
281
     1
  3
Layout1
350
6F
  3
Layout2
350
77
  3
Model
350
73
  0
DICTIONARY
  5
10
102
{ACAD_REACTORS
330
C
102
}
330
C
100
AcDbDictionary
281
     1
  3
ByBlock
350
19
  3
ByLayer
350
11
  3
Global
350
21
  0
DICTIONARY
  5
66
102
{ACAD_REACTORS
330
C
102
}
330
C
100
AcDbDictionary
281
     1
  3
Standard
350
67
  0
DICTIONARY
  5
5F
102
{ACAD_REACTORS
330
C
102
}
330
C
100
AcDbDictionary
281
     1
  3
Standard
350
60
  0
DICTIONARY
  5
61
102
{ACAD_REACTORS
330
C
102
}
330
C
100
AcDbDictionary
281
     1
  0
ACDBDICTIONARYWDFLT
  5
E
102
{ACAD_REACTORS
330
C
102
}
330
C
100
AcDbDictionary
281
     1
  3
Normal
350
F
100
AcDbDictionaryWithDefault
340
F
  0
DICTIONARY
  5
42
102
{ACAD_REACTORS
330
C
102
}
330
C
100
AcDbDictionary
281
     1
  3
A0
350
43
  3
A1
350
44
  3
A2
350
45
  3
A3
350
46
  3
A4
350
47
  3
A5
350
48
  3
A6
350
49
  3
A7
350
4A
  3
A8
350
4B
  3
A9
350
4C
  3
B0
350
4D
  3
B1
350
4E
  3
B2
350
4F
  3
B3
350
50
  3
B4
350
51
  3
B5
350
52
  3
B6
350
53
  0
DICTIONARY
  5
68
102
{ACAD_REACTORS
330
C
102
}
330
C
100
AcDbDictionary
281
     1
  3
Imperial24
350
69
  0
DICTIONARY
  5
64
102
{ACAD_REACTORS
330
C
102
}
330
C
100
AcDbDictionary
281
     1
  3
Standard
350
65
  0
DICTIONARY
  5
29
102
{ACAD_REACTORS
330
C
102
}
330
C
100
AcDbDictionary
281
     1
  3
2dWireframe
350
2F
  3
Basic
350
2E
  3
Brighten
350
35
  3
ColorChange
350
39
  3
Conceptual
350
32
  3
Dim
350
34
  3
EdgeColorOff
350
41
  3
Facepattern
350
38
  3
Flat
350
2A
  3
FlatWithEdges
350
2B
  3
Gouraud
350
2C
  3
GouraudWithEdges
350
2D
  3
Hidden
350
31
  3
JitterOff
350
3F
  3
Linepattern
350
37
  3
OverhangOff
350
40
  3
Realistic
350
33
  3
Shaded
350
3E
  3
Shaded with edges
350
3D
  3
Shades of Gray
350
3A
  3
Sketchy
350
3B
  3
Thicken
350
36
  3
Wireframe
350
30
  3
X-Ray
350
3C
  0
XRECORD
  5
8D
102
{ACAD_REACTORS
330
C
102
}
330
C
100
AcDbXrecord
280
     1
 90
        1
330
65
  0
DICTIONARY
  5
85
102
{ACAD_REACTORS
330
C
102
}
330
C
100
AcDbDictionary
281
     1
  3
CANNOSCALE
350
8A
  3
CMLEADERSTYLE
350
87
  3
CTABLESTYLE
350
86
  3
CVIEWDETAILSTYLE
350
88
  3
CVIEWSECTIONSTYLE
350
89
  0
ACDBDETAILVIEWSTYLE
  5
6B
102
{ACAD_REACTORS
330
6A
102
}
330
6A
100
AcDbModelDocViewStyle
 70
     0
  3
Imperial24
290
     1
300
Imperial24
 90
        0
100
AcDbDetailViewStyle
 70
     0
 71
     0
 90
        3
 71
     1
340
55
 62
   256
 40
0.24
340
0
 62
   256
 40
0.24
300

 40
0.36
280
     3
 71
     2
340
5D
 90
       25
 62
   256
 71
     3
340
55
 62
   256
 40
0.24
 90
        1
 40
0.75
 90
        1
300
%<\AcVar ViewType \f "%tc1">% %<\AcVar ViewDetailId>%\PSCALE %<\AcVar ViewScale \f "%sn">%
 71
     4
340
5D
 90
       25
 62
   256
340
5D
 90
       25
 62
   256
280
     0
  0
LAYOUT
  5
6F
102
{ACAD_REACTORS
330
62
102
}
330
62
100
AcDbPlotSettings
  1

  2

  4

  6

 40
0.0
 41
0.0
 42
0.0
 43
0.0
 44
0.0
 45
0.0
 46
0.0
 47
0.0
 48
0.0
 49
0.0
140
0.0
141
0.0
142
1.0
143
1.0
 70
   688
 72
     0
 73
     0
 74
     5
  7

 75
    16
147
1.0
 76
     0
 77
     2
 78
   300
148
0.0
149
0.0
100
AcDbLayout
  1
Layout1
 70
     1
 71
     1
 10
0.0
 20
0.0
 11
12.0
 21
9.0
 12
0.0
 22
0.0
 32
0.0
 14
0.0
 24
0.0
 34
0.0
 15
0.0
 25
0.0
 35
0.0
146
0.0
 13
0.0
 23
0.0
 33
0.0
 16
1.0
 26
0.0
 36
0.0
 17
0.0
 27
1.0
 37
0.0
 76
     0
330
6C
  0
LAYOUT
  5
77
102
{ACAD_REACTORS
330
62
102
}
330
62
100
AcDbPlotSettings
  1

  2

  4

  6

 40
0.0
 41
0.0
 42
0.0
 43
0.0
 44
0.0
 45
0.0
 46
0.0
 47
0.0
 48
0.0
 49
0.0
140
0.0
141
0.0
142
1.0
143
1.0
 70
   688
 72
     0
 73
     0
 74
     5
  7

 75
    16
147
1.0
 76
     0
 77
     2
 78
   300
148
0.0
149
0.0
100
AcDbLayout
  1
Layout2
 70
     1
 71
     2
 10
0.0
 20
0.0
 11
12.0
 21
9.0
 12
0.0
 22
0.0
 32
0.0
 14
0.0
 24
0.0
 34
0.0
 15
0.0
 25
0.0
 35
0.0
146
0.0
 13
0.0
 23
0.0
 33
0.0
 16
1.0
 26
0.0
 36
0.0
 17
0.0
 27
1.0
 37
0.0
 76
     0
330
74
  0
LAYOUT
  5
73
102
{ACAD_REACTORS
330
62
102
}
330
62
100
AcDbPlotSettings
  1

  2

  4

  6

 40
0.0
 41
0.0
 42
0.0
 43
0.0
 44
0.0
 45
0.0
 46
0.0
 47
0.0
 48
0.0
 49
0.0
140
0.0
141
0.0
142
1.0
143
1.0
 70
  1712
 72
     0
 73
     0
 74
     0
  7

 75
     0
147
1.0
 76
     0
 77
     2
 78
   300
148
0.0
149
0.0
100
AcDbLayout
  1
Model
 70
     1
 71
     0
 10
0.0
 20
0.0
 11
12.0
 21
9.0
 12
0.0
 22
0.0
 32
0.0
 14
0.0
 24
0.0
 34
0.0
 15
0.0
 25
0.0
 35
0.0
146
0.0
 13
0.0
 23
0.0
 33
0.0
 16
1.0
 26
0.0
 36
0.0
 17
0.0
 27
1.0
 37
0.0
 76
     0
330
70
  0
MATERIAL
  5
19
102
{ACAD_XDICTIONARY
360
1A
102
}
102
{ACAD_REACTORS
330
10
102
}
330
10
100
AcDbMaterial
  1
ByBlock
 72
     0
 43
0.0208333333333333
 43
0.0
 43
0.0
 43
0.0
 43
0.0
 43
0.0208333333333333
 43
0.0
 43
0.0
 43
0.0
 43
0.0
 43
1.0
 43
0.0
 43
0.0
 43
0.0
 43
0.0
 43
1.0
 77
     0
 47
0.0208333333333333
 47
0.0
 47
0.0
 47
0.0
 47
0.0
 47
0.0208333333333333
 47
0.0
 47
0.0
 47
0.0
 47
0.0
 47
1.0
 47
0.0
 47
0.0
 47
0.0
 47
0.0
 47
1.0
171
     0
 49
0.0208333333333333
 49
0.0
 49
0.0
 49
0.0
 49
0.0
 49
0.0208333333333333
 49
0.0
 49
0.0
 49
0.0
 49
0.0
 49
1.0
 49
0.0
 49
0.0
 49
0.0
 49
0.0
 49
1.0
175
     0
142
0.0208333333333333
142
0.0
142
0.0
142
0.0
142
0.0
142
0.0208333333333333
142
0.0
142
0.0
142
0.0
142
0.0
142
1.0
142
0.0
142
0.0
142
0.0
142
0.0
142
1.0
179
     0
144
0.0208333333333333
144
0.0
144
0.0
144
0.0
144
0.0
144
0.0208333333333333
144
0.0
144
0.0
144
0.0
144
0.0
144
1.0
144
0.0
144
0.0
144
0.0
144
0.0
144
1.0
147
0.0208333333333333
147
0.0
147
0.0
147
0.0
147
0.0
147
0.0208333333333333
147
0.0
147
0.0
147
0.0
147
0.0
147
1.0
147
0.0
147
0.0
147
0.0
147
0.0
147
1.0
  0
MATERIAL
  5
11
102
{ACAD_XDICTIONARY
360
12
102
}
102
{ACAD_REACTORS
330
10
102
}
330
10
100
AcDbMaterial
  1
ByLayer
 72
     0
 43
0.0208333333333333
 43
0.0
 43
0.0
 43
0.0
 43
0.0
 43
0.0208333333333333
 43
0.0
 43
0.0
 43
0.0
 43
0.0
 43
1.0
 43
0.0
 43
0.0
 43
0.0
 43
0.0
 43
1.0
 77
     0
 47
0.0208333333333333
 47
0.0
 47
0.0
 47
0.0
 47
0.0
 47
0.0208333333333333
 47
0.0
 47
0.0
 47
0.0
 47
0.0
 47
1.0
 47
0.0
 47
0.0
 47
0.0
 47
0.0
 47
1.0
171
     0
 49
0.0208333333333333
 49
0.0
 49
0.0
 49
0.0
 49
0.0
 49
0.0208333333333333
 49
0.0
 49
0.0
 49
0.0
 49
0.0
 49
1.0
 49
0.0
 49
0.0
 49
0.0
 49
0.0
 49
1.0
175
     0
142
0.0208333333333333
142
0.0
142
0.0
142
0.0
142
0.0
142
0.0208333333333333
142
0.0
142
0.0
142
0.0
142
0.0
142
1.0
142
0.0
142
0.0
142
0.0
142
0.0
142
1.0
179
     0
144
0.0208333333333333
144
0.0
144
0.0
144
0.0
144
0.0
144
0.0208333333333333
144
0.0
144
0.0
144
0.0
144
0.0
144
1.0
144
0.0
144
0.0
144
0.0
144
0.0
144
1.0
147
0.0208333333333333
147
0.0
147
0.0
147
0.0
147
0.0
147
0.0208333333333333
147
0.0
147
0.0
147
0.0
147
0.0
147
1.0
147
0.0
147
0.0
147
0.0
147
0.0
147
1.0
  0
MATERIAL
  5
21
102
{ACAD_XDICTIONARY
360
22
102
}
102
{ACAD_REACTORS
330
10
102
}
330
10
100
AcDbMaterial
  1
Global
 72
     0
 43
0.0208333333333333
 43
0.0
 43
0.0
 43
0.0
 43
0.0
 43
0.0208333333333333
 43
0.0
 43
0.0
 43
0.0
 43
0.0
 43
1.0
 43
0.0
 43
0.0
 43
0.0
 43
0.0
 43
1.0
 77
     0
 47
0.0208333333333333
 47
0.0
 47
0.0
 47
0.0
 47
0.0
 47
0.0208333333333333
 47
0.0
 47
0.0
 47
0.0
 47
0.0
 47
1.0
 47
0.0
 47
0.0
 47
0.0
 47
0.0
 47
1.0
171
     0
 49
0.0208333333333333
 49
0.0
 49
0.0
 49
0.0
 49
0.0
 49
0.0208333333333333
 49
0.0
 49
0.0
 49
0.0
 49
0.0
 49
1.0
 49
0.0
 49
0.0
 49
0.0
 49
0.0
 49
1.0
175
     0
142
0.0208333333333333
142
0.0
142
0.0
142
0.0
142
0.0
142
0.0208333333333333
142
0.0
142
0.0
142
0.0
142
0.0
142
1.0
142
0.0
142
0.0
142
0.0
142
0.0
142
1.0
179
     0
144
0.0208333333333333
144
0.0
144
0.0
144
0.0
144
0.0
144
0.0208333333333333
144
0.0
144
0.0
144
0.0
144
0.0
144
1.0
144
0.0
144
0.0
144
0.0
144
0.0
144
1.0
147
0.0208333333333333
147
0.0
147
0.0
147
0.0
147
0.0
147
0.0208333333333333
147
0.0
147
0.0
147
0.0
147
0.0
147
1.0
147
0.0
147
0.0
147
0.0
147
0.0
147
1.0
  0
MLEADERSTYLE
  5
67
102
{ACAD_REACTORS
330
66
102
}
330
66
100
AcDbMLeaderStyle
179
     2
170
     2
171
     1
172
     0
 90
        2
 40
0.0
 41
0.0
173
     1
 91
-1056964608
340
5B
 92
       -2
290
     1
 42
0.09
291
     1
 43
0.36
  3
Standard
 44
0.18
300

342
55
174
     1
178
     6
175
     1
176
     0
 93
-1056964608
 45
0.18
292
     0
297
     0
 46
0.18
 94
-1056964608
 47
1.0
 49
1.0
140
1.0
293
     1
141
0.0
294
     1
177
     0
142
1.0
295
     1
296
     0
143
0.125
271
     0
272
     9
273
     9
298
     1
  0
MLINESTYLE
  5
60
102
{ACAD_REACTORS
330
5F
102
}
330
5F
100
AcDbMlineStyle
  2
STANDARD
 70
     0
  3

 62
   256
 51
90.0
 52
90.0
 71
     2
 49
0.5
 62
   256
  6
BYLAYER
 49
-0.5
 62
   256
  6
BYLAYER
  0
ACDBPLACEHOLDER
  5
F
102
{ACAD_REACTORS
330
E
102
}
330
E
  0
SCALE
  5
43
102
{ACAD_REACTORS
330
42
102
}
330
42
100
AcDbScale
 70
     0
300
1:1
140
1.0
141
1.0
290
     1
  0
SCALE
  5
44
102
{ACAD_REACTORS
330
42
102
}
330
42
100
AcDbScale
 70
     0
300
1/128" = 1'-0"
140
0.0078125
141
12.0
290
     0
  0
SCALE
  5
45
102
{ACAD_REACTORS
330
42
102
}
330
42
100
AcDbScale
 70
     0
300
1/64" = 1'-0"
140
0.015625
141
12.0
290
     0
  0
SCALE
  5
46
102
{ACAD_REACTORS
330
42
102
}
330
42
100
AcDbScale
 70
     0
300
1/32" = 1'-0"
140
0.03125
141
12.0
290
     0
  0
SCALE
  5
47
102
{ACAD_REACTORS
330
42
102
}
330
42
100
AcDbScale
 70
     0
300
1/16" = 1'-0"
140
0.0625
141
12.0
290
     0
  0
SCALE
  5
48
102
{ACAD_REACTORS
330
42
102
}
330
42
100
AcDbScale
 70
     0
300
3/32" = 1'-0"
140
0.09375
141
12.0
290
     0
  0
SCALE
  5
49
102
{ACAD_REACTORS
330
42
102
}
330
42
100
AcDbScale
 70
     0
300
1/8" = 1'-0"
140
0.125
141
12.0
290
     0
  0
SCALE
  5
4A
102
{ACAD_REACTORS
330
42
102
}
330
42
100
AcDbScale
 70
     0
300
3/16" = 1'-0"
140
0.1875
141
12.0
290
     0
  0
SCALE
  5
4B
102
{ACAD_REACTORS
330
42
102
}
330
42
100
AcDbScale
 70
     0
300
1/4" = 1'-0"
140
0.25
141
12.0
290
     0
  0
SCALE
  5
4C
102
{ACAD_REACTORS
330
42
102
}
330
42
100
AcDbScale
 70
     0
300
3/8" = 1'-0"
140
0.375
141
12.0
290
     0
  0
SCALE
  5
4D
102
{ACAD_REACTORS
330
42
102
}
330
42
100
AcDbScale
 70
     0
300
1/2" = 1'-0"
140
0.5
141
12.0
290
     0
  0
SCALE
  5
4E
102
{ACAD_REACTORS
330
42
102
}
330
42
100
AcDbScale
 70
     0
300
3/4" = 1'-0"
140
0.75
141
12.0
290
     0
  0
SCALE
  5
4F
102
{ACAD_REACTORS
330
42
102
}
330
42
100
AcDbScale
 70
     0
300
1" = 1'-0"
140
1.0
141
12.0
290
     0
  0
SCALE
  5
50
102
{ACAD_REACTORS
330
42
102
}
330
42
100
AcDbScale
 70
     0
300
1-1/2" = 1'-0"
140
1.5
141
12.0
290
     0
  0
SCALE
  5
51
102
{ACAD_REACTORS
330
42
102
}
330
42
100
AcDbScale
 70
     0
300
3" = 1'-0"
140
3.0
141
12.0
290
     0
  0
SCALE
  5
52
102
{ACAD_REACTORS
330
42
102
}
330
42
100
AcDbScale
 70
     0
300
6" = 1'-0"
140
6.0
141
12.0
290
     0
  0
SCALE
  5
53
102
{ACAD_REACTORS
330
42
102
}
330
42
100
AcDbScale
 70
     0
300
1'-0" = 1'-0"
140
12.0
141
12.0
290
     0
  0
ACDBSECTIONVIEWSTYLE
  5
69
102
{ACAD_REACTORS
330
68
102
}
330
68
100
AcDbModelDocViewStyle
 70
     0
  3
Imperial24
290
     1
300
Imperial24
 90
        0
100
AcDbSectionViewStyle
 70
     0
 71
     0
 90
       78
 71
     1
340
55
 62
   256
 40
0.24
340
0
340
0
 62
   256
 40
0.24
300
I, O, Q, S, X, Z
 40
0.48
 90
        3
 40
0.18
 90
        1
 71
     2
340
5D
 90
       25
 62
   256
340
5D
 90
       50
 62
   256
 40
0.24
 40
0.0
 40
0.24
 71
     3
340
55
 62
   256
 40
0.24
 90
        1
 40
0.75
 90
        1
300
%<\AcVar ViewType \f "%tc1">% %<\AcVar ViewSectionStartId>%-%<\AcVar ViewSectionEndId>%\PSCALE %<\AcVar ViewScale \f "%sn">%
 71
     4
 62
   256
 62
   257
300
ANSI31
 40
1.0
 90
        0
290
     0
290
     0
 90
        6
 40
0.0
 40
1.570796326794896
 40
0.2617993877991494
 40
1.308996938995747
 40
-0.2617993877991494
 40
1.832595714594046
  0
TABLESTYLE
  5
65
102
{ACAD_XDICTIONARY
360
8B
102
}
102
{ACAD_REACTORS
330
64
102
}
330
64
100
AcDbTableStyle
280
     0
  3
Standard
 70
     0
 71
     0
 40
0.06
 41
0.06
280
     0
281
     0
  7
Standard
140
0.18
170
     2
 62
     0
 63
     7
283
     0
 90
      512
 91
        0
  1

274
    -2
284
     1
 64
     0
275
    -2
285
     1
 65
     0
276
    -2
286
     1
 66
     0
277
    -2
287
     1
 67
     0
278
    -2
288
     1
 68
     0
279
    -2
289
     1
 69
     0
  7
Standard
140
0.25
170
     5
 62
     0
 63
     7
283
     0
 90
      512
 91
        0
  1

274
    -2
284
     1
 64
     0
275
    -2
285
     1
 65
     0
276
    -2
286
     1
 66
     0
277
    -2
287
     1
 67
     0
278
    -2
288
     1
 68
     0
279
    -2
289
     1
 69
     0
  7
Standard
140
0.18
170
     5
 62
     0
 63
     7
283
     0
 90
      512
 91
        0
  1

274
    -2
284
     1
 64
     0
275
    -2
285
     1
 65
     0
276
    -2
286
     1
 66
     0
277
    -2
287
     1
 67
     0
278
    -2
288
     1
 68
     0
279
    -2
289
     1
 69
     0
  0
VISUALSTYLE
  5
2F
102
{ACAD_REACTORS
330
29
102
}
330
29
100
AcDbVisualStyle
  2
2dWireframe
 70
     4
177
     3
291
     0
 70
    58
 90
        0
176
     1
 90
        2
176
     1
 90
        0
176
     1
 90
        0
176
     1
 40
0.6
176
     1
 40
30.0
176
     1
 62
     7
420
 16777215
176
     1
 90
        1
176
     1
 90
        4
176
     1
 62
     7
176
     1
 62
   257
176
     1
 90
        1
176
     1
 90
        1
176
     1
 40
1.0
176
     1
 90
        0
176
     1
 62
   257
176
     1
 40
1.0
176
     1
 90
        1
176
     1
 90
        6
176
     1
 90
        2
176
     1
 62
     7
176
     1
 90
        5
176
     1
 90
        0
176
     1
 90
        0
176
     1
290
     0
176
     1
 90
        1
176
     1
 40
0.0
176
     1
 90
        0
176
     1
290
     1
176
     1
290
     1
176
     1
290
     0
176
     1
290
     0
176
     1
290
     0
176
     1
290
     0
176
     1
290
     0
176
     1
290
     0
176
     1
290
     0
176
     1
 90
       50
176
     1
 40
0.0
176
     1
 40
1.0
176
     1
 90
        0
176
     1
 62
    18
420
        0
176
     1
 90
       50
176
     1
 90
        3
176
     1
 62
     5
420
      255
176
     1
290
     0
176
     1
 90
       50
176
     1
 90
       50
176
     1
 90
       50
176
     1
290
     0
176
     1
 90
       50
176
     1
 62
   256
176
     0
 40
1.0
176
     0
 90
        2
176
     1
  1
strokes_ogs.tif
176
     1
290
     0
176
     1
 40
1.0
176
     1
 40
1.0
176
     1
  0
VISUALSTYLE
  5
2E
102
{ACAD_REACTORS
330
29
102
}
330
29
100
AcDbVisualStyle
  2
Basic
 70
     7
177
     3
291
     1
 70
    58
 90
        1
176
     1
 90
        0
176
     1
 90
        1
176
     1
 90
        0
176
     1
 40
0.6
176
     1
 40
30.0
176
     1
 62
     7
420
 16777215
176
     1
 90
        0
176
     1
 90
        4
176
     1
 62
     7
176
     1
 62
   257
176
     1
 90
        1
176
     1
 90
        1
176
     1
 40
1.0
176
     1
 90
        8
176
     1
 62
     7
176
     1
 40
1.0
176
     1
 90
        1
176
     1
 90
        6
176
     1
 90
        2
176
     1
 62
     7
176
     1
 90
        5
176
     1
 90
        0
176
     1
 90
        0
176
     1
290
     0
176
     1
 90
        1
176
     1
 40
0.0
176
     1
 90
        0
176
     1
290
     0
176
     1
290
     1
176
     1
290
     1
176
     1
290
     0
176
     1
290
     0
176
     1
290
     0
176
     1
290
     0
176
     1
290
     0
176
     1
290
     0
176
     1
 90
       50
176
     1
 40
0.0
176
     1
 40
1.0
176
     1
 90
        0
176
     1
 62
    18
420
        0
176
     1
 90
       50
176
     1
 90
        3
176
     1
 62
     5
420
      255
176
     1
290
     0
176
     1
 90
       50
176
     1
 90
       50
176
     1
 90
       50
176
     1
290
     0
176
     1
 90
       50
176
     1
 62
   256
176
     0
 40
1.0
176
     0
 90
        2
176
     1
  1
strokes_ogs.tif
176
     1
290
     0
176
     1
 40
1.0
176
     1
 40
1.0
176
     1
  0
VISUALSTYLE
  5
35
102
{ACAD_REACTORS
330
29
102
}
330
29
100
AcDbVisualStyle
  2
Brighten
 70
    12
177
     3
291
     1
 70
    58
 90
        2
176
     1
 90
        2
176
     1
 90
        0
176
     1
 90
        0
176
     1
 40
0.6
176
     1
 40
30.0
176
     1
 62
     7
420
 16777215
176
     1
 90
        1
176
     1
 90
        4
176
     1
 62
     7
176
     1
 62
   257
176
     1
 90
        1
176
     1
 90
        1
176
     1
 40
1.0
176
     1
 90
        8
176
     1
 62
     7
176
     1
 40
1.0
176
     1
 90
        1
176
     1
 90
        6
176
     1
 90
        2
176
     1
 62
     7
176
     1
 90
        5
176
     1
 90
        0
176
     1
 90
        0
176
     1
290
     0
176
     1
 90
        1
176
     1
 40
50.0
176
     1
 90
        0
176
     1
290
     0
176
     1
290
     1
176
     1
290
     1
176
     1
290
     0
176
     1
290
     0
176
     1
290
     0
176
     1
290
     0
176
     1
290
     0
176
     1
290
     0
176
     1
 90
       50
176
     1
 40
0.0
176
     1
 40
1.0
176
     1
 90
        0
176
     1
 62
    18
420
        0
176
     1
 90
       50
176
     1
 90
        3
176
     1
 62
     5
420
      255
176
     1
290
     0
176
     1
 90
       50
176
     1
 90
       50
176
     1
 90
       50
176
     1
290
     0
176
     1
 90
       50
176
     1
 62
   256
176
     0
 40
1.0
176
     0
 90
        2
176
     1
  1
strokes_ogs.tif
176
     1
290
     0
176
     1
 40
1.0
176
     1
 40
1.0
176
     1
  0
VISUALSTYLE
  5
39
102
{ACAD_REACTORS
330
29
102
}
330
29
100
AcDbVisualStyle
  2
ColorChange
 70
    16
177
     3
291
     1
 70
    58
 90
        2
176
     1
 90
        2
176
     1
 90
        3
176
     1
 90
        0
176
     1
 40
0.6
176
     1
 40
30.0
176
     1
 62
     8
420
  8421504
176
     1
 90
        1
176
     1
 90
        4
176
     1
 62
     7
176
     1
 62
   257
176
     1
 90
        1
176
     1
 90
        1
176
     1
 40
1.0
176
     1
 90
        8
176
     1
 62
     8
420
  8421504
176
     1
 40
1.0
176
     1
 90
        1
176
     1
 90
        6
176
     1
 90
        2
176
     1
 62
     7
176
     1
 90
        5
176
     1
 90
        0
176
     1
 90
        0
176
     1
290
     0
176
     1
 90
        1
176
     1
 40
0.0
176
     1
 90
        0
176
     1
290
     0
176
     1
290
     1
176
     1
290
     1
176
     1
290
     0
176
     1
290
     0
176
     1
290
     0
176
     1
290
     0
176
     1
290
     0
176
     1
290
     0
176
     1
 90
       50
176
     1
 40
0.0
176
     1
 40
1.0
176
     1
 90
        0
176
     1
 62
    18
420
        0
176
     1
 90
       50
176
     1
 90
        3
176
     1
 62
     5
420
      255
176
     1
290
     0
176
     1
 90
       50
176
     1
 90
       50
176
     1
 90
       50
176
     1
290
     0
176
     1
 90
       50
176
     1
 62
   256
176
     0
 40
1.0
176
     0
 90
        2
176
     1
  1
strokes_ogs.tif
176
     1
290
     0
176
     1
 40
1.0
176
     1
 40
1.0
176
     1
  0
VISUALSTYLE
  5
32
102
{ACAD_REACTORS
330
29
102
}
330
29
100
AcDbVisualStyle
  2
Conceptual
 70
     9
177
     3
291
     0
 70
    58
 90
        3
176
     1
 90
        2
176
     1
 90
        0
176
     1
 90
        0
176
     1
 40
0.6
176
     1
 40
30.0
176
     1
 62
     7
420
 16777215
176
     1
 90
        2
176
     1
 90
        2
176
     1
 62
     7
176
     1
 62
   257
176
     1
 90
        1
176
     1
 90
        1
176
     1
 40
179.0
176
     1
 90
        8
176
     1
 62
     7
176
     1
 40
1.0
176
     1
 90
        1
176
     1
 90
        6
176
     1
 90
        2
176
     1
 62
     7
176
     1
 90
        3
176
     1
 90
        0
176
     1
 90
        0
176
     1
290
     0
176
     1
 90
        1
176
     1
 40
0.0
176
     1
 90
        0
176
     1
290
     0
176
     1
290
     1
176
     1
290
     1
176
     1
290
     0
176
     1
290
     0
176
     1
290
     0
176
     1
290
     0
176
     1
290
     0
176
     1
290
     0
176
     1
 90
       50
176
     1
 40
0.0
176
     1
 40
1.0
176
     1
 90
        0
176
     1
 62
    18
420
        0
176
     1
 90
       50
176
     1
 90
        3
176
     1
 62
     5
420
      255
176
     1
290
     0
176
     1
 90
       50
176
     1
 90
       50
176
     1
 90
       50
176
     1
290
     0
176
     1
 90
       50
176
     1
 62
   256
176
     0
 40
1.0
176
     0
 90
        2
176
     1
  1
strokes_ogs.tif
176
     1
290
     0
176
     1
 40
1.0
176
     1
 40
1.0
176
     1
  0
VISUALSTYLE
  5
34
102
{ACAD_REACTORS
330
29
102
}
330
29
100
AcDbVisualStyle
  2
Dim
 70
    11
177
     3
291
     1
 70
    58
 90
        2
176
     1
 90
        2
176
     1
 90
        0
176
     1
 90
        0
176
     1
 40
0.6
176
     1
 40
30.0
176
     1
 62
     7
420
 16777215
176
     1
 90
        1
176
     1
 90
        4
176
     1
 62
     7
176
     1
 62
   257
176
     1
 90
        1
176
     1
 90
        1
176
     1
 40
1.0
176
     1
 90
        8
176
     1
 62
     7
176
     1
 40
1.0
176
     1
 90
        1
176
     1
 90
        6
176
     1
 90
        2
176
     1
 62
     7
176
     1
 90
        5
176
     1
 90
        0
176
     1
 90
        0
176
     1
290
     0
176
     1
 90
        1
176
     1
 40
-50.0
176
     1
 90
        0
176
     1
290
     0
176
     1
290
     1
176
     1
290
     1
176
     1
290
     0
176
     1
290
     0
176
     1
290
     0
176
     1
290
     0
176
     1
290
     0
176
     1
290
     0
176
     1
 90
       50
176
     1
 40
0.0
176
     1
 40
1.0
176
     1
 90
        0
176
     1
 62
    18
420
        0
176
     1
 90
       50
176
     1
 90
        3
176
     1
 62
     5
420
      255
176
     1
290
     0
176
     1
 90
       50
176
     1
 90
       50
176
     1
 90
       50
176
     1
290
     0
176
     1
 90
       50
176
     1
 62
   256
176
     0
 40
1.0
176
     0
 90
        2
176
     1
  1
strokes_ogs.tif
176
     1
290
     0
176
     1
 40
1.0
176
     1
 40
1.0
176
     1
  0
VISUALSTYLE
  5
41
102
{ACAD_REACTORS
330
29
102
}
330
29
100
AcDbVisualStyle
  2
EdgeColorOff
 70
    22
177
     3
291
     1
 70
    58
 90
        2
176
     0
 90
        2
176
     0
 90
        0
176
     0
 90
        0
176
     0
 40
0.6
176
     0
 40
30.0
176
     0
 62
     7
420
 16777215
176
     0
 90
        1
176
     0
 90
        4
176
     0
 62
     7
176
     0
 62
   257
176
     0
 90
        1
176
     0
 90
        1
176
     0
 40
1.0
176
     0
 90
        8
176
     2
 62
     7
176
     0
 40
1.0
176
     0
 90
        1
176
     0
 90
        6
176
     0
 90
        2
176
     0
 62
     7
176
     0
 90
        5
176
     0
 90
        0
176
     0
 90
        0
176
     0
290
     0
176
     0
 90
        1
176
     0
 40
0.0
176
     0
 90
        0
176
     0
290
     0
176
     0
290
     1
176
     0
290
     1
176
     0
290
     0
176
     0
290
     0
176
     0
290
     0
176
     0
290
     0
176
     0
290
     0
176
     0
290
     0
176
     0
 90
       50
176
     0
 40
0.0
176
     0
 40
1.0
176
     0
 90
        0
176
     0
 62
    18
420
        0
176
     0
 90
       50
176
     0
 90
        3
176
     0
 62
     5
420
      255
176
     0
290
     0
176
     0
 90
       50
176
     0
 90
       50
176
     0
 90
       50
176
     0
290
     0
176
     0
 90
       50
176
     0
 62
   256
176
     0
 40
1.0
176
     0
 90
        2
176
     0
  1
strokes_ogs.tif
176
     0
290
     0
176
     0
 40
1.0
176
     0
 40
1.0
176
     0
  0
VISUALSTYLE
  5
38
102
{ACAD_REACTORS
330
29
102
}
330
29
100
AcDbVisualStyle
  2
Facepattern
 70
    15
177
     3
291
     1
 70
    58
 90
        2
176
     1
 90
        2
176
     1
 90
        0
176
     1
 90
        0
176
     1
 40
0.6
176
     1
 40
30.0
176
     1
 62
     7
420
 16777215
176
     1
 90
        1
176
     1
 90
        4
176
     1
 62
     7
176
     1
 62
   257
176
     1
 90
        1
176
     1
 90
        1
176
     1
 40
1.0
176
     1
 90
        8
176
     1
 62
     7
176
     1
 40
1.0
176
     1
 90
        1
176
     1
 90
        6
176
     1
 90
        2
176
     1
 62
     7
176
     1
 90
        5
176
     1
 90
        0
176
     1
 90
        0
176
     1
290
     0
176
     1
 90
        1
176
     1
 40
0.0
176
     1
 90
        0
176
     1
290
     0
176
     1
290
     1
176
     1
290
     1
176
     1
290
     0
176
     1
290
     0
176
     1
290
     0
176
     1
290
     0
176
     1
290
     0
176
     1
290
     0
176
     1
 90
       50
176
     1
 40
0.0
176
     1
 40
1.0
176
     1
 90
        0
176
     1
 62
    18
420
        0
176
     1
 90
       50
176
     1
 90
        3
176
     1
 62
     5
420
      255
176
     1
290
     0
176
     1
 90
       50
176
     1
 90
       50
176
     1
 90
       50
176
     1
290
     0
176
     1
 90
       50
176
     1
 62
   256
176
     0
 40
1.0
176
     0
 90
        2
176
     1
  1
strokes_ogs.tif
176
     1
290
     0
176
     1
 40
1.0
176
     1
 40
1.0
176
     1
  0
VISUALSTYLE
  5
2A
102
{ACAD_REACTORS
330
29
102
}
330
29
100
AcDbVisualStyle
  2
Flat
 70
     0
177
     3
291
     1
 70
    58
 90
        2
176
     1
 90
        1
176
     1
 90
        1
176
     1
 90
        2
176
     1
 40
0.6
176
     1
 40
30.0
176
     1
 62
     7
420
 16777215
176
     1
 90
        0
176
     1
 90
        0
176
     1
 62
     7
176
     1
 62
   257
176
     1
 90
        1
176
     1
 90
        1
176
     1
 40
1.0
176
     1
 90
        8
176
     1
 62
     7
176
     1
 40
1.0
176
     1
 90
        1
176
     1
 90
        6
176
     1
 90
        2
176
     1
 62
     7
176
     1
 90
        5
176
     1
 90
        0
176
     1
 90
        0
176
     1
290
     0
176
     1
 90
       13
176
     1
 40
0.0
176
     1
 90
        0
176
     1
290
     0
176
     1
290
     1
176
     1
290
     1
176
     1
290
     0
176
     1
290
     0
176
     1
290
     0
176
     1
290
     0
176
     1
290
     0
176
     1
290
     0
176
     1
 90
       50
176
     1
 40
0.0
176
     1
 40
1.0
176
     1
 90
        0
176
     1
 62
    18
420
        0
176
     1
 90
       50
176
     1
 90
        3
176
     1
 62
     5
420
      255
176
     1
290
     0
176
     1
 90
       50
176
     1
 90
       50
176
     1
 90
       50
176
     1
290
     0
176
     1
 90
       50
176
     1
 62
   256
176
     0
 40
1.0
176
     0
 90
        2
176
     1
  1
strokes_ogs.tif
176
     1
290
     0
176
     1
 40
1.0
176
     1
 40
1.0
176
     1
  0
VISUALSTYLE
  5
2B
102
{ACAD_REACTORS
330
29
102
}
330
29
100
AcDbVisualStyle
  2
FlatWithEdges
 70
     1
177
     3
291
     1
 70
    58
 90
        2
176
     1
 90
        1
176
     1
 90
        1
176
     1
 90
        2
176
     1
 40
0.6
176
     1
 40
30.0
176
     1
 62
     7
420
 16777215
176
     1
 90
        1
176
     1
 90
        0
176
     1
 62
     7
176
     1
 62
   257
176
     1
 90
        1
176
     1
 90
        1
176
     1
 40
1.0
176
     1
 90
        0
176
     1
 62
   257
176
     1
 40
1.0
176
     1
 90
        1
176
     1
 90
        6
176
     1
 90
        2
176
     1
 62
     7
176
     1
 90
        5
176
     1
 90
        0
176
     1
 90
        0
176
     1
290
     0
176
     1
 90
       13
176
     1
 40
0.0
176
     1
 90
        0
176
     1
290
     0
176
     1
290
     1
176
     1
290
     1
176
     1
290
     0
176
     1
290
     0
176
     1
290
     0
176
     1
290
     0
176
     1
290
     0
176
     1
290
     0
176
     1
 90
       50
176
     1
 40
0.0
176
     1
 40
1.0
176
     1
 90
        0
176
     1
 62
    18
420
        0
176
     1
 90
       50
176
     1
 90
        3
176
     1
 62
     5
420
      255
176
     1
290
     0
176
     1
 90
       50
176
     1
 90
       50
176
     1
 90
       50
176
     1
290
     0
176
     1
 90
       50
176
     1
 62
   256
176
     0
 40
1.0
176
     0
 90
        2
176
     1
  1
strokes_ogs.tif
176
     1
290
     0
176
     1
 40
1.0
176
     1
 40
1.0
176
     1
  0
VISUALSTYLE
  5
2C
102
{ACAD_REACTORS
330
29
102
}
330
29
100
AcDbVisualStyle
  2
Gouraud
 70
     2
177
     3
291
     1
 70
    58
 90
        2
176
     1
 90
        2
176
     1
 90
        1
176
     1
 90
        2
176
     1
 40
0.6
176
     1
 40
30.0
176
     1
 62
     7
420
 16777215
176
     1
 90
        0
176
     1
 90
        0
176
     1
 62
     7
176
     1
 62
   257
176
     1
 90
        1
176
     1
 90
        1
176
     1
 40
1.0
176
     1
 90
        0
176
     1
 62
     7
176
     1
 40
1.0
176
     1
 90
        1
176
     1
 90
        6
176
     1
 90
        2
176
     1
 62
     7
176
     1
 90
        5
176
     1
 90
        0
176
     1
 90
        0
176
     1
290
     0
176
     1
 90
       13
176
     1
 40
0.0
176
     1
 90
        0
176
     1
290
     0
176
     1
290
     1
176
     1
290
     1
176
     1
290
     0
176
     1
290
     0
176
     1
290
     0
176
     1
290
     0
176
     1
290
     0
176
     1
290
     0
176
     1
 90
       50
176
     1
 40
0.0
176
     1
 40
1.0
176
     1
 90
        0
176
     1
 62
    18
420
        0
176
     1
 90
       50
176
     1
 90
        3
176
     1
 62
     5
420
      255
176
     1
290
     0
176
     1
 90
       50
176
     1
 90
       50
176
     1
 90
       50
176
     1
290
     0
176
     1
 90
       50
176
     1
 62
   256
176
     0
 40
1.0
176
     0
 90
        2
176
     1
  1
strokes_ogs.tif
176
     1
290
     0
176
     1
 40
1.0
176
     1
 40
1.0
176
     1
  0
VISUALSTYLE
  5
2D
102
{ACAD_REACTORS
330
29
102
}
330
29
100
AcDbVisualStyle
  2
GouraudWithEdges
 70
     3
177
     3
291
     1
 70
    58
 90
        2
176
     1
 90
        2
176
     1
 90
        1
176
     1
 90
        2
176
     1
 40
0.6
176
     1
 40
30.0
176
     1
 62
     7
420
 16777215
176
     1
 90
        1
176
     1
 90
        0
176
     1
 62
     7
176
     1
 62
   257
176
     1
 90
        1
176
     1
 90
        1
176
     1
 40
1.0
176
     1
 90
        0
176
     1
 62
   257
176
     1
 40
1.0
176
     1
 90
        1
176
     1
 90
        6
176
     1
 90
        2
176
     1
 62
     7
176
     1
 90
        5
176
     1
 90
        0
176
     1
 90
        0
176
     1
290
     0
176
     1
 90
       13
176
     1
 40
0.0
176
     1
 90
        0
176
     1
290
     0
176
     1
290
     1
176
     1
290
     1
176
     1
290
     0
176
     1
290
     0
176
     1
290
     0
176
     1
290
     0
176
     1
290
     0
176
     1
290
     0
176
     1
 90
       50
176
     1
 40
0.0
176
     1
 40
1.0
176
     1
 90
        0
176
     1
 62
    18
420
        0
176
     1
 90
       50
176
     1
 90
        3
176
     1
 62
     5
420
      255
176
     1
290
     0
176
     1
 90
       50
176
     1
 90
       50
176
     1
 90
       50
176
     1
290
     0
176
     1
 90
       50
176
     1
 62
   256
176
     0
 40
1.0
176
     0
 90
        2
176
     1
  1
strokes_ogs.tif
176
     1
290
     0
176
     1
 40
1.0
176
     1
 40
1.0
176
     1
  0
VISUALSTYLE
  5
31
102
{ACAD_REACTORS
330
29
102
}
330
29
100
AcDbVisualStyle
  2
Hidden
 70
     6
177
     3
291
     0
 70
    58
 90
        1
176
     1
 90
        2
176
     1
 90
        2
176
     1
 90
        0
176
     1
 40
0.6
176
     1
 40
30.0
176
     1
 62
     7
420
 16777215
176
     1
 90
        2
176
     1
 90
        2
176
     1
 62
     7
176
     1
 62
   257
176
     1
 90
        2
176
     1
 90
        1
176
     1
 40
40.0
176
     1
 90
        0
176
     1
 62
   257
176
     1
 40
1.0
176
     1
 90
        1
176
     1
 90
        6
176
     1
 90
        2
176
     1
 62
     7
176
     1
 90
        3
176
     1
 90
        0
176
     1
 90
        0
176
     1
290
     0
176
     1
 90
        1
176
     1
 40
0.0
176
     1
 90
        0
176
     1
290
     0
176
     1
290
     1
176
     1
290
     1
176
     1
290
     0
176
     1
290
     0
176
     1
290
     0
176
     1
290
     0
176
     1
290
     0
176
     1
290
     0
176
     1
 90
       50
176
     1
 40
0.0
176
     1
 40
1.0
176
     1
 90
        0
176
     1
 62
    18
420
        0
176
     1
 90
       50
176
     1
 90
        3
176
     1
 62
     5
420
      255
176
     1
290
     0
176
     1
 90
       50
176
     1
 90
       50
176
     1
 90
       50
176
     1
290
     0
176
     1
 90
       50
176
     1
 62
   256
176
     0
 40
1.0
176
     0
 90
        2
176
     1
  1
strokes_ogs.tif
176
     1
290
     0
176
     1
 40
1.0
176
     1
 40
1.0
176
     1
  0
VISUALSTYLE
  5
3F
102
{ACAD_REACTORS
330
29
102
}
330
29
100
AcDbVisualStyle
  2
JitterOff
 70
    20
177
     3
291
     1
 70
    58
 90
        2
176
     0
 90
        2
176
     0
 90
        0
176
     0
 90
        0
176
     0
 40
0.6
176
     0
 40
30.0
176
     0
 62
     7
420
 16777215
176
     0
 90
        1
176
     0
 90
        4
176
     0
 62
     7
176
     0
 62
   257
176
     0
 90
        1
176
     0
 90
        1
176
     0
 40
1.0
176
     0
 90
       10
176
     2
 62
     7
176
     0
 40
1.0
176
     0
 90
        1
176
     0
 90
        6
176
     0
 90
        2
176
     0
 62
     7
176
     0
 90
        5
176
     0
 90
        0
176
     0
 90
        0
176
     0
290
     0
176
     0
 90
        1
176
     0
 40
0.0
176
     0
 90
        0
176
     0
290
     0
176
     0
290
     1
176
     0
290
     1
176
     0
290
     0
176
     0
290
     0
176
     0
290
     0
176
     0
290
     0
176
     0
290
     0
176
     0
290
     0
176
     0
 90
       50
176
     0
 40
0.0
176
     0
 40
1.0
176
     0
 90
        0
176
     0
 62
    18
420
        0
176
     0
 90
       50
176
     0
 90
        3
176
     0
 62
     5
420
      255
176
     0
290
     0
176
     0
 90
       50
176
     0
 90
       50
176
     0
 90
       50
176
     0
290
     0
176
     0
 90
       50
176
     0
 62
   256
176
     0
 40
1.0
176
     0
 90
        2
176
     0
  1
strokes_ogs.tif
176
     0
290
     0
176
     0
 40
1.0
176
     0
 40
1.0
176
     0
  0
VISUALSTYLE
  5
37
102
{ACAD_REACTORS
330
29
102
}
330
29
100
AcDbVisualStyle
  2
Linepattern
 70
    14
177
     3
291
     1
 70
    58
 90
        2
176
     1
 90
        2
176
     1
 90
        0
176
     1
 90
        0
176
     1
 40
0.6
176
     1
 40
30.0
176
     1
 62
     7
420
 16777215
176
     1
 90
        1
176
     1
 90
        4
176
     1
 62
     7
176
     1
 62
   257
176
     1
 90
        7
176
     1
 90
        7
176
     1
 40
1.0
176
     1
 90
        8
176
     1
 62
     7
176
     1
 40
1.0
176
     1
 90
        1
176
     1
 90
        6
176
     1
 90
        2
176
     1
 62
     7
176
     1
 90
        5
176
     1
 90
        0
176
     1
 90
        0
176
     1
290
     0
176
     1
 90
        1
176
     1
 40
0.0
176
     1
 90
        0
176
     1
290
     0
176
     1
290
     1
176
     1
290
     1
176
     1
290
     0
176
     1
290
     0
176
     1
290
     0
176
     1
290
     0
176
     1
290
     0
176
     1
290
     0
176
     1
 90
       50
176
     1
 40
0.0
176
     1
 40
1.0
176
     1
 90
        0
176
     1
 62
    18
420
        0
176
     1
 90
       50
176
     1
 90
        3
176
     1
 62
     5
420
      255
176
     1
290
     0
176
     1
 90
       50
176
     1
 90
       50
176
     1
 90
       50
176
     1
290
     0
176
     1
 90
       50
176
     1
 62
   256
176
     0
 40
1.0
176
     0
 90
        2
176
     1
  1
strokes_ogs.tif
176
     1
290
     0
176
     1
 40
1.0
176
     1
 40
1.0
176
     1
  0
VISUALSTYLE
  5
40
102
{ACAD_REACTORS
330
29
102
}
330
29
100
AcDbVisualStyle
  2
OverhangOff
 70
    21
177
     3
291
     1
 70
    58
 90
        2
176
     0
 90
        2
176
     0
 90
        0
176
     0
 90
        0
176
     0
 40
0.6
176
     0
 40
30.0
176
     0
 62
     7
420
 16777215
176
     0
 90
        1
176
     0
 90
        4
176
     0
 62
     7
176
     0
 62
   257
176
     0
 90
        1
176
     0
 90
        1
176
     0
 40
1.0
176
     0
 90
        9
176
     2
 62
     7
176
     0
 40
1.0
176
     0
 90
        1
176
     0
 90
        6
176
     0
 90
        2
176
     0
 62
     7
176
     0
 90
        5
176
     0
 90
        0
176
     0
 90
        0
176
     0
290
     0
176
     0
 90
        1
176
     0
 40
0.0
176
     0
 90
        0
176
     0
290
     0
176
     0
290
     1
176
     0
290
     1
176
     0
290
     0
176
     0
290
     0
176
     0
290
     0
176
     0
290
     0
176
     0
290
     0
176
     0
290
     0
176
     0
 90
       50
176
     0
 40
0.0
176
     0
 40
1.0
176
     0
 90
        0
176
     0
 62
    18
420
        0
176
     0
 90
       50
176
     0
 90
        3
176
     0
 62
     5
420
      255
176
     0
290
     0
176
     0
 90
       50
176
     0
 90
       50
176
     0
 90
       50
176
     0
290
     0
176
     0
 90
       50
176
     0
 62
   256
176
     0
 40
1.0
176
     0
 90
        2
176
     0
  1
strokes_ogs.tif
176
     0
290
     0
176
     0
 40
1.0
176
     0
 40
1.0
176
     0
  0
VISUALSTYLE
  5
33
102
{ACAD_REACTORS
330
29
102
}
330
29
100
AcDbVisualStyle
  2
Realistic
 70
     8
177
     3
291
     0
 70
    58
 90
        2
176
     1
 90
        3
176
     1
 90
        0
176
     1
 90
        2
176
     1
 40
0.6
176
     1
 40
30.0
176
     1
 62
     7
420
 16777215
176
     1
 90
        0
176
     1
 90
        0
176
     1
 62
     7
176
     1
 62
   257
176
     1
 90
        1
176
     1
 90
        1
176
     1
 40
1.0
176
     1
 90
        8
176
     1
 62
   257
176
     1
 40
1.0
176
     1
 90
        1
176
     1
 90
        6
176
     1
 90
        2
176
     1
 62
     7
176
     1
 90
        3
176
     1
 90
        0
176
     1
 90
        0
176
     1
290
     0
176
     1
 90
       13
176
     1
 40
0.0
176
     1
 90
        0
176
     1
290
     0
176
     1
290
     1
176
     1
290
     1
176
     1
290
     0
176
     1
290
     0
176
     1
290
     0
176
     1
290
     0
176
     1
290
     0
176
     1
290
     0
176
     1
 90
       50
176
     1
 40
0.0
176
     1
 40
1.0
176
     1
 90
        0
176
     1
 62
    18
420
        0
176
     1
 90
       50
176
     1
 90
        3
176
     1
 62
     5
420
      255
176
     1
290
     0
176
     1
 90
       50
176
     1
 90
       50
176
     1
 90
       50
176
     1
290
     0
176
     1
 90
       50
176
     1
 62
   256
176
     0
 40
1.0
176
     0
 90
        2
176
     1
  1
strokes_ogs.tif
176
     1
290
     0
176
     1
 40
1.0
176
     1
 40
1.0
176
     1
  0
VISUALSTYLE
  5
3E
102
{ACAD_REACTORS
330
29
102
}
330
29
100
AcDbVisualStyle
  2
Shaded
 70
    27
177
     3
291
     0
 70
    58
 90
        2
176
     1
 90
        2
176
     1
 90
        1
176
     1
 90
        2
176
     1
 40
0.6
176
     1
 40
30.0
176
     1
 62
     7
420
 16777215
176
     1
 90
        0
176
     1
 90
        4
176
     1
 62
     7
176
     1
 62
   257
176
     1
 90
        1
176
     1
 90
        1
176
     1
 40
1.0
176
     1
 90
        8
176
     1
 62
   257
176
     1
 40
1.0
176
     1
 90
        1
176
     1
 90
        6
176
     1
 90
        2
176
     1
 62
     8
420
  7895160
176
     1
 90
        3
176
     1
 90
        0
176
     1
 90
        0
176
     1
290
     0
176
     1
 90
        5
176
     1
 40
0.0
176
     1
 90
        0
176
     1
290
     0
176
     1
290
     1
176
     1
290
     1
176
     1
290
     0
176
     1
290
     0
176
     1
290
     0
176
     1
290
     0
176
     1
290
     0
176
     1
290
     0
176
     1
 90
       50
176
     1
 40
0.0
176
     1
 40
1.0
176
     1
 90
        0
176
     1
 62
    18
420
        0
176
     1
 90
       50
176
     1
 90
        3
176
     1
 62
     5
420
      255
176
     1
290
     0
176
     1
 90
       50
176
     1
 90
       50
176
     1
 90
       50
176
     1
290
     0
176
     1
 90
       50
176
     1
 62
   256
176
     0
 40
1.0
176
     0
 90
        2
176
     1
  1
strokes_ogs.tif
176
     1
290
     0
176
     1
 40
1.0
176
     1
 40
1.0
176
     1
  0
VISUALSTYLE
  5
3D
102
{ACAD_REACTORS
330
29
102
}
330
29
100
AcDbVisualStyle
  2
Shaded with edges
 70
    26
177
     3
291
     0
 70
    58
 90
        2
176
     1
 90
        2
176
     1
 90
        1
176
     1
 90
        2
176
     1
 40
0.6
176
     1
 40
30.0
176
     1
 62
     7
420
 16777215
176
     1
 90
        1
176
     1
 90
        2
176
     1
 62
     7
176
     1
 62
   257
176
     1
 90
        2
176
     1
 90
        1
176
     1
 40
1.0
176
     1
 90
        8
176
     1
 62
   257
176
     1
 40
1.0
176
     1
 90
        1
176
     1
 90
        6
176
     1
 90
        2
176
     1
 62
     7
176
     1
 90
        3
176
     1
 90
        0
176
     1
 90
        0
176
     1
290
     0
176
     1
 90
        5
176
     1
 40
0.0
176
     1
 90
        0
176
     1
290
     0
176
     1
290
     1
176
     1
290
     1
176
     1
290
     0
176
     1
290
     0
176
     1
290
     0
176
     1
290
     0
176
     1
290
     0
176
     1
290
     0
176
     1
 90
       50
176
     1
 40
0.0
176
     1
 40
1.0
176
     1
 90
        0
176
     1
 62
    18
420
        0
176
     1
 90
       50
176
     1
 90
        3
176
     1
 62
     5
420
      255
176
     1
290
     0
176
     1
 90
       50
176
     1
 90
       50
176
     1
 90
       50
176
     1
290
     0
176
     1
 90
       50
176
     1
 62
   256
176
     0
 40
1.0
176
     0
 90
        2
176
     1
  1
strokes_ogs.tif
176
     1
290
     0
176
     1
 40
1.0
176
     1
 40
1.0
176
     1
  0
VISUALSTYLE
  5
3A
102
{ACAD_REACTORS
330
29
102
}
330
29
100
AcDbVisualStyle
  2
Shades of Gray
 70
    23
177
     3
291
     0
 70
    58
 90
        2
176
     1
 90
        2
176
     1
 90
        3
176
     1
 90
        0
176
     1
 40
0.6
176
     1
 40
30.0
176
     1
 62
     7
420
 16777215
176
     1
 90
        2
176
     1
 90
        2
176
     1
 62
     7
176
     1
 62
     7
176
     1
 90
        1
176
     1
 90
        1
176
     1
 40
40.0
176
     1
 90
        8
176
     1
 62
     7
176
     1
 40
1.0
176
     1
 90
        1
176
     1
 90
        6
176
     1
 90
        2
176
     1
 62
     7
176
     1
 90
        3
176
     1
 90
        0
176
     1
 90
        0
176
     1
290
     0
176
     1
 90
        1
176
     1
 40
0.0
176
     1
 90
        0
176
     1
290
     0
176
     1
290
     1
176
     1
290
     1
176
     1
290
     0
176
     1
290
     0
176
     1
290
     0
176
     1
290
     0
176
     1
290
     0
176
     1
290
     0
176
     1
 90
       50
176
     1
 40
0.0
176
     1
 40
1.0
176
     1
 90
        0
176
     1
 62
    18
420
        0
176
     1
 90
       50
176
     1
 90
        3
176
     1
 62
     5
420
      255
176
     1
290
     0
176
     1
 90
       50
176
     1
 90
       50
176
     1
 90
       50
176
     1
290
     0
176
     1
 90
       50
176
     1
 62
   256
176
     0
 40
1.0
176
     0
 90
        2
176
     1
  1
strokes_ogs.tif
176
     1
290
     0
176
     1
 40
1.0
176
     1
 40
1.0
176
     1
  0
VISUALSTYLE
  5
3B
102
{ACAD_REACTORS
330
29
102
}
330
29
100
AcDbVisualStyle
  2
Sketchy
 70
    24
177
     3
291
     0
 70
    58
 90
        1
176
     1
 90
        2
176
     1
 90
        2
176
     1
 90
        0
176
     1
 40
0.6
176
     1
 40
30.0
176
     1
 62
     7
420
 16777215
176
     1
 90
        2
176
     1
 90
        2
176
     1
 62
     7
176
     1
 62
     7
176
     1
 90
        1
176
     1
 90
        1
176
     1
 40
40.0
176
     1
 90
       11
176
     1
 62
     7
176
     1
 40
1.0
176
     1
 90
        1
176
     1
 90
        6
176
     1
 90
        2
176
     1
 62
     7
176
     1
 90
        6
176
     1
 90
        0
176
     1
 90
        0
176
     1
290
     0
176
     1
 90
        1
176
     1
 40
0.0
176
     1
 90
        0
176
     1
290
     0
176
     1
290
     1
176
     1
290
     1
176
     1
290
     0
176
     1
290
     0
176
     1
290
     0
176
     1
290
     0
176
     1
290
     0
176
     1
290
     0
176
     1
 90
       50
176
     1
 40
0.0
176
     1
 40
1.0
176
     1
 90
        0
176
     1
 62
    18
420
        0
176
     1
 90
       50
176
     1
 90
        3
176
     1
 62
     5
420
      255
176
     1
290
     0
176
     1
 90
       50
176
     1
 90
       50
176
     1
 90
       50
176
     1
290
     0
176
     1
 90
       50
176
     1
 62
   256
176
     0
 40
1.0
176
     0
 90
        2
176
     1
  1
strokes_ogs.tif
176
     1
290
     0
176
     1
 40
1.0
176
     1
 40
1.0
176
     1
  0
VISUALSTYLE
  5
36
102
{ACAD_REACTORS
330
29
102
}
330
29
100
AcDbVisualStyle
  2
Thicken
 70
    13
177
     3
291
     1
 70
    58
 90
        2
176
     1
 90
        2
176
     1
 90
        0
176
     1
 90
        0
176
     1
 40
0.6
176
     1
 40
30.0
176
     1
 62
     7
420
 16777215
176
     1
 90
        1
176
     1
 90
        4
176
     1
 62
     7
176
     1
 62
   257
176
     1
 90
        1
176
     1
 90
        1
176
     1
 40
1.0
176
     1
 90
       12
176
     1
 62
     7
176
     1
 40
1.0
176
     1
 90
        1
176
     1
 90
        6
176
     1
 90
        2
176
     1
 62
     7
176
     1
 90
        5
176
     1
 90
        0
176
     1
 90
        0
176
     1
290
     0
176
     1
 90
        1
176
     1
 40
0.0
176
     1
 90
        0
176
     1
290
     0
176
     1
290
     1
176
     1
290
     1
176
     1
290
     0
176
     1
290
     0
176
     1
290
     0
176
     1
290
     0
176
     1
290
     0
176
     1
290
     0
176
     1
 90
       50
176
     1
 40
0.0
176
     1
 40
1.0
176
     1
 90
        0
176
     1
 62
    18
420
        0
176
     1
 90
       50
176
     1
 90
        3
176
     1
 62
     5
420
      255
176
     1
290
     0
176
     1
 90
       50
176
     1
 90
       50
176
     1
 90
       50
176
     1
290
     0
176
     1
 90
       50
176
     1
 62
   256
176
     0
 40
1.0
176
     0
 90
        2
176
     1
  1
strokes_ogs.tif
176
     1
290
     0
176
     1
 40
1.0
176
     1
 40
1.0
176
     1
  0
VISUALSTYLE
  5
30
102
{ACAD_REACTORS
330
29
102
}
330
29
100
AcDbVisualStyle
  2
Wireframe
 70
     5
177
     3
291
     0
 70
    58
 90
        0
176
     1
 90
        2
176
     1
 90
        0
176
     1
 90
        0
176
     1
 40
0.6
176
     1
 40
30.0
176
     1
 62
     7
420
 16777215
176
     1
 90
        1
176
     1
 90
        4
176
     1
 62
     7
176
     1
 62
   257
176
     1
 90
        1
176
     1
 90
        1
176
     1
 40
1.0
176
     1
 90
        0
176
     1
 62
   257
176
     1
 40
1.0
176
     1
 90
        1
176
     1
 90
        6
176
     1
 90
        2
176
     1
 62
     7
176
     1
 90
        3
176
     1
 90
        0
176
     1
 90
        0
176
     1
290
     0
176
     1
 90
        1
176
     1
 40
0.0
176
     1
 90
        0
176
     1
290
     0
176
     1
290
     1
176
     1
290
     1
176
     1
290
     0
176
     1
290
     0
176
     1
290
     0
176
     1
290
     0
176
     1
290
     0
176
     1
290
     0
176
     1
 90
       50
176
     1
 40
0.0
176
     1
 40
1.0
176
     1
 90
        0
176
     1
 62
    18
420
        0
176
     1
 90
       50
176
     1
 90
        3
176
     1
 62
     5
420
      255
176
     1
290
     0
176
     1
 90
       50
176
     1
 90
       50
176
     1
 90
       50
176
     1
290
     0
176
     1
 90
       50
176
     1
 62
   256
176
     0
 40
1.0
176
     0
 90
        2
176
     1
  1
strokes_ogs.tif
176
     1
290
     0
176
     1
 40
1.0
176
     1
 40
1.0
176
     1
  0
VISUALSTYLE
  5
3C
102
{ACAD_REACTORS
330
29
102
}
330
29
100
AcDbVisualStyle
  2
X-Ray
 70
    25
177
     3
291
     0
 70
    58
 90
        2
176
     1
 90
        2
176
     1
 90
        1
176
     1
 90
        1
176
     1
 40
0.5
176
     1
 40
30.0
176
     1
 62
     7
420
 16777215
176
     1
 90
        1
176
     1
 90
        0
176
     1
 62
     7
176
     1
 62
   257
176
     1
 90
        1
176
     1
 90
        1
176
     1
 40
1.0
176
     1
 90
        8
176
     1
 62
     7
176
     1
 40
1.0
176
     1
 90
        1
176
     1
 90
        6
176
     1
 90
        2
176
     1
 62
     7
176
     1
 90
        3
176
     1
 90
        0
176
     1
 90
        0
176
     1
290
     0
176
     1
 90
       13
176
     1
 40
0.0
176
     1
 90
        0
176
     1
290
     0
176
     1
290
     1
176
     1
290
     1
176
     1
290
     0
176
     1
290
     0
176
     1
290
     0
176
     1
290
     0
176
     1
290
     0
176
     1
290
     0
176
     1
 90
       50
176
     1
 40
0.0
176
     1
 40
1.0
176
     1
 90
        0
176
     1
 62
    18
420
        0
176
     1
 90
       50
176
     1
 90
        3
176
     1
 62
     5
420
      255
176
     1
290
     0
176
     1
 90
       50
176
     1
 90
       50
176
     1
 90
       50
176
     1
290
     0
176
     1
 90
       50
176
     1
 62
   256
176
     0
 40
1.0
176
     0
 90
        2
176
     1
  1
strokes_ogs.tif
176
     1
290
     0
176
     1
 40
1.0
176
     1
 40
1.0
176
     1
  0
DICTIONARYVAR
  5
8A
102
{ACAD_REACTORS
330
85
102
}
330
85
100
DictionaryVariables
280
     0
  1
1:1
  0
DICTIONARYVAR
  5
87
102
{ACAD_REACTORS
330
85
102
}
330
85
100
DictionaryVariables
280
     0
  1
STANDARD
  0
DICTIONARYVAR
  5
86
102
{ACAD_REACTORS
330
85
102
}
330
85
100
DictionaryVariables
280
     0
  1
STANDARD
  0
DICTIONARYVAR
  5
88
102
{ACAD_REACTORS
330
85
102
}
330
85
100
DictionaryVariables
280
     0
  1
Imperial24
  0
DICTIONARYVAR
  5
89
102
{ACAD_REACTORS
330
85
102
}
330
85
100
DictionaryVariables
280
     0
  1
Imperial24
  0
DICTIONARY
  5
1A
330
19
100
AcDbDictionary
280
     1
281
     1
  3
BUMPTILE
360
1C
  3
DIFFUSETILE
360
1B
  3
OPACITYTILE
360
1F
  3
REFLECTIONTILE
360
1E
  3
REFRACTIONTILE
360
20
  3
SPECULARTILE
360
1D
  0
DICTIONARY
  5
12
330
11
100
AcDbDictionary
280
     1
281
     1
  3
BUMPTILE
360
14
  3
DIFFUSETILE
360
13
  3
OPACITYTILE
360
17
  3
REFLECTIONTILE
360
16
  3
REFRACTIONTILE
360
18
  3
SPECULARTILE
360
15
  0
DICTIONARY
  5
22
330
21
100
AcDbDictionary
280
     1
281
     1
  3
BUMPTILE
360
24
  3
DIFFUSETILE
360
23
  3
OPACITYTILE
360
27
  3
REFLECTIONTILE
360
26
  3
REFRACTIONTILE
360
28
  3
SPECULARTILE
360
25
  0
DICTIONARY
  5
8B
330
65
100
AcDbDictionary
280
     1
281
     1
  3
ACAD_ROUNDTRIP_2008_TABLESTYLE_CELLSTYLEMAP
360
8C
  0
XRECORD
  5
1C
102
{ACAD_REACTORS
330
1A
102
}
330
1A
100
AcDbXrecord
280
     1
270
     1
271
     1
  0
XRECORD
  5
1B
102
{ACAD_REACTORS
330
1A
102
}
330
1A
100
AcDbXrecord
280
     1
270
     1
271
     1
  0
XRECORD
  5
1F
102
{ACAD_REACTORS
330
1A
102
}
330
1A
100
AcDbXrecord
280
     1
270
     1
271
     1
  0
XRECORD
  5
1E
102
{ACAD_REACTORS
330
1A
102
}
330
1A
100
AcDbXrecord
280
     1
270
     1
271
     1
  0
XRECORD
  5
20
102
{ACAD_REACTORS
330
1A
102
}
330
1A
100
AcDbXrecord
280
     1
270
     1
271
     1
  0
XRECORD
  5
1D
102
{ACAD_REACTORS
330
1A
102
}
330
1A
100
AcDbXrecord
280
     1
270
     1
271
     1
  0
XRECORD
  5
14
102
{ACAD_REACTORS
330
12
102
}
330
12
100
AcDbXrecord
280
     1
270
     1
271
     1
  0
XRECORD
  5
13
102
{ACAD_REACTORS
330
12
102
}
330
12
100
AcDbXrecord
280
     1
270
     1
271
     1
  0
XRECORD
  5
17
102
{ACAD_REACTORS
330
12
102
}
330
12
100
AcDbXrecord
280
     1
270
     1
271
     1
  0
XRECORD
  5
16
102
{ACAD_REACTORS
330
12
102
}
330
12
100
AcDbXrecord
280
     1
270
     1
271
     1
  0
XRECORD
  5
18
102
{ACAD_REACTORS
330
12
102
}
330
12
100
AcDbXrecord
280
     1
270
     1
271
     1
  0
XRECORD
  5
15
102
{ACAD_REACTORS
330
12
102
}
330
12
100
AcDbXrecord
280
     1
270
     1
271
     1
  0
XRECORD
  5
24
102
{ACAD_REACTORS
330
22
102
}
330
22
100
AcDbXrecord
280
     1
270
     1
271
     1
  0
XRECORD
  5
23
102
{ACAD_REACTORS
330
22
102
}
330
22
100
AcDbXrecord
280
     1
270
     1
271
     1
  0
XRECORD
  5
27
102
{ACAD_REACTORS
330
22
102
}
330
22
100
AcDbXrecord
280
     1
270
     1
271
     1
  0
XRECORD
  5
26
102
{ACAD_REACTORS
330
22
102
}
330
22
100
AcDbXrecord
280
     1
270
     1
271
     1
  0
XRECORD
  5
28
102
{ACAD_REACTORS
330
22
102
}
330
22
100
AcDbXrecord
280
     1
270
     1
271
     1
  0
XRECORD
  5
25
102
{ACAD_REACTORS
330
22
102
}
330
22
100
AcDbXrecord
280
     1
270
     1
271
     1
  0
CELLSTYLEMAP
  5
8C
102
{ACAD_REACTORS
330
8B
102
}
330
8B
100
AcDbCellStyleMap
 90
        3
300
CELLSTYLE
  1
TABLEFORMAT_BEGIN
 90
        5
170
     1
 91
        0
 92
    32768
 62
   257
 93
        1
300
CONTENTFORMAT
  1
CONTENTFORMAT_BEGIN
 90
        0
 91
        0
 92
      512
 93
        0
300

 40
0.0
140
1.0
 94
        5
 62
     0
340
55
144
0.25
309
CONTENTFORMAT_END
171
     0
 94
        0
309
TABLEFORMAT_END
  1
CELLSTYLE_BEGIN
 90
        1
 91
        1
300
_TITLE
309
CELLSTYLE_END
300
CELLSTYLE
  1
TABLEFORMAT_BEGIN
 90
        5
170
     1
 91
        0
 92
        0
 62
   257
 93
        1
300
CONTENTFORMAT
  1
CONTENTFORMAT_BEGIN
 90
        0
 91
        0
 92
      512
 93
        0
300

 40
0.0
140
1.0
 94
        5
 62
     0
340
55
144
0.18
309
CONTENTFORMAT_END
171
     0
 94
        0
309
TABLEFORMAT_END
  1
CELLSTYLE_BEGIN
 90
        2
 91
        1
300
_HEADER
309
CELLSTYLE_END
300
CELLSTYLE
  1
TABLEFORMAT_BEGIN
 90
        5
170
     1
 91
        0
 92
        0
 62
   257
 93
        1
300
CONTENTFORMAT
  1
CONTENTFORMAT_BEGIN
 90
        0
 91
        0
 92
      512
 93
        0
300

 40
0.0
140
1.0
 94
        2
 62
     0
340
55
144
0.18
309
CONTENTFORMAT_END
171
     0
 94
        0
309
TABLEFORMAT_END
  1
CELLSTYLE_BEGIN
 90
        3
 91
        2
300
_DATA
309
CELLSTYLE_END
  0
ENDSEC
  0
EOF
