<?xml version="1.0" encoding="UTF-8"?>
<svg id="Layer_1" data-name="Layer 1" xmlns="http://www.w3.org/2000/svg" viewBox="0 0 500 500">
  <defs>
    <style>
      .cls-1 {
        fill: #fff;
      }

      .cls-2 {
        fill: #831618;
      }

      .cls-3 {
        fill: #0f592d;
      }
    </style>
  </defs>
  <g>
    <path d="M402.63,299.19c0-77.84,.02-155.7,0-233.54,0-10.31-3.95-18.92-11.49-25.92-7.18-6.67-15.82-9.34-25.47-9.32-20.07,.03-40.14,.03-60.21,.03-59.06,0-118.11-.02-177.16-.03-11.34,0-20.72,4.34-28.15,12.89-6.27,7.22-8.35,15.73-8.34,25.12,.08,59.52,.04,119.04,.04,178.55,0,49.66-.01,99.31,0,148.97,0,11.71-.06,23.43,.17,35.14,.17,8.21,3.52,15.25,9.04,21.3,8.08,8.86,18.27,11.9,30.02,11.88,72.97-.12,145.95-.03,218.92-.1,7.99-.01,16.05,.84,23.98-.63,17.04-3.17,28.65-17.63,28.66-35.57,.03-42.93-.01-85.85-.01-128.78Zm-2.43-51.84h-.05c0,59.4,0,118.79,0,178.2,0,5.01-.29,9.96-2.06,14.73-4.8,12.96-17.23,21.4-31.66,21.4-77.27,0-154.53-.02-231.79-.03-2.55,0-5.11,.06-7.66-.03-18.18-.65-31.86-14.28-32.59-32.44-.03-.93-.02-1.85-.02-2.78,0-119.38,.02-238.75-.03-358.13,0-9.73,2.62-18.27,9.62-25.26,6.96-6.93,15.36-10.01,25.14-10,56.96,.06,113.93,.03,170.89,.03,22.28,0,44.55-.09,66.82,.03,16.55,.09,29.64,10.91,32.75,26.74,.84,4.24,.62,8.55,.63,12.84,0,58.24,0,116.48,0,174.72Z"/>
    <path class="cls-1" d="M400.2,247.35h-.05c0,59.4,0,118.79,0,178.2,0,5.01-.29,9.96-2.06,14.73-4.8,12.96-17.23,21.4-31.66,21.4-77.27,0-154.53-.02-231.79-.03-2.55,0-5.11,.06-7.66-.03-18.18-.65-31.86-14.28-32.59-32.44-.03-.93-.02-1.85-.02-2.78,0-119.38,.02-238.75-.03-358.13,0-9.73,2.62-18.27,9.62-25.26,6.96-6.93,15.36-10.01,25.14-10,56.96,.06,113.93,.03,170.89,.03,22.28,0,44.55-.09,66.82,.03,16.55,.09,29.64,10.91,32.75,26.74,.84,4.24,.62,8.55,.63,12.84,0,58.24,0,116.48,0,174.72Z"/>
  </g>
  <g>
    <g>
      <path class="cls-3" d="M332.22,195.07c-14.34-7.48-32.15-5.07-44.37,4.45,.88-15.5-7.31-31.4-21.75-38.93-14.59-7.61-32.77-4.98-45,4.96,1.22-15.75-7-32.07-21.69-39.73-19.23-10.03-44.72-2.29-54.57,16.58-10.15,19.43-2.13,45.12,17.21,55.14,14.92,7.73,32.91,5.02,45.2-5.33-1.27,16.01,6.87,32.53,21.48,40.11,14.67,7.6,32.3,5.11,44.58-4.82-.94,15.75,7.17,31.85,21.54,39.3,19.69,10.21,44.74,2.22,54.98-17.52,9.87-19.03,1.71-44.12-17.61-54.2Zm-167.96-3.76c-16.51-9.02-22.24-29.06-13.12-45.83,9.21-16.94,28.32-22.55,45.54-13.37,17.13,9.13,22.95,28.23,13.8,45.32-9.23,17.23-29.15,23.21-46.22,13.88Zm66.69,34.78c-16.51-9.02-22.24-29.06-13.12-45.83,9.21-16.94,28.32-22.55,45.54-13.37,17.13,9.13,22.95,28.23,13.8,45.32-9.23,17.23-29.15,23.21-46.22,13.88Zm66.12,34.48c-16.51-9.02-22.24-29.06-13.12-45.83,9.21-16.94,28.32-22.55,45.54-13.37,17.13,9.13,22.95,28.23,13.8,45.32-9.23,17.23-29.15,23.21-46.22,13.88Z"/>
      <path class="cls-3" d="M328.68,205.32c-14.18-8.42-32.85-3.65-40.96,10.47-8.03,13.98-3.01,32.96,10.89,41.17,13.51,7.98,32.81,2.57,40.98-11.49,7.97-13.72,3.04-31.88-10.91-40.16Zm-3.32,2.63c3.76,1.9,7.71,4.82,5.51,9.62-2.36,5.16-7.04,4.34-11.46,2.25-4.19-2.35-7.68-5.6-5-10.58,2.54-4.73,7.21-3.18,10.95-1.28Zm-31.3,7.59c2.63-3.79,5.7-8.46,11.17-6.04,3.8,1.68,3.31,5.72,1.57,9.22-2.98,3.57-5.65,8.37-11.33,5.8-4.18-1.89-3.6-5.83-1.41-8.98Zm1.19,31.87c-4.7-3.52-8.08-8.19-5.54-14.36,1.35-3.29,4.65-3.03,8.07-1.32,3.3,3.55,7.56,7.3,5.37,13.34-1.33,3.66-4.69,4.74-7.9,2.33Zm15.11-10.41c-4.23-2.31-5.84-6.03-3.21-10.26,2.26-3.65,6.21-4.67,9.99-2.55,4.13,2.31,4.86,6.24,3.35,10.5-2.82,3.79-6.31,4.4-10.13,2.32Zm14.97,14.81c-3.72,5.56-9.44,4.89-14.56,3.81-3.7-1.81-4.7-4.27-3.34-7.52,1.65-3.94,10.37-5.92,15.01-3.47,2.99,1.58,4.86,4.24,2.9,7.17Zm4.4-9.54c-5.62-2.9-3.92-8-2.33-12.47,1.37-3.86,4.58-6.12,8.32-3.69,4.65,3.03,2.84,7.77,1.76,11.74-1.8,3.4-4.04,6.34-7.75,4.42Z"/>
      <path class="cls-3" d="M314.3,229.34c-1.21-.42-2.32-.16-2.7,1.07-.2,.64,.1,1.76,.59,2.22,.95,.89,2.16,.63,2.86-.44,.7-1.08,.31-2.11-.75-2.84Z"/>
      <path class="cls-3" d="M195.87,136.07c-14.18-8.42-32.85-3.65-40.96,10.47-8.03,13.98-3.01,32.96,10.89,41.17,13.51,7.98,32.81,2.57,40.98-11.49,7.97-13.72,3.04-31.88-10.91-40.16Zm-3.32,2.63c3.76,1.9,7.71,4.82,5.51,9.62-2.36,5.16-7.04,4.34-11.46,2.25-4.19-2.35-7.68-5.6-5-10.58,2.54-4.73,7.21-3.18,10.95-1.28Zm-31.3,7.59c2.63-3.79,5.7-8.46,11.17-6.04,3.8,1.68,3.31,5.72,1.57,9.22-2.98,3.57-5.65,8.37-11.33,5.8-4.18-1.89-3.6-5.83-1.41-8.98Zm1.19,31.87c-4.7-3.52-8.07-8.19-5.54-14.36,1.35-3.29,4.65-3.03,8.07-1.32,3.3,3.55,7.56,7.3,5.37,13.34-1.33,3.66-4.69,4.74-7.9,2.33Zm15.11-10.41c-4.23-2.31-5.84-6.03-3.21-10.26,2.26-3.65,6.21-4.67,9.99-2.55,4.13,2.31,4.86,6.24,3.35,10.5-2.82,3.79-6.31,4.4-10.13,2.32Zm14.97,14.81c-3.72,5.56-9.44,4.89-14.56,3.81-3.7-1.81-4.7-4.27-3.34-7.52,1.65-3.94,10.37-5.92,15.01-3.47,2.99,1.58,4.86,4.24,2.9,7.17Zm12.15-13.96c-1.8,3.4-4.04,6.34-7.75,4.42-5.62-2.9-3.92-8-2.33-12.47,1.37-3.86,4.58-6.12,8.32-3.69,4.65,3.03,2.84,7.77,1.76,11.74Z"/>
      <path class="cls-3" d="M181.49,160.08c-1.21-.42-2.32-.16-2.7,1.07-.2,.64,.1,1.76,.59,2.22,.95,.89,2.16,.63,2.86-.44,.7-1.08,.31-2.11-.75-2.84Z"/>
      <path class="cls-3" d="M262.56,170.84c-14.18-8.42-32.85-3.65-40.96,10.47-8.03,13.98-3.01,32.96,10.89,41.17,13.51,7.98,32.81,2.57,40.98-11.49,7.97-13.72,3.04-31.88-10.91-40.16Zm-3.32,2.63c3.76,1.9,7.71,4.82,5.51,9.62-2.36,5.16-7.04,4.34-11.46,2.25-4.19-2.35-7.68-5.6-5-10.58,2.54-4.73,7.21-3.18,10.95-1.28Zm-31.3,7.59c2.63-3.79,5.7-8.46,11.17-6.04,3.8,1.68,3.31,5.72,1.57,9.22-2.98,3.57-5.65,8.37-11.33,5.8-4.18-1.89-3.6-5.83-1.41-8.98Zm1.19,31.87c-4.7-3.52-8.07-8.19-5.54-14.36,1.35-3.29,4.65-3.03,8.07-1.32,3.3,3.55,7.56,7.3,5.37,13.34-1.33,3.66-4.69,4.74-7.9,2.33Zm15.11-10.41c-4.23-2.31-5.84-6.03-3.21-10.26,2.26-3.65,6.21-4.67,9.99-2.55,4.13,2.31,4.86,6.24,3.35,10.5-2.82,3.79-6.31,4.4-10.13,2.32Zm14.97,14.81c-3.72,5.56-9.44,4.89-14.56,3.81-3.7-1.81-4.7-4.27-3.34-7.52,1.65-3.94,10.37-5.92,15.01-3.47,2.99,1.58,4.86,4.24,2.9,7.17Zm12.15-13.96c-1.8,3.4-4.04,6.34-7.75,4.42-5.62-2.9-3.92-8-2.33-12.47,1.37-3.86,4.58-6.12,8.32-3.69,4.65,3.03,2.84,7.77,1.76,11.74Z"/>
      <path class="cls-3" d="M248.18,194.86c-1.21-.42-2.32-.16-2.7,1.07-.2,.64,.1,1.76,.59,2.22,.95,.89,2.16,.63,2.86-.44,.7-1.08,.31-2.11-.75-2.84Z"/>
    </g>
    <g>
      <path class="cls-2" d="M246.42,303.39c.17-16.39-14.38-31.09-30.46-30.79-15.59,.29-29.36,14.32-29.34,29.88,.02,16.84,13.04,29.95,29.8,29.99,15.79,.04,29.85-13.59,30-29.09Zm-13-15.58c6.34,.58,6.96,6.1,7.77,10.63-.12,3.86-.49,7.52-4.85,7.39-7.25-.21-7.68-6.2-8.24-11.41-.38-3.56,1.49-6.96,5.33-6.61Zm-17.22-10.3c4.49,.44,9.61,.05,9.47,5.83-.13,5.06-4.5,6.35-8.94,6.33-4.64-.02-9.58-.85-9.44-6.62,.13-5.6,5.38-5.02,8.91-5.54Zm-24.17,20.8c.5-4.72,1.35-10,7.18-10.63,4.41-.48,5.69,3.25,5.73,7.15-1.05,4.85-1.06,10.69-7.86,10.98-4.92,.21-5.44-3.81-5.05-7.49Zm16.56,27.9c-5.93-.75-10.82-3.87-11.86-10.06-.66-3.94,3.04-5.99,6.41-5.44,5.47,.9,9.56,4.15,10.93,9.45-.22,4.01-2.01,6.49-5.48,6.05Zm7.55-16.02c-4.62-.32-7.71-3.42-7.35-8.25,.34-4.65,3.93-6.14,8.19-6.26,4.32,.46,7.6,2.47,7.35,7.1-.26,4.71-3.43,7.74-8.18,7.41Zm20.26,5.83c-.85,6.44-6.23,8.69-11.5,10.14-3.95-.11-6.11-2.01-5.77-5.5,.6-6.27,5.23-9.08,10.7-9.96,3.38-.55,7.09,1.4,6.57,5.32Z"/>
      <path class="cls-2" d="M216.41,300.39c-1.28,.26-2.03,1.12-1.73,2.34,.16,.64,1,1.43,1.65,1.56,1.25,.24,2.14-.6,2.17-1.87,.03-1.27-.8-1.97-2.09-2.04Z"/>
      <path class="cls-2" d="M291.62,332.47c15.79,.04,29.85-13.59,30-29.09,.17-16.39-14.38-31.09-30.46-30.79-15.59,.29-29.36,14.32-29.34,29.88,.02,16.84,13.04,29.95,29.8,29.99Zm-7.82-6.27c-5.93-.75-10.82-3.87-11.86-10.06-.66-3.94,3.04-5.99,6.41-5.44,5.47,.9,9.56,4.15,10.93,9.45-.22,4.01-2.01,6.49-5.48,6.05Zm7.55-16.02c-4.62-.32-7.71-3.42-7.35-8.25,.34-4.65,3.93-6.14,8.19-6.26,4.32,.46,7.6,2.47,7.35,7.1-.26,4.71-3.43,7.74-8.18,7.41Zm20.26,5.83c-.85,6.44-6.23,8.69-11.5,10.14-3.95-.11-6.11-2.01-5.77-5.5,.6-6.27,5.23-9.08,10.7-9.96,3.38-.55,7.09,1.4,6.57,5.32Zm-2.98-28.21c6.34,.58,6.96,6.1,7.77,10.63-.12,3.86-.49,7.52-4.85,7.39-7.25-.21-7.68-6.2-8.24-11.41-.38-3.56,1.49-6.96,5.33-6.61Zm-17.22-10.3c4.49,.44,9.61,.05,9.47,5.83-.13,5.06-4.5,6.35-8.94,6.33-4.64-.02-9.58-.85-9.44-6.62,.13-5.6,5.38-5.02,8.91-5.54Zm-24.17,20.8c.5-4.72,1.35-10,7.18-10.63,4.41-.48,5.69,3.25,5.73,7.15-1.05,4.85-1.06,10.69-7.86,10.98-4.92,.21-5.44-3.81-5.05-7.49Z"/>
      <path class="cls-2" d="M291.62,300.39c-1.28,.26-2.03,1.12-1.73,2.34,.16,.64,1,1.43,1.65,1.56,1.25,.24,2.14-.6,2.17-1.87,.03-1.27-.8-1.97-2.09-2.04Z"/>
      <path class="cls-2" d="M215.96,346.98c-15.59,.29-29.36,14.32-29.34,29.88,.02,16.84,13.04,29.95,29.8,29.99,15.79,.04,29.85-13.59,30-29.09,.17-16.39-14.38-31.09-30.46-30.79Zm.25,4.9c4.49,.44,9.61,.05,9.47,5.83-.13,5.06-4.5,6.35-8.94,6.33-4.64-.02-9.58-.85-9.44-6.62,.13-5.6,5.38-5.02,8.91-5.54Zm-24.17,20.8c.5-4.72,1.35-10,7.18-10.63,4.41-.48,5.69,3.25,5.73,7.15-1.05,4.85-1.06,10.69-7.86,10.98-4.92,.21-5.44-3.81-5.05-7.49Zm16.56,27.9c-5.93-.75-10.82-3.87-11.86-10.06-.66-3.94,3.04-5.99,6.41-5.44,5.47,.9,9.56,4.15,10.93,9.45-.22,4.01-2.01,6.49-5.48,6.05Zm7.55-16.02c-4.62-.32-7.71-3.42-7.35-8.25,.34-4.65,3.93-6.14,8.19-6.26,4.32,.46,7.6,2.47,7.35,7.1-.26,4.71-3.43,7.74-8.18,7.41Zm20.26,5.83c-.85,6.44-6.23,8.69-11.5,10.14-3.95-.11-6.11-2.01-5.77-5.5,.6-6.27,5.23-9.08,10.7-9.96,3.38-.55,7.09,1.4,6.57,5.32Zm4.79-17.58c-.12,3.86-.49,7.52-4.85,7.39-7.25-.21-7.68-6.2-8.24-11.41-.38-3.56,1.49-6.96,5.33-6.61,6.34,.58,6.96,6.1,7.77,10.63Z"/>
      <path class="cls-2" d="M216.41,374.76c-1.28,.26-2.03,1.12-1.73,2.34,.16,.64,1,1.43,1.65,1.56,1.25,.24,2.14-.6,2.17-1.87,.03-1.27-.8-1.97-2.09-2.04Z"/>
      <path class="cls-2" d="M307.09,339.82c14.54-6.22,25.15-20.63,25.32-37.03,.22-21.28-18.48-40.19-40.15-40.61-16.67-.33-31.91,10.53-38.2,25.35-6.18-14.32-20.76-25.04-37.01-25.35-21.62-.42-40.85,17.96-41.24,39.42-.3,16.79,10.23,31.9,24.92,38.28-14.14,6.19-24.63,20.31-24.92,36.1-.39,21.85,17.54,40.86,39.13,41.48,17.25,.5,32.75-10.36,39.15-25.51,5.98,14.41,20,25.04,36.06,25.51,22.48,.65,42.03-17.98,42.25-40.29,.17-16.19-10.62-30.99-25.32-37.34Zm-15.76-71.1c18.3-.2,34.09,15.37,34.12,33.66,.03,19.69-13.8,33.67-33.42,33.76-19.85,.1-33.98-13.65-33.98-33.05,0-19.37,14.33-34.17,33.28-34.37Zm-15.39,71.15c-9.74,4.26-17.74,12.29-21.87,22.03-4.21-9.75-12.32-17.82-22.19-22.09,9.94-4.25,18.03-12.33,22.22-22.25,4.12,9.92,12.05,18.05,21.85,22.3Zm-93.1-36.78c0-19.37,14.33-34.17,33.28-34.37,18.3-.2,34.09,15.37,34.12,33.66,.03,19.69-13.8,33.67-33.42,33.76-19.85,.1-33.98-13.65-33.98-33.05Zm33.98,107.43c-19.85,.1-33.98-13.65-33.98-33.05,0-19.37,14.33-34.17,33.28-34.37,18.3-.2,34.09,15.37,34.12,33.66,.03,19.69-13.8,33.67-33.42,33.76Zm75.21,0c-19.85,.1-33.98-13.65-33.98-33.05,0-19.37,14.33-34.17,33.28-34.37,18.3-.2,34.09,15.37,34.12,33.66,.03,19.69-13.8,33.67-33.42,33.76Z"/>
      <path class="cls-2" d="M291.17,346.98c-15.59,.29-29.36,14.32-29.34,29.88,.02,16.84,13.04,29.95,29.8,29.99,15.79,.04,29.85-13.59,30-29.09,.17-16.39-14.38-31.09-30.46-30.79Zm.25,4.9c4.49,.44,9.61,.05,9.47,5.83-.13,5.06-4.5,6.35-8.94,6.33-4.64-.02-9.58-.85-9.44-6.62,.13-5.6,5.38-5.02,8.91-5.54Zm-24.17,20.8c.5-4.72,1.35-10,7.18-10.63,4.41-.48,5.69,3.25,5.73,7.15-1.05,4.85-1.06,10.69-7.86,10.98-4.92,.21-5.44-3.81-5.05-7.49Zm16.56,27.9c-5.93-.75-10.82-3.87-11.86-10.06-.66-3.94,3.04-5.99,6.41-5.44,5.47,.9,9.56,4.15,10.93,9.45-.22,4.01-2.01,6.49-5.48,6.05Zm7.55-16.02c-4.62-.32-7.71-3.42-7.35-8.25,.34-4.65,3.93-6.14,8.19-6.26,4.32,.46,7.6,2.47,7.35,7.1-.26,4.71-3.43,7.74-8.18,7.41Zm20.26,5.83c-.85,6.44-6.23,8.69-11.5,10.14-3.95-.11-6.11-2.01-5.77-5.5,.6-6.27,5.23-9.08,10.7-9.96,3.38-.55,7.09,1.4,6.57,5.32Zm4.79-17.58c-.12,3.86-.49,7.52-4.85,7.39-7.25-.21-7.68-6.2-8.24-11.41-.38-3.56,1.49-6.96,5.33-6.61,6.34,.58,6.96,6.1,7.77,10.63Z"/>
      <path class="cls-2" d="M291.62,374.76c-1.28,.26-2.03,1.12-1.73,2.34,.16,.64,1,1.43,1.65,1.56,1.25,.24,2.14-.6,2.17-1.87,.03-1.27-.8-1.97-2.09-2.04Z"/>
    </g>
  </g>
  <polygon class="cls-2" points="123.42 54.23 123.42 61.33 149.25 61.33 149.25 61.52 126.35 117.41 133.74 117.41 156.72 59.87 156.72 54.23 123.42 54.23"/>
</svg>