<?xml version="1.0" encoding="UTF-8"?>
<svg id="Layer_1" data-name="Layer 1" xmlns="http://www.w3.org/2000/svg" viewBox="0 0 500 500">
  <defs>
    <style>
      .cls-1 {
        fill: #fff;
      }

      .cls-2 {
        fill: #831618;
      }
    </style>
  </defs>
  <g>
    <g>
      <path d="M412.83,293.71c0-77.84,.02-155.7,0-233.54,0-10.31-3.95-18.92-11.49-25.92-7.18-6.67-15.82-9.34-25.47-9.32-20.07,.03-40.14,.03-60.21,.03-59.06,0-118.11-.02-177.16-.03-11.34,0-20.72,4.34-28.15,12.89-6.27,7.22-8.35,15.73-8.34,25.12,.08,59.52,.04,119.04,.04,178.55,0,49.66-.01,99.31,0,148.97,0,11.71-.06,23.43,.17,35.14,.17,8.21,3.52,15.25,9.04,21.3,8.08,8.86,18.27,11.9,30.02,11.88,72.97-.12,145.95-.03,218.92-.1,7.99-.01,16.05,.84,23.98-.63,17.04-3.17,28.65-17.63,28.66-35.57,.03-42.93-.01-85.85-.01-128.78Zm-2.43-51.84h-.05c0,59.4,0,118.79,0,178.2,0,5.01-.29,9.96-2.06,14.73-4.8,12.96-17.23,21.4-31.66,21.4-77.27,0-154.53-.02-231.79-.03-2.55,0-5.11,.06-7.66-.03-18.18-.65-31.86-14.28-32.59-32.44-.03-.93-.02-1.85-.02-2.78,0-119.38,.02-238.75-.03-358.13,0-9.73,2.62-18.27,9.62-25.26,6.96-6.93,15.36-10.01,25.14-10,56.96,.06,113.93,.03,170.89,.03,22.28,0,44.55-.09,66.82,.03,16.55,.09,29.64,10.91,32.75,26.74,.84,4.24,.62,8.55,.63,12.84,0,58.24,0,116.48,0,174.72Z"/>
      <path class="cls-1" d="M410.4,241.87h-.05c0,59.4,0,118.79,0,178.2,0,5.01-.29,9.96-2.06,14.73-4.8,12.96-17.23,21.4-31.66,21.4-77.27,0-154.53-.02-231.79-.03-2.55,0-5.11,.06-7.66-.03-18.18-.65-31.86-14.28-32.59-32.44-.03-.93-.02-1.85-.02-2.78,0-119.38,.02-238.75-.03-358.13,0-9.73,2.62-18.27,9.62-25.26,6.96-6.93,15.36-10.01,25.14-10,56.96,.06,113.93,.03,170.89,.03,22.28,0,44.55-.09,66.82,.03,16.55,.09,29.64,10.91,32.75,26.74,.84,4.24,.62,8.55,.63,12.84,0,58.24,0,116.48,0,174.72Z"/>
    </g>
    <path class="cls-2" d="M140.7,68.06c-5.51,0-9.64,3.11-12.01,6.87h-.23c1.15-9.8,6.73-19.04,17.29-21.15,1.91-.37,3.67-.46,5.05-.37v-6.59c-1.22,0-2.91,.09-4.9,.46-6.27,.92-11.78,3.94-15.91,8.79-4.9,5.86-8.42,15.11-8.42,26.82,0,15.47,6.96,25.36,17.6,25.36s16.52-10.07,16.52-20.97c0-11.63-6.2-19.23-14.99-19.23Zm-1.53,33.97c-7.04,0-10.79-7.23-10.94-17.03,0-1.46,.31-2.66,.77-3.57,1.84-4.3,5.58-7.32,9.64-7.32,6.2,0,10.25,5.13,10.25,13.64s-3.9,14.28-9.72,14.28Z"/>
  </g>
  <g>
    <path class="cls-2" d="M208.29,333.35c.43-7.5,.87-15,1.3-22.5,.16-2.77,.89-5.08,4.14-5.56,21.08-3.11,41.26-10.12,62.11-14.22,3.39-.67,6.93-.96,10.38-.81,7.25,.3,9.85,3.95,7.85,10.92-4.69,16.33-7.32,32.86-6.19,49.94,.34,5.09,1.3,7.57,7.31,8.17,16.61,1.65,32.41,6.23,45.54,17.32,5.92,5,8.7,11.29,6.64,19.08-2.03,7.65-7.64,11.78-14.97,12.77-9.86,1.33-19.38,3.41-28.74,6.89-5.74,2.14-11.93,1.2-17.82-.84-13.16-4.55-26.3-9.11-38.48-15.99-2-1.13-4-1.57-5.56,.03-5.44,5.58-11.52,4.15-17.88,2.24-6.43-1.93-6.48-1.77-7.28,4.83-.16,1.27-.23,2.56-.45,3.82-.33,1.89-1.11,3.59-3.15,4.1-2.08,.52-3.53-.76-4.66-2.25-3.85-5.07-5.63-11.12-7.44-17.04-1.41-4.64-3.81-6.48-8.65-6.33-6.25,.2-12.4-1.09-18.4-2.86-2.86-.84-5.44-2.26-7.49-4.43-1.91-2.02-2.52-4.43-1.43-7.1,1.07-2.65,3.44-1.76,5.25-1.59,6.2,.57,12.37,1.35,18.55,2.16,4.62,.6,5.78-1.26,4.83-5.64-1.7-7.88-3.03-15.84-4.5-23.77-.41-2.19-.96-4.57,1.38-5.96,2.56-1.52,4.64,.21,6.37,1.78,4.57,4.17,6.2,9.85,7.38,15.63,.96,4.7,2.25,9.25,4.2,13.63,1.22,2.73,3.02,4,6.07,3.23,1.77-.45,3.6-.69,5.38-1.12,11.42-2.75,11.82-3.45,11.13-15.25-.18-3.16-1.37-3.59-4.14-3.08-4.6,.84-5.66,4.79-7.64,7.98-2.97,4.78-4.26,4.86-6.95-.14-3.41-6.32-3.85-13.28-3.66-20.32,.07-2.56,.01-5.13,.01-7.7h-.3Zm83.58,45.27c.05,2.81-.12,5.66-2.56,7.49-4.6,3.45-9.78,5.68-15.52,6.5-2.32,.33-3.93-.48-4.61-2.81-1.09-3.73-3.36-3.79-6.24-2.04-2.34,1.42-4.71,2.8-7.03,4.27-1.65,1.04-1.56,1.95-.05,3.35,9.75,8.98,23.55,10.31,34.1,2.54,4.68-3.45,9.61-5,15.21-5.31,3.84-.21,7.69-.62,11.26-2.19,3.48-1.53,5.37-4.3,5.71-8.08,.32-3.61-2.33-5.08-4.85-6.63-5.09-3.15-10.86-4.27-16.6-5.4-9.41-1.85-9.42-1.81-8.87,7.76,.01,.18,.02,.37,.05,.55Zm-47.53-20.78c.01,7.62,.03,7.68,6.61,6.06,3.71-.91,7.34-2.15,11.05-3.08,2.77-.69,3.69-2.3,3.76-5.11,.28-10.12,.08-10.35-9.79-7.64-1.58,.43-3.13,1.12-4.74,1.28-5.82,.59-7.8,3.87-6.9,8.48Zm20.17-28.62c-.88-.66,2.94-5.11-2.01-4.45-5.56,.75-11.13,2.13-16.42,4-4.87,1.72-3.19,6.57-2.89,9.99,.34,3.86,3.72,1.63,5.7,1.38,3.24-.41,6.39-1.47,9.61-1.99,4.6-.75,7.59-2.63,6-8.92Zm1.35-19.83c.65-3.94-.32-5.33-4.05-4.06-3.27,1.12-6.69,2.3-10.09,2.47-6.63,.33-7.68,4.64-8.33,9.83-.35,2.82,.76,3.2,3.06,2.71,3.93-.83,7.84-1.95,11.82-2.31,5.86-.53,8.67-3.14,7.59-8.66Zm-21.11,69.39c.14,4.06,1.72,6.33,5.87,4.94,4.33-1.45,8.64-3.03,12.8-4.91,3.03-1.37,2.22-4.48,1.77-6.83-.56-2.9-2.95-1.34-4.49-.95-4.26,1.08-8.45,2.41-12.67,3.62-2.2,.63-3.53,1.88-3.28,4.13Zm-12.06,7.29c-.47-5.12-1.93-6.13-7-4.7-2.8,.79-5.57,1.66-8.33,2.57-4.54,1.5-5.23,4.92-1.88,8.56,1.79,1.94,3.73,1.18,5.51,.43,4.04-1.7,8.87-1.84,11.78-5.81,.16-.22-.04-.7-.08-1.06Zm.11-68.96c-.35-1.6,1.49-5.2-2.29-4.37-3.47,.76-9.21-1.87-9.88,4.55-.26,2.46-1.35,6.2,3.41,6.54,6.11,.44,8.4-1.21,8.76-6.72Zm-1.08,20.11c-.46-1.88,1.17-5.15-3.22-5.17-5.79-.02-8.14,1.56-7.95,6.25,.11,2.52-1.27,6.26,3.61,6.32,6.02,.07,7.47-1.23,7.55-7.4Z"/>
    <path d="M201.01,149.53c10.48,.5,19.59-1.45,28.48-4.52,4.33-1.5,5.6-5.12,3.33-9.08-.27-.47-.57-.99-.99-1.31-7.93-6.1-10.47-14.22-11.53-24.07-.65-6.07,1.67-9.58,4.24-13.82,3.49-5.75,8.15-9.06,15.29-8.79,3.02,.11,5.13,.71,7.13,3,3.41,3.89,6.33,8.09,8.82,12.57,3.99,7.17,2.62,14.14-1.26,20.88-1.46,2.54-3.12,4.96-4.58,7.51-1.16,2.04-1.51,4.33,.1,6.19,1.63,1.88,3.47,.11,5.01-.48,12.81-4.95,25.69-9.75,38.3-15.18,7.72-3.32,14.89-3.85,22.75-.51,10.28,4.36,20.96,7.76,30.96,12.83,8.65,4.39,10.97,12.4,6.02,20.72-3.73,6.27-8.64,8.19-15.39,5.39-11.16-4.63-22.17-9.63-33.29-14.36-3.53-1.5-7.21-2.67-10.84-3.94-4.99-1.75-9.83-1.78-15.01-.1-22.99,7.45-45.84,15.36-69.32,21.28-10.59,2.67-20.3,1.41-29.59-4.03-1.36-.8-3.25-1.36-3.06-3.45,.18-1.95,1.92-2.52,3.42-3.18,7.02-3.09,14.31-4.54,20.99-3.55Z"/>
    <path class="cls-2" d="M307.65,280.3c-22.92-1.32-44.13,5.33-65.38,11.7-17.56,5.26-35.26,8.49-53.62,4.76-6.36-1.29-12.4-3.24-17.77-6.95-2.37-1.64-2.67-2.95,.27-4.66,6.37-3.69,12.96-4.56,20.11-3.04,11.83,2.53,23.64,5.05,35.92,3.14,4.83-.75,6.96-3.45,7.71-7.85,.45-2.65-.06-4.6-3.02-5.53-4.83-1.52-4.71-4.18-1.78-7.78,3.82-4.69,7.02-9.83,9.97-15.13,.7-1.26,1.57-2.47,2.56-3.51,1.67-1.74,3.85-2.28,6.05-1.34,2,.86,2,2.96,1.95,4.77-.17,7.4-1.93,14.47-4.31,21.46-.9,2.64-3.81,6.24,.37,8.16,3.98,1.83,5.2-2.56,6.75-4.89,4.07-6.11,7.06-12.81,9.36-19.8,1.54-4.69,.88-8.84-3.15-11.82-4.12-3.04-3.3-5.9-.39-9.07,3.8-4.13,8.5-6.89,13.6-9.06,2.91-1.24,4.9,.39,6.81,2.2,6.17,5.83,7.32,17.62,2.64,26.66-1.85,3.57-3.99,7.04-5.41,10.78-2.22,5.85-1.59,6.45,4.45,5.27,13.87-2.7,27.79-4.97,41.98-4.4,3.46,.14,6.97,.52,10.33,1.31,4.74,1.11,5.42,3.27,2.34,6.91-4.44,5.26-9.59,8.89-17.12,7.81-3.77-.54-7.68-.09-11.23-.09Z"/>
    <path d="M173.78,217.93c-4.49,.08-8.49-.26-12.39-1.45-1-.31-2.28-.55-2.2-1.98,.06-1.05,1.05-1.48,1.88-1.75,2.78-.91,5.56-1.85,8.4-2.55,13.59-3.33,26.53-8.39,38.91-14.84,7.39-3.85,7.73-5.27,4.41-12.75-.37-.84-.9-1.57-.53-2.55,4.87-12.92,22.67-22.83,33.76-11.54,3.59,3.66,7.23,7.24,10.52,11.19,2.33,2.79,2.08,5.22-.16,7.79-3.25,3.73-6.49,7.46-9.71,11.21-.86,1.01-1.84,1.81-3.18,1.99-18.64,2.58-35.76,10.63-53.91,14.96-5.35,1.28-10.67,2.67-15.81,2.27Z"/>
    <path d="M258.87,167.34c7.71-.72,14.26,.84,20.67,3.08,13.97,4.89,26.63,12.03,37.33,22.37,10.26,9.92,5.84,20.44-.23,28.49-2.16,2.87-4.31,1.59-6.62,.09-14.12-9.11-25.9-20.8-37-33.26-5.47-6.14-10.43-12.6-14.14-20.78Z"/>
  </g>
</svg>