  0
SECTION
  2
HEADER
  9
$ACADVER
  1
AC1032
  9
$ACADMAINTVER
 90
      228
  9
$DWGCODEPAGE
  3
ANSI_1252
  9
$REQUIREDVERSIONS
160
                 0
  9
$INSBASE
 10
0.0
 20
0.0
 30
0.0
  9
$EXTMIN
 10
1.000000000000000E+20
 20
1.000000000000000E+20
 30
1.000000000000000E+20
  9
$EXTMAX
 10
-1.000000000000000E+20
 20
-1.000000000000000E+20
 30
-1.000000000000000E+20
  9
$LIMMIN
 10
0.0
 20
0.0
  9
$LIMMAX
 10
12.0
 20
9.0
  9
$ORTHOMODE
 70
     0
  9
$REGENMODE
 70
     1
  9
$FILLMODE
 70
     1
  9
$QTEXTMODE
 70
     0
  9
$MIRRTEXT
 70
     0
  9
$LTSCALE
 40
1.0
  9
$ATTMODE
 70
     1
  9
$TEXTSIZE
 40
0.2
  9
$TRACEWID
 40
0.05
  9
$TEXTSTYLE
  7
Standard
  9
$CLAYER
  8
0
  9
$CELTYPE
  6
ByLayer
  9
$CECOLOR
 62
   256
  9
$CELTSCALE
 40
1.0
  9
$DISPSILH
 70
     0
  9
$DIMSCALE
 40
1.0
  9
$DIMASZ
 40
0.18
  9
$DIMEXO
 40
0.0625
  9
$DIMDLI
 40
0.38
  9
$DIMRND
 40
0.0
  9
$DIMDLE
 40
0.0
  9
$DIMEXE
 40
0.18
  9
$DIMTP
 40
0.0
  9
$DIMTM
 40
0.0
  9
$DIMTXT
 40
0.18
  9
$DIMCEN
 40
0.09
  9
$DIMTSZ
 40
0.0
  9
$DIMTOL
 70
     0
  9
$DIMLIM
 70
     0
  9
$DIMTIH
 70
     1
  9
$DIMTOH
 70
     1
  9
$DIMSE1
 70
     0
  9
$DIMSE2
 70
     0
  9
$DIMTAD
 70
     0
  9
$DIMZIN
 70
     0
  9
$DIMBLK
  1

  9
$DIMASO
 70
     1
  9
$DIMSHO
 70
     1
  9
$DIMPOST
  1

  9
$DIMAPOST
  1

  9
$DIMALT
 70
     0
  9
$DIMALTD
 70
     2
  9
$DIMALTF
 40
25.4
  9
$DIMLFAC
 40
1.0
  9
$DIMTOFL
 70
     0
  9
$DIMTVP
 40
0.0
  9
$DIMTIX
 70
     0
  9
$DIMSOXD
 70
     0
  9
$DIMSAH
 70
     0
  9
$DIMBLK1
  1

  9
$DIMBLK2
  1

  9
$DIMSTYLE
  2
Standard
  9
$DIMCLRD
 70
     0
  9
$DIMCLRE
 70
     0
  9
$DIMCLRT
 70
     0
  9
$DIMTFAC
 40
1.0
  9
$DIMGAP
 40
0.09
  9
$DIMJUST
 70
     0
  9
$DIMSD1
 70
     0
  9
$DIMSD2
 70
     0
  9
$DIMTOLJ
 70
     1
  9
$DIMTZIN
 70
     0
  9
$DIMALTZ
 70
     0
  9
$DIMALTTZ
 70
     0
  9
$DIMUPT
 70
     0
  9
$DIMDEC
 70
     4
  9
$DIMTDEC
 70
     4
  9
$DIMALTU
 70
     2
  9
$DIMALTTD
 70
     2
  9
$DIMTXSTY
  7
Standard
  9
$DIMAUNIT
 70
     0
  9
$DIMADEC
 70
     0
  9
$DIMALTRND
 40
0.0
  9
$DIMAZIN
 70
     0
  9
$DIMDSEP
 70
    46
  9
$DIMATFIT
 70
     3
  9
$DIMFRAC
 70
     0
  9
$DIMLDRBLK
  1

  9
$DIMLUNIT
 70
     2
  9
$DIMLWD
 70
    -2
  9
$DIMLWE
 70
    -2
  9
$DIMTMOVE
 70
     0
  9
$DIMFXL
 40
1.0
  9
$DIMFXLON
 70
     0
  9
$DIMJOGANG
 40
0.7853981633974483
  9
$DIMTFILL
 70
     0
  9
$DIMTFILLCLR
 70
     0
  9
$DIMARCSYM
 70
     0
  9
$DIMLTYPE
  6

  9
$DIMLTEX1
  6

  9
$DIMLTEX2
  6

  9
$DIMTXTDIRECTION
 70
     0
  9
$LUNITS
 70
     2
  9
$LUPREC
 70
     4
  9
$SKETCHINC
 40
0.1
  9
$FILLETRAD
 40
0.0
  9
$AUNITS
 70
     0
  9
$AUPREC
 70
     0
  9
$MENU
  1
.
  9
$ELEVATION
 40
0.0
  9
$PELEVATION
 40
0.0
  9
$THICKNESS
 40
0.0
  9
$LIMCHECK
 70
     0
  9
$CHAMFERA
 40
0.0
  9
$CHAMFERB
 40
0.0
  9
$CHAMFERC
 40
0.0
  9
$CHAMFERD
 40
0.0
  9
$SKPOLY
 70
     0
  9
$TDCREATE
 40
2460929.579386574
  9
$TDUCREATE
 40
2460929.371053241
  9
$TDUPDATE
 40
2460929.579386574
  9
$TDUUPDATE
 40
2460929.371053241
  9
$TDINDWG
 40
0.0000000000
  9
$TDUSRTIMER
 40
0.0000000000
  9
$USRTIMER
 70
     1
  9
$ANGBASE
 50
0.0
  9
$ANGDIR
 70
     0
  9
$PDMODE
 70
     0
  9
$PDSIZE
 40
0.0
  9
$PLINEWID
 40
0.0
  9
$SPLFRAME
 70
     0
  9
$SPLINETYPE
 70
     6
  9
$SPLINESEGS
 70
     8
  9
$HANDSEED
  5
9B
  9
$SURFTAB1
 70
     6
  9
$SURFTAB2
 70
     6
  9
$SURFTYPE
 70
     6
  9
$SURFU
 70
     6
  9
$SURFV
 70
     6
  9
$UCSBASE
  2

  9
$UCSNAME
  2

  9
$UCSORG
 10
0.0
 20
0.0
 30
0.0
  9
$UCSXDIR
 10
1.0
 20
0.0
 30
0.0
  9
$UCSYDIR
 10
0.0
 20
1.0
 30
0.0
  9
$UCSORTHOREF
  2

  9
$UCSORTHOVIEW
 70
     0
  9
$UCSORGTOP
 10
0.0
 20
0.0
 30
0.0
  9
$UCSORGBOTTOM
 10
0.0
 20
0.0
 30
0.0
  9
$UCSORGLEFT
 10
0.0
 20
0.0
 30
0.0
  9
$UCSORGRIGHT
 10
0.0
 20
0.0
 30
0.0
  9
$UCSORGFRONT
 10
0.0
 20
0.0
 30
0.0
  9
$UCSORGBACK
 10
0.0
 20
0.0
 30
0.0
  9
$PUCSBASE
  2

  9
$PUCSNAME
  2

  9
$PUCSORG
 10
0.0
 20
0.0
 30
0.0
  9
$PUCSXDIR
 10
1.0
 20
0.0
 30
0.0
  9
$PUCSYDIR
 10
0.0
 20
1.0
 30
0.0
  9
$PUCSORTHOREF
  2

  9
$PUCSORTHOVIEW
 70
     0
  9
$PUCSORGTOP
 10
0.0
 20
0.0
 30
0.0
  9
$PUCSORGBOTTOM
 10
0.0
 20
0.0
 30
0.0
  9
$PUCSORGLEFT
 10
0.0
 20
0.0
 30
0.0
  9
$PUCSORGRIGHT
 10
0.0
 20
0.0
 30
0.0
  9
$PUCSORGFRONT
 10
0.0
 20
0.0
 30
0.0
  9
$PUCSORGBACK
 10
0.0
 20
0.0
 30
0.0
  9
$USERI1
 70
     0
  9
$USERI2
 70
     0
  9
$USERI3
 70
     0
  9
$USERI4
 70
     0
  9
$USERI5
 70
     0
  9
$USERR1
 40
0.0
  9
$USERR2
 40
0.0
  9
$USERR3
 40
0.0
  9
$USERR4
 40
0.0
  9
$USERR5
 40
0.0
  9
$WORLDVIEW
 70
     1
  9
$SHADEDGE
 70
     3
  9
$SHADEDIF
 70
    70
  9
$TILEMODE
 70
     1
  9
$MAXACTVP
 70
    64
  9
$PINSBASE
 10
0.0
 20
0.0
 30
0.0
  9
$PLIMCHECK
 70
     0
  9
$PEXTMIN
 10
1.000000000000000E+20
 20
1.000000000000000E+20
 30
1.000000000000000E+20
  9
$PEXTMAX
 10
-1.000000000000000E+20
 20
-1.000000000000000E+20
 30
-1.000000000000000E+20
  9
$PLIMMIN
 10
0.0
 20
0.0
  9
$PLIMMAX
 10
12.0
 20
9.0
  9
$UNITMODE
 70
     0
  9
$VISRETAIN
 70
     1
  9
$PLINEGEN
 70
     0
  9
$PSLTSCALE
 70
     1
  9
$TREEDEPTH
 70
  3020
  9
$CMLSTYLE
  2
Standard
  9
$CMLJUST
 70
     0
  9
$CMLSCALE
 40
1.0
  9
$PROXYGRAPHICS
 70
     1
  9
$MEASUREMENT
 70
     0
  9
$CELWEIGHT
370
    -1
  9
$ENDCAPS
280
     0
  9
$JOINSTYLE
280
     0
  9
$LWDISPLAY
290
     1
  9
$INSUNITS
 70
     0
  9
$HYPERLINKBASE
  1

  9
$STYLESHEET
  1

  9
$XEDIT
290
     1
  9
$CEPSNTYPE
380
     0
  9
$PSTYLEMODE
290
     1
  9
$FINGERPRINTGUID
  2
{7162CCE7-8FF8-F74C-BEAF-8BFC43194130}
  9
$VERSIONGUID
  2
{C231B5BB-F2DD-664A-91B1-C05D7AA054FF}
  9
$EXTNAMES
290
     1
  9
$PSVPSCALE
 40
0.0
  9
$OLESTARTUP
290
     0
  9
$SORTENTS
280
   127
  9
$INDEXCTL
280
     0
  9
$HIDETEXT
280
     1
  9
$XCLIPFRAME
280
     2
  9
$HALOGAP
280
     0
  9
$OBSCOLOR
 70
   257
  9
$OBSLTYPE
280
     0
  9
$INTERSECTIONDISPLAY
280
     0
  9
$INTERSECTIONCOLOR
 70
   257
  9
$DIMASSOC
280
     2
  9
$PROJECTNAME
  1

  9
$CAMERADISPLAY
290
     0
  9
$LENSLENGTH
 40
50.0
  9
$CAMERAHEIGHT
 40
0.0
  9
$STEPSPERSEC
 40
2.0
  9
$STEPSIZE
 40
6.0
  9
$3DDWFPREC
 40
2.0
  9
$PSOLWIDTH
 40
0.25
  9
$PSOLHEIGHT
 40
4.0
  9
$LOFTANG1
 40
1.570796326794896
  9
$LOFTANG2
 40
1.570796326794896
  9
$LOFTMAG1
 40
0.0
  9
$LOFTMAG2
 40
0.0
  9
$LOFTPARAM
 70
     7
  9
$LOFTNORMALS
280
     1
  9
$LATITUDE
 40
37.795
  9
$LONGITUDE
 40
-122.394
  9
$NORTHDIRECTION
 40
0.0
  9
$TIMEZONE
 70
 -8000
  9
$LIGHTGLYPHDISPLAY
280
     1
  9
$TILEMODELIGHTSYNCH
280
     1
  9
$CMATERIAL
347
11
  9
$SOLIDHIST
280
     0
  9
$SHOWHIST
280
     1
  9
$DWFFRAME
280
     2
  9
$DGNFRAME
280
     0
  9
$REALWORLDSCALE
290
     1
  9
$INTERFERECOLOR
 62
     1
  9
$INTERFEREOBJVS
345
33
  9
$INTERFEREVPVS
346
30
  9
$CSHADOW
280
     0
  9
$SHADOWPLANELOCATION
 40
0.0
  0
ENDSEC
  0
SECTION
  2
CLASSES
  0
CLASS
  1
ACDBDICTIONARYWDFLT
  2
AcDbDictionaryWithDefault
  3
ObjectDBX Classes
 90
        0
 91
        1
280
     0
281
     0
  0
CLASS
  1
MATERIAL
  2
AcDbMaterial
  3
ObjectDBX Classes
 90
     1153
 91
        3
280
     0
281
     0
  0
CLASS
  1
VISUALSTYLE
  2
AcDbVisualStyle
  3
ObjectDBX Classes
 90
     4095
 91
       24
280
     0
281
     0
  0
CLASS
  1
SCALE
  2
AcDbScale
  3
ObjectDBX Classes
 90
     1153
 91
       17
280
     0
281
     0
  0
CLASS
  1
TABLESTYLE
  2
AcDbTableStyle
  3
ObjectDBX Classes
 90
     4095
 91
        1
280
     0
281
     0
  0
CLASS
  1
MLEADERSTYLE
  2
AcDbMLeaderStyle
  3
ACDB_MLEADERSTYLE_CLASS
 90
     4095
 91
        1
280
     0
281
     0
  0
CLASS
  1
ACDBSECTIONVIEWSTYLE
  2
AcDbSectionViewStyle
  3
ObjectDBX Classes
 90
     1025
 91
        1
280
     0
281
     0
  0
CLASS
  1
ACDBDETAILVIEWSTYLE
  2
AcDbDetailViewStyle
  3
ObjectDBX Classes
 90
     1025
 91
        1
280
     0
281
     0
  0
CLASS
  1
DICTIONARYVAR
  2
AcDbDictionaryVar
  3
ObjectDBX Classes
 90
        0
 91
        5
280
     0
281
     0
  0
CLASS
  1
CELLSTYLEMAP
  2
AcDbCellStyleMap
  3
ObjectDBX Classes
 90
     1152
 91
        1
280
     0
281
     0
  0
ENDSEC
  0
SECTION
  2
TABLES
  0
TABLE
  2
VPORT
  5
8
330
0
100
AcDbSymbolTable
 70
     1
  0
VPORT
  5
57
330
8
100
AcDbSymbolTableRecord
100
AcDbViewportTableRecord
  2
*Active
 70
     0
 10
0.0
 20
0.0
 11
1.0
 21
1.0
 12
0.0
 22
0.0
 13
0.0
 23
0.0
 14
1.0
 24
1.0
 15
0.0
 25
0.0
 16
0.0
 26
0.0
 36
1.0
 17
2070.329143804109
 27
-1549.708560332395
 37
0.0
 40
3099.36839297975
 41
1.304893925962813
 42
50.0
 43
0.0
 44
0.0
 50
0.0
 51
0.0
 71
     0
 72
   100
 73
     1
 74
     1
 75
     0
 76
     0
 77
     0
 78
     0
281
     0
 65
     1
110
0.0
120
0.0
130
0.0
111
1.0
121
0.0
131
0.0
112
0.0
122
1.0
132
0.0
 79
     0
146
0.0
 60
     3
 61
     5
292
     1
282
     1
141
0.0
142
0.0
 63
   250
421
  3355443
  0
ENDTAB
  0
TABLE
  2
LTYPE
  5
5
330
0
100
AcDbSymbolTable
 70
     1
  0
LTYPE
  5
5B
330
5
100
AcDbSymbolTableRecord
100
AcDbLinetypeTableRecord
  2
ByBlock
 70
     0
  3

 72
    65
 73
     0
 40
0.0
  0
LTYPE
  5
5C
330
5
100
AcDbSymbolTableRecord
100
AcDbLinetypeTableRecord
  2
ByLayer
 70
     0
  3

 72
    65
 73
     0
 40
0.0
  0
LTYPE
  5
5D
330
5
100
AcDbSymbolTableRecord
100
AcDbLinetypeTableRecord
  2
Continuous
 70
     0
  3
Solid line
 72
    65
 73
     0
 40
0.0
  0
ENDTAB
  0
TABLE
  2
LAYER
  5
2
330
0
100
AcDbSymbolTable
 70
     2
  0
LAYER
  5
54
330
2
100
AcDbSymbolTableRecord
100
AcDbLayerTableRecord
  2
0
 70
     0
 62
     7
  6
Continuous
370
    -3
390
F
347
21
348
0
  0
LAYER
  5
78
330
2
100
AcDbSymbolTableRecord
100
AcDbLayerTableRecord
  2
Layer 1
 70
     0
 62
     7
  6
Continuous
370
     0
390
F
347
21
348
0
  0
ENDTAB
  0
TABLE
  2
STYLE
  5
3
330
0
100
AcDbSymbolTable
 70
     2
  0
STYLE
  5
55
330
3
100
AcDbSymbolTableRecord
100
AcDbTextStyleTableRecord
  2
Standard
 70
     0
 40
0.0
 41
1.0
 50
0.0
 71
     0
 42
0.2
  3
txt
  4

  0
STYLE
  5
5A
330
3
100
AcDbSymbolTableRecord
100
AcDbTextStyleTableRecord
  2
Annotative
 70
     0
 40
0.0
 41
1.0
 50
0.0
 71
     0
 42
0.2
  3
txt
  4

1001
AcadAnnotative
1000
AnnotativeData
1002
{
1070
     1
1070
     1
1002
}
  0
ENDTAB
  0
TABLE
  2
VIEW
  5
6
330
0
100
AcDbSymbolTable
 70
     0
  0
ENDTAB
  0
TABLE
  2
UCS
  5
7
330
0
100
AcDbSymbolTable
 70
     0
  0
ENDTAB
  0
TABLE
  2
APPID
  5
9
330
0
100
AcDbSymbolTable
 70
     2
  0
APPID
  5
56
330
9
100
AcDbSymbolTableRecord
100
AcDbRegAppTableRecord
  2
ACAD
 70
     0
  0
APPID
  5
5E
330
9
100
AcDbSymbolTableRecord
100
AcDbRegAppTableRecord
  2
AcadAnnotative
 70
     0
  0
ENDTAB
  0
TABLE
  2
DIMSTYLE
  5
A
330
0
100
AcDbSymbolTable
 70
     2
100
AcDbDimStyleTable
 71
     0
  0
DIMSTYLE
105
58
330
A
100
AcDbSymbolTableRecord
100
AcDbDimStyleTableRecord
  2
Standard
 70
     0
340
55
  0
DIMSTYLE
105
59
330
A
100
AcDbSymbolTableRecord
100
AcDbDimStyleTableRecord
  2
Annotative
 70
     0
340
55
1001
AcadAnnotative
1000
AnnotativeData
1002
{
1070
     1
1070
     1
1002
}
  0
ENDTAB
  0
TABLE
  2
BLOCK_RECORD
  5
1
330
0
100
AcDbSymbolTable
 70
     1
  0
BLOCK_RECORD
  5
70
330
1
100
AcDbSymbolTableRecord
100
AcDbBlockTableRecord
  2
*Model_Space
340
73
 70
     0
280
     1
281
     0
  0
BLOCK_RECORD
  5
6C
330
1
100
AcDbSymbolTableRecord
100
AcDbBlockTableRecord
  2
*Paper_Space
340
6F
 70
     0
280
     1
281
     0
  0
BLOCK_RECORD
  5
74
330
1
100
AcDbSymbolTableRecord
100
AcDbBlockTableRecord
  2
*Paper_Space0
340
77
 70
     0
280
     1
281
     0
  0
ENDTAB
  0
ENDSEC
  0
SECTION
  2
BLOCKS
  0
BLOCK
  5
71
330
70
100
AcDbEntity
  8
0
100
AcDbBlockBegin
  2
*Model_Space
 70
     0
 10
0.0
 20
0.0
 30
0.0
  3
*Model_Space
  1

  0
ENDBLK
  5
72
330
70
100
AcDbEntity
  8
0
100
AcDbBlockEnd
  0
BLOCK
  5
6D
330
6C
100
AcDbEntity
 67
     1
  8
0
100
AcDbBlockBegin
  2
*Paper_Space
 70
     0
 10
0.0
 20
0.0
 30
0.0
  3
*Paper_Space
  1

  0
ENDBLK
  5
6E
330
6C
100
AcDbEntity
 67
     1
  8
0
100
AcDbBlockEnd
  0
BLOCK
  5
75
330
74
100
AcDbEntity
 67
     1
  8
0
100
AcDbBlockBegin
  2
*Paper_Space0
 70
     0
 10
0.0
 20
0.0
 30
0.0
  3
*Paper_Space0
  1

  0
ENDBLK
  5
76
330
74
100
AcDbEntity
 67
     1
  8
0
100
AcDbBlockEnd
  0
ENDSEC
  0
SECTION
  2
ENTITIES
  0
SPLINE
  5
79
330
70
100
AcDbEntity
  8
Layer 1
100
AcDbSpline
210
0.0
220
0.0
230
1.0
 70
     9
 71
     3
 72
    53
 73
    49
 74
     0
 42
0.0000000001
 43
0.0000000001
 40
0.0
 40
0.0
 40
0.0
 40
0.0
 40
1.0
 40
1.0
 40
1.0
 40
2.0
 40
2.0
 40
2.0
 40
3.0
 40
3.0
 40
3.0
 40
4.0
 40
4.0
 40
4.0
 40
5.0
 40
5.0
 40
5.0
 40
6.0
 40
6.0
 40
6.0
 40
7.0
 40
7.0
 40
7.0
 40
8.0
 40
8.0
 40
8.0
 40
9.0
 40
9.0
 40
9.0
 40
10.0
 40
10.0
 40
10.0
 40
11.0
 40
11.0
 40
11.0
 40
12.0
 40
12.0
 40
12.0
 40
13.0
 40
13.0
 40
13.0
 40
14.0
 40
14.0
 40
14.0
 40
15.0
 40
15.0
 40
15.0
 40
16.0
 40
16.0
 40
16.0
 40
16.0
 10
4050.396151583702
 20
-1281.867610958128
 30
0.0
 10
4050.396151583702
 20
-1281.867610958128
 30
0.0
 10
4050.347458018217
 20
-1281.867610958128
 30
0.0
 10
4050.347458018217
 20
-1281.867610958128
 30
0.0
 10
4050.347458018217
 20
-1341.263690710071
 30
0.0
 10
4050.340489654571
 20
-1400.659770462014
 30
0.0
 10
4050.354426381864
 20
-1460.062776087583
 30
0.0
 10
4050.354426381864
 20
-1465.075111560534
 30
0.0
 10
4050.062010048846
 20
-1470.024816740715
 30
0.0
 10
4048.293830263554
 20
-1474.793471936151
 30
0.0
 10
4043.490248269843
 20
-1487.748934655737
 30
0.0
 10
4031.063956287168
 20
-1496.19331669468
 30
0.0
 10
4016.632560155225
 20
-1496.19331669468
 30
0.0
 10
3939.366154321748
 20
-1496.186348331033
 30
0.0
 10
3862.09974848827
 20
-1496.172454093761
 30
0.0
 10
3784.840311018439
 20
-1496.158517366468
 30
0.0
 10
3782.285385981448
 20
-1496.158517366468
 30
0.0
 10
3779.730545924502
 20
-1496.221147659242
 30
0.0
 10
3777.182589251157
 20
-1496.130686401906
 30
0.0
 10
3758.998984235683
 20
-1495.483223443087
 30
0.0
 10
3745.319491537209
 20
-1481.85250929014
 30
0.0
 10
3744.595546538373
 20
-1463.689766875585
 30
0.0
 10
3744.560704720139
 20
-1462.763866801062
 30
0.0
 10
3744.574641447433
 20
-1461.838009216561
 30
0.0
 10
3744.574641447433
 20
-1460.905140778392
 30
0.0
 10
3744.574641447433
 20
-1341.528233588506
 30
0.0
 10
3744.595546538373
 20
-1222.151283908599
 30
0.0
 10
3744.5397996292
 20
-1102.774376718713
 30
0.0
 10
3744.5397996292
 20
-1093.042122105828
 30
0.0
 10
3747.157354958965
 20
-1084.500267955878
 30
0.0
 10
3754.160730383826
 20
-1077.51082925831
 30
0.0
 10
3761.122295626812
 20
-1070.577137469911
 30
0.0
 10
3769.524867483875
 20
-1067.500180019739
 30
0.0
 10
3779.298847298595
 20
-1067.507148383385
 30
0.0
 10
3836.258421705517
 20
-1067.562725332471
 30
0.0
 10
3893.224964476083
 20
-1067.534936857928
 30
0.0
 10
3950.184368922915
 20
-1067.534936857928
 30
0.0
 10
3972.461377700465
 20
-1067.534936857928
 30
0.0
 10
3994.738386478015
 20
-1067.444433110569
 30
0.0
 10
4017.008511871963
 20
-1067.569693696117
 30
0.0
 10
4033.556081071298
 20
-1067.660282423521
 30
0.0
 10
4046.650826083775
 20
-1078.478582004732
 30
0.0
 10
4049.762625352172
 20
-1094.309174568876
 30
0.0
 10
4050.598064169359
 20
-1098.548659027398
 30
0.0
 10
4050.38229983645
 20
-1102.857912102427
 30
0.0
 10
4050.389183220055
 20
-1107.146260086516
 30
0.0
 10
4050.396151583702
 20
-1165.38665372369
 30
0.0
 10
4050.396151583702
 20
-1223.627217320954
 30
0.0
 10
4050.396151583702
 20
-1281.867610958128
 30
0.0
  0
SPLINE
  5
7A
330
70
100
AcDbEntity
  8
Layer 1
100
AcDbSpline
210
0.0
220
0.0
230
1.0
 70
     9
 71
     3
 72
    53
 73
    49
 74
     0
 42
0.0000000001
 43
0.0000000001
 40
0.0
 40
0.0
 40
0.0
 40
0.0
 40
1.0
 40
1.0
 40
1.0
 40
2.0
 40
2.0
 40
2.0
 40
3.0
 40
3.0
 40
3.0
 40
4.0
 40
4.0
 40
4.0
 40
5.0
 40
5.0
 40
5.0
 40
6.0
 40
6.0
 40
6.0
 40
7.0
 40
7.0
 40
7.0
 40
8.0
 40
8.0
 40
8.0
 40
9.0
 40
9.0
 40
9.0
 40
10.0
 40
10.0
 40
10.0
 40
11.0
 40
11.0
 40
11.0
 40
12.0
 40
12.0
 40
12.0
 40
13.0
 40
13.0
 40
13.0
 40
14.0
 40
14.0
 40
14.0
 40
15.0
 40
15.0
 40
15.0
 40
16.0
 40
16.0
 40
16.0
 40
16.0
 10
4052.8257310551
 20
-1333.710366927418
 30
0.0
 10
4052.8257310551
 20
-1255.866181771591
 30
0.0
 10
4052.846636146036
 20
-1178.015028252113
 30
0.0
 10
4052.832699418746
 20
-1100.170758116241
 30
0.0
 10
4052.832699418746
 20
-1089.86063920096
 30
0.0
 10
4048.878492969512
 20
-1081.249271374634
 30
0.0
 10
4041.339148404173
 20
-1074.252864313417
 30
0.0
 10
4034.154850464632
 20
-1067.583630423411
 30
0.0
 10
4025.515524203679
 20
-1064.910413164516
 30
0.0
 10
4015.866804974504
 20
-1064.931318255454
 30
0.0
 10
3995.796557991753
 20
-1064.966075093644
 30
0.0
 10
3975.726395989046
 20
-1064.966075093644
 30
0.0
 10
3955.65623398634
 20
-1064.966075093644
 30
0.0
 10
3896.601221642877
 20
-1064.959106729999
 30
0.0
 10
3837.546294279461
 20
-1064.945254982749
 30
0.0
 10
3778.49136691604
 20
-1064.938286619101
 30
0.0
 10
3767.150949941605
 20
-1064.938286619101
 30
0.0
 10
3757.773741954518
 20
-1069.275328168674
 30
0.0
 10
3750.345721247437
 20
-1077.831034065872
 30
0.0
 10
3744.073429145146
 20
-1085.050258803691
 30
0.0
 10
3741.991842955855
 20
-1093.564239499052
 30
0.0
 10
3742.005779683148
 20
-1102.955384213434
 30
0.0
 10
3742.089315066862
 20
-1162.476767040949
 30
0.0
 10
3742.047504884983
 20
-1221.991181504814
 30
0.0
 10
3742.047504884983
 20
-1281.505595968683
 30
0.0
 10
3742.047504884983
 20
-1331.162452744098
 30
0.0
 10
3742.033568157689
 20
-1380.819309519509
 30
0.0
 10
3742.054473248629
 20
-1430.4761238049
 30
0.0
 10
3742.054473248629
 20
-1442.185481642402
 30
0.0
 10
3741.991842955855
 20
-1453.901807843551
 30
0.0
 10
3742.228512379703
 20
-1465.611165681053
 30
0.0
 10
3742.395583147131
 20
-1473.82580416977
 30
0.0
 10
3745.751105183075
 20
-1480.863936432819
 30
0.0
 10
3751.264610468288
 20
-1486.913538328576
 30
0.0
 10
3759.340094134188
 20
-1495.768671412461
 30
0.0
 10
3769.538719231123
 20
-1498.817840388092
 30
0.0
 10
3781.282961376879
 20
-1498.796935297152
 30
0.0
 10
3854.254050862621
 20
-1498.678600585226
 30
0.0
 10
3927.232108712009
 20
-1498.769104332587
 30
0.0
 10
4000.203283177788
 20
-1498.699463186145
 30
0.0
 10
4008.19514647993
 20
-1498.685568948873
 30
0.0
 10
4016.256693418532
 20
-1499.534859513307
 30
0.0
 10
4024.178873084207
 20
-1498.065979444644
 30
0.0
 10
4041.220771202226
 20
-1494.891507393444
 30
0.0
 10
4052.8257310551
 20
-1480.439291150604
 30
0.0
 10
4052.839667782389
 20
-1462.492398049002
 30
0.0
 10
4052.874424620577
 20
-1419.56736296635
 30
0.0
 10
4052.8257310551
 20
-1376.64237037372
 30
0.0
 10
4052.8257310551
 20
-1333.710366927418
 30
0.0
  0
HATCH
  5
7B
330
70
100
AcDbEntity
  8
Layer 1
 62
    18
420
        0
440
 33554687
100
AcDbHatch
 10
0.0
 20
0.0
 30
0.0
210
0.0
220
0.0
230
1.0
  2
SOLID
 70
     1
 71
     1
 91
        2
 92
        1
 93
        1
 72
     4
 94
        3
 73
     0
 74
     0
 95
       53
 96
       49
 40
0.0
 40
0.0
 40
0.0
 40
0.0
 40
1.0
 40
1.0
 40
1.0
 40
2.0
 40
2.0
 40
2.0
 40
3.0
 40
3.0
 40
3.0
 40
4.0
 40
4.0
 40
4.0
 40
5.0
 40
5.0
 40
5.0
 40
6.0
 40
6.0
 40
6.0
 40
7.0
 40
7.0
 40
7.0
 40
8.0
 40
8.0
 40
8.0
 40
9.0
 40
9.0
 40
9.0
 40
10.0
 40
10.0
 40
10.0
 40
11.0
 40
11.0
 40
11.0
 40
12.0
 40
12.0
 40
12.0
 40
13.0
 40
13.0
 40
13.0
 40
14.0
 40
14.0
 40
14.0
 40
15.0
 40
15.0
 40
15.0
 40
16.0
 40
16.0
 40
16.0
 40
16.0
 10
4050.396151583702
 20
-1281.867610958128
 10
4050.396151583702
 20
-1281.867610958128
 10
4050.347458018217
 20
-1281.867610958128
 10
4050.347458018217
 20
-1281.867610958128
 10
4050.347458018217
 20
-1341.263690710071
 10
4050.340489654571
 20
-1400.659770462014
 10
4050.354426381864
 20
-1460.062776087583
 10
4050.354426381864
 20
-1465.075111560534
 10
4050.062010048846
 20
-1470.024816740715
 10
4048.293830263554
 20
-1474.793471936151
 10
4043.490248269843
 20
-1487.748934655737
 10
4031.063956287168
 20
-1496.19331669468
 10
4016.632560155225
 20
-1496.19331669468
 10
3939.366154321748
 20
-1496.186348331033
 10
3862.09974848827
 20
-1496.172454093761
 10
3784.840311018439
 20
-1496.158517366468
 10
3782.285385981448
 20
-1496.158517366468
 10
3779.730545924502
 20
-1496.221147659242
 10
3777.182589251157
 20
-1496.130686401906
 10
3758.998984235683
 20
-1495.483223443087
 10
3745.319491537209
 20
-1481.85250929014
 10
3744.595546538373
 20
-1463.689766875585
 10
3744.560704720139
 20
-1462.763866801062
 10
3744.574641447433
 20
-1461.838009216561
 10
3744.574641447433
 20
-1460.905140778392
 10
3744.574641447433
 20
-1341.528233588506
 10
3744.595546538373
 20
-1222.151283908599
 10
3744.5397996292
 20
-1102.774376718713
 10
3744.5397996292
 20
-1093.042122105828
 10
3747.157354958965
 20
-1084.500267955878
 10
3754.160730383826
 20
-1077.51082925831
 10
3761.122295626812
 20
-1070.577137469911
 10
3769.524867483875
 20
-1067.500180019739
 10
3779.298847298595
 20
-1067.507148383385
 10
3836.258421705517
 20
-1067.562725332471
 10
3893.224964476083
 20
-1067.534936857928
 10
3950.184368922915
 20
-1067.534936857928
 10
3972.461377700465
 20
-1067.534936857928
 10
3994.738386478015
 20
-1067.444433110569
 10
4017.008511871963
 20
-1067.569693696117
 10
4033.556081071298
 20
-1067.660282423521
 10
4046.650826083775
 20
-1078.478582004732
 10
4049.762625352172
 20
-1094.309174568876
 10
4050.598064169359
 20
-1098.548659027398
 10
4050.38229983645
 20
-1102.857912102427
 10
4050.389183220055
 20
-1107.146260086516
 10
4050.396151583702
 20
-1165.38665372369
 10
4050.396151583702
 20
-1223.627217320954
 10
4050.396151583702
 20
-1281.867610958128
 97
        0
 97
        1
330
79
 92
        1
 93
        1
 72
     4
 94
        3
 73
     0
 74
     0
 95
       53
 96
       49
 40
0.0
 40
0.0
 40
0.0
 40
0.0
 40
1.0
 40
1.0
 40
1.0
 40
2.0
 40
2.0
 40
2.0
 40
3.0
 40
3.0
 40
3.0
 40
4.0
 40
4.0
 40
4.0
 40
5.0
 40
5.0
 40
5.0
 40
6.0
 40
6.0
 40
6.0
 40
7.0
 40
7.0
 40
7.0
 40
8.0
 40
8.0
 40
8.0
 40
9.0
 40
9.0
 40
9.0
 40
10.0
 40
10.0
 40
10.0
 40
11.0
 40
11.0
 40
11.0
 40
12.0
 40
12.0
 40
12.0
 40
13.0
 40
13.0
 40
13.0
 40
14.0
 40
14.0
 40
14.0
 40
15.0
 40
15.0
 40
15.0
 40
16.0
 40
16.0
 40
16.0
 40
16.0
 10
4052.8257310551
 20
-1333.710366927418
 10
4052.8257310551
 20
-1255.866181771591
 10
4052.846636146036
 20
-1178.015028252113
 10
4052.832699418746
 20
-1100.170758116241
 10
4052.832699418746
 20
-1089.86063920096
 10
4048.878492969512
 20
-1081.249271374634
 10
4041.339148404173
 20
-1074.252864313417
 10
4034.154850464632
 20
-1067.583630423411
 10
4025.515524203679
 20
-1064.910413164516
 10
4015.866804974504
 20
-1064.931318255454
 10
3995.796557991753
 20
-1064.966075093644
 10
3975.726395989046
 20
-1064.966075093644
 10
3955.65623398634
 20
-1064.966075093644
 10
3896.601221642877
 20
-1064.959106729999
 10
3837.546294279461
 20
-1064.945254982749
 10
3778.49136691604
 20
-1064.938286619101
 10
3767.150949941605
 20
-1064.938286619101
 10
3757.773741954518
 20
-1069.275328168674
 10
3750.345721247437
 20
-1077.831034065872
 10
3744.073429145146
 20
-1085.050258803691
 10
3741.991842955855
 20
-1093.564239499052
 10
3742.005779683148
 20
-1102.955384213434
 10
3742.089315066862
 20
-1162.476767040949
 10
3742.047504884983
 20
-1221.991181504814
 10
3742.047504884983
 20
-1281.505595968683
 10
3742.047504884983
 20
-1331.162452744098
 10
3742.033568157689
 20
-1380.819309519509
 10
3742.054473248629
 20
-1430.4761238049
 10
3742.054473248629
 20
-1442.185481642402
 10
3741.991842955855
 20
-1453.901807843551
 10
3742.228512379703
 20
-1465.611165681053
 10
3742.395583147131
 20
-1473.82580416977
 10
3745.751105183075
 20
-1480.863936432819
 10
3751.264610468288
 20
-1486.913538328576
 10
3759.340094134188
 20
-1495.768671412461
 10
3769.538719231123
 20
-1498.817840388092
 10
3781.282961376879
 20
-1498.796935297152
 10
3854.254050862621
 20
-1498.678600585226
 10
3927.232108712009
 20
-1498.769104332587
 10
4000.203283177788
 20
-1498.699463186145
 10
4008.19514647993
 20
-1498.685568948873
 10
4016.256693418532
 20
-1499.534859513307
 10
4024.178873084207
 20
-1498.065979444644
 10
4041.220771202226
 20
-1494.891507393444
 10
4052.8257310551
 20
-1480.439291150604
 10
4052.839667782389
 20
-1462.492398049002
 10
4052.874424620577
 20
-1419.56736296635
 10
4052.8257310551
 20
-1376.64237037372
 10
4052.8257310551
 20
-1333.710366927418
 97
        0
 97
        1
330
7A
 75
     2
 76
     1
 98
        1
 10
0.0
 20
0.0
450
        0
451
        0
460
0.0
461
0.0
452
        0
462
0.0
453
        0
470

  0
SPLINE
  5
7C
330
70
100
AcDbEntity
  8
Layer 1
100
AcDbSpline
210
0.0
220
0.0
230
1.0
 70
     9
 71
     3
 72
    53
 73
    49
 74
     0
 42
0.0000000001
 43
0.0000000001
 40
0.0
 40
0.0
 40
0.0
 40
0.0
 40
1.0
 40
1.0
 40
1.0
 40
2.0
 40
2.0
 40
2.0
 40
3.0
 40
3.0
 40
3.0
 40
4.0
 40
4.0
 40
4.0
 40
5.0
 40
5.0
 40
5.0
 40
6.0
 40
6.0
 40
6.0
 40
7.0
 40
7.0
 40
7.0
 40
8.0
 40
8.0
 40
8.0
 40
9.0
 40
9.0
 40
9.0
 40
10.0
 40
10.0
 40
10.0
 40
11.0
 40
11.0
 40
11.0
 40
12.0
 40
12.0
 40
12.0
 40
13.0
 40
13.0
 40
13.0
 40
14.0
 40
14.0
 40
14.0
 40
15.0
 40
15.0
 40
15.0
 40
16.0
 40
16.0
 40
16.0
 40
16.0
 10
4050.396151583702
 20
-1281.867610958128
 30
0.0
 10
4050.396151583702
 20
-1281.867610958128
 30
0.0
 10
4050.347458018217
 20
-1281.867610958128
 30
0.0
 10
4050.347458018217
 20
-1281.867610958128
 30
0.0
 10
4050.347458018217
 20
-1341.263690710071
 30
0.0
 10
4050.340489654571
 20
-1400.659770462014
 30
0.0
 10
4050.354426381864
 20
-1460.062776087583
 30
0.0
 10
4050.354426381864
 20
-1465.075111560534
 30
0.0
 10
4050.062010048846
 20
-1470.024816740715
 30
0.0
 10
4048.293830263554
 20
-1474.793471936151
 30
0.0
 10
4043.490248269843
 20
-1487.748934655737
 30
0.0
 10
4031.063956287168
 20
-1496.19331669468
 30
0.0
 10
4016.632560155225
 20
-1496.19331669468
 30
0.0
 10
3939.366154321748
 20
-1496.186348331033
 30
0.0
 10
3862.09974848827
 20
-1496.172454093761
 30
0.0
 10
3784.840311018439
 20
-1496.158517366468
 30
0.0
 10
3782.285385981448
 20
-1496.158517366468
 30
0.0
 10
3779.730545924502
 20
-1496.221147659242
 30
0.0
 10
3777.182589251157
 20
-1496.130686401906
 30
0.0
 10
3758.998984235683
 20
-1495.483223443087
 30
0.0
 10
3745.319491537209
 20
-1481.85250929014
 30
0.0
 10
3744.595546538373
 20
-1463.689766875585
 30
0.0
 10
3744.560704720139
 20
-1462.763866801062
 30
0.0
 10
3744.574641447433
 20
-1461.838009216561
 30
0.0
 10
3744.574641447433
 20
-1460.905140778392
 30
0.0
 10
3744.574641447433
 20
-1341.528233588506
 30
0.0
 10
3744.595546538373
 20
-1222.151283908599
 30
0.0
 10
3744.5397996292
 20
-1102.774376718713
 30
0.0
 10
3744.5397996292
 20
-1093.042122105828
 30
0.0
 10
3747.157354958965
 20
-1084.500267955878
 30
0.0
 10
3754.160730383826
 20
-1077.51082925831
 30
0.0
 10
3761.122295626812
 20
-1070.577137469911
 30
0.0
 10
3769.524867483875
 20
-1067.500180019739
 30
0.0
 10
3779.298847298595
 20
-1067.507148383385
 30
0.0
 10
3836.258421705517
 20
-1067.562725332471
 30
0.0
 10
3893.224964476083
 20
-1067.534936857928
 30
0.0
 10
3950.184368922915
 20
-1067.534936857928
 30
0.0
 10
3972.461377700465
 20
-1067.534936857928
 30
0.0
 10
3994.738386478015
 20
-1067.444433110569
 30
0.0
 10
4017.008511871963
 20
-1067.569693696117
 30
0.0
 10
4033.556081071298
 20
-1067.660282423521
 30
0.0
 10
4046.650826083775
 20
-1078.478582004732
 30
0.0
 10
4049.762625352172
 20
-1094.309174568876
 30
0.0
 10
4050.598064169359
 20
-1098.548659027398
 30
0.0
 10
4050.38229983645
 20
-1102.857912102427
 30
0.0
 10
4050.389183220055
 20
-1107.146260086516
 30
0.0
 10
4050.396151583702
 20
-1165.38665372369
 30
0.0
 10
4050.396151583702
 20
-1223.627217320954
 30
0.0
 10
4050.396151583702
 20
-1281.867610958128
 30
0.0
  0
SPLINE
  5
7D
330
70
100
AcDbEntity
  8
Layer 1
100
AcDbSpline
210
0.0
220
0.0
230
1.0
 70
     9
 71
     3
 72
    20
 73
    16
 74
     0
 42
0.0000000001
 43
0.0000000001
 40
0.0
 40
0.0
 40
0.0
 40
0.0
 40
1.0
 40
1.0
 40
1.0
 40
2.0
 40
2.0
 40
2.0
 40
3.0
 40
3.0
 40
3.0
 40
4.0
 40
4.0
 40
4.0
 40
5.0
 40
5.0
 40
5.0
 40
5.0
 10
3779.174666554808
 20
-1142.031215033607
 30
0.0
 10
3772.136381190363
 20
-1142.031215033607
 30
0.0
 10
3768.387577335578
 20
-1134.798197952503
 30
0.0
 10
3768.234324347805
 20
-1125.002232044524
 30
0.0
 10
3768.234324347805
 20
-1123.537377987595
 30
0.0
 10
3768.540393705154
 20
-1122.347156777701
 30
0.0
 10
3768.999716050277
 20
-1121.431568414846
 30
0.0
 10
3770.835695576176
 20
-1117.1286960658
 30
0.0
 10
3774.584499430961
 20
-1114.107298130198
 30
0.0
 10
3778.638936024896
 20
-1114.107298130198
 30
0.0
 10
3784.835858120276
 20
-1114.107298130198
 30
0.0
 10
3788.890731332407
 20
-1119.234505638549
 30
0.0
 10
3788.890731332407
 20
-1127.74899713309
 30
0.0
 10
3788.890731332407
 20
-1136.263488627632
 30
0.0
 10
3784.988674489852
 20
-1142.031215033607
 30
0.0
 10
3779.174666554808
 20
-1142.031215033607
 30
0.0
  0
SPLINE
  5
7E
330
70
100
AcDbEntity
  8
Layer 1
100
AcDbSpline
210
0.0
220
0.0
230
1.0
 70
     9
 71
     3
 72
    38
 73
    34
 74
     0
 42
0.0000000001
 43
0.0000000001
 40
0.0
 40
0.0
 40
0.0
 40
0.0
 40
1.0
 40
1.0
 40
1.0
 40
2.0
 40
2.0
 40
2.0
 40
3.0
 40
3.0
 40
3.0
 40
4.0
 40
4.0
 40
4.0
 40
5.0
 40
5.0
 40
5.0
 40
6.0
 40
6.0
 40
6.0
 40
7.0
 40
7.0
 40
7.0
 40
8.0
 40
8.0
 40
8.0
 40
9.0
 40
9.0
 40
9.0
 40
10.0
 40
10.0
 40
10.0
 40
11.0
 40
11.0
 40
11.0
 40
11.0
 10
3780.704576723356
 20
-1108.064938877185
 30
0.0
 10
3775.196201527461
 20
-1108.064938877185
 30
0.0
 10
3771.065356748737
 20
-1111.177590016337
 30
0.0
 10
3768.693646692927
 20
-1114.931196671307
 30
0.0
 10
3768.693646692927
 20
-1114.931196671307
 30
0.0
 10
3768.463985520366
 20
-1114.931196671307
 30
0.0
 10
3768.463985520366
 20
-1114.931196671307
 30
0.0
 10
3769.61141814678
 20
-1105.135230763328
 30
0.0
 10
3775.196201527461
 20
-1095.888093931222
 30
0.0
 10
3785.754066192325
 20
-1093.782284358472
 30
0.0
 10
3787.666453903012
 20
-1093.416398307891
 30
0.0
 10
3789.426025244122
 20
-1093.324708486143
 30
0.0
 10
3790.803119043094
 20
-1093.416398307891
 30
0.0
 10
3790.803119043094
 20
-1093.416398307891
 30
0.0
 10
3790.803119043094
 20
-1086.824336742607
 30
0.0
 10
3790.803119043094
 20
-1086.824336742607
 30
0.0
 10
3789.579278231895
 20
-1086.824336742607
 30
0.0
 10
3787.896115075574
 20
-1086.916026564351
 30
0.0
 10
3785.906882561898
 20
-1087.282349233133
 30
0.0
 10
3779.63355228173
 20
-1088.197937595989
 30
0.0
 10
3774.125177085839
 20
-1091.218898913395
 30
0.0
 10
3769.994332307115
 20
-1096.071473574713
 30
0.0
 10
3765.098095825919
 20
-1101.930889802432
 30
0.0
 10
3761.578516525498
 20
-1111.177590016337
 30
0.0
 10
3761.578516525498
 20
-1122.896422471775
 30
0.0
 10
3761.578516525498
 20
-1138.368861582181
 30
0.0
 10
3768.540393705154
 20
-1148.256953930107
 30
0.0
 10
3779.174666554808
 20
-1148.256953930107
 30
0.0
 10
3789.502433428911
 20
-1148.256953930107
 30
0.0
 10
3795.69935552429
 20
-1138.18591855689
 30
0.0
 10
3795.69935552429
 20
-1127.290984642564
 30
0.0
 10
3795.69935552429
 20
-1115.663842008871
 30
0.0
 10
3789.502433428911
 20
-1108.064938877185
 30
0.0
 10
3780.704576723356
 20
-1108.064938877185
 30
0.0
  0
HATCH
  5
7F
330
70
100
AcDbEntity
  8
Layer 1
 62
   246
420
  8590872
440
 33554687
100
AcDbHatch
 10
0.0
 20
0.0
 30
0.0
210
0.0
220
0.0
230
1.0
  2
SOLID
 70
     1
 71
     1
 91
        2
 92
        1
 93
        1
 72
     4
 94
        3
 73
     0
 74
     0
 95
       20
 96
       16
 40
0.0
 40
0.0
 40
0.0
 40
0.0
 40
1.0
 40
1.0
 40
1.0
 40
2.0
 40
2.0
 40
2.0
 40
3.0
 40
3.0
 40
3.0
 40
4.0
 40
4.0
 40
4.0
 40
5.0
 40
5.0
 40
5.0
 40
5.0
 10
3779.174666554808
 20
-1142.031215033607
 10
3772.136381190363
 20
-1142.031215033607
 10
3768.387577335578
 20
-1134.798197952503
 10
3768.234324347805
 20
-1125.002232044524
 10
3768.234324347805
 20
-1123.537377987595
 10
3768.540393705154
 20
-1122.347156777701
 10
3768.999716050277
 20
-1121.431568414846
 10
3770.835695576176
 20
-1117.1286960658
 10
3774.584499430961
 20
-1114.107298130198
 10
3778.638936024896
 20
-1114.107298130198
 10
3784.835858120276
 20
-1114.107298130198
 10
3788.890731332407
 20
-1119.234505638549
 10
3788.890731332407
 20
-1127.74899713309
 10
3788.890731332407
 20
-1136.263488627632
 10
3784.988674489852
 20
-1142.031215033607
 10
3779.174666554808
 20
-1142.031215033607
 97
        0
 97
        1
330
7D
 92
        1
 93
        1
 72
     4
 94
        3
 73
     0
 74
     0
 95
       38
 96
       34
 40
0.0
 40
0.0
 40
0.0
 40
0.0
 40
1.0
 40
1.0
 40
1.0
 40
2.0
 40
2.0
 40
2.0
 40
3.0
 40
3.0
 40
3.0
 40
4.0
 40
4.0
 40
4.0
 40
5.0
 40
5.0
 40
5.0
 40
6.0
 40
6.0
 40
6.0
 40
7.0
 40
7.0
 40
7.0
 40
8.0
 40
8.0
 40
8.0
 40
9.0
 40
9.0
 40
9.0
 40
10.0
 40
10.0
 40
10.0
 40
11.0
 40
11.0
 40
11.0
 40
11.0
 10
3780.704576723356
 20
-1108.064938877185
 10
3775.196201527461
 20
-1108.064938877185
 10
3771.065356748737
 20
-1111.177590016337
 10
3768.693646692927
 20
-1114.931196671307
 10
3768.693646692927
 20
-1114.931196671307
 10
3768.463985520366
 20
-1114.931196671307
 10
3768.463985520366
 20
-1114.931196671307
 10
3769.61141814678
 20
-1105.135230763328
 10
3775.196201527461
 20
-1095.888093931222
 10
3785.754066192325
 20
-1093.782284358472
 10
3787.666453903012
 20
-1093.416398307891
 10
3789.426025244122
 20
-1093.324708486143
 10
3790.803119043094
 20
-1093.416398307891
 10
3790.803119043094
 20
-1093.416398307891
 10
3790.803119043094
 20
-1086.824336742607
 10
3790.803119043094
 20
-1086.824336742607
 10
3789.579278231895
 20
-1086.824336742607
 10
3787.896115075574
 20
-1086.916026564351
 10
3785.906882561898
 20
-1087.282349233133
 10
3779.63355228173
 20
-1088.197937595989
 10
3774.125177085839
 20
-1091.218898913395
 10
3769.994332307115
 20
-1096.071473574713
 10
3765.098095825919
 20
-1101.930889802432
 10
3761.578516525498
 20
-1111.177590016337
 10
3761.578516525498
 20
-1122.896422471775
 10
3761.578516525498
 20
-1138.368861582181
 10
3768.540393705154
 20
-1148.256953930107
 10
3779.174666554808
 20
-1148.256953930107
 10
3789.502433428911
 20
-1148.256953930107
 10
3795.69935552429
 20
-1138.18591855689
 10
3795.69935552429
 20
-1127.290984642564
 10
3795.69935552429
 20
-1115.663842008871
 10
3789.502433428911
 20
-1108.064938877185
 10
3780.704576723356
 20
-1108.064938877185
 97
        0
 97
        1
330
7E
 75
     2
 76
     1
 98
        1
 10
0.0
 20
0.0
450
        0
451
        0
460
0.0
461
0.0
452
        0
462
0.0
453
        0
470

  0
SPLINE
  5
80
330
70
100
AcDbEntity
  8
Layer 1
100
AcDbSpline
210
0.0
220
0.0
230
1.0
 70
     9
 71
     3
 72
    17
 73
    13
 74
     0
 42
0.0000000001
 43
0.0000000001
 40
0.0
 40
0.0
 40
0.0
 40
0.0
 40
1.0
 40
1.0
 40
1.0
 40
2.0
 40
2.0
 40
2.0
 40
3.0
 40
3.0
 40
3.0
 40
4.0
 40
4.0
 40
4.0
 40
4.0
 10
3871.710222026506
 20
-1377.245420487561
 30
0.0
 10
3871.251816049383
 20
-1375.365457330757
 30
0.0
 10
3872.884393099538
 20
-1372.091018591203
 30
0.0
 10
3868.49321205466
 20
-1372.076680287555
 30
0.0
 10
3862.700873173106
 20
-1372.057758427825
 30
0.0
 10
3860.349231874037
 20
-1373.635357989347
 30
0.0
 10
3860.546366759592
 20
-1378.323781806779
 30
0.0
 10
3860.652317421374
 20
-1380.843663119536
 30
0.0
 10
3859.281019857577
 20
-1384.586380110853
 30
0.0
 10
3864.158779799387
 20
-1384.643313585871
 30
0.0
 10
3870.183033187112
 20
-1384.713628358324
 30
0.0
 10
3871.632267993917
 20
-1383.415105240841
 30
0.0
 10
3871.710222026506
 20
-1377.245420487561
 30
0.0
  0
SPLINE
  5
81
330
70
100
AcDbEntity
  8
Layer 1
100
AcDbSpline
210
0.0
220
0.0
230
1.0
 70
     9
 71
     3
 72
    17
 73
    13
 74
     0
 42
0.0000000001
 43
0.0000000001
 40
0.0
 40
0.0
 40
0.0
 40
0.0
 40
1.0
 40
1.0
 40
1.0
 40
2.0
 40
2.0
 40
2.0
 40
3.0
 40
3.0
 40
3.0
 40
4.0
 40
4.0
 40
4.0
 40
4.0
 10
3872.794929807989
 20
-1357.132440600486
 30
0.0
 10
3872.440191109401
 20
-1355.531016621077
 30
0.0
 10
3874.282453258196
 20
-1351.930994293332
 30
0.0
 10
3870.506551656627
 20
-1352.761155211134
 30
0.0
 10
3867.036119723138
 20
-1353.52414100846
 30
0.0
 10
3861.299690152058
 20
-1350.892054914351
 30
0.0
 10
3860.629458404498
 20
-1357.306699679582
 30
0.0
 10
3860.372275576325
 20
-1359.768186823625
 30
0.0
 10
3859.282967449175
 20
-1363.508150323374
 30
0.0
 10
3864.036786691313
 20
-1363.85126223593
 30
0.0
 10
3870.143930248947
 20
-1364.292039151191
 30
0.0
 10
3872.439301261517
 20
-1362.644359871377
 30
0.0
 10
3872.794929807989
 20
-1357.132440600486
 30
0.0
  0
SPLINE
  5
82
330
70
100
AcDbEntity
  8
Layer 1
100
AcDbSpline
210
0.0
220
0.0
230
1.0
 70
     9
 71
     3
 72
    23
 73
    19
 74
     0
 42
0.0000000001
 43
0.0000000001
 40
0.0
 40
0.0
 40
0.0
 40
0.0
 40
1.0
 40
1.0
 40
1.0
 40
2.0
 40
2.0
 40
2.0
 40
3.0
 40
3.0
 40
3.0
 40
4.0
 40
4.0
 40
4.0
 40
5.0
 40
5.0
 40
5.0
 40
6.0
 40
6.0
 40
6.0
 40
6.0
 10
3872.686762921289
 20
-1426.089708128256
 30
0.0
 10
3872.218392326823
 20
-1420.972243313888
 30
0.0
 10
3870.753249390384
 20
-1419.961913383871
 30
0.0
 10
3865.68934334491
 20
-1421.393762577765
 30
0.0
 10
3862.893113895299
 20
-1422.184417607419
 30
0.0
 10
3860.117409710571
 20
-1423.055158946667
 30
0.0
 10
3857.358285238783
 20
-1423.967874242724
 30
0.0
 10
3852.817341116004
 20
-1425.4700046299
 30
0.0
 10
3852.131184449225
 20
-1428.890479159992
 30
0.0
 10
3855.47871663717
 20
-1432.52374486153
 30
0.0
 10
3857.263944573455
 20
-1434.461363445411
 30
0.0
 10
3859.209907579947
 20
-1433.699787973037
 30
0.0
 10
3860.986497275919
 20
-1432.95224859182
 30
0.0
 10
3865.02571829815
 20
-1431.252773449301
 30
0.0
 10
3869.860085563408
 20
-1431.110162733639
 30
0.0
 10
3872.766941573589
 20
-1427.145134877472
 30
0.0
 10
3872.92668605842
 20
-1426.927239672874
 30
0.0
 10
3872.728552192692
 20
-1426.446956869462
 30
0.0
 10
3872.686762921289
 20
-1426.089708128256
 30
0.0
  0
SPLINE
  5
83
330
70
100
AcDbEntity
  8
Layer 1
100
AcDbSpline
210
0.0
220
0.0
230
1.0
 70
     9
 71
     3
 72
    23
 73
    19
 74
     0
 42
0.0000000001
 43
0.0000000001
 40
0.0
 40
0.0
 40
0.0
 40
0.0
 40
1.0
 40
1.0
 40
1.0
 40
2.0
 40
2.0
 40
2.0
 40
3.0
 40
3.0
 40
3.0
 40
4.0
 40
4.0
 40
4.0
 40
5.0
 40
5.0
 40
5.0
 40
6.0
 40
6.0
 40
6.0
 40
6.0
 10
3884.749490473301
 20
-1418.79513812203
 30
0.0
 10
3884.885620410032
 20
-1422.852374366521
 30
0.0
 10
3886.466057411033
 20
-1425.125079442412
 30
0.0
 10
3890.621588267585
 20
-1423.738595701041
 30
0.0
 10
3894.953863061476
 20
-1422.293012628477
 30
0.0
 10
3899.262363806231
 20
-1420.70841181096
 30
0.0
 10
3903.418574640883
 20
-1418.825493687596
 30
0.0
 10
3906.452015710011
 20
-1417.45126634161
 30
0.0
 10
3905.63486671882
 20
-1414.341869200238
 30
0.0
 10
3905.186467333
 20
-1411.997573343607
 30
0.0
 10
3904.630832882324
 20
-1409.09270689898
 30
0.0
 10
3902.240080250298
 20
-1410.66004802546
 30
0.0
 10
3900.700794516552
 20
-1411.049230553009
 30
0.0
 10
3896.443552367857
 20
-1412.125778597292
 30
0.0
 10
3892.251252325137
 20
-1413.457729773974
 30
0.0
 10
3888.026951337748
 20
-1414.666546150958
 30
0.0
 10
3885.826794048806
 20
-1415.296189082284
 30
0.0
 10
3884.496135669991
 20
-1416.546610045261
 30
0.0
 10
3884.749490473301
 20
-1418.79513812203
 30
0.0
  0
SPLINE
  5
84
330
70
100
AcDbEntity
  8
Layer 1
100
AcDbSpline
210
0.0
220
0.0
230
1.0
 70
     9
 71
     3
 72
    23
 73
    19
 74
     0
 42
0.0000000001
 43
0.0000000001
 40
0.0
 40
0.0
 40
0.0
 40
0.0
 40
1.0
 40
1.0
 40
1.0
 40
2.0
 40
2.0
 40
2.0
 40
3.0
 40
3.0
 40
3.0
 40
4.0
 40
4.0
 40
4.0
 40
5.0
 40
5.0
 40
5.0
 40
6.0
 40
6.0
 40
6.0
 40
6.0
 10
3905.8577316399
 20
-1349.408544174417
 30
0.0
 10
3906.503677256054
 20
-1345.469271538146
 30
0.0
 10
3905.533877378732
 20
-1344.07543395954
 30
0.0
 10
3901.804592053593
 20
-1345.352835781952
 30
0.0
 10
3898.531194268168
 20
-1346.474060905864
 30
0.0
 10
3895.115521558737
 20
-1347.653696988073
 30
0.0
 10
3891.7133644634
 20
-1347.824396675631
 30
0.0
 10
3885.085273732997
 20
-1348.156964730235
 30
0.0
 10
3884.033800930514
 20
-1352.467152828048
 30
0.0
 10
3883.38513540196
 20
-1357.656493846058
 30
0.0
 10
3883.032470216835
 20
-1360.477848906215
 30
0.0
 10
3884.14174115785
 20
-1360.856487575813
 30
0.0
 10
3886.446212124256
 20
-1360.370664210102
 30
0.0
 10
3890.377484524359
 20
-1359.54184645892
 30
0.0
 10
3894.289969381391
 20
-1358.42075565167
 30
0.0
 10
3898.267866452722
 20
-1358.064262441683
 30
0.0
 10
3904.132081537916
 20
-1357.538714923248
 30
0.0
 10
3906.935287059149
 20
-1354.925886480527
 30
0.0
 10
3905.8577316399
 20
-1349.408544174417
 30
0.0
  0
SPLINE
  5
85
330
70
100
AcDbEntity
  8
Layer 1
100
AcDbSpline
210
0.0
220
0.0
230
1.0
 70
     9
 71
     3
 72
    23
 73
    19
 74
     0
 42
0.0000000001
 43
0.0000000001
 40
0.0
 40
0.0
 40
0.0
 40
0.0
 40
1.0
 40
1.0
 40
1.0
 40
2.0
 40
2.0
 40
2.0
 40
3.0
 40
3.0
 40
3.0
 40
4.0
 40
4.0
 40
4.0
 40
5.0
 40
5.0
 40
5.0
 40
6.0
 40
6.0
 40
6.0
 40
6.0
 10
3904.512113742882
 20
-1369.240634342517
 30
0.0
 10
3903.636755268382
 20
-1368.582012591407
 30
0.0
 10
3907.447419700986
 20
-1364.131144579944
 30
0.0
 10
3902.504751232364
 20
-1364.793258564259
 30
0.0
 10
3896.943437009099
 20
-1365.538262718484
 30
0.0
 10
3891.379226582811
 20
-1366.926710841035
 30
0.0
 10
3886.083431215541
 20
-1368.793225542078
 30
0.0
 10
3881.214888754645
 20
-1370.509154475669
 30
0.0
 10
3882.897599498812
 20
-1375.367287395274
 30
0.0
 10
3883.195933594239
 20
-1378.784252902573
 30
0.0
 10
3883.532992862221
 20
-1382.645017450028
 30
0.0
 10
3886.911233196968
 20
-1380.412154053938
 30
0.0
 10
3888.900429378979
 20
-1380.159386886025
 30
0.0
 10
3892.136419974095
 20
-1379.74810926761
 30
0.0
 10
3895.285448925492
 20
-1378.692850414223
 30
0.0
 10
3898.512960781331
 20
-1378.164616562553
 30
0.0
 10
3903.115740937281
 20
-1377.411284775295
 30
0.0
 10
3906.09950163113
 20
-1375.539615672354
 30
0.0
 10
3904.512113742882
 20
-1369.240634342517
 30
0.0
  0
SPLINE
  5
86
330
70
100
AcDbEntity
  8
Layer 1
100
AcDbSpline
210
0.0
220
0.0
230
1.0
 70
     9
 71
     3
 72
    23
 73
    19
 74
     0
 42
0.0000000001
 43
0.0000000001
 40
0.0
 40
0.0
 40
0.0
 40
0.0
 40
1.0
 40
1.0
 40
1.0
 40
2.0
 40
2.0
 40
2.0
 40
3.0
 40
3.0
 40
3.0
 40
4.0
 40
4.0
 40
4.0
 40
5.0
 40
5.0
 40
5.0
 40
6.0
 40
6.0
 40
6.0
 40
6.0
 10
3884.339027149648
 20
-1397.856950244055
 30
0.0
 10
3884.351300334622
 20
-1405.475290563536
 30
0.0
 10
3884.366125536168
 20
-1405.535665903011
 30
0.0
 10
3890.951747017067
 20
-1403.917922449193
 30
0.0
 10
3894.662698117873
 20
-1403.006348844763
 30
0.0
 10
3898.29404141219
 20
-1401.772549568683
 30
0.0
 10
3902.001013381885
 20
-1400.842339527426
 30
0.0
 10
3904.767281821123
 20
-1400.148191019274
 30
0.0
 10
3905.686343579453
 20
-1398.546296931548
 30
0.0
 10
3905.7654057245
 20
-1395.730784646181
 30
0.0
 10
3906.049502253778
 20
-1385.615061054788
 30
0.0
 10
3905.840723792602
 20
-1385.380158002895
 30
0.0
 10
3895.978590058682
 20
-1388.089308281706
 30
0.0
 10
3894.397523448324
 20
-1388.523621207616
 30
0.0
 10
3892.844646547363
 20
-1389.209542820234
 30
0.0
 10
3891.237438556704
 20
-1389.372972618472
 30
0.0
 10
3885.414173263774
 20
-1389.965090832411
 30
0.0
 10
3883.433229161676
 20
-1393.245187661345
 30
0.0
 10
3884.339027149648
 20
-1397.856950244055
 30
0.0
  0
SPLINE
  5
87
330
70
100
AcDbEntity
  8
Layer 1
100
AcDbSpline
210
0.0
220
0.0
230
1.0
 70
     9
 71
     3
 72
    47
 73
    43
 74
     0
 42
0.0000000001
 43
0.0000000001
 40
0.0
 40
0.0
 40
0.0
 40
0.0
 40
1.0
 40
1.0
 40
1.0
 40
2.0
 40
2.0
 40
2.0
 40
3.0
 40
3.0
 40
3.0
 40
4.0
 40
4.0
 40
4.0
 40
5.0
 40
5.0
 40
5.0
 40
6.0
 40
6.0
 40
6.0
 40
7.0
 40
7.0
 40
7.0
 40
8.0
 40
8.0
 40
8.0
 40
9.0
 40
9.0
 40
9.0
 40
10.0
 40
10.0
 40
10.0
 40
11.0
 40
11.0
 40
11.0
 40
12.0
 40
12.0
 40
12.0
 40
13.0
 40
13.0
 40
13.0
 40
14.0
 40
14.0
 40
14.0
 40
14.0
 10
3931.87287106913
 20
-1418.632816436249
 30
0.0
 10
3931.91835404873
 20
-1421.438557184472
 30
0.0
 10
3931.747939784078
 20
-1424.292987722598
 30
0.0
 10
3929.309723001689
 20
-1426.119123477187
 30
0.0
 10
3924.704860937478
 20
-1429.568039560414
 30
0.0
 10
3919.529035533562
 20
-1431.802531546025
 30
0.0
 10
3913.786578502286
 20
-1432.617665787289
 30
0.0
 10
3911.463084938655
 20
-1432.947446771159
 30
0.0
 10
3909.859814105143
 20
-1432.138121725518
 30
0.0
 10
3909.178711102768
 20
-1429.809540918319
 30
0.0
 10
3908.089016815213
 20
-1426.084167565958
 30
0.0
 10
3905.814599201882
 20
-1426.023725068149
 30
0.0
 10
3902.938745156202
 20
-1427.771419892251
 30
0.0
 10
3900.597219580724
 20
-1429.194404186466
 30
0.0
 10
3898.228528460399
 20
-1430.574104936418
 30
0.0
 10
3895.91332895063
 20
-1432.038525920798
 30
0.0
 10
3894.263601341723
 20
-1433.082032066279
 30
0.0
 10
3894.348472682394
 20
-1433.992061029101
 30
0.0
 10
3895.863329573278
 20
-1435.386469453518
 30
0.0
 10
3905.617825292355
 20
-1444.365471136141
 30
0.0
 10
3919.415705850175
 20
-1445.696381358699
 30
0.0
 10
3929.964147357119
 20
-1437.929251757112
 30
0.0
 10
3934.646342239356
 20
-1434.481578103008
 30
0.0
 10
3939.570256744076
 20
-1432.93025423845
 30
0.0
 10
3945.170875380498
 20
-1432.620990124669
 30
0.0
 10
3949.010149262065
 20
-1432.409004853191
 30
0.0
 10
3952.857633249582
 20
-1432.004678122026
 30
0.0
 10
3956.429885607502
 20
-1430.433710445679
 30
0.0
 10
3959.912196170762
 20
-1428.90236618456
 30
0.0
 10
3961.801762968889
 20
-1426.135409372429
 30
0.0
 10
3962.139804427459
 20
-1422.350365843064
 30
0.0
 10
3962.461862203278
 20
-1418.744198528045
 30
0.0
 10
3959.806589695427
 20
-1417.275311514659
 30
0.0
 10
3957.292030680392
 20
-1415.718749300289
 30
0.0
 10
3952.197450067279
 20
-1412.565195556352
 30
0.0
 10
3946.432730049312
 20
-1411.447613771892
 30
0.0
 10
3940.687687422292
 20
-1410.31868222951
 30
0.0
 10
3931.275682401209
 20
-1408.469108217436
 30
0.0
 10
3931.268815461876
 20
-1408.50389623284
 30
0.0
 10
3931.822586268868
 20
-1418.080103372966
 30
0.0
 10
3931.833146916402
 20
-1418.262774033006
 30
0.0
 10
3931.846276370094
 20
-1418.445310376384
 30
0.0
 10
3931.87287106913
 20
-1418.632816436249
 30
0.0
  0
SPLINE
  5
88
330
70
100
AcDbEntity
  8
Layer 1
100
AcDbSpline
210
0.0
220
0.0
230
1.0
 70
     9
 71
     3
 72
   128
 73
   124
 74
     0
 42
0.0000000001
 43
0.0000000001
 40
0.0
 40
0.0
 40
0.0
 40
0.0
 40
1.0
 40
1.0
 40
1.0
 40
2.0
 40
2.0
 40
2.0
 40
3.0
 40
3.0
 40
3.0
 40
4.0
 40
4.0
 40
4.0
 40
5.0
 40
5.0
 40
5.0
 40
6.0
 40
6.0
 40
6.0
 40
7.0
 40
7.0
 40
7.0
 40
8.0
 40
8.0
 40
8.0
 40
9.0
 40
9.0
 40
9.0
 40
10.0
 40
10.0
 40
10.0
 40
11.0
 40
11.0
 40
11.0
 40
12.0
 40
12.0
 40
12.0
 40
13.0
 40
13.0
 40
13.0
 40
14.0
 40
14.0
 40
14.0
 40
15.0
 40
15.0
 40
15.0
 40
16.0
 40
16.0
 40
16.0
 40
17.0
 40
17.0
 40
17.0
 40
18.0
 40
18.0
 40
18.0
 40
19.0
 40
19.0
 40
19.0
 40
20.0
 40
20.0
 40
20.0
 40
21.0
 40
21.0
 40
21.0
 40
22.0
 40
22.0
 40
22.0
 40
23.0
 40
23.0
 40
23.0
 40
24.0
 40
24.0
 40
24.0
 40
25.0
 40
25.0
 40
25.0
 40
26.0
 40
26.0
 40
26.0
 40
27.0
 40
27.0
 40
27.0
 40
28.0
 40
28.0
 40
28.0
 40
29.0
 40
29.0
 40
29.0
 40
30.0
 40
30.0
 40
30.0
 40
31.0
 40
31.0
 40
31.0
 40
32.0
 40
32.0
 40
32.0
 40
33.0
 40
33.0
 40
33.0
 40
34.0
 40
34.0
 40
34.0
 40
35.0
 40
35.0
 40
35.0
 40
36.0
 40
36.0
 40
36.0
 40
37.0
 40
37.0
 40
37.0
 40
38.0
 40
38.0
 40
38.0
 40
39.0
 40
39.0
 40
39.0
 40
40.0
 40
40.0
 40
40.0
 40
41.0
 40
41.0
 40
41.0
 40
41.0
 10
3848.288057358425
 20
-1373.3495825018
 30
0.0
 10
3848.720825642728
 20
-1365.849021105128
 30
0.0
 10
3849.155936073819
 20
-1358.348594025119
 30
0.0
 10
3849.585119782211
 20
-1350.847831153456
 30
0.0
 10
3849.743369994178
 20
-1348.082200718363
 30
0.0
 10
3850.472247754197
 20
-1345.764751404509
 30
0.0
 10
3853.720200927003
 20
-1345.285005867747
 30
0.0
 10
3874.797767525963
 20
-1342.171579226517
 30
0.0
 10
3894.98203598129
 20
-1335.162482495354
 30
0.0
 10
3915.829870719832
 20
-1331.063927087776
 30
0.0
 10
3919.216749294892
 20
-1330.398085816097
 30
0.0
 10
3922.760459362179
 20
-1330.106585080837
 30
0.0
 10
3926.206135055937
 20
-1330.25117696726
 30
0.0
 10
3933.452317484751
 20
-1330.555219520815
 30
0.0
 10
3936.053527536229
 20
-1334.200389036501
 30
0.0
 10
3934.053401335865
 20
-1341.169526560785
 30
0.0
 10
3929.366270316304
 20
-1357.501089468362
 30
0.0
 10
3926.733143268072
 20
-1374.027277218883
 30
0.0
 10
3927.866759104034
 20
-1391.10706788057
 30
0.0
 10
3928.204599087612
 20
-1396.197232833427
 30
0.0
 10
3929.167599183928
 20
-1398.677054201806
 30
0.0
 10
3935.177850059658
 20
-1399.272446384373
 30
0.0
 10
3951.79043700288
 20
-1400.918026966348
 30
0.0
 10
3967.584212786215
 20
-1405.505176020782
 30
0.0
 10
3980.713330684963
 20
-1416.591236756143
 30
0.0
 10
3986.633874820198
 20
-1421.590469328963
 30
0.0
 10
3989.41286976314
 20
-1427.883842938172
 30
0.0
 10
3987.349144623417
 20
-1435.674645851399
 30
0.0
 10
3985.32396836563
 20
-1443.3199838199
 30
0.0
 10
3979.708558106826
 20
-1447.458548803108
 30
0.0
 10
3972.380106722662
 20
-1448.447253750579
 30
0.0
 10
3962.518023357489
 20
-1449.777761023146
 30
0.0
 10
3952.996348782052
 20
-1451.857184422715
 30
0.0
 10
3943.636911944477
 20
-1455.341123575505
 30
0.0
 10
3937.900650269223
 20
-1457.476321968887
 30
0.0
 10
3931.711909339551
 20
-1456.541142211143
 30
0.0
 10
3925.819034436647
 20
-1454.505035935002
 30
0.0
 10
3912.662986047211
 20
-1449.959289991562
 30
0.0
 10
3899.51444260125
 20
-1445.39890353199
 30
0.0
 10
3887.341802045934
 20
-1438.513965765069
 30
0.0
 10
3885.345780898546
 20
-1437.385034222687
 30
0.0
 10
3883.343875002417
 20
-1436.945818738623
 30
0.0
 10
3881.785314827701
 20
-1438.543582588994
 30
0.0
 10
3876.346203582294
 20
-1444.11936943257
 30
0.0
 10
3870.267837369453
 20
-1442.692926484313
 30
0.0
 10
3863.908379962637
 20
-1440.78794684925
 30
0.0
 10
3857.478330755259
 20
-1438.861812339954
 30
0.0
 10
3857.429943177851
 20
-1439.018123355116
 30
0.0
 10
3856.62611672055
 20
-1445.615388411636
 30
0.0
 10
3856.471039739716
 20
-1446.888173098799
 30
0.0
 10
3856.395041693513
 20
-1448.173952922992
 30
0.0
 10
3856.172529353671
 20
-1449.434346898106
 30
0.0
 10
3855.838223577253
 20
-1451.32787603775
 30
0.0
 10
3855.058960279481
 20
-1453.028560030227
 30
0.0
 10
3853.020218038853
 20
-1453.53567258683
 30
0.0
 10
3850.942985679829
 20
-1454.052388784752
 30
0.0
 10
3849.49281905118
 20
-1452.779402622596
 30
0.0
 10
3848.355509507021
 20
-1451.282342689403
 30
0.0
 10
3844.506329771649
 20
-1446.215481677369
 30
0.0
 10
3842.720984308288
 20
-1440.16216552195
 30
0.0
 10
3840.917951019523
 20
-1434.241890020039
 30
0.0
 10
3839.503521017706
 20
-1429.597522067677
 30
0.0
 10
3837.108512226457
 20
-1427.762588571739
 30
0.0
 10
3832.271139625891
 20
-1427.91567598702
 30
0.0
 10
3826.01702006109
 20
-1428.113658746504
 30
0.0
 10
3819.874605787549
 20
-1426.825326905738
 30
0.0
 10
3813.868627860624
 20
-1425.052817078369
 30
0.0
 10
3811.009080697162
 20
-1424.208871913149
 30
0.0
 10
3808.430448437057
 20
-1422.794853256109
 30
0.0
 10
3806.377401471948
 20
-1420.625471272302
 30
0.0
 10
3804.470012531763
 20
-1418.609982603746
 30
0.0
 10
3803.861948411629
 20
-1416.198897787039
 30
0.0
 10
3804.944209111435
 20
-1413.529119079718
 30
0.0
 10
3806.018943880785
 20
-1410.877943230054
 30
0.0
 10
3808.38082262792
 20
-1411.770275972685
 30
0.0
 10
3810.192397616893
 20
-1411.937164424966
 30
0.0
 10
3816.388072644232
 20
-1412.507909500094
 30
0.0
 10
3822.566147991476
 20
-1413.291949434155
 30
0.0
 10
3828.737427755115
 20
-1414.098118038244
 30
0.0
 10
3833.356149619866
 20
-1414.701401324695
 30
0.0
 10
3834.51330445081
 20
-1412.841384192164
 30
0.0
 10
3833.567530466365
 20
-1408.453896855488
 30
0.0
 10
3831.868542221744
 20
-1400.572127983061
 30
0.0
 10
3830.539537616829
 20
-1392.610491065618
 30
0.0
 10
3829.064799433867
 20
-1384.680569669937
 30
0.0
 10
3828.657652052802
 20
-1382.491325609768
 30
0.0
 10
3828.105232807216
 20
-1380.10869913578
 30
0.0
 10
3830.444533762982
 20
-1378.71944511326
 30
0.0
 10
3833.001192656701
 20
-1377.201112778752
 30
0.0
 10
3835.085619351923
 20
-1378.926863618235
 30
0.0
 10
3836.813158281965
 20
-1380.502482008997
 30
0.0
 10
3841.380008730887
 20
-1384.667792797485
 30
0.0
 10
3843.012602570625
 20
-1390.356959693195
 30
0.0
 10
3844.193086526762
 20
-1396.133566735734
 30
0.0
 10
3845.152821049238
 20
-1400.829948815375
 30
0.0
 10
3846.438567294265
 20
-1405.379220571187
 30
0.0
 10
3848.389323726626
 20
-1409.761570295552
 30
0.0
 10
3849.606325025188
 20
-1412.495619525543
 30
0.0
 10
3851.413228312771
 20
-1413.763434496221
 30
0.0
 10
3854.455534281579
 20
-1412.993464232484
 30
0.0
 10
3856.228279163106
 20
-1412.544779423759
 30
0.0
 10
3858.052257456317
 20
-1412.301095420098
 30
0.0
 10
3859.830878691797
 20
-1411.872591689807
 30
0.0
 10
3871.247509521416
 20
-1409.122290143743
 30
0.0
 10
3871.649477316207
 20
-1408.423239077434
 30
0.0
 10
3870.965469716021
 20
-1396.620263159748
 30
0.0
 10
3870.78261437057
 20
-1393.464963299204
 30
0.0
 10
3869.597085144824
 20
-1393.034495187738
 30
0.0
 10
3866.822925601706
 20
-1393.538803884024
 30
0.0
 10
3862.223100412311
 20
-1394.374992262026
 30
0.0
 10
3861.167086027703
 20
-1398.329610576908
 30
0.0
 10
3859.187140905773
 20
-1401.518220969578
 30
0.0
 10
3856.220589534217
 20
-1406.295730312941
 30
0.0
 10
3854.930645893512
 20
-1406.373231026795
 30
0.0
 10
3852.234339645484
 20
-1401.377087737197
 30
0.0
 10
3848.822696435907
 20
-1395.055507629007
 30
0.0
 10
3848.389055093305
 20
-1388.093320991975
 30
0.0
 10
3848.574210611589
 20
-1381.061306480391
 30
0.0
 10
3848.641738313303
 20
-1378.49641229635
 30
0.0
 10
3848.585081866402
 20
-1375.928244143673
 30
0.0
 10
3848.585081866402
 20
-1373.361570263863
 30
0.0
 10
3848.486073697075
 20
-1373.357574343176
 30
0.0
 10
3848.387065527751
 20
-1373.353578422488
 30
0.0
 10
3848.288057358425
 20
-1373.3495825018
 30
0.0
  0
HATCH
  5
89
330
70
100
AcDbEntity
  8
Layer 1
 62
   246
420
  8590872
440
 33554687
100
AcDbHatch
 10
0.0
 20
0.0
 30
0.0
210
0.0
220
0.0
230
1.0
  2
SOLID
 70
     1
 71
     1
 91
        9
 92
        1
 93
        1
 72
     4
 94
        3
 73
     0
 74
     0
 95
       17
 96
       13
 40
0.0
 40
0.0
 40
0.0
 40
0.0
 40
1.0
 40
1.0
 40
1.0
 40
2.0
 40
2.0
 40
2.0
 40
3.0
 40
3.0
 40
3.0
 40
4.0
 40
4.0
 40
4.0
 40
4.0
 10
3871.710222026506
 20
-1377.245420487561
 10
3871.251816049383
 20
-1375.365457330757
 10
3872.884393099538
 20
-1372.091018591203
 10
3868.49321205466
 20
-1372.076680287555
 10
3862.700873173106
 20
-1372.057758427825
 10
3860.349231874037
 20
-1373.635357989347
 10
3860.546366759592
 20
-1378.323781806779
 10
3860.652317421374
 20
-1380.843663119536
 10
3859.281019857577
 20
-1384.586380110853
 10
3864.158779799387
 20
-1384.643313585871
 10
3870.183033187112
 20
-1384.713628358324
 10
3871.632267993917
 20
-1383.415105240841
 10
3871.710222026506
 20
-1377.245420487561
 97
        0
 97
        1
330
80
 92
        1
 93
        1
 72
     4
 94
        3
 73
     0
 74
     0
 95
       17
 96
       13
 40
0.0
 40
0.0
 40
0.0
 40
0.0
 40
1.0
 40
1.0
 40
1.0
 40
2.0
 40
2.0
 40
2.0
 40
3.0
 40
3.0
 40
3.0
 40
4.0
 40
4.0
 40
4.0
 40
4.0
 10
3872.794929807989
 20
-1357.132440600486
 10
3872.440191109401
 20
-1355.531016621077
 10
3874.282453258196
 20
-1351.930994293332
 10
3870.506551656627
 20
-1352.761155211134
 10
3867.036119723138
 20
-1353.52414100846
 10
3861.299690152058
 20
-1350.892054914351
 10
3860.629458404498
 20
-1357.306699679582
 10
3860.372275576325
 20
-1359.768186823625
 10
3859.282967449175
 20
-1363.508150323374
 10
3864.036786691313
 20
-1363.85126223593
 10
3870.143930248947
 20
-1364.292039151191
 10
3872.439301261517
 20
-1362.644359871377
 10
3872.794929807989
 20
-1357.132440600486
 97
        0
 97
        1
330
81
 92
        1
 93
        1
 72
     4
 94
        3
 73
     0
 74
     0
 95
       23
 96
       19
 40
0.0
 40
0.0
 40
0.0
 40
0.0
 40
1.0
 40
1.0
 40
1.0
 40
2.0
 40
2.0
 40
2.0
 40
3.0
 40
3.0
 40
3.0
 40
4.0
 40
4.0
 40
4.0
 40
5.0
 40
5.0
 40
5.0
 40
6.0
 40
6.0
 40
6.0
 40
6.0
 10
3872.686762921289
 20
-1426.089708128256
 10
3872.218392326823
 20
-1420.972243313888
 10
3870.753249390384
 20
-1419.961913383871
 10
3865.68934334491
 20
-1421.393762577765
 10
3862.893113895299
 20
-1422.184417607419
 10
3860.117409710571
 20
-1423.055158946667
 10
3857.358285238783
 20
-1423.967874242724
 10
3852.817341116004
 20
-1425.4700046299
 10
3852.131184449225
 20
-1428.890479159992
 10
3855.47871663717
 20
-1432.52374486153
 10
3857.263944573455
 20
-1434.461363445411
 10
3859.209907579947
 20
-1433.699787973037
 10
3860.986497275919
 20
-1432.95224859182
 10
3865.02571829815
 20
-1431.252773449301
 10
3869.860085563408
 20
-1431.110162733639
 10
3872.766941573589
 20
-1427.145134877472
 10
3872.92668605842
 20
-1426.927239672874
 10
3872.728552192692
 20
-1426.446956869462
 10
3872.686762921289
 20
-1426.089708128256
 97
        0
 97
        1
330
82
 92
        1
 93
        1
 72
     4
 94
        3
 73
     0
 74
     0
 95
       23
 96
       19
 40
0.0
 40
0.0
 40
0.0
 40
0.0
 40
1.0
 40
1.0
 40
1.0
 40
2.0
 40
2.0
 40
2.0
 40
3.0
 40
3.0
 40
3.0
 40
4.0
 40
4.0
 40
4.0
 40
5.0
 40
5.0
 40
5.0
 40
6.0
 40
6.0
 40
6.0
 40
6.0
 10
3884.749490473301
 20
-1418.79513812203
 10
3884.885620410032
 20
-1422.852374366521
 10
3886.466057411033
 20
-1425.125079442412
 10
3890.621588267585
 20
-1423.738595701041
 10
3894.953863061476
 20
-1422.293012628477
 10
3899.262363806231
 20
-1420.70841181096
 10
3903.418574640883
 20
-1418.825493687596
 10
3906.452015710011
 20
-1417.45126634161
 10
3905.63486671882
 20
-1414.341869200238
 10
3905.186467333
 20
-1411.997573343607
 10
3904.630832882324
 20
-1409.09270689898
 10
3902.240080250298
 20
-1410.66004802546
 10
3900.700794516552
 20
-1411.049230553009
 10
3896.443552367857
 20
-1412.125778597292
 10
3892.251252325137
 20
-1413.457729773974
 10
3888.026951337748
 20
-1414.666546150958
 10
3885.826794048806
 20
-1415.296189082284
 10
3884.496135669991
 20
-1416.546610045261
 10
3884.749490473301
 20
-1418.79513812203
 97
        0
 97
        1
330
83
 92
        1
 93
        1
 72
     4
 94
        3
 73
     0
 74
     0
 95
       23
 96
       19
 40
0.0
 40
0.0
 40
0.0
 40
0.0
 40
1.0
 40
1.0
 40
1.0
 40
2.0
 40
2.0
 40
2.0
 40
3.0
 40
3.0
 40
3.0
 40
4.0
 40
4.0
 40
4.0
 40
5.0
 40
5.0
 40
5.0
 40
6.0
 40
6.0
 40
6.0
 40
6.0
 10
3905.8577316399
 20
-1349.408544174417
 10
3906.503677256054
 20
-1345.469271538146
 10
3905.533877378732
 20
-1344.07543395954
 10
3901.804592053593
 20
-1345.352835781952
 10
3898.531194268168
 20
-1346.474060905864
 10
3895.115521558737
 20
-1347.653696988073
 10
3891.7133644634
 20
-1347.824396675631
 10
3885.085273732997
 20
-1348.156964730235
 10
3884.033800930514
 20
-1352.467152828048
 10
3883.38513540196
 20
-1357.656493846058
 10
3883.032470216835
 20
-1360.477848906215
 10
3884.14174115785
 20
-1360.856487575813
 10
3886.446212124256
 20
-1360.370664210102
 10
3890.377484524359
 20
-1359.54184645892
 10
3894.289969381391
 20
-1358.42075565167
 10
3898.267866452722
 20
-1358.064262441683
 10
3904.132081537916
 20
-1357.538714923248
 10
3906.935287059149
 20
-1354.925886480527
 10
3905.8577316399
 20
-1349.408544174417
 97
        0
 97
        1
330
84
 92
        1
 93
        1
 72
     4
 94
        3
 73
     0
 74
     0
 95
       23
 96
       19
 40
0.0
 40
0.0
 40
0.0
 40
0.0
 40
1.0
 40
1.0
 40
1.0
 40
2.0
 40
2.0
 40
2.0
 40
3.0
 40
3.0
 40
3.0
 40
4.0
 40
4.0
 40
4.0
 40
5.0
 40
5.0
 40
5.0
 40
6.0
 40
6.0
 40
6.0
 40
6.0
 10
3904.512113742882
 20
-1369.240634342517
 10
3903.636755268382
 20
-1368.582012591407
 10
3907.447419700986
 20
-1364.131144579944
 10
3902.504751232364
 20
-1364.793258564259
 10
3896.943437009099
 20
-1365.538262718484
 10
3891.379226582811
 20
-1366.926710841035
 10
3886.083431215541
 20
-1368.793225542078
 10
3881.214888754645
 20
-1370.509154475669
 10
3882.897599498812
 20
-1375.367287395274
 10
3883.195933594239
 20
-1378.784252902573
 10
3883.532992862221
 20
-1382.645017450028
 10
3886.911233196968
 20
-1380.412154053938
 10
3888.900429378979
 20
-1380.159386886025
 10
3892.136419974095
 20
-1379.74810926761
 10
3895.285448925492
 20
-1378.692850414223
 10
3898.512960781331
 20
-1378.164616562553
 10
3903.115740937281
 20
-1377.411284775295
 10
3906.09950163113
 20
-1375.539615672354
 10
3904.512113742882
 20
-1369.240634342517
 97
        0
 97
        1
330
85
 92
        1
 93
        1
 72
     4
 94
        3
 73
     0
 74
     0
 95
       23
 96
       19
 40
0.0
 40
0.0
 40
0.0
 40
0.0
 40
1.0
 40
1.0
 40
1.0
 40
2.0
 40
2.0
 40
2.0
 40
3.0
 40
3.0
 40
3.0
 40
4.0
 40
4.0
 40
4.0
 40
5.0
 40
5.0
 40
5.0
 40
6.0
 40
6.0
 40
6.0
 40
6.0
 10
3884.339027149648
 20
-1397.856950244055
 10
3884.351300334622
 20
-1405.475290563536
 10
3884.366125536168
 20
-1405.535665903011
 10
3890.951747017067
 20
-1403.917922449193
 10
3894.662698117873
 20
-1403.006348844763
 10
3898.29404141219
 20
-1401.772549568683
 10
3902.001013381885
 20
-1400.842339527426
 10
3904.767281821123
 20
-1400.148191019274
 10
3905.686343579453
 20
-1398.546296931548
 10
3905.7654057245
 20
-1395.730784646181
 10
3906.049502253778
 20
-1385.615061054788
 10
3905.840723792602
 20
-1385.380158002895
 10
3895.978590058682
 20
-1388.089308281706
 10
3894.397523448324
 20
-1388.523621207616
 10
3892.844646547363
 20
-1389.209542820234
 10
3891.237438556704
 20
-1389.372972618472
 10
3885.414173263774
 20
-1389.965090832411
 10
3883.433229161676
 20
-1393.245187661345
 10
3884.339027149648
 20
-1397.856950244055
 97
        0
 97
        1
330
86
 92
        1
 93
        1
 72
     4
 94
        3
 73
     0
 74
     0
 95
       47
 96
       43
 40
0.0
 40
0.0
 40
0.0
 40
0.0
 40
1.0
 40
1.0
 40
1.0
 40
2.0
 40
2.0
 40
2.0
 40
3.0
 40
3.0
 40
3.0
 40
4.0
 40
4.0
 40
4.0
 40
5.0
 40
5.0
 40
5.0
 40
6.0
 40
6.0
 40
6.0
 40
7.0
 40
7.0
 40
7.0
 40
8.0
 40
8.0
 40
8.0
 40
9.0
 40
9.0
 40
9.0
 40
10.0
 40
10.0
 40
10.0
 40
11.0
 40
11.0
 40
11.0
 40
12.0
 40
12.0
 40
12.0
 40
13.0
 40
13.0
 40
13.0
 40
14.0
 40
14.0
 40
14.0
 40
14.0
 10
3931.87287106913
 20
-1418.632816436249
 10
3931.91835404873
 20
-1421.438557184472
 10
3931.747939784078
 20
-1424.292987722598
 10
3929.309723001689
 20
-1426.119123477187
 10
3924.704860937478
 20
-1429.568039560414
 10
3919.529035533562
 20
-1431.802531546025
 10
3913.786578502286
 20
-1432.617665787289
 10
3911.463084938655
 20
-1432.947446771159
 10
3909.859814105143
 20
-1432.138121725518
 10
3909.178711102768
 20
-1429.809540918319
 10
3908.089016815213
 20
-1426.084167565958
 10
3905.814599201882
 20
-1426.023725068149
 10
3902.938745156202
 20
-1427.771419892251
 10
3900.597219580724
 20
-1429.194404186466
 10
3898.228528460399
 20
-1430.574104936418
 10
3895.91332895063
 20
-1432.038525920798
 10
3894.263601341723
 20
-1433.082032066279
 10
3894.348472682394
 20
-1433.992061029101
 10
3895.863329573278
 20
-1435.386469453518
 10
3905.617825292355
 20
-1444.365471136141
 10
3919.415705850175
 20
-1445.696381358699
 10
3929.964147357119
 20
-1437.929251757112
 10
3934.646342239356
 20
-1434.481578103008
 10
3939.570256744076
 20
-1432.93025423845
 10
3945.170875380498
 20
-1432.620990124669
 10
3949.010149262065
 20
-1432.409004853191
 10
3952.857633249582
 20
-1432.004678122026
 10
3956.429885607502
 20
-1430.433710445679
 10
3959.912196170762
 20
-1428.90236618456
 10
3961.801762968889
 20
-1426.135409372429
 10
3962.139804427459
 20
-1422.350365843064
 10
3962.461862203278
 20
-1418.744198528045
 10
3959.806589695427
 20
-1417.275311514659
 10
3957.292030680392
 20
-1415.718749300289
 10
3952.197450067279
 20
-1412.565195556352
 10
3946.432730049312
 20
-1411.447613771892
 10
3940.687687422292
 20
-1410.31868222951
 10
3931.275682401209
 20
-1408.469108217436
 10
3931.268815461876
 20
-1408.50389623284
 10
3931.822586268868
 20
-1418.080103372966
 10
3931.833146916402
 20
-1418.262774033006
 10
3931.846276370094
 20
-1418.445310376384
 10
3931.87287106913
 20
-1418.632816436249
 97
        0
 97
        1
330
87
 92
        1
 93
        1
 72
     4
 94
        3
 73
     0
 74
     0
 95
      128
 96
      124
 40
0.0
 40
0.0
 40
0.0
 40
0.0
 40
1.0
 40
1.0
 40
1.0
 40
2.0
 40
2.0
 40
2.0
 40
3.0
 40
3.0
 40
3.0
 40
4.0
 40
4.0
 40
4.0
 40
5.0
 40
5.0
 40
5.0
 40
6.0
 40
6.0
 40
6.0
 40
7.0
 40
7.0
 40
7.0
 40
8.0
 40
8.0
 40
8.0
 40
9.0
 40
9.0
 40
9.0
 40
10.0
 40
10.0
 40
10.0
 40
11.0
 40
11.0
 40
11.0
 40
12.0
 40
12.0
 40
12.0
 40
13.0
 40
13.0
 40
13.0
 40
14.0
 40
14.0
 40
14.0
 40
15.0
 40
15.0
 40
15.0
 40
16.0
 40
16.0
 40
16.0
 40
17.0
 40
17.0
 40
17.0
 40
18.0
 40
18.0
 40
18.0
 40
19.0
 40
19.0
 40
19.0
 40
20.0
 40
20.0
 40
20.0
 40
21.0
 40
21.0
 40
21.0
 40
22.0
 40
22.0
 40
22.0
 40
23.0
 40
23.0
 40
23.0
 40
24.0
 40
24.0
 40
24.0
 40
25.0
 40
25.0
 40
25.0
 40
26.0
 40
26.0
 40
26.0
 40
27.0
 40
27.0
 40
27.0
 40
28.0
 40
28.0
 40
28.0
 40
29.0
 40
29.0
 40
29.0
 40
30.0
 40
30.0
 40
30.0
 40
31.0
 40
31.0
 40
31.0
 40
32.0
 40
32.0
 40
32.0
 40
33.0
 40
33.0
 40
33.0
 40
34.0
 40
34.0
 40
34.0
 40
35.0
 40
35.0
 40
35.0
 40
36.0
 40
36.0
 40
36.0
 40
37.0
 40
37.0
 40
37.0
 40
38.0
 40
38.0
 40
38.0
 40
39.0
 40
39.0
 40
39.0
 40
40.0
 40
40.0
 40
40.0
 40
41.0
 40
41.0
 40
41.0
 40
41.0
 10
3848.288057358425
 20
-1373.3495825018
 10
3848.720825642728
 20
-1365.849021105128
 10
3849.155936073819
 20
-1358.348594025119
 10
3849.585119782211
 20
-1350.847831153456
 10
3849.743369994178
 20
-1348.082200718363
 10
3850.472247754197
 20
-1345.764751404509
 10
3853.720200927003
 20
-1345.285005867747
 10
3874.797767525963
 20
-1342.171579226517
 10
3894.98203598129
 20
-1335.162482495354
 10
3915.829870719832
 20
-1331.063927087776
 10
3919.216749294892
 20
-1330.398085816097
 10
3922.760459362179
 20
-1330.106585080837
 10
3926.206135055937
 20
-1330.25117696726
 10
3933.452317484751
 20
-1330.555219520815
 10
3936.053527536229
 20
-1334.200389036501
 10
3934.053401335865
 20
-1341.169526560785
 10
3929.366270316304
 20
-1357.501089468362
 10
3926.733143268072
 20
-1374.027277218883
 10
3927.866759104034
 20
-1391.10706788057
 10
3928.204599087612
 20
-1396.197232833427
 10
3929.167599183928
 20
-1398.677054201806
 10
3935.177850059658
 20
-1399.272446384373
 10
3951.79043700288
 20
-1400.918026966348
 10
3967.584212786215
 20
-1405.505176020782
 10
3980.713330684963
 20
-1416.591236756143
 10
3986.633874820198
 20
-1421.590469328963
 10
3989.41286976314
 20
-1427.883842938172
 10
3987.349144623417
 20
-1435.674645851399
 10
3985.32396836563
 20
-1443.3199838199
 10
3979.708558106826
 20
-1447.458548803108
 10
3972.380106722662
 20
-1448.447253750579
 10
3962.518023357489
 20
-1449.777761023146
 10
3952.996348782052
 20
-1451.857184422715
 10
3943.636911944477
 20
-1455.341123575505
 10
3937.900650269223
 20
-1457.476321968887
 10
3931.711909339551
 20
-1456.541142211143
 10
3925.819034436647
 20
-1454.505035935002
 10
3912.662986047211
 20
-1449.959289991562
 10
3899.51444260125
 20
-1445.39890353199
 10
3887.341802045934
 20
-1438.513965765069
 10
3885.345780898546
 20
-1437.385034222687
 10
3883.343875002417
 20
-1436.945818738623
 10
3881.785314827701
 20
-1438.543582588994
 10
3876.346203582294
 20
-1444.11936943257
 10
3870.267837369453
 20
-1442.692926484313
 10
3863.908379962637
 20
-1440.78794684925
 10
3857.478330755259
 20
-1438.861812339954
 10
3857.429943177851
 20
-1439.018123355116
 10
3856.62611672055
 20
-1445.615388411636
 10
3856.471039739716
 20
-1446.888173098799
 10
3856.395041693513
 20
-1448.173952922992
 10
3856.172529353671
 20
-1449.434346898106
 10
3855.838223577253
 20
-1451.32787603775
 10
3855.058960279481
 20
-1453.028560030227
 10
3853.020218038853
 20
-1453.53567258683
 10
3850.942985679829
 20
-1454.052388784752
 10
3849.49281905118
 20
-1452.779402622596
 10
3848.355509507021
 20
-1451.282342689403
 10
3844.506329771649
 20
-1446.215481677369
 10
3842.720984308288
 20
-1440.16216552195
 10
3840.917951019523
 20
-1434.241890020039
 10
3839.503521017706
 20
-1429.597522067677
 10
3837.108512226457
 20
-1427.762588571739
 10
3832.271139625891
 20
-1427.91567598702
 10
3826.01702006109
 20
-1428.113658746504
 10
3819.874605787549
 20
-1426.825326905738
 10
3813.868627860624
 20
-1425.052817078369
 10
3811.009080697162
 20
-1424.208871913149
 10
3808.430448437057
 20
-1422.794853256109
 10
3806.377401471948
 20
-1420.625471272302
 10
3804.470012531763
 20
-1418.609982603746
 10
3803.861948411629
 20
-1416.198897787039
 10
3804.944209111435
 20
-1413.529119079718
 10
3806.018943880785
 20
-1410.877943230054
 10
3808.38082262792
 20
-1411.770275972685
 10
3810.192397616893
 20
-1411.937164424966
 10
3816.388072644232
 20
-1412.507909500094
 10
3822.566147991476
 20
-1413.291949434155
 10
3828.737427755115
 20
-1414.098118038244
 10
3833.356149619866
 20
-1414.701401324695
 10
3834.51330445081
 20
-1412.841384192164
 10
3833.567530466365
 20
-1408.453896855488
 10
3831.868542221744
 20
-1400.572127983061
 10
3830.539537616829
 20
-1392.610491065618
 10
3829.064799433867
 20
-1384.680569669937
 10
3828.657652052802
 20
-1382.491325609768
 10
3828.105232807216
 20
-1380.10869913578
 10
3830.444533762982
 20
-1378.71944511326
 10
3833.001192656701
 20
-1377.201112778752
 10
3835.085619351923
 20
-1378.926863618235
 10
3836.813158281965
 20
-1380.502482008997
 10
3841.380008730887
 20
-1384.667792797485
 10
3843.012602570625
 20
-1390.356959693195
 10
3844.193086526762
 20
-1396.133566735734
 10
3845.152821049238
 20
-1400.829948815375
 10
3846.438567294265
 20
-1405.379220571187
 10
3848.389323726626
 20
-1409.761570295552
 10
3849.606325025188
 20
-1412.495619525543
 10
3851.413228312771
 20
-1413.763434496221
 10
3854.455534281579
 20
-1412.993464232484
 10
3856.228279163106
 20
-1412.544779423759
 10
3858.052257456317
 20
-1412.301095420098
 10
3859.830878691797
 20
-1411.872591689807
 10
3871.247509521416
 20
-1409.122290143743
 10
3871.649477316207
 20
-1408.423239077434
 10
3870.965469716021
 20
-1396.620263159748
 10
3870.78261437057
 20
-1393.464963299204
 10
3869.597085144824
 20
-1393.034495187738
 10
3866.822925601706
 20
-1393.538803884024
 10
3862.223100412311
 20
-1394.374992262026
 10
3861.167086027703
 20
-1398.329610576908
 10
3859.187140905773
 20
-1401.518220969578
 10
3856.220589534217
 20
-1406.295730312941
 10
3854.930645893512
 20
-1406.373231026795
 10
3852.234339645484
 20
-1401.377087737197
 10
3848.822696435907
 20
-1395.055507629007
 10
3848.389055093305
 20
-1388.093320991975
 10
3848.574210611589
 20
-1381.061306480391
 10
3848.641738313303
 20
-1378.49641229635
 10
3848.585081866402
 20
-1375.928244143673
 10
3848.585081866402
 20
-1373.361570263863
 10
3848.486073697075
 20
-1373.357574343176
 10
3848.387065527751
 20
-1373.353578422488
 10
3848.288057358425
 20
-1373.3495825018
 97
        0
 97
        1
330
88
 75
     2
 76
     1
 98
        1
 10
0.0
 20
0.0
450
        0
451
        0
460
0.0
461
0.0
452
        0
462
0.0
453
        0
470

  0
SPLINE
  5
8A
330
70
100
AcDbEntity
  8
Layer 1
100
AcDbSpline
210
0.0
220
0.0
230
1.0
 70
     9
 71
     3
 72
    80
 73
    76
 74
     0
 42
0.0000000001
 43
0.0000000001
 40
0.0
 40
0.0
 40
0.0
 40
0.0
 40
1.0
 40
1.0
 40
1.0
 40
2.0
 40
2.0
 40
2.0
 40
3.0
 40
3.0
 40
3.0
 40
4.0
 40
4.0
 40
4.0
 40
5.0
 40
5.0
 40
5.0
 40
6.0
 40
6.0
 40
6.0
 40
7.0
 40
7.0
 40
7.0
 40
8.0
 40
8.0
 40
8.0
 40
9.0
 40
9.0
 40
9.0
 40
10.0
 40
10.0
 40
10.0
 40
11.0
 40
11.0
 40
11.0
 40
12.0
 40
12.0
 40
12.0
 40
13.0
 40
13.0
 40
13.0
 40
14.0
 40
14.0
 40
14.0
 40
15.0
 40
15.0
 40
15.0
 40
16.0
 40
16.0
 40
16.0
 40
17.0
 40
17.0
 40
17.0
 40
18.0
 40
18.0
 40
18.0
 40
19.0
 40
19.0
 40
19.0
 40
20.0
 40
20.0
 40
20.0
 40
21.0
 40
21.0
 40
21.0
 40
22.0
 40
22.0
 40
22.0
 40
23.0
 40
23.0
 40
23.0
 40
24.0
 40
24.0
 40
24.0
 40
25.0
 40
25.0
 40
25.0
 40
25.0
 10
3841.011603311962
 20
-1189.531312508272
 30
0.0
 10
3851.496546617038
 20
-1190.028175024625
 30
0.0
 10
3860.598296938961
 20
-1188.085410433639
 30
0.0
 10
3869.493745263155
 20
-1185.016098421019
 30
0.0
 10
3873.828118754887
 20
-1183.520541155478
 30
0.0
 10
3875.093826632934
 20
-1179.892622936037
 30
0.0
 10
3872.82555400688
 20
-1175.940308991386
 30
0.0
 10
3872.553764241739
 20
-1175.466729428877
 30
0.0
 10
3872.258788062854
 20
-1174.948229337788
 30
0.0
 10
3871.839661314518
 20
-1174.626062429684
 30
0.0
 10
3863.905257100253
 20
-1168.527187741543
 30
0.0
 10
3861.368754100595
 20
-1160.40495846534
 30
0.0
 10
3860.311891842057
 20
-1150.5557694997
 30
0.0
 10
3859.66079182401
 20
-1144.487936651319
 30
0.0
 10
3861.983261223095
 20
-1140.97299553403
 30
0.0
 10
3864.553679179857
 20
-1136.73372663364
 30
0.0
 10
3868.039414817996
 20
-1130.984862277855
 30
0.0
 10
3872.705105540418
 20
-1127.678060568251
 30
0.0
 10
3879.844514617895
 20
-1127.946358100183
 30
0.0
 10
3882.86789033218
 20
-1128.059976354529
 30
0.0
 10
3884.974143484944
 20
-1128.661069649781
 30
0.0
 10
3886.979499640327
 20
-1130.945864274581
 30
0.0
 10
3890.390714715542
 20
-1134.832423917192
 30
0.0
 10
3893.307182761835
 20
-1139.0379520524
 30
0.0
 10
3895.80332360462
 20
-1143.519200813804
 30
0.0
 10
3899.795046897323
 20
-1150.685427052289
 30
0.0
 10
3898.421793347136
 20
-1157.658002243632
 30
0.0
 10
3894.543567633651
 20
-1164.395216866949
 30
0.0
 10
3893.08208482625
 20
-1166.934091395167
 30
0.0
 10
3891.419303316774
 20
-1169.357428409865
 30
0.0
 10
3889.968053760042
 20
-1171.90174696028
 30
0.0
 10
3888.807213615694
 20
-1173.936896230203
 30
0.0
 10
3888.459006064785
 20
-1176.227545172634
 30
0.0
 10
3890.067162666865
 20
-1178.088057597852
 30
0.0
 10
3891.695240108847
 20
-1179.971617922754
 30
0.0
 10
3893.538073103459
 20
-1178.197261241286
 30
0.0
 10
3895.072313567597
 20
-1177.604962539335
 30
0.0
 10
3907.885040174695
 20
-1172.658541598972
 30
0.0
 10
3920.766343832429
 20
-1167.857010560124
 30
0.0
 10
3933.374648875071
 20
-1162.426025472756
 30
0.0
 10
3941.089781138957
 20
-1159.102745837055
 30
0.0
 10
3948.266689749451
 20
-1158.578419760764
 30
0.0
 10
3956.128798020507
 20
-1161.9135192627
 30
0.0
 10
3966.408001778882
 20
-1166.273941792027
 30
0.0
 10
3977.092354957977
 20
-1169.673635016101
 30
0.0
 10
3987.084725485091
 20
-1174.743778391559
 30
0.0
 10
3995.734684925485
 20
-1179.132776790684
 30
0.0
 10
3998.05258755807
 20
-1187.140912457485
 30
0.0
 10
3993.103539048012
 20
-1195.459848484883
 30
0.0
 10
3989.373582139566
 20
-1201.729599151204
 30
0.0
 10
3984.462964984361
 20
-1203.652913010603
 30
0.0
 10
3977.713334464619
 20
-1200.853401197568
 30
0.0
 10
3966.550276702887
 20
-1196.223329574899
 30
0.0
 10
3955.541313731401
 20
-1191.223039258366
 30
0.0
 10
3944.418869970277
 20
-1186.492918512238
 30
0.0
 10
3940.885065756798
 20
-1184.990066173006
 30
0.0
 10
3937.205444017358
 20
-1183.825733795449
 30
0.0
 10
3933.577030505226
 20
-1182.550716093785
 30
0.0
 10
3928.589852852803
 20
-1180.798232041208
 30
0.0
 10
3923.745353074368
 20
-1180.77418516135
 30
0.0
 10
3918.56286220611
 20
-1182.454318704571
 30
0.0
 10
3895.571820443225
 20
-1189.907860874824
 30
0.0
 10
3872.72312915747
 20
-1197.815897049419
 30
0.0
 10
3849.24776669653
 20
-1203.738716173113
 30
0.0
 10
3838.661397522212
 20
-1206.409653361643
 30
0.0
 10
3828.952141333788
 20
-1205.152558539535
 30
0.0
 10
3819.655144954364
 20
-1199.708477577642
 30
0.0
 10
3818.29029878773
 20
-1198.909251466008
 30
0.0
 10
3816.404220025417
 20
-1198.35219829559
 30
0.0
 10
3816.599789282385
 20
-1196.260014813149
 30
0.0
 10
3816.78240537628
 20
-1194.306420941309
 30
0.0
 10
3818.522356005351
 20
-1193.743088466952
 30
0.0
 10
3820.023243963407
 20
-1193.082796152361
 30
0.0
 10
3827.042846775962
 20
-1189.994612648759
 30
0.0
 10
3834.328879279374
 20
-1188.545764002356
 30
0.0
 10
3841.011603311962
 20
-1189.531312508272
 30
0.0
  0
HATCH
  5
8B
330
70
100
AcDbEntity
  8
Layer 1
 62
    18
420
        0
440
 33554687
100
AcDbHatch
 10
0.0
 20
0.0
 30
0.0
210
0.0
220
0.0
230
1.0
  2
SOLID
 70
     1
 71
     1
 91
        1
 92
        1
 93
        1
 72
     4
 94
        3
 73
     0
 74
     0
 95
       80
 96
       76
 40
0.0
 40
0.0
 40
0.0
 40
0.0
 40
1.0
 40
1.0
 40
1.0
 40
2.0
 40
2.0
 40
2.0
 40
3.0
 40
3.0
 40
3.0
 40
4.0
 40
4.0
 40
4.0
 40
5.0
 40
5.0
 40
5.0
 40
6.0
 40
6.0
 40
6.0
 40
7.0
 40
7.0
 40
7.0
 40
8.0
 40
8.0
 40
8.0
 40
9.0
 40
9.0
 40
9.0
 40
10.0
 40
10.0
 40
10.0
 40
11.0
 40
11.0
 40
11.0
 40
12.0
 40
12.0
 40
12.0
 40
13.0
 40
13.0
 40
13.0
 40
14.0
 40
14.0
 40
14.0
 40
15.0
 40
15.0
 40
15.0
 40
16.0
 40
16.0
 40
16.0
 40
17.0
 40
17.0
 40
17.0
 40
18.0
 40
18.0
 40
18.0
 40
19.0
 40
19.0
 40
19.0
 40
20.0
 40
20.0
 40
20.0
 40
21.0
 40
21.0
 40
21.0
 40
22.0
 40
22.0
 40
22.0
 40
23.0
 40
23.0
 40
23.0
 40
24.0
 40
24.0
 40
24.0
 40
25.0
 40
25.0
 40
25.0
 40
25.0
 10
3841.011603311962
 20
-1189.531312508272
 10
3851.496546617038
 20
-1190.028175024625
 10
3860.598296938961
 20
-1188.085410433639
 10
3869.493745263155
 20
-1185.016098421019
 10
3873.828118754887
 20
-1183.520541155478
 10
3875.093826632934
 20
-1179.892622936037
 10
3872.82555400688
 20
-1175.940308991386
 10
3872.553764241739
 20
-1175.466729428877
 10
3872.258788062854
 20
-1174.948229337788
 10
3871.839661314518
 20
-1174.626062429684
 10
3863.905257100253
 20
-1168.527187741543
 10
3861.368754100595
 20
-1160.40495846534
 10
3860.311891842057
 20
-1150.5557694997
 10
3859.66079182401
 20
-1144.487936651319
 10
3861.983261223095
 20
-1140.97299553403
 10
3864.553679179857
 20
-1136.73372663364
 10
3868.039414817996
 20
-1130.984862277855
 10
3872.705105540418
 20
-1127.678060568251
 10
3879.844514617895
 20
-1127.946358100183
 10
3882.86789033218
 20
-1128.059976354529
 10
3884.974143484944
 20
-1128.661069649781
 10
3886.979499640327
 20
-1130.945864274581
 10
3890.390714715542
 20
-1134.832423917192
 10
3893.307182761835
 20
-1139.0379520524
 10
3895.80332360462
 20
-1143.519200813804
 10
3899.795046897323
 20
-1150.685427052289
 10
3898.421793347136
 20
-1157.658002243632
 10
3894.543567633651
 20
-1164.395216866949
 10
3893.08208482625
 20
-1166.934091395167
 10
3891.419303316774
 20
-1169.357428409865
 10
3889.968053760042
 20
-1171.90174696028
 10
3888.807213615694
 20
-1173.936896230203
 10
3888.459006064785
 20
-1176.227545172634
 10
3890.067162666865
 20
-1178.088057597852
 10
3891.695240108847
 20
-1179.971617922754
 10
3893.538073103459
 20
-1178.197261241286
 10
3895.072313567597
 20
-1177.604962539335
 10
3907.885040174695
 20
-1172.658541598972
 10
3920.766343832429
 20
-1167.857010560124
 10
3933.374648875071
 20
-1162.426025472756
 10
3941.089781138957
 20
-1159.102745837055
 10
3948.266689749451
 20
-1158.578419760764
 10
3956.128798020507
 20
-1161.9135192627
 10
3966.408001778882
 20
-1166.273941792027
 10
3977.092354957977
 20
-1169.673635016101
 10
3987.084725485091
 20
-1174.743778391559
 10
3995.734684925485
 20
-1179.132776790684
 10
3998.05258755807
 20
-1187.140912457485
 10
3993.103539048012
 20
-1195.459848484883
 10
3989.373582139566
 20
-1201.729599151204
 10
3984.462964984361
 20
-1203.652913010603
 10
3977.713334464619
 20
-1200.853401197568
 10
3966.550276702887
 20
-1196.223329574899
 10
3955.541313731401
 20
-1191.223039258366
 10
3944.418869970277
 20
-1186.492918512238
 10
3940.885065756798
 20
-1184.990066173006
 10
3937.205444017358
 20
-1183.825733795449
 10
3933.577030505226
 20
-1182.550716093785
 10
3928.589852852803
 20
-1180.798232041208
 10
3923.745353074368
 20
-1180.77418516135
 10
3918.56286220611
 20
-1182.454318704571
 10
3895.571820443225
 20
-1189.907860874824
 10
3872.72312915747
 20
-1197.815897049419
 10
3849.24776669653
 20
-1203.738716173113
 10
3838.661397522212
 20
-1206.409653361643
 10
3828.952141333788
 20
-1205.152558539535
 10
3819.655144954364
 20
-1199.708477577642
 10
3818.29029878773
 20
-1198.909251466008
 10
3816.404220025417
 20
-1198.35219829559
 10
3816.599789282385
 20
-1196.260014813149
 10
3816.78240537628
 20
-1194.306420941309
 10
3818.522356005351
 20
-1193.743088466952
 10
3820.023243963407
 20
-1193.082796152361
 10
3827.042846775962
 20
-1189.994612648759
 10
3834.328879279374
 20
-1188.545764002356
 10
3841.011603311962
 20
-1189.531312508272
 97
        0
 97
        1
330
8A
 75
     2
 76
     1
 98
        1
 10
0.0
 20
0.0
450
        0
451
        0
460
0.0
461
0.0
452
        0
462
0.0
453
        0
470

  0
SPLINE
  5
8C
330
70
100
AcDbEntity
  8
Layer 1
100
AcDbSpline
210
0.0
220
0.0
230
1.0
 70
     9
 71
     3
 72
    92
 73
    88
 74
     0
 42
0.0000000001
 43
0.0000000001
 40
0.0
 40
0.0
 40
0.0
 40
0.0
 40
1.0
 40
1.0
 40
1.0
 40
2.0
 40
2.0
 40
2.0
 40
3.0
 40
3.0
 40
3.0
 40
4.0
 40
4.0
 40
4.0
 40
5.0
 40
5.0
 40
5.0
 40
6.0
 40
6.0
 40
6.0
 40
7.0
 40
7.0
 40
7.0
 40
8.0
 40
8.0
 40
8.0
 40
9.0
 40
9.0
 40
9.0
 40
10.0
 40
10.0
 40
10.0
 40
11.0
 40
11.0
 40
11.0
 40
12.0
 40
12.0
 40
12.0
 40
13.0
 40
13.0
 40
13.0
 40
14.0
 40
14.0
 40
14.0
 40
15.0
 40
15.0
 40
15.0
 40
16.0
 40
16.0
 40
16.0
 40
17.0
 40
17.0
 40
17.0
 40
18.0
 40
18.0
 40
18.0
 40
19.0
 40
19.0
 40
19.0
 40
20.0
 40
20.0
 40
20.0
 40
21.0
 40
21.0
 40
21.0
 40
22.0
 40
22.0
 40
22.0
 40
23.0
 40
23.0
 40
23.0
 40
24.0
 40
24.0
 40
24.0
 40
25.0
 40
25.0
 40
25.0
 40
26.0
 40
26.0
 40
26.0
 40
27.0
 40
27.0
 40
27.0
 40
28.0
 40
28.0
 40
28.0
 40
29.0
 40
29.0
 40
29.0
 40
29.0
 10
3947.650679959295
 20
-1320.303315623947
 30
0.0
 10
3924.727123924173
 20
-1318.9799775032
 30
0.0
 10
3903.519530401803
 20
-1325.637483582533
 30
0.0
 10
3882.271532748606
 20
-1332.000500380887
 30
0.0
 10
3864.7109807804
 20
-1337.259232744294
 30
0.0
 10
3847.014424797335
 20
-1340.49485396859
 30
0.0
 10
3828.649097760403
 20
-1336.762983047713
 30
0.0
 10
3822.293472575848
 20
-1335.471477975811
 30
0.0
 10
3816.247426309749
 20
-1333.524255750613
 30
0.0
 10
3810.875964490535
 20
-1329.813338228974
 30
0.0
 10
3808.505565030164
 20
-1328.175732698793
 30
0.0
 10
3808.202009374511
 20
-1326.862854488085
 30
0.0
 10
3811.149172975414
 20
-1325.155588979181
 30
0.0
 10
3817.519635953706
 20
-1321.465221906797
 30
0.0
 10
3824.107931175653
 20
-1320.592650503033
 30
0.0
 10
3831.256276508537
 20
-1322.120452162198
 30
0.0
 10
3843.082480813924
 20
-1324.648039893425
 30
0.0
 10
3854.900785620635
 20
-1327.170892962327
 30
0.0
 10
3867.174776492067
 20
-1325.257384219239
 30
0.0
 10
3872.008463779226
 20
-1324.503834167408
 30
0.0
 10
3874.132110939694
 20
-1321.81041572761
 30
0.0
 10
3874.888498431005
 20
-1317.404224795777
 30
0.0
 10
3875.34315193639
 20
-1314.755701700185
 30
0.0
 10
3874.832295302835
 20
-1312.801024900254
 30
0.0
 10
3871.871897313349
 20
-1311.871402494395
 30
0.0
 10
3867.04001490633
 20
-1310.354077534852
 30
0.0
 10
3867.160857927991
 20
-1307.694658000069
 30
0.0
 10
3870.090178399855
 20
-1304.090925174543
 30
0.0
 10
3873.905577494787
 20
-1299.397128690645
 30
0.0
 10
3877.112983825313
 20
-1294.258022104146
 30
0.0
 10
3880.059001537198
 20
-1288.962520554571
 30
0.0
 10
3880.759706377407
 20
-1287.703016427342
 30
0.0
 10
3881.624890364771
 20
-1286.488172590161
 30
0.0
 10
3882.620059301588
 20
-1285.449888004906
 30
0.0
 10
3884.288650006687
 20
-1283.70900975139
 30
0.0
 10
3886.474149989908
 20
-1283.169426141798
 30
0.0
 10
3888.666827519743
 20
-1284.110985940977
 30
0.0
 10
3890.663369144195
 20
-1284.96834598279
 30
0.0
 10
3890.662622007766
 20
-1287.067413194148
 30
0.0
 10
3890.619976467644
 20
-1288.88554031778
 30
0.0
 10
3890.44647291977
 20
-1296.284138578565
 30
0.0
 10
3888.69435404062
 20
-1303.354382970014
 30
0.0
 10
3886.313272208243
 20
-1310.3411999249
 30
0.0
 10
3885.414492265847
 20
-1312.97849078965
 30
0.0
 10
3882.506058034889
 20
-1316.578647434056
 30
0.0
 10
3886.682475132349
 20
-1318.500030491443
 30
0.0
 10
3890.663797278556
 20
-1320.33162286042
 30
0.0
 10
3891.882762958294
 20
-1315.937906588551
 30
0.0
 10
3893.434833959285
 20
-1313.60741176892
 30
0.0
 10
3897.505350763715
 20
-1307.495449601047
 30
0.0
 10
3900.490504992928
 20
-1300.802047393849
 30
0.0
 10
3902.796151230125
 20
-1293.807624757985
 30
0.0
 10
3904.34072568243
 20
-1289.12202159045
 30
0.0
 10
3903.680743975119
 20
-1284.970461470217
 30
0.0
 10
3899.644477919452
 20
-1281.987926415906
 30
0.0
 10
3895.529216877064
 20
-1278.947030772047
 30
0.0
 10
3896.347364848427
 20
-1276.085901190414
 30
0.0
 10
3899.25793135639
 20
-1272.920762634396
 30
0.0
 10
3903.057246031071
 20
-1268.789131748854
 30
0.0
 10
3907.758681775113
 20
-1266.027480444863
 30
0.0
 10
3912.860616225457
 20
-1263.858064881893
 30
0.0
 10
3915.770452386571
 20
-1262.620756583026
 30
0.0
 10
3917.76105889353
 20
-1264.248254784404
 30
0.0
 10
3919.674836269942
 20
-1266.057953537507
 30
0.0
 10
3925.842086533727
 20
-1271.889764728046
 30
0.0
 10
3926.996437504355
 20
-1283.682431841938
 30
0.0
 10
3922.317617328243
 20
-1292.722094286946
 30
0.0
 10
3920.468009737002
 20
-1296.295605863568
 30
0.0
 10
3918.32706930633
 20
-1299.763880335675
 30
0.0
 10
3916.906284447452
 20
-1303.503306568778
 30
0.0
 10
3914.684233542639
 20
-1309.351605129548
 30
0.0
 10
3915.319551352926
 20
-1309.952537874418
 30
0.0
 10
3921.352988642402
 20
-1308.777334242048
 30
0.0
 10
3935.219991912296
 20
-1306.076259752528
 30
0.0
 10
3949.138925361562
 20
-1303.809414241008
 30
0.0
 10
3963.335474561171
 20
-1304.373090901808
 30
0.0
 10
3966.794581921107
 20
-1304.510429688493
 30
0.0
 10
3970.300985535583
 20
-1304.892443064218
 30
0.0
 10
3973.663485636526
 20
-1305.682124298073
 30
0.0
 10
3978.404007529147
 20
-1306.795458318105
 30
0.0
 10
3979.082625673282
 20
-1308.950115837862
 30
0.0
 10
3976.005095159917
 20
-1312.591927437006
 30
0.0
 10
3971.563175996048
 20
-1317.848292469251
 30
0.0
 10
3966.419972751364
 20
-1321.478401729237
 30
0.0
 10
3958.88536208093
 20
-1320.397572341361
 30
0.0
 10
3955.114388221888
 20
-1319.856628775567
 30
0.0
 10
3951.201760653397
 20
-1320.303315623947
 30
0.0
 10
3947.650679959295
 20
-1320.303315623947
 30
0.0
  0
HATCH
  5
8D
330
70
100
AcDbEntity
  8
Layer 1
 62
   246
420
  8590872
440
 33554687
100
AcDbHatch
 10
0.0
 20
0.0
 30
0.0
210
0.0
220
0.0
230
1.0
  2
SOLID
 70
     1
 71
     1
 91
        1
 92
        1
 93
        1
 72
     4
 94
        3
 73
     0
 74
     0
 95
       92
 96
       88
 40
0.0
 40
0.0
 40
0.0
 40
0.0
 40
1.0
 40
1.0
 40
1.0
 40
2.0
 40
2.0
 40
2.0
 40
3.0
 40
3.0
 40
3.0
 40
4.0
 40
4.0
 40
4.0
 40
5.0
 40
5.0
 40
5.0
 40
6.0
 40
6.0
 40
6.0
 40
7.0
 40
7.0
 40
7.0
 40
8.0
 40
8.0
 40
8.0
 40
9.0
 40
9.0
 40
9.0
 40
10.0
 40
10.0
 40
10.0
 40
11.0
 40
11.0
 40
11.0
 40
12.0
 40
12.0
 40
12.0
 40
13.0
 40
13.0
 40
13.0
 40
14.0
 40
14.0
 40
14.0
 40
15.0
 40
15.0
 40
15.0
 40
16.0
 40
16.0
 40
16.0
 40
17.0
 40
17.0
 40
17.0
 40
18.0
 40
18.0
 40
18.0
 40
19.0
 40
19.0
 40
19.0
 40
20.0
 40
20.0
 40
20.0
 40
21.0
 40
21.0
 40
21.0
 40
22.0
 40
22.0
 40
22.0
 40
23.0
 40
23.0
 40
23.0
 40
24.0
 40
24.0
 40
24.0
 40
25.0
 40
25.0
 40
25.0
 40
26.0
 40
26.0
 40
26.0
 40
27.0
 40
27.0
 40
27.0
 40
28.0
 40
28.0
 40
28.0
 40
29.0
 40
29.0
 40
29.0
 40
29.0
 10
3947.650679959295
 20
-1320.303315623947
 10
3924.727123924173
 20
-1318.9799775032
 10
3903.519530401803
 20
-1325.637483582533
 10
3882.271532748606
 20
-1332.000500380887
 10
3864.7109807804
 20
-1337.259232744294
 10
3847.014424797335
 20
-1340.49485396859
 10
3828.649097760403
 20
-1336.762983047713
 10
3822.293472575848
 20
-1335.471477975811
 10
3816.247426309749
 20
-1333.524255750613
 10
3810.875964490535
 20
-1329.813338228974
 10
3808.505565030164
 20
-1328.175732698793
 10
3808.202009374511
 20
-1326.862854488085
 10
3811.149172975414
 20
-1325.155588979181
 10
3817.519635953706
 20
-1321.465221906797
 10
3824.107931175653
 20
-1320.592650503033
 10
3831.256276508537
 20
-1322.120452162198
 10
3843.082480813924
 20
-1324.648039893425
 10
3854.900785620635
 20
-1327.170892962327
 10
3867.174776492067
 20
-1325.257384219239
 10
3872.008463779226
 20
-1324.503834167408
 10
3874.132110939694
 20
-1321.81041572761
 10
3874.888498431005
 20
-1317.404224795777
 10
3875.34315193639
 20
-1314.755701700185
 10
3874.832295302835
 20
-1312.801024900254
 10
3871.871897313349
 20
-1311.871402494395
 10
3867.04001490633
 20
-1310.354077534852
 10
3867.160857927991
 20
-1307.694658000069
 10
3870.090178399855
 20
-1304.090925174543
 10
3873.905577494787
 20
-1299.397128690645
 10
3877.112983825313
 20
-1294.258022104146
 10
3880.059001537198
 20
-1288.962520554571
 10
3880.759706377407
 20
-1287.703016427342
 10
3881.624890364771
 20
-1286.488172590161
 10
3882.620059301588
 20
-1285.449888004906
 10
3884.288650006687
 20
-1283.70900975139
 10
3886.474149989908
 20
-1283.169426141798
 10
3888.666827519743
 20
-1284.110985940977
 10
3890.663369144195
 20
-1284.96834598279
 10
3890.662622007766
 20
-1287.067413194148
 10
3890.619976467644
 20
-1288.88554031778
 10
3890.44647291977
 20
-1296.284138578565
 10
3888.69435404062
 20
-1303.354382970014
 10
3886.313272208243
 20
-1310.3411999249
 10
3885.414492265847
 20
-1312.97849078965
 10
3882.506058034889
 20
-1316.578647434056
 10
3886.682475132349
 20
-1318.500030491443
 10
3890.663797278556
 20
-1320.33162286042
 10
3891.882762958294
 20
-1315.937906588551
 10
3893.434833959285
 20
-1313.60741176892
 10
3897.505350763715
 20
-1307.495449601047
 10
3900.490504992928
 20
-1300.802047393849
 10
3902.796151230125
 20
-1293.807624757985
 10
3904.34072568243
 20
-1289.12202159045
 10
3903.680743975119
 20
-1284.970461470217
 10
3899.644477919452
 20
-1281.987926415906
 10
3895.529216877064
 20
-1278.947030772047
 10
3896.347364848427
 20
-1276.085901190414
 10
3899.25793135639
 20
-1272.920762634396
 10
3903.057246031071
 20
-1268.789131748854
 10
3907.758681775113
 20
-1266.027480444863
 10
3912.860616225457
 20
-1263.858064881893
 10
3915.770452386571
 20
-1262.620756583026
 10
3917.76105889353
 20
-1264.248254784404
 10
3919.674836269942
 20
-1266.057953537507
 10
3925.842086533727
 20
-1271.889764728046
 10
3926.996437504355
 20
-1283.682431841938
 10
3922.317617328243
 20
-1292.722094286946
 10
3920.468009737002
 20
-1296.295605863568
 10
3918.32706930633
 20
-1299.763880335675
 10
3916.906284447452
 20
-1303.503306568778
 10
3914.684233542639
 20
-1309.351605129548
 10
3915.319551352926
 20
-1309.952537874418
 10
3921.352988642402
 20
-1308.777334242048
 10
3935.219991912296
 20
-1306.076259752528
 10
3949.138925361562
 20
-1303.809414241008
 10
3963.335474561171
 20
-1304.373090901808
 10
3966.794581921107
 20
-1304.510429688493
 10
3970.300985535583
 20
-1304.892443064218
 10
3973.663485636526
 20
-1305.682124298073
 10
3978.404007529147
 20
-1306.795458318105
 10
3979.082625673282
 20
-1308.950115837862
 10
3976.005095159917
 20
-1312.591927437006
 10
3971.563175996048
 20
-1317.848292469251
 10
3966.419972751364
 20
-1321.478401729237
 10
3958.88536208093
 20
-1320.397572341361
 10
3955.114388221888
 20
-1319.856628775567
 10
3951.201760653397
 20
-1320.303315623947
 10
3947.650679959295
 20
-1320.303315623947
 97
        0
 97
        1
330
8C
 75
     2
 76
     1
 98
        1
 10
0.0
 20
0.0
450
        0
451
        0
460
0.0
461
0.0
452
        0
462
0.0
453
        0
470

  0
SPLINE
  5
8E
330
70
100
AcDbEntity
  8
Layer 1
100
AcDbSpline
210
0.0
220
0.0
230
1.0
 70
     9
 71
     3
 72
    47
 73
    43
 74
     0
 42
0.0000000001
 43
0.0000000001
 40
0.0
 40
0.0
 40
0.0
 40
0.0
 40
1.0
 40
1.0
 40
1.0
 40
2.0
 40
2.0
 40
2.0
 40
3.0
 40
3.0
 40
3.0
 40
4.0
 40
4.0
 40
4.0
 40
5.0
 40
5.0
 40
5.0
 40
6.0
 40
6.0
 40
6.0
 40
7.0
 40
7.0
 40
7.0
 40
8.0
 40
8.0
 40
8.0
 40
9.0
 40
9.0
 40
9.0
 40
10.0
 40
10.0
 40
10.0
 40
11.0
 40
11.0
 40
11.0
 40
12.0
 40
12.0
 40
12.0
 40
13.0
 40
13.0
 40
13.0
 40
14.0
 40
14.0
 40
14.0
 40
14.0
 10
3813.782266444485
 20
-1257.931745130201
 30
0.0
 10
3809.294532706756
 20
-1258.010689748171
 30
0.0
 10
3805.287392379714
 20
-1257.675939047814
 30
0.0
 10
3801.396129555246
 20
-1256.485087524343
 30
0.0
 10
3800.396868157639
 20
-1256.179282064604
 30
0.0
 10
3799.114022313026
 20
-1255.939426085803
 30
0.0
 10
3799.191674133128
 20
-1254.501985960862
 30
0.0
 10
3799.248561436793
 20
-1253.448892963646
 30
0.0
 10
3800.236829855111
 20
-1253.024317995714
 30
0.0
 10
3801.076031963212
 20
-1252.749480921309
 30
0.0
 10
3803.855618738946
 20
-1251.839174930373
 30
0.0
 10
3806.636221284435
 20
-1250.89936964259
 30
0.0
 10
3809.473425710681
 20
-1250.203139226178
 30
0.0
 10
3823.063644314576
 20
-1246.868241199234
 30
0.0
 10
3836.006964493501
 20
-1241.81346868676
 30
0.0
 10
3848.386066547579
 20
-1235.362231025985
 30
0.0
 10
3855.775741145148
 20
-1231.511162462553
 30
0.0
 10
3856.112598938135
 20
-1230.090570683878
 30
0.0
 10
3852.795917608446
 20
-1222.609208175054
 30
0.0
 10
3852.42400316673
 20
-1221.770308279443
 30
0.0
 10
3851.894216278657
 20
-1221.036544750852
 30
0.0
 10
3852.264132760027
 20
-1220.055336352066
 30
0.0
 10
3857.135395133325
 20
-1207.133997934325
 30
0.0
 10
3874.930077832624
 20
-1197.220681157469
 30
0.0
 10
3886.029058151887
 20
-1208.512347122869
 30
0.0
 10
3889.623791761073
 20
-1212.169487611041
 30
0.0
 10
3893.257191779272
 20
-1215.752334195658
 30
0.0
 10
3896.549603767135
 20
-1219.698012057739
 30
0.0
 10
3898.880602274245
 20
-1222.491488015781
 30
0.0
 10
3898.633207772802
 20
-1224.922099117197
 30
0.0
 10
3896.393754465497
 20
-1227.488076229325
 30
0.0
 10
3893.142628061554
 20
-1231.213222922321
 30
0.0
 10
3889.904018291532
 20
-1234.949433950333
 30
0.0
 10
3886.683952615631
 20
-1238.701427186104
 30
0.0
 10
3885.819507369904
 20
-1239.708659438111
 30
0.0
 10
3884.843570900097
 20
-1240.508338868476
 30
0.0
 10
3883.504156753892
 20
-1240.693855362788
 30
0.0
 10
3864.866024182067
 20
-1243.275329259774
 30
0.0
 10
3847.745779020805
 20
-1251.322626628276
 30
0.0
 10
3829.59465348027
 20
-1255.658200575173
 30
0.0
 10
3824.246776827388
 20
-1256.935602397585
 30
0.0
 10
3818.923967021513
 20
-1258.332999367729
 30
0.0
 10
3813.782266444485
 20
-1257.931745130201
 30
0.0
  0
HATCH
  5
8F
330
70
100
AcDbEntity
  8
Layer 1
 62
    18
420
        0
440
 33554687
100
AcDbHatch
 10
0.0
 20
0.0
 30
0.0
210
0.0
220
0.0
230
1.0
  2
SOLID
 70
     1
 71
     1
 91
        1
 92
        1
 93
        1
 72
     4
 94
        3
 73
     0
 74
     0
 95
       47
 96
       43
 40
0.0
 40
0.0
 40
0.0
 40
0.0
 40
1.0
 40
1.0
 40
1.0
 40
2.0
 40
2.0
 40
2.0
 40
3.0
 40
3.0
 40
3.0
 40
4.0
 40
4.0
 40
4.0
 40
5.0
 40
5.0
 40
5.0
 40
6.0
 40
6.0
 40
6.0
 40
7.0
 40
7.0
 40
7.0
 40
8.0
 40
8.0
 40
8.0
 40
9.0
 40
9.0
 40
9.0
 40
10.0
 40
10.0
 40
10.0
 40
11.0
 40
11.0
 40
11.0
 40
12.0
 40
12.0
 40
12.0
 40
13.0
 40
13.0
 40
13.0
 40
14.0
 40
14.0
 40
14.0
 40
14.0
 10
3813.782266444485
 20
-1257.931745130201
 10
3809.294532706756
 20
-1258.010689748171
 10
3805.287392379714
 20
-1257.675939047814
 10
3801.396129555246
 20
-1256.485087524343
 10
3800.396868157639
 20
-1256.179282064604
 10
3799.114022313026
 20
-1255.939426085803
 10
3799.191674133128
 20
-1254.501985960862
 10
3799.248561436793
 20
-1253.448892963646
 10
3800.236829855111
 20
-1253.024317995714
 10
3801.076031963212
 20
-1252.749480921309
 10
3803.855618738946
 20
-1251.839174930373
 10
3806.636221284435
 20
-1250.89936964259
 10
3809.473425710681
 20
-1250.203139226178
 10
3823.063644314576
 20
-1246.868241199234
 10
3836.006964493501
 20
-1241.81346868676
 10
3848.386066547579
 20
-1235.362231025985
 10
3855.775741145148
 20
-1231.511162462553
 10
3856.112598938135
 20
-1230.090570683878
 10
3852.795917608446
 20
-1222.609208175054
 10
3852.42400316673
 20
-1221.770308279443
 10
3851.894216278657
 20
-1221.036544750852
 10
3852.264132760027
 20
-1220.055336352066
 10
3857.135395133325
 20
-1207.133997934325
 10
3874.930077832624
 20
-1197.220681157469
 10
3886.029058151887
 20
-1208.512347122869
 10
3889.623791761073
 20
-1212.169487611041
 10
3893.257191779272
 20
-1215.752334195658
 10
3896.549603767135
 20
-1219.698012057739
 10
3898.880602274245
 20
-1222.491488015781
 10
3898.633207772802
 20
-1224.922099117197
 10
3896.393754465497
 20
-1227.488076229325
 10
3893.142628061554
 20
-1231.213222922321
 10
3889.904018291532
 20
-1234.949433950333
 10
3886.683952615631
 20
-1238.701427186104
 10
3885.819507369904
 20
-1239.708659438111
 10
3884.843570900097
 20
-1240.508338868476
 10
3883.504156753892
 20
-1240.693855362788
 10
3864.866024182067
 20
-1243.275329259774
 10
3847.745779020805
 20
-1251.322626628276
 10
3829.59465348027
 20
-1255.658200575173
 10
3824.246776827388
 20
-1256.935602397585
 10
3818.923967021513
 20
-1258.332999367729
 10
3813.782266444485
 20
-1257.931745130201
 97
        0
 97
        1
330
8E
 75
     2
 76
     1
 98
        1
 10
0.0
 20
0.0
450
        0
451
        0
460
0.0
461
0.0
452
        0
462
0.0
453
        0
470

  0
SPLINE
  5
90
330
70
100
AcDbEntity
  8
Layer 1
100
AcDbSpline
210
0.0
220
0.0
230
1.0
 70
     9
 71
     3
 72
    23
 73
    19
 74
     0
 42
0.0000000001
 43
0.0000000001
 40
0.0
 40
0.0
 40
0.0
 40
0.0
 40
1.0
 40
1.0
 40
1.0
 40
2.0
 40
2.0
 40
2.0
 40
3.0
 40
3.0
 40
3.0
 40
4.0
 40
4.0
 40
4.0
 40
5.0
 40
5.0
 40
5.0
 40
6.0
 40
6.0
 40
6.0
 40
6.0
 10
3898.865676335203
 20
-1207.335674402009
 30
0.0
 10
3906.573018232704
 20
-1206.619279696748
 30
0.0
 10
3913.122349030548
 20
-1208.175925859032
 30
0.0
 10
3919.534592885446
 20
-1210.417771681874
 30
0.0
 10
3933.509133432692
 20
-1215.303573833811
 30
0.0
 10
3946.166766269374
 20
-1222.443335492528
 30
0.0
 10
3956.862284520981
 20
-1232.792190834836
 30
0.0
 10
3967.117546334391
 20
-1242.715052489471
 30
0.0
 10
3962.699082217588
 20
-1253.231946370477
 30
0.0
 10
3956.629916696076
 20
-1261.287160027234
 30
0.0
 10
3954.470994622307
 20
-1264.152570952457
 30
0.0
 10
3952.323942783524
 20
-1262.872499586392
 30
0.0
 10
3950.006476680092
 20
-1261.378176355181
 30
0.0
 10
3935.884674702769
 20
-1252.272312585493
 30
0.0
 10
3924.106094048783
 20
-1240.579828911719
 30
0.0
 10
3913.005157743132
 20
-1228.117668791903
 30
0.0
 10
3907.53630375193
 20
-1221.978196892735
 30
0.0
 10
3902.570566396642
 20
-1215.519437498897
 30
0.0
 10
3898.865676335203
 20
-1207.335674402009
 30
0.0
  0
HATCH
  5
91
330
70
100
AcDbEntity
  8
Layer 1
 62
    18
420
        0
440
 33554687
100
AcDbHatch
 10
0.0
 20
0.0
 30
0.0
210
0.0
220
0.0
230
1.0
  2
SOLID
 70
     1
 71
     1
 91
        1
 92
        1
 93
        1
 72
     4
 94
        3
 73
     0
 74
     0
 95
       23
 96
       19
 40
0.0
 40
0.0
 40
0.0
 40
0.0
 40
1.0
 40
1.0
 40
1.0
 40
2.0
 40
2.0
 40
2.0
 40
3.0
 40
3.0
 40
3.0
 40
4.0
 40
4.0
 40
4.0
 40
5.0
 40
5.0
 40
5.0
 40
6.0
 40
6.0
 40
6.0
 40
6.0
 10
3898.865676335203
 20
-1207.335674402009
 10
3906.573018232704
 20
-1206.619279696748
 10
3913.122349030548
 20
-1208.175925859032
 10
3919.534592885446
 20
-1210.417771681874
 10
3933.509133432692
 20
-1215.303573833811
 10
3946.166766269374
 20
-1222.443335492528
 10
3956.862284520981
 20
-1232.792190834836
 10
3967.117546334391
 20
-1242.715052489471
 10
3962.699082217588
 20
-1253.231946370477
 10
3956.629916696076
 20
-1261.287160027234
 10
3954.470994622307
 20
-1264.152570952457
 10
3952.323942783524
 20
-1262.872499586392
 10
3950.006476680092
 20
-1261.378176355181
 10
3935.884674702769
 20
-1252.272312585493
 10
3924.106094048783
 20
-1240.579828911719
 10
3913.005157743132
 20
-1228.117668791903
 10
3907.53630375193
 20
-1221.978196892735
 10
3902.570566396642
 20
-1215.519437498897
 10
3898.865676335203
 20
-1207.335674402009
 97
        0
 97
        1
330
90
 75
     2
 76
     1
 98
        1
 10
0.0
 20
0.0
450
        0
451
        0
460
0.0
461
0.0
452
        0
462
0.0
453
        0
470

  0
ENDSEC
  0
SECTION
  2
OBJECTS
  0
DICTIONARY
  5
C
330
0
100
AcDbDictionary
281
     1
  3
ACAD_COLOR
350
63
  3
ACAD_DETAILVIEWSTYLE
350
6A
  3
ACAD_GROUP
350
D
  3
ACAD_LAYOUT
350
62
  3
ACAD_MATERIAL
350
10
  3
ACAD_MLEADERSTYLE
350
66
  3
ACAD_MLINESTYLE
350
5F
  3
ACAD_PLOTSETTINGS
350
61
  3
ACAD_PLOTSTYLENAME
350
E
  3
ACAD_SCALELIST
350
42
  3
ACAD_SECTIONVIEWSTYLE
350
68
  3
ACAD_TABLESTYLE
350
64
  3
ACAD_VISUALSTYLE
350
29
  3
ACDB_RECOMPOSE_DATA
350
9A
  3
AcDbVariableDictionary
350
92
  0
DICTIONARY
  5
63
102
{ACAD_REACTORS
330
C
102
}
330
C
100
AcDbDictionary
281
     1
  0
DICTIONARY
  5
6A
102
{ACAD_REACTORS
330
C
102
}
330
C
100
AcDbDictionary
281
     1
  3
Imperial24
350
6B
  0
DICTIONARY
  5
D
102
{ACAD_REACTORS
330
C
102
}
330
C
100
AcDbDictionary
281
     1
  0
DICTIONARY
  5
62
102
{ACAD_REACTORS
330
C
102
}
330
C
100
AcDbDictionary
281
     1
  3
Layout1
350
6F
  3
Layout2
350
77
  3
Model
350
73
  0
DICTIONARY
  5
10
102
{ACAD_REACTORS
330
C
102
}
330
C
100
AcDbDictionary
281
     1
  3
ByBlock
350
19
  3
ByLayer
350
11
  3
Global
350
21
  0
DICTIONARY
  5
66
102
{ACAD_REACTORS
330
C
102
}
330
C
100
AcDbDictionary
281
     1
  3
Standard
350
67
  0
DICTIONARY
  5
5F
102
{ACAD_REACTORS
330
C
102
}
330
C
100
AcDbDictionary
281
     1
  3
Standard
350
60
  0
DICTIONARY
  5
61
102
{ACAD_REACTORS
330
C
102
}
330
C
100
AcDbDictionary
281
     1
  0
ACDBDICTIONARYWDFLT
  5
E
102
{ACAD_REACTORS
330
C
102
}
330
C
100
AcDbDictionary
281
     1
  3
Normal
350
F
100
AcDbDictionaryWithDefault
340
F
  0
DICTIONARY
  5
42
102
{ACAD_REACTORS
330
C
102
}
330
C
100
AcDbDictionary
281
     1
  3
A0
350
43
  3
A1
350
44
  3
A2
350
45
  3
A3
350
46
  3
A4
350
47
  3
A5
350
48
  3
A6
350
49
  3
A7
350
4A
  3
A8
350
4B
  3
A9
350
4C
  3
B0
350
4D
  3
B1
350
4E
  3
B2
350
4F
  3
B3
350
50
  3
B4
350
51
  3
B5
350
52
  3
B6
350
53
  0
DICTIONARY
  5
68
102
{ACAD_REACTORS
330
C
102
}
330
C
100
AcDbDictionary
281
     1
  3
Imperial24
350
69
  0
DICTIONARY
  5
64
102
{ACAD_REACTORS
330
C
102
}
330
C
100
AcDbDictionary
281
     1
  3
Standard
350
65
  0
DICTIONARY
  5
29
102
{ACAD_REACTORS
330
C
102
}
330
C
100
AcDbDictionary
281
     1
  3
2dWireframe
350
2F
  3
Basic
350
2E
  3
Brighten
350
35
  3
ColorChange
350
39
  3
Conceptual
350
32
  3
Dim
350
34
  3
EdgeColorOff
350
41
  3
Facepattern
350
38
  3
Flat
350
2A
  3
FlatWithEdges
350
2B
  3
Gouraud
350
2C
  3
GouraudWithEdges
350
2D
  3
Hidden
350
31
  3
JitterOff
350
3F
  3
Linepattern
350
37
  3
OverhangOff
350
40
  3
Realistic
350
33
  3
Shaded
350
3E
  3
Shaded with edges
350
3D
  3
Shades of Gray
350
3A
  3
Sketchy
350
3B
  3
Thicken
350
36
  3
Wireframe
350
30
  3
X-Ray
350
3C
  0
XRECORD
  5
9A
102
{ACAD_REACTORS
330
C
102
}
330
C
100
AcDbXrecord
280
     1
 90
        1
330
65
  0
DICTIONARY
  5
92
102
{ACAD_REACTORS
330
C
102
}
330
C
100
AcDbDictionary
281
     1
  3
CANNOSCALE
350
97
  3
CMLEADERSTYLE
350
94
  3
CTABLESTYLE
350
93
  3
CVIEWDETAILSTYLE
350
95
  3
CVIEWSECTIONSTYLE
350
96
  0
ACDBDETAILVIEWSTYLE
  5
6B
102
{ACAD_REACTORS
330
6A
102
}
330
6A
100
AcDbModelDocViewStyle
 70
     0
  3
Imperial24
290
     1
300
Imperial24
 90
        0
100
AcDbDetailViewStyle
 70
     0
 71
     0
 90
        3
 71
     1
340
55
 62
   256
 40
0.24
340
0
 62
   256
 40
0.24
300

 40
0.36
280
     3
 71
     2
340
5D
 90
       25
 62
   256
 71
     3
340
55
 62
   256
 40
0.24
 90
        1
 40
0.75
 90
        1
300
%<\AcVar ViewType \f "%tc1">% %<\AcVar ViewDetailId>%\PSCALE %<\AcVar ViewScale \f "%sn">%
 71
     4
340
5D
 90
       25
 62
   256
340
5D
 90
       25
 62
   256
280
     0
  0
LAYOUT
  5
6F
102
{ACAD_REACTORS
330
62
102
}
330
62
100
AcDbPlotSettings
  1

  2

  4

  6

 40
0.0
 41
0.0
 42
0.0
 43
0.0
 44
0.0
 45
0.0
 46
0.0
 47
0.0
 48
0.0
 49
0.0
140
0.0
141
0.0
142
1.0
143
1.0
 70
   688
 72
     0
 73
     0
 74
     5
  7

 75
    16
147
1.0
 76
     0
 77
     2
 78
   300
148
0.0
149
0.0
100
AcDbLayout
  1
Layout1
 70
     1
 71
     1
 10
0.0
 20
0.0
 11
12.0
 21
9.0
 12
0.0
 22
0.0
 32
0.0
 14
0.0
 24
0.0
 34
0.0
 15
0.0
 25
0.0
 35
0.0
146
0.0
 13
0.0
 23
0.0
 33
0.0
 16
1.0
 26
0.0
 36
0.0
 17
0.0
 27
1.0
 37
0.0
 76
     0
330
6C
  0
LAYOUT
  5
77
102
{ACAD_REACTORS
330
62
102
}
330
62
100
AcDbPlotSettings
  1

  2

  4

  6

 40
0.0
 41
0.0
 42
0.0
 43
0.0
 44
0.0
 45
0.0
 46
0.0
 47
0.0
 48
0.0
 49
0.0
140
0.0
141
0.0
142
1.0
143
1.0
 70
   688
 72
     0
 73
     0
 74
     5
  7

 75
    16
147
1.0
 76
     0
 77
     2
 78
   300
148
0.0
149
0.0
100
AcDbLayout
  1
Layout2
 70
     1
 71
     2
 10
0.0
 20
0.0
 11
12.0
 21
9.0
 12
0.0
 22
0.0
 32
0.0
 14
0.0
 24
0.0
 34
0.0
 15
0.0
 25
0.0
 35
0.0
146
0.0
 13
0.0
 23
0.0
 33
0.0
 16
1.0
 26
0.0
 36
0.0
 17
0.0
 27
1.0
 37
0.0
 76
     0
330
74
  0
LAYOUT
  5
73
102
{ACAD_REACTORS
330
62
102
}
330
62
100
AcDbPlotSettings
  1

  2

  4

  6

 40
0.0
 41
0.0
 42
0.0
 43
0.0
 44
0.0
 45
0.0
 46
0.0
 47
0.0
 48
0.0
 49
0.0
140
0.0
141
0.0
142
1.0
143
1.0
 70
  1712
 72
     0
 73
     0
 74
     0
  7

 75
     0
147
1.0
 76
     0
 77
     2
 78
   300
148
0.0
149
0.0
100
AcDbLayout
  1
Model
 70
     1
 71
     0
 10
0.0
 20
0.0
 11
12.0
 21
9.0
 12
0.0
 22
0.0
 32
0.0
 14
0.0
 24
0.0
 34
0.0
 15
0.0
 25
0.0
 35
0.0
146
0.0
 13
0.0
 23
0.0
 33
0.0
 16
1.0
 26
0.0
 36
0.0
 17
0.0
 27
1.0
 37
0.0
 76
     0
330
70
  0
MATERIAL
  5
19
102
{ACAD_XDICTIONARY
360
1A
102
}
102
{ACAD_REACTORS
330
10
102
}
330
10
100
AcDbMaterial
  1
ByBlock
 72
     0
 43
0.0208333333333333
 43
0.0
 43
0.0
 43
0.0
 43
0.0
 43
0.0208333333333333
 43
0.0
 43
0.0
 43
0.0
 43
0.0
 43
1.0
 43
0.0
 43
0.0
 43
0.0
 43
0.0
 43
1.0
 77
     0
 47
0.0208333333333333
 47
0.0
 47
0.0
 47
0.0
 47
0.0
 47
0.0208333333333333
 47
0.0
 47
0.0
 47
0.0
 47
0.0
 47
1.0
 47
0.0
 47
0.0
 47
0.0
 47
0.0
 47
1.0
171
     0
 49
0.0208333333333333
 49
0.0
 49
0.0
 49
0.0
 49
0.0
 49
0.0208333333333333
 49
0.0
 49
0.0
 49
0.0
 49
0.0
 49
1.0
 49
0.0
 49
0.0
 49
0.0
 49
0.0
 49
1.0
175
     0
142
0.0208333333333333
142
0.0
142
0.0
142
0.0
142
0.0
142
0.0208333333333333
142
0.0
142
0.0
142
0.0
142
0.0
142
1.0
142
0.0
142
0.0
142
0.0
142
0.0
142
1.0
179
     0
144
0.0208333333333333
144
0.0
144
0.0
144
0.0
144
0.0
144
0.0208333333333333
144
0.0
144
0.0
144
0.0
144
0.0
144
1.0
144
0.0
144
0.0
144
0.0
144
0.0
144
1.0
147
0.0208333333333333
147
0.0
147
0.0
147
0.0
147
0.0
147
0.0208333333333333
147
0.0
147
0.0
147
0.0
147
0.0
147
1.0
147
0.0
147
0.0
147
0.0
147
0.0
147
1.0
  0
MATERIAL
  5
11
102
{ACAD_XDICTIONARY
360
12
102
}
102
{ACAD_REACTORS
330
10
102
}
330
10
100
AcDbMaterial
  1
ByLayer
 72
     0
 43
0.0208333333333333
 43
0.0
 43
0.0
 43
0.0
 43
0.0
 43
0.0208333333333333
 43
0.0
 43
0.0
 43
0.0
 43
0.0
 43
1.0
 43
0.0
 43
0.0
 43
0.0
 43
0.0
 43
1.0
 77
     0
 47
0.0208333333333333
 47
0.0
 47
0.0
 47
0.0
 47
0.0
 47
0.0208333333333333
 47
0.0
 47
0.0
 47
0.0
 47
0.0
 47
1.0
 47
0.0
 47
0.0
 47
0.0
 47
0.0
 47
1.0
171
     0
 49
0.0208333333333333
 49
0.0
 49
0.0
 49
0.0
 49
0.0
 49
0.0208333333333333
 49
0.0
 49
0.0
 49
0.0
 49
0.0
 49
1.0
 49
0.0
 49
0.0
 49
0.0
 49
0.0
 49
1.0
175
     0
142
0.0208333333333333
142
0.0
142
0.0
142
0.0
142
0.0
142
0.0208333333333333
142
0.0
142
0.0
142
0.0
142
0.0
142
1.0
142
0.0
142
0.0
142
0.0
142
0.0
142
1.0
179
     0
144
0.0208333333333333
144
0.0
144
0.0
144
0.0
144
0.0
144
0.0208333333333333
144
0.0
144
0.0
144
0.0
144
0.0
144
1.0
144
0.0
144
0.0
144
0.0
144
0.0
144
1.0
147
0.0208333333333333
147
0.0
147
0.0
147
0.0
147
0.0
147
0.0208333333333333
147
0.0
147
0.0
147
0.0
147
0.0
147
1.0
147
0.0
147
0.0
147
0.0
147
0.0
147
1.0
  0
MATERIAL
  5
21
102
{ACAD_XDICTIONARY
360
22
102
}
102
{ACAD_REACTORS
330
10
102
}
330
10
100
AcDbMaterial
  1
Global
 72
     0
 43
0.0208333333333333
 43
0.0
 43
0.0
 43
0.0
 43
0.0
 43
0.0208333333333333
 43
0.0
 43
0.0
 43
0.0
 43
0.0
 43
1.0
 43
0.0
 43
0.0
 43
0.0
 43
0.0
 43
1.0
 77
     0
 47
0.0208333333333333
 47
0.0
 47
0.0
 47
0.0
 47
0.0
 47
0.0208333333333333
 47
0.0
 47
0.0
 47
0.0
 47
0.0
 47
1.0
 47
0.0
 47
0.0
 47
0.0
 47
0.0
 47
1.0
171
     0
 49
0.0208333333333333
 49
0.0
 49
0.0
 49
0.0
 49
0.0
 49
0.0208333333333333
 49
0.0
 49
0.0
 49
0.0
 49
0.0
 49
1.0
 49
0.0
 49
0.0
 49
0.0
 49
0.0
 49
1.0
175
     0
142
0.0208333333333333
142
0.0
142
0.0
142
0.0
142
0.0
142
0.0208333333333333
142
0.0
142
0.0
142
0.0
142
0.0
142
1.0
142
0.0
142
0.0
142
0.0
142
0.0
142
1.0
179
     0
144
0.0208333333333333
144
0.0
144
0.0
144
0.0
144
0.0
144
0.0208333333333333
144
0.0
144
0.0
144
0.0
144
0.0
144
1.0
144
0.0
144
0.0
144
0.0
144
0.0
144
1.0
147
0.0208333333333333
147
0.0
147
0.0
147
0.0
147
0.0
147
0.0208333333333333
147
0.0
147
0.0
147
0.0
147
0.0
147
1.0
147
0.0
147
0.0
147
0.0
147
0.0
147
1.0
  0
MLEADERSTYLE
  5
67
102
{ACAD_REACTORS
330
66
102
}
330
66
100
AcDbMLeaderStyle
179
     2
170
     2
171
     1
172
     0
 90
        2
 40
0.0
 41
0.0
173
     1
 91
-1056964608
340
5B
 92
       -2
290
     1
 42
0.09
291
     1
 43
0.36
  3
Standard
 44
0.18
300

342
55
174
     1
178
     6
175
     1
176
     0
 93
-1056964608
 45
0.18
292
     0
297
     0
 46
0.18
 94
-1056964608
 47
1.0
 49
1.0
140
1.0
293
     1
141
0.0
294
     1
177
     0
142
1.0
295
     1
296
     0
143
0.125
271
     0
272
     9
273
     9
298
     1
  0
MLINESTYLE
  5
60
102
{ACAD_REACTORS
330
5F
102
}
330
5F
100
AcDbMlineStyle
  2
STANDARD
 70
     0
  3

 62
   256
 51
90.0
 52
90.0
 71
     2
 49
0.5
 62
   256
  6
BYLAYER
 49
-0.5
 62
   256
  6
BYLAYER
  0
ACDBPLACEHOLDER
  5
F
102
{ACAD_REACTORS
330
E
102
}
330
E
  0
SCALE
  5
43
102
{ACAD_REACTORS
330
42
102
}
330
42
100
AcDbScale
 70
     0
300
1:1
140
1.0
141
1.0
290
     1
  0
SCALE
  5
44
102
{ACAD_REACTORS
330
42
102
}
330
42
100
AcDbScale
 70
     0
300
1/128" = 1'-0"
140
0.0078125
141
12.0
290
     0
  0
SCALE
  5
45
102
{ACAD_REACTORS
330
42
102
}
330
42
100
AcDbScale
 70
     0
300
1/64" = 1'-0"
140
0.015625
141
12.0
290
     0
  0
SCALE
  5
46
102
{ACAD_REACTORS
330
42
102
}
330
42
100
AcDbScale
 70
     0
300
1/32" = 1'-0"
140
0.03125
141
12.0
290
     0
  0
SCALE
  5
47
102
{ACAD_REACTORS
330
42
102
}
330
42
100
AcDbScale
 70
     0
300
1/16" = 1'-0"
140
0.0625
141
12.0
290
     0
  0
SCALE
  5
48
102
{ACAD_REACTORS
330
42
102
}
330
42
100
AcDbScale
 70
     0
300
3/32" = 1'-0"
140
0.09375
141
12.0
290
     0
  0
SCALE
  5
49
102
{ACAD_REACTORS
330
42
102
}
330
42
100
AcDbScale
 70
     0
300
1/8" = 1'-0"
140
0.125
141
12.0
290
     0
  0
SCALE
  5
4A
102
{ACAD_REACTORS
330
42
102
}
330
42
100
AcDbScale
 70
     0
300
3/16" = 1'-0"
140
0.1875
141
12.0
290
     0
  0
SCALE
  5
4B
102
{ACAD_REACTORS
330
42
102
}
330
42
100
AcDbScale
 70
     0
300
1/4" = 1'-0"
140
0.25
141
12.0
290
     0
  0
SCALE
  5
4C
102
{ACAD_REACTORS
330
42
102
}
330
42
100
AcDbScale
 70
     0
300
3/8" = 1'-0"
140
0.375
141
12.0
290
     0
  0
SCALE
  5
4D
102
{ACAD_REACTORS
330
42
102
}
330
42
100
AcDbScale
 70
     0
300
1/2" = 1'-0"
140
0.5
141
12.0
290
     0
  0
SCALE
  5
4E
102
{ACAD_REACTORS
330
42
102
}
330
42
100
AcDbScale
 70
     0
300
3/4" = 1'-0"
140
0.75
141
12.0
290
     0
  0
SCALE
  5
4F
102
{ACAD_REACTORS
330
42
102
}
330
42
100
AcDbScale
 70
     0
300
1" = 1'-0"
140
1.0
141
12.0
290
     0
  0
SCALE
  5
50
102
{ACAD_REACTORS
330
42
102
}
330
42
100
AcDbScale
 70
     0
300
1-1/2" = 1'-0"
140
1.5
141
12.0
290
     0
  0
SCALE
  5
51
102
{ACAD_REACTORS
330
42
102
}
330
42
100
AcDbScale
 70
     0
300
3" = 1'-0"
140
3.0
141
12.0
290
     0
  0
SCALE
  5
52
102
{ACAD_REACTORS
330
42
102
}
330
42
100
AcDbScale
 70
     0
300
6" = 1'-0"
140
6.0
141
12.0
290
     0
  0
SCALE
  5
53
102
{ACAD_REACTORS
330
42
102
}
330
42
100
AcDbScale
 70
     0
300
1'-0" = 1'-0"
140
12.0
141
12.0
290
     0
  0
ACDBSECTIONVIEWSTYLE
  5
69
102
{ACAD_REACTORS
330
68
102
}
330
68
100
AcDbModelDocViewStyle
 70
     0
  3
Imperial24
290
     1
300
Imperial24
 90
        0
100
AcDbSectionViewStyle
 70
     0
 71
     0
 90
       78
 71
     1
340
55
 62
   256
 40
0.24
340
0
340
0
 62
   256
 40
0.24
300
I, O, Q, S, X, Z
 40
0.48
 90
        3
 40
0.18
 90
        1
 71
     2
340
5D
 90
       25
 62
   256
340
5D
 90
       50
 62
   256
 40
0.24
 40
0.0
 40
0.24
 71
     3
340
55
 62
   256
 40
0.24
 90
        1
 40
0.75
 90
        1
300
%<\AcVar ViewType \f "%tc1">% %<\AcVar ViewSectionStartId>%-%<\AcVar ViewSectionEndId>%\PSCALE %<\AcVar ViewScale \f "%sn">%
 71
     4
 62
   256
 62
   257
300
ANSI31
 40
1.0
 90
        0
290
     0
290
     0
 90
        6
 40
0.0
 40
1.570796326794896
 40
0.2617993877991494
 40
1.308996938995747
 40
-0.2617993877991494
 40
1.832595714594046
  0
TABLESTYLE
  5
65
102
{ACAD_XDICTIONARY
360
98
102
}
102
{ACAD_REACTORS
330
64
102
}
330
64
100
AcDbTableStyle
280
     0
  3
Standard
 70
     0
 71
     0
 40
0.06
 41
0.06
280
     0
281
     0
  7
Standard
140
0.18
170
     2
 62
     0
 63
     7
283
     0
 90
      512
 91
        0
  1

274
    -2
284
     1
 64
     0
275
    -2
285
     1
 65
     0
276
    -2
286
     1
 66
     0
277
    -2
287
     1
 67
     0
278
    -2
288
     1
 68
     0
279
    -2
289
     1
 69
     0
  7
Standard
140
0.25
170
     5
 62
     0
 63
     7
283
     0
 90
      512
 91
        0
  1

274
    -2
284
     1
 64
     0
275
    -2
285
     1
 65
     0
276
    -2
286
     1
 66
     0
277
    -2
287
     1
 67
     0
278
    -2
288
     1
 68
     0
279
    -2
289
     1
 69
     0
  7
Standard
140
0.18
170
     5
 62
     0
 63
     7
283
     0
 90
      512
 91
        0
  1

274
    -2
284
     1
 64
     0
275
    -2
285
     1
 65
     0
276
    -2
286
     1
 66
     0
277
    -2
287
     1
 67
     0
278
    -2
288
     1
 68
     0
279
    -2
289
     1
 69
     0
  0
VISUALSTYLE
  5
2F
102
{ACAD_REACTORS
330
29
102
}
330
29
100
AcDbVisualStyle
  2
2dWireframe
 70
     4
177
     3
291
     0
 70
    58
 90
        0
176
     1
 90
        2
176
     1
 90
        0
176
     1
 90
        0
176
     1
 40
0.6
176
     1
 40
30.0
176
     1
 62
     7
420
 16777215
176
     1
 90
        1
176
     1
 90
        4
176
     1
 62
     7
176
     1
 62
   257
176
     1
 90
        1
176
     1
 90
        1
176
     1
 40
1.0
176
     1
 90
        0
176
     1
 62
   257
176
     1
 40
1.0
176
     1
 90
        1
176
     1
 90
        6
176
     1
 90
        2
176
     1
 62
     7
176
     1
 90
        5
176
     1
 90
        0
176
     1
 90
        0
176
     1
290
     0
176
     1
 90
        1
176
     1
 40
0.0
176
     1
 90
        0
176
     1
290
     1
176
     1
290
     1
176
     1
290
     0
176
     1
290
     0
176
     1
290
     0
176
     1
290
     0
176
     1
290
     0
176
     1
290
     0
176
     1
290
     0
176
     1
 90
       50
176
     1
 40
0.0
176
     1
 40
1.0
176
     1
 90
        0
176
     1
 62
    18
420
        0
176
     1
 90
       50
176
     1
 90
        3
176
     1
 62
     5
420
      255
176
     1
290
     0
176
     1
 90
       50
176
     1
 90
       50
176
     1
 90
       50
176
     1
290
     0
176
     1
 90
       50
176
     1
 62
   256
176
     0
 40
1.0
176
     0
 90
        2
176
     1
  1
strokes_ogs.tif
176
     1
290
     0
176
     1
 40
1.0
176
     1
 40
1.0
176
     1
  0
VISUALSTYLE
  5
2E
102
{ACAD_REACTORS
330
29
102
}
330
29
100
AcDbVisualStyle
  2
Basic
 70
     7
177
     3
291
     1
 70
    58
 90
        1
176
     1
 90
        0
176
     1
 90
        1
176
     1
 90
        0
176
     1
 40
0.6
176
     1
 40
30.0
176
     1
 62
     7
420
 16777215
176
     1
 90
        0
176
     1
 90
        4
176
     1
 62
     7
176
     1
 62
   257
176
     1
 90
        1
176
     1
 90
        1
176
     1
 40
1.0
176
     1
 90
        8
176
     1
 62
     7
176
     1
 40
1.0
176
     1
 90
        1
176
     1
 90
        6
176
     1
 90
        2
176
     1
 62
     7
176
     1
 90
        5
176
     1
 90
        0
176
     1
 90
        0
176
     1
290
     0
176
     1
 90
        1
176
     1
 40
0.0
176
     1
 90
        0
176
     1
290
     0
176
     1
290
     1
176
     1
290
     1
176
     1
290
     0
176
     1
290
     0
176
     1
290
     0
176
     1
290
     0
176
     1
290
     0
176
     1
290
     0
176
     1
 90
       50
176
     1
 40
0.0
176
     1
 40
1.0
176
     1
 90
        0
176
     1
 62
    18
420
        0
176
     1
 90
       50
176
     1
 90
        3
176
     1
 62
     5
420
      255
176
     1
290
     0
176
     1
 90
       50
176
     1
 90
       50
176
     1
 90
       50
176
     1
290
     0
176
     1
 90
       50
176
     1
 62
   256
176
     0
 40
1.0
176
     0
 90
        2
176
     1
  1
strokes_ogs.tif
176
     1
290
     0
176
     1
 40
1.0
176
     1
 40
1.0
176
     1
  0
VISUALSTYLE
  5
35
102
{ACAD_REACTORS
330
29
102
}
330
29
100
AcDbVisualStyle
  2
Brighten
 70
    12
177
     3
291
     1
 70
    58
 90
        2
176
     1
 90
        2
176
     1
 90
        0
176
     1
 90
        0
176
     1
 40
0.6
176
     1
 40
30.0
176
     1
 62
     7
420
 16777215
176
     1
 90
        1
176
     1
 90
        4
176
     1
 62
     7
176
     1
 62
   257
176
     1
 90
        1
176
     1
 90
        1
176
     1
 40
1.0
176
     1
 90
        8
176
     1
 62
     7
176
     1
 40
1.0
176
     1
 90
        1
176
     1
 90
        6
176
     1
 90
        2
176
     1
 62
     7
176
     1
 90
        5
176
     1
 90
        0
176
     1
 90
        0
176
     1
290
     0
176
     1
 90
        1
176
     1
 40
50.0
176
     1
 90
        0
176
     1
290
     0
176
     1
290
     1
176
     1
290
     1
176
     1
290
     0
176
     1
290
     0
176
     1
290
     0
176
     1
290
     0
176
     1
290
     0
176
     1
290
     0
176
     1
 90
       50
176
     1
 40
0.0
176
     1
 40
1.0
176
     1
 90
        0
176
     1
 62
    18
420
        0
176
     1
 90
       50
176
     1
 90
        3
176
     1
 62
     5
420
      255
176
     1
290
     0
176
     1
 90
       50
176
     1
 90
       50
176
     1
 90
       50
176
     1
290
     0
176
     1
 90
       50
176
     1
 62
   256
176
     0
 40
1.0
176
     0
 90
        2
176
     1
  1
strokes_ogs.tif
176
     1
290
     0
176
     1
 40
1.0
176
     1
 40
1.0
176
     1
  0
VISUALSTYLE
  5
39
102
{ACAD_REACTORS
330
29
102
}
330
29
100
AcDbVisualStyle
  2
ColorChange
 70
    16
177
     3
291
     1
 70
    58
 90
        2
176
     1
 90
        2
176
     1
 90
        3
176
     1
 90
        0
176
     1
 40
0.6
176
     1
 40
30.0
176
     1
 62
     8
420
  8421504
176
     1
 90
        1
176
     1
 90
        4
176
     1
 62
     7
176
     1
 62
   257
176
     1
 90
        1
176
     1
 90
        1
176
     1
 40
1.0
176
     1
 90
        8
176
     1
 62
     8
420
  8421504
176
     1
 40
1.0
176
     1
 90
        1
176
     1
 90
        6
176
     1
 90
        2
176
     1
 62
     7
176
     1
 90
        5
176
     1
 90
        0
176
     1
 90
        0
176
     1
290
     0
176
     1
 90
        1
176
     1
 40
0.0
176
     1
 90
        0
176
     1
290
     0
176
     1
290
     1
176
     1
290
     1
176
     1
290
     0
176
     1
290
     0
176
     1
290
     0
176
     1
290
     0
176
     1
290
     0
176
     1
290
     0
176
     1
 90
       50
176
     1
 40
0.0
176
     1
 40
1.0
176
     1
 90
        0
176
     1
 62
    18
420
        0
176
     1
 90
       50
176
     1
 90
        3
176
     1
 62
     5
420
      255
176
     1
290
     0
176
     1
 90
       50
176
     1
 90
       50
176
     1
 90
       50
176
     1
290
     0
176
     1
 90
       50
176
     1
 62
   256
176
     0
 40
1.0
176
     0
 90
        2
176
     1
  1
strokes_ogs.tif
176
     1
290
     0
176
     1
 40
1.0
176
     1
 40
1.0
176
     1
  0
VISUALSTYLE
  5
32
102
{ACAD_REACTORS
330
29
102
}
330
29
100
AcDbVisualStyle
  2
Conceptual
 70
     9
177
     3
291
     0
 70
    58
 90
        3
176
     1
 90
        2
176
     1
 90
        0
176
     1
 90
        0
176
     1
 40
0.6
176
     1
 40
30.0
176
     1
 62
     7
420
 16777215
176
     1
 90
        2
176
     1
 90
        2
176
     1
 62
     7
176
     1
 62
   257
176
     1
 90
        1
176
     1
 90
        1
176
     1
 40
179.0
176
     1
 90
        8
176
     1
 62
     7
176
     1
 40
1.0
176
     1
 90
        1
176
     1
 90
        6
176
     1
 90
        2
176
     1
 62
     7
176
     1
 90
        3
176
     1
 90
        0
176
     1
 90
        0
176
     1
290
     0
176
     1
 90
        1
176
     1
 40
0.0
176
     1
 90
        0
176
     1
290
     0
176
     1
290
     1
176
     1
290
     1
176
     1
290
     0
176
     1
290
     0
176
     1
290
     0
176
     1
290
     0
176
     1
290
     0
176
     1
290
     0
176
     1
 90
       50
176
     1
 40
0.0
176
     1
 40
1.0
176
     1
 90
        0
176
     1
 62
    18
420
        0
176
     1
 90
       50
176
     1
 90
        3
176
     1
 62
     5
420
      255
176
     1
290
     0
176
     1
 90
       50
176
     1
 90
       50
176
     1
 90
       50
176
     1
290
     0
176
     1
 90
       50
176
     1
 62
   256
176
     0
 40
1.0
176
     0
 90
        2
176
     1
  1
strokes_ogs.tif
176
     1
290
     0
176
     1
 40
1.0
176
     1
 40
1.0
176
     1
  0
VISUALSTYLE
  5
34
102
{ACAD_REACTORS
330
29
102
}
330
29
100
AcDbVisualStyle
  2
Dim
 70
    11
177
     3
291
     1
 70
    58
 90
        2
176
     1
 90
        2
176
     1
 90
        0
176
     1
 90
        0
176
     1
 40
0.6
176
     1
 40
30.0
176
     1
 62
     7
420
 16777215
176
     1
 90
        1
176
     1
 90
        4
176
     1
 62
     7
176
     1
 62
   257
176
     1
 90
        1
176
     1
 90
        1
176
     1
 40
1.0
176
     1
 90
        8
176
     1
 62
     7
176
     1
 40
1.0
176
     1
 90
        1
176
     1
 90
        6
176
     1
 90
        2
176
     1
 62
     7
176
     1
 90
        5
176
     1
 90
        0
176
     1
 90
        0
176
     1
290
     0
176
     1
 90
        1
176
     1
 40
-50.0
176
     1
 90
        0
176
     1
290
     0
176
     1
290
     1
176
     1
290
     1
176
     1
290
     0
176
     1
290
     0
176
     1
290
     0
176
     1
290
     0
176
     1
290
     0
176
     1
290
     0
176
     1
 90
       50
176
     1
 40
0.0
176
     1
 40
1.0
176
     1
 90
        0
176
     1
 62
    18
420
        0
176
     1
 90
       50
176
     1
 90
        3
176
     1
 62
     5
420
      255
176
     1
290
     0
176
     1
 90
       50
176
     1
 90
       50
176
     1
 90
       50
176
     1
290
     0
176
     1
 90
       50
176
     1
 62
   256
176
     0
 40
1.0
176
     0
 90
        2
176
     1
  1
strokes_ogs.tif
176
     1
290
     0
176
     1
 40
1.0
176
     1
 40
1.0
176
     1
  0
VISUALSTYLE
  5
41
102
{ACAD_REACTORS
330
29
102
}
330
29
100
AcDbVisualStyle
  2
EdgeColorOff
 70
    22
177
     3
291
     1
 70
    58
 90
        2
176
     0
 90
        2
176
     0
 90
        0
176
     0
 90
        0
176
     0
 40
0.6
176
     0
 40
30.0
176
     0
 62
     7
420
 16777215
176
     0
 90
        1
176
     0
 90
        4
176
     0
 62
     7
176
     0
 62
   257
176
     0
 90
        1
176
     0
 90
        1
176
     0
 40
1.0
176
     0
 90
        8
176
     2
 62
     7
176
     0
 40
1.0
176
     0
 90
        1
176
     0
 90
        6
176
     0
 90
        2
176
     0
 62
     7
176
     0
 90
        5
176
     0
 90
        0
176
     0
 90
        0
176
     0
290
     0
176
     0
 90
        1
176
     0
 40
0.0
176
     0
 90
        0
176
     0
290
     0
176
     0
290
     1
176
     0
290
     1
176
     0
290
     0
176
     0
290
     0
176
     0
290
     0
176
     0
290
     0
176
     0
290
     0
176
     0
290
     0
176
     0
 90
       50
176
     0
 40
0.0
176
     0
 40
1.0
176
     0
 90
        0
176
     0
 62
    18
420
        0
176
     0
 90
       50
176
     0
 90
        3
176
     0
 62
     5
420
      255
176
     0
290
     0
176
     0
 90
       50
176
     0
 90
       50
176
     0
 90
       50
176
     0
290
     0
176
     0
 90
       50
176
     0
 62
   256
176
     0
 40
1.0
176
     0
 90
        2
176
     0
  1
strokes_ogs.tif
176
     0
290
     0
176
     0
 40
1.0
176
     0
 40
1.0
176
     0
  0
VISUALSTYLE
  5
38
102
{ACAD_REACTORS
330
29
102
}
330
29
100
AcDbVisualStyle
  2
Facepattern
 70
    15
177
     3
291
     1
 70
    58
 90
        2
176
     1
 90
        2
176
     1
 90
        0
176
     1
 90
        0
176
     1
 40
0.6
176
     1
 40
30.0
176
     1
 62
     7
420
 16777215
176
     1
 90
        1
176
     1
 90
        4
176
     1
 62
     7
176
     1
 62
   257
176
     1
 90
        1
176
     1
 90
        1
176
     1
 40
1.0
176
     1
 90
        8
176
     1
 62
     7
176
     1
 40
1.0
176
     1
 90
        1
176
     1
 90
        6
176
     1
 90
        2
176
     1
 62
     7
176
     1
 90
        5
176
     1
 90
        0
176
     1
 90
        0
176
     1
290
     0
176
     1
 90
        1
176
     1
 40
0.0
176
     1
 90
        0
176
     1
290
     0
176
     1
290
     1
176
     1
290
     1
176
     1
290
     0
176
     1
290
     0
176
     1
290
     0
176
     1
290
     0
176
     1
290
     0
176
     1
290
     0
176
     1
 90
       50
176
     1
 40
0.0
176
     1
 40
1.0
176
     1
 90
        0
176
     1
 62
    18
420
        0
176
     1
 90
       50
176
     1
 90
        3
176
     1
 62
     5
420
      255
176
     1
290
     0
176
     1
 90
       50
176
     1
 90
       50
176
     1
 90
       50
176
     1
290
     0
176
     1
 90
       50
176
     1
 62
   256
176
     0
 40
1.0
176
     0
 90
        2
176
     1
  1
strokes_ogs.tif
176
     1
290
     0
176
     1
 40
1.0
176
     1
 40
1.0
176
     1
  0
VISUALSTYLE
  5
2A
102
{ACAD_REACTORS
330
29
102
}
330
29
100
AcDbVisualStyle
  2
Flat
 70
     0
177
     3
291
     1
 70
    58
 90
        2
176
     1
 90
        1
176
     1
 90
        1
176
     1
 90
        2
176
     1
 40
0.6
176
     1
 40
30.0
176
     1
 62
     7
420
 16777215
176
     1
 90
        0
176
     1
 90
        0
176
     1
 62
     7
176
     1
 62
   257
176
     1
 90
        1
176
     1
 90
        1
176
     1
 40
1.0
176
     1
 90
        8
176
     1
 62
     7
176
     1
 40
1.0
176
     1
 90
        1
176
     1
 90
        6
176
     1
 90
        2
176
     1
 62
     7
176
     1
 90
        5
176
     1
 90
        0
176
     1
 90
        0
176
     1
290
     0
176
     1
 90
       13
176
     1
 40
0.0
176
     1
 90
        0
176
     1
290
     0
176
     1
290
     1
176
     1
290
     1
176
     1
290
     0
176
     1
290
     0
176
     1
290
     0
176
     1
290
     0
176
     1
290
     0
176
     1
290
     0
176
     1
 90
       50
176
     1
 40
0.0
176
     1
 40
1.0
176
     1
 90
        0
176
     1
 62
    18
420
        0
176
     1
 90
       50
176
     1
 90
        3
176
     1
 62
     5
420
      255
176
     1
290
     0
176
     1
 90
       50
176
     1
 90
       50
176
     1
 90
       50
176
     1
290
     0
176
     1
 90
       50
176
     1
 62
   256
176
     0
 40
1.0
176
     0
 90
        2
176
     1
  1
strokes_ogs.tif
176
     1
290
     0
176
     1
 40
1.0
176
     1
 40
1.0
176
     1
  0
VISUALSTYLE
  5
2B
102
{ACAD_REACTORS
330
29
102
}
330
29
100
AcDbVisualStyle
  2
FlatWithEdges
 70
     1
177
     3
291
     1
 70
    58
 90
        2
176
     1
 90
        1
176
     1
 90
        1
176
     1
 90
        2
176
     1
 40
0.6
176
     1
 40
30.0
176
     1
 62
     7
420
 16777215
176
     1
 90
        1
176
     1
 90
        0
176
     1
 62
     7
176
     1
 62
   257
176
     1
 90
        1
176
     1
 90
        1
176
     1
 40
1.0
176
     1
 90
        0
176
     1
 62
   257
176
     1
 40
1.0
176
     1
 90
        1
176
     1
 90
        6
176
     1
 90
        2
176
     1
 62
     7
176
     1
 90
        5
176
     1
 90
        0
176
     1
 90
        0
176
     1
290
     0
176
     1
 90
       13
176
     1
 40
0.0
176
     1
 90
        0
176
     1
290
     0
176
     1
290
     1
176
     1
290
     1
176
     1
290
     0
176
     1
290
     0
176
     1
290
     0
176
     1
290
     0
176
     1
290
     0
176
     1
290
     0
176
     1
 90
       50
176
     1
 40
0.0
176
     1
 40
1.0
176
     1
 90
        0
176
     1
 62
    18
420
        0
176
     1
 90
       50
176
     1
 90
        3
176
     1
 62
     5
420
      255
176
     1
290
     0
176
     1
 90
       50
176
     1
 90
       50
176
     1
 90
       50
176
     1
290
     0
176
     1
 90
       50
176
     1
 62
   256
176
     0
 40
1.0
176
     0
 90
        2
176
     1
  1
strokes_ogs.tif
176
     1
290
     0
176
     1
 40
1.0
176
     1
 40
1.0
176
     1
  0
VISUALSTYLE
  5
2C
102
{ACAD_REACTORS
330
29
102
}
330
29
100
AcDbVisualStyle
  2
Gouraud
 70
     2
177
     3
291
     1
 70
    58
 90
        2
176
     1
 90
        2
176
     1
 90
        1
176
     1
 90
        2
176
     1
 40
0.6
176
     1
 40
30.0
176
     1
 62
     7
420
 16777215
176
     1
 90
        0
176
     1
 90
        0
176
     1
 62
     7
176
     1
 62
   257
176
     1
 90
        1
176
     1
 90
        1
176
     1
 40
1.0
176
     1
 90
        0
176
     1
 62
     7
176
     1
 40
1.0
176
     1
 90
        1
176
     1
 90
        6
176
     1
 90
        2
176
     1
 62
     7
176
     1
 90
        5
176
     1
 90
        0
176
     1
 90
        0
176
     1
290
     0
176
     1
 90
       13
176
     1
 40
0.0
176
     1
 90
        0
176
     1
290
     0
176
     1
290
     1
176
     1
290
     1
176
     1
290
     0
176
     1
290
     0
176
     1
290
     0
176
     1
290
     0
176
     1
290
     0
176
     1
290
     0
176
     1
 90
       50
176
     1
 40
0.0
176
     1
 40
1.0
176
     1
 90
        0
176
     1
 62
    18
420
        0
176
     1
 90
       50
176
     1
 90
        3
176
     1
 62
     5
420
      255
176
     1
290
     0
176
     1
 90
       50
176
     1
 90
       50
176
     1
 90
       50
176
     1
290
     0
176
     1
 90
       50
176
     1
 62
   256
176
     0
 40
1.0
176
     0
 90
        2
176
     1
  1
strokes_ogs.tif
176
     1
290
     0
176
     1
 40
1.0
176
     1
 40
1.0
176
     1
  0
VISUALSTYLE
  5
2D
102
{ACAD_REACTORS
330
29
102
}
330
29
100
AcDbVisualStyle
  2
GouraudWithEdges
 70
     3
177
     3
291
     1
 70
    58
 90
        2
176
     1
 90
        2
176
     1
 90
        1
176
     1
 90
        2
176
     1
 40
0.6
176
     1
 40
30.0
176
     1
 62
     7
420
 16777215
176
     1
 90
        1
176
     1
 90
        0
176
     1
 62
     7
176
     1
 62
   257
176
     1
 90
        1
176
     1
 90
        1
176
     1
 40
1.0
176
     1
 90
        0
176
     1
 62
   257
176
     1
 40
1.0
176
     1
 90
        1
176
     1
 90
        6
176
     1
 90
        2
176
     1
 62
     7
176
     1
 90
        5
176
     1
 90
        0
176
     1
 90
        0
176
     1
290
     0
176
     1
 90
       13
176
     1
 40
0.0
176
     1
 90
        0
176
     1
290
     0
176
     1
290
     1
176
     1
290
     1
176
     1
290
     0
176
     1
290
     0
176
     1
290
     0
176
     1
290
     0
176
     1
290
     0
176
     1
290
     0
176
     1
 90
       50
176
     1
 40
0.0
176
     1
 40
1.0
176
     1
 90
        0
176
     1
 62
    18
420
        0
176
     1
 90
       50
176
     1
 90
        3
176
     1
 62
     5
420
      255
176
     1
290
     0
176
     1
 90
       50
176
     1
 90
       50
176
     1
 90
       50
176
     1
290
     0
176
     1
 90
       50
176
     1
 62
   256
176
     0
 40
1.0
176
     0
 90
        2
176
     1
  1
strokes_ogs.tif
176
     1
290
     0
176
     1
 40
1.0
176
     1
 40
1.0
176
     1
  0
VISUALSTYLE
  5
31
102
{ACAD_REACTORS
330
29
102
}
330
29
100
AcDbVisualStyle
  2
Hidden
 70
     6
177
     3
291
     0
 70
    58
 90
        1
176
     1
 90
        2
176
     1
 90
        2
176
     1
 90
        0
176
     1
 40
0.6
176
     1
 40
30.0
176
     1
 62
     7
420
 16777215
176
     1
 90
        2
176
     1
 90
        2
176
     1
 62
     7
176
     1
 62
   257
176
     1
 90
        2
176
     1
 90
        1
176
     1
 40
40.0
176
     1
 90
        0
176
     1
 62
   257
176
     1
 40
1.0
176
     1
 90
        1
176
     1
 90
        6
176
     1
 90
        2
176
     1
 62
     7
176
     1
 90
        3
176
     1
 90
        0
176
     1
 90
        0
176
     1
290
     0
176
     1
 90
        1
176
     1
 40
0.0
176
     1
 90
        0
176
     1
290
     0
176
     1
290
     1
176
     1
290
     1
176
     1
290
     0
176
     1
290
     0
176
     1
290
     0
176
     1
290
     0
176
     1
290
     0
176
     1
290
     0
176
     1
 90
       50
176
     1
 40
0.0
176
     1
 40
1.0
176
     1
 90
        0
176
     1
 62
    18
420
        0
176
     1
 90
       50
176
     1
 90
        3
176
     1
 62
     5
420
      255
176
     1
290
     0
176
     1
 90
       50
176
     1
 90
       50
176
     1
 90
       50
176
     1
290
     0
176
     1
 90
       50
176
     1
 62
   256
176
     0
 40
1.0
176
     0
 90
        2
176
     1
  1
strokes_ogs.tif
176
     1
290
     0
176
     1
 40
1.0
176
     1
 40
1.0
176
     1
  0
VISUALSTYLE
  5
3F
102
{ACAD_REACTORS
330
29
102
}
330
29
100
AcDbVisualStyle
  2
JitterOff
 70
    20
177
     3
291
     1
 70
    58
 90
        2
176
     0
 90
        2
176
     0
 90
        0
176
     0
 90
        0
176
     0
 40
0.6
176
     0
 40
30.0
176
     0
 62
     7
420
 16777215
176
     0
 90
        1
176
     0
 90
        4
176
     0
 62
     7
176
     0
 62
   257
176
     0
 90
        1
176
     0
 90
        1
176
     0
 40
1.0
176
     0
 90
       10
176
     2
 62
     7
176
     0
 40
1.0
176
     0
 90
        1
176
     0
 90
        6
176
     0
 90
        2
176
     0
 62
     7
176
     0
 90
        5
176
     0
 90
        0
176
     0
 90
        0
176
     0
290
     0
176
     0
 90
        1
176
     0
 40
0.0
176
     0
 90
        0
176
     0
290
     0
176
     0
290
     1
176
     0
290
     1
176
     0
290
     0
176
     0
290
     0
176
     0
290
     0
176
     0
290
     0
176
     0
290
     0
176
     0
290
     0
176
     0
 90
       50
176
     0
 40
0.0
176
     0
 40
1.0
176
     0
 90
        0
176
     0
 62
    18
420
        0
176
     0
 90
       50
176
     0
 90
        3
176
     0
 62
     5
420
      255
176
     0
290
     0
176
     0
 90
       50
176
     0
 90
       50
176
     0
 90
       50
176
     0
290
     0
176
     0
 90
       50
176
     0
 62
   256
176
     0
 40
1.0
176
     0
 90
        2
176
     0
  1
strokes_ogs.tif
176
     0
290
     0
176
     0
 40
1.0
176
     0
 40
1.0
176
     0
  0
VISUALSTYLE
  5
37
102
{ACAD_REACTORS
330
29
102
}
330
29
100
AcDbVisualStyle
  2
Linepattern
 70
    14
177
     3
291
     1
 70
    58
 90
        2
176
     1
 90
        2
176
     1
 90
        0
176
     1
 90
        0
176
     1
 40
0.6
176
     1
 40
30.0
176
     1
 62
     7
420
 16777215
176
     1
 90
        1
176
     1
 90
        4
176
     1
 62
     7
176
     1
 62
   257
176
     1
 90
        7
176
     1
 90
        7
176
     1
 40
1.0
176
     1
 90
        8
176
     1
 62
     7
176
     1
 40
1.0
176
     1
 90
        1
176
     1
 90
        6
176
     1
 90
        2
176
     1
 62
     7
176
     1
 90
        5
176
     1
 90
        0
176
     1
 90
        0
176
     1
290
     0
176
     1
 90
        1
176
     1
 40
0.0
176
     1
 90
        0
176
     1
290
     0
176
     1
290
     1
176
     1
290
     1
176
     1
290
     0
176
     1
290
     0
176
     1
290
     0
176
     1
290
     0
176
     1
290
     0
176
     1
290
     0
176
     1
 90
       50
176
     1
 40
0.0
176
     1
 40
1.0
176
     1
 90
        0
176
     1
 62
    18
420
        0
176
     1
 90
       50
176
     1
 90
        3
176
     1
 62
     5
420
      255
176
     1
290
     0
176
     1
 90
       50
176
     1
 90
       50
176
     1
 90
       50
176
     1
290
     0
176
     1
 90
       50
176
     1
 62
   256
176
     0
 40
1.0
176
     0
 90
        2
176
     1
  1
strokes_ogs.tif
176
     1
290
     0
176
     1
 40
1.0
176
     1
 40
1.0
176
     1
  0
VISUALSTYLE
  5
40
102
{ACAD_REACTORS
330
29
102
}
330
29
100
AcDbVisualStyle
  2
OverhangOff
 70
    21
177
     3
291
     1
 70
    58
 90
        2
176
     0
 90
        2
176
     0
 90
        0
176
     0
 90
        0
176
     0
 40
0.6
176
     0
 40
30.0
176
     0
 62
     7
420
 16777215
176
     0
 90
        1
176
     0
 90
        4
176
     0
 62
     7
176
     0
 62
   257
176
     0
 90
        1
176
     0
 90
        1
176
     0
 40
1.0
176
     0
 90
        9
176
     2
 62
     7
176
     0
 40
1.0
176
     0
 90
        1
176
     0
 90
        6
176
     0
 90
        2
176
     0
 62
     7
176
     0
 90
        5
176
     0
 90
        0
176
     0
 90
        0
176
     0
290
     0
176
     0
 90
        1
176
     0
 40
0.0
176
     0
 90
        0
176
     0
290
     0
176
     0
290
     1
176
     0
290
     1
176
     0
290
     0
176
     0
290
     0
176
     0
290
     0
176
     0
290
     0
176
     0
290
     0
176
     0
290
     0
176
     0
 90
       50
176
     0
 40
0.0
176
     0
 40
1.0
176
     0
 90
        0
176
     0
 62
    18
420
        0
176
     0
 90
       50
176
     0
 90
        3
176
     0
 62
     5
420
      255
176
     0
290
     0
176
     0
 90
       50
176
     0
 90
       50
176
     0
 90
       50
176
     0
290
     0
176
     0
 90
       50
176
     0
 62
   256
176
     0
 40
1.0
176
     0
 90
        2
176
     0
  1
strokes_ogs.tif
176
     0
290
     0
176
     0
 40
1.0
176
     0
 40
1.0
176
     0
  0
VISUALSTYLE
  5
33
102
{ACAD_REACTORS
330
29
102
}
330
29
100
AcDbVisualStyle
  2
Realistic
 70
     8
177
     3
291
     0
 70
    58
 90
        2
176
     1
 90
        3
176
     1
 90
        0
176
     1
 90
        2
176
     1
 40
0.6
176
     1
 40
30.0
176
     1
 62
     7
420
 16777215
176
     1
 90
        0
176
     1
 90
        0
176
     1
 62
     7
176
     1
 62
   257
176
     1
 90
        1
176
     1
 90
        1
176
     1
 40
1.0
176
     1
 90
        8
176
     1
 62
   257
176
     1
 40
1.0
176
     1
 90
        1
176
     1
 90
        6
176
     1
 90
        2
176
     1
 62
     7
176
     1
 90
        3
176
     1
 90
        0
176
     1
 90
        0
176
     1
290
     0
176
     1
 90
       13
176
     1
 40
0.0
176
     1
 90
        0
176
     1
290
     0
176
     1
290
     1
176
     1
290
     1
176
     1
290
     0
176
     1
290
     0
176
     1
290
     0
176
     1
290
     0
176
     1
290
     0
176
     1
290
     0
176
     1
 90
       50
176
     1
 40
0.0
176
     1
 40
1.0
176
     1
 90
        0
176
     1
 62
    18
420
        0
176
     1
 90
       50
176
     1
 90
        3
176
     1
 62
     5
420
      255
176
     1
290
     0
176
     1
 90
       50
176
     1
 90
       50
176
     1
 90
       50
176
     1
290
     0
176
     1
 90
       50
176
     1
 62
   256
176
     0
 40
1.0
176
     0
 90
        2
176
     1
  1
strokes_ogs.tif
176
     1
290
     0
176
     1
 40
1.0
176
     1
 40
1.0
176
     1
  0
VISUALSTYLE
  5
3E
102
{ACAD_REACTORS
330
29
102
}
330
29
100
AcDbVisualStyle
  2
Shaded
 70
    27
177
     3
291
     0
 70
    58
 90
        2
176
     1
 90
        2
176
     1
 90
        1
176
     1
 90
        2
176
     1
 40
0.6
176
     1
 40
30.0
176
     1
 62
     7
420
 16777215
176
     1
 90
        0
176
     1
 90
        4
176
     1
 62
     7
176
     1
 62
   257
176
     1
 90
        1
176
     1
 90
        1
176
     1
 40
1.0
176
     1
 90
        8
176
     1
 62
   257
176
     1
 40
1.0
176
     1
 90
        1
176
     1
 90
        6
176
     1
 90
        2
176
     1
 62
     8
420
  7895160
176
     1
 90
        3
176
     1
 90
        0
176
     1
 90
        0
176
     1
290
     0
176
     1
 90
        5
176
     1
 40
0.0
176
     1
 90
        0
176
     1
290
     0
176
     1
290
     1
176
     1
290
     1
176
     1
290
     0
176
     1
290
     0
176
     1
290
     0
176
     1
290
     0
176
     1
290
     0
176
     1
290
     0
176
     1
 90
       50
176
     1
 40
0.0
176
     1
 40
1.0
176
     1
 90
        0
176
     1
 62
    18
420
        0
176
     1
 90
       50
176
     1
 90
        3
176
     1
 62
     5
420
      255
176
     1
290
     0
176
     1
 90
       50
176
     1
 90
       50
176
     1
 90
       50
176
     1
290
     0
176
     1
 90
       50
176
     1
 62
   256
176
     0
 40
1.0
176
     0
 90
        2
176
     1
  1
strokes_ogs.tif
176
     1
290
     0
176
     1
 40
1.0
176
     1
 40
1.0
176
     1
  0
VISUALSTYLE
  5
3D
102
{ACAD_REACTORS
330
29
102
}
330
29
100
AcDbVisualStyle
  2
Shaded with edges
 70
    26
177
     3
291
     0
 70
    58
 90
        2
176
     1
 90
        2
176
     1
 90
        1
176
     1
 90
        2
176
     1
 40
0.6
176
     1
 40
30.0
176
     1
 62
     7
420
 16777215
176
     1
 90
        1
176
     1
 90
        2
176
     1
 62
     7
176
     1
 62
   257
176
     1
 90
        2
176
     1
 90
        1
176
     1
 40
1.0
176
     1
 90
        8
176
     1
 62
   257
176
     1
 40
1.0
176
     1
 90
        1
176
     1
 90
        6
176
     1
 90
        2
176
     1
 62
     7
176
     1
 90
        3
176
     1
 90
        0
176
     1
 90
        0
176
     1
290
     0
176
     1
 90
        5
176
     1
 40
0.0
176
     1
 90
        0
176
     1
290
     0
176
     1
290
     1
176
     1
290
     1
176
     1
290
     0
176
     1
290
     0
176
     1
290
     0
176
     1
290
     0
176
     1
290
     0
176
     1
290
     0
176
     1
 90
       50
176
     1
 40
0.0
176
     1
 40
1.0
176
     1
 90
        0
176
     1
 62
    18
420
        0
176
     1
 90
       50
176
     1
 90
        3
176
     1
 62
     5
420
      255
176
     1
290
     0
176
     1
 90
       50
176
     1
 90
       50
176
     1
 90
       50
176
     1
290
     0
176
     1
 90
       50
176
     1
 62
   256
176
     0
 40
1.0
176
     0
 90
        2
176
     1
  1
strokes_ogs.tif
176
     1
290
     0
176
     1
 40
1.0
176
     1
 40
1.0
176
     1
  0
VISUALSTYLE
  5
3A
102
{ACAD_REACTORS
330
29
102
}
330
29
100
AcDbVisualStyle
  2
Shades of Gray
 70
    23
177
     3
291
     0
 70
    58
 90
        2
176
     1
 90
        2
176
     1
 90
        3
176
     1
 90
        0
176
     1
 40
0.6
176
     1
 40
30.0
176
     1
 62
     7
420
 16777215
176
     1
 90
        2
176
     1
 90
        2
176
     1
 62
     7
176
     1
 62
     7
176
     1
 90
        1
176
     1
 90
        1
176
     1
 40
40.0
176
     1
 90
        8
176
     1
 62
     7
176
     1
 40
1.0
176
     1
 90
        1
176
     1
 90
        6
176
     1
 90
        2
176
     1
 62
     7
176
     1
 90
        3
176
     1
 90
        0
176
     1
 90
        0
176
     1
290
     0
176
     1
 90
        1
176
     1
 40
0.0
176
     1
 90
        0
176
     1
290
     0
176
     1
290
     1
176
     1
290
     1
176
     1
290
     0
176
     1
290
     0
176
     1
290
     0
176
     1
290
     0
176
     1
290
     0
176
     1
290
     0
176
     1
 90
       50
176
     1
 40
0.0
176
     1
 40
1.0
176
     1
 90
        0
176
     1
 62
    18
420
        0
176
     1
 90
       50
176
     1
 90
        3
176
     1
 62
     5
420
      255
176
     1
290
     0
176
     1
 90
       50
176
     1
 90
       50
176
     1
 90
       50
176
     1
290
     0
176
     1
 90
       50
176
     1
 62
   256
176
     0
 40
1.0
176
     0
 90
        2
176
     1
  1
strokes_ogs.tif
176
     1
290
     0
176
     1
 40
1.0
176
     1
 40
1.0
176
     1
  0
VISUALSTYLE
  5
3B
102
{ACAD_REACTORS
330
29
102
}
330
29
100
AcDbVisualStyle
  2
Sketchy
 70
    24
177
     3
291
     0
 70
    58
 90
        1
176
     1
 90
        2
176
     1
 90
        2
176
     1
 90
        0
176
     1
 40
0.6
176
     1
 40
30.0
176
     1
 62
     7
420
 16777215
176
     1
 90
        2
176
     1
 90
        2
176
     1
 62
     7
176
     1
 62
     7
176
     1
 90
        1
176
     1
 90
        1
176
     1
 40
40.0
176
     1
 90
       11
176
     1
 62
     7
176
     1
 40
1.0
176
     1
 90
        1
176
     1
 90
        6
176
     1
 90
        2
176
     1
 62
     7
176
     1
 90
        6
176
     1
 90
        0
176
     1
 90
        0
176
     1
290
     0
176
     1
 90
        1
176
     1
 40
0.0
176
     1
 90
        0
176
     1
290
     0
176
     1
290
     1
176
     1
290
     1
176
     1
290
     0
176
     1
290
     0
176
     1
290
     0
176
     1
290
     0
176
     1
290
     0
176
     1
290
     0
176
     1
 90
       50
176
     1
 40
0.0
176
     1
 40
1.0
176
     1
 90
        0
176
     1
 62
    18
420
        0
176
     1
 90
       50
176
     1
 90
        3
176
     1
 62
     5
420
      255
176
     1
290
     0
176
     1
 90
       50
176
     1
 90
       50
176
     1
 90
       50
176
     1
290
     0
176
     1
 90
       50
176
     1
 62
   256
176
     0
 40
1.0
176
     0
 90
        2
176
     1
  1
strokes_ogs.tif
176
     1
290
     0
176
     1
 40
1.0
176
     1
 40
1.0
176
     1
  0
VISUALSTYLE
  5
36
102
{ACAD_REACTORS
330
29
102
}
330
29
100
AcDbVisualStyle
  2
Thicken
 70
    13
177
     3
291
     1
 70
    58
 90
        2
176
     1
 90
        2
176
     1
 90
        0
176
     1
 90
        0
176
     1
 40
0.6
176
     1
 40
30.0
176
     1
 62
     7
420
 16777215
176
     1
 90
        1
176
     1
 90
        4
176
     1
 62
     7
176
     1
 62
   257
176
     1
 90
        1
176
     1
 90
        1
176
     1
 40
1.0
176
     1
 90
       12
176
     1
 62
     7
176
     1
 40
1.0
176
     1
 90
        1
176
     1
 90
        6
176
     1
 90
        2
176
     1
 62
     7
176
     1
 90
        5
176
     1
 90
        0
176
     1
 90
        0
176
     1
290
     0
176
     1
 90
        1
176
     1
 40
0.0
176
     1
 90
        0
176
     1
290
     0
176
     1
290
     1
176
     1
290
     1
176
     1
290
     0
176
     1
290
     0
176
     1
290
     0
176
     1
290
     0
176
     1
290
     0
176
     1
290
     0
176
     1
 90
       50
176
     1
 40
0.0
176
     1
 40
1.0
176
     1
 90
        0
176
     1
 62
    18
420
        0
176
     1
 90
       50
176
     1
 90
        3
176
     1
 62
     5
420
      255
176
     1
290
     0
176
     1
 90
       50
176
     1
 90
       50
176
     1
 90
       50
176
     1
290
     0
176
     1
 90
       50
176
     1
 62
   256
176
     0
 40
1.0
176
     0
 90
        2
176
     1
  1
strokes_ogs.tif
176
     1
290
     0
176
     1
 40
1.0
176
     1
 40
1.0
176
     1
  0
VISUALSTYLE
  5
30
102
{ACAD_REACTORS
330
29
102
}
330
29
100
AcDbVisualStyle
  2
Wireframe
 70
     5
177
     3
291
     0
 70
    58
 90
        0
176
     1
 90
        2
176
     1
 90
        0
176
     1
 90
        0
176
     1
 40
0.6
176
     1
 40
30.0
176
     1
 62
     7
420
 16777215
176
     1
 90
        1
176
     1
 90
        4
176
     1
 62
     7
176
     1
 62
   257
176
     1
 90
        1
176
     1
 90
        1
176
     1
 40
1.0
176
     1
 90
        0
176
     1
 62
   257
176
     1
 40
1.0
176
     1
 90
        1
176
     1
 90
        6
176
     1
 90
        2
176
     1
 62
     7
176
     1
 90
        3
176
     1
 90
        0
176
     1
 90
        0
176
     1
290
     0
176
     1
 90
        1
176
     1
 40
0.0
176
     1
 90
        0
176
     1
290
     0
176
     1
290
     1
176
     1
290
     1
176
     1
290
     0
176
     1
290
     0
176
     1
290
     0
176
     1
290
     0
176
     1
290
     0
176
     1
290
     0
176
     1
 90
       50
176
     1
 40
0.0
176
     1
 40
1.0
176
     1
 90
        0
176
     1
 62
    18
420
        0
176
     1
 90
       50
176
     1
 90
        3
176
     1
 62
     5
420
      255
176
     1
290
     0
176
     1
 90
       50
176
     1
 90
       50
176
     1
 90
       50
176
     1
290
     0
176
     1
 90
       50
176
     1
 62
   256
176
     0
 40
1.0
176
     0
 90
        2
176
     1
  1
strokes_ogs.tif
176
     1
290
     0
176
     1
 40
1.0
176
     1
 40
1.0
176
     1
  0
VISUALSTYLE
  5
3C
102
{ACAD_REACTORS
330
29
102
}
330
29
100
AcDbVisualStyle
  2
X-Ray
 70
    25
177
     3
291
     0
 70
    58
 90
        2
176
     1
 90
        2
176
     1
 90
        1
176
     1
 90
        1
176
     1
 40
0.5
176
     1
 40
30.0
176
     1
 62
     7
420
 16777215
176
     1
 90
        1
176
     1
 90
        0
176
     1
 62
     7
176
     1
 62
   257
176
     1
 90
        1
176
     1
 90
        1
176
     1
 40
1.0
176
     1
 90
        8
176
     1
 62
     7
176
     1
 40
1.0
176
     1
 90
        1
176
     1
 90
        6
176
     1
 90
        2
176
     1
 62
     7
176
     1
 90
        3
176
     1
 90
        0
176
     1
 90
        0
176
     1
290
     0
176
     1
 90
       13
176
     1
 40
0.0
176
     1
 90
        0
176
     1
290
     0
176
     1
290
     1
176
     1
290
     1
176
     1
290
     0
176
     1
290
     0
176
     1
290
     0
176
     1
290
     0
176
     1
290
     0
176
     1
290
     0
176
     1
 90
       50
176
     1
 40
0.0
176
     1
 40
1.0
176
     1
 90
        0
176
     1
 62
    18
420
        0
176
     1
 90
       50
176
     1
 90
        3
176
     1
 62
     5
420
      255
176
     1
290
     0
176
     1
 90
       50
176
     1
 90
       50
176
     1
 90
       50
176
     1
290
     0
176
     1
 90
       50
176
     1
 62
   256
176
     0
 40
1.0
176
     0
 90
        2
176
     1
  1
strokes_ogs.tif
176
     1
290
     0
176
     1
 40
1.0
176
     1
 40
1.0
176
     1
  0
DICTIONARYVAR
  5
97
102
{ACAD_REACTORS
330
92
102
}
330
92
100
DictionaryVariables
280
     0
  1
1:1
  0
DICTIONARYVAR
  5
94
102
{ACAD_REACTORS
330
92
102
}
330
92
100
DictionaryVariables
280
     0
  1
STANDARD
  0
DICTIONARYVAR
  5
93
102
{ACAD_REACTORS
330
92
102
}
330
92
100
DictionaryVariables
280
     0
  1
STANDARD
  0
DICTIONARYVAR
  5
95
102
{ACAD_REACTORS
330
92
102
}
330
92
100
DictionaryVariables
280
     0
  1
Imperial24
  0
DICTIONARYVAR
  5
96
102
{ACAD_REACTORS
330
92
102
}
330
92
100
DictionaryVariables
280
     0
  1
Imperial24
  0
DICTIONARY
  5
1A
330
19
100
AcDbDictionary
280
     1
281
     1
  3
BUMPTILE
360
1C
  3
DIFFUSETILE
360
1B
  3
OPACITYTILE
360
1F
  3
REFLECTIONTILE
360
1E
  3
REFRACTIONTILE
360
20
  3
SPECULARTILE
360
1D
  0
DICTIONARY
  5
12
330
11
100
AcDbDictionary
280
     1
281
     1
  3
BUMPTILE
360
14
  3
DIFFUSETILE
360
13
  3
OPACITYTILE
360
17
  3
REFLECTIONTILE
360
16
  3
REFRACTIONTILE
360
18
  3
SPECULARTILE
360
15
  0
DICTIONARY
  5
22
330
21
100
AcDbDictionary
280
     1
281
     1
  3
BUMPTILE
360
24
  3
DIFFUSETILE
360
23
  3
OPACITYTILE
360
27
  3
REFLECTIONTILE
360
26
  3
REFRACTIONTILE
360
28
  3
SPECULARTILE
360
25
  0
DICTIONARY
  5
98
330
65
100
AcDbDictionary
280
     1
281
     1
  3
ACAD_ROUNDTRIP_2008_TABLESTYLE_CELLSTYLEMAP
360
99
  0
XRECORD
  5
1C
102
{ACAD_REACTORS
330
1A
102
}
330
1A
100
AcDbXrecord
280
     1
270
     1
271
     1
  0
XRECORD
  5
1B
102
{ACAD_REACTORS
330
1A
102
}
330
1A
100
AcDbXrecord
280
     1
270
     1
271
     1
  0
XRECORD
  5
1F
102
{ACAD_REACTORS
330
1A
102
}
330
1A
100
AcDbXrecord
280
     1
270
     1
271
     1
  0
XRECORD
  5
1E
102
{ACAD_REACTORS
330
1A
102
}
330
1A
100
AcDbXrecord
280
     1
270
     1
271
     1
  0
XRECORD
  5
20
102
{ACAD_REACTORS
330
1A
102
}
330
1A
100
AcDbXrecord
280
     1
270
     1
271
     1
  0
XRECORD
  5
1D
102
{ACAD_REACTORS
330
1A
102
}
330
1A
100
AcDbXrecord
280
     1
270
     1
271
     1
  0
XRECORD
  5
14
102
{ACAD_REACTORS
330
12
102
}
330
12
100
AcDbXrecord
280
     1
270
     1
271
     1
  0
XRECORD
  5
13
102
{ACAD_REACTORS
330
12
102
}
330
12
100
AcDbXrecord
280
     1
270
     1
271
     1
  0
XRECORD
  5
17
102
{ACAD_REACTORS
330
12
102
}
330
12
100
AcDbXrecord
280
     1
270
     1
271
     1
  0
XRECORD
  5
16
102
{ACAD_REACTORS
330
12
102
}
330
12
100
AcDbXrecord
280
     1
270
     1
271
     1
  0
XRECORD
  5
18
102
{ACAD_REACTORS
330
12
102
}
330
12
100
AcDbXrecord
280
     1
270
     1
271
     1
  0
XRECORD
  5
15
102
{ACAD_REACTORS
330
12
102
}
330
12
100
AcDbXrecord
280
     1
270
     1
271
     1
  0
XRECORD
  5
24
102
{ACAD_REACTORS
330
22
102
}
330
22
100
AcDbXrecord
280
     1
270
     1
271
     1
  0
XRECORD
  5
23
102
{ACAD_REACTORS
330
22
102
}
330
22
100
AcDbXrecord
280
     1
270
     1
271
     1
  0
XRECORD
  5
27
102
{ACAD_REACTORS
330
22
102
}
330
22
100
AcDbXrecord
280
     1
270
     1
271
     1
  0
XRECORD
  5
26
102
{ACAD_REACTORS
330
22
102
}
330
22
100
AcDbXrecord
280
     1
270
     1
271
     1
  0
XRECORD
  5
28
102
{ACAD_REACTORS
330
22
102
}
330
22
100
AcDbXrecord
280
     1
270
     1
271
     1
  0
XRECORD
  5
25
102
{ACAD_REACTORS
330
22
102
}
330
22
100
AcDbXrecord
280
     1
270
     1
271
     1
  0
CELLSTYLEMAP
  5
99
102
{ACAD_REACTORS
330
98
102
}
330
98
100
AcDbCellStyleMap
 90
        3
300
CELLSTYLE
  1
TABLEFORMAT_BEGIN
 90
        5
170
     1
 91
        0
 92
    32768
 62
   257
 93
        1
300
CONTENTFORMAT
  1
CONTENTFORMAT_BEGIN
 90
        0
 91
        0
 92
      512
 93
        0
300

 40
0.0
140
1.0
 94
        5
 62
     0
340
55
144
0.25
309
CONTENTFORMAT_END
171
     0
 94
        0
309
TABLEFORMAT_END
  1
CELLSTYLE_BEGIN
 90
        1
 91
        1
300
_TITLE
309
CELLSTYLE_END
300
CELLSTYLE
  1
TABLEFORMAT_BEGIN
 90
        5
170
     1
 91
        0
 92
        0
 62
   257
 93
        1
300
CONTENTFORMAT
  1
CONTENTFORMAT_BEGIN
 90
        0
 91
        0
 92
      512
 93
        0
300

 40
0.0
140
1.0
 94
        5
 62
     0
340
55
144
0.18
309
CONTENTFORMAT_END
171
     0
 94
        0
309
TABLEFORMAT_END
  1
CELLSTYLE_BEGIN
 90
        2
 91
        1
300
_HEADER
309
CELLSTYLE_END
300
CELLSTYLE
  1
TABLEFORMAT_BEGIN
 90
        5
170
     1
 91
        0
 92
        0
 62
   257
 93
        1
300
CONTENTFORMAT
  1
CONTENTFORMAT_BEGIN
 90
        0
 91
        0
 92
      512
 93
        0
300

 40
0.0
140
1.0
 94
        2
 62
     0
340
55
144
0.18
309
CONTENTFORMAT_END
171
     0
 94
        0
309
TABLEFORMAT_END
  1
CELLSTYLE_BEGIN
 90
        3
 91
        2
300
_DATA
309
CELLSTYLE_END
  0
ENDSEC
  0
EOF
