<?xml version="1.0" encoding="UTF-8"?>
<svg id="Layer_1" data-name="Layer 1" xmlns="http://www.w3.org/2000/svg" viewBox="0 0 500 500">
  <defs>
    <style>
      .cls-1 {
        fill: #e99f23;
      }

      .cls-2 {
        fill: #fff;
      }

      .cls-3 {
        fill: #831618;
      }

      .cls-4 {
        fill: #064e29;
      }

      .cls-5 {
        fill: #1b2251;
      }

      .cls-6 {
        fill: #a42e22;
      }
    </style>
  </defs>
  <g>
    <g>
      <path d="M397.82,285.96c0-77.26,.02-154.52,0-231.78,0-10.23-3.92-18.78-11.41-25.72-7.13-6.62-15.7-9.27-25.28-9.25-19.92,.03-39.84,.03-59.76,.03-58.61,0-117.22-.02-175.83-.03-11.25,0-20.56,4.3-27.93,12.8-6.22,7.16-8.29,15.61-8.28,24.93,.08,59.07,.04,118.14,.04,177.2,0,49.28-.01,98.56,0,147.85,0,11.62-.06,23.25,.17,34.87,.17,8.15,3.5,15.14,8.97,21.14,8.01,8.79,18.14,11.81,29.79,11.79,72.42-.12,144.85-.03,217.27-.1,7.93-.01,15.93,.83,23.79-.63,16.91-3.15,28.43-17.49,28.44-35.31,.03-42.6-.01-85.2-.01-127.81Zm-2.41-51.45h-.05c0,58.95,0,117.9,0,176.85,0,4.97-.29,9.89-2.05,14.62-4.77,12.86-17.1,21.24-31.42,21.24-76.68,0-153.37-.02-230.04-.03-2.54,0-5.07,.06-7.6-.03-18.05-.64-31.62-14.17-32.34-32.2-.03-.92-.02-1.84-.02-2.76,0-118.48,.02-236.95-.03-355.43,0-9.66,2.6-18.14,9.55-25.07,6.91-6.88,15.25-9.94,24.95-9.93,56.53,.06,113.07,.03,169.6,.03,22.11,0,44.22-.09,66.32,.03,16.42,.09,29.42,10.83,32.51,26.54,.83,4.21,.62,8.48,.62,12.74,0,57.8,0,115.6,0,173.4Z"/>
      <path class="cls-2" d="M395.41,234.51h-.05c0,58.95,0,117.9,0,176.85,0,4.97-.29,9.89-2.05,14.62-4.77,12.86-17.1,21.24-31.42,21.24-76.68,0-153.37-.02-230.04-.03-2.54,0-5.07,.06-7.6-.03-18.05-.64-31.62-14.17-32.34-32.2-.03-.92-.02-1.84-.02-2.76,0-118.48,.02-236.95-.03-355.43,0-9.66,2.6-18.14,9.55-25.07,6.91-6.88,15.25-9.94,24.95-9.93,56.53,.06,113.07,.03,169.6,.03,22.11,0,44.22-.09,66.32,.03,16.42,.09,29.42,10.83,32.51,26.54,.83,4.21,.62,8.48,.62,12.74,0,57.8,0,115.6,0,173.4Z"/>
    </g>
    <path class="cls-6" d="M122.85,90.2V43.78c-1.85,1.15-3.45,2.14-5.36,3.32,0-2.28-.03-4.25,.03-6.21,0-.29,.42-.63,.73-.83,2.03-1.3,3.96-2.83,6.18-3.76,1.58-.66,3.57-.51,5.48-.73v54.63h-7.07Z"/>
  </g>
  <g>
    <path class="cls-5" d="M201.86,342.68c4.87,1.91,9.42,.42,13.92-.75,31.98-8.31,64.4-14.77,96.55-22.35,12.71-3,25.03-7.91,38.41-7.14,3.33,.19,8.16-2.57,8.83,3.53,.6,5.47-4.22,5.73-7.66,6.21-35.07,4.9-68.5,17.14-103.37,22.96-7.97,1.33-15.77,3.7-23.65,5.58-1.42,.34-3.16,.49-3.53,2.12-.4,1.77,1.53,2.15,2.51,3.13,12.73,12.8,28.18,11,44.23,9.42,22.07-2.18,43.26-7.95,64.65-13.13,3.7-.9,8.58-1.74,10.16,2.96,1.53,4.55-1.71,7.78-5.78,9.83-4.49,2.27-9.24,3.98-14.21,4.4-17.22,1.47-34.11,5.28-51.28,6.98-7.23,.72-14.52,.85-21.79,1.06-8.9,.26-16.66-2.76-23.55-8.36-8.36-6.79-16.4-14.1-27.82-15.69-3.46-.48-6.34-2.94-8.85-5.54-7.59-7.88-6.85-13.3,3.22-16.76,6.49-2.23,8.81-5.87,9.47-12.49,1.01-10.1,4.66-19.38,12.81-26.23,5.96-5.01,13.56-5.79,20.3-2.08,13.03,7.18,19.33,19.66,25.1,32.4,1.63,3.61-.22,6.41-4.43,7.19-10.62,1.97-21.22,4.02-31.83,6.03-7.67,1.45-15.26,3.15-22.41,6.71Zm44.83-23.38c.23-4.57-1.9-9.02-7.09-14.92-8.42-9.59-15.94-9.28-22.75,1.49-3.69,5.84-6.6,12.24-4.63,19.59,2.01-6.88,3.29-13.92,7.07-20.16,3.72-6.15,9.39-7.45,15.16-3.15,4.26,3.17,7.11,7.43,9.01,12.4,.67,1.75,.54,4.23,3.23,4.75Zm-24.21,1.35c.15,2.45,.3,5.33,3.97,4.55,3.36-.71,8.06,.58,9.32-4.16,.77-2.91-4.26-8.82-6.83-8.48-4.5,.6-5.99,3.9-6.46,8.08Z"/>
    <path class="cls-5" d="M307.95,266.53c14.26-.87,25.07,4.3,33.43,14.71,5.37,6.68,9.37,14.17,12.05,22.34,.79,2.41,.75,4.43-1.4,6.12-2.08,1.63-3.86,1.01-5.52-.6-1.71-1.65-3.51-1.75-5.7-.93-18.17,6.79-37.36,9.61-56.1,14.18-4.62,1.13-9.12,2.99-13.8,3.64-6.56,.91-8.93-2.49-6.18-8.5,1.1-2.4,.99-4.18-.3-6.35-3.95-6.64-8.41-12.85-14.21-18.03-1.9-1.7-3.75-3.1-6.65-2.4-3.14,.76-5.32-.96-6.14-3.87-.92-3.28,1.79-4.38,4.1-5.24,12.47-4.63,25.05-9.01,38.24-11.04,9.62-1.48,19.08-4.21,28.17-4.03Zm-6.88,37.26c-3.55-8.27-7.6-17.1-16.43-22.54-1.03-.63-2.32-1.16-3.5-1.17-2.78-.03-4.85,1.37-3.18,4.24,4.68,8.07,9.67,15.97,14.68,23.85,1.07,1.68,3.04,2.28,4.98,1.31,1.91-.96,3.43-2.37,3.45-5.68Zm-18,4.27c-.47-1.07-1.21-2.99-2.12-4.83-3.37-6.79-8.19-12.4-14.32-16.82-1.91-1.38-4.25-2.02-6.25-.08-1.32,1.28-.6,2.79,.44,3.86,6.12,6.27,10.88,13.47,14.84,21.26,.95,1.87,2.64,2.51,4.73,1.8,2.06-.7,2.95-2.13,2.67-5.19Zm34.94-6.47c-.76-3.29-2.6-6.08-4.26-8.95-3.03-5.23-6.62-10.05-11.07-14.15-1.43-1.32-3.31-1.94-5.12-.67-1.08,.75-.61,1.87,.06,2.7,5.65,7.02,9.71,14.92,13.08,23.22,.81,2,2.6,1.75,4.26,1.18,1.59-.54,3.21-1.14,3.06-3.33Zm19.6-4.88c.62-5.01-12.43-18.22-17.45-17.91-2.05,.13-2.7,.92-1.61,2.72,3.32,5.49,6.67,10.96,10.05,16.41,1.3,2.1,3.25,2.37,5.44,1.64,1.59-.53,3.14-1.11,3.57-2.86Z"/>
    <path class="cls-5" d="M249.28,200.88c.03-2.14-.6-3.98-2.56-6.16h-7.14c-.3,1.65-.72,3.31-1.31,4.96-.33,.92-.07,2.06-.07,3.1,0,5.82-.07,11.64,.02,17.46,.28,16.83,.64,33.66,.92,50.49,.05,3.38,.48,6.53,4.68,6.7,4.01,.16,6.01-2.34,6.44-6.15,.16-1.44,.15-2.91,.24-4.36,1.32-22.05-1.48-44.02-1.22-66.04Z"/>
    <path class="cls-3" d="M309.26,183.4c-6.11-3.52-12.74-6.15-18.8-9.74-13.94-8.25-27.61-16.98-41.52-25.28-6.95-4.14-10.57-1.85-10.57,6.23,0,1.25,.23,2.51,.09,3.74-1.43,11.7,2.98,23.43,1.31,35.13,46.18-1.89,63.38-1.79,67.25-.9,.2,.05,5.1,1.07,7.14-.72,.47-.41,.84-.98,1.08-1.78,1.33-4.38-3.41-5.2-5.99-6.68Zm-27.75,2.19c-8.93,.26-17.87,.21-26.8,.56-4.28,.16-6.11-1.54-6.09-5.74,.01-5.12-2.68-12.01,1.04-14.84,3.83-2.91,8.88,2.6,13.14,4.79,8.01,4.13,15.72,8.87,23.6,13.38-1.53,2.45-3.4,1.81-4.89,1.85Z"/>
    <path class="cls-5" d="M292.84,126.39c0-7.27-.09-14.54,.03-21.81,.08-4.61-1.1-7.32-6.49-5.77-2.57,.74-5.25,1.32-7.92,1.49-3.92,.26-6.62-2.38-7.14-5.66-.59-3.73,3.24-2.78,5.45-3.13,9.01-1.43,18.04-2.75,27.07-4.12,.61-.09,1.21-.41,1.82-.43,3.03-.1,7.59-1.17,8.21,2.15,.8,4.24-4.01,4.51-7.13,4.9-3.46,.43-5.56,1.57-5.1,5.39,.43,3.51-1.98,8.41,4.42,9.08,1,.1,2.2,.41,2.9,1.06,8.38,7.85,18.29,4.58,27.8,3.85,6.21-.48,12.34-.8,18.62-.15,4.33,.45,8.84-2.64,12.99,1.69,1.96,2.04,3.12,3.76,2.44,6.46-1.92,7.69-4.45,15.2-8.15,22.19-3.21,6.07-5.82,6.51-11.66,3.46-3.71-1.94-7.79-.9-11.64-.4-5.14,.66-10.37,1.35-15.29,2.9-4.57,1.44-5.47-.76-6.05-4.26-1.06-6.35-2.69-12.66-3.11-19.05-.46-6.97-6.51-7.46-10.53-10.06-2.15-1.39-2.2,1.52-2.27,3.06-.32,7.68-.59,15.37-.88,23.05-.06,1.66,.1,3.39-.32,4.96-.94,3.54-3.26,7.79-6.35,7.59-3.61-.23-2.28-4.98-2.34-7.88-.14-6.86-.05-13.72-.05-20.58,.22,0,.44,0,.65,0Zm62.51,2.1c2.85-2.78,4.1-6.87,2.35-9.72-1.55-2.52-5.66-.99-8.63-.08-.59,.18-1.19,.34-1.79,.45-2.84,.49-2.75,2.69-2.66,4.75,.13,2.94,2.29,2.33,4.08,2.08,2.79-.39,5.4-.48,6.81,2.67-1.8,2.6-4.61,2.14-7.22,2.53-5.06,.76-3.88,5.46-4.11,8.35-.22,2.82,3.25,2.37,5.41,2.18,5.05-.44,6.68-4.27,5.77-13.21Zm-25.35,14.31c1.68-.44,4.92,.38,4.21-2.74-.53-2.33,1.19-6.76-3.4-6.7-2.95,.04-6.54,.77-6.55,5.04,0,3.61,2.76,4.16,5.74,4.41Zm-3.83-14.18c2.71-1.11,7.54,.11,8.24-5.02,.27-1.97-1.95-2.18-3.2-1.69-2.92,1.13-7.56-.92-8.44,4.06-.31,1.74,.51,3.33,3.4,2.64Z"/>
    <path class="cls-3" d="M227.34,254.15c-5.24,.23-8.9-1.67-12.3-4.2-5-3.72-10.15-7.27-14.84-11.36-3.29-2.87-6.02-2.47-8.69,.21-3.22,3.23-5.98,6.91-9.24,10.11-5.45,5.35-11.58,9.51-19.72,9.35-1.75-.03-3.52-.32-4.37-1.89-1.08-2,.99-2.87,2.04-4.01,12.51-13.57,12.39-13.42-1.7-25.02-4.36-3.59-6.96-3.72-10.47,1.08-3.78,5.17-8.46,9.72-12.94,14.35-4.1,4.24-9.25,6.15-15.2,6.02-4.25-.1-4.47-2.1-2.74-5.2,.4-.72,.91-1.41,1.47-2.01,10.21-10.94,19.48-22.73,30.2-33.23,3-2.94,5.03-2.5,7.91-.21,7.01,5.56,14.09,11.05,20.33,17.47,3.04,3.12,5.16,2.56,7.46-.48,.38-.5,.77-.98,1.15-1.48,8.79-11.39,8.96-11.58,19.34-1.91,8.52,7.93,16.59,16.33,24.79,24.6,1.67,1.68,4.69,3.23,3.48,5.97-1.16,2.63-4.53,1.16-5.99,1.85Z"/>
    <path class="cls-4" d="M317.57,418.73c-2.54-.14-4.92,.38-6.63-.47-8.63-4.29-16.47-.84-24.49,1.87-8.56,2.89-17,4.29-24.56-2.76-1.75-1.63-4.27-1.49-6.57-.96-2.02,.47-4.18,.77-5.98,1.71-11.48,6.08-22.79,6.52-34.45,.2-3.89-2.11-8.46-1.46-12.72,.27-4.88,1.99-10.05,2.57-15.29,2.24-2.13-.13-4.19-.61-4.54-3.31-.34-2.58,1.29-3.9,3.31-4.64,7.62-2.79,15.34-5.2,23.53-5.58,4.37-.2,8.18,1.33,11.43,4.16,4.36,3.82,9.14,4.48,14.48,2.39,5.03-1.96,10.14-3.7,15.18-5.62,5.34-2.04,10.24-2.16,15.34,1.3,6.68,4.54,14.1,4.67,21.36,1.21,8.01-3.82,15.81-6.91,24.98-3.29,4.83,1.91,10.31,.18,15.47,.52,2.98,.2,6.89,.13,6.83,4.57-.05,3.96-3.32,4.8-6.62,5.13-3.51,.35-7.02,.73-10.08,1.05Z"/>
    <path class="cls-5" d="M216.25,196.18c-.06,1.01-1.4,2.79-3.55,3.92-2.68,1.4-5.17,.95-7.55-.9-6.57-5.11-12.76-10.61-18.65-16.5-9.99-9.99-10.05-9.88-19.08,.45-4.24,4.85-8.63,9.56-12.9,14.39-2.33,2.64-5.29,4.18-8.67,4.44-3.49,.28-7.88,.7-9.66-2.69-1.56-2.99,2.55-4.67,4.25-6.81,8.26-10.42,16.51-20.86,25.03-31.07,5.51-6.61,6.35-6.67,13.22-1.37,12.18,9.39,24.08,19.12,35.15,29.84,1.4,1.35,2.57,2.72,2.4,6.3Z"/>
    <path class="cls-4" d="M306.37,219.57c-10.68-4.83-19.15-.11-27.51,5.43-1.48,.98-3.44,1.44-5.24,1.69-1.92,.27-3.79-.36-4.7-2.31-.92-1.96-.28-3.81,1.28-5.04,7.05-5.53,14.58-10.29,23.28-12.81,1.33-.39,3.16-.54,4.28,.07,7.51,4.14,14.18,1.68,21.15-1.73,3.81-1.86,8.31-3.04,12.53-.36,3.67,2.34,4.1,7.63,.47,8.37-8.64,1.77-17.31,3.32-25.54,6.67Z"/>
    <path class="cls-4" d="M317.53,264.63c-7.68-4.27-17.23-2.37-26.83,1.66-2.33,.98-6,1.05-7.18-1.92-1.47-3.71,2.24-5.08,4.68-6.21,7.4-3.45,14.95-6.42,23.38-3.46,3.73,1.31,7.31,.29,10.92-1.03,6.25-2.29,12.6-4.49,19.4-2.41,2.62,.8,5.54,1.83,5.23,5.23-.32,3.51-3.36,3.97-6.13,3.82-7.5-.41-13.72,4.97-23.47,4.32Z"/>
    <path class="cls-5" d="M322.33,89.38c.31-2.71,.88-3.79,4.33-3,7.57,1.73,15.14-.29,22.38-2.33,3.08-.87,5.56-1.96,7.76,.74,2.17,2.66,5.21,5.63,2.79,9.35-3.72,5.73-6.86,12.17-15.69,11.91-4.75-.14-9.74,.16-14.03,3.76-3.11,2.61-4.3-1.02-4.72-3.29-1.06-5.68-.61-11.61-2.82-17.14Zm13.02,10.74c3.87-.37,6.97-.46,9.99-1.01,4.26-.78,3.93-4.49,3.62-7.35-.39-3.59-3.06-1.44-4.77-1.08-3.21,.68-6.38,1.53-9.56,2.35-2.38,.61-4.28,1.72-3.81,4.64,.55,3.4,3.24,2.33,4.53,2.44Z"/>
    <path class="cls-4" d="M309.83,240.18c-6.52-3.19-12.46-1.28-18.49,1.51-2.38,1.1-5.62,1.21-7.37-1.4-1.47-2.19,.34-4.39,1.48-6.29,3.96-6.59,8.88-8.79,16.37-5.72,5.67,2.32,9.89,1.19,14.33-2.12,1.81-1.35,3.76-2.72,5.86-3.44,4.11-1.41,7.5-.03,9.14,4.07,1.76,4.42-.96,6.45-4.76,7.71-5.48,1.82-10.93,3.74-16.56,5.67Z"/>
    <path class="cls-4" d="M261.32,395.72c-4.22,.17-8.23,1.06-12.18,2.49-2.3,.83-5.38,1.89-6.86-.59-1.87-3.13,1.42-4.85,3.4-6.38,6.81-5.24,14.3-6.81,22.02-2.28,7.77,4.56,15.13,4.73,22.8-.14,7.96-5.06,16.07-1.73,24.04,.27,1.33,.33,2.57,1.57,2.29,3.3-.28,1.75-1.82,2.07-3.24,2.42-2.56,.63-4.91-.21-7.27-1.06-4.46-1.61-9.02-2.07-13.28,.29-8.02,4.44-16.11,6.26-24.97,2.45-1.99-.86-4.49-.56-6.75-.79Z"/>
    <path class="cls-4" d="M164.65,326.94c-.98-.12-2.4,.08-3.41-.47-7.84-4.25-14.72-.93-21.66,2.48-3.54,1.74-7.18,3.39-11.3,2.26-1.62-.44-3.27-1.2-3.55-3.06-.27-1.78,.64-3.28,2.25-4.08,6.85-3.42,13.73-9.09,20.98-8.65,8.68,.52,17.08,1.57,25.67-.51,1.72-.42,3.58,1.02,4.27,3,.82,2.32-.41,4.01-2.04,5.42-3.14,2.72-6.92,3.58-11.22,3.61Z"/>
    <path class="cls-4" d="M160.13,404.57c-8.75-6.41-18.46-2.02-28.27,1.13-1.61,.52-3.31,.33-4.4-1.35-1.3-2-.3-3.63,1-5.01,6.38-6.74,14.21-9.38,23.12-6.66,5.61,1.71,10.76,2.1,16.27-.17,2.56-1.05,6.02-2.02,7.78,1.29,1.89,3.57-1.62,5.07-3.68,6.88-2.92,2.57-6.56,3.33-11.82,3.88Z"/>
    <path class="cls-4" d="M129.72,288.72c-2.37-.07-4.83-.32-5.57-3-.69-2.49,1.41-3.84,3.13-4.85,7.33-4.3,14.49-9.32,23.67-4.29,3.03,1.66,6.41,.63,9.67-.52,4.16-1.46,8.57-2.47,12.35,1,2.81,2.59,3.12,5.39-1.27,6.18-7.44,1.34-14.85,4.25-22.6,.73-3.35-1.52-6.9-.62-10.1,1.42-2.82,1.79-5.83,3.21-9.28,3.33Z"/>
    <path class="cls-4" d="M332.36,238.35c2.78,.62,6.71-.34,10.43-2.49,2.78-1.6,5.33-1.16,7.02,1.53,1.94,3.09-.19,4.92-2.51,6.62-2.39,1.76-5.01,3.23-7.94,3.24-6.46,.02-12.78,.76-19.08,2.12-2.2,.47-4.78,.59-6-1.98-1.31-2.76,1.21-4.24,2.68-5.68,3.86-3.77,8.75-4.35,15.4-3.36Z"/>
    <path class="cls-4" d="M193.66,382.41c-1.43-.37-3.09-.36-4.15-1.15-3.82-2.86-7.65-2.2-11.76-.84-3.39,1.12-6.94,1.09-10.41,.13-1.42-.39-2.71-1.17-2.76-2.93-.04-1.39,.77-2.35,1.95-2.92,6.56-3.21,13.15-6.3,20.7-3.25,3.1,1.25,6.19,2.23,9.63,1.21,2.57-.76,5.67-1.76,6.67,1.98,.93,3.47-1.61,5.35-4.43,6.49-1.69,.68-3.58,.86-5.44,1.27Z"/>
    <path class="cls-4" d="M155.41,368.42c-.64-.13-1.65-.03-2.23-.49-5.79-4.56-12.02-4.45-18.65-2.24-2.09,.7-4.36,.09-5.07-2.34-.66-2.28,1.37-3.39,2.96-4.18,5.22-2.62,10.46-5.24,16.32-1.24,2.97,2.03,5.92,.36,8.87-.72,3.41-1.25,7.99-3.76,9.96,.51,1.7,3.69-2.64,6.43-5.55,8.65-1.82,1.39-4.07,2.02-6.61,2.05Z"/>
    <path class="cls-4" d="M285.1,253.72c-4.67-.61-8.98,1.04-13.4,2.09-2.98,.71-6.04,.88-7.28-2.67-1.17-3.38,1.61-4.8,3.93-6.13,3.13-1.8,6.59-2.34,10.18-2.22,4.16,.14,8.3-.06,12.29-1.34,2.5-.8,5.31-1.57,6.62,1.14,1.43,2.96-.47,5.68-2.8,7.53-2.77,2.2-6.18,2.08-9.52,1.6Z"/>
    <path class="cls-5" d="M322.51,350.18c-3.96-.6-8.62-.54-9.04-5.71-.39-4.69,2.88-6.9,7.39-7.39,2.46-.27,4.88-.98,7.34-1.12,3.18-.18,7.44-2.62,8.71,2.62,1.42,5.85-1.02,9.06-7.15,10.3-2.42,.49-4.87,.87-7.25,1.29Z"/>
    <path class="cls-4" d="M157.94,347.56c-4.96-.57-10.92-1.19-16.83,.75-1.89,.62-3.95,.28-4.79-1.75-.95-2.31,.41-3.84,2.41-5.04,3.16-1.9,6.51-2.61,10.13-2.06,5.82,.89,11.51,1.17,16.93-1.9,1.9-1.08,4.11-1.21,5.42,1.11,1.24,2.19,.13,4.03-1.37,5.57-2.99,3.08-6.82,3.65-11.91,3.32Z"/>
    <path class="cls-5" d="M348.08,67.99c3.02,.06,5.1,.13,6.92,1.31,1.52,.99,2.36,2.28,1.78,4.18-.49,1.64-1.7,2.32-3.27,2.28-5.69-.15-11.02,1.44-16.28,3.3-5.5,1.95-9.32-1.25-12.53-4.64-2.85-3.01,.04-4.41,2.75-4.66,7.18-.67,14.43-.53,20.63-1.76Z"/>
    <path class="cls-5" d="M259.05,346.82c4.41-.57,8.62,.16,7.7,7.31-.64,5-4.16,6.55-14.11,6.13-5.31-.23-5.2-4.01-5-7.49,.32-5.55,2.48-6.66,11.41-5.95Z"/>
    <path class="cls-5" d="M281.6,356.34c-3.12,.17-4.77-1.49-5.75-4.07-1.07-2.81,.13-4.96,2.46-6.36,3.41-2.05,7.3-2.91,11.11-3.95,4.25-1.17,4.95,2.02,5.95,4.65,1.06,2.78,.87,5.65-2.35,6.77-3.7,1.29-7.61,2-11.42,2.96Z"/>
    <path class="cls-5" d="M303.83,70.46c2.62-.46,4.93,.27,6.87,2.07,1.52,1.42,1.41,2.79-.13,4.22-4.01,3.72-19.52,4.03-23.35,.36-1.15-1.1-2.88-2.12-2.11-4.1,.67-1.71,2.44-1.23,3.83-1.35,4.96-.43,9.93-.81,14.89-1.2Z"/>
    <path class="cls-5" d="M278.21,137.08c.87-10.18,4.76-18.9,4.91-28.25,.03-1.8,1.6-1.57,2.8-.99,1.76,.86,2.9,2.27,3.45,4.18,1.88,6.49-3.91,20.34-11.16,25.06Z"/>
    <path class="cls-1" d="M254.63,133.91c-5.77,2.08-13.34,5.51-21.22,11.24-5.85,4.25-10.37,8.68-13.73,12.48-3.99-2.87-8.56-5.85-13.73-8.74-6.71-3.75-13.06-6.58-18.73-8.74,3.37-1.04,9.69-2.49,17.48-1.25,6.23,.99,10.92,3.31,13.73,4.99,2.75-2.49,7.73-6.36,14.98-8.74,9.34-3.07,17.39-2.01,21.22-1.25Z"/>
    <path class="cls-1" d="M254.63,113.94c-5.77,2.08-13.34,5.51-21.22,11.24-5.85,4.25-10.37,8.68-13.73,12.48-3.99-2.87-8.56-5.85-13.73-8.74-6.71-3.75-13.06-6.58-18.73-8.74,3.37-1.04,9.69-2.49,17.48-1.25,6.23,.99,10.92,3.31,13.73,4.99,2.75-2.49,7.73-6.36,14.98-8.74,9.34-3.07,17.39-2.01,21.22-1.25Z"/>
    <path class="cls-1" d="M254.63,91.46c-5.77,2.08-13.34,5.51-21.22,11.24-5.85,4.25-10.37,8.68-13.73,12.48-3.99-2.87-8.56-5.85-13.73-8.74-6.71-3.75-13.06-6.58-18.73-8.74,3.37-1.04,9.69-2.49,17.48-1.25,6.23,.99,10.92,3.31,13.73,4.99,2.75-2.49,7.73-6.36,14.98-8.74,9.34-3.07,17.39-2.01,21.22-1.25Z"/>
  </g>
</svg>