<?xml version="1.0" encoding="UTF-8"?>
<svg id="Layer_1" data-name="Layer 1" xmlns="http://www.w3.org/2000/svg" viewBox="0 0 500 500">
  <defs>
    <style>
      .cls-1 {
        fill: #fff;
      }

      .cls-2 {
        fill: #831618;
      }

      .cls-3 {
        fill: #a42e22;
      }
    </style>
  </defs>
  <g>
    <g>
      <path d="M396.74,293.32c0-77.26,.02-154.52,0-231.78,0-10.23-3.92-18.78-11.41-25.72-7.13-6.62-15.7-9.27-25.28-9.25-19.92,.03-39.84,.03-59.76,.03-58.61,0-117.22-.02-175.83-.03-11.25,0-20.56,4.3-27.93,12.8-6.22,7.16-8.29,15.61-8.28,24.93,.08,59.07,.04,118.14,.04,177.2,0,49.28-.01,98.56,0,147.85,0,11.62-.06,23.25,.17,34.87,.17,8.15,3.5,15.14,8.97,21.14,8.01,8.79,18.14,11.81,29.79,11.79,72.42-.12,144.85-.03,217.27-.1,7.93-.01,15.93,.83,23.79-.63,16.91-3.15,28.43-17.49,28.44-35.31,.03-42.6-.01-85.2-.01-127.81Zm-2.41-51.45h-.05c0,58.95,0,117.9,0,176.85,0,4.97-.29,9.89-2.05,14.62-4.77,12.86-17.1,21.24-31.42,21.24-76.68,0-153.37-.02-230.04-.03-2.54,0-5.07,.06-7.6-.03-18.05-.64-31.62-14.17-32.34-32.2-.03-.92-.02-1.84-.02-2.76,0-118.48,.02-236.95-.03-355.43,0-9.66,2.6-18.14,9.55-25.07,6.91-6.88,15.25-9.94,24.95-9.93,56.53,.06,113.07,.03,169.6,.03,22.11,0,44.22-.09,66.32,.03,16.42,.09,29.42,10.83,32.51,26.54,.83,4.21,.62,8.48,.62,12.74,0,57.8,0,115.6,0,173.4Z"/>
      <path class="cls-1" d="M394.33,241.87h-.05c0,58.95,0,117.9,0,176.85,0,4.97-.29,9.89-2.05,14.62-4.77,12.86-17.1,21.24-31.42,21.24-76.68,0-153.37-.02-230.04-.03-2.54,0-5.07,.06-7.6-.03-18.05-.64-31.62-14.17-32.34-32.2-.03-.92-.02-1.84-.02-2.76,0-118.48,.02-236.95-.03-355.43,0-9.66,2.6-18.14,9.55-25.07,6.91-6.88,15.25-9.94,24.95-9.93,56.53,.06,113.07,.03,169.6,.03,22.11,0,44.22-.09,66.32,.03,16.42,.09,29.42,10.83,32.51,26.54,.83,4.21,.62,8.48,.62,12.74,0,57.8,0,115.6,0,173.4Z"/>
    </g>
    <path class="cls-3" d="M123.14,86.47V49.47c-1.47,.91-2.75,1.71-4.27,2.65,0-1.82-.02-3.38,.03-4.94,0-.23,.33-.5,.58-.66,1.62-1.04,3.16-2.25,4.93-3,1.26-.53,2.85-.4,4.37-.58v43.53h-5.63Z"/>
  </g>
  <g>
    <path class="cls-2" d="M189.76,321.22c.57-8.53,1.16-17.05,1.71-25.58,.18-2.82,1.09-4.88,4.3-5.39,24.31-3.88,47.77-11.46,71.81-16.5,4.18-.88,8.41-1.55,12.72-1.23,8.7,.63,12.04,4.85,9.49,13.23-5.77,19.03-8.32,38.33-7.06,58.22,.38,6.07,1.69,8.7,8.58,9.27,18.34,1.53,35.62,6.86,50.62,18.15,8.49,6.39,12.37,15.33,10.19,23.82-2.24,8.71-10.2,15.24-21,16.02-9.52,.69-18.46,2.98-27.3,6.42-7.37,2.87-14.9,2.61-22.57,.11-15.67-5.11-31.13-10.69-45.63-18.6-2.74-1.5-5.6-1.95-7.67,.37-5.49,6.17-11.9,4.32-18.38,2.69q-9.12-2.3-10.31,7.47c-.03,.21-.03,.43-.06,.64-.35,2.59-.72,5.29-3.68,6.18-3.39,1.02-5.08-1.57-6.69-3.8-3.56-4.93-5.49-10.74-6.96-16.44-1.84-7.14-5.09-10.27-12.82-9.69-6.11,.45-12.31-1.07-18.3-2.79-3.57-1.02-6.73-2.73-9.46-5.21-2.45-2.23-3.08-5.1-2.17-8.21,1.05-3.59,4.14-2.52,6.47-2.31,7.44,.68,14.87,1.57,22.28,2.56,4.47,.6,5.76-1.09,4.88-5.39-1.91-9.42-3.62-18.87-5.36-28.32-.51-2.73-1.35-5.89,1.52-7.62,3.2-1.92,5.71,.61,7.85,2.59,5.15,4.73,6.91,11.18,8.14,17.72,1,5.29,2.73,10.28,4.64,15.29,1.52,3.99,4.03,5.2,7.92,4.44,2.31-.45,4.63-.85,6.91-1.39,11.36-2.73,11.76-3.19,11.62-15.02-.03-2.2,1.09-5.46-1.67-6.25-3.14-.91-6.4,.52-8.45,3.27-1.65,2.21-2.88,4.74-4.17,7.2-2.42,4.58-4.7,3.27-6.76-.18-2.44-4.08-4.15-8.53-4.29-13.28-.23-7.47-.06-14.95-.06-22.42-.28,0-.56-.01-.84-.02Zm79.06,83.27c5.97,.41,10.91-2,15.26-5.68,4.92-4.16,10.45-6.38,16.92-6.71,4.04-.2,8.1-.76,12.06-1.6,5-1.06,8.42-4.13,9.41-9.32,1.04-5.43-3.05-7.69-6.76-9.7-6.65-3.6-14.05-4.97-21.45-6.15-8.52-1.36-8.64-1.35-7.39,7.3,.71,4.9,.89,9.5-3.84,12.57-4.68,3.04-9.66,5.39-15.18,6.61-3.41,.75-5.84,.17-7.21-3.33-.77-1.95-1.47-4.26-4.46-3.38-4.39,1.3-7.94,4.12-11.65,6.6-1.79,1.2-.64,2.64,.76,3.53,7.25,4.61,14.73,8.63,23.53,9.26Zm-37.16-54.1q-.09,10.08,9.14,7.79c2.27-.57,4.52-1.18,6.76-1.86,10.04-3.02,10.51-3.98,9.05-14.43-.46-3.28-1.49-4.54-4.89-3.53-4.07,1.22-8.18,2.46-12.36,3.08-5.9,.89-8.93,3.56-7.7,8.94Zm24.31-30.54c.26-8.12,.28-8.06-6.95-6.18-4.33,1.13-8.71,2.05-13.06,3.08-4.97,1.18-7.03,5.1-5.7,11.4,1.18,5.64,5.27,2.71,8.2,2.36,3.37-.4,6.65-1.51,10-2.11,5.34-.95,8.84-3.22,7.52-8.56Zm1.04-24.4c.78-5.18-1.09-6.4-5.38-5.07-3.86,1.19-7.79,2.48-11.77,2.88-6.24,.63-8.4,3.94-9.08,9.84-.54,4.73,1.22,5.18,4.9,4.38,4.37-.95,8.72-2.38,13.13-2.65,6.72-.41,8.91-3.87,8.2-9.38Zm-.81,75.14c-.12-2.3,.29-5.34-3.47-4.41-6.2,1.53-12.37,3.25-18.42,5.3-3.22,1.09-2.26,4.17-1.91,6.65,.4,2.85,2.2,4.11,4.97,3.62,6.15-1.08,11.46-4.48,17.25-6.56,1.74-.63,1.45-2.9,1.58-4.6Zm-54.05,22.35c3.35-1.18,7.34-2.63,11.36-4,3.55-1.2,5.65-2.33,4.03-7.22-1.72-5.19-4.47-4.01-7.76-3.04-3.67,1.07-7.27,2.36-10.96,3.38-2.77,.77-4.19,2.26-2.95,5.07,1.11,2.54,1.36,6.12,6.29,5.81Zm14.96-65.64c-.69-2.12,1.54-6.65-3.65-5.98-3.91,.51-10.1-1.01-9.45,6.23,.27,2.98-2.17,7.97,3.91,8.27,6.72,.34,8.92-1.74,9.19-8.52Zm1.33-23.82c.15-4.49-.26-5.5-3.65-4.6-3.97,1.05-10.95-2-10.73,6.3,.08,3.13-.48,6.63,4.59,6.6,7.37-.03,9.57-1.72,9.79-8.31Z"/>
    <path class="cls-2" d="M306.46,261.08c-25.06-1.16-46.67,4.77-68.27,11.02-18.02,5.21-35.95,11.29-55.16,9.94-11.31-.79-22.58-1.93-32.91-7.23-2.48-1.27-5.84-2.81-6.04-5.24-.26-3.08,3.77-3.4,6.1-4.66,6.84-3.69,13.99-3.04,21.23-1.41,12.74,2.86,25.53,5.21,38.71,3.67,4.86-.57,8.62-2.28,10.17-7.31,1.23-4.02,1.7-7.47-3.67-9.05-4.42-1.3-4.97-4.15-1.93-7.71,4.88-5.71,8.8-12.07,12.34-18.67,.6-1.12,1.39-2.16,2.22-3.11,1.78-2.05,3.94-3.43,6.77-2.52,3.17,1.01,2.97,3.78,2.98,6.37,.04,9.14-2.82,17.64-5.6,26.18-.87,2.67-2.95,6.02,.99,7.85,3.63,1.68,5.41-1.5,7-3.94,4.92-7.55,8.71-15.66,11.88-24.08,2.2-5.86,1.38-11.07-3.85-14.85-4.62-3.33-3.71-6.33-.42-9.95,3.22-3.53,7-6.17,11.02-8.66,8.99-5.59,14.13-1.28,17.39,6.79,3.73,9.23,2.79,18.46-2.65,26.99-2.31,3.63-4.16,7.44-5.44,11.55-1.3,4.17-.69,6.04,4.41,5,16.13-3.28,32.36-6,48.92-5.39,4.25,.16,8.57,.44,12.72,1.31,6.19,1.29,7.06,3.97,3.12,8.76-4.7,5.72-10.35,9.23-18.28,8.46-5.29-.51-10.67-.1-13.75-.1Z"/>
    <path d="M154.92,123.52c31.22,1.67,59.75-8.38,87.8-20.29,12.79-5.43,25.86-10.03,38.94-14.67,9.61-3.41,18.98-1.89,28.37,.41,7.48,1.83,14.89,3.36,22.68,3.57,15.52,.42,22.38,14.26,14.04,27.62-4.02,6.44-7.54,7.98-14.43,4.8-19.26-8.88-39.32-12.49-60.45-10.73-17.4,1.45-33.96,6.22-50.29,12.07-22.08,7.91-44.54,13.58-68.33,10.77-5.3-.63-10.64-1.19-15.65-3.05-2.74-1.02-5.8-2.59-5.23-6.36,.6-3.97,3.75-4.94,7.19-4.86,5.12,.12,10.24,.47,15.36,.72Z"/>
  </g>
</svg>