  0
SECTION
  2
HEADER
  9
$ACADVER
  1
AC1032
  9
$ACADMAINTVER
 90
      228
  9
$DWGCODEPAGE
  3
ANSI_1252
  9
$REQUIREDVERSIONS
160
                 0
  9
$INSBASE
 10
0.0
 20
0.0
 30
0.0
  9
$EXTMIN
 10
1.000000000000000E+20
 20
1.000000000000000E+20
 30
1.000000000000000E+20
  9
$EXTMAX
 10
-1.000000000000000E+20
 20
-1.000000000000000E+20
 30
-1.000000000000000E+20
  9
$LIMMIN
 10
0.0
 20
0.0
  9
$LIMMAX
 10
12.0
 20
9.0
  9
$ORTHOMODE
 70
     0
  9
$REGENMODE
 70
     1
  9
$FILLMODE
 70
     1
  9
$QTEXTMODE
 70
     0
  9
$MIRRTEXT
 70
     0
  9
$LTSCALE
 40
1.0
  9
$ATTMODE
 70
     1
  9
$TEXTSIZE
 40
0.2
  9
$TRACEWID
 40
0.05
  9
$TEXTSTYLE
  7
Standard
  9
$CLAYER
  8
0
  9
$CELTYPE
  6
ByLayer
  9
$CECOLOR
 62
   256
  9
$CELTSCALE
 40
1.0
  9
$DISPSILH
 70
     0
  9
$DIMSCALE
 40
1.0
  9
$DIMASZ
 40
0.18
  9
$DIMEXO
 40
0.0625
  9
$DIMDLI
 40
0.38
  9
$DIMRND
 40
0.0
  9
$DIMDLE
 40
0.0
  9
$DIMEXE
 40
0.18
  9
$DIMTP
 40
0.0
  9
$DIMTM
 40
0.0
  9
$DIMTXT
 40
0.18
  9
$DIMCEN
 40
0.09
  9
$DIMTSZ
 40
0.0
  9
$DIMTOL
 70
     0
  9
$DIMLIM
 70
     0
  9
$DIMTIH
 70
     1
  9
$DIMTOH
 70
     1
  9
$DIMSE1
 70
     0
  9
$DIMSE2
 70
     0
  9
$DIMTAD
 70
     0
  9
$DIMZIN
 70
     0
  9
$DIMBLK
  1

  9
$DIMASO
 70
     1
  9
$DIMSHO
 70
     1
  9
$DIMPOST
  1

  9
$DIMAPOST
  1

  9
$DIMALT
 70
     0
  9
$DIMALTD
 70
     2
  9
$DIMALTF
 40
25.4
  9
$DIMLFAC
 40
1.0
  9
$DIMTOFL
 70
     0
  9
$DIMTVP
 40
0.0
  9
$DIMTIX
 70
     0
  9
$DIMSOXD
 70
     0
  9
$DIMSAH
 70
     0
  9
$DIMBLK1
  1

  9
$DIMBLK2
  1

  9
$DIMSTYLE
  2
Standard
  9
$DIMCLRD
 70
     0
  9
$DIMCLRE
 70
     0
  9
$DIMCLRT
 70
     0
  9
$DIMTFAC
 40
1.0
  9
$DIMGAP
 40
0.09
  9
$DIMJUST
 70
     0
  9
$DIMSD1
 70
     0
  9
$DIMSD2
 70
     0
  9
$DIMTOLJ
 70
     1
  9
$DIMTZIN
 70
     0
  9
$DIMALTZ
 70
     0
  9
$DIMALTTZ
 70
     0
  9
$DIMUPT
 70
     0
  9
$DIMDEC
 70
     4
  9
$DIMTDEC
 70
     4
  9
$DIMALTU
 70
     2
  9
$DIMALTTD
 70
     2
  9
$DIMTXSTY
  7
Standard
  9
$DIMAUNIT
 70
     0
  9
$DIMADEC
 70
     0
  9
$DIMALTRND
 40
0.0
  9
$DIMAZIN
 70
     0
  9
$DIMDSEP
 70
    46
  9
$DIMATFIT
 70
     3
  9
$DIMFRAC
 70
     0
  9
$DIMLDRBLK
  1

  9
$DIMLUNIT
 70
     2
  9
$DIMLWD
 70
    -2
  9
$DIMLWE
 70
    -2
  9
$DIMTMOVE
 70
     0
  9
$DIMFXL
 40
1.0
  9
$DIMFXLON
 70
     0
  9
$DIMJOGANG
 40
0.7853981633974483
  9
$DIMTFILL
 70
     0
  9
$DIMTFILLCLR
 70
     0
  9
$DIMARCSYM
 70
     0
  9
$DIMLTYPE
  6

  9
$DIMLTEX1
  6

  9
$DIMLTEX2
  6

  9
$DIMTXTDIRECTION
 70
     0
  9
$LUNITS
 70
     2
  9
$LUPREC
 70
     4
  9
$SKETCHINC
 40
0.1
  9
$FILLETRAD
 40
0.0
  9
$AUNITS
 70
     0
  9
$AUPREC
 70
     0
  9
$MENU
  1
.
  9
$ELEVATION
 40
0.0
  9
$PELEVATION
 40
0.0
  9
$THICKNESS
 40
0.0
  9
$LIMCHECK
 70
     0
  9
$CHAMFERA
 40
0.0
  9
$CHAMFERB
 40
0.0
  9
$CHAMFERC
 40
0.0
  9
$CHAMFERD
 40
0.0
  9
$SKPOLY
 70
     0
  9
$TDCREATE
 40
2460929.578784722
  9
$TDUCREATE
 40
2460929.370451389
  9
$TDUPDATE
 40
2460929.578784722
  9
$TDUUPDATE
 40
2460929.370451389
  9
$TDINDWG
 40
0.0000000000
  9
$TDUSRTIMER
 40
0.0000000000
  9
$USRTIMER
 70
     1
  9
$ANGBASE
 50
0.0
  9
$ANGDIR
 70
     0
  9
$PDMODE
 70
     0
  9
$PDSIZE
 40
0.0
  9
$PLINEWID
 40
0.0
  9
$SPLFRAME
 70
     0
  9
$SPLINETYPE
 70
     6
  9
$SPLINESEGS
 70
     8
  9
$HANDSEED
  5
96
  9
$SURFTAB1
 70
     6
  9
$SURFTAB2
 70
     6
  9
$SURFTYPE
 70
     6
  9
$SURFU
 70
     6
  9
$SURFV
 70
     6
  9
$UCSBASE
  2

  9
$UCSNAME
  2

  9
$UCSORG
 10
0.0
 20
0.0
 30
0.0
  9
$UCSXDIR
 10
1.0
 20
0.0
 30
0.0
  9
$UCSYDIR
 10
0.0
 20
1.0
 30
0.0
  9
$UCSORTHOREF
  2

  9
$UCSORTHOVIEW
 70
     0
  9
$UCSORGTOP
 10
0.0
 20
0.0
 30
0.0
  9
$UCSORGBOTTOM
 10
0.0
 20
0.0
 30
0.0
  9
$UCSORGLEFT
 10
0.0
 20
0.0
 30
0.0
  9
$UCSORGRIGHT
 10
0.0
 20
0.0
 30
0.0
  9
$UCSORGFRONT
 10
0.0
 20
0.0
 30
0.0
  9
$UCSORGBACK
 10
0.0
 20
0.0
 30
0.0
  9
$PUCSBASE
  2

  9
$PUCSNAME
  2

  9
$PUCSORG
 10
0.0
 20
0.0
 30
0.0
  9
$PUCSXDIR
 10
1.0
 20
0.0
 30
0.0
  9
$PUCSYDIR
 10
0.0
 20
1.0
 30
0.0
  9
$PUCSORTHOREF
  2

  9
$PUCSORTHOVIEW
 70
     0
  9
$PUCSORGTOP
 10
0.0
 20
0.0
 30
0.0
  9
$PUCSORGBOTTOM
 10
0.0
 20
0.0
 30
0.0
  9
$PUCSORGLEFT
 10
0.0
 20
0.0
 30
0.0
  9
$PUCSORGRIGHT
 10
0.0
 20
0.0
 30
0.0
  9
$PUCSORGFRONT
 10
0.0
 20
0.0
 30
0.0
  9
$PUCSORGBACK
 10
0.0
 20
0.0
 30
0.0
  9
$USERI1
 70
     0
  9
$USERI2
 70
     0
  9
$USERI3
 70
     0
  9
$USERI4
 70
     0
  9
$USERI5
 70
     0
  9
$USERR1
 40
0.0
  9
$USERR2
 40
0.0
  9
$USERR3
 40
0.0
  9
$USERR4
 40
0.0
  9
$USERR5
 40
0.0
  9
$WORLDVIEW
 70
     1
  9
$SHADEDGE
 70
     3
  9
$SHADEDIF
 70
    70
  9
$TILEMODE
 70
     1
  9
$MAXACTVP
 70
    64
  9
$PINSBASE
 10
0.0
 20
0.0
 30
0.0
  9
$PLIMCHECK
 70
     0
  9
$PEXTMIN
 10
1.000000000000000E+20
 20
1.000000000000000E+20
 30
1.000000000000000E+20
  9
$PEXTMAX
 10
-1.000000000000000E+20
 20
-1.000000000000000E+20
 30
-1.000000000000000E+20
  9
$PLIMMIN
 10
0.0
 20
0.0
  9
$PLIMMAX
 10
12.0
 20
9.0
  9
$UNITMODE
 70
     0
  9
$VISRETAIN
 70
     1
  9
$PLINEGEN
 70
     0
  9
$PSLTSCALE
 70
     1
  9
$TREEDEPTH
 70
  3020
  9
$CMLSTYLE
  2
Standard
  9
$CMLJUST
 70
     0
  9
$CMLSCALE
 40
1.0
  9
$PROXYGRAPHICS
 70
     1
  9
$MEASUREMENT
 70
     0
  9
$CELWEIGHT
370
    -1
  9
$ENDCAPS
280
     0
  9
$JOINSTYLE
280
     0
  9
$LWDISPLAY
290
     1
  9
$INSUNITS
 70
     0
  9
$HYPERLINKBASE
  1

  9
$STYLESHEET
  1

  9
$XEDIT
290
     1
  9
$CEPSNTYPE
380
     0
  9
$PSTYLEMODE
290
     1
  9
$FINGERPRINTGUID
  2
{E758D966-9785-F949-9E80-6092E0B638ED}
  9
$VERSIONGUID
  2
{C391540D-6BDA-6445-9EC6-AF237FDB218A}
  9
$EXTNAMES
290
     1
  9
$PSVPSCALE
 40
0.0
  9
$OLESTARTUP
290
     0
  9
$SORTENTS
280
   127
  9
$INDEXCTL
280
     0
  9
$HIDETEXT
280
     1
  9
$XCLIPFRAME
280
     2
  9
$HALOGAP
280
     0
  9
$OBSCOLOR
 70
   257
  9
$OBSLTYPE
280
     0
  9
$INTERSECTIONDISPLAY
280
     0
  9
$INTERSECTIONCOLOR
 70
   257
  9
$DIMASSOC
280
     2
  9
$PROJECTNAME
  1

  9
$CAMERADISPLAY
290
     0
  9
$LENSLENGTH
 40
50.0
  9
$CAMERAHEIGHT
 40
0.0
  9
$STEPSPERSEC
 40
2.0
  9
$STEPSIZE
 40
6.0
  9
$3DDWFPREC
 40
2.0
  9
$PSOLWIDTH
 40
0.25
  9
$PSOLHEIGHT
 40
4.0
  9
$LOFTANG1
 40
1.570796326794896
  9
$LOFTANG2
 40
1.570796326794896
  9
$LOFTMAG1
 40
0.0
  9
$LOFTMAG2
 40
0.0
  9
$LOFTPARAM
 70
     7
  9
$LOFTNORMALS
280
     1
  9
$LATITUDE
 40
37.795
  9
$LONGITUDE
 40
-122.394
  9
$NORTHDIRECTION
 40
0.0
  9
$TIMEZONE
 70
 -8000
  9
$LIGHTGLYPHDISPLAY
280
     1
  9
$TILEMODELIGHTSYNCH
280
     1
  9
$CMATERIAL
347
11
  9
$SOLIDHIST
280
     0
  9
$SHOWHIST
280
     1
  9
$DWFFRAME
280
     2
  9
$DGNFRAME
280
     0
  9
$REALWORLDSCALE
290
     1
  9
$INTERFERECOLOR
 62
     1
  9
$INTERFEREOBJVS
345
33
  9
$INTERFEREVPVS
346
30
  9
$CSHADOW
280
     0
  9
$SHADOWPLANELOCATION
 40
0.0
  0
ENDSEC
  0
SECTION
  2
CLASSES
  0
CLASS
  1
ACDBDICTIONARYWDFLT
  2
AcDbDictionaryWithDefault
  3
ObjectDBX Classes
 90
        0
 91
        1
280
     0
281
     0
  0
CLASS
  1
MATERIAL
  2
AcDbMaterial
  3
ObjectDBX Classes
 90
     1153
 91
        3
280
     0
281
     0
  0
CLASS
  1
VISUALSTYLE
  2
AcDbVisualStyle
  3
ObjectDBX Classes
 90
     4095
 91
       24
280
     0
281
     0
  0
CLASS
  1
SCALE
  2
AcDbScale
  3
ObjectDBX Classes
 90
     1153
 91
       17
280
     0
281
     0
  0
CLASS
  1
TABLESTYLE
  2
AcDbTableStyle
  3
ObjectDBX Classes
 90
     4095
 91
        1
280
     0
281
     0
  0
CLASS
  1
MLEADERSTYLE
  2
AcDbMLeaderStyle
  3
ACDB_MLEADERSTYLE_CLASS
 90
     4095
 91
        1
280
     0
281
     0
  0
CLASS
  1
ACDBSECTIONVIEWSTYLE
  2
AcDbSectionViewStyle
  3
ObjectDBX Classes
 90
     1025
 91
        1
280
     0
281
     0
  0
CLASS
  1
ACDBDETAILVIEWSTYLE
  2
AcDbDetailViewStyle
  3
ObjectDBX Classes
 90
     1025
 91
        1
280
     0
281
     0
  0
CLASS
  1
DICTIONARYVAR
  2
AcDbDictionaryVar
  3
ObjectDBX Classes
 90
        0
 91
        5
280
     0
281
     0
  0
CLASS
  1
CELLSTYLEMAP
  2
AcDbCellStyleMap
  3
ObjectDBX Classes
 90
     1152
 91
        1
280
     0
281
     0
  0
ENDSEC
  0
SECTION
  2
TABLES
  0
TABLE
  2
VPORT
  5
8
330
0
100
AcDbSymbolTable
 70
     1
  0
VPORT
  5
57
330
8
100
AcDbSymbolTableRecord
100
AcDbViewportTableRecord
  2
*Active
 70
     0
 10
0.0
 20
0.0
 11
1.0
 21
1.0
 12
0.0
 22
0.0
 13
0.0
 23
0.0
 14
1.0
 24
1.0
 15
0.0
 25
0.0
 16
0.0
 26
0.0
 36
1.0
 17
2070.329143804109
 27
-1549.708560332395
 37
0.0
 40
3099.36839297975
 41
1.304893925962813
 42
50.0
 43
0.0
 44
0.0
 50
0.0
 51
0.0
 71
     0
 72
   100
 73
     1
 74
     1
 75
     0
 76
     0
 77
     0
 78
     0
281
     0
 65
     1
110
0.0
120
0.0
130
0.0
111
1.0
121
0.0
131
0.0
112
0.0
122
1.0
132
0.0
 79
     0
146
0.0
 60
     3
 61
     5
292
     1
282
     1
141
0.0
142
0.0
 63
   250
421
  3355443
  0
ENDTAB
  0
TABLE
  2
LTYPE
  5
5
330
0
100
AcDbSymbolTable
 70
     1
  0
LTYPE
  5
5B
330
5
100
AcDbSymbolTableRecord
100
AcDbLinetypeTableRecord
  2
ByBlock
 70
     0
  3

 72
    65
 73
     0
 40
0.0
  0
LTYPE
  5
5C
330
5
100
AcDbSymbolTableRecord
100
AcDbLinetypeTableRecord
  2
ByLayer
 70
     0
  3

 72
    65
 73
     0
 40
0.0
  0
LTYPE
  5
5D
330
5
100
AcDbSymbolTableRecord
100
AcDbLinetypeTableRecord
  2
Continuous
 70
     0
  3
Solid line
 72
    65
 73
     0
 40
0.0
  0
ENDTAB
  0
TABLE
  2
LAYER
  5
2
330
0
100
AcDbSymbolTable
 70
     2
  0
LAYER
  5
54
330
2
100
AcDbSymbolTableRecord
100
AcDbLayerTableRecord
  2
0
 70
     0
 62
     7
  6
Continuous
370
    -3
390
F
347
21
348
0
  0
LAYER
  5
78
330
2
100
AcDbSymbolTableRecord
100
AcDbLayerTableRecord
  2
Layer 1
 70
     0
 62
     7
  6
Continuous
370
     0
390
F
347
21
348
0
  0
ENDTAB
  0
TABLE
  2
STYLE
  5
3
330
0
100
AcDbSymbolTable
 70
     2
  0
STYLE
  5
55
330
3
100
AcDbSymbolTableRecord
100
AcDbTextStyleTableRecord
  2
Standard
 70
     0
 40
0.0
 41
1.0
 50
0.0
 71
     0
 42
0.2
  3
txt
  4

  0
STYLE
  5
5A
330
3
100
AcDbSymbolTableRecord
100
AcDbTextStyleTableRecord
  2
Annotative
 70
     0
 40
0.0
 41
1.0
 50
0.0
 71
     0
 42
0.2
  3
txt
  4

1001
AcadAnnotative
1000
AnnotativeData
1002
{
1070
     1
1070
     1
1002
}
  0
ENDTAB
  0
TABLE
  2
VIEW
  5
6
330
0
100
AcDbSymbolTable
 70
     0
  0
ENDTAB
  0
TABLE
  2
UCS
  5
7
330
0
100
AcDbSymbolTable
 70
     0
  0
ENDTAB
  0
TABLE
  2
APPID
  5
9
330
0
100
AcDbSymbolTable
 70
     2
  0
APPID
  5
56
330
9
100
AcDbSymbolTableRecord
100
AcDbRegAppTableRecord
  2
ACAD
 70
     0
  0
APPID
  5
5E
330
9
100
AcDbSymbolTableRecord
100
AcDbRegAppTableRecord
  2
AcadAnnotative
 70
     0
  0
ENDTAB
  0
TABLE
  2
DIMSTYLE
  5
A
330
0
100
AcDbSymbolTable
 70
     2
100
AcDbDimStyleTable
 71
     0
  0
DIMSTYLE
105
58
330
A
100
AcDbSymbolTableRecord
100
AcDbDimStyleTableRecord
  2
Standard
 70
     0
340
55
  0
DIMSTYLE
105
59
330
A
100
AcDbSymbolTableRecord
100
AcDbDimStyleTableRecord
  2
Annotative
 70
     0
340
55
1001
AcadAnnotative
1000
AnnotativeData
1002
{
1070
     1
1070
     1
1002
}
  0
ENDTAB
  0
TABLE
  2
BLOCK_RECORD
  5
1
330
0
100
AcDbSymbolTable
 70
     1
  0
BLOCK_RECORD
  5
70
330
1
100
AcDbSymbolTableRecord
100
AcDbBlockTableRecord
  2
*Model_Space
340
73
 70
     0
280
     1
281
     0
  0
BLOCK_RECORD
  5
6C
330
1
100
AcDbSymbolTableRecord
100
AcDbBlockTableRecord
  2
*Paper_Space
340
6F
 70
     0
280
     1
281
     0
  0
BLOCK_RECORD
  5
74
330
1
100
AcDbSymbolTableRecord
100
AcDbBlockTableRecord
  2
*Paper_Space0
340
77
 70
     0
280
     1
281
     0
  0
ENDTAB
  0
ENDSEC
  0
SECTION
  2
BLOCKS
  0
BLOCK
  5
71
330
70
100
AcDbEntity
  8
0
100
AcDbBlockBegin
  2
*Model_Space
 70
     0
 10
0.0
 20
0.0
 30
0.0
  3
*Model_Space
  1

  0
ENDBLK
  5
72
330
70
100
AcDbEntity
  8
0
100
AcDbBlockEnd
  0
BLOCK
  5
6D
330
6C
100
AcDbEntity
 67
     1
  8
0
100
AcDbBlockBegin
  2
*Paper_Space
 70
     0
 10
0.0
 20
0.0
 30
0.0
  3
*Paper_Space
  1

  0
ENDBLK
  5
6E
330
6C
100
AcDbEntity
 67
     1
  8
0
100
AcDbBlockEnd
  0
BLOCK
  5
75
330
74
100
AcDbEntity
 67
     1
  8
0
100
AcDbBlockBegin
  2
*Paper_Space0
 70
     0
 10
0.0
 20
0.0
 30
0.0
  3
*Paper_Space0
  1

  0
ENDBLK
  5
76
330
74
100
AcDbEntity
 67
     1
  8
0
100
AcDbBlockEnd
  0
ENDSEC
  0
SECTION
  2
ENTITIES
  0
SPLINE
  5
79
330
70
100
AcDbEntity
  8
Layer 1
100
AcDbSpline
210
0.0
220
0.0
230
1.0
 70
     9
 71
     3
 72
    53
 73
    49
 74
     0
 42
0.0000000001
 43
0.0000000001
 40
0.0
 40
0.0
 40
0.0
 40
0.0
 40
1.0
 40
1.0
 40
1.0
 40
2.0
 40
2.0
 40
2.0
 40
3.0
 40
3.0
 40
3.0
 40
4.0
 40
4.0
 40
4.0
 40
5.0
 40
5.0
 40
5.0
 40
6.0
 40
6.0
 40
6.0
 40
7.0
 40
7.0
 40
7.0
 40
8.0
 40
8.0
 40
8.0
 40
9.0
 40
9.0
 40
9.0
 40
10.0
 40
10.0
 40
10.0
 40
11.0
 40
11.0
 40
11.0
 40
12.0
 40
12.0
 40
12.0
 40
13.0
 40
13.0
 40
13.0
 40
14.0
 40
14.0
 40
14.0
 40
15.0
 40
15.0
 40
15.0
 40
16.0
 40
16.0
 40
16.0
 40
16.0
 10
1434.327896392913
 20
-1281.868090447113
 30
0.0
 10
1434.327896392913
 20
-1281.868090447113
 30
0.0
 10
1434.279570017279
 20
-1281.868090447113
 30
0.0
 10
1434.279570017279
 20
-1281.868090447113
 30
0.0
 10
1434.279570017279
 20
-1340.816274521594
 30
0.0
 10
1434.272654200871
 20
-1399.764458596075
 30
0.0
 10
1434.286485833689
 20
-1458.719516317354
 30
0.0
 10
1434.286485833689
 20
-1463.694054625887
 30
0.0
 10
1433.996274562216
 20
-1468.606434925967
 30
0.0
 10
1432.241428318233
 20
-1473.339130508275
 30
0.0
 10
1427.474069314663
 20
-1486.19689829958
 30
0.0
 10
1415.141481874261
 20
-1494.577602698011
 30
0.0
 10
1400.818910431999
 20
-1494.577602698011
 30
0.0
 10
1324.13515734817
 20
-1494.570686881603
 30
0.0
 10
1247.451404264342
 20
-1494.556897418401
 30
0.0
 10
1170.774566996921
 20
-1494.543065785581
 30
0.0
 10
1168.238908212605
 20
-1494.543065785581
 30
0.0
 10
1165.703333767511
 20
-1494.605223794033
 30
0.0
 10
1163.174590799601
 20
-1494.515444689563
 30
0.0
 10
1145.128105239168
 20
-1493.872864138166
 30
0.0
 10
1131.551767255199
 20
-1480.344936869054
 30
0.0
 10
1130.833281401763
 20
-1462.319156588235
 30
0.0
 10
1130.798702319722
 20
-1461.400238567794
 30
0.0
 10
1130.812533952537
 20
-1460.481362716966
 30
0.0
 10
1130.812533952537
 20
-1459.55552888012
 30
0.0
 10
1130.812533952537
 20
-1341.078822527435
 30
0.0
 10
1130.833281401763
 20
-1222.602074005137
 30
0.0
 10
1130.777954870496
 20
-1104.125367652452
 30
0.0
 10
1130.777954870496
 20
-1094.466502306861
 30
0.0
 10
1133.375771663264
 20
-1085.989060817939
 30
0.0
 10
1140.326335832005
 20
-1079.052328282014
 30
0.0
 10
1147.235405102297
 20
-1072.170922277355
 30
0.0
 10
1155.574614602281
 20
-1069.11716763699
 30
0.0
 10
1165.274890507096
 20
-1069.124083453398
 30
0.0
 10
1221.804942506589
 20
-1069.179241306215
 30
0.0
 10
1278.341910322488
 20
-1069.151662379807
 30
0.0
 10
1334.871793643531
 20
-1069.151662379807
 30
0.0
 10
1356.980815308465
 20
-1069.151662379807
 30
0.0
 10
1379.089836973397
 20
-1069.061841105724
 30
0.0
 10
1401.192027161147
 20
-1069.186157122623
 30
0.0
 10
1417.61481397168
 20
-1069.276062735931
 30
0.0
 10
1430.610813751927
 20
-1080.012783370517
 30
0.0
 10
1433.699147474333
 20
-1095.72400014402
 30
0.0
 10
1434.528286390303
 20
-1099.931515375419
 30
0.0
 10
1434.31414909932
 20
-1104.208273110127
 30
0.0
 10
1434.320980576505
 20
-1108.464283395611
 30
0.0
 10
1434.327896392913
 20
-1166.26549618663
 30
0.0
 10
1434.327896392913
 20
-1224.066877656094
 30
0.0
 10
1434.327896392913
 20
-1281.868090447113
 30
0.0
  0
SPLINE
  5
7A
330
70
100
AcDbEntity
  8
Layer 1
100
AcDbSpline
210
0.0
220
0.0
230
1.0
 70
     9
 71
     3
 72
    53
 73
    49
 74
     0
 42
0.0000000001
 43
0.0000000001
 40
0.0
 40
0.0
 40
0.0
 40
0.0
 40
1.0
 40
1.0
 40
1.0
 40
2.0
 40
2.0
 40
2.0
 40
3.0
 40
3.0
 40
3.0
 40
4.0
 40
4.0
 40
4.0
 40
5.0
 40
5.0
 40
5.0
 40
6.0
 40
6.0
 40
6.0
 40
7.0
 40
7.0
 40
7.0
 40
8.0
 40
8.0
 40
8.0
 40
9.0
 40
9.0
 40
9.0
 40
10.0
 40
10.0
 40
10.0
 40
11.0
 40
11.0
 40
11.0
 40
12.0
 40
12.0
 40
12.0
 40
13.0
 40
13.0
 40
13.0
 40
14.0
 40
14.0
 40
14.0
 40
15.0
 40
15.0
 40
15.0
 40
16.0
 40
16.0
 40
16.0
 40
16.0
 10
1436.739154821107
 20
-1333.319909061561
 30
0.0
 10
1436.739154821107
 20
-1256.062733590419
 30
0.0
 10
1436.75990227033
 20
-1178.798642302869
 30
0.0
 10
1436.746070637515
 20
-1101.541382492503
 30
0.0
 10
1436.746070637515
 20
-1091.309010420375
 30
0.0
 10
1432.821682182732
 20
-1082.762579445816
 30
0.0
 10
1425.339190525124
 20
-1075.818931093483
 30
0.0
 10
1418.209068147444
 20
-1069.199988755439
 30
0.0
 10
1409.634889568029
 20
-1066.546929770631
 30
0.0
 10
1400.058929680112
 20
-1066.567677219855
 30
0.0
 10
1380.140028996757
 20
-1066.602171962671
 30
0.0
 10
1360.221212652626
 20
-1066.602171962671
 30
0.0
 10
1340.302396308498
 20
-1066.602171962671
 30
0.0
 10
1281.692707711511
 20
-1066.595256146263
 30
0.0
 10
1223.083103453747
 20
-1066.581508852672
 30
0.0
 10
1164.473499195985
 20
-1066.574593036264
 30
0.0
 10
1153.218598366127
 20
-1066.574593036264
 30
0.0
 10
1143.912102300459
 20
-1070.878929697379
 30
0.0
 10
1136.540095026937
 20
-1079.370118479896
 30
0.0
 10
1130.31510120649
 20
-1086.534904278844
 30
0.0
 10
1128.249211902586
 20
-1094.984682502132
 30
0.0
 10
1128.263043535404
 20
-1104.305010200618
 30
0.0
 10
1128.345948993077
 20
-1163.377552461612
 30
0.0
 10
1128.304454094628
 20
-1222.443178906198
 30
0.0
 10
1128.304454094628
 20
-1281.508805350781
 30
0.0
 10
1128.304454094628
 20
-1330.791208263263
 30
0.0
 10
1128.290622461812
 20
-1380.073611175745
 30
0.0
 10
1128.311369911036
 20
-1429.355971918614
 30
0.0
 10
1128.311369911036
 20
-1440.977031491597
 30
0.0
 10
1128.249211902586
 20
-1452.605006880991
 30
0.0
 10
1128.484096642794
 20
-1464.226066453973
 30
0.0
 10
1128.649907558143
 20
-1472.378759758996
 30
0.0
 10
1131.980126176389
 20
-1479.363818670552
 30
0.0
 10
1137.452055061356
 20
-1485.367801553222
 30
0.0
 10
1145.466642886274
 20
-1494.156159593231
 30
0.0
 10
1155.588361895872
 20
-1497.182335307187
 30
0.0
 10
1167.244042720509
 20
-1497.161587857963
 30
0.0
 10
1239.664869702448
 20
-1497.044145487858
 30
0.0
 10
1312.092612500794
 20
-1497.133966761941
 30
0.0
 10
1384.513523821955
 20
-1497.064850767472
 30
0.0
 10
1392.445121849974
 20
-1497.051061304266
 30
0.0
 10
1400.445878042075
 20
-1497.89394751383
 30
0.0
 10
1408.308317906012
 20
-1496.436144018504
 30
0.0
 10
1425.22170598541
 20
-1493.285610118035
 30
0.0
 10
1436.739154821107
 20
-1478.942375565772
 30
0.0
 10
1436.752986453923
 20
-1461.130816915158
 30
0.0
 10
1436.787481196739
 20
-1418.52947217956
 30
0.0
 10
1436.739154821107
 20
-1375.928169613571
 30
0.0
 10
1436.739154821107
 20
-1333.319909061561
 30
0.0
  0
HATCH
  5
7B
330
70
100
AcDbEntity
  8
Layer 1
 62
    18
420
        0
440
 33554687
100
AcDbHatch
 10
0.0
 20
0.0
 30
0.0
210
0.0
220
0.0
230
1.0
  2
SOLID
 70
     1
 71
     1
 91
        2
 92
        1
 93
        1
 72
     4
 94
        3
 73
     0
 74
     0
 95
       53
 96
       49
 40
0.0
 40
0.0
 40
0.0
 40
0.0
 40
1.0
 40
1.0
 40
1.0
 40
2.0
 40
2.0
 40
2.0
 40
3.0
 40
3.0
 40
3.0
 40
4.0
 40
4.0
 40
4.0
 40
5.0
 40
5.0
 40
5.0
 40
6.0
 40
6.0
 40
6.0
 40
7.0
 40
7.0
 40
7.0
 40
8.0
 40
8.0
 40
8.0
 40
9.0
 40
9.0
 40
9.0
 40
10.0
 40
10.0
 40
10.0
 40
11.0
 40
11.0
 40
11.0
 40
12.0
 40
12.0
 40
12.0
 40
13.0
 40
13.0
 40
13.0
 40
14.0
 40
14.0
 40
14.0
 40
15.0
 40
15.0
 40
15.0
 40
16.0
 40
16.0
 40
16.0
 40
16.0
 10
1434.327896392913
 20
-1281.868090447113
 10
1434.327896392913
 20
-1281.868090447113
 10
1434.279570017279
 20
-1281.868090447113
 10
1434.279570017279
 20
-1281.868090447113
 10
1434.279570017279
 20
-1340.816274521594
 10
1434.272654200871
 20
-1399.764458596075
 10
1434.286485833689
 20
-1458.719516317354
 10
1434.286485833689
 20
-1463.694054625887
 10
1433.996274562216
 20
-1468.606434925967
 10
1432.241428318233
 20
-1473.339130508275
 10
1427.474069314663
 20
-1486.19689829958
 10
1415.141481874261
 20
-1494.577602698011
 10
1400.818910431999
 20
-1494.577602698011
 10
1324.13515734817
 20
-1494.570686881603
 10
1247.451404264342
 20
-1494.556897418401
 10
1170.774566996921
 20
-1494.543065785581
 10
1168.238908212605
 20
-1494.543065785581
 10
1165.703333767511
 20
-1494.605223794033
 10
1163.174590799601
 20
-1494.515444689563
 10
1145.128105239168
 20
-1493.872864138166
 10
1131.551767255199
 20
-1480.344936869054
 10
1130.833281401763
 20
-1462.319156588235
 10
1130.798702319722
 20
-1461.400238567794
 10
1130.812533952537
 20
-1460.481362716966
 10
1130.812533952537
 20
-1459.55552888012
 10
1130.812533952537
 20
-1341.078822527435
 10
1130.833281401763
 20
-1222.602074005137
 10
1130.777954870496
 20
-1104.125367652452
 10
1130.777954870496
 20
-1094.466502306861
 10
1133.375771663264
 20
-1085.989060817939
 10
1140.326335832005
 20
-1079.052328282014
 10
1147.235405102297
 20
-1072.170922277355
 10
1155.574614602281
 20
-1069.11716763699
 10
1165.274890507096
 20
-1069.124083453398
 10
1221.804942506589
 20
-1069.179241306215
 10
1278.341910322488
 20
-1069.151662379807
 10
1334.871793643531
 20
-1069.151662379807
 10
1356.980815308465
 20
-1069.151662379807
 10
1379.089836973397
 20
-1069.061841105724
 10
1401.192027161147
 20
-1069.186157122623
 10
1417.61481397168
 20
-1069.276062735931
 10
1430.610813751927
 20
-1080.012783370517
 10
1433.699147474333
 20
-1095.72400014402
 10
1434.528286390303
 20
-1099.931515375419
 10
1434.31414909932
 20
-1104.208273110127
 10
1434.320980576505
 20
-1108.464283395611
 10
1434.327896392913
 20
-1166.26549618663
 10
1434.327896392913
 20
-1224.066877656094
 10
1434.327896392913
 20
-1281.868090447113
 97
        0
 97
        1
330
79
 92
        1
 93
        1
 72
     4
 94
        3
 73
     0
 74
     0
 95
       53
 96
       49
 40
0.0
 40
0.0
 40
0.0
 40
0.0
 40
1.0
 40
1.0
 40
1.0
 40
2.0
 40
2.0
 40
2.0
 40
3.0
 40
3.0
 40
3.0
 40
4.0
 40
4.0
 40
4.0
 40
5.0
 40
5.0
 40
5.0
 40
6.0
 40
6.0
 40
6.0
 40
7.0
 40
7.0
 40
7.0
 40
8.0
 40
8.0
 40
8.0
 40
9.0
 40
9.0
 40
9.0
 40
10.0
 40
10.0
 40
10.0
 40
11.0
 40
11.0
 40
11.0
 40
12.0
 40
12.0
 40
12.0
 40
13.0
 40
13.0
 40
13.0
 40
14.0
 40
14.0
 40
14.0
 40
15.0
 40
15.0
 40
15.0
 40
16.0
 40
16.0
 40
16.0
 40
16.0
 10
1436.739154821107
 20
-1333.319909061561
 10
1436.739154821107
 20
-1256.062733590419
 10
1436.75990227033
 20
-1178.798642302869
 10
1436.746070637515
 20
-1101.541382492503
 10
1436.746070637515
 20
-1091.309010420375
 10
1432.821682182732
 20
-1082.762579445816
 10
1425.339190525124
 20
-1075.818931093483
 10
1418.209068147444
 20
-1069.199988755439
 10
1409.634889568029
 20
-1066.546929770631
 10
1400.058929680112
 20
-1066.567677219855
 10
1380.140028996757
 20
-1066.602171962671
 10
1360.221212652626
 20
-1066.602171962671
 10
1340.302396308498
 20
-1066.602171962671
 10
1281.692707711511
 20
-1066.595256146263
 10
1223.083103453747
 20
-1066.581508852672
 10
1164.473499195985
 20
-1066.574593036264
 10
1153.218598366127
 20
-1066.574593036264
 10
1143.912102300459
 20
-1070.878929697379
 10
1136.540095026937
 20
-1079.370118479896
 10
1130.31510120649
 20
-1086.534904278844
 10
1128.249211902586
 20
-1094.984682502132
 10
1128.263043535404
 20
-1104.305010200618
 10
1128.345948993077
 20
-1163.377552461612
 10
1128.304454094628
 20
-1222.443178906198
 10
1128.304454094628
 20
-1281.508805350781
 10
1128.304454094628
 20
-1330.791208263263
 10
1128.290622461812
 20
-1380.073611175745
 10
1128.311369911036
 20
-1429.355971918614
 10
1128.311369911036
 20
-1440.977031491597
 10
1128.249211902586
 20
-1452.605006880991
 10
1128.484096642794
 20
-1464.226066453973
 10
1128.649907558143
 20
-1472.378759758996
 10
1131.980126176389
 20
-1479.363818670552
 10
1137.452055061356
 20
-1485.367801553222
 10
1145.466642886274
 20
-1494.156159593231
 10
1155.588361895872
 20
-1497.182335307187
 10
1167.244042720509
 20
-1497.161587857963
 10
1239.664869702448
 20
-1497.044145487858
 10
1312.092612500794
 20
-1497.133966761941
 10
1384.513523821955
 20
-1497.064850767472
 10
1392.445121849974
 20
-1497.051061304266
 10
1400.445878042075
 20
-1497.89394751383
 10
1408.308317906012
 20
-1496.436144018504
 10
1425.22170598541
 20
-1493.285610118035
 10
1436.739154821107
 20
-1478.942375565772
 10
1436.752986453923
 20
-1461.130816915158
 10
1436.787481196739
 20
-1418.52947217956
 10
1436.739154821107
 20
-1375.928169613571
 10
1436.739154821107
 20
-1333.319909061561
 97
        0
 97
        1
330
7A
 75
     2
 76
     1
 98
        1
 10
0.0
 20
0.0
450
        0
451
        0
460
0.0
461
0.0
452
        0
462
0.0
453
        0
470

  0
SPLINE
  5
7C
330
70
100
AcDbEntity
  8
Layer 1
100
AcDbSpline
210
0.0
220
0.0
230
1.0
 70
     9
 71
     3
 72
    53
 73
    49
 74
     0
 42
0.0000000001
 43
0.0000000001
 40
0.0
 40
0.0
 40
0.0
 40
0.0
 40
1.0
 40
1.0
 40
1.0
 40
2.0
 40
2.0
 40
2.0
 40
3.0
 40
3.0
 40
3.0
 40
4.0
 40
4.0
 40
4.0
 40
5.0
 40
5.0
 40
5.0
 40
6.0
 40
6.0
 40
6.0
 40
7.0
 40
7.0
 40
7.0
 40
8.0
 40
8.0
 40
8.0
 40
9.0
 40
9.0
 40
9.0
 40
10.0
 40
10.0
 40
10.0
 40
11.0
 40
11.0
 40
11.0
 40
12.0
 40
12.0
 40
12.0
 40
13.0
 40
13.0
 40
13.0
 40
14.0
 40
14.0
 40
14.0
 40
15.0
 40
15.0
 40
15.0
 40
16.0
 40
16.0
 40
16.0
 40
16.0
 10
1434.327896392913
 20
-1281.868090447113
 30
0.0
 10
1434.327896392913
 20
-1281.868090447113
 30
0.0
 10
1434.279570017279
 20
-1281.868090447113
 30
0.0
 10
1434.279570017279
 20
-1281.868090447113
 30
0.0
 10
1434.279570017279
 20
-1340.816274521594
 30
0.0
 10
1434.272654200871
 20
-1399.764458596075
 30
0.0
 10
1434.286485833689
 20
-1458.719516317354
 30
0.0
 10
1434.286485833689
 20
-1463.694054625887
 30
0.0
 10
1433.996274562216
 20
-1468.606434925967
 30
0.0
 10
1432.241428318233
 20
-1473.339130508275
 30
0.0
 10
1427.474069314663
 20
-1486.19689829958
 30
0.0
 10
1415.141481874261
 20
-1494.577602698011
 30
0.0
 10
1400.818910431999
 20
-1494.577602698011
 30
0.0
 10
1324.13515734817
 20
-1494.570686881603
 30
0.0
 10
1247.451404264342
 20
-1494.556897418401
 30
0.0
 10
1170.774566996921
 20
-1494.543065785581
 30
0.0
 10
1168.238908212605
 20
-1494.543065785581
 30
0.0
 10
1165.703333767511
 20
-1494.605223794033
 30
0.0
 10
1163.174590799601
 20
-1494.515444689563
 30
0.0
 10
1145.128105239168
 20
-1493.872864138166
 30
0.0
 10
1131.551767255199
 20
-1480.344936869054
 30
0.0
 10
1130.833281401763
 20
-1462.319156588235
 30
0.0
 10
1130.798702319722
 20
-1461.400238567794
 30
0.0
 10
1130.812533952537
 20
-1460.481362716966
 30
0.0
 10
1130.812533952537
 20
-1459.55552888012
 30
0.0
 10
1130.812533952537
 20
-1341.078822527435
 30
0.0
 10
1130.833281401763
 20
-1222.602074005137
 30
0.0
 10
1130.777954870496
 20
-1104.125367652452
 30
0.0
 10
1130.777954870496
 20
-1094.466502306861
 30
0.0
 10
1133.375771663264
 20
-1085.989060817939
 30
0.0
 10
1140.326335832005
 20
-1079.052328282014
 30
0.0
 10
1147.235405102297
 20
-1072.170922277355
 30
0.0
 10
1155.574614602281
 20
-1069.11716763699
 30
0.0
 10
1165.274890507096
 20
-1069.124083453398
 30
0.0
 10
1221.804942506589
 20
-1069.179241306215
 30
0.0
 10
1278.341910322488
 20
-1069.151662379807
 30
0.0
 10
1334.871793643531
 20
-1069.151662379807
 30
0.0
 10
1356.980815308465
 20
-1069.151662379807
 30
0.0
 10
1379.089836973397
 20
-1069.061841105724
 30
0.0
 10
1401.192027161147
 20
-1069.186157122623
 30
0.0
 10
1417.61481397168
 20
-1069.276062735931
 30
0.0
 10
1430.610813751927
 20
-1080.012783370517
 30
0.0
 10
1433.699147474333
 20
-1095.72400014402
 30
0.0
 10
1434.528286390303
 20
-1099.931515375419
 30
0.0
 10
1434.31414909932
 20
-1104.208273110127
 30
0.0
 10
1434.320980576505
 20
-1108.464283395611
 30
0.0
 10
1434.327896392913
 20
-1166.26549618663
 30
0.0
 10
1434.327896392913
 20
-1224.066877656094
 30
0.0
 10
1434.327896392913
 20
-1281.868090447113
 30
0.0
  0
SPLINE
  5
7D
330
70
100
AcDbEntity
  8
Layer 1
100
AcDbSpline
210
0.0
220
0.0
230
1.0
 70
     9
 71
     3
 72
    29
 73
    25
 74
     0
 42
0.0000000001
 43
0.0000000001
 40
0.0
 40
0.0
 40
0.0
 40
0.0
 40
1.0
 40
1.0
 40
1.0
 40
2.0
 40
2.0
 40
2.0
 40
3.0
 40
3.0
 40
3.0
 40
4.0
 40
4.0
 40
4.0
 40
5.0
 40
5.0
 40
5.0
 40
6.0
 40
6.0
 40
6.0
 40
7.0
 40
7.0
 40
7.0
 40
8.0
 40
8.0
 40
8.0
 40
8.0
 10
1163.140099542166
 20
-1126.466240948446
 30
0.0
 10
1163.140099542166
 20
-1114.165249505729
 30
0.0
 10
1163.140099542166
 20
-1101.926077736041
 30
0.0
 10
1163.140099542166
 20
-1089.474405277191
 30
0.0
 10
1161.668017163641
 20
-1090.387548732382
 30
0.0
 10
1160.389464958867
 20
-1091.180643993835
 30
0.0
 10
1158.870771162126
 20
-1092.122701086351
 30
0.0
 10
1158.870771162126
 20
-1090.303344930162
 30
0.0
 10
1158.846343635885
 20
-1088.739888855136
 30
0.0
 10
1158.897577325211
 20
-1087.17854703824
 30
0.0
 10
1158.905107376418
 20
-1086.949052034846
 30
0.0
 10
1159.230030590661
 20
-1086.673956187469
 30
0.0
 10
1159.479132926844
 20
-1086.51452877868
 30
0.0
 10
1161.098396542706
 20
-1085.478182718352
 30
0.0
 10
1162.635138889136
 20
-1084.260040166764
 30
0.0
 10
1164.404276270632
 20
-1083.519451425613
 30
0.0
 10
1165.666728476935
 20
-1082.990969458014
 30
0.0
 10
1167.25001118759
 20
-1083.115520095611
 30
0.0
 10
1168.77264471916
 20
-1082.939104545608
 30
0.0
 10
1168.77264471916
 20
-1097.624005361982
 30
0.0
 10
1168.77264471916
 20
-1112.001400451476
 30
0.0
 10
1168.77264471916
 20
-1126.466240948446
 30
0.0
 10
1166.946496958855
 20
-1126.466240948446
 30
0.0
 10
1165.144561055029
 20
-1126.466240948446
 30
0.0
 10
1163.140099542166
 20
-1126.466240948446
 30
0.0
  0
HATCH
  5
7E
330
70
100
AcDbEntity
  8
Layer 1
 62
    24
420
 10759714
440
 33554687
100
AcDbHatch
 10
0.0
 20
0.0
 30
0.0
210
0.0
220
0.0
230
1.0
  2
SOLID
 70
     1
 71
     1
 91
        1
 92
        1
 93
        1
 72
     4
 94
        3
 73
     0
 74
     0
 95
       29
 96
       25
 40
0.0
 40
0.0
 40
0.0
 40
0.0
 40
1.0
 40
1.0
 40
1.0
 40
2.0
 40
2.0
 40
2.0
 40
3.0
 40
3.0
 40
3.0
 40
4.0
 40
4.0
 40
4.0
 40
5.0
 40
5.0
 40
5.0
 40
6.0
 40
6.0
 40
6.0
 40
7.0
 40
7.0
 40
7.0
 40
8.0
 40
8.0
 40
8.0
 40
8.0
 10
1163.140099542166
 20
-1126.466240948446
 10
1163.140099542166
 20
-1114.165249505729
 10
1163.140099542166
 20
-1101.926077736041
 10
1163.140099542166
 20
-1089.474405277191
 10
1161.668017163641
 20
-1090.387548732382
 10
1160.389464958867
 20
-1091.180643993835
 10
1158.870771162126
 20
-1092.122701086351
 10
1158.870771162126
 20
-1090.303344930162
 10
1158.846343635885
 20
-1088.739888855136
 10
1158.897577325211
 20
-1087.17854703824
 10
1158.905107376418
 20
-1086.949052034846
 10
1159.230030590661
 20
-1086.673956187469
 10
1159.479132926844
 20
-1086.51452877868
 10
1161.098396542706
 20
-1085.478182718352
 10
1162.635138889136
 20
-1084.260040166764
 10
1164.404276270632
 20
-1083.519451425613
 10
1165.666728476935
 20
-1082.990969458014
 10
1167.25001118759
 20
-1083.115520095611
 10
1168.77264471916
 20
-1082.939104545608
 10
1168.77264471916
 20
-1097.624005361982
 10
1168.77264471916
 20
-1112.001400451476
 10
1168.77264471916
 20
-1126.466240948446
 10
1166.946496958855
 20
-1126.466240948446
 10
1165.144561055029
 20
-1126.466240948446
 10
1163.140099542166
 20
-1126.466240948446
 97
        0
 97
        1
330
7D
 75
     2
 76
     1
 98
        1
 10
0.0
 20
0.0
450
        0
451
        0
460
0.0
461
0.0
452
        0
462
0.0
453
        0
470

  0
SPLINE
  5
7F
330
70
100
AcDbEntity
  8
Layer 1
100
AcDbSpline
210
0.0
220
0.0
230
1.0
 70
     9
 71
     3
 72
    17
 73
    13
 74
     0
 42
0.0000000001
 43
0.0000000001
 40
0.0
 40
0.0
 40
0.0
 40
0.0
 40
1.0
 40
1.0
 40
1.0
 40
2.0
 40
2.0
 40
2.0
 40
3.0
 40
3.0
 40
3.0
 40
4.0
 40
4.0
 40
4.0
 40
4.0
 10
1258.433648494467
 20
-1343.475342207317
 30
0.0
 10
1258.587444090586
 20
-1338.981167077623
 30
0.0
 10
1258.176741721569
 20
-1337.976855993545
 30
0.0
 10
1254.787639632837
 20
-1338.873690267201
 30
0.0
 10
1250.818162767811
 20
-1339.92404606132
 30
0.0
 10
1243.838884943743
 20
-1336.870314690148
 30
0.0
 10
1244.053075068124
 20
-1345.177038795542
 30
0.0
 10
1244.133721829608
 20
-1348.304927208226
 30
0.0
 10
1243.57066276166
 20
-1351.803385483303
 30
0.0
 10
1248.64266767942
 20
-1351.781909698051
 30
0.0
 10
1256.017544346232
 20
-1351.750684650213
 30
0.0
 10
1258.208270210311
 20
-1350.061478081121
 30
0.0
 10
1258.433648494467
 20
-1343.475342207317
 30
0.0
  0
SPLINE
  5
80
330
70
100
AcDbEntity
  8
Layer 1
100
AcDbSpline
210
0.0
220
0.0
230
1.0
 70
     9
 71
     3
 72
    17
 73
    13
 74
     0
 42
0.0000000001
 43
0.0000000001
 40
0.0
 40
0.0
 40
0.0
 40
0.0
 40
1.0
 40
1.0
 40
1.0
 40
2.0
 40
2.0
 40
2.0
 40
3.0
 40
3.0
 40
3.0
 40
4.0
 40
4.0
 40
4.0
 40
4.0
 10
1257.105056968439
 20
-1367.298350522875
 30
0.0
 10
1256.415100872227
 20
-1365.177905487473
 30
0.0
 10
1258.646243106999
 20
-1360.644478808621
 30
0.0
 10
1253.454153898687
 20
-1361.321582714297
 30
0.0
 10
1249.546451728615
 20
-1361.831206817935
 30
0.0
 10
1243.357471055735
 20
-1360.306915485822
 30
0.0
 10
1244.008645446765
 20
-1367.551478967101
 30
0.0
 10
1244.276162862878
 20
-1370.52756862058
 30
0.0
 10
1241.839786904591
 20
-1375.516548191704
 30
0.0
 10
1247.914898931232
 20
-1375.820498093102
 30
0.0
 10
1254.638150939869
 20
-1376.156906382779
 30
0.0
 10
1256.83748082183
 20
-1374.076398085677
 30
0.0
 10
1257.105056968439
 20
-1367.298350522875
 30
0.0
  0
SPLINE
  5
81
330
70
100
AcDbEntity
  8
Layer 1
100
AcDbSpline
210
0.0
220
0.0
230
1.0
 70
     9
 71
     3
 72
    23
 73
    19
 74
     0
 42
0.0000000001
 43
0.0000000001
 40
0.0
 40
0.0
 40
0.0
 40
0.0
 40
1.0
 40
1.0
 40
1.0
 40
2.0
 40
2.0
 40
2.0
 40
3.0
 40
3.0
 40
3.0
 40
4.0
 40
4.0
 40
4.0
 40
5.0
 40
5.0
 40
5.0
 40
6.0
 40
6.0
 40
6.0
 40
6.0
 10
1242.149619644151
 20
-1432.938412746347
 30
0.0
 10
1245.499577856299
 20
-1431.755776295025
 30
0.0
 10
1249.488063825682
 20
-1430.304232472483
 30
0.0
 10
1253.506854731777
 20
-1428.942115620799
 30
0.0
 10
1257.061459362463
 20
-1427.737357348751
 30
0.0
 10
1259.153136242505
 20
-1426.611063021361
 30
0.0
 10
1257.533182718382
 20
-1421.719830574906
 30
0.0
 10
1255.815217782347
 20
-1416.532674728381
 30
0.0
 10
1253.065984463876
 20
-1417.712570423157
 30
0.0
 10
1249.772887161725
 20
-1418.676925192105
 30
0.0
 10
1246.104932670863
 20
-1419.751066837713
 30
0.0
 10
1242.498694144458
 20
-1421.041258406791
 30
0.0
 10
1238.816311528044
 20
-1422.059136235797
 30
0.0
 10
1236.045905865227
 20
-1422.824903615865
 30
0.0
 10
1234.631225218281
 20
-1424.321121770174
 30
0.0
 10
1235.864409051121
 20
-1427.128517858002
 30
0.0
 10
1236.979378180907
 20
-1429.666732498952
 30
0.0
 10
1237.225272985522
 20
-1433.25148545169
 30
0.0
 10
1242.149619644151
 20
-1432.938412746347
 30
0.0
  0
SPLINE
  5
82
330
70
100
AcDbEntity
  8
Layer 1
100
AcDbSpline
210
0.0
220
0.0
230
1.0
 70
     9
 71
     3
 72
    23
 73
    19
 74
     0
 42
0.0000000001
 43
0.0000000001
 40
0.0
 40
0.0
 40
0.0
 40
0.0
 40
1.0
 40
1.0
 40
1.0
 40
2.0
 40
2.0
 40
2.0
 40
3.0
 40
3.0
 40
3.0
 40
4.0
 40
4.0
 40
4.0
 40
5.0
 40
5.0
 40
5.0
 40
6.0
 40
6.0
 40
6.0
 40
6.0
 10
1296.204376681377
 20
-1410.584254173265
 30
0.0
 10
1296.084683927473
 20
-1408.286090652424
 30
0.0
 10
1296.495895294134
 20
-1405.243811728263
 30
0.0
 10
1292.733854546279
 20
-1406.169795905514
 30
0.0
 10
1286.53289285191
 20
-1407.696005767209
 30
0.0
 10
1280.361531328283
 20
-1409.420137405485
 30
0.0
 10
1274.316087991294
 20
-1411.469166155928
 30
0.0
 10
1271.095473911473
 20
-1412.560848643456
 30
0.0
 10
1272.053671766602
 20
-1415.635507648572
 30
0.0
 10
1272.404331990341
 20
-1418.122626756702
 30
0.0
 10
1272.80597028591
 20
-1420.971290807438
 30
0.0
 10
1274.60447431085
 20
-1422.232352049754
 30
0.0
 10
1277.376142679364
 20
-1421.746180991451
 30
0.0
 10
1283.528573405965
 20
-1420.667066830387
 30
0.0
 10
1288.83412993545
 20
-1417.268567862056
 30
0.0
 10
1294.627697745494
 20
-1415.181285980908
 30
0.0
 10
1296.365376551857
 20
-1414.555258031223
 30
0.0
 10
1296.073290210957
 20
-1412.284580383219
 30
0.0
 10
1296.204376681377
 20
-1410.584254173265
 30
0.0
  0
SPLINE
  5
83
330
70
100
AcDbEntity
  8
Layer 1
100
AcDbSpline
210
0.0
220
0.0
230
1.0
 70
     9
 71
     3
 72
    23
 73
    19
 74
     0
 42
0.0000000001
 43
0.0000000001
 40
0.0
 40
0.0
 40
0.0
 40
0.0
 40
1.0
 40
1.0
 40
1.0
 40
2.0
 40
2.0
 40
2.0
 40
3.0
 40
3.0
 40
3.0
 40
4.0
 40
4.0
 40
4.0
 40
5.0
 40
5.0
 40
5.0
 40
6.0
 40
6.0
 40
6.0
 40
6.0
 10
1297.013643783261
 20
-1335.439698501546
 30
0.0
 10
1297.793741404721
 20
-1330.258670203593
 30
0.0
 10
1295.919925305154
 20
-1329.044378014119
 30
0.0
 10
1291.629623309118
 20
-1330.366988817817
 30
0.0
 10
1287.769835436589
 20
-1331.556907850829
 30
0.0
 10
1283.842311723611
 20
-1332.845435389148
 30
0.0
 10
1279.859757534474
 20
-1333.245644575943
 30
0.0
 10
1273.615433156119
 20
-1333.873179941731
 30
0.0
 10
1271.456989488833
 20
-1337.183250357661
 30
0.0
 10
1270.78006177465
 20
-1343.082728831528
 30
0.0
 10
1270.237098325264
 20
-1347.814840783425
 30
0.0
 10
1272.000266167541
 20
-1348.263776706311
 30
0.0
 10
1275.683647202411
 20
-1347.464904902486
 30
0.0
 10
1280.053470292061
 20
-1346.517112133833
 30
0.0
 10
1284.400975792663
 20
-1345.085614987767
 30
0.0
 10
1288.816217133711
 20
-1344.816668462883
 30
0.0
 10
1295.534046359746
 20
-1344.407473509969
 30
0.0
 10
1297.721816122115
 20
-1340.951281616262
 30
0.0
 10
1297.013643783261
 20
-1335.439698501546
 30
0.0
  0
SPLINE
  5
84
330
70
100
AcDbEntity
  8
Layer 1
100
AcDbSpline
210
0.0
220
0.0
230
1.0
 70
     9
 71
     3
 72
    23
 73
    19
 74
     0
 42
0.0000000001
 43
0.0000000001
 40
0.0
 40
0.0
 40
0.0
 40
0.0
 40
1.0
 40
1.0
 40
1.0
 40
2.0
 40
2.0
 40
2.0
 40
3.0
 40
3.0
 40
3.0
 40
4.0
 40
4.0
 40
4.0
 40
5.0
 40
5.0
 40
5.0
 40
6.0
 40
6.0
 40
6.0
 40
6.0
 10
1295.97526901063
 20
-1359.835035515241
 30
0.0
 10
1296.238694868749
 20
-1351.718128377766
 30
0.0
 10
1296.252633573489
 20
-1351.771592707324
 30
0.0
 10
1289.021362761479
 20
-1353.657742211368
 30
0.0
 10
1284.693218748222
 20
-1354.786659834311
 30
0.0
 10
1280.310983946767
 20
-1355.707299536285
 30
0.0
 10
1275.957194282935
 20
-1356.738979032203
 30
0.0
 10
1270.987762179058
 20
-1357.916564660741
 30
0.0
 10
1268.932028363484
 20
-1361.843559799245
 30
0.0
 10
1270.254081227456
 20
-1368.143815188052
 30
0.0
 10
1271.438587266284
 20
-1373.788657801591
 30
0.0
 10
1275.521355260987
 20
-1370.849724976199
 30
0.0
 10
1278.451458934924
 20
-1370.504330920403
 30
0.0
 10
1281.820338155683
 20
-1370.107234449972
 30
0.0
 10
1285.097402032017
 20
-1368.990023772863
 30
0.0
 10
1288.451657358897
 20
-1368.396356327301
 30
0.0
 10
1293.793333144344
 20
-1367.450912778547
 30
0.0
 10
1297.296000438409
 20
-1365.175360499246
 30
0.0
 10
1295.97526901063
 20
-1359.835035515241
 30
0.0
  0
SPLINE
  5
85
330
70
100
AcDbEntity
  8
Layer 1
100
AcDbSpline
210
0.0
220
0.0
230
1.0
 70
     9
 71
     3
 72
    23
 73
    19
 74
     0
 42
0.0000000001
 43
0.0000000001
 40
0.0
 40
0.0
 40
0.0
 40
0.0
 40
1.0
 40
1.0
 40
1.0
 40
2.0
 40
2.0
 40
2.0
 40
3.0
 40
3.0
 40
3.0
 40
4.0
 40
4.0
 40
4.0
 40
5.0
 40
5.0
 40
5.0
 40
6.0
 40
6.0
 40
6.0
 40
6.0
 10
1271.668438856666
 20
-1390.379161964696
 30
0.0
 10
1271.583044713301
 20
-1400.45899894328
 30
0.0
 10
1271.585844200348
 20
-1400.470196891468
 30
0.0
 10
1280.808078877606
 20
-1398.165612169572
 30
0.0
 10
1283.073549088169
 20
-1397.599489327336
 30
0.0
 10
1285.32829119452
 20
-1396.980704805677
 30
0.0
 10
1287.564063350181
 20
-1396.306948538358
 30
0.0
 10
1297.600635528941
 20
-1393.282406224441
 30
0.0
 10
1298.074864719421
 20
-1392.33054147463
 30
0.0
 10
1296.610928761904
 20
-1381.877609222259
 30
0.0
 10
1296.150873198154
 20
-1378.592655882427
 30
0.0
 10
1295.120290004859
 20
-1377.33613646525
 30
0.0
 10
1291.725725979859
 20
-1378.351234384039
 30
0.0
 10
1287.659167602467
 20
-1379.567268911605
 30
0.0
 10
1283.550049191219
 20
-1380.806873945507
 30
0.0
 10
1279.36904465103
 20
-1381.434546349121
 30
0.0
 10
1273.466668805951
 20
-1382.320711249062
 30
0.0
 10
1270.437888107799
 20
-1384.998547859408
 30
0.0
 10
1271.668438856666
 20
-1390.379161964696
 30
0.0
  0
SPLINE
  5
86
330
70
100
AcDbEntity
  8
Layer 1
100
AcDbSpline
210
0.0
220
0.0
230
1.0
 70
     9
 71
     3
 72
    47
 73
    43
 74
     0
 42
0.0000000001
 43
0.0000000001
 40
0.0
 40
0.0
 40
0.0
 40
0.0
 40
1.0
 40
1.0
 40
1.0
 40
2.0
 40
2.0
 40
2.0
 40
3.0
 40
3.0
 40
3.0
 40
4.0
 40
4.0
 40
4.0
 40
5.0
 40
5.0
 40
5.0
 40
6.0
 40
6.0
 40
6.0
 40
7.0
 40
7.0
 40
7.0
 40
8.0
 40
8.0
 40
8.0
 40
9.0
 40
9.0
 40
9.0
 40
10.0
 40
10.0
 40
10.0
 40
11.0
 40
11.0
 40
11.0
 40
12.0
 40
12.0
 40
12.0
 40
13.0
 40
13.0
 40
13.0
 40
14.0
 40
14.0
 40
14.0
 40
14.0
 10
1308.826754780897
 20
-1444.482557642268
 30
0.0
 10
1314.793812480555
 20
-1444.892848897803
 30
0.0
 10
1319.733497587447
 20
-1442.483214892707
 30
0.0
 10
1324.085721104679
 20
-1438.803670917006
 30
0.0
 10
1329.009451093085
 20
-1434.640931561544
 30
0.0
 10
1334.540591463466
 20
-1432.421975905001
 30
0.0
 10
1341.001905453251
 20
-1432.096491487855
 30
0.0
 10
1345.040801766321
 20
-1431.893049044514
 30
0.0
 10
1349.10136963297
 20
-1431.33311248135
 30
0.0
 10
1353.058532670353
 20
-1430.492248371813
 30
0.0
 10
1358.055577896472
 20
-1429.430440130678
 30
0.0
 10
1361.476648952673
 20
-1426.362554709607
 30
0.0
 10
1362.468763670109
 20
-1421.167920513066
 30
0.0
 10
1363.505768064464
 20
-1415.738168558202
 30
0.0
 10
1359.419750315566
 20
-1413.480450773311
 30
0.0
 10
1355.712172315727
 20
-1411.471515375828
 30
0.0
 10
1349.06002336273
 20
-1407.867146436927
 30
0.0
 10
1341.666656377621
 20
-1406.503737514298
 30
0.0
 10
1334.263912089744
 20
-1405.325016429475
 30
0.0
 10
1325.741510020696
 20
-1403.968028707904
 30
0.0
 10
1325.628316775181
 20
-1403.976407592216
 30
0.0
 10
1326.87677053737
 20
-1412.622946356145
 30
0.0
 10
1327.583592074781
 20
-1417.518250783762
 30
0.0
 10
1327.770629132485
 20
-1422.123504861056
 30
0.0
 10
1323.039828828368
 20
-1425.193230504383
 30
0.0
 10
1318.361768511006
 20
-1428.228735844497
 30
0.0
 10
1313.376586845383
 20
-1430.58355471859
 30
0.0
 10
1307.857466650157
 20
-1431.800920470772
 30
0.0
 10
1304.447221582326
 20
-1432.553140682748
 30
0.0
 10
1302.016209676143
 20
-1431.971395528178
 30
0.0
 10
1300.646242514627
 20
-1428.475325626668
 30
0.0
 10
1299.880592595553
 20
-1426.521479435842
 30
0.0
 10
1299.173634020315
 20
-1424.211726430165
 30
0.0
 10
1296.187638489589
 20
-1425.093153736643
 30
0.0
 10
1291.799961328699
 20
-1426.388474435835
 30
0.0
 10
1288.242694248793
 20
-1429.211140453013
 30
0.0
 10
1284.542457561139
 20
-1431.69630187789
 30
0.0
 10
1282.757383243293
 20
-1432.895226253853
 30
0.0
 10
1283.903058634858
 20
-1434.336002818521
 30
0.0
 10
1285.297829643152
 20
-1435.222794177107
 30
0.0
 10
1292.544977266318
 20
-1439.830280013308
 30
0.0
 10
1300.029219907892
 20
-1443.853358245718
 30
0.0
 10
1308.826754780897
 20
-1444.482557642268
 30
0.0
  0
SPLINE
  5
87
330
70
100
AcDbEntity
  8
Layer 1
100
AcDbSpline
210
0.0
220
0.0
230
1.0
 70
     9
 71
     3
 72
   131
 73
   127
 74
     0
 42
0.0000000001
 43
0.0000000001
 40
0.0
 40
0.0
 40
0.0
 40
0.0
 40
1.0
 40
1.0
 40
1.0
 40
2.0
 40
2.0
 40
2.0
 40
3.0
 40
3.0
 40
3.0
 40
4.0
 40
4.0
 40
4.0
 40
5.0
 40
5.0
 40
5.0
 40
6.0
 40
6.0
 40
6.0
 40
7.0
 40
7.0
 40
7.0
 40
8.0
 40
8.0
 40
8.0
 40
9.0
 40
9.0
 40
9.0
 40
10.0
 40
10.0
 40
10.0
 40
11.0
 40
11.0
 40
11.0
 40
12.0
 40
12.0
 40
12.0
 40
13.0
 40
13.0
 40
13.0
 40
14.0
 40
14.0
 40
14.0
 40
15.0
 40
15.0
 40
15.0
 40
16.0
 40
16.0
 40
16.0
 40
17.0
 40
17.0
 40
17.0
 40
18.0
 40
18.0
 40
18.0
 40
19.0
 40
19.0
 40
19.0
 40
20.0
 40
20.0
 40
20.0
 40
21.0
 40
21.0
 40
21.0
 40
22.0
 40
22.0
 40
22.0
 40
23.0
 40
23.0
 40
23.0
 40
24.0
 40
24.0
 40
24.0
 40
25.0
 40
25.0
 40
25.0
 40
26.0
 40
26.0
 40
26.0
 40
27.0
 40
27.0
 40
27.0
 40
28.0
 40
28.0
 40
28.0
 40
29.0
 40
29.0
 40
29.0
 40
30.0
 40
30.0
 40
30.0
 40
31.0
 40
31.0
 40
31.0
 40
32.0
 40
32.0
 40
32.0
 40
33.0
 40
33.0
 40
33.0
 40
34.0
 40
34.0
 40
34.0
 40
35.0
 40
35.0
 40
35.0
 40
36.0
 40
36.0
 40
36.0
 40
37.0
 40
37.0
 40
37.0
 40
38.0
 40
38.0
 40
38.0
 40
39.0
 40
39.0
 40
39.0
 40
40.0
 40
40.0
 40
40.0
 40
41.0
 40
41.0
 40
41.0
 40
42.0
 40
42.0
 40
42.0
 40
42.0
 10
1229.764405081954
 20
-1361.215691627303
 30
0.0
 10
1230.336126898282
 20
-1352.690313879715
 30
0.0
 10
1230.9198884666
 20
-1344.165719205428
 30
0.0
 10
1231.472728427983
 20
-1335.639108117391
 30
0.0
 10
1231.655713081362
 20
-1332.816990251524
 30
0.0
 10
1232.564342396597
 20
-1330.763497983271
 30
0.0
 10
1235.775510654737
 20
-1330.251407198737
 30
0.0
 10
1260.083290285076
 20
-1326.374783250258
 30
0.0
 10
1283.54255126437
 20
-1318.794888205089
 30
0.0
 10
1307.583606340315
 20
-1313.751817845763
 30
0.0
 10
1311.762751081414
 20
-1312.875186863248
 30
0.0
 10
1315.993461199321
 20
-1312.205013156277
 30
0.0
 10
1320.30743158585
 20
-1312.517850939626
 30
0.0
 10
1329.011643698324
 20
-1313.149105903589
 30
0.0
 10
1332.345402081579
 20
-1317.363077829706
 30
0.0
 10
1329.80180381169
 20
-1325.745114009731
 30
0.0
 10
1324.0280869098
 20
-1344.771250211483
 30
0.0
 10
1321.47751928754
 20
-1364.070678994938
 30
0.0
 10
1322.737112267421
 20
-1383.967866781948
 30
0.0
 10
1323.121659988217
 20
-1390.042244677372
 30
0.0
 10
1324.426632065833
 20
-1392.663895778436
 30
0.0
 10
1331.317970758315
 20
-1393.239102270951
 30
0.0
 10
1349.657821519949
 20
-1394.769893111455
 30
0.0
 10
1366.938722257995
 20
-1400.096044468728
 30
0.0
 10
1381.940938423542
 20
-1411.387843993723
 30
0.0
 10
1390.432506981404
 20
-1417.779209960985
 30
0.0
 10
1394.312380684078
 20
-1426.720575822366
 30
0.0
 10
1392.132794037692
 20
-1435.20732847943
 30
0.0
 10
1389.897021882032
 20
-1443.912793509187
 30
0.0
 10
1381.932892345385
 20
-1450.44292006521
 30
0.0
 10
1371.135329533686
 20
-1451.22278276468
 30
0.0
 10
1361.617034418532
 20
-1451.910281968414
 30
0.0
 10
1352.676020940136
 20
-1454.200575602584
 30
0.0
 10
1343.838901711819
 20
-1457.642221909749
 30
0.0
 10
1336.46409356392
 20
-1460.51441731315
 30
0.0
 10
1328.938367614277
 20
-1460.250678225709
 30
0.0
 10
1321.273548269722
 20
-1457.751969632742
 30
0.0
 10
1305.600120825082
 20
-1452.642612118574
 30
0.0
 10
1290.147069783894
 20
-1447.065015924667
 30
0.0
 10
1275.639873404942
 20
-1439.147400942043
 30
0.0
 10
1272.896630597217
 20
-1437.65020394611
 30
0.0
 10
1270.040527350131
 20
-1437.19617804677
 30
0.0
 10
1267.972861455147
 20
-1439.518068688596
 30
0.0
 10
1262.478457010951
 20
-1445.68813814128
 30
0.0
 10
1256.074943619122
 20
-1443.838323238358
 30
0.0
 10
1249.593739567517
 20
-1442.207651398441
 30
0.0
 10
1240.468752805704
 20
-1439.911797943836
 30
0.0
 10
1240.470524509044
 20
-1439.904280440156
 30
0.0
 10
1239.282367390955
 20
-1449.679971749023
 30
0.0
 10
1239.256584702552
 20
-1449.892106305991
 30
0.0
 10
1239.251308746194
 20
-1450.10682500485
 30
0.0
 10
1239.222844031739
 20
-1450.318528871505
 30
0.0
 10
1238.874523239485
 20
-1452.908817886908
 30
0.0
 10
1238.502475326239
 20
-1455.611947764841
 30
0.0
 10
1235.54037331958
 20
-1456.502497875264
 30
0.0
 10
1232.146778347789
 20
-1457.522842385164
 30
0.0
 10
1230.459255386293
 20
-1454.936977733907
 30
0.0
 10
1228.850323618864
 20
-1452.705492904561
 30
0.0
 10
1225.293242518868
 20
-1447.77205280724
 30
0.0
 10
1223.355596156934
 20
-1441.966621436701
 30
0.0
 10
1221.88886071237
 20
-1436.264399127101
 30
0.0
 10
1220.05300409102
 20
-1429.127038380595
 30
0.0
 10
1216.800235063818
 20
-1425.998621393433
 30
0.0
 10
1209.067415591573
 20
-1426.572222585682
 30
0.0
 10
1202.961597303156
 20
-1427.025152182401
 30
0.0
 10
1196.759451210422
 20
-1425.499177242693
 30
0.0
 10
1190.762597571698
 20
-1423.784834020667
 30
0.0
 10
1187.191386892844
 20
-1422.763980513124
 30
0.0
 10
1184.030129769164
 20
-1421.05378757959
 30
0.0
 10
1181.30724197303
 20
-1418.577357422009
 30
0.0
 10
1178.853785228386
 20
-1416.34599005366
 30
0.0
 10
1178.226504361422
 20
-1413.481194692946
 30
0.0
 10
1179.141085033741
 20
-1410.36706879351
 30
0.0
 10
1180.194861879341
 20
-1406.778909471917
 30
0.0
 10
1183.280356661245
 20
-1407.846551609136
 30
0.0
 10
1185.608487418434
 20
-1408.058294629454
 30
0.0
 10
1193.05116844461
 20
-1408.735026575314
 30
0.0
 10
1200.478011813295
 20
-1409.627573522653
 30
0.0
 10
1207.887255609563
 20
-1410.614676570969
 30
0.0
 10
1212.354121057915
 20
-1411.209773125303
 30
0.0
 10
1213.644909720384
 20
-1409.528514750202
 30
0.0
 10
1212.770383247361
 20
-1405.224391510424
 30
0.0
 10
1210.857296021799
 20
-1395.808796458563
 30
0.0
 10
1209.154914244433
 20
-1386.350093221537
 30
0.0
 10
1207.405831933139
 20
-1376.901687398409
 30
0.0
 10
1206.899614198355
 20
-1374.167156281148
 30
0.0
 10
1206.054971760142
 20
-1371.008551818269
 30
0.0
 10
1208.927186740377
 20
-1369.284890023979
 30
0.0
 10
1212.127421337565
 20
-1367.364422332563
 30
0.0
 10
1214.63289372616
 20
-1369.89570677481
 30
0.0
 10
1216.781686015023
 20
-1371.870323984918
 30
0.0
 10
1221.928807239086
 20
-1376.600282485238
 30
0.0
 10
1223.688089080113
 20
-1383.052845630898
 30
0.0
 10
1224.922604137562
 20
-1389.587239936407
 30
0.0
 10
1225.922647472158
 20
-1394.880580522409
 30
0.0
 10
1227.651281781906
 20
-1399.871184970636
 30
0.0
 10
1229.565073773439
 20
-1404.87995671942
 30
0.0
 10
1231.089981775776
 20
-1408.870968100194
 30
0.0
 10
1233.596354698668
 20
-1410.079485124084
 30
0.0
 10
1237.487984289257
 20
-1409.32143101602
 30
0.0
 10
1239.794203676667
 20
-1408.87226017114
 30
0.0
 10
1242.114195365742
 20
-1408.47633831066
 30
0.0
 10
1244.397108534062
 20
-1407.927873771341
 30
0.0
 10
1255.761782818037
 20
-1405.197297174245
 30
0.0
 10
1256.154836672556
 20
-1404.736145307875
 30
0.0
 10
1256.020647274185
 20
-1392.912325782863
 30
0.0
 10
1255.995637870665
 20
-1390.71020620227
 30
0.0
 10
1257.107053805353
 20
-1387.453600115897
 30
0.0
 10
1254.34592756114
 20
-1386.657410338123
 30
0.0
 10
1251.201535878659
 20
-1385.750689764054
 30
0.0
 10
1247.943990104328
 20
-1387.173064106175
 30
0.0
 10
1245.894442567824
 20
-1389.924078916401
 30
0.0
 10
1244.248265876566
 20
-1392.133637693345
 30
0.0
 10
1243.01870375774
 20
-1394.668171889783
 30
0.0
 10
1241.723412423795
 20
-1397.121462231355
 30
0.0
 10
1239.304998209327
 20
-1401.702010346032
 30
0.0
 10
1237.026656231394
 20
-1400.389187958584
 30
0.0
 10
1234.960380291519
 20
-1396.939162767112
 30
0.0
 10
1232.517123076608
 20
-1392.85958579611
 30
0.0
 10
1230.812861923323
 20
-1388.41360882803
 30
0.0
 10
1230.666241236313
 20
-1383.655185613259
 30
0.0
 10
1230.436135147109
 20
-1376.1877594708
 30
0.0
 10
1230.605161518913
 20
-1368.708039077532
 30
0.0
 10
1230.605161518913
 20
-1361.23352612171
 30
0.0
 10
1230.324909373261
 20
-1361.227574764632
 30
0.0
 10
1230.044657227607
 20
-1361.221623407551
 30
0.0
 10
1229.764405081954
 20
-1361.215691627303
 30
0.0
  0
HATCH
  5
88
330
70
100
AcDbEntity
  8
Layer 1
 62
   246
420
  8590872
440
 33554687
100
AcDbHatch
 10
0.0
 20
0.0
 30
0.0
210
0.0
220
0.0
230
1.0
  2
SOLID
 70
     1
 71
     1
 91
        9
 92
        1
 93
        1
 72
     4
 94
        3
 73
     0
 74
     0
 95
       17
 96
       13
 40
0.0
 40
0.0
 40
0.0
 40
0.0
 40
1.0
 40
1.0
 40
1.0
 40
2.0
 40
2.0
 40
2.0
 40
3.0
 40
3.0
 40
3.0
 40
4.0
 40
4.0
 40
4.0
 40
4.0
 10
1258.433648494467
 20
-1343.475342207317
 10
1258.587444090586
 20
-1338.981167077623
 10
1258.176741721569
 20
-1337.976855993545
 10
1254.787639632837
 20
-1338.873690267201
 10
1250.818162767811
 20
-1339.92404606132
 10
1243.838884943743
 20
-1336.870314690148
 10
1244.053075068124
 20
-1345.177038795542
 10
1244.133721829608
 20
-1348.304927208226
 10
1243.57066276166
 20
-1351.803385483303
 10
1248.64266767942
 20
-1351.781909698051
 10
1256.017544346232
 20
-1351.750684650213
 10
1258.208270210311
 20
-1350.061478081121
 10
1258.433648494467
 20
-1343.475342207317
 97
        0
 97
        1
330
7F
 92
        1
 93
        1
 72
     4
 94
        3
 73
     0
 74
     0
 95
       17
 96
       13
 40
0.0
 40
0.0
 40
0.0
 40
0.0
 40
1.0
 40
1.0
 40
1.0
 40
2.0
 40
2.0
 40
2.0
 40
3.0
 40
3.0
 40
3.0
 40
4.0
 40
4.0
 40
4.0
 40
4.0
 10
1257.105056968439
 20
-1367.298350522875
 10
1256.415100872227
 20
-1365.177905487473
 10
1258.646243106999
 20
-1360.644478808621
 10
1253.454153898687
 20
-1361.321582714297
 10
1249.546451728615
 20
-1361.831206817935
 10
1243.357471055735
 20
-1360.306915485822
 10
1244.008645446765
 20
-1367.551478967101
 10
1244.276162862878
 20
-1370.52756862058
 10
1241.839786904591
 20
-1375.516548191704
 10
1247.914898931232
 20
-1375.820498093102
 10
1254.638150939869
 20
-1376.156906382779
 10
1256.83748082183
 20
-1374.076398085677
 10
1257.105056968439
 20
-1367.298350522875
 97
        0
 97
        1
330
80
 92
        1
 93
        1
 72
     4
 94
        3
 73
     0
 74
     0
 95
       23
 96
       19
 40
0.0
 40
0.0
 40
0.0
 40
0.0
 40
1.0
 40
1.0
 40
1.0
 40
2.0
 40
2.0
 40
2.0
 40
3.0
 40
3.0
 40
3.0
 40
4.0
 40
4.0
 40
4.0
 40
5.0
 40
5.0
 40
5.0
 40
6.0
 40
6.0
 40
6.0
 40
6.0
 10
1242.149619644151
 20
-1432.938412746347
 10
1245.499577856299
 20
-1431.755776295025
 10
1249.488063825682
 20
-1430.304232472483
 10
1253.506854731777
 20
-1428.942115620799
 10
1257.061459362463
 20
-1427.737357348751
 10
1259.153136242505
 20
-1426.611063021361
 10
1257.533182718382
 20
-1421.719830574906
 10
1255.815217782347
 20
-1416.532674728381
 10
1253.065984463876
 20
-1417.712570423157
 10
1249.772887161725
 20
-1418.676925192105
 10
1246.104932670863
 20
-1419.751066837713
 10
1242.498694144458
 20
-1421.041258406791
 10
1238.816311528044
 20
-1422.059136235797
 10
1236.045905865227
 20
-1422.824903615865
 10
1234.631225218281
 20
-1424.321121770174
 10
1235.864409051121
 20
-1427.128517858002
 10
1236.979378180907
 20
-1429.666732498952
 10
1237.225272985522
 20
-1433.25148545169
 10
1242.149619644151
 20
-1432.938412746347
 97
        0
 97
        1
330
81
 92
        1
 93
        1
 72
     4
 94
        3
 73
     0
 74
     0
 95
       23
 96
       19
 40
0.0
 40
0.0
 40
0.0
 40
0.0
 40
1.0
 40
1.0
 40
1.0
 40
2.0
 40
2.0
 40
2.0
 40
3.0
 40
3.0
 40
3.0
 40
4.0
 40
4.0
 40
4.0
 40
5.0
 40
5.0
 40
5.0
 40
6.0
 40
6.0
 40
6.0
 40
6.0
 10
1296.204376681377
 20
-1410.584254173265
 10
1296.084683927473
 20
-1408.286090652424
 10
1296.495895294134
 20
-1405.243811728263
 10
1292.733854546279
 20
-1406.169795905514
 10
1286.53289285191
 20
-1407.696005767209
 10
1280.361531328283
 20
-1409.420137405485
 10
1274.316087991294
 20
-1411.469166155928
 10
1271.095473911473
 20
-1412.560848643456
 10
1272.053671766602
 20
-1415.635507648572
 10
1272.404331990341
 20
-1418.122626756702
 10
1272.80597028591
 20
-1420.971290807438
 10
1274.60447431085
 20
-1422.232352049754
 10
1277.376142679364
 20
-1421.746180991451
 10
1283.528573405965
 20
-1420.667066830387
 10
1288.83412993545
 20
-1417.268567862056
 10
1294.627697745494
 20
-1415.181285980908
 10
1296.365376551857
 20
-1414.555258031223
 10
1296.073290210957
 20
-1412.284580383219
 10
1296.204376681377
 20
-1410.584254173265
 97
        0
 97
        1
330
82
 92
        1
 93
        1
 72
     4
 94
        3
 73
     0
 74
     0
 95
       23
 96
       19
 40
0.0
 40
0.0
 40
0.0
 40
0.0
 40
1.0
 40
1.0
 40
1.0
 40
2.0
 40
2.0
 40
2.0
 40
3.0
 40
3.0
 40
3.0
 40
4.0
 40
4.0
 40
4.0
 40
5.0
 40
5.0
 40
5.0
 40
6.0
 40
6.0
 40
6.0
 40
6.0
 10
1297.013643783261
 20
-1335.439698501546
 10
1297.793741404721
 20
-1330.258670203593
 10
1295.919925305154
 20
-1329.044378014119
 10
1291.629623309118
 20
-1330.366988817817
 10
1287.769835436589
 20
-1331.556907850829
 10
1283.842311723611
 20
-1332.845435389148
 10
1279.859757534474
 20
-1333.245644575943
 10
1273.615433156119
 20
-1333.873179941731
 10
1271.456989488833
 20
-1337.183250357661
 10
1270.78006177465
 20
-1343.082728831528
 10
1270.237098325264
 20
-1347.814840783425
 10
1272.000266167541
 20
-1348.263776706311
 10
1275.683647202411
 20
-1347.464904902486
 10
1280.053470292061
 20
-1346.517112133833
 10
1284.400975792663
 20
-1345.085614987767
 10
1288.816217133711
 20
-1344.816668462883
 10
1295.534046359746
 20
-1344.407473509969
 10
1297.721816122115
 20
-1340.951281616262
 10
1297.013643783261
 20
-1335.439698501546
 97
        0
 97
        1
330
83
 92
        1
 93
        1
 72
     4
 94
        3
 73
     0
 74
     0
 95
       23
 96
       19
 40
0.0
 40
0.0
 40
0.0
 40
0.0
 40
1.0
 40
1.0
 40
1.0
 40
2.0
 40
2.0
 40
2.0
 40
3.0
 40
3.0
 40
3.0
 40
4.0
 40
4.0
 40
4.0
 40
5.0
 40
5.0
 40
5.0
 40
6.0
 40
6.0
 40
6.0
 40
6.0
 10
1295.97526901063
 20
-1359.835035515241
 10
1296.238694868749
 20
-1351.718128377766
 10
1296.252633573489
 20
-1351.771592707324
 10
1289.021362761479
 20
-1353.657742211368
 10
1284.693218748222
 20
-1354.786659834311
 10
1280.310983946767
 20
-1355.707299536285
 10
1275.957194282935
 20
-1356.738979032203
 10
1270.987762179058
 20
-1357.916564660741
 10
1268.932028363484
 20
-1361.843559799245
 10
1270.254081227456
 20
-1368.143815188052
 10
1271.438587266284
 20
-1373.788657801591
 10
1275.521355260987
 20
-1370.849724976199
 10
1278.451458934924
 20
-1370.504330920403
 10
1281.820338155683
 20
-1370.107234449972
 10
1285.097402032017
 20
-1368.990023772863
 10
1288.451657358897
 20
-1368.396356327301
 10
1293.793333144344
 20
-1367.450912778547
 10
1297.296000438409
 20
-1365.175360499246
 10
1295.97526901063
 20
-1359.835035515241
 97
        0
 97
        1
330
84
 92
        1
 93
        1
 72
     4
 94
        3
 73
     0
 74
     0
 95
       23
 96
       19
 40
0.0
 40
0.0
 40
0.0
 40
0.0
 40
1.0
 40
1.0
 40
1.0
 40
2.0
 40
2.0
 40
2.0
 40
3.0
 40
3.0
 40
3.0
 40
4.0
 40
4.0
 40
4.0
 40
5.0
 40
5.0
 40
5.0
 40
6.0
 40
6.0
 40
6.0
 40
6.0
 10
1271.668438856666
 20
-1390.379161964696
 10
1271.583044713301
 20
-1400.45899894328
 10
1271.585844200348
 20
-1400.470196891468
 10
1280.808078877606
 20
-1398.165612169572
 10
1283.073549088169
 20
-1397.599489327336
 10
1285.32829119452
 20
-1396.980704805677
 10
1287.564063350181
 20
-1396.306948538358
 10
1297.600635528941
 20
-1393.282406224441
 10
1298.074864719421
 20
-1392.33054147463
 10
1296.610928761904
 20
-1381.877609222259
 10
1296.150873198154
 20
-1378.592655882427
 10
1295.120290004859
 20
-1377.33613646525
 10
1291.725725979859
 20
-1378.351234384039
 10
1287.659167602467
 20
-1379.567268911605
 10
1283.550049191219
 20
-1380.806873945507
 10
1279.36904465103
 20
-1381.434546349121
 10
1273.466668805951
 20
-1382.320711249062
 10
1270.437888107799
 20
-1384.998547859408
 10
1271.668438856666
 20
-1390.379161964696
 97
        0
 97
        1
330
85
 92
        1
 93
        1
 72
     4
 94
        3
 73
     0
 74
     0
 95
       47
 96
       43
 40
0.0
 40
0.0
 40
0.0
 40
0.0
 40
1.0
 40
1.0
 40
1.0
 40
2.0
 40
2.0
 40
2.0
 40
3.0
 40
3.0
 40
3.0
 40
4.0
 40
4.0
 40
4.0
 40
5.0
 40
5.0
 40
5.0
 40
6.0
 40
6.0
 40
6.0
 40
7.0
 40
7.0
 40
7.0
 40
8.0
 40
8.0
 40
8.0
 40
9.0
 40
9.0
 40
9.0
 40
10.0
 40
10.0
 40
10.0
 40
11.0
 40
11.0
 40
11.0
 40
12.0
 40
12.0
 40
12.0
 40
13.0
 40
13.0
 40
13.0
 40
14.0
 40
14.0
 40
14.0
 40
14.0
 10
1308.826754780897
 20
-1444.482557642268
 10
1314.793812480555
 20
-1444.892848897803
 10
1319.733497587447
 20
-1442.483214892707
 10
1324.085721104679
 20
-1438.803670917006
 10
1329.009451093085
 20
-1434.640931561544
 10
1334.540591463466
 20
-1432.421975905001
 10
1341.001905453251
 20
-1432.096491487855
 10
1345.040801766321
 20
-1431.893049044514
 10
1349.10136963297
 20
-1431.33311248135
 10
1353.058532670353
 20
-1430.492248371813
 10
1358.055577896472
 20
-1429.430440130678
 10
1361.476648952673
 20
-1426.362554709607
 10
1362.468763670109
 20
-1421.167920513066
 10
1363.505768064464
 20
-1415.738168558202
 10
1359.419750315566
 20
-1413.480450773311
 10
1355.712172315727
 20
-1411.471515375828
 10
1349.06002336273
 20
-1407.867146436927
 10
1341.666656377621
 20
-1406.503737514298
 10
1334.263912089744
 20
-1405.325016429475
 10
1325.741510020696
 20
-1403.968028707904
 10
1325.628316775181
 20
-1403.976407592216
 10
1326.87677053737
 20
-1412.622946356145
 10
1327.583592074781
 20
-1417.518250783762
 10
1327.770629132485
 20
-1422.123504861056
 10
1323.039828828368
 20
-1425.193230504383
 10
1318.361768511006
 20
-1428.228735844497
 10
1313.376586845383
 20
-1430.58355471859
 10
1307.857466650157
 20
-1431.800920470772
 10
1304.447221582326
 20
-1432.553140682748
 10
1302.016209676143
 20
-1431.971395528178
 10
1300.646242514627
 20
-1428.475325626668
 10
1299.880592595553
 20
-1426.521479435842
 10
1299.173634020315
 20
-1424.211726430165
 10
1296.187638489589
 20
-1425.093153736643
 10
1291.799961328699
 20
-1426.388474435835
 10
1288.242694248793
 20
-1429.211140453013
 10
1284.542457561139
 20
-1431.69630187789
 10
1282.757383243293
 20
-1432.895226253853
 10
1283.903058634858
 20
-1434.336002818521
 10
1285.297829643152
 20
-1435.222794177107
 10
1292.544977266318
 20
-1439.830280013308
 10
1300.029219907892
 20
-1443.853358245718
 10
1308.826754780897
 20
-1444.482557642268
 97
        0
 97
        1
330
86
 92
        1
 93
        1
 72
     4
 94
        3
 73
     0
 74
     0
 95
      131
 96
      127
 40
0.0
 40
0.0
 40
0.0
 40
0.0
 40
1.0
 40
1.0
 40
1.0
 40
2.0
 40
2.0
 40
2.0
 40
3.0
 40
3.0
 40
3.0
 40
4.0
 40
4.0
 40
4.0
 40
5.0
 40
5.0
 40
5.0
 40
6.0
 40
6.0
 40
6.0
 40
7.0
 40
7.0
 40
7.0
 40
8.0
 40
8.0
 40
8.0
 40
9.0
 40
9.0
 40
9.0
 40
10.0
 40
10.0
 40
10.0
 40
11.0
 40
11.0
 40
11.0
 40
12.0
 40
12.0
 40
12.0
 40
13.0
 40
13.0
 40
13.0
 40
14.0
 40
14.0
 40
14.0
 40
15.0
 40
15.0
 40
15.0
 40
16.0
 40
16.0
 40
16.0
 40
17.0
 40
17.0
 40
17.0
 40
18.0
 40
18.0
 40
18.0
 40
19.0
 40
19.0
 40
19.0
 40
20.0
 40
20.0
 40
20.0
 40
21.0
 40
21.0
 40
21.0
 40
22.0
 40
22.0
 40
22.0
 40
23.0
 40
23.0
 40
23.0
 40
24.0
 40
24.0
 40
24.0
 40
25.0
 40
25.0
 40
25.0
 40
26.0
 40
26.0
 40
26.0
 40
27.0
 40
27.0
 40
27.0
 40
28.0
 40
28.0
 40
28.0
 40
29.0
 40
29.0
 40
29.0
 40
30.0
 40
30.0
 40
30.0
 40
31.0
 40
31.0
 40
31.0
 40
32.0
 40
32.0
 40
32.0
 40
33.0
 40
33.0
 40
33.0
 40
34.0
 40
34.0
 40
34.0
 40
35.0
 40
35.0
 40
35.0
 40
36.0
 40
36.0
 40
36.0
 40
37.0
 40
37.0
 40
37.0
 40
38.0
 40
38.0
 40
38.0
 40
39.0
 40
39.0
 40
39.0
 40
40.0
 40
40.0
 40
40.0
 40
41.0
 40
41.0
 40
41.0
 40
42.0
 40
42.0
 40
42.0
 40
42.0
 10
1229.764405081954
 20
-1361.215691627303
 10
1230.336126898282
 20
-1352.690313879715
 10
1230.9198884666
 20
-1344.165719205428
 10
1231.472728427983
 20
-1335.639108117391
 10
1231.655713081362
 20
-1332.816990251524
 10
1232.564342396597
 20
-1330.763497983271
 10
1235.775510654737
 20
-1330.251407198737
 10
1260.083290285076
 20
-1326.374783250258
 10
1283.54255126437
 20
-1318.794888205089
 10
1307.583606340315
 20
-1313.751817845763
 10
1311.762751081414
 20
-1312.875186863248
 10
1315.993461199321
 20
-1312.205013156277
 10
1320.30743158585
 20
-1312.517850939626
 10
1329.011643698324
 20
-1313.149105903589
 10
1332.345402081579
 20
-1317.363077829706
 10
1329.80180381169
 20
-1325.745114009731
 10
1324.0280869098
 20
-1344.771250211483
 10
1321.47751928754
 20
-1364.070678994938
 10
1322.737112267421
 20
-1383.967866781948
 10
1323.121659988217
 20
-1390.042244677372
 10
1324.426632065833
 20
-1392.663895778436
 10
1331.317970758315
 20
-1393.239102270951
 10
1349.657821519949
 20
-1394.769893111455
 10
1366.938722257995
 20
-1400.096044468728
 10
1381.940938423542
 20
-1411.387843993723
 10
1390.432506981404
 20
-1417.779209960985
 10
1394.312380684078
 20
-1426.720575822366
 10
1392.132794037692
 20
-1435.20732847943
 10
1389.897021882032
 20
-1443.912793509187
 10
1381.932892345385
 20
-1450.44292006521
 10
1371.135329533686
 20
-1451.22278276468
 10
1361.617034418532
 20
-1451.910281968414
 10
1352.676020940136
 20
-1454.200575602584
 10
1343.838901711819
 20
-1457.642221909749
 10
1336.46409356392
 20
-1460.51441731315
 10
1328.938367614277
 20
-1460.250678225709
 10
1321.273548269722
 20
-1457.751969632742
 10
1305.600120825082
 20
-1452.642612118574
 10
1290.147069783894
 20
-1447.065015924667
 10
1275.639873404942
 20
-1439.147400942043
 10
1272.896630597217
 20
-1437.65020394611
 10
1270.040527350131
 20
-1437.19617804677
 10
1267.972861455147
 20
-1439.518068688596
 10
1262.478457010951
 20
-1445.68813814128
 10
1256.074943619122
 20
-1443.838323238358
 10
1249.593739567517
 20
-1442.207651398441
 10
1240.468752805704
 20
-1439.911797943836
 10
1240.470524509044
 20
-1439.904280440156
 10
1239.282367390955
 20
-1449.679971749023
 10
1239.256584702552
 20
-1449.892106305991
 10
1239.251308746194
 20
-1450.10682500485
 10
1239.222844031739
 20
-1450.318528871505
 10
1238.874523239485
 20
-1452.908817886908
 10
1238.502475326239
 20
-1455.611947764841
 10
1235.54037331958
 20
-1456.502497875264
 10
1232.146778347789
 20
-1457.522842385164
 10
1230.459255386293
 20
-1454.936977733907
 10
1228.850323618864
 20
-1452.705492904561
 10
1225.293242518868
 20
-1447.77205280724
 10
1223.355596156934
 20
-1441.966621436701
 10
1221.88886071237
 20
-1436.264399127101
 10
1220.05300409102
 20
-1429.127038380595
 10
1216.800235063818
 20
-1425.998621393433
 10
1209.067415591573
 20
-1426.572222585682
 10
1202.961597303156
 20
-1427.025152182401
 10
1196.759451210422
 20
-1425.499177242693
 10
1190.762597571698
 20
-1423.784834020667
 10
1187.191386892844
 20
-1422.763980513124
 10
1184.030129769164
 20
-1421.05378757959
 10
1181.30724197303
 20
-1418.577357422009
 10
1178.853785228386
 20
-1416.34599005366
 10
1178.226504361422
 20
-1413.481194692946
 10
1179.141085033741
 20
-1410.36706879351
 10
1180.194861879341
 20
-1406.778909471917
 10
1183.280356661245
 20
-1407.846551609136
 10
1185.608487418434
 20
-1408.058294629454
 10
1193.05116844461
 20
-1408.735026575314
 10
1200.478011813295
 20
-1409.627573522653
 10
1207.887255609563
 20
-1410.614676570969
 10
1212.354121057915
 20
-1411.209773125303
 10
1213.644909720384
 20
-1409.528514750202
 10
1212.770383247361
 20
-1405.224391510424
 10
1210.857296021799
 20
-1395.808796458563
 10
1209.154914244433
 20
-1386.350093221537
 10
1207.405831933139
 20
-1376.901687398409
 10
1206.899614198355
 20
-1374.167156281148
 10
1206.054971760142
 20
-1371.008551818269
 10
1208.927186740377
 20
-1369.284890023979
 10
1212.127421337565
 20
-1367.364422332563
 10
1214.63289372616
 20
-1369.89570677481
 10
1216.781686015023
 20
-1371.870323984918
 10
1221.928807239086
 20
-1376.600282485238
 10
1223.688089080113
 20
-1383.052845630898
 10
1224.922604137562
 20
-1389.587239936407
 10
1225.922647472158
 20
-1394.880580522409
 10
1227.651281781906
 20
-1399.871184970636
 10
1229.565073773439
 20
-1404.87995671942
 10
1231.089981775776
 20
-1408.870968100194
 10
1233.596354698668
 20
-1410.079485124084
 10
1237.487984289257
 20
-1409.32143101602
 10
1239.794203676667
 20
-1408.87226017114
 10
1242.114195365742
 20
-1408.47633831066
 10
1244.397108534062
 20
-1407.927873771341
 10
1255.761782818037
 20
-1405.197297174245
 10
1256.154836672556
 20
-1404.736145307875
 10
1256.020647274185
 20
-1392.912325782863
 10
1255.995637870665
 20
-1390.71020620227
 10
1257.107053805353
 20
-1387.453600115897
 10
1254.34592756114
 20
-1386.657410338123
 10
1251.201535878659
 20
-1385.750689764054
 10
1247.943990104328
 20
-1387.173064106175
 10
1245.894442567824
 20
-1389.924078916401
 10
1244.248265876566
 20
-1392.133637693345
 10
1243.01870375774
 20
-1394.668171889783
 10
1241.723412423795
 20
-1397.121462231355
 10
1239.304998209327
 20
-1401.702010346032
 10
1237.026656231394
 20
-1400.389187958584
 10
1234.960380291519
 20
-1396.939162767112
 10
1232.517123076608
 20
-1392.85958579611
 10
1230.812861923323
 20
-1388.41360882803
 10
1230.666241236313
 20
-1383.655185613259
 10
1230.436135147109
 20
-1376.1877594708
 10
1230.605161518913
 20
-1368.708039077532
 10
1230.605161518913
 20
-1361.23352612171
 10
1230.324909373261
 20
-1361.227574764632
 10
1230.044657227607
 20
-1361.221623407551
 10
1229.764405081954
 20
-1361.215691627303
 97
        0
 97
        1
330
87
 75
     2
 76
     1
 98
        1
 10
0.0
 20
0.0
450
        0
451
        0
460
0.0
461
0.0
452
        0
462
0.0
453
        0
470

  0
SPLINE
  5
89
330
70
100
AcDbEntity
  8
Layer 1
100
AcDbSpline
210
0.0
220
0.0
230
1.0
 70
     9
 71
     3
 72
    95
 73
    91
 74
     0
 42
0.0000000001
 43
0.0000000001
 40
0.0
 40
0.0
 40
0.0
 40
0.0
 40
1.0
 40
1.0
 40
1.0
 40
2.0
 40
2.0
 40
2.0
 40
3.0
 40
3.0
 40
3.0
 40
4.0
 40
4.0
 40
4.0
 40
5.0
 40
5.0
 40
5.0
 40
6.0
 40
6.0
 40
6.0
 40
7.0
 40
7.0
 40
7.0
 40
8.0
 40
8.0
 40
8.0
 40
9.0
 40
9.0
 40
9.0
 40
10.0
 40
10.0
 40
10.0
 40
11.0
 40
11.0
 40
11.0
 40
12.0
 40
12.0
 40
12.0
 40
13.0
 40
13.0
 40
13.0
 40
14.0
 40
14.0
 40
14.0
 40
15.0
 40
15.0
 40
15.0
 40
16.0
 40
16.0
 40
16.0
 40
17.0
 40
17.0
 40
17.0
 40
18.0
 40
18.0
 40
18.0
 40
19.0
 40
19.0
 40
19.0
 40
20.0
 40
20.0
 40
20.0
 40
21.0
 40
21.0
 40
21.0
 40
22.0
 40
22.0
 40
22.0
 40
23.0
 40
23.0
 40
23.0
 40
24.0
 40
24.0
 40
24.0
 40
25.0
 40
25.0
 40
25.0
 40
26.0
 40
26.0
 40
26.0
 40
27.0
 40
27.0
 40
27.0
 40
28.0
 40
28.0
 40
28.0
 40
29.0
 40
29.0
 40
29.0
 40
30.0
 40
30.0
 40
30.0
 40
30.0
 10
1346.456108871909
 20
-1301.077443679127
 30
0.0
 10
1321.391302917211
 20
-1299.913033258859
 30
0.0
 10
1299.782590972059
 20
-1305.848435220365
 30
0.0
 10
1278.183452097999
 20
-1312.095891891922
 30
0.0
 10
1260.161147347929
 20
-1317.308771696351
 30
0.0
 10
1242.231078844185
 20
-1323.385714156831
 30
0.0
 10
1223.024855360261
 20
-1322.038534428348
 30
0.0
 10
1211.71692452529
 20
-1321.245339905943
 30
0.0
 10
1200.447462166179
 20
-1320.105224334811
 30
0.0
 10
1190.114780607442
 20
-1314.811707557315
 30
0.0
 10
1187.631968402464
 20
-1313.539761596125
 30
0.0
 10
1184.276102881109
 20
-1312.005955923416
 30
0.0
 10
1184.073551183648
 20
-1309.572496913171
 30
0.0
 10
1183.817500897172
 20
-1306.496232607789
 30
0.0
 10
1187.839903728862
 20
-1306.168105318257
 30
0.0
 10
1190.169096529213
 20
-1304.913347816005
 30
0.0
 10
1197.011835735011
 20
-1301.227108563589
 30
0.0
 10
1204.163438627163
 20
-1301.875414948657
 30
0.0
 10
1211.400592277339
 20
-1303.50025289249
 30
0.0
 10
1224.142976360083
 20
-1306.361132886706
 30
0.0
 10
1236.929173393961
 20
-1308.709021562097
 30
0.0
 10
1250.112535417184
 20
-1307.174589430748
 30
0.0
 10
1254.970369787393
 20
-1306.609190931316
 30
0.0
 10
1258.737373262287
 20
-1304.89717735236
 30
0.0
 10
1260.277913365375
 20
-1299.868280619767
 30
0.0
 10
1261.509560416864
 20
-1295.847669068249
 30
0.0
 10
1261.979727414598
 20
-1292.401794165269
 30
0.0
 10
1256.603625769201
 20
-1290.818243761177
 30
0.0
 10
1252.183490220026
 20
-1289.516286515763
 30
0.0
 10
1251.629896550592
 20
-1286.673025670798
 30
0.0
 10
1254.677833179345
 20
-1283.107751666399
 30
0.0
 10
1259.559159748556
 20
-1277.39783566163
 30
0.0
 10
1263.477325735599
 20
-1271.039143427808
 30
0.0
 10
1267.022464967771
 20
-1264.434527024123
 30
0.0
 10
1267.621339850777
 20
-1263.318804186283
 30
0.0
 10
1268.409317147319
 20
-1262.279000304881
 30
0.0
 10
1269.243642594803
 20
-1261.320499008847
 30
0.0
 10
1271.024096780178
 20
-1259.275052818755
 30
0.0
 10
1273.186641793873
 20
-1257.895140626328
 30
0.0
 10
1276.009346964714
 20
-1258.799492403663
 30
0.0
 10
1279.17640861923
 20
-1259.814179208972
 30
0.0
 10
1278.978545573152
 20
-1262.579680875247
 30
0.0
 10
1278.990898554461
 20
-1265.166269869305
 30
0.0
 10
1279.034535314104
 20
-1274.304559088805
 30
0.0
 10
1276.174457970019
 20
-1282.807462632683
 30
0.0
 10
1273.390749849517
 20
-1291.349480687897
 30
0.0
 10
1272.522184521991
 20
-1294.014768548606
 30
0.0
 10
1270.443408774565
 20
-1297.373232894473
 30
0.0
 10
1274.377578822175
 20
-1299.198106912792
 30
0.0
 10
1278.009981785217
 20
-1300.882987001905
 30
0.0
 10
1279.783505771887
 20
-1297.701986642647
 30
0.0
 10
1281.377314436207
 20
-1295.255391577795
 30
0.0
 10
1286.292685117136
 20
-1287.709932180993
 30
0.0
 10
1290.091863116244
 20
-1279.592379008043
 30
0.0
 10
1293.258200427957
 20
-1271.171874352158
 30
0.0
 10
1295.461572925829
 20
-1265.312273886093
 30
0.0
 10
1294.639737497482
 20
-1260.098924237684
 30
0.0
 10
1289.410256539091
 20
-1256.325156967161
 30
0.0
 10
1284.791846830356
 20
-1252.992357848698
 30
0.0
 10
1285.695513418555
 20
-1249.990485506814
 30
0.0
 10
1288.987827647408
 20
-1246.374213853754
 30
0.0
 10
1292.203576884352
 20
-1242.842063849946
 30
0.0
 10
1295.990206133827
 20
-1240.208098921235
 30
0.0
 10
1300.007939890966
 20
-1237.711406742017
 30
0.0
 10
1308.999520327708
 20
-1232.123943824534
 30
0.0
 10
1314.140905539847
 20
-1236.429339558426
 30
0.0
 10
1317.402542872172
 20
-1244.50035860052
 30
0.0
 10
1321.131498773102
 20
-1253.727800715225
 30
0.0
 10
1320.187777985609
 20
-1262.964776747356
 30
0.0
 10
1314.749510108608
 20
-1271.493110596651
 30
0.0
 10
1312.435920043759
 20
-1275.121265387037
 30
0.0
 10
1310.590960195297
 20
-1278.931367258681
 30
0.0
 10
1309.312084035404
 20
-1283.040289901606
 30
0.0
 10
1308.014531577304
 20
-1287.209254689807
 30
0.0
 10
1308.623175299728
 20
-1289.075709900355
 30
0.0
 10
1313.720825868064
 20
-1288.037589626545
 30
0.0
 10
1329.850334779456
 20
-1284.752890785536
 30
0.0
 10
1346.081486605188
 20
-1282.038269306928
 30
0.0
 10
1362.641920753571
 20
-1282.650456436035
 30
0.0
 10
1366.896788682781
 20
-1282.80775628517
 30
0.0
 10
1371.20809662009
 20
-1283.093852115324
 30
0.0
 10
1375.361321634958
 20
-1283.956779315091
 30
0.0
 10
1381.549636695532
 20
-1285.242566096856
 30
0.0
 10
1382.416596722795
 20
-1287.931032927247
 30
0.0
 10
1378.485725371458
 20
-1292.713829298484
 30
0.0
 10
1373.782567554832
 20
-1298.436333206553
 30
0.0
 10
1368.131714853713
 20
-1301.943033328114
 30
0.0
 10
1360.207522055365
 20
-1301.174877574476
 30
0.0
 10
1354.917078840571
 20
-1300.662003716645
 30
0.0
 10
1349.536640926775
 20
-1301.077443679127
 30
0.0
 10
1346.456108871909
 20
-1301.077443679127
 30
0.0
  0
HATCH
  5
8A
330
70
100
AcDbEntity
  8
Layer 1
 62
   246
420
  8590872
440
 33554687
100
AcDbHatch
 10
0.0
 20
0.0
 30
0.0
210
0.0
220
0.0
230
1.0
  2
SOLID
 70
     1
 71
     1
 91
        1
 92
        1
 93
        1
 72
     4
 94
        3
 73
     0
 74
     0
 95
       95
 96
       91
 40
0.0
 40
0.0
 40
0.0
 40
0.0
 40
1.0
 40
1.0
 40
1.0
 40
2.0
 40
2.0
 40
2.0
 40
3.0
 40
3.0
 40
3.0
 40
4.0
 40
4.0
 40
4.0
 40
5.0
 40
5.0
 40
5.0
 40
6.0
 40
6.0
 40
6.0
 40
7.0
 40
7.0
 40
7.0
 40
8.0
 40
8.0
 40
8.0
 40
9.0
 40
9.0
 40
9.0
 40
10.0
 40
10.0
 40
10.0
 40
11.0
 40
11.0
 40
11.0
 40
12.0
 40
12.0
 40
12.0
 40
13.0
 40
13.0
 40
13.0
 40
14.0
 40
14.0
 40
14.0
 40
15.0
 40
15.0
 40
15.0
 40
16.0
 40
16.0
 40
16.0
 40
17.0
 40
17.0
 40
17.0
 40
18.0
 40
18.0
 40
18.0
 40
19.0
 40
19.0
 40
19.0
 40
20.0
 40
20.0
 40
20.0
 40
21.0
 40
21.0
 40
21.0
 40
22.0
 40
22.0
 40
22.0
 40
23.0
 40
23.0
 40
23.0
 40
24.0
 40
24.0
 40
24.0
 40
25.0
 40
25.0
 40
25.0
 40
26.0
 40
26.0
 40
26.0
 40
27.0
 40
27.0
 40
27.0
 40
28.0
 40
28.0
 40
28.0
 40
29.0
 40
29.0
 40
29.0
 40
30.0
 40
30.0
 40
30.0
 40
30.0
 10
1346.456108871909
 20
-1301.077443679127
 10
1321.391302917211
 20
-1299.913033258859
 10
1299.782590972059
 20
-1305.848435220365
 10
1278.183452097999
 20
-1312.095891891922
 10
1260.161147347929
 20
-1317.308771696351
 10
1242.231078844185
 20
-1323.385714156831
 10
1223.024855360261
 20
-1322.038534428348
 10
1211.71692452529
 20
-1321.245339905943
 10
1200.447462166179
 20
-1320.105224334811
 10
1190.114780607442
 20
-1314.811707557315
 10
1187.631968402464
 20
-1313.539761596125
 10
1184.276102881109
 20
-1312.005955923416
 10
1184.073551183648
 20
-1309.572496913171
 10
1183.817500897172
 20
-1306.496232607789
 10
1187.839903728862
 20
-1306.168105318257
 10
1190.169096529213
 20
-1304.913347816005
 10
1197.011835735011
 20
-1301.227108563589
 10
1204.163438627163
 20
-1301.875414948657
 10
1211.400592277339
 20
-1303.50025289249
 10
1224.142976360083
 20
-1306.361132886706
 10
1236.929173393961
 20
-1308.709021562097
 10
1250.112535417184
 20
-1307.174589430748
 10
1254.970369787393
 20
-1306.609190931316
 10
1258.737373262287
 20
-1304.89717735236
 10
1260.277913365375
 20
-1299.868280619767
 10
1261.509560416864
 20
-1295.847669068249
 10
1261.979727414598
 20
-1292.401794165269
 10
1256.603625769201
 20
-1290.818243761177
 10
1252.183490220026
 20
-1289.516286515763
 10
1251.629896550592
 20
-1286.673025670798
 10
1254.677833179345
 20
-1283.107751666399
 10
1259.559159748556
 20
-1277.39783566163
 10
1263.477325735599
 20
-1271.039143427808
 10
1267.022464967771
 20
-1264.434527024123
 10
1267.621339850777
 20
-1263.318804186283
 10
1268.409317147319
 20
-1262.279000304881
 10
1269.243642594803
 20
-1261.320499008847
 10
1271.024096780178
 20
-1259.275052818755
 10
1273.186641793873
 20
-1257.895140626328
 10
1276.009346964714
 20
-1258.799492403663
 10
1279.17640861923
 20
-1259.814179208972
 10
1278.978545573152
 20
-1262.579680875247
 10
1278.990898554461
 20
-1265.166269869305
 10
1279.034535314104
 20
-1274.304559088805
 10
1276.174457970019
 20
-1282.807462632683
 10
1273.390749849517
 20
-1291.349480687897
 10
1272.522184521991
 20
-1294.014768548606
 10
1270.443408774565
 20
-1297.373232894473
 10
1274.377578822175
 20
-1299.198106912792
 10
1278.009981785217
 20
-1300.882987001905
 10
1279.783505771887
 20
-1297.701986642647
 10
1281.377314436207
 20
-1295.255391577795
 10
1286.292685117136
 20
-1287.709932180993
 10
1290.091863116244
 20
-1279.592379008043
 10
1293.258200427957
 20
-1271.171874352158
 10
1295.461572925829
 20
-1265.312273886093
 10
1294.639737497482
 20
-1260.098924237684
 10
1289.410256539091
 20
-1256.325156967161
 10
1284.791846830356
 20
-1252.992357848698
 10
1285.695513418555
 20
-1249.990485506814
 10
1288.987827647408
 20
-1246.374213853754
 10
1292.203576884352
 20
-1242.842063849946
 10
1295.990206133827
 20
-1240.208098921235
 10
1300.007939890966
 20
-1237.711406742017
 10
1308.999520327708
 20
-1232.123943824534
 10
1314.140905539847
 20
-1236.429339558426
 10
1317.402542872172
 20
-1244.50035860052
 10
1321.131498773102
 20
-1253.727800715225
 10
1320.187777985609
 20
-1262.964776747356
 10
1314.749510108608
 20
-1271.493110596651
 10
1312.435920043759
 20
-1275.121265387037
 10
1310.590960195297
 20
-1278.931367258681
 10
1309.312084035404
 20
-1283.040289901606
 10
1308.014531577304
 20
-1287.209254689807
 10
1308.623175299728
 20
-1289.075709900355
 10
1313.720825868064
 20
-1288.037589626545
 10
1329.850334779456
 20
-1284.752890785536
 10
1346.081486605188
 20
-1282.038269306928
 10
1362.641920753571
 20
-1282.650456436035
 10
1366.896788682781
 20
-1282.80775628517
 10
1371.20809662009
 20
-1283.093852115324
 10
1375.361321634958
 20
-1283.956779315091
 10
1381.549636695532
 20
-1285.242566096856
 10
1382.416596722795
 20
-1287.931032927247
 10
1378.485725371458
 20
-1292.713829298484
 10
1373.782567554832
 20
-1298.436333206553
 10
1368.131714853713
 20
-1301.943033328114
 10
1360.207522055365
 20
-1301.174877574476
 10
1354.917078840571
 20
-1300.662003716645
 10
1349.536640926775
 20
-1301.077443679127
 10
1346.456108871909
 20
-1301.077443679127
 97
        0
 97
        1
330
89
 75
     2
 76
     1
 98
        1
 10
0.0
 20
0.0
450
        0
451
        0
460
0.0
461
0.0
452
        0
462
0.0
453
        0
470

  0
SPLINE
  5
8B
330
70
100
AcDbEntity
  8
Layer 1
100
AcDbSpline
210
0.0
220
0.0
230
1.0
 70
     9
 71
     3
 72
    44
 73
    40
 74
     0
 42
0.0000000001
 43
0.0000000001
 40
0.0
 40
0.0
 40
0.0
 40
0.0
 40
1.0
 40
1.0
 40
1.0
 40
2.0
 40
2.0
 40
2.0
 40
3.0
 40
3.0
 40
3.0
 40
4.0
 40
4.0
 40
4.0
 40
5.0
 40
5.0
 40
5.0
 40
6.0
 40
6.0
 40
6.0
 40
7.0
 40
7.0
 40
7.0
 40
8.0
 40
8.0
 40
8.0
 40
9.0
 40
9.0
 40
9.0
 40
10.0
 40
10.0
 40
10.0
 40
11.0
 40
11.0
 40
11.0
 40
12.0
 40
12.0
 40
12.0
 40
13.0
 40
13.0
 40
13.0
 40
13.0
 10
1194.918680804112
 20
-1163.521309750422
 30
0.0
 10
1226.137836014997
 20
-1165.189187360503
 30
0.0
 10
1254.670286310416
 20
-1155.141456387218
 30
0.0
 10
1282.716369779207
 20
-1143.231998008437
 30
0.0
 10
1295.507343560215
 20
-1137.8004547734
 30
0.0
 10
1308.57799197032
 20
-1133.199517387669
 30
0.0
 10
1321.657821914865
 20
-1128.561804922088
 30
0.0
 10
1331.26656199617
 20
-1125.154829185287
 30
0.0
 10
1340.638676903047
 20
-1126.671084227657
 30
0.0
 10
1350.023908287699
 20
-1128.969120499083
 30
0.0
 10
1357.499772044964
 20
-1130.799632645163
 30
0.0
 10
1364.916611652241
 20
-1132.328250457258
 30
0.0
 10
1372.707349183436
 20
-1132.536841607545
 30
0.0
 10
1388.224161968075
 20
-1132.952281570027
 30
0.0
 10
1395.084295189552
 20
-1146.798936043598
 30
0.0
 10
1386.744936504378
 20
-1160.154838480057
 30
0.0
 10
1382.725186333491
 20
-1166.592660270844
 30
0.0
 10
1379.202276594622
 20
-1168.132789260451
 30
0.0
 10
1372.310624672824
 20
-1164.956232842169
 30
0.0
 10
1353.053227348746
 20
-1156.079920795187
 30
0.0
 10
1332.990850249103
 20
-1152.464304966017
 30
0.0
 10
1311.865157492222
 20
-1154.230781292985
 30
0.0
 10
1294.464642307601
 20
-1155.685770638049
 30
0.0
 10
1277.909376443
 20
-1160.45441295939
 30
0.0
 10
1261.576483818764
 20
-1166.301631078897
 30
0.0
 10
1239.491682884045
 20
-1174.208057901751
 30
0.0
 10
1217.038641730003
 20
-1179.883362066664
 30
0.0
 10
1193.24803307223
 20
-1177.07616174716
 30
0.0
 10
1187.946391909245
 20
-1176.45057427621
 30
0.0
 10
1182.605650917552
 20
-1175.886223137315
 30
0.0
 10
1177.598239758625
 20
-1174.024211867743
 30
0.0
 10
1174.862157177387
 20
-1173.006803882721
 30
0.0
 10
1171.798833158289
 20
-1171.435175769622
 30
0.0
 10
1172.367745699153
 20
-1167.66438417764
 30
0.0
 10
1172.966415025419
 20
-1163.696316844553
 30
0.0
 10
1176.120575547318
 20
-1162.724836108575
 30
0.0
 10
1179.561003196657
 20
-1162.802937881834
 30
0.0
 10
1184.683022027246
 20
-1162.919204690052
 30
0.0
 10
1189.799720853603
 20
-1163.270197719941
 30
0.0
 10
1194.918680804112
 20
-1163.521309750422
 30
0.0
  0
HATCH
  5
8C
330
70
100
AcDbEntity
  8
Layer 1
 62
    18
420
        0
440
 33554687
100
AcDbHatch
 10
0.0
 20
0.0
 30
0.0
210
0.0
220
0.0
230
1.0
  2
SOLID
 70
     1
 71
     1
 91
        1
 92
        1
 93
        1
 72
     4
 94
        3
 73
     0
 74
     0
 95
       44
 96
       40
 40
0.0
 40
0.0
 40
0.0
 40
0.0
 40
1.0
 40
1.0
 40
1.0
 40
2.0
 40
2.0
 40
2.0
 40
3.0
 40
3.0
 40
3.0
 40
4.0
 40
4.0
 40
4.0
 40
5.0
 40
5.0
 40
5.0
 40
6.0
 40
6.0
 40
6.0
 40
7.0
 40
7.0
 40
7.0
 40
8.0
 40
8.0
 40
8.0
 40
9.0
 40
9.0
 40
9.0
 40
10.0
 40
10.0
 40
10.0
 40
11.0
 40
11.0
 40
11.0
 40
12.0
 40
12.0
 40
12.0
 40
13.0
 40
13.0
 40
13.0
 40
13.0
 10
1194.918680804112
 20
-1163.521309750422
 10
1226.137836014997
 20
-1165.189187360503
 10
1254.670286310416
 20
-1155.141456387218
 10
1282.716369779207
 20
-1143.231998008437
 10
1295.507343560215
 20
-1137.8004547734
 10
1308.57799197032
 20
-1133.199517387669
 10
1321.657821914865
 20
-1128.561804922088
 10
1331.26656199617
 20
-1125.154829185287
 10
1340.638676903047
 20
-1126.671084227657
 10
1350.023908287699
 20
-1128.969120499083
 10
1357.499772044964
 20
-1130.799632645163
 10
1364.916611652241
 20
-1132.328250457258
 10
1372.707349183436
 20
-1132.536841607545
 10
1388.224161968075
 20
-1132.952281570027
 10
1395.084295189552
 20
-1146.798936043598
 10
1386.744936504378
 20
-1160.154838480057
 10
1382.725186333491
 20
-1166.592660270844
 10
1379.202276594622
 20
-1168.132789260451
 10
1372.310624672824
 20
-1164.956232842169
 10
1353.053227348746
 20
-1156.079920795187
 10
1332.990850249103
 20
-1152.464304966017
 10
1311.865157492222
 20
-1154.230781292985
 10
1294.464642307601
 20
-1155.685770638049
 10
1277.909376443
 20
-1160.45441295939
 10
1261.576483818764
 20
-1166.301631078897
 10
1239.491682884045
 20
-1174.208057901751
 10
1217.038641730003
 20
-1179.883362066664
 10
1193.24803307223
 20
-1177.07616174716
 10
1187.946391909245
 20
-1176.45057427621
 10
1182.605650917552
 20
-1175.886223137315
 10
1177.598239758625
 20
-1174.024211867743
 10
1174.862157177387
 20
-1173.006803882721
 10
1171.798833158289
 20
-1171.435175769622
 10
1172.367745699153
 20
-1167.66438417764
 10
1172.966415025419
 20
-1163.696316844553
 10
1176.120575547318
 20
-1162.724836108575
 10
1179.561003196657
 20
-1162.802937881834
 10
1184.683022027246
 20
-1162.919204690052
 10
1189.799720853603
 20
-1163.270197719941
 10
1194.918680804112
 20
-1163.521309750422
 97
        0
 97
        1
330
8B
 75
     2
 76
     1
 98
        1
 10
0.0
 20
0.0
450
        0
451
        0
460
0.0
461
0.0
452
        0
462
0.0
453
        0
470

  0
ENDSEC
  0
SECTION
  2
OBJECTS
  0
DICTIONARY
  5
C
330
0
100
AcDbDictionary
281
     1
  3
ACAD_COLOR
350
63
  3
ACAD_DETAILVIEWSTYLE
350
6A
  3
ACAD_GROUP
350
D
  3
ACAD_LAYOUT
350
62
  3
ACAD_MATERIAL
350
10
  3
ACAD_MLEADERSTYLE
350
66
  3
ACAD_MLINESTYLE
350
5F
  3
ACAD_PLOTSETTINGS
350
61
  3
ACAD_PLOTSTYLENAME
350
E
  3
ACAD_SCALELIST
350
42
  3
ACAD_SECTIONVIEWSTYLE
350
68
  3
ACAD_TABLESTYLE
350
64
  3
ACAD_VISUALSTYLE
350
29
  3
ACDB_RECOMPOSE_DATA
350
95
  3
AcDbVariableDictionary
350
8D
  0
DICTIONARY
  5
63
102
{ACAD_REACTORS
330
C
102
}
330
C
100
AcDbDictionary
281
     1
  0
DICTIONARY
  5
6A
102
{ACAD_REACTORS
330
C
102
}
330
C
100
AcDbDictionary
281
     1
  3
Imperial24
350
6B
  0
DICTIONARY
  5
D
102
{ACAD_REACTORS
330
C
102
}
330
C
100
AcDbDictionary
281
     1
  0
DICTIONARY
  5
62
102
{ACAD_REACTORS
330
C
102
}
330
C
100
AcDbDictionary
281
     1
  3
Layout1
350
6F
  3
Layout2
350
77
  3
Model
350
73
  0
DICTIONARY
  5
10
102
{ACAD_REACTORS
330
C
102
}
330
C
100
AcDbDictionary
281
     1
  3
ByBlock
350
19
  3
ByLayer
350
11
  3
Global
350
21
  0
DICTIONARY
  5
66
102
{ACAD_REACTORS
330
C
102
}
330
C
100
AcDbDictionary
281
     1
  3
Standard
350
67
  0
DICTIONARY
  5
5F
102
{ACAD_REACTORS
330
C
102
}
330
C
100
AcDbDictionary
281
     1
  3
Standard
350
60
  0
DICTIONARY
  5
61
102
{ACAD_REACTORS
330
C
102
}
330
C
100
AcDbDictionary
281
     1
  0
ACDBDICTIONARYWDFLT
  5
E
102
{ACAD_REACTORS
330
C
102
}
330
C
100
AcDbDictionary
281
     1
  3
Normal
350
F
100
AcDbDictionaryWithDefault
340
F
  0
DICTIONARY
  5
42
102
{ACAD_REACTORS
330
C
102
}
330
C
100
AcDbDictionary
281
     1
  3
A0
350
43
  3
A1
350
44
  3
A2
350
45
  3
A3
350
46
  3
A4
350
47
  3
A5
350
48
  3
A6
350
49
  3
A7
350
4A
  3
A8
350
4B
  3
A9
350
4C
  3
B0
350
4D
  3
B1
350
4E
  3
B2
350
4F
  3
B3
350
50
  3
B4
350
51
  3
B5
350
52
  3
B6
350
53
  0
DICTIONARY
  5
68
102
{ACAD_REACTORS
330
C
102
}
330
C
100
AcDbDictionary
281
     1
  3
Imperial24
350
69
  0
DICTIONARY
  5
64
102
{ACAD_REACTORS
330
C
102
}
330
C
100
AcDbDictionary
281
     1
  3
Standard
350
65
  0
DICTIONARY
  5
29
102
{ACAD_REACTORS
330
C
102
}
330
C
100
AcDbDictionary
281
     1
  3
2dWireframe
350
2F
  3
Basic
350
2E
  3
Brighten
350
35
  3
ColorChange
350
39
  3
Conceptual
350
32
  3
Dim
350
34
  3
EdgeColorOff
350
41
  3
Facepattern
350
38
  3
Flat
350
2A
  3
FlatWithEdges
350
2B
  3
Gouraud
350
2C
  3
GouraudWithEdges
350
2D
  3
Hidden
350
31
  3
JitterOff
350
3F
  3
Linepattern
350
37
  3
OverhangOff
350
40
  3
Realistic
350
33
  3
Shaded
350
3E
  3
Shaded with edges
350
3D
  3
Shades of Gray
350
3A
  3
Sketchy
350
3B
  3
Thicken
350
36
  3
Wireframe
350
30
  3
X-Ray
350
3C
  0
XRECORD
  5
95
102
{ACAD_REACTORS
330
C
102
}
330
C
100
AcDbXrecord
280
     1
 90
        1
330
65
  0
DICTIONARY
  5
8D
102
{ACAD_REACTORS
330
C
102
}
330
C
100
AcDbDictionary
281
     1
  3
CANNOSCALE
350
92
  3
CMLEADERSTYLE
350
8F
  3
CTABLESTYLE
350
8E
  3
CVIEWDETAILSTYLE
350
90
  3
CVIEWSECTIONSTYLE
350
91
  0
ACDBDETAILVIEWSTYLE
  5
6B
102
{ACAD_REACTORS
330
6A
102
}
330
6A
100
AcDbModelDocViewStyle
 70
     0
  3
Imperial24
290
     1
300
Imperial24
 90
        0
100
AcDbDetailViewStyle
 70
     0
 71
     0
 90
        3
 71
     1
340
55
 62
   256
 40
0.24
340
0
 62
   256
 40
0.24
300

 40
0.36
280
     3
 71
     2
340
5D
 90
       25
 62
   256
 71
     3
340
55
 62
   256
 40
0.24
 90
        1
 40
0.75
 90
        1
300
%<\AcVar ViewType \f "%tc1">% %<\AcVar ViewDetailId>%\PSCALE %<\AcVar ViewScale \f "%sn">%
 71
     4
340
5D
 90
       25
 62
   256
340
5D
 90
       25
 62
   256
280
     0
  0
LAYOUT
  5
6F
102
{ACAD_REACTORS
330
62
102
}
330
62
100
AcDbPlotSettings
  1

  2

  4

  6

 40
0.0
 41
0.0
 42
0.0
 43
0.0
 44
0.0
 45
0.0
 46
0.0
 47
0.0
 48
0.0
 49
0.0
140
0.0
141
0.0
142
1.0
143
1.0
 70
   688
 72
     0
 73
     0
 74
     5
  7

 75
    16
147
1.0
 76
     0
 77
     2
 78
   300
148
0.0
149
0.0
100
AcDbLayout
  1
Layout1
 70
     1
 71
     1
 10
0.0
 20
0.0
 11
12.0
 21
9.0
 12
0.0
 22
0.0
 32
0.0
 14
0.0
 24
0.0
 34
0.0
 15
0.0
 25
0.0
 35
0.0
146
0.0
 13
0.0
 23
0.0
 33
0.0
 16
1.0
 26
0.0
 36
0.0
 17
0.0
 27
1.0
 37
0.0
 76
     0
330
6C
  0
LAYOUT
  5
77
102
{ACAD_REACTORS
330
62
102
}
330
62
100
AcDbPlotSettings
  1

  2

  4

  6

 40
0.0
 41
0.0
 42
0.0
 43
0.0
 44
0.0
 45
0.0
 46
0.0
 47
0.0
 48
0.0
 49
0.0
140
0.0
141
0.0
142
1.0
143
1.0
 70
   688
 72
     0
 73
     0
 74
     5
  7

 75
    16
147
1.0
 76
     0
 77
     2
 78
   300
148
0.0
149
0.0
100
AcDbLayout
  1
Layout2
 70
     1
 71
     2
 10
0.0
 20
0.0
 11
12.0
 21
9.0
 12
0.0
 22
0.0
 32
0.0
 14
0.0
 24
0.0
 34
0.0
 15
0.0
 25
0.0
 35
0.0
146
0.0
 13
0.0
 23
0.0
 33
0.0
 16
1.0
 26
0.0
 36
0.0
 17
0.0
 27
1.0
 37
0.0
 76
     0
330
74
  0
LAYOUT
  5
73
102
{ACAD_REACTORS
330
62
102
}
330
62
100
AcDbPlotSettings
  1

  2

  4

  6

 40
0.0
 41
0.0
 42
0.0
 43
0.0
 44
0.0
 45
0.0
 46
0.0
 47
0.0
 48
0.0
 49
0.0
140
0.0
141
0.0
142
1.0
143
1.0
 70
  1712
 72
     0
 73
     0
 74
     0
  7

 75
     0
147
1.0
 76
     0
 77
     2
 78
   300
148
0.0
149
0.0
100
AcDbLayout
  1
Model
 70
     1
 71
     0
 10
0.0
 20
0.0
 11
12.0
 21
9.0
 12
0.0
 22
0.0
 32
0.0
 14
0.0
 24
0.0
 34
0.0
 15
0.0
 25
0.0
 35
0.0
146
0.0
 13
0.0
 23
0.0
 33
0.0
 16
1.0
 26
0.0
 36
0.0
 17
0.0
 27
1.0
 37
0.0
 76
     0
330
70
  0
MATERIAL
  5
19
102
{ACAD_XDICTIONARY
360
1A
102
}
102
{ACAD_REACTORS
330
10
102
}
330
10
100
AcDbMaterial
  1
ByBlock
 72
     0
 43
0.0208333333333333
 43
0.0
 43
0.0
 43
0.0
 43
0.0
 43
0.0208333333333333
 43
0.0
 43
0.0
 43
0.0
 43
0.0
 43
1.0
 43
0.0
 43
0.0
 43
0.0
 43
0.0
 43
1.0
 77
     0
 47
0.0208333333333333
 47
0.0
 47
0.0
 47
0.0
 47
0.0
 47
0.0208333333333333
 47
0.0
 47
0.0
 47
0.0
 47
0.0
 47
1.0
 47
0.0
 47
0.0
 47
0.0
 47
0.0
 47
1.0
171
     0
 49
0.0208333333333333
 49
0.0
 49
0.0
 49
0.0
 49
0.0
 49
0.0208333333333333
 49
0.0
 49
0.0
 49
0.0
 49
0.0
 49
1.0
 49
0.0
 49
0.0
 49
0.0
 49
0.0
 49
1.0
175
     0
142
0.0208333333333333
142
0.0
142
0.0
142
0.0
142
0.0
142
0.0208333333333333
142
0.0
142
0.0
142
0.0
142
0.0
142
1.0
142
0.0
142
0.0
142
0.0
142
0.0
142
1.0
179
     0
144
0.0208333333333333
144
0.0
144
0.0
144
0.0
144
0.0
144
0.0208333333333333
144
0.0
144
0.0
144
0.0
144
0.0
144
1.0
144
0.0
144
0.0
144
0.0
144
0.0
144
1.0
147
0.0208333333333333
147
0.0
147
0.0
147
0.0
147
0.0
147
0.0208333333333333
147
0.0
147
0.0
147
0.0
147
0.0
147
1.0
147
0.0
147
0.0
147
0.0
147
0.0
147
1.0
  0
MATERIAL
  5
11
102
{ACAD_XDICTIONARY
360
12
102
}
102
{ACAD_REACTORS
330
10
102
}
330
10
100
AcDbMaterial
  1
ByLayer
 72
     0
 43
0.0208333333333333
 43
0.0
 43
0.0
 43
0.0
 43
0.0
 43
0.0208333333333333
 43
0.0
 43
0.0
 43
0.0
 43
0.0
 43
1.0
 43
0.0
 43
0.0
 43
0.0
 43
0.0
 43
1.0
 77
     0
 47
0.0208333333333333
 47
0.0
 47
0.0
 47
0.0
 47
0.0
 47
0.0208333333333333
 47
0.0
 47
0.0
 47
0.0
 47
0.0
 47
1.0
 47
0.0
 47
0.0
 47
0.0
 47
0.0
 47
1.0
171
     0
 49
0.0208333333333333
 49
0.0
 49
0.0
 49
0.0
 49
0.0
 49
0.0208333333333333
 49
0.0
 49
0.0
 49
0.0
 49
0.0
 49
1.0
 49
0.0
 49
0.0
 49
0.0
 49
0.0
 49
1.0
175
     0
142
0.0208333333333333
142
0.0
142
0.0
142
0.0
142
0.0
142
0.0208333333333333
142
0.0
142
0.0
142
0.0
142
0.0
142
1.0
142
0.0
142
0.0
142
0.0
142
0.0
142
1.0
179
     0
144
0.0208333333333333
144
0.0
144
0.0
144
0.0
144
0.0
144
0.0208333333333333
144
0.0
144
0.0
144
0.0
144
0.0
144
1.0
144
0.0
144
0.0
144
0.0
144
0.0
144
1.0
147
0.0208333333333333
147
0.0
147
0.0
147
0.0
147
0.0
147
0.0208333333333333
147
0.0
147
0.0
147
0.0
147
0.0
147
1.0
147
0.0
147
0.0
147
0.0
147
0.0
147
1.0
  0
MATERIAL
  5
21
102
{ACAD_XDICTIONARY
360
22
102
}
102
{ACAD_REACTORS
330
10
102
}
330
10
100
AcDbMaterial
  1
Global
 72
     0
 43
0.0208333333333333
 43
0.0
 43
0.0
 43
0.0
 43
0.0
 43
0.0208333333333333
 43
0.0
 43
0.0
 43
0.0
 43
0.0
 43
1.0
 43
0.0
 43
0.0
 43
0.0
 43
0.0
 43
1.0
 77
     0
 47
0.0208333333333333
 47
0.0
 47
0.0
 47
0.0
 47
0.0
 47
0.0208333333333333
 47
0.0
 47
0.0
 47
0.0
 47
0.0
 47
1.0
 47
0.0
 47
0.0
 47
0.0
 47
0.0
 47
1.0
171
     0
 49
0.0208333333333333
 49
0.0
 49
0.0
 49
0.0
 49
0.0
 49
0.0208333333333333
 49
0.0
 49
0.0
 49
0.0
 49
0.0
 49
1.0
 49
0.0
 49
0.0
 49
0.0
 49
0.0
 49
1.0
175
     0
142
0.0208333333333333
142
0.0
142
0.0
142
0.0
142
0.0
142
0.0208333333333333
142
0.0
142
0.0
142
0.0
142
0.0
142
1.0
142
0.0
142
0.0
142
0.0
142
0.0
142
1.0
179
     0
144
0.0208333333333333
144
0.0
144
0.0
144
0.0
144
0.0
144
0.0208333333333333
144
0.0
144
0.0
144
0.0
144
0.0
144
1.0
144
0.0
144
0.0
144
0.0
144
0.0
144
1.0
147
0.0208333333333333
147
0.0
147
0.0
147
0.0
147
0.0
147
0.0208333333333333
147
0.0
147
0.0
147
0.0
147
0.0
147
1.0
147
0.0
147
0.0
147
0.0
147
0.0
147
1.0
  0
MLEADERSTYLE
  5
67
102
{ACAD_REACTORS
330
66
102
}
330
66
100
AcDbMLeaderStyle
179
     2
170
     2
171
     1
172
     0
 90
        2
 40
0.0
 41
0.0
173
     1
 91
-1056964608
340
5B
 92
       -2
290
     1
 42
0.09
291
     1
 43
0.36
  3
Standard
 44
0.18
300

342
55
174
     1
178
     6
175
     1
176
     0
 93
-1056964608
 45
0.18
292
     0
297
     0
 46
0.18
 94
-1056964608
 47
1.0
 49
1.0
140
1.0
293
     1
141
0.0
294
     1
177
     0
142
1.0
295
     1
296
     0
143
0.125
271
     0
272
     9
273
     9
298
     1
  0
MLINESTYLE
  5
60
102
{ACAD_REACTORS
330
5F
102
}
330
5F
100
AcDbMlineStyle
  2
STANDARD
 70
     0
  3

 62
   256
 51
90.0
 52
90.0
 71
     2
 49
0.5
 62
   256
  6
BYLAYER
 49
-0.5
 62
   256
  6
BYLAYER
  0
ACDBPLACEHOLDER
  5
F
102
{ACAD_REACTORS
330
E
102
}
330
E
  0
SCALE
  5
43
102
{ACAD_REACTORS
330
42
102
}
330
42
100
AcDbScale
 70
     0
300
1:1
140
1.0
141
1.0
290
     1
  0
SCALE
  5
44
102
{ACAD_REACTORS
330
42
102
}
330
42
100
AcDbScale
 70
     0
300
1/128" = 1'-0"
140
0.0078125
141
12.0
290
     0
  0
SCALE
  5
45
102
{ACAD_REACTORS
330
42
102
}
330
42
100
AcDbScale
 70
     0
300
1/64" = 1'-0"
140
0.015625
141
12.0
290
     0
  0
SCALE
  5
46
102
{ACAD_REACTORS
330
42
102
}
330
42
100
AcDbScale
 70
     0
300
1/32" = 1'-0"
140
0.03125
141
12.0
290
     0
  0
SCALE
  5
47
102
{ACAD_REACTORS
330
42
102
}
330
42
100
AcDbScale
 70
     0
300
1/16" = 1'-0"
140
0.0625
141
12.0
290
     0
  0
SCALE
  5
48
102
{ACAD_REACTORS
330
42
102
}
330
42
100
AcDbScale
 70
     0
300
3/32" = 1'-0"
140
0.09375
141
12.0
290
     0
  0
SCALE
  5
49
102
{ACAD_REACTORS
330
42
102
}
330
42
100
AcDbScale
 70
     0
300
1/8" = 1'-0"
140
0.125
141
12.0
290
     0
  0
SCALE
  5
4A
102
{ACAD_REACTORS
330
42
102
}
330
42
100
AcDbScale
 70
     0
300
3/16" = 1'-0"
140
0.1875
141
12.0
290
     0
  0
SCALE
  5
4B
102
{ACAD_REACTORS
330
42
102
}
330
42
100
AcDbScale
 70
     0
300
1/4" = 1'-0"
140
0.25
141
12.0
290
     0
  0
SCALE
  5
4C
102
{ACAD_REACTORS
330
42
102
}
330
42
100
AcDbScale
 70
     0
300
3/8" = 1'-0"
140
0.375
141
12.0
290
     0
  0
SCALE
  5
4D
102
{ACAD_REACTORS
330
42
102
}
330
42
100
AcDbScale
 70
     0
300
1/2" = 1'-0"
140
0.5
141
12.0
290
     0
  0
SCALE
  5
4E
102
{ACAD_REACTORS
330
42
102
}
330
42
100
AcDbScale
 70
     0
300
3/4" = 1'-0"
140
0.75
141
12.0
290
     0
  0
SCALE
  5
4F
102
{ACAD_REACTORS
330
42
102
}
330
42
100
AcDbScale
 70
     0
300
1" = 1'-0"
140
1.0
141
12.0
290
     0
  0
SCALE
  5
50
102
{ACAD_REACTORS
330
42
102
}
330
42
100
AcDbScale
 70
     0
300
1-1/2" = 1'-0"
140
1.5
141
12.0
290
     0
  0
SCALE
  5
51
102
{ACAD_REACTORS
330
42
102
}
330
42
100
AcDbScale
 70
     0
300
3" = 1'-0"
140
3.0
141
12.0
290
     0
  0
SCALE
  5
52
102
{ACAD_REACTORS
330
42
102
}
330
42
100
AcDbScale
 70
     0
300
6" = 1'-0"
140
6.0
141
12.0
290
     0
  0
SCALE
  5
53
102
{ACAD_REACTORS
330
42
102
}
330
42
100
AcDbScale
 70
     0
300
1'-0" = 1'-0"
140
12.0
141
12.0
290
     0
  0
ACDBSECTIONVIEWSTYLE
  5
69
102
{ACAD_REACTORS
330
68
102
}
330
68
100
AcDbModelDocViewStyle
 70
     0
  3
Imperial24
290
     1
300
Imperial24
 90
        0
100
AcDbSectionViewStyle
 70
     0
 71
     0
 90
       78
 71
     1
340
55
 62
   256
 40
0.24
340
0
340
0
 62
   256
 40
0.24
300
I, O, Q, S, X, Z
 40
0.48
 90
        3
 40
0.18
 90
        1
 71
     2
340
5D
 90
       25
 62
   256
340
5D
 90
       50
 62
   256
 40
0.24
 40
0.0
 40
0.24
 71
     3
340
55
 62
   256
 40
0.24
 90
        1
 40
0.75
 90
        1
300
%<\AcVar ViewType \f "%tc1">% %<\AcVar ViewSectionStartId>%-%<\AcVar ViewSectionEndId>%\PSCALE %<\AcVar ViewScale \f "%sn">%
 71
     4
 62
   256
 62
   257
300
ANSI31
 40
1.0
 90
        0
290
     0
290
     0
 90
        6
 40
0.0
 40
1.570796326794896
 40
0.2617993877991494
 40
1.308996938995747
 40
-0.2617993877991494
 40
1.832595714594046
  0
TABLESTYLE
  5
65
102
{ACAD_XDICTIONARY
360
93
102
}
102
{ACAD_REACTORS
330
64
102
}
330
64
100
AcDbTableStyle
280
     0
  3
Standard
 70
     0
 71
     0
 40
0.06
 41
0.06
280
     0
281
     0
  7
Standard
140
0.18
170
     2
 62
     0
 63
     7
283
     0
 90
      512
 91
        0
  1

274
    -2
284
     1
 64
     0
275
    -2
285
     1
 65
     0
276
    -2
286
     1
 66
     0
277
    -2
287
     1
 67
     0
278
    -2
288
     1
 68
     0
279
    -2
289
     1
 69
     0
  7
Standard
140
0.25
170
     5
 62
     0
 63
     7
283
     0
 90
      512
 91
        0
  1

274
    -2
284
     1
 64
     0
275
    -2
285
     1
 65
     0
276
    -2
286
     1
 66
     0
277
    -2
287
     1
 67
     0
278
    -2
288
     1
 68
     0
279
    -2
289
     1
 69
     0
  7
Standard
140
0.18
170
     5
 62
     0
 63
     7
283
     0
 90
      512
 91
        0
  1

274
    -2
284
     1
 64
     0
275
    -2
285
     1
 65
     0
276
    -2
286
     1
 66
     0
277
    -2
287
     1
 67
     0
278
    -2
288
     1
 68
     0
279
    -2
289
     1
 69
     0
  0
VISUALSTYLE
  5
2F
102
{ACAD_REACTORS
330
29
102
}
330
29
100
AcDbVisualStyle
  2
2dWireframe
 70
     4
177
     3
291
     0
 70
    58
 90
        0
176
     1
 90
        2
176
     1
 90
        0
176
     1
 90
        0
176
     1
 40
0.6
176
     1
 40
30.0
176
     1
 62
     7
420
 16777215
176
     1
 90
        1
176
     1
 90
        4
176
     1
 62
     7
176
     1
 62
   257
176
     1
 90
        1
176
     1
 90
        1
176
     1
 40
1.0
176
     1
 90
        0
176
     1
 62
   257
176
     1
 40
1.0
176
     1
 90
        1
176
     1
 90
        6
176
     1
 90
        2
176
     1
 62
     7
176
     1
 90
        5
176
     1
 90
        0
176
     1
 90
        0
176
     1
290
     0
176
     1
 90
        1
176
     1
 40
0.0
176
     1
 90
        0
176
     1
290
     1
176
     1
290
     1
176
     1
290
     0
176
     1
290
     0
176
     1
290
     0
176
     1
290
     0
176
     1
290
     0
176
     1
290
     0
176
     1
290
     0
176
     1
 90
       50
176
     1
 40
0.0
176
     1
 40
1.0
176
     1
 90
        0
176
     1
 62
    18
420
        0
176
     1
 90
       50
176
     1
 90
        3
176
     1
 62
     5
420
      255
176
     1
290
     0
176
     1
 90
       50
176
     1
 90
       50
176
     1
 90
       50
176
     1
290
     0
176
     1
 90
       50
176
     1
 62
   256
176
     0
 40
1.0
176
     0
 90
        2
176
     1
  1
strokes_ogs.tif
176
     1
290
     0
176
     1
 40
1.0
176
     1
 40
1.0
176
     1
  0
VISUALSTYLE
  5
2E
102
{ACAD_REACTORS
330
29
102
}
330
29
100
AcDbVisualStyle
  2
Basic
 70
     7
177
     3
291
     1
 70
    58
 90
        1
176
     1
 90
        0
176
     1
 90
        1
176
     1
 90
        0
176
     1
 40
0.6
176
     1
 40
30.0
176
     1
 62
     7
420
 16777215
176
     1
 90
        0
176
     1
 90
        4
176
     1
 62
     7
176
     1
 62
   257
176
     1
 90
        1
176
     1
 90
        1
176
     1
 40
1.0
176
     1
 90
        8
176
     1
 62
     7
176
     1
 40
1.0
176
     1
 90
        1
176
     1
 90
        6
176
     1
 90
        2
176
     1
 62
     7
176
     1
 90
        5
176
     1
 90
        0
176
     1
 90
        0
176
     1
290
     0
176
     1
 90
        1
176
     1
 40
0.0
176
     1
 90
        0
176
     1
290
     0
176
     1
290
     1
176
     1
290
     1
176
     1
290
     0
176
     1
290
     0
176
     1
290
     0
176
     1
290
     0
176
     1
290
     0
176
     1
290
     0
176
     1
 90
       50
176
     1
 40
0.0
176
     1
 40
1.0
176
     1
 90
        0
176
     1
 62
    18
420
        0
176
     1
 90
       50
176
     1
 90
        3
176
     1
 62
     5
420
      255
176
     1
290
     0
176
     1
 90
       50
176
     1
 90
       50
176
     1
 90
       50
176
     1
290
     0
176
     1
 90
       50
176
     1
 62
   256
176
     0
 40
1.0
176
     0
 90
        2
176
     1
  1
strokes_ogs.tif
176
     1
290
     0
176
     1
 40
1.0
176
     1
 40
1.0
176
     1
  0
VISUALSTYLE
  5
35
102
{ACAD_REACTORS
330
29
102
}
330
29
100
AcDbVisualStyle
  2
Brighten
 70
    12
177
     3
291
     1
 70
    58
 90
        2
176
     1
 90
        2
176
     1
 90
        0
176
     1
 90
        0
176
     1
 40
0.6
176
     1
 40
30.0
176
     1
 62
     7
420
 16777215
176
     1
 90
        1
176
     1
 90
        4
176
     1
 62
     7
176
     1
 62
   257
176
     1
 90
        1
176
     1
 90
        1
176
     1
 40
1.0
176
     1
 90
        8
176
     1
 62
     7
176
     1
 40
1.0
176
     1
 90
        1
176
     1
 90
        6
176
     1
 90
        2
176
     1
 62
     7
176
     1
 90
        5
176
     1
 90
        0
176
     1
 90
        0
176
     1
290
     0
176
     1
 90
        1
176
     1
 40
50.0
176
     1
 90
        0
176
     1
290
     0
176
     1
290
     1
176
     1
290
     1
176
     1
290
     0
176
     1
290
     0
176
     1
290
     0
176
     1
290
     0
176
     1
290
     0
176
     1
290
     0
176
     1
 90
       50
176
     1
 40
0.0
176
     1
 40
1.0
176
     1
 90
        0
176
     1
 62
    18
420
        0
176
     1
 90
       50
176
     1
 90
        3
176
     1
 62
     5
420
      255
176
     1
290
     0
176
     1
 90
       50
176
     1
 90
       50
176
     1
 90
       50
176
     1
290
     0
176
     1
 90
       50
176
     1
 62
   256
176
     0
 40
1.0
176
     0
 90
        2
176
     1
  1
strokes_ogs.tif
176
     1
290
     0
176
     1
 40
1.0
176
     1
 40
1.0
176
     1
  0
VISUALSTYLE
  5
39
102
{ACAD_REACTORS
330
29
102
}
330
29
100
AcDbVisualStyle
  2
ColorChange
 70
    16
177
     3
291
     1
 70
    58
 90
        2
176
     1
 90
        2
176
     1
 90
        3
176
     1
 90
        0
176
     1
 40
0.6
176
     1
 40
30.0
176
     1
 62
     8
420
  8421504
176
     1
 90
        1
176
     1
 90
        4
176
     1
 62
     7
176
     1
 62
   257
176
     1
 90
        1
176
     1
 90
        1
176
     1
 40
1.0
176
     1
 90
        8
176
     1
 62
     8
420
  8421504
176
     1
 40
1.0
176
     1
 90
        1
176
     1
 90
        6
176
     1
 90
        2
176
     1
 62
     7
176
     1
 90
        5
176
     1
 90
        0
176
     1
 90
        0
176
     1
290
     0
176
     1
 90
        1
176
     1
 40
0.0
176
     1
 90
        0
176
     1
290
     0
176
     1
290
     1
176
     1
290
     1
176
     1
290
     0
176
     1
290
     0
176
     1
290
     0
176
     1
290
     0
176
     1
290
     0
176
     1
290
     0
176
     1
 90
       50
176
     1
 40
0.0
176
     1
 40
1.0
176
     1
 90
        0
176
     1
 62
    18
420
        0
176
     1
 90
       50
176
     1
 90
        3
176
     1
 62
     5
420
      255
176
     1
290
     0
176
     1
 90
       50
176
     1
 90
       50
176
     1
 90
       50
176
     1
290
     0
176
     1
 90
       50
176
     1
 62
   256
176
     0
 40
1.0
176
     0
 90
        2
176
     1
  1
strokes_ogs.tif
176
     1
290
     0
176
     1
 40
1.0
176
     1
 40
1.0
176
     1
  0
VISUALSTYLE
  5
32
102
{ACAD_REACTORS
330
29
102
}
330
29
100
AcDbVisualStyle
  2
Conceptual
 70
     9
177
     3
291
     0
 70
    58
 90
        3
176
     1
 90
        2
176
     1
 90
        0
176
     1
 90
        0
176
     1
 40
0.6
176
     1
 40
30.0
176
     1
 62
     7
420
 16777215
176
     1
 90
        2
176
     1
 90
        2
176
     1
 62
     7
176
     1
 62
   257
176
     1
 90
        1
176
     1
 90
        1
176
     1
 40
179.0
176
     1
 90
        8
176
     1
 62
     7
176
     1
 40
1.0
176
     1
 90
        1
176
     1
 90
        6
176
     1
 90
        2
176
     1
 62
     7
176
     1
 90
        3
176
     1
 90
        0
176
     1
 90
        0
176
     1
290
     0
176
     1
 90
        1
176
     1
 40
0.0
176
     1
 90
        0
176
     1
290
     0
176
     1
290
     1
176
     1
290
     1
176
     1
290
     0
176
     1
290
     0
176
     1
290
     0
176
     1
290
     0
176
     1
290
     0
176
     1
290
     0
176
     1
 90
       50
176
     1
 40
0.0
176
     1
 40
1.0
176
     1
 90
        0
176
     1
 62
    18
420
        0
176
     1
 90
       50
176
     1
 90
        3
176
     1
 62
     5
420
      255
176
     1
290
     0
176
     1
 90
       50
176
     1
 90
       50
176
     1
 90
       50
176
     1
290
     0
176
     1
 90
       50
176
     1
 62
   256
176
     0
 40
1.0
176
     0
 90
        2
176
     1
  1
strokes_ogs.tif
176
     1
290
     0
176
     1
 40
1.0
176
     1
 40
1.0
176
     1
  0
VISUALSTYLE
  5
34
102
{ACAD_REACTORS
330
29
102
}
330
29
100
AcDbVisualStyle
  2
Dim
 70
    11
177
     3
291
     1
 70
    58
 90
        2
176
     1
 90
        2
176
     1
 90
        0
176
     1
 90
        0
176
     1
 40
0.6
176
     1
 40
30.0
176
     1
 62
     7
420
 16777215
176
     1
 90
        1
176
     1
 90
        4
176
     1
 62
     7
176
     1
 62
   257
176
     1
 90
        1
176
     1
 90
        1
176
     1
 40
1.0
176
     1
 90
        8
176
     1
 62
     7
176
     1
 40
1.0
176
     1
 90
        1
176
     1
 90
        6
176
     1
 90
        2
176
     1
 62
     7
176
     1
 90
        5
176
     1
 90
        0
176
     1
 90
        0
176
     1
290
     0
176
     1
 90
        1
176
     1
 40
-50.0
176
     1
 90
        0
176
     1
290
     0
176
     1
290
     1
176
     1
290
     1
176
     1
290
     0
176
     1
290
     0
176
     1
290
     0
176
     1
290
     0
176
     1
290
     0
176
     1
290
     0
176
     1
 90
       50
176
     1
 40
0.0
176
     1
 40
1.0
176
     1
 90
        0
176
     1
 62
    18
420
        0
176
     1
 90
       50
176
     1
 90
        3
176
     1
 62
     5
420
      255
176
     1
290
     0
176
     1
 90
       50
176
     1
 90
       50
176
     1
 90
       50
176
     1
290
     0
176
     1
 90
       50
176
     1
 62
   256
176
     0
 40
1.0
176
     0
 90
        2
176
     1
  1
strokes_ogs.tif
176
     1
290
     0
176
     1
 40
1.0
176
     1
 40
1.0
176
     1
  0
VISUALSTYLE
  5
41
102
{ACAD_REACTORS
330
29
102
}
330
29
100
AcDbVisualStyle
  2
EdgeColorOff
 70
    22
177
     3
291
     1
 70
    58
 90
        2
176
     0
 90
        2
176
     0
 90
        0
176
     0
 90
        0
176
     0
 40
0.6
176
     0
 40
30.0
176
     0
 62
     7
420
 16777215
176
     0
 90
        1
176
     0
 90
        4
176
     0
 62
     7
176
     0
 62
   257
176
     0
 90
        1
176
     0
 90
        1
176
     0
 40
1.0
176
     0
 90
        8
176
     2
 62
     7
176
     0
 40
1.0
176
     0
 90
        1
176
     0
 90
        6
176
     0
 90
        2
176
     0
 62
     7
176
     0
 90
        5
176
     0
 90
        0
176
     0
 90
        0
176
     0
290
     0
176
     0
 90
        1
176
     0
 40
0.0
176
     0
 90
        0
176
     0
290
     0
176
     0
290
     1
176
     0
290
     1
176
     0
290
     0
176
     0
290
     0
176
     0
290
     0
176
     0
290
     0
176
     0
290
     0
176
     0
290
     0
176
     0
 90
       50
176
     0
 40
0.0
176
     0
 40
1.0
176
     0
 90
        0
176
     0
 62
    18
420
        0
176
     0
 90
       50
176
     0
 90
        3
176
     0
 62
     5
420
      255
176
     0
290
     0
176
     0
 90
       50
176
     0
 90
       50
176
     0
 90
       50
176
     0
290
     0
176
     0
 90
       50
176
     0
 62
   256
176
     0
 40
1.0
176
     0
 90
        2
176
     0
  1
strokes_ogs.tif
176
     0
290
     0
176
     0
 40
1.0
176
     0
 40
1.0
176
     0
  0
VISUALSTYLE
  5
38
102
{ACAD_REACTORS
330
29
102
}
330
29
100
AcDbVisualStyle
  2
Facepattern
 70
    15
177
     3
291
     1
 70
    58
 90
        2
176
     1
 90
        2
176
     1
 90
        0
176
     1
 90
        0
176
     1
 40
0.6
176
     1
 40
30.0
176
     1
 62
     7
420
 16777215
176
     1
 90
        1
176
     1
 90
        4
176
     1
 62
     7
176
     1
 62
   257
176
     1
 90
        1
176
     1
 90
        1
176
     1
 40
1.0
176
     1
 90
        8
176
     1
 62
     7
176
     1
 40
1.0
176
     1
 90
        1
176
     1
 90
        6
176
     1
 90
        2
176
     1
 62
     7
176
     1
 90
        5
176
     1
 90
        0
176
     1
 90
        0
176
     1
290
     0
176
     1
 90
        1
176
     1
 40
0.0
176
     1
 90
        0
176
     1
290
     0
176
     1
290
     1
176
     1
290
     1
176
     1
290
     0
176
     1
290
     0
176
     1
290
     0
176
     1
290
     0
176
     1
290
     0
176
     1
290
     0
176
     1
 90
       50
176
     1
 40
0.0
176
     1
 40
1.0
176
     1
 90
        0
176
     1
 62
    18
420
        0
176
     1
 90
       50
176
     1
 90
        3
176
     1
 62
     5
420
      255
176
     1
290
     0
176
     1
 90
       50
176
     1
 90
       50
176
     1
 90
       50
176
     1
290
     0
176
     1
 90
       50
176
     1
 62
   256
176
     0
 40
1.0
176
     0
 90
        2
176
     1
  1
strokes_ogs.tif
176
     1
290
     0
176
     1
 40
1.0
176
     1
 40
1.0
176
     1
  0
VISUALSTYLE
  5
2A
102
{ACAD_REACTORS
330
29
102
}
330
29
100
AcDbVisualStyle
  2
Flat
 70
     0
177
     3
291
     1
 70
    58
 90
        2
176
     1
 90
        1
176
     1
 90
        1
176
     1
 90
        2
176
     1
 40
0.6
176
     1
 40
30.0
176
     1
 62
     7
420
 16777215
176
     1
 90
        0
176
     1
 90
        0
176
     1
 62
     7
176
     1
 62
   257
176
     1
 90
        1
176
     1
 90
        1
176
     1
 40
1.0
176
     1
 90
        8
176
     1
 62
     7
176
     1
 40
1.0
176
     1
 90
        1
176
     1
 90
        6
176
     1
 90
        2
176
     1
 62
     7
176
     1
 90
        5
176
     1
 90
        0
176
     1
 90
        0
176
     1
290
     0
176
     1
 90
       13
176
     1
 40
0.0
176
     1
 90
        0
176
     1
290
     0
176
     1
290
     1
176
     1
290
     1
176
     1
290
     0
176
     1
290
     0
176
     1
290
     0
176
     1
290
     0
176
     1
290
     0
176
     1
290
     0
176
     1
 90
       50
176
     1
 40
0.0
176
     1
 40
1.0
176
     1
 90
        0
176
     1
 62
    18
420
        0
176
     1
 90
       50
176
     1
 90
        3
176
     1
 62
     5
420
      255
176
     1
290
     0
176
     1
 90
       50
176
     1
 90
       50
176
     1
 90
       50
176
     1
290
     0
176
     1
 90
       50
176
     1
 62
   256
176
     0
 40
1.0
176
     0
 90
        2
176
     1
  1
strokes_ogs.tif
176
     1
290
     0
176
     1
 40
1.0
176
     1
 40
1.0
176
     1
  0
VISUALSTYLE
  5
2B
102
{ACAD_REACTORS
330
29
102
}
330
29
100
AcDbVisualStyle
  2
FlatWithEdges
 70
     1
177
     3
291
     1
 70
    58
 90
        2
176
     1
 90
        1
176
     1
 90
        1
176
     1
 90
        2
176
     1
 40
0.6
176
     1
 40
30.0
176
     1
 62
     7
420
 16777215
176
     1
 90
        1
176
     1
 90
        0
176
     1
 62
     7
176
     1
 62
   257
176
     1
 90
        1
176
     1
 90
        1
176
     1
 40
1.0
176
     1
 90
        0
176
     1
 62
   257
176
     1
 40
1.0
176
     1
 90
        1
176
     1
 90
        6
176
     1
 90
        2
176
     1
 62
     7
176
     1
 90
        5
176
     1
 90
        0
176
     1
 90
        0
176
     1
290
     0
176
     1
 90
       13
176
     1
 40
0.0
176
     1
 90
        0
176
     1
290
     0
176
     1
290
     1
176
     1
290
     1
176
     1
290
     0
176
     1
290
     0
176
     1
290
     0
176
     1
290
     0
176
     1
290
     0
176
     1
290
     0
176
     1
 90
       50
176
     1
 40
0.0
176
     1
 40
1.0
176
     1
 90
        0
176
     1
 62
    18
420
        0
176
     1
 90
       50
176
     1
 90
        3
176
     1
 62
     5
420
      255
176
     1
290
     0
176
     1
 90
       50
176
     1
 90
       50
176
     1
 90
       50
176
     1
290
     0
176
     1
 90
       50
176
     1
 62
   256
176
     0
 40
1.0
176
     0
 90
        2
176
     1
  1
strokes_ogs.tif
176
     1
290
     0
176
     1
 40
1.0
176
     1
 40
1.0
176
     1
  0
VISUALSTYLE
  5
2C
102
{ACAD_REACTORS
330
29
102
}
330
29
100
AcDbVisualStyle
  2
Gouraud
 70
     2
177
     3
291
     1
 70
    58
 90
        2
176
     1
 90
        2
176
     1
 90
        1
176
     1
 90
        2
176
     1
 40
0.6
176
     1
 40
30.0
176
     1
 62
     7
420
 16777215
176
     1
 90
        0
176
     1
 90
        0
176
     1
 62
     7
176
     1
 62
   257
176
     1
 90
        1
176
     1
 90
        1
176
     1
 40
1.0
176
     1
 90
        0
176
     1
 62
     7
176
     1
 40
1.0
176
     1
 90
        1
176
     1
 90
        6
176
     1
 90
        2
176
     1
 62
     7
176
     1
 90
        5
176
     1
 90
        0
176
     1
 90
        0
176
     1
290
     0
176
     1
 90
       13
176
     1
 40
0.0
176
     1
 90
        0
176
     1
290
     0
176
     1
290
     1
176
     1
290
     1
176
     1
290
     0
176
     1
290
     0
176
     1
290
     0
176
     1
290
     0
176
     1
290
     0
176
     1
290
     0
176
     1
 90
       50
176
     1
 40
0.0
176
     1
 40
1.0
176
     1
 90
        0
176
     1
 62
    18
420
        0
176
     1
 90
       50
176
     1
 90
        3
176
     1
 62
     5
420
      255
176
     1
290
     0
176
     1
 90
       50
176
     1
 90
       50
176
     1
 90
       50
176
     1
290
     0
176
     1
 90
       50
176
     1
 62
   256
176
     0
 40
1.0
176
     0
 90
        2
176
     1
  1
strokes_ogs.tif
176
     1
290
     0
176
     1
 40
1.0
176
     1
 40
1.0
176
     1
  0
VISUALSTYLE
  5
2D
102
{ACAD_REACTORS
330
29
102
}
330
29
100
AcDbVisualStyle
  2
GouraudWithEdges
 70
     3
177
     3
291
     1
 70
    58
 90
        2
176
     1
 90
        2
176
     1
 90
        1
176
     1
 90
        2
176
     1
 40
0.6
176
     1
 40
30.0
176
     1
 62
     7
420
 16777215
176
     1
 90
        1
176
     1
 90
        0
176
     1
 62
     7
176
     1
 62
   257
176
     1
 90
        1
176
     1
 90
        1
176
     1
 40
1.0
176
     1
 90
        0
176
     1
 62
   257
176
     1
 40
1.0
176
     1
 90
        1
176
     1
 90
        6
176
     1
 90
        2
176
     1
 62
     7
176
     1
 90
        5
176
     1
 90
        0
176
     1
 90
        0
176
     1
290
     0
176
     1
 90
       13
176
     1
 40
0.0
176
     1
 90
        0
176
     1
290
     0
176
     1
290
     1
176
     1
290
     1
176
     1
290
     0
176
     1
290
     0
176
     1
290
     0
176
     1
290
     0
176
     1
290
     0
176
     1
290
     0
176
     1
 90
       50
176
     1
 40
0.0
176
     1
 40
1.0
176
     1
 90
        0
176
     1
 62
    18
420
        0
176
     1
 90
       50
176
     1
 90
        3
176
     1
 62
     5
420
      255
176
     1
290
     0
176
     1
 90
       50
176
     1
 90
       50
176
     1
 90
       50
176
     1
290
     0
176
     1
 90
       50
176
     1
 62
   256
176
     0
 40
1.0
176
     0
 90
        2
176
     1
  1
strokes_ogs.tif
176
     1
290
     0
176
     1
 40
1.0
176
     1
 40
1.0
176
     1
  0
VISUALSTYLE
  5
31
102
{ACAD_REACTORS
330
29
102
}
330
29
100
AcDbVisualStyle
  2
Hidden
 70
     6
177
     3
291
     0
 70
    58
 90
        1
176
     1
 90
        2
176
     1
 90
        2
176
     1
 90
        0
176
     1
 40
0.6
176
     1
 40
30.0
176
     1
 62
     7
420
 16777215
176
     1
 90
        2
176
     1
 90
        2
176
     1
 62
     7
176
     1
 62
   257
176
     1
 90
        2
176
     1
 90
        1
176
     1
 40
40.0
176
     1
 90
        0
176
     1
 62
   257
176
     1
 40
1.0
176
     1
 90
        1
176
     1
 90
        6
176
     1
 90
        2
176
     1
 62
     7
176
     1
 90
        3
176
     1
 90
        0
176
     1
 90
        0
176
     1
290
     0
176
     1
 90
        1
176
     1
 40
0.0
176
     1
 90
        0
176
     1
290
     0
176
     1
290
     1
176
     1
290
     1
176
     1
290
     0
176
     1
290
     0
176
     1
290
     0
176
     1
290
     0
176
     1
290
     0
176
     1
290
     0
176
     1
 90
       50
176
     1
 40
0.0
176
     1
 40
1.0
176
     1
 90
        0
176
     1
 62
    18
420
        0
176
     1
 90
       50
176
     1
 90
        3
176
     1
 62
     5
420
      255
176
     1
290
     0
176
     1
 90
       50
176
     1
 90
       50
176
     1
 90
       50
176
     1
290
     0
176
     1
 90
       50
176
     1
 62
   256
176
     0
 40
1.0
176
     0
 90
        2
176
     1
  1
strokes_ogs.tif
176
     1
290
     0
176
     1
 40
1.0
176
     1
 40
1.0
176
     1
  0
VISUALSTYLE
  5
3F
102
{ACAD_REACTORS
330
29
102
}
330
29
100
AcDbVisualStyle
  2
JitterOff
 70
    20
177
     3
291
     1
 70
    58
 90
        2
176
     0
 90
        2
176
     0
 90
        0
176
     0
 90
        0
176
     0
 40
0.6
176
     0
 40
30.0
176
     0
 62
     7
420
 16777215
176
     0
 90
        1
176
     0
 90
        4
176
     0
 62
     7
176
     0
 62
   257
176
     0
 90
        1
176
     0
 90
        1
176
     0
 40
1.0
176
     0
 90
       10
176
     2
 62
     7
176
     0
 40
1.0
176
     0
 90
        1
176
     0
 90
        6
176
     0
 90
        2
176
     0
 62
     7
176
     0
 90
        5
176
     0
 90
        0
176
     0
 90
        0
176
     0
290
     0
176
     0
 90
        1
176
     0
 40
0.0
176
     0
 90
        0
176
     0
290
     0
176
     0
290
     1
176
     0
290
     1
176
     0
290
     0
176
     0
290
     0
176
     0
290
     0
176
     0
290
     0
176
     0
290
     0
176
     0
290
     0
176
     0
 90
       50
176
     0
 40
0.0
176
     0
 40
1.0
176
     0
 90
        0
176
     0
 62
    18
420
        0
176
     0
 90
       50
176
     0
 90
        3
176
     0
 62
     5
420
      255
176
     0
290
     0
176
     0
 90
       50
176
     0
 90
       50
176
     0
 90
       50
176
     0
290
     0
176
     0
 90
       50
176
     0
 62
   256
176
     0
 40
1.0
176
     0
 90
        2
176
     0
  1
strokes_ogs.tif
176
     0
290
     0
176
     0
 40
1.0
176
     0
 40
1.0
176
     0
  0
VISUALSTYLE
  5
37
102
{ACAD_REACTORS
330
29
102
}
330
29
100
AcDbVisualStyle
  2
Linepattern
 70
    14
177
     3
291
     1
 70
    58
 90
        2
176
     1
 90
        2
176
     1
 90
        0
176
     1
 90
        0
176
     1
 40
0.6
176
     1
 40
30.0
176
     1
 62
     7
420
 16777215
176
     1
 90
        1
176
     1
 90
        4
176
     1
 62
     7
176
     1
 62
   257
176
     1
 90
        7
176
     1
 90
        7
176
     1
 40
1.0
176
     1
 90
        8
176
     1
 62
     7
176
     1
 40
1.0
176
     1
 90
        1
176
     1
 90
        6
176
     1
 90
        2
176
     1
 62
     7
176
     1
 90
        5
176
     1
 90
        0
176
     1
 90
        0
176
     1
290
     0
176
     1
 90
        1
176
     1
 40
0.0
176
     1
 90
        0
176
     1
290
     0
176
     1
290
     1
176
     1
290
     1
176
     1
290
     0
176
     1
290
     0
176
     1
290
     0
176
     1
290
     0
176
     1
290
     0
176
     1
290
     0
176
     1
 90
       50
176
     1
 40
0.0
176
     1
 40
1.0
176
     1
 90
        0
176
     1
 62
    18
420
        0
176
     1
 90
       50
176
     1
 90
        3
176
     1
 62
     5
420
      255
176
     1
290
     0
176
     1
 90
       50
176
     1
 90
       50
176
     1
 90
       50
176
     1
290
     0
176
     1
 90
       50
176
     1
 62
   256
176
     0
 40
1.0
176
     0
 90
        2
176
     1
  1
strokes_ogs.tif
176
     1
290
     0
176
     1
 40
1.0
176
     1
 40
1.0
176
     1
  0
VISUALSTYLE
  5
40
102
{ACAD_REACTORS
330
29
102
}
330
29
100
AcDbVisualStyle
  2
OverhangOff
 70
    21
177
     3
291
     1
 70
    58
 90
        2
176
     0
 90
        2
176
     0
 90
        0
176
     0
 90
        0
176
     0
 40
0.6
176
     0
 40
30.0
176
     0
 62
     7
420
 16777215
176
     0
 90
        1
176
     0
 90
        4
176
     0
 62
     7
176
     0
 62
   257
176
     0
 90
        1
176
     0
 90
        1
176
     0
 40
1.0
176
     0
 90
        9
176
     2
 62
     7
176
     0
 40
1.0
176
     0
 90
        1
176
     0
 90
        6
176
     0
 90
        2
176
     0
 62
     7
176
     0
 90
        5
176
     0
 90
        0
176
     0
 90
        0
176
     0
290
     0
176
     0
 90
        1
176
     0
 40
0.0
176
     0
 90
        0
176
     0
290
     0
176
     0
290
     1
176
     0
290
     1
176
     0
290
     0
176
     0
290
     0
176
     0
290
     0
176
     0
290
     0
176
     0
290
     0
176
     0
290
     0
176
     0
 90
       50
176
     0
 40
0.0
176
     0
 40
1.0
176
     0
 90
        0
176
     0
 62
    18
420
        0
176
     0
 90
       50
176
     0
 90
        3
176
     0
 62
     5
420
      255
176
     0
290
     0
176
     0
 90
       50
176
     0
 90
       50
176
     0
 90
       50
176
     0
290
     0
176
     0
 90
       50
176
     0
 62
   256
176
     0
 40
1.0
176
     0
 90
        2
176
     0
  1
strokes_ogs.tif
176
     0
290
     0
176
     0
 40
1.0
176
     0
 40
1.0
176
     0
  0
VISUALSTYLE
  5
33
102
{ACAD_REACTORS
330
29
102
}
330
29
100
AcDbVisualStyle
  2
Realistic
 70
     8
177
     3
291
     0
 70
    58
 90
        2
176
     1
 90
        3
176
     1
 90
        0
176
     1
 90
        2
176
     1
 40
0.6
176
     1
 40
30.0
176
     1
 62
     7
420
 16777215
176
     1
 90
        0
176
     1
 90
        0
176
     1
 62
     7
176
     1
 62
   257
176
     1
 90
        1
176
     1
 90
        1
176
     1
 40
1.0
176
     1
 90
        8
176
     1
 62
   257
176
     1
 40
1.0
176
     1
 90
        1
176
     1
 90
        6
176
     1
 90
        2
176
     1
 62
     7
176
     1
 90
        3
176
     1
 90
        0
176
     1
 90
        0
176
     1
290
     0
176
     1
 90
       13
176
     1
 40
0.0
176
     1
 90
        0
176
     1
290
     0
176
     1
290
     1
176
     1
290
     1
176
     1
290
     0
176
     1
290
     0
176
     1
290
     0
176
     1
290
     0
176
     1
290
     0
176
     1
290
     0
176
     1
 90
       50
176
     1
 40
0.0
176
     1
 40
1.0
176
     1
 90
        0
176
     1
 62
    18
420
        0
176
     1
 90
       50
176
     1
 90
        3
176
     1
 62
     5
420
      255
176
     1
290
     0
176
     1
 90
       50
176
     1
 90
       50
176
     1
 90
       50
176
     1
290
     0
176
     1
 90
       50
176
     1
 62
   256
176
     0
 40
1.0
176
     0
 90
        2
176
     1
  1
strokes_ogs.tif
176
     1
290
     0
176
     1
 40
1.0
176
     1
 40
1.0
176
     1
  0
VISUALSTYLE
  5
3E
102
{ACAD_REACTORS
330
29
102
}
330
29
100
AcDbVisualStyle
  2
Shaded
 70
    27
177
     3
291
     0
 70
    58
 90
        2
176
     1
 90
        2
176
     1
 90
        1
176
     1
 90
        2
176
     1
 40
0.6
176
     1
 40
30.0
176
     1
 62
     7
420
 16777215
176
     1
 90
        0
176
     1
 90
        4
176
     1
 62
     7
176
     1
 62
   257
176
     1
 90
        1
176
     1
 90
        1
176
     1
 40
1.0
176
     1
 90
        8
176
     1
 62
   257
176
     1
 40
1.0
176
     1
 90
        1
176
     1
 90
        6
176
     1
 90
        2
176
     1
 62
     8
420
  7895160
176
     1
 90
        3
176
     1
 90
        0
176
     1
 90
        0
176
     1
290
     0
176
     1
 90
        5
176
     1
 40
0.0
176
     1
 90
        0
176
     1
290
     0
176
     1
290
     1
176
     1
290
     1
176
     1
290
     0
176
     1
290
     0
176
     1
290
     0
176
     1
290
     0
176
     1
290
     0
176
     1
290
     0
176
     1
 90
       50
176
     1
 40
0.0
176
     1
 40
1.0
176
     1
 90
        0
176
     1
 62
    18
420
        0
176
     1
 90
       50
176
     1
 90
        3
176
     1
 62
     5
420
      255
176
     1
290
     0
176
     1
 90
       50
176
     1
 90
       50
176
     1
 90
       50
176
     1
290
     0
176
     1
 90
       50
176
     1
 62
   256
176
     0
 40
1.0
176
     0
 90
        2
176
     1
  1
strokes_ogs.tif
176
     1
290
     0
176
     1
 40
1.0
176
     1
 40
1.0
176
     1
  0
VISUALSTYLE
  5
3D
102
{ACAD_REACTORS
330
29
102
}
330
29
100
AcDbVisualStyle
  2
Shaded with edges
 70
    26
177
     3
291
     0
 70
    58
 90
        2
176
     1
 90
        2
176
     1
 90
        1
176
     1
 90
        2
176
     1
 40
0.6
176
     1
 40
30.0
176
     1
 62
     7
420
 16777215
176
     1
 90
        1
176
     1
 90
        2
176
     1
 62
     7
176
     1
 62
   257
176
     1
 90
        2
176
     1
 90
        1
176
     1
 40
1.0
176
     1
 90
        8
176
     1
 62
   257
176
     1
 40
1.0
176
     1
 90
        1
176
     1
 90
        6
176
     1
 90
        2
176
     1
 62
     7
176
     1
 90
        3
176
     1
 90
        0
176
     1
 90
        0
176
     1
290
     0
176
     1
 90
        5
176
     1
 40
0.0
176
     1
 90
        0
176
     1
290
     0
176
     1
290
     1
176
     1
290
     1
176
     1
290
     0
176
     1
290
     0
176
     1
290
     0
176
     1
290
     0
176
     1
290
     0
176
     1
290
     0
176
     1
 90
       50
176
     1
 40
0.0
176
     1
 40
1.0
176
     1
 90
        0
176
     1
 62
    18
420
        0
176
     1
 90
       50
176
     1
 90
        3
176
     1
 62
     5
420
      255
176
     1
290
     0
176
     1
 90
       50
176
     1
 90
       50
176
     1
 90
       50
176
     1
290
     0
176
     1
 90
       50
176
     1
 62
   256
176
     0
 40
1.0
176
     0
 90
        2
176
     1
  1
strokes_ogs.tif
176
     1
290
     0
176
     1
 40
1.0
176
     1
 40
1.0
176
     1
  0
VISUALSTYLE
  5
3A
102
{ACAD_REACTORS
330
29
102
}
330
29
100
AcDbVisualStyle
  2
Shades of Gray
 70
    23
177
     3
291
     0
 70
    58
 90
        2
176
     1
 90
        2
176
     1
 90
        3
176
     1
 90
        0
176
     1
 40
0.6
176
     1
 40
30.0
176
     1
 62
     7
420
 16777215
176
     1
 90
        2
176
     1
 90
        2
176
     1
 62
     7
176
     1
 62
     7
176
     1
 90
        1
176
     1
 90
        1
176
     1
 40
40.0
176
     1
 90
        8
176
     1
 62
     7
176
     1
 40
1.0
176
     1
 90
        1
176
     1
 90
        6
176
     1
 90
        2
176
     1
 62
     7
176
     1
 90
        3
176
     1
 90
        0
176
     1
 90
        0
176
     1
290
     0
176
     1
 90
        1
176
     1
 40
0.0
176
     1
 90
        0
176
     1
290
     0
176
     1
290
     1
176
     1
290
     1
176
     1
290
     0
176
     1
290
     0
176
     1
290
     0
176
     1
290
     0
176
     1
290
     0
176
     1
290
     0
176
     1
 90
       50
176
     1
 40
0.0
176
     1
 40
1.0
176
     1
 90
        0
176
     1
 62
    18
420
        0
176
     1
 90
       50
176
     1
 90
        3
176
     1
 62
     5
420
      255
176
     1
290
     0
176
     1
 90
       50
176
     1
 90
       50
176
     1
 90
       50
176
     1
290
     0
176
     1
 90
       50
176
     1
 62
   256
176
     0
 40
1.0
176
     0
 90
        2
176
     1
  1
strokes_ogs.tif
176
     1
290
     0
176
     1
 40
1.0
176
     1
 40
1.0
176
     1
  0
VISUALSTYLE
  5
3B
102
{ACAD_REACTORS
330
29
102
}
330
29
100
AcDbVisualStyle
  2
Sketchy
 70
    24
177
     3
291
     0
 70
    58
 90
        1
176
     1
 90
        2
176
     1
 90
        2
176
     1
 90
        0
176
     1
 40
0.6
176
     1
 40
30.0
176
     1
 62
     7
420
 16777215
176
     1
 90
        2
176
     1
 90
        2
176
     1
 62
     7
176
     1
 62
     7
176
     1
 90
        1
176
     1
 90
        1
176
     1
 40
40.0
176
     1
 90
       11
176
     1
 62
     7
176
     1
 40
1.0
176
     1
 90
        1
176
     1
 90
        6
176
     1
 90
        2
176
     1
 62
     7
176
     1
 90
        6
176
     1
 90
        0
176
     1
 90
        0
176
     1
290
     0
176
     1
 90
        1
176
     1
 40
0.0
176
     1
 90
        0
176
     1
290
     0
176
     1
290
     1
176
     1
290
     1
176
     1
290
     0
176
     1
290
     0
176
     1
290
     0
176
     1
290
     0
176
     1
290
     0
176
     1
290
     0
176
     1
 90
       50
176
     1
 40
0.0
176
     1
 40
1.0
176
     1
 90
        0
176
     1
 62
    18
420
        0
176
     1
 90
       50
176
     1
 90
        3
176
     1
 62
     5
420
      255
176
     1
290
     0
176
     1
 90
       50
176
     1
 90
       50
176
     1
 90
       50
176
     1
290
     0
176
     1
 90
       50
176
     1
 62
   256
176
     0
 40
1.0
176
     0
 90
        2
176
     1
  1
strokes_ogs.tif
176
     1
290
     0
176
     1
 40
1.0
176
     1
 40
1.0
176
     1
  0
VISUALSTYLE
  5
36
102
{ACAD_REACTORS
330
29
102
}
330
29
100
AcDbVisualStyle
  2
Thicken
 70
    13
177
     3
291
     1
 70
    58
 90
        2
176
     1
 90
        2
176
     1
 90
        0
176
     1
 90
        0
176
     1
 40
0.6
176
     1
 40
30.0
176
     1
 62
     7
420
 16777215
176
     1
 90
        1
176
     1
 90
        4
176
     1
 62
     7
176
     1
 62
   257
176
     1
 90
        1
176
     1
 90
        1
176
     1
 40
1.0
176
     1
 90
       12
176
     1
 62
     7
176
     1
 40
1.0
176
     1
 90
        1
176
     1
 90
        6
176
     1
 90
        2
176
     1
 62
     7
176
     1
 90
        5
176
     1
 90
        0
176
     1
 90
        0
176
     1
290
     0
176
     1
 90
        1
176
     1
 40
0.0
176
     1
 90
        0
176
     1
290
     0
176
     1
290
     1
176
     1
290
     1
176
     1
290
     0
176
     1
290
     0
176
     1
290
     0
176
     1
290
     0
176
     1
290
     0
176
     1
290
     0
176
     1
 90
       50
176
     1
 40
0.0
176
     1
 40
1.0
176
     1
 90
        0
176
     1
 62
    18
420
        0
176
     1
 90
       50
176
     1
 90
        3
176
     1
 62
     5
420
      255
176
     1
290
     0
176
     1
 90
       50
176
     1
 90
       50
176
     1
 90
       50
176
     1
290
     0
176
     1
 90
       50
176
     1
 62
   256
176
     0
 40
1.0
176
     0
 90
        2
176
     1
  1
strokes_ogs.tif
176
     1
290
     0
176
     1
 40
1.0
176
     1
 40
1.0
176
     1
  0
VISUALSTYLE
  5
30
102
{ACAD_REACTORS
330
29
102
}
330
29
100
AcDbVisualStyle
  2
Wireframe
 70
     5
177
     3
291
     0
 70
    58
 90
        0
176
     1
 90
        2
176
     1
 90
        0
176
     1
 90
        0
176
     1
 40
0.6
176
     1
 40
30.0
176
     1
 62
     7
420
 16777215
176
     1
 90
        1
176
     1
 90
        4
176
     1
 62
     7
176
     1
 62
   257
176
     1
 90
        1
176
     1
 90
        1
176
     1
 40
1.0
176
     1
 90
        0
176
     1
 62
   257
176
     1
 40
1.0
176
     1
 90
        1
176
     1
 90
        6
176
     1
 90
        2
176
     1
 62
     7
176
     1
 90
        3
176
     1
 90
        0
176
     1
 90
        0
176
     1
290
     0
176
     1
 90
        1
176
     1
 40
0.0
176
     1
 90
        0
176
     1
290
     0
176
     1
290
     1
176
     1
290
     1
176
     1
290
     0
176
     1
290
     0
176
     1
290
     0
176
     1
290
     0
176
     1
290
     0
176
     1
290
     0
176
     1
 90
       50
176
     1
 40
0.0
176
     1
 40
1.0
176
     1
 90
        0
176
     1
 62
    18
420
        0
176
     1
 90
       50
176
     1
 90
        3
176
     1
 62
     5
420
      255
176
     1
290
     0
176
     1
 90
       50
176
     1
 90
       50
176
     1
 90
       50
176
     1
290
     0
176
     1
 90
       50
176
     1
 62
   256
176
     0
 40
1.0
176
     0
 90
        2
176
     1
  1
strokes_ogs.tif
176
     1
290
     0
176
     1
 40
1.0
176
     1
 40
1.0
176
     1
  0
VISUALSTYLE
  5
3C
102
{ACAD_REACTORS
330
29
102
}
330
29
100
AcDbVisualStyle
  2
X-Ray
 70
    25
177
     3
291
     0
 70
    58
 90
        2
176
     1
 90
        2
176
     1
 90
        1
176
     1
 90
        1
176
     1
 40
0.5
176
     1
 40
30.0
176
     1
 62
     7
420
 16777215
176
     1
 90
        1
176
     1
 90
        0
176
     1
 62
     7
176
     1
 62
   257
176
     1
 90
        1
176
     1
 90
        1
176
     1
 40
1.0
176
     1
 90
        8
176
     1
 62
     7
176
     1
 40
1.0
176
     1
 90
        1
176
     1
 90
        6
176
     1
 90
        2
176
     1
 62
     7
176
     1
 90
        3
176
     1
 90
        0
176
     1
 90
        0
176
     1
290
     0
176
     1
 90
       13
176
     1
 40
0.0
176
     1
 90
        0
176
     1
290
     0
176
     1
290
     1
176
     1
290
     1
176
     1
290
     0
176
     1
290
     0
176
     1
290
     0
176
     1
290
     0
176
     1
290
     0
176
     1
290
     0
176
     1
 90
       50
176
     1
 40
0.0
176
     1
 40
1.0
176
     1
 90
        0
176
     1
 62
    18
420
        0
176
     1
 90
       50
176
     1
 90
        3
176
     1
 62
     5
420
      255
176
     1
290
     0
176
     1
 90
       50
176
     1
 90
       50
176
     1
 90
       50
176
     1
290
     0
176
     1
 90
       50
176
     1
 62
   256
176
     0
 40
1.0
176
     0
 90
        2
176
     1
  1
strokes_ogs.tif
176
     1
290
     0
176
     1
 40
1.0
176
     1
 40
1.0
176
     1
  0
DICTIONARYVAR
  5
92
102
{ACAD_REACTORS
330
8D
102
}
330
8D
100
DictionaryVariables
280
     0
  1
1:1
  0
DICTIONARYVAR
  5
8F
102
{ACAD_REACTORS
330
8D
102
}
330
8D
100
DictionaryVariables
280
     0
  1
STANDARD
  0
DICTIONARYVAR
  5
8E
102
{ACAD_REACTORS
330
8D
102
}
330
8D
100
DictionaryVariables
280
     0
  1
STANDARD
  0
DICTIONARYVAR
  5
90
102
{ACAD_REACTORS
330
8D
102
}
330
8D
100
DictionaryVariables
280
     0
  1
Imperial24
  0
DICTIONARYVAR
  5
91
102
{ACAD_REACTORS
330
8D
102
}
330
8D
100
DictionaryVariables
280
     0
  1
Imperial24
  0
DICTIONARY
  5
1A
330
19
100
AcDbDictionary
280
     1
281
     1
  3
BUMPTILE
360
1C
  3
DIFFUSETILE
360
1B
  3
OPACITYTILE
360
1F
  3
REFLECTIONTILE
360
1E
  3
REFRACTIONTILE
360
20
  3
SPECULARTILE
360
1D
  0
DICTIONARY
  5
12
330
11
100
AcDbDictionary
280
     1
281
     1
  3
BUMPTILE
360
14
  3
DIFFUSETILE
360
13
  3
OPACITYTILE
360
17
  3
REFLECTIONTILE
360
16
  3
REFRACTIONTILE
360
18
  3
SPECULARTILE
360
15
  0
DICTIONARY
  5
22
330
21
100
AcDbDictionary
280
     1
281
     1
  3
BUMPTILE
360
24
  3
DIFFUSETILE
360
23
  3
OPACITYTILE
360
27
  3
REFLECTIONTILE
360
26
  3
REFRACTIONTILE
360
28
  3
SPECULARTILE
360
25
  0
DICTIONARY
  5
93
330
65
100
AcDbDictionary
280
     1
281
     1
  3
ACAD_ROUNDTRIP_2008_TABLESTYLE_CELLSTYLEMAP
360
94
  0
XRECORD
  5
1C
102
{ACAD_REACTORS
330
1A
102
}
330
1A
100
AcDbXrecord
280
     1
270
     1
271
     1
  0
XRECORD
  5
1B
102
{ACAD_REACTORS
330
1A
102
}
330
1A
100
AcDbXrecord
280
     1
270
     1
271
     1
  0
XRECORD
  5
1F
102
{ACAD_REACTORS
330
1A
102
}
330
1A
100
AcDbXrecord
280
     1
270
     1
271
     1
  0
XRECORD
  5
1E
102
{ACAD_REACTORS
330
1A
102
}
330
1A
100
AcDbXrecord
280
     1
270
     1
271
     1
  0
XRECORD
  5
20
102
{ACAD_REACTORS
330
1A
102
}
330
1A
100
AcDbXrecord
280
     1
270
     1
271
     1
  0
XRECORD
  5
1D
102
{ACAD_REACTORS
330
1A
102
}
330
1A
100
AcDbXrecord
280
     1
270
     1
271
     1
  0
XRECORD
  5
14
102
{ACAD_REACTORS
330
12
102
}
330
12
100
AcDbXrecord
280
     1
270
     1
271
     1
  0
XRECORD
  5
13
102
{ACAD_REACTORS
330
12
102
}
330
12
100
AcDbXrecord
280
     1
270
     1
271
     1
  0
XRECORD
  5
17
102
{ACAD_REACTORS
330
12
102
}
330
12
100
AcDbXrecord
280
     1
270
     1
271
     1
  0
XRECORD
  5
16
102
{ACAD_REACTORS
330
12
102
}
330
12
100
AcDbXrecord
280
     1
270
     1
271
     1
  0
XRECORD
  5
18
102
{ACAD_REACTORS
330
12
102
}
330
12
100
AcDbXrecord
280
     1
270
     1
271
     1
  0
XRECORD
  5
15
102
{ACAD_REACTORS
330
12
102
}
330
12
100
AcDbXrecord
280
     1
270
     1
271
     1
  0
XRECORD
  5
24
102
{ACAD_REACTORS
330
22
102
}
330
22
100
AcDbXrecord
280
     1
270
     1
271
     1
  0
XRECORD
  5
23
102
{ACAD_REACTORS
330
22
102
}
330
22
100
AcDbXrecord
280
     1
270
     1
271
     1
  0
XRECORD
  5
27
102
{ACAD_REACTORS
330
22
102
}
330
22
100
AcDbXrecord
280
     1
270
     1
271
     1
  0
XRECORD
  5
26
102
{ACAD_REACTORS
330
22
102
}
330
22
100
AcDbXrecord
280
     1
270
     1
271
     1
  0
XRECORD
  5
28
102
{ACAD_REACTORS
330
22
102
}
330
22
100
AcDbXrecord
280
     1
270
     1
271
     1
  0
XRECORD
  5
25
102
{ACAD_REACTORS
330
22
102
}
330
22
100
AcDbXrecord
280
     1
270
     1
271
     1
  0
CELLSTYLEMAP
  5
94
102
{ACAD_REACTORS
330
93
102
}
330
93
100
AcDbCellStyleMap
 90
        3
300
CELLSTYLE
  1
TABLEFORMAT_BEGIN
 90
        5
170
     1
 91
        0
 92
    32768
 62
   257
 93
        1
300
CONTENTFORMAT
  1
CONTENTFORMAT_BEGIN
 90
        0
 91
        0
 92
      512
 93
        0
300

 40
0.0
140
1.0
 94
        5
 62
     0
340
55
144
0.25
309
CONTENTFORMAT_END
171
     0
 94
        0
309
TABLEFORMAT_END
  1
CELLSTYLE_BEGIN
 90
        1
 91
        1
300
_TITLE
309
CELLSTYLE_END
300
CELLSTYLE
  1
TABLEFORMAT_BEGIN
 90
        5
170
     1
 91
        0
 92
        0
 62
   257
 93
        1
300
CONTENTFORMAT
  1
CONTENTFORMAT_BEGIN
 90
        0
 91
        0
 92
      512
 93
        0
300

 40
0.0
140
1.0
 94
        5
 62
     0
340
55
144
0.18
309
CONTENTFORMAT_END
171
     0
 94
        0
309
TABLEFORMAT_END
  1
CELLSTYLE_BEGIN
 90
        2
 91
        1
300
_HEADER
309
CELLSTYLE_END
300
CELLSTYLE
  1
TABLEFORMAT_BEGIN
 90
        5
170
     1
 91
        0
 92
        0
 62
   257
 93
        1
300
CONTENTFORMAT
  1
CONTENTFORMAT_BEGIN
 90
        0
 91
        0
 92
      512
 93
        0
300

 40
0.0
140
1.0
 94
        2
 62
     0
340
55
144
0.18
309
CONTENTFORMAT_END
171
     0
 94
        0
309
TABLEFORMAT_END
  1
CELLSTYLE_BEGIN
 90
        3
 91
        2
300
_DATA
309
CELLSTYLE_END
  0
ENDSEC
  0
EOF
