  0
SECTION
  2
HEADER
  9
$ACADVER
  1
AC1032
  9
$ACADMAINTVER
 90
      228
  9
$DWGCODEPAGE
  3
ANSI_1252
  9
$REQUIREDVERSIONS
160
                 0
  9
$INSBASE
 10
0.0
 20
0.0
 30
0.0
  9
$EXTMIN
 10
1.000000000000000E+20
 20
1.000000000000000E+20
 30
1.000000000000000E+20
  9
$EXTMAX
 10
-1.000000000000000E+20
 20
-1.000000000000000E+20
 30
-1.000000000000000E+20
  9
$LIMMIN
 10
0.0
 20
0.0
  9
$LIMMAX
 10
12.0
 20
9.0
  9
$ORTHOMODE
 70
     0
  9
$REGENMODE
 70
     1
  9
$FILLMODE
 70
     1
  9
$QTEXTMODE
 70
     0
  9
$MIRRTEXT
 70
     0
  9
$LTSCALE
 40
1.0
  9
$ATTMODE
 70
     1
  9
$TEXTSIZE
 40
0.2
  9
$TRACEWID
 40
0.05
  9
$TEXTSTYLE
  7
Standard
  9
$CLAYER
  8
0
  9
$CELTYPE
  6
ByLayer
  9
$CECOLOR
 62
   256
  9
$CELTSCALE
 40
1.0
  9
$DISPSILH
 70
     0
  9
$DIMSCALE
 40
1.0
  9
$DIMASZ
 40
0.18
  9
$DIMEXO
 40
0.0625
  9
$DIMDLI
 40
0.38
  9
$DIMRND
 40
0.0
  9
$DIMDLE
 40
0.0
  9
$DIMEXE
 40
0.18
  9
$DIMTP
 40
0.0
  9
$DIMTM
 40
0.0
  9
$DIMTXT
 40
0.18
  9
$DIMCEN
 40
0.09
  9
$DIMTSZ
 40
0.0
  9
$DIMTOL
 70
     0
  9
$DIMLIM
 70
     0
  9
$DIMTIH
 70
     1
  9
$DIMTOH
 70
     1
  9
$DIMSE1
 70
     0
  9
$DIMSE2
 70
     0
  9
$DIMTAD
 70
     0
  9
$DIMZIN
 70
     0
  9
$DIMBLK
  1

  9
$DIMASO
 70
     1
  9
$DIMSHO
 70
     1
  9
$DIMPOST
  1

  9
$DIMAPOST
  1

  9
$DIMALT
 70
     0
  9
$DIMALTD
 70
     2
  9
$DIMALTF
 40
25.4
  9
$DIMLFAC
 40
1.0
  9
$DIMTOFL
 70
     0
  9
$DIMTVP
 40
0.0
  9
$DIMTIX
 70
     0
  9
$DIMSOXD
 70
     0
  9
$DIMSAH
 70
     0
  9
$DIMBLK1
  1

  9
$DIMBLK2
  1

  9
$DIMSTYLE
  2
Standard
  9
$DIMCLRD
 70
     0
  9
$DIMCLRE
 70
     0
  9
$DIMCLRT
 70
     0
  9
$DIMTFAC
 40
1.0
  9
$DIMGAP
 40
0.09
  9
$DIMJUST
 70
     0
  9
$DIMSD1
 70
     0
  9
$DIMSD2
 70
     0
  9
$DIMTOLJ
 70
     1
  9
$DIMTZIN
 70
     0
  9
$DIMALTZ
 70
     0
  9
$DIMALTTZ
 70
     0
  9
$DIMUPT
 70
     0
  9
$DIMDEC
 70
     4
  9
$DIMTDEC
 70
     4
  9
$DIMALTU
 70
     2
  9
$DIMALTTD
 70
     2
  9
$DIMTXSTY
  7
Standard
  9
$DIMAUNIT
 70
     0
  9
$DIMADEC
 70
     0
  9
$DIMALTRND
 40
0.0
  9
$DIMAZIN
 70
     0
  9
$DIMDSEP
 70
    46
  9
$DIMATFIT
 70
     3
  9
$DIMFRAC
 70
     0
  9
$DIMLDRBLK
  1

  9
$DIMLUNIT
 70
     2
  9
$DIMLWD
 70
    -2
  9
$DIMLWE
 70
    -2
  9
$DIMTMOVE
 70
     0
  9
$DIMFXL
 40
1.0
  9
$DIMFXLON
 70
     0
  9
$DIMJOGANG
 40
0.7853981633974483
  9
$DIMTFILL
 70
     0
  9
$DIMTFILLCLR
 70
     0
  9
$DIMARCSYM
 70
     0
  9
$DIMLTYPE
  6

  9
$DIMLTEX1
  6

  9
$DIMLTEX2
  6

  9
$DIMTXTDIRECTION
 70
     0
  9
$LUNITS
 70
     2
  9
$LUPREC
 70
     4
  9
$SKETCHINC
 40
0.1
  9
$FILLETRAD
 40
0.0
  9
$AUNITS
 70
     0
  9
$AUPREC
 70
     0
  9
$MENU
  1
.
  9
$ELEVATION
 40
0.0
  9
$PELEVATION
 40
0.0
  9
$THICKNESS
 40
0.0
  9
$LIMCHECK
 70
     0
  9
$CHAMFERA
 40
0.0
  9
$CHAMFERB
 40
0.0
  9
$CHAMFERC
 40
0.0
  9
$CHAMFERD
 40
0.0
  9
$SKPOLY
 70
     0
  9
$TDCREATE
 40
2460929.579120371
  9
$TDUCREATE
 40
2460929.370787037
  9
$TDUPDATE
 40
2460929.579120371
  9
$TDUUPDATE
 40
2460929.370787037
  9
$TDINDWG
 40
0.0000000000
  9
$TDUSRTIMER
 40
0.0000000000
  9
$USRTIMER
 70
     1
  9
$ANGBASE
 50
0.0
  9
$ANGDIR
 70
     0
  9
$PDMODE
 70
     0
  9
$PDSIZE
 40
0.0
  9
$PLINEWID
 40
0.0
  9
$SPLFRAME
 70
     0
  9
$SPLINETYPE
 70
     6
  9
$SPLINESEGS
 70
     8
  9
$HANDSEED
  5
9A
  9
$SURFTAB1
 70
     6
  9
$SURFTAB2
 70
     6
  9
$SURFTYPE
 70
     6
  9
$SURFU
 70
     6
  9
$SURFV
 70
     6
  9
$UCSBASE
  2

  9
$UCSNAME
  2

  9
$UCSORG
 10
0.0
 20
0.0
 30
0.0
  9
$UCSXDIR
 10
1.0
 20
0.0
 30
0.0
  9
$UCSYDIR
 10
0.0
 20
1.0
 30
0.0
  9
$UCSORTHOREF
  2

  9
$UCSORTHOVIEW
 70
     0
  9
$UCSORGTOP
 10
0.0
 20
0.0
 30
0.0
  9
$UCSORGBOTTOM
 10
0.0
 20
0.0
 30
0.0
  9
$UCSORGLEFT
 10
0.0
 20
0.0
 30
0.0
  9
$UCSORGRIGHT
 10
0.0
 20
0.0
 30
0.0
  9
$UCSORGFRONT
 10
0.0
 20
0.0
 30
0.0
  9
$UCSORGBACK
 10
0.0
 20
0.0
 30
0.0
  9
$PUCSBASE
  2

  9
$PUCSNAME
  2

  9
$PUCSORG
 10
0.0
 20
0.0
 30
0.0
  9
$PUCSXDIR
 10
1.0
 20
0.0
 30
0.0
  9
$PUCSYDIR
 10
0.0
 20
1.0
 30
0.0
  9
$PUCSORTHOREF
  2

  9
$PUCSORTHOVIEW
 70
     0
  9
$PUCSORGTOP
 10
0.0
 20
0.0
 30
0.0
  9
$PUCSORGBOTTOM
 10
0.0
 20
0.0
 30
0.0
  9
$PUCSORGLEFT
 10
0.0
 20
0.0
 30
0.0
  9
$PUCSORGRIGHT
 10
0.0
 20
0.0
 30
0.0
  9
$PUCSORGFRONT
 10
0.0
 20
0.0
 30
0.0
  9
$PUCSORGBACK
 10
0.0
 20
0.0
 30
0.0
  9
$USERI1
 70
     0
  9
$USERI2
 70
     0
  9
$USERI3
 70
     0
  9
$USERI4
 70
     0
  9
$USERI5
 70
     0
  9
$USERR1
 40
0.0
  9
$USERR2
 40
0.0
  9
$USERR3
 40
0.0
  9
$USERR4
 40
0.0
  9
$USERR5
 40
0.0
  9
$WORLDVIEW
 70
     1
  9
$SHADEDGE
 70
     3
  9
$SHADEDIF
 70
    70
  9
$TILEMODE
 70
     1
  9
$MAXACTVP
 70
    64
  9
$PINSBASE
 10
0.0
 20
0.0
 30
0.0
  9
$PLIMCHECK
 70
     0
  9
$PEXTMIN
 10
1.000000000000000E+20
 20
1.000000000000000E+20
 30
1.000000000000000E+20
  9
$PEXTMAX
 10
-1.000000000000000E+20
 20
-1.000000000000000E+20
 30
-1.000000000000000E+20
  9
$PLIMMIN
 10
0.0
 20
0.0
  9
$PLIMMAX
 10
12.0
 20
9.0
  9
$UNITMODE
 70
     0
  9
$VISRETAIN
 70
     1
  9
$PLINEGEN
 70
     0
  9
$PSLTSCALE
 70
     1
  9
$TREEDEPTH
 70
  3020
  9
$CMLSTYLE
  2
Standard
  9
$CMLJUST
 70
     0
  9
$CMLSCALE
 40
1.0
  9
$PROXYGRAPHICS
 70
     1
  9
$MEASUREMENT
 70
     0
  9
$CELWEIGHT
370
    -1
  9
$ENDCAPS
280
     0
  9
$JOINSTYLE
280
     0
  9
$LWDISPLAY
290
     1
  9
$INSUNITS
 70
     0
  9
$HYPERLINKBASE
  1

  9
$STYLESHEET
  1

  9
$XEDIT
290
     1
  9
$CEPSNTYPE
380
     0
  9
$PSTYLEMODE
290
     1
  9
$FINGERPRINTGUID
  2
{D93BD368-AE0E-B44A-AB34-2AC8E803EEC5}
  9
$VERSIONGUID
  2
{41510233-67DF-954B-A91A-ED531C99B690}
  9
$EXTNAMES
290
     1
  9
$PSVPSCALE
 40
0.0
  9
$OLESTARTUP
290
     0
  9
$SORTENTS
280
   127
  9
$INDEXCTL
280
     0
  9
$HIDETEXT
280
     1
  9
$XCLIPFRAME
280
     2
  9
$HALOGAP
280
     0
  9
$OBSCOLOR
 70
   257
  9
$OBSLTYPE
280
     0
  9
$INTERSECTIONDISPLAY
280
     0
  9
$INTERSECTIONCOLOR
 70
   257
  9
$DIMASSOC
280
     2
  9
$PROJECTNAME
  1

  9
$CAMERADISPLAY
290
     0
  9
$LENSLENGTH
 40
50.0
  9
$CAMERAHEIGHT
 40
0.0
  9
$STEPSPERSEC
 40
2.0
  9
$STEPSIZE
 40
6.0
  9
$3DDWFPREC
 40
2.0
  9
$PSOLWIDTH
 40
0.25
  9
$PSOLHEIGHT
 40
4.0
  9
$LOFTANG1
 40
1.570796326794896
  9
$LOFTANG2
 40
1.570796326794896
  9
$LOFTMAG1
 40
0.0
  9
$LOFTMAG2
 40
0.0
  9
$LOFTPARAM
 70
     7
  9
$LOFTNORMALS
280
     1
  9
$LATITUDE
 40
37.795
  9
$LONGITUDE
 40
-122.394
  9
$NORTHDIRECTION
 40
0.0
  9
$TIMEZONE
 70
 -8000
  9
$LIGHTGLYPHDISPLAY
280
     1
  9
$TILEMODELIGHTSYNCH
280
     1
  9
$CMATERIAL
347
11
  9
$SOLIDHIST
280
     0
  9
$SHOWHIST
280
     1
  9
$DWFFRAME
280
     2
  9
$DGNFRAME
280
     0
  9
$REALWORLDSCALE
290
     1
  9
$INTERFERECOLOR
 62
     1
  9
$INTERFEREOBJVS
345
33
  9
$INTERFEREVPVS
346
30
  9
$CSHADOW
280
     0
  9
$SHADOWPLANELOCATION
 40
0.0
  0
ENDSEC
  0
SECTION
  2
CLASSES
  0
CLASS
  1
ACDBDICTIONARYWDFLT
  2
AcDbDictionaryWithDefault
  3
ObjectDBX Classes
 90
        0
 91
        1
280
     0
281
     0
  0
CLASS
  1
MATERIAL
  2
AcDbMaterial
  3
ObjectDBX Classes
 90
     1153
 91
        3
280
     0
281
     0
  0
CLASS
  1
VISUALSTYLE
  2
AcDbVisualStyle
  3
ObjectDBX Classes
 90
     4095
 91
       24
280
     0
281
     0
  0
CLASS
  1
SCALE
  2
AcDbScale
  3
ObjectDBX Classes
 90
     1153
 91
       17
280
     0
281
     0
  0
CLASS
  1
TABLESTYLE
  2
AcDbTableStyle
  3
ObjectDBX Classes
 90
     4095
 91
        1
280
     0
281
     0
  0
CLASS
  1
MLEADERSTYLE
  2
AcDbMLeaderStyle
  3
ACDB_MLEADERSTYLE_CLASS
 90
     4095
 91
        1
280
     0
281
     0
  0
CLASS
  1
ACDBSECTIONVIEWSTYLE
  2
AcDbSectionViewStyle
  3
ObjectDBX Classes
 90
     1025
 91
        1
280
     0
281
     0
  0
CLASS
  1
ACDBDETAILVIEWSTYLE
  2
AcDbDetailViewStyle
  3
ObjectDBX Classes
 90
     1025
 91
        1
280
     0
281
     0
  0
CLASS
  1
DICTIONARYVAR
  2
AcDbDictionaryVar
  3
ObjectDBX Classes
 90
        0
 91
        5
280
     0
281
     0
  0
CLASS
  1
CELLSTYLEMAP
  2
AcDbCellStyleMap
  3
ObjectDBX Classes
 90
     1152
 91
        1
280
     0
281
     0
  0
ENDSEC
  0
SECTION
  2
TABLES
  0
TABLE
  2
VPORT
  5
8
330
0
100
AcDbSymbolTable
 70
     1
  0
VPORT
  5
57
330
8
100
AcDbSymbolTableRecord
100
AcDbViewportTableRecord
  2
*Active
 70
     0
 10
0.0
 20
0.0
 11
1.0
 21
1.0
 12
0.0
 22
0.0
 13
0.0
 23
0.0
 14
1.0
 24
1.0
 15
0.0
 25
0.0
 16
0.0
 26
0.0
 36
1.0
 17
2070.329143804109
 27
-1549.708560332395
 37
0.0
 40
3099.36839297975
 41
1.304893925962813
 42
50.0
 43
0.0
 44
0.0
 50
0.0
 51
0.0
 71
     0
 72
   100
 73
     1
 74
     1
 75
     0
 76
     0
 77
     0
 78
     0
281
     0
 65
     1
110
0.0
120
0.0
130
0.0
111
1.0
121
0.0
131
0.0
112
0.0
122
1.0
132
0.0
 79
     0
146
0.0
 60
     3
 61
     5
292
     1
282
     1
141
0.0
142
0.0
 63
   250
421
  3355443
  0
ENDTAB
  0
TABLE
  2
LTYPE
  5
5
330
0
100
AcDbSymbolTable
 70
     1
  0
LTYPE
  5
5B
330
5
100
AcDbSymbolTableRecord
100
AcDbLinetypeTableRecord
  2
ByBlock
 70
     0
  3

 72
    65
 73
     0
 40
0.0
  0
LTYPE
  5
5C
330
5
100
AcDbSymbolTableRecord
100
AcDbLinetypeTableRecord
  2
ByLayer
 70
     0
  3

 72
    65
 73
     0
 40
0.0
  0
LTYPE
  5
5D
330
5
100
AcDbSymbolTableRecord
100
AcDbLinetypeTableRecord
  2
Continuous
 70
     0
  3
Solid line
 72
    65
 73
     0
 40
0.0
  0
ENDTAB
  0
TABLE
  2
LAYER
  5
2
330
0
100
AcDbSymbolTable
 70
     2
  0
LAYER
  5
54
330
2
100
AcDbSymbolTableRecord
100
AcDbLayerTableRecord
  2
0
 70
     0
 62
     7
  6
Continuous
370
    -3
390
F
347
21
348
0
  0
LAYER
  5
78
330
2
100
AcDbSymbolTableRecord
100
AcDbLayerTableRecord
  2
Layer 1
 70
     0
 62
     7
  6
Continuous
370
     0
390
F
347
21
348
0
  0
ENDTAB
  0
TABLE
  2
STYLE
  5
3
330
0
100
AcDbSymbolTable
 70
     2
  0
STYLE
  5
55
330
3
100
AcDbSymbolTableRecord
100
AcDbTextStyleTableRecord
  2
Standard
 70
     0
 40
0.0
 41
1.0
 50
0.0
 71
     0
 42
0.2
  3
txt
  4

  0
STYLE
  5
5A
330
3
100
AcDbSymbolTableRecord
100
AcDbTextStyleTableRecord
  2
Annotative
 70
     0
 40
0.0
 41
1.0
 50
0.0
 71
     0
 42
0.2
  3
txt
  4

1001
AcadAnnotative
1000
AnnotativeData
1002
{
1070
     1
1070
     1
1002
}
  0
ENDTAB
  0
TABLE
  2
VIEW
  5
6
330
0
100
AcDbSymbolTable
 70
     0
  0
ENDTAB
  0
TABLE
  2
UCS
  5
7
330
0
100
AcDbSymbolTable
 70
     0
  0
ENDTAB
  0
TABLE
  2
APPID
  5
9
330
0
100
AcDbSymbolTable
 70
     2
  0
APPID
  5
56
330
9
100
AcDbSymbolTableRecord
100
AcDbRegAppTableRecord
  2
ACAD
 70
     0
  0
APPID
  5
5E
330
9
100
AcDbSymbolTableRecord
100
AcDbRegAppTableRecord
  2
AcadAnnotative
 70
     0
  0
ENDTAB
  0
TABLE
  2
DIMSTYLE
  5
A
330
0
100
AcDbSymbolTable
 70
     2
100
AcDbDimStyleTable
 71
     0
  0
DIMSTYLE
105
58
330
A
100
AcDbSymbolTableRecord
100
AcDbDimStyleTableRecord
  2
Standard
 70
     0
340
55
  0
DIMSTYLE
105
59
330
A
100
AcDbSymbolTableRecord
100
AcDbDimStyleTableRecord
  2
Annotative
 70
     0
340
55
1001
AcadAnnotative
1000
AnnotativeData
1002
{
1070
     1
1070
     1
1002
}
  0
ENDTAB
  0
TABLE
  2
BLOCK_RECORD
  5
1
330
0
100
AcDbSymbolTable
 70
     1
  0
BLOCK_RECORD
  5
70
330
1
100
AcDbSymbolTableRecord
100
AcDbBlockTableRecord
  2
*Model_Space
340
73
 70
     0
280
     1
281
     0
  0
BLOCK_RECORD
  5
6C
330
1
100
AcDbSymbolTableRecord
100
AcDbBlockTableRecord
  2
*Paper_Space
340
6F
 70
     0
280
     1
281
     0
  0
BLOCK_RECORD
  5
74
330
1
100
AcDbSymbolTableRecord
100
AcDbBlockTableRecord
  2
*Paper_Space0
340
77
 70
     0
280
     1
281
     0
  0
ENDTAB
  0
ENDSEC
  0
SECTION
  2
BLOCKS
  0
BLOCK
  5
71
330
70
100
AcDbEntity
  8
0
100
AcDbBlockBegin
  2
*Model_Space
 70
     0
 10
0.0
 20
0.0
 30
0.0
  3
*Model_Space
  1

  0
ENDBLK
  5
72
330
70
100
AcDbEntity
  8
0
100
AcDbBlockEnd
  0
BLOCK
  5
6D
330
6C
100
AcDbEntity
 67
     1
  8
0
100
AcDbBlockBegin
  2
*Paper_Space
 70
     0
 10
0.0
 20
0.0
 30
0.0
  3
*Paper_Space
  1

  0
ENDBLK
  5
6E
330
6C
100
AcDbEntity
 67
     1
  8
0
100
AcDbBlockEnd
  0
BLOCK
  5
75
330
74
100
AcDbEntity
 67
     1
  8
0
100
AcDbBlockBegin
  2
*Paper_Space0
 70
     0
 10
0.0
 20
0.0
 30
0.0
  3
*Paper_Space0
  1

  0
ENDBLK
  5
76
330
74
100
AcDbEntity
 67
     1
  8
0
100
AcDbBlockEnd
  0
ENDSEC
  0
SECTION
  2
ENTITIES
  0
SPLINE
  5
79
330
70
100
AcDbEntity
  8
Layer 1
100
AcDbSpline
210
0.0
220
0.0
230
1.0
 70
     9
 71
     3
 72
    53
 73
    49
 74
     0
 42
0.0000000001
 43
0.0000000001
 40
0.0
 40
0.0
 40
0.0
 40
0.0
 40
1.0
 40
1.0
 40
1.0
 40
2.0
 40
2.0
 40
2.0
 40
3.0
 40
3.0
 40
3.0
 40
4.0
 40
4.0
 40
4.0
 40
5.0
 40
5.0
 40
5.0
 40
6.0
 40
6.0
 40
6.0
 40
7.0
 40
7.0
 40
7.0
 40
8.0
 40
8.0
 40
8.0
 40
9.0
 40
9.0
 40
9.0
 40
10.0
 40
10.0
 40
10.0
 40
11.0
 40
11.0
 40
11.0
 40
12.0
 40
12.0
 40
12.0
 40
13.0
 40
13.0
 40
13.0
 40
14.0
 40
14.0
 40
14.0
 40
15.0
 40
15.0
 40
15.0
 40
16.0
 40
16.0
 40
16.0
 40
16.0
 10
3000.016763303082
 20
-1281.867610958128
 30
0.0
 10
3000.016763303082
 20
-1281.867610958128
 30
0.0
 10
2999.968069737597
 20
-1281.867610958128
 30
0.0
 10
2999.968069737597
 20
-1281.867610958128
 30
0.0
 10
2999.968069737597
 20
-1341.263690710071
 30
0.0
 10
2999.96110137395
 20
-1400.659770462014
 30
0.0
 10
2999.975038101247
 20
-1460.062776087583
 30
0.0
 10
2999.975038101247
 20
-1465.075111560534
 30
0.0
 10
2999.682621768227
 20
-1470.024816740715
 30
0.0
 10
2997.914441982937
 20
-1474.793471936151
 30
0.0
 10
2993.110859989224
 20
-1487.748934655737
 30
0.0
 10
2980.684568006551
 20
-1496.19331669468
 30
0.0
 10
2966.253171874609
 20
-1496.19331669468
 30
0.0
 10
2888.986766041131
 20
-1496.186348331033
 30
0.0
 10
2811.720360207653
 20
-1496.172454093761
 30
0.0
 10
2734.460922737819
 20
-1496.158517366468
 30
0.0
 10
2731.905997700831
 20
-1496.158517366468
 30
0.0
 10
2729.351157643885
 20
-1496.221147659242
 30
0.0
 10
2726.803200970536
 20
-1496.130686401906
 30
0.0
 10
2708.619595955062
 20
-1495.483223443087
 30
0.0
 10
2694.940103256593
 20
-1481.85250929014
 30
0.0
 10
2694.216158257752
 20
-1463.689766875585
 30
0.0
 10
2694.181316439519
 20
-1462.763866801062
 30
0.0
 10
2694.195253166812
 20
-1461.838009216561
 30
0.0
 10
2694.195253166812
 20
-1460.905140778392
 30
0.0
 10
2694.195253166812
 20
-1341.528233588506
 30
0.0
 10
2694.216158257752
 20
-1222.151283908599
 30
0.0
 10
2694.160411348579
 20
-1102.774376718713
 30
0.0
 10
2694.160411348579
 20
-1093.042122105828
 30
0.0
 10
2696.777966678345
 20
-1084.500267955878
 30
0.0
 10
2703.78134210321
 20
-1077.51082925831
 30
0.0
 10
2710.742907346196
 20
-1070.577137469911
 30
0.0
 10
2719.145479203255
 20
-1067.500180019739
 30
0.0
 10
2728.919459017974
 20
-1067.507148383385
 30
0.0
 10
2785.879033424897
 20
-1067.562725332471
 30
0.0
 10
2842.845576195463
 20
-1067.534936857928
 30
0.0
 10
2899.804980642299
 20
-1067.534936857928
 30
0.0
 10
2922.081989419849
 20
-1067.534936857928
 30
0.0
 10
2944.358998197395
 20
-1067.444433110569
 30
0.0
 10
2966.629123591344
 20
-1067.569693696117
 30
0.0
 10
2983.176692790681
 20
-1067.660282423521
 30
0.0
 10
2996.271437803154
 20
-1078.478582004732
 30
0.0
 10
2999.383237071556
 20
-1094.309174568876
 30
0.0
 10
3000.218675888742
 20
-1098.548659027398
 30
0.0
 10
3000.002911555834
 20
-1102.857912102427
 30
0.0
 10
3000.009794939435
 20
-1107.146260086516
 30
0.0
 10
3000.016763303082
 20
-1165.38665372369
 30
0.0
 10
3000.016763303082
 20
-1223.627217320954
 30
0.0
 10
3000.016763303082
 20
-1281.867610958128
 30
0.0
  0
SPLINE
  5
7A
330
70
100
AcDbEntity
  8
Layer 1
100
AcDbSpline
210
0.0
220
0.0
230
1.0
 70
     9
 71
     3
 72
    53
 73
    49
 74
     0
 42
0.0000000001
 43
0.0000000001
 40
0.0
 40
0.0
 40
0.0
 40
0.0
 40
1.0
 40
1.0
 40
1.0
 40
2.0
 40
2.0
 40
2.0
 40
3.0
 40
3.0
 40
3.0
 40
4.0
 40
4.0
 40
4.0
 40
5.0
 40
5.0
 40
5.0
 40
6.0
 40
6.0
 40
6.0
 40
7.0
 40
7.0
 40
7.0
 40
8.0
 40
8.0
 40
8.0
 40
9.0
 40
9.0
 40
9.0
 40
10.0
 40
10.0
 40
10.0
 40
11.0
 40
11.0
 40
11.0
 40
12.0
 40
12.0
 40
12.0
 40
13.0
 40
13.0
 40
13.0
 40
14.0
 40
14.0
 40
14.0
 40
15.0
 40
15.0
 40
15.0
 40
16.0
 40
16.0
 40
16.0
 40
16.0
 10
3002.44634277448
 20
-1333.710366927418
 30
0.0
 10
3002.44634277448
 20
-1255.866181771591
 30
0.0
 10
3002.467247865419
 20
-1178.015028252113
 30
0.0
 10
3002.453311138126
 20
-1100.170758116241
 30
0.0
 10
3002.453311138126
 20
-1089.86063920096
 30
0.0
 10
2998.499104688892
 20
-1081.249271374634
 30
0.0
 10
2990.959760123553
 20
-1074.252864313417
 30
0.0
 10
2983.775462184012
 20
-1067.583630423411
 30
0.0
 10
2975.13613592306
 20
-1064.910413164516
 30
0.0
 10
2965.487416693888
 20
-1064.931318255454
 30
0.0
 10
2945.417169711136
 20
-1064.966075093644
 30
0.0
 10
2925.34700770843
 20
-1064.966075093644
 30
0.0
 10
2905.276845705723
 20
-1064.966075093644
 30
0.0
 10
2846.221833362261
 20
-1064.959106729999
 30
0.0
 10
2787.16690599884
 20
-1064.945254982749
 30
0.0
 10
2728.111978635419
 20
-1064.938286619101
 30
0.0
 10
2716.771561660984
 20
-1064.938286619101
 30
0.0
 10
2707.394353673897
 20
-1069.275328168674
 30
0.0
 10
2699.966332966817
 20
-1077.831034065872
 30
0.0
 10
2693.694040864526
 20
-1085.050258803691
 30
0.0
 10
2691.612454675234
 20
-1093.564239499052
 30
0.0
 10
2691.626391402528
 20
-1102.955384213434
 30
0.0
 10
2691.709926786242
 20
-1162.476767040949
 30
0.0
 10
2691.668116604362
 20
-1221.991181504814
 30
0.0
 10
2691.668116604362
 20
-1281.505595968683
 30
0.0
 10
2691.668116604362
 20
-1331.162452744098
 30
0.0
 10
2691.654179877069
 20
-1380.819309519509
 30
0.0
 10
2691.675084968009
 20
-1430.4761238049
 30
0.0
 10
2691.675084968009
 20
-1442.185481642402
 30
0.0
 10
2691.612454675234
 20
-1453.901807843551
 30
0.0
 10
2691.849124099086
 20
-1465.611165681053
 30
0.0
 10
2692.016194866514
 20
-1473.82580416977
 30
0.0
 10
2695.371716902455
 20
-1480.863936432819
 30
0.0
 10
2700.885222187672
 20
-1486.913538328576
 30
0.0
 10
2708.960705853568
 20
-1495.768671412461
 30
0.0
 10
2719.159330950502
 20
-1498.817840388092
 30
0.0
 10
2730.903573096262
 20
-1498.796935297152
 30
0.0
 10
2803.874662582004
 20
-1498.678600585226
 30
0.0
 10
2876.852720431389
 20
-1498.769104332587
 30
0.0
 10
2949.823894897172
 20
-1498.699463186145
 30
0.0
 10
2957.815758199313
 20
-1498.685568948873
 30
0.0
 10
2965.877305137916
 20
-1499.534859513307
 30
0.0
 10
2973.799484803591
 20
-1498.065979444644
 30
0.0
 10
2990.84138292161
 20
-1494.891507393444
 30
0.0
 10
3002.44634277448
 20
-1480.439291150604
 30
0.0
 10
3002.460279501773
 20
-1462.492398049002
 30
0.0
 10
3002.49503633996
 20
-1419.56736296635
 30
0.0
 10
3002.44634277448
 20
-1376.64237037372
 30
0.0
 10
3002.44634277448
 20
-1333.710366927418
 30
0.0
  0
HATCH
  5
7B
330
70
100
AcDbEntity
  8
Layer 1
 62
    18
420
        0
440
 33554687
100
AcDbHatch
 10
0.0
 20
0.0
 30
0.0
210
0.0
220
0.0
230
1.0
  2
SOLID
 70
     1
 71
     1
 91
        2
 92
        1
 93
        1
 72
     4
 94
        3
 73
     0
 74
     0
 95
       53
 96
       49
 40
0.0
 40
0.0
 40
0.0
 40
0.0
 40
1.0
 40
1.0
 40
1.0
 40
2.0
 40
2.0
 40
2.0
 40
3.0
 40
3.0
 40
3.0
 40
4.0
 40
4.0
 40
4.0
 40
5.0
 40
5.0
 40
5.0
 40
6.0
 40
6.0
 40
6.0
 40
7.0
 40
7.0
 40
7.0
 40
8.0
 40
8.0
 40
8.0
 40
9.0
 40
9.0
 40
9.0
 40
10.0
 40
10.0
 40
10.0
 40
11.0
 40
11.0
 40
11.0
 40
12.0
 40
12.0
 40
12.0
 40
13.0
 40
13.0
 40
13.0
 40
14.0
 40
14.0
 40
14.0
 40
15.0
 40
15.0
 40
15.0
 40
16.0
 40
16.0
 40
16.0
 40
16.0
 10
3000.016763303082
 20
-1281.867610958128
 10
3000.016763303082
 20
-1281.867610958128
 10
2999.968069737597
 20
-1281.867610958128
 10
2999.968069737597
 20
-1281.867610958128
 10
2999.968069737597
 20
-1341.263690710071
 10
2999.96110137395
 20
-1400.659770462014
 10
2999.975038101247
 20
-1460.062776087583
 10
2999.975038101247
 20
-1465.075111560534
 10
2999.682621768227
 20
-1470.024816740715
 10
2997.914441982937
 20
-1474.793471936151
 10
2993.110859989224
 20
-1487.748934655737
 10
2980.684568006551
 20
-1496.19331669468
 10
2966.253171874609
 20
-1496.19331669468
 10
2888.986766041131
 20
-1496.186348331033
 10
2811.720360207653
 20
-1496.172454093761
 10
2734.460922737819
 20
-1496.158517366468
 10
2731.905997700831
 20
-1496.158517366468
 10
2729.351157643885
 20
-1496.221147659242
 10
2726.803200970536
 20
-1496.130686401906
 10
2708.619595955062
 20
-1495.483223443087
 10
2694.940103256593
 20
-1481.85250929014
 10
2694.216158257752
 20
-1463.689766875585
 10
2694.181316439519
 20
-1462.763866801062
 10
2694.195253166812
 20
-1461.838009216561
 10
2694.195253166812
 20
-1460.905140778392
 10
2694.195253166812
 20
-1341.528233588506
 10
2694.216158257752
 20
-1222.151283908599
 10
2694.160411348579
 20
-1102.774376718713
 10
2694.160411348579
 20
-1093.042122105828
 10
2696.777966678345
 20
-1084.500267955878
 10
2703.78134210321
 20
-1077.51082925831
 10
2710.742907346196
 20
-1070.577137469911
 10
2719.145479203255
 20
-1067.500180019739
 10
2728.919459017974
 20
-1067.507148383385
 10
2785.879033424897
 20
-1067.562725332471
 10
2842.845576195463
 20
-1067.534936857928
 10
2899.804980642299
 20
-1067.534936857928
 10
2922.081989419849
 20
-1067.534936857928
 10
2944.358998197395
 20
-1067.444433110569
 10
2966.629123591344
 20
-1067.569693696117
 10
2983.176692790681
 20
-1067.660282423521
 10
2996.271437803154
 20
-1078.478582004732
 10
2999.383237071556
 20
-1094.309174568876
 10
3000.218675888742
 20
-1098.548659027398
 10
3000.002911555834
 20
-1102.857912102427
 10
3000.009794939435
 20
-1107.146260086516
 10
3000.016763303082
 20
-1165.38665372369
 10
3000.016763303082
 20
-1223.627217320954
 10
3000.016763303082
 20
-1281.867610958128
 97
        0
 97
        1
330
79
 92
        1
 93
        1
 72
     4
 94
        3
 73
     0
 74
     0
 95
       53
 96
       49
 40
0.0
 40
0.0
 40
0.0
 40
0.0
 40
1.0
 40
1.0
 40
1.0
 40
2.0
 40
2.0
 40
2.0
 40
3.0
 40
3.0
 40
3.0
 40
4.0
 40
4.0
 40
4.0
 40
5.0
 40
5.0
 40
5.0
 40
6.0
 40
6.0
 40
6.0
 40
7.0
 40
7.0
 40
7.0
 40
8.0
 40
8.0
 40
8.0
 40
9.0
 40
9.0
 40
9.0
 40
10.0
 40
10.0
 40
10.0
 40
11.0
 40
11.0
 40
11.0
 40
12.0
 40
12.0
 40
12.0
 40
13.0
 40
13.0
 40
13.0
 40
14.0
 40
14.0
 40
14.0
 40
15.0
 40
15.0
 40
15.0
 40
16.0
 40
16.0
 40
16.0
 40
16.0
 10
3002.44634277448
 20
-1333.710366927418
 10
3002.44634277448
 20
-1255.866181771591
 10
3002.467247865419
 20
-1178.015028252113
 10
3002.453311138126
 20
-1100.170758116241
 10
3002.453311138126
 20
-1089.86063920096
 10
2998.499104688892
 20
-1081.249271374634
 10
2990.959760123553
 20
-1074.252864313417
 10
2983.775462184012
 20
-1067.583630423411
 10
2975.13613592306
 20
-1064.910413164516
 10
2965.487416693888
 20
-1064.931318255454
 10
2945.417169711136
 20
-1064.966075093644
 10
2925.34700770843
 20
-1064.966075093644
 10
2905.276845705723
 20
-1064.966075093644
 10
2846.221833362261
 20
-1064.959106729999
 10
2787.16690599884
 20
-1064.945254982749
 10
2728.111978635419
 20
-1064.938286619101
 10
2716.771561660984
 20
-1064.938286619101
 10
2707.394353673897
 20
-1069.275328168674
 10
2699.966332966817
 20
-1077.831034065872
 10
2693.694040864526
 20
-1085.050258803691
 10
2691.612454675234
 20
-1093.564239499052
 10
2691.626391402528
 20
-1102.955384213434
 10
2691.709926786242
 20
-1162.476767040949
 10
2691.668116604362
 20
-1221.991181504814
 10
2691.668116604362
 20
-1281.505595968683
 10
2691.668116604362
 20
-1331.162452744098
 10
2691.654179877069
 20
-1380.819309519509
 10
2691.675084968009
 20
-1430.4761238049
 10
2691.675084968009
 20
-1442.185481642402
 10
2691.612454675234
 20
-1453.901807843551
 10
2691.849124099086
 20
-1465.611165681053
 10
2692.016194866514
 20
-1473.82580416977
 10
2695.371716902455
 20
-1480.863936432819
 10
2700.885222187672
 20
-1486.913538328576
 10
2708.960705853568
 20
-1495.768671412461
 10
2719.159330950502
 20
-1498.817840388092
 10
2730.903573096262
 20
-1498.796935297152
 10
2803.874662582004
 20
-1498.678600585226
 10
2876.852720431389
 20
-1498.769104332587
 10
2949.823894897172
 20
-1498.699463186145
 10
2957.815758199313
 20
-1498.685568948873
 10
2965.877305137916
 20
-1499.534859513307
 10
2973.799484803591
 20
-1498.065979444644
 10
2990.84138292161
 20
-1494.891507393444
 10
3002.44634277448
 20
-1480.439291150604
 10
3002.460279501773
 20
-1462.492398049002
 10
3002.49503633996
 20
-1419.56736296635
 10
3002.44634277448
 20
-1376.64237037372
 10
3002.44634277448
 20
-1333.710366927418
 97
        0
 97
        1
330
7A
 75
     2
 76
     1
 98
        1
 10
0.0
 20
0.0
450
        0
451
        0
460
0.0
461
0.0
452
        0
462
0.0
453
        0
470

  0
SPLINE
  5
7C
330
70
100
AcDbEntity
  8
Layer 1
100
AcDbSpline
210
0.0
220
0.0
230
1.0
 70
     9
 71
     3
 72
    53
 73
    49
 74
     0
 42
0.0000000001
 43
0.0000000001
 40
0.0
 40
0.0
 40
0.0
 40
0.0
 40
1.0
 40
1.0
 40
1.0
 40
2.0
 40
2.0
 40
2.0
 40
3.0
 40
3.0
 40
3.0
 40
4.0
 40
4.0
 40
4.0
 40
5.0
 40
5.0
 40
5.0
 40
6.0
 40
6.0
 40
6.0
 40
7.0
 40
7.0
 40
7.0
 40
8.0
 40
8.0
 40
8.0
 40
9.0
 40
9.0
 40
9.0
 40
10.0
 40
10.0
 40
10.0
 40
11.0
 40
11.0
 40
11.0
 40
12.0
 40
12.0
 40
12.0
 40
13.0
 40
13.0
 40
13.0
 40
14.0
 40
14.0
 40
14.0
 40
15.0
 40
15.0
 40
15.0
 40
16.0
 40
16.0
 40
16.0
 40
16.0
 10
3000.016763303082
 20
-1281.867610958128
 30
0.0
 10
3000.016763303082
 20
-1281.867610958128
 30
0.0
 10
2999.968069737597
 20
-1281.867610958128
 30
0.0
 10
2999.968069737597
 20
-1281.867610958128
 30
0.0
 10
2999.968069737597
 20
-1341.263690710071
 30
0.0
 10
2999.96110137395
 20
-1400.659770462014
 30
0.0
 10
2999.975038101247
 20
-1460.062776087583
 30
0.0
 10
2999.975038101247
 20
-1465.075111560534
 30
0.0
 10
2999.682621768227
 20
-1470.024816740715
 30
0.0
 10
2997.914441982937
 20
-1474.793471936151
 30
0.0
 10
2993.110859989224
 20
-1487.748934655737
 30
0.0
 10
2980.684568006551
 20
-1496.19331669468
 30
0.0
 10
2966.253171874609
 20
-1496.19331669468
 30
0.0
 10
2888.986766041131
 20
-1496.186348331033
 30
0.0
 10
2811.720360207653
 20
-1496.172454093761
 30
0.0
 10
2734.460922737819
 20
-1496.158517366468
 30
0.0
 10
2731.905997700831
 20
-1496.158517366468
 30
0.0
 10
2729.351157643885
 20
-1496.221147659242
 30
0.0
 10
2726.803200970536
 20
-1496.130686401906
 30
0.0
 10
2708.619595955062
 20
-1495.483223443087
 30
0.0
 10
2694.940103256593
 20
-1481.85250929014
 30
0.0
 10
2694.216158257752
 20
-1463.689766875585
 30
0.0
 10
2694.181316439519
 20
-1462.763866801062
 30
0.0
 10
2694.195253166812
 20
-1461.838009216561
 30
0.0
 10
2694.195253166812
 20
-1460.905140778392
 30
0.0
 10
2694.195253166812
 20
-1341.528233588506
 30
0.0
 10
2694.216158257752
 20
-1222.151283908599
 30
0.0
 10
2694.160411348579
 20
-1102.774376718713
 30
0.0
 10
2694.160411348579
 20
-1093.042122105828
 30
0.0
 10
2696.777966678345
 20
-1084.500267955878
 30
0.0
 10
2703.78134210321
 20
-1077.51082925831
 30
0.0
 10
2710.742907346196
 20
-1070.577137469911
 30
0.0
 10
2719.145479203255
 20
-1067.500180019739
 30
0.0
 10
2728.919459017974
 20
-1067.507148383385
 30
0.0
 10
2785.879033424897
 20
-1067.562725332471
 30
0.0
 10
2842.845576195463
 20
-1067.534936857928
 30
0.0
 10
2899.804980642299
 20
-1067.534936857928
 30
0.0
 10
2922.081989419849
 20
-1067.534936857928
 30
0.0
 10
2944.358998197395
 20
-1067.444433110569
 30
0.0
 10
2966.629123591344
 20
-1067.569693696117
 30
0.0
 10
2983.176692790681
 20
-1067.660282423521
 30
0.0
 10
2996.271437803154
 20
-1078.478582004732
 30
0.0
 10
2999.383237071556
 20
-1094.309174568876
 30
0.0
 10
3000.218675888742
 20
-1098.548659027398
 30
0.0
 10
3000.002911555834
 20
-1102.857912102427
 30
0.0
 10
3000.009794939435
 20
-1107.146260086516
 30
0.0
 10
3000.016763303082
 20
-1165.38665372369
 30
0.0
 10
3000.016763303082
 20
-1223.627217320954
 30
0.0
 10
3000.016763303082
 20
-1281.867610958128
 30
0.0
  0
SPLINE
  5
7D
330
70
100
AcDbEntity
  8
Layer 1
100
AcDbSpline
210
0.0
220
0.0
230
1.0
 70
     9
 71
     3
 72
    26
 73
    22
 74
     0
 42
0.0000000001
 43
0.0000000001
 40
0.0
 40
0.0
 40
0.0
 40
0.0
 40
1.0
 40
1.0
 40
1.0
 40
2.0
 40
2.0
 40
2.0
 40
3.0
 40
3.0
 40
3.0
 40
4.0
 40
4.0
 40
4.0
 40
5.0
 40
5.0
 40
5.0
 40
6.0
 40
6.0
 40
6.0
 40
7.0
 40
7.0
 40
7.0
 40
7.0
 10
2741.60923219174
 20
-1102.897505265056
 30
0.0
 10
2741.60923219174
 20
-1102.897505265056
 30
0.0
 10
2741.60923219174
 20
-1125.115278702557
 30
0.0
 10
2741.60923219174
 20
-1125.115278702557
 30
0.0
 10
2741.60923219174
 20
-1125.115278702557
 30
0.0
 10
2723.38608766049
 20
-1125.115278702557
 30
0.0
 10
2723.38608766049
 20
-1125.115278702557
 30
0.0
 10
2723.38608766049
 20
-1125.115278702557
 30
0.0
 10
2723.38608766049
 20
-1124.910688858806
 30
0.0
 10
2723.38608766049
 20
-1124.910688858806
 30
0.0
 10
2723.38608766049
 20
-1124.910688858806
 30
0.0
 10
2736.98960328549
 20
-1102.283247452557
 30
0.0
 10
2736.98960328549
 20
-1102.283247452557
 30
0.0
 10
2738.52915406674
 20
-1099.211470108806
 30
0.0
 10
2739.89829469174
 20
-1096.344770890056
 30
0.0
 10
2741.60923219174
 20
-1092.454145890056
 30
0.0
 10
2741.60923219174
 20
-1092.454145890056
 30
0.0
 10
2741.866068129241
 20
-1092.454145890056
 30
0.0
 10
2741.866068129241
 20
-1092.454145890056
 30
0.0
 10
2741.695169691741
 20
-1095.935102921306
 30
0.0
 10
2741.60923219174
 20
-1099.416059952557
 30
0.0
 10
2741.60923219174
 20
-1102.897505265056
 30
0.0
  0
SPLINE
  5
7E
330
70
100
AcDbEntity
  8
Layer 1
100
AcDbSpline
210
0.0
220
0.0
230
1.0
 70
    11
 71
     3
 72
    38
 73
    34
 74
     0
 42
0.0000000001
 43
0.0000000001
 40
0.0
 40
0.0
 40
0.0
 40
0.0
 40
1.0
 40
1.0
 40
1.0
 40
2.0
 40
2.0
 40
2.0
 40
3.0
 40
3.0
 40
3.0
 40
4.0
 40
4.0
 40
4.0
 40
5.0
 40
5.0
 40
5.0
 40
6.0
 40
6.0
 40
6.0
 40
7.0
 40
7.0
 40
7.0
 40
8.0
 40
8.0
 40
8.0
 40
9.0
 40
9.0
 40
9.0
 40
10.0
 40
10.0
 40
10.0
 40
11.0
 40
11.0
 40
11.0
 40
11.0
 10
2748.710794691741
 20
-1125.115278702557
 30
0.0
 10
2748.710794691741
 20
-1125.115278702557
 30
0.0
 10
2748.710794691741
 20
-1083.751020890056
 30
0.0
 10
2748.710794691741
 20
-1083.751020890056
 30
0.0
 10
2748.710794691741
 20
-1083.751020890056
 30
0.0
 10
2740.58286500424
 20
-1083.751020890056
 30
0.0
 10
2740.58286500424
 20
-1083.751020890056
 30
0.0
 10
2740.58286500424
 20
-1083.751020890056
 30
0.0
 10
2715.771341566741
 20
-1126.241255265056
 30
0.0
 10
2715.771341566741
 20
-1126.241255265056
 30
0.0
 10
2715.771341566741
 20
-1126.241255265056
 30
0.0
 10
2715.771341566741
 20
-1132.179731827557
 30
0.0
 10
2715.771341566741
 20
-1132.179731827557
 30
0.0
 10
2715.771341566741
 20
-1132.179731827557
 30
0.0
 10
2741.60923219174
 20
-1132.179731827557
 30
0.0
 10
2741.60923219174
 20
-1132.179731827557
 30
0.0
 10
2741.60923219174
 20
-1132.179731827557
 30
0.0
 10
2741.60923219174
 20
-1150.302290421306
 30
0.0
 10
2741.60923219174
 20
-1150.302290421306
 30
0.0
 10
2741.60923219174
 20
-1150.302290421306
 30
0.0
 10
2748.710794691741
 20
-1150.302290421306
 30
0.0
 10
2748.710794691741
 20
-1150.302290421306
 30
0.0
 10
2748.710794691741
 20
-1150.302290421306
 30
0.0
 10
2748.710794691741
 20
-1132.179731827557
 30
0.0
 10
2748.710794691741
 20
-1132.179731827557
 30
0.0
 10
2748.710794691741
 20
-1132.179731827557
 30
0.0
 10
2756.495950941741
 20
-1132.179731827557
 30
0.0
 10
2756.495950941741
 20
-1132.179731827557
 30
0.0
 10
2756.495950941741
 20
-1132.179731827557
 30
0.0
 10
2756.495950941741
 20
-1125.115278702557
 30
0.0
 10
2756.495950941741
 20
-1125.115278702557
 30
0.0
 10
2756.495950941741
 20
-1125.115278702557
 30
0.0
 10
2748.710794691741
 20
-1125.115278702557
 30
0.0
 10
2748.710794691741
 20
-1125.115278702557
 30
0.0
  0
HATCH
  5
7F
330
70
100
AcDbEntity
  8
Layer 1
 62
   246
420
  8590872
440
 33554687
100
AcDbHatch
 10
0.0
 20
0.0
 30
0.0
210
0.0
220
0.0
230
1.0
  2
SOLID
 70
     1
 71
     1
 91
        2
 92
        1
 93
        1
 72
     4
 94
        3
 73
     0
 74
     0
 95
       26
 96
       22
 40
0.0
 40
0.0
 40
0.0
 40
0.0
 40
1.0
 40
1.0
 40
1.0
 40
2.0
 40
2.0
 40
2.0
 40
3.0
 40
3.0
 40
3.0
 40
4.0
 40
4.0
 40
4.0
 40
5.0
 40
5.0
 40
5.0
 40
6.0
 40
6.0
 40
6.0
 40
7.0
 40
7.0
 40
7.0
 40
7.0
 10
2741.60923219174
 20
-1102.897505265056
 10
2741.60923219174
 20
-1102.897505265056
 10
2741.60923219174
 20
-1125.115278702557
 10
2741.60923219174
 20
-1125.115278702557
 10
2741.60923219174
 20
-1125.115278702557
 10
2723.38608766049
 20
-1125.115278702557
 10
2723.38608766049
 20
-1125.115278702557
 10
2723.38608766049
 20
-1125.115278702557
 10
2723.38608766049
 20
-1124.910688858806
 10
2723.38608766049
 20
-1124.910688858806
 10
2723.38608766049
 20
-1124.910688858806
 10
2736.98960328549
 20
-1102.283247452557
 10
2736.98960328549
 20
-1102.283247452557
 10
2738.52915406674
 20
-1099.211470108806
 10
2739.89829469174
 20
-1096.344770890056
 10
2741.60923219174
 20
-1092.454145890056
 10
2741.60923219174
 20
-1092.454145890056
 10
2741.866068129241
 20
-1092.454145890056
 10
2741.866068129241
 20
-1092.454145890056
 10
2741.695169691741
 20
-1095.935102921306
 10
2741.60923219174
 20
-1099.416059952557
 10
2741.60923219174
 20
-1102.897505265056
 97
        0
 97
        1
330
7D
 92
        1
 93
        1
 72
     4
 94
        3
 73
     0
 74
     0
 95
       38
 96
       34
 40
0.0
 40
0.0
 40
0.0
 40
0.0
 40
1.0
 40
1.0
 40
1.0
 40
2.0
 40
2.0
 40
2.0
 40
3.0
 40
3.0
 40
3.0
 40
4.0
 40
4.0
 40
4.0
 40
5.0
 40
5.0
 40
5.0
 40
6.0
 40
6.0
 40
6.0
 40
7.0
 40
7.0
 40
7.0
 40
8.0
 40
8.0
 40
8.0
 40
9.0
 40
9.0
 40
9.0
 40
10.0
 40
10.0
 40
10.0
 40
11.0
 40
11.0
 40
11.0
 40
11.0
 10
2748.710794691741
 20
-1125.115278702557
 10
2748.710794691741
 20
-1125.115278702557
 10
2748.710794691741
 20
-1083.751020890056
 10
2748.710794691741
 20
-1083.751020890056
 10
2748.710794691741
 20
-1083.751020890056
 10
2740.58286500424
 20
-1083.751020890056
 10
2740.58286500424
 20
-1083.751020890056
 10
2740.58286500424
 20
-1083.751020890056
 10
2715.771341566741
 20
-1126.241255265056
 10
2715.771341566741
 20
-1126.241255265056
 10
2715.771341566741
 20
-1126.241255265056
 10
2715.771341566741
 20
-1132.179731827557
 10
2715.771341566741
 20
-1132.179731827557
 10
2715.771341566741
 20
-1132.179731827557
 10
2741.60923219174
 20
-1132.179731827557
 10
2741.60923219174
 20
-1132.179731827557
 10
2741.60923219174
 20
-1132.179731827557
 10
2741.60923219174
 20
-1150.302290421306
 10
2741.60923219174
 20
-1150.302290421306
 10
2741.60923219174
 20
-1150.302290421306
 10
2748.710794691741
 20
-1150.302290421306
 10
2748.710794691741
 20
-1150.302290421306
 10
2748.710794691741
 20
-1150.302290421306
 10
2748.710794691741
 20
-1132.179731827557
 10
2748.710794691741
 20
-1132.179731827557
 10
2748.710794691741
 20
-1132.179731827557
 10
2756.495950941741
 20
-1132.179731827557
 10
2756.495950941741
 20
-1132.179731827557
 10
2756.495950941741
 20
-1132.179731827557
 10
2756.495950941741
 20
-1125.115278702557
 10
2756.495950941741
 20
-1125.115278702557
 10
2756.495950941741
 20
-1125.115278702557
 10
2748.710794691741
 20
-1125.115278702557
 10
2748.710794691741
 20
-1125.115278702557
 97
        0
 97
        1
330
7E
 75
     2
 76
     1
 98
        1
 10
0.0
 20
0.0
450
        0
451
        0
460
0.0
461
0.0
452
        0
462
0.0
453
        0
470

  0
SPLINE
  5
80
330
70
100
AcDbEntity
  8
Layer 1
100
AcDbSpline
210
0.0
220
0.0
230
1.0
 70
     9
 71
     3
 72
    17
 73
    13
 74
     0
 42
0.0000000001
 43
0.0000000001
 40
0.0
 40
0.0
 40
0.0
 40
0.0
 40
1.0
 40
1.0
 40
1.0
 40
2.0
 40
2.0
 40
2.0
 40
3.0
 40
3.0
 40
3.0
 40
4.0
 40
4.0
 40
4.0
 40
4.0
 10
2822.106749549729
 20
-1351.496409502342
 30
0.0
 10
2821.861858293994
 20
-1350.278493714904
 30
0.0
 10
2822.997472160592
 20
-1346.890803241404
 30
0.0
 10
2819.580975127347
 20
-1347.796319609224
 30
0.0
 10
2815.937797269851
 20
-1348.761933950733
 30
0.0
 10
2809.800828613303
 20
-1345.759626614446
 30
0.0
 10
2809.245237400732
 20
-1352.668089252733
 30
0.0
 10
2809.024773149218
 20
-1355.409451400264
 30
0.0
 10
2807.670567546235
 20
-1359.705995045795
 30
0.0
 10
2813.288853949542
 20
-1359.684625299691
 30
0.0
 10
2819.897811786605
 20
-1359.659510523328
 30
0.0
 10
2821.748389201921
 20
-1358.195310186907
 30
0.0
 10
2822.106749549729
 20
-1351.496409502342
 30
0.0
  0
SPLINE
  5
81
330
70
100
AcDbEntity
  8
Layer 1
100
AcDbSpline
210
0.0
220
0.0
230
1.0
 70
     9
 71
     3
 72
    17
 73
    13
 74
     0
 42
0.0000000001
 43
0.0000000001
 40
0.0
 40
0.0
 40
0.0
 40
0.0
 40
1.0
 40
1.0
 40
1.0
 40
2.0
 40
2.0
 40
2.0
 40
3.0
 40
3.0
 40
3.0
 40
4.0
 40
4.0
 40
4.0
 40
4.0
 10
2820.82176044789
 20
-1373.431974658706
 30
0.0
 10
2820.43793921903
 20
-1371.52836335521
 30
0.0
 10
2821.90924801335
 20
-1368.416793430031
 30
0.0
 10
2817.711219962306
 20
-1368.236801241274
 30
0.0
 10
2811.688266178308
 20
-1367.978536145263
 30
0.0
 10
2808.788476826669
 20
-1369.74949173248
 30
0.0
 10
2808.977228126476
 20
-1374.488907392002
 30
0.0
 10
2809.087866259661
 20
-1377.267063130632
 30
0.0
 10
2807.372469349977
 20
-1381.62686406447
 30
0.0
 10
2813.02424360085
 20
-1381.518879400592
 30
0.0
 10
2819.278470752126
 20
-1381.399411160524
 30
0.0
 10
2820.652719366566
 20
-1380.086556193746
 30
0.0
 10
2820.82176044789
 20
-1373.431974658706
 30
0.0
  0
SPLINE
  5
82
330
70
100
AcDbEntity
  8
Layer 1
100
AcDbSpline
210
0.0
220
0.0
230
1.0
 70
     9
 71
     3
 72
    23
 73
    19
 74
     0
 42
0.0000000001
 43
0.0000000001
 40
0.0
 40
0.0
 40
0.0
 40
0.0
 40
1.0
 40
1.0
 40
1.0
 40
2.0
 40
2.0
 40
2.0
 40
3.0
 40
3.0
 40
3.0
 40
4.0
 40
4.0
 40
4.0
 40
5.0
 40
5.0
 40
5.0
 40
6.0
 40
6.0
 40
6.0
 40
6.0
 10
2816.889123699717
 20
-1419.863001766644
 30
0.0
 10
2813.291152439675
 20
-1420.973696095421
 30
0.0
 10
2808.895494172304
 20
-1422.392725332305
 30
0.0
 10
2804.460282350783
 20
-1423.674945596605
 30
0.0
 10
2802.062855084989
 20
-1424.368042428381
 30
0.0
 10
2800.555413848279
 20
-1425.539296203766
 30
0.0
 10
2801.598418086347
 20
-1428.206219219097
 30
0.0
 10
2802.602609789285
 20
-1430.773819062324
 30
0.0
 10
2803.011053260909
 20
-1434.5279367853
 30
0.0
 10
2807.094387541738
 20
-1433.426649404559
 30
0.0
 10
2811.532590062778
 20
-1432.229695137179
 30
0.0
 10
2815.809765157281
 20
-1430.409610432671
 30
0.0
 10
2820.112858168521
 20
-1428.74660401142
 30
0.0
 10
2823.137901920718
 20
-1427.577444613143
 30
0.0
 10
2821.837178367119
 20
-1425.325527746867
 30
0.0
 10
2821.134470474282
 20
-1423.411586549489
 30
0.0
 10
2820.533774720772
 20
-1421.775523047334
 30
0.0
 10
2820.715000462153
 20
-1419.24345661914
 30
0.0
 10
2816.889123699717
 20
-1419.863001766644
 30
0.0
  0
SPLINE
  5
83
330
70
100
AcDbEntity
  8
Layer 1
100
AcDbSpline
210
0.0
220
0.0
230
1.0
 70
     9
 71
     3
 72
    23
 73
    19
 74
     0
 42
0.0000000001
 43
0.0000000001
 40
0.0
 40
0.0
 40
0.0
 40
0.0
 40
1.0
 40
1.0
 40
1.0
 40
2.0
 40
2.0
 40
2.0
 40
3.0
 40
3.0
 40
3.0
 40
4.0
 40
4.0
 40
4.0
 40
5.0
 40
5.0
 40
5.0
 40
6.0
 40
6.0
 40
6.0
 40
6.0
 10
2856.698111988137
 20
-1413.154605389249
 30
0.0
 10
2857.315891114258
 20
-1409.331586209144
 30
0.0
 10
2855.564006783019
 20
-1408.468134873106
 30
0.0
 10
2852.3796838767
 20
-1409.373686738847
 30
0.0
 10
2847.750959597235
 20
-1410.690020501501
 30
0.0
 10
2843.163341905797
 20
-1412.170922607925
 30
0.0
 10
2838.492685711734
 20
-1413.314026535034
 30
0.0
 10
2834.104592937949
 20
-1414.38801601751
 30
0.0
 10
2834.636884205169
 20
-1417.563304703923
 30
0.0
 10
2835.195807784707
 20
-1420.594471846824
 30
0.0
 10
2835.863656722928
 20
-1424.216501820196
 30
0.0
 10
2838.82186677167
 20
-1423.72102189303
 30
0.0
 10
2841.155881445766
 20
-1422.986108514888
 30
0.0
 10
2845.179463857601
 20
-1421.719116857028
 30
0.0
 10
2848.969647464373
 20
-1419.694067179069
 30
0.0
 10
2853.009523420164
 20
-1418.500946686737
 30
0.0
 10
2856.076339346337
 20
-1417.595217331411
 30
0.0
 10
2856.972360021328
 20
-1415.820818446238
 30
0.0
 10
2856.698111988137
 20
-1413.154605389249
 30
0.0
  0
SPLINE
  5
84
330
70
100
AcDbEntity
  8
Layer 1
100
AcDbSpline
210
0.0
220
0.0
230
1.0
 70
     9
 71
     3
 72
    23
 73
    19
 74
     0
 42
0.0000000001
 43
0.0000000001
 40
0.0
 40
0.0
 40
0.0
 40
0.0
 40
1.0
 40
1.0
 40
1.0
 40
2.0
 40
2.0
 40
2.0
 40
3.0
 40
3.0
 40
3.0
 40
4.0
 40
4.0
 40
4.0
 40
5.0
 40
5.0
 40
5.0
 40
6.0
 40
6.0
 40
6.0
 40
6.0
 10
2857.499788073901
 20
-1344.889057946031
 30
0.0
 10
2858.248341526696
 20
-1340.085888027359
 30
0.0
 10
2856.480527505146
 20
-1338.797863853608
 30
0.0
 10
2852.336012564162
 20
-1340.076658568905
 30
0.0
 10
2849.033046744347
 20
-1341.095786020473
 30
0.0
 10
2845.671615855039
 20
-1342.306531228653
 30
0.0
 10
2842.272708039729
 20
-1342.551307116155
 30
0.0
 10
2835.9211899721
 20
-1343.008662280335
 30
0.0
 10
2833.909345519309
 20
-1346.618498719174
 30
0.0
 10
2833.423201544347
 20
-1352.311477177343
 30
0.0
 10
2833.164217615517
 20
-1355.344365969224
 30
0.0
 10
2834.119759423038
 20
-1356.280463792645
 30
0.0
 10
2836.862603608612
 20
-1355.764590312094
 30
0.0
 10
2841.209270313115
 20
-1354.947037782898
 30
0.0
 10
2845.505796209689
 20
-1353.574706055984
 30
0.0
 10
2849.88148246144
 20
-1353.270506655222
 30
0.0
 10
2855.75651198756
 20
-1352.862067620837
 30
0.0
 10
2858.292589680388
 20
-1350.225655065271
 30
0.0
 10
2857.499788073901
 20
-1344.889057946031
 30
0.0
  0
SPLINE
  5
85
330
70
100
AcDbEntity
  8
Layer 1
100
AcDbSpline
210
0.0
220
0.0
230
1.0
 70
     9
 71
     3
 72
    23
 73
    19
 74
     0
 42
0.0000000001
 43
0.0000000001
 40
0.0
 40
0.0
 40
0.0
 40
0.0
 40
1.0
 40
1.0
 40
1.0
 40
2.0
 40
2.0
 40
2.0
 40
3.0
 40
3.0
 40
3.0
 40
4.0
 40
4.0
 40
4.0
 40
5.0
 40
5.0
 40
5.0
 40
6.0
 40
6.0
 40
6.0
 40
6.0
 10
2856.365549751595
 20
-1365.517128321102
 30
0.0
 10
2856.034150071837
 20
-1363.690494250881
 30
0.0
 10
2858.390563931638
 20
-1359.715472989668
 30
0.0
 10
2853.754216474472
 20
-1360.475465646254
 30
0.0
 10
2847.84927995318
 20
-1361.443458348207
 30
0.0
 10
2841.912634917417
 20
-1362.776742366288
 30
0.0
 10
2836.301354915502
 20
-1364.811944448545
 30
0.0
 10
2831.227371387117
 20
-1366.652298463734
 30
0.0
 10
2832.755432476437
 20
-1371.754254350806
 30
0.0
 10
2833.23872774355
 20
-1375.457521307507
 30
0.0
 10
2833.75166377146
 20
-1379.387921686899
 30
0.0
 10
2837.193612811278
 20
-1377.262590393075
 30
0.0
 10
2839.398743422791
 20
-1376.969963313291
 30
0.0
 10
2842.655269092533
 20
-1376.53781167027
 30
0.0
 10
2845.868753537767
 20
-1375.766530676039
 30
0.0
 10
2849.090917223735
 20
-1375.093472418481
 30
0.0
 10
2854.163702697415
 20
-1374.033895090357
 30
0.0
 10
2857.99187794998
 20
-1371.959769541976
 30
0.0
 10
2856.365549751595
 20
-1365.517128321102
 30
0.0
  0
SPLINE
  5
86
330
70
100
AcDbEntity
  8
Layer 1
100
AcDbSpline
210
0.0
220
0.0
230
1.0
 70
     9
 71
     3
 72
    23
 73
    19
 74
     0
 42
0.0000000001
 43
0.0000000001
 40
0.0
 40
0.0
 40
0.0
 40
0.0
 40
1.0
 40
1.0
 40
1.0
 40
2.0
 40
2.0
 40
2.0
 40
3.0
 40
3.0
 40
3.0
 40
4.0
 40
4.0
 40
4.0
 40
5.0
 40
5.0
 40
5.0
 40
6.0
 40
6.0
 40
6.0
 40
6.0
 10
2834.273270165626
 20
-1395.495616300039
 30
0.0
 10
2834.296902903947
 20
-1403.911728725296
 30
0.0
 10
2834.461063021672
 20
-1404.05911607718
 30
0.0
 10
2841.728853326005
 20
-1402.156356723699
 30
0.0
 10
2844.90485197076
 20
-1401.324818015156
 30
0.0
 10
2848.079315330599
 20
-1400.465502186464
 30
0.0
 10
2851.201579003309
 20
-1399.455320210014
 30
0.0
 10
2857.274766777277
 20
-1397.490421752612
 30
0.0
 10
2859.565518364883
 20
-1392.70597698522
 30
0.0
 10
2856.943296101685
 20
-1385.839490633931
 30
0.0
 10
2854.92766224624
 20
-1380.561394082106
 30
0.0
 10
2851.061193615578
 20
-1385.133046585321
 30
0.0
 10
2848.085358850987
 20
-1385.112599785057
 30
0.0
 10
2846.036339204491
 20
-1385.098507111961
 30
0.0
 10
2844.010428702039
 20
-1386.365250284398
 30
0.0
 10
2841.921642513886
 20
-1386.608854740636
 30
0.0
 10
2836.000971540829
 20
-1387.299306977587
 30
0.0
 10
2833.214385046884
 20
-1390.256815942463
 30
0.0
 10
2834.273270165626
 20
-1395.495616300039
 30
0.0
  0
SPLINE
  5
87
330
70
100
AcDbEntity
  8
Layer 1
100
AcDbSpline
210
0.0
220
0.0
230
1.0
 70
     9
 71
     3
 72
    44
 73
    40
 74
     0
 42
0.0000000001
 43
0.0000000001
 40
0.0
 40
0.0
 40
0.0
 40
0.0
 40
1.0
 40
1.0
 40
1.0
 40
2.0
 40
2.0
 40
2.0
 40
3.0
 40
3.0
 40
3.0
 40
4.0
 40
4.0
 40
4.0
 40
5.0
 40
5.0
 40
5.0
 40
6.0
 40
6.0
 40
6.0
 40
7.0
 40
7.0
 40
7.0
 40
8.0
 40
8.0
 40
8.0
 40
9.0
 40
9.0
 40
9.0
 40
10.0
 40
10.0
 40
10.0
 40
11.0
 40
11.0
 40
11.0
 40
12.0
 40
12.0
 40
12.0
 40
13.0
 40
13.0
 40
13.0
 40
13.0
 10
2868.739795304
 20
-1444.190150344191
 30
0.0
 10
2869.984547516781
 20
-1444.061186411294
 30
0.0
 10
2871.375471277787
 20
-1444.3185108125
 30
0.0
 10
2872.257905124998
 20
-1443.765098284595
 30
0.0
 10
2884.326682226105
 20
-1436.1960194087
 30
0.0
 10
2897.479716582211
 20
-1432.012092905232
 30
0.0
 10
2911.55675284648
 20
-1430.050442507247
 30
0.0
 10
2915.060006789167
 20
-1429.562239653092
 30
0.0
 10
2916.82803379822
 20
-1425.864208639166
 30
0.0
 10
2917.215422567753
 20
-1422.031356536019
 30
0.0
 10
2917.604444241473
 20
-1418.182281884747
 30
0.0
 10
2915.030845250252
 20
-1416.446646725067
 30
0.0
 10
2912.357159881709
 20
-1414.837597137837
 30
0.0
 10
2905.74276198885
 20
-1410.85696720572
 30
0.0
 10
2898.268498049585
 20
-1409.535237759661
 30
0.0
 10
2890.822951925269
 20
-1408.273961266459
 30
0.0
 10
2884.026458592062
 20
-1407.122586324662
 30
0.0
 10
2883.776934858141
 20
-1407.438695276618
 30
0.0
 10
2884.732219305768
 20
-1414.197037223402
 30
0.0
 10
2885.311847045466
 20
-1418.297721111223
 30
0.0
 10
2886.046165833495
 20
-1422.712810050976
 30
0.0
 10
2882.432983715966
 20
-1425.582674658486
 30
0.0
 10
2877.558179000547
 20
-1429.454645466299
 30
0.0
 10
2871.945097479335
 20
-1432.125579746265
 30
0.0
 10
2865.535957417744
 20
-1432.618929798405
 30
0.0
 10
2863.368827326509
 20
-1432.785770008868
 30
0.0
 10
2861.584950497459
 20
-1432.247089116568
 30
0.0
 10
2861.025751809064
 20
-1429.953391201841
 30
0.0
 10
2859.78794831356
 20
-1424.876195111959
 30
0.0
 10
2856.79533190865
 20
-1425.926046010791
 30
0.0
 10
2853.615969836248
 20
-1427.755644157089
 30
0.0
 10
2851.2729830636
 20
-1429.103961543067
 30
0.0
 10
2849.058214767587
 20
-1430.676377279829
 30
0.0
 10
2846.706105030238
 20
-1432.007123196836
 30
0.0
 10
2844.830057859386
 20
-1433.068546416649
 30
0.0
 10
2844.482488878382
 20
-1434.061458656422
 30
0.0
 10
2846.435708521052
 20
-1435.334981931031
 30
0.0
 10
2853.29225545555
 20
-1439.805518617326
 30
0.0
 10
2860.361869763083
 20
-1443.734250594618
 30
0.0
 10
2868.739795304
 20
-1444.190150344191
 30
0.0
  0
SPLINE
  5
88
330
70
100
AcDbEntity
  8
Layer 1
100
AcDbSpline
210
0.0
220
0.0
230
1.0
 70
     9
 71
     3
 72
   128
 73
   124
 74
     0
 42
0.0000000001
 43
0.0000000001
 40
0.0
 40
0.0
 40
0.0
 40
0.0
 40
1.0
 40
1.0
 40
1.0
 40
2.0
 40
2.0
 40
2.0
 40
3.0
 40
3.0
 40
3.0
 40
4.0
 40
4.0
 40
4.0
 40
5.0
 40
5.0
 40
5.0
 40
6.0
 40
6.0
 40
6.0
 40
7.0
 40
7.0
 40
7.0
 40
8.0
 40
8.0
 40
8.0
 40
9.0
 40
9.0
 40
9.0
 40
10.0
 40
10.0
 40
10.0
 40
11.0
 40
11.0
 40
11.0
 40
12.0
 40
12.0
 40
12.0
 40
13.0
 40
13.0
 40
13.0
 40
14.0
 40
14.0
 40
14.0
 40
15.0
 40
15.0
 40
15.0
 40
16.0
 40
16.0
 40
16.0
 40
17.0
 40
17.0
 40
17.0
 40
18.0
 40
18.0
 40
18.0
 40
19.0
 40
19.0
 40
19.0
 40
20.0
 40
20.0
 40
20.0
 40
21.0
 40
21.0
 40
21.0
 40
22.0
 40
22.0
 40
22.0
 40
23.0
 40
23.0
 40
23.0
 40
24.0
 40
24.0
 40
24.0
 40
25.0
 40
25.0
 40
25.0
 40
26.0
 40
26.0
 40
26.0
 40
27.0
 40
27.0
 40
27.0
 40
28.0
 40
28.0
 40
28.0
 40
29.0
 40
29.0
 40
29.0
 40
30.0
 40
30.0
 40
30.0
 40
31.0
 40
31.0
 40
31.0
 40
32.0
 40
32.0
 40
32.0
 40
33.0
 40
33.0
 40
33.0
 40
34.0
 40
34.0
 40
34.0
 40
35.0
 40
35.0
 40
35.0
 40
36.0
 40
36.0
 40
36.0
 40
37.0
 40
37.0
 40
37.0
 40
38.0
 40
38.0
 40
38.0
 40
39.0
 40
39.0
 40
39.0
 40
40.0
 40
40.0
 40
40.0
 40
41.0
 40
41.0
 40
41.0
 40
41.0
 10
2796.072151158695
 20
-1366.455533509135
 30
0.0
 10
2796.605946650148
 20
-1358.963733598812
 30
0.0
 10
2797.103103853899
 20
-1352.008608948472
 30
0.0
 10
2797.596223169576
 20
-1345.053200314796
 30
0.0
 10
2797.772851930686
 20
-1342.561867746499
 30
0.0
 10
2798.400295364749
 20
-1340.560370936546
 30
0.0
 10
2801.404581709909
 20
-1340.10706253492
 30
0.0
 10
2825.969118170963
 20
-1336.400529769846
 30
0.0
 10
2849.346466729085
 20
-1327.396341100611
 30
0.0
 10
2873.943177614767
 20
-1323.799993870278
 30
0.0
 10
2876.106864408039
 20
-1323.483618683942
 30
0.0
 10
2878.167802480211
 20
-1323.586580392551
 30
0.0
 10
2880.278890234795
 20
-1323.984174813257
 30
0.0
 10
2887.493238424906
 20
-1325.342981833746
 30
0.0
 10
2889.583897128183
 20
-1328.366445928634
 30
0.0
 10
2887.549032276138
 20
-1335.388750387123
 30
0.0
 10
2883.376509478546
 20
-1349.788018994051
 30
0.0
 10
2880.216263034514
 20
-1364.329279269463
 30
0.0
 10
2880.716606176326
 20
-1379.428318316582
 30
0.0
 10
2880.889401162387
 20
-1384.643210826976
 30
0.0
 10
2879.844945946958
 20
-1390.758756490544
 30
0.0
 10
2882.198812831203
 20
-1394.812476634015
 30
0.0
 10
2884.846034502532
 20
-1399.37143863186
 30
0.0
 10
2891.765386126894
 20
-1397.224737591925
 30
0.0
 10
2896.761114496987
 20
-1398.170774832139
 30
0.0
 10
2910.277798390552
 20
-1400.730387644016
 30
0.0
 10
2922.900147760191
 20
-1405.233600163025
 30
0.0
 10
2934.222829639262
 20
-1413.1692305311
 30
0.0
 10
2942.474054239499
 20
-1418.952160711255
 30
0.0
 10
2946.26175299207
 20
-1427.271736550905
 30
0.0
 10
2944.278590856308
 20
-1435.536752091942
 30
0.0
 10
2942.443171051602
 20
-1443.186056260529
 30
0.0
 10
2935.673913495304
 20
-1448.793058763433
 30
0.0
 10
2925.83129952161
 20
-1449.917597279884
 30
0.0
 10
2916.920807604615
 20
-1450.93564204498
 30
0.0
 10
2908.320886964504
 20
-1452.702941346732
 30
0.0
 10
2899.922523497806
 20
-1455.986143701186
 30
0.0
 10
2893.086689597947
 20
-1458.658533395755
 30
0.0
 10
2886.125938527743
 20
-1458.291129953559
 30
0.0
 10
2878.924857684158
 20
-1455.883093247787
 30
0.0
 10
2864.745188067015
 20
-1451.141458968443
 30
0.0
 10
2850.756559365333
 20
-1446.052371076323
 30
0.0
 10
2837.549426183536
 20
-1438.993432767365
 30
0.0
 10
2835.743505147957
 20
-1438.028208902946
 30
0.0
 10
2833.838465053299
 20
-1437.02067152132
 30
0.0
 10
2832.221330815444
 20
-1438.709307438734
 30
0.0
 10
2826.033520267099
 20
-1445.170815802558
 30
0.0
 10
2818.821568186393
 20
-1443.732901673767
 30
0.0
 10
2811.761702494349
 20
-1441.201864685172
 30
0.0
 10
2806.269007721812
 20
-1439.23265323084
 30
0.0
 10
2804.737383529062
 20
-1441.357594047578
 30
0.0
 10
2804.853923190969
 20
-1446.328509373601
 30
0.0
 10
2804.862984034315
 20
-1446.71501069521
 30
0.0
 10
2804.84157879029
 20
-1447.105665273117
 30
0.0
 10
2804.794801410006
 20
-1447.489575246774
 30
0.0
 10
2804.425787249822
 20
-1450.518009050058
 30
0.0
 10
2804.777070200404
 20
-1454.263323289586
 30
0.0
 10
2800.731807435687
 20
-1454.890890966359
 30
0.0
 10
2797.029223813892
 20
-1455.465318261198
 30
0.0
 10
2795.150332372434
 20
-1452.296951668624
 30
0.0
 10
2793.892405995159
 20
-1449.556121989848
 30
0.0
 10
2791.472938960075
 20
-1444.284432812063
 30
0.0
 10
2789.215945891649
 20
-1438.87937795966
 30
0.0
 10
2787.576061926162
 20
-1433.327432726208
 30
0.0
 10
2786.281776807277
 20
-1428.945569836876
 30
0.0
 10
2783.899689078919
 20
-1427.550785677387
 30
0.0
 10
2779.580932611751
 20
-1427.755395671669
 30
0.0
 10
2773.150795532182
 20
-1428.05996780056
 30
0.0
 10
2766.842125669138
 20
-1426.818925120118
 30
0.0
 10
2760.632534930019
 20
-1425.244521499997
 30
0.0
 10
2757.429434734854
 20
-1424.43240015212
 30
0.0
 10
2754.443701597937
 20
-1423.048229869848
 30
0.0
 10
2751.97579876425
 20
-1420.734866109036
 30
0.0
 10
2749.631054844702
 20
-1418.536941574697
 30
0.0
 10
2748.67029262474
 20
-1415.772505781035
 30
0.0
 10
2749.734337143875
 20
-1412.819043578711
 30
0.0
 10
2750.884650476086
 20
-1409.626112427489
 30
0.0
 10
2753.890544211309
 20
-1410.581751854286
 30
0.0
 10
2756.289577757855
 20
-1410.812417319732
 30
0.0
 10
2762.646438262005
 20
-1411.423584958793
 30
0.0
 10
2769.006824153052
 20
-1412.065422798245
 30
0.0
 10
2775.327556652055
 20
-1412.964088068063
 30
0.0
 10
2780.495412203646
 20
-1413.69882395662
 30
0.0
 10
2781.243841413731
 20
-1411.64267810326
 30
0.0
 10
2780.22490920071
 20
-1407.046620782024
 30
0.0
 10
2778.38136924746
 20
-1398.731002960132
 30
0.0
 10
2777.03480235252
 20
-1390.304525143074
 30
0.0
 10
2775.517721212689
 20
-1381.917645252561
 30
0.0
 10
2775.108450195871
 20
-1379.655096760107
 30
0.0
 10
2774.242247771259
 20
-1377.016376839929
 30
0.0
 10
2776.777202842457
 20
-1375.595448464479
 30
0.0
 10
2779.622558356814
 20
-1374.000491550345
 30
0.0
 10
2782.189958524259
 20
-1375.776505590751
 30
0.0
 10
2784.073939479584
 20
-1377.654327657455
 30
0.0
 10
2788.945930985074
 20
-1382.510513715348
 30
0.0
 10
2790.671870776141
 20
-1388.943322013179
 30
0.0
 10
2791.987814061706
 20
-1395.432465505481
 30
0.0
 10
2792.917171718114
 20
-1400.015282103628
 30
0.0
 10
2794.239069779278
 20
-1404.42190479015
 30
0.0
 10
2796.142082055422
 20
-1408.696847953113
 30
0.0
 10
2797.462245155884
 20
-1411.662556936848
 30
0.0
 10
2799.415921834238
 20
-1412.799661715962
 30
0.0
 10
2802.58824644457
 20
-1412.001029576589
 30
0.0
 10
2804.463335171657
 20
-1411.52901377264
 30
0.0
 10
2806.412033267132
 20
-1411.35308609539
 30
0.0
 10
2808.293107830492
 20
-1410.90048765211
 30
0.0
 10
2820.375480633856
 20
-1407.99327923579
 30
0.0
 10
2820.81056972952
 20
-1407.231245448969
 30
0.0
 10
2820.081744244164
 20
-1394.742545737288
 30
0.0
 10
2819.890792073495
 20
-1391.47031223922
 30
0.0
 10
2818.777195789991
 20
-1390.799650091067
 30
0.0
 10
2815.770655327093
 20
-1391.436713460665
 30
0.0
 10
2811.060143846584
 20
-1392.434826145298
 30
0.0
 10
2809.654208903876
 20
-1396.32433292417
 30
0.0
 10
2807.635908267408
 20
-1399.839798150344
 30
0.0
 10
2804.538777120017
 20
-1405.234381117199
 30
0.0
 10
2803.014620801578
 20
-1405.200445108432
 30
0.0
 10
2800.031371409549
 20
-1399.657125868842
 30
0.0
 10
2797.013387305617
 20
-1394.04927141593
 30
0.0
 10
2796.421264299091
 20
-1387.823770954081
 30
0.0
 10
2796.123729632267
 20
-1381.626065361335
 30
0.0
 10
2795.873069965002
 20
-1376.404712230029
 30
0.0
 10
2796.072151158695
 20
-1371.161776365108
 30
0.0
 10
2796.072151158695
 20
-1366.455533509135
 30
0.0
  0
HATCH
  5
89
330
70
100
AcDbEntity
  8
Layer 1
 62
   246
420
  8590872
440
 33554687
100
AcDbHatch
 10
0.0
 20
0.0
 30
0.0
210
0.0
220
0.0
230
1.0
  2
SOLID
 70
     1
 71
     1
 91
        9
 92
        1
 93
        1
 72
     4
 94
        3
 73
     0
 74
     0
 95
       17
 96
       13
 40
0.0
 40
0.0
 40
0.0
 40
0.0
 40
1.0
 40
1.0
 40
1.0
 40
2.0
 40
2.0
 40
2.0
 40
3.0
 40
3.0
 40
3.0
 40
4.0
 40
4.0
 40
4.0
 40
4.0
 10
2822.106749549729
 20
-1351.496409502342
 10
2821.861858293994
 20
-1350.278493714904
 10
2822.997472160592
 20
-1346.890803241404
 10
2819.580975127347
 20
-1347.796319609224
 10
2815.937797269851
 20
-1348.761933950733
 10
2809.800828613303
 20
-1345.759626614446
 10
2809.245237400732
 20
-1352.668089252733
 10
2809.024773149218
 20
-1355.409451400264
 10
2807.670567546235
 20
-1359.705995045795
 10
2813.288853949542
 20
-1359.684625299691
 10
2819.897811786605
 20
-1359.659510523328
 10
2821.748389201921
 20
-1358.195310186907
 10
2822.106749549729
 20
-1351.496409502342
 97
        0
 97
        1
330
80
 92
        1
 93
        1
 72
     4
 94
        3
 73
     0
 74
     0
 95
       17
 96
       13
 40
0.0
 40
0.0
 40
0.0
 40
0.0
 40
1.0
 40
1.0
 40
1.0
 40
2.0
 40
2.0
 40
2.0
 40
3.0
 40
3.0
 40
3.0
 40
4.0
 40
4.0
 40
4.0
 40
4.0
 10
2820.82176044789
 20
-1373.431974658706
 10
2820.43793921903
 20
-1371.52836335521
 10
2821.90924801335
 20
-1368.416793430031
 10
2817.711219962306
 20
-1368.236801241274
 10
2811.688266178308
 20
-1367.978536145263
 10
2808.788476826669
 20
-1369.74949173248
 10
2808.977228126476
 20
-1374.488907392002
 10
2809.087866259661
 20
-1377.267063130632
 10
2807.372469349977
 20
-1381.62686406447
 10
2813.02424360085
 20
-1381.518879400592
 10
2819.278470752126
 20
-1381.399411160524
 10
2820.652719366566
 20
-1380.086556193746
 10
2820.82176044789
 20
-1373.431974658706
 97
        0
 97
        1
330
81
 92
        1
 93
        1
 72
     4
 94
        3
 73
     0
 74
     0
 95
       23
 96
       19
 40
0.0
 40
0.0
 40
0.0
 40
0.0
 40
1.0
 40
1.0
 40
1.0
 40
2.0
 40
2.0
 40
2.0
 40
3.0
 40
3.0
 40
3.0
 40
4.0
 40
4.0
 40
4.0
 40
5.0
 40
5.0
 40
5.0
 40
6.0
 40
6.0
 40
6.0
 40
6.0
 10
2816.889123699717
 20
-1419.863001766644
 10
2813.291152439675
 20
-1420.973696095421
 10
2808.895494172304
 20
-1422.392725332305
 10
2804.460282350783
 20
-1423.674945596605
 10
2802.062855084989
 20
-1424.368042428381
 10
2800.555413848279
 20
-1425.539296203766
 10
2801.598418086347
 20
-1428.206219219097
 10
2802.602609789285
 20
-1430.773819062324
 10
2803.011053260909
 20
-1434.5279367853
 10
2807.094387541738
 20
-1433.426649404559
 10
2811.532590062778
 20
-1432.229695137179
 10
2815.809765157281
 20
-1430.409610432671
 10
2820.112858168521
 20
-1428.74660401142
 10
2823.137901920718
 20
-1427.577444613143
 10
2821.837178367119
 20
-1425.325527746867
 10
2821.134470474282
 20
-1423.411586549489
 10
2820.533774720772
 20
-1421.775523047334
 10
2820.715000462153
 20
-1419.24345661914
 10
2816.889123699717
 20
-1419.863001766644
 97
        0
 97
        1
330
82
 92
        1
 93
        1
 72
     4
 94
        3
 73
     0
 74
     0
 95
       23
 96
       19
 40
0.0
 40
0.0
 40
0.0
 40
0.0
 40
1.0
 40
1.0
 40
1.0
 40
2.0
 40
2.0
 40
2.0
 40
3.0
 40
3.0
 40
3.0
 40
4.0
 40
4.0
 40
4.0
 40
5.0
 40
5.0
 40
5.0
 40
6.0
 40
6.0
 40
6.0
 40
6.0
 10
2856.698111988137
 20
-1413.154605389249
 10
2857.315891114258
 20
-1409.331586209144
 10
2855.564006783019
 20
-1408.468134873106
 10
2852.3796838767
 20
-1409.373686738847
 10
2847.750959597235
 20
-1410.690020501501
 10
2843.163341905797
 20
-1412.170922607925
 10
2838.492685711734
 20
-1413.314026535034
 10
2834.104592937949
 20
-1414.38801601751
 10
2834.636884205169
 20
-1417.563304703923
 10
2835.195807784707
 20
-1420.594471846824
 10
2835.863656722928
 20
-1424.216501820196
 10
2838.82186677167
 20
-1423.72102189303
 10
2841.155881445766
 20
-1422.986108514888
 10
2845.179463857601
 20
-1421.719116857028
 10
2848.969647464373
 20
-1419.694067179069
 10
2853.009523420164
 20
-1418.500946686737
 10
2856.076339346337
 20
-1417.595217331411
 10
2856.972360021328
 20
-1415.820818446238
 10
2856.698111988137
 20
-1413.154605389249
 97
        0
 97
        1
330
83
 92
        1
 93
        1
 72
     4
 94
        3
 73
     0
 74
     0
 95
       23
 96
       19
 40
0.0
 40
0.0
 40
0.0
 40
0.0
 40
1.0
 40
1.0
 40
1.0
 40
2.0
 40
2.0
 40
2.0
 40
3.0
 40
3.0
 40
3.0
 40
4.0
 40
4.0
 40
4.0
 40
5.0
 40
5.0
 40
5.0
 40
6.0
 40
6.0
 40
6.0
 40
6.0
 10
2857.499788073901
 20
-1344.889057946031
 10
2858.248341526696
 20
-1340.085888027359
 10
2856.480527505146
 20
-1338.797863853608
 10
2852.336012564162
 20
-1340.076658568905
 10
2849.033046744347
 20
-1341.095786020473
 10
2845.671615855039
 20
-1342.306531228653
 10
2842.272708039729
 20
-1342.551307116155
 10
2835.9211899721
 20
-1343.008662280335
 10
2833.909345519309
 20
-1346.618498719174
 10
2833.423201544347
 20
-1352.311477177343
 10
2833.164217615517
 20
-1355.344365969224
 10
2834.119759423038
 20
-1356.280463792645
 10
2836.862603608612
 20
-1355.764590312094
 10
2841.209270313115
 20
-1354.947037782898
 10
2845.505796209689
 20
-1353.574706055984
 10
2849.88148246144
 20
-1353.270506655222
 10
2855.75651198756
 20
-1352.862067620837
 10
2858.292589680388
 20
-1350.225655065271
 10
2857.499788073901
 20
-1344.889057946031
 97
        0
 97
        1
330
84
 92
        1
 93
        1
 72
     4
 94
        3
 73
     0
 74
     0
 95
       23
 96
       19
 40
0.0
 40
0.0
 40
0.0
 40
0.0
 40
1.0
 40
1.0
 40
1.0
 40
2.0
 40
2.0
 40
2.0
 40
3.0
 40
3.0
 40
3.0
 40
4.0
 40
4.0
 40
4.0
 40
5.0
 40
5.0
 40
5.0
 40
6.0
 40
6.0
 40
6.0
 40
6.0
 10
2856.365549751595
 20
-1365.517128321102
 10
2856.034150071837
 20
-1363.690494250881
 10
2858.390563931638
 20
-1359.715472989668
 10
2853.754216474472
 20
-1360.475465646254
 10
2847.84927995318
 20
-1361.443458348207
 10
2841.912634917417
 20
-1362.776742366288
 10
2836.301354915502
 20
-1364.811944448545
 10
2831.227371387117
 20
-1366.652298463734
 10
2832.755432476437
 20
-1371.754254350806
 10
2833.23872774355
 20
-1375.457521307507
 10
2833.75166377146
 20
-1379.387921686899
 10
2837.193612811278
 20
-1377.262590393075
 10
2839.398743422791
 20
-1376.969963313291
 10
2842.655269092533
 20
-1376.53781167027
 10
2845.868753537767
 20
-1375.766530676039
 10
2849.090917223735
 20
-1375.093472418481
 10
2854.163702697415
 20
-1374.033895090357
 10
2857.99187794998
 20
-1371.959769541976
 10
2856.365549751595
 20
-1365.517128321102
 97
        0
 97
        1
330
85
 92
        1
 93
        1
 72
     4
 94
        3
 73
     0
 74
     0
 95
       23
 96
       19
 40
0.0
 40
0.0
 40
0.0
 40
0.0
 40
1.0
 40
1.0
 40
1.0
 40
2.0
 40
2.0
 40
2.0
 40
3.0
 40
3.0
 40
3.0
 40
4.0
 40
4.0
 40
4.0
 40
5.0
 40
5.0
 40
5.0
 40
6.0
 40
6.0
 40
6.0
 40
6.0
 10
2834.273270165626
 20
-1395.495616300039
 10
2834.296902903947
 20
-1403.911728725296
 10
2834.461063021672
 20
-1404.05911607718
 10
2841.728853326005
 20
-1402.156356723699
 10
2844.90485197076
 20
-1401.324818015156
 10
2848.079315330599
 20
-1400.465502186464
 10
2851.201579003309
 20
-1399.455320210014
 10
2857.274766777277
 20
-1397.490421752612
 10
2859.565518364883
 20
-1392.70597698522
 10
2856.943296101685
 20
-1385.839490633931
 10
2854.92766224624
 20
-1380.561394082106
 10
2851.061193615578
 20
-1385.133046585321
 10
2848.085358850987
 20
-1385.112599785057
 10
2846.036339204491
 20
-1385.098507111961
 10
2844.010428702039
 20
-1386.365250284398
 10
2841.921642513886
 20
-1386.608854740636
 10
2836.000971540829
 20
-1387.299306977587
 10
2833.214385046884
 20
-1390.256815942463
 10
2834.273270165626
 20
-1395.495616300039
 97
        0
 97
        1
330
86
 92
        1
 93
        1
 72
     4
 94
        3
 73
     0
 74
     0
 95
       44
 96
       40
 40
0.0
 40
0.0
 40
0.0
 40
0.0
 40
1.0
 40
1.0
 40
1.0
 40
2.0
 40
2.0
 40
2.0
 40
3.0
 40
3.0
 40
3.0
 40
4.0
 40
4.0
 40
4.0
 40
5.0
 40
5.0
 40
5.0
 40
6.0
 40
6.0
 40
6.0
 40
7.0
 40
7.0
 40
7.0
 40
8.0
 40
8.0
 40
8.0
 40
9.0
 40
9.0
 40
9.0
 40
10.0
 40
10.0
 40
10.0
 40
11.0
 40
11.0
 40
11.0
 40
12.0
 40
12.0
 40
12.0
 40
13.0
 40
13.0
 40
13.0
 40
13.0
 10
2868.739795304
 20
-1444.190150344191
 10
2869.984547516781
 20
-1444.061186411294
 10
2871.375471277787
 20
-1444.3185108125
 10
2872.257905124998
 20
-1443.765098284595
 10
2884.326682226105
 20
-1436.1960194087
 10
2897.479716582211
 20
-1432.012092905232
 10
2911.55675284648
 20
-1430.050442507247
 10
2915.060006789167
 20
-1429.562239653092
 10
2916.82803379822
 20
-1425.864208639166
 10
2917.215422567753
 20
-1422.031356536019
 10
2917.604444241473
 20
-1418.182281884747
 10
2915.030845250252
 20
-1416.446646725067
 10
2912.357159881709
 20
-1414.837597137837
 10
2905.74276198885
 20
-1410.85696720572
 10
2898.268498049585
 20
-1409.535237759661
 10
2890.822951925269
 20
-1408.273961266459
 10
2884.026458592062
 20
-1407.122586324662
 10
2883.776934858141
 20
-1407.438695276618
 10
2884.732219305768
 20
-1414.197037223402
 10
2885.311847045466
 20
-1418.297721111223
 10
2886.046165833495
 20
-1422.712810050976
 10
2882.432983715966
 20
-1425.582674658486
 10
2877.558179000547
 20
-1429.454645466299
 10
2871.945097479335
 20
-1432.125579746265
 10
2865.535957417744
 20
-1432.618929798405
 10
2863.368827326509
 20
-1432.785770008868
 10
2861.584950497459
 20
-1432.247089116568
 10
2861.025751809064
 20
-1429.953391201841
 10
2859.78794831356
 20
-1424.876195111959
 10
2856.79533190865
 20
-1425.926046010791
 10
2853.615969836248
 20
-1427.755644157089
 10
2851.2729830636
 20
-1429.103961543067
 10
2849.058214767587
 20
-1430.676377279829
 10
2846.706105030238
 20
-1432.007123196836
 10
2844.830057859386
 20
-1433.068546416649
 10
2844.482488878382
 20
-1434.061458656422
 10
2846.435708521052
 20
-1435.334981931031
 10
2853.29225545555
 20
-1439.805518617326
 10
2860.361869763083
 20
-1443.734250594618
 10
2868.739795304
 20
-1444.190150344191
 97
        0
 97
        1
330
87
 92
        1
 93
        1
 72
     4
 94
        3
 73
     0
 74
     0
 95
      128
 96
      124
 40
0.0
 40
0.0
 40
0.0
 40
0.0
 40
1.0
 40
1.0
 40
1.0
 40
2.0
 40
2.0
 40
2.0
 40
3.0
 40
3.0
 40
3.0
 40
4.0
 40
4.0
 40
4.0
 40
5.0
 40
5.0
 40
5.0
 40
6.0
 40
6.0
 40
6.0
 40
7.0
 40
7.0
 40
7.0
 40
8.0
 40
8.0
 40
8.0
 40
9.0
 40
9.0
 40
9.0
 40
10.0
 40
10.0
 40
10.0
 40
11.0
 40
11.0
 40
11.0
 40
12.0
 40
12.0
 40
12.0
 40
13.0
 40
13.0
 40
13.0
 40
14.0
 40
14.0
 40
14.0
 40
15.0
 40
15.0
 40
15.0
 40
16.0
 40
16.0
 40
16.0
 40
17.0
 40
17.0
 40
17.0
 40
18.0
 40
18.0
 40
18.0
 40
19.0
 40
19.0
 40
19.0
 40
20.0
 40
20.0
 40
20.0
 40
21.0
 40
21.0
 40
21.0
 40
22.0
 40
22.0
 40
22.0
 40
23.0
 40
23.0
 40
23.0
 40
24.0
 40
24.0
 40
24.0
 40
25.0
 40
25.0
 40
25.0
 40
26.0
 40
26.0
 40
26.0
 40
27.0
 40
27.0
 40
27.0
 40
28.0
 40
28.0
 40
28.0
 40
29.0
 40
29.0
 40
29.0
 40
30.0
 40
30.0
 40
30.0
 40
31.0
 40
31.0
 40
31.0
 40
32.0
 40
32.0
 40
32.0
 40
33.0
 40
33.0
 40
33.0
 40
34.0
 40
34.0
 40
34.0
 40
35.0
 40
35.0
 40
35.0
 40
36.0
 40
36.0
 40
36.0
 40
37.0
 40
37.0
 40
37.0
 40
38.0
 40
38.0
 40
38.0
 40
39.0
 40
39.0
 40
39.0
 40
40.0
 40
40.0
 40
40.0
 40
41.0
 40
41.0
 40
41.0
 40
41.0
 10
2796.072151158695
 20
-1366.455533509135
 10
2796.605946650148
 20
-1358.963733598812
 10
2797.103103853899
 20
-1352.008608948472
 10
2797.596223169576
 20
-1345.053200314796
 10
2797.772851930686
 20
-1342.561867746499
 10
2798.400295364749
 20
-1340.560370936546
 10
2801.404581709909
 20
-1340.10706253492
 10
2825.969118170963
 20
-1336.400529769846
 10
2849.346466729085
 20
-1327.396341100611
 10
2873.943177614767
 20
-1323.799993870278
 10
2876.106864408039
 20
-1323.483618683942
 10
2878.167802480211
 20
-1323.586580392551
 10
2880.278890234795
 20
-1323.984174813257
 10
2887.493238424906
 20
-1325.342981833746
 10
2889.583897128183
 20
-1328.366445928634
 10
2887.549032276138
 20
-1335.388750387123
 10
2883.376509478546
 20
-1349.788018994051
 10
2880.216263034514
 20
-1364.329279269463
 10
2880.716606176326
 20
-1379.428318316582
 10
2880.889401162387
 20
-1384.643210826976
 10
2879.844945946958
 20
-1390.758756490544
 10
2882.198812831203
 20
-1394.812476634015
 10
2884.846034502532
 20
-1399.37143863186
 10
2891.765386126894
 20
-1397.224737591925
 10
2896.761114496987
 20
-1398.170774832139
 10
2910.277798390552
 20
-1400.730387644016
 10
2922.900147760191
 20
-1405.233600163025
 10
2934.222829639262
 20
-1413.1692305311
 10
2942.474054239499
 20
-1418.952160711255
 10
2946.26175299207
 20
-1427.271736550905
 10
2944.278590856308
 20
-1435.536752091942
 10
2942.443171051602
 20
-1443.186056260529
 10
2935.673913495304
 20
-1448.793058763433
 10
2925.83129952161
 20
-1449.917597279884
 10
2916.920807604615
 20
-1450.93564204498
 10
2908.320886964504
 20
-1452.702941346732
 10
2899.922523497806
 20
-1455.986143701186
 10
2893.086689597947
 20
-1458.658533395755
 10
2886.125938527743
 20
-1458.291129953559
 10
2878.924857684158
 20
-1455.883093247787
 10
2864.745188067015
 20
-1451.141458968443
 10
2850.756559365333
 20
-1446.052371076323
 10
2837.549426183536
 20
-1438.993432767365
 10
2835.743505147957
 20
-1438.028208902946
 10
2833.838465053299
 20
-1437.02067152132
 10
2832.221330815444
 20
-1438.709307438734
 10
2826.033520267099
 20
-1445.170815802558
 10
2818.821568186393
 20
-1443.732901673767
 10
2811.761702494349
 20
-1441.201864685172
 10
2806.269007721812
 20
-1439.23265323084
 10
2804.737383529062
 20
-1441.357594047578
 10
2804.853923190969
 20
-1446.328509373601
 10
2804.862984034315
 20
-1446.71501069521
 10
2804.84157879029
 20
-1447.105665273117
 10
2804.794801410006
 20
-1447.489575246774
 10
2804.425787249822
 20
-1450.518009050058
 10
2804.777070200404
 20
-1454.263323289586
 10
2800.731807435687
 20
-1454.890890966359
 10
2797.029223813892
 20
-1455.465318261198
 10
2795.150332372434
 20
-1452.296951668624
 10
2793.892405995159
 20
-1449.556121989848
 10
2791.472938960075
 20
-1444.284432812063
 10
2789.215945891649
 20
-1438.87937795966
 10
2787.576061926162
 20
-1433.327432726208
 10
2786.281776807277
 20
-1428.945569836876
 10
2783.899689078919
 20
-1427.550785677387
 10
2779.580932611751
 20
-1427.755395671669
 10
2773.150795532182
 20
-1428.05996780056
 10
2766.842125669138
 20
-1426.818925120118
 10
2760.632534930019
 20
-1425.244521499997
 10
2757.429434734854
 20
-1424.43240015212
 10
2754.443701597937
 20
-1423.048229869848
 10
2751.97579876425
 20
-1420.734866109036
 10
2749.631054844702
 20
-1418.536941574697
 10
2748.67029262474
 20
-1415.772505781035
 10
2749.734337143875
 20
-1412.819043578711
 10
2750.884650476086
 20
-1409.626112427489
 10
2753.890544211309
 20
-1410.581751854286
 10
2756.289577757855
 20
-1410.812417319732
 10
2762.646438262005
 20
-1411.423584958793
 10
2769.006824153052
 20
-1412.065422798245
 10
2775.327556652055
 20
-1412.964088068063
 10
2780.495412203646
 20
-1413.69882395662
 10
2781.243841413731
 20
-1411.64267810326
 10
2780.22490920071
 20
-1407.046620782024
 10
2778.38136924746
 20
-1398.731002960132
 10
2777.03480235252
 20
-1390.304525143074
 10
2775.517721212689
 20
-1381.917645252561
 10
2775.108450195871
 20
-1379.655096760107
 10
2774.242247771259
 20
-1377.016376839929
 10
2776.777202842457
 20
-1375.595448464479
 10
2779.622558356814
 20
-1374.000491550345
 10
2782.189958524259
 20
-1375.776505590751
 10
2784.073939479584
 20
-1377.654327657455
 10
2788.945930985074
 20
-1382.510513715348
 10
2790.671870776141
 20
-1388.943322013179
 10
2791.987814061706
 20
-1395.432465505481
 10
2792.917171718114
 20
-1400.015282103628
 10
2794.239069779278
 20
-1404.42190479015
 10
2796.142082055422
 20
-1408.696847953113
 10
2797.462245155884
 20
-1411.662556936848
 10
2799.415921834238
 20
-1412.799661715962
 10
2802.58824644457
 20
-1412.001029576589
 10
2804.463335171657
 20
-1411.52901377264
 10
2806.412033267132
 20
-1411.35308609539
 10
2808.293107830492
 20
-1410.90048765211
 10
2820.375480633856
 20
-1407.99327923579
 10
2820.81056972952
 20
-1407.231245448969
 10
2820.081744244164
 20
-1394.742545737288
 10
2819.890792073495
 20
-1391.47031223922
 10
2818.777195789991
 20
-1390.799650091067
 10
2815.770655327093
 20
-1391.436713460665
 10
2811.060143846584
 20
-1392.434826145298
 10
2809.654208903876
 20
-1396.32433292417
 10
2807.635908267408
 20
-1399.839798150344
 10
2804.538777120017
 20
-1405.234381117199
 10
2803.014620801578
 20
-1405.200445108432
 10
2800.031371409549
 20
-1399.657125868842
 10
2797.013387305617
 20
-1394.04927141593
 10
2796.421264299091
 20
-1387.823770954081
 10
2796.123729632267
 20
-1381.626065361335
 10
2795.873069965002
 20
-1376.404712230029
 10
2796.072151158695
 20
-1371.161776365108
 10
2796.072151158695
 20
-1366.455533509135
 97
        0
 97
        1
330
88
 75
     2
 76
     1
 98
        1
 10
0.0
 20
0.0
450
        0
451
        0
460
0.0
461
0.0
452
        0
462
0.0
453
        0
470

  0
SPLINE
  5
8A
330
70
100
AcDbEntity
  8
Layer 1
100
AcDbSpline
210
0.0
220
0.0
230
1.0
 70
     9
 71
     3
 72
    35
 73
    31
 74
     0
 42
0.0000000001
 43
0.0000000001
 40
0.0
 40
0.0
 40
0.0
 40
0.0
 40
1.0
 40
1.0
 40
1.0
 40
2.0
 40
2.0
 40
2.0
 40
3.0
 40
3.0
 40
3.0
 40
4.0
 40
4.0
 40
4.0
 40
5.0
 40
5.0
 40
5.0
 40
6.0
 40
6.0
 40
6.0
 40
7.0
 40
7.0
 40
7.0
 40
8.0
 40
8.0
 40
8.0
 40
9.0
 40
9.0
 40
9.0
 40
10.0
 40
10.0
 40
10.0
 40
10.0
 10
2846.996451368845
 20
-1174.069362356309
 30
0.0
 10
2846.961876397569
 20
-1174.066700012525
 30
0.0
 10
2846.927301426293
 20
-1174.06404210598
 30
0.0
 10
2846.892726455017
 20
-1174.061379762195
 30
0.0
 10
2847.243720985023
 20
-1169.636160604343
 30
0.0
 10
2847.682537361985
 20
-1165.215303253055
 30
0.0
 10
2847.902837435633
 20
-1160.78358797637
 30
0.0
 10
2847.992017077921
 20
-1158.989709609173
 30
0.0
 10
2849.304605810319
 20
-1156.399559714096
 30
0.0
 10
2847.112023712509
 20
-1155.535682403057
 30
0.0
 10
2843.852241108873
 20
-1154.251323389246
 30
0.0
 10
2840.747158428045
 20
-1156.084014291573
 30
0.0
 10
2837.80328066334
 20
-1157.538723372403
 30
0.0
 10
2835.344091458998
 20
-1158.753914694702
 30
0.0
 10
2836.133636131587
 20
-1160.685209936309
 30
0.0
 10
2836.843576725036
 20
-1162.510100171352
 30
0.0
 10
2839.582968738169
 20
-1169.551653375398
 30
0.0
 10
2839.918441803913
 20
-1176.783067189164
 30
0.0
 10
2838.66556056811
 20
-1184.157808280542
 30
0.0
 10
2838.213148488891
 20
-1186.820844273952
 30
0.0
 10
2837.8249698907
 20
-1189.494778127915
 30
0.0
 10
2837.376950678727
 20
-1192.158595075496
 30
0.0
 10
2837.135449474076
 20
-1193.59450357197
 30
0.0
 10
2837.032603133701
 20
-1195.297800129156
 30
0.0
 10
2839.036389559306
 20
-1194.873706513321
 30
0.0
 10
2842.222957708882
 20
-1194.199281585952
 30
0.0
 10
2846.112970333076
 20
-1194.356768095254
 30
0.0
 10
2846.008961435911
 20
-1189.084155971624
 30
0.0
 10
2845.910401469026
 20
-1184.087664396316
 30
0.0
 10
2846.634274994946
 20
-1179.074941398401
 30
0.0
 10
2846.996451368845
 20
-1174.069362356309
 30
0.0
  0
SPLINE
  5
8B
330
70
100
AcDbEntity
  8
Layer 1
100
AcDbSpline
210
0.0
220
0.0
230
1.0
 70
     9
 71
     3
 72
    29
 73
    25
 74
     0
 42
0.0000000001
 43
0.0000000001
 40
0.0
 40
0.0
 40
0.0
 40
0.0
 40
1.0
 40
1.0
 40
1.0
 40
2.0
 40
2.0
 40
2.0
 40
3.0
 40
3.0
 40
3.0
 40
4.0
 40
4.0
 40
4.0
 40
5.0
 40
5.0
 40
5.0
 40
6.0
 40
6.0
 40
6.0
 40
7.0
 40
7.0
 40
7.0
 40
8.0
 40
8.0
 40
8.0
 40
8.0
 10
2825.766540432438
 20
-1194.883974285847
 30
0.0
 10
2824.153106852444
 20
-1185.734022294437
 30
0.0
 10
2822.649903179589
 20
-1176.562589625929
 30
0.0
 10
2820.87222073708
 20
-1167.444661193003
 30
0.0
 10
2820.157230564919
 20
-1163.777460120098
 30
0.0
 10
2817.321417334412
 20
-1164.530748107591
 30
0.0
 10
2814.860435485253
 20
-1165.416722872036
 30
0.0
 10
2809.143575803338
 20
-1167.474838859794
 30
0.0
 10
2803.305153504249
 20
-1168.607107047704
 30
0.0
 10
2797.201339902289
 20
-1168.357578876545
 30
0.0
 10
2795.973861863428
 20
-1168.307393696217
 30
0.0
 10
2794.299580416248
 20
-1167.746983641398
 30
0.0
 10
2793.66302289197
 20
-1169.439435584903
 30
0.0
 10
2793.20099531445
 20
-1170.66784988133
 30
0.0
 10
2794.160810183746
 20
-1171.694068041841
 30
0.0
 10
2794.913627823835
 20
-1172.511039292643
 30
0.0
 10
2802.919357703746
 20
-1181.198994767212
 30
0.0
 10
2810.980411087492
 20
-1189.835930860398
 30
0.0
 10
2819.008659958576
 20
-1198.503199923765
 30
0.0
 10
2820.406221830081
 20
-1200.012003393047
 30
0.0
 10
2821.935782706399
 20
-1200.172258739883
 30
0.0
 10
2823.716580091133
 20
-1199.277453868555
 30
0.0
 10
2825.583797155103
 20
-1198.339226170104
 30
0.0
 10
2825.986813882648
 20
-1196.781444449676
 30
0.0
 10
2825.766540432438
 20
-1194.883974285847
 30
0.0
  0
SPLINE
  5
8C
330
70
100
AcDbEntity
  8
Layer 1
100
AcDbSpline
210
0.0
220
0.0
230
1.0
 70
     9
 71
     3
 72
    32
 73
    28
 74
     0
 42
0.0000000001
 43
0.0000000001
 40
0.0
 40
0.0
 40
0.0
 40
0.0
 40
1.0
 40
1.0
 40
1.0
 40
2.0
 40
2.0
 40
2.0
 40
3.0
 40
3.0
 40
3.0
 40
4.0
 40
4.0
 40
4.0
 40
5.0
 40
5.0
 40
5.0
 40
6.0
 40
6.0
 40
6.0
 40
7.0
 40
7.0
 40
7.0
 40
8.0
 40
8.0
 40
8.0
 40
9.0
 40
9.0
 40
9.0
 40
9.0
 10
2883.714254410987
 20
-1193.917206262034
 30
0.0
 10
2887.524086114883
 20
-1194.985560450164
 30
0.0
 10
2889.185379761633
 20
-1193.046362484758
 30
0.0
 10
2890.708062916509
 20
-1190.967453592046
 30
0.0
 10
2894.709601121811
 20
-1185.504226527959
 30
0.0
 10
2897.901165603222
 20
-1179.56173321035
 30
0.0
 10
2901.087565137694
 20
-1173.600576862816
 30
0.0
 10
2903.040731533487
 20
-1169.946549954402
 30
0.0
 10
2902.150319529397
 20
-1167.498298545772
 30
0.0
 10
2898.8932613909
 20
-1165.319946675488
 30
0.0
 10
2893.414903339641
 20
-1161.655958164079
 30
0.0
 10
2887.627092195884
 20
-1158.659170753908
 30
0.0
 10
2881.479980009519
 20
-1156.266801941306
 30
0.0
 10
2871.63413572536
 20
-1152.434948217076
 30
0.0
 10
2871.707190438794
 20
-1152.369920470151
 30
0.0
 10
2868.770793860126
 20
-1161.864836782897
 30
0.0
 10
2867.746439340264
 20
-1165.177111931476
 30
0.0
 10
2866.369084658078
 20
-1168.379077302601
 30
0.0
 10
2865.304218140302
 20
-1171.680228291403
 30
0.0
 10
2863.528772066571
 20
-1177.184242462259
 30
0.0
 10
2861.876113288161
 20
-1182.727854559667
 30
0.0
 10
2860.169870403856
 20
-1188.254214669352
 30
0.0
 10
2859.481485920582
 20
-1190.483812220242
 30
0.0
 10
2859.708415230251
 20
-1191.83609649846
 30
0.0
 10
2862.609136402216
 20
-1192.035000202562
 30
0.0
 10
2869.918388273747
 20
-1192.536204168864
 30
0.0
 10
2877.20827603149
 20
-1193.319616576271
 30
0.0
 10
2883.714254410987
 20
-1193.917206262034
 30
0.0
  0
SPLINE
  5
8D
330
70
100
AcDbEntity
  8
Layer 1
100
AcDbSpline
210
0.0
220
0.0
230
1.0
 70
     9
 71
     3
 72
    59
 73
    55
 74
     0
 42
0.0000000001
 43
0.0000000001
 40
0.0
 40
0.0
 40
0.0
 40
0.0
 40
1.0
 40
1.0
 40
1.0
 40
2.0
 40
2.0
 40
2.0
 40
3.0
 40
3.0
 40
3.0
 40
4.0
 40
4.0
 40
4.0
 40
5.0
 40
5.0
 40
5.0
 40
6.0
 40
6.0
 40
6.0
 40
7.0
 40
7.0
 40
7.0
 40
8.0
 40
8.0
 40
8.0
 40
9.0
 40
9.0
 40
9.0
 40
10.0
 40
10.0
 40
10.0
 40
11.0
 40
11.0
 40
11.0
 40
12.0
 40
12.0
 40
12.0
 40
13.0
 40
13.0
 40
13.0
 40
14.0
 40
14.0
 40
14.0
 40
15.0
 40
15.0
 40
15.0
 40
16.0
 40
16.0
 40
16.0
 40
17.0
 40
17.0
 40
17.0
 40
18.0
 40
18.0
 40
18.0
 40
18.0
 10
2929.622654559642
 20
-1169.867136676566
 30
0.0
 10
2929.639959794238
 20
-1173.531830709074
 30
0.0
 10
2928.192070750736
 20
-1176.609482374446
 30
0.0
 10
2925.852793510423
 20
-1179.349349172222
 30
0.0
 10
2915.53642433484
 20
-1191.432272193298
 30
0.0
 10
2902.763031327855
 20
-1200.469065699406
 30
0.0
 10
2889.444922782658
 20
-1208.854046451353
 30
0.0
 10
2886.617682299131
 20
-1210.634062881912
 30
0.0
 10
2884.051892849677
 20
-1209.386666074304
 30
0.0
 10
2881.741981261303
 20
-1208.242869937814
 30
0.0
 10
2863.473004838777
 20
-1199.196598487833
 30
0.0
 10
2845.822748237179
 20
-1200.756891685898
 30
0.0
 10
2828.502586766879
 20
-1210.838983482968
 30
0.0
 10
2825.668095833784
 20
-1212.488962168638
 30
0.0
 10
2822.607181436334
 20
-1213.767925499043
 30
0.0
 10
2819.594482084811
 20
-1215.089717066457
 30
0.0
 10
2814.632716346924
 20
-1217.26663570834
 30
0.0
 10
2809.864121399527
 20
-1216.685490432683
 30
0.0
 10
2806.25069967106
 20
-1212.664250883379
 30
0.0
 10
2792.677853635369
 20
-1197.559514420558
 30
0.0
 10
2775.751102268796
 20
-1185.649608247524
 30
0.0
 10
2764.278885413858
 20
-1168.553589500403
 30
0.0
 10
2763.095098655109
 20
-1166.789502760152
 30
0.0
 10
2761.729835450942
 20
-1165.145887076127
 30
0.0
 10
2760.571451889135
 20
-1163.366514045316
 30
0.0
 10
2759.766647549425
 20
-1162.130268020923
 30
0.0
 10
2758.026119223729
 20
-1160.850159882691
 30
0.0
 10
2758.97147423835
 20
-1159.345704908257
 30
0.0
 10
2760.029487439499
 20
-1157.661949954446
 30
0.0
 10
2762.107508884287
 20
-1156.96322670281
 30
0.0
 10
2764.141681526946
 20
-1157.495611152062
 30
0.0
 10
2768.256087578355
 20
-1158.572436030667
 30
0.0
 10
2772.485176306878
 20
-1159.458690341209
 30
0.0
 10
2776.363314877793
 20
-1161.128694289375
 30
0.0
 10
2781.342090773839
 20
-1163.272661989689
 30
0.0
 10
2785.680388844385
 20
-1162.937286543216
 30
0.0
 10
2790.732523404781
 20
-1160.889584756893
 30
0.0
 10
2809.038457596269
 20
-1153.469943237596
 30
0.0
 10
2827.588692890617
 20
-1146.636767244283
 30
0.0
 10
2846.794193111569
 20
-1141.865789499199
 30
0.0
 10
2850.264993083531
 20
-1141.003580590262
 30
0.0
 10
2851.362633053284
 20
-1138.933428589978
 30
0.0
 10
2852.441317135299
 20
-1136.101065313291
 30
0.0
 10
2854.289551688087
 20
-1131.2480474445
 30
0.0
 10
2856.558693918645
 20
-1130.552594438479
 30
0.0
 10
2859.89075028154
 20
-1134.427720123676
 30
0.0
 10
2863.622894793816
 20
-1138.768143632009
 30
0.0
 10
2868.021397331797
 20
-1140.160422969722
 30
0.0
 10
2873.497350399173
 20
-1140.740225980386
 30
0.0
 10
2887.996785253736
 20
-1142.275444337247
 30
0.0
 10
2902.070324973169
 20
-1145.87586495357
 30
0.0
 10
2915.656886516585
 20
-1151.21800862236
 30
0.0
 10
2924.943372371718
 20
-1154.869399810428
 30
0.0
 10
2929.557728869228
 20
-1161.148435568531
 30
0.0
 10
2929.622654559642
 20
-1169.867136676566
 30
0.0
  0
HATCH
  5
8E
330
70
100
AcDbEntity
  8
Layer 1
 62
    18
420
        0
440
 33554687
100
AcDbHatch
 10
0.0
 20
0.0
 30
0.0
210
0.0
220
0.0
230
1.0
  2
SOLID
 70
     1
 71
     1
 91
        4
 92
        1
 93
        1
 72
     4
 94
        3
 73
     0
 74
     0
 95
       35
 96
       31
 40
0.0
 40
0.0
 40
0.0
 40
0.0
 40
1.0
 40
1.0
 40
1.0
 40
2.0
 40
2.0
 40
2.0
 40
3.0
 40
3.0
 40
3.0
 40
4.0
 40
4.0
 40
4.0
 40
5.0
 40
5.0
 40
5.0
 40
6.0
 40
6.0
 40
6.0
 40
7.0
 40
7.0
 40
7.0
 40
8.0
 40
8.0
 40
8.0
 40
9.0
 40
9.0
 40
9.0
 40
10.0
 40
10.0
 40
10.0
 40
10.0
 10
2846.996451368845
 20
-1174.069362356309
 10
2846.961876397569
 20
-1174.066700012525
 10
2846.927301426293
 20
-1174.06404210598
 10
2846.892726455017
 20
-1174.061379762195
 10
2847.243720985023
 20
-1169.636160604343
 10
2847.682537361985
 20
-1165.215303253055
 10
2847.902837435633
 20
-1160.78358797637
 10
2847.992017077921
 20
-1158.989709609173
 10
2849.304605810319
 20
-1156.399559714096
 10
2847.112023712509
 20
-1155.535682403057
 10
2843.852241108873
 20
-1154.251323389246
 10
2840.747158428045
 20
-1156.084014291573
 10
2837.80328066334
 20
-1157.538723372403
 10
2835.344091458998
 20
-1158.753914694702
 10
2836.133636131587
 20
-1160.685209936309
 10
2836.843576725036
 20
-1162.510100171352
 10
2839.582968738169
 20
-1169.551653375398
 10
2839.918441803913
 20
-1176.783067189164
 10
2838.66556056811
 20
-1184.157808280542
 10
2838.213148488891
 20
-1186.820844273952
 10
2837.8249698907
 20
-1189.494778127915
 10
2837.376950678727
 20
-1192.158595075496
 10
2837.135449474076
 20
-1193.59450357197
 10
2837.032603133701
 20
-1195.297800129156
 10
2839.036389559306
 20
-1194.873706513321
 10
2842.222957708882
 20
-1194.199281585952
 10
2846.112970333076
 20
-1194.356768095254
 10
2846.008961435911
 20
-1189.084155971624
 10
2845.910401469026
 20
-1184.087664396316
 10
2846.634274994946
 20
-1179.074941398401
 10
2846.996451368845
 20
-1174.069362356309
 97
        0
 97
        1
330
8A
 92
        1
 93
        1
 72
     4
 94
        3
 73
     0
 74
     0
 95
       29
 96
       25
 40
0.0
 40
0.0
 40
0.0
 40
0.0
 40
1.0
 40
1.0
 40
1.0
 40
2.0
 40
2.0
 40
2.0
 40
3.0
 40
3.0
 40
3.0
 40
4.0
 40
4.0
 40
4.0
 40
5.0
 40
5.0
 40
5.0
 40
6.0
 40
6.0
 40
6.0
 40
7.0
 40
7.0
 40
7.0
 40
8.0
 40
8.0
 40
8.0
 40
8.0
 10
2825.766540432438
 20
-1194.883974285847
 10
2824.153106852444
 20
-1185.734022294437
 10
2822.649903179589
 20
-1176.562589625929
 10
2820.87222073708
 20
-1167.444661193003
 10
2820.157230564919
 20
-1163.777460120098
 10
2817.321417334412
 20
-1164.530748107591
 10
2814.860435485253
 20
-1165.416722872036
 10
2809.143575803338
 20
-1167.474838859794
 10
2803.305153504249
 20
-1168.607107047704
 10
2797.201339902289
 20
-1168.357578876545
 10
2795.973861863428
 20
-1168.307393696217
 10
2794.299580416248
 20
-1167.746983641398
 10
2793.66302289197
 20
-1169.439435584903
 10
2793.20099531445
 20
-1170.66784988133
 10
2794.160810183746
 20
-1171.694068041841
 10
2794.913627823835
 20
-1172.511039292643
 10
2802.919357703746
 20
-1181.198994767212
 10
2810.980411087492
 20
-1189.835930860398
 10
2819.008659958576
 20
-1198.503199923765
 10
2820.406221830081
 20
-1200.012003393047
 10
2821.935782706399
 20
-1200.172258739883
 10
2823.716580091133
 20
-1199.277453868555
 10
2825.583797155103
 20
-1198.339226170104
 10
2825.986813882648
 20
-1196.781444449676
 10
2825.766540432438
 20
-1194.883974285847
 97
        0
 97
        1
330
8B
 92
        1
 93
        1
 72
     4
 94
        3
 73
     0
 74
     0
 95
       32
 96
       28
 40
0.0
 40
0.0
 40
0.0
 40
0.0
 40
1.0
 40
1.0
 40
1.0
 40
2.0
 40
2.0
 40
2.0
 40
3.0
 40
3.0
 40
3.0
 40
4.0
 40
4.0
 40
4.0
 40
5.0
 40
5.0
 40
5.0
 40
6.0
 40
6.0
 40
6.0
 40
7.0
 40
7.0
 40
7.0
 40
8.0
 40
8.0
 40
8.0
 40
9.0
 40
9.0
 40
9.0
 40
9.0
 10
2883.714254410987
 20
-1193.917206262034
 10
2887.524086114883
 20
-1194.985560450164
 10
2889.185379761633
 20
-1193.046362484758
 10
2890.708062916509
 20
-1190.967453592046
 10
2894.709601121811
 20
-1185.504226527959
 10
2897.901165603222
 20
-1179.56173321035
 10
2901.087565137694
 20
-1173.600576862816
 10
2903.040731533487
 20
-1169.946549954402
 10
2902.150319529397
 20
-1167.498298545772
 10
2898.8932613909
 20
-1165.319946675488
 10
2893.414903339641
 20
-1161.655958164079
 10
2887.627092195884
 20
-1158.659170753908
 10
2881.479980009519
 20
-1156.266801941306
 10
2871.63413572536
 20
-1152.434948217076
 10
2871.707190438794
 20
-1152.369920470151
 10
2868.770793860126
 20
-1161.864836782897
 10
2867.746439340264
 20
-1165.177111931476
 10
2866.369084658078
 20
-1168.379077302601
 10
2865.304218140302
 20
-1171.680228291403
 10
2863.528772066571
 20
-1177.184242462259
 10
2861.876113288161
 20
-1182.727854559667
 10
2860.169870403856
 20
-1188.254214669352
 10
2859.481485920582
 20
-1190.483812220242
 10
2859.708415230251
 20
-1191.83609649846
 10
2862.609136402216
 20
-1192.035000202562
 10
2869.918388273747
 20
-1192.536204168864
 10
2877.20827603149
 20
-1193.319616576271
 10
2883.714254410987
 20
-1193.917206262034
 97
        0
 97
        1
330
8C
 92
        1
 93
        1
 72
     4
 94
        3
 73
     0
 74
     0
 95
       59
 96
       55
 40
0.0
 40
0.0
 40
0.0
 40
0.0
 40
1.0
 40
1.0
 40
1.0
 40
2.0
 40
2.0
 40
2.0
 40
3.0
 40
3.0
 40
3.0
 40
4.0
 40
4.0
 40
4.0
 40
5.0
 40
5.0
 40
5.0
 40
6.0
 40
6.0
 40
6.0
 40
7.0
 40
7.0
 40
7.0
 40
8.0
 40
8.0
 40
8.0
 40
9.0
 40
9.0
 40
9.0
 40
10.0
 40
10.0
 40
10.0
 40
11.0
 40
11.0
 40
11.0
 40
12.0
 40
12.0
 40
12.0
 40
13.0
 40
13.0
 40
13.0
 40
14.0
 40
14.0
 40
14.0
 40
15.0
 40
15.0
 40
15.0
 40
16.0
 40
16.0
 40
16.0
 40
17.0
 40
17.0
 40
17.0
 40
18.0
 40
18.0
 40
18.0
 40
18.0
 10
2929.622654559642
 20
-1169.867136676566
 10
2929.639959794238
 20
-1173.531830709074
 10
2928.192070750736
 20
-1176.609482374446
 10
2925.852793510423
 20
-1179.349349172222
 10
2915.53642433484
 20
-1191.432272193298
 10
2902.763031327855
 20
-1200.469065699406
 10
2889.444922782658
 20
-1208.854046451353
 10
2886.617682299131
 20
-1210.634062881912
 10
2884.051892849677
 20
-1209.386666074304
 10
2881.741981261303
 20
-1208.242869937814
 10
2863.473004838777
 20
-1199.196598487833
 10
2845.822748237179
 20
-1200.756891685898
 10
2828.502586766879
 20
-1210.838983482968
 10
2825.668095833784
 20
-1212.488962168638
 10
2822.607181436334
 20
-1213.767925499043
 10
2819.594482084811
 20
-1215.089717066457
 10
2814.632716346924
 20
-1217.26663570834
 10
2809.864121399527
 20
-1216.685490432683
 10
2806.25069967106
 20
-1212.664250883379
 10
2792.677853635369
 20
-1197.559514420558
 10
2775.751102268796
 20
-1185.649608247524
 10
2764.278885413858
 20
-1168.553589500403
 10
2763.095098655109
 20
-1166.789502760152
 10
2761.729835450942
 20
-1165.145887076127
 10
2760.571451889135
 20
-1163.366514045316
 10
2759.766647549425
 20
-1162.130268020923
 10
2758.026119223729
 20
-1160.850159882691
 10
2758.97147423835
 20
-1159.345704908257
 10
2760.029487439499
 20
-1157.661949954446
 10
2762.107508884287
 20
-1156.96322670281
 10
2764.141681526946
 20
-1157.495611152062
 10
2768.256087578355
 20
-1158.572436030667
 10
2772.485176306878
 20
-1159.458690341209
 10
2776.363314877793
 20
-1161.128694289375
 10
2781.342090773839
 20
-1163.272661989689
 10
2785.680388844385
 20
-1162.937286543216
 10
2790.732523404781
 20
-1160.889584756893
 10
2809.038457596269
 20
-1153.469943237596
 10
2827.588692890617
 20
-1146.636767244283
 10
2846.794193111569
 20
-1141.865789499199
 10
2850.264993083531
 20
-1141.003580590262
 10
2851.362633053284
 20
-1138.933428589978
 10
2852.441317135299
 20
-1136.101065313291
 10
2854.289551688087
 20
-1131.2480474445
 10
2856.558693918645
 20
-1130.552594438479
 10
2859.89075028154
 20
-1134.427720123676
 10
2863.622894793816
 20
-1138.768143632009
 10
2868.021397331797
 20
-1140.160422969722
 10
2873.497350399173
 20
-1140.740225980386
 10
2887.996785253736
 20
-1142.275444337247
 10
2902.070324973169
 20
-1145.87586495357
 10
2915.656886516585
 20
-1151.21800862236
 10
2924.943372371718
 20
-1154.869399810428
 10
2929.557728869228
 20
-1161.148435568531
 10
2929.622654559642
 20
-1169.867136676566
 97
        0
 97
        1
330
8D
 75
     2
 76
     1
 98
        1
 10
0.0
 20
0.0
450
        0
451
        0
460
0.0
461
0.0
452
        0
462
0.0
453
        0
470

  0
SPLINE
  5
8F
330
70
100
AcDbEntity
  8
Layer 1
100
AcDbSpline
210
0.0
220
0.0
230
1.0
 70
     9
 71
     3
 72
    92
 73
    88
 74
     0
 42
0.0000000001
 43
0.0000000001
 40
0.0
 40
0.0
 40
0.0
 40
0.0
 40
1.0
 40
1.0
 40
1.0
 40
2.0
 40
2.0
 40
2.0
 40
3.0
 40
3.0
 40
3.0
 40
4.0
 40
4.0
 40
4.0
 40
5.0
 40
5.0
 40
5.0
 40
6.0
 40
6.0
 40
6.0
 40
7.0
 40
7.0
 40
7.0
 40
8.0
 40
8.0
 40
8.0
 40
9.0
 40
9.0
 40
9.0
 40
10.0
 40
10.0
 40
10.0
 40
11.0
 40
11.0
 40
11.0
 40
12.0
 40
12.0
 40
12.0
 40
13.0
 40
13.0
 40
13.0
 40
14.0
 40
14.0
 40
14.0
 40
15.0
 40
15.0
 40
15.0
 40
16.0
 40
16.0
 40
16.0
 40
17.0
 40
17.0
 40
17.0
 40
18.0
 40
18.0
 40
18.0
 40
19.0
 40
19.0
 40
19.0
 40
20.0
 40
20.0
 40
20.0
 40
21.0
 40
21.0
 40
21.0
 40
22.0
 40
22.0
 40
22.0
 40
23.0
 40
23.0
 40
23.0
 40
24.0
 40
24.0
 40
24.0
 40
25.0
 40
25.0
 40
25.0
 40
26.0
 40
26.0
 40
26.0
 40
27.0
 40
27.0
 40
27.0
 40
28.0
 40
28.0
 40
28.0
 40
29.0
 40
29.0
 40
29.0
 40
29.0
 10
2900.027686077274
 20
-1313.207291158869
 30
0.0
 10
2878.531017168187
 20
-1311.896033598361
 30
0.0
 10
2857.590165770891
 20
-1318.397761102282
 30
0.0
 10
2836.534780344004
 20
-1324.422591838651
 30
0.0
 10
2820.347029053284
 20
-1329.054626298886
 30
0.0
 10
2804.165662950405
 20
-1334.036900958388
 30
0.0
 10
2786.948929098877
 20
-1332.247379960521
 30
0.0
 10
2776.918633200125
 20
-1331.204806134698
 30
0.0
 10
2766.894797922285
 20
-1330.081616539093
 30
0.0
 10
2758.050918956078
 20
-1324.586467973037
 30
0.0
 10
2756.468186637152
 20
-1323.603051426093
 30
0.0
 10
2754.176620816072
 20
-1322.809566484702
 30
0.0
 10
2754.331269710625
 20
-1320.628467963081
 30
0.0
 10
2754.466729762358
 20
-1318.717987812626
 30
0.0
 10
2756.769724803441
 20
-1318.438530460094
 30
0.0
 10
2758.234489778605
 20
-1317.573233232371
 30
0.0
 10
2764.856063797275
 20
-1313.6615402553
 30
0.0
 10
2771.883466644109
 20
-1313.835409053354
 30
0.0
 10
2779.065946579127
 20
-1315.414871126664
 30
0.0
 10
2791.190144803337
 20
-1318.08099543886
 30
0.0
 10
2803.314436209579
 20
-1320.486387549808
 30
0.0
 10
2815.864494070999
 20
-1318.670385105768
 30
0.0
 10
2820.269182121038
 20
-1318.03305550179
 30
0.0
 10
2822.900332110391
 20
-1315.834882482031
 30
0.0
 10
2824.046382364623
 20
-1311.644371114937
 30
0.0
 10
2825.02504219067
 20
-1308.065985830668
 30
0.0
 10
2824.83075321579
 20
-1305.241221326862
 30
0.0
 10
2820.450487732729
 20
-1303.97648378674
 30
0.0
 10
2816.328123492027
 20
-1302.78620312778
 30
0.0
 10
2815.938187746941
 20
-1300.029452633174
 30
0.0
 10
2818.591630428246
 20
-1296.93618188427
 30
0.0
 10
2823.290560713294
 20
-1291.458374050726
 30
0.0
 10
2826.881592130542
 20
-1285.274619139411
 30
0.0
 10
2830.438421304638
 20
-1279.050751581748
 30
0.0
 10
2832.155837158358
 20
-1276.045551165218
 30
0.0
 10
2834.385905056648
 20
-1273.381059757212
 30
0.0
 10
2838.279795828285
 20
-1274.583533950703
 30
0.0
 10
2842.100463271379
 20
-1275.763431468906
 30
0.0
 10
2840.883248567805
 20
-1279.231205243428
 30
0.0
 10
2840.853279451274
 20
-1282.000007280894
 30
0.0
 10
2840.767995705393
 20
-1289.880047910763
 30
0.0
 10
2838.133659777979
 20
-1297.187027915599
 30
0.0
 10
2835.734595170759
 20
-1304.552969960772
 30
0.0
 10
2834.978454038179
 20
-1306.874604736276
 30
0.0
 10
2833.516525568454
 20
-1309.727377096689
 30
0.0
 10
2836.581255991996
 20
-1311.258544253756
 30
0.0
 10
2839.757059398204
 20
-1312.845212404241
 30
0.0
 10
2841.583569225712
 20
-1310.210077773692
 30
0.0
 10
2843.104557355046
 20
-1307.945079924953
 30
0.0
 10
2847.661291858591
 20
-1301.159333586154
 30
0.0
 10
2850.919787662732
 20
-1293.733098328754
 30
0.0
 10
2853.901790190421
 20
-1286.142489966125
 30
0.0
 10
2856.11933619845
 20
-1280.497806424198
 30
0.0
 10
2855.188412196449
 20
-1275.80949001637
 30
0.0
 10
2850.394178878408
 20
-1272.203185620285
 30
0.0
 10
2846.707169967749
 20
-1269.429768853592
 30
0.0
 10
2846.876397413142
 20
-1266.871451715688
 30
0.0
 10
2849.722238805238
 20
-1263.635408344125
 30
0.0
 10
2853.792580848402
 20
-1259.006959173519
 30
0.0
 10
2858.776302048025
 20
-1255.815252700442
 30
0.0
 10
2864.414613713829
 20
-1253.541841845348
 30
0.0
 10
2868.749361992663
 20
-1251.794039774573
 30
0.0
 10
2871.42064237732
 20
-1254.402382352178
 30
0.0
 10
2873.775423332935
 20
-1257.39262039664
 30
0.0
 10
2879.216126968609
 20
-1264.301526758889
 30
0.0
 10
2879.445487885604
 20
-1276.373693911078
 30
0.0
 10
2874.516752959595
 20
-1284.905440801358
 30
0.0
 10
2872.681377527288
 20
-1288.082486634666
 30
0.0
 10
2870.796864103204
 20
-1291.281842908887
 30
0.0
 10
2869.438696045223
 20
-1294.672852437638
 30
0.0
 10
2866.964579966729
 20
-1300.85012897908
 30
0.0
 10
2868.045589162315
 20
-1302.152476562387
 30
0.0
 10
2874.448055615487
 20
-1300.833835435122
 30
0.0
 10
2883.94359757902
 20
-1298.878201934087
 30
0.0
 10
2893.512469364845
 20
-1297.421314168594
 30
0.0
 10
2903.161779430868
 20
-1296.661676491178
 30
0.0
 10
2911.83684916152
 20
-1295.97871431474
 30
0.0
 10
2920.581051085765
 20
-1295.394560590612
 30
0.0
 10
2929.15028377652
 20
-1297.606063078248
 30
0.0
 10
2935.105662838045
 20
-1299.142980897886
 30
0.0
 10
2935.655951549243
 20
-1300.813637120278
 30
0.0
 10
2931.76820191727
 20
-1305.357264017926
 30
0.0
 10
2927.191597454616
 20
-1310.705930428987
 30
0.0
 10
2921.948661589699
 20
-1314.429803926574
 30
0.0
 10
2914.196022984377
 20
-1313.319890551975
 30
0.0
 10
2909.831092601513
 20
-1312.69498521899
 30
0.0
 10
2905.303386519694
 20
-1313.207291158869
 30
0.0
 10
2900.027686077274
 20
-1313.207291158869
 30
0.0
  0
HATCH
  5
90
330
70
100
AcDbEntity
  8
Layer 1
 62
   246
420
  8590872
440
 33554687
100
AcDbHatch
 10
0.0
 20
0.0
 30
0.0
210
0.0
220
0.0
230
1.0
  2
SOLID
 70
     1
 71
     1
 91
        1
 92
        1
 93
        1
 72
     4
 94
        3
 73
     0
 74
     0
 95
       92
 96
       88
 40
0.0
 40
0.0
 40
0.0
 40
0.0
 40
1.0
 40
1.0
 40
1.0
 40
2.0
 40
2.0
 40
2.0
 40
3.0
 40
3.0
 40
3.0
 40
4.0
 40
4.0
 40
4.0
 40
5.0
 40
5.0
 40
5.0
 40
6.0
 40
6.0
 40
6.0
 40
7.0
 40
7.0
 40
7.0
 40
8.0
 40
8.0
 40
8.0
 40
9.0
 40
9.0
 40
9.0
 40
10.0
 40
10.0
 40
10.0
 40
11.0
 40
11.0
 40
11.0
 40
12.0
 40
12.0
 40
12.0
 40
13.0
 40
13.0
 40
13.0
 40
14.0
 40
14.0
 40
14.0
 40
15.0
 40
15.0
 40
15.0
 40
16.0
 40
16.0
 40
16.0
 40
17.0
 40
17.0
 40
17.0
 40
18.0
 40
18.0
 40
18.0
 40
19.0
 40
19.0
 40
19.0
 40
20.0
 40
20.0
 40
20.0
 40
21.0
 40
21.0
 40
21.0
 40
22.0
 40
22.0
 40
22.0
 40
23.0
 40
23.0
 40
23.0
 40
24.0
 40
24.0
 40
24.0
 40
25.0
 40
25.0
 40
25.0
 40
26.0
 40
26.0
 40
26.0
 40
27.0
 40
27.0
 40
27.0
 40
28.0
 40
28.0
 40
28.0
 40
29.0
 40
29.0
 40
29.0
 40
29.0
 10
2900.027686077274
 20
-1313.207291158869
 10
2878.531017168187
 20
-1311.896033598361
 10
2857.590165770891
 20
-1318.397761102282
 10
2836.534780344004
 20
-1324.422591838651
 10
2820.347029053284
 20
-1329.054626298886
 10
2804.165662950405
 20
-1334.036900958388
 10
2786.948929098877
 20
-1332.247379960521
 10
2776.918633200125
 20
-1331.204806134698
 10
2766.894797922285
 20
-1330.081616539093
 10
2758.050918956078
 20
-1324.586467973037
 10
2756.468186637152
 20
-1323.603051426093
 10
2754.176620816072
 20
-1322.809566484702
 10
2754.331269710625
 20
-1320.628467963081
 10
2754.466729762358
 20
-1318.717987812626
 10
2756.769724803441
 20
-1318.438530460094
 10
2758.234489778605
 20
-1317.573233232371
 10
2764.856063797275
 20
-1313.6615402553
 10
2771.883466644109
 20
-1313.835409053354
 10
2779.065946579127
 20
-1315.414871126664
 10
2791.190144803337
 20
-1318.08099543886
 10
2803.314436209579
 20
-1320.486387549808
 10
2815.864494070999
 20
-1318.670385105768
 10
2820.269182121038
 20
-1318.03305550179
 10
2822.900332110391
 20
-1315.834882482031
 10
2824.046382364623
 20
-1311.644371114937
 10
2825.02504219067
 20
-1308.065985830668
 10
2824.83075321579
 20
-1305.241221326862
 10
2820.450487732729
 20
-1303.97648378674
 10
2816.328123492027
 20
-1302.78620312778
 10
2815.938187746941
 20
-1300.029452633174
 10
2818.591630428246
 20
-1296.93618188427
 10
2823.290560713294
 20
-1291.458374050726
 10
2826.881592130542
 20
-1285.274619139411
 10
2830.438421304638
 20
-1279.050751581748
 10
2832.155837158358
 20
-1276.045551165218
 10
2834.385905056648
 20
-1273.381059757212
 10
2838.279795828285
 20
-1274.583533950703
 10
2842.100463271379
 20
-1275.763431468906
 10
2840.883248567805
 20
-1279.231205243428
 10
2840.853279451274
 20
-1282.000007280894
 10
2840.767995705393
 20
-1289.880047910763
 10
2838.133659777979
 20
-1297.187027915599
 10
2835.734595170759
 20
-1304.552969960772
 10
2834.978454038179
 20
-1306.874604736276
 10
2833.516525568454
 20
-1309.727377096689
 10
2836.581255991996
 20
-1311.258544253756
 10
2839.757059398204
 20
-1312.845212404241
 10
2841.583569225712
 20
-1310.210077773692
 10
2843.104557355046
 20
-1307.945079924953
 10
2847.661291858591
 20
-1301.159333586154
 10
2850.919787662732
 20
-1293.733098328754
 10
2853.901790190421
 20
-1286.142489966125
 10
2856.11933619845
 20
-1280.497806424198
 10
2855.188412196449
 20
-1275.80949001637
 10
2850.394178878408
 20
-1272.203185620285
 10
2846.707169967749
 20
-1269.429768853592
 10
2846.876397413142
 20
-1266.871451715688
 10
2849.722238805238
 20
-1263.635408344125
 10
2853.792580848402
 20
-1259.006959173519
 10
2858.776302048025
 20
-1255.815252700442
 10
2864.414613713829
 20
-1253.541841845348
 10
2868.749361992663
 20
-1251.794039774573
 10
2871.42064237732
 20
-1254.402382352178
 10
2873.775423332935
 20
-1257.39262039664
 10
2879.216126968609
 20
-1264.301526758889
 10
2879.445487885604
 20
-1276.373693911078
 10
2874.516752959595
 20
-1284.905440801358
 10
2872.681377527288
 20
-1288.082486634666
 10
2870.796864103204
 20
-1291.281842908887
 10
2869.438696045223
 20
-1294.672852437638
 10
2866.964579966729
 20
-1300.85012897908
 10
2868.045589162315
 20
-1302.152476562387
 10
2874.448055615487
 20
-1300.833835435122
 10
2883.94359757902
 20
-1298.878201934087
 10
2893.512469364845
 20
-1297.421314168594
 10
2903.161779430868
 20
-1296.661676491178
 10
2911.83684916152
 20
-1295.97871431474
 10
2920.581051085765
 20
-1295.394560590612
 10
2929.15028377652
 20
-1297.606063078248
 10
2935.105662838045
 20
-1299.142980897886
 10
2935.655951549243
 20
-1300.813637120278
 10
2931.76820191727
 20
-1305.357264017926
 10
2927.191597454616
 20
-1310.705930428987
 10
2921.948661589699
 20
-1314.429803926574
 10
2914.196022984377
 20
-1313.319890551975
 10
2909.831092601513
 20
-1312.69498521899
 10
2905.303386519694
 20
-1313.207291158869
 10
2900.027686077274
 20
-1313.207291158869
 97
        0
 97
        1
330
8F
 75
     2
 76
     1
 98
        1
 10
0.0
 20
0.0
450
        0
451
        0
460
0.0
461
0.0
452
        0
462
0.0
453
        0
470

  0
ENDSEC
  0
SECTION
  2
OBJECTS
  0
DICTIONARY
  5
C
330
0
100
AcDbDictionary
281
     1
  3
ACAD_COLOR
350
63
  3
ACAD_DETAILVIEWSTYLE
350
6A
  3
ACAD_GROUP
350
D
  3
ACAD_LAYOUT
350
62
  3
ACAD_MATERIAL
350
10
  3
ACAD_MLEADERSTYLE
350
66
  3
ACAD_MLINESTYLE
350
5F
  3
ACAD_PLOTSETTINGS
350
61
  3
ACAD_PLOTSTYLENAME
350
E
  3
ACAD_SCALELIST
350
42
  3
ACAD_SECTIONVIEWSTYLE
350
68
  3
ACAD_TABLESTYLE
350
64
  3
ACAD_VISUALSTYLE
350
29
  3
ACDB_RECOMPOSE_DATA
350
99
  3
AcDbVariableDictionary
350
91
  0
DICTIONARY
  5
63
102
{ACAD_REACTORS
330
C
102
}
330
C
100
AcDbDictionary
281
     1
  0
DICTIONARY
  5
6A
102
{ACAD_REACTORS
330
C
102
}
330
C
100
AcDbDictionary
281
     1
  3
Imperial24
350
6B
  0
DICTIONARY
  5
D
102
{ACAD_REACTORS
330
C
102
}
330
C
100
AcDbDictionary
281
     1
  0
DICTIONARY
  5
62
102
{ACAD_REACTORS
330
C
102
}
330
C
100
AcDbDictionary
281
     1
  3
Layout1
350
6F
  3
Layout2
350
77
  3
Model
350
73
  0
DICTIONARY
  5
10
102
{ACAD_REACTORS
330
C
102
}
330
C
100
AcDbDictionary
281
     1
  3
ByBlock
350
19
  3
ByLayer
350
11
  3
Global
350
21
  0
DICTIONARY
  5
66
102
{ACAD_REACTORS
330
C
102
}
330
C
100
AcDbDictionary
281
     1
  3
Standard
350
67
  0
DICTIONARY
  5
5F
102
{ACAD_REACTORS
330
C
102
}
330
C
100
AcDbDictionary
281
     1
  3
Standard
350
60
  0
DICTIONARY
  5
61
102
{ACAD_REACTORS
330
C
102
}
330
C
100
AcDbDictionary
281
     1
  0
ACDBDICTIONARYWDFLT
  5
E
102
{ACAD_REACTORS
330
C
102
}
330
C
100
AcDbDictionary
281
     1
  3
Normal
350
F
100
AcDbDictionaryWithDefault
340
F
  0
DICTIONARY
  5
42
102
{ACAD_REACTORS
330
C
102
}
330
C
100
AcDbDictionary
281
     1
  3
A0
350
43
  3
A1
350
44
  3
A2
350
45
  3
A3
350
46
  3
A4
350
47
  3
A5
350
48
  3
A6
350
49
  3
A7
350
4A
  3
A8
350
4B
  3
A9
350
4C
  3
B0
350
4D
  3
B1
350
4E
  3
B2
350
4F
  3
B3
350
50
  3
B4
350
51
  3
B5
350
52
  3
B6
350
53
  0
DICTIONARY
  5
68
102
{ACAD_REACTORS
330
C
102
}
330
C
100
AcDbDictionary
281
     1
  3
Imperial24
350
69
  0
DICTIONARY
  5
64
102
{ACAD_REACTORS
330
C
102
}
330
C
100
AcDbDictionary
281
     1
  3
Standard
350
65
  0
DICTIONARY
  5
29
102
{ACAD_REACTORS
330
C
102
}
330
C
100
AcDbDictionary
281
     1
  3
2dWireframe
350
2F
  3
Basic
350
2E
  3
Brighten
350
35
  3
ColorChange
350
39
  3
Conceptual
350
32
  3
Dim
350
34
  3
EdgeColorOff
350
41
  3
Facepattern
350
38
  3
Flat
350
2A
  3
FlatWithEdges
350
2B
  3
Gouraud
350
2C
  3
GouraudWithEdges
350
2D
  3
Hidden
350
31
  3
JitterOff
350
3F
  3
Linepattern
350
37
  3
OverhangOff
350
40
  3
Realistic
350
33
  3
Shaded
350
3E
  3
Shaded with edges
350
3D
  3
Shades of Gray
350
3A
  3
Sketchy
350
3B
  3
Thicken
350
36
  3
Wireframe
350
30
  3
X-Ray
350
3C
  0
XRECORD
  5
99
102
{ACAD_REACTORS
330
C
102
}
330
C
100
AcDbXrecord
280
     1
 90
        1
330
65
  0
DICTIONARY
  5
91
102
{ACAD_REACTORS
330
C
102
}
330
C
100
AcDbDictionary
281
     1
  3
CANNOSCALE
350
96
  3
CMLEADERSTYLE
350
93
  3
CTABLESTYLE
350
92
  3
CVIEWDETAILSTYLE
350
94
  3
CVIEWSECTIONSTYLE
350
95
  0
ACDBDETAILVIEWSTYLE
  5
6B
102
{ACAD_REACTORS
330
6A
102
}
330
6A
100
AcDbModelDocViewStyle
 70
     0
  3
Imperial24
290
     1
300
Imperial24
 90
        0
100
AcDbDetailViewStyle
 70
     0
 71
     0
 90
        3
 71
     1
340
55
 62
   256
 40
0.24
340
0
 62
   256
 40
0.24
300

 40
0.36
280
     3
 71
     2
340
5D
 90
       25
 62
   256
 71
     3
340
55
 62
   256
 40
0.24
 90
        1
 40
0.75
 90
        1
300
%<\AcVar ViewType \f "%tc1">% %<\AcVar ViewDetailId>%\PSCALE %<\AcVar ViewScale \f "%sn">%
 71
     4
340
5D
 90
       25
 62
   256
340
5D
 90
       25
 62
   256
280
     0
  0
LAYOUT
  5
6F
102
{ACAD_REACTORS
330
62
102
}
330
62
100
AcDbPlotSettings
  1

  2

  4

  6

 40
0.0
 41
0.0
 42
0.0
 43
0.0
 44
0.0
 45
0.0
 46
0.0
 47
0.0
 48
0.0
 49
0.0
140
0.0
141
0.0
142
1.0
143
1.0
 70
   688
 72
     0
 73
     0
 74
     5
  7

 75
    16
147
1.0
 76
     0
 77
     2
 78
   300
148
0.0
149
0.0
100
AcDbLayout
  1
Layout1
 70
     1
 71
     1
 10
0.0
 20
0.0
 11
12.0
 21
9.0
 12
0.0
 22
0.0
 32
0.0
 14
0.0
 24
0.0
 34
0.0
 15
0.0
 25
0.0
 35
0.0
146
0.0
 13
0.0
 23
0.0
 33
0.0
 16
1.0
 26
0.0
 36
0.0
 17
0.0
 27
1.0
 37
0.0
 76
     0
330
6C
  0
LAYOUT
  5
77
102
{ACAD_REACTORS
330
62
102
}
330
62
100
AcDbPlotSettings
  1

  2

  4

  6

 40
0.0
 41
0.0
 42
0.0
 43
0.0
 44
0.0
 45
0.0
 46
0.0
 47
0.0
 48
0.0
 49
0.0
140
0.0
141
0.0
142
1.0
143
1.0
 70
   688
 72
     0
 73
     0
 74
     5
  7

 75
    16
147
1.0
 76
     0
 77
     2
 78
   300
148
0.0
149
0.0
100
AcDbLayout
  1
Layout2
 70
     1
 71
     2
 10
0.0
 20
0.0
 11
12.0
 21
9.0
 12
0.0
 22
0.0
 32
0.0
 14
0.0
 24
0.0
 34
0.0
 15
0.0
 25
0.0
 35
0.0
146
0.0
 13
0.0
 23
0.0
 33
0.0
 16
1.0
 26
0.0
 36
0.0
 17
0.0
 27
1.0
 37
0.0
 76
     0
330
74
  0
LAYOUT
  5
73
102
{ACAD_REACTORS
330
62
102
}
330
62
100
AcDbPlotSettings
  1

  2

  4

  6

 40
0.0
 41
0.0
 42
0.0
 43
0.0
 44
0.0
 45
0.0
 46
0.0
 47
0.0
 48
0.0
 49
0.0
140
0.0
141
0.0
142
1.0
143
1.0
 70
  1712
 72
     0
 73
     0
 74
     0
  7

 75
     0
147
1.0
 76
     0
 77
     2
 78
   300
148
0.0
149
0.0
100
AcDbLayout
  1
Model
 70
     1
 71
     0
 10
0.0
 20
0.0
 11
12.0
 21
9.0
 12
0.0
 22
0.0
 32
0.0
 14
0.0
 24
0.0
 34
0.0
 15
0.0
 25
0.0
 35
0.0
146
0.0
 13
0.0
 23
0.0
 33
0.0
 16
1.0
 26
0.0
 36
0.0
 17
0.0
 27
1.0
 37
0.0
 76
     0
330
70
  0
MATERIAL
  5
19
102
{ACAD_XDICTIONARY
360
1A
102
}
102
{ACAD_REACTORS
330
10
102
}
330
10
100
AcDbMaterial
  1
ByBlock
 72
     0
 43
0.0208333333333333
 43
0.0
 43
0.0
 43
0.0
 43
0.0
 43
0.0208333333333333
 43
0.0
 43
0.0
 43
0.0
 43
0.0
 43
1.0
 43
0.0
 43
0.0
 43
0.0
 43
0.0
 43
1.0
 77
     0
 47
0.0208333333333333
 47
0.0
 47
0.0
 47
0.0
 47
0.0
 47
0.0208333333333333
 47
0.0
 47
0.0
 47
0.0
 47
0.0
 47
1.0
 47
0.0
 47
0.0
 47
0.0
 47
0.0
 47
1.0
171
     0
 49
0.0208333333333333
 49
0.0
 49
0.0
 49
0.0
 49
0.0
 49
0.0208333333333333
 49
0.0
 49
0.0
 49
0.0
 49
0.0
 49
1.0
 49
0.0
 49
0.0
 49
0.0
 49
0.0
 49
1.0
175
     0
142
0.0208333333333333
142
0.0
142
0.0
142
0.0
142
0.0
142
0.0208333333333333
142
0.0
142
0.0
142
0.0
142
0.0
142
1.0
142
0.0
142
0.0
142
0.0
142
0.0
142
1.0
179
     0
144
0.0208333333333333
144
0.0
144
0.0
144
0.0
144
0.0
144
0.0208333333333333
144
0.0
144
0.0
144
0.0
144
0.0
144
1.0
144
0.0
144
0.0
144
0.0
144
0.0
144
1.0
147
0.0208333333333333
147
0.0
147
0.0
147
0.0
147
0.0
147
0.0208333333333333
147
0.0
147
0.0
147
0.0
147
0.0
147
1.0
147
0.0
147
0.0
147
0.0
147
0.0
147
1.0
  0
MATERIAL
  5
11
102
{ACAD_XDICTIONARY
360
12
102
}
102
{ACAD_REACTORS
330
10
102
}
330
10
100
AcDbMaterial
  1
ByLayer
 72
     0
 43
0.0208333333333333
 43
0.0
 43
0.0
 43
0.0
 43
0.0
 43
0.0208333333333333
 43
0.0
 43
0.0
 43
0.0
 43
0.0
 43
1.0
 43
0.0
 43
0.0
 43
0.0
 43
0.0
 43
1.0
 77
     0
 47
0.0208333333333333
 47
0.0
 47
0.0
 47
0.0
 47
0.0
 47
0.0208333333333333
 47
0.0
 47
0.0
 47
0.0
 47
0.0
 47
1.0
 47
0.0
 47
0.0
 47
0.0
 47
0.0
 47
1.0
171
     0
 49
0.0208333333333333
 49
0.0
 49
0.0
 49
0.0
 49
0.0
 49
0.0208333333333333
 49
0.0
 49
0.0
 49
0.0
 49
0.0
 49
1.0
 49
0.0
 49
0.0
 49
0.0
 49
0.0
 49
1.0
175
     0
142
0.0208333333333333
142
0.0
142
0.0
142
0.0
142
0.0
142
0.0208333333333333
142
0.0
142
0.0
142
0.0
142
0.0
142
1.0
142
0.0
142
0.0
142
0.0
142
0.0
142
1.0
179
     0
144
0.0208333333333333
144
0.0
144
0.0
144
0.0
144
0.0
144
0.0208333333333333
144
0.0
144
0.0
144
0.0
144
0.0
144
1.0
144
0.0
144
0.0
144
0.0
144
0.0
144
1.0
147
0.0208333333333333
147
0.0
147
0.0
147
0.0
147
0.0
147
0.0208333333333333
147
0.0
147
0.0
147
0.0
147
0.0
147
1.0
147
0.0
147
0.0
147
0.0
147
0.0
147
1.0
  0
MATERIAL
  5
21
102
{ACAD_XDICTIONARY
360
22
102
}
102
{ACAD_REACTORS
330
10
102
}
330
10
100
AcDbMaterial
  1
Global
 72
     0
 43
0.0208333333333333
 43
0.0
 43
0.0
 43
0.0
 43
0.0
 43
0.0208333333333333
 43
0.0
 43
0.0
 43
0.0
 43
0.0
 43
1.0
 43
0.0
 43
0.0
 43
0.0
 43
0.0
 43
1.0
 77
     0
 47
0.0208333333333333
 47
0.0
 47
0.0
 47
0.0
 47
0.0
 47
0.0208333333333333
 47
0.0
 47
0.0
 47
0.0
 47
0.0
 47
1.0
 47
0.0
 47
0.0
 47
0.0
 47
0.0
 47
1.0
171
     0
 49
0.0208333333333333
 49
0.0
 49
0.0
 49
0.0
 49
0.0
 49
0.0208333333333333
 49
0.0
 49
0.0
 49
0.0
 49
0.0
 49
1.0
 49
0.0
 49
0.0
 49
0.0
 49
0.0
 49
1.0
175
     0
142
0.0208333333333333
142
0.0
142
0.0
142
0.0
142
0.0
142
0.0208333333333333
142
0.0
142
0.0
142
0.0
142
0.0
142
1.0
142
0.0
142
0.0
142
0.0
142
0.0
142
1.0
179
     0
144
0.0208333333333333
144
0.0
144
0.0
144
0.0
144
0.0
144
0.0208333333333333
144
0.0
144
0.0
144
0.0
144
0.0
144
1.0
144
0.0
144
0.0
144
0.0
144
0.0
144
1.0
147
0.0208333333333333
147
0.0
147
0.0
147
0.0
147
0.0
147
0.0208333333333333
147
0.0
147
0.0
147
0.0
147
0.0
147
1.0
147
0.0
147
0.0
147
0.0
147
0.0
147
1.0
  0
MLEADERSTYLE
  5
67
102
{ACAD_REACTORS
330
66
102
}
330
66
100
AcDbMLeaderStyle
179
     2
170
     2
171
     1
172
     0
 90
        2
 40
0.0
 41
0.0
173
     1
 91
-1056964608
340
5B
 92
       -2
290
     1
 42
0.09
291
     1
 43
0.36
  3
Standard
 44
0.18
300

342
55
174
     1
178
     6
175
     1
176
     0
 93
-1056964608
 45
0.18
292
     0
297
     0
 46
0.18
 94
-1056964608
 47
1.0
 49
1.0
140
1.0
293
     1
141
0.0
294
     1
177
     0
142
1.0
295
     1
296
     0
143
0.125
271
     0
272
     9
273
     9
298
     1
  0
MLINESTYLE
  5
60
102
{ACAD_REACTORS
330
5F
102
}
330
5F
100
AcDbMlineStyle
  2
STANDARD
 70
     0
  3

 62
   256
 51
90.0
 52
90.0
 71
     2
 49
0.5
 62
   256
  6
BYLAYER
 49
-0.5
 62
   256
  6
BYLAYER
  0
ACDBPLACEHOLDER
  5
F
102
{ACAD_REACTORS
330
E
102
}
330
E
  0
SCALE
  5
43
102
{ACAD_REACTORS
330
42
102
}
330
42
100
AcDbScale
 70
     0
300
1:1
140
1.0
141
1.0
290
     1
  0
SCALE
  5
44
102
{ACAD_REACTORS
330
42
102
}
330
42
100
AcDbScale
 70
     0
300
1/128" = 1'-0"
140
0.0078125
141
12.0
290
     0
  0
SCALE
  5
45
102
{ACAD_REACTORS
330
42
102
}
330
42
100
AcDbScale
 70
     0
300
1/64" = 1'-0"
140
0.015625
141
12.0
290
     0
  0
SCALE
  5
46
102
{ACAD_REACTORS
330
42
102
}
330
42
100
AcDbScale
 70
     0
300
1/32" = 1'-0"
140
0.03125
141
12.0
290
     0
  0
SCALE
  5
47
102
{ACAD_REACTORS
330
42
102
}
330
42
100
AcDbScale
 70
     0
300
1/16" = 1'-0"
140
0.0625
141
12.0
290
     0
  0
SCALE
  5
48
102
{ACAD_REACTORS
330
42
102
}
330
42
100
AcDbScale
 70
     0
300
3/32" = 1'-0"
140
0.09375
141
12.0
290
     0
  0
SCALE
  5
49
102
{ACAD_REACTORS
330
42
102
}
330
42
100
AcDbScale
 70
     0
300
1/8" = 1'-0"
140
0.125
141
12.0
290
     0
  0
SCALE
  5
4A
102
{ACAD_REACTORS
330
42
102
}
330
42
100
AcDbScale
 70
     0
300
3/16" = 1'-0"
140
0.1875
141
12.0
290
     0
  0
SCALE
  5
4B
102
{ACAD_REACTORS
330
42
102
}
330
42
100
AcDbScale
 70
     0
300
1/4" = 1'-0"
140
0.25
141
12.0
290
     0
  0
SCALE
  5
4C
102
{ACAD_REACTORS
330
42
102
}
330
42
100
AcDbScale
 70
     0
300
3/8" = 1'-0"
140
0.375
141
12.0
290
     0
  0
SCALE
  5
4D
102
{ACAD_REACTORS
330
42
102
}
330
42
100
AcDbScale
 70
     0
300
1/2" = 1'-0"
140
0.5
141
12.0
290
     0
  0
SCALE
  5
4E
102
{ACAD_REACTORS
330
42
102
}
330
42
100
AcDbScale
 70
     0
300
3/4" = 1'-0"
140
0.75
141
12.0
290
     0
  0
SCALE
  5
4F
102
{ACAD_REACTORS
330
42
102
}
330
42
100
AcDbScale
 70
     0
300
1" = 1'-0"
140
1.0
141
12.0
290
     0
  0
SCALE
  5
50
102
{ACAD_REACTORS
330
42
102
}
330
42
100
AcDbScale
 70
     0
300
1-1/2" = 1'-0"
140
1.5
141
12.0
290
     0
  0
SCALE
  5
51
102
{ACAD_REACTORS
330
42
102
}
330
42
100
AcDbScale
 70
     0
300
3" = 1'-0"
140
3.0
141
12.0
290
     0
  0
SCALE
  5
52
102
{ACAD_REACTORS
330
42
102
}
330
42
100
AcDbScale
 70
     0
300
6" = 1'-0"
140
6.0
141
12.0
290
     0
  0
SCALE
  5
53
102
{ACAD_REACTORS
330
42
102
}
330
42
100
AcDbScale
 70
     0
300
1'-0" = 1'-0"
140
12.0
141
12.0
290
     0
  0
ACDBSECTIONVIEWSTYLE
  5
69
102
{ACAD_REACTORS
330
68
102
}
330
68
100
AcDbModelDocViewStyle
 70
     0
  3
Imperial24
290
     1
300
Imperial24
 90
        0
100
AcDbSectionViewStyle
 70
     0
 71
     0
 90
       78
 71
     1
340
55
 62
   256
 40
0.24
340
0
340
0
 62
   256
 40
0.24
300
I, O, Q, S, X, Z
 40
0.48
 90
        3
 40
0.18
 90
        1
 71
     2
340
5D
 90
       25
 62
   256
340
5D
 90
       50
 62
   256
 40
0.24
 40
0.0
 40
0.24
 71
     3
340
55
 62
   256
 40
0.24
 90
        1
 40
0.75
 90
        1
300
%<\AcVar ViewType \f "%tc1">% %<\AcVar ViewSectionStartId>%-%<\AcVar ViewSectionEndId>%\PSCALE %<\AcVar ViewScale \f "%sn">%
 71
     4
 62
   256
 62
   257
300
ANSI31
 40
1.0
 90
        0
290
     0
290
     0
 90
        6
 40
0.0
 40
1.570796326794896
 40
0.2617993877991494
 40
1.308996938995747
 40
-0.2617993877991494
 40
1.832595714594046
  0
TABLESTYLE
  5
65
102
{ACAD_XDICTIONARY
360
97
102
}
102
{ACAD_REACTORS
330
64
102
}
330
64
100
AcDbTableStyle
280
     0
  3
Standard
 70
     0
 71
     0
 40
0.06
 41
0.06
280
     0
281
     0
  7
Standard
140
0.18
170
     2
 62
     0
 63
     7
283
     0
 90
      512
 91
        0
  1

274
    -2
284
     1
 64
     0
275
    -2
285
     1
 65
     0
276
    -2
286
     1
 66
     0
277
    -2
287
     1
 67
     0
278
    -2
288
     1
 68
     0
279
    -2
289
     1
 69
     0
  7
Standard
140
0.25
170
     5
 62
     0
 63
     7
283
     0
 90
      512
 91
        0
  1

274
    -2
284
     1
 64
     0
275
    -2
285
     1
 65
     0
276
    -2
286
     1
 66
     0
277
    -2
287
     1
 67
     0
278
    -2
288
     1
 68
     0
279
    -2
289
     1
 69
     0
  7
Standard
140
0.18
170
     5
 62
     0
 63
     7
283
     0
 90
      512
 91
        0
  1

274
    -2
284
     1
 64
     0
275
    -2
285
     1
 65
     0
276
    -2
286
     1
 66
     0
277
    -2
287
     1
 67
     0
278
    -2
288
     1
 68
     0
279
    -2
289
     1
 69
     0
  0
VISUALSTYLE
  5
2F
102
{ACAD_REACTORS
330
29
102
}
330
29
100
AcDbVisualStyle
  2
2dWireframe
 70
     4
177
     3
291
     0
 70
    58
 90
        0
176
     1
 90
        2
176
     1
 90
        0
176
     1
 90
        0
176
     1
 40
0.6
176
     1
 40
30.0
176
     1
 62
     7
420
 16777215
176
     1
 90
        1
176
     1
 90
        4
176
     1
 62
     7
176
     1
 62
   257
176
     1
 90
        1
176
     1
 90
        1
176
     1
 40
1.0
176
     1
 90
        0
176
     1
 62
   257
176
     1
 40
1.0
176
     1
 90
        1
176
     1
 90
        6
176
     1
 90
        2
176
     1
 62
     7
176
     1
 90
        5
176
     1
 90
        0
176
     1
 90
        0
176
     1
290
     0
176
     1
 90
        1
176
     1
 40
0.0
176
     1
 90
        0
176
     1
290
     1
176
     1
290
     1
176
     1
290
     0
176
     1
290
     0
176
     1
290
     0
176
     1
290
     0
176
     1
290
     0
176
     1
290
     0
176
     1
290
     0
176
     1
 90
       50
176
     1
 40
0.0
176
     1
 40
1.0
176
     1
 90
        0
176
     1
 62
    18
420
        0
176
     1
 90
       50
176
     1
 90
        3
176
     1
 62
     5
420
      255
176
     1
290
     0
176
     1
 90
       50
176
     1
 90
       50
176
     1
 90
       50
176
     1
290
     0
176
     1
 90
       50
176
     1
 62
   256
176
     0
 40
1.0
176
     0
 90
        2
176
     1
  1
strokes_ogs.tif
176
     1
290
     0
176
     1
 40
1.0
176
     1
 40
1.0
176
     1
  0
VISUALSTYLE
  5
2E
102
{ACAD_REACTORS
330
29
102
}
330
29
100
AcDbVisualStyle
  2
Basic
 70
     7
177
     3
291
     1
 70
    58
 90
        1
176
     1
 90
        0
176
     1
 90
        1
176
     1
 90
        0
176
     1
 40
0.6
176
     1
 40
30.0
176
     1
 62
     7
420
 16777215
176
     1
 90
        0
176
     1
 90
        4
176
     1
 62
     7
176
     1
 62
   257
176
     1
 90
        1
176
     1
 90
        1
176
     1
 40
1.0
176
     1
 90
        8
176
     1
 62
     7
176
     1
 40
1.0
176
     1
 90
        1
176
     1
 90
        6
176
     1
 90
        2
176
     1
 62
     7
176
     1
 90
        5
176
     1
 90
        0
176
     1
 90
        0
176
     1
290
     0
176
     1
 90
        1
176
     1
 40
0.0
176
     1
 90
        0
176
     1
290
     0
176
     1
290
     1
176
     1
290
     1
176
     1
290
     0
176
     1
290
     0
176
     1
290
     0
176
     1
290
     0
176
     1
290
     0
176
     1
290
     0
176
     1
 90
       50
176
     1
 40
0.0
176
     1
 40
1.0
176
     1
 90
        0
176
     1
 62
    18
420
        0
176
     1
 90
       50
176
     1
 90
        3
176
     1
 62
     5
420
      255
176
     1
290
     0
176
     1
 90
       50
176
     1
 90
       50
176
     1
 90
       50
176
     1
290
     0
176
     1
 90
       50
176
     1
 62
   256
176
     0
 40
1.0
176
     0
 90
        2
176
     1
  1
strokes_ogs.tif
176
     1
290
     0
176
     1
 40
1.0
176
     1
 40
1.0
176
     1
  0
VISUALSTYLE
  5
35
102
{ACAD_REACTORS
330
29
102
}
330
29
100
AcDbVisualStyle
  2
Brighten
 70
    12
177
     3
291
     1
 70
    58
 90
        2
176
     1
 90
        2
176
     1
 90
        0
176
     1
 90
        0
176
     1
 40
0.6
176
     1
 40
30.0
176
     1
 62
     7
420
 16777215
176
     1
 90
        1
176
     1
 90
        4
176
     1
 62
     7
176
     1
 62
   257
176
     1
 90
        1
176
     1
 90
        1
176
     1
 40
1.0
176
     1
 90
        8
176
     1
 62
     7
176
     1
 40
1.0
176
     1
 90
        1
176
     1
 90
        6
176
     1
 90
        2
176
     1
 62
     7
176
     1
 90
        5
176
     1
 90
        0
176
     1
 90
        0
176
     1
290
     0
176
     1
 90
        1
176
     1
 40
50.0
176
     1
 90
        0
176
     1
290
     0
176
     1
290
     1
176
     1
290
     1
176
     1
290
     0
176
     1
290
     0
176
     1
290
     0
176
     1
290
     0
176
     1
290
     0
176
     1
290
     0
176
     1
 90
       50
176
     1
 40
0.0
176
     1
 40
1.0
176
     1
 90
        0
176
     1
 62
    18
420
        0
176
     1
 90
       50
176
     1
 90
        3
176
     1
 62
     5
420
      255
176
     1
290
     0
176
     1
 90
       50
176
     1
 90
       50
176
     1
 90
       50
176
     1
290
     0
176
     1
 90
       50
176
     1
 62
   256
176
     0
 40
1.0
176
     0
 90
        2
176
     1
  1
strokes_ogs.tif
176
     1
290
     0
176
     1
 40
1.0
176
     1
 40
1.0
176
     1
  0
VISUALSTYLE
  5
39
102
{ACAD_REACTORS
330
29
102
}
330
29
100
AcDbVisualStyle
  2
ColorChange
 70
    16
177
     3
291
     1
 70
    58
 90
        2
176
     1
 90
        2
176
     1
 90
        3
176
     1
 90
        0
176
     1
 40
0.6
176
     1
 40
30.0
176
     1
 62
     8
420
  8421504
176
     1
 90
        1
176
     1
 90
        4
176
     1
 62
     7
176
     1
 62
   257
176
     1
 90
        1
176
     1
 90
        1
176
     1
 40
1.0
176
     1
 90
        8
176
     1
 62
     8
420
  8421504
176
     1
 40
1.0
176
     1
 90
        1
176
     1
 90
        6
176
     1
 90
        2
176
     1
 62
     7
176
     1
 90
        5
176
     1
 90
        0
176
     1
 90
        0
176
     1
290
     0
176
     1
 90
        1
176
     1
 40
0.0
176
     1
 90
        0
176
     1
290
     0
176
     1
290
     1
176
     1
290
     1
176
     1
290
     0
176
     1
290
     0
176
     1
290
     0
176
     1
290
     0
176
     1
290
     0
176
     1
290
     0
176
     1
 90
       50
176
     1
 40
0.0
176
     1
 40
1.0
176
     1
 90
        0
176
     1
 62
    18
420
        0
176
     1
 90
       50
176
     1
 90
        3
176
     1
 62
     5
420
      255
176
     1
290
     0
176
     1
 90
       50
176
     1
 90
       50
176
     1
 90
       50
176
     1
290
     0
176
     1
 90
       50
176
     1
 62
   256
176
     0
 40
1.0
176
     0
 90
        2
176
     1
  1
strokes_ogs.tif
176
     1
290
     0
176
     1
 40
1.0
176
     1
 40
1.0
176
     1
  0
VISUALSTYLE
  5
32
102
{ACAD_REACTORS
330
29
102
}
330
29
100
AcDbVisualStyle
  2
Conceptual
 70
     9
177
     3
291
     0
 70
    58
 90
        3
176
     1
 90
        2
176
     1
 90
        0
176
     1
 90
        0
176
     1
 40
0.6
176
     1
 40
30.0
176
     1
 62
     7
420
 16777215
176
     1
 90
        2
176
     1
 90
        2
176
     1
 62
     7
176
     1
 62
   257
176
     1
 90
        1
176
     1
 90
        1
176
     1
 40
179.0
176
     1
 90
        8
176
     1
 62
     7
176
     1
 40
1.0
176
     1
 90
        1
176
     1
 90
        6
176
     1
 90
        2
176
     1
 62
     7
176
     1
 90
        3
176
     1
 90
        0
176
     1
 90
        0
176
     1
290
     0
176
     1
 90
        1
176
     1
 40
0.0
176
     1
 90
        0
176
     1
290
     0
176
     1
290
     1
176
     1
290
     1
176
     1
290
     0
176
     1
290
     0
176
     1
290
     0
176
     1
290
     0
176
     1
290
     0
176
     1
290
     0
176
     1
 90
       50
176
     1
 40
0.0
176
     1
 40
1.0
176
     1
 90
        0
176
     1
 62
    18
420
        0
176
     1
 90
       50
176
     1
 90
        3
176
     1
 62
     5
420
      255
176
     1
290
     0
176
     1
 90
       50
176
     1
 90
       50
176
     1
 90
       50
176
     1
290
     0
176
     1
 90
       50
176
     1
 62
   256
176
     0
 40
1.0
176
     0
 90
        2
176
     1
  1
strokes_ogs.tif
176
     1
290
     0
176
     1
 40
1.0
176
     1
 40
1.0
176
     1
  0
VISUALSTYLE
  5
34
102
{ACAD_REACTORS
330
29
102
}
330
29
100
AcDbVisualStyle
  2
Dim
 70
    11
177
     3
291
     1
 70
    58
 90
        2
176
     1
 90
        2
176
     1
 90
        0
176
     1
 90
        0
176
     1
 40
0.6
176
     1
 40
30.0
176
     1
 62
     7
420
 16777215
176
     1
 90
        1
176
     1
 90
        4
176
     1
 62
     7
176
     1
 62
   257
176
     1
 90
        1
176
     1
 90
        1
176
     1
 40
1.0
176
     1
 90
        8
176
     1
 62
     7
176
     1
 40
1.0
176
     1
 90
        1
176
     1
 90
        6
176
     1
 90
        2
176
     1
 62
     7
176
     1
 90
        5
176
     1
 90
        0
176
     1
 90
        0
176
     1
290
     0
176
     1
 90
        1
176
     1
 40
-50.0
176
     1
 90
        0
176
     1
290
     0
176
     1
290
     1
176
     1
290
     1
176
     1
290
     0
176
     1
290
     0
176
     1
290
     0
176
     1
290
     0
176
     1
290
     0
176
     1
290
     0
176
     1
 90
       50
176
     1
 40
0.0
176
     1
 40
1.0
176
     1
 90
        0
176
     1
 62
    18
420
        0
176
     1
 90
       50
176
     1
 90
        3
176
     1
 62
     5
420
      255
176
     1
290
     0
176
     1
 90
       50
176
     1
 90
       50
176
     1
 90
       50
176
     1
290
     0
176
     1
 90
       50
176
     1
 62
   256
176
     0
 40
1.0
176
     0
 90
        2
176
     1
  1
strokes_ogs.tif
176
     1
290
     0
176
     1
 40
1.0
176
     1
 40
1.0
176
     1
  0
VISUALSTYLE
  5
41
102
{ACAD_REACTORS
330
29
102
}
330
29
100
AcDbVisualStyle
  2
EdgeColorOff
 70
    22
177
     3
291
     1
 70
    58
 90
        2
176
     0
 90
        2
176
     0
 90
        0
176
     0
 90
        0
176
     0
 40
0.6
176
     0
 40
30.0
176
     0
 62
     7
420
 16777215
176
     0
 90
        1
176
     0
 90
        4
176
     0
 62
     7
176
     0
 62
   257
176
     0
 90
        1
176
     0
 90
        1
176
     0
 40
1.0
176
     0
 90
        8
176
     2
 62
     7
176
     0
 40
1.0
176
     0
 90
        1
176
     0
 90
        6
176
     0
 90
        2
176
     0
 62
     7
176
     0
 90
        5
176
     0
 90
        0
176
     0
 90
        0
176
     0
290
     0
176
     0
 90
        1
176
     0
 40
0.0
176
     0
 90
        0
176
     0
290
     0
176
     0
290
     1
176
     0
290
     1
176
     0
290
     0
176
     0
290
     0
176
     0
290
     0
176
     0
290
     0
176
     0
290
     0
176
     0
290
     0
176
     0
 90
       50
176
     0
 40
0.0
176
     0
 40
1.0
176
     0
 90
        0
176
     0
 62
    18
420
        0
176
     0
 90
       50
176
     0
 90
        3
176
     0
 62
     5
420
      255
176
     0
290
     0
176
     0
 90
       50
176
     0
 90
       50
176
     0
 90
       50
176
     0
290
     0
176
     0
 90
       50
176
     0
 62
   256
176
     0
 40
1.0
176
     0
 90
        2
176
     0
  1
strokes_ogs.tif
176
     0
290
     0
176
     0
 40
1.0
176
     0
 40
1.0
176
     0
  0
VISUALSTYLE
  5
38
102
{ACAD_REACTORS
330
29
102
}
330
29
100
AcDbVisualStyle
  2
Facepattern
 70
    15
177
     3
291
     1
 70
    58
 90
        2
176
     1
 90
        2
176
     1
 90
        0
176
     1
 90
        0
176
     1
 40
0.6
176
     1
 40
30.0
176
     1
 62
     7
420
 16777215
176
     1
 90
        1
176
     1
 90
        4
176
     1
 62
     7
176
     1
 62
   257
176
     1
 90
        1
176
     1
 90
        1
176
     1
 40
1.0
176
     1
 90
        8
176
     1
 62
     7
176
     1
 40
1.0
176
     1
 90
        1
176
     1
 90
        6
176
     1
 90
        2
176
     1
 62
     7
176
     1
 90
        5
176
     1
 90
        0
176
     1
 90
        0
176
     1
290
     0
176
     1
 90
        1
176
     1
 40
0.0
176
     1
 90
        0
176
     1
290
     0
176
     1
290
     1
176
     1
290
     1
176
     1
290
     0
176
     1
290
     0
176
     1
290
     0
176
     1
290
     0
176
     1
290
     0
176
     1
290
     0
176
     1
 90
       50
176
     1
 40
0.0
176
     1
 40
1.0
176
     1
 90
        0
176
     1
 62
    18
420
        0
176
     1
 90
       50
176
     1
 90
        3
176
     1
 62
     5
420
      255
176
     1
290
     0
176
     1
 90
       50
176
     1
 90
       50
176
     1
 90
       50
176
     1
290
     0
176
     1
 90
       50
176
     1
 62
   256
176
     0
 40
1.0
176
     0
 90
        2
176
     1
  1
strokes_ogs.tif
176
     1
290
     0
176
     1
 40
1.0
176
     1
 40
1.0
176
     1
  0
VISUALSTYLE
  5
2A
102
{ACAD_REACTORS
330
29
102
}
330
29
100
AcDbVisualStyle
  2
Flat
 70
     0
177
     3
291
     1
 70
    58
 90
        2
176
     1
 90
        1
176
     1
 90
        1
176
     1
 90
        2
176
     1
 40
0.6
176
     1
 40
30.0
176
     1
 62
     7
420
 16777215
176
     1
 90
        0
176
     1
 90
        0
176
     1
 62
     7
176
     1
 62
   257
176
     1
 90
        1
176
     1
 90
        1
176
     1
 40
1.0
176
     1
 90
        8
176
     1
 62
     7
176
     1
 40
1.0
176
     1
 90
        1
176
     1
 90
        6
176
     1
 90
        2
176
     1
 62
     7
176
     1
 90
        5
176
     1
 90
        0
176
     1
 90
        0
176
     1
290
     0
176
     1
 90
       13
176
     1
 40
0.0
176
     1
 90
        0
176
     1
290
     0
176
     1
290
     1
176
     1
290
     1
176
     1
290
     0
176
     1
290
     0
176
     1
290
     0
176
     1
290
     0
176
     1
290
     0
176
     1
290
     0
176
     1
 90
       50
176
     1
 40
0.0
176
     1
 40
1.0
176
     1
 90
        0
176
     1
 62
    18
420
        0
176
     1
 90
       50
176
     1
 90
        3
176
     1
 62
     5
420
      255
176
     1
290
     0
176
     1
 90
       50
176
     1
 90
       50
176
     1
 90
       50
176
     1
290
     0
176
     1
 90
       50
176
     1
 62
   256
176
     0
 40
1.0
176
     0
 90
        2
176
     1
  1
strokes_ogs.tif
176
     1
290
     0
176
     1
 40
1.0
176
     1
 40
1.0
176
     1
  0
VISUALSTYLE
  5
2B
102
{ACAD_REACTORS
330
29
102
}
330
29
100
AcDbVisualStyle
  2
FlatWithEdges
 70
     1
177
     3
291
     1
 70
    58
 90
        2
176
     1
 90
        1
176
     1
 90
        1
176
     1
 90
        2
176
     1
 40
0.6
176
     1
 40
30.0
176
     1
 62
     7
420
 16777215
176
     1
 90
        1
176
     1
 90
        0
176
     1
 62
     7
176
     1
 62
   257
176
     1
 90
        1
176
     1
 90
        1
176
     1
 40
1.0
176
     1
 90
        0
176
     1
 62
   257
176
     1
 40
1.0
176
     1
 90
        1
176
     1
 90
        6
176
     1
 90
        2
176
     1
 62
     7
176
     1
 90
        5
176
     1
 90
        0
176
     1
 90
        0
176
     1
290
     0
176
     1
 90
       13
176
     1
 40
0.0
176
     1
 90
        0
176
     1
290
     0
176
     1
290
     1
176
     1
290
     1
176
     1
290
     0
176
     1
290
     0
176
     1
290
     0
176
     1
290
     0
176
     1
290
     0
176
     1
290
     0
176
     1
 90
       50
176
     1
 40
0.0
176
     1
 40
1.0
176
     1
 90
        0
176
     1
 62
    18
420
        0
176
     1
 90
       50
176
     1
 90
        3
176
     1
 62
     5
420
      255
176
     1
290
     0
176
     1
 90
       50
176
     1
 90
       50
176
     1
 90
       50
176
     1
290
     0
176
     1
 90
       50
176
     1
 62
   256
176
     0
 40
1.0
176
     0
 90
        2
176
     1
  1
strokes_ogs.tif
176
     1
290
     0
176
     1
 40
1.0
176
     1
 40
1.0
176
     1
  0
VISUALSTYLE
  5
2C
102
{ACAD_REACTORS
330
29
102
}
330
29
100
AcDbVisualStyle
  2
Gouraud
 70
     2
177
     3
291
     1
 70
    58
 90
        2
176
     1
 90
        2
176
     1
 90
        1
176
     1
 90
        2
176
     1
 40
0.6
176
     1
 40
30.0
176
     1
 62
     7
420
 16777215
176
     1
 90
        0
176
     1
 90
        0
176
     1
 62
     7
176
     1
 62
   257
176
     1
 90
        1
176
     1
 90
        1
176
     1
 40
1.0
176
     1
 90
        0
176
     1
 62
     7
176
     1
 40
1.0
176
     1
 90
        1
176
     1
 90
        6
176
     1
 90
        2
176
     1
 62
     7
176
     1
 90
        5
176
     1
 90
        0
176
     1
 90
        0
176
     1
290
     0
176
     1
 90
       13
176
     1
 40
0.0
176
     1
 90
        0
176
     1
290
     0
176
     1
290
     1
176
     1
290
     1
176
     1
290
     0
176
     1
290
     0
176
     1
290
     0
176
     1
290
     0
176
     1
290
     0
176
     1
290
     0
176
     1
 90
       50
176
     1
 40
0.0
176
     1
 40
1.0
176
     1
 90
        0
176
     1
 62
    18
420
        0
176
     1
 90
       50
176
     1
 90
        3
176
     1
 62
     5
420
      255
176
     1
290
     0
176
     1
 90
       50
176
     1
 90
       50
176
     1
 90
       50
176
     1
290
     0
176
     1
 90
       50
176
     1
 62
   256
176
     0
 40
1.0
176
     0
 90
        2
176
     1
  1
strokes_ogs.tif
176
     1
290
     0
176
     1
 40
1.0
176
     1
 40
1.0
176
     1
  0
VISUALSTYLE
  5
2D
102
{ACAD_REACTORS
330
29
102
}
330
29
100
AcDbVisualStyle
  2
GouraudWithEdges
 70
     3
177
     3
291
     1
 70
    58
 90
        2
176
     1
 90
        2
176
     1
 90
        1
176
     1
 90
        2
176
     1
 40
0.6
176
     1
 40
30.0
176
     1
 62
     7
420
 16777215
176
     1
 90
        1
176
     1
 90
        0
176
     1
 62
     7
176
     1
 62
   257
176
     1
 90
        1
176
     1
 90
        1
176
     1
 40
1.0
176
     1
 90
        0
176
     1
 62
   257
176
     1
 40
1.0
176
     1
 90
        1
176
     1
 90
        6
176
     1
 90
        2
176
     1
 62
     7
176
     1
 90
        5
176
     1
 90
        0
176
     1
 90
        0
176
     1
290
     0
176
     1
 90
       13
176
     1
 40
0.0
176
     1
 90
        0
176
     1
290
     0
176
     1
290
     1
176
     1
290
     1
176
     1
290
     0
176
     1
290
     0
176
     1
290
     0
176
     1
290
     0
176
     1
290
     0
176
     1
290
     0
176
     1
 90
       50
176
     1
 40
0.0
176
     1
 40
1.0
176
     1
 90
        0
176
     1
 62
    18
420
        0
176
     1
 90
       50
176
     1
 90
        3
176
     1
 62
     5
420
      255
176
     1
290
     0
176
     1
 90
       50
176
     1
 90
       50
176
     1
 90
       50
176
     1
290
     0
176
     1
 90
       50
176
     1
 62
   256
176
     0
 40
1.0
176
     0
 90
        2
176
     1
  1
strokes_ogs.tif
176
     1
290
     0
176
     1
 40
1.0
176
     1
 40
1.0
176
     1
  0
VISUALSTYLE
  5
31
102
{ACAD_REACTORS
330
29
102
}
330
29
100
AcDbVisualStyle
  2
Hidden
 70
     6
177
     3
291
     0
 70
    58
 90
        1
176
     1
 90
        2
176
     1
 90
        2
176
     1
 90
        0
176
     1
 40
0.6
176
     1
 40
30.0
176
     1
 62
     7
420
 16777215
176
     1
 90
        2
176
     1
 90
        2
176
     1
 62
     7
176
     1
 62
   257
176
     1
 90
        2
176
     1
 90
        1
176
     1
 40
40.0
176
     1
 90
        0
176
     1
 62
   257
176
     1
 40
1.0
176
     1
 90
        1
176
     1
 90
        6
176
     1
 90
        2
176
     1
 62
     7
176
     1
 90
        3
176
     1
 90
        0
176
     1
 90
        0
176
     1
290
     0
176
     1
 90
        1
176
     1
 40
0.0
176
     1
 90
        0
176
     1
290
     0
176
     1
290
     1
176
     1
290
     1
176
     1
290
     0
176
     1
290
     0
176
     1
290
     0
176
     1
290
     0
176
     1
290
     0
176
     1
290
     0
176
     1
 90
       50
176
     1
 40
0.0
176
     1
 40
1.0
176
     1
 90
        0
176
     1
 62
    18
420
        0
176
     1
 90
       50
176
     1
 90
        3
176
     1
 62
     5
420
      255
176
     1
290
     0
176
     1
 90
       50
176
     1
 90
       50
176
     1
 90
       50
176
     1
290
     0
176
     1
 90
       50
176
     1
 62
   256
176
     0
 40
1.0
176
     0
 90
        2
176
     1
  1
strokes_ogs.tif
176
     1
290
     0
176
     1
 40
1.0
176
     1
 40
1.0
176
     1
  0
VISUALSTYLE
  5
3F
102
{ACAD_REACTORS
330
29
102
}
330
29
100
AcDbVisualStyle
  2
JitterOff
 70
    20
177
     3
291
     1
 70
    58
 90
        2
176
     0
 90
        2
176
     0
 90
        0
176
     0
 90
        0
176
     0
 40
0.6
176
     0
 40
30.0
176
     0
 62
     7
420
 16777215
176
     0
 90
        1
176
     0
 90
        4
176
     0
 62
     7
176
     0
 62
   257
176
     0
 90
        1
176
     0
 90
        1
176
     0
 40
1.0
176
     0
 90
       10
176
     2
 62
     7
176
     0
 40
1.0
176
     0
 90
        1
176
     0
 90
        6
176
     0
 90
        2
176
     0
 62
     7
176
     0
 90
        5
176
     0
 90
        0
176
     0
 90
        0
176
     0
290
     0
176
     0
 90
        1
176
     0
 40
0.0
176
     0
 90
        0
176
     0
290
     0
176
     0
290
     1
176
     0
290
     1
176
     0
290
     0
176
     0
290
     0
176
     0
290
     0
176
     0
290
     0
176
     0
290
     0
176
     0
290
     0
176
     0
 90
       50
176
     0
 40
0.0
176
     0
 40
1.0
176
     0
 90
        0
176
     0
 62
    18
420
        0
176
     0
 90
       50
176
     0
 90
        3
176
     0
 62
     5
420
      255
176
     0
290
     0
176
     0
 90
       50
176
     0
 90
       50
176
     0
 90
       50
176
     0
290
     0
176
     0
 90
       50
176
     0
 62
   256
176
     0
 40
1.0
176
     0
 90
        2
176
     0
  1
strokes_ogs.tif
176
     0
290
     0
176
     0
 40
1.0
176
     0
 40
1.0
176
     0
  0
VISUALSTYLE
  5
37
102
{ACAD_REACTORS
330
29
102
}
330
29
100
AcDbVisualStyle
  2
Linepattern
 70
    14
177
     3
291
     1
 70
    58
 90
        2
176
     1
 90
        2
176
     1
 90
        0
176
     1
 90
        0
176
     1
 40
0.6
176
     1
 40
30.0
176
     1
 62
     7
420
 16777215
176
     1
 90
        1
176
     1
 90
        4
176
     1
 62
     7
176
     1
 62
   257
176
     1
 90
        7
176
     1
 90
        7
176
     1
 40
1.0
176
     1
 90
        8
176
     1
 62
     7
176
     1
 40
1.0
176
     1
 90
        1
176
     1
 90
        6
176
     1
 90
        2
176
     1
 62
     7
176
     1
 90
        5
176
     1
 90
        0
176
     1
 90
        0
176
     1
290
     0
176
     1
 90
        1
176
     1
 40
0.0
176
     1
 90
        0
176
     1
290
     0
176
     1
290
     1
176
     1
290
     1
176
     1
290
     0
176
     1
290
     0
176
     1
290
     0
176
     1
290
     0
176
     1
290
     0
176
     1
290
     0
176
     1
 90
       50
176
     1
 40
0.0
176
     1
 40
1.0
176
     1
 90
        0
176
     1
 62
    18
420
        0
176
     1
 90
       50
176
     1
 90
        3
176
     1
 62
     5
420
      255
176
     1
290
     0
176
     1
 90
       50
176
     1
 90
       50
176
     1
 90
       50
176
     1
290
     0
176
     1
 90
       50
176
     1
 62
   256
176
     0
 40
1.0
176
     0
 90
        2
176
     1
  1
strokes_ogs.tif
176
     1
290
     0
176
     1
 40
1.0
176
     1
 40
1.0
176
     1
  0
VISUALSTYLE
  5
40
102
{ACAD_REACTORS
330
29
102
}
330
29
100
AcDbVisualStyle
  2
OverhangOff
 70
    21
177
     3
291
     1
 70
    58
 90
        2
176
     0
 90
        2
176
     0
 90
        0
176
     0
 90
        0
176
     0
 40
0.6
176
     0
 40
30.0
176
     0
 62
     7
420
 16777215
176
     0
 90
        1
176
     0
 90
        4
176
     0
 62
     7
176
     0
 62
   257
176
     0
 90
        1
176
     0
 90
        1
176
     0
 40
1.0
176
     0
 90
        9
176
     2
 62
     7
176
     0
 40
1.0
176
     0
 90
        1
176
     0
 90
        6
176
     0
 90
        2
176
     0
 62
     7
176
     0
 90
        5
176
     0
 90
        0
176
     0
 90
        0
176
     0
290
     0
176
     0
 90
        1
176
     0
 40
0.0
176
     0
 90
        0
176
     0
290
     0
176
     0
290
     1
176
     0
290
     1
176
     0
290
     0
176
     0
290
     0
176
     0
290
     0
176
     0
290
     0
176
     0
290
     0
176
     0
290
     0
176
     0
 90
       50
176
     0
 40
0.0
176
     0
 40
1.0
176
     0
 90
        0
176
     0
 62
    18
420
        0
176
     0
 90
       50
176
     0
 90
        3
176
     0
 62
     5
420
      255
176
     0
290
     0
176
     0
 90
       50
176
     0
 90
       50
176
     0
 90
       50
176
     0
290
     0
176
     0
 90
       50
176
     0
 62
   256
176
     0
 40
1.0
176
     0
 90
        2
176
     0
  1
strokes_ogs.tif
176
     0
290
     0
176
     0
 40
1.0
176
     0
 40
1.0
176
     0
  0
VISUALSTYLE
  5
33
102
{ACAD_REACTORS
330
29
102
}
330
29
100
AcDbVisualStyle
  2
Realistic
 70
     8
177
     3
291
     0
 70
    58
 90
        2
176
     1
 90
        3
176
     1
 90
        0
176
     1
 90
        2
176
     1
 40
0.6
176
     1
 40
30.0
176
     1
 62
     7
420
 16777215
176
     1
 90
        0
176
     1
 90
        0
176
     1
 62
     7
176
     1
 62
   257
176
     1
 90
        1
176
     1
 90
        1
176
     1
 40
1.0
176
     1
 90
        8
176
     1
 62
   257
176
     1
 40
1.0
176
     1
 90
        1
176
     1
 90
        6
176
     1
 90
        2
176
     1
 62
     7
176
     1
 90
        3
176
     1
 90
        0
176
     1
 90
        0
176
     1
290
     0
176
     1
 90
       13
176
     1
 40
0.0
176
     1
 90
        0
176
     1
290
     0
176
     1
290
     1
176
     1
290
     1
176
     1
290
     0
176
     1
290
     0
176
     1
290
     0
176
     1
290
     0
176
     1
290
     0
176
     1
290
     0
176
     1
 90
       50
176
     1
 40
0.0
176
     1
 40
1.0
176
     1
 90
        0
176
     1
 62
    18
420
        0
176
     1
 90
       50
176
     1
 90
        3
176
     1
 62
     5
420
      255
176
     1
290
     0
176
     1
 90
       50
176
     1
 90
       50
176
     1
 90
       50
176
     1
290
     0
176
     1
 90
       50
176
     1
 62
   256
176
     0
 40
1.0
176
     0
 90
        2
176
     1
  1
strokes_ogs.tif
176
     1
290
     0
176
     1
 40
1.0
176
     1
 40
1.0
176
     1
  0
VISUALSTYLE
  5
3E
102
{ACAD_REACTORS
330
29
102
}
330
29
100
AcDbVisualStyle
  2
Shaded
 70
    27
177
     3
291
     0
 70
    58
 90
        2
176
     1
 90
        2
176
     1
 90
        1
176
     1
 90
        2
176
     1
 40
0.6
176
     1
 40
30.0
176
     1
 62
     7
420
 16777215
176
     1
 90
        0
176
     1
 90
        4
176
     1
 62
     7
176
     1
 62
   257
176
     1
 90
        1
176
     1
 90
        1
176
     1
 40
1.0
176
     1
 90
        8
176
     1
 62
   257
176
     1
 40
1.0
176
     1
 90
        1
176
     1
 90
        6
176
     1
 90
        2
176
     1
 62
     8
420
  7895160
176
     1
 90
        3
176
     1
 90
        0
176
     1
 90
        0
176
     1
290
     0
176
     1
 90
        5
176
     1
 40
0.0
176
     1
 90
        0
176
     1
290
     0
176
     1
290
     1
176
     1
290
     1
176
     1
290
     0
176
     1
290
     0
176
     1
290
     0
176
     1
290
     0
176
     1
290
     0
176
     1
290
     0
176
     1
 90
       50
176
     1
 40
0.0
176
     1
 40
1.0
176
     1
 90
        0
176
     1
 62
    18
420
        0
176
     1
 90
       50
176
     1
 90
        3
176
     1
 62
     5
420
      255
176
     1
290
     0
176
     1
 90
       50
176
     1
 90
       50
176
     1
 90
       50
176
     1
290
     0
176
     1
 90
       50
176
     1
 62
   256
176
     0
 40
1.0
176
     0
 90
        2
176
     1
  1
strokes_ogs.tif
176
     1
290
     0
176
     1
 40
1.0
176
     1
 40
1.0
176
     1
  0
VISUALSTYLE
  5
3D
102
{ACAD_REACTORS
330
29
102
}
330
29
100
AcDbVisualStyle
  2
Shaded with edges
 70
    26
177
     3
291
     0
 70
    58
 90
        2
176
     1
 90
        2
176
     1
 90
        1
176
     1
 90
        2
176
     1
 40
0.6
176
     1
 40
30.0
176
     1
 62
     7
420
 16777215
176
     1
 90
        1
176
     1
 90
        2
176
     1
 62
     7
176
     1
 62
   257
176
     1
 90
        2
176
     1
 90
        1
176
     1
 40
1.0
176
     1
 90
        8
176
     1
 62
   257
176
     1
 40
1.0
176
     1
 90
        1
176
     1
 90
        6
176
     1
 90
        2
176
     1
 62
     7
176
     1
 90
        3
176
     1
 90
        0
176
     1
 90
        0
176
     1
290
     0
176
     1
 90
        5
176
     1
 40
0.0
176
     1
 90
        0
176
     1
290
     0
176
     1
290
     1
176
     1
290
     1
176
     1
290
     0
176
     1
290
     0
176
     1
290
     0
176
     1
290
     0
176
     1
290
     0
176
     1
290
     0
176
     1
 90
       50
176
     1
 40
0.0
176
     1
 40
1.0
176
     1
 90
        0
176
     1
 62
    18
420
        0
176
     1
 90
       50
176
     1
 90
        3
176
     1
 62
     5
420
      255
176
     1
290
     0
176
     1
 90
       50
176
     1
 90
       50
176
     1
 90
       50
176
     1
290
     0
176
     1
 90
       50
176
     1
 62
   256
176
     0
 40
1.0
176
     0
 90
        2
176
     1
  1
strokes_ogs.tif
176
     1
290
     0
176
     1
 40
1.0
176
     1
 40
1.0
176
     1
  0
VISUALSTYLE
  5
3A
102
{ACAD_REACTORS
330
29
102
}
330
29
100
AcDbVisualStyle
  2
Shades of Gray
 70
    23
177
     3
291
     0
 70
    58
 90
        2
176
     1
 90
        2
176
     1
 90
        3
176
     1
 90
        0
176
     1
 40
0.6
176
     1
 40
30.0
176
     1
 62
     7
420
 16777215
176
     1
 90
        2
176
     1
 90
        2
176
     1
 62
     7
176
     1
 62
     7
176
     1
 90
        1
176
     1
 90
        1
176
     1
 40
40.0
176
     1
 90
        8
176
     1
 62
     7
176
     1
 40
1.0
176
     1
 90
        1
176
     1
 90
        6
176
     1
 90
        2
176
     1
 62
     7
176
     1
 90
        3
176
     1
 90
        0
176
     1
 90
        0
176
     1
290
     0
176
     1
 90
        1
176
     1
 40
0.0
176
     1
 90
        0
176
     1
290
     0
176
     1
290
     1
176
     1
290
     1
176
     1
290
     0
176
     1
290
     0
176
     1
290
     0
176
     1
290
     0
176
     1
290
     0
176
     1
290
     0
176
     1
 90
       50
176
     1
 40
0.0
176
     1
 40
1.0
176
     1
 90
        0
176
     1
 62
    18
420
        0
176
     1
 90
       50
176
     1
 90
        3
176
     1
 62
     5
420
      255
176
     1
290
     0
176
     1
 90
       50
176
     1
 90
       50
176
     1
 90
       50
176
     1
290
     0
176
     1
 90
       50
176
     1
 62
   256
176
     0
 40
1.0
176
     0
 90
        2
176
     1
  1
strokes_ogs.tif
176
     1
290
     0
176
     1
 40
1.0
176
     1
 40
1.0
176
     1
  0
VISUALSTYLE
  5
3B
102
{ACAD_REACTORS
330
29
102
}
330
29
100
AcDbVisualStyle
  2
Sketchy
 70
    24
177
     3
291
     0
 70
    58
 90
        1
176
     1
 90
        2
176
     1
 90
        2
176
     1
 90
        0
176
     1
 40
0.6
176
     1
 40
30.0
176
     1
 62
     7
420
 16777215
176
     1
 90
        2
176
     1
 90
        2
176
     1
 62
     7
176
     1
 62
     7
176
     1
 90
        1
176
     1
 90
        1
176
     1
 40
40.0
176
     1
 90
       11
176
     1
 62
     7
176
     1
 40
1.0
176
     1
 90
        1
176
     1
 90
        6
176
     1
 90
        2
176
     1
 62
     7
176
     1
 90
        6
176
     1
 90
        0
176
     1
 90
        0
176
     1
290
     0
176
     1
 90
        1
176
     1
 40
0.0
176
     1
 90
        0
176
     1
290
     0
176
     1
290
     1
176
     1
290
     1
176
     1
290
     0
176
     1
290
     0
176
     1
290
     0
176
     1
290
     0
176
     1
290
     0
176
     1
290
     0
176
     1
 90
       50
176
     1
 40
0.0
176
     1
 40
1.0
176
     1
 90
        0
176
     1
 62
    18
420
        0
176
     1
 90
       50
176
     1
 90
        3
176
     1
 62
     5
420
      255
176
     1
290
     0
176
     1
 90
       50
176
     1
 90
       50
176
     1
 90
       50
176
     1
290
     0
176
     1
 90
       50
176
     1
 62
   256
176
     0
 40
1.0
176
     0
 90
        2
176
     1
  1
strokes_ogs.tif
176
     1
290
     0
176
     1
 40
1.0
176
     1
 40
1.0
176
     1
  0
VISUALSTYLE
  5
36
102
{ACAD_REACTORS
330
29
102
}
330
29
100
AcDbVisualStyle
  2
Thicken
 70
    13
177
     3
291
     1
 70
    58
 90
        2
176
     1
 90
        2
176
     1
 90
        0
176
     1
 90
        0
176
     1
 40
0.6
176
     1
 40
30.0
176
     1
 62
     7
420
 16777215
176
     1
 90
        1
176
     1
 90
        4
176
     1
 62
     7
176
     1
 62
   257
176
     1
 90
        1
176
     1
 90
        1
176
     1
 40
1.0
176
     1
 90
       12
176
     1
 62
     7
176
     1
 40
1.0
176
     1
 90
        1
176
     1
 90
        6
176
     1
 90
        2
176
     1
 62
     7
176
     1
 90
        5
176
     1
 90
        0
176
     1
 90
        0
176
     1
290
     0
176
     1
 90
        1
176
     1
 40
0.0
176
     1
 90
        0
176
     1
290
     0
176
     1
290
     1
176
     1
290
     1
176
     1
290
     0
176
     1
290
     0
176
     1
290
     0
176
     1
290
     0
176
     1
290
     0
176
     1
290
     0
176
     1
 90
       50
176
     1
 40
0.0
176
     1
 40
1.0
176
     1
 90
        0
176
     1
 62
    18
420
        0
176
     1
 90
       50
176
     1
 90
        3
176
     1
 62
     5
420
      255
176
     1
290
     0
176
     1
 90
       50
176
     1
 90
       50
176
     1
 90
       50
176
     1
290
     0
176
     1
 90
       50
176
     1
 62
   256
176
     0
 40
1.0
176
     0
 90
        2
176
     1
  1
strokes_ogs.tif
176
     1
290
     0
176
     1
 40
1.0
176
     1
 40
1.0
176
     1
  0
VISUALSTYLE
  5
30
102
{ACAD_REACTORS
330
29
102
}
330
29
100
AcDbVisualStyle
  2
Wireframe
 70
     5
177
     3
291
     0
 70
    58
 90
        0
176
     1
 90
        2
176
     1
 90
        0
176
     1
 90
        0
176
     1
 40
0.6
176
     1
 40
30.0
176
     1
 62
     7
420
 16777215
176
     1
 90
        1
176
     1
 90
        4
176
     1
 62
     7
176
     1
 62
   257
176
     1
 90
        1
176
     1
 90
        1
176
     1
 40
1.0
176
     1
 90
        0
176
     1
 62
   257
176
     1
 40
1.0
176
     1
 90
        1
176
     1
 90
        6
176
     1
 90
        2
176
     1
 62
     7
176
     1
 90
        3
176
     1
 90
        0
176
     1
 90
        0
176
     1
290
     0
176
     1
 90
        1
176
     1
 40
0.0
176
     1
 90
        0
176
     1
290
     0
176
     1
290
     1
176
     1
290
     1
176
     1
290
     0
176
     1
290
     0
176
     1
290
     0
176
     1
290
     0
176
     1
290
     0
176
     1
290
     0
176
     1
 90
       50
176
     1
 40
0.0
176
     1
 40
1.0
176
     1
 90
        0
176
     1
 62
    18
420
        0
176
     1
 90
       50
176
     1
 90
        3
176
     1
 62
     5
420
      255
176
     1
290
     0
176
     1
 90
       50
176
     1
 90
       50
176
     1
 90
       50
176
     1
290
     0
176
     1
 90
       50
176
     1
 62
   256
176
     0
 40
1.0
176
     0
 90
        2
176
     1
  1
strokes_ogs.tif
176
     1
290
     0
176
     1
 40
1.0
176
     1
 40
1.0
176
     1
  0
VISUALSTYLE
  5
3C
102
{ACAD_REACTORS
330
29
102
}
330
29
100
AcDbVisualStyle
  2
X-Ray
 70
    25
177
     3
291
     0
 70
    58
 90
        2
176
     1
 90
        2
176
     1
 90
        1
176
     1
 90
        1
176
     1
 40
0.5
176
     1
 40
30.0
176
     1
 62
     7
420
 16777215
176
     1
 90
        1
176
     1
 90
        0
176
     1
 62
     7
176
     1
 62
   257
176
     1
 90
        1
176
     1
 90
        1
176
     1
 40
1.0
176
     1
 90
        8
176
     1
 62
     7
176
     1
 40
1.0
176
     1
 90
        1
176
     1
 90
        6
176
     1
 90
        2
176
     1
 62
     7
176
     1
 90
        3
176
     1
 90
        0
176
     1
 90
        0
176
     1
290
     0
176
     1
 90
       13
176
     1
 40
0.0
176
     1
 90
        0
176
     1
290
     0
176
     1
290
     1
176
     1
290
     1
176
     1
290
     0
176
     1
290
     0
176
     1
290
     0
176
     1
290
     0
176
     1
290
     0
176
     1
290
     0
176
     1
 90
       50
176
     1
 40
0.0
176
     1
 40
1.0
176
     1
 90
        0
176
     1
 62
    18
420
        0
176
     1
 90
       50
176
     1
 90
        3
176
     1
 62
     5
420
      255
176
     1
290
     0
176
     1
 90
       50
176
     1
 90
       50
176
     1
 90
       50
176
     1
290
     0
176
     1
 90
       50
176
     1
 62
   256
176
     0
 40
1.0
176
     0
 90
        2
176
     1
  1
strokes_ogs.tif
176
     1
290
     0
176
     1
 40
1.0
176
     1
 40
1.0
176
     1
  0
DICTIONARYVAR
  5
96
102
{ACAD_REACTORS
330
91
102
}
330
91
100
DictionaryVariables
280
     0
  1
1:1
  0
DICTIONARYVAR
  5
93
102
{ACAD_REACTORS
330
91
102
}
330
91
100
DictionaryVariables
280
     0
  1
STANDARD
  0
DICTIONARYVAR
  5
92
102
{ACAD_REACTORS
330
91
102
}
330
91
100
DictionaryVariables
280
     0
  1
STANDARD
  0
DICTIONARYVAR
  5
94
102
{ACAD_REACTORS
330
91
102
}
330
91
100
DictionaryVariables
280
     0
  1
Imperial24
  0
DICTIONARYVAR
  5
95
102
{ACAD_REACTORS
330
91
102
}
330
91
100
DictionaryVariables
280
     0
  1
Imperial24
  0
DICTIONARY
  5
1A
330
19
100
AcDbDictionary
280
     1
281
     1
  3
BUMPTILE
360
1C
  3
DIFFUSETILE
360
1B
  3
OPACITYTILE
360
1F
  3
REFLECTIONTILE
360
1E
  3
REFRACTIONTILE
360
20
  3
SPECULARTILE
360
1D
  0
DICTIONARY
  5
12
330
11
100
AcDbDictionary
280
     1
281
     1
  3
BUMPTILE
360
14
  3
DIFFUSETILE
360
13
  3
OPACITYTILE
360
17
  3
REFLECTIONTILE
360
16
  3
REFRACTIONTILE
360
18
  3
SPECULARTILE
360
15
  0
DICTIONARY
  5
22
330
21
100
AcDbDictionary
280
     1
281
     1
  3
BUMPTILE
360
24
  3
DIFFUSETILE
360
23
  3
OPACITYTILE
360
27
  3
REFLECTIONTILE
360
26
  3
REFRACTIONTILE
360
28
  3
SPECULARTILE
360
25
  0
DICTIONARY
  5
97
330
65
100
AcDbDictionary
280
     1
281
     1
  3
ACAD_ROUNDTRIP_2008_TABLESTYLE_CELLSTYLEMAP
360
98
  0
XRECORD
  5
1C
102
{ACAD_REACTORS
330
1A
102
}
330
1A
100
AcDbXrecord
280
     1
270
     1
271
     1
  0
XRECORD
  5
1B
102
{ACAD_REACTORS
330
1A
102
}
330
1A
100
AcDbXrecord
280
     1
270
     1
271
     1
  0
XRECORD
  5
1F
102
{ACAD_REACTORS
330
1A
102
}
330
1A
100
AcDbXrecord
280
     1
270
     1
271
     1
  0
XRECORD
  5
1E
102
{ACAD_REACTORS
330
1A
102
}
330
1A
100
AcDbXrecord
280
     1
270
     1
271
     1
  0
XRECORD
  5
20
102
{ACAD_REACTORS
330
1A
102
}
330
1A
100
AcDbXrecord
280
     1
270
     1
271
     1
  0
XRECORD
  5
1D
102
{ACAD_REACTORS
330
1A
102
}
330
1A
100
AcDbXrecord
280
     1
270
     1
271
     1
  0
XRECORD
  5
14
102
{ACAD_REACTORS
330
12
102
}
330
12
100
AcDbXrecord
280
     1
270
     1
271
     1
  0
XRECORD
  5
13
102
{ACAD_REACTORS
330
12
102
}
330
12
100
AcDbXrecord
280
     1
270
     1
271
     1
  0
XRECORD
  5
17
102
{ACAD_REACTORS
330
12
102
}
330
12
100
AcDbXrecord
280
     1
270
     1
271
     1
  0
XRECORD
  5
16
102
{ACAD_REACTORS
330
12
102
}
330
12
100
AcDbXrecord
280
     1
270
     1
271
     1
  0
XRECORD
  5
18
102
{ACAD_REACTORS
330
12
102
}
330
12
100
AcDbXrecord
280
     1
270
     1
271
     1
  0
XRECORD
  5
15
102
{ACAD_REACTORS
330
12
102
}
330
12
100
AcDbXrecord
280
     1
270
     1
271
     1
  0
XRECORD
  5
24
102
{ACAD_REACTORS
330
22
102
}
330
22
100
AcDbXrecord
280
     1
270
     1
271
     1
  0
XRECORD
  5
23
102
{ACAD_REACTORS
330
22
102
}
330
22
100
AcDbXrecord
280
     1
270
     1
271
     1
  0
XRECORD
  5
27
102
{ACAD_REACTORS
330
22
102
}
330
22
100
AcDbXrecord
280
     1
270
     1
271
     1
  0
XRECORD
  5
26
102
{ACAD_REACTORS
330
22
102
}
330
22
100
AcDbXrecord
280
     1
270
     1
271
     1
  0
XRECORD
  5
28
102
{ACAD_REACTORS
330
22
102
}
330
22
100
AcDbXrecord
280
     1
270
     1
271
     1
  0
XRECORD
  5
25
102
{ACAD_REACTORS
330
22
102
}
330
22
100
AcDbXrecord
280
     1
270
     1
271
     1
  0
CELLSTYLEMAP
  5
98
102
{ACAD_REACTORS
330
97
102
}
330
97
100
AcDbCellStyleMap
 90
        3
300
CELLSTYLE
  1
TABLEFORMAT_BEGIN
 90
        5
170
     1
 91
        0
 92
    32768
 62
   257
 93
        1
300
CONTENTFORMAT
  1
CONTENTFORMAT_BEGIN
 90
        0
 91
        0
 92
      512
 93
        0
300

 40
0.0
140
1.0
 94
        5
 62
     0
340
55
144
0.25
309
CONTENTFORMAT_END
171
     0
 94
        0
309
TABLEFORMAT_END
  1
CELLSTYLE_BEGIN
 90
        1
 91
        1
300
_TITLE
309
CELLSTYLE_END
300
CELLSTYLE
  1
TABLEFORMAT_BEGIN
 90
        5
170
     1
 91
        0
 92
        0
 62
   257
 93
        1
300
CONTENTFORMAT
  1
CONTENTFORMAT_BEGIN
 90
        0
 91
        0
 92
      512
 93
        0
300

 40
0.0
140
1.0
 94
        5
 62
     0
340
55
144
0.18
309
CONTENTFORMAT_END
171
     0
 94
        0
309
TABLEFORMAT_END
  1
CELLSTYLE_BEGIN
 90
        2
 91
        1
300
_HEADER
309
CELLSTYLE_END
300
CELLSTYLE
  1
TABLEFORMAT_BEGIN
 90
        5
170
     1
 91
        0
 92
        0
 62
   257
 93
        1
300
CONTENTFORMAT
  1
CONTENTFORMAT_BEGIN
 90
        0
 91
        0
 92
      512
 93
        0
300

 40
0.0
140
1.0
 94
        2
 62
     0
340
55
144
0.18
309
CONTENTFORMAT_END
171
     0
 94
        0
309
TABLEFORMAT_END
  1
CELLSTYLE_BEGIN
 90
        3
 91
        2
300
_DATA
309
CELLSTYLE_END
  0
ENDSEC
  0
EOF
