<?xml version="1.0" encoding="UTF-8"?>
<svg id="Layer_1" data-name="Layer 1" xmlns="http://www.w3.org/2000/svg" viewBox="0 0 500 500">
  <defs>
    <style>
      .cls-1 {
        fill: #fff;
      }

      .cls-2 {
        fill: #831618;
      }
    </style>
  </defs>
  <g>
    <g>
      <path d="M402.45,293.71c0-77.84,.02-155.7,0-233.54,0-10.31-3.95-18.92-11.49-25.92-7.18-6.67-15.82-9.34-25.47-9.32-20.07,.03-40.14,.03-60.21,.03-59.06,0-118.11-.02-177.16-.03-11.34,0-20.72,4.34-28.15,12.89-6.27,7.22-8.35,15.73-8.34,25.12,.08,59.52,.04,119.04,.04,178.55,0,49.66-.01,99.31,0,148.97,0,11.71-.06,23.43,.17,35.14,.17,8.21,3.52,15.25,9.04,21.3,8.08,8.86,18.27,11.9,30.02,11.88,72.97-.12,145.95-.03,218.92-.1,7.99-.01,16.05,.84,23.98-.63,17.04-3.17,28.65-17.63,28.66-35.57,.03-42.93-.01-85.85-.01-128.78Zm-2.43-51.84h-.05c0,59.4,0,118.79,0,178.2,0,5.01-.29,9.96-2.06,14.73-4.8,12.96-17.23,21.4-31.66,21.4-77.27,0-154.53-.02-231.79-.03-2.55,0-5.11,.06-7.66-.03-18.18-.65-31.86-14.28-32.59-32.44-.03-.93-.02-1.85-.02-2.78,0-119.38,.02-238.75-.03-358.13,0-9.73,2.62-18.27,9.62-25.26,6.96-6.93,15.36-10.01,25.14-10,56.96,.06,113.93,.03,170.89,.03,22.28,0,44.55-.09,66.82,.03,16.55,.09,29.64,10.91,32.75,26.74,.84,4.24,.62,8.55,.63,12.84,0,58.24,0,116.48,0,174.72Z"/>
      <path class="cls-1" d="M400.02,241.87h-.05c0,59.4,0,118.79,0,178.2,0,5.01-.29,9.96-2.06,14.73-4.8,12.96-17.23,21.4-31.66,21.4-77.27,0-154.53-.02-231.79-.03-2.55,0-5.11,.06-7.66-.03-18.18-.65-31.86-14.28-32.59-32.44-.03-.93-.02-1.85-.02-2.78,0-119.38,.02-238.75-.03-358.13,0-9.73,2.62-18.27,9.62-25.26,6.96-6.93,15.36-10.01,25.14-10,56.96,.06,113.93,.03,170.89,.03,22.28,0,44.55-.09,66.82,.03,16.55,.09,29.64,10.91,32.75,26.74,.84,4.24,.62,8.55,.63,12.84,0,58.24,0,116.48,0,174.72Z"/>
    </g>
    <path class="cls-2" d="M148.71,85.12V43.75h-8.13l-24.81,42.49v5.94h25.84v18.12h7.1v-18.12h7.79v-7.06h-7.79Zm-7.1-22.22v22.22h-18.22v-.2l13.6-22.63c1.54-3.07,2.91-5.94,4.62-9.83h.26c-.17,3.48-.26,6.96-.26,10.44Z"/>
  </g>
  <g>
    <path class="cls-2" d="M196.07,326.46c.53-7.49,1.03-14.45,1.52-21.4,.18-2.49,.8-4.49,3.81-4.95,24.56-3.71,47.94-12.71,72.54-16.31,2.16-.32,4.22-.21,6.34,.18,7.21,1.36,9.31,4.38,7.27,11.4-4.17,14.4-7.33,28.94-6.83,44.04,.17,5.21-.87,11.33,1.48,15.38,2.65,4.56,9.57,2.41,14.56,3.36,13.52,2.56,26.14,7.06,37.46,15,8.25,5.78,12.04,14.1,10.06,22.37-1.84,7.65-8.6,13.26-18.45,14.38-8.91,1.02-17.51,2.79-25.91,6.07-6.84,2.67-13.8,2.3-21-.1-14.18-4.74-28.17-9.83-41.38-16.89-1.81-.97-3.71-1.97-5.33-.28-6.19,6.46-13.4,5.02-20.46,2.49-5.49-1.97-7.02,.16-6.91,5.13,0,.39-.01,.78-.06,1.16-.37,3.03-.02,6.77-4.06,7.4-3.7,.57-5.58-2.59-6.84-5.33-2.42-5.27-4.68-10.68-6.32-16.23-1.29-4.38-3.68-5.78-8-5.57-6.43,.3-12.74-.94-18.95-2.51-3.2-.81-6.19-2.2-8.66-4.51-2.34-2.2-3.31-4.96-2.24-7.92,1.15-3.19,4.16-2.24,6.56-2.01,6.36,.61,12.72,1.25,19.04,2.15,5.17,.73,5.92-1.32,4.9-5.92-1.84-8.32-3.19-16.74-4.71-25.13-.41-2.26-1.28-4.9,1.26-6.32,2.85-1.59,5.41,.18,7.3,2.06,4.87,4.86,6.6,11.29,7.91,17.78,.93,4.58,2.25,8.99,4.15,13.26,1.32,2.97,3.27,4.1,6.45,3.3,1.88-.47,3.82-.65,5.7-1.1,12.08-2.91,12.52-3.67,11.79-16.16-.19-3.27-1.3-3.94-4.31-3.31-4.71,1-6.12,4.89-8.13,8.4-3.1,5.39-4.62,5.36-7.6-.18-3.02-5.61-3.61-11.83-3.91-18.03-.25-5.22-.05-10.46-.05-15.17Zm72.67,77.73c1.24-.13,2.64,.13,3.52-.43,12.07-7.57,25.22-11.75,39.3-13.71,3.5-.49,5.27-4.19,5.66-8.02,.39-3.85-2.18-5.58-4.86-7.19-6.61-3.98-14.09-5.3-21.53-6.56-6.8-1.15-7.05-.84-6.09,5.92,.58,4.1,1.31,8.52-2.3,11.39-4.87,3.87-10.49,6.54-16.9,7.04-2.17,.17-3.95-.37-4.51-2.67-1.24-5.08-4.23-4.03-7.41-2.2-2.34,1.35-4.56,2.92-6.91,4.25-1.88,1.06-2.22,2.05-.27,3.33,6.86,4.47,13.93,8.4,22.3,8.86Zm-34.47-48.69c.02,8.42,.19,8.56,7.46,6.66,3.18-.83,6.35-1.69,9.47-2.7,6.07-1.96,8.36-6.75,5.74-13.62-2.02-5.28-5.88-.71-8.86-.73-2.05-.01-4.07,1.25-6.16,1.5-5.92,.69-8.71,3.65-7.65,8.89Zm22.09-29.98c-.33-1.83,2.03-5.8-2.61-5.04-5.9,.97-11.84,2.3-17.45,4.34-5.07,1.84-3.55,6.94-3.06,10.65,.51,3.93,3.95,1.81,6.16,1.51,3.26-.43,6.47-1.2,9.69-1.88,5.07-1.06,8.9-3.13,7.27-9.58Zm1.13-20.63c.75-4.8-1.02-6.09-5.16-4.81-3.3,1.02-6.66,2.23-10.06,2.47-6.35,.46-8.36,4.07-8.85,9.76-.26,3.03,.7,3.97,3.44,3.45,4.35-.82,8.64-2.19,13.02-2.49,5.88-.41,8.41-3.04,7.62-8.38Zm-.8,68.27c.62-3.82-1.13-4.69-4.32-3.78-4.63,1.32-9.22,2.8-13.89,3.94-4.39,1.07-3.86,4.25-3.3,7.28,.67,3.62,3.63,3.13,5.96,2.39,4.02-1.27,7.81-3.29,11.85-4.49,3.07-.91,3.96-2.68,3.69-5.35Zm-39.81,6.71c-3.6,1.11-7.99,2.53-12.43,3.81-2.4,.69-3.9,1.86-2.86,4.53,1,2.57,1.41,6.32,5.5,5.22,4.44-1.2,8.72-3.02,13.02-4.68,3.03-1.17,1.72-3.42,1.02-5.34-.6-1.64-.42-4.17-4.25-3.55Zm3.93-46.43c-.38-1.9,1.09-5.02-3.11-5.2-6.02-.26-8.92,1.51-8.73,6.25,.11,2.78-1.6,7.14,4.05,7.03,6.25-.12,7.63-1.43,7.8-8.09Zm1.28-21.94c-.24-1.22,.89-4.61-2.53-3.7-3.64,.97-9.78-2.04-10.34,4.87-.22,2.74-1.57,7.04,4.04,7.02,6.61-.03,8.46-1.49,8.82-8.19Z"/>
    <path d="M329.62,129.87c.02,3.66-1.43,6.74-3.77,9.48-10.32,12.08-23.09,21.12-36.41,29.5-2.83,1.78-5.39,.53-7.7-.61-18.27-9.05-35.92-7.49-53.24,2.6-2.83,1.65-5.9,2.93-8.91,4.25-4.96,2.18-9.73,1.6-13.34-2.43-13.57-15.1-30.5-27.01-41.97-44.11-1.18-1.76-2.55-3.41-3.71-5.19-.8-1.24-2.55-2.52-1.6-4.02,1.06-1.68,3.14-2.38,5.17-1.85,4.11,1.08,8.34,1.96,12.22,3.63,4.98,2.14,9.32,1.81,14.37-.24,18.31-7.42,36.86-14.25,56.06-19.02,3.47-.86,4.57-2.93,5.65-5.76,1.85-4.85,4.12-5.55,7.45-1.67,3.73,4.34,8.13,5.73,13.61,6.31,14.5,1.54,28.57,5.14,42.16,10.48,9.29,3.65,13.9,9.93,13.97,18.65Zm-45.91,24.05c3.81,1.07,5.47-.87,6.99-2.95,4-5.46,7.19-11.41,10.38-17.37,1.95-3.65,1.06-6.1-2.19-8.28-5.48-3.66-11.27-6.66-17.41-9.05-9.85-3.83-9.77-3.9-12.71,5.6-1.02,3.31-2.4,6.51-3.47,9.82-1.78,5.5-3.43,11.05-5.13,16.57-.69,2.23-.46,3.58,2.44,3.78,7.31,.5,14.6,1.28,21.11,1.88Zm-57.95,.97c-1.61-9.15-3.12-18.32-4.89-27.44-.71-3.67-3.55-2.91-6.01-2.03-5.72,2.06-11.56,3.19-17.66,2.94-1.23-.05-2.9-.61-3.54,1.08-.46,1.23,.5,2.25,1.25,3.07,8.01,8.69,16.07,17.32,24.1,25.99,1.4,1.51,2.93,1.67,4.71,.77,1.87-.94,2.27-2.5,2.05-4.39Zm21.23-20.81s-.07,0-.1,0c.35-4.43,.79-8.85,1.01-13.28,.09-1.79,1.4-4.38-.79-5.25-3.26-1.28-6.36,.55-9.31,2-2.46,1.22-1.67,3.15-.96,4.97,2.74,7.04,3.07,14.27,1.82,21.65-.45,2.66-.84,5.34-1.29,8-.24,1.44-.34,3.14,1.66,2.72,3.19-.67,7.08-.52,6.97-5.79-.1-5,.63-10.01,.99-15.01Z"/>
    <path class="cls-2" d="M300.03,273.21c-21.5-1.31-42.44,5.19-63.49,11.22-16.19,4.63-32.37,9.61-49.59,7.82-10.03-1.04-20.05-2.17-28.9-7.66-1.58-.98-3.87-1.78-3.72-3.96,.14-1.91,2.44-2.19,3.9-3.06,6.62-3.91,13.65-3.74,20.83-2.16,12.12,2.67,24.25,5.07,36.8,3.26,4.4-.64,7.04-2.84,8.18-7.03,.98-3.58,.78-6.4-3.6-7.67-4.12-1.19-4.51-3.95-1.86-7.04,4.7-5.48,8.29-11.66,11.85-17.89,1.72-3.01,3.95-5.67,7.84-4.47,3.82,1.18,2.6,4.65,2.57,7.42-.09,7.88-2.72,15.19-5.12,22.55-.76,2.32-2.22,5.17,.85,6.71,3.18,1.59,5-1.05,6.52-3.31,4.56-6.79,7.82-14.21,10.8-21.8,2.22-5.64,1.29-10.33-3.51-13.94-3.69-2.77-3.52-5.33-.67-8.57,4.07-4.63,9.05-7.82,14.69-10.09,4.33-1.75,7.01,.86,9.36,3.85,5.44,6.91,5.67,18.98,.74,27.51-1.84,3.18-3.72,6.38-5.08,9.77-2.47,6.18-1.39,7.48,5.01,6.16,9.5-1.96,19.06-3.41,28.71-4.17,8.68-.68,17.42-1.27,25.99,.94,5.96,1.54,6.51,3.21,2.62,7.75-4.58,5.35-9.82,9.07-17.57,7.96-4.36-.62-8.89-.11-14.17-.11Z"/>
  </g>
</svg>