<?xml version="1.0" encoding="UTF-8"?>
<svg id="Layer_1" data-name="Layer 1" xmlns="http://www.w3.org/2000/svg" viewBox="0 0 500 500">
  <defs>
    <style>
      .cls-1 {
        fill: #fff;
      }

      .cls-2 {
        fill: #0e1329;
      }

      .cls-3 {
        fill: #831618;
      }
    </style>
  </defs>
  <g>
    <g>
      <path d="M401.46,291.39c0-77.26,.02-154.52,0-231.78,0-10.23-3.92-18.78-11.41-25.72-7.13-6.62-15.7-9.27-25.28-9.25-19.92,.03-39.84,.03-59.76,.03-58.61,0-117.22-.02-175.83-.03-11.25,0-20.56,4.3-27.93,12.8-6.22,7.16-8.29,15.61-8.28,24.93,.08,59.07,.04,118.14,.04,177.2,0,49.28-.01,98.56,0,147.85,0,11.62-.06,23.25,.17,34.87,.17,8.15,3.5,15.14,8.97,21.14,8.01,8.79,18.14,11.81,29.79,11.79,72.42-.12,144.85-.03,217.27-.1,7.93-.01,15.93,.83,23.79-.63,16.91-3.15,28.43-17.49,28.44-35.31,.03-42.6-.01-85.2-.01-127.81Zm-2.41-51.45h-.05c0,58.95,0,117.9,0,176.85,0,4.97-.29,9.89-2.05,14.62-4.77,12.86-17.1,21.24-31.42,21.24-76.68,0-153.37-.02-230.04-.03-2.54,0-5.07,.06-7.6-.03-18.05-.64-31.62-14.17-32.34-32.2-.03-.92-.02-1.84-.02-2.76,0-118.48,.02-236.95-.03-355.43,0-9.66,2.6-18.14,9.55-25.07,6.91-6.88,15.25-9.94,24.95-9.93,56.53,.06,113.07,.03,169.6,.03,22.11,0,44.22-.09,66.32,.03,16.42,.09,29.42,10.83,32.51,26.54,.83,4.21,.62,8.48,.62,12.74,0,57.8,0,115.6,0,173.4Z"/>
      <path class="cls-1" d="M399.05,239.93h-.05c0,58.95,0,117.9,0,176.85,0,4.97-.29,9.89-2.05,14.62-4.77,12.86-17.1,21.24-31.42,21.24-76.68,0-153.37-.02-230.04-.03-2.54,0-5.07,.06-7.6-.03-18.05-.64-31.62-14.17-32.34-32.2-.03-.92-.02-1.84-.02-2.76,0-118.48,.02-236.95-.03-355.43,0-9.66,2.6-18.14,9.55-25.07,6.91-6.88,15.25-9.94,24.95-9.93,56.53,.06,113.07,.03,169.6,.03,22.11,0,44.22-.09,66.32,.03,16.42,.09,29.42,10.83,32.51,26.54,.83,4.21,.62,8.48,.62,12.74,0,57.8,0,115.6,0,173.4Z"/>
    </g>
    <path class="cls-3" d="M122.24,121.93V48.77h10.31l23.45,37.02c5.43,8.58,9.66,16.28,13.14,23.77l.22-.11c-.87-9.77-1.09-18.67-1.09-30.07v-30.61h8.9V121.93h-9.55l-23.23-37.13c-5.1-8.14-9.99-16.5-13.68-24.42l-.33,.11c.54,9.23,.76,18.02,.76,30.18v31.26h-8.9Z"/>
  </g>
  <path class="cls-2" d="M144.17,252.08c7.24,2.4,14.24,4.56,21.44,6.14,5.05,1.11,8.09,.53,8.58-5.31,.13-1.52,.51-3.32,2.13-4.27,.39,.2,1.02,.36,1.02,.53,.1,9.49,5.01,14.92,13.83,17.99,4.21,1.47,7.56,5.05,6.57,10.3-.95,5.06-5.55,7.1-9.51,6.81-10.96-.8-12.53,5.91-13.92,14.32-2.75,16.61-7.36,32.84-11.35,49.19-1.18,4.82-3.8,11.16,.37,14.3,3.35,2.52,8.47-1.85,12.45-3.99,12.26-6.59,23.67-14.52,34.93-22.68,3.71-2.69,5.68-6.25,6.06-10.59,2.27-25.87,2.16-51.72-1.39-77.46-1.32-9.55-5.31-17.9-12.49-24.91-7.64-7.45-8.81-15.38-5.03-22.84,1.58-3.12,3.37-4.24,6.99-3.07,9.21,2.97,18.48,5.79,27.84,8.22,9.75,2.53,15.2,9.16,18.81,17.98,1.03,2.51,.8,4.26-1.38,6.03-7.86,6.39-11.01,15.09-12.01,24.88-1.95,19.07-2.52,38.22-3.24,57.36-.06,1.61-.75,3.77,.78,4.74,2.02,1.28,3.4-.97,4.78-1.99,6.44-4.74,12.72-9.69,19.14-14.47,2.03-1.52,2.91-3.29,2.95-5.86,.29-18.98,3.24-37.74,4.75-56.61,.69-8.58,1.25-17.18-1.39-25.67-2.18-7.02-6.23-12.5-12.65-15.82-4.12-2.13-4.17-4.53-2.38-8.1,3.05-6.09,6.86-11.57,11.94-16.14,2.82-2.53,5.66-5.04,8.47-7.58,8.42-7.58,8.51-7.66,15.96,1.21,6.09,7.24,12.01,14.62,15.89,23.41,2.46,5.57,2.1,10.34-3.29,13.75-13.1,8.3-16.32,21.48-17.02,35.46-.7,13.87-.24,27.79-.48,41.68-.07,4.3,1.33,4.05,4.29,2.17,5.86-3.73,11.87-7.21,17.79-10.85,7.62-4.69,11.89-11.41,11.04-20.47-.45-4.75,1.87-6.39,5.66-7.48,11.1-3.18,27.31,2.33,34.11,11.62,4.99,6.82,3.45,11.79-4.65,14.11-20.24,5.8-40.4,11.74-59.1,21.82-5.66,3.05-8.19,6.35-7.94,13.16,.54,14.32,.37,28.61,4.5,42.54,2.15,7.25,6.68,11.97,13.8,14.35,15.99,5.34,32.03,3.1,48.07,.31,5.39-.94,10.72-2.3,16.14-2.91,9.63-1.08,13.48,4.24,9.71,13.15-2.42,5.71-6.84,9.44-12.45,11.94-17.38,7.74-35.9,8.35-54.45,8.82-10.36,.26-20.6,.04-30.21-4.82-10.25-5.19-15.59-13.1-14.83-24.8,1.08-16.64,.02-33.23-1.11-49.83-.33-4.82-2.09-4.22-4.85-1.97-6.86,5.58-13.6,11.31-20.59,16.71-3.47,2.69-2.62,5.86-1.9,9.14,2.24,10.32-.92,18.66-9.1,25.18-5.31,4.23-10.69,2.59-12.62-3.85-.42-1.4-.51-2.92-1.04-4.27-1.64-4.1-3.63-5.38-7.87-2.16-13.13,9.93-24.62,21.72-37.36,32.06-10.19,8.28-20.76,15.94-34.66,16.63-4.96,.25-9.83,.39-12.98-4.4-3.36-5.11-3.17-10.5-.13-15.53,2.37-3.94,5.46-7.45,8.23-11.15,18.3-24.35,31.33-51.25,39.19-80.68,.84-3.16,.29-4.87-2.41-6.82-8.05-5.83-15.49-12.34-19.46-21.86-.79-1.91-1.93-3.76-.99-6.77Z"/>
</svg>