  0
SECTION
  2
HEADER
  9
$ACADVER
  1
AC1032
  9
$ACADMAINTVER
 90
      228
  9
$DWGCODEPAGE
  3
ANSI_1252
  9
$REQUIREDVERSIONS
160
                 0
  9
$INSBASE
 10
0.0
 20
0.0
 30
0.0
  9
$EXTMIN
 10
1.000000000000000E+20
 20
1.000000000000000E+20
 30
1.000000000000000E+20
  9
$EXTMAX
 10
-1.000000000000000E+20
 20
-1.000000000000000E+20
 30
-1.000000000000000E+20
  9
$LIMMIN
 10
0.0
 20
0.0
  9
$LIMMAX
 10
12.0
 20
9.0
  9
$ORTHOMODE
 70
     0
  9
$REGENMODE
 70
     1
  9
$FILLMODE
 70
     1
  9
$QTEXTMODE
 70
     0
  9
$MIRRTEXT
 70
     0
  9
$LTSCALE
 40
1.0
  9
$ATTMODE
 70
     1
  9
$TEXTSIZE
 40
0.2
  9
$TRACEWID
 40
0.05
  9
$TEXTSTYLE
  7
Standard
  9
$CLAYER
  8
0
  9
$CELTYPE
  6
ByLayer
  9
$CECOLOR
 62
   256
  9
$CELTSCALE
 40
1.0
  9
$DISPSILH
 70
     0
  9
$DIMSCALE
 40
1.0
  9
$DIMASZ
 40
0.18
  9
$DIMEXO
 40
0.0625
  9
$DIMDLI
 40
0.38
  9
$DIMRND
 40
0.0
  9
$DIMDLE
 40
0.0
  9
$DIMEXE
 40
0.18
  9
$DIMTP
 40
0.0
  9
$DIMTM
 40
0.0
  9
$DIMTXT
 40
0.18
  9
$DIMCEN
 40
0.09
  9
$DIMTSZ
 40
0.0
  9
$DIMTOL
 70
     0
  9
$DIMLIM
 70
     0
  9
$DIMTIH
 70
     1
  9
$DIMTOH
 70
     1
  9
$DIMSE1
 70
     0
  9
$DIMSE2
 70
     0
  9
$DIMTAD
 70
     0
  9
$DIMZIN
 70
     0
  9
$DIMBLK
  1

  9
$DIMASO
 70
     1
  9
$DIMSHO
 70
     1
  9
$DIMPOST
  1

  9
$DIMAPOST
  1

  9
$DIMALT
 70
     0
  9
$DIMALTD
 70
     2
  9
$DIMALTF
 40
25.4
  9
$DIMLFAC
 40
1.0
  9
$DIMTOFL
 70
     0
  9
$DIMTVP
 40
0.0
  9
$DIMTIX
 70
     0
  9
$DIMSOXD
 70
     0
  9
$DIMSAH
 70
     0
  9
$DIMBLK1
  1

  9
$DIMBLK2
  1

  9
$DIMSTYLE
  2
Standard
  9
$DIMCLRD
 70
     0
  9
$DIMCLRE
 70
     0
  9
$DIMCLRT
 70
     0
  9
$DIMTFAC
 40
1.0
  9
$DIMGAP
 40
0.09
  9
$DIMJUST
 70
     0
  9
$DIMSD1
 70
     0
  9
$DIMSD2
 70
     0
  9
$DIMTOLJ
 70
     1
  9
$DIMTZIN
 70
     0
  9
$DIMALTZ
 70
     0
  9
$DIMALTTZ
 70
     0
  9
$DIMUPT
 70
     0
  9
$DIMDEC
 70
     4
  9
$DIMTDEC
 70
     4
  9
$DIMALTU
 70
     2
  9
$DIMALTTD
 70
     2
  9
$DIMTXSTY
  7
Standard
  9
$DIMAUNIT
 70
     0
  9
$DIMADEC
 70
     0
  9
$DIMALTRND
 40
0.0
  9
$DIMAZIN
 70
     0
  9
$DIMDSEP
 70
    46
  9
$DIMATFIT
 70
     3
  9
$DIMFRAC
 70
     0
  9
$DIMLDRBLK
  1

  9
$DIMLUNIT
 70
     2
  9
$DIMLWD
 70
    -2
  9
$DIMLWE
 70
    -2
  9
$DIMTMOVE
 70
     0
  9
$DIMFXL
 40
1.0
  9
$DIMFXLON
 70
     0
  9
$DIMJOGANG
 40
0.7853981633974483
  9
$DIMTFILL
 70
     0
  9
$DIMTFILLCLR
 70
     0
  9
$DIMARCSYM
 70
     0
  9
$DIMLTYPE
  6

  9
$DIMLTEX1
  6

  9
$DIMLTEX2
  6

  9
$DIMTXTDIRECTION
 70
     0
  9
$LUNITS
 70
     2
  9
$LUPREC
 70
     4
  9
$SKETCHINC
 40
0.1
  9
$FILLETRAD
 40
0.0
  9
$AUNITS
 70
     0
  9
$AUPREC
 70
     0
  9
$MENU
  1
.
  9
$ELEVATION
 40
0.0
  9
$PELEVATION
 40
0.0
  9
$THICKNESS
 40
0.0
  9
$LIMCHECK
 70
     0
  9
$CHAMFERA
 40
0.0
  9
$CHAMFERB
 40
0.0
  9
$CHAMFERC
 40
0.0
  9
$CHAMFERD
 40
0.0
  9
$SKPOLY
 70
     0
  9
$TDCREATE
 40
2460929.580185185
  9
$TDUCREATE
 40
2460929.371851852
  9
$TDUPDATE
 40
2460929.580185185
  9
$TDUUPDATE
 40
2460929.371851852
  9
$TDINDWG
 40
0.0000000000
  9
$TDUSRTIMER
 40
0.0000000000
  9
$USRTIMER
 70
     1
  9
$ANGBASE
 50
0.0
  9
$ANGDIR
 70
     0
  9
$PDMODE
 70
     0
  9
$PDSIZE
 40
0.0
  9
$PLINEWID
 40
0.0
  9
$SPLFRAME
 70
     0
  9
$SPLINETYPE
 70
     6
  9
$SPLINESEGS
 70
     8
  9
$HANDSEED
  5
8A
  9
$SURFTAB1
 70
     6
  9
$SURFTAB2
 70
     6
  9
$SURFTYPE
 70
     6
  9
$SURFU
 70
     6
  9
$SURFV
 70
     6
  9
$UCSBASE
  2

  9
$UCSNAME
  2

  9
$UCSORG
 10
0.0
 20
0.0
 30
0.0
  9
$UCSXDIR
 10
1.0
 20
0.0
 30
0.0
  9
$UCSYDIR
 10
0.0
 20
1.0
 30
0.0
  9
$UCSORTHOREF
  2

  9
$UCSORTHOVIEW
 70
     0
  9
$UCSORGTOP
 10
0.0
 20
0.0
 30
0.0
  9
$UCSORGBOTTOM
 10
0.0
 20
0.0
 30
0.0
  9
$UCSORGLEFT
 10
0.0
 20
0.0
 30
0.0
  9
$UCSORGRIGHT
 10
0.0
 20
0.0
 30
0.0
  9
$UCSORGFRONT
 10
0.0
 20
0.0
 30
0.0
  9
$UCSORGBACK
 10
0.0
 20
0.0
 30
0.0
  9
$PUCSBASE
  2

  9
$PUCSNAME
  2

  9
$PUCSORG
 10
0.0
 20
0.0
 30
0.0
  9
$PUCSXDIR
 10
1.0
 20
0.0
 30
0.0
  9
$PUCSYDIR
 10
0.0
 20
1.0
 30
0.0
  9
$PUCSORTHOREF
  2

  9
$PUCSORTHOVIEW
 70
     0
  9
$PUCSORGTOP
 10
0.0
 20
0.0
 30
0.0
  9
$PUCSORGBOTTOM
 10
0.0
 20
0.0
 30
0.0
  9
$PUCSORGLEFT
 10
0.0
 20
0.0
 30
0.0
  9
$PUCSORGRIGHT
 10
0.0
 20
0.0
 30
0.0
  9
$PUCSORGFRONT
 10
0.0
 20
0.0
 30
0.0
  9
$PUCSORGBACK
 10
0.0
 20
0.0
 30
0.0
  9
$USERI1
 70
     0
  9
$USERI2
 70
     0
  9
$USERI3
 70
     0
  9
$USERI4
 70
     0
  9
$USERI5
 70
     0
  9
$USERR1
 40
0.0
  9
$USERR2
 40
0.0
  9
$USERR3
 40
0.0
  9
$USERR4
 40
0.0
  9
$USERR5
 40
0.0
  9
$WORLDVIEW
 70
     1
  9
$SHADEDGE
 70
     3
  9
$SHADEDIF
 70
    70
  9
$TILEMODE
 70
     1
  9
$MAXACTVP
 70
    64
  9
$PINSBASE
 10
0.0
 20
0.0
 30
0.0
  9
$PLIMCHECK
 70
     0
  9
$PEXTMIN
 10
1.000000000000000E+20
 20
1.000000000000000E+20
 30
1.000000000000000E+20
  9
$PEXTMAX
 10
-1.000000000000000E+20
 20
-1.000000000000000E+20
 30
-1.000000000000000E+20
  9
$PLIMMIN
 10
0.0
 20
0.0
  9
$PLIMMAX
 10
12.0
 20
9.0
  9
$UNITMODE
 70
     0
  9
$VISRETAIN
 70
     1
  9
$PLINEGEN
 70
     0
  9
$PSLTSCALE
 70
     1
  9
$TREEDEPTH
 70
  3020
  9
$CMLSTYLE
  2
Standard
  9
$CMLJUST
 70
     0
  9
$CMLSCALE
 40
1.0
  9
$PROXYGRAPHICS
 70
     1
  9
$MEASUREMENT
 70
     0
  9
$CELWEIGHT
370
    -1
  9
$ENDCAPS
280
     0
  9
$JOINSTYLE
280
     0
  9
$LWDISPLAY
290
     1
  9
$INSUNITS
 70
     0
  9
$HYPERLINKBASE
  1

  9
$STYLESHEET
  1

  9
$XEDIT
290
     1
  9
$CEPSNTYPE
380
     0
  9
$PSTYLEMODE
290
     1
  9
$FINGERPRINTGUID
  2
{99F53C62-078F-5B44-952B-100AFC40BF29}
  9
$VERSIONGUID
  2
{7BB5931E-7B7C-B740-9E5C-09E1C4E3F7DE}
  9
$EXTNAMES
290
     1
  9
$PSVPSCALE
 40
0.0
  9
$OLESTARTUP
290
     0
  9
$SORTENTS
280
   127
  9
$INDEXCTL
280
     0
  9
$HIDETEXT
280
     1
  9
$XCLIPFRAME
280
     2
  9
$HALOGAP
280
     0
  9
$OBSCOLOR
 70
   257
  9
$OBSLTYPE
280
     0
  9
$INTERSECTIONDISPLAY
280
     0
  9
$INTERSECTIONCOLOR
 70
   257
  9
$DIMASSOC
280
     2
  9
$PROJECTNAME
  1

  9
$CAMERADISPLAY
290
     0
  9
$LENSLENGTH
 40
50.0
  9
$CAMERAHEIGHT
 40
0.0
  9
$STEPSPERSEC
 40
2.0
  9
$STEPSIZE
 40
6.0
  9
$3DDWFPREC
 40
2.0
  9
$PSOLWIDTH
 40
0.25
  9
$PSOLHEIGHT
 40
4.0
  9
$LOFTANG1
 40
1.570796326794896
  9
$LOFTANG2
 40
1.570796326794896
  9
$LOFTMAG1
 40
0.0
  9
$LOFTMAG2
 40
0.0
  9
$LOFTPARAM
 70
     7
  9
$LOFTNORMALS
280
     1
  9
$LATITUDE
 40
37.795
  9
$LONGITUDE
 40
-122.394
  9
$NORTHDIRECTION
 40
0.0
  9
$TIMEZONE
 70
 -8000
  9
$LIGHTGLYPHDISPLAY
280
     1
  9
$TILEMODELIGHTSYNCH
280
     1
  9
$CMATERIAL
347
11
  9
$SOLIDHIST
280
     0
  9
$SHOWHIST
280
     1
  9
$DWFFRAME
280
     2
  9
$DGNFRAME
280
     0
  9
$REALWORLDSCALE
290
     1
  9
$INTERFERECOLOR
 62
     1
  9
$INTERFEREOBJVS
345
33
  9
$INTERFEREVPVS
346
30
  9
$CSHADOW
280
     0
  9
$SHADOWPLANELOCATION
 40
0.0
  0
ENDSEC
  0
SECTION
  2
CLASSES
  0
CLASS
  1
ACDBDICTIONARYWDFLT
  2
AcDbDictionaryWithDefault
  3
ObjectDBX Classes
 90
        0
 91
        1
280
     0
281
     0
  0
CLASS
  1
MATERIAL
  2
AcDbMaterial
  3
ObjectDBX Classes
 90
     1153
 91
        3
280
     0
281
     0
  0
CLASS
  1
VISUALSTYLE
  2
AcDbVisualStyle
  3
ObjectDBX Classes
 90
     4095
 91
       24
280
     0
281
     0
  0
CLASS
  1
SCALE
  2
AcDbScale
  3
ObjectDBX Classes
 90
     1153
 91
       17
280
     0
281
     0
  0
CLASS
  1
TABLESTYLE
  2
AcDbTableStyle
  3
ObjectDBX Classes
 90
     4095
 91
        1
280
     0
281
     0
  0
CLASS
  1
MLEADERSTYLE
  2
AcDbMLeaderStyle
  3
ACDB_MLEADERSTYLE_CLASS
 90
     4095
 91
        1
280
     0
281
     0
  0
CLASS
  1
ACDBSECTIONVIEWSTYLE
  2
AcDbSectionViewStyle
  3
ObjectDBX Classes
 90
     1025
 91
        1
280
     0
281
     0
  0
CLASS
  1
ACDBDETAILVIEWSTYLE
  2
AcDbDetailViewStyle
  3
ObjectDBX Classes
 90
     1025
 91
        1
280
     0
281
     0
  0
CLASS
  1
DICTIONARYVAR
  2
AcDbDictionaryVar
  3
ObjectDBX Classes
 90
        0
 91
        5
280
     0
281
     0
  0
CLASS
  1
CELLSTYLEMAP
  2
AcDbCellStyleMap
  3
ObjectDBX Classes
 90
     1152
 91
        1
280
     0
281
     0
  0
ENDSEC
  0
SECTION
  2
TABLES
  0
TABLE
  2
VPORT
  5
8
330
0
100
AcDbSymbolTable
 70
     1
  0
VPORT
  5
57
330
8
100
AcDbSymbolTableRecord
100
AcDbViewportTableRecord
  2
*Active
 70
     0
 10
0.0
 20
0.0
 11
1.0
 21
1.0
 12
0.0
 22
0.0
 13
0.0
 23
0.0
 14
1.0
 24
1.0
 15
0.0
 25
0.0
 16
0.0
 26
0.0
 36
1.0
 17
2070.329143804109
 27
-1549.708560332395
 37
0.0
 40
3099.36839297975
 41
1.304893925962813
 42
50.0
 43
0.0
 44
0.0
 50
0.0
 51
0.0
 71
     0
 72
   100
 73
     1
 74
     1
 75
     0
 76
     0
 77
     0
 78
     0
281
     0
 65
     1
110
0.0
120
0.0
130
0.0
111
1.0
121
0.0
131
0.0
112
0.0
122
1.0
132
0.0
 79
     0
146
0.0
 60
     3
 61
     5
292
     1
282
     1
141
0.0
142
0.0
 63
   250
421
  3355443
  0
ENDTAB
  0
TABLE
  2
LTYPE
  5
5
330
0
100
AcDbSymbolTable
 70
     1
  0
LTYPE
  5
5B
330
5
100
AcDbSymbolTableRecord
100
AcDbLinetypeTableRecord
  2
ByBlock
 70
     0
  3

 72
    65
 73
     0
 40
0.0
  0
LTYPE
  5
5C
330
5
100
AcDbSymbolTableRecord
100
AcDbLinetypeTableRecord
  2
ByLayer
 70
     0
  3

 72
    65
 73
     0
 40
0.0
  0
LTYPE
  5
5D
330
5
100
AcDbSymbolTableRecord
100
AcDbLinetypeTableRecord
  2
Continuous
 70
     0
  3
Solid line
 72
    65
 73
     0
 40
0.0
  0
ENDTAB
  0
TABLE
  2
LAYER
  5
2
330
0
100
AcDbSymbolTable
 70
     2
  0
LAYER
  5
54
330
2
100
AcDbSymbolTableRecord
100
AcDbLayerTableRecord
  2
0
 70
     0
 62
     7
  6
Continuous
370
    -3
390
F
347
21
348
0
  0
LAYER
  5
78
330
2
100
AcDbSymbolTableRecord
100
AcDbLayerTableRecord
  2
Layer 1
 70
     0
 62
     7
  6
Continuous
370
     0
390
F
347
21
348
0
  0
ENDTAB
  0
TABLE
  2
STYLE
  5
3
330
0
100
AcDbSymbolTable
 70
     2
  0
STYLE
  5
55
330
3
100
AcDbSymbolTableRecord
100
AcDbTextStyleTableRecord
  2
Standard
 70
     0
 40
0.0
 41
1.0
 50
0.0
 71
     0
 42
0.2
  3
txt
  4

  0
STYLE
  5
5A
330
3
100
AcDbSymbolTableRecord
100
AcDbTextStyleTableRecord
  2
Annotative
 70
     0
 40
0.0
 41
1.0
 50
0.0
 71
     0
 42
0.2
  3
txt
  4

1001
AcadAnnotative
1000
AnnotativeData
1002
{
1070
     1
1070
     1
1002
}
  0
ENDTAB
  0
TABLE
  2
VIEW
  5
6
330
0
100
AcDbSymbolTable
 70
     0
  0
ENDTAB
  0
TABLE
  2
UCS
  5
7
330
0
100
AcDbSymbolTable
 70
     0
  0
ENDTAB
  0
TABLE
  2
APPID
  5
9
330
0
100
AcDbSymbolTable
 70
     2
  0
APPID
  5
56
330
9
100
AcDbSymbolTableRecord
100
AcDbRegAppTableRecord
  2
ACAD
 70
     0
  0
APPID
  5
5E
330
9
100
AcDbSymbolTableRecord
100
AcDbRegAppTableRecord
  2
AcadAnnotative
 70
     0
  0
ENDTAB
  0
TABLE
  2
DIMSTYLE
  5
A
330
0
100
AcDbSymbolTable
 70
     2
100
AcDbDimStyleTable
 71
     0
  0
DIMSTYLE
105
58
330
A
100
AcDbSymbolTableRecord
100
AcDbDimStyleTableRecord
  2
Standard
 70
     0
340
55
  0
DIMSTYLE
105
59
330
A
100
AcDbSymbolTableRecord
100
AcDbDimStyleTableRecord
  2
Annotative
 70
     0
340
55
1001
AcadAnnotative
1000
AnnotativeData
1002
{
1070
     1
1070
     1
1002
}
  0
ENDTAB
  0
TABLE
  2
BLOCK_RECORD
  5
1
330
0
100
AcDbSymbolTable
 70
     1
  0
BLOCK_RECORD
  5
70
330
1
100
AcDbSymbolTableRecord
100
AcDbBlockTableRecord
  2
*Model_Space
340
73
 70
     0
280
     1
281
     0
  0
BLOCK_RECORD
  5
6C
330
1
100
AcDbSymbolTableRecord
100
AcDbBlockTableRecord
  2
*Paper_Space
340
6F
 70
     0
280
     1
281
     0
  0
BLOCK_RECORD
  5
74
330
1
100
AcDbSymbolTableRecord
100
AcDbBlockTableRecord
  2
*Paper_Space0
340
77
 70
     0
280
     1
281
     0
  0
ENDTAB
  0
ENDSEC
  0
SECTION
  2
BLOCKS
  0
BLOCK
  5
71
330
70
100
AcDbEntity
  8
0
100
AcDbBlockBegin
  2
*Model_Space
 70
     0
 10
0.0
 20
0.0
 30
0.0
  3
*Model_Space
  1

  0
ENDBLK
  5
72
330
70
100
AcDbEntity
  8
0
100
AcDbBlockEnd
  0
BLOCK
  5
6D
330
6C
100
AcDbEntity
 67
     1
  8
0
100
AcDbBlockBegin
  2
*Paper_Space
 70
     0
 10
0.0
 20
0.0
 30
0.0
  3
*Paper_Space
  1

  0
ENDBLK
  5
6E
330
6C
100
AcDbEntity
 67
     1
  8
0
100
AcDbBlockEnd
  0
BLOCK
  5
75
330
74
100
AcDbEntity
 67
     1
  8
0
100
AcDbBlockBegin
  2
*Paper_Space0
 70
     0
 10
0.0
 20
0.0
 30
0.0
  3
*Paper_Space0
  1

  0
ENDBLK
  5
76
330
74
100
AcDbEntity
 67
     1
  8
0
100
AcDbBlockEnd
  0
ENDSEC
  0
SECTION
  2
ENTITIES
  0
SPLINE
  5
79
330
70
100
AcDbEntity
  8
Layer 1
100
AcDbSpline
210
0.0
220
0.0
230
1.0
 70
     9
 71
     3
 72
    53
 73
    49
 74
     0
 42
0.0000000001
 43
0.0000000001
 40
0.0
 40
0.0
 40
0.0
 40
0.0
 40
1.0
 40
1.0
 40
1.0
 40
2.0
 40
2.0
 40
2.0
 40
3.0
 40
3.0
 40
3.0
 40
4.0
 40
4.0
 40
4.0
 40
5.0
 40
5.0
 40
5.0
 40
6.0
 40
6.0
 40
6.0
 40
7.0
 40
7.0
 40
7.0
 40
8.0
 40
8.0
 40
8.0
 40
9.0
 40
9.0
 40
9.0
 40
10.0
 40
10.0
 40
10.0
 40
11.0
 40
11.0
 40
11.0
 40
12.0
 40
12.0
 40
12.0
 40
13.0
 40
13.0
 40
13.0
 40
14.0
 40
14.0
 40
14.0
 40
15.0
 40
15.0
 40
15.0
 40
16.0
 40
16.0
 40
16.0
 40
16.0
 10
3519.049159628224
 20
-1799.933915424748
 30
0.0
 10
3519.049159628224
 20
-1799.933915424748
 30
0.0
 10
3519.000833252589
 20
-1799.933915424748
 30
0.0
 10
3519.000833252589
 20
-1799.933915424748
 30
0.0
 10
3519.000833252589
 20
-1858.882099499231
 30
0.0
 10
3518.993917436181
 20
-1917.830283573712
 30
0.0
 10
3519.007749069
 20
-1976.785341294988
 30
0.0
 10
3519.007749069
 20
-1981.759879603524
 30
0.0
 10
3518.717537797527
 20
-1986.672259903604
 30
0.0
 10
3516.962691553543
 20
-1991.404955485908
 30
0.0
 10
3512.195332549973
 20
-2004.262723277214
 30
0.0
 10
3499.862745109573
 20
-2012.643427675648
 30
0.0
 10
3485.54017366731
 20
-2012.643427675648
 30
0.0
 10
3408.856420583479
 20
-2012.63651185924
 30
0.0
 10
3332.172667499652
 20
-2012.622722396034
 30
0.0
 10
3255.495830232232
 20
-2012.608890763218
 30
0.0
 10
3252.960171447916
 20
-2012.608890763218
 30
0.0
 10
3250.424597002822
 20
-2012.67104877167
 30
0.0
 10
3247.89585403491
 20
-2012.581269667196
 30
0.0
 10
3229.849368474477
 20
-2011.938689115803
 30
0.0
 10
3216.273030490511
 20
-1998.410761846691
 30
0.0
 10
3215.554544637072
 20
-1980.384981565872
 30
0.0
 10
3215.519965555034
 20
-1979.466063545431
 30
0.0
 10
3215.533797187849
 20
-1978.547187694603
 30
0.0
 10
3215.533797187849
 20
-1977.621353857754
 30
0.0
 10
3215.533797187849
 20
-1859.144647505073
 30
0.0
 10
3215.554544637072
 20
-1740.667898982772
 30
0.0
 10
3215.499218105807
 20
-1622.191192630087
 30
0.0
 10
3215.499218105807
 20
-1612.532327284496
 30
0.0
 10
3218.097034898574
 20
-1604.054885795574
 30
0.0
 10
3225.047599067317
 20
-1597.118153259647
 30
0.0
 10
3231.956668337609
 20
-1590.23674725499
 30
0.0
 10
3240.295877837592
 20
-1587.182992614625
 30
0.0
 10
3249.996153742408
 20
-1587.189908431033
 30
0.0
 10
3306.526205741901
 20
-1587.245066283851
 30
0.0
 10
3363.063173557797
 20
-1587.217487357442
 30
0.0
 10
3419.593056878841
 20
-1587.217487357442
 30
0.0
 10
3441.702078543777
 20
-1587.217487357442
 30
0.0
 10
3463.811100208708
 20
-1587.127666083359
 30
0.0
 10
3485.913290396459
 20
-1587.251982100259
 30
0.0
 10
3502.336077206992
 20
-1587.341887713565
 30
0.0
 10
3515.332076987239
 20
-1598.078608348152
 30
0.0
 10
3518.420410709643
 20
-1613.789825121656
 30
0.0
 10
3519.249549625615
 20
-1617.997340353055
 30
0.0
 10
3519.035412334632
 20
-1622.274098087762
 30
0.0
 10
3519.042243811817
 20
-1626.530108373247
 30
0.0
 10
3519.049159628224
 20
-1684.331321164265
 30
0.0
 10
3519.049159628224
 20
-1742.132702633729
 30
0.0
 10
3519.049159628224
 20
-1799.933915424748
 30
0.0
  0
SPLINE
  5
7A
330
70
100
AcDbEntity
  8
Layer 1
100
AcDbSpline
210
0.0
220
0.0
230
1.0
 70
     9
 71
     3
 72
    53
 73
    49
 74
     0
 42
0.0000000001
 43
0.0000000001
 40
0.0
 40
0.0
 40
0.0
 40
0.0
 40
1.0
 40
1.0
 40
1.0
 40
2.0
 40
2.0
 40
2.0
 40
3.0
 40
3.0
 40
3.0
 40
4.0
 40
4.0
 40
4.0
 40
5.0
 40
5.0
 40
5.0
 40
6.0
 40
6.0
 40
6.0
 40
7.0
 40
7.0
 40
7.0
 40
8.0
 40
8.0
 40
8.0
 40
9.0
 40
9.0
 40
9.0
 40
10.0
 40
10.0
 40
10.0
 40
11.0
 40
11.0
 40
11.0
 40
12.0
 40
12.0
 40
12.0
 40
13.0
 40
13.0
 40
13.0
 40
14.0
 40
14.0
 40
14.0
 40
15.0
 40
15.0
 40
15.0
 40
16.0
 40
16.0
 40
16.0
 40
16.0
 10
3521.460418056419
 20
-1851.385734039197
 30
0.0
 10
3521.460418056419
 20
-1774.128558568054
 30
0.0
 10
3521.481165505643
 20
-1696.864467280504
 30
0.0
 10
3521.467333872826
 20
-1619.607207470139
 30
0.0
 10
3521.467333872826
 20
-1609.37483539801
 30
0.0
 10
3517.542945418043
 20
-1600.828404423451
 30
0.0
 10
3510.060453760436
 20
-1593.884756071116
 30
0.0
 10
3502.930331382753
 20
-1587.265813733074
 30
0.0
 10
3494.356152803341
 20
-1584.612754748266
 30
0.0
 10
3484.780192915422
 20
-1584.63350219749
 30
0.0
 10
3464.861292232067
 20
-1584.667996940306
 30
0.0
 10
3444.942475887938
 20
-1584.667996940306
 30
0.0
 10
3425.023659543809
 20
-1584.667996940306
 30
0.0
 10
3366.41397094682
 20
-1584.661081123899
 30
0.0
 10
3307.804366689057
 20
-1584.647333830306
 30
0.0
 10
3249.194762431294
 20
-1584.640418013898
 30
0.0
 10
3237.939861601438
 20
-1584.640418013898
 30
0.0
 10
3228.633365535769
 20
-1588.944754675014
 30
0.0
 10
3221.261358262249
 20
-1597.435943457529
 30
0.0
 10
3215.036364441802
 20
-1604.600729256477
 30
0.0
 10
3212.970475137898
 20
-1613.050507479767
 30
0.0
 10
3212.984306770714
 20
-1622.370835178253
 30
0.0
 10
3213.067212228388
 20
-1681.443377439247
 30
0.0
 10
3213.025717329938
 20
-1740.509003883833
 30
0.0
 10
3213.025717329938
 20
-1799.574630328416
 30
0.0
 10
3213.025717329938
 20
-1848.857033240898
 30
0.0
 10
3213.011885697123
 20
-1898.139436153382
 30
0.0
 10
3213.032633146346
 20
-1947.421796896251
 30
0.0
 10
3213.032633146346
 20
-1959.042856469234
 30
0.0
 10
3212.970475137898
 20
-1970.670831858628
 30
0.0
 10
3213.205359878104
 20
-1982.29189143161
 30
0.0
 10
3213.371170793454
 20
-1990.444584736633
 30
0.0
 10
3216.701389411699
 20
-1997.429643648189
 30
0.0
 10
3222.173318296665
 20
-2003.433626530859
 30
0.0
 10
3230.187906121586
 20
-2012.221984570868
 30
0.0
 10
3240.309625131182
 20
-2015.248160284824
 30
0.0
 10
3251.96530595582
 20
-2015.2274128356
 30
0.0
 10
3324.386132937759
 20
-2015.109970465495
 30
0.0
 10
3396.813875736103
 20
-2015.199791739579
 30
0.0
 10
3469.234787057265
 20
-2015.130675745109
 30
0.0
 10
3477.166385085284
 20
-2015.116886281903
 30
0.0
 10
3485.167141277385
 20
-2015.959772491464
 30
0.0
 10
3493.029581141322
 20
-2014.501968996141
 30
0.0
 10
3509.942969220722
 20
-2011.351435095672
 30
0.0
 10
3521.460418056419
 20
-1997.008200543408
 30
0.0
 10
3521.474249689234
 20
-1979.196641892795
 30
0.0
 10
3521.508744432051
 20
-1936.595297157193
 30
0.0
 10
3521.460418056419
 20
-1893.993994591205
 30
0.0
 10
3521.460418056419
 20
-1851.385734039197
 30
0.0
  0
HATCH
  5
7B
330
70
100
AcDbEntity
  8
Layer 1
 62
    18
420
        0
440
 33554687
100
AcDbHatch
 10
0.0
 20
0.0
 30
0.0
210
0.0
220
0.0
230
1.0
  2
SOLID
 70
     1
 71
     1
 91
        2
 92
        1
 93
        1
 72
     4
 94
        3
 73
     0
 74
     0
 95
       53
 96
       49
 40
0.0
 40
0.0
 40
0.0
 40
0.0
 40
1.0
 40
1.0
 40
1.0
 40
2.0
 40
2.0
 40
2.0
 40
3.0
 40
3.0
 40
3.0
 40
4.0
 40
4.0
 40
4.0
 40
5.0
 40
5.0
 40
5.0
 40
6.0
 40
6.0
 40
6.0
 40
7.0
 40
7.0
 40
7.0
 40
8.0
 40
8.0
 40
8.0
 40
9.0
 40
9.0
 40
9.0
 40
10.0
 40
10.0
 40
10.0
 40
11.0
 40
11.0
 40
11.0
 40
12.0
 40
12.0
 40
12.0
 40
13.0
 40
13.0
 40
13.0
 40
14.0
 40
14.0
 40
14.0
 40
15.0
 40
15.0
 40
15.0
 40
16.0
 40
16.0
 40
16.0
 40
16.0
 10
3519.049159628224
 20
-1799.933915424748
 10
3519.049159628224
 20
-1799.933915424748
 10
3519.000833252589
 20
-1799.933915424748
 10
3519.000833252589
 20
-1799.933915424748
 10
3519.000833252589
 20
-1858.882099499231
 10
3518.993917436181
 20
-1917.830283573712
 10
3519.007749069
 20
-1976.785341294988
 10
3519.007749069
 20
-1981.759879603524
 10
3518.717537797527
 20
-1986.672259903604
 10
3516.962691553543
 20
-1991.404955485908
 10
3512.195332549973
 20
-2004.262723277214
 10
3499.862745109573
 20
-2012.643427675648
 10
3485.54017366731
 20
-2012.643427675648
 10
3408.856420583479
 20
-2012.63651185924
 10
3332.172667499652
 20
-2012.622722396034
 10
3255.495830232232
 20
-2012.608890763218
 10
3252.960171447916
 20
-2012.608890763218
 10
3250.424597002822
 20
-2012.67104877167
 10
3247.89585403491
 20
-2012.581269667196
 10
3229.849368474477
 20
-2011.938689115803
 10
3216.273030490511
 20
-1998.410761846691
 10
3215.554544637072
 20
-1980.384981565872
 10
3215.519965555034
 20
-1979.466063545431
 10
3215.533797187849
 20
-1978.547187694603
 10
3215.533797187849
 20
-1977.621353857754
 10
3215.533797187849
 20
-1859.144647505073
 10
3215.554544637072
 20
-1740.667898982772
 10
3215.499218105807
 20
-1622.191192630087
 10
3215.499218105807
 20
-1612.532327284496
 10
3218.097034898574
 20
-1604.054885795574
 10
3225.047599067317
 20
-1597.118153259647
 10
3231.956668337609
 20
-1590.23674725499
 10
3240.295877837592
 20
-1587.182992614625
 10
3249.996153742408
 20
-1587.189908431033
 10
3306.526205741901
 20
-1587.245066283851
 10
3363.063173557797
 20
-1587.217487357442
 10
3419.593056878841
 20
-1587.217487357442
 10
3441.702078543777
 20
-1587.217487357442
 10
3463.811100208708
 20
-1587.127666083359
 10
3485.913290396459
 20
-1587.251982100259
 10
3502.336077206992
 20
-1587.341887713565
 10
3515.332076987239
 20
-1598.078608348152
 10
3518.420410709643
 20
-1613.789825121656
 10
3519.249549625615
 20
-1617.997340353055
 10
3519.035412334632
 20
-1622.274098087762
 10
3519.042243811817
 20
-1626.530108373247
 10
3519.049159628224
 20
-1684.331321164265
 10
3519.049159628224
 20
-1742.132702633729
 10
3519.049159628224
 20
-1799.933915424748
 97
        0
 97
        1
330
79
 92
        1
 93
        1
 72
     4
 94
        3
 73
     0
 74
     0
 95
       53
 96
       49
 40
0.0
 40
0.0
 40
0.0
 40
0.0
 40
1.0
 40
1.0
 40
1.0
 40
2.0
 40
2.0
 40
2.0
 40
3.0
 40
3.0
 40
3.0
 40
4.0
 40
4.0
 40
4.0
 40
5.0
 40
5.0
 40
5.0
 40
6.0
 40
6.0
 40
6.0
 40
7.0
 40
7.0
 40
7.0
 40
8.0
 40
8.0
 40
8.0
 40
9.0
 40
9.0
 40
9.0
 40
10.0
 40
10.0
 40
10.0
 40
11.0
 40
11.0
 40
11.0
 40
12.0
 40
12.0
 40
12.0
 40
13.0
 40
13.0
 40
13.0
 40
14.0
 40
14.0
 40
14.0
 40
15.0
 40
15.0
 40
15.0
 40
16.0
 40
16.0
 40
16.0
 40
16.0
 10
3521.460418056419
 20
-1851.385734039197
 10
3521.460418056419
 20
-1774.128558568054
 10
3521.481165505643
 20
-1696.864467280504
 10
3521.467333872826
 20
-1619.607207470139
 10
3521.467333872826
 20
-1609.37483539801
 10
3517.542945418043
 20
-1600.828404423451
 10
3510.060453760436
 20
-1593.884756071116
 10
3502.930331382753
 20
-1587.265813733074
 10
3494.356152803341
 20
-1584.612754748266
 10
3484.780192915422
 20
-1584.63350219749
 10
3464.861292232067
 20
-1584.667996940306
 10
3444.942475887938
 20
-1584.667996940306
 10
3425.023659543809
 20
-1584.667996940306
 10
3366.41397094682
 20
-1584.661081123899
 10
3307.804366689057
 20
-1584.647333830306
 10
3249.194762431294
 20
-1584.640418013898
 10
3237.939861601438
 20
-1584.640418013898
 10
3228.633365535769
 20
-1588.944754675014
 10
3221.261358262249
 20
-1597.435943457529
 10
3215.036364441802
 20
-1604.600729256477
 10
3212.970475137898
 20
-1613.050507479767
 10
3212.984306770714
 20
-1622.370835178253
 10
3213.067212228388
 20
-1681.443377439247
 10
3213.025717329938
 20
-1740.509003883833
 10
3213.025717329938
 20
-1799.574630328416
 10
3213.025717329938
 20
-1848.857033240898
 10
3213.011885697123
 20
-1898.139436153382
 10
3213.032633146346
 20
-1947.421796896251
 10
3213.032633146346
 20
-1959.042856469234
 10
3212.970475137898
 20
-1970.670831858628
 10
3213.205359878104
 20
-1982.29189143161
 10
3213.371170793454
 20
-1990.444584736633
 10
3216.701389411699
 20
-1997.429643648189
 10
3222.173318296665
 20
-2003.433626530859
 10
3230.187906121586
 20
-2012.221984570868
 10
3240.309625131182
 20
-2015.248160284824
 10
3251.96530595582
 20
-2015.2274128356
 10
3324.386132937759
 20
-2015.109970465495
 10
3396.813875736103
 20
-2015.199791739579
 10
3469.234787057265
 20
-2015.130675745109
 10
3477.166385085284
 20
-2015.116886281903
 10
3485.167141277385
 20
-2015.959772491464
 10
3493.029581141322
 20
-2014.501968996141
 10
3509.942969220722
 20
-2011.351435095672
 10
3521.460418056419
 20
-1997.008200543408
 10
3521.474249689234
 20
-1979.196641892795
 10
3521.508744432051
 20
-1936.595297157193
 10
3521.460418056419
 20
-1893.993994591205
 10
3521.460418056419
 20
-1851.385734039197
 97
        0
 97
        1
330
7A
 75
     2
 76
     1
 98
        1
 10
0.0
 20
0.0
450
        0
451
        0
460
0.0
461
0.0
452
        0
462
0.0
453
        0
470

  0
SPLINE
  5
7C
330
70
100
AcDbEntity
  8
Layer 1
100
AcDbSpline
210
0.0
220
0.0
230
1.0
 70
     9
 71
     3
 72
    53
 73
    49
 74
     0
 42
0.0000000001
 43
0.0000000001
 40
0.0
 40
0.0
 40
0.0
 40
0.0
 40
1.0
 40
1.0
 40
1.0
 40
2.0
 40
2.0
 40
2.0
 40
3.0
 40
3.0
 40
3.0
 40
4.0
 40
4.0
 40
4.0
 40
5.0
 40
5.0
 40
5.0
 40
6.0
 40
6.0
 40
6.0
 40
7.0
 40
7.0
 40
7.0
 40
8.0
 40
8.0
 40
8.0
 40
9.0
 40
9.0
 40
9.0
 40
10.0
 40
10.0
 40
10.0
 40
11.0
 40
11.0
 40
11.0
 40
12.0
 40
12.0
 40
12.0
 40
13.0
 40
13.0
 40
13.0
 40
14.0
 40
14.0
 40
14.0
 40
15.0
 40
15.0
 40
15.0
 40
16.0
 40
16.0
 40
16.0
 40
16.0
 10
3519.049159628224
 20
-1799.933915424748
 30
0.0
 10
3519.049159628224
 20
-1799.933915424748
 30
0.0
 10
3519.000833252589
 20
-1799.933915424748
 30
0.0
 10
3519.000833252589
 20
-1799.933915424748
 30
0.0
 10
3519.000833252589
 20
-1858.882099499231
 30
0.0
 10
3518.993917436181
 20
-1917.830283573712
 30
0.0
 10
3519.007749069
 20
-1976.785341294988
 30
0.0
 10
3519.007749069
 20
-1981.759879603524
 30
0.0
 10
3518.717537797527
 20
-1986.672259903604
 30
0.0
 10
3516.962691553543
 20
-1991.404955485908
 30
0.0
 10
3512.195332549973
 20
-2004.262723277214
 30
0.0
 10
3499.862745109573
 20
-2012.643427675648
 30
0.0
 10
3485.54017366731
 20
-2012.643427675648
 30
0.0
 10
3408.856420583479
 20
-2012.63651185924
 30
0.0
 10
3332.172667499652
 20
-2012.622722396034
 30
0.0
 10
3255.495830232232
 20
-2012.608890763218
 30
0.0
 10
3252.960171447916
 20
-2012.608890763218
 30
0.0
 10
3250.424597002822
 20
-2012.67104877167
 30
0.0
 10
3247.89585403491
 20
-2012.581269667196
 30
0.0
 10
3229.849368474477
 20
-2011.938689115803
 30
0.0
 10
3216.273030490511
 20
-1998.410761846691
 30
0.0
 10
3215.554544637072
 20
-1980.384981565872
 30
0.0
 10
3215.519965555034
 20
-1979.466063545431
 30
0.0
 10
3215.533797187849
 20
-1978.547187694603
 30
0.0
 10
3215.533797187849
 20
-1977.621353857754
 30
0.0
 10
3215.533797187849
 20
-1859.144647505073
 30
0.0
 10
3215.554544637072
 20
-1740.667898982772
 30
0.0
 10
3215.499218105807
 20
-1622.191192630087
 30
0.0
 10
3215.499218105807
 20
-1612.532327284496
 30
0.0
 10
3218.097034898574
 20
-1604.054885795574
 30
0.0
 10
3225.047599067317
 20
-1597.118153259647
 30
0.0
 10
3231.956668337609
 20
-1590.23674725499
 30
0.0
 10
3240.295877837592
 20
-1587.182992614625
 30
0.0
 10
3249.996153742408
 20
-1587.189908431033
 30
0.0
 10
3306.526205741901
 20
-1587.245066283851
 30
0.0
 10
3363.063173557797
 20
-1587.217487357442
 30
0.0
 10
3419.593056878841
 20
-1587.217487357442
 30
0.0
 10
3441.702078543777
 20
-1587.217487357442
 30
0.0
 10
3463.811100208708
 20
-1587.127666083359
 30
0.0
 10
3485.913290396459
 20
-1587.251982100259
 30
0.0
 10
3502.336077206992
 20
-1587.341887713565
 30
0.0
 10
3515.332076987239
 20
-1598.078608348152
 30
0.0
 10
3518.420410709643
 20
-1613.789825121656
 30
0.0
 10
3519.249549625615
 20
-1617.997340353055
 30
0.0
 10
3519.035412334632
 20
-1622.274098087762
 30
0.0
 10
3519.042243811817
 20
-1626.530108373247
 30
0.0
 10
3519.049159628224
 20
-1684.331321164265
 30
0.0
 10
3519.049159628224
 20
-1742.132702633729
 30
0.0
 10
3519.049159628224
 20
-1799.933915424748
 30
0.0
  0
SPLINE
  5
7D
330
70
100
AcDbEntity
  8
Layer 1
100
AcDbSpline
210
0.0
220
0.0
230
1.0
 70
    11
 71
     3
 72
    53
 73
    49
 74
     0
 42
0.0000000001
 43
0.0000000001
 40
0.0
 40
0.0
 40
0.0
 40
0.0
 40
1.0
 40
1.0
 40
1.0
 40
2.0
 40
2.0
 40
2.0
 40
3.0
 40
3.0
 40
3.0
 40
4.0
 40
4.0
 40
4.0
 40
5.0
 40
5.0
 40
5.0
 40
6.0
 40
6.0
 40
6.0
 40
7.0
 40
7.0
 40
7.0
 40
8.0
 40
8.0
 40
8.0
 40
9.0
 40
9.0
 40
9.0
 40
10.0
 40
10.0
 40
10.0
 40
11.0
 40
11.0
 40
11.0
 40
12.0
 40
12.0
 40
12.0
 40
13.0
 40
13.0
 40
13.0
 40
14.0
 40
14.0
 40
14.0
 40
15.0
 40
15.0
 40
15.0
 40
16.0
 40
16.0
 40
16.0
 40
16.0
 10
3242.238557152681
 20
-1681.933915424748
 30
0.0
 10
3242.238557152681
 20
-1681.933915424748
 30
0.0
 10
3242.238557152681
 20
-1608.767899799748
 30
0.0
 10
3242.238557152681
 20
-1608.767899799748
 30
0.0
 10
3242.238557152681
 20
-1608.767899799748
 30
0.0
 10
3252.55136409365
 20
-1608.767899799748
 30
0.0
 10
3252.55136409365
 20
-1608.767899799748
 30
0.0
 10
3252.55136409365
 20
-1608.767899799748
 30
0.0
 10
3275.999271470386
 20
-1645.785128119225
 30
0.0
 10
3275.999271470386
 20
-1645.785128119225
 30
0.0
 10
3281.42688800704
 20
-1654.360773431186
 30
0.0
 10
3285.660607850338
 20
-1662.068257330296
 30
0.0
 10
3289.13437190615
 20
-1669.558770776466
 30
0.0
 10
3289.13437190615
 20
-1669.558770776466
 30
0.0
 10
3289.35162196019
 20
-1669.450005948898
 30
0.0
 10
3289.35162196019
 20
-1669.450005948898
 30
0.0
 10
3288.483180946236
 20
-1659.680184342474
 30
0.0
 10
3288.265930892196
 20
-1650.778524148905
 30
0.0
 10
3288.265930892196
 20
-1639.380305741046
 30
0.0
 10
3288.265930892196
 20
-1639.380305741046
 30
0.0
 10
3288.265930892196
 20
-1608.767899799748
 30
0.0
 10
3288.265930892196
 20
-1608.767899799748
 30
0.0
 10
3288.265930892196
 20
-1608.767899799748
 30
0.0
 10
3297.167591085765
 20
-1608.767899799748
 30
0.0
 10
3297.167591085765
 20
-1608.767899799748
 30
0.0
 10
3297.167591085765
 20
-1608.767899799748
 30
0.0
 10
3297.167591085765
 20
-1681.933915424748
 30
0.0
 10
3297.167591085765
 20
-1681.933915424748
 30
0.0
 10
3297.167591085765
 20
-1681.933915424748
 30
0.0
 10
3287.614739932282
 20
-1681.933915424748
 30
0.0
 10
3287.614739932282
 20
-1681.933915424748
 30
0.0
 10
3287.614739932282
 20
-1681.933915424748
 30
0.0
 10
3264.383803008487
 20
-1644.807922277703
 30
0.0
 10
3264.383803008487
 20
-1644.807922277703
 30
0.0
 10
3259.281642151238
 20
-1636.666497472719
 30
0.0
 10
3254.396731348026
 20
-1628.307543012595
 30
0.0
 10
3250.705717238178
 20
-1620.383088660548
 30
0.0
 10
3250.705717238178
 20
-1620.383088660548
 30
0.0
 10
3250.380261558768
 20
-1620.491573887016
 30
0.0
 10
3250.380261558768
 20
-1620.491573887016
 30
0.0
 10
3250.922967292214
 20
-1629.718969361094
 30
0.0
 10
3251.14021734625
 20
-1638.511864727092
 30
0.0
 10
3251.14021734625
 20
-1650.670038922437
 30
0.0
 10
3251.14021734625
 20
-1650.670038922437
 30
0.0
 10
3251.14021734625
 20
-1681.933915424748
 30
0.0
 10
3251.14021734625
 20
-1681.933915424748
 30
0.0
 10
3251.14021734625
 20
-1681.933915424748
 30
0.0
 10
3242.238557152681
 20
-1681.933915424748
 30
0.0
 10
3242.238557152681
 20
-1681.933915424748
 30
0.0
  0
HATCH
  5
7E
330
70
100
AcDbEntity
  8
Layer 1
 62
   246
420
  8590872
440
 33554687
100
AcDbHatch
 10
0.0
 20
0.0
 30
0.0
210
0.0
220
0.0
230
1.0
  2
SOLID
 70
     1
 71
     1
 91
        1
 92
        1
 93
        1
 72
     4
 94
        3
 73
     0
 74
     0
 95
       53
 96
       49
 40
0.0
 40
0.0
 40
0.0
 40
0.0
 40
1.0
 40
1.0
 40
1.0
 40
2.0
 40
2.0
 40
2.0
 40
3.0
 40
3.0
 40
3.0
 40
4.0
 40
4.0
 40
4.0
 40
5.0
 40
5.0
 40
5.0
 40
6.0
 40
6.0
 40
6.0
 40
7.0
 40
7.0
 40
7.0
 40
8.0
 40
8.0
 40
8.0
 40
9.0
 40
9.0
 40
9.0
 40
10.0
 40
10.0
 40
10.0
 40
11.0
 40
11.0
 40
11.0
 40
12.0
 40
12.0
 40
12.0
 40
13.0
 40
13.0
 40
13.0
 40
14.0
 40
14.0
 40
14.0
 40
15.0
 40
15.0
 40
15.0
 40
16.0
 40
16.0
 40
16.0
 40
16.0
 10
3242.238557152681
 20
-1681.933915424748
 10
3242.238557152681
 20
-1681.933915424748
 10
3242.238557152681
 20
-1608.767899799748
 10
3242.238557152681
 20
-1608.767899799748
 10
3242.238557152681
 20
-1608.767899799748
 10
3252.55136409365
 20
-1608.767899799748
 10
3252.55136409365
 20
-1608.767899799748
 10
3252.55136409365
 20
-1608.767899799748
 10
3275.999271470386
 20
-1645.785128119225
 10
3275.999271470386
 20
-1645.785128119225
 10
3281.42688800704
 20
-1654.360773431186
 10
3285.660607850338
 20
-1662.068257330296
 10
3289.13437190615
 20
-1669.558770776466
 10
3289.13437190615
 20
-1669.558770776466
 10
3289.35162196019
 20
-1669.450005948898
 10
3289.35162196019
 20
-1669.450005948898
 10
3288.483180946236
 20
-1659.680184342474
 10
3288.265930892196
 20
-1650.778524148905
 10
3288.265930892196
 20
-1639.380305741046
 10
3288.265930892196
 20
-1639.380305741046
 10
3288.265930892196
 20
-1608.767899799748
 10
3288.265930892196
 20
-1608.767899799748
 10
3288.265930892196
 20
-1608.767899799748
 10
3297.167591085765
 20
-1608.767899799748
 10
3297.167591085765
 20
-1608.767899799748
 10
3297.167591085765
 20
-1608.767899799748
 10
3297.167591085765
 20
-1681.933915424748
 10
3297.167591085765
 20
-1681.933915424748
 10
3297.167591085765
 20
-1681.933915424748
 10
3287.614739932282
 20
-1681.933915424748
 10
3287.614739932282
 20
-1681.933915424748
 10
3287.614739932282
 20
-1681.933915424748
 10
3264.383803008487
 20
-1644.807922277703
 10
3264.383803008487
 20
-1644.807922277703
 10
3259.281642151238
 20
-1636.666497472719
 10
3254.396731348026
 20
-1628.307543012595
 10
3250.705717238178
 20
-1620.383088660548
 10
3250.705717238178
 20
-1620.383088660548
 10
3250.380261558768
 20
-1620.491573887016
 10
3250.380261558768
 20
-1620.491573887016
 10
3250.922967292214
 20
-1629.718969361094
 10
3251.14021734625
 20
-1638.511864727092
 10
3251.14021734625
 20
-1650.670038922437
 10
3251.14021734625
 20
-1650.670038922437
 10
3251.14021734625
 20
-1681.933915424748
 10
3251.14021734625
 20
-1681.933915424748
 10
3251.14021734625
 20
-1681.933915424748
 10
3242.238557152681
 20
-1681.933915424748
 10
3242.238557152681
 20
-1681.933915424748
 97
        0
 97
        1
330
7D
 75
     2
 76
     1
 98
        1
 10
0.0
 20
0.0
450
        0
451
        0
460
0.0
461
0.0
452
        0
462
0.0
453
        0
470

  0
SPLINE
  5
7F
330
70
100
AcDbEntity
  8
Layer 1
100
AcDbSpline
210
0.0
220
0.0
230
1.0
 70
     9
 71
     3
 72
   218
 73
   214
 74
     0
 42
0.0000000001
 43
0.0000000001
 40
0.0
 40
0.0
 40
0.0
 40
0.0
 40
1.0
 40
1.0
 40
1.0
 40
2.0
 40
2.0
 40
2.0
 40
3.0
 40
3.0
 40
3.0
 40
4.0
 40
4.0
 40
4.0
 40
5.0
 40
5.0
 40
5.0
 40
6.0
 40
6.0
 40
6.0
 40
7.0
 40
7.0
 40
7.0
 40
8.0
 40
8.0
 40
8.0
 40
9.0
 40
9.0
 40
9.0
 40
10.0
 40
10.0
 40
10.0
 40
11.0
 40
11.0
 40
11.0
 40
12.0
 40
12.0
 40
12.0
 40
13.0
 40
13.0
 40
13.0
 40
14.0
 40
14.0
 40
14.0
 40
15.0
 40
15.0
 40
15.0
 40
16.0
 40
16.0
 40
16.0
 40
17.0
 40
17.0
 40
17.0
 40
18.0
 40
18.0
 40
18.0
 40
19.0
 40
19.0
 40
19.0
 40
20.0
 40
20.0
 40
20.0
 40
21.0
 40
21.0
 40
21.0
 40
22.0
 40
22.0
 40
22.0
 40
23.0
 40
23.0
 40
23.0
 40
24.0
 40
24.0
 40
24.0
 40
25.0
 40
25.0
 40
25.0
 40
26.0
 40
26.0
 40
26.0
 40
27.0
 40
27.0
 40
27.0
 40
28.0
 40
28.0
 40
28.0
 40
29.0
 40
29.0
 40
29.0
 40
30.0
 40
30.0
 40
30.0
 40
31.0
 40
31.0
 40
31.0
 40
32.0
 40
32.0
 40
32.0
 40
33.0
 40
33.0
 40
33.0
 40
34.0
 40
34.0
 40
34.0
 40
35.0
 40
35.0
 40
35.0
 40
36.0
 40
36.0
 40
36.0
 40
37.0
 40
37.0
 40
37.0
 40
38.0
 40
38.0
 40
38.0
 40
39.0
 40
39.0
 40
39.0
 40
40.0
 40
40.0
 40
40.0
 40
41.0
 40
41.0
 40
41.0
 40
42.0
 40
42.0
 40
42.0
 40
43.0
 40
43.0
 40
43.0
 40
44.0
 40
44.0
 40
44.0
 40
45.0
 40
45.0
 40
45.0
 40
46.0
 40
46.0
 40
46.0
 40
47.0
 40
47.0
 40
47.0
 40
48.0
 40
48.0
 40
48.0
 40
49.0
 40
49.0
 40
49.0
 40
50.0
 40
50.0
 40
50.0
 40
51.0
 40
51.0
 40
51.0
 40
52.0
 40
52.0
 40
52.0
 40
53.0
 40
53.0
 40
53.0
 40
54.0
 40
54.0
 40
54.0
 40
55.0
 40
55.0
 40
55.0
 40
56.0
 40
56.0
 40
56.0
 40
57.0
 40
57.0
 40
57.0
 40
58.0
 40
58.0
 40
58.0
 40
59.0
 40
59.0
 40
59.0
 40
60.0
 40
60.0
 40
60.0
 40
61.0
 40
61.0
 40
61.0
 40
62.0
 40
62.0
 40
62.0
 40
63.0
 40
63.0
 40
63.0
 40
64.0
 40
64.0
 40
64.0
 40
65.0
 40
65.0
 40
65.0
 40
66.0
 40
66.0
 40
66.0
 40
67.0
 40
67.0
 40
67.0
 40
68.0
 40
68.0
 40
68.0
 40
69.0
 40
69.0
 40
69.0
 40
70.0
 40
70.0
 40
70.0
 40
71.0
 40
71.0
 40
71.0
 40
71.0
 10
3264.17465972961
 20
-1812.079910310151
 30
0.0
 10
3271.416254226193
 20
-1814.483421028626
 30
0.0
 10
3278.418620967002
 20
-1816.643803722205
 30
0.0
 10
3285.61576493038
 20
-1818.219396743682
 30
0.0
 10
3290.667245015566
 20
-1819.325250800693
 30
0.0
 10
3293.709994898772
 20
-1818.753574517994
 30
0.0
 10
3294.196193095379
 20
-1812.912118785303
 30
0.0
 10
3294.3224576794
 20
-1811.395131043833
 30
0.0
 10
3294.707258520868
 20
-1809.591625386047
 30
0.0
 10
3296.322635251674
 20
-1808.638175912083
 30
0.0
 10
3296.713529962335
 20
-1808.834327147875
 30
0.0
 10
3297.340234269547
 20
-1808.999517285594
 30
0.0
 10
3297.341979507399
 20
-1809.171061631854
 30
0.0
 10
3297.438507552501
 20
-1818.658598866784
 30
0.0
 10
3302.347553087469
 20
-1824.088110970382
 30
0.0
 10
3311.171157488358
 20
-1827.162197997388
 30
0.0
 10
3315.384933045481
 20
-1828.630251583539
 30
0.0
 10
3318.728172390037
 20
-1832.209879056523
 30
0.0
 10
3317.740570250427
 20
-1837.466651181296
 30
0.0
 10
3316.789791665337
 20
-1842.527426345443
 30
0.0
 10
3312.18915183635
 20
-1844.566153425689
 30
0.0
 10
3308.233767903707
 20
-1844.277813133934
 30
0.0
 10
3297.270347617772
 20
-1843.478600260658
 30
0.0
 10
3295.705389940793
 20
-1850.184720107279
 30
0.0
 10
3294.31421360003
 20
-1858.596515869845
 30
0.0
 10
3291.566736749004
 20
-1875.209251807086
 30
0.0
 10
3286.952790686655
 20
-1891.433484298792
 30
0.0
 10
3282.965809270861
 20
-1907.786305144258
 30
0.0
 10
3281.789658768658
 20
-1912.610354703043
 30
0.0
 10
3279.169839799279
 20
-1918.944835308593
 30
0.0
 10
3283.337766704472
 20
-1922.085048530116
 30
0.0
 10
3286.687620596918
 20
-1924.608951733971
 30
0.0
 10
3291.811629296155
 20
-1920.23600277074
 30
0.0
 10
3295.785969790248
 20
-1918.099658077008
 30
0.0
 10
3308.046535701151
 20
-1911.509215680897
 30
0.0
 10
3319.453950282643
 20
-1903.583965234073
 30
0.0
 10
3330.712238628438
 20
-1895.424370804812
 30
0.0
 10
3334.424928435101
 20
-1892.733580436376
 30
0.0
 10
3336.391570442409
 20
-1889.177229229582
 30
0.0
 10
3336.773546119837
 20
-1884.82946568777
 30
0.0
 10
3339.04600008184
 20
-1858.96415359871
 30
0.0
 10
3338.929879090216
 20
-1833.107191653196
 30
0.0
 10
3335.382254072696
 20
-1807.365810736215
 30
0.0
 10
3334.066720775971
 20
-1797.820352817342
 30
0.0
 10
3330.069354712831
 20
-1789.461174529768
 30
0.0
 10
3322.896976735255
 20
-1782.458354605647
 30
0.0
 10
3315.261638258473
 20
-1775.003522898254
 30
0.0
 10
3314.082551706952
 20
-1767.082336637924
 30
0.0
 10
3317.86822331097
 20
-1759.616011430406
 30
0.0
 10
3319.449408807343
 20
-1756.49750279679
 30
0.0
 10
3321.242279120628
 20
-1755.377407213195
 30
0.0
 10
3324.861015349079
 20
-1756.545790924834
 30
0.0
 10
3334.067212528071
 20
-1759.518200972956
 30
0.0
 10
3343.33934305762
 20
-1762.333033398756
 30
0.0
 10
3352.701107460636
 20
-1764.764115982676
 30
0.0
 10
3362.456080701859
 20
-1767.297294981095
 30
0.0
 10
3367.900104313581
 20
-1773.922516785724
 30
0.0
 10
3371.515253644341
 20
-1782.7451714301
 30
0.0
 10
3372.544857198837
 20
-1785.257884863071
 30
0.0
 10
3372.316905993738
 20
-1787.008127018593
 30
0.0
 10
3370.137576380907
 20
-1788.779991803339
 30
0.0
 10
3362.274373478808
 20
-1795.173048762301
 30
0.0
 10
3359.13100725851
 20
-1803.865856746064
 30
0.0
 10
3358.13087026138
 20
-1813.655628680202
 30
0.0
 10
3356.182259164505
 20
-1832.729564607109
 30
0.0
 10
3355.605896773536
 20
-1851.876395551591
 30
0.0
 10
3354.887331245102
 20
-1871.01632268224
 30
0.0
 10
3354.826807167678
 20
-1872.628421065692
 30
0.0
 10
3354.136232940304
 20
-1874.788871254659
 30
0.0
 10
3355.665688043909
 20
-1875.754016714909
 30
0.0
 10
3357.689739698659
 20
-1877.031222274218
 30
0.0
 10
3359.060783129802
 20
-1874.779479753717
 30
0.0
 10
3360.440755236383
 20
-1873.7636163315
 30
0.0
 10
3366.880596140489
 20
-1869.022894648631
 30
0.0
 10
3373.165313361684
 20
-1864.07197304735
 30
0.0
 10
3379.576883340984
 20
-1859.291969049453
 30
0.0
 10
3381.61040363426
 20
-1857.775926243394
 30
0.0
 10
3382.487284413173
 20
-1856.0027935096
 30
0.0
 10
3382.52687527854
 20
-1853.430332196152
 30
0.0
 10
3382.81901459634
 20
-1834.453252149082
 30
0.0
 10
3385.763105508666
 20
-1815.693960430328
 30
0.0
 10
3387.276969177952
 20
-1796.816378225374
 30
0.0
 10
3387.9651521402
 20
-1788.234426593075
 30
0.0
 10
3388.522567611917
 20
-1779.639544773135
 30
0.0
 10
3385.882765186989
 20
-1771.147930894765
 30
0.0
 10
3383.699077300624
 20
-1764.123464235925
 30
0.0
 10
3379.656508612827
 20
-1758.647182650484
 30
0.0
 10
3373.237427361217
 20
-1755.328400741391
 30
0.0
 10
3369.117740373078
 20
-1753.19845364609
 30
0.0
 10
3369.072161702696
 20
-1750.794668124969
 30
0.0
 10
3370.857568954662
 20
-1747.224856409642
 30
0.0
 10
3373.904397487657
 20
-1741.132949402597
 30
0.0
 10
3377.72089519898
 20
-1735.650566716313
 30
0.0
 10
3382.798862402329
 20
-1731.083161133605
 30
0.0
 10
3385.616409106888
 20
-1728.548914261746
 30
0.0
 10
3388.457907031511
 20
-1726.041242493104
 30
0.0
 10
3391.273756709207
 20
-1723.505128650637
 30
0.0
 10
3399.690373570817
 20
-1715.924655486275
 30
0.0
 10
3399.779891737906
 20
-1715.843870740109
 30
0.0
 10
3407.237572714834
 20
-1724.71921276541
 30
0.0
 10
3413.325058774054
 20
-1731.9639253078
 30
0.0
 10
3419.245831228252
 20
-1739.336330684802
 30
0.0
 10
3423.131424931106
 20
-1748.127076885141
 30
0.0
 10
3425.593521645189
 20
-1753.697263837804
 30
0.0
 10
3425.232980574123
 20
-1758.46529222567
 30
0.0
 10
3419.842953271715
 20
-1761.879666886651
 30
0.0
 10
3406.743159365453
 20
-1770.177877555687
 30
0.0
 10
3403.525403586873
 20
-1783.357142458628
 30
0.0
 10
3402.819787530474
 20
-1797.33811756415
 30
0.0
 10
3402.119995361727
 20
-1811.20383947588
 30
0.0
 10
3402.578346890243
 20
-1825.125100448617
 30
0.0
 10
3402.341033110793
 20
-1839.018804019209
 30
0.0
 10
3402.26750170814
 20
-1843.322425578155
 30
0.0
 10
3403.674394831795
 20
-1843.066974824096
 30
0.0
 10
3406.63183054628
 20
-1841.184846683065
 30
0.0
 10
3412.490333685199
 20
-1837.456478662307
 30
0.0
 10
3418.504828304858
 20
-1833.974189179064
 30
0.0
 10
3424.420567531654
 20
-1830.334471527565
 30
0.0
 10
3432.038058299766
 20
-1825.647736511817
 30
0.0
 10
3436.312926824003
 20
-1818.923672534541
 30
0.0
 10
3435.457297449686
 20
-1809.86273506981
 30
0.0
 10
3435.008877385202
 20
-1805.114261059674
 30
0.0
 10
3437.329156649745
 20
-1803.468125716956
 30
0.0
 10
3441.117788408583
 20
-1802.383706266302
 30
0.0
 10
3452.214936339859
 20
-1799.207344444132
 30
0.0
 10
3468.424165571336
 20
-1804.71386878389
 30
0.0
 10
3475.222802308655
 20
-1814.004705177738
 30
0.0
 10
3480.209843583989
 20
-1820.81985900039
 30
0.0
 10
3478.668017540235
 20
-1825.791222061629
 30
0.0
 10
3470.570615288669
 20
-1828.112986224676
 30
0.0
 10
3450.325971880384
 20
-1833.917695540442
 30
0.0
 10
3430.174761371612
 20
-1839.848910495175
 30
0.0
 10
3411.470073420654
 20
-1849.930445701388
 30
0.0
 10
3405.811838736112
 20
-1852.980166893816
 30
0.0
 10
3403.278274049766
 20
-1856.280305612898
 30
0.0
 10
3403.534987931775
 20
-1863.090474419136
 30
0.0
 10
3404.074584621418
 20
-1877.405570972954
 30
0.0
 10
3403.902722082619
 20
-1891.703832248906
 30
0.0
 10
3408.039552898967
 20
-1905.631582420963
 30
0.0
 10
3410.19248217342
 20
-1912.879989130495
 30
0.0
 10
3414.722328984009
 20
-1917.602622049744
 30
0.0
 10
3421.842301614952
 20
-1919.979481732691
 30
0.0
 10
3437.834002857466
 20
-1925.318096834871
 30
0.0
 10
3453.871350265746
 20
-1923.083305298613
 30
0.0
 10
3469.908543398857
 20
-1920.29125256581
 30
0.0
 10
3475.296430133289
 20
-1919.353240250992
 30
0.0
 10
3480.630455549171
 20
-1917.991029073299
 30
0.0
 10
3486.051935701757
 20
-1917.385653308269
 30
0.0
 10
3495.686015063295
 20
-1916.30987326711
 30
0.0
 10
3499.534621294266
 20
-1921.621490214628
 30
0.0
 10
3495.761879877888
 20
-1930.532462572432
 30
0.0
 10
3493.34371301831
 20
-1936.243999328027
 30
0.0
 10
3488.924558641821
 20
-1939.975664980535
 30
0.0
 10
3483.314322819382
 20
-1942.474247772199
 30
0.0
 10
3465.935668518874
 20
-1950.214040180916
 30
0.0
 10
3447.411424663015
 20
-1950.819898055848
 30
0.0
 10
3428.867838557783
 20
-1951.290302331981
 30
0.0
 10
3418.511886393861
 20
-1951.553032945601
 30
0.0
 10
3408.264640371233
 20
-1951.330375307254
 30
0.0
 10
3398.66081822731
 20
-1946.465712810106
 30
0.0
 10
3388.406919087998
 20
-1941.271749963707
 30
0.0
 10
3383.07048312259
 20
-1933.364684702486
 30
0.0
 10
3383.827183544478
 20
-1921.670414727748
 30
0.0
 10
3384.904082080617
 20
-1905.028192948739
 30
0.0
 10
3383.842977464954
 20
-1888.438309020974
 30
0.0
 10
3382.719603534007
 20
-1871.838185078839
 30
0.0
 10
3382.393542963318
 20
-1867.019949765505
 30
0.0
 10
3380.632299059771
 20
-1867.622133962967
 30
0.0
 10
3377.870696388543
 20
-1869.867069091615
 30
0.0
 10
3371.010204950462
 20
-1875.44405861503
 30
0.0
 10
3364.270443474694
 20
-1881.175959692999
 30
0.0
 10
3357.278075693304
 20
-1886.581607356314
 30
0.0
 10
3353.804705243294
 20
-1889.266805249863
 30
0.0
 10
3354.66197379129
 20
-1892.442038934856
 30
0.0
 10
3355.374050120407
 20
-1895.720887680549
 30
0.0
 10
3357.615350140377
 20
-1906.041240849114
 30
0.0
 10
3354.457077081826
 20
-1914.37846385163
 30
0.0
 10
3346.270417002523
 20
-1920.901526567468
 30
0.0
 10
3340.958375798286
 20
-1925.13410441087
 30
0.0
 10
3335.579803427214
 20
-1923.492655176426
 30
0.0
 10
3333.652935487034
 20
-1917.04973841113
 30
0.0
 10
3333.233577007604
 20
-1915.647512111354
 30
0.0
 10
3333.147935004146
 20
-1914.128113820359
 30
0.0
 10
3332.609996772577
 20
-1912.781985829086
 30
0.0
 10
3330.973185435413
 20
-1908.685980079463
 30
0.0
 10
3328.984597785247
 20
-1907.404744081348
 30
0.0
 10
3324.735888544436
 20
-1910.618527274317
 30
0.0
 10
3311.610224620689
 20
-1920.547021512408
 30
0.0
 10
3300.117119824748
 20
-1932.339699760876
 30
0.0
 10
3287.378180360994
 20
-1942.683290626843
 30
0.0
 10
3277.184959574277
 20
-1950.959844918962
 30
0.0
 10
3266.621222862568
 20
-1958.621516238734
 30
0.0
 10
3252.719627152839
 20
-1959.308677127981
 30
0.0
 10
3247.758672844442
 20
-1959.553936078657
 30
0.0
 10
3242.894159801365
 20
-1959.700709618021
 30
0.0
 10
3239.74256878609
 20
-1954.903966764235
 30
0.0
 10
3236.383407761938
 20
-1949.791326216549
 30
0.0
 10
3236.576695264897
 20
-1944.404210857967
 30
0.0
 10
3239.61090216059
 20
-1939.369537124053
 30
0.0
 10
3241.9849318584
 20
-1935.430332799809
 30
0.0
 10
3245.068711705039
 20
-1931.918181429071
 30
0.0
 10
3247.845192287923
 20
-1928.222307615884
 30
0.0
 10
3266.140703920637
 20
-1903.868660774948
 30
0.0
 10
3279.173619540931
 20
-1876.976030332338
 30
0.0
 10
3287.032362926411
 20
-1847.537396767844
 30
0.0
 10
3287.877221965462
 20
-1844.372586298987
 30
0.0
 10
3287.318008223798
 20
-1842.665126576399
 30
0.0
 10
3284.624604819676
 20
-1840.714625608698
 30
0.0
 10
3276.571860408576
 20
-1834.883033844651
 30
0.0
 10
3269.129886572339
 20
-1828.374010169236
 30
0.0
 10
3265.161692979529
 20
-1818.852378121848
 30
0.0
 10
3264.366963728362
 20
-1816.945430962927
 30
0.0
 10
3263.229873770632
 20
-1815.093251489174
 30
0.0
 10
3264.17465972961
 20
-1812.079910310151
 30
0.0
  0
HATCH
  5
80
330
70
100
AcDbEntity
  8
Layer 1
 62
   168
420
   922409
440
 33554687
100
AcDbHatch
 10
0.0
 20
0.0
 30
0.0
210
0.0
220
0.0
230
1.0
  2
SOLID
 70
     1
 71
     1
 91
        1
 92
        1
 93
        1
 72
     4
 94
        3
 73
     0
 74
     0
 95
      218
 96
      214
 40
0.0
 40
0.0
 40
0.0
 40
0.0
 40
1.0
 40
1.0
 40
1.0
 40
2.0
 40
2.0
 40
2.0
 40
3.0
 40
3.0
 40
3.0
 40
4.0
 40
4.0
 40
4.0
 40
5.0
 40
5.0
 40
5.0
 40
6.0
 40
6.0
 40
6.0
 40
7.0
 40
7.0
 40
7.0
 40
8.0
 40
8.0
 40
8.0
 40
9.0
 40
9.0
 40
9.0
 40
10.0
 40
10.0
 40
10.0
 40
11.0
 40
11.0
 40
11.0
 40
12.0
 40
12.0
 40
12.0
 40
13.0
 40
13.0
 40
13.0
 40
14.0
 40
14.0
 40
14.0
 40
15.0
 40
15.0
 40
15.0
 40
16.0
 40
16.0
 40
16.0
 40
17.0
 40
17.0
 40
17.0
 40
18.0
 40
18.0
 40
18.0
 40
19.0
 40
19.0
 40
19.0
 40
20.0
 40
20.0
 40
20.0
 40
21.0
 40
21.0
 40
21.0
 40
22.0
 40
22.0
 40
22.0
 40
23.0
 40
23.0
 40
23.0
 40
24.0
 40
24.0
 40
24.0
 40
25.0
 40
25.0
 40
25.0
 40
26.0
 40
26.0
 40
26.0
 40
27.0
 40
27.0
 40
27.0
 40
28.0
 40
28.0
 40
28.0
 40
29.0
 40
29.0
 40
29.0
 40
30.0
 40
30.0
 40
30.0
 40
31.0
 40
31.0
 40
31.0
 40
32.0
 40
32.0
 40
32.0
 40
33.0
 40
33.0
 40
33.0
 40
34.0
 40
34.0
 40
34.0
 40
35.0
 40
35.0
 40
35.0
 40
36.0
 40
36.0
 40
36.0
 40
37.0
 40
37.0
 40
37.0
 40
38.0
 40
38.0
 40
38.0
 40
39.0
 40
39.0
 40
39.0
 40
40.0
 40
40.0
 40
40.0
 40
41.0
 40
41.0
 40
41.0
 40
42.0
 40
42.0
 40
42.0
 40
43.0
 40
43.0
 40
43.0
 40
44.0
 40
44.0
 40
44.0
 40
45.0
 40
45.0
 40
45.0
 40
46.0
 40
46.0
 40
46.0
 40
47.0
 40
47.0
 40
47.0
 40
48.0
 40
48.0
 40
48.0
 40
49.0
 40
49.0
 40
49.0
 40
50.0
 40
50.0
 40
50.0
 40
51.0
 40
51.0
 40
51.0
 40
52.0
 40
52.0
 40
52.0
 40
53.0
 40
53.0
 40
53.0
 40
54.0
 40
54.0
 40
54.0
 40
55.0
 40
55.0
 40
55.0
 40
56.0
 40
56.0
 40
56.0
 40
57.0
 40
57.0
 40
57.0
 40
58.0
 40
58.0
 40
58.0
 40
59.0
 40
59.0
 40
59.0
 40
60.0
 40
60.0
 40
60.0
 40
61.0
 40
61.0
 40
61.0
 40
62.0
 40
62.0
 40
62.0
 40
63.0
 40
63.0
 40
63.0
 40
64.0
 40
64.0
 40
64.0
 40
65.0
 40
65.0
 40
65.0
 40
66.0
 40
66.0
 40
66.0
 40
67.0
 40
67.0
 40
67.0
 40
68.0
 40
68.0
 40
68.0
 40
69.0
 40
69.0
 40
69.0
 40
70.0
 40
70.0
 40
70.0
 40
71.0
 40
71.0
 40
71.0
 40
71.0
 10
3264.17465972961
 20
-1812.079910310151
 10
3271.416254226193
 20
-1814.483421028626
 10
3278.418620967002
 20
-1816.643803722205
 10
3285.61576493038
 20
-1818.219396743682
 10
3290.667245015566
 20
-1819.325250800693
 10
3293.709994898772
 20
-1818.753574517994
 10
3294.196193095379
 20
-1812.912118785303
 10
3294.3224576794
 20
-1811.395131043833
 10
3294.707258520868
 20
-1809.591625386047
 10
3296.322635251674
 20
-1808.638175912083
 10
3296.713529962335
 20
-1808.834327147875
 10
3297.340234269547
 20
-1808.999517285594
 10
3297.341979507399
 20
-1809.171061631854
 10
3297.438507552501
 20
-1818.658598866784
 10
3302.347553087469
 20
-1824.088110970382
 10
3311.171157488358
 20
-1827.162197997388
 10
3315.384933045481
 20
-1828.630251583539
 10
3318.728172390037
 20
-1832.209879056523
 10
3317.740570250427
 20
-1837.466651181296
 10
3316.789791665337
 20
-1842.527426345443
 10
3312.18915183635
 20
-1844.566153425689
 10
3308.233767903707
 20
-1844.277813133934
 10
3297.270347617772
 20
-1843.478600260658
 10
3295.705389940793
 20
-1850.184720107279
 10
3294.31421360003
 20
-1858.596515869845
 10
3291.566736749004
 20
-1875.209251807086
 10
3286.952790686655
 20
-1891.433484298792
 10
3282.965809270861
 20
-1907.786305144258
 10
3281.789658768658
 20
-1912.610354703043
 10
3279.169839799279
 20
-1918.944835308593
 10
3283.337766704472
 20
-1922.085048530116
 10
3286.687620596918
 20
-1924.608951733971
 10
3291.811629296155
 20
-1920.23600277074
 10
3295.785969790248
 20
-1918.099658077008
 10
3308.046535701151
 20
-1911.509215680897
 10
3319.453950282643
 20
-1903.583965234073
 10
3330.712238628438
 20
-1895.424370804812
 10
3334.424928435101
 20
-1892.733580436376
 10
3336.391570442409
 20
-1889.177229229582
 10
3336.773546119837
 20
-1884.82946568777
 10
3339.04600008184
 20
-1858.96415359871
 10
3338.929879090216
 20
-1833.107191653196
 10
3335.382254072696
 20
-1807.365810736215
 10
3334.066720775971
 20
-1797.820352817342
 10
3330.069354712831
 20
-1789.461174529768
 10
3322.896976735255
 20
-1782.458354605647
 10
3315.261638258473
 20
-1775.003522898254
 10
3314.082551706952
 20
-1767.082336637924
 10
3317.86822331097
 20
-1759.616011430406
 10
3319.449408807343
 20
-1756.49750279679
 10
3321.242279120628
 20
-1755.377407213195
 10
3324.861015349079
 20
-1756.545790924834
 10
3334.067212528071
 20
-1759.518200972956
 10
3343.33934305762
 20
-1762.333033398756
 10
3352.701107460636
 20
-1764.764115982676
 10
3362.456080701859
 20
-1767.297294981095
 10
3367.900104313581
 20
-1773.922516785724
 10
3371.515253644341
 20
-1782.7451714301
 10
3372.544857198837
 20
-1785.257884863071
 10
3372.316905993738
 20
-1787.008127018593
 10
3370.137576380907
 20
-1788.779991803339
 10
3362.274373478808
 20
-1795.173048762301
 10
3359.13100725851
 20
-1803.865856746064
 10
3358.13087026138
 20
-1813.655628680202
 10
3356.182259164505
 20
-1832.729564607109
 10
3355.605896773536
 20
-1851.876395551591
 10
3354.887331245102
 20
-1871.01632268224
 10
3354.826807167678
 20
-1872.628421065692
 10
3354.136232940304
 20
-1874.788871254659
 10
3355.665688043909
 20
-1875.754016714909
 10
3357.689739698659
 20
-1877.031222274218
 10
3359.060783129802
 20
-1874.779479753717
 10
3360.440755236383
 20
-1873.7636163315
 10
3366.880596140489
 20
-1869.022894648631
 10
3373.165313361684
 20
-1864.07197304735
 10
3379.576883340984
 20
-1859.291969049453
 10
3381.61040363426
 20
-1857.775926243394
 10
3382.487284413173
 20
-1856.0027935096
 10
3382.52687527854
 20
-1853.430332196152
 10
3382.81901459634
 20
-1834.453252149082
 10
3385.763105508666
 20
-1815.693960430328
 10
3387.276969177952
 20
-1796.816378225374
 10
3387.9651521402
 20
-1788.234426593075
 10
3388.522567611917
 20
-1779.639544773135
 10
3385.882765186989
 20
-1771.147930894765
 10
3383.699077300624
 20
-1764.123464235925
 10
3379.656508612827
 20
-1758.647182650484
 10
3373.237427361217
 20
-1755.328400741391
 10
3369.117740373078
 20
-1753.19845364609
 10
3369.072161702696
 20
-1750.794668124969
 10
3370.857568954662
 20
-1747.224856409642
 10
3373.904397487657
 20
-1741.132949402597
 10
3377.72089519898
 20
-1735.650566716313
 10
3382.798862402329
 20
-1731.083161133605
 10
3385.616409106888
 20
-1728.548914261746
 10
3388.457907031511
 20
-1726.041242493104
 10
3391.273756709207
 20
-1723.505128650637
 10
3399.690373570817
 20
-1715.924655486275
 10
3399.779891737906
 20
-1715.843870740109
 10
3407.237572714834
 20
-1724.71921276541
 10
3413.325058774054
 20
-1731.9639253078
 10
3419.245831228252
 20
-1739.336330684802
 10
3423.131424931106
 20
-1748.127076885141
 10
3425.593521645189
 20
-1753.697263837804
 10
3425.232980574123
 20
-1758.46529222567
 10
3419.842953271715
 20
-1761.879666886651
 10
3406.743159365453
 20
-1770.177877555687
 10
3403.525403586873
 20
-1783.357142458628
 10
3402.819787530474
 20
-1797.33811756415
 10
3402.119995361727
 20
-1811.20383947588
 10
3402.578346890243
 20
-1825.125100448617
 10
3402.341033110793
 20
-1839.018804019209
 10
3402.26750170814
 20
-1843.322425578155
 10
3403.674394831795
 20
-1843.066974824096
 10
3406.63183054628
 20
-1841.184846683065
 10
3412.490333685199
 20
-1837.456478662307
 10
3418.504828304858
 20
-1833.974189179064
 10
3424.420567531654
 20
-1830.334471527565
 10
3432.038058299766
 20
-1825.647736511817
 10
3436.312926824003
 20
-1818.923672534541
 10
3435.457297449686
 20
-1809.86273506981
 10
3435.008877385202
 20
-1805.114261059674
 10
3437.329156649745
 20
-1803.468125716956
 10
3441.117788408583
 20
-1802.383706266302
 10
3452.214936339859
 20
-1799.207344444132
 10
3468.424165571336
 20
-1804.71386878389
 10
3475.222802308655
 20
-1814.004705177738
 10
3480.209843583989
 20
-1820.81985900039
 10
3478.668017540235
 20
-1825.791222061629
 10
3470.570615288669
 20
-1828.112986224676
 10
3450.325971880384
 20
-1833.917695540442
 10
3430.174761371612
 20
-1839.848910495175
 10
3411.470073420654
 20
-1849.930445701388
 10
3405.811838736112
 20
-1852.980166893816
 10
3403.278274049766
 20
-1856.280305612898
 10
3403.534987931775
 20
-1863.090474419136
 10
3404.074584621418
 20
-1877.405570972954
 10
3403.902722082619
 20
-1891.703832248906
 10
3408.039552898967
 20
-1905.631582420963
 10
3410.19248217342
 20
-1912.879989130495
 10
3414.722328984009
 20
-1917.602622049744
 10
3421.842301614952
 20
-1919.979481732691
 10
3437.834002857466
 20
-1925.318096834871
 10
3453.871350265746
 20
-1923.083305298613
 10
3469.908543398857
 20
-1920.29125256581
 10
3475.296430133289
 20
-1919.353240250992
 10
3480.630455549171
 20
-1917.991029073299
 10
3486.051935701757
 20
-1917.385653308269
 10
3495.686015063295
 20
-1916.30987326711
 10
3499.534621294266
 20
-1921.621490214628
 10
3495.761879877888
 20
-1930.532462572432
 10
3493.34371301831
 20
-1936.243999328027
 10
3488.924558641821
 20
-1939.975664980535
 10
3483.314322819382
 20
-1942.474247772199
 10
3465.935668518874
 20
-1950.214040180916
 10
3447.411424663015
 20
-1950.819898055848
 10
3428.867838557783
 20
-1951.290302331981
 10
3418.511886393861
 20
-1951.553032945601
 10
3408.264640371233
 20
-1951.330375307254
 10
3398.66081822731
 20
-1946.465712810106
 10
3388.406919087998
 20
-1941.271749963707
 10
3383.07048312259
 20
-1933.364684702486
 10
3383.827183544478
 20
-1921.670414727748
 10
3384.904082080617
 20
-1905.028192948739
 10
3383.842977464954
 20
-1888.438309020974
 10
3382.719603534007
 20
-1871.838185078839
 10
3382.393542963318
 20
-1867.019949765505
 10
3380.632299059771
 20
-1867.622133962967
 10
3377.870696388543
 20
-1869.867069091615
 10
3371.010204950462
 20
-1875.44405861503
 10
3364.270443474694
 20
-1881.175959692999
 10
3357.278075693304
 20
-1886.581607356314
 10
3353.804705243294
 20
-1889.266805249863
 10
3354.66197379129
 20
-1892.442038934856
 10
3355.374050120407
 20
-1895.720887680549
 10
3357.615350140377
 20
-1906.041240849114
 10
3354.457077081826
 20
-1914.37846385163
 10
3346.270417002523
 20
-1920.901526567468
 10
3340.958375798286
 20
-1925.13410441087
 10
3335.579803427214
 20
-1923.492655176426
 10
3333.652935487034
 20
-1917.04973841113
 10
3333.233577007604
 20
-1915.647512111354
 10
3333.147935004146
 20
-1914.128113820359
 10
3332.609996772577
 20
-1912.781985829086
 10
3330.973185435413
 20
-1908.685980079463
 10
3328.984597785247
 20
-1907.404744081348
 10
3324.735888544436
 20
-1910.618527274317
 10
3311.610224620689
 20
-1920.547021512408
 10
3300.117119824748
 20
-1932.339699760876
 10
3287.378180360994
 20
-1942.683290626843
 10
3277.184959574277
 20
-1950.959844918962
 10
3266.621222862568
 20
-1958.621516238734
 10
3252.719627152839
 20
-1959.308677127981
 10
3247.758672844442
 20
-1959.553936078657
 10
3242.894159801365
 20
-1959.700709618021
 10
3239.74256878609
 20
-1954.903966764235
 10
3236.383407761938
 20
-1949.791326216549
 10
3236.576695264897
 20
-1944.404210857967
 10
3239.61090216059
 20
-1939.369537124053
 10
3241.9849318584
 20
-1935.430332799809
 10
3245.068711705039
 20
-1931.918181429071
 10
3247.845192287923
 20
-1928.222307615884
 10
3266.140703920637
 20
-1903.868660774948
 10
3279.173619540931
 20
-1876.976030332338
 10
3287.032362926411
 20
-1847.537396767844
 10
3287.877221965462
 20
-1844.372586298987
 10
3287.318008223798
 20
-1842.665126576399
 10
3284.624604819676
 20
-1840.714625608698
 10
3276.571860408576
 20
-1834.883033844651
 10
3269.129886572339
 20
-1828.374010169236
 10
3265.161692979529
 20
-1818.852378121848
 10
3264.366963728362
 20
-1816.945430962927
 10
3263.229873770632
 20
-1815.093251489174
 10
3264.17465972961
 20
-1812.079910310151
 97
        0
 97
        1
330
7F
 75
     2
 76
     1
 98
        1
 10
0.0
 20
0.0
450
        0
451
        0
460
0.0
461
0.0
452
        0
462
0.0
453
        0
470

  0
ENDSEC
  0
SECTION
  2
OBJECTS
  0
DICTIONARY
  5
C
330
0
100
AcDbDictionary
281
     1
  3
ACAD_COLOR
350
63
  3
ACAD_DETAILVIEWSTYLE
350
6A
  3
ACAD_GROUP
350
D
  3
ACAD_LAYOUT
350
62
  3
ACAD_MATERIAL
350
10
  3
ACAD_MLEADERSTYLE
350
66
  3
ACAD_MLINESTYLE
350
5F
  3
ACAD_PLOTSETTINGS
350
61
  3
ACAD_PLOTSTYLENAME
350
E
  3
ACAD_SCALELIST
350
42
  3
ACAD_SECTIONVIEWSTYLE
350
68
  3
ACAD_TABLESTYLE
350
64
  3
ACAD_VISUALSTYLE
350
29
  3
ACDB_RECOMPOSE_DATA
350
89
  3
AcDbVariableDictionary
350
81
  0
DICTIONARY
  5
63
102
{ACAD_REACTORS
330
C
102
}
330
C
100
AcDbDictionary
281
     1
  0
DICTIONARY
  5
6A
102
{ACAD_REACTORS
330
C
102
}
330
C
100
AcDbDictionary
281
     1
  3
Imperial24
350
6B
  0
DICTIONARY
  5
D
102
{ACAD_REACTORS
330
C
102
}
330
C
100
AcDbDictionary
281
     1
  0
DICTIONARY
  5
62
102
{ACAD_REACTORS
330
C
102
}
330
C
100
AcDbDictionary
281
     1
  3
Layout1
350
6F
  3
Layout2
350
77
  3
Model
350
73
  0
DICTIONARY
  5
10
102
{ACAD_REACTORS
330
C
102
}
330
C
100
AcDbDictionary
281
     1
  3
ByBlock
350
19
  3
ByLayer
350
11
  3
Global
350
21
  0
DICTIONARY
  5
66
102
{ACAD_REACTORS
330
C
102
}
330
C
100
AcDbDictionary
281
     1
  3
Standard
350
67
  0
DICTIONARY
  5
5F
102
{ACAD_REACTORS
330
C
102
}
330
C
100
AcDbDictionary
281
     1
  3
Standard
350
60
  0
DICTIONARY
  5
61
102
{ACAD_REACTORS
330
C
102
}
330
C
100
AcDbDictionary
281
     1
  0
ACDBDICTIONARYWDFLT
  5
E
102
{ACAD_REACTORS
330
C
102
}
330
C
100
AcDbDictionary
281
     1
  3
Normal
350
F
100
AcDbDictionaryWithDefault
340
F
  0
DICTIONARY
  5
42
102
{ACAD_REACTORS
330
C
102
}
330
C
100
AcDbDictionary
281
     1
  3
A0
350
43
  3
A1
350
44
  3
A2
350
45
  3
A3
350
46
  3
A4
350
47
  3
A5
350
48
  3
A6
350
49
  3
A7
350
4A
  3
A8
350
4B
  3
A9
350
4C
  3
B0
350
4D
  3
B1
350
4E
  3
B2
350
4F
  3
B3
350
50
  3
B4
350
51
  3
B5
350
52
  3
B6
350
53
  0
DICTIONARY
  5
68
102
{ACAD_REACTORS
330
C
102
}
330
C
100
AcDbDictionary
281
     1
  3
Imperial24
350
69
  0
DICTIONARY
  5
64
102
{ACAD_REACTORS
330
C
102
}
330
C
100
AcDbDictionary
281
     1
  3
Standard
350
65
  0
DICTIONARY
  5
29
102
{ACAD_REACTORS
330
C
102
}
330
C
100
AcDbDictionary
281
     1
  3
2dWireframe
350
2F
  3
Basic
350
2E
  3
Brighten
350
35
  3
ColorChange
350
39
  3
Conceptual
350
32
  3
Dim
350
34
  3
EdgeColorOff
350
41
  3
Facepattern
350
38
  3
Flat
350
2A
  3
FlatWithEdges
350
2B
  3
Gouraud
350
2C
  3
GouraudWithEdges
350
2D
  3
Hidden
350
31
  3
JitterOff
350
3F
  3
Linepattern
350
37
  3
OverhangOff
350
40
  3
Realistic
350
33
  3
Shaded
350
3E
  3
Shaded with edges
350
3D
  3
Shades of Gray
350
3A
  3
Sketchy
350
3B
  3
Thicken
350
36
  3
Wireframe
350
30
  3
X-Ray
350
3C
  0
XRECORD
  5
89
102
{ACAD_REACTORS
330
C
102
}
330
C
100
AcDbXrecord
280
     1
 90
        1
330
65
  0
DICTIONARY
  5
81
102
{ACAD_REACTORS
330
C
102
}
330
C
100
AcDbDictionary
281
     1
  3
CANNOSCALE
350
86
  3
CMLEADERSTYLE
350
83
  3
CTABLESTYLE
350
82
  3
CVIEWDETAILSTYLE
350
84
  3
CVIEWSECTIONSTYLE
350
85
  0
ACDBDETAILVIEWSTYLE
  5
6B
102
{ACAD_REACTORS
330
6A
102
}
330
6A
100
AcDbModelDocViewStyle
 70
     0
  3
Imperial24
290
     1
300
Imperial24
 90
        0
100
AcDbDetailViewStyle
 70
     0
 71
     0
 90
        3
 71
     1
340
55
 62
   256
 40
0.24
340
0
 62
   256
 40
0.24
300

 40
0.36
280
     3
 71
     2
340
5D
 90
       25
 62
   256
 71
     3
340
55
 62
   256
 40
0.24
 90
        1
 40
0.75
 90
        1
300
%<\AcVar ViewType \f "%tc1">% %<\AcVar ViewDetailId>%\PSCALE %<\AcVar ViewScale \f "%sn">%
 71
     4
340
5D
 90
       25
 62
   256
340
5D
 90
       25
 62
   256
280
     0
  0
LAYOUT
  5
6F
102
{ACAD_REACTORS
330
62
102
}
330
62
100
AcDbPlotSettings
  1

  2

  4

  6

 40
0.0
 41
0.0
 42
0.0
 43
0.0
 44
0.0
 45
0.0
 46
0.0
 47
0.0
 48
0.0
 49
0.0
140
0.0
141
0.0
142
1.0
143
1.0
 70
   688
 72
     0
 73
     0
 74
     5
  7

 75
    16
147
1.0
 76
     0
 77
     2
 78
   300
148
0.0
149
0.0
100
AcDbLayout
  1
Layout1
 70
     1
 71
     1
 10
0.0
 20
0.0
 11
12.0
 21
9.0
 12
0.0
 22
0.0
 32
0.0
 14
0.0
 24
0.0
 34
0.0
 15
0.0
 25
0.0
 35
0.0
146
0.0
 13
0.0
 23
0.0
 33
0.0
 16
1.0
 26
0.0
 36
0.0
 17
0.0
 27
1.0
 37
0.0
 76
     0
330
6C
  0
LAYOUT
  5
77
102
{ACAD_REACTORS
330
62
102
}
330
62
100
AcDbPlotSettings
  1

  2

  4

  6

 40
0.0
 41
0.0
 42
0.0
 43
0.0
 44
0.0
 45
0.0
 46
0.0
 47
0.0
 48
0.0
 49
0.0
140
0.0
141
0.0
142
1.0
143
1.0
 70
   688
 72
     0
 73
     0
 74
     5
  7

 75
    16
147
1.0
 76
     0
 77
     2
 78
   300
148
0.0
149
0.0
100
AcDbLayout
  1
Layout2
 70
     1
 71
     2
 10
0.0
 20
0.0
 11
12.0
 21
9.0
 12
0.0
 22
0.0
 32
0.0
 14
0.0
 24
0.0
 34
0.0
 15
0.0
 25
0.0
 35
0.0
146
0.0
 13
0.0
 23
0.0
 33
0.0
 16
1.0
 26
0.0
 36
0.0
 17
0.0
 27
1.0
 37
0.0
 76
     0
330
74
  0
LAYOUT
  5
73
102
{ACAD_REACTORS
330
62
102
}
330
62
100
AcDbPlotSettings
  1

  2

  4

  6

 40
0.0
 41
0.0
 42
0.0
 43
0.0
 44
0.0
 45
0.0
 46
0.0
 47
0.0
 48
0.0
 49
0.0
140
0.0
141
0.0
142
1.0
143
1.0
 70
  1712
 72
     0
 73
     0
 74
     0
  7

 75
     0
147
1.0
 76
     0
 77
     2
 78
   300
148
0.0
149
0.0
100
AcDbLayout
  1
Model
 70
     1
 71
     0
 10
0.0
 20
0.0
 11
12.0
 21
9.0
 12
0.0
 22
0.0
 32
0.0
 14
0.0
 24
0.0
 34
0.0
 15
0.0
 25
0.0
 35
0.0
146
0.0
 13
0.0
 23
0.0
 33
0.0
 16
1.0
 26
0.0
 36
0.0
 17
0.0
 27
1.0
 37
0.0
 76
     0
330
70
  0
MATERIAL
  5
19
102
{ACAD_XDICTIONARY
360
1A
102
}
102
{ACAD_REACTORS
330
10
102
}
330
10
100
AcDbMaterial
  1
ByBlock
 72
     0
 43
0.0208333333333333
 43
0.0
 43
0.0
 43
0.0
 43
0.0
 43
0.0208333333333333
 43
0.0
 43
0.0
 43
0.0
 43
0.0
 43
1.0
 43
0.0
 43
0.0
 43
0.0
 43
0.0
 43
1.0
 77
     0
 47
0.0208333333333333
 47
0.0
 47
0.0
 47
0.0
 47
0.0
 47
0.0208333333333333
 47
0.0
 47
0.0
 47
0.0
 47
0.0
 47
1.0
 47
0.0
 47
0.0
 47
0.0
 47
0.0
 47
1.0
171
     0
 49
0.0208333333333333
 49
0.0
 49
0.0
 49
0.0
 49
0.0
 49
0.0208333333333333
 49
0.0
 49
0.0
 49
0.0
 49
0.0
 49
1.0
 49
0.0
 49
0.0
 49
0.0
 49
0.0
 49
1.0
175
     0
142
0.0208333333333333
142
0.0
142
0.0
142
0.0
142
0.0
142
0.0208333333333333
142
0.0
142
0.0
142
0.0
142
0.0
142
1.0
142
0.0
142
0.0
142
0.0
142
0.0
142
1.0
179
     0
144
0.0208333333333333
144
0.0
144
0.0
144
0.0
144
0.0
144
0.0208333333333333
144
0.0
144
0.0
144
0.0
144
0.0
144
1.0
144
0.0
144
0.0
144
0.0
144
0.0
144
1.0
147
0.0208333333333333
147
0.0
147
0.0
147
0.0
147
0.0
147
0.0208333333333333
147
0.0
147
0.0
147
0.0
147
0.0
147
1.0
147
0.0
147
0.0
147
0.0
147
0.0
147
1.0
  0
MATERIAL
  5
11
102
{ACAD_XDICTIONARY
360
12
102
}
102
{ACAD_REACTORS
330
10
102
}
330
10
100
AcDbMaterial
  1
ByLayer
 72
     0
 43
0.0208333333333333
 43
0.0
 43
0.0
 43
0.0
 43
0.0
 43
0.0208333333333333
 43
0.0
 43
0.0
 43
0.0
 43
0.0
 43
1.0
 43
0.0
 43
0.0
 43
0.0
 43
0.0
 43
1.0
 77
     0
 47
0.0208333333333333
 47
0.0
 47
0.0
 47
0.0
 47
0.0
 47
0.0208333333333333
 47
0.0
 47
0.0
 47
0.0
 47
0.0
 47
1.0
 47
0.0
 47
0.0
 47
0.0
 47
0.0
 47
1.0
171
     0
 49
0.0208333333333333
 49
0.0
 49
0.0
 49
0.0
 49
0.0
 49
0.0208333333333333
 49
0.0
 49
0.0
 49
0.0
 49
0.0
 49
1.0
 49
0.0
 49
0.0
 49
0.0
 49
0.0
 49
1.0
175
     0
142
0.0208333333333333
142
0.0
142
0.0
142
0.0
142
0.0
142
0.0208333333333333
142
0.0
142
0.0
142
0.0
142
0.0
142
1.0
142
0.0
142
0.0
142
0.0
142
0.0
142
1.0
179
     0
144
0.0208333333333333
144
0.0
144
0.0
144
0.0
144
0.0
144
0.0208333333333333
144
0.0
144
0.0
144
0.0
144
0.0
144
1.0
144
0.0
144
0.0
144
0.0
144
0.0
144
1.0
147
0.0208333333333333
147
0.0
147
0.0
147
0.0
147
0.0
147
0.0208333333333333
147
0.0
147
0.0
147
0.0
147
0.0
147
1.0
147
0.0
147
0.0
147
0.0
147
0.0
147
1.0
  0
MATERIAL
  5
21
102
{ACAD_XDICTIONARY
360
22
102
}
102
{ACAD_REACTORS
330
10
102
}
330
10
100
AcDbMaterial
  1
Global
 72
     0
 43
0.0208333333333333
 43
0.0
 43
0.0
 43
0.0
 43
0.0
 43
0.0208333333333333
 43
0.0
 43
0.0
 43
0.0
 43
0.0
 43
1.0
 43
0.0
 43
0.0
 43
0.0
 43
0.0
 43
1.0
 77
     0
 47
0.0208333333333333
 47
0.0
 47
0.0
 47
0.0
 47
0.0
 47
0.0208333333333333
 47
0.0
 47
0.0
 47
0.0
 47
0.0
 47
1.0
 47
0.0
 47
0.0
 47
0.0
 47
0.0
 47
1.0
171
     0
 49
0.0208333333333333
 49
0.0
 49
0.0
 49
0.0
 49
0.0
 49
0.0208333333333333
 49
0.0
 49
0.0
 49
0.0
 49
0.0
 49
1.0
 49
0.0
 49
0.0
 49
0.0
 49
0.0
 49
1.0
175
     0
142
0.0208333333333333
142
0.0
142
0.0
142
0.0
142
0.0
142
0.0208333333333333
142
0.0
142
0.0
142
0.0
142
0.0
142
1.0
142
0.0
142
0.0
142
0.0
142
0.0
142
1.0
179
     0
144
0.0208333333333333
144
0.0
144
0.0
144
0.0
144
0.0
144
0.0208333333333333
144
0.0
144
0.0
144
0.0
144
0.0
144
1.0
144
0.0
144
0.0
144
0.0
144
0.0
144
1.0
147
0.0208333333333333
147
0.0
147
0.0
147
0.0
147
0.0
147
0.0208333333333333
147
0.0
147
0.0
147
0.0
147
0.0
147
1.0
147
0.0
147
0.0
147
0.0
147
0.0
147
1.0
  0
MLEADERSTYLE
  5
67
102
{ACAD_REACTORS
330
66
102
}
330
66
100
AcDbMLeaderStyle
179
     2
170
     2
171
     1
172
     0
 90
        2
 40
0.0
 41
0.0
173
     1
 91
-1056964608
340
5B
 92
       -2
290
     1
 42
0.09
291
     1
 43
0.36
  3
Standard
 44
0.18
300

342
55
174
     1
178
     6
175
     1
176
     0
 93
-1056964608
 45
0.18
292
     0
297
     0
 46
0.18
 94
-1056964608
 47
1.0
 49
1.0
140
1.0
293
     1
141
0.0
294
     1
177
     0
142
1.0
295
     1
296
     0
143
0.125
271
     0
272
     9
273
     9
298
     1
  0
MLINESTYLE
  5
60
102
{ACAD_REACTORS
330
5F
102
}
330
5F
100
AcDbMlineStyle
  2
STANDARD
 70
     0
  3

 62
   256
 51
90.0
 52
90.0
 71
     2
 49
0.5
 62
   256
  6
BYLAYER
 49
-0.5
 62
   256
  6
BYLAYER
  0
ACDBPLACEHOLDER
  5
F
102
{ACAD_REACTORS
330
E
102
}
330
E
  0
SCALE
  5
43
102
{ACAD_REACTORS
330
42
102
}
330
42
100
AcDbScale
 70
     0
300
1:1
140
1.0
141
1.0
290
     1
  0
SCALE
  5
44
102
{ACAD_REACTORS
330
42
102
}
330
42
100
AcDbScale
 70
     0
300
1/128" = 1'-0"
140
0.0078125
141
12.0
290
     0
  0
SCALE
  5
45
102
{ACAD_REACTORS
330
42
102
}
330
42
100
AcDbScale
 70
     0
300
1/64" = 1'-0"
140
0.015625
141
12.0
290
     0
  0
SCALE
  5
46
102
{ACAD_REACTORS
330
42
102
}
330
42
100
AcDbScale
 70
     0
300
1/32" = 1'-0"
140
0.03125
141
12.0
290
     0
  0
SCALE
  5
47
102
{ACAD_REACTORS
330
42
102
}
330
42
100
AcDbScale
 70
     0
300
1/16" = 1'-0"
140
0.0625
141
12.0
290
     0
  0
SCALE
  5
48
102
{ACAD_REACTORS
330
42
102
}
330
42
100
AcDbScale
 70
     0
300
3/32" = 1'-0"
140
0.09375
141
12.0
290
     0
  0
SCALE
  5
49
102
{ACAD_REACTORS
330
42
102
}
330
42
100
AcDbScale
 70
     0
300
1/8" = 1'-0"
140
0.125
141
12.0
290
     0
  0
SCALE
  5
4A
102
{ACAD_REACTORS
330
42
102
}
330
42
100
AcDbScale
 70
     0
300
3/16" = 1'-0"
140
0.1875
141
12.0
290
     0
  0
SCALE
  5
4B
102
{ACAD_REACTORS
330
42
102
}
330
42
100
AcDbScale
 70
     0
300
1/4" = 1'-0"
140
0.25
141
12.0
290
     0
  0
SCALE
  5
4C
102
{ACAD_REACTORS
330
42
102
}
330
42
100
AcDbScale
 70
     0
300
3/8" = 1'-0"
140
0.375
141
12.0
290
     0
  0
SCALE
  5
4D
102
{ACAD_REACTORS
330
42
102
}
330
42
100
AcDbScale
 70
     0
300
1/2" = 1'-0"
140
0.5
141
12.0
290
     0
  0
SCALE
  5
4E
102
{ACAD_REACTORS
330
42
102
}
330
42
100
AcDbScale
 70
     0
300
3/4" = 1'-0"
140
0.75
141
12.0
290
     0
  0
SCALE
  5
4F
102
{ACAD_REACTORS
330
42
102
}
330
42
100
AcDbScale
 70
     0
300
1" = 1'-0"
140
1.0
141
12.0
290
     0
  0
SCALE
  5
50
102
{ACAD_REACTORS
330
42
102
}
330
42
100
AcDbScale
 70
     0
300
1-1/2" = 1'-0"
140
1.5
141
12.0
290
     0
  0
SCALE
  5
51
102
{ACAD_REACTORS
330
42
102
}
330
42
100
AcDbScale
 70
     0
300
3" = 1'-0"
140
3.0
141
12.0
290
     0
  0
SCALE
  5
52
102
{ACAD_REACTORS
330
42
102
}
330
42
100
AcDbScale
 70
     0
300
6" = 1'-0"
140
6.0
141
12.0
290
     0
  0
SCALE
  5
53
102
{ACAD_REACTORS
330
42
102
}
330
42
100
AcDbScale
 70
     0
300
1'-0" = 1'-0"
140
12.0
141
12.0
290
     0
  0
ACDBSECTIONVIEWSTYLE
  5
69
102
{ACAD_REACTORS
330
68
102
}
330
68
100
AcDbModelDocViewStyle
 70
     0
  3
Imperial24
290
     1
300
Imperial24
 90
        0
100
AcDbSectionViewStyle
 70
     0
 71
     0
 90
       78
 71
     1
340
55
 62
   256
 40
0.24
340
0
340
0
 62
   256
 40
0.24
300
I, O, Q, S, X, Z
 40
0.48
 90
        3
 40
0.18
 90
        1
 71
     2
340
5D
 90
       25
 62
   256
340
5D
 90
       50
 62
   256
 40
0.24
 40
0.0
 40
0.24
 71
     3
340
55
 62
   256
 40
0.24
 90
        1
 40
0.75
 90
        1
300
%<\AcVar ViewType \f "%tc1">% %<\AcVar ViewSectionStartId>%-%<\AcVar ViewSectionEndId>%\PSCALE %<\AcVar ViewScale \f "%sn">%
 71
     4
 62
   256
 62
   257
300
ANSI31
 40
1.0
 90
        0
290
     0
290
     0
 90
        6
 40
0.0
 40
1.570796326794896
 40
0.2617993877991494
 40
1.308996938995747
 40
-0.2617993877991494
 40
1.832595714594046
  0
TABLESTYLE
  5
65
102
{ACAD_XDICTIONARY
360
87
102
}
102
{ACAD_REACTORS
330
64
102
}
330
64
100
AcDbTableStyle
280
     0
  3
Standard
 70
     0
 71
     0
 40
0.06
 41
0.06
280
     0
281
     0
  7
Standard
140
0.18
170
     2
 62
     0
 63
     7
283
     0
 90
      512
 91
        0
  1

274
    -2
284
     1
 64
     0
275
    -2
285
     1
 65
     0
276
    -2
286
     1
 66
     0
277
    -2
287
     1
 67
     0
278
    -2
288
     1
 68
     0
279
    -2
289
     1
 69
     0
  7
Standard
140
0.25
170
     5
 62
     0
 63
     7
283
     0
 90
      512
 91
        0
  1

274
    -2
284
     1
 64
     0
275
    -2
285
     1
 65
     0
276
    -2
286
     1
 66
     0
277
    -2
287
     1
 67
     0
278
    -2
288
     1
 68
     0
279
    -2
289
     1
 69
     0
  7
Standard
140
0.18
170
     5
 62
     0
 63
     7
283
     0
 90
      512
 91
        0
  1

274
    -2
284
     1
 64
     0
275
    -2
285
     1
 65
     0
276
    -2
286
     1
 66
     0
277
    -2
287
     1
 67
     0
278
    -2
288
     1
 68
     0
279
    -2
289
     1
 69
     0
  0
VISUALSTYLE
  5
2F
102
{ACAD_REACTORS
330
29
102
}
330
29
100
AcDbVisualStyle
  2
2dWireframe
 70
     4
177
     3
291
     0
 70
    58
 90
        0
176
     1
 90
        2
176
     1
 90
        0
176
     1
 90
        0
176
     1
 40
0.6
176
     1
 40
30.0
176
     1
 62
     7
420
 16777215
176
     1
 90
        1
176
     1
 90
        4
176
     1
 62
     7
176
     1
 62
   257
176
     1
 90
        1
176
     1
 90
        1
176
     1
 40
1.0
176
     1
 90
        0
176
     1
 62
   257
176
     1
 40
1.0
176
     1
 90
        1
176
     1
 90
        6
176
     1
 90
        2
176
     1
 62
     7
176
     1
 90
        5
176
     1
 90
        0
176
     1
 90
        0
176
     1
290
     0
176
     1
 90
        1
176
     1
 40
0.0
176
     1
 90
        0
176
     1
290
     1
176
     1
290
     1
176
     1
290
     0
176
     1
290
     0
176
     1
290
     0
176
     1
290
     0
176
     1
290
     0
176
     1
290
     0
176
     1
290
     0
176
     1
 90
       50
176
     1
 40
0.0
176
     1
 40
1.0
176
     1
 90
        0
176
     1
 62
    18
420
        0
176
     1
 90
       50
176
     1
 90
        3
176
     1
 62
     5
420
      255
176
     1
290
     0
176
     1
 90
       50
176
     1
 90
       50
176
     1
 90
       50
176
     1
290
     0
176
     1
 90
       50
176
     1
 62
   256
176
     0
 40
1.0
176
     0
 90
        2
176
     1
  1
strokes_ogs.tif
176
     1
290
     0
176
     1
 40
1.0
176
     1
 40
1.0
176
     1
  0
VISUALSTYLE
  5
2E
102
{ACAD_REACTORS
330
29
102
}
330
29
100
AcDbVisualStyle
  2
Basic
 70
     7
177
     3
291
     1
 70
    58
 90
        1
176
     1
 90
        0
176
     1
 90
        1
176
     1
 90
        0
176
     1
 40
0.6
176
     1
 40
30.0
176
     1
 62
     7
420
 16777215
176
     1
 90
        0
176
     1
 90
        4
176
     1
 62
     7
176
     1
 62
   257
176
     1
 90
        1
176
     1
 90
        1
176
     1
 40
1.0
176
     1
 90
        8
176
     1
 62
     7
176
     1
 40
1.0
176
     1
 90
        1
176
     1
 90
        6
176
     1
 90
        2
176
     1
 62
     7
176
     1
 90
        5
176
     1
 90
        0
176
     1
 90
        0
176
     1
290
     0
176
     1
 90
        1
176
     1
 40
0.0
176
     1
 90
        0
176
     1
290
     0
176
     1
290
     1
176
     1
290
     1
176
     1
290
     0
176
     1
290
     0
176
     1
290
     0
176
     1
290
     0
176
     1
290
     0
176
     1
290
     0
176
     1
 90
       50
176
     1
 40
0.0
176
     1
 40
1.0
176
     1
 90
        0
176
     1
 62
    18
420
        0
176
     1
 90
       50
176
     1
 90
        3
176
     1
 62
     5
420
      255
176
     1
290
     0
176
     1
 90
       50
176
     1
 90
       50
176
     1
 90
       50
176
     1
290
     0
176
     1
 90
       50
176
     1
 62
   256
176
     0
 40
1.0
176
     0
 90
        2
176
     1
  1
strokes_ogs.tif
176
     1
290
     0
176
     1
 40
1.0
176
     1
 40
1.0
176
     1
  0
VISUALSTYLE
  5
35
102
{ACAD_REACTORS
330
29
102
}
330
29
100
AcDbVisualStyle
  2
Brighten
 70
    12
177
     3
291
     1
 70
    58
 90
        2
176
     1
 90
        2
176
     1
 90
        0
176
     1
 90
        0
176
     1
 40
0.6
176
     1
 40
30.0
176
     1
 62
     7
420
 16777215
176
     1
 90
        1
176
     1
 90
        4
176
     1
 62
     7
176
     1
 62
   257
176
     1
 90
        1
176
     1
 90
        1
176
     1
 40
1.0
176
     1
 90
        8
176
     1
 62
     7
176
     1
 40
1.0
176
     1
 90
        1
176
     1
 90
        6
176
     1
 90
        2
176
     1
 62
     7
176
     1
 90
        5
176
     1
 90
        0
176
     1
 90
        0
176
     1
290
     0
176
     1
 90
        1
176
     1
 40
50.0
176
     1
 90
        0
176
     1
290
     0
176
     1
290
     1
176
     1
290
     1
176
     1
290
     0
176
     1
290
     0
176
     1
290
     0
176
     1
290
     0
176
     1
290
     0
176
     1
290
     0
176
     1
 90
       50
176
     1
 40
0.0
176
     1
 40
1.0
176
     1
 90
        0
176
     1
 62
    18
420
        0
176
     1
 90
       50
176
     1
 90
        3
176
     1
 62
     5
420
      255
176
     1
290
     0
176
     1
 90
       50
176
     1
 90
       50
176
     1
 90
       50
176
     1
290
     0
176
     1
 90
       50
176
     1
 62
   256
176
     0
 40
1.0
176
     0
 90
        2
176
     1
  1
strokes_ogs.tif
176
     1
290
     0
176
     1
 40
1.0
176
     1
 40
1.0
176
     1
  0
VISUALSTYLE
  5
39
102
{ACAD_REACTORS
330
29
102
}
330
29
100
AcDbVisualStyle
  2
ColorChange
 70
    16
177
     3
291
     1
 70
    58
 90
        2
176
     1
 90
        2
176
     1
 90
        3
176
     1
 90
        0
176
     1
 40
0.6
176
     1
 40
30.0
176
     1
 62
     8
420
  8421504
176
     1
 90
        1
176
     1
 90
        4
176
     1
 62
     7
176
     1
 62
   257
176
     1
 90
        1
176
     1
 90
        1
176
     1
 40
1.0
176
     1
 90
        8
176
     1
 62
     8
420
  8421504
176
     1
 40
1.0
176
     1
 90
        1
176
     1
 90
        6
176
     1
 90
        2
176
     1
 62
     7
176
     1
 90
        5
176
     1
 90
        0
176
     1
 90
        0
176
     1
290
     0
176
     1
 90
        1
176
     1
 40
0.0
176
     1
 90
        0
176
     1
290
     0
176
     1
290
     1
176
     1
290
     1
176
     1
290
     0
176
     1
290
     0
176
     1
290
     0
176
     1
290
     0
176
     1
290
     0
176
     1
290
     0
176
     1
 90
       50
176
     1
 40
0.0
176
     1
 40
1.0
176
     1
 90
        0
176
     1
 62
    18
420
        0
176
     1
 90
       50
176
     1
 90
        3
176
     1
 62
     5
420
      255
176
     1
290
     0
176
     1
 90
       50
176
     1
 90
       50
176
     1
 90
       50
176
     1
290
     0
176
     1
 90
       50
176
     1
 62
   256
176
     0
 40
1.0
176
     0
 90
        2
176
     1
  1
strokes_ogs.tif
176
     1
290
     0
176
     1
 40
1.0
176
     1
 40
1.0
176
     1
  0
VISUALSTYLE
  5
32
102
{ACAD_REACTORS
330
29
102
}
330
29
100
AcDbVisualStyle
  2
Conceptual
 70
     9
177
     3
291
     0
 70
    58
 90
        3
176
     1
 90
        2
176
     1
 90
        0
176
     1
 90
        0
176
     1
 40
0.6
176
     1
 40
30.0
176
     1
 62
     7
420
 16777215
176
     1
 90
        2
176
     1
 90
        2
176
     1
 62
     7
176
     1
 62
   257
176
     1
 90
        1
176
     1
 90
        1
176
     1
 40
179.0
176
     1
 90
        8
176
     1
 62
     7
176
     1
 40
1.0
176
     1
 90
        1
176
     1
 90
        6
176
     1
 90
        2
176
     1
 62
     7
176
     1
 90
        3
176
     1
 90
        0
176
     1
 90
        0
176
     1
290
     0
176
     1
 90
        1
176
     1
 40
0.0
176
     1
 90
        0
176
     1
290
     0
176
     1
290
     1
176
     1
290
     1
176
     1
290
     0
176
     1
290
     0
176
     1
290
     0
176
     1
290
     0
176
     1
290
     0
176
     1
290
     0
176
     1
 90
       50
176
     1
 40
0.0
176
     1
 40
1.0
176
     1
 90
        0
176
     1
 62
    18
420
        0
176
     1
 90
       50
176
     1
 90
        3
176
     1
 62
     5
420
      255
176
     1
290
     0
176
     1
 90
       50
176
     1
 90
       50
176
     1
 90
       50
176
     1
290
     0
176
     1
 90
       50
176
     1
 62
   256
176
     0
 40
1.0
176
     0
 90
        2
176
     1
  1
strokes_ogs.tif
176
     1
290
     0
176
     1
 40
1.0
176
     1
 40
1.0
176
     1
  0
VISUALSTYLE
  5
34
102
{ACAD_REACTORS
330
29
102
}
330
29
100
AcDbVisualStyle
  2
Dim
 70
    11
177
     3
291
     1
 70
    58
 90
        2
176
     1
 90
        2
176
     1
 90
        0
176
     1
 90
        0
176
     1
 40
0.6
176
     1
 40
30.0
176
     1
 62
     7
420
 16777215
176
     1
 90
        1
176
     1
 90
        4
176
     1
 62
     7
176
     1
 62
   257
176
     1
 90
        1
176
     1
 90
        1
176
     1
 40
1.0
176
     1
 90
        8
176
     1
 62
     7
176
     1
 40
1.0
176
     1
 90
        1
176
     1
 90
        6
176
     1
 90
        2
176
     1
 62
     7
176
     1
 90
        5
176
     1
 90
        0
176
     1
 90
        0
176
     1
290
     0
176
     1
 90
        1
176
     1
 40
-50.0
176
     1
 90
        0
176
     1
290
     0
176
     1
290
     1
176
     1
290
     1
176
     1
290
     0
176
     1
290
     0
176
     1
290
     0
176
     1
290
     0
176
     1
290
     0
176
     1
290
     0
176
     1
 90
       50
176
     1
 40
0.0
176
     1
 40
1.0
176
     1
 90
        0
176
     1
 62
    18
420
        0
176
     1
 90
       50
176
     1
 90
        3
176
     1
 62
     5
420
      255
176
     1
290
     0
176
     1
 90
       50
176
     1
 90
       50
176
     1
 90
       50
176
     1
290
     0
176
     1
 90
       50
176
     1
 62
   256
176
     0
 40
1.0
176
     0
 90
        2
176
     1
  1
strokes_ogs.tif
176
     1
290
     0
176
     1
 40
1.0
176
     1
 40
1.0
176
     1
  0
VISUALSTYLE
  5
41
102
{ACAD_REACTORS
330
29
102
}
330
29
100
AcDbVisualStyle
  2
EdgeColorOff
 70
    22
177
     3
291
     1
 70
    58
 90
        2
176
     0
 90
        2
176
     0
 90
        0
176
     0
 90
        0
176
     0
 40
0.6
176
     0
 40
30.0
176
     0
 62
     7
420
 16777215
176
     0
 90
        1
176
     0
 90
        4
176
     0
 62
     7
176
     0
 62
   257
176
     0
 90
        1
176
     0
 90
        1
176
     0
 40
1.0
176
     0
 90
        8
176
     2
 62
     7
176
     0
 40
1.0
176
     0
 90
        1
176
     0
 90
        6
176
     0
 90
        2
176
     0
 62
     7
176
     0
 90
        5
176
     0
 90
        0
176
     0
 90
        0
176
     0
290
     0
176
     0
 90
        1
176
     0
 40
0.0
176
     0
 90
        0
176
     0
290
     0
176
     0
290
     1
176
     0
290
     1
176
     0
290
     0
176
     0
290
     0
176
     0
290
     0
176
     0
290
     0
176
     0
290
     0
176
     0
290
     0
176
     0
 90
       50
176
     0
 40
0.0
176
     0
 40
1.0
176
     0
 90
        0
176
     0
 62
    18
420
        0
176
     0
 90
       50
176
     0
 90
        3
176
     0
 62
     5
420
      255
176
     0
290
     0
176
     0
 90
       50
176
     0
 90
       50
176
     0
 90
       50
176
     0
290
     0
176
     0
 90
       50
176
     0
 62
   256
176
     0
 40
1.0
176
     0
 90
        2
176
     0
  1
strokes_ogs.tif
176
     0
290
     0
176
     0
 40
1.0
176
     0
 40
1.0
176
     0
  0
VISUALSTYLE
  5
38
102
{ACAD_REACTORS
330
29
102
}
330
29
100
AcDbVisualStyle
  2
Facepattern
 70
    15
177
     3
291
     1
 70
    58
 90
        2
176
     1
 90
        2
176
     1
 90
        0
176
     1
 90
        0
176
     1
 40
0.6
176
     1
 40
30.0
176
     1
 62
     7
420
 16777215
176
     1
 90
        1
176
     1
 90
        4
176
     1
 62
     7
176
     1
 62
   257
176
     1
 90
        1
176
     1
 90
        1
176
     1
 40
1.0
176
     1
 90
        8
176
     1
 62
     7
176
     1
 40
1.0
176
     1
 90
        1
176
     1
 90
        6
176
     1
 90
        2
176
     1
 62
     7
176
     1
 90
        5
176
     1
 90
        0
176
     1
 90
        0
176
     1
290
     0
176
     1
 90
        1
176
     1
 40
0.0
176
     1
 90
        0
176
     1
290
     0
176
     1
290
     1
176
     1
290
     1
176
     1
290
     0
176
     1
290
     0
176
     1
290
     0
176
     1
290
     0
176
     1
290
     0
176
     1
290
     0
176
     1
 90
       50
176
     1
 40
0.0
176
     1
 40
1.0
176
     1
 90
        0
176
     1
 62
    18
420
        0
176
     1
 90
       50
176
     1
 90
        3
176
     1
 62
     5
420
      255
176
     1
290
     0
176
     1
 90
       50
176
     1
 90
       50
176
     1
 90
       50
176
     1
290
     0
176
     1
 90
       50
176
     1
 62
   256
176
     0
 40
1.0
176
     0
 90
        2
176
     1
  1
strokes_ogs.tif
176
     1
290
     0
176
     1
 40
1.0
176
     1
 40
1.0
176
     1
  0
VISUALSTYLE
  5
2A
102
{ACAD_REACTORS
330
29
102
}
330
29
100
AcDbVisualStyle
  2
Flat
 70
     0
177
     3
291
     1
 70
    58
 90
        2
176
     1
 90
        1
176
     1
 90
        1
176
     1
 90
        2
176
     1
 40
0.6
176
     1
 40
30.0
176
     1
 62
     7
420
 16777215
176
     1
 90
        0
176
     1
 90
        0
176
     1
 62
     7
176
     1
 62
   257
176
     1
 90
        1
176
     1
 90
        1
176
     1
 40
1.0
176
     1
 90
        8
176
     1
 62
     7
176
     1
 40
1.0
176
     1
 90
        1
176
     1
 90
        6
176
     1
 90
        2
176
     1
 62
     7
176
     1
 90
        5
176
     1
 90
        0
176
     1
 90
        0
176
     1
290
     0
176
     1
 90
       13
176
     1
 40
0.0
176
     1
 90
        0
176
     1
290
     0
176
     1
290
     1
176
     1
290
     1
176
     1
290
     0
176
     1
290
     0
176
     1
290
     0
176
     1
290
     0
176
     1
290
     0
176
     1
290
     0
176
     1
 90
       50
176
     1
 40
0.0
176
     1
 40
1.0
176
     1
 90
        0
176
     1
 62
    18
420
        0
176
     1
 90
       50
176
     1
 90
        3
176
     1
 62
     5
420
      255
176
     1
290
     0
176
     1
 90
       50
176
     1
 90
       50
176
     1
 90
       50
176
     1
290
     0
176
     1
 90
       50
176
     1
 62
   256
176
     0
 40
1.0
176
     0
 90
        2
176
     1
  1
strokes_ogs.tif
176
     1
290
     0
176
     1
 40
1.0
176
     1
 40
1.0
176
     1
  0
VISUALSTYLE
  5
2B
102
{ACAD_REACTORS
330
29
102
}
330
29
100
AcDbVisualStyle
  2
FlatWithEdges
 70
     1
177
     3
291
     1
 70
    58
 90
        2
176
     1
 90
        1
176
     1
 90
        1
176
     1
 90
        2
176
     1
 40
0.6
176
     1
 40
30.0
176
     1
 62
     7
420
 16777215
176
     1
 90
        1
176
     1
 90
        0
176
     1
 62
     7
176
     1
 62
   257
176
     1
 90
        1
176
     1
 90
        1
176
     1
 40
1.0
176
     1
 90
        0
176
     1
 62
   257
176
     1
 40
1.0
176
     1
 90
        1
176
     1
 90
        6
176
     1
 90
        2
176
     1
 62
     7
176
     1
 90
        5
176
     1
 90
        0
176
     1
 90
        0
176
     1
290
     0
176
     1
 90
       13
176
     1
 40
0.0
176
     1
 90
        0
176
     1
290
     0
176
     1
290
     1
176
     1
290
     1
176
     1
290
     0
176
     1
290
     0
176
     1
290
     0
176
     1
290
     0
176
     1
290
     0
176
     1
290
     0
176
     1
 90
       50
176
     1
 40
0.0
176
     1
 40
1.0
176
     1
 90
        0
176
     1
 62
    18
420
        0
176
     1
 90
       50
176
     1
 90
        3
176
     1
 62
     5
420
      255
176
     1
290
     0
176
     1
 90
       50
176
     1
 90
       50
176
     1
 90
       50
176
     1
290
     0
176
     1
 90
       50
176
     1
 62
   256
176
     0
 40
1.0
176
     0
 90
        2
176
     1
  1
strokes_ogs.tif
176
     1
290
     0
176
     1
 40
1.0
176
     1
 40
1.0
176
     1
  0
VISUALSTYLE
  5
2C
102
{ACAD_REACTORS
330
29
102
}
330
29
100
AcDbVisualStyle
  2
Gouraud
 70
     2
177
     3
291
     1
 70
    58
 90
        2
176
     1
 90
        2
176
     1
 90
        1
176
     1
 90
        2
176
     1
 40
0.6
176
     1
 40
30.0
176
     1
 62
     7
420
 16777215
176
     1
 90
        0
176
     1
 90
        0
176
     1
 62
     7
176
     1
 62
   257
176
     1
 90
        1
176
     1
 90
        1
176
     1
 40
1.0
176
     1
 90
        0
176
     1
 62
     7
176
     1
 40
1.0
176
     1
 90
        1
176
     1
 90
        6
176
     1
 90
        2
176
     1
 62
     7
176
     1
 90
        5
176
     1
 90
        0
176
     1
 90
        0
176
     1
290
     0
176
     1
 90
       13
176
     1
 40
0.0
176
     1
 90
        0
176
     1
290
     0
176
     1
290
     1
176
     1
290
     1
176
     1
290
     0
176
     1
290
     0
176
     1
290
     0
176
     1
290
     0
176
     1
290
     0
176
     1
290
     0
176
     1
 90
       50
176
     1
 40
0.0
176
     1
 40
1.0
176
     1
 90
        0
176
     1
 62
    18
420
        0
176
     1
 90
       50
176
     1
 90
        3
176
     1
 62
     5
420
      255
176
     1
290
     0
176
     1
 90
       50
176
     1
 90
       50
176
     1
 90
       50
176
     1
290
     0
176
     1
 90
       50
176
     1
 62
   256
176
     0
 40
1.0
176
     0
 90
        2
176
     1
  1
strokes_ogs.tif
176
     1
290
     0
176
     1
 40
1.0
176
     1
 40
1.0
176
     1
  0
VISUALSTYLE
  5
2D
102
{ACAD_REACTORS
330
29
102
}
330
29
100
AcDbVisualStyle
  2
GouraudWithEdges
 70
     3
177
     3
291
     1
 70
    58
 90
        2
176
     1
 90
        2
176
     1
 90
        1
176
     1
 90
        2
176
     1
 40
0.6
176
     1
 40
30.0
176
     1
 62
     7
420
 16777215
176
     1
 90
        1
176
     1
 90
        0
176
     1
 62
     7
176
     1
 62
   257
176
     1
 90
        1
176
     1
 90
        1
176
     1
 40
1.0
176
     1
 90
        0
176
     1
 62
   257
176
     1
 40
1.0
176
     1
 90
        1
176
     1
 90
        6
176
     1
 90
        2
176
     1
 62
     7
176
     1
 90
        5
176
     1
 90
        0
176
     1
 90
        0
176
     1
290
     0
176
     1
 90
       13
176
     1
 40
0.0
176
     1
 90
        0
176
     1
290
     0
176
     1
290
     1
176
     1
290
     1
176
     1
290
     0
176
     1
290
     0
176
     1
290
     0
176
     1
290
     0
176
     1
290
     0
176
     1
290
     0
176
     1
 90
       50
176
     1
 40
0.0
176
     1
 40
1.0
176
     1
 90
        0
176
     1
 62
    18
420
        0
176
     1
 90
       50
176
     1
 90
        3
176
     1
 62
     5
420
      255
176
     1
290
     0
176
     1
 90
       50
176
     1
 90
       50
176
     1
 90
       50
176
     1
290
     0
176
     1
 90
       50
176
     1
 62
   256
176
     0
 40
1.0
176
     0
 90
        2
176
     1
  1
strokes_ogs.tif
176
     1
290
     0
176
     1
 40
1.0
176
     1
 40
1.0
176
     1
  0
VISUALSTYLE
  5
31
102
{ACAD_REACTORS
330
29
102
}
330
29
100
AcDbVisualStyle
  2
Hidden
 70
     6
177
     3
291
     0
 70
    58
 90
        1
176
     1
 90
        2
176
     1
 90
        2
176
     1
 90
        0
176
     1
 40
0.6
176
     1
 40
30.0
176
     1
 62
     7
420
 16777215
176
     1
 90
        2
176
     1
 90
        2
176
     1
 62
     7
176
     1
 62
   257
176
     1
 90
        2
176
     1
 90
        1
176
     1
 40
40.0
176
     1
 90
        0
176
     1
 62
   257
176
     1
 40
1.0
176
     1
 90
        1
176
     1
 90
        6
176
     1
 90
        2
176
     1
 62
     7
176
     1
 90
        3
176
     1
 90
        0
176
     1
 90
        0
176
     1
290
     0
176
     1
 90
        1
176
     1
 40
0.0
176
     1
 90
        0
176
     1
290
     0
176
     1
290
     1
176
     1
290
     1
176
     1
290
     0
176
     1
290
     0
176
     1
290
     0
176
     1
290
     0
176
     1
290
     0
176
     1
290
     0
176
     1
 90
       50
176
     1
 40
0.0
176
     1
 40
1.0
176
     1
 90
        0
176
     1
 62
    18
420
        0
176
     1
 90
       50
176
     1
 90
        3
176
     1
 62
     5
420
      255
176
     1
290
     0
176
     1
 90
       50
176
     1
 90
       50
176
     1
 90
       50
176
     1
290
     0
176
     1
 90
       50
176
     1
 62
   256
176
     0
 40
1.0
176
     0
 90
        2
176
     1
  1
strokes_ogs.tif
176
     1
290
     0
176
     1
 40
1.0
176
     1
 40
1.0
176
     1
  0
VISUALSTYLE
  5
3F
102
{ACAD_REACTORS
330
29
102
}
330
29
100
AcDbVisualStyle
  2
JitterOff
 70
    20
177
     3
291
     1
 70
    58
 90
        2
176
     0
 90
        2
176
     0
 90
        0
176
     0
 90
        0
176
     0
 40
0.6
176
     0
 40
30.0
176
     0
 62
     7
420
 16777215
176
     0
 90
        1
176
     0
 90
        4
176
     0
 62
     7
176
     0
 62
   257
176
     0
 90
        1
176
     0
 90
        1
176
     0
 40
1.0
176
     0
 90
       10
176
     2
 62
     7
176
     0
 40
1.0
176
     0
 90
        1
176
     0
 90
        6
176
     0
 90
        2
176
     0
 62
     7
176
     0
 90
        5
176
     0
 90
        0
176
     0
 90
        0
176
     0
290
     0
176
     0
 90
        1
176
     0
 40
0.0
176
     0
 90
        0
176
     0
290
     0
176
     0
290
     1
176
     0
290
     1
176
     0
290
     0
176
     0
290
     0
176
     0
290
     0
176
     0
290
     0
176
     0
290
     0
176
     0
290
     0
176
     0
 90
       50
176
     0
 40
0.0
176
     0
 40
1.0
176
     0
 90
        0
176
     0
 62
    18
420
        0
176
     0
 90
       50
176
     0
 90
        3
176
     0
 62
     5
420
      255
176
     0
290
     0
176
     0
 90
       50
176
     0
 90
       50
176
     0
 90
       50
176
     0
290
     0
176
     0
 90
       50
176
     0
 62
   256
176
     0
 40
1.0
176
     0
 90
        2
176
     0
  1
strokes_ogs.tif
176
     0
290
     0
176
     0
 40
1.0
176
     0
 40
1.0
176
     0
  0
VISUALSTYLE
  5
37
102
{ACAD_REACTORS
330
29
102
}
330
29
100
AcDbVisualStyle
  2
Linepattern
 70
    14
177
     3
291
     1
 70
    58
 90
        2
176
     1
 90
        2
176
     1
 90
        0
176
     1
 90
        0
176
     1
 40
0.6
176
     1
 40
30.0
176
     1
 62
     7
420
 16777215
176
     1
 90
        1
176
     1
 90
        4
176
     1
 62
     7
176
     1
 62
   257
176
     1
 90
        7
176
     1
 90
        7
176
     1
 40
1.0
176
     1
 90
        8
176
     1
 62
     7
176
     1
 40
1.0
176
     1
 90
        1
176
     1
 90
        6
176
     1
 90
        2
176
     1
 62
     7
176
     1
 90
        5
176
     1
 90
        0
176
     1
 90
        0
176
     1
290
     0
176
     1
 90
        1
176
     1
 40
0.0
176
     1
 90
        0
176
     1
290
     0
176
     1
290
     1
176
     1
290
     1
176
     1
290
     0
176
     1
290
     0
176
     1
290
     0
176
     1
290
     0
176
     1
290
     0
176
     1
290
     0
176
     1
 90
       50
176
     1
 40
0.0
176
     1
 40
1.0
176
     1
 90
        0
176
     1
 62
    18
420
        0
176
     1
 90
       50
176
     1
 90
        3
176
     1
 62
     5
420
      255
176
     1
290
     0
176
     1
 90
       50
176
     1
 90
       50
176
     1
 90
       50
176
     1
290
     0
176
     1
 90
       50
176
     1
 62
   256
176
     0
 40
1.0
176
     0
 90
        2
176
     1
  1
strokes_ogs.tif
176
     1
290
     0
176
     1
 40
1.0
176
     1
 40
1.0
176
     1
  0
VISUALSTYLE
  5
40
102
{ACAD_REACTORS
330
29
102
}
330
29
100
AcDbVisualStyle
  2
OverhangOff
 70
    21
177
     3
291
     1
 70
    58
 90
        2
176
     0
 90
        2
176
     0
 90
        0
176
     0
 90
        0
176
     0
 40
0.6
176
     0
 40
30.0
176
     0
 62
     7
420
 16777215
176
     0
 90
        1
176
     0
 90
        4
176
     0
 62
     7
176
     0
 62
   257
176
     0
 90
        1
176
     0
 90
        1
176
     0
 40
1.0
176
     0
 90
        9
176
     2
 62
     7
176
     0
 40
1.0
176
     0
 90
        1
176
     0
 90
        6
176
     0
 90
        2
176
     0
 62
     7
176
     0
 90
        5
176
     0
 90
        0
176
     0
 90
        0
176
     0
290
     0
176
     0
 90
        1
176
     0
 40
0.0
176
     0
 90
        0
176
     0
290
     0
176
     0
290
     1
176
     0
290
     1
176
     0
290
     0
176
     0
290
     0
176
     0
290
     0
176
     0
290
     0
176
     0
290
     0
176
     0
290
     0
176
     0
 90
       50
176
     0
 40
0.0
176
     0
 40
1.0
176
     0
 90
        0
176
     0
 62
    18
420
        0
176
     0
 90
       50
176
     0
 90
        3
176
     0
 62
     5
420
      255
176
     0
290
     0
176
     0
 90
       50
176
     0
 90
       50
176
     0
 90
       50
176
     0
290
     0
176
     0
 90
       50
176
     0
 62
   256
176
     0
 40
1.0
176
     0
 90
        2
176
     0
  1
strokes_ogs.tif
176
     0
290
     0
176
     0
 40
1.0
176
     0
 40
1.0
176
     0
  0
VISUALSTYLE
  5
33
102
{ACAD_REACTORS
330
29
102
}
330
29
100
AcDbVisualStyle
  2
Realistic
 70
     8
177
     3
291
     0
 70
    58
 90
        2
176
     1
 90
        3
176
     1
 90
        0
176
     1
 90
        2
176
     1
 40
0.6
176
     1
 40
30.0
176
     1
 62
     7
420
 16777215
176
     1
 90
        0
176
     1
 90
        0
176
     1
 62
     7
176
     1
 62
   257
176
     1
 90
        1
176
     1
 90
        1
176
     1
 40
1.0
176
     1
 90
        8
176
     1
 62
   257
176
     1
 40
1.0
176
     1
 90
        1
176
     1
 90
        6
176
     1
 90
        2
176
     1
 62
     7
176
     1
 90
        3
176
     1
 90
        0
176
     1
 90
        0
176
     1
290
     0
176
     1
 90
       13
176
     1
 40
0.0
176
     1
 90
        0
176
     1
290
     0
176
     1
290
     1
176
     1
290
     1
176
     1
290
     0
176
     1
290
     0
176
     1
290
     0
176
     1
290
     0
176
     1
290
     0
176
     1
290
     0
176
     1
 90
       50
176
     1
 40
0.0
176
     1
 40
1.0
176
     1
 90
        0
176
     1
 62
    18
420
        0
176
     1
 90
       50
176
     1
 90
        3
176
     1
 62
     5
420
      255
176
     1
290
     0
176
     1
 90
       50
176
     1
 90
       50
176
     1
 90
       50
176
     1
290
     0
176
     1
 90
       50
176
     1
 62
   256
176
     0
 40
1.0
176
     0
 90
        2
176
     1
  1
strokes_ogs.tif
176
     1
290
     0
176
     1
 40
1.0
176
     1
 40
1.0
176
     1
  0
VISUALSTYLE
  5
3E
102
{ACAD_REACTORS
330
29
102
}
330
29
100
AcDbVisualStyle
  2
Shaded
 70
    27
177
     3
291
     0
 70
    58
 90
        2
176
     1
 90
        2
176
     1
 90
        1
176
     1
 90
        2
176
     1
 40
0.6
176
     1
 40
30.0
176
     1
 62
     7
420
 16777215
176
     1
 90
        0
176
     1
 90
        4
176
     1
 62
     7
176
     1
 62
   257
176
     1
 90
        1
176
     1
 90
        1
176
     1
 40
1.0
176
     1
 90
        8
176
     1
 62
   257
176
     1
 40
1.0
176
     1
 90
        1
176
     1
 90
        6
176
     1
 90
        2
176
     1
 62
     8
420
  7895160
176
     1
 90
        3
176
     1
 90
        0
176
     1
 90
        0
176
     1
290
     0
176
     1
 90
        5
176
     1
 40
0.0
176
     1
 90
        0
176
     1
290
     0
176
     1
290
     1
176
     1
290
     1
176
     1
290
     0
176
     1
290
     0
176
     1
290
     0
176
     1
290
     0
176
     1
290
     0
176
     1
290
     0
176
     1
 90
       50
176
     1
 40
0.0
176
     1
 40
1.0
176
     1
 90
        0
176
     1
 62
    18
420
        0
176
     1
 90
       50
176
     1
 90
        3
176
     1
 62
     5
420
      255
176
     1
290
     0
176
     1
 90
       50
176
     1
 90
       50
176
     1
 90
       50
176
     1
290
     0
176
     1
 90
       50
176
     1
 62
   256
176
     0
 40
1.0
176
     0
 90
        2
176
     1
  1
strokes_ogs.tif
176
     1
290
     0
176
     1
 40
1.0
176
     1
 40
1.0
176
     1
  0
VISUALSTYLE
  5
3D
102
{ACAD_REACTORS
330
29
102
}
330
29
100
AcDbVisualStyle
  2
Shaded with edges
 70
    26
177
     3
291
     0
 70
    58
 90
        2
176
     1
 90
        2
176
     1
 90
        1
176
     1
 90
        2
176
     1
 40
0.6
176
     1
 40
30.0
176
     1
 62
     7
420
 16777215
176
     1
 90
        1
176
     1
 90
        2
176
     1
 62
     7
176
     1
 62
   257
176
     1
 90
        2
176
     1
 90
        1
176
     1
 40
1.0
176
     1
 90
        8
176
     1
 62
   257
176
     1
 40
1.0
176
     1
 90
        1
176
     1
 90
        6
176
     1
 90
        2
176
     1
 62
     7
176
     1
 90
        3
176
     1
 90
        0
176
     1
 90
        0
176
     1
290
     0
176
     1
 90
        5
176
     1
 40
0.0
176
     1
 90
        0
176
     1
290
     0
176
     1
290
     1
176
     1
290
     1
176
     1
290
     0
176
     1
290
     0
176
     1
290
     0
176
     1
290
     0
176
     1
290
     0
176
     1
290
     0
176
     1
 90
       50
176
     1
 40
0.0
176
     1
 40
1.0
176
     1
 90
        0
176
     1
 62
    18
420
        0
176
     1
 90
       50
176
     1
 90
        3
176
     1
 62
     5
420
      255
176
     1
290
     0
176
     1
 90
       50
176
     1
 90
       50
176
     1
 90
       50
176
     1
290
     0
176
     1
 90
       50
176
     1
 62
   256
176
     0
 40
1.0
176
     0
 90
        2
176
     1
  1
strokes_ogs.tif
176
     1
290
     0
176
     1
 40
1.0
176
     1
 40
1.0
176
     1
  0
VISUALSTYLE
  5
3A
102
{ACAD_REACTORS
330
29
102
}
330
29
100
AcDbVisualStyle
  2
Shades of Gray
 70
    23
177
     3
291
     0
 70
    58
 90
        2
176
     1
 90
        2
176
     1
 90
        3
176
     1
 90
        0
176
     1
 40
0.6
176
     1
 40
30.0
176
     1
 62
     7
420
 16777215
176
     1
 90
        2
176
     1
 90
        2
176
     1
 62
     7
176
     1
 62
     7
176
     1
 90
        1
176
     1
 90
        1
176
     1
 40
40.0
176
     1
 90
        8
176
     1
 62
     7
176
     1
 40
1.0
176
     1
 90
        1
176
     1
 90
        6
176
     1
 90
        2
176
     1
 62
     7
176
     1
 90
        3
176
     1
 90
        0
176
     1
 90
        0
176
     1
290
     0
176
     1
 90
        1
176
     1
 40
0.0
176
     1
 90
        0
176
     1
290
     0
176
     1
290
     1
176
     1
290
     1
176
     1
290
     0
176
     1
290
     0
176
     1
290
     0
176
     1
290
     0
176
     1
290
     0
176
     1
290
     0
176
     1
 90
       50
176
     1
 40
0.0
176
     1
 40
1.0
176
     1
 90
        0
176
     1
 62
    18
420
        0
176
     1
 90
       50
176
     1
 90
        3
176
     1
 62
     5
420
      255
176
     1
290
     0
176
     1
 90
       50
176
     1
 90
       50
176
     1
 90
       50
176
     1
290
     0
176
     1
 90
       50
176
     1
 62
   256
176
     0
 40
1.0
176
     0
 90
        2
176
     1
  1
strokes_ogs.tif
176
     1
290
     0
176
     1
 40
1.0
176
     1
 40
1.0
176
     1
  0
VISUALSTYLE
  5
3B
102
{ACAD_REACTORS
330
29
102
}
330
29
100
AcDbVisualStyle
  2
Sketchy
 70
    24
177
     3
291
     0
 70
    58
 90
        1
176
     1
 90
        2
176
     1
 90
        2
176
     1
 90
        0
176
     1
 40
0.6
176
     1
 40
30.0
176
     1
 62
     7
420
 16777215
176
     1
 90
        2
176
     1
 90
        2
176
     1
 62
     7
176
     1
 62
     7
176
     1
 90
        1
176
     1
 90
        1
176
     1
 40
40.0
176
     1
 90
       11
176
     1
 62
     7
176
     1
 40
1.0
176
     1
 90
        1
176
     1
 90
        6
176
     1
 90
        2
176
     1
 62
     7
176
     1
 90
        6
176
     1
 90
        0
176
     1
 90
        0
176
     1
290
     0
176
     1
 90
        1
176
     1
 40
0.0
176
     1
 90
        0
176
     1
290
     0
176
     1
290
     1
176
     1
290
     1
176
     1
290
     0
176
     1
290
     0
176
     1
290
     0
176
     1
290
     0
176
     1
290
     0
176
     1
290
     0
176
     1
 90
       50
176
     1
 40
0.0
176
     1
 40
1.0
176
     1
 90
        0
176
     1
 62
    18
420
        0
176
     1
 90
       50
176
     1
 90
        3
176
     1
 62
     5
420
      255
176
     1
290
     0
176
     1
 90
       50
176
     1
 90
       50
176
     1
 90
       50
176
     1
290
     0
176
     1
 90
       50
176
     1
 62
   256
176
     0
 40
1.0
176
     0
 90
        2
176
     1
  1
strokes_ogs.tif
176
     1
290
     0
176
     1
 40
1.0
176
     1
 40
1.0
176
     1
  0
VISUALSTYLE
  5
36
102
{ACAD_REACTORS
330
29
102
}
330
29
100
AcDbVisualStyle
  2
Thicken
 70
    13
177
     3
291
     1
 70
    58
 90
        2
176
     1
 90
        2
176
     1
 90
        0
176
     1
 90
        0
176
     1
 40
0.6
176
     1
 40
30.0
176
     1
 62
     7
420
 16777215
176
     1
 90
        1
176
     1
 90
        4
176
     1
 62
     7
176
     1
 62
   257
176
     1
 90
        1
176
     1
 90
        1
176
     1
 40
1.0
176
     1
 90
       12
176
     1
 62
     7
176
     1
 40
1.0
176
     1
 90
        1
176
     1
 90
        6
176
     1
 90
        2
176
     1
 62
     7
176
     1
 90
        5
176
     1
 90
        0
176
     1
 90
        0
176
     1
290
     0
176
     1
 90
        1
176
     1
 40
0.0
176
     1
 90
        0
176
     1
290
     0
176
     1
290
     1
176
     1
290
     1
176
     1
290
     0
176
     1
290
     0
176
     1
290
     0
176
     1
290
     0
176
     1
290
     0
176
     1
290
     0
176
     1
 90
       50
176
     1
 40
0.0
176
     1
 40
1.0
176
     1
 90
        0
176
     1
 62
    18
420
        0
176
     1
 90
       50
176
     1
 90
        3
176
     1
 62
     5
420
      255
176
     1
290
     0
176
     1
 90
       50
176
     1
 90
       50
176
     1
 90
       50
176
     1
290
     0
176
     1
 90
       50
176
     1
 62
   256
176
     0
 40
1.0
176
     0
 90
        2
176
     1
  1
strokes_ogs.tif
176
     1
290
     0
176
     1
 40
1.0
176
     1
 40
1.0
176
     1
  0
VISUALSTYLE
  5
30
102
{ACAD_REACTORS
330
29
102
}
330
29
100
AcDbVisualStyle
  2
Wireframe
 70
     5
177
     3
291
     0
 70
    58
 90
        0
176
     1
 90
        2
176
     1
 90
        0
176
     1
 90
        0
176
     1
 40
0.6
176
     1
 40
30.0
176
     1
 62
     7
420
 16777215
176
     1
 90
        1
176
     1
 90
        4
176
     1
 62
     7
176
     1
 62
   257
176
     1
 90
        1
176
     1
 90
        1
176
     1
 40
1.0
176
     1
 90
        0
176
     1
 62
   257
176
     1
 40
1.0
176
     1
 90
        1
176
     1
 90
        6
176
     1
 90
        2
176
     1
 62
     7
176
     1
 90
        3
176
     1
 90
        0
176
     1
 90
        0
176
     1
290
     0
176
     1
 90
        1
176
     1
 40
0.0
176
     1
 90
        0
176
     1
290
     0
176
     1
290
     1
176
     1
290
     1
176
     1
290
     0
176
     1
290
     0
176
     1
290
     0
176
     1
290
     0
176
     1
290
     0
176
     1
290
     0
176
     1
 90
       50
176
     1
 40
0.0
176
     1
 40
1.0
176
     1
 90
        0
176
     1
 62
    18
420
        0
176
     1
 90
       50
176
     1
 90
        3
176
     1
 62
     5
420
      255
176
     1
290
     0
176
     1
 90
       50
176
     1
 90
       50
176
     1
 90
       50
176
     1
290
     0
176
     1
 90
       50
176
     1
 62
   256
176
     0
 40
1.0
176
     0
 90
        2
176
     1
  1
strokes_ogs.tif
176
     1
290
     0
176
     1
 40
1.0
176
     1
 40
1.0
176
     1
  0
VISUALSTYLE
  5
3C
102
{ACAD_REACTORS
330
29
102
}
330
29
100
AcDbVisualStyle
  2
X-Ray
 70
    25
177
     3
291
     0
 70
    58
 90
        2
176
     1
 90
        2
176
     1
 90
        1
176
     1
 90
        1
176
     1
 40
0.5
176
     1
 40
30.0
176
     1
 62
     7
420
 16777215
176
     1
 90
        1
176
     1
 90
        0
176
     1
 62
     7
176
     1
 62
   257
176
     1
 90
        1
176
     1
 90
        1
176
     1
 40
1.0
176
     1
 90
        8
176
     1
 62
     7
176
     1
 40
1.0
176
     1
 90
        1
176
     1
 90
        6
176
     1
 90
        2
176
     1
 62
     7
176
     1
 90
        3
176
     1
 90
        0
176
     1
 90
        0
176
     1
290
     0
176
     1
 90
       13
176
     1
 40
0.0
176
     1
 90
        0
176
     1
290
     0
176
     1
290
     1
176
     1
290
     1
176
     1
290
     0
176
     1
290
     0
176
     1
290
     0
176
     1
290
     0
176
     1
290
     0
176
     1
290
     0
176
     1
 90
       50
176
     1
 40
0.0
176
     1
 40
1.0
176
     1
 90
        0
176
     1
 62
    18
420
        0
176
     1
 90
       50
176
     1
 90
        3
176
     1
 62
     5
420
      255
176
     1
290
     0
176
     1
 90
       50
176
     1
 90
       50
176
     1
 90
       50
176
     1
290
     0
176
     1
 90
       50
176
     1
 62
   256
176
     0
 40
1.0
176
     0
 90
        2
176
     1
  1
strokes_ogs.tif
176
     1
290
     0
176
     1
 40
1.0
176
     1
 40
1.0
176
     1
  0
DICTIONARYVAR
  5
86
102
{ACAD_REACTORS
330
81
102
}
330
81
100
DictionaryVariables
280
     0
  1
1:1
  0
DICTIONARYVAR
  5
83
102
{ACAD_REACTORS
330
81
102
}
330
81
100
DictionaryVariables
280
     0
  1
STANDARD
  0
DICTIONARYVAR
  5
82
102
{ACAD_REACTORS
330
81
102
}
330
81
100
DictionaryVariables
280
     0
  1
STANDARD
  0
DICTIONARYVAR
  5
84
102
{ACAD_REACTORS
330
81
102
}
330
81
100
DictionaryVariables
280
     0
  1
Imperial24
  0
DICTIONARYVAR
  5
85
102
{ACAD_REACTORS
330
81
102
}
330
81
100
DictionaryVariables
280
     0
  1
Imperial24
  0
DICTIONARY
  5
1A
330
19
100
AcDbDictionary
280
     1
281
     1
  3
BUMPTILE
360
1C
  3
DIFFUSETILE
360
1B
  3
OPACITYTILE
360
1F
  3
REFLECTIONTILE
360
1E
  3
REFRACTIONTILE
360
20
  3
SPECULARTILE
360
1D
  0
DICTIONARY
  5
12
330
11
100
AcDbDictionary
280
     1
281
     1
  3
BUMPTILE
360
14
  3
DIFFUSETILE
360
13
  3
OPACITYTILE
360
17
  3
REFLECTIONTILE
360
16
  3
REFRACTIONTILE
360
18
  3
SPECULARTILE
360
15
  0
DICTIONARY
  5
22
330
21
100
AcDbDictionary
280
     1
281
     1
  3
BUMPTILE
360
24
  3
DIFFUSETILE
360
23
  3
OPACITYTILE
360
27
  3
REFLECTIONTILE
360
26
  3
REFRACTIONTILE
360
28
  3
SPECULARTILE
360
25
  0
DICTIONARY
  5
87
330
65
100
AcDbDictionary
280
     1
281
     1
  3
ACAD_ROUNDTRIP_2008_TABLESTYLE_CELLSTYLEMAP
360
88
  0
XRECORD
  5
1C
102
{ACAD_REACTORS
330
1A
102
}
330
1A
100
AcDbXrecord
280
     1
270
     1
271
     1
  0
XRECORD
  5
1B
102
{ACAD_REACTORS
330
1A
102
}
330
1A
100
AcDbXrecord
280
     1
270
     1
271
     1
  0
XRECORD
  5
1F
102
{ACAD_REACTORS
330
1A
102
}
330
1A
100
AcDbXrecord
280
     1
270
     1
271
     1
  0
XRECORD
  5
1E
102
{ACAD_REACTORS
330
1A
102
}
330
1A
100
AcDbXrecord
280
     1
270
     1
271
     1
  0
XRECORD
  5
20
102
{ACAD_REACTORS
330
1A
102
}
330
1A
100
AcDbXrecord
280
     1
270
     1
271
     1
  0
XRECORD
  5
1D
102
{ACAD_REACTORS
330
1A
102
}
330
1A
100
AcDbXrecord
280
     1
270
     1
271
     1
  0
XRECORD
  5
14
102
{ACAD_REACTORS
330
12
102
}
330
12
100
AcDbXrecord
280
     1
270
     1
271
     1
  0
XRECORD
  5
13
102
{ACAD_REACTORS
330
12
102
}
330
12
100
AcDbXrecord
280
     1
270
     1
271
     1
  0
XRECORD
  5
17
102
{ACAD_REACTORS
330
12
102
}
330
12
100
AcDbXrecord
280
     1
270
     1
271
     1
  0
XRECORD
  5
16
102
{ACAD_REACTORS
330
12
102
}
330
12
100
AcDbXrecord
280
     1
270
     1
271
     1
  0
XRECORD
  5
18
102
{ACAD_REACTORS
330
12
102
}
330
12
100
AcDbXrecord
280
     1
270
     1
271
     1
  0
XRECORD
  5
15
102
{ACAD_REACTORS
330
12
102
}
330
12
100
AcDbXrecord
280
     1
270
     1
271
     1
  0
XRECORD
  5
24
102
{ACAD_REACTORS
330
22
102
}
330
22
100
AcDbXrecord
280
     1
270
     1
271
     1
  0
XRECORD
  5
23
102
{ACAD_REACTORS
330
22
102
}
330
22
100
AcDbXrecord
280
     1
270
     1
271
     1
  0
XRECORD
  5
27
102
{ACAD_REACTORS
330
22
102
}
330
22
100
AcDbXrecord
280
     1
270
     1
271
     1
  0
XRECORD
  5
26
102
{ACAD_REACTORS
330
22
102
}
330
22
100
AcDbXrecord
280
     1
270
     1
271
     1
  0
XRECORD
  5
28
102
{ACAD_REACTORS
330
22
102
}
330
22
100
AcDbXrecord
280
     1
270
     1
271
     1
  0
XRECORD
  5
25
102
{ACAD_REACTORS
330
22
102
}
330
22
100
AcDbXrecord
280
     1
270
     1
271
     1
  0
CELLSTYLEMAP
  5
88
102
{ACAD_REACTORS
330
87
102
}
330
87
100
AcDbCellStyleMap
 90
        3
300
CELLSTYLE
  1
TABLEFORMAT_BEGIN
 90
        5
170
     1
 91
        0
 92
    32768
 62
   257
 93
        1
300
CONTENTFORMAT
  1
CONTENTFORMAT_BEGIN
 90
        0
 91
        0
 92
      512
 93
        0
300

 40
0.0
140
1.0
 94
        5
 62
     0
340
55
144
0.25
309
CONTENTFORMAT_END
171
     0
 94
        0
309
TABLEFORMAT_END
  1
CELLSTYLE_BEGIN
 90
        1
 91
        1
300
_TITLE
309
CELLSTYLE_END
300
CELLSTYLE
  1
TABLEFORMAT_BEGIN
 90
        5
170
     1
 91
        0
 92
        0
 62
   257
 93
        1
300
CONTENTFORMAT
  1
CONTENTFORMAT_BEGIN
 90
        0
 91
        0
 92
      512
 93
        0
300

 40
0.0
140
1.0
 94
        5
 62
     0
340
55
144
0.18
309
CONTENTFORMAT_END
171
     0
 94
        0
309
TABLEFORMAT_END
  1
CELLSTYLE_BEGIN
 90
        2
 91
        1
300
_HEADER
309
CELLSTYLE_END
300
CELLSTYLE
  1
TABLEFORMAT_BEGIN
 90
        5
170
     1
 91
        0
 92
        0
 62
   257
 93
        1
300
CONTENTFORMAT
  1
CONTENTFORMAT_BEGIN
 90
        0
 91
        0
 92
      512
 93
        0
300

 40
0.0
140
1.0
 94
        2
 62
     0
340
55
144
0.18
309
CONTENTFORMAT_END
171
     0
 94
        0
309
TABLEFORMAT_END
  1
CELLSTYLE_BEGIN
 90
        3
 91
        2
300
_DATA
309
CELLSTYLE_END
  0
ENDSEC
  0
EOF
