<?xml version="1.0" encoding="UTF-8"?>
<svg id="Layer_1" data-name="Layer 1" xmlns="http://www.w3.org/2000/svg" viewBox="0 0 500 500">
  <defs>
    <style>
      .cls-1 {
        fill: #fff;
      }

      .cls-2 {
        fill: #831618;
      }

      .cls-3 {
        fill: #1b2251;
      }

      .cls-4 {
        fill: #0f592d;
      }
    </style>
  </defs>
  <g>
    <path d="M407.12,297.14c0-77.84,.02-155.7,0-233.54,0-10.31-3.95-18.92-11.49-25.92-7.18-6.67-15.82-9.34-25.47-9.32-20.07,.03-40.14,.03-60.21,.03-59.06,0-118.11-.02-177.16-.03-11.34,0-20.72,4.34-28.15,12.89-6.27,7.22-8.35,15.73-8.34,25.12,.08,59.52,.04,119.04,.04,178.55,0,49.66-.01,99.31,0,148.97,0,11.71-.06,23.43,.17,35.14,.17,8.21,3.52,15.25,9.04,21.3,8.08,8.86,18.27,11.9,30.02,11.88,72.97-.12,145.95-.03,218.92-.1,7.99-.01,16.05,.84,23.98-.63,17.04-3.17,28.65-17.63,28.66-35.57,.03-42.93-.01-85.85-.01-128.78Zm-2.43-51.84h-.05c0,59.4,0,118.79,0,178.2,0,5.01-.29,9.96-2.06,14.73-4.8,12.96-17.23,21.4-31.66,21.4-77.27,0-154.53-.02-231.79-.03-2.55,0-5.11,.06-7.66-.03-18.18-.65-31.86-14.28-32.59-32.44-.03-.93-.02-1.85-.02-2.78,0-119.38,.02-238.75-.03-358.13,0-9.73,2.62-18.27,9.62-25.26,6.96-6.93,15.36-10.01,25.14-10,56.96,.06,113.93,.03,170.89,.03,22.28,0,44.55-.09,66.82,.03,16.55,.09,29.64,10.91,32.75,26.74,.84,4.24,.62,8.55,.63,12.84,0,58.24,0,116.48,0,174.72Z"/>
    <path class="cls-1" d="M404.69,245.3h-.05c0,59.4,0,118.79,0,178.2,0,5.01-.29,9.96-2.06,14.73-4.8,12.96-17.23,21.4-31.66,21.4-77.27,0-154.53-.02-231.79-.03-2.55,0-5.11,.06-7.66-.03-18.18-.65-31.86-14.28-32.59-32.44-.03-.93-.02-1.85-.02-2.78,0-119.38,.02-238.75-.03-358.13,0-9.73,2.62-18.27,9.62-25.26,6.96-6.93,15.36-10.01,25.14-10,56.96,.06,113.93,.03,170.89,.03,22.28,0,44.55-.09,66.82,.03,16.55,.09,29.64,10.91,32.75,26.74,.84,4.24,.62,8.55,.63,12.84,0,58.24,0,116.48,0,174.72Z"/>
  </g>
  <path class="cls-3" d="M153.43,88.54V47.18h-8.13l-24.81,42.49v5.94h25.84v18.12h7.1v-18.12h7.79v-7.06h-7.79Zm-7.1-22.22v22.22h-18.22v-.2l13.6-22.63c1.54-3.07,2.91-5.94,4.62-9.83h.26c-.17,3.48-.26,6.96-.26,10.44Z"/>
  <g>
    <path class="cls-4" d="M213.37,274.9c2.76-34.52-9.15-63.25-22.51-91.62-2.18-4.64-4.48-9.23-6.81-13.79-.84-1.64-1.52-4.03-3.8-3.69-2.72,.4-1.65,3.05-1.73,4.71-1.19,22.2,2.92,43.54,10.95,64.14,5.67,14.55,7.98,29.67,8.65,45.13,.08,1.78,.93,4.12-1.07,5.23-2.15,1.2-3.4-1.09-4.78-2.19-4-3.19-7.52-7.01-12.47-8.88-2.01-.76-3.95-1.6-5.88,.05-1.98,1.69-1.22,3.83-.75,5.83,2.24,9.56,7.98,17.12,14.08,24.47,1.51,1.82,4.02,3.58,1.78,6.33-2.21,2.71-4.78,1.46-7.18,.11-9.56-5.38-14.38-14.33-17.97-24.13-2.29-6.26-3.92-12.7-4.48-19.38-.32-3.81,1.21-5.68,5.17-5.69,5.32-.02,10.67-.47,15.93,.51,4.51,.84,5.84,.04,4.15-4.85-5.53-15.97-11.18-31.96-14.44-48.59-3.91-19.92-6.42-39.88,1.8-59.48,2.08-4.95,3.94-5.42,6.99-1.12,14.4,20.31,29.06,40.49,36.8,64.61,4.84,15.1,8.39,30.39,7.94,46.4-.14,5.06,1.95,6.15,6.31,3.51,5.34-3.23,10.03-7.57,16.33-9.13,5.18-1.29,6.17-.56,5.82,4.78-.67,10.28-2.32,20.39-5.35,30.25-1.13,3.65-2.61,7.14-5.52,9.82-1.34,1.23-2.69,2.21-4.55,1.25-1.98-1.02-1.79-2.81-1.25-4.47,1.23-3.78,2.68-7.49,3.92-11.27,.65-1.98,1.27-4.01,1.51-6.07,.37-3.11,2.37-7.54-.49-9.04-3.44-1.81-6.53,2.12-8.97,4.54-4.76,4.71-8.06,10.54-11.17,16.45-1.03,1.96-2.04,4.54-4.91,3.85-2.79-.67-1.99-3.32-2.02-5.29-.08-5.13-.03-10.26-.03-13.29Z"/>
    <path class="cls-4" d="M295.67,295.36c-2.36-1.8-1.54-4.35-2.02-6.46-1.54-6.63-4.26-12.6-9.16-17.41-3.52-3.46-5.31-3.01-6.53,1.8-2.03,8.07-1.15,16.25-.55,24.4,.18,2.5,1.03,5.24-2.57,5.78-3.04,.46-4.99-1.08-5.95-4.06-4.06-12.6-3.09-24.72,3.29-36.36,2.28-4.16,5.67-5.35,10.09-3.61,4.17,1.64,7.55,4.25,10.27,7.85,3.05,4.04,5.13,3.83,7.13-.81,1.57-3.65,2.68-7.51,3.97-11.28,9.04-26.46,24.26-48.42,47.12-64.83,1.23-.88,2.45-1.84,3.81-2.48,5.87-2.75,9.67-.13,8.99,6.57-2.34,22.75-8.73,44.28-19.81,64.38-2.15,3.89-6.79,8.05-4.63,12.2,2.42,4.66,8.74,3.08,13.15,2.65,13.29-1.32,12.51,2.95,8.41,13.03-2.37,5.82-5.27,11.38-8.99,16.46-3.96,5.41-9.36,8.18-16.03,8.46-1.5,.06-3.28,.31-3.81-1.58-.44-1.58,1.07-2.22,2.1-3.03,6.76-5.33,11.36-12.11,14.02-20.32,1.52-4.69-.24-5.81-4.6-5.4-9.9,.91-16.39,7.22-22.87,13.8-1.79,1.82-3.23,6.39-6.2,4.29-3.21-2.28,.44-5.44,1.73-7.87,9.09-17.09,19.76-33.39,25.53-52.11,2.46-7.99,5.2-15.93,5.22-24.43,0-1.83,.65-4.07-1.42-5.15-2.37-1.23-3.91,.77-5.41,2.11-13.36,11.95-21.23,27.51-28.74,43.39-4.84,10.22-6.7,21.38-10.98,31.74-1.19,2.89-1.9,6.11-4.54,8.31Z"/>
    <path class="cls-2" d="M357.43,138.22c-6.3,.43-11.47-1.11-15.92-6-4.59-5.04-10.13-9.18-16.06-12.67-1.45-.85-3.12-2.11-4.38,.09-.94,1.65,.11,2.83,1.52,3.75,.95,.62,1.8,1.39,2.73,2.05,7.44,5.32,7.69,6.1,2.15,13.41-2.66,3.51-1.88,5.66,1.45,7.9,3.11,2.1,7.99,3.52,5.01,8.98-1.88,3.45-7.23,4.01-12.38,1.56-9.23-4.4-11.95-10.05-10.42-21.49,.29-2.17,1.66-4.68-.57-6.42-2.53-1.97-4.63,.28-6.74,1.36-10.33,5.28-19.92,4.24-26.67-3.03-1.11-1.2-2.87-2.33-2.15-4.31,.66-1.81,2.5-2.23,4.22-2.42,9.62-1.08,18.36-4.72,26.78-9.23,2.22-1.19,5.58-2.21,4.4-5.64-1.07-3.12-4.02-1.97-6.42-1.54-2.85,.5-5.94,1.04-7.69-1.9-1.69-2.84,.76-5.11,2.19-7.14,4.08-5.78,10.12-9.71,14.81-14.94,1.28-1.44,3.09-1.32,4.81-1.05,6.22,.99,12.5,1.01,18.77,.93,5.25-.07,8.6,2.48,10.33,7.31,1.76,4.89-.9,7.7-4.55,10.45-10.83,8.14-10.57,9.88,1.69,16.06,7.97,4.02,15.93,8.08,23.86,12.19,2.54,1.32,5.46,2.85,5.26,6.09-.2,3.31-3.65,3.4-6.05,4.27-3.24,1.17-6.61,1.74-9.97,1.39Z"/>
    <path class="cls-2" d="M223.72,305.12c7.28-.12,14.37,.8,21.27,3.33,7.71,2.82,15.6,2.7,23.62,1.3,19.94-3.49,39.43-2.76,57.59,7.39,11.87,6.63,12.14,9.75,2.33,19.41-16.42,16.17-36.44,19.59-57.42,9.35-8.18-3.99-15.9-3.89-24.05-.18-25.05,11.4-50.18,5.59-66.96-15.15-1.94-2.4-2.91-4.32-.14-6.75,12.14-10.63,25.34-19.74,43.77-18.7Zm6.06,9.4c-14.26,.33-25.43,3.95-35.22,10.8-4.35,3.04-4.53,5.57-.76,9.11,8,7.51,17.27,10.63,28.25,8.84,6.07-.99,11.77-2.85,17.4-5.23,11.2-4.75,22.69-5.67,33.61,.15,6.33,3.37,12.84,3.93,19.6,4.92,11.76,1.72,20.16-3.69,27.6-11.58,4.51-4.79,3.8-7.45-2.14-10.33-9.82-4.76-20.09-4.93-30.65-3.46-15.48,2.15-30.91,3.72-46.23-1.65-4.2-1.47-8.98-1.25-11.45-1.55Z"/>
    <path class="cls-4" d="M248.35,406.21c-19.2,0-38.41,0-57.61,0-4.4,0-8.73-.63-12.92-1.97-2.32-.74-4.24-2.24-3.94-4.9,.29-2.55,2.55-2.89,4.72-3.25,4.53-.75,9.08-.85,13.65-.84,1.47,0,3.23,.33,3.97-1.47,.82-1.99-.61-3.23-1.92-4.33-6.53-5.52-13.09-11-19.65-16.49-6.27-5.25-12.6-10.44-17.27-17.28-.85-1.25-1.78-2.51-2.32-3.91-2.03-5.25-3.99-11.25,0-15.71,3.44-3.85,8.68-.62,12.84,.67,25.26,7.85,43.27,24.56,56.47,46.98,.67,1.14,1.22,2.37,1.68,3.61,.59,1.58,.42,3.08-1.29,3.87-1.6,.75-3.07,.21-4-1.17-.95-1.41-1.61-3.01-2.42-4.51-10.05-18.63-24.44-32.31-44.8-39.11-1.83-.61-4.27-2.3-5.76-.36-1.58,2.06-.69,4.7,.64,6.95,2.45,4.13,5.44,7.81,9.25,10.74,7.57,5.82,14.29,12.52,20.74,19.52,2.1,2.28,4.22,4.79,3.92,7.97-.54,5.59,2.6,6.17,6.96,6.25,19.77,.39,39.54,.71,59.29,1.53,12.9,.53,25.88-.53,38.71,1.74,1.12,.2,2.27,.31,3.36,.63,2.03,.61,4.28,1.28,3.86,4.05-.41,2.66-2.77,2.25-4.56,2.21-10.64-.26-21.28-.75-31.92-.93-9.88-.16-19.76-.04-29.64-.04,0-.15,0-.31,0-.46Z"/>
    <path class="cls-4" d="M350.57,342.6c-2.17,15.75-9.35,28.94-22.6,38.36-6.48,4.61-13.45,8.53-20.23,12.71-2.41,1.48-5.28,2.35-7.25-.1-2.2-2.75,.63-4.41,2.42-5.97,6.74-5.91,14.46-10.42,22.01-15.16,5.81-3.64,10.41-8.24,12.41-14.99,1.46-4.92,0-6.86-5.13-6.49-2.04,.15-4.09,.82-6.03,1.55-16.29,6.06-29.58,16.04-39.57,30.35-1.95,2.8-4.08,5.47-6.27,8.1-.78,.94-1.81,2.35-3.29,1.27-1.06-.77-.6-2.07-.24-3.17,1.9-5.81,4.17-11.52,8.22-16.14,15.73-17.95,34.9-30.19,58.71-34.44,3.32-.59,6.73-1.29,6.84,4.13Z"/>
    <path class="cls-4" d="M257.5,419.54c-19.58,0-39.16,.02-58.74-.02-2.08,0-4.17-.25-6.24-.53-2.1-.28-4.5-.67-4.35-3.47,.15-2.77,2.44-3,4.65-2.97,1.71,.02,3.42,.09,5.13,.11,37.46,.36,74.91,.69,112.37,1.11,3.6,.04,7.19,.64,10.79,.93,1.9,.15,3.49,.79,3.49,2.92,0,2.34-1.59,3.27-3.78,3.33-.76,.02-1.52,.07-2.28,.07-20.34,0-40.69,0-61.03,0,0-.49,0-.98,0-1.47Z"/>
    <path class="cls-4" d="M209.43,278.76c0,6.03,0,11.36,0,16.68,0,2.46-.43,4.87-3.56,4.69-2.8-.16-3.07-2.54-2.89-4.69,2.62-31.77-7.39-61.13-17.21-90.53-1.63-4.88-2.51-9.93-3.02-15.05-.15-1.48-.67-3.36,1.24-3.91,1.84-.52,2.57,1.28,3.26,2.59,6.54,12.5,11.35,25.69,15.4,39.17,2.46,8.2,4.3,16.56,5.4,25.05,1.14,8.86,1.69,17.78,1.39,26.01Z"/>
    <path class="cls-4" d="M340.09,225.5c-2.41,12.22-7.65,23.41-12.8,34.6-4.99,10.86-10.62,21.41-17.23,31.38-1.29,1.94-1.91,6.22-5.24,4.64-3.28-1.56,.15-4.33,.7-6.37,5.71-21.38,14.52-41.44,26.32-60.17,1.31-2.08,2.84-4.03,4.4-5.92,.78-.95,1.7-2.38,3.26-1.28,1.07,.75,.87,1.99,.58,3.13Z"/>
    <path class="cls-4" d="M305.03,234.63c-.29,1.69-1.28,2.87-2.46,3.83-5.32,4.29-10.66,8.56-16.06,12.75-2.38,1.85-4.64,1.55-6.3-1.06-3.36-5.29-6.67-10.62-9.93-15.97-.68-1.12-1.27-2.49-.1-3.68,1.37-1.4,2.83-.65,4.16,.11,.98,.56,1.89,1.28,2.72,2.05,4.3,3.97,9,4.38,14.21,1.95,3.08-1.44,6.13-3.13,9.72-2.97,2.07,.09,3.74,.68,4.04,3Z"/>
    <path class="cls-4" d="M257.13,373.57c-.18,3.06-.52,8.73-.83,14.39-.14,2.51-.85,4.55-3.84,4.59-2.91,.05-3.87-1.84-4.14-4.38-1.17-10.76-.81-21.54-.35-32.31,.06-1.42,.79-2.92,1.55-4.18,1.07-1.78,2.5-3.82,4.8-3.39,2.48,.46,2.67,3.14,2.75,5.07,.22,5.86,.08,11.72,.08,20.2Z"/>
    <path class="cls-4" d="M232.34,232.87c7.16,7.11,15.4,3.02,23.95,.19,3.85-1.27,6.17,2.07,3.85,5.31-4.38,6.1-11.02,9.67-17.29,13.54-1.24,.77-2.58-.25-3.63-1.06-4.74-3.62-8.64-7.96-11.36-13.31-1.84-3.62-.29-4.89,4.49-4.67Z"/>
    <path class="cls-4" d="M329.89,360.79c-.25,1.93-1.72,2.88-3.13,3.84-12.41,8.44-25.27,16.3-35.46,27.6-.76,.84-1.71,1.82-2.89,.87-1.56-1.24-.87-2.71-.02-4.06,3.05-4.86,6.72-9.23,10.86-13.17,7.65-7.29,16.41-12.93,26.21-16.9,3.07-1.24,4.61-.49,4.44,1.82Z"/>
    <path class="cls-4" d="M241.47,385.57c.36,3.26,.37,5.45-2.28,6.11-2.57,.64-3.91-1.11-4.62-3.19-3.02-8.96-5.97-17.94-9.86-26.59-1.16-2.58-.75-5.64,1.88-7.05,3.19-1.71,4.71,1.17,6.11,3.42,5.42,8.69,8.52,18.11,8.77,27.3Z"/>
    <path class="cls-4" d="M282.11,359.51c-.93,2.88-1.74,6.22-3.08,9.33-2.83,6.61-5.95,13.09-8.92,19.64-1.21,2.68-3.16,4.8-6.11,3.7-3.66-1.36-1.24-4.25-.54-6.27,2.97-8.58,6.23-17.06,9.32-25.6,.91-2.51,2.36-4.41,5.14-4.64,2.32-.19,4.11,.66,4.19,3.84Z"/>
    <path class="cls-4" d="M180.32,356.8c.92-.74,1.79-.32,2.63,.11,12.67,6.51,22.42,15.99,29.08,28.59,.6,1.13,1.64,2.43,.44,3.61-1.22,1.2-2.71,.35-3.47-.64-8.52-11.16-19.32-20.19-28.6-30.64-.18-.21-.06-.69-.08-1.04Z"/>
    <path class="cls-4" d="M345.17,288.99c-.06,1.54-.75,2.77-1.93,3.39-5.98,3.11-10.34,8.22-15.54,12.28-1.72,1.34-3.67,3.25-5.87,.7-2-2.31,.16-3.86,1.35-5.37,4.63-5.85,9.62-11.27,17.46-12.74,1.88-.35,3.85-.82,4.54,1.74Z"/>
    <path class="cls-4" d="M198.66,300.71c0,1.21-.41,2.24-1.44,2.89-1.26,.81-2.56,.68-3.66-.3-5.55-4.96-10.1-10.72-13.26-17.45-.96-2.05-.85-4.38,2.59-3.76,3.75,.67,15.65,14.84,15.76,18.62Z"/>
    <path class="cls-4" d="M289.68,296.36c-.06,.36-.17,1.89-.62,3.32-.41,1.29-1.35,2.33-2.85,2.46-1.58,.14-2.47-.9-2.98-2.19-2.29-5.82-2.54-11.93-1.61-17.95,.48-3.16,2.41-1.3,3.4,.02,2.9,3.89,4.72,8.22,4.65,14.34Z"/>
    <path class="cls-4" d="M235.9,274.75c-.36,8.16-3.22,15.37-7.65,22.02-1.03,1.54-2.53,1.8-3.97,1-1.7-.95-1.25-2.7-.62-4.05,3.19-6.81,7.16-13.15,12.24-18.96Z"/>
    <path class="cls-2" d="M220.03,319.67c7.82,.21,12.05,4.7,16.46,8.83,1.1,1.03,1,2.27,.05,3.55-6.57,8.87-20.43,9.32-27.93,.98-2.91-3.23-3.12-5.77,.9-8.19,3.68-2.21,6.79-5.64,10.53-5.18Z"/>
    <path class="cls-2" d="M296.82,338.64c-8.02,.27-15.43-4.04-15.97-7.97-.45-3.26,5.76-8.07,11.94-8.93,6.7-.92,12.82,.36,17.88,5.29,2.98,2.9,2.35,5.2-.84,7.33-4.59,3.07-9.71,4.22-13.01,4.28Z"/>
  </g>
</svg>