<?xml version="1.0" encoding="UTF-8"?>
<svg id="Layer_1" data-name="Layer 1" xmlns="http://www.w3.org/2000/svg" viewBox="0 0 500 500">
  <defs>
    <style>
      .cls-1 {
        fill: #fff;
      }

      .cls-2 {
        fill: #064e29;
      }

      .cls-3 {
        fill: #a42e22;
      }
    </style>
  </defs>
  <g>
    <path d="M397.45,298.8c0-77.26,.02-154.52,0-231.78,0-10.23-3.92-18.78-11.41-25.72-7.13-6.62-15.7-9.27-25.28-9.25-19.92,.03-39.84,.03-59.76,.03-58.61,0-117.22-.02-175.83-.03-11.25,0-20.56,4.3-27.93,12.8-6.22,7.16-8.29,15.61-8.28,24.93,.08,59.07,.04,118.14,.04,177.2,0,49.28-.01,98.56,0,147.85,0,11.62-.06,23.25,.17,34.87,.17,8.15,3.5,15.14,8.97,21.14,8.01,8.79,18.14,11.81,29.79,11.79,72.42-.12,144.85-.03,217.27-.1,7.93-.01,15.93,.83,23.79-.63,16.91-3.15,28.43-17.49,28.44-35.31,.03-42.6-.01-85.2-.01-127.81Zm-2.41-51.45h-.05c0,58.95,0,117.9,0,176.85,0,4.97-.29,9.89-2.05,14.62-4.77,12.86-17.1,21.24-31.42,21.24-76.68,0-153.37-.02-230.04-.03-2.54,0-5.07,.06-7.6-.03-18.05-.64-31.62-14.17-32.34-32.2-.03-.92-.02-1.84-.02-2.76,0-118.48,.02-236.95-.03-355.43,0-9.66,2.6-18.14,9.55-25.07,6.91-6.88,15.25-9.94,24.95-9.93,56.53,.06,113.07,.03,169.6,.03,22.11,0,44.22-.09,66.32,.03,16.42,.09,29.42,10.83,32.51,26.54,.83,4.21,.62,8.48,.62,12.74,0,57.8,0,115.6,0,173.4Z"/>
    <path class="cls-1" d="M395.04,247.35h-.05c0,58.95,0,117.9,0,176.85,0,4.97-.29,9.89-2.05,14.62-4.77,12.86-17.1,21.24-31.42,21.24-76.68,0-153.37-.02-230.04-.03-2.54,0-5.07,.06-7.6-.03-18.05-.64-31.62-14.17-32.34-32.2-.03-.92-.02-1.84-.02-2.76,0-118.48,.02-236.95-.03-355.43,0-9.66,2.6-18.14,9.55-25.07,6.91-6.88,15.25-9.94,24.95-9.93,56.53,.06,113.07,.03,169.6,.03,22.11,0,44.22-.09,66.32,.03,16.42,.09,29.42,10.83,32.51,26.54,.83,4.21,.62,8.48,.62,12.74,0,57.8,0,115.6,0,173.4Z"/>
  </g>
  <g>
    <path class="cls-2" d="M242.99,124.65c67.22-1.08,123.05,56.78,122.93,123.1-.12,67.02-57.02,122.45-122.99,122.43-65.84-.02-122.5-56.83-122.39-122.8,.11-65.48,54.6-123.68,122.45-122.73Zm.06,9.78c-60.93-1.27-112.77,51.31-112.77,113.06,0,61.34,52.61,112.93,112.6,112.95,61.5,.02,113.25-51.76,113.33-112.82,.07-60.93-51.59-114.38-113.16-113.19Z"/>
    <path class="cls-2" d="M134.21,247.42c-.79-60.26,50.43-109.52,108.85-109.51,58.79,.01,109.41,49.93,109.4,109.64-.01,59.16-49.89,109.13-109.41,109.14-58.84,.01-109.78-50.22-108.83-109.27Zm62.56,60.17c.6-2.48-1.9-2.81-2.91-4.17-1.68-2.25-3.11-1.8-4.89,.12-3.43,3.7-7.09,7.2-10.69,10.74-.85,.84-1.82,2.24-3.11,.82-1.04-1.15,.08-2.1,.89-2.91,3.24-3.26,6.49-6.5,9.74-9.75,3.41-3.41,3.25-3.29,.21-7.16-1.8-2.29-2.9-1.83-4.42,.08-2.01,2.51-4.25,4.83-6.23,7.36-3.61,4.63-7.05,9.4-8.68,15.15-1.38,4.85,.95,7.14,5.8,5.88,4.3-1.12,7.93-3.55,11.58-5.96,4.61-3.04,8.45-7.04,12.85-10.34-1.77,3.96-3.65,7.88-5.29,11.89-2.17,5.32-4.24,10.7-3.99,16.6,.18,4.31,2.62,5.73,6.46,3.8,3.44-1.73,6.05-4.5,8.65-7.27,4.51-4.79,7.77-10.49,11.69-15.71-.27,1.35-.53,2.7-.8,4.05-1.49,7.56-2.97,15.14-1.93,22.9,.38,2.81,.47,6.25,3.83,7.08,3.35,.83,5.08-2.2,6.74-4.46,4.82-6.57,7.61-14.12,9.99-21.83,.44-1.43,1.6-3.52-1.21-3.48-2.15,.03-5.23-3.22-6.47,1.33-1.36,4.99-2.64,9.99-4.02,14.97-.34,1.22-.37,3.2-2.4,2.54-1.74-.56-.8-2.14-.5-3.27,1.3-5,2.64-9.99,4.03-14.97,.48-1.72,.33-2.87-1.73-3.25-1.9-.36-3.58-1.59-5.63-1.46-1.29-1.41-3.21-1.75-4.73-2.75-1.85-1.22-2.94-.91-4.01,1.11-2.27,4.26-4.73,8.42-7.25,12.55-.73,1.19-1.12,3.8-3.23,2.49-2.04-1.27,.07-2.87,.74-4.1,2.3-4.24,4.81-8.38,7.2-12.58,.43-.76,1.46-1.85,.63-2.44-2.1-1.5-3.67-4.22-6.9-3.6Zm-24.51-30.86c2.68-2.81-.16-5.16-.92-7.47-.61-1.86-2.63-.36-3.93-.04-4.8,1.18-9.56,2.52-14.35,3.76-1.12,.29-2.48,.65-2.78-1-.24-1.35,1-1.61,2-1.89,4.44-1.21,8.89-2.37,13.32-3.62,5.07-1.42,4.96-.09,3.96-6.39-.39-2.48-1.35-2.71-3.44-2.04-4.27,1.39-8.52,2.81-12.6,4.7-4.5,2.08-8.99,4.23-12.41,7.97-2.94,3.22-2.22,5.92,1.92,7.27,3.89,1.27,7.91,1.14,11.96,1,5.87-.22,11.5-2.06,17.35-2.33-.65,1.36-2.09,1.73-3.2,2.48-5.92,4-11.72,8.17-16.22,13.81-1.81,2.28-4.47,4.88-2.61,7.94,1.9,3.13,5.56,2.19,8.56,1.68,7.33-1.24,14.02-4.33,20.6-7.65,4.15-2.1,3.95-2.02,1.6-6.01-1.48-2.52-2.73-2.66-5.09-1.16-4.06,2.59-8.34,4.86-12.53,7.24-1.15,.65-2.55,1.94-3.52,.15-.86-1.59,.9-2.08,1.92-2.68,4.26-2.51,8.56-4.93,12.8-7.48,1.03-.62,3.26-.99,2.09-2.79-1.26-1.95-.61-5.67-4.49-5.47Zm10.87-75.51c-5.8-2.17-11.09-5.51-17.06-7.3-3.86-1.16-7.71-2.48-11.79-2.22-4.33,.27-5.68,2.76-3.7,6.6,1.88,3.64,4.83,6.4,7.81,9.12,4.6,4.2,9.97,7.35,14.96,11.02-1.13-.18-2.27-.31-3.39-.55-7.55-1.57-15.15-2.91-22.89-2.11-2.89,.3-6.55,.34-7.5,3.78-.96,3.47,2.2,5.31,4.56,7.02,6.59,4.77,14.15,7.56,21.86,9.91,1.21,.37,3.28,1.74,3.27-1-.01-2.25,3.33-5.44-1.37-6.73-5.09-1.4-10.2-2.74-15.29-4.13-1.19-.32-2.82-.52-2.24-2.29,.48-1.46,1.84-.92,2.96-.62,5.1,1.37,10.2,2.74,15.31,4.08,1.05,.27,2.44,1.03,2.93-.58,.69-2.25,2.28-4.31,1.69-6.88,1.88-.74,1.8-2.8,2.81-4.13,1.73-2.28,.79-3.5-1.46-4.7-4.45-2.37-8.77-4.99-13.12-7.53-.96-.56-2.36-1.11-1.64-2.54,.87-1.73,2.17-.65,3.2-.06,4.58,2.61,9.13,5.29,13.71,7.89,.83,.47,2,1.64,2.71,.53,1.35-2.11,4.01-3.6,3.56-6.67,2.43,.38,2.73-2.09,4.12-3.11,2.17-1.6,1.67-2.95-.15-4.65-3.79-3.53-7.37-7.28-11.02-10.96-.8-.81-1.92-1.76-.83-2.91,1.1-1.16,2.09-.12,2.91,.7,3.19,3.16,6.32,6.38,9.54,9.51,4.64,4.51,2.91,4.24,7.94,.21,1.57-1.25,1.62-2.12,.12-3.5-5.36-4.92-10.9-9.59-17.32-13.08-1.71-.93-3.52-1.74-5.37-2.33-1.97-.63-4.16-1.2-5.83,.59-1.53,1.64-.98,3.68-.45,5.57,.82,2.91,2.32,5.51,3.87,8.07,3.54,5.84,8.2,10.8,12.58,15.98Zm88.8,115.75c-1.73-.66-3.05,.7-4.6,.93-2.77,.41-3.44,1.73-2.53,4.52,1.56,4.8,2.66,9.75,3.96,14.64,.3,1.12,.83,2.43-.77,2.85-1.58,.42-1.82-.97-2.13-2.09-1.17-4.33-2.33-8.65-3.5-12.98-1.43-5.28-1.42-5.2-6.6-4.13-2.06,.43-2.62,1.15-1.95,3.26,2.26,7.15,4.85,14.14,8.9,20.49,1.04,1.63,2.27,3.21,3.67,4.54,3.4,3.25,6.22,2.44,7.6-2.11,.74-2.43,.95-4.95,.96-7.5,.04-7.65-1.57-15.07-3.05-22.48,2.19,3.08,4.31,6.2,6.57,9.22,3.73,4.98,7.57,9.89,13.01,13.15,4.41,2.64,7.15,1.08,7.18-3.99,0-1.82-.21-3.68-.6-5.46-1.79-8.03-5.17-15.43-9.26-22.53,1.5,.2,2.35,1.37,3.36,2.28,4.88,4.4,9.93,8.63,15.81,11.62,3.36,1.71,7.4,4.96,10.75,1.69,3.37-3.29,.19-7.35-1.52-10.73-2.97-5.9-7.19-10.95-11.59-15.84-3.34-3.7-3.23-3.58-6.69,.04-1.8,1.88-1.69,3,.17,4.71,3.71,3.44,7.22,7.1,10.77,10.71,.89,.91,2.58,1.92,1.02,3.36-1.36,1.25-2.26-.36-3.09-1.17-3.78-3.71-7.48-7.49-11.27-11.2-.66-.65-1.4-2.12-2.48-1.09-1.84,1.77-4.66,2.74-5.15,5.73-2.12-.99-2.88,1.23-4.33,1.84-2.53,1.05-2.58,2.55-1.14,4.81,2.65,4.17,5.02,8.52,7.45,12.83,.61,1.09,2.1,2.46,.14,3.46-1.62,.83-2.12-.9-2.72-1.92-2.63-4.46-5.17-8.97-7.8-13.43-.52-.89-.86-2.55-2.42-1.7-2.08,1.14-4.61,1.56-6.14,3.63Zm-57.47-138.75c1.51-.54,2.99-1.26,4.55-1.57,2.73-.53,3.15-1.83,2.36-4.39-1.5-4.83-2.64-9.76-3.95-14.65-.33-1.23-.93-2.7,.84-3.12,1.52-.36,1.73,1.13,2.03,2.23,1.4,5.22,2.84,10.43,4.17,15.66,.45,1.79,1.24,2.57,3.14,2,1.09-.33,2.25-.51,3.39-.61,1.77-.16,2.01-1.01,1.53-2.57-2.35-7.6-5.04-15.06-9.47-21.74-1.01-1.52-2.19-2.98-3.54-4.21-3.18-2.88-5.91-2.09-7.26,2.02-.76,2.31-.97,4.71-1.02,7.14-.17,8.13,1.53,16,3.22,23.83-4.28-6.25-8.25-12.73-13.68-18.11-2.21-2.19-4.46-4.34-7.37-5.58-3.32-1.41-5.37-.25-5.85,3.33-.16,1.23-.11,2.53,.05,3.77,1.08,8.35,4.58,15.84,8.44,23.17,.59,1.12,.62,3.58,3.24,2.09,4.64-2.64,5.15-3.33,3.57-6.1-2.56-4.49-5.19-8.94-7.74-13.44-.58-1.02-1.77-2.34-.09-3.24,1.6-.85,2.15,.78,2.76,1.81,1.7,2.86,3.35,5.76,5.01,8.65q4.16,7.23,11.65,3.62Zm97.65,40.29c.54,1.75,1.19,3.48,1.59,5.26,.5,2.27,1.66,2.54,3.74,1.92,4.96-1.47,9.98-2.72,14.98-4.02,1.16-.3,2.71-1.12,3.23,.62,.52,1.72-1.15,1.94-2.34,2.27-4.88,1.33-9.73,2.77-14.66,3.9-2.54,.58-3.67,1.55-2.66,4.21,.28,.73,.3,1.58,.38,2.38,.18,1.85,.99,2.19,2.78,1.64,6.94-2.15,13.74-4.59,19.98-8.38,1.85-1.13,3.67-2.42,5.23-3.91,3.88-3.71,3.08-6.7-2.02-8.17-2.12-.61-4.3-.7-6.49-.77-8.13-.26-15.99,1.52-23.87,3.16,3.33-2.26,6.74-4.42,9.97-6.8,5.01-3.69,9.92-7.57,13.16-13.04,2.59-4.36,.98-7.12-4.06-7.23-1.03-.02-2.07,.11-3.09,.28-8.19,1.3-15.61,4.69-22.83,8.57-1.01,.54-3.33,.55-2.03,2.99,2.38,4.46,3.52,5.28,6.04,3.84,4.6-2.62,9.16-5.3,13.76-7.93,1.05-.6,2.39-1.68,3.27-.07,.88,1.62-.82,2.12-1.83,2.72-3.17,1.88-6.37,3.7-9.56,5.54q-6.9,3.99-2.69,11.02Zm-23.41-31.22c4.08-7.73,8.03-15.54,9.53-24.26,.51-2.96,1.57-6.66-1.64-8.54-3.22-1.89-5.89,.83-8.22,2.77-6.17,5.13-10.77,11.59-14.95,18.35-.65,1.04-2.6,2.67,.03,3.44,2.16,.63,4.34,4.72,6.84,.58,2.73-4.52,5.28-9.15,7.93-13.72,.61-1.05,1.16-2.72,2.73-1.76,1.45,.89,.43,2.27-.18,3.34-2.57,4.48-5.19,8.94-7.74,13.43-.48,.84-1.72,2.02-.78,2.71,2,1.46,3.54,3.98,6.58,3.57-.12,2.31,2.14,2.78,3.22,4.16,1.73,2.21,3.12,1.78,4.91-.15,3.6-3.88,7.45-7.53,11.2-11.27,.86-.86,1.88-1.7,2.92-.5,.9,1.03-.05,1.91-.78,2.65-3.25,3.26-6.51,6.52-9.76,9.78-4.08,4.08-4.01,5.01,.38,8.7,.93,.78,1.52,.78,2.3-.05,6.26-6.65,12.19-13.54,15.7-22.11,.9-2.21,2-4.78,.04-6.85-2.1-2.22-4.71-.97-7.12-.23-.55,.17-1.07,.41-1.59,.65-5.92,2.73-10.98,6.7-15.95,10.83-1.83,1.52-3.22,3.61-5.56,4.49Zm-36.19-13.7c1.01,.1,2.03,.14,3.03,.3,6.13,.97,4.99,1.79,6.59-4.03,1.19-4.32,2.29-8.67,3.51-12.99,.32-1.12,.43-2.93,2.23-2.38,1.71,.52,.84,2.09,.67,3.27-.07,.45-.25,.88-.37,1.33-1.13,4.22-2.12,8.48-3.43,12.65-.86,2.75-.8,4.65,2.6,5.07,.56,.07,1.13,.28,1.63,.55,1.89,.97,2.71,.17,3.1-1.68,.98-4.61,1.91-9.23,2.35-13.94,.47-4.95,.81-9.9-.78-14.7-1.3-3.93-3.97-4.61-7.1-1.9-2.83,2.46-4.62,5.7-6.36,8.95-3.34,6.22-5.3,12.97-7.64,19.57-.06-9.34-.7-18.62-4.02-27.47-.98-2.63-1.96-5.97-5.37-6.06-3.67-.1-4.61,3.39-5.67,6.1-2.98,7.59-3.64,15.62-3.99,23.68-.06,1.32-1.03,3.63,1.89,3.35,6.26-.6,6.04,.37,6.08-3.48,.06-5.29,0-10.57,.05-15.86,0-1.09-.19-2.59,1.46-2.62,1.68-.03,1.48,1.43,1.49,2.55,.02,3.45-.06,6.9,.04,10.34,.08,2.73-1.09,6.03,.52,8.05,1.55,1.94,5.01,.53,7.5,1.34Zm-9.11,5.89c-37.76-.12-68.1,29.88-68.21,67.43-.12,37.61,30.08,68.15,67.49,68.25,37.67,.1,68.75-30.31,68.93-67.45,.19-37.85-30.06-68.11-68.21-68.23Zm1.13,153.21s0,0,.01,0c0,2.64,.02,5.28,0,7.92-.01,1.11,.24,2.61-1.43,2.59-1.64-.02-1.42-1.53-1.43-2.63-.04-4.82-.28-9.67,.06-14.47,.24-3.54-1.04-4.84-4.39-4.55-.56,.05-1.15-.06-1.72-.13-1.46-.17-2.16,.43-2.09,1.93,.43,8.38,.93,16.77,3.97,24.71,1.05,2.72,2.04,6.3,5.55,6.31,3.69,0,4.65-3.66,5.74-6.51,2.83-7.39,3.29-15.21,3.97-22.99,.25-2.9-.61-3.87-3.63-3.43-4.63,.68-4.65,.51-4.63,5.37,0,1.95,0,3.9,0,5.86Zm-86.67-86.85v-.06c2.76,0,5.52-.04,8.28,.02,1.69,.03,2.59-.54,2.5-2.38-.06-1.14,.03-2.31,.2-3.44,.25-1.67-.37-2.3-2.05-2.24-8.18,.33-16.33,.96-24.08,3.81-2.93,1.08-6.84,1.94-6.72,5.91,.1,3.67,3.83,4.56,6.67,5.61,7.31,2.7,14.98,3.46,22.71,3.67,1.33,.04,3.63,1.2,3.45-1.74-.39-6.27,.21-6.23-3.33-6.22-5.41,.02-10.81,0-16.22-.02-.93,0-1.98-.03-2.11-1.25-.16-1.49,1.04-1.65,2.07-1.67,2.87-.06,5.75-.02,8.62-.02Zm172.01,56.99c2.57-.07,4.79,.04,6.05-2.01,1.31-2.11,0-3.99-1.02-5.76-.63-1.09-1.42-2.09-2.25-3.04-4.73-5.41-10.46-9.63-16.45-13.52-4.1-2.66-3.96-2.57-6.25,1.62-1.26,2.31-1.04,3.5,1.37,4.76,4.58,2.39,8.99,5.09,13.45,7.71,.95,.56,2.35,1.17,1.47,2.58-.81,1.3-2.02,.59-3.04,0-3.78-2.17-7.56-4.35-11.35-6.53q-5.15-2.97-8.2,1.98c-.06,.1-.13,.19-.2,.28-.88,1.03-.71,1.78,.51,2.43,8.33,4.46,16.84,8.43,25.91,9.48Zm3.6-23.88c1.95-.09,3.92-.05,5.85-.29,2.83-.36,6.25-.45,7.23-3.65,1.01-3.32-1.96-5.17-4.22-6.83-7.14-5.24-15.38-8.12-23.75-10.7-1.46-.45-1.88,.17-2.08,1.37-.15,.91-.11,1.88-.45,2.71-1.17,2.88,.24,3.82,2.8,4.42,4.92,1.16,9.78,2.52,14.65,3.85,1.04,.29,2.6,.42,2.3,2-.36,1.9-1.96,1.21-3.08,.93-4.34-1.09-8.66-2.29-12.98-3.44-5.19-1.39-5.04-1.33-6.78,3.63-.85,2.42,.09,2.99,2.11,3.42,6.08,1.28,12.16,2.45,18.4,2.58Zm-5.13-30.24s0-.01,0-.02c-2.88,0-5.75,.07-8.63-.03-1.76-.06-2.56,.58-2.54,2.36,.01,1.15-.08,2.3-.21,3.44-.2,1.64,.46,2.27,2.12,2.24,8.44-.16,16.78-.97,24.75-3.9,2.74-1.01,6.25-1.99,6.34-5.53,.09-3.62-3.45-4.55-6.17-5.63-7.49-2.96-15.39-3.68-23.35-3.93-1.58-.05-4.18-1-3.65,2.3,.37,2.33-1.29,5.91,3.63,5.64,5.05-.27,10.12-.06,15.18,0,1.29,.02,3.19-.37,3.13,1.67-.06,1.79-1.83,1.34-3.01,1.36-2.53,.05-5.06,.02-7.59,.02Z"/>
    <path class="cls-3" d="M242.69,310.48c-35.14-.03-62.57-27.79-62.49-63.22,.08-35.16,27.62-62.71,62.67-62.7,35.8,.01,63.36,27.57,63.23,63.22-.13,35.44-27.73,62.73-63.41,62.7Zm3.18-100.42c0,3.52-.01,6.39,0,9.27,0,1.13-.17,2.44,1.37,2.78,1.84,.4,2-1.1,2.37-2.28,1.32-4.28,2.62-8.57,3.92-12.86,.42-1.37,.88-2.89,2.74-2.28,1.91,.62,1.19,2.14,.8,3.47-1.3,4.41-2.54,8.84-3.9,13.23-.45,1.47-.18,2.4,1.23,3.09,1.23,.6,2.35,1.04,3.31-.36,3.56-5.22,7.7-10.06,10.44-15.8,1.87-3.91,1.2-7.63-1.53-10.94-12.12-14.76-34.23-14.9-46.46-.3-3.39,4.05-3.84,7.92-1.01,12.35,3.03,4.75,6.37,9.29,9.52,13.96,.98,1.45,2.01,2.01,3.74,1.16,1.87-.92,1.54-2.22,1.07-3.76-1.29-4.17-2.52-8.36-3.76-12.55-.39-1.32-1.04-2.92,.76-3.55,2.04-.72,2.47,1.04,2.91,2.49,1.28,4.29,2.54,8.6,3.83,12.89,.33,1.1,.62,2.39,2.19,2.12,1.5-.26,1.5-1.53,1.51-2.7,.02-2.99,.16-5.99,0-8.97-.23-4.25,.99-8.64-1.66-12.7-.98-1.51,0-3.38,1.56-4.5,1.45-1.04,3.04-1.08,4.55-.18,1.67,.99,2.67,2.77,1.84,4.39-2.18,4.3-.84,8.81-1.34,12.54Zm-37.46,34.21c0,.13,0,.25,0,.38,2.3,0,4.6,0,6.9,0,1.16,0,2.46,.11,2.76-1.4,.31-1.56-.96-1.87-2.07-2.23-4.59-1.5-9.17-3.02-13.77-4.5-2.15-.69-4.2-1.52-6.66-.77-1.92,.59-3.58-.51-4.39-2.47-.81-1.98-.24-3.67,1.38-4.9,1.79-1.36,3.72-1.22,5.34,.31,.93,.88,1.77,1.72,3.04,2.13,5.48,1.73,10.94,3.53,16.41,5.29,1.2,.39,2.54,.96,3.29-.65,.69-1.49-.66-2.01-1.55-2.64-3.39-2.37-6.85-4.66-10.2-7.09-1.27-.92-3.79-1.69-2.35-3.8,1.57-2.3,3.25-.12,4.64,.8,3.55,2.34,7.02,4.81,10.49,7.27,1.27,.9,2.24,.74,3.28-.41,.96-1.05,1.5-2.02,.51-3.32-3.69-4.84-6.98-10.02-11.31-14.34-3.37-3.36-7.36-3.91-11.76-2.09-17.31,7.16-24.03,27.42-14.4,43.49,2.94,4.91,6.42,6.56,11.88,5.15,5.34-1.38,10.58-3.12,15.88-4.66,1.61-.47,2.67-1.17,2.41-3.13-.27-2.02-1.62-2.25-3.22-2.28-4.6-.1-9.2-.22-13.8-.33-1.41-.03-2.64-.44-2.52-2.1,.1-1.43,1.3-1.73,2.55-1.73,2.41,0,4.83,0,7.24,0Zm51.79,58.24c17.1-.03,29.57-11.28,31.22-27.13,.62-6.02-1.33-9.51-6.88-11.64-5.04-1.94-10.19-3.61-15.27-5.46-1.61-.58-2.81-.61-3.76,1.13-.99,1.81-.05,2.75,1.24,3.72,3.49,2.63,6.97,5.29,10.43,7.96,1.19,.92,2.74,1.93,1.33,3.6-1.2,1.43-2.5,.33-3.62-.52-3.57-2.72-7.13-5.45-10.71-8.16-.89-.67-1.82-1.64-3.02-.53-1.21,1.12-.33,2.09,.34,3.01,2.76,3.83,5.53,7.65,8.32,11.46,1.4,1.91,2.55,3.96,5.14,4.8,1.96,.64,2.51,2.6,2.05,4.61-.48,2.06-1.91,3.1-4,3.12-2.11,.02-3.47-1.1-4.06-3.08-.32-1.08-.15-2.25-.9-3.27-3.63-4.91-7.18-9.86-10.77-14.79-.62-.85-1.27-1.74-2.54-1.18-1.53,.68-.99,1.86-.61,2.95,1.47,4.24,2.98,8.46,4.44,12.71,.48,1.39,1.33,3.12-.76,3.77-2.04,.64-2.38-1.27-2.87-2.65-1.51-4.22-2.99-8.46-4.46-12.7-.47-1.36-1.24-2.11-2.84-1.8-1.54,.3-2.52,.89-2.48,2.68,.15,5.75-.16,11.52,.63,17.24,.72,5.25,3.52,8.3,8.7,9.41,2.24,.48,4.55,.6,5.72,.75Zm-19.76-18.81c.17,0,.33,0,.5,0,0-2.65-.03-5.29,0-7.94,.02-1.75-.2-3.17-2.38-3.52-2.05-.32-2.58,.94-3.1,2.44-1.28,3.7-2.52,7.41-3.92,11.06-.6,1.56-.61,4.47-3.14,3.6-2.79-.96-.85-3.35-.33-5.01,1.16-3.73,2.59-7.38,3.85-11.08,.4-1.16,1.11-2.5-.54-3.3-1.48-.72-2.05,.59-2.7,1.47-2.8,3.8-5.57,7.62-8.33,11.45-1.39,1.93-2.92,3.68-2.94,6.4-.01,2.04-1.75,3.14-3.84,3.21-1.94,.07-3.36-.85-4.02-2.65-.71-1.94-.21-3.67,1.49-4.89,1.1-.78,2.42-1.12,3.29-2.37,3.37-4.8,6.88-9.51,10.31-14.27,.66-.91,1.56-1.86,.38-3.02-1.2-1.17-2.1-.2-3,.48-3.58,2.71-7.13,5.45-10.72,8.15-1.19,.9-2.58,2.13-3.82,.32-1.07-1.56,.36-2.49,1.46-3.34,3.65-2.8,7.31-5.6,10.98-8.38,1.19-.9,1.49-1.88,.74-3.27-.69-1.29-1.5-2.04-3-1.52-5.86,2.04-11.92,3.58-17.44,6.49-3.83,2.02-5.55,5.43-5.39,9.7,.74,18.96,19.26,32.52,37.69,27.63,5.08-1.35,7.58-4.3,7.86-9.57,.15-2.75,.03-5.52,.03-8.28Zm37.67-38.78c0-.08,0-.17,0-.25,2.19,0,4.37-.01,6.56,0,1.36,.01,3.1-.28,3.24,1.65,.17,2.2-1.73,2.09-3.19,2.14-4.49,.15-8.97,.25-13.46,.3-1.59,.02-2.56,.48-2.81,2.27-.24,1.69,.25,2.63,1.87,3.1,5.52,1.6,10.91,3.67,16.58,4.73,4.98,.93,8.79-.87,11.43-5.16,9.86-16.06,3.15-36.64-14.28-43.78-5.09-2.08-8.79-1.3-12.3,2.99-3.49,4.27-6.74,8.75-10.13,13.11-1.04,1.34-1.39,2.48-.02,3.92,1.45,1.51,2.59,.84,3.91-.08,3.58-2.51,7.18-4.98,10.79-7.46,1.23-.85,2.64-2.03,3.81-.15,1.01,1.62-.46,2.47-1.6,3.26-3.78,2.63-7.56,5.24-11.34,7.87-.88,.61-1.74,1.29-1.14,2.53,.59,1.22,1.6,1.03,2.66,.68,3.28-1.07,6.62-1.97,9.84-3.2,3.66-1.4,7.85-1.58,10.63-5.1,1.13-1.43,3.2-1.09,4.74,.07,1.54,1.16,2.07,2.78,1.5,4.6-.58,1.81-1.92,2.92-3.87,2.86-7.73-.25-14.26,4-21.46,5.71-.95,.22-1.68,.8-1.53,1.96,.18,1.44,1.29,1.41,2.33,1.42,2.42,.02,4.83,0,7.25,0Zm-11.97,2.33c-.05-12.65-10.21-22.7-22.95-22.71-12.35-.01-22.54,10.24-22.61,22.73-.07,12.56,10.23,22.92,22.8,22.92,12.59,0,22.8-10.29,22.75-22.93Z"/>
    <path class="cls-3" d="M243.56,230.82c9.16,.09,16.38,7.4,16.35,16.56-.02,9.29-7.48,16.67-16.73,16.57-9.06-.1-16.41-7.53-16.42-16.6,0-9.2,7.53-16.62,16.79-16.53Z"/>
  </g>
  <path class="cls-3" d="M123.86,91.95V54.95c-1.47,.91-2.75,1.71-4.27,2.65,0-1.82-.02-3.38,.03-4.94,0-.23,.33-.5,.58-.66,1.62-1.04,3.16-2.25,4.93-3,1.26-.53,2.85-.4,4.37-.58v43.53h-5.63Z"/>
</svg>