<?xml version="1.0" encoding="UTF-8"?>
<svg id="Layer_1" data-name="Layer 1" xmlns="http://www.w3.org/2000/svg" viewBox="0 0 500 500">
  <defs>
    <style>
      .cls-1 {
        fill: #fff;
      }

      .cls-2 {
        fill: #831618;
      }

      .cls-3 {
        fill: #0f592d;
      }
    </style>
  </defs>
  <g>
    <path d="M413.66,295.57c0-77.84,.02-155.7,0-233.54,0-10.31-3.95-18.92-11.49-25.92-7.18-6.67-15.82-9.34-25.47-9.32-20.07,.03-40.14,.03-60.21,.03-59.06,0-118.11-.02-177.16-.03-11.34,0-20.72,4.34-28.15,12.89-6.27,7.22-8.35,15.73-8.34,25.12,.08,59.52,.04,119.04,.04,178.55,0,49.66-.01,99.31,0,148.97,0,11.71-.06,23.43,.17,35.14,.17,8.21,3.52,15.25,9.04,21.3,8.08,8.86,18.27,11.9,30.02,11.88,72.97-.12,145.95-.03,218.92-.1,7.99-.01,16.05,.84,23.98-.63,17.04-3.17,28.65-17.63,28.66-35.57,.03-42.93-.01-85.85-.01-128.78Zm-2.43-51.84h-.05c0,59.4,0,118.79,0,178.2,0,5.01-.29,9.96-2.06,14.73-4.8,12.96-17.23,21.4-31.66,21.4-77.27,0-154.53-.02-231.79-.03-2.55,0-5.11,.06-7.66-.03-18.18-.65-31.86-14.28-32.59-32.44-.03-.93-.02-1.85-.02-2.78,0-119.38,.02-238.75-.03-358.13,0-9.73,2.62-18.27,9.62-25.26,6.96-6.93,15.36-10.01,25.14-10,56.96,.06,113.93,.03,170.89,.03,22.28,0,44.55-.09,66.82,.03,16.55,.09,29.64,10.91,32.75,26.74,.84,4.24,.62,8.55,.63,12.84,0,58.24,0,116.48,0,174.72Z"/>
    <path class="cls-1" d="M411.23,243.73h-.05c0,59.4,0,118.79,0,178.2,0,5.01-.29,9.96-2.06,14.73-4.8,12.96-17.23,21.4-31.66,21.4-77.27,0-154.53-.02-231.79-.03-2.55,0-5.11,.06-7.66-.03-18.18-.65-31.86-14.28-32.59-32.44-.03-.93-.02-1.85-.02-2.78,0-119.38,.02-238.75-.03-358.13,0-9.73,2.62-18.27,9.62-25.26,6.96-6.93,15.36-10.01,25.14-10,56.96,.06,113.93,.03,170.89,.03,22.28,0,44.55-.09,66.82,.03,16.55,.09,29.64,10.91,32.75,26.74,.84,4.24,.62,8.55,.63,12.84,0,58.24,0,116.48,0,174.72Z"/>
  </g>
  <path class="cls-2" d="M159.92,86.97V45.61h-8.13l-24.81,42.49v5.94h25.84v18.12h7.1v-18.12h7.79v-7.06h-7.79Zm-7.1-22.22v22.22h-18.22v-.2l13.6-22.63c1.54-3.07,2.91-5.94,4.62-9.83h.26c-.17,3.48-.26,6.96-.26,10.44Z"/>
  <g>
    <g>
      <path class="cls-3" d="M319.11,117.79c5.48,.67,11.85,.85,17.9,2.34,10.48,2.58,12.24,9.81,4.79,17.32-2.67,2.69-7.36,3.72-7.3,8.71,.09,8.27-.08,16.56,.39,24.82,.17,2.93,3.88,3.2,5.94,4.74,7.13,5.32,7.64,12.73-.03,16.64-6.19,3.16-6.57,7.35-6.39,12.86,.33,10.21-2.27,20.56,8.91,28.24,6.5,4.47,3.36,12.27-5.14,14.49-13.01,3.4-26.21,3.42-39.31,.25-3.82-.92-8.05-1.87-8.87-6.71-.8-4.75,1.61-8.16,5.11-11.14,5.42-4.61,10.62-29.84,5.41-33.42-13.54-9.31-14.38-16.05-.01-25.22,4.82-3.08,.22-28.72-4.67-32.8-3.74-3.12-6.7-6.58-5.86-11.81,.96-5.93,6.27-6.53,10.57-7.41,5.8-1.18,11.82-1.26,18.59-1.89Zm-8.73,31.01c0,4.62,.25,9.25-.07,13.84-.37,5.44,1.48,7.57,7.24,7.55,5.75-.02,8.46-1.32,8.14-7.69-.45-8.88-.37-17.81-.01-26.7,.23-5.82-1.6-8.34-7.77-8.35-6.3,0-8.02,2.81-7.6,8.49,.32,4.26,.06,8.57,.06,12.85Zm0,69.82c0,4.98,.27,9.97-.07,14.92-.39,5.67,1.92,7.6,7.48,7.52,5.15-.07,8.12-1.1,7.87-7.14-.36-8.61-.22-17.25-.03-25.87,.13-5.71,.36-10.03-7.97-9.92-7.98,.1-7.42,4.4-7.3,9.55,.08,3.65,.02,7.3,.03,10.95Zm.1-34.55c-.69,5.76-.34,10.27,7.69,10.17,7.38-.09,7.54-4.17,7.51-9.63-.03-5.67,.21-10.37-7.9-10.23-7.37,.13-7.96,4.11-7.3,9.68Z"/>
      <path class="cls-3" d="M318.15,418.22c-6.6-.51-13.28-.22-19.71-2.33-3.5-1.15-7.32-1.93-8.33-6.11-1.05-4.33,.61-8.49,4.29-10.33,9.54-4.79,6.91-13.26,7.07-20.86,.15-7.36,1.55-14.53-7.74-19.22-6.66-3.36-5.49-11.01,.76-14.51,6.46-3.62,7.42-8.21,7.12-14.58-.48-9.96,1.81-20-8.99-27.35-5.96-4.05-3.63-11.46,3.52-13.67,14.28-4.41,28.86-4.33,43.17-.2,8.07,2.33,10,9.93,3.06,15.07-13.16,9.76-6.39,22.89-7.56,34.63-.31,3.16,3.58,3.46,5.61,4.99,7.84,5.92,8.17,12.39-.21,17.24-4.97,2.88-6.02,6.16-5.84,11.18,.39,10.88-2.4,21.98,9.36,30.14,5.41,3.75,2.99,10.32-3.97,12.93-6.97,2.61-14.33,2.51-21.61,2.95Zm-7.76-31.13c0,4.95,.27,9.91-.07,14.83-.42,6.02,2.81,7.12,7.86,7.18,5.45,.07,7.7-1.95,7.49-7.57-.33-8.89-.28-17.81-.01-26.7,.16-5.41-.69-8.37-7.37-8.48-7.1-.11-8.43,2.93-7.97,8.87,.31,3.93,.06,7.91,.07,11.86Zm0-69.87c0,4.98,.26,9.97-.07,14.92-.4,5.97,3.15,6.17,7.56,6.11,4.22-.06,7.95,.2,7.76-5.92-.29-9.28-.32-18.59,.04-27.86,.23-6.03-1.09-9.08-8.11-9-6.86,.08-7.5,3.55-7.24,8.81,.22,4.3,.04,8.62,.06,12.94Zm15.02,34.8c1.05-5.45,.15-9.89-7.58-9.87-7.15,.02-7.68,4.18-7.55,9.75,.13,5.55-.48,10.35,7.85,10.2,7.45-.13,8-3.97,7.29-10.09Z"/>
    </g>
    <g>
      <path class="cls-3" d="M199.63,117.79c5.48,.67,11.85,.85,17.9,2.34,10.48,2.58,12.24,9.81,4.79,17.32-2.67,2.69-7.36,3.72-7.3,8.71,.09,8.27-.08,16.56,.39,24.82,.17,2.93,3.88,3.2,5.94,4.74,7.13,5.32,7.64,12.73-.03,16.64-6.19,3.16-6.57,7.35-6.39,12.86,.33,10.21-2.27,20.56,8.91,28.24,6.5,4.47,3.36,12.27-5.14,14.49-13.01,3.4-26.21,3.42-39.31,.25-3.82-.92-8.05-1.87-8.87-6.71-.8-4.75,1.61-8.16,5.11-11.14,5.42-4.61,10.62-29.84,5.41-33.42-13.54-9.31-14.38-16.05-.01-25.22,4.82-3.08,.22-28.72-4.67-32.8-3.74-3.12-6.7-6.58-5.86-11.81,.96-5.93,6.27-6.53,10.57-7.41,5.8-1.18,11.82-1.26,18.59-1.89Zm-8.73,31.01c0,4.62,.25,9.25-.07,13.84-.37,5.44,1.48,7.57,7.24,7.55,5.75-.02,8.46-1.32,8.14-7.69-.45-8.88-.37-17.81-.01-26.7,.23-5.82-1.6-8.34-7.77-8.35-6.3,0-8.02,2.81-7.6,8.49,.32,4.26,.06,8.57,.06,12.85Zm0,69.82c0,4.98,.27,9.97-.07,14.92-.39,5.67,1.92,7.6,7.48,7.52,5.15-.07,8.12-1.1,7.87-7.14-.36-8.61-.22-17.25-.03-25.87,.13-5.71,.36-10.03-7.97-9.92-7.98,.1-7.42,4.4-7.3,9.55,.08,3.65,.02,7.3,.03,10.95Zm.1-34.55c-.69,5.76-.34,10.27,7.69,10.17,7.38-.09,7.54-4.17,7.51-9.63-.03-5.67,.21-10.37-7.9-10.23-7.37,.13-7.96,4.11-7.3,9.68Z"/>
      <path class="cls-3" d="M198.67,418.22c-6.6-.51-13.28-.22-19.71-2.33-3.5-1.15-7.32-1.93-8.33-6.11-1.05-4.33,.61-8.49,4.29-10.33,9.54-4.79,6.91-13.26,7.07-20.86,.15-7.36,1.55-14.53-7.74-19.22-6.66-3.36-5.49-11.01,.76-14.51,6.46-3.62,7.42-8.21,7.12-14.58-.48-9.96,1.81-20-8.99-27.35-5.96-4.05-3.63-11.46,3.52-13.67,14.28-4.41,28.86-4.33,43.17-.2,8.07,2.33,10,9.93,3.06,15.07-13.16,9.76-6.39,22.89-7.56,34.63-.31,3.16,3.58,3.46,5.61,4.99,7.84,5.92,8.17,12.39-.21,17.24-4.97,2.88-6.02,6.16-5.84,11.18,.39,10.88-2.4,21.98,9.36,30.14,5.41,3.75,2.99,10.32-3.97,12.93-6.97,2.61-14.33,2.51-21.61,2.95Zm-7.76-31.13c0,4.95,.27,9.91-.07,14.83-.42,6.02,2.81,7.12,7.86,7.18,5.45,.07,7.7-1.95,7.49-7.57-.33-8.89-.28-17.81-.01-26.7,.16-5.41-.69-8.37-7.37-8.48-7.1-.11-8.43,2.93-7.97,8.87,.31,3.93,.06,7.91,.07,11.86Zm0-69.87c0,4.98,.26,9.97-.07,14.92-.4,5.97,3.15,6.17,7.56,6.11,4.22-.06,7.95,.2,7.76-5.92-.29-9.28-.32-18.59,.04-27.86,.23-6.03-1.09-9.08-8.11-9-6.86,.08-7.5,3.55-7.24,8.81,.22,4.3,.04,8.62,.06,12.94Zm15.02,34.8c1.05-5.45,.15-9.89-7.58-9.87-7.15,.02-7.68,4.18-7.55,9.75,.13,5.55-.48,10.35,7.85,10.2,7.45-.13,8-3.97,7.29-10.09Z"/>
    </g>
  </g>
</svg>