  0
SECTION
  2
HEADER
  9
$ACADVER
  1
AC1032
  9
$ACADMAINTVER
 90
      228
  9
$DWGCODEPAGE
  3
ANSI_1252
  9
$REQUIREDVERSIONS
160
                 0
  9
$INSBASE
 10
0.0
 20
0.0
 30
0.0
  9
$EXTMIN
 10
1.000000000000000E+20
 20
1.000000000000000E+20
 30
1.000000000000000E+20
  9
$EXTMAX
 10
-1.000000000000000E+20
 20
-1.000000000000000E+20
 30
-1.000000000000000E+20
  9
$LIMMIN
 10
0.0
 20
0.0
  9
$LIMMAX
 10
12.0
 20
9.0
  9
$ORTHOMODE
 70
     0
  9
$REGENMODE
 70
     1
  9
$FILLMODE
 70
     1
  9
$QTEXTMODE
 70
     0
  9
$MIRRTEXT
 70
     0
  9
$LTSCALE
 40
1.0
  9
$ATTMODE
 70
     1
  9
$TEXTSIZE
 40
0.2
  9
$TRACEWID
 40
0.05
  9
$TEXTSTYLE
  7
Standard
  9
$CLAYER
  8
0
  9
$CELTYPE
  6
ByLayer
  9
$CECOLOR
 62
   256
  9
$CELTSCALE
 40
1.0
  9
$DISPSILH
 70
     0
  9
$DIMSCALE
 40
1.0
  9
$DIMASZ
 40
0.18
  9
$DIMEXO
 40
0.0625
  9
$DIMDLI
 40
0.38
  9
$DIMRND
 40
0.0
  9
$DIMDLE
 40
0.0
  9
$DIMEXE
 40
0.18
  9
$DIMTP
 40
0.0
  9
$DIMTM
 40
0.0
  9
$DIMTXT
 40
0.18
  9
$DIMCEN
 40
0.09
  9
$DIMTSZ
 40
0.0
  9
$DIMTOL
 70
     0
  9
$DIMLIM
 70
     0
  9
$DIMTIH
 70
     1
  9
$DIMTOH
 70
     1
  9
$DIMSE1
 70
     0
  9
$DIMSE2
 70
     0
  9
$DIMTAD
 70
     0
  9
$DIMZIN
 70
     0
  9
$DIMBLK
  1

  9
$DIMASO
 70
     1
  9
$DIMSHO
 70
     1
  9
$DIMPOST
  1

  9
$DIMAPOST
  1

  9
$DIMALT
 70
     0
  9
$DIMALTD
 70
     2
  9
$DIMALTF
 40
25.4
  9
$DIMLFAC
 40
1.0
  9
$DIMTOFL
 70
     0
  9
$DIMTVP
 40
0.0
  9
$DIMTIX
 70
     0
  9
$DIMSOXD
 70
     0
  9
$DIMSAH
 70
     0
  9
$DIMBLK1
  1

  9
$DIMBLK2
  1

  9
$DIMSTYLE
  2
Standard
  9
$DIMCLRD
 70
     0
  9
$DIMCLRE
 70
     0
  9
$DIMCLRT
 70
     0
  9
$DIMTFAC
 40
1.0
  9
$DIMGAP
 40
0.09
  9
$DIMJUST
 70
     0
  9
$DIMSD1
 70
     0
  9
$DIMSD2
 70
     0
  9
$DIMTOLJ
 70
     1
  9
$DIMTZIN
 70
     0
  9
$DIMALTZ
 70
     0
  9
$DIMALTTZ
 70
     0
  9
$DIMUPT
 70
     0
  9
$DIMDEC
 70
     4
  9
$DIMTDEC
 70
     4
  9
$DIMALTU
 70
     2
  9
$DIMALTTD
 70
     2
  9
$DIMTXSTY
  7
Standard
  9
$DIMAUNIT
 70
     0
  9
$DIMADEC
 70
     0
  9
$DIMALTRND
 40
0.0
  9
$DIMAZIN
 70
     0
  9
$DIMDSEP
 70
    46
  9
$DIMATFIT
 70
     3
  9
$DIMFRAC
 70
     0
  9
$DIMLDRBLK
  1

  9
$DIMLUNIT
 70
     2
  9
$DIMLWD
 70
    -2
  9
$DIMLWE
 70
    -2
  9
$DIMTMOVE
 70
     0
  9
$DIMFXL
 40
1.0
  9
$DIMFXLON
 70
     0
  9
$DIMJOGANG
 40
0.7853981633974483
  9
$DIMTFILL
 70
     0
  9
$DIMTFILLCLR
 70
     0
  9
$DIMARCSYM
 70
     0
  9
$DIMLTYPE
  6

  9
$DIMLTEX1
  6

  9
$DIMLTEX2
  6

  9
$DIMTXTDIRECTION
 70
     0
  9
$LUNITS
 70
     2
  9
$LUPREC
 70
     4
  9
$SKETCHINC
 40
0.1
  9
$FILLETRAD
 40
0.0
  9
$AUNITS
 70
     0
  9
$AUPREC
 70
     0
  9
$MENU
  1
.
  9
$ELEVATION
 40
0.0
  9
$PELEVATION
 40
0.0
  9
$THICKNESS
 40
0.0
  9
$LIMCHECK
 70
     0
  9
$CHAMFERA
 40
0.0
  9
$CHAMFERB
 40
0.0
  9
$CHAMFERC
 40
0.0
  9
$CHAMFERD
 40
0.0
  9
$SKPOLY
 70
     0
  9
$TDCREATE
 40
2460929.577812500
  9
$TDUCREATE
 40
2460929.369479167
  9
$TDUPDATE
 40
2460929.577812500
  9
$TDUUPDATE
 40
2460929.369479167
  9
$TDINDWG
 40
0.0000000000
  9
$TDUSRTIMER
 40
0.0000000000
  9
$USRTIMER
 70
     1
  9
$ANGBASE
 50
0.0
  9
$ANGDIR
 70
     0
  9
$PDMODE
 70
     0
  9
$PDSIZE
 40
0.0
  9
$PLINEWID
 40
0.0
  9
$SPLFRAME
 70
     0
  9
$SPLINETYPE
 70
     6
  9
$SPLINESEGS
 70
     8
  9
$HANDSEED
  5
9D
  9
$SURFTAB1
 70
     6
  9
$SURFTAB2
 70
     6
  9
$SURFTYPE
 70
     6
  9
$SURFU
 70
     6
  9
$SURFV
 70
     6
  9
$UCSBASE
  2

  9
$UCSNAME
  2

  9
$UCSORG
 10
0.0
 20
0.0
 30
0.0
  9
$UCSXDIR
 10
1.0
 20
0.0
 30
0.0
  9
$UCSYDIR
 10
0.0
 20
1.0
 30
0.0
  9
$UCSORTHOREF
  2

  9
$UCSORTHOVIEW
 70
     0
  9
$UCSORGTOP
 10
0.0
 20
0.0
 30
0.0
  9
$UCSORGBOTTOM
 10
0.0
 20
0.0
 30
0.0
  9
$UCSORGLEFT
 10
0.0
 20
0.0
 30
0.0
  9
$UCSORGRIGHT
 10
0.0
 20
0.0
 30
0.0
  9
$UCSORGFRONT
 10
0.0
 20
0.0
 30
0.0
  9
$UCSORGBACK
 10
0.0
 20
0.0
 30
0.0
  9
$PUCSBASE
  2

  9
$PUCSNAME
  2

  9
$PUCSORG
 10
0.0
 20
0.0
 30
0.0
  9
$PUCSXDIR
 10
1.0
 20
0.0
 30
0.0
  9
$PUCSYDIR
 10
0.0
 20
1.0
 30
0.0
  9
$PUCSORTHOREF
  2

  9
$PUCSORTHOVIEW
 70
     0
  9
$PUCSORGTOP
 10
0.0
 20
0.0
 30
0.0
  9
$PUCSORGBOTTOM
 10
0.0
 20
0.0
 30
0.0
  9
$PUCSORGLEFT
 10
0.0
 20
0.0
 30
0.0
  9
$PUCSORGRIGHT
 10
0.0
 20
0.0
 30
0.0
  9
$PUCSORGFRONT
 10
0.0
 20
0.0
 30
0.0
  9
$PUCSORGBACK
 10
0.0
 20
0.0
 30
0.0
  9
$USERI1
 70
     0
  9
$USERI2
 70
     0
  9
$USERI3
 70
     0
  9
$USERI4
 70
     0
  9
$USERI5
 70
     0
  9
$USERR1
 40
0.0
  9
$USERR2
 40
0.0
  9
$USERR3
 40
0.0
  9
$USERR4
 40
0.0
  9
$USERR5
 40
0.0
  9
$WORLDVIEW
 70
     1
  9
$SHADEDGE
 70
     3
  9
$SHADEDIF
 70
    70
  9
$TILEMODE
 70
     1
  9
$MAXACTVP
 70
    64
  9
$PINSBASE
 10
0.0
 20
0.0
 30
0.0
  9
$PLIMCHECK
 70
     0
  9
$PEXTMIN
 10
1.000000000000000E+20
 20
1.000000000000000E+20
 30
1.000000000000000E+20
  9
$PEXTMAX
 10
-1.000000000000000E+20
 20
-1.000000000000000E+20
 30
-1.000000000000000E+20
  9
$PLIMMIN
 10
0.0
 20
0.0
  9
$PLIMMAX
 10
12.0
 20
9.0
  9
$UNITMODE
 70
     0
  9
$VISRETAIN
 70
     1
  9
$PLINEGEN
 70
     0
  9
$PSLTSCALE
 70
     1
  9
$TREEDEPTH
 70
  3020
  9
$CMLSTYLE
  2
Standard
  9
$CMLJUST
 70
     0
  9
$CMLSCALE
 40
1.0
  9
$PROXYGRAPHICS
 70
     1
  9
$MEASUREMENT
 70
     0
  9
$CELWEIGHT
370
    -1
  9
$ENDCAPS
280
     0
  9
$JOINSTYLE
280
     0
  9
$LWDISPLAY
290
     1
  9
$INSUNITS
 70
     0
  9
$HYPERLINKBASE
  1

  9
$STYLESHEET
  1

  9
$XEDIT
290
     1
  9
$CEPSNTYPE
380
     0
  9
$PSTYLEMODE
290
     1
  9
$FINGERPRINTGUID
  2
{F4AD5E12-7A86-1247-B099-40D68FE590C1}
  9
$VERSIONGUID
  2
{1D2F2C1F-8721-6D41-B57D-76A2E7A07B24}
  9
$EXTNAMES
290
     1
  9
$PSVPSCALE
 40
0.0
  9
$OLESTARTUP
290
     0
  9
$SORTENTS
280
   127
  9
$INDEXCTL
280
     0
  9
$HIDETEXT
280
     1
  9
$XCLIPFRAME
280
     2
  9
$HALOGAP
280
     0
  9
$OBSCOLOR
 70
   257
  9
$OBSLTYPE
280
     0
  9
$INTERSECTIONDISPLAY
280
     0
  9
$INTERSECTIONCOLOR
 70
   257
  9
$DIMASSOC
280
     2
  9
$PROJECTNAME
  1

  9
$CAMERADISPLAY
290
     0
  9
$LENSLENGTH
 40
50.0
  9
$CAMERAHEIGHT
 40
0.0
  9
$STEPSPERSEC
 40
2.0
  9
$STEPSIZE
 40
6.0
  9
$3DDWFPREC
 40
2.0
  9
$PSOLWIDTH
 40
0.25
  9
$PSOLHEIGHT
 40
4.0
  9
$LOFTANG1
 40
1.570796326794896
  9
$LOFTANG2
 40
1.570796326794896
  9
$LOFTMAG1
 40
0.0
  9
$LOFTMAG2
 40
0.0
  9
$LOFTPARAM
 70
     7
  9
$LOFTNORMALS
280
     1
  9
$LATITUDE
 40
37.795
  9
$LONGITUDE
 40
-122.394
  9
$NORTHDIRECTION
 40
0.0
  9
$TIMEZONE
 70
 -8000
  9
$LIGHTGLYPHDISPLAY
280
     1
  9
$TILEMODELIGHTSYNCH
280
     1
  9
$CMATERIAL
347
11
  9
$SOLIDHIST
280
     0
  9
$SHOWHIST
280
     1
  9
$DWFFRAME
280
     2
  9
$DGNFRAME
280
     0
  9
$REALWORLDSCALE
290
     1
  9
$INTERFERECOLOR
 62
     1
  9
$INTERFEREOBJVS
345
33
  9
$INTERFEREVPVS
346
30
  9
$CSHADOW
280
     0
  9
$SHADOWPLANELOCATION
 40
0.0
  0
ENDSEC
  0
SECTION
  2
CLASSES
  0
CLASS
  1
ACDBDICTIONARYWDFLT
  2
AcDbDictionaryWithDefault
  3
ObjectDBX Classes
 90
        0
 91
        1
280
     0
281
     0
  0
CLASS
  1
MATERIAL
  2
AcDbMaterial
  3
ObjectDBX Classes
 90
     1153
 91
        3
280
     0
281
     0
  0
CLASS
  1
VISUALSTYLE
  2
AcDbVisualStyle
  3
ObjectDBX Classes
 90
     4095
 91
       24
280
     0
281
     0
  0
CLASS
  1
SCALE
  2
AcDbScale
  3
ObjectDBX Classes
 90
     1153
 91
       17
280
     0
281
     0
  0
CLASS
  1
TABLESTYLE
  2
AcDbTableStyle
  3
ObjectDBX Classes
 90
     4095
 91
        1
280
     0
281
     0
  0
CLASS
  1
MLEADERSTYLE
  2
AcDbMLeaderStyle
  3
ACDB_MLEADERSTYLE_CLASS
 90
     4095
 91
        1
280
     0
281
     0
  0
CLASS
  1
ACDBSECTIONVIEWSTYLE
  2
AcDbSectionViewStyle
  3
ObjectDBX Classes
 90
     1025
 91
        1
280
     0
281
     0
  0
CLASS
  1
ACDBDETAILVIEWSTYLE
  2
AcDbDetailViewStyle
  3
ObjectDBX Classes
 90
     1025
 91
        1
280
     0
281
     0
  0
CLASS
  1
DICTIONARYVAR
  2
AcDbDictionaryVar
  3
ObjectDBX Classes
 90
        0
 91
        5
280
     0
281
     0
  0
CLASS
  1
CELLSTYLEMAP
  2
AcDbCellStyleMap
  3
ObjectDBX Classes
 90
     1152
 91
        1
280
     0
281
     0
  0
ENDSEC
  0
SECTION
  2
TABLES
  0
TABLE
  2
VPORT
  5
8
330
0
100
AcDbSymbolTable
 70
     1
  0
VPORT
  5
57
330
8
100
AcDbSymbolTableRecord
100
AcDbViewportTableRecord
  2
*Active
 70
     0
 10
0.0
 20
0.0
 11
1.0
 21
1.0
 12
0.0
 22
0.0
 13
0.0
 23
0.0
 14
1.0
 24
1.0
 15
0.0
 25
0.0
 16
0.0
 26
0.0
 36
1.0
 17
2070.329143804109
 27
-1549.708560332395
 37
0.0
 40
3099.36839297975
 41
1.304893925962813
 42
50.0
 43
0.0
 44
0.0
 50
0.0
 51
0.0
 71
     0
 72
   100
 73
     1
 74
     1
 75
     0
 76
     0
 77
     0
 78
     0
281
     0
 65
     1
110
0.0
120
0.0
130
0.0
111
1.0
121
0.0
131
0.0
112
0.0
122
1.0
132
0.0
 79
     0
146
0.0
 60
     3
 61
     5
292
     1
282
     1
141
0.0
142
0.0
 63
   250
421
  3355443
  0
ENDTAB
  0
TABLE
  2
LTYPE
  5
5
330
0
100
AcDbSymbolTable
 70
     1
  0
LTYPE
  5
5B
330
5
100
AcDbSymbolTableRecord
100
AcDbLinetypeTableRecord
  2
ByBlock
 70
     0
  3

 72
    65
 73
     0
 40
0.0
  0
LTYPE
  5
5C
330
5
100
AcDbSymbolTableRecord
100
AcDbLinetypeTableRecord
  2
ByLayer
 70
     0
  3

 72
    65
 73
     0
 40
0.0
  0
LTYPE
  5
5D
330
5
100
AcDbSymbolTableRecord
100
AcDbLinetypeTableRecord
  2
Continuous
 70
     0
  3
Solid line
 72
    65
 73
     0
 40
0.0
  0
ENDTAB
  0
TABLE
  2
LAYER
  5
2
330
0
100
AcDbSymbolTable
 70
     2
  0
LAYER
  5
54
330
2
100
AcDbSymbolTableRecord
100
AcDbLayerTableRecord
  2
0
 70
     0
 62
     7
  6
Continuous
370
    -3
390
F
347
21
348
0
  0
LAYER
  5
78
330
2
100
AcDbSymbolTableRecord
100
AcDbLayerTableRecord
  2
Layer 1
 70
     0
 62
     7
  6
Continuous
370
     0
390
F
347
21
348
0
  0
ENDTAB
  0
TABLE
  2
STYLE
  5
3
330
0
100
AcDbSymbolTable
 70
     2
  0
STYLE
  5
55
330
3
100
AcDbSymbolTableRecord
100
AcDbTextStyleTableRecord
  2
Standard
 70
     0
 40
0.0
 41
1.0
 50
0.0
 71
     0
 42
0.2
  3
txt
  4

  0
STYLE
  5
5A
330
3
100
AcDbSymbolTableRecord
100
AcDbTextStyleTableRecord
  2
Annotative
 70
     0
 40
0.0
 41
1.0
 50
0.0
 71
     0
 42
0.2
  3
txt
  4

1001
AcadAnnotative
1000
AnnotativeData
1002
{
1070
     1
1070
     1
1002
}
  0
ENDTAB
  0
TABLE
  2
VIEW
  5
6
330
0
100
AcDbSymbolTable
 70
     0
  0
ENDTAB
  0
TABLE
  2
UCS
  5
7
330
0
100
AcDbSymbolTable
 70
     0
  0
ENDTAB
  0
TABLE
  2
APPID
  5
9
330
0
100
AcDbSymbolTable
 70
     2
  0
APPID
  5
56
330
9
100
AcDbSymbolTableRecord
100
AcDbRegAppTableRecord
  2
ACAD
 70
     0
  0
APPID
  5
5E
330
9
100
AcDbSymbolTableRecord
100
AcDbRegAppTableRecord
  2
AcadAnnotative
 70
     0
  0
ENDTAB
  0
TABLE
  2
DIMSTYLE
  5
A
330
0
100
AcDbSymbolTable
 70
     2
100
AcDbDimStyleTable
 71
     0
  0
DIMSTYLE
105
58
330
A
100
AcDbSymbolTableRecord
100
AcDbDimStyleTableRecord
  2
Standard
 70
     0
340
55
  0
DIMSTYLE
105
59
330
A
100
AcDbSymbolTableRecord
100
AcDbDimStyleTableRecord
  2
Annotative
 70
     0
340
55
1001
AcadAnnotative
1000
AnnotativeData
1002
{
1070
     1
1070
     1
1002
}
  0
ENDTAB
  0
TABLE
  2
BLOCK_RECORD
  5
1
330
0
100
AcDbSymbolTable
 70
     1
  0
BLOCK_RECORD
  5
70
330
1
100
AcDbSymbolTableRecord
100
AcDbBlockTableRecord
  2
*Model_Space
340
73
 70
     0
280
     1
281
     0
  0
BLOCK_RECORD
  5
6C
330
1
100
AcDbSymbolTableRecord
100
AcDbBlockTableRecord
  2
*Paper_Space
340
6F
 70
     0
280
     1
281
     0
  0
BLOCK_RECORD
  5
74
330
1
100
AcDbSymbolTableRecord
100
AcDbBlockTableRecord
  2
*Paper_Space0
340
77
 70
     0
280
     1
281
     0
  0
ENDTAB
  0
ENDSEC
  0
SECTION
  2
BLOCKS
  0
BLOCK
  5
71
330
70
100
AcDbEntity
  8
0
100
AcDbBlockBegin
  2
*Model_Space
 70
     0
 10
0.0
 20
0.0
 30
0.0
  3
*Model_Space
  1

  0
ENDBLK
  5
72
330
70
100
AcDbEntity
  8
0
100
AcDbBlockEnd
  0
BLOCK
  5
6D
330
6C
100
AcDbEntity
 67
     1
  8
0
100
AcDbBlockBegin
  2
*Paper_Space
 70
     0
 10
0.0
 20
0.0
 30
0.0
  3
*Paper_Space
  1

  0
ENDBLK
  5
6E
330
6C
100
AcDbEntity
 67
     1
  8
0
100
AcDbBlockEnd
  0
BLOCK
  5
75
330
74
100
AcDbEntity
 67
     1
  8
0
100
AcDbBlockBegin
  2
*Paper_Space0
 70
     0
 10
0.0
 20
0.0
 30
0.0
  3
*Paper_Space0
  1

  0
ENDBLK
  5
76
330
74
100
AcDbEntity
 67
     1
  8
0
100
AcDbBlockEnd
  0
ENDSEC
  0
SECTION
  2
ENTITIES
  0
SPLINE
  5
79
330
70
100
AcDbEntity
  8
Layer 1
100
AcDbSpline
210
0.0
220
0.0
230
1.0
 70
     9
 71
     3
 72
    53
 73
    49
 74
     0
 42
0.0000000001
 43
0.0000000001
 40
0.0
 40
0.0
 40
0.0
 40
0.0
 40
1.0
 40
1.0
 40
1.0
 40
2.0
 40
2.0
 40
2.0
 40
3.0
 40
3.0
 40
3.0
 40
4.0
 40
4.0
 40
4.0
 40
5.0
 40
5.0
 40
5.0
 40
6.0
 40
6.0
 40
6.0
 40
7.0
 40
7.0
 40
7.0
 40
8.0
 40
8.0
 40
8.0
 40
9.0
 40
9.0
 40
9.0
 40
10.0
 40
10.0
 40
10.0
 40
11.0
 40
11.0
 40
11.0
 40
12.0
 40
12.0
 40
12.0
 40
13.0
 40
13.0
 40
13.0
 40
14.0
 40
14.0
 40
14.0
 40
15.0
 40
15.0
 40
15.0
 40
16.0
 40
16.0
 40
16.0
 40
16.0
 10
2491.225971428538
 20
-763.7255912279297
 30
0.0
 10
2491.225971428538
 20
-763.7255912279297
 30
0.0
 10
2491.177277863053
 20
-763.7255912279297
 30
0.0
 10
2491.177277863053
 20
-763.7255912279297
 30
0.0
 10
2491.177277863053
 20
-823.1216709798728
 30
0.0
 10
2491.170309499406
 20
-882.5177507318167
 30
0.0
 10
2491.184246226703
 20
-941.9207563573854
 30
0.0
 10
2491.184246226703
 20
-946.9330918303384
 30
0.0
 10
2490.891829893683
 20
-951.8827970105167
 30
0.0
 10
2489.123650108393
 20
-956.6514522059524
 30
0.0
 10
2484.320068114679
 20
-969.6069149255409
 30
0.0
 10
2471.893776132007
 20
-978.0512969644815
 30
0.0
 10
2457.462380000065
 20
-978.0512969644815
 30
0.0
 10
2380.195974166585
 20
-978.0443286008358
 30
0.0
 10
2302.929568333107
 20
-978.0304343635643
 30
0.0
 10
2225.670130863274
 20
-978.0164976362712
 30
0.0
 10
2223.115205826285
 20
-978.0164976362712
 30
0.0
 10
2220.560365769339
 20
-978.0791279290461
 30
0.0
 10
2218.012409095992
 20
-977.9886666717075
 30
0.0
 10
2199.828804080518
 20
-977.341203712891
 30
0.0
 10
2186.149311382047
 20
-963.7104895599431
 30
0.0
 10
2185.425366383208
 20
-945.5477471453878
 30
0.0
 10
2185.390524564975
 20
-944.6218470708645
 30
0.0
 10
2185.404461292268
 20
-943.6959894863639
 30
0.0
 10
2185.404461292268
 20
-942.7631210481949
 30
0.0
 10
2185.404461292268
 20
-823.3862138583081
 30
0.0
 10
2185.425366383208
 20
-704.0092641784004
 30
0.0
 10
2185.369619474035
 20
-584.6323569885144
 30
0.0
 10
2185.369619474035
 20
-574.9001023756299
 30
0.0
 10
2187.9871748038
 20
-566.3582482256806
 30
0.0
 10
2194.990550228664
 20
-559.3688095281113
 30
0.0
 10
2201.95211547165
 20
-552.435117739712
 30
0.0
 10
2210.35468732871
 20
-549.3581602895419
 30
0.0
 10
2220.12866714343
 20
-549.3651286531885
 30
0.0
 10
2277.088241550353
 20
-549.4207056022723
 30
0.0
 10
2334.054784320919
 20
-549.3929171277304
 30
0.0
 10
2391.014188767753
 20
-549.3929171277304
 30
0.0
 10
2413.291197545303
 20
-549.3929171277304
 30
0.0
 10
2435.568206322851
 20
-549.302413380371
 30
0.0
 10
2457.838331716799
 20
-549.427673965919
 30
0.0
 10
2474.385900916135
 20
-549.5182626933237
 30
0.0
 10
2487.48064592861
 20
-560.3365622745359
 30
0.0
 10
2490.592445197012
 20
-576.1671548386784
 30
0.0
 10
2491.427884014198
 20
-580.406639297199
 30
0.0
 10
2491.212119681288
 20
-584.7158923722282
 30
0.0
 10
2491.219003064891
 20
-589.0042403563192
 30
0.0
 10
2491.225971428538
 20
-647.244633993494
 30
0.0
 10
2491.225971428538
 20
-705.4851975907559
 30
0.0
 10
2491.225971428538
 20
-763.7255912279297
 30
0.0
  0
SPLINE
  5
7A
330
70
100
AcDbEntity
  8
Layer 1
100
AcDbSpline
210
0.0
220
0.0
230
1.0
 70
     9
 71
     3
 72
    53
 73
    49
 74
     0
 42
0.0000000001
 43
0.0000000001
 40
0.0
 40
0.0
 40
0.0
 40
0.0
 40
1.0
 40
1.0
 40
1.0
 40
2.0
 40
2.0
 40
2.0
 40
3.0
 40
3.0
 40
3.0
 40
4.0
 40
4.0
 40
4.0
 40
5.0
 40
5.0
 40
5.0
 40
6.0
 40
6.0
 40
6.0
 40
7.0
 40
7.0
 40
7.0
 40
8.0
 40
8.0
 40
8.0
 40
9.0
 40
9.0
 40
9.0
 40
10.0
 40
10.0
 40
10.0
 40
11.0
 40
11.0
 40
11.0
 40
12.0
 40
12.0
 40
12.0
 40
13.0
 40
13.0
 40
13.0
 40
14.0
 40
14.0
 40
14.0
 40
15.0
 40
15.0
 40
15.0
 40
16.0
 40
16.0
 40
16.0
 40
16.0
 10
2493.655550899936
 20
-815.5683471972215
 30
0.0
 10
2493.655550899936
 20
-737.7241620413924
 30
0.0
 10
2493.676455990874
 20
-659.8730085219167
 30
0.0
 10
2493.662519263582
 20
-582.0287383860422
 30
0.0
 10
2493.662519263582
 20
-571.7186194707619
 30
0.0
 10
2489.708312814348
 20
-563.1072516444365
 30
0.0
 10
2482.168968249009
 20
-556.1108445832196
 30
0.0
 10
2474.984670309468
 20
-549.4416106932122
 30
0.0
 10
2466.345344048516
 20
-546.7683934343186
 30
0.0
 10
2456.696624819342
 20
-546.7892985252574
 30
0.0
 10
2436.626377836592
 20
-546.8240553634459
 30
0.0
 10
2416.556215833884
 20
-546.8240553634459
 30
0.0
 10
2396.486053831178
 20
-546.8240553634459
 30
0.0
 10
2337.431041487715
 20
-546.8170869998003
 30
0.0
 10
2278.376114124296
 20
-546.8032352525515
 30
0.0
 10
2219.321186760875
 20
-546.796266888904
 30
0.0
 10
2207.98076978644
 20
-546.796266888904
 30
0.0
 10
2198.603561799353
 20
-551.1333084384768
 30
0.0
 10
2191.175541092272
 20
-559.689014335674
 30
0.0
 10
2184.903248989982
 20
-566.908239073492
 30
0.0
 10
2182.82166280069
 20
-575.4222197688541
 30
0.0
 10
2182.835599527984
 20
-584.8133644832369
 30
0.0
 10
2182.919134911697
 20
-644.3347473107515
 30
0.0
 10
2182.877324729818
 20
-703.8491617746185
 30
0.0
 10
2182.877324729818
 20
-763.3635762384865
 30
0.0
 10
2182.877324729818
 20
-813.0204330138994
 30
0.0
 10
2182.863388002525
 20
-862.6772897893124
 30
0.0
 10
2182.884293093465
 20
-912.3341040747027
 30
0.0
 10
2182.884293093465
 20
-924.0434619122043
 30
0.0
 10
2182.82166280069
 20
-935.7597881133525
 30
0.0
 10
2183.05833222454
 20
-947.4691459508548
 30
0.0
 10
2183.225402991968
 20
-955.6837844395714
 30
0.0
 10
2186.580925027911
 20
-962.7219167026233
 30
0.0
 10
2192.094430313126
 20
-968.771518598378
 30
0.0
 10
2200.169913979024
 20
-977.6266516822651
 30
0.0
 10
2210.368539075958
 20
-980.6758206578933
 30
0.0
 10
2222.112781221717
 20
-980.6549155669545
 30
0.0
 10
2295.083870707458
 20
-980.5365808550295
 30
0.0
 10
2368.061928556845
 20
-980.6270846023899
 30
0.0
 10
2441.033103022628
 20
-980.5574434559476
 30
0.0
 10
2449.024966324767
 20
-980.5435492186761
 30
0.0
 10
2457.08651326337
 20
-981.3928397831096
 30
0.0
 10
2465.008692929045
 20
-979.9239597144451
 30
0.0
 10
2482.050591047064
 20
-976.7494876632454
 30
0.0
 10
2493.655550899936
 20
-962.297271420407
 30
0.0
 10
2493.669487627229
 20
-944.3503783188052
 30
0.0
 10
2493.704244465416
 20
-901.425343236152
 30
0.0
 10
2493.655550899936
 20
-858.5003506435214
 30
0.0
 10
2493.655550899936
 20
-815.5683471972215
 30
0.0
  0
HATCH
  5
7B
330
70
100
AcDbEntity
  8
Layer 1
 62
    18
420
        0
440
 33554687
100
AcDbHatch
 10
0.0
 20
0.0
 30
0.0
210
0.0
220
0.0
230
1.0
  2
SOLID
 70
     1
 71
     1
 91
        2
 92
        1
 93
        1
 72
     4
 94
        3
 73
     0
 74
     0
 95
       53
 96
       49
 40
0.0
 40
0.0
 40
0.0
 40
0.0
 40
1.0
 40
1.0
 40
1.0
 40
2.0
 40
2.0
 40
2.0
 40
3.0
 40
3.0
 40
3.0
 40
4.0
 40
4.0
 40
4.0
 40
5.0
 40
5.0
 40
5.0
 40
6.0
 40
6.0
 40
6.0
 40
7.0
 40
7.0
 40
7.0
 40
8.0
 40
8.0
 40
8.0
 40
9.0
 40
9.0
 40
9.0
 40
10.0
 40
10.0
 40
10.0
 40
11.0
 40
11.0
 40
11.0
 40
12.0
 40
12.0
 40
12.0
 40
13.0
 40
13.0
 40
13.0
 40
14.0
 40
14.0
 40
14.0
 40
15.0
 40
15.0
 40
15.0
 40
16.0
 40
16.0
 40
16.0
 40
16.0
 10
2491.225971428538
 20
-763.7255912279297
 10
2491.225971428538
 20
-763.7255912279297
 10
2491.177277863053
 20
-763.7255912279297
 10
2491.177277863053
 20
-763.7255912279297
 10
2491.177277863053
 20
-823.1216709798728
 10
2491.170309499406
 20
-882.5177507318167
 10
2491.184246226703
 20
-941.9207563573854
 10
2491.184246226703
 20
-946.9330918303384
 10
2490.891829893683
 20
-951.8827970105167
 10
2489.123650108393
 20
-956.6514522059524
 10
2484.320068114679
 20
-969.6069149255409
 10
2471.893776132007
 20
-978.0512969644815
 10
2457.462380000065
 20
-978.0512969644815
 10
2380.195974166585
 20
-978.0443286008358
 10
2302.929568333107
 20
-978.0304343635643
 10
2225.670130863274
 20
-978.0164976362712
 10
2223.115205826285
 20
-978.0164976362712
 10
2220.560365769339
 20
-978.0791279290461
 10
2218.012409095992
 20
-977.9886666717075
 10
2199.828804080518
 20
-977.341203712891
 10
2186.149311382047
 20
-963.7104895599431
 10
2185.425366383208
 20
-945.5477471453878
 10
2185.390524564975
 20
-944.6218470708645
 10
2185.404461292268
 20
-943.6959894863639
 10
2185.404461292268
 20
-942.7631210481949
 10
2185.404461292268
 20
-823.3862138583081
 10
2185.425366383208
 20
-704.0092641784004
 10
2185.369619474035
 20
-584.6323569885144
 10
2185.369619474035
 20
-574.9001023756299
 10
2187.9871748038
 20
-566.3582482256806
 10
2194.990550228664
 20
-559.3688095281113
 10
2201.95211547165
 20
-552.435117739712
 10
2210.35468732871
 20
-549.3581602895419
 10
2220.12866714343
 20
-549.3651286531885
 10
2277.088241550353
 20
-549.4207056022723
 10
2334.054784320919
 20
-549.3929171277304
 10
2391.014188767753
 20
-549.3929171277304
 10
2413.291197545303
 20
-549.3929171277304
 10
2435.568206322851
 20
-549.302413380371
 10
2457.838331716799
 20
-549.427673965919
 10
2474.385900916135
 20
-549.5182626933237
 10
2487.48064592861
 20
-560.3365622745359
 10
2490.592445197012
 20
-576.1671548386784
 10
2491.427884014198
 20
-580.406639297199
 10
2491.212119681288
 20
-584.7158923722282
 10
2491.219003064891
 20
-589.0042403563192
 10
2491.225971428538
 20
-647.244633993494
 10
2491.225971428538
 20
-705.4851975907559
 10
2491.225971428538
 20
-763.7255912279297
 97
        0
 97
        1
330
79
 92
        1
 93
        1
 72
     4
 94
        3
 73
     0
 74
     0
 95
       53
 96
       49
 40
0.0
 40
0.0
 40
0.0
 40
0.0
 40
1.0
 40
1.0
 40
1.0
 40
2.0
 40
2.0
 40
2.0
 40
3.0
 40
3.0
 40
3.0
 40
4.0
 40
4.0
 40
4.0
 40
5.0
 40
5.0
 40
5.0
 40
6.0
 40
6.0
 40
6.0
 40
7.0
 40
7.0
 40
7.0
 40
8.0
 40
8.0
 40
8.0
 40
9.0
 40
9.0
 40
9.0
 40
10.0
 40
10.0
 40
10.0
 40
11.0
 40
11.0
 40
11.0
 40
12.0
 40
12.0
 40
12.0
 40
13.0
 40
13.0
 40
13.0
 40
14.0
 40
14.0
 40
14.0
 40
15.0
 40
15.0
 40
15.0
 40
16.0
 40
16.0
 40
16.0
 40
16.0
 10
2493.655550899936
 20
-815.5683471972215
 10
2493.655550899936
 20
-737.7241620413924
 10
2493.676455990874
 20
-659.8730085219167
 10
2493.662519263582
 20
-582.0287383860422
 10
2493.662519263582
 20
-571.7186194707619
 10
2489.708312814348
 20
-563.1072516444365
 10
2482.168968249009
 20
-556.1108445832196
 10
2474.984670309468
 20
-549.4416106932122
 10
2466.345344048516
 20
-546.7683934343186
 10
2456.696624819342
 20
-546.7892985252574
 10
2436.626377836592
 20
-546.8240553634459
 10
2416.556215833884
 20
-546.8240553634459
 10
2396.486053831178
 20
-546.8240553634459
 10
2337.431041487715
 20
-546.8170869998003
 10
2278.376114124296
 20
-546.8032352525515
 10
2219.321186760875
 20
-546.796266888904
 10
2207.98076978644
 20
-546.796266888904
 10
2198.603561799353
 20
-551.1333084384768
 10
2191.175541092272
 20
-559.689014335674
 10
2184.903248989982
 20
-566.908239073492
 10
2182.82166280069
 20
-575.4222197688541
 10
2182.835599527984
 20
-584.8133644832369
 10
2182.919134911697
 20
-644.3347473107515
 10
2182.877324729818
 20
-703.8491617746185
 10
2182.877324729818
 20
-763.3635762384865
 10
2182.877324729818
 20
-813.0204330138994
 10
2182.863388002525
 20
-862.6772897893124
 10
2182.884293093465
 20
-912.3341040747027
 10
2182.884293093465
 20
-924.0434619122043
 10
2182.82166280069
 20
-935.7597881133525
 10
2183.05833222454
 20
-947.4691459508548
 10
2183.225402991968
 20
-955.6837844395714
 10
2186.580925027911
 20
-962.7219167026233
 10
2192.094430313126
 20
-968.771518598378
 10
2200.169913979024
 20
-977.6266516822651
 10
2210.368539075958
 20
-980.6758206578933
 10
2222.112781221717
 20
-980.6549155669545
 10
2295.083870707458
 20
-980.5365808550295
 10
2368.061928556845
 20
-980.6270846023899
 10
2441.033103022628
 20
-980.5574434559476
 10
2449.024966324767
 20
-980.5435492186761
 10
2457.08651326337
 20
-981.3928397831096
 10
2465.008692929045
 20
-979.9239597144451
 10
2482.050591047064
 20
-976.7494876632454
 10
2493.655550899936
 20
-962.297271420407
 10
2493.669487627229
 20
-944.3503783188052
 10
2493.704244465416
 20
-901.425343236152
 10
2493.655550899936
 20
-858.5003506435214
 10
2493.655550899936
 20
-815.5683471972215
 97
        0
 97
        1
330
7A
 75
     2
 76
     1
 98
        1
 10
0.0
 20
0.0
450
        0
451
        0
460
0.0
461
0.0
452
        0
462
0.0
453
        0
470

  0
SPLINE
  5
7C
330
70
100
AcDbEntity
  8
Layer 1
100
AcDbSpline
210
0.0
220
0.0
230
1.0
 70
     9
 71
     3
 72
    53
 73
    49
 74
     0
 42
0.0000000001
 43
0.0000000001
 40
0.0
 40
0.0
 40
0.0
 40
0.0
 40
1.0
 40
1.0
 40
1.0
 40
2.0
 40
2.0
 40
2.0
 40
3.0
 40
3.0
 40
3.0
 40
4.0
 40
4.0
 40
4.0
 40
5.0
 40
5.0
 40
5.0
 40
6.0
 40
6.0
 40
6.0
 40
7.0
 40
7.0
 40
7.0
 40
8.0
 40
8.0
 40
8.0
 40
9.0
 40
9.0
 40
9.0
 40
10.0
 40
10.0
 40
10.0
 40
11.0
 40
11.0
 40
11.0
 40
12.0
 40
12.0
 40
12.0
 40
13.0
 40
13.0
 40
13.0
 40
14.0
 40
14.0
 40
14.0
 40
15.0
 40
15.0
 40
15.0
 40
16.0
 40
16.0
 40
16.0
 40
16.0
 10
2491.225971428538
 20
-763.7255912279297
 30
0.0
 10
2491.225971428538
 20
-763.7255912279297
 30
0.0
 10
2491.177277863053
 20
-763.7255912279297
 30
0.0
 10
2491.177277863053
 20
-763.7255912279297
 30
0.0
 10
2491.177277863053
 20
-823.1216709798728
 30
0.0
 10
2491.170309499406
 20
-882.5177507318167
 30
0.0
 10
2491.184246226703
 20
-941.9207563573854
 30
0.0
 10
2491.184246226703
 20
-946.9330918303384
 30
0.0
 10
2490.891829893683
 20
-951.8827970105167
 30
0.0
 10
2489.123650108393
 20
-956.6514522059524
 30
0.0
 10
2484.320068114679
 20
-969.6069149255409
 30
0.0
 10
2471.893776132007
 20
-978.0512969644815
 30
0.0
 10
2457.462380000065
 20
-978.0512969644815
 30
0.0
 10
2380.195974166585
 20
-978.0443286008358
 30
0.0
 10
2302.929568333107
 20
-978.0304343635643
 30
0.0
 10
2225.670130863274
 20
-978.0164976362712
 30
0.0
 10
2223.115205826285
 20
-978.0164976362712
 30
0.0
 10
2220.560365769339
 20
-978.0791279290461
 30
0.0
 10
2218.012409095992
 20
-977.9886666717075
 30
0.0
 10
2199.828804080518
 20
-977.341203712891
 30
0.0
 10
2186.149311382047
 20
-963.7104895599431
 30
0.0
 10
2185.425366383208
 20
-945.5477471453878
 30
0.0
 10
2185.390524564975
 20
-944.6218470708645
 30
0.0
 10
2185.404461292268
 20
-943.6959894863639
 30
0.0
 10
2185.404461292268
 20
-942.7631210481949
 30
0.0
 10
2185.404461292268
 20
-823.3862138583081
 30
0.0
 10
2185.425366383208
 20
-704.0092641784004
 30
0.0
 10
2185.369619474035
 20
-584.6323569885144
 30
0.0
 10
2185.369619474035
 20
-574.9001023756299
 30
0.0
 10
2187.9871748038
 20
-566.3582482256806
 30
0.0
 10
2194.990550228664
 20
-559.3688095281113
 30
0.0
 10
2201.95211547165
 20
-552.435117739712
 30
0.0
 10
2210.35468732871
 20
-549.3581602895419
 30
0.0
 10
2220.12866714343
 20
-549.3651286531885
 30
0.0
 10
2277.088241550353
 20
-549.4207056022723
 30
0.0
 10
2334.054784320919
 20
-549.3929171277304
 30
0.0
 10
2391.014188767753
 20
-549.3929171277304
 30
0.0
 10
2413.291197545303
 20
-549.3929171277304
 30
0.0
 10
2435.568206322851
 20
-549.302413380371
 30
0.0
 10
2457.838331716799
 20
-549.427673965919
 30
0.0
 10
2474.385900916135
 20
-549.5182626933237
 30
0.0
 10
2487.48064592861
 20
-560.3365622745359
 30
0.0
 10
2490.592445197012
 20
-576.1671548386784
 30
0.0
 10
2491.427884014198
 20
-580.406639297199
 30
0.0
 10
2491.212119681288
 20
-584.7158923722282
 30
0.0
 10
2491.219003064891
 20
-589.0042403563192
 30
0.0
 10
2491.225971428538
 20
-647.244633993494
 30
0.0
 10
2491.225971428538
 20
-705.4851975907559
 30
0.0
 10
2491.225971428538
 20
-763.7255912279297
 30
0.0
  0
SPLINE
  5
7D
330
70
100
AcDbEntity
  8
Layer 1
100
AcDbSpline
210
0.0
220
0.0
230
1.0
 70
     9
 71
     3
 72
    26
 73
    22
 74
     0
 42
0.0000000001
 43
0.0000000001
 40
0.0
 40
0.0
 40
0.0
 40
0.0
 40
1.0
 40
1.0
 40
1.0
 40
2.0
 40
2.0
 40
2.0
 40
3.0
 40
3.0
 40
3.0
 40
4.0
 40
4.0
 40
4.0
 40
5.0
 40
5.0
 40
5.0
 40
6.0
 40
6.0
 40
6.0
 40
7.0
 40
7.0
 40
7.0
 40
7.0
 10
2232.818440317195
 20
-584.7554855348598
 30
0.0
 10
2232.818440317195
 20
-584.7554855348598
 30
0.0
 10
2232.818440317195
 20
-606.9732589723598
 30
0.0
 10
2232.818440317195
 20
-606.9732589723598
 30
0.0
 10
2232.818440317195
 20
-606.9732589723598
 30
0.0
 10
2214.595295785945
 20
-606.9732589723598
 30
0.0
 10
2214.595295785945
 20
-606.9732589723598
 30
0.0
 10
2214.595295785945
 20
-606.9732589723598
 30
0.0
 10
2214.595295785945
 20
-606.7686691286098
 30
0.0
 10
2214.595295785945
 20
-606.7686691286098
 30
0.0
 10
2214.595295785945
 20
-606.7686691286098
 30
0.0
 10
2228.198811410945
 20
-584.1412277223598
 30
0.0
 10
2228.198811410945
 20
-584.1412277223598
 30
0.0
 10
2229.738362192195
 20
-581.0694503786098
 30
0.0
 10
2231.107502817195
 20
-578.2027511598598
 30
0.0
 10
2232.818440317195
 20
-574.3121261598599
 30
0.0
 10
2232.818440317195
 20
-574.3121261598599
 30
0.0
 10
2233.075276254695
 20
-574.3121261598599
 30
0.0
 10
2233.075276254695
 20
-574.3121261598599
 30
0.0
 10
2232.904377817195
 20
-577.7930831911098
 30
0.0
 10
2232.818440317195
 20
-581.2740402223599
 30
0.0
 10
2232.818440317195
 20
-584.7554855348598
 30
0.0
  0
SPLINE
  5
7E
330
70
100
AcDbEntity
  8
Layer 1
100
AcDbSpline
210
0.0
220
0.0
230
1.0
 70
    11
 71
     3
 72
    38
 73
    34
 74
     0
 42
0.0000000001
 43
0.0000000001
 40
0.0
 40
0.0
 40
0.0
 40
0.0
 40
1.0
 40
1.0
 40
1.0
 40
2.0
 40
2.0
 40
2.0
 40
3.0
 40
3.0
 40
3.0
 40
4.0
 40
4.0
 40
4.0
 40
5.0
 40
5.0
 40
5.0
 40
6.0
 40
6.0
 40
6.0
 40
7.0
 40
7.0
 40
7.0
 40
8.0
 40
8.0
 40
8.0
 40
9.0
 40
9.0
 40
9.0
 40
10.0
 40
10.0
 40
10.0
 40
11.0
 40
11.0
 40
11.0
 40
11.0
 10
2239.920002817195
 20
-606.9732589723598
 30
0.0
 10
2239.920002817195
 20
-606.9732589723598
 30
0.0
 10
2239.920002817195
 20
-565.6090011598599
 30
0.0
 10
2239.920002817195
 20
-565.6090011598599
 30
0.0
 10
2239.920002817195
 20
-565.6090011598599
 30
0.0
 10
2231.792073129694
 20
-565.6090011598599
 30
0.0
 10
2231.792073129694
 20
-565.6090011598599
 30
0.0
 10
2231.792073129694
 20
-565.6090011598599
 30
0.0
 10
2206.980549692195
 20
-608.0992355348598
 30
0.0
 10
2206.980549692195
 20
-608.0992355348598
 30
0.0
 10
2206.980549692195
 20
-608.0992355348598
 30
0.0
 10
2206.980549692195
 20
-614.0377120973599
 30
0.0
 10
2206.980549692195
 20
-614.0377120973599
 30
0.0
 10
2206.980549692195
 20
-614.0377120973599
 30
0.0
 10
2232.818440317195
 20
-614.0377120973599
 30
0.0
 10
2232.818440317195
 20
-614.0377120973599
 30
0.0
 10
2232.818440317195
 20
-614.0377120973599
 30
0.0
 10
2232.818440317195
 20
-632.1602706911098
 30
0.0
 10
2232.818440317195
 20
-632.1602706911098
 30
0.0
 10
2232.818440317195
 20
-632.1602706911098
 30
0.0
 10
2239.920002817195
 20
-632.1602706911098
 30
0.0
 10
2239.920002817195
 20
-632.1602706911098
 30
0.0
 10
2239.920002817195
 20
-632.1602706911098
 30
0.0
 10
2239.920002817195
 20
-614.0377120973599
 30
0.0
 10
2239.920002817195
 20
-614.0377120973599
 30
0.0
 10
2239.920002817195
 20
-614.0377120973599
 30
0.0
 10
2247.705159067194
 20
-614.0377120973599
 30
0.0
 10
2247.705159067194
 20
-614.0377120973599
 30
0.0
 10
2247.705159067194
 20
-614.0377120973599
 30
0.0
 10
2247.705159067194
 20
-606.9732589723598
 30
0.0
 10
2247.705159067194
 20
-606.9732589723598
 30
0.0
 10
2247.705159067194
 20
-606.9732589723598
 30
0.0
 10
2239.920002817195
 20
-606.9732589723598
 30
0.0
 10
2239.920002817195
 20
-606.9732589723598
 30
0.0
  0
HATCH
  5
7F
330
70
100
AcDbEntity
  8
Layer 1
 62
   246
420
  8590872
440
 33554687
100
AcDbHatch
 10
0.0
 20
0.0
 30
0.0
210
0.0
220
0.0
230
1.0
  2
SOLID
 70
     1
 71
     1
 91
        2
 92
        1
 93
        1
 72
     4
 94
        3
 73
     0
 74
     0
 95
       26
 96
       22
 40
0.0
 40
0.0
 40
0.0
 40
0.0
 40
1.0
 40
1.0
 40
1.0
 40
2.0
 40
2.0
 40
2.0
 40
3.0
 40
3.0
 40
3.0
 40
4.0
 40
4.0
 40
4.0
 40
5.0
 40
5.0
 40
5.0
 40
6.0
 40
6.0
 40
6.0
 40
7.0
 40
7.0
 40
7.0
 40
7.0
 10
2232.818440317195
 20
-584.7554855348598
 10
2232.818440317195
 20
-584.7554855348598
 10
2232.818440317195
 20
-606.9732589723598
 10
2232.818440317195
 20
-606.9732589723598
 10
2232.818440317195
 20
-606.9732589723598
 10
2214.595295785945
 20
-606.9732589723598
 10
2214.595295785945
 20
-606.9732589723598
 10
2214.595295785945
 20
-606.9732589723598
 10
2214.595295785945
 20
-606.7686691286098
 10
2214.595295785945
 20
-606.7686691286098
 10
2214.595295785945
 20
-606.7686691286098
 10
2228.198811410945
 20
-584.1412277223598
 10
2228.198811410945
 20
-584.1412277223598
 10
2229.738362192195
 20
-581.0694503786098
 10
2231.107502817195
 20
-578.2027511598598
 10
2232.818440317195
 20
-574.3121261598599
 10
2232.818440317195
 20
-574.3121261598599
 10
2233.075276254695
 20
-574.3121261598599
 10
2233.075276254695
 20
-574.3121261598599
 10
2232.904377817195
 20
-577.7930831911098
 10
2232.818440317195
 20
-581.2740402223599
 10
2232.818440317195
 20
-584.7554855348598
 97
        0
 97
        1
330
7D
 92
        1
 93
        1
 72
     4
 94
        3
 73
     0
 74
     0
 95
       38
 96
       34
 40
0.0
 40
0.0
 40
0.0
 40
0.0
 40
1.0
 40
1.0
 40
1.0
 40
2.0
 40
2.0
 40
2.0
 40
3.0
 40
3.0
 40
3.0
 40
4.0
 40
4.0
 40
4.0
 40
5.0
 40
5.0
 40
5.0
 40
6.0
 40
6.0
 40
6.0
 40
7.0
 40
7.0
 40
7.0
 40
8.0
 40
8.0
 40
8.0
 40
9.0
 40
9.0
 40
9.0
 40
10.0
 40
10.0
 40
10.0
 40
11.0
 40
11.0
 40
11.0
 40
11.0
 10
2239.920002817195
 20
-606.9732589723598
 10
2239.920002817195
 20
-606.9732589723598
 10
2239.920002817195
 20
-565.6090011598599
 10
2239.920002817195
 20
-565.6090011598599
 10
2239.920002817195
 20
-565.6090011598599
 10
2231.792073129694
 20
-565.6090011598599
 10
2231.792073129694
 20
-565.6090011598599
 10
2231.792073129694
 20
-565.6090011598599
 10
2206.980549692195
 20
-608.0992355348598
 10
2206.980549692195
 20
-608.0992355348598
 10
2206.980549692195
 20
-608.0992355348598
 10
2206.980549692195
 20
-614.0377120973599
 10
2206.980549692195
 20
-614.0377120973599
 10
2206.980549692195
 20
-614.0377120973599
 10
2232.818440317195
 20
-614.0377120973599
 10
2232.818440317195
 20
-614.0377120973599
 10
2232.818440317195
 20
-614.0377120973599
 10
2232.818440317195
 20
-632.1602706911098
 10
2232.818440317195
 20
-632.1602706911098
 10
2232.818440317195
 20
-632.1602706911098
 10
2239.920002817195
 20
-632.1602706911098
 10
2239.920002817195
 20
-632.1602706911098
 10
2239.920002817195
 20
-632.1602706911098
 10
2239.920002817195
 20
-614.0377120973599
 10
2239.920002817195
 20
-614.0377120973599
 10
2239.920002817195
 20
-614.0377120973599
 10
2247.705159067194
 20
-614.0377120973599
 10
2247.705159067194
 20
-614.0377120973599
 10
2247.705159067194
 20
-614.0377120973599
 10
2247.705159067194
 20
-606.9732589723598
 10
2247.705159067194
 20
-606.9732589723598
 10
2247.705159067194
 20
-606.9732589723598
 10
2239.920002817195
 20
-606.9732589723598
 10
2239.920002817195
 20
-606.9732589723598
 97
        0
 97
        1
330
7E
 75
     2
 76
     1
 98
        1
 10
0.0
 20
0.0
450
        0
451
        0
460
0.0
461
0.0
452
        0
462
0.0
453
        0
470

  0
SPLINE
  5
80
330
70
100
AcDbEntity
  8
Layer 1
100
AcDbSpline
210
0.0
220
0.0
230
1.0
 70
     9
 71
     3
 72
    17
 73
    13
 74
     0
 42
0.0000000001
 43
0.0000000001
 40
0.0
 40
0.0
 40
0.0
 40
0.0
 40
1.0
 40
1.0
 40
1.0
 40
2.0
 40
2.0
 40
2.0
 40
3.0
 40
3.0
 40
3.0
 40
4.0
 40
4.0
 40
4.0
 40
4.0
 10
2390.490977851607
 20
-704.0760341371251
 30
0.0
 10
2389.797240823655
 20
-709.8359768701348
 30
0.0
 10
2390.154724117461
 20
-714.3464680781026
 30
0.0
 10
2398.176610327339
 20
-714.2486403828179
 30
0.0
 10
2405.555212006095
 20
-714.1586540996914
 30
0.0
 10
2405.716675192487
 20
-710.0790682452989
 30
0.0
 10
2405.687619417204
 20
-704.621369400681
 30
0.0
 10
2405.657439098317
 20
-698.9518688468515
 30
0.0
 10
2405.902027332197
 20
-694.250851078943
 30
0.0
 10
2397.789980079038
 20
-694.3918597289694
 30
0.0
 10
2390.418444789144
 20
-694.519981717156
 30
0.0
 10
2389.828165772766
 20
-698.496922574608
 30
0.0
 10
2390.490977851607
 20
-704.0760341371251
 30
0.0
  0
SPLINE
  5
81
330
70
100
AcDbEntity
  8
Layer 1
100
AcDbSpline
210
0.0
220
0.0
230
1.0
 70
     9
 71
     3
 72
    26
 73
    22
 74
     0
 42
0.0000000001
 43
0.0000000001
 40
0.0
 40
0.0
 40
0.0
 40
0.0
 40
1.0
 40
1.0
 40
1.0
 40
2.0
 40
2.0
 40
2.0
 40
3.0
 40
3.0
 40
3.0
 40
4.0
 40
4.0
 40
4.0
 40
5.0
 40
5.0
 40
5.0
 40
6.0
 40
6.0
 40
6.0
 40
7.0
 40
7.0
 40
7.0
 40
7.0
 10
2390.388142897977
 20
-738.6247338333096
 30
0.0
 10
2390.388142897977
 20
-743.6006721193416
 30
0.0
 10
2390.660966294239
 20
-748.5956060743583
 30
0.0
 10
2390.316263286526
 20
-753.5475490313237
 30
0.0
 10
2389.921761232999
 20
-759.2148840788858
 30
0.0
 10
2392.236922976104
 20
-761.1431116429867
 30
0.0
 10
2397.798171011504
 20
-761.0632082609582
 30
0.0
 10
2402.95127050478
 20
-760.9891555449767
 30
0.0
 10
2405.919123434285
 20
-759.9631462750994
 30
0.0
 10
2405.668167852162
 20
-753.9212622247114
 30
0.0
 10
2405.310547789539
 20
-745.311361282198
 30
0.0
 10
2405.443988565041
 20
-736.671948668345
 30
0.0
 10
2405.640145441272
 20
-728.0513493650569
 30
0.0
 10
2405.770045424075
 20
-722.3415703947093
 30
0.0
 10
2405.998023844994
 20
-718.0256480250445
 30
0.0
 10
2397.666432247945
 20
-718.1296835049542
 30
0.0
 10
2389.68548550387
 20
-718.2293119896585
 30
0.0
 10
2390.242134587872
 20
-722.5322261252004
 30
0.0
 10
2390.361852892098
 20
-727.6780160850476
 30
0.0
 10
2390.446710344599
 20
-731.3250781548658
 30
0.0
 10
2390.378295543174
 20
-734.975696213919
 30
0.0
 10
2390.388142897977
 20
-738.6247338333096
 30
0.0
  0
SPLINE
  5
82
330
70
100
AcDbEntity
  8
Layer 1
100
AcDbSpline
210
0.0
220
0.0
230
1.0
 70
     9
 71
     3
 72
    26
 73
    22
 74
     0
 42
0.0000000001
 43
0.0000000001
 40
0.0
 40
0.0
 40
0.0
 40
0.0
 40
1.0
 40
1.0
 40
1.0
 40
2.0
 40
2.0
 40
2.0
 40
3.0
 40
3.0
 40
3.0
 40
4.0
 40
4.0
 40
4.0
 40
5.0
 40
5.0
 40
5.0
 40
6.0
 40
6.0
 40
6.0
 40
7.0
 40
7.0
 40
7.0
 40
7.0
 10
2390.382869700267
 20
-668.803105565129
 30
0.0
 10
2390.382869700267
 20
-673.4192886753417
 30
0.0
 10
2390.634144409629
 20
-678.0527730408675
 30
0.0
 10
2390.317691760834
 20
-682.6471567213511
 30
0.0
 10
2389.943021185731
 20
-688.0870300301921
 30
0.0
 10
2391.793624848078
 20
-690.2139067022935
 30
0.0
 10
2397.559175102575
 20
-690.193877668914
 30
0.0
 10
2403.309635197626
 20
-690.1738942251386
 30
0.0
 10
2406.02109218541
 20
-688.8706089741872
 30
0.0
 10
2405.698971228991
 20
-682.5069914790283
 30
0.0
 10
2405.249472914611
 20
-673.6272304646108
 30
0.0
 10
2405.328540487202
 20
-664.697032149902
 30
0.0
 10
2405.684671289377
 20
-655.8085863156247
 30
0.0
 10
2405.918044480288
 20
-649.9838949453041
 30
0.0
 10
2404.0859501978
 20
-647.4668092408656
 30
0.0
 10
2397.918345211787
 20
-647.4602101454584
 30
0.0
 10
2391.613378744192
 20
-647.4534628838346
 30
0.0
 10
2389.899118395566
 20
-650.2716793304617
 30
0.0
 10
2390.319257003963
 20
-655.9483640463004
 30
0.0
 10
2390.634782664107
 20
-660.2114632596449
 30
0.0
 10
2390.381608387846
 20
-664.5166568754648
 30
0.0
 10
2390.382869700267
 20
-668.803105565129
 30
0.0
  0
SPLINE
  5
83
330
70
100
AcDbEntity
  8
Layer 1
100
AcDbSpline
210
0.0
220
0.0
230
1.0
 70
     9
 71
     3
 72
    59
 73
    55
 74
     0
 42
0.0000000001
 43
0.0000000001
 40
0.0
 40
0.0
 40
0.0
 40
0.0
 40
1.0
 40
1.0
 40
1.0
 40
2.0
 40
2.0
 40
2.0
 40
3.0
 40
3.0
 40
3.0
 40
4.0
 40
4.0
 40
4.0
 40
5.0
 40
5.0
 40
5.0
 40
6.0
 40
6.0
 40
6.0
 40
7.0
 40
7.0
 40
7.0
 40
8.0
 40
8.0
 40
8.0
 40
9.0
 40
9.0
 40
9.0
 40
10.0
 40
10.0
 40
10.0
 40
11.0
 40
11.0
 40
11.0
 40
12.0
 40
12.0
 40
12.0
 40
13.0
 40
13.0
 40
13.0
 40
14.0
 40
14.0
 40
14.0
 40
15.0
 40
15.0
 40
15.0
 40
16.0
 40
16.0
 40
16.0
 40
17.0
 40
17.0
 40
17.0
 40
18.0
 40
18.0
 40
18.0
 40
18.0
 10
2399.11159235143
 20
-637.7891769411089
 30
0.0
 10
2404.593818403846
 20
-638.4635421858283
 30
0.0
 10
2410.965026568329
 20
-638.6353732083525
 30
0.0
 10
2417.010770538656
 20
-640.1266471978715
 30
0.0
 10
2427.486684430203
 20
-642.7106850372228
 30
0.0
 10
2429.247203031948
 20
-649.9344644154652
 30
0.0
 10
2421.79973065571
 20
-657.447327482625
 30
0.0
 10
2419.133088250199
 20
-660.1373801505943
 30
0.0
 10
2414.443437490611
 20
-661.1627435677264
 30
0.0
 10
2414.499254364366
 20
-666.1540987387079
 30
0.0
 10
2414.5917708706
 20
-674.4288021062711
 30
0.0
 10
2414.417648970395
 20
-682.7178434047873
 30
0.0
 10
2414.885003213623
 20
-690.9708917097059
 30
0.0
 10
2415.051010164038
 20
-693.9028124317565
 30
0.0
 10
2418.765377688211
 20
-694.1724141625609
 30
0.0
 10
2420.821620864748
 20
-695.7063524246231
 30
0.0
 10
2427.949783643578
 20
-701.0238860269192
 30
0.0
 10
2428.461147052718
 20
-708.4329643569999
 30
0.0
 10
2420.789009100232
 20
-712.3484960157484
 30
0.0
 10
2414.603973688358
 20
-715.5050899123144
 30
0.0
 10
2414.220124405996
 20
-719.7024489144268
 30
0.0
 10
2414.396540983017
 20
-725.2053726477716
 30
0.0
 10
2414.723874351006
 20
-735.4160614106485
 30
0.0
 10
2412.128184568298
 20
-745.7612699030296
 30
0.0
 10
2423.302424841424
 20
-753.4429360830772
 30
0.0
 10
2429.804839890738
 20
-757.9129665161017
 30
0.0
 10
2426.667150483949
 20
-765.7084699412562
 30
0.0
 10
2418.160069298529
 20
-767.9338657509942
 30
0.0
 10
2405.145239879745
 20
-771.3384367087865
 30
0.0
 10
2391.95045309124
 20
-771.3573108054925
 30
0.0
 10
2378.847506563156
 20
-768.188210160466
 30
0.0
 10
2375.031291860139
 20
-767.2652182026403
 30
0.0
 10
2370.796306236897
 20
-766.3164529211326
 30
0.0
 10
2369.976696307968
 20
-761.4791374291034
 30
0.0
 10
2369.17245767438
 20
-756.7324996625529
 30
0.0
 10
2371.58702755243
 20
-753.316911216747
 30
0.0
 10
2375.088863933704
 20
-750.3427213320655
 30
0.0
 10
2380.513115204371
 20
-745.7357853135154
 30
0.0
 10
2385.710968493778
 20
-720.4995223816713
 30
0.0
 10
2380.498161813744
 20
-716.9179877715914
 30
0.0
 10
2366.953717947057
 20
-707.612039927777
 30
0.0
 10
2366.121669654076
 20
-700.871555958176
 30
0.0
 10
2380.483535148623
 20
-691.6997707252839
 30
0.0
 10
2385.298732083684
 20
-688.6246758469424
 30
0.0
 10
2380.700617653811
 20
-662.9802491764321
 30
0.0
 10
2375.809407649731
 20
-658.8948126559935
 30
0.0
 10
2372.069730296198
 20
-655.771218035592
 30
0.0
 10
2369.110357033327
 20
-652.31978856154
 30
0.0
 10
2369.953377224718
 20
-647.087233984027
 30
0.0
 10
2370.908509854469
 20
-641.1588642523739
 30
0.0
 10
2376.226962847142
 20
-640.5534988756844
 30
0.0
 10
2380.521214957628
 20
-639.679717097938
 30
0.0
 10
2386.319863265766
 20
-638.4998163153268
 30
0.0
 10
2392.342310947646
 20
-638.4197039809387
 30
0.0
 10
2399.11159235143
 20
-637.7891769411089
 30
0.0
  0
HATCH
  5
84
330
70
100
AcDbEntity
  8
Layer 1
 62
   118
420
  1005869
440
 33554687
100
AcDbHatch
 10
0.0
 20
0.0
 30
0.0
210
0.0
220
0.0
230
1.0
  2
SOLID
 70
     1
 71
     1
 91
        4
 92
        1
 93
        1
 72
     4
 94
        3
 73
     0
 74
     0
 95
       17
 96
       13
 40
0.0
 40
0.0
 40
0.0
 40
0.0
 40
1.0
 40
1.0
 40
1.0
 40
2.0
 40
2.0
 40
2.0
 40
3.0
 40
3.0
 40
3.0
 40
4.0
 40
4.0
 40
4.0
 40
4.0
 10
2390.490977851607
 20
-704.0760341371251
 10
2389.797240823655
 20
-709.8359768701348
 10
2390.154724117461
 20
-714.3464680781026
 10
2398.176610327339
 20
-714.2486403828179
 10
2405.555212006095
 20
-714.1586540996914
 10
2405.716675192487
 20
-710.0790682452989
 10
2405.687619417204
 20
-704.621369400681
 10
2405.657439098317
 20
-698.9518688468515
 10
2405.902027332197
 20
-694.250851078943
 10
2397.789980079038
 20
-694.3918597289694
 10
2390.418444789144
 20
-694.519981717156
 10
2389.828165772766
 20
-698.496922574608
 10
2390.490977851607
 20
-704.0760341371251
 97
        0
 97
        1
330
80
 92
        1
 93
        1
 72
     4
 94
        3
 73
     0
 74
     0
 95
       26
 96
       22
 40
0.0
 40
0.0
 40
0.0
 40
0.0
 40
1.0
 40
1.0
 40
1.0
 40
2.0
 40
2.0
 40
2.0
 40
3.0
 40
3.0
 40
3.0
 40
4.0
 40
4.0
 40
4.0
 40
5.0
 40
5.0
 40
5.0
 40
6.0
 40
6.0
 40
6.0
 40
7.0
 40
7.0
 40
7.0
 40
7.0
 10
2390.388142897977
 20
-738.6247338333096
 10
2390.388142897977
 20
-743.6006721193416
 10
2390.660966294239
 20
-748.5956060743583
 10
2390.316263286526
 20
-753.5475490313237
 10
2389.921761232999
 20
-759.2148840788858
 10
2392.236922976104
 20
-761.1431116429867
 10
2397.798171011504
 20
-761.0632082609582
 10
2402.95127050478
 20
-760.9891555449767
 10
2405.919123434285
 20
-759.9631462750994
 10
2405.668167852162
 20
-753.9212622247114
 10
2405.310547789539
 20
-745.311361282198
 10
2405.443988565041
 20
-736.671948668345
 10
2405.640145441272
 20
-728.0513493650569
 10
2405.770045424075
 20
-722.3415703947093
 10
2405.998023844994
 20
-718.0256480250445
 10
2397.666432247945
 20
-718.1296835049542
 10
2389.68548550387
 20
-718.2293119896585
 10
2390.242134587872
 20
-722.5322261252004
 10
2390.361852892098
 20
-727.6780160850476
 10
2390.446710344599
 20
-731.3250781548658
 10
2390.378295543174
 20
-734.975696213919
 10
2390.388142897977
 20
-738.6247338333096
 97
        0
 97
        1
330
81
 92
        1
 93
        1
 72
     4
 94
        3
 73
     0
 74
     0
 95
       26
 96
       22
 40
0.0
 40
0.0
 40
0.0
 40
0.0
 40
1.0
 40
1.0
 40
1.0
 40
2.0
 40
2.0
 40
2.0
 40
3.0
 40
3.0
 40
3.0
 40
4.0
 40
4.0
 40
4.0
 40
5.0
 40
5.0
 40
5.0
 40
6.0
 40
6.0
 40
6.0
 40
7.0
 40
7.0
 40
7.0
 40
7.0
 10
2390.382869700267
 20
-668.803105565129
 10
2390.382869700267
 20
-673.4192886753417
 10
2390.634144409629
 20
-678.0527730408675
 10
2390.317691760834
 20
-682.6471567213511
 10
2389.943021185731
 20
-688.0870300301921
 10
2391.793624848078
 20
-690.2139067022935
 10
2397.559175102575
 20
-690.193877668914
 10
2403.309635197626
 20
-690.1738942251386
 10
2406.02109218541
 20
-688.8706089741872
 10
2405.698971228991
 20
-682.5069914790283
 10
2405.249472914611
 20
-673.6272304646108
 10
2405.328540487202
 20
-664.697032149902
 10
2405.684671289377
 20
-655.8085863156247
 10
2405.918044480288
 20
-649.9838949453041
 10
2404.0859501978
 20
-647.4668092408656
 10
2397.918345211787
 20
-647.4602101454584
 10
2391.613378744192
 20
-647.4534628838346
 10
2389.899118395566
 20
-650.2716793304617
 10
2390.319257003963
 20
-655.9483640463004
 10
2390.634782664107
 20
-660.2114632596449
 10
2390.381608387846
 20
-664.5166568754648
 10
2390.382869700267
 20
-668.803105565129
 97
        0
 97
        1
330
82
 92
        1
 93
        1
 72
     4
 94
        3
 73
     0
 74
     0
 95
       59
 96
       55
 40
0.0
 40
0.0
 40
0.0
 40
0.0
 40
1.0
 40
1.0
 40
1.0
 40
2.0
 40
2.0
 40
2.0
 40
3.0
 40
3.0
 40
3.0
 40
4.0
 40
4.0
 40
4.0
 40
5.0
 40
5.0
 40
5.0
 40
6.0
 40
6.0
 40
6.0
 40
7.0
 40
7.0
 40
7.0
 40
8.0
 40
8.0
 40
8.0
 40
9.0
 40
9.0
 40
9.0
 40
10.0
 40
10.0
 40
10.0
 40
11.0
 40
11.0
 40
11.0
 40
12.0
 40
12.0
 40
12.0
 40
13.0
 40
13.0
 40
13.0
 40
14.0
 40
14.0
 40
14.0
 40
15.0
 40
15.0
 40
15.0
 40
16.0
 40
16.0
 40
16.0
 40
17.0
 40
17.0
 40
17.0
 40
18.0
 40
18.0
 40
18.0
 40
18.0
 10
2399.11159235143
 20
-637.7891769411089
 10
2404.593818403846
 20
-638.4635421858283
 10
2410.965026568329
 20
-638.6353732083525
 10
2417.010770538656
 20
-640.1266471978715
 10
2427.486684430203
 20
-642.7106850372228
 10
2429.247203031948
 20
-649.9344644154652
 10
2421.79973065571
 20
-657.447327482625
 10
2419.133088250199
 20
-660.1373801505943
 10
2414.443437490611
 20
-661.1627435677264
 10
2414.499254364366
 20
-666.1540987387079
 10
2414.5917708706
 20
-674.4288021062711
 10
2414.417648970395
 20
-682.7178434047873
 10
2414.885003213623
 20
-690.9708917097059
 10
2415.051010164038
 20
-693.9028124317565
 10
2418.765377688211
 20
-694.1724141625609
 10
2420.821620864748
 20
-695.7063524246231
 10
2427.949783643578
 20
-701.0238860269192
 10
2428.461147052718
 20
-708.4329643569999
 10
2420.789009100232
 20
-712.3484960157484
 10
2414.603973688358
 20
-715.5050899123144
 10
2414.220124405996
 20
-719.7024489144268
 10
2414.396540983017
 20
-725.2053726477716
 10
2414.723874351006
 20
-735.4160614106485
 10
2412.128184568298
 20
-745.7612699030296
 10
2423.302424841424
 20
-753.4429360830772
 10
2429.804839890738
 20
-757.9129665161017
 10
2426.667150483949
 20
-765.7084699412562
 10
2418.160069298529
 20
-767.9338657509942
 10
2405.145239879745
 20
-771.3384367087865
 10
2391.95045309124
 20
-771.3573108054925
 10
2378.847506563156
 20
-768.188210160466
 10
2375.031291860139
 20
-767.2652182026403
 10
2370.796306236897
 20
-766.3164529211326
 10
2369.976696307968
 20
-761.4791374291034
 10
2369.17245767438
 20
-756.7324996625529
 10
2371.58702755243
 20
-753.316911216747
 10
2375.088863933704
 20
-750.3427213320655
 10
2380.513115204371
 20
-745.7357853135154
 10
2385.710968493778
 20
-720.4995223816713
 10
2380.498161813744
 20
-716.9179877715914
 10
2366.953717947057
 20
-707.612039927777
 10
2366.121669654076
 20
-700.871555958176
 10
2380.483535148623
 20
-691.6997707252839
 10
2385.298732083684
 20
-688.6246758469424
 10
2380.700617653811
 20
-662.9802491764321
 10
2375.809407649731
 20
-658.8948126559935
 10
2372.069730296198
 20
-655.771218035592
 10
2369.110357033327
 20
-652.31978856154
 10
2369.953377224718
 20
-647.087233984027
 10
2370.908509854469
 20
-641.1588642523739
 10
2376.226962847142
 20
-640.5534988756844
 10
2380.521214957628
 20
-639.679717097938
 10
2386.319863265766
 20
-638.4998163153268
 10
2392.342310947646
 20
-638.4197039809387
 10
2399.11159235143
 20
-637.7891769411089
 97
        0
 97
        1
330
83
 75
     2
 76
     1
 98
        1
 10
0.0
 20
0.0
450
        0
451
        0
460
0.0
461
0.0
452
        0
462
0.0
453
        0
470

  0
SPLINE
  5
85
330
70
100
AcDbEntity
  8
Layer 1
100
AcDbSpline
210
0.0
220
0.0
230
1.0
 70
     9
 71
     3
 72
    17
 73
    13
 74
     0
 42
0.0000000001
 43
0.0000000001
 40
0.0
 40
0.0
 40
0.0
 40
0.0
 40
1.0
 40
1.0
 40
1.0
 40
2.0
 40
2.0
 40
2.0
 40
3.0
 40
3.0
 40
3.0
 40
4.0
 40
4.0
 40
4.0
 40
4.0
 10
2405.419385374569
 20
-872.0046320154315
 30
0.0
 10
2406.469131632413
 20
-866.5519328308901
 30
0.0
 10
2405.570438934356
 20
-862.1196201982074
 30
0.0
 10
2397.841268385306
 20
-862.1366403176207
 30
0.0
 10
2390.692711856251
 20
-862.152353535006
 30
0.0
 10
2390.158006569061
 20
-866.3141678413111
 30
0.0
 10
2390.286949170148
 20
-871.8902324985238
 30
0.0
 10
2390.415314302896
 20
-877.4414052310948
 30
0.0
 10
2389.80821272206
 20
-882.2440878194257
 30
0.0
 10
2398.133239415907
 20
-882.0938852656082
 30
0.0
 10
2405.586060972531
 20
-881.9593655361076
 30
0.0
 10
2406.133683314632
 20
-878.1242463433155
 30
0.0
 10
2405.419385374569
 20
-872.0046320154315
 30
0.0
  0
SPLINE
  5
86
330
70
100
AcDbEntity
  8
Layer 1
100
AcDbSpline
210
0.0
220
0.0
230
1.0
 70
     9
 71
     3
 72
    26
 73
    22
 74
     0
 42
0.0000000001
 43
0.0000000001
 40
0.0
 40
0.0
 40
0.0
 40
0.0
 40
1.0
 40
1.0
 40
1.0
 40
2.0
 40
2.0
 40
2.0
 40
3.0
 40
3.0
 40
3.0
 40
4.0
 40
4.0
 40
4.0
 40
5.0
 40
5.0
 40
5.0
 40
6.0
 40
6.0
 40
6.0
 40
7.0
 40
7.0
 40
7.0
 40
7.0
 10
2390.397048067598
 20
-837.2090494085522
 30
0.0
 10
2390.397048067598
 20
-842.1852916252856
 30
0.0
 10
2390.658428472865
 20
-847.1788730886711
 30
0.0
 10
2390.329818595918
 20
-852.1333386704782
 30
0.0
 10
2389.933568940843
 20
-858.1073094051017
 30
0.0
 10
2393.480014751169
 20
-858.3055330101187
 30
0.0
 10
2397.889441401856
 20
-858.2398231919578
 30
0.0
 10
2402.111859490497
 20
-858.1769399293417
 30
0.0
 10
2405.841028439947
 20
-858.4444597348237
 30
0.0
 10
2405.647151043993
 20
-852.3199217295395
 30
0.0
 10
2405.353432411845
 20
-843.0404310534894
 30
0.0
 10
2405.330166516467
 20
-833.7346655680958
 30
0.0
 10
2405.683729104196
 20
-824.4587916674209
 30
0.0
 10
2405.913713467757
 20
-818.4253872836707
 30
0.0
 10
2404.592222767651
 20
-815.3790138568364
 30
0.0
 10
2397.576195221987
 20
-815.4624124419578
 30
0.0
 10
2390.715597838247
 20
-815.5439722463224
 30
0.0
 10
2390.073711388362
 20
-819.0145873460505
 30
0.0
 10
2390.336778609035
 20
-824.2729076489794
 30
0.0
 10
2390.551991940395
 20
-828.5749251889438
 30
0.0
 10
2390.380590219987
 20
-832.8962727216721
 30
0.0
 10
2390.397048067598
 20
-837.2090494085522
 30
0.0
  0
SPLINE
  5
87
330
70
100
AcDbEntity
  8
Layer 1
100
AcDbSpline
210
0.0
220
0.0
230
1.0
 70
     9
 71
     3
 72
    26
 73
    22
 74
     0
 42
0.0000000001
 43
0.0000000001
 40
0.0
 40
0.0
 40
0.0
 40
0.0
 40
1.0
 40
1.0
 40
1.0
 40
2.0
 40
2.0
 40
2.0
 40
3.0
 40
3.0
 40
3.0
 40
4.0
 40
4.0
 40
4.0
 40
5.0
 40
5.0
 40
5.0
 40
6.0
 40
6.0
 40
6.0
 40
7.0
 40
7.0
 40
7.0
 40
7.0
 10
2390.388355649468
 20
-907.082854980309
 30
0.0
 10
2390.388355649468
 20
-912.0282634271426
 30
0.0
 10
2390.660905508101
 20
-916.9926067568221
 30
0.0
 10
2390.318709928694
 20
-921.9142478226194
 30
0.0
 10
2389.900060580747
 20
-927.9353582094017
 30
0.0
 10
2393.126178625808
 20
-929.031636257997
 30
0.0
 10
2398.180789374515
 20
-929.0945195206141
 30
0.0
 10
2403.630054142102
 20
-929.1623264606306
 30
0.0
 10
2405.877621696684
 20
-927.1420382863507
 30
0.0
 10
2405.671024800777
 20
-921.5224507523544
 30
0.0
 10
2405.344238508055
 20
-912.6327815969943
 30
0.0
 10
2405.392700258775
 20
-903.7163665397001
 30
0.0
 10
2405.659612202851
 20
-894.8225943198394
 30
0.0
 10
2405.82186560907
 20
-889.4156974923616
 30
0.0
 10
2404.966072729854
 20
-886.45082308375
 30
0.0
 10
2398.286435687156
 20
-886.3473954652491
 30
0.0
 10
2391.189152267832
 20
-886.2375245158254
 30
0.0
 10
2389.853543986532
 20
-889.278108062752
 30
0.0
 10
2390.32036635103
 20
-895.218433668465
 30
0.0
 10
2390.62937269758
 20
-899.150476362699
 30
0.0
 10
2390.378918601115
 20
-903.1265282228414
 30
0.0
 10
2390.388355649468
 20
-907.082854980309
 30
0.0
  0
SPLINE
  5
88
330
70
100
AcDbEntity
  8
Layer 1
100
AcDbSpline
210
0.0
220
0.0
230
1.0
 70
     9
 71
     3
 72
    59
 73
    55
 74
     0
 42
0.0000000001
 43
0.0000000001
 40
0.0
 40
0.0
 40
0.0
 40
0.0
 40
1.0
 40
1.0
 40
1.0
 40
2.0
 40
2.0
 40
2.0
 40
3.0
 40
3.0
 40
3.0
 40
4.0
 40
4.0
 40
4.0
 40
5.0
 40
5.0
 40
5.0
 40
6.0
 40
6.0
 40
6.0
 40
7.0
 40
7.0
 40
7.0
 40
8.0
 40
8.0
 40
8.0
 40
9.0
 40
9.0
 40
9.0
 40
10.0
 40
10.0
 40
10.0
 40
11.0
 40
11.0
 40
11.0
 40
12.0
 40
12.0
 40
12.0
 40
13.0
 40
13.0
 40
13.0
 40
14.0
 40
14.0
 40
14.0
 40
15.0
 40
15.0
 40
15.0
 40
16.0
 40
16.0
 40
16.0
 40
17.0
 40
17.0
 40
17.0
 40
18.0
 40
18.0
 40
18.0
 40
18.0
 10
2398.145487823271
 20
-938.2157534791959
 30
0.0
 10
2391.543930578375
 20
-937.7051802898868
 30
0.0
 10
2384.868822103161
 20
-937.9920604812022
 30
0.0
 10
2378.435247358257
 20
-935.8871579989836
 30
0.0
 10
2374.931465820477
 20
-934.7408225634744
 30
0.0
 10
2371.114825614475
 20
-933.9595382962915
 30
0.0
 10
2370.103959691913
 20
-929.7746556495704
 30
0.0
 10
2369.057693440629
 20
-925.4433087966882
 30
0.0
 10
2370.715339097404
 20
-921.2890623649082
 30
0.0
 10
2374.395658784486
 20
-919.442409801708
 30
0.0
 10
2383.940283409993
 20
-914.6532825227678
 30
0.0
 10
2381.309284477771
 20
-906.182156339606
 30
0.0
 10
2381.46645464297
 20
-898.5803327554458
 30
0.0
 10
2381.618541567152
 20
-891.2238724284598
 30
0.0
 10
2383.013461925298
 20
-884.0491322692759
 30
0.0
 10
2373.726851672513
 20
-879.3650130484966
 30
0.0
 10
2367.068284625855
 20
-876.0064571992579
 30
0.0
 10
2368.235348135362
 20
-868.3588616511052
 30
0.0
 10
2374.48672402161
 20
-864.8589780246011
 30
0.0
 10
2380.949848429192
 20
-861.2405310305458
 30
0.0
 10
2381.909456438558
 20
-856.6457674366828
 30
0.0
 10
2381.604537959975
 20
-850.276899538615
 30
0.0
 10
2381.127670685716
 20
-840.3165281033844
 30
0.0
 10
2383.414316130537
 20
-830.2753262974775
 30
0.0
 10
2372.614260143391
 20
-822.9318894011512
 30
0.0
 10
2366.656428129138
 20
-818.8808882294516
 30
0.0
 10
2368.989225451331
 20
-811.4721974110189
 30
0.0
 10
2376.137272896454
 20
-809.2660404148318
 30
0.0
 10
2390.412518140422
 20
-804.8601849499137
 30
0.0
 10
2404.997529557697
 20
-804.9331283188248
 30
0.0
 10
2419.303669357705
 20
-809.0660084221271
 30
0.0
 10
2427.374093300981
 20
-811.3974760474903
 30
0.0
 10
2429.303992483952
 20
-818.9962451280772
 30
0.0
 10
2422.36786832032
 20
-824.1405610240107
 30
0.0
 10
2409.207395308273
 20
-833.9012195937765
 30
0.0
 10
2415.977466931887
 20
-847.0261175169426
 30
0.0
 10
2414.810631370405
 20
-858.7754098781887
 30
0.0
 10
2414.497035670227
 20
-861.9331587114274
 30
0.0
 10
2418.392469911187
 20
-862.2382139588289
 30
0.0
 10
2420.418137658924
 20
-863.7694168445587
 30
0.0
 10
2428.253349630532
 20
-869.6921144694515
 30
0.0
 10
2428.585728248205
 20
-876.1620089334611
 30
0.0
 10
2420.209656392656
 20
-881.013928295807
 30
0.0
 10
2415.241164408868
 20
-883.8919393092719
 30
0.0
 10
2414.189138670745
 20
-887.1711388517496
 30
0.0
 10
2414.367728352298
 20
-892.1895818467046
 30
0.0
 10
2414.754814496653
 20
-903.0655901167301
 30
0.0
 10
2411.967709156694
 20
-914.1705189928552
 30
0.0
 10
2423.732152463521
 20
-922.331271141299
 30
0.0
 10
2429.143821003052
 20
-926.085240836177
 30
0.0
 10
2426.72662972268
 20
-932.6533657036543
 30
0.0
 10
2419.758440869797
 20
-935.2639480908491
 30
0.0
 10
2412.792683462545
 20
-937.8736186859324
 30
0.0
 10
2405.427895434276
 20
-937.7737774497346
 30
0.0
 10
2398.145487823271
 20
-938.2157534791959
 30
0.0
  0
HATCH
  5
89
330
70
100
AcDbEntity
  8
Layer 1
 62
   118
420
  1005869
440
 33554687
100
AcDbHatch
 10
0.0
 20
0.0
 30
0.0
210
0.0
220
0.0
230
1.0
  2
SOLID
 70
     1
 71
     1
 91
        4
 92
        1
 93
        1
 72
     4
 94
        3
 73
     0
 74
     0
 95
       17
 96
       13
 40
0.0
 40
0.0
 40
0.0
 40
0.0
 40
1.0
 40
1.0
 40
1.0
 40
2.0
 40
2.0
 40
2.0
 40
3.0
 40
3.0
 40
3.0
 40
4.0
 40
4.0
 40
4.0
 40
4.0
 10
2405.419385374569
 20
-872.0046320154315
 10
2406.469131632413
 20
-866.5519328308901
 10
2405.570438934356
 20
-862.1196201982074
 10
2397.841268385306
 20
-862.1366403176207
 10
2390.692711856251
 20
-862.152353535006
 10
2390.158006569061
 20
-866.3141678413111
 10
2390.286949170148
 20
-871.8902324985238
 10
2390.415314302896
 20
-877.4414052310948
 10
2389.80821272206
 20
-882.2440878194257
 10
2398.133239415907
 20
-882.0938852656082
 10
2405.586060972531
 20
-881.9593655361076
 10
2406.133683314632
 20
-878.1242463433155
 10
2405.419385374569
 20
-872.0046320154315
 97
        0
 97
        1
330
85
 92
        1
 93
        1
 72
     4
 94
        3
 73
     0
 74
     0
 95
       26
 96
       22
 40
0.0
 40
0.0
 40
0.0
 40
0.0
 40
1.0
 40
1.0
 40
1.0
 40
2.0
 40
2.0
 40
2.0
 40
3.0
 40
3.0
 40
3.0
 40
4.0
 40
4.0
 40
4.0
 40
5.0
 40
5.0
 40
5.0
 40
6.0
 40
6.0
 40
6.0
 40
7.0
 40
7.0
 40
7.0
 40
7.0
 10
2390.397048067598
 20
-837.2090494085522
 10
2390.397048067598
 20
-842.1852916252856
 10
2390.658428472865
 20
-847.1788730886711
 10
2390.329818595918
 20
-852.1333386704782
 10
2389.933568940843
 20
-858.1073094051017
 10
2393.480014751169
 20
-858.3055330101187
 10
2397.889441401856
 20
-858.2398231919578
 10
2402.111859490497
 20
-858.1769399293417
 10
2405.841028439947
 20
-858.4444597348237
 10
2405.647151043993
 20
-852.3199217295395
 10
2405.353432411845
 20
-843.0404310534894
 10
2405.330166516467
 20
-833.7346655680958
 10
2405.683729104196
 20
-824.4587916674209
 10
2405.913713467757
 20
-818.4253872836707
 10
2404.592222767651
 20
-815.3790138568364
 10
2397.576195221987
 20
-815.4624124419578
 10
2390.715597838247
 20
-815.5439722463224
 10
2390.073711388362
 20
-819.0145873460505
 10
2390.336778609035
 20
-824.2729076489794
 10
2390.551991940395
 20
-828.5749251889438
 10
2390.380590219987
 20
-832.8962727216721
 10
2390.397048067598
 20
-837.2090494085522
 97
        0
 97
        1
330
86
 92
        1
 93
        1
 72
     4
 94
        3
 73
     0
 74
     0
 95
       26
 96
       22
 40
0.0
 40
0.0
 40
0.0
 40
0.0
 40
1.0
 40
1.0
 40
1.0
 40
2.0
 40
2.0
 40
2.0
 40
3.0
 40
3.0
 40
3.0
 40
4.0
 40
4.0
 40
4.0
 40
5.0
 40
5.0
 40
5.0
 40
6.0
 40
6.0
 40
6.0
 40
7.0
 40
7.0
 40
7.0
 40
7.0
 10
2390.388355649468
 20
-907.082854980309
 10
2390.388355649468
 20
-912.0282634271426
 10
2390.660905508101
 20
-916.9926067568221
 10
2390.318709928694
 20
-921.9142478226194
 10
2389.900060580747
 20
-927.9353582094017
 10
2393.126178625808
 20
-929.031636257997
 10
2398.180789374515
 20
-929.0945195206141
 10
2403.630054142102
 20
-929.1623264606306
 10
2405.877621696684
 20
-927.1420382863507
 10
2405.671024800777
 20
-921.5224507523544
 10
2405.344238508055
 20
-912.6327815969943
 10
2405.392700258775
 20
-903.7163665397001
 10
2405.659612202851
 20
-894.8225943198394
 10
2405.82186560907
 20
-889.4156974923616
 10
2404.966072729854
 20
-886.45082308375
 10
2398.286435687156
 20
-886.3473954652491
 10
2391.189152267832
 20
-886.2375245158254
 10
2389.853543986532
 20
-889.278108062752
 10
2390.32036635103
 20
-895.218433668465
 10
2390.62937269758
 20
-899.150476362699
 10
2390.378918601115
 20
-903.1265282228414
 10
2390.388355649468
 20
-907.082854980309
 97
        0
 97
        1
330
87
 92
        1
 93
        1
 72
     4
 94
        3
 73
     0
 74
     0
 95
       59
 96
       55
 40
0.0
 40
0.0
 40
0.0
 40
0.0
 40
1.0
 40
1.0
 40
1.0
 40
2.0
 40
2.0
 40
2.0
 40
3.0
 40
3.0
 40
3.0
 40
4.0
 40
4.0
 40
4.0
 40
5.0
 40
5.0
 40
5.0
 40
6.0
 40
6.0
 40
6.0
 40
7.0
 40
7.0
 40
7.0
 40
8.0
 40
8.0
 40
8.0
 40
9.0
 40
9.0
 40
9.0
 40
10.0
 40
10.0
 40
10.0
 40
11.0
 40
11.0
 40
11.0
 40
12.0
 40
12.0
 40
12.0
 40
13.0
 40
13.0
 40
13.0
 40
14.0
 40
14.0
 40
14.0
 40
15.0
 40
15.0
 40
15.0
 40
16.0
 40
16.0
 40
16.0
 40
17.0
 40
17.0
 40
17.0
 40
18.0
 40
18.0
 40
18.0
 40
18.0
 10
2398.145487823271
 20
-938.2157534791959
 10
2391.543930578375
 20
-937.7051802898868
 10
2384.868822103161
 20
-937.9920604812022
 10
2378.435247358257
 20
-935.8871579989836
 10
2374.931465820477
 20
-934.7408225634744
 10
2371.114825614475
 20
-933.9595382962915
 10
2370.103959691913
 20
-929.7746556495704
 10
2369.057693440629
 20
-925.4433087966882
 10
2370.715339097404
 20
-921.2890623649082
 10
2374.395658784486
 20
-919.442409801708
 10
2383.940283409993
 20
-914.6532825227678
 10
2381.309284477771
 20
-906.182156339606
 10
2381.46645464297
 20
-898.5803327554458
 10
2381.618541567152
 20
-891.2238724284598
 10
2383.013461925298
 20
-884.0491322692759
 10
2373.726851672513
 20
-879.3650130484966
 10
2367.068284625855
 20
-876.0064571992579
 10
2368.235348135362
 20
-868.3588616511052
 10
2374.48672402161
 20
-864.8589780246011
 10
2380.949848429192
 20
-861.2405310305458
 10
2381.909456438558
 20
-856.6457674366828
 10
2381.604537959975
 20
-850.276899538615
 10
2381.127670685716
 20
-840.3165281033844
 10
2383.414316130537
 20
-830.2753262974775
 10
2372.614260143391
 20
-822.9318894011512
 10
2366.656428129138
 20
-818.8808882294516
 10
2368.989225451331
 20
-811.4721974110189
 10
2376.137272896454
 20
-809.2660404148318
 10
2390.412518140422
 20
-804.8601849499137
 10
2404.997529557697
 20
-804.9331283188248
 10
2419.303669357705
 20
-809.0660084221271
 10
2427.374093300981
 20
-811.3974760474903
 10
2429.303992483952
 20
-818.9962451280772
 10
2422.36786832032
 20
-824.1405610240107
 10
2409.207395308273
 20
-833.9012195937765
 10
2415.977466931887
 20
-847.0261175169426
 10
2414.810631370405
 20
-858.7754098781887
 10
2414.497035670227
 20
-861.9331587114274
 10
2418.392469911187
 20
-862.2382139588289
 10
2420.418137658924
 20
-863.7694168445587
 10
2428.253349630532
 20
-869.6921144694515
 10
2428.585728248205
 20
-876.1620089334611
 10
2420.209656392656
 20
-881.013928295807
 10
2415.241164408868
 20
-883.8919393092719
 10
2414.189138670745
 20
-887.1711388517496
 10
2414.367728352298
 20
-892.1895818467046
 10
2414.754814496653
 20
-903.0655901167301
 10
2411.967709156694
 20
-914.1705189928552
 10
2423.732152463521
 20
-922.331271141299
 10
2429.143821003052
 20
-926.085240836177
 10
2426.72662972268
 20
-932.6533657036543
 10
2419.758440869797
 20
-935.2639480908491
 10
2412.792683462545
 20
-937.8736186859324
 10
2405.427895434276
 20
-937.7737774497346
 10
2398.145487823271
 20
-938.2157534791959
 97
        0
 97
        1
330
88
 75
     2
 76
     1
 98
        1
 10
0.0
 20
0.0
450
        0
451
        0
460
0.0
461
0.0
452
        0
462
0.0
453
        0
470

  0
SPLINE
  5
8A
330
70
100
AcDbEntity
  8
Layer 1
100
AcDbSpline
210
0.0
220
0.0
230
1.0
 70
     9
 71
     3
 72
    17
 73
    13
 74
     0
 42
0.0000000001
 43
0.0000000001
 40
0.0
 40
0.0
 40
0.0
 40
0.0
 40
1.0
 40
1.0
 40
1.0
 40
2.0
 40
2.0
 40
2.0
 40
3.0
 40
3.0
 40
3.0
 40
4.0
 40
4.0
 40
4.0
 40
4.0
 10
2271.010652366336
 20
-704.0760341371251
 30
0.0
 10
2270.316915338384
 20
-709.8359768701348
 30
0.0
 10
2270.674398632191
 20
-714.3464680781026
 30
0.0
 10
2278.696284842068
 20
-714.2486403828179
 30
0.0
 10
2286.074886520824
 20
-714.1586540996914
 30
0.0
 10
2286.236349707218
 20
-710.0790682452989
 30
0.0
 10
2286.207293931935
 20
-704.621369400681
 30
0.0
 10
2286.177113613046
 20
-698.9518688468515
 30
0.0
 10
2286.421701846928
 20
-694.250851078943
 30
0.0
 10
2278.309654593768
 20
-694.3918597289694
 30
0.0
 10
2270.938119303875
 20
-694.519981717156
 30
0.0
 10
2270.347840287495
 20
-698.496922574608
 30
0.0
 10
2271.010652366336
 20
-704.0760341371251
 30
0.0
  0
SPLINE
  5
8B
330
70
100
AcDbEntity
  8
Layer 1
100
AcDbSpline
210
0.0
220
0.0
230
1.0
 70
     9
 71
     3
 72
    26
 73
    22
 74
     0
 42
0.0000000001
 43
0.0000000001
 40
0.0
 40
0.0
 40
0.0
 40
0.0
 40
1.0
 40
1.0
 40
1.0
 40
2.0
 40
2.0
 40
2.0
 40
3.0
 40
3.0
 40
3.0
 40
4.0
 40
4.0
 40
4.0
 40
5.0
 40
5.0
 40
5.0
 40
6.0
 40
6.0
 40
6.0
 40
7.0
 40
7.0
 40
7.0
 40
7.0
 10
2270.907817412708
 20
-738.6247338333096
 30
0.0
 10
2270.907817412708
 20
-743.6006721193416
 30
0.0
 10
2271.180640808971
 20
-748.5956060743583
 30
0.0
 10
2270.835937801259
 20
-753.5475490313237
 30
0.0
 10
2270.441435747731
 20
-759.2148840788858
 30
0.0
 10
2272.756597490834
 20
-761.1431116429867
 30
0.0
 10
2278.317845526235
 20
-761.0632082609582
 30
0.0
 10
2283.47094501951
 20
-760.9891555449767
 30
0.0
 10
2286.438797949017
 20
-759.9631462750994
 30
0.0
 10
2286.187842366891
 20
-753.9212622247114
 30
0.0
 10
2285.830222304269
 20
-745.311361282198
 30
0.0
 10
2285.963663079773
 20
-736.671948668345
 30
0.0
 10
2286.159819956003
 20
-728.0513493650569
 30
0.0
 10
2286.289719938805
 20
-722.3415703947093
 30
0.0
 10
2286.517698359725
 20
-718.0256480250445
 30
0.0
 10
2278.186106762676
 20
-718.1296835049542
 30
0.0
 10
2270.205160018601
 20
-718.2293119896585
 30
0.0
 10
2270.761809102603
 20
-722.5322261252004
 30
0.0
 10
2270.881527406828
 20
-727.6780160850476
 30
0.0
 10
2270.966384859328
 20
-731.3250781548658
 30
0.0
 10
2270.897970057904
 20
-734.975696213919
 30
0.0
 10
2270.907817412708
 20
-738.6247338333096
 30
0.0
  0
SPLINE
  5
8C
330
70
100
AcDbEntity
  8
Layer 1
100
AcDbSpline
210
0.0
220
0.0
230
1.0
 70
     9
 71
     3
 72
    26
 73
    22
 74
     0
 42
0.0000000001
 43
0.0000000001
 40
0.0
 40
0.0
 40
0.0
 40
0.0
 40
1.0
 40
1.0
 40
1.0
 40
2.0
 40
2.0
 40
2.0
 40
3.0
 40
3.0
 40
3.0
 40
4.0
 40
4.0
 40
4.0
 40
5.0
 40
5.0
 40
5.0
 40
6.0
 40
6.0
 40
6.0
 40
7.0
 40
7.0
 40
7.0
 40
7.0
 10
2270.902544214996
 20
-668.803105565129
 30
0.0
 10
2270.902544214996
 20
-673.4192886753417
 30
0.0
 10
2271.15381892436
 20
-678.0527730408675
 30
0.0
 10
2270.837366275566
 20
-682.6471567213511
 30
0.0
 10
2270.46269570046
 20
-688.0870300301921
 30
0.0
 10
2272.31329936281
 20
-690.2139067022935
 30
0.0
 10
2278.078849617307
 20
-690.193877668914
 30
0.0
 10
2283.829309712357
 20
-690.1738942251386
 30
0.0
 10
2286.54076670014
 20
-688.8706089741872
 30
0.0
 10
2286.218645743722
 20
-682.5069914790283
 30
0.0
 10
2285.769147429341
 20
-673.6272304646108
 30
0.0
 10
2285.848215001934
 20
-664.697032149902
 30
0.0
 10
2286.204345804108
 20
-655.8085863156247
 30
0.0
 10
2286.437718995019
 20
-649.9838949453041
 30
0.0
 10
2284.605624712529
 20
-647.4668092408656
 30
0.0
 10
2278.438019726516
 20
-647.4602101454584
 30
0.0
 10
2272.133053258924
 20
-647.4534628838346
 30
0.0
 10
2270.418792910297
 20
-650.2716793304617
 30
0.0
 10
2270.838931518692
 20
-655.9483640463004
 30
0.0
 10
2271.154457178838
 20
-660.2114632596449
 30
0.0
 10
2270.901282902576
 20
-664.5166568754648
 30
0.0
 10
2270.902544214996
 20
-668.803105565129
 30
0.0
  0
SPLINE
  5
8D
330
70
100
AcDbEntity
  8
Layer 1
100
AcDbSpline
210
0.0
220
0.0
230
1.0
 70
     9
 71
     3
 72
    59
 73
    55
 74
     0
 42
0.0000000001
 43
0.0000000001
 40
0.0
 40
0.0
 40
0.0
 40
0.0
 40
1.0
 40
1.0
 40
1.0
 40
2.0
 40
2.0
 40
2.0
 40
3.0
 40
3.0
 40
3.0
 40
4.0
 40
4.0
 40
4.0
 40
5.0
 40
5.0
 40
5.0
 40
6.0
 40
6.0
 40
6.0
 40
7.0
 40
7.0
 40
7.0
 40
8.0
 40
8.0
 40
8.0
 40
9.0
 40
9.0
 40
9.0
 40
10.0
 40
10.0
 40
10.0
 40
11.0
 40
11.0
 40
11.0
 40
12.0
 40
12.0
 40
12.0
 40
13.0
 40
13.0
 40
13.0
 40
14.0
 40
14.0
 40
14.0
 40
15.0
 40
15.0
 40
15.0
 40
16.0
 40
16.0
 40
16.0
 40
17.0
 40
17.0
 40
17.0
 40
18.0
 40
18.0
 40
18.0
 40
18.0
 10
2279.631266866161
 20
-637.7891769411089
 30
0.0
 10
2285.113492918576
 20
-638.4635421858283
 30
0.0
 10
2291.484701083062
 20
-638.6353732083525
 30
0.0
 10
2297.530445053386
 20
-640.1266471978715
 30
0.0
 10
2308.006358944933
 20
-642.7106850372228
 30
0.0
 10
2309.766877546679
 20
-649.9344644154652
 30
0.0
 10
2302.31940517044
 20
-657.447327482625
 30
0.0
 10
2299.65276276493
 20
-660.1373801505943
 30
0.0
 10
2294.963112005342
 20
-661.1627435677264
 30
0.0
 10
2295.018928879095
 20
-666.1540987387079
 30
0.0
 10
2295.111445385332
 20
-674.4288021062711
 30
0.0
 10
2294.937323485125
 20
-682.7178434047873
 30
0.0
 10
2295.404677728353
 20
-690.9708917097059
 30
0.0
 10
2295.570684678767
 20
-693.9028124317565
 30
0.0
 10
2299.285052202942
 20
-694.1724141625609
 30
0.0
 10
2301.341295379481
 20
-695.7063524246231
 30
0.0
 10
2308.469458158308
 20
-701.0238860269192
 30
0.0
 10
2308.980821567448
 20
-708.4329643569999
 30
0.0
 10
2301.308683614963
 20
-712.3484960157484
 30
0.0
 10
2295.123648203089
 20
-715.5050899123144
 30
0.0
 10
2294.739798920728
 20
-719.7024489144268
 30
0.0
 10
2294.916215497748
 20
-725.2053726477716
 30
0.0
 10
2295.243548865736
 20
-735.4160614106485
 30
0.0
 10
2292.647859083029
 20
-745.7612699030296
 30
0.0
 10
2303.822099356153
 20
-753.4429360830772
 30
0.0
 10
2310.324514405469
 20
-757.9129665161017
 30
0.0
 10
2307.18682499868
 20
-765.7084699412562
 30
0.0
 10
2298.67974381326
 20
-767.9338657509942
 30
0.0
 10
2285.664914394476
 20
-771.3384367087865
 30
0.0
 10
2272.47012760597
 20
-771.3573108054925
 30
0.0
 10
2259.367181077885
 20
-768.188210160466
 30
0.0
 10
2255.550966374869
 20
-767.2652182026403
 30
0.0
 10
2251.315980751626
 20
-766.3164529211326
 30
0.0
 10
2250.496370822699
 20
-761.4791374291034
 30
0.0
 10
2249.692132189112
 20
-756.7324996625529
 30
0.0
 10
2252.10670206716
 20
-753.316911216747
 30
0.0
 10
2255.608538448436
 20
-750.3427213320655
 30
0.0
 10
2261.0327897191
 20
-745.7357853135154
 30
0.0
 10
2266.23064300851
 20
-720.4995223816713
 30
0.0
 10
2261.017836328474
 20
-716.9179877715914
 30
0.0
 10
2247.473392461789
 20
-707.612039927777
 30
0.0
 10
2246.641344168807
 20
-700.871555958176
 30
0.0
 10
2261.003209663353
 20
-691.6997707252839
 30
0.0
 10
2265.818406598415
 20
-688.6246758469424
 30
0.0
 10
2261.22029216854
 20
-662.9802491764321
 30
0.0
 10
2256.329082164464
 20
-658.8948126559935
 30
0.0
 10
2252.589404810931
 20
-655.771218035592
 30
0.0
 10
2249.630031548057
 20
-652.31978856154
 30
0.0
 10
2250.473051739447
 20
-647.087233984027
 30
0.0
 10
2251.428184369199
 20
-641.1588642523739
 30
0.0
 10
2256.746637361874
 20
-640.5534988756844
 30
0.0
 10
2261.040889472359
 20
-639.679717097938
 30
0.0
 10
2266.839537780497
 20
-638.4998163153268
 30
0.0
 10
2272.861985462378
 20
-638.4197039809387
 30
0.0
 10
2279.631266866161
 20
-637.7891769411089
 30
0.0
  0
HATCH
  5
8E
330
70
100
AcDbEntity
  8
Layer 1
 62
   118
420
  1005869
440
 33554687
100
AcDbHatch
 10
0.0
 20
0.0
 30
0.0
210
0.0
220
0.0
230
1.0
  2
SOLID
 70
     1
 71
     1
 91
        4
 92
        1
 93
        1
 72
     4
 94
        3
 73
     0
 74
     0
 95
       17
 96
       13
 40
0.0
 40
0.0
 40
0.0
 40
0.0
 40
1.0
 40
1.0
 40
1.0
 40
2.0
 40
2.0
 40
2.0
 40
3.0
 40
3.0
 40
3.0
 40
4.0
 40
4.0
 40
4.0
 40
4.0
 10
2271.010652366336
 20
-704.0760341371251
 10
2270.316915338384
 20
-709.8359768701348
 10
2270.674398632191
 20
-714.3464680781026
 10
2278.696284842068
 20
-714.2486403828179
 10
2286.074886520824
 20
-714.1586540996914
 10
2286.236349707218
 20
-710.0790682452989
 10
2286.207293931935
 20
-704.621369400681
 10
2286.177113613046
 20
-698.9518688468515
 10
2286.421701846928
 20
-694.250851078943
 10
2278.309654593768
 20
-694.3918597289694
 10
2270.938119303875
 20
-694.519981717156
 10
2270.347840287495
 20
-698.496922574608
 10
2271.010652366336
 20
-704.0760341371251
 97
        0
 97
        1
330
8A
 92
        1
 93
        1
 72
     4
 94
        3
 73
     0
 74
     0
 95
       26
 96
       22
 40
0.0
 40
0.0
 40
0.0
 40
0.0
 40
1.0
 40
1.0
 40
1.0
 40
2.0
 40
2.0
 40
2.0
 40
3.0
 40
3.0
 40
3.0
 40
4.0
 40
4.0
 40
4.0
 40
5.0
 40
5.0
 40
5.0
 40
6.0
 40
6.0
 40
6.0
 40
7.0
 40
7.0
 40
7.0
 40
7.0
 10
2270.907817412708
 20
-738.6247338333096
 10
2270.907817412708
 20
-743.6006721193416
 10
2271.180640808971
 20
-748.5956060743583
 10
2270.835937801259
 20
-753.5475490313237
 10
2270.441435747731
 20
-759.2148840788858
 10
2272.756597490834
 20
-761.1431116429867
 10
2278.317845526235
 20
-761.0632082609582
 10
2283.47094501951
 20
-760.9891555449767
 10
2286.438797949017
 20
-759.9631462750994
 10
2286.187842366891
 20
-753.9212622247114
 10
2285.830222304269
 20
-745.311361282198
 10
2285.963663079773
 20
-736.671948668345
 10
2286.159819956003
 20
-728.0513493650569
 10
2286.289719938805
 20
-722.3415703947093
 10
2286.517698359725
 20
-718.0256480250445
 10
2278.186106762676
 20
-718.1296835049542
 10
2270.205160018601
 20
-718.2293119896585
 10
2270.761809102603
 20
-722.5322261252004
 10
2270.881527406828
 20
-727.6780160850476
 10
2270.966384859328
 20
-731.3250781548658
 10
2270.897970057904
 20
-734.975696213919
 10
2270.907817412708
 20
-738.6247338333096
 97
        0
 97
        1
330
8B
 92
        1
 93
        1
 72
     4
 94
        3
 73
     0
 74
     0
 95
       26
 96
       22
 40
0.0
 40
0.0
 40
0.0
 40
0.0
 40
1.0
 40
1.0
 40
1.0
 40
2.0
 40
2.0
 40
2.0
 40
3.0
 40
3.0
 40
3.0
 40
4.0
 40
4.0
 40
4.0
 40
5.0
 40
5.0
 40
5.0
 40
6.0
 40
6.0
 40
6.0
 40
7.0
 40
7.0
 40
7.0
 40
7.0
 10
2270.902544214996
 20
-668.803105565129
 10
2270.902544214996
 20
-673.4192886753417
 10
2271.15381892436
 20
-678.0527730408675
 10
2270.837366275566
 20
-682.6471567213511
 10
2270.46269570046
 20
-688.0870300301921
 10
2272.31329936281
 20
-690.2139067022935
 10
2278.078849617307
 20
-690.193877668914
 10
2283.829309712357
 20
-690.1738942251386
 10
2286.54076670014
 20
-688.8706089741872
 10
2286.218645743722
 20
-682.5069914790283
 10
2285.769147429341
 20
-673.6272304646108
 10
2285.848215001934
 20
-664.697032149902
 10
2286.204345804108
 20
-655.8085863156247
 10
2286.437718995019
 20
-649.9838949453041
 10
2284.605624712529
 20
-647.4668092408656
 10
2278.438019726516
 20
-647.4602101454584
 10
2272.133053258924
 20
-647.4534628838346
 10
2270.418792910297
 20
-650.2716793304617
 10
2270.838931518692
 20
-655.9483640463004
 10
2271.154457178838
 20
-660.2114632596449
 10
2270.901282902576
 20
-664.5166568754648
 10
2270.902544214996
 20
-668.803105565129
 97
        0
 97
        1
330
8C
 92
        1
 93
        1
 72
     4
 94
        3
 73
     0
 74
     0
 95
       59
 96
       55
 40
0.0
 40
0.0
 40
0.0
 40
0.0
 40
1.0
 40
1.0
 40
1.0
 40
2.0
 40
2.0
 40
2.0
 40
3.0
 40
3.0
 40
3.0
 40
4.0
 40
4.0
 40
4.0
 40
5.0
 40
5.0
 40
5.0
 40
6.0
 40
6.0
 40
6.0
 40
7.0
 40
7.0
 40
7.0
 40
8.0
 40
8.0
 40
8.0
 40
9.0
 40
9.0
 40
9.0
 40
10.0
 40
10.0
 40
10.0
 40
11.0
 40
11.0
 40
11.0
 40
12.0
 40
12.0
 40
12.0
 40
13.0
 40
13.0
 40
13.0
 40
14.0
 40
14.0
 40
14.0
 40
15.0
 40
15.0
 40
15.0
 40
16.0
 40
16.0
 40
16.0
 40
17.0
 40
17.0
 40
17.0
 40
18.0
 40
18.0
 40
18.0
 40
18.0
 10
2279.631266866161
 20
-637.7891769411089
 10
2285.113492918576
 20
-638.4635421858283
 10
2291.484701083062
 20
-638.6353732083525
 10
2297.530445053386
 20
-640.1266471978715
 10
2308.006358944933
 20
-642.7106850372228
 10
2309.766877546679
 20
-649.9344644154652
 10
2302.31940517044
 20
-657.447327482625
 10
2299.65276276493
 20
-660.1373801505943
 10
2294.963112005342
 20
-661.1627435677264
 10
2295.018928879095
 20
-666.1540987387079
 10
2295.111445385332
 20
-674.4288021062711
 10
2294.937323485125
 20
-682.7178434047873
 10
2295.404677728353
 20
-690.9708917097059
 10
2295.570684678767
 20
-693.9028124317565
 10
2299.285052202942
 20
-694.1724141625609
 10
2301.341295379481
 20
-695.7063524246231
 10
2308.469458158308
 20
-701.0238860269192
 10
2308.980821567448
 20
-708.4329643569999
 10
2301.308683614963
 20
-712.3484960157484
 10
2295.123648203089
 20
-715.5050899123144
 10
2294.739798920728
 20
-719.7024489144268
 10
2294.916215497748
 20
-725.2053726477716
 10
2295.243548865736
 20
-735.4160614106485
 10
2292.647859083029
 20
-745.7612699030296
 10
2303.822099356153
 20
-753.4429360830772
 10
2310.324514405469
 20
-757.9129665161017
 10
2307.18682499868
 20
-765.7084699412562
 10
2298.67974381326
 20
-767.9338657509942
 10
2285.664914394476
 20
-771.3384367087865
 10
2272.47012760597
 20
-771.3573108054925
 10
2259.367181077885
 20
-768.188210160466
 10
2255.550966374869
 20
-767.2652182026403
 10
2251.315980751626
 20
-766.3164529211326
 10
2250.496370822699
 20
-761.4791374291034
 10
2249.692132189112
 20
-756.7324996625529
 10
2252.10670206716
 20
-753.316911216747
 10
2255.608538448436
 20
-750.3427213320655
 10
2261.0327897191
 20
-745.7357853135154
 10
2266.23064300851
 20
-720.4995223816713
 10
2261.017836328474
 20
-716.9179877715914
 10
2247.473392461789
 20
-707.612039927777
 10
2246.641344168807
 20
-700.871555958176
 10
2261.003209663353
 20
-691.6997707252839
 10
2265.818406598415
 20
-688.6246758469424
 10
2261.22029216854
 20
-662.9802491764321
 10
2256.329082164464
 20
-658.8948126559935
 10
2252.589404810931
 20
-655.771218035592
 10
2249.630031548057
 20
-652.31978856154
 10
2250.473051739447
 20
-647.087233984027
 10
2251.428184369199
 20
-641.1588642523739
 10
2256.746637361874
 20
-640.5534988756844
 10
2261.040889472359
 20
-639.679717097938
 10
2266.839537780497
 20
-638.4998163153268
 10
2272.861985462378
 20
-638.4197039809387
 10
2279.631266866161
 20
-637.7891769411089
 97
        0
 97
        1
330
8D
 75
     2
 76
     1
 98
        1
 10
0.0
 20
0.0
450
        0
451
        0
460
0.0
461
0.0
452
        0
462
0.0
453
        0
470

  0
SPLINE
  5
8F
330
70
100
AcDbEntity
  8
Layer 1
100
AcDbSpline
210
0.0
220
0.0
230
1.0
 70
     9
 71
     3
 72
    17
 73
    13
 74
     0
 42
0.0000000001
 43
0.0000000001
 40
0.0
 40
0.0
 40
0.0
 40
0.0
 40
1.0
 40
1.0
 40
1.0
 40
2.0
 40
2.0
 40
2.0
 40
3.0
 40
3.0
 40
3.0
 40
4.0
 40
4.0
 40
4.0
 40
4.0
 10
2285.939059889299
 20
-872.0046320154315
 30
0.0
 10
2286.988806147143
 20
-866.5519328308901
 30
0.0
 10
2286.090113449087
 20
-862.1196201982074
 30
0.0
 10
2278.360942900035
 20
-862.1366403176207
 30
0.0
 10
2271.212386370982
 20
-862.152353535006
 30
0.0
 10
2270.677681083793
 20
-866.3141678413111
 30
0.0
 10
2270.806623684877
 20
-871.8902324985238
 30
0.0
 10
2270.934988817628
 20
-877.4414052310948
 30
0.0
 10
2270.32788723679
 20
-882.2440878194257
 30
0.0
 10
2278.652913930638
 20
-882.0938852656082
 30
0.0
 10
2286.105735487261
 20
-881.9593655361076
 30
0.0
 10
2286.653357829362
 20
-878.1242463433155
 30
0.0
 10
2285.939059889299
 20
-872.0046320154315
 30
0.0
  0
SPLINE
  5
90
330
70
100
AcDbEntity
  8
Layer 1
100
AcDbSpline
210
0.0
220
0.0
230
1.0
 70
     9
 71
     3
 72
    26
 73
    22
 74
     0
 42
0.0000000001
 43
0.0000000001
 40
0.0
 40
0.0
 40
0.0
 40
0.0
 40
1.0
 40
1.0
 40
1.0
 40
2.0
 40
2.0
 40
2.0
 40
3.0
 40
3.0
 40
3.0
 40
4.0
 40
4.0
 40
4.0
 40
5.0
 40
5.0
 40
5.0
 40
6.0
 40
6.0
 40
6.0
 40
7.0
 40
7.0
 40
7.0
 40
7.0
 10
2270.916722582327
 20
-837.2090494085522
 30
0.0
 10
2270.916722582327
 20
-842.1852916252856
 30
0.0
 10
2271.178102987595
 20
-847.1788730886711
 30
0.0
 10
2270.849493110649
 20
-852.1333386704782
 30
0.0
 10
2270.453243455575
 20
-858.1073094051017
 30
0.0
 10
2273.999689265898
 20
-858.3055330101187
 30
0.0
 10
2278.409115916588
 20
-858.2398231919578
 30
0.0
 10
2282.631534005226
 20
-858.1769399293417
 30
0.0
 10
2286.360702954679
 20
-858.4444597348237
 30
0.0
 10
2286.166825558725
 20
-852.3199217295395
 30
0.0
 10
2285.873106926576
 20
-843.0404310534894
 30
0.0
 10
2285.849841031199
 20
-833.7346655680958
 30
0.0
 10
2286.203403618927
 20
-824.4587916674209
 30
0.0
 10
2286.43338798249
 20
-818.4253872836707
 30
0.0
 10
2285.11189728238
 20
-815.3790138568364
 30
0.0
 10
2278.095869736719
 20
-815.4624124419578
 30
0.0
 10
2271.235272352979
 20
-815.5439722463224
 30
0.0
 10
2270.593385903094
 20
-819.0145873460505
 30
0.0
 10
2270.856453123766
 20
-824.2729076489794
 30
0.0
 10
2271.071666455124
 20
-828.5749251889438
 30
0.0
 10
2270.900264734717
 20
-832.8962727216721
 30
0.0
 10
2270.916722582327
 20
-837.2090494085522
 30
0.0
  0
SPLINE
  5
91
330
70
100
AcDbEntity
  8
Layer 1
100
AcDbSpline
210
0.0
220
0.0
230
1.0
 70
     9
 71
     3
 72
    26
 73
    22
 74
     0
 42
0.0000000001
 43
0.0000000001
 40
0.0
 40
0.0
 40
0.0
 40
0.0
 40
1.0
 40
1.0
 40
1.0
 40
2.0
 40
2.0
 40
2.0
 40
3.0
 40
3.0
 40
3.0
 40
4.0
 40
4.0
 40
4.0
 40
5.0
 40
5.0
 40
5.0
 40
6.0
 40
6.0
 40
6.0
 40
7.0
 40
7.0
 40
7.0
 40
7.0
 10
2270.908030164199
 20
-907.082854980309
 30
0.0
 10
2270.908030164199
 20
-912.0282634271426
 30
0.0
 10
2271.18058002283
 20
-916.9926067568221
 30
0.0
 10
2270.838384443425
 20
-921.9142478226194
 30
0.0
 10
2270.41973509548
 20
-927.9353582094017
 30
0.0
 10
2273.645853140539
 20
-929.031636257997
 30
0.0
 10
2278.700463889245
 20
-929.0945195206141
 30
0.0
 10
2284.149728656834
 20
-929.1623264606306
 30
0.0
 10
2286.397296211415
 20
-927.1420382863507
 30
0.0
 10
2286.190699315508
 20
-921.5224507523544
 30
0.0
 10
2285.863913022784
 20
-912.6327815969943
 30
0.0
 10
2285.912374773505
 20
-903.7163665397001
 30
0.0
 10
2286.179286717581
 20
-894.8225943198394
 30
0.0
 10
2286.341540123802
 20
-889.4156974923616
 30
0.0
 10
2285.485747244586
 20
-886.45082308375
 30
0.0
 10
2278.806110201886
 20
-886.3473954652491
 30
0.0
 10
2271.708826782564
 20
-886.2375245158254
 30
0.0
 10
2270.373218501262
 20
-889.278108062752
 30
0.0
 10
2270.84004086576
 20
-895.218433668465
 30
0.0
 10
2271.149047212311
 20
-899.150476362699
 30
0.0
 10
2270.898593115846
 20
-903.1265282228414
 30
0.0
 10
2270.908030164199
 20
-907.082854980309
 30
0.0
  0
SPLINE
  5
92
330
70
100
AcDbEntity
  8
Layer 1
100
AcDbSpline
210
0.0
220
0.0
230
1.0
 70
     9
 71
     3
 72
    59
 73
    55
 74
     0
 42
0.0000000001
 43
0.0000000001
 40
0.0
 40
0.0
 40
0.0
 40
0.0
 40
1.0
 40
1.0
 40
1.0
 40
2.0
 40
2.0
 40
2.0
 40
3.0
 40
3.0
 40
3.0
 40
4.0
 40
4.0
 40
4.0
 40
5.0
 40
5.0
 40
5.0
 40
6.0
 40
6.0
 40
6.0
 40
7.0
 40
7.0
 40
7.0
 40
8.0
 40
8.0
 40
8.0
 40
9.0
 40
9.0
 40
9.0
 40
10.0
 40
10.0
 40
10.0
 40
11.0
 40
11.0
 40
11.0
 40
12.0
 40
12.0
 40
12.0
 40
13.0
 40
13.0
 40
13.0
 40
14.0
 40
14.0
 40
14.0
 40
15.0
 40
15.0
 40
15.0
 40
16.0
 40
16.0
 40
16.0
 40
17.0
 40
17.0
 40
17.0
 40
18.0
 40
18.0
 40
18.0
 40
18.0
 10
2278.665162338
 20
-938.2157534791959
 30
0.0
 10
2272.063605093108
 20
-937.7051802898868
 30
0.0
 10
2265.388496617894
 20
-937.9920604812022
 30
0.0
 10
2258.954921872986
 20
-935.8871579989836
 30
0.0
 10
2255.451140335206
 20
-934.7408225634744
 30
0.0
 10
2251.634500129207
 20
-933.9595382962915
 30
0.0
 10
2250.623634206642
 20
-929.7746556495704
 30
0.0
 10
2249.577367955359
 20
-925.4433087966882
 30
0.0
 10
2251.235013612133
 20
-921.2890623649082
 30
0.0
 10
2254.915333299216
 20
-919.442409801708
 30
0.0
 10
2264.459957924724
 20
-914.6532825227678
 30
0.0
 10
2261.828958992503
 20
-906.182156339606
 30
0.0
 10
2261.986129157702
 20
-898.5803327554458
 30
0.0
 10
2262.138216081881
 20
-891.2238724284598
 30
0.0
 10
2263.533136440028
 20
-884.0491322692759
 30
0.0
 10
2254.246526187244
 20
-879.3650130484966
 30
0.0
 10
2247.587959140584
 20
-876.0064571992579
 30
0.0
 10
2248.755022650096
 20
-868.3588616511052
 30
0.0
 10
2255.006398536341
 20
-864.8589780246011
 30
0.0
 10
2261.469522943922
 20
-861.2405310305458
 30
0.0
 10
2262.429130953288
 20
-856.6457674366828
 30
0.0
 10
2262.124212474704
 20
-850.276899538615
 30
0.0
 10
2261.647345200447
 20
-840.3165281033844
 30
0.0
 10
2263.933990645268
 20
-830.2753262974775
 30
0.0
 10
2253.133934658121
 20
-822.9318894011512
 30
0.0
 10
2247.176102643869
 20
-818.8808882294516
 30
0.0
 10
2249.50889996606
 20
-811.4721974110189
 30
0.0
 10
2256.656947411184
 20
-809.2660404148318
 30
0.0
 10
2270.932192655151
 20
-804.8601849499137
 30
0.0
 10
2285.51720407243
 20
-804.9331283188248
 30
0.0
 10
2299.823343872437
 20
-809.0660084221271
 30
0.0
 10
2307.893767815713
 20
-811.3974760474903
 30
0.0
 10
2309.823666998684
 20
-818.9962451280772
 30
0.0
 10
2302.887542835049
 20
-824.1405610240107
 30
0.0
 10
2289.727069823004
 20
-833.9012195937765
 30
0.0
 10
2296.497141446618
 20
-847.0261175169426
 30
0.0
 10
2295.330305885136
 20
-858.7754098781887
 30
0.0
 10
2295.016710184957
 20
-861.9331587114274
 30
0.0
 10
2298.912144425918
 20
-862.2382139588289
 30
0.0
 10
2300.937812173655
 20
-863.7694168445587
 30
0.0
 10
2308.773024145261
 20
-869.6921144694515
 30
0.0
 10
2309.105402762934
 20
-876.1620089334611
 30
0.0
 10
2300.729330907385
 20
-881.013928295807
 30
0.0
 10
2295.760838923599
 20
-883.8919393092719
 30
0.0
 10
2294.708813185478
 20
-887.1711388517496
 30
0.0
 10
2294.887402867027
 20
-892.1895818467046
 30
0.0
 10
2295.274489011383
 20
-903.0655901167301
 30
0.0
 10
2292.487383671423
 20
-914.1705189928552
 30
0.0
 10
2304.251826978252
 20
-922.331271141299
 30
0.0
 10
2309.663495517781
 20
-926.085240836177
 30
0.0
 10
2307.246304237413
 20
-932.6533657036543
 30
0.0
 10
2300.278115384528
 20
-935.2639480908491
 30
0.0
 10
2293.312357977275
 20
-937.8736186859324
 30
0.0
 10
2285.947569949005
 20
-937.7737774497346
 30
0.0
 10
2278.665162338
 20
-938.2157534791959
 30
0.0
  0
HATCH
  5
93
330
70
100
AcDbEntity
  8
Layer 1
 62
   118
420
  1005869
440
 33554687
100
AcDbHatch
 10
0.0
 20
0.0
 30
0.0
210
0.0
220
0.0
230
1.0
  2
SOLID
 70
     1
 71
     1
 91
        4
 92
        1
 93
        1
 72
     4
 94
        3
 73
     0
 74
     0
 95
       17
 96
       13
 40
0.0
 40
0.0
 40
0.0
 40
0.0
 40
1.0
 40
1.0
 40
1.0
 40
2.0
 40
2.0
 40
2.0
 40
3.0
 40
3.0
 40
3.0
 40
4.0
 40
4.0
 40
4.0
 40
4.0
 10
2285.939059889299
 20
-872.0046320154315
 10
2286.988806147143
 20
-866.5519328308901
 10
2286.090113449087
 20
-862.1196201982074
 10
2278.360942900035
 20
-862.1366403176207
 10
2271.212386370982
 20
-862.152353535006
 10
2270.677681083793
 20
-866.3141678413111
 10
2270.806623684877
 20
-871.8902324985238
 10
2270.934988817628
 20
-877.4414052310948
 10
2270.32788723679
 20
-882.2440878194257
 10
2278.652913930638
 20
-882.0938852656082
 10
2286.105735487261
 20
-881.9593655361076
 10
2286.653357829362
 20
-878.1242463433155
 10
2285.939059889299
 20
-872.0046320154315
 97
        0
 97
        1
330
8F
 92
        1
 93
        1
 72
     4
 94
        3
 73
     0
 74
     0
 95
       26
 96
       22
 40
0.0
 40
0.0
 40
0.0
 40
0.0
 40
1.0
 40
1.0
 40
1.0
 40
2.0
 40
2.0
 40
2.0
 40
3.0
 40
3.0
 40
3.0
 40
4.0
 40
4.0
 40
4.0
 40
5.0
 40
5.0
 40
5.0
 40
6.0
 40
6.0
 40
6.0
 40
7.0
 40
7.0
 40
7.0
 40
7.0
 10
2270.916722582327
 20
-837.2090494085522
 10
2270.916722582327
 20
-842.1852916252856
 10
2271.178102987595
 20
-847.1788730886711
 10
2270.849493110649
 20
-852.1333386704782
 10
2270.453243455575
 20
-858.1073094051017
 10
2273.999689265898
 20
-858.3055330101187
 10
2278.409115916588
 20
-858.2398231919578
 10
2282.631534005226
 20
-858.1769399293417
 10
2286.360702954679
 20
-858.4444597348237
 10
2286.166825558725
 20
-852.3199217295395
 10
2285.873106926576
 20
-843.0404310534894
 10
2285.849841031199
 20
-833.7346655680958
 10
2286.203403618927
 20
-824.4587916674209
 10
2286.43338798249
 20
-818.4253872836707
 10
2285.11189728238
 20
-815.3790138568364
 10
2278.095869736719
 20
-815.4624124419578
 10
2271.235272352979
 20
-815.5439722463224
 10
2270.593385903094
 20
-819.0145873460505
 10
2270.856453123766
 20
-824.2729076489794
 10
2271.071666455124
 20
-828.5749251889438
 10
2270.900264734717
 20
-832.8962727216721
 10
2270.916722582327
 20
-837.2090494085522
 97
        0
 97
        1
330
90
 92
        1
 93
        1
 72
     4
 94
        3
 73
     0
 74
     0
 95
       26
 96
       22
 40
0.0
 40
0.0
 40
0.0
 40
0.0
 40
1.0
 40
1.0
 40
1.0
 40
2.0
 40
2.0
 40
2.0
 40
3.0
 40
3.0
 40
3.0
 40
4.0
 40
4.0
 40
4.0
 40
5.0
 40
5.0
 40
5.0
 40
6.0
 40
6.0
 40
6.0
 40
7.0
 40
7.0
 40
7.0
 40
7.0
 10
2270.908030164199
 20
-907.082854980309
 10
2270.908030164199
 20
-912.0282634271426
 10
2271.18058002283
 20
-916.9926067568221
 10
2270.838384443425
 20
-921.9142478226194
 10
2270.41973509548
 20
-927.9353582094017
 10
2273.645853140539
 20
-929.031636257997
 10
2278.700463889245
 20
-929.0945195206141
 10
2284.149728656834
 20
-929.1623264606306
 10
2286.397296211415
 20
-927.1420382863507
 10
2286.190699315508
 20
-921.5224507523544
 10
2285.863913022784
 20
-912.6327815969943
 10
2285.912374773505
 20
-903.7163665397001
 10
2286.179286717581
 20
-894.8225943198394
 10
2286.341540123802
 20
-889.4156974923616
 10
2285.485747244586
 20
-886.45082308375
 10
2278.806110201886
 20
-886.3473954652491
 10
2271.708826782564
 20
-886.2375245158254
 10
2270.373218501262
 20
-889.278108062752
 10
2270.84004086576
 20
-895.218433668465
 10
2271.149047212311
 20
-899.150476362699
 10
2270.898593115846
 20
-903.1265282228414
 10
2270.908030164199
 20
-907.082854980309
 97
        0
 97
        1
330
91
 92
        1
 93
        1
 72
     4
 94
        3
 73
     0
 74
     0
 95
       59
 96
       55
 40
0.0
 40
0.0
 40
0.0
 40
0.0
 40
1.0
 40
1.0
 40
1.0
 40
2.0
 40
2.0
 40
2.0
 40
3.0
 40
3.0
 40
3.0
 40
4.0
 40
4.0
 40
4.0
 40
5.0
 40
5.0
 40
5.0
 40
6.0
 40
6.0
 40
6.0
 40
7.0
 40
7.0
 40
7.0
 40
8.0
 40
8.0
 40
8.0
 40
9.0
 40
9.0
 40
9.0
 40
10.0
 40
10.0
 40
10.0
 40
11.0
 40
11.0
 40
11.0
 40
12.0
 40
12.0
 40
12.0
 40
13.0
 40
13.0
 40
13.0
 40
14.0
 40
14.0
 40
14.0
 40
15.0
 40
15.0
 40
15.0
 40
16.0
 40
16.0
 40
16.0
 40
17.0
 40
17.0
 40
17.0
 40
18.0
 40
18.0
 40
18.0
 40
18.0
 10
2278.665162338
 20
-938.2157534791959
 10
2272.063605093108
 20
-937.7051802898868
 10
2265.388496617894
 20
-937.9920604812022
 10
2258.954921872986
 20
-935.8871579989836
 10
2255.451140335206
 20
-934.7408225634744
 10
2251.634500129207
 20
-933.9595382962915
 10
2250.623634206642
 20
-929.7746556495704
 10
2249.577367955359
 20
-925.4433087966882
 10
2251.235013612133
 20
-921.2890623649082
 10
2254.915333299216
 20
-919.442409801708
 10
2264.459957924724
 20
-914.6532825227678
 10
2261.828958992503
 20
-906.182156339606
 10
2261.986129157702
 20
-898.5803327554458
 10
2262.138216081881
 20
-891.2238724284598
 10
2263.533136440028
 20
-884.0491322692759
 10
2254.246526187244
 20
-879.3650130484966
 10
2247.587959140584
 20
-876.0064571992579
 10
2248.755022650096
 20
-868.3588616511052
 10
2255.006398536341
 20
-864.8589780246011
 10
2261.469522943922
 20
-861.2405310305458
 10
2262.429130953288
 20
-856.6457674366828
 10
2262.124212474704
 20
-850.276899538615
 10
2261.647345200447
 20
-840.3165281033844
 10
2263.933990645268
 20
-830.2753262974775
 10
2253.133934658121
 20
-822.9318894011512
 10
2247.176102643869
 20
-818.8808882294516
 10
2249.50889996606
 20
-811.4721974110189
 10
2256.656947411184
 20
-809.2660404148318
 10
2270.932192655151
 20
-804.8601849499137
 10
2285.51720407243
 20
-804.9331283188248
 10
2299.823343872437
 20
-809.0660084221271
 10
2307.893767815713
 20
-811.3974760474903
 10
2309.823666998684
 20
-818.9962451280772
 10
2302.887542835049
 20
-824.1405610240107
 10
2289.727069823004
 20
-833.9012195937765
 10
2296.497141446618
 20
-847.0261175169426
 10
2295.330305885136
 20
-858.7754098781887
 10
2295.016710184957
 20
-861.9331587114274
 10
2298.912144425918
 20
-862.2382139588289
 10
2300.937812173655
 20
-863.7694168445587
 10
2308.773024145261
 20
-869.6921144694515
 10
2309.105402762934
 20
-876.1620089334611
 10
2300.729330907385
 20
-881.013928295807
 10
2295.760838923599
 20
-883.8919393092719
 10
2294.708813185478
 20
-887.1711388517496
 10
2294.887402867027
 20
-892.1895818467046
 10
2295.274489011383
 20
-903.0655901167301
 10
2292.487383671423
 20
-914.1705189928552
 10
2304.251826978252
 20
-922.331271141299
 10
2309.663495517781
 20
-926.085240836177
 10
2307.246304237413
 20
-932.6533657036543
 10
2300.278115384528
 20
-935.2639480908491
 10
2293.312357977275
 20
-937.8736186859324
 10
2285.947569949005
 20
-937.7737774497346
 10
2278.665162338
 20
-938.2157534791959
 97
        0
 97
        1
330
92
 75
     2
 76
     1
 98
        1
 10
0.0
 20
0.0
450
        0
451
        0
460
0.0
461
0.0
452
        0
462
0.0
453
        0
470

  0
ENDSEC
  0
SECTION
  2
OBJECTS
  0
DICTIONARY
  5
C
330
0
100
AcDbDictionary
281
     1
  3
ACAD_COLOR
350
63
  3
ACAD_DETAILVIEWSTYLE
350
6A
  3
ACAD_GROUP
350
D
  3
ACAD_LAYOUT
350
62
  3
ACAD_MATERIAL
350
10
  3
ACAD_MLEADERSTYLE
350
66
  3
ACAD_MLINESTYLE
350
5F
  3
ACAD_PLOTSETTINGS
350
61
  3
ACAD_PLOTSTYLENAME
350
E
  3
ACAD_SCALELIST
350
42
  3
ACAD_SECTIONVIEWSTYLE
350
68
  3
ACAD_TABLESTYLE
350
64
  3
ACAD_VISUALSTYLE
350
29
  3
ACDB_RECOMPOSE_DATA
350
9C
  3
AcDbVariableDictionary
350
94
  0
DICTIONARY
  5
63
102
{ACAD_REACTORS
330
C
102
}
330
C
100
AcDbDictionary
281
     1
  0
DICTIONARY
  5
6A
102
{ACAD_REACTORS
330
C
102
}
330
C
100
AcDbDictionary
281
     1
  3
Imperial24
350
6B
  0
DICTIONARY
  5
D
102
{ACAD_REACTORS
330
C
102
}
330
C
100
AcDbDictionary
281
     1
  0
DICTIONARY
  5
62
102
{ACAD_REACTORS
330
C
102
}
330
C
100
AcDbDictionary
281
     1
  3
Layout1
350
6F
  3
Layout2
350
77
  3
Model
350
73
  0
DICTIONARY
  5
10
102
{ACAD_REACTORS
330
C
102
}
330
C
100
AcDbDictionary
281
     1
  3
ByBlock
350
19
  3
ByLayer
350
11
  3
Global
350
21
  0
DICTIONARY
  5
66
102
{ACAD_REACTORS
330
C
102
}
330
C
100
AcDbDictionary
281
     1
  3
Standard
350
67
  0
DICTIONARY
  5
5F
102
{ACAD_REACTORS
330
C
102
}
330
C
100
AcDbDictionary
281
     1
  3
Standard
350
60
  0
DICTIONARY
  5
61
102
{ACAD_REACTORS
330
C
102
}
330
C
100
AcDbDictionary
281
     1
  0
ACDBDICTIONARYWDFLT
  5
E
102
{ACAD_REACTORS
330
C
102
}
330
C
100
AcDbDictionary
281
     1
  3
Normal
350
F
100
AcDbDictionaryWithDefault
340
F
  0
DICTIONARY
  5
42
102
{ACAD_REACTORS
330
C
102
}
330
C
100
AcDbDictionary
281
     1
  3
A0
350
43
  3
A1
350
44
  3
A2
350
45
  3
A3
350
46
  3
A4
350
47
  3
A5
350
48
  3
A6
350
49
  3
A7
350
4A
  3
A8
350
4B
  3
A9
350
4C
  3
B0
350
4D
  3
B1
350
4E
  3
B2
350
4F
  3
B3
350
50
  3
B4
350
51
  3
B5
350
52
  3
B6
350
53
  0
DICTIONARY
  5
68
102
{ACAD_REACTORS
330
C
102
}
330
C
100
AcDbDictionary
281
     1
  3
Imperial24
350
69
  0
DICTIONARY
  5
64
102
{ACAD_REACTORS
330
C
102
}
330
C
100
AcDbDictionary
281
     1
  3
Standard
350
65
  0
DICTIONARY
  5
29
102
{ACAD_REACTORS
330
C
102
}
330
C
100
AcDbDictionary
281
     1
  3
2dWireframe
350
2F
  3
Basic
350
2E
  3
Brighten
350
35
  3
ColorChange
350
39
  3
Conceptual
350
32
  3
Dim
350
34
  3
EdgeColorOff
350
41
  3
Facepattern
350
38
  3
Flat
350
2A
  3
FlatWithEdges
350
2B
  3
Gouraud
350
2C
  3
GouraudWithEdges
350
2D
  3
Hidden
350
31
  3
JitterOff
350
3F
  3
Linepattern
350
37
  3
OverhangOff
350
40
  3
Realistic
350
33
  3
Shaded
350
3E
  3
Shaded with edges
350
3D
  3
Shades of Gray
350
3A
  3
Sketchy
350
3B
  3
Thicken
350
36
  3
Wireframe
350
30
  3
X-Ray
350
3C
  0
XRECORD
  5
9C
102
{ACAD_REACTORS
330
C
102
}
330
C
100
AcDbXrecord
280
     1
 90
        1
330
65
  0
DICTIONARY
  5
94
102
{ACAD_REACTORS
330
C
102
}
330
C
100
AcDbDictionary
281
     1
  3
CANNOSCALE
350
99
  3
CMLEADERSTYLE
350
96
  3
CTABLESTYLE
350
95
  3
CVIEWDETAILSTYLE
350
97
  3
CVIEWSECTIONSTYLE
350
98
  0
ACDBDETAILVIEWSTYLE
  5
6B
102
{ACAD_REACTORS
330
6A
102
}
330
6A
100
AcDbModelDocViewStyle
 70
     0
  3
Imperial24
290
     1
300
Imperial24
 90
        0
100
AcDbDetailViewStyle
 70
     0
 71
     0
 90
        3
 71
     1
340
55
 62
   256
 40
0.24
340
0
 62
   256
 40
0.24
300

 40
0.36
280
     3
 71
     2
340
5D
 90
       25
 62
   256
 71
     3
340
55
 62
   256
 40
0.24
 90
        1
 40
0.75
 90
        1
300
%<\AcVar ViewType \f "%tc1">% %<\AcVar ViewDetailId>%\PSCALE %<\AcVar ViewScale \f "%sn">%
 71
     4
340
5D
 90
       25
 62
   256
340
5D
 90
       25
 62
   256
280
     0
  0
LAYOUT
  5
6F
102
{ACAD_REACTORS
330
62
102
}
330
62
100
AcDbPlotSettings
  1

  2

  4

  6

 40
0.0
 41
0.0
 42
0.0
 43
0.0
 44
0.0
 45
0.0
 46
0.0
 47
0.0
 48
0.0
 49
0.0
140
0.0
141
0.0
142
1.0
143
1.0
 70
   688
 72
     0
 73
     0
 74
     5
  7

 75
    16
147
1.0
 76
     0
 77
     2
 78
   300
148
0.0
149
0.0
100
AcDbLayout
  1
Layout1
 70
     1
 71
     1
 10
0.0
 20
0.0
 11
12.0
 21
9.0
 12
0.0
 22
0.0
 32
0.0
 14
0.0
 24
0.0
 34
0.0
 15
0.0
 25
0.0
 35
0.0
146
0.0
 13
0.0
 23
0.0
 33
0.0
 16
1.0
 26
0.0
 36
0.0
 17
0.0
 27
1.0
 37
0.0
 76
     0
330
6C
  0
LAYOUT
  5
77
102
{ACAD_REACTORS
330
62
102
}
330
62
100
AcDbPlotSettings
  1

  2

  4

  6

 40
0.0
 41
0.0
 42
0.0
 43
0.0
 44
0.0
 45
0.0
 46
0.0
 47
0.0
 48
0.0
 49
0.0
140
0.0
141
0.0
142
1.0
143
1.0
 70
   688
 72
     0
 73
     0
 74
     5
  7

 75
    16
147
1.0
 76
     0
 77
     2
 78
   300
148
0.0
149
0.0
100
AcDbLayout
  1
Layout2
 70
     1
 71
     2
 10
0.0
 20
0.0
 11
12.0
 21
9.0
 12
0.0
 22
0.0
 32
0.0
 14
0.0
 24
0.0
 34
0.0
 15
0.0
 25
0.0
 35
0.0
146
0.0
 13
0.0
 23
0.0
 33
0.0
 16
1.0
 26
0.0
 36
0.0
 17
0.0
 27
1.0
 37
0.0
 76
     0
330
74
  0
LAYOUT
  5
73
102
{ACAD_REACTORS
330
62
102
}
330
62
100
AcDbPlotSettings
  1

  2

  4

  6

 40
0.0
 41
0.0
 42
0.0
 43
0.0
 44
0.0
 45
0.0
 46
0.0
 47
0.0
 48
0.0
 49
0.0
140
0.0
141
0.0
142
1.0
143
1.0
 70
  1712
 72
     0
 73
     0
 74
     0
  7

 75
     0
147
1.0
 76
     0
 77
     2
 78
   300
148
0.0
149
0.0
100
AcDbLayout
  1
Model
 70
     1
 71
     0
 10
0.0
 20
0.0
 11
12.0
 21
9.0
 12
0.0
 22
0.0
 32
0.0
 14
0.0
 24
0.0
 34
0.0
 15
0.0
 25
0.0
 35
0.0
146
0.0
 13
0.0
 23
0.0
 33
0.0
 16
1.0
 26
0.0
 36
0.0
 17
0.0
 27
1.0
 37
0.0
 76
     0
330
70
  0
MATERIAL
  5
19
102
{ACAD_XDICTIONARY
360
1A
102
}
102
{ACAD_REACTORS
330
10
102
}
330
10
100
AcDbMaterial
  1
ByBlock
 72
     0
 43
0.0208333333333333
 43
0.0
 43
0.0
 43
0.0
 43
0.0
 43
0.0208333333333333
 43
0.0
 43
0.0
 43
0.0
 43
0.0
 43
1.0
 43
0.0
 43
0.0
 43
0.0
 43
0.0
 43
1.0
 77
     0
 47
0.0208333333333333
 47
0.0
 47
0.0
 47
0.0
 47
0.0
 47
0.0208333333333333
 47
0.0
 47
0.0
 47
0.0
 47
0.0
 47
1.0
 47
0.0
 47
0.0
 47
0.0
 47
0.0
 47
1.0
171
     0
 49
0.0208333333333333
 49
0.0
 49
0.0
 49
0.0
 49
0.0
 49
0.0208333333333333
 49
0.0
 49
0.0
 49
0.0
 49
0.0
 49
1.0
 49
0.0
 49
0.0
 49
0.0
 49
0.0
 49
1.0
175
     0
142
0.0208333333333333
142
0.0
142
0.0
142
0.0
142
0.0
142
0.0208333333333333
142
0.0
142
0.0
142
0.0
142
0.0
142
1.0
142
0.0
142
0.0
142
0.0
142
0.0
142
1.0
179
     0
144
0.0208333333333333
144
0.0
144
0.0
144
0.0
144
0.0
144
0.0208333333333333
144
0.0
144
0.0
144
0.0
144
0.0
144
1.0
144
0.0
144
0.0
144
0.0
144
0.0
144
1.0
147
0.0208333333333333
147
0.0
147
0.0
147
0.0
147
0.0
147
0.0208333333333333
147
0.0
147
0.0
147
0.0
147
0.0
147
1.0
147
0.0
147
0.0
147
0.0
147
0.0
147
1.0
  0
MATERIAL
  5
11
102
{ACAD_XDICTIONARY
360
12
102
}
102
{ACAD_REACTORS
330
10
102
}
330
10
100
AcDbMaterial
  1
ByLayer
 72
     0
 43
0.0208333333333333
 43
0.0
 43
0.0
 43
0.0
 43
0.0
 43
0.0208333333333333
 43
0.0
 43
0.0
 43
0.0
 43
0.0
 43
1.0
 43
0.0
 43
0.0
 43
0.0
 43
0.0
 43
1.0
 77
     0
 47
0.0208333333333333
 47
0.0
 47
0.0
 47
0.0
 47
0.0
 47
0.0208333333333333
 47
0.0
 47
0.0
 47
0.0
 47
0.0
 47
1.0
 47
0.0
 47
0.0
 47
0.0
 47
0.0
 47
1.0
171
     0
 49
0.0208333333333333
 49
0.0
 49
0.0
 49
0.0
 49
0.0
 49
0.0208333333333333
 49
0.0
 49
0.0
 49
0.0
 49
0.0
 49
1.0
 49
0.0
 49
0.0
 49
0.0
 49
0.0
 49
1.0
175
     0
142
0.0208333333333333
142
0.0
142
0.0
142
0.0
142
0.0
142
0.0208333333333333
142
0.0
142
0.0
142
0.0
142
0.0
142
1.0
142
0.0
142
0.0
142
0.0
142
0.0
142
1.0
179
     0
144
0.0208333333333333
144
0.0
144
0.0
144
0.0
144
0.0
144
0.0208333333333333
144
0.0
144
0.0
144
0.0
144
0.0
144
1.0
144
0.0
144
0.0
144
0.0
144
0.0
144
1.0
147
0.0208333333333333
147
0.0
147
0.0
147
0.0
147
0.0
147
0.0208333333333333
147
0.0
147
0.0
147
0.0
147
0.0
147
1.0
147
0.0
147
0.0
147
0.0
147
0.0
147
1.0
  0
MATERIAL
  5
21
102
{ACAD_XDICTIONARY
360
22
102
}
102
{ACAD_REACTORS
330
10
102
}
330
10
100
AcDbMaterial
  1
Global
 72
     0
 43
0.0208333333333333
 43
0.0
 43
0.0
 43
0.0
 43
0.0
 43
0.0208333333333333
 43
0.0
 43
0.0
 43
0.0
 43
0.0
 43
1.0
 43
0.0
 43
0.0
 43
0.0
 43
0.0
 43
1.0
 77
     0
 47
0.0208333333333333
 47
0.0
 47
0.0
 47
0.0
 47
0.0
 47
0.0208333333333333
 47
0.0
 47
0.0
 47
0.0
 47
0.0
 47
1.0
 47
0.0
 47
0.0
 47
0.0
 47
0.0
 47
1.0
171
     0
 49
0.0208333333333333
 49
0.0
 49
0.0
 49
0.0
 49
0.0
 49
0.0208333333333333
 49
0.0
 49
0.0
 49
0.0
 49
0.0
 49
1.0
 49
0.0
 49
0.0
 49
0.0
 49
0.0
 49
1.0
175
     0
142
0.0208333333333333
142
0.0
142
0.0
142
0.0
142
0.0
142
0.0208333333333333
142
0.0
142
0.0
142
0.0
142
0.0
142
1.0
142
0.0
142
0.0
142
0.0
142
0.0
142
1.0
179
     0
144
0.0208333333333333
144
0.0
144
0.0
144
0.0
144
0.0
144
0.0208333333333333
144
0.0
144
0.0
144
0.0
144
0.0
144
1.0
144
0.0
144
0.0
144
0.0
144
0.0
144
1.0
147
0.0208333333333333
147
0.0
147
0.0
147
0.0
147
0.0
147
0.0208333333333333
147
0.0
147
0.0
147
0.0
147
0.0
147
1.0
147
0.0
147
0.0
147
0.0
147
0.0
147
1.0
  0
MLEADERSTYLE
  5
67
102
{ACAD_REACTORS
330
66
102
}
330
66
100
AcDbMLeaderStyle
179
     2
170
     2
171
     1
172
     0
 90
        2
 40
0.0
 41
0.0
173
     1
 91
-1056964608
340
5B
 92
       -2
290
     1
 42
0.09
291
     1
 43
0.36
  3
Standard
 44
0.18
300

342
55
174
     1
178
     6
175
     1
176
     0
 93
-1056964608
 45
0.18
292
     0
297
     0
 46
0.18
 94
-1056964608
 47
1.0
 49
1.0
140
1.0
293
     1
141
0.0
294
     1
177
     0
142
1.0
295
     1
296
     0
143
0.125
271
     0
272
     9
273
     9
298
     1
  0
MLINESTYLE
  5
60
102
{ACAD_REACTORS
330
5F
102
}
330
5F
100
AcDbMlineStyle
  2
STANDARD
 70
     0
  3

 62
   256
 51
90.0
 52
90.0
 71
     2
 49
0.5
 62
   256
  6
BYLAYER
 49
-0.5
 62
   256
  6
BYLAYER
  0
ACDBPLACEHOLDER
  5
F
102
{ACAD_REACTORS
330
E
102
}
330
E
  0
SCALE
  5
43
102
{ACAD_REACTORS
330
42
102
}
330
42
100
AcDbScale
 70
     0
300
1:1
140
1.0
141
1.0
290
     1
  0
SCALE
  5
44
102
{ACAD_REACTORS
330
42
102
}
330
42
100
AcDbScale
 70
     0
300
1/128" = 1'-0"
140
0.0078125
141
12.0
290
     0
  0
SCALE
  5
45
102
{ACAD_REACTORS
330
42
102
}
330
42
100
AcDbScale
 70
     0
300
1/64" = 1'-0"
140
0.015625
141
12.0
290
     0
  0
SCALE
  5
46
102
{ACAD_REACTORS
330
42
102
}
330
42
100
AcDbScale
 70
     0
300
1/32" = 1'-0"
140
0.03125
141
12.0
290
     0
  0
SCALE
  5
47
102
{ACAD_REACTORS
330
42
102
}
330
42
100
AcDbScale
 70
     0
300
1/16" = 1'-0"
140
0.0625
141
12.0
290
     0
  0
SCALE
  5
48
102
{ACAD_REACTORS
330
42
102
}
330
42
100
AcDbScale
 70
     0
300
3/32" = 1'-0"
140
0.09375
141
12.0
290
     0
  0
SCALE
  5
49
102
{ACAD_REACTORS
330
42
102
}
330
42
100
AcDbScale
 70
     0
300
1/8" = 1'-0"
140
0.125
141
12.0
290
     0
  0
SCALE
  5
4A
102
{ACAD_REACTORS
330
42
102
}
330
42
100
AcDbScale
 70
     0
300
3/16" = 1'-0"
140
0.1875
141
12.0
290
     0
  0
SCALE
  5
4B
102
{ACAD_REACTORS
330
42
102
}
330
42
100
AcDbScale
 70
     0
300
1/4" = 1'-0"
140
0.25
141
12.0
290
     0
  0
SCALE
  5
4C
102
{ACAD_REACTORS
330
42
102
}
330
42
100
AcDbScale
 70
     0
300
3/8" = 1'-0"
140
0.375
141
12.0
290
     0
  0
SCALE
  5
4D
102
{ACAD_REACTORS
330
42
102
}
330
42
100
AcDbScale
 70
     0
300
1/2" = 1'-0"
140
0.5
141
12.0
290
     0
  0
SCALE
  5
4E
102
{ACAD_REACTORS
330
42
102
}
330
42
100
AcDbScale
 70
     0
300
3/4" = 1'-0"
140
0.75
141
12.0
290
     0
  0
SCALE
  5
4F
102
{ACAD_REACTORS
330
42
102
}
330
42
100
AcDbScale
 70
     0
300
1" = 1'-0"
140
1.0
141
12.0
290
     0
  0
SCALE
  5
50
102
{ACAD_REACTORS
330
42
102
}
330
42
100
AcDbScale
 70
     0
300
1-1/2" = 1'-0"
140
1.5
141
12.0
290
     0
  0
SCALE
  5
51
102
{ACAD_REACTORS
330
42
102
}
330
42
100
AcDbScale
 70
     0
300
3" = 1'-0"
140
3.0
141
12.0
290
     0
  0
SCALE
  5
52
102
{ACAD_REACTORS
330
42
102
}
330
42
100
AcDbScale
 70
     0
300
6" = 1'-0"
140
6.0
141
12.0
290
     0
  0
SCALE
  5
53
102
{ACAD_REACTORS
330
42
102
}
330
42
100
AcDbScale
 70
     0
300
1'-0" = 1'-0"
140
12.0
141
12.0
290
     0
  0
ACDBSECTIONVIEWSTYLE
  5
69
102
{ACAD_REACTORS
330
68
102
}
330
68
100
AcDbModelDocViewStyle
 70
     0
  3
Imperial24
290
     1
300
Imperial24
 90
        0
100
AcDbSectionViewStyle
 70
     0
 71
     0
 90
       78
 71
     1
340
55
 62
   256
 40
0.24
340
0
340
0
 62
   256
 40
0.24
300
I, O, Q, S, X, Z
 40
0.48
 90
        3
 40
0.18
 90
        1
 71
     2
340
5D
 90
       25
 62
   256
340
5D
 90
       50
 62
   256
 40
0.24
 40
0.0
 40
0.24
 71
     3
340
55
 62
   256
 40
0.24
 90
        1
 40
0.75
 90
        1
300
%<\AcVar ViewType \f "%tc1">% %<\AcVar ViewSectionStartId>%-%<\AcVar ViewSectionEndId>%\PSCALE %<\AcVar ViewScale \f "%sn">%
 71
     4
 62
   256
 62
   257
300
ANSI31
 40
1.0
 90
        0
290
     0
290
     0
 90
        6
 40
0.0
 40
1.570796326794896
 40
0.2617993877991494
 40
1.308996938995747
 40
-0.2617993877991494
 40
1.832595714594046
  0
TABLESTYLE
  5
65
102
{ACAD_XDICTIONARY
360
9A
102
}
102
{ACAD_REACTORS
330
64
102
}
330
64
100
AcDbTableStyle
280
     0
  3
Standard
 70
     0
 71
     0
 40
0.06
 41
0.06
280
     0
281
     0
  7
Standard
140
0.18
170
     2
 62
     0
 63
     7
283
     0
 90
      512
 91
        0
  1

274
    -2
284
     1
 64
     0
275
    -2
285
     1
 65
     0
276
    -2
286
     1
 66
     0
277
    -2
287
     1
 67
     0
278
    -2
288
     1
 68
     0
279
    -2
289
     1
 69
     0
  7
Standard
140
0.25
170
     5
 62
     0
 63
     7
283
     0
 90
      512
 91
        0
  1

274
    -2
284
     1
 64
     0
275
    -2
285
     1
 65
     0
276
    -2
286
     1
 66
     0
277
    -2
287
     1
 67
     0
278
    -2
288
     1
 68
     0
279
    -2
289
     1
 69
     0
  7
Standard
140
0.18
170
     5
 62
     0
 63
     7
283
     0
 90
      512
 91
        0
  1

274
    -2
284
     1
 64
     0
275
    -2
285
     1
 65
     0
276
    -2
286
     1
 66
     0
277
    -2
287
     1
 67
     0
278
    -2
288
     1
 68
     0
279
    -2
289
     1
 69
     0
  0
VISUALSTYLE
  5
2F
102
{ACAD_REACTORS
330
29
102
}
330
29
100
AcDbVisualStyle
  2
2dWireframe
 70
     4
177
     3
291
     0
 70
    58
 90
        0
176
     1
 90
        2
176
     1
 90
        0
176
     1
 90
        0
176
     1
 40
0.6
176
     1
 40
30.0
176
     1
 62
     7
420
 16777215
176
     1
 90
        1
176
     1
 90
        4
176
     1
 62
     7
176
     1
 62
   257
176
     1
 90
        1
176
     1
 90
        1
176
     1
 40
1.0
176
     1
 90
        0
176
     1
 62
   257
176
     1
 40
1.0
176
     1
 90
        1
176
     1
 90
        6
176
     1
 90
        2
176
     1
 62
     7
176
     1
 90
        5
176
     1
 90
        0
176
     1
 90
        0
176
     1
290
     0
176
     1
 90
        1
176
     1
 40
0.0
176
     1
 90
        0
176
     1
290
     1
176
     1
290
     1
176
     1
290
     0
176
     1
290
     0
176
     1
290
     0
176
     1
290
     0
176
     1
290
     0
176
     1
290
     0
176
     1
290
     0
176
     1
 90
       50
176
     1
 40
0.0
176
     1
 40
1.0
176
     1
 90
        0
176
     1
 62
    18
420
        0
176
     1
 90
       50
176
     1
 90
        3
176
     1
 62
     5
420
      255
176
     1
290
     0
176
     1
 90
       50
176
     1
 90
       50
176
     1
 90
       50
176
     1
290
     0
176
     1
 90
       50
176
     1
 62
   256
176
     0
 40
1.0
176
     0
 90
        2
176
     1
  1
strokes_ogs.tif
176
     1
290
     0
176
     1
 40
1.0
176
     1
 40
1.0
176
     1
  0
VISUALSTYLE
  5
2E
102
{ACAD_REACTORS
330
29
102
}
330
29
100
AcDbVisualStyle
  2
Basic
 70
     7
177
     3
291
     1
 70
    58
 90
        1
176
     1
 90
        0
176
     1
 90
        1
176
     1
 90
        0
176
     1
 40
0.6
176
     1
 40
30.0
176
     1
 62
     7
420
 16777215
176
     1
 90
        0
176
     1
 90
        4
176
     1
 62
     7
176
     1
 62
   257
176
     1
 90
        1
176
     1
 90
        1
176
     1
 40
1.0
176
     1
 90
        8
176
     1
 62
     7
176
     1
 40
1.0
176
     1
 90
        1
176
     1
 90
        6
176
     1
 90
        2
176
     1
 62
     7
176
     1
 90
        5
176
     1
 90
        0
176
     1
 90
        0
176
     1
290
     0
176
     1
 90
        1
176
     1
 40
0.0
176
     1
 90
        0
176
     1
290
     0
176
     1
290
     1
176
     1
290
     1
176
     1
290
     0
176
     1
290
     0
176
     1
290
     0
176
     1
290
     0
176
     1
290
     0
176
     1
290
     0
176
     1
 90
       50
176
     1
 40
0.0
176
     1
 40
1.0
176
     1
 90
        0
176
     1
 62
    18
420
        0
176
     1
 90
       50
176
     1
 90
        3
176
     1
 62
     5
420
      255
176
     1
290
     0
176
     1
 90
       50
176
     1
 90
       50
176
     1
 90
       50
176
     1
290
     0
176
     1
 90
       50
176
     1
 62
   256
176
     0
 40
1.0
176
     0
 90
        2
176
     1
  1
strokes_ogs.tif
176
     1
290
     0
176
     1
 40
1.0
176
     1
 40
1.0
176
     1
  0
VISUALSTYLE
  5
35
102
{ACAD_REACTORS
330
29
102
}
330
29
100
AcDbVisualStyle
  2
Brighten
 70
    12
177
     3
291
     1
 70
    58
 90
        2
176
     1
 90
        2
176
     1
 90
        0
176
     1
 90
        0
176
     1
 40
0.6
176
     1
 40
30.0
176
     1
 62
     7
420
 16777215
176
     1
 90
        1
176
     1
 90
        4
176
     1
 62
     7
176
     1
 62
   257
176
     1
 90
        1
176
     1
 90
        1
176
     1
 40
1.0
176
     1
 90
        8
176
     1
 62
     7
176
     1
 40
1.0
176
     1
 90
        1
176
     1
 90
        6
176
     1
 90
        2
176
     1
 62
     7
176
     1
 90
        5
176
     1
 90
        0
176
     1
 90
        0
176
     1
290
     0
176
     1
 90
        1
176
     1
 40
50.0
176
     1
 90
        0
176
     1
290
     0
176
     1
290
     1
176
     1
290
     1
176
     1
290
     0
176
     1
290
     0
176
     1
290
     0
176
     1
290
     0
176
     1
290
     0
176
     1
290
     0
176
     1
 90
       50
176
     1
 40
0.0
176
     1
 40
1.0
176
     1
 90
        0
176
     1
 62
    18
420
        0
176
     1
 90
       50
176
     1
 90
        3
176
     1
 62
     5
420
      255
176
     1
290
     0
176
     1
 90
       50
176
     1
 90
       50
176
     1
 90
       50
176
     1
290
     0
176
     1
 90
       50
176
     1
 62
   256
176
     0
 40
1.0
176
     0
 90
        2
176
     1
  1
strokes_ogs.tif
176
     1
290
     0
176
     1
 40
1.0
176
     1
 40
1.0
176
     1
  0
VISUALSTYLE
  5
39
102
{ACAD_REACTORS
330
29
102
}
330
29
100
AcDbVisualStyle
  2
ColorChange
 70
    16
177
     3
291
     1
 70
    58
 90
        2
176
     1
 90
        2
176
     1
 90
        3
176
     1
 90
        0
176
     1
 40
0.6
176
     1
 40
30.0
176
     1
 62
     8
420
  8421504
176
     1
 90
        1
176
     1
 90
        4
176
     1
 62
     7
176
     1
 62
   257
176
     1
 90
        1
176
     1
 90
        1
176
     1
 40
1.0
176
     1
 90
        8
176
     1
 62
     8
420
  8421504
176
     1
 40
1.0
176
     1
 90
        1
176
     1
 90
        6
176
     1
 90
        2
176
     1
 62
     7
176
     1
 90
        5
176
     1
 90
        0
176
     1
 90
        0
176
     1
290
     0
176
     1
 90
        1
176
     1
 40
0.0
176
     1
 90
        0
176
     1
290
     0
176
     1
290
     1
176
     1
290
     1
176
     1
290
     0
176
     1
290
     0
176
     1
290
     0
176
     1
290
     0
176
     1
290
     0
176
     1
290
     0
176
     1
 90
       50
176
     1
 40
0.0
176
     1
 40
1.0
176
     1
 90
        0
176
     1
 62
    18
420
        0
176
     1
 90
       50
176
     1
 90
        3
176
     1
 62
     5
420
      255
176
     1
290
     0
176
     1
 90
       50
176
     1
 90
       50
176
     1
 90
       50
176
     1
290
     0
176
     1
 90
       50
176
     1
 62
   256
176
     0
 40
1.0
176
     0
 90
        2
176
     1
  1
strokes_ogs.tif
176
     1
290
     0
176
     1
 40
1.0
176
     1
 40
1.0
176
     1
  0
VISUALSTYLE
  5
32
102
{ACAD_REACTORS
330
29
102
}
330
29
100
AcDbVisualStyle
  2
Conceptual
 70
     9
177
     3
291
     0
 70
    58
 90
        3
176
     1
 90
        2
176
     1
 90
        0
176
     1
 90
        0
176
     1
 40
0.6
176
     1
 40
30.0
176
     1
 62
     7
420
 16777215
176
     1
 90
        2
176
     1
 90
        2
176
     1
 62
     7
176
     1
 62
   257
176
     1
 90
        1
176
     1
 90
        1
176
     1
 40
179.0
176
     1
 90
        8
176
     1
 62
     7
176
     1
 40
1.0
176
     1
 90
        1
176
     1
 90
        6
176
     1
 90
        2
176
     1
 62
     7
176
     1
 90
        3
176
     1
 90
        0
176
     1
 90
        0
176
     1
290
     0
176
     1
 90
        1
176
     1
 40
0.0
176
     1
 90
        0
176
     1
290
     0
176
     1
290
     1
176
     1
290
     1
176
     1
290
     0
176
     1
290
     0
176
     1
290
     0
176
     1
290
     0
176
     1
290
     0
176
     1
290
     0
176
     1
 90
       50
176
     1
 40
0.0
176
     1
 40
1.0
176
     1
 90
        0
176
     1
 62
    18
420
        0
176
     1
 90
       50
176
     1
 90
        3
176
     1
 62
     5
420
      255
176
     1
290
     0
176
     1
 90
       50
176
     1
 90
       50
176
     1
 90
       50
176
     1
290
     0
176
     1
 90
       50
176
     1
 62
   256
176
     0
 40
1.0
176
     0
 90
        2
176
     1
  1
strokes_ogs.tif
176
     1
290
     0
176
     1
 40
1.0
176
     1
 40
1.0
176
     1
  0
VISUALSTYLE
  5
34
102
{ACAD_REACTORS
330
29
102
}
330
29
100
AcDbVisualStyle
  2
Dim
 70
    11
177
     3
291
     1
 70
    58
 90
        2
176
     1
 90
        2
176
     1
 90
        0
176
     1
 90
        0
176
     1
 40
0.6
176
     1
 40
30.0
176
     1
 62
     7
420
 16777215
176
     1
 90
        1
176
     1
 90
        4
176
     1
 62
     7
176
     1
 62
   257
176
     1
 90
        1
176
     1
 90
        1
176
     1
 40
1.0
176
     1
 90
        8
176
     1
 62
     7
176
     1
 40
1.0
176
     1
 90
        1
176
     1
 90
        6
176
     1
 90
        2
176
     1
 62
     7
176
     1
 90
        5
176
     1
 90
        0
176
     1
 90
        0
176
     1
290
     0
176
     1
 90
        1
176
     1
 40
-50.0
176
     1
 90
        0
176
     1
290
     0
176
     1
290
     1
176
     1
290
     1
176
     1
290
     0
176
     1
290
     0
176
     1
290
     0
176
     1
290
     0
176
     1
290
     0
176
     1
290
     0
176
     1
 90
       50
176
     1
 40
0.0
176
     1
 40
1.0
176
     1
 90
        0
176
     1
 62
    18
420
        0
176
     1
 90
       50
176
     1
 90
        3
176
     1
 62
     5
420
      255
176
     1
290
     0
176
     1
 90
       50
176
     1
 90
       50
176
     1
 90
       50
176
     1
290
     0
176
     1
 90
       50
176
     1
 62
   256
176
     0
 40
1.0
176
     0
 90
        2
176
     1
  1
strokes_ogs.tif
176
     1
290
     0
176
     1
 40
1.0
176
     1
 40
1.0
176
     1
  0
VISUALSTYLE
  5
41
102
{ACAD_REACTORS
330
29
102
}
330
29
100
AcDbVisualStyle
  2
EdgeColorOff
 70
    22
177
     3
291
     1
 70
    58
 90
        2
176
     0
 90
        2
176
     0
 90
        0
176
     0
 90
        0
176
     0
 40
0.6
176
     0
 40
30.0
176
     0
 62
     7
420
 16777215
176
     0
 90
        1
176
     0
 90
        4
176
     0
 62
     7
176
     0
 62
   257
176
     0
 90
        1
176
     0
 90
        1
176
     0
 40
1.0
176
     0
 90
        8
176
     2
 62
     7
176
     0
 40
1.0
176
     0
 90
        1
176
     0
 90
        6
176
     0
 90
        2
176
     0
 62
     7
176
     0
 90
        5
176
     0
 90
        0
176
     0
 90
        0
176
     0
290
     0
176
     0
 90
        1
176
     0
 40
0.0
176
     0
 90
        0
176
     0
290
     0
176
     0
290
     1
176
     0
290
     1
176
     0
290
     0
176
     0
290
     0
176
     0
290
     0
176
     0
290
     0
176
     0
290
     0
176
     0
290
     0
176
     0
 90
       50
176
     0
 40
0.0
176
     0
 40
1.0
176
     0
 90
        0
176
     0
 62
    18
420
        0
176
     0
 90
       50
176
     0
 90
        3
176
     0
 62
     5
420
      255
176
     0
290
     0
176
     0
 90
       50
176
     0
 90
       50
176
     0
 90
       50
176
     0
290
     0
176
     0
 90
       50
176
     0
 62
   256
176
     0
 40
1.0
176
     0
 90
        2
176
     0
  1
strokes_ogs.tif
176
     0
290
     0
176
     0
 40
1.0
176
     0
 40
1.0
176
     0
  0
VISUALSTYLE
  5
38
102
{ACAD_REACTORS
330
29
102
}
330
29
100
AcDbVisualStyle
  2
Facepattern
 70
    15
177
     3
291
     1
 70
    58
 90
        2
176
     1
 90
        2
176
     1
 90
        0
176
     1
 90
        0
176
     1
 40
0.6
176
     1
 40
30.0
176
     1
 62
     7
420
 16777215
176
     1
 90
        1
176
     1
 90
        4
176
     1
 62
     7
176
     1
 62
   257
176
     1
 90
        1
176
     1
 90
        1
176
     1
 40
1.0
176
     1
 90
        8
176
     1
 62
     7
176
     1
 40
1.0
176
     1
 90
        1
176
     1
 90
        6
176
     1
 90
        2
176
     1
 62
     7
176
     1
 90
        5
176
     1
 90
        0
176
     1
 90
        0
176
     1
290
     0
176
     1
 90
        1
176
     1
 40
0.0
176
     1
 90
        0
176
     1
290
     0
176
     1
290
     1
176
     1
290
     1
176
     1
290
     0
176
     1
290
     0
176
     1
290
     0
176
     1
290
     0
176
     1
290
     0
176
     1
290
     0
176
     1
 90
       50
176
     1
 40
0.0
176
     1
 40
1.0
176
     1
 90
        0
176
     1
 62
    18
420
        0
176
     1
 90
       50
176
     1
 90
        3
176
     1
 62
     5
420
      255
176
     1
290
     0
176
     1
 90
       50
176
     1
 90
       50
176
     1
 90
       50
176
     1
290
     0
176
     1
 90
       50
176
     1
 62
   256
176
     0
 40
1.0
176
     0
 90
        2
176
     1
  1
strokes_ogs.tif
176
     1
290
     0
176
     1
 40
1.0
176
     1
 40
1.0
176
     1
  0
VISUALSTYLE
  5
2A
102
{ACAD_REACTORS
330
29
102
}
330
29
100
AcDbVisualStyle
  2
Flat
 70
     0
177
     3
291
     1
 70
    58
 90
        2
176
     1
 90
        1
176
     1
 90
        1
176
     1
 90
        2
176
     1
 40
0.6
176
     1
 40
30.0
176
     1
 62
     7
420
 16777215
176
     1
 90
        0
176
     1
 90
        0
176
     1
 62
     7
176
     1
 62
   257
176
     1
 90
        1
176
     1
 90
        1
176
     1
 40
1.0
176
     1
 90
        8
176
     1
 62
     7
176
     1
 40
1.0
176
     1
 90
        1
176
     1
 90
        6
176
     1
 90
        2
176
     1
 62
     7
176
     1
 90
        5
176
     1
 90
        0
176
     1
 90
        0
176
     1
290
     0
176
     1
 90
       13
176
     1
 40
0.0
176
     1
 90
        0
176
     1
290
     0
176
     1
290
     1
176
     1
290
     1
176
     1
290
     0
176
     1
290
     0
176
     1
290
     0
176
     1
290
     0
176
     1
290
     0
176
     1
290
     0
176
     1
 90
       50
176
     1
 40
0.0
176
     1
 40
1.0
176
     1
 90
        0
176
     1
 62
    18
420
        0
176
     1
 90
       50
176
     1
 90
        3
176
     1
 62
     5
420
      255
176
     1
290
     0
176
     1
 90
       50
176
     1
 90
       50
176
     1
 90
       50
176
     1
290
     0
176
     1
 90
       50
176
     1
 62
   256
176
     0
 40
1.0
176
     0
 90
        2
176
     1
  1
strokes_ogs.tif
176
     1
290
     0
176
     1
 40
1.0
176
     1
 40
1.0
176
     1
  0
VISUALSTYLE
  5
2B
102
{ACAD_REACTORS
330
29
102
}
330
29
100
AcDbVisualStyle
  2
FlatWithEdges
 70
     1
177
     3
291
     1
 70
    58
 90
        2
176
     1
 90
        1
176
     1
 90
        1
176
     1
 90
        2
176
     1
 40
0.6
176
     1
 40
30.0
176
     1
 62
     7
420
 16777215
176
     1
 90
        1
176
     1
 90
        0
176
     1
 62
     7
176
     1
 62
   257
176
     1
 90
        1
176
     1
 90
        1
176
     1
 40
1.0
176
     1
 90
        0
176
     1
 62
   257
176
     1
 40
1.0
176
     1
 90
        1
176
     1
 90
        6
176
     1
 90
        2
176
     1
 62
     7
176
     1
 90
        5
176
     1
 90
        0
176
     1
 90
        0
176
     1
290
     0
176
     1
 90
       13
176
     1
 40
0.0
176
     1
 90
        0
176
     1
290
     0
176
     1
290
     1
176
     1
290
     1
176
     1
290
     0
176
     1
290
     0
176
     1
290
     0
176
     1
290
     0
176
     1
290
     0
176
     1
290
     0
176
     1
 90
       50
176
     1
 40
0.0
176
     1
 40
1.0
176
     1
 90
        0
176
     1
 62
    18
420
        0
176
     1
 90
       50
176
     1
 90
        3
176
     1
 62
     5
420
      255
176
     1
290
     0
176
     1
 90
       50
176
     1
 90
       50
176
     1
 90
       50
176
     1
290
     0
176
     1
 90
       50
176
     1
 62
   256
176
     0
 40
1.0
176
     0
 90
        2
176
     1
  1
strokes_ogs.tif
176
     1
290
     0
176
     1
 40
1.0
176
     1
 40
1.0
176
     1
  0
VISUALSTYLE
  5
2C
102
{ACAD_REACTORS
330
29
102
}
330
29
100
AcDbVisualStyle
  2
Gouraud
 70
     2
177
     3
291
     1
 70
    58
 90
        2
176
     1
 90
        2
176
     1
 90
        1
176
     1
 90
        2
176
     1
 40
0.6
176
     1
 40
30.0
176
     1
 62
     7
420
 16777215
176
     1
 90
        0
176
     1
 90
        0
176
     1
 62
     7
176
     1
 62
   257
176
     1
 90
        1
176
     1
 90
        1
176
     1
 40
1.0
176
     1
 90
        0
176
     1
 62
     7
176
     1
 40
1.0
176
     1
 90
        1
176
     1
 90
        6
176
     1
 90
        2
176
     1
 62
     7
176
     1
 90
        5
176
     1
 90
        0
176
     1
 90
        0
176
     1
290
     0
176
     1
 90
       13
176
     1
 40
0.0
176
     1
 90
        0
176
     1
290
     0
176
     1
290
     1
176
     1
290
     1
176
     1
290
     0
176
     1
290
     0
176
     1
290
     0
176
     1
290
     0
176
     1
290
     0
176
     1
290
     0
176
     1
 90
       50
176
     1
 40
0.0
176
     1
 40
1.0
176
     1
 90
        0
176
     1
 62
    18
420
        0
176
     1
 90
       50
176
     1
 90
        3
176
     1
 62
     5
420
      255
176
     1
290
     0
176
     1
 90
       50
176
     1
 90
       50
176
     1
 90
       50
176
     1
290
     0
176
     1
 90
       50
176
     1
 62
   256
176
     0
 40
1.0
176
     0
 90
        2
176
     1
  1
strokes_ogs.tif
176
     1
290
     0
176
     1
 40
1.0
176
     1
 40
1.0
176
     1
  0
VISUALSTYLE
  5
2D
102
{ACAD_REACTORS
330
29
102
}
330
29
100
AcDbVisualStyle
  2
GouraudWithEdges
 70
     3
177
     3
291
     1
 70
    58
 90
        2
176
     1
 90
        2
176
     1
 90
        1
176
     1
 90
        2
176
     1
 40
0.6
176
     1
 40
30.0
176
     1
 62
     7
420
 16777215
176
     1
 90
        1
176
     1
 90
        0
176
     1
 62
     7
176
     1
 62
   257
176
     1
 90
        1
176
     1
 90
        1
176
     1
 40
1.0
176
     1
 90
        0
176
     1
 62
   257
176
     1
 40
1.0
176
     1
 90
        1
176
     1
 90
        6
176
     1
 90
        2
176
     1
 62
     7
176
     1
 90
        5
176
     1
 90
        0
176
     1
 90
        0
176
     1
290
     0
176
     1
 90
       13
176
     1
 40
0.0
176
     1
 90
        0
176
     1
290
     0
176
     1
290
     1
176
     1
290
     1
176
     1
290
     0
176
     1
290
     0
176
     1
290
     0
176
     1
290
     0
176
     1
290
     0
176
     1
290
     0
176
     1
 90
       50
176
     1
 40
0.0
176
     1
 40
1.0
176
     1
 90
        0
176
     1
 62
    18
420
        0
176
     1
 90
       50
176
     1
 90
        3
176
     1
 62
     5
420
      255
176
     1
290
     0
176
     1
 90
       50
176
     1
 90
       50
176
     1
 90
       50
176
     1
290
     0
176
     1
 90
       50
176
     1
 62
   256
176
     0
 40
1.0
176
     0
 90
        2
176
     1
  1
strokes_ogs.tif
176
     1
290
     0
176
     1
 40
1.0
176
     1
 40
1.0
176
     1
  0
VISUALSTYLE
  5
31
102
{ACAD_REACTORS
330
29
102
}
330
29
100
AcDbVisualStyle
  2
Hidden
 70
     6
177
     3
291
     0
 70
    58
 90
        1
176
     1
 90
        2
176
     1
 90
        2
176
     1
 90
        0
176
     1
 40
0.6
176
     1
 40
30.0
176
     1
 62
     7
420
 16777215
176
     1
 90
        2
176
     1
 90
        2
176
     1
 62
     7
176
     1
 62
   257
176
     1
 90
        2
176
     1
 90
        1
176
     1
 40
40.0
176
     1
 90
        0
176
     1
 62
   257
176
     1
 40
1.0
176
     1
 90
        1
176
     1
 90
        6
176
     1
 90
        2
176
     1
 62
     7
176
     1
 90
        3
176
     1
 90
        0
176
     1
 90
        0
176
     1
290
     0
176
     1
 90
        1
176
     1
 40
0.0
176
     1
 90
        0
176
     1
290
     0
176
     1
290
     1
176
     1
290
     1
176
     1
290
     0
176
     1
290
     0
176
     1
290
     0
176
     1
290
     0
176
     1
290
     0
176
     1
290
     0
176
     1
 90
       50
176
     1
 40
0.0
176
     1
 40
1.0
176
     1
 90
        0
176
     1
 62
    18
420
        0
176
     1
 90
       50
176
     1
 90
        3
176
     1
 62
     5
420
      255
176
     1
290
     0
176
     1
 90
       50
176
     1
 90
       50
176
     1
 90
       50
176
     1
290
     0
176
     1
 90
       50
176
     1
 62
   256
176
     0
 40
1.0
176
     0
 90
        2
176
     1
  1
strokes_ogs.tif
176
     1
290
     0
176
     1
 40
1.0
176
     1
 40
1.0
176
     1
  0
VISUALSTYLE
  5
3F
102
{ACAD_REACTORS
330
29
102
}
330
29
100
AcDbVisualStyle
  2
JitterOff
 70
    20
177
     3
291
     1
 70
    58
 90
        2
176
     0
 90
        2
176
     0
 90
        0
176
     0
 90
        0
176
     0
 40
0.6
176
     0
 40
30.0
176
     0
 62
     7
420
 16777215
176
     0
 90
        1
176
     0
 90
        4
176
     0
 62
     7
176
     0
 62
   257
176
     0
 90
        1
176
     0
 90
        1
176
     0
 40
1.0
176
     0
 90
       10
176
     2
 62
     7
176
     0
 40
1.0
176
     0
 90
        1
176
     0
 90
        6
176
     0
 90
        2
176
     0
 62
     7
176
     0
 90
        5
176
     0
 90
        0
176
     0
 90
        0
176
     0
290
     0
176
     0
 90
        1
176
     0
 40
0.0
176
     0
 90
        0
176
     0
290
     0
176
     0
290
     1
176
     0
290
     1
176
     0
290
     0
176
     0
290
     0
176
     0
290
     0
176
     0
290
     0
176
     0
290
     0
176
     0
290
     0
176
     0
 90
       50
176
     0
 40
0.0
176
     0
 40
1.0
176
     0
 90
        0
176
     0
 62
    18
420
        0
176
     0
 90
       50
176
     0
 90
        3
176
     0
 62
     5
420
      255
176
     0
290
     0
176
     0
 90
       50
176
     0
 90
       50
176
     0
 90
       50
176
     0
290
     0
176
     0
 90
       50
176
     0
 62
   256
176
     0
 40
1.0
176
     0
 90
        2
176
     0
  1
strokes_ogs.tif
176
     0
290
     0
176
     0
 40
1.0
176
     0
 40
1.0
176
     0
  0
VISUALSTYLE
  5
37
102
{ACAD_REACTORS
330
29
102
}
330
29
100
AcDbVisualStyle
  2
Linepattern
 70
    14
177
     3
291
     1
 70
    58
 90
        2
176
     1
 90
        2
176
     1
 90
        0
176
     1
 90
        0
176
     1
 40
0.6
176
     1
 40
30.0
176
     1
 62
     7
420
 16777215
176
     1
 90
        1
176
     1
 90
        4
176
     1
 62
     7
176
     1
 62
   257
176
     1
 90
        7
176
     1
 90
        7
176
     1
 40
1.0
176
     1
 90
        8
176
     1
 62
     7
176
     1
 40
1.0
176
     1
 90
        1
176
     1
 90
        6
176
     1
 90
        2
176
     1
 62
     7
176
     1
 90
        5
176
     1
 90
        0
176
     1
 90
        0
176
     1
290
     0
176
     1
 90
        1
176
     1
 40
0.0
176
     1
 90
        0
176
     1
290
     0
176
     1
290
     1
176
     1
290
     1
176
     1
290
     0
176
     1
290
     0
176
     1
290
     0
176
     1
290
     0
176
     1
290
     0
176
     1
290
     0
176
     1
 90
       50
176
     1
 40
0.0
176
     1
 40
1.0
176
     1
 90
        0
176
     1
 62
    18
420
        0
176
     1
 90
       50
176
     1
 90
        3
176
     1
 62
     5
420
      255
176
     1
290
     0
176
     1
 90
       50
176
     1
 90
       50
176
     1
 90
       50
176
     1
290
     0
176
     1
 90
       50
176
     1
 62
   256
176
     0
 40
1.0
176
     0
 90
        2
176
     1
  1
strokes_ogs.tif
176
     1
290
     0
176
     1
 40
1.0
176
     1
 40
1.0
176
     1
  0
VISUALSTYLE
  5
40
102
{ACAD_REACTORS
330
29
102
}
330
29
100
AcDbVisualStyle
  2
OverhangOff
 70
    21
177
     3
291
     1
 70
    58
 90
        2
176
     0
 90
        2
176
     0
 90
        0
176
     0
 90
        0
176
     0
 40
0.6
176
     0
 40
30.0
176
     0
 62
     7
420
 16777215
176
     0
 90
        1
176
     0
 90
        4
176
     0
 62
     7
176
     0
 62
   257
176
     0
 90
        1
176
     0
 90
        1
176
     0
 40
1.0
176
     0
 90
        9
176
     2
 62
     7
176
     0
 40
1.0
176
     0
 90
        1
176
     0
 90
        6
176
     0
 90
        2
176
     0
 62
     7
176
     0
 90
        5
176
     0
 90
        0
176
     0
 90
        0
176
     0
290
     0
176
     0
 90
        1
176
     0
 40
0.0
176
     0
 90
        0
176
     0
290
     0
176
     0
290
     1
176
     0
290
     1
176
     0
290
     0
176
     0
290
     0
176
     0
290
     0
176
     0
290
     0
176
     0
290
     0
176
     0
290
     0
176
     0
 90
       50
176
     0
 40
0.0
176
     0
 40
1.0
176
     0
 90
        0
176
     0
 62
    18
420
        0
176
     0
 90
       50
176
     0
 90
        3
176
     0
 62
     5
420
      255
176
     0
290
     0
176
     0
 90
       50
176
     0
 90
       50
176
     0
 90
       50
176
     0
290
     0
176
     0
 90
       50
176
     0
 62
   256
176
     0
 40
1.0
176
     0
 90
        2
176
     0
  1
strokes_ogs.tif
176
     0
290
     0
176
     0
 40
1.0
176
     0
 40
1.0
176
     0
  0
VISUALSTYLE
  5
33
102
{ACAD_REACTORS
330
29
102
}
330
29
100
AcDbVisualStyle
  2
Realistic
 70
     8
177
     3
291
     0
 70
    58
 90
        2
176
     1
 90
        3
176
     1
 90
        0
176
     1
 90
        2
176
     1
 40
0.6
176
     1
 40
30.0
176
     1
 62
     7
420
 16777215
176
     1
 90
        0
176
     1
 90
        0
176
     1
 62
     7
176
     1
 62
   257
176
     1
 90
        1
176
     1
 90
        1
176
     1
 40
1.0
176
     1
 90
        8
176
     1
 62
   257
176
     1
 40
1.0
176
     1
 90
        1
176
     1
 90
        6
176
     1
 90
        2
176
     1
 62
     7
176
     1
 90
        3
176
     1
 90
        0
176
     1
 90
        0
176
     1
290
     0
176
     1
 90
       13
176
     1
 40
0.0
176
     1
 90
        0
176
     1
290
     0
176
     1
290
     1
176
     1
290
     1
176
     1
290
     0
176
     1
290
     0
176
     1
290
     0
176
     1
290
     0
176
     1
290
     0
176
     1
290
     0
176
     1
 90
       50
176
     1
 40
0.0
176
     1
 40
1.0
176
     1
 90
        0
176
     1
 62
    18
420
        0
176
     1
 90
       50
176
     1
 90
        3
176
     1
 62
     5
420
      255
176
     1
290
     0
176
     1
 90
       50
176
     1
 90
       50
176
     1
 90
       50
176
     1
290
     0
176
     1
 90
       50
176
     1
 62
   256
176
     0
 40
1.0
176
     0
 90
        2
176
     1
  1
strokes_ogs.tif
176
     1
290
     0
176
     1
 40
1.0
176
     1
 40
1.0
176
     1
  0
VISUALSTYLE
  5
3E
102
{ACAD_REACTORS
330
29
102
}
330
29
100
AcDbVisualStyle
  2
Shaded
 70
    27
177
     3
291
     0
 70
    58
 90
        2
176
     1
 90
        2
176
     1
 90
        1
176
     1
 90
        2
176
     1
 40
0.6
176
     1
 40
30.0
176
     1
 62
     7
420
 16777215
176
     1
 90
        0
176
     1
 90
        4
176
     1
 62
     7
176
     1
 62
   257
176
     1
 90
        1
176
     1
 90
        1
176
     1
 40
1.0
176
     1
 90
        8
176
     1
 62
   257
176
     1
 40
1.0
176
     1
 90
        1
176
     1
 90
        6
176
     1
 90
        2
176
     1
 62
     8
420
  7895160
176
     1
 90
        3
176
     1
 90
        0
176
     1
 90
        0
176
     1
290
     0
176
     1
 90
        5
176
     1
 40
0.0
176
     1
 90
        0
176
     1
290
     0
176
     1
290
     1
176
     1
290
     1
176
     1
290
     0
176
     1
290
     0
176
     1
290
     0
176
     1
290
     0
176
     1
290
     0
176
     1
290
     0
176
     1
 90
       50
176
     1
 40
0.0
176
     1
 40
1.0
176
     1
 90
        0
176
     1
 62
    18
420
        0
176
     1
 90
       50
176
     1
 90
        3
176
     1
 62
     5
420
      255
176
     1
290
     0
176
     1
 90
       50
176
     1
 90
       50
176
     1
 90
       50
176
     1
290
     0
176
     1
 90
       50
176
     1
 62
   256
176
     0
 40
1.0
176
     0
 90
        2
176
     1
  1
strokes_ogs.tif
176
     1
290
     0
176
     1
 40
1.0
176
     1
 40
1.0
176
     1
  0
VISUALSTYLE
  5
3D
102
{ACAD_REACTORS
330
29
102
}
330
29
100
AcDbVisualStyle
  2
Shaded with edges
 70
    26
177
     3
291
     0
 70
    58
 90
        2
176
     1
 90
        2
176
     1
 90
        1
176
     1
 90
        2
176
     1
 40
0.6
176
     1
 40
30.0
176
     1
 62
     7
420
 16777215
176
     1
 90
        1
176
     1
 90
        2
176
     1
 62
     7
176
     1
 62
   257
176
     1
 90
        2
176
     1
 90
        1
176
     1
 40
1.0
176
     1
 90
        8
176
     1
 62
   257
176
     1
 40
1.0
176
     1
 90
        1
176
     1
 90
        6
176
     1
 90
        2
176
     1
 62
     7
176
     1
 90
        3
176
     1
 90
        0
176
     1
 90
        0
176
     1
290
     0
176
     1
 90
        5
176
     1
 40
0.0
176
     1
 90
        0
176
     1
290
     0
176
     1
290
     1
176
     1
290
     1
176
     1
290
     0
176
     1
290
     0
176
     1
290
     0
176
     1
290
     0
176
     1
290
     0
176
     1
290
     0
176
     1
 90
       50
176
     1
 40
0.0
176
     1
 40
1.0
176
     1
 90
        0
176
     1
 62
    18
420
        0
176
     1
 90
       50
176
     1
 90
        3
176
     1
 62
     5
420
      255
176
     1
290
     0
176
     1
 90
       50
176
     1
 90
       50
176
     1
 90
       50
176
     1
290
     0
176
     1
 90
       50
176
     1
 62
   256
176
     0
 40
1.0
176
     0
 90
        2
176
     1
  1
strokes_ogs.tif
176
     1
290
     0
176
     1
 40
1.0
176
     1
 40
1.0
176
     1
  0
VISUALSTYLE
  5
3A
102
{ACAD_REACTORS
330
29
102
}
330
29
100
AcDbVisualStyle
  2
Shades of Gray
 70
    23
177
     3
291
     0
 70
    58
 90
        2
176
     1
 90
        2
176
     1
 90
        3
176
     1
 90
        0
176
     1
 40
0.6
176
     1
 40
30.0
176
     1
 62
     7
420
 16777215
176
     1
 90
        2
176
     1
 90
        2
176
     1
 62
     7
176
     1
 62
     7
176
     1
 90
        1
176
     1
 90
        1
176
     1
 40
40.0
176
     1
 90
        8
176
     1
 62
     7
176
     1
 40
1.0
176
     1
 90
        1
176
     1
 90
        6
176
     1
 90
        2
176
     1
 62
     7
176
     1
 90
        3
176
     1
 90
        0
176
     1
 90
        0
176
     1
290
     0
176
     1
 90
        1
176
     1
 40
0.0
176
     1
 90
        0
176
     1
290
     0
176
     1
290
     1
176
     1
290
     1
176
     1
290
     0
176
     1
290
     0
176
     1
290
     0
176
     1
290
     0
176
     1
290
     0
176
     1
290
     0
176
     1
 90
       50
176
     1
 40
0.0
176
     1
 40
1.0
176
     1
 90
        0
176
     1
 62
    18
420
        0
176
     1
 90
       50
176
     1
 90
        3
176
     1
 62
     5
420
      255
176
     1
290
     0
176
     1
 90
       50
176
     1
 90
       50
176
     1
 90
       50
176
     1
290
     0
176
     1
 90
       50
176
     1
 62
   256
176
     0
 40
1.0
176
     0
 90
        2
176
     1
  1
strokes_ogs.tif
176
     1
290
     0
176
     1
 40
1.0
176
     1
 40
1.0
176
     1
  0
VISUALSTYLE
  5
3B
102
{ACAD_REACTORS
330
29
102
}
330
29
100
AcDbVisualStyle
  2
Sketchy
 70
    24
177
     3
291
     0
 70
    58
 90
        1
176
     1
 90
        2
176
     1
 90
        2
176
     1
 90
        0
176
     1
 40
0.6
176
     1
 40
30.0
176
     1
 62
     7
420
 16777215
176
     1
 90
        2
176
     1
 90
        2
176
     1
 62
     7
176
     1
 62
     7
176
     1
 90
        1
176
     1
 90
        1
176
     1
 40
40.0
176
     1
 90
       11
176
     1
 62
     7
176
     1
 40
1.0
176
     1
 90
        1
176
     1
 90
        6
176
     1
 90
        2
176
     1
 62
     7
176
     1
 90
        6
176
     1
 90
        0
176
     1
 90
        0
176
     1
290
     0
176
     1
 90
        1
176
     1
 40
0.0
176
     1
 90
        0
176
     1
290
     0
176
     1
290
     1
176
     1
290
     1
176
     1
290
     0
176
     1
290
     0
176
     1
290
     0
176
     1
290
     0
176
     1
290
     0
176
     1
290
     0
176
     1
 90
       50
176
     1
 40
0.0
176
     1
 40
1.0
176
     1
 90
        0
176
     1
 62
    18
420
        0
176
     1
 90
       50
176
     1
 90
        3
176
     1
 62
     5
420
      255
176
     1
290
     0
176
     1
 90
       50
176
     1
 90
       50
176
     1
 90
       50
176
     1
290
     0
176
     1
 90
       50
176
     1
 62
   256
176
     0
 40
1.0
176
     0
 90
        2
176
     1
  1
strokes_ogs.tif
176
     1
290
     0
176
     1
 40
1.0
176
     1
 40
1.0
176
     1
  0
VISUALSTYLE
  5
36
102
{ACAD_REACTORS
330
29
102
}
330
29
100
AcDbVisualStyle
  2
Thicken
 70
    13
177
     3
291
     1
 70
    58
 90
        2
176
     1
 90
        2
176
     1
 90
        0
176
     1
 90
        0
176
     1
 40
0.6
176
     1
 40
30.0
176
     1
 62
     7
420
 16777215
176
     1
 90
        1
176
     1
 90
        4
176
     1
 62
     7
176
     1
 62
   257
176
     1
 90
        1
176
     1
 90
        1
176
     1
 40
1.0
176
     1
 90
       12
176
     1
 62
     7
176
     1
 40
1.0
176
     1
 90
        1
176
     1
 90
        6
176
     1
 90
        2
176
     1
 62
     7
176
     1
 90
        5
176
     1
 90
        0
176
     1
 90
        0
176
     1
290
     0
176
     1
 90
        1
176
     1
 40
0.0
176
     1
 90
        0
176
     1
290
     0
176
     1
290
     1
176
     1
290
     1
176
     1
290
     0
176
     1
290
     0
176
     1
290
     0
176
     1
290
     0
176
     1
290
     0
176
     1
290
     0
176
     1
 90
       50
176
     1
 40
0.0
176
     1
 40
1.0
176
     1
 90
        0
176
     1
 62
    18
420
        0
176
     1
 90
       50
176
     1
 90
        3
176
     1
 62
     5
420
      255
176
     1
290
     0
176
     1
 90
       50
176
     1
 90
       50
176
     1
 90
       50
176
     1
290
     0
176
     1
 90
       50
176
     1
 62
   256
176
     0
 40
1.0
176
     0
 90
        2
176
     1
  1
strokes_ogs.tif
176
     1
290
     0
176
     1
 40
1.0
176
     1
 40
1.0
176
     1
  0
VISUALSTYLE
  5
30
102
{ACAD_REACTORS
330
29
102
}
330
29
100
AcDbVisualStyle
  2
Wireframe
 70
     5
177
     3
291
     0
 70
    58
 90
        0
176
     1
 90
        2
176
     1
 90
        0
176
     1
 90
        0
176
     1
 40
0.6
176
     1
 40
30.0
176
     1
 62
     7
420
 16777215
176
     1
 90
        1
176
     1
 90
        4
176
     1
 62
     7
176
     1
 62
   257
176
     1
 90
        1
176
     1
 90
        1
176
     1
 40
1.0
176
     1
 90
        0
176
     1
 62
   257
176
     1
 40
1.0
176
     1
 90
        1
176
     1
 90
        6
176
     1
 90
        2
176
     1
 62
     7
176
     1
 90
        3
176
     1
 90
        0
176
     1
 90
        0
176
     1
290
     0
176
     1
 90
        1
176
     1
 40
0.0
176
     1
 90
        0
176
     1
290
     0
176
     1
290
     1
176
     1
290
     1
176
     1
290
     0
176
     1
290
     0
176
     1
290
     0
176
     1
290
     0
176
     1
290
     0
176
     1
290
     0
176
     1
 90
       50
176
     1
 40
0.0
176
     1
 40
1.0
176
     1
 90
        0
176
     1
 62
    18
420
        0
176
     1
 90
       50
176
     1
 90
        3
176
     1
 62
     5
420
      255
176
     1
290
     0
176
     1
 90
       50
176
     1
 90
       50
176
     1
 90
       50
176
     1
290
     0
176
     1
 90
       50
176
     1
 62
   256
176
     0
 40
1.0
176
     0
 90
        2
176
     1
  1
strokes_ogs.tif
176
     1
290
     0
176
     1
 40
1.0
176
     1
 40
1.0
176
     1
  0
VISUALSTYLE
  5
3C
102
{ACAD_REACTORS
330
29
102
}
330
29
100
AcDbVisualStyle
  2
X-Ray
 70
    25
177
     3
291
     0
 70
    58
 90
        2
176
     1
 90
        2
176
     1
 90
        1
176
     1
 90
        1
176
     1
 40
0.5
176
     1
 40
30.0
176
     1
 62
     7
420
 16777215
176
     1
 90
        1
176
     1
 90
        0
176
     1
 62
     7
176
     1
 62
   257
176
     1
 90
        1
176
     1
 90
        1
176
     1
 40
1.0
176
     1
 90
        8
176
     1
 62
     7
176
     1
 40
1.0
176
     1
 90
        1
176
     1
 90
        6
176
     1
 90
        2
176
     1
 62
     7
176
     1
 90
        3
176
     1
 90
        0
176
     1
 90
        0
176
     1
290
     0
176
     1
 90
       13
176
     1
 40
0.0
176
     1
 90
        0
176
     1
290
     0
176
     1
290
     1
176
     1
290
     1
176
     1
290
     0
176
     1
290
     0
176
     1
290
     0
176
     1
290
     0
176
     1
290
     0
176
     1
290
     0
176
     1
 90
       50
176
     1
 40
0.0
176
     1
 40
1.0
176
     1
 90
        0
176
     1
 62
    18
420
        0
176
     1
 90
       50
176
     1
 90
        3
176
     1
 62
     5
420
      255
176
     1
290
     0
176
     1
 90
       50
176
     1
 90
       50
176
     1
 90
       50
176
     1
290
     0
176
     1
 90
       50
176
     1
 62
   256
176
     0
 40
1.0
176
     0
 90
        2
176
     1
  1
strokes_ogs.tif
176
     1
290
     0
176
     1
 40
1.0
176
     1
 40
1.0
176
     1
  0
DICTIONARYVAR
  5
99
102
{ACAD_REACTORS
330
94
102
}
330
94
100
DictionaryVariables
280
     0
  1
1:1
  0
DICTIONARYVAR
  5
96
102
{ACAD_REACTORS
330
94
102
}
330
94
100
DictionaryVariables
280
     0
  1
STANDARD
  0
DICTIONARYVAR
  5
95
102
{ACAD_REACTORS
330
94
102
}
330
94
100
DictionaryVariables
280
     0
  1
STANDARD
  0
DICTIONARYVAR
  5
97
102
{ACAD_REACTORS
330
94
102
}
330
94
100
DictionaryVariables
280
     0
  1
Imperial24
  0
DICTIONARYVAR
  5
98
102
{ACAD_REACTORS
330
94
102
}
330
94
100
DictionaryVariables
280
     0
  1
Imperial24
  0
DICTIONARY
  5
1A
330
19
100
AcDbDictionary
280
     1
281
     1
  3
BUMPTILE
360
1C
  3
DIFFUSETILE
360
1B
  3
OPACITYTILE
360
1F
  3
REFLECTIONTILE
360
1E
  3
REFRACTIONTILE
360
20
  3
SPECULARTILE
360
1D
  0
DICTIONARY
  5
12
330
11
100
AcDbDictionary
280
     1
281
     1
  3
BUMPTILE
360
14
  3
DIFFUSETILE
360
13
  3
OPACITYTILE
360
17
  3
REFLECTIONTILE
360
16
  3
REFRACTIONTILE
360
18
  3
SPECULARTILE
360
15
  0
DICTIONARY
  5
22
330
21
100
AcDbDictionary
280
     1
281
     1
  3
BUMPTILE
360
24
  3
DIFFUSETILE
360
23
  3
OPACITYTILE
360
27
  3
REFLECTIONTILE
360
26
  3
REFRACTIONTILE
360
28
  3
SPECULARTILE
360
25
  0
DICTIONARY
  5
9A
330
65
100
AcDbDictionary
280
     1
281
     1
  3
ACAD_ROUNDTRIP_2008_TABLESTYLE_CELLSTYLEMAP
360
9B
  0
XRECORD
  5
1C
102
{ACAD_REACTORS
330
1A
102
}
330
1A
100
AcDbXrecord
280
     1
270
     1
271
     1
  0
XRECORD
  5
1B
102
{ACAD_REACTORS
330
1A
102
}
330
1A
100
AcDbXrecord
280
     1
270
     1
271
     1
  0
XRECORD
  5
1F
102
{ACAD_REACTORS
330
1A
102
}
330
1A
100
AcDbXrecord
280
     1
270
     1
271
     1
  0
XRECORD
  5
1E
102
{ACAD_REACTORS
330
1A
102
}
330
1A
100
AcDbXrecord
280
     1
270
     1
271
     1
  0
XRECORD
  5
20
102
{ACAD_REACTORS
330
1A
102
}
330
1A
100
AcDbXrecord
280
     1
270
     1
271
     1
  0
XRECORD
  5
1D
102
{ACAD_REACTORS
330
1A
102
}
330
1A
100
AcDbXrecord
280
     1
270
     1
271
     1
  0
XRECORD
  5
14
102
{ACAD_REACTORS
330
12
102
}
330
12
100
AcDbXrecord
280
     1
270
     1
271
     1
  0
XRECORD
  5
13
102
{ACAD_REACTORS
330
12
102
}
330
12
100
AcDbXrecord
280
     1
270
     1
271
     1
  0
XRECORD
  5
17
102
{ACAD_REACTORS
330
12
102
}
330
12
100
AcDbXrecord
280
     1
270
     1
271
     1
  0
XRECORD
  5
16
102
{ACAD_REACTORS
330
12
102
}
330
12
100
AcDbXrecord
280
     1
270
     1
271
     1
  0
XRECORD
  5
18
102
{ACAD_REACTORS
330
12
102
}
330
12
100
AcDbXrecord
280
     1
270
     1
271
     1
  0
XRECORD
  5
15
102
{ACAD_REACTORS
330
12
102
}
330
12
100
AcDbXrecord
280
     1
270
     1
271
     1
  0
XRECORD
  5
24
102
{ACAD_REACTORS
330
22
102
}
330
22
100
AcDbXrecord
280
     1
270
     1
271
     1
  0
XRECORD
  5
23
102
{ACAD_REACTORS
330
22
102
}
330
22
100
AcDbXrecord
280
     1
270
     1
271
     1
  0
XRECORD
  5
27
102
{ACAD_REACTORS
330
22
102
}
330
22
100
AcDbXrecord
280
     1
270
     1
271
     1
  0
XRECORD
  5
26
102
{ACAD_REACTORS
330
22
102
}
330
22
100
AcDbXrecord
280
     1
270
     1
271
     1
  0
XRECORD
  5
28
102
{ACAD_REACTORS
330
22
102
}
330
22
100
AcDbXrecord
280
     1
270
     1
271
     1
  0
XRECORD
  5
25
102
{ACAD_REACTORS
330
22
102
}
330
22
100
AcDbXrecord
280
     1
270
     1
271
     1
  0
CELLSTYLEMAP
  5
9B
102
{ACAD_REACTORS
330
9A
102
}
330
9A
100
AcDbCellStyleMap
 90
        3
300
CELLSTYLE
  1
TABLEFORMAT_BEGIN
 90
        5
170
     1
 91
        0
 92
    32768
 62
   257
 93
        1
300
CONTENTFORMAT
  1
CONTENTFORMAT_BEGIN
 90
        0
 91
        0
 92
      512
 93
        0
300

 40
0.0
140
1.0
 94
        5
 62
     0
340
55
144
0.25
309
CONTENTFORMAT_END
171
     0
 94
        0
309
TABLEFORMAT_END
  1
CELLSTYLE_BEGIN
 90
        1
 91
        1
300
_TITLE
309
CELLSTYLE_END
300
CELLSTYLE
  1
TABLEFORMAT_BEGIN
 90
        5
170
     1
 91
        0
 92
        0
 62
   257
 93
        1
300
CONTENTFORMAT
  1
CONTENTFORMAT_BEGIN
 90
        0
 91
        0
 92
      512
 93
        0
300

 40
0.0
140
1.0
 94
        5
 62
     0
340
55
144
0.18
309
CONTENTFORMAT_END
171
     0
 94
        0
309
TABLEFORMAT_END
  1
CELLSTYLE_BEGIN
 90
        2
 91
        1
300
_HEADER
309
CELLSTYLE_END
300
CELLSTYLE
  1
TABLEFORMAT_BEGIN
 90
        5
170
     1
 91
        0
 92
        0
 62
   257
 93
        1
300
CONTENTFORMAT
  1
CONTENTFORMAT_BEGIN
 90
        0
 91
        0
 92
      512
 93
        0
300

 40
0.0
140
1.0
 94
        2
 62
     0
340
55
144
0.18
309
CONTENTFORMAT_END
171
     0
 94
        0
309
TABLEFORMAT_END
  1
CELLSTYLE_BEGIN
 90
        3
 91
        2
300
_DATA
309
CELLSTYLE_END
  0
ENDSEC
  0
EOF
