  0
SECTION
  2
HEADER
  9
$ACADVER
  1
AC1032
  9
$ACADMAINTVER
 90
      228
  9
$DWGCODEPAGE
  3
ANSI_1252
  9
$REQUIREDVERSIONS
160
                 0
  9
$INSBASE
 10
0.0
 20
0.0
 30
0.0
  9
$EXTMIN
 10
1.000000000000000E+20
 20
1.000000000000000E+20
 30
1.000000000000000E+20
  9
$EXTMAX
 10
-1.000000000000000E+20
 20
-1.000000000000000E+20
 30
-1.000000000000000E+20
  9
$LIMMIN
 10
0.0
 20
0.0
  9
$LIMMAX
 10
12.0
 20
9.0
  9
$ORTHOMODE
 70
     0
  9
$REGENMODE
 70
     1
  9
$FILLMODE
 70
     1
  9
$QTEXTMODE
 70
     0
  9
$MIRRTEXT
 70
     0
  9
$LTSCALE
 40
1.0
  9
$ATTMODE
 70
     1
  9
$TEXTSIZE
 40
0.2
  9
$TRACEWID
 40
0.05
  9
$TEXTSTYLE
  7
Standard
  9
$CLAYER
  8
0
  9
$CELTYPE
  6
ByLayer
  9
$CECOLOR
 62
   256
  9
$CELTSCALE
 40
1.0
  9
$DISPSILH
 70
     0
  9
$DIMSCALE
 40
1.0
  9
$DIMASZ
 40
0.18
  9
$DIMEXO
 40
0.0625
  9
$DIMDLI
 40
0.38
  9
$DIMRND
 40
0.0
  9
$DIMDLE
 40
0.0
  9
$DIMEXE
 40
0.18
  9
$DIMTP
 40
0.0
  9
$DIMTM
 40
0.0
  9
$DIMTXT
 40
0.18
  9
$DIMCEN
 40
0.09
  9
$DIMTSZ
 40
0.0
  9
$DIMTOL
 70
     0
  9
$DIMLIM
 70
     0
  9
$DIMTIH
 70
     1
  9
$DIMTOH
 70
     1
  9
$DIMSE1
 70
     0
  9
$DIMSE2
 70
     0
  9
$DIMTAD
 70
     0
  9
$DIMZIN
 70
     0
  9
$DIMBLK
  1

  9
$DIMASO
 70
     1
  9
$DIMSHO
 70
     1
  9
$DIMPOST
  1

  9
$DIMAPOST
  1

  9
$DIMALT
 70
     0
  9
$DIMALTD
 70
     2
  9
$DIMALTF
 40
25.4
  9
$DIMLFAC
 40
1.0
  9
$DIMTOFL
 70
     0
  9
$DIMTVP
 40
0.0
  9
$DIMTIX
 70
     0
  9
$DIMSOXD
 70
     0
  9
$DIMSAH
 70
     0
  9
$DIMBLK1
  1

  9
$DIMBLK2
  1

  9
$DIMSTYLE
  2
Standard
  9
$DIMCLRD
 70
     0
  9
$DIMCLRE
 70
     0
  9
$DIMCLRT
 70
     0
  9
$DIMTFAC
 40
1.0
  9
$DIMGAP
 40
0.09
  9
$DIMJUST
 70
     0
  9
$DIMSD1
 70
     0
  9
$DIMSD2
 70
     0
  9
$DIMTOLJ
 70
     1
  9
$DIMTZIN
 70
     0
  9
$DIMALTZ
 70
     0
  9
$DIMALTTZ
 70
     0
  9
$DIMUPT
 70
     0
  9
$DIMDEC
 70
     4
  9
$DIMTDEC
 70
     4
  9
$DIMALTU
 70
     2
  9
$DIMALTTD
 70
     2
  9
$DIMTXSTY
  7
Standard
  9
$DIMAUNIT
 70
     0
  9
$DIMADEC
 70
     0
  9
$DIMALTRND
 40
0.0
  9
$DIMAZIN
 70
     0
  9
$DIMDSEP
 70
    46
  9
$DIMATFIT
 70
     3
  9
$DIMFRAC
 70
     0
  9
$DIMLDRBLK
  1

  9
$DIMLUNIT
 70
     2
  9
$DIMLWD
 70
    -2
  9
$DIMLWE
 70
    -2
  9
$DIMTMOVE
 70
     0
  9
$DIMFXL
 40
1.0
  9
$DIMFXLON
 70
     0
  9
$DIMJOGANG
 40
0.7853981633974483
  9
$DIMTFILL
 70
     0
  9
$DIMTFILLCLR
 70
     0
  9
$DIMARCSYM
 70
     0
  9
$DIMLTYPE
  6

  9
$DIMLTEX1
  6

  9
$DIMLTEX2
  6

  9
$DIMTXTDIRECTION
 70
     0
  9
$LUNITS
 70
     2
  9
$LUPREC
 70
     4
  9
$SKETCHINC
 40
0.1
  9
$FILLETRAD
 40
0.0
  9
$AUNITS
 70
     0
  9
$AUPREC
 70
     0
  9
$MENU
  1
.
  9
$ELEVATION
 40
0.0
  9
$PELEVATION
 40
0.0
  9
$THICKNESS
 40
0.0
  9
$LIMCHECK
 70
     0
  9
$CHAMFERA
 40
0.0
  9
$CHAMFERB
 40
0.0
  9
$CHAMFERC
 40
0.0
  9
$CHAMFERD
 40
0.0
  9
$SKPOLY
 70
     0
  9
$TDCREATE
 40
2460929.580092593
  9
$TDUCREATE
 40
2460929.371759259
  9
$TDUPDATE
 40
2460929.580092593
  9
$TDUUPDATE
 40
2460929.371759259
  9
$TDINDWG
 40
0.0000000000
  9
$TDUSRTIMER
 40
0.0000000000
  9
$USRTIMER
 70
     1
  9
$ANGBASE
 50
0.0
  9
$ANGDIR
 70
     0
  9
$PDMODE
 70
     0
  9
$PDSIZE
 40
0.0
  9
$PLINEWID
 40
0.0
  9
$SPLFRAME
 70
     0
  9
$SPLINETYPE
 70
     6
  9
$SPLINESEGS
 70
     8
  9
$HANDSEED
  5
8E
  9
$SURFTAB1
 70
     6
  9
$SURFTAB2
 70
     6
  9
$SURFTYPE
 70
     6
  9
$SURFU
 70
     6
  9
$SURFV
 70
     6
  9
$UCSBASE
  2

  9
$UCSNAME
  2

  9
$UCSORG
 10
0.0
 20
0.0
 30
0.0
  9
$UCSXDIR
 10
1.0
 20
0.0
 30
0.0
  9
$UCSYDIR
 10
0.0
 20
1.0
 30
0.0
  9
$UCSORTHOREF
  2

  9
$UCSORTHOVIEW
 70
     0
  9
$UCSORGTOP
 10
0.0
 20
0.0
 30
0.0
  9
$UCSORGBOTTOM
 10
0.0
 20
0.0
 30
0.0
  9
$UCSORGLEFT
 10
0.0
 20
0.0
 30
0.0
  9
$UCSORGRIGHT
 10
0.0
 20
0.0
 30
0.0
  9
$UCSORGFRONT
 10
0.0
 20
0.0
 30
0.0
  9
$UCSORGBACK
 10
0.0
 20
0.0
 30
0.0
  9
$PUCSBASE
  2

  9
$PUCSNAME
  2

  9
$PUCSORG
 10
0.0
 20
0.0
 30
0.0
  9
$PUCSXDIR
 10
1.0
 20
0.0
 30
0.0
  9
$PUCSYDIR
 10
0.0
 20
1.0
 30
0.0
  9
$PUCSORTHOREF
  2

  9
$PUCSORTHOVIEW
 70
     0
  9
$PUCSORGTOP
 10
0.0
 20
0.0
 30
0.0
  9
$PUCSORGBOTTOM
 10
0.0
 20
0.0
 30
0.0
  9
$PUCSORGLEFT
 10
0.0
 20
0.0
 30
0.0
  9
$PUCSORGRIGHT
 10
0.0
 20
0.0
 30
0.0
  9
$PUCSORGFRONT
 10
0.0
 20
0.0
 30
0.0
  9
$PUCSORGBACK
 10
0.0
 20
0.0
 30
0.0
  9
$USERI1
 70
     0
  9
$USERI2
 70
     0
  9
$USERI3
 70
     0
  9
$USERI4
 70
     0
  9
$USERI5
 70
     0
  9
$USERR1
 40
0.0
  9
$USERR2
 40
0.0
  9
$USERR3
 40
0.0
  9
$USERR4
 40
0.0
  9
$USERR5
 40
0.0
  9
$WORLDVIEW
 70
     1
  9
$SHADEDGE
 70
     3
  9
$SHADEDIF
 70
    70
  9
$TILEMODE
 70
     1
  9
$MAXACTVP
 70
    64
  9
$PINSBASE
 10
0.0
 20
0.0
 30
0.0
  9
$PLIMCHECK
 70
     0
  9
$PEXTMIN
 10
1.000000000000000E+20
 20
1.000000000000000E+20
 30
1.000000000000000E+20
  9
$PEXTMAX
 10
-1.000000000000000E+20
 20
-1.000000000000000E+20
 30
-1.000000000000000E+20
  9
$PLIMMIN
 10
0.0
 20
0.0
  9
$PLIMMAX
 10
12.0
 20
9.0
  9
$UNITMODE
 70
     0
  9
$VISRETAIN
 70
     1
  9
$PLINEGEN
 70
     0
  9
$PSLTSCALE
 70
     1
  9
$TREEDEPTH
 70
  3020
  9
$CMLSTYLE
  2
Standard
  9
$CMLJUST
 70
     0
  9
$CMLSCALE
 40
1.0
  9
$PROXYGRAPHICS
 70
     1
  9
$MEASUREMENT
 70
     0
  9
$CELWEIGHT
370
    -1
  9
$ENDCAPS
280
     0
  9
$JOINSTYLE
280
     0
  9
$LWDISPLAY
290
     1
  9
$INSUNITS
 70
     0
  9
$HYPERLINKBASE
  1

  9
$STYLESHEET
  1

  9
$XEDIT
290
     1
  9
$CEPSNTYPE
380
     0
  9
$PSTYLEMODE
290
     1
  9
$FINGERPRINTGUID
  2
{073026A1-6C65-3540-BAA6-F8840D6489A7}
  9
$VERSIONGUID
  2
{05CA91D8-305D-D740-B49B-045D7498E2BE}
  9
$EXTNAMES
290
     1
  9
$PSVPSCALE
 40
0.0
  9
$OLESTARTUP
290
     0
  9
$SORTENTS
280
   127
  9
$INDEXCTL
280
     0
  9
$HIDETEXT
280
     1
  9
$XCLIPFRAME
280
     2
  9
$HALOGAP
280
     0
  9
$OBSCOLOR
 70
   257
  9
$OBSLTYPE
280
     0
  9
$INTERSECTIONDISPLAY
280
     0
  9
$INTERSECTIONCOLOR
 70
   257
  9
$DIMASSOC
280
     2
  9
$PROJECTNAME
  1

  9
$CAMERADISPLAY
290
     0
  9
$LENSLENGTH
 40
50.0
  9
$CAMERAHEIGHT
 40
0.0
  9
$STEPSPERSEC
 40
2.0
  9
$STEPSIZE
 40
6.0
  9
$3DDWFPREC
 40
2.0
  9
$PSOLWIDTH
 40
0.25
  9
$PSOLHEIGHT
 40
4.0
  9
$LOFTANG1
 40
1.570796326794896
  9
$LOFTANG2
 40
1.570796326794896
  9
$LOFTMAG1
 40
0.0
  9
$LOFTMAG2
 40
0.0
  9
$LOFTPARAM
 70
     7
  9
$LOFTNORMALS
280
     1
  9
$LATITUDE
 40
37.795
  9
$LONGITUDE
 40
-122.394
  9
$NORTHDIRECTION
 40
0.0
  9
$TIMEZONE
 70
 -8000
  9
$LIGHTGLYPHDISPLAY
280
     1
  9
$TILEMODELIGHTSYNCH
280
     1
  9
$CMATERIAL
347
11
  9
$SOLIDHIST
280
     0
  9
$SHOWHIST
280
     1
  9
$DWFFRAME
280
     2
  9
$DGNFRAME
280
     0
  9
$REALWORLDSCALE
290
     1
  9
$INTERFERECOLOR
 62
     1
  9
$INTERFEREOBJVS
345
33
  9
$INTERFEREVPVS
346
30
  9
$CSHADOW
280
     0
  9
$SHADOWPLANELOCATION
 40
0.0
  0
ENDSEC
  0
SECTION
  2
CLASSES
  0
CLASS
  1
ACDBDICTIONARYWDFLT
  2
AcDbDictionaryWithDefault
  3
ObjectDBX Classes
 90
        0
 91
        1
280
     0
281
     0
  0
CLASS
  1
MATERIAL
  2
AcDbMaterial
  3
ObjectDBX Classes
 90
     1153
 91
        3
280
     0
281
     0
  0
CLASS
  1
VISUALSTYLE
  2
AcDbVisualStyle
  3
ObjectDBX Classes
 90
     4095
 91
       24
280
     0
281
     0
  0
CLASS
  1
SCALE
  2
AcDbScale
  3
ObjectDBX Classes
 90
     1153
 91
       17
280
     0
281
     0
  0
CLASS
  1
TABLESTYLE
  2
AcDbTableStyle
  3
ObjectDBX Classes
 90
     4095
 91
        1
280
     0
281
     0
  0
CLASS
  1
MLEADERSTYLE
  2
AcDbMLeaderStyle
  3
ACDB_MLEADERSTYLE_CLASS
 90
     4095
 91
        1
280
     0
281
     0
  0
CLASS
  1
ACDBSECTIONVIEWSTYLE
  2
AcDbSectionViewStyle
  3
ObjectDBX Classes
 90
     1025
 91
        1
280
     0
281
     0
  0
CLASS
  1
ACDBDETAILVIEWSTYLE
  2
AcDbDetailViewStyle
  3
ObjectDBX Classes
 90
     1025
 91
        1
280
     0
281
     0
  0
CLASS
  1
DICTIONARYVAR
  2
AcDbDictionaryVar
  3
ObjectDBX Classes
 90
        0
 91
        5
280
     0
281
     0
  0
CLASS
  1
CELLSTYLEMAP
  2
AcDbCellStyleMap
  3
ObjectDBX Classes
 90
     1152
 91
        1
280
     0
281
     0
  0
ENDSEC
  0
SECTION
  2
TABLES
  0
TABLE
  2
VPORT
  5
8
330
0
100
AcDbSymbolTable
 70
     1
  0
VPORT
  5
57
330
8
100
AcDbSymbolTableRecord
100
AcDbViewportTableRecord
  2
*Active
 70
     0
 10
0.0
 20
0.0
 11
1.0
 21
1.0
 12
0.0
 22
0.0
 13
0.0
 23
0.0
 14
1.0
 24
1.0
 15
0.0
 25
0.0
 16
0.0
 26
0.0
 36
1.0
 17
2070.329143804109
 27
-1549.708560332395
 37
0.0
 40
3099.36839297975
 41
1.304893925962813
 42
50.0
 43
0.0
 44
0.0
 50
0.0
 51
0.0
 71
     0
 72
   100
 73
     1
 74
     1
 75
     0
 76
     0
 77
     0
 78
     0
281
     0
 65
     1
110
0.0
120
0.0
130
0.0
111
1.0
121
0.0
131
0.0
112
0.0
122
1.0
132
0.0
 79
     0
146
0.0
 60
     3
 61
     5
292
     1
282
     1
141
0.0
142
0.0
 63
   250
421
  3355443
  0
ENDTAB
  0
TABLE
  2
LTYPE
  5
5
330
0
100
AcDbSymbolTable
 70
     1
  0
LTYPE
  5
5B
330
5
100
AcDbSymbolTableRecord
100
AcDbLinetypeTableRecord
  2
ByBlock
 70
     0
  3

 72
    65
 73
     0
 40
0.0
  0
LTYPE
  5
5C
330
5
100
AcDbSymbolTableRecord
100
AcDbLinetypeTableRecord
  2
ByLayer
 70
     0
  3

 72
    65
 73
     0
 40
0.0
  0
LTYPE
  5
5D
330
5
100
AcDbSymbolTableRecord
100
AcDbLinetypeTableRecord
  2
Continuous
 70
     0
  3
Solid line
 72
    65
 73
     0
 40
0.0
  0
ENDTAB
  0
TABLE
  2
LAYER
  5
2
330
0
100
AcDbSymbolTable
 70
     2
  0
LAYER
  5
54
330
2
100
AcDbSymbolTableRecord
100
AcDbLayerTableRecord
  2
0
 70
     0
 62
     7
  6
Continuous
370
    -3
390
F
347
21
348
0
  0
LAYER
  5
78
330
2
100
AcDbSymbolTableRecord
100
AcDbLayerTableRecord
  2
Layer 1
 70
     0
 62
     7
  6
Continuous
370
     0
390
F
347
21
348
0
  0
ENDTAB
  0
TABLE
  2
STYLE
  5
3
330
0
100
AcDbSymbolTable
 70
     2
  0
STYLE
  5
55
330
3
100
AcDbSymbolTableRecord
100
AcDbTextStyleTableRecord
  2
Standard
 70
     0
 40
0.0
 41
1.0
 50
0.0
 71
     0
 42
0.2
  3
txt
  4

  0
STYLE
  5
5A
330
3
100
AcDbSymbolTableRecord
100
AcDbTextStyleTableRecord
  2
Annotative
 70
     0
 40
0.0
 41
1.0
 50
0.0
 71
     0
 42
0.2
  3
txt
  4

1001
AcadAnnotative
1000
AnnotativeData
1002
{
1070
     1
1070
     1
1002
}
  0
ENDTAB
  0
TABLE
  2
VIEW
  5
6
330
0
100
AcDbSymbolTable
 70
     0
  0
ENDTAB
  0
TABLE
  2
UCS
  5
7
330
0
100
AcDbSymbolTable
 70
     0
  0
ENDTAB
  0
TABLE
  2
APPID
  5
9
330
0
100
AcDbSymbolTable
 70
     2
  0
APPID
  5
56
330
9
100
AcDbSymbolTableRecord
100
AcDbRegAppTableRecord
  2
ACAD
 70
     0
  0
APPID
  5
5E
330
9
100
AcDbSymbolTableRecord
100
AcDbRegAppTableRecord
  2
AcadAnnotative
 70
     0
  0
ENDTAB
  0
TABLE
  2
DIMSTYLE
  5
A
330
0
100
AcDbSymbolTable
 70
     2
100
AcDbDimStyleTable
 71
     0
  0
DIMSTYLE
105
58
330
A
100
AcDbSymbolTableRecord
100
AcDbDimStyleTableRecord
  2
Standard
 70
     0
340
55
  0
DIMSTYLE
105
59
330
A
100
AcDbSymbolTableRecord
100
AcDbDimStyleTableRecord
  2
Annotative
 70
     0
340
55
1001
AcadAnnotative
1000
AnnotativeData
1002
{
1070
     1
1070
     1
1002
}
  0
ENDTAB
  0
TABLE
  2
BLOCK_RECORD
  5
1
330
0
100
AcDbSymbolTable
 70
     1
  0
BLOCK_RECORD
  5
70
330
1
100
AcDbSymbolTableRecord
100
AcDbBlockTableRecord
  2
*Model_Space
340
73
 70
     0
280
     1
281
     0
  0
BLOCK_RECORD
  5
6C
330
1
100
AcDbSymbolTableRecord
100
AcDbBlockTableRecord
  2
*Paper_Space
340
6F
 70
     0
280
     1
281
     0
  0
BLOCK_RECORD
  5
74
330
1
100
AcDbSymbolTableRecord
100
AcDbBlockTableRecord
  2
*Paper_Space0
340
77
 70
     0
280
     1
281
     0
  0
ENDTAB
  0
ENDSEC
  0
SECTION
  2
BLOCKS
  0
BLOCK
  5
71
330
70
100
AcDbEntity
  8
0
100
AcDbBlockBegin
  2
*Model_Space
 70
     0
 10
0.0
 20
0.0
 30
0.0
  3
*Model_Space
  1

  0
ENDBLK
  5
72
330
70
100
AcDbEntity
  8
0
100
AcDbBlockEnd
  0
BLOCK
  5
6D
330
6C
100
AcDbEntity
 67
     1
  8
0
100
AcDbBlockBegin
  2
*Paper_Space
 70
     0
 10
0.0
 20
0.0
 30
0.0
  3
*Paper_Space
  1

  0
ENDBLK
  5
6E
330
6C
100
AcDbEntity
 67
     1
  8
0
100
AcDbBlockEnd
  0
BLOCK
  5
75
330
74
100
AcDbEntity
 67
     1
  8
0
100
AcDbBlockBegin
  2
*Paper_Space0
 70
     0
 10
0.0
 20
0.0
 30
0.0
  3
*Paper_Space0
  1

  0
ENDBLK
  5
76
330
74
100
AcDbEntity
 67
     1
  8
0
100
AcDbBlockEnd
  0
ENDSEC
  0
SECTION
  2
ENTITIES
  0
SPLINE
  5
79
330
70
100
AcDbEntity
  8
Layer 1
100
AcDbSpline
210
0.0
220
0.0
230
1.0
 70
     9
 71
     3
 72
    53
 73
    49
 74
     0
 42
0.0000000001
 43
0.0000000001
 40
0.0
 40
0.0
 40
0.0
 40
0.0
 40
1.0
 40
1.0
 40
1.0
 40
2.0
 40
2.0
 40
2.0
 40
3.0
 40
3.0
 40
3.0
 40
4.0
 40
4.0
 40
4.0
 40
5.0
 40
5.0
 40
5.0
 40
6.0
 40
6.0
 40
6.0
 40
7.0
 40
7.0
 40
7.0
 40
8.0
 40
8.0
 40
8.0
 40
9.0
 40
9.0
 40
9.0
 40
10.0
 40
10.0
 40
10.0
 40
11.0
 40
11.0
 40
11.0
 40
12.0
 40
12.0
 40
12.0
 40
13.0
 40
13.0
 40
13.0
 40
14.0
 40
14.0
 40
14.0
 40
15.0
 40
15.0
 40
15.0
 40
16.0
 40
16.0
 40
16.0
 40
16.0
 10
2998.863263758324
 20
-1799.933915424748
 30
0.0
 10
2998.863263758324
 20
-1799.933915424748
 30
0.0
 10
2998.814937382691
 20
-1799.933915424748
 30
0.0
 10
2998.814937382691
 20
-1799.933915424748
 30
0.0
 10
2998.814937382691
 20
-1858.882099499231
 30
0.0
 10
2998.808021566283
 20
-1917.830283573712
 30
0.0
 10
2998.821853199099
 20
-1976.785341294988
 30
0.0
 10
2998.821853199099
 20
-1981.759879603524
 30
0.0
 10
2998.531641927626
 20
-1986.672259903604
 30
0.0
 10
2996.776795683645
 20
-1991.404955485908
 30
0.0
 10
2992.009436680075
 20
-2004.262723277214
 30
0.0
 10
2979.676849239672
 20
-2012.643427675648
 30
0.0
 10
2965.354277797409
 20
-2012.643427675648
 30
0.0
 10
2888.670524713582
 20
-2012.63651185924
 30
0.0
 10
2811.986771629754
 20
-2012.622722396034
 30
0.0
 10
2735.309934362331
 20
-2012.608890763218
 30
0.0
 10
2732.774275578015
 20
-2012.608890763218
 30
0.0
 10
2730.238701132921
 20
-2012.67104877167
 30
0.0
 10
2727.709958165013
 20
-2012.581269667196
 30
0.0
 10
2709.66347260458
 20
-2011.938689115803
 30
0.0
 10
2696.08713462061
 20
-1998.410761846691
 30
0.0
 10
2695.368648767175
 20
-1980.384981565872
 30
0.0
 10
2695.334069685132
 20
-1979.466063545431
 30
0.0
 10
2695.347901317948
 20
-1978.547187694603
 30
0.0
 10
2695.347901317948
 20
-1977.621353857754
 30
0.0
 10
2695.347901317948
 20
-1859.144647505073
 30
0.0
 10
2695.368648767175
 20
-1740.667898982772
 30
0.0
 10
2695.313322235909
 20
-1622.191192630087
 30
0.0
 10
2695.313322235909
 20
-1612.532327284496
 30
0.0
 10
2697.911139028676
 20
-1604.054885795574
 30
0.0
 10
2704.861703197416
 20
-1597.118153259647
 30
0.0
 10
2711.770772467708
 20
-1590.23674725499
 30
0.0
 10
2720.109981967691
 20
-1587.182992614625
 30
0.0
 10
2729.810257872506
 20
-1587.189908431033
 30
0.0
 10
2786.340309871999
 20
-1587.245066283851
 30
0.0
 10
2842.8772776879
 20
-1587.217487357442
 30
0.0
 10
2899.407161008943
 20
-1587.217487357442
 30
0.0
 10
2921.516182673875
 20
-1587.217487357442
 30
0.0
 10
2943.625204338807
 20
-1587.127666083359
 30
0.0
 10
2965.727394526557
 20
-1587.251982100259
 30
0.0
 10
2982.15018133709
 20
-1587.341887713565
 30
0.0
 10
2995.146181117338
 20
-1598.078608348152
 30
0.0
 10
2998.234514839746
 20
-1613.789825121656
 30
0.0
 10
2999.063653755713
 20
-1617.997340353055
 30
0.0
 10
2998.84951646473
 20
-1622.274098087762
 30
0.0
 10
2998.856347941916
 20
-1626.530108373247
 30
0.0
 10
2998.863263758324
 20
-1684.331321164265
 30
0.0
 10
2998.863263758324
 20
-1742.132702633729
 30
0.0
 10
2998.863263758324
 20
-1799.933915424748
 30
0.0
  0
SPLINE
  5
7A
330
70
100
AcDbEntity
  8
Layer 1
100
AcDbSpline
210
0.0
220
0.0
230
1.0
 70
     9
 71
     3
 72
    53
 73
    49
 74
     0
 42
0.0000000001
 43
0.0000000001
 40
0.0
 40
0.0
 40
0.0
 40
0.0
 40
1.0
 40
1.0
 40
1.0
 40
2.0
 40
2.0
 40
2.0
 40
3.0
 40
3.0
 40
3.0
 40
4.0
 40
4.0
 40
4.0
 40
5.0
 40
5.0
 40
5.0
 40
6.0
 40
6.0
 40
6.0
 40
7.0
 40
7.0
 40
7.0
 40
8.0
 40
8.0
 40
8.0
 40
9.0
 40
9.0
 40
9.0
 40
10.0
 40
10.0
 40
10.0
 40
11.0
 40
11.0
 40
11.0
 40
12.0
 40
12.0
 40
12.0
 40
13.0
 40
13.0
 40
13.0
 40
14.0
 40
14.0
 40
14.0
 40
15.0
 40
15.0
 40
15.0
 40
16.0
 40
16.0
 40
16.0
 40
16.0
 10
3001.274522186517
 20
-1851.385734039197
 30
0.0
 10
3001.274522186517
 20
-1774.128558568054
 30
0.0
 10
3001.295269635741
 20
-1696.864467280504
 30
0.0
 10
3001.281438002925
 20
-1619.607207470139
 30
0.0
 10
3001.281438002925
 20
-1609.37483539801
 30
0.0
 10
2997.357049548142
 20
-1600.828404423451
 30
0.0
 10
2989.874557890535
 20
-1593.884756071116
 30
0.0
 10
2982.744435512856
 20
-1587.265813733074
 30
0.0
 10
2974.170256933439
 20
-1584.612754748266
 30
0.0
 10
2964.594297045524
 20
-1584.63350219749
 30
0.0
 10
2944.675396362169
 20
-1584.667996940306
 30
0.0
 10
2924.756580018037
 20
-1584.667996940306
 30
0.0
 10
2904.837763673908
 20
-1584.667996940306
 30
0.0
 10
2846.228075076922
 20
-1584.661081123899
 30
0.0
 10
2787.61847081916
 20
-1584.647333830306
 30
0.0
 10
2729.008866561397
 20
-1584.640418013898
 30
0.0
 10
2717.753965731537
 20
-1584.640418013898
 30
0.0
 10
2708.447469665871
 20
-1588.944754675014
 30
0.0
 10
2701.075462392348
 20
-1597.435943457529
 30
0.0
 10
2694.8504685719
 20
-1604.600729256477
 30
0.0
 10
2692.784579267997
 20
-1613.050507479767
 30
0.0
 10
2692.798410900816
 20
-1622.370835178253
 30
0.0
 10
2692.881316358488
 20
-1681.443377439247
 30
0.0
 10
2692.839821460041
 20
-1740.509003883833
 30
0.0
 10
2692.839821460041
 20
-1799.574630328416
 30
0.0
 10
2692.839821460041
 20
-1848.857033240898
 30
0.0
 10
2692.825989827225
 20
-1898.139436153382
 30
0.0
 10
2692.846737276448
 20
-1947.421796896251
 30
0.0
 10
2692.846737276448
 20
-1959.042856469234
 30
0.0
 10
2692.784579267997
 20
-1970.670831858628
 30
0.0
 10
2693.019464008207
 20
-1982.29189143161
 30
0.0
 10
2693.185274923553
 20
-1990.444584736633
 30
0.0
 10
2696.515493541801
 20
-1997.429643648189
 30
0.0
 10
2701.987422426768
 20
-2003.433626530859
 30
0.0
 10
2710.002010251685
 20
-2012.221984570868
 30
0.0
 10
2720.123729261284
 20
-2015.248160284824
 30
0.0
 10
2731.779410085919
 20
-2015.2274128356
 30
0.0
 10
2804.200237067858
 20
-2015.109970465495
 30
0.0
 10
2876.627979866205
 20
-2015.199791739579
 30
0.0
 10
2949.048891187367
 20
-2015.130675745109
 30
0.0
 10
2956.980489215386
 20
-2015.116886281903
 30
0.0
 10
2964.981245407487
 20
-2015.959772491464
 30
0.0
 10
2972.843685271424
 20
-2014.501968996141
 30
0.0
 10
2989.75707335082
 20
-2011.351435095672
 30
0.0
 10
3001.274522186517
 20
-1997.008200543408
 30
0.0
 10
3001.288353819333
 20
-1979.196641892795
 30
0.0
 10
3001.322848562149
 20
-1936.595297157193
 30
0.0
 10
3001.274522186517
 20
-1893.993994591205
 30
0.0
 10
3001.274522186517
 20
-1851.385734039197
 30
0.0
  0
HATCH
  5
7B
330
70
100
AcDbEntity
  8
Layer 1
 62
    18
420
        0
440
 33554687
100
AcDbHatch
 10
0.0
 20
0.0
 30
0.0
210
0.0
220
0.0
230
1.0
  2
SOLID
 70
     1
 71
     1
 91
        2
 92
        1
 93
        1
 72
     4
 94
        3
 73
     0
 74
     0
 95
       53
 96
       49
 40
0.0
 40
0.0
 40
0.0
 40
0.0
 40
1.0
 40
1.0
 40
1.0
 40
2.0
 40
2.0
 40
2.0
 40
3.0
 40
3.0
 40
3.0
 40
4.0
 40
4.0
 40
4.0
 40
5.0
 40
5.0
 40
5.0
 40
6.0
 40
6.0
 40
6.0
 40
7.0
 40
7.0
 40
7.0
 40
8.0
 40
8.0
 40
8.0
 40
9.0
 40
9.0
 40
9.0
 40
10.0
 40
10.0
 40
10.0
 40
11.0
 40
11.0
 40
11.0
 40
12.0
 40
12.0
 40
12.0
 40
13.0
 40
13.0
 40
13.0
 40
14.0
 40
14.0
 40
14.0
 40
15.0
 40
15.0
 40
15.0
 40
16.0
 40
16.0
 40
16.0
 40
16.0
 10
2998.863263758324
 20
-1799.933915424748
 10
2998.863263758324
 20
-1799.933915424748
 10
2998.814937382691
 20
-1799.933915424748
 10
2998.814937382691
 20
-1799.933915424748
 10
2998.814937382691
 20
-1858.882099499231
 10
2998.808021566283
 20
-1917.830283573712
 10
2998.821853199099
 20
-1976.785341294988
 10
2998.821853199099
 20
-1981.759879603524
 10
2998.531641927626
 20
-1986.672259903604
 10
2996.776795683645
 20
-1991.404955485908
 10
2992.009436680075
 20
-2004.262723277214
 10
2979.676849239672
 20
-2012.643427675648
 10
2965.354277797409
 20
-2012.643427675648
 10
2888.670524713582
 20
-2012.63651185924
 10
2811.986771629754
 20
-2012.622722396034
 10
2735.309934362331
 20
-2012.608890763218
 10
2732.774275578015
 20
-2012.608890763218
 10
2730.238701132921
 20
-2012.67104877167
 10
2727.709958165013
 20
-2012.581269667196
 10
2709.66347260458
 20
-2011.938689115803
 10
2696.08713462061
 20
-1998.410761846691
 10
2695.368648767175
 20
-1980.384981565872
 10
2695.334069685132
 20
-1979.466063545431
 10
2695.347901317948
 20
-1978.547187694603
 10
2695.347901317948
 20
-1977.621353857754
 10
2695.347901317948
 20
-1859.144647505073
 10
2695.368648767175
 20
-1740.667898982772
 10
2695.313322235909
 20
-1622.191192630087
 10
2695.313322235909
 20
-1612.532327284496
 10
2697.911139028676
 20
-1604.054885795574
 10
2704.861703197416
 20
-1597.118153259647
 10
2711.770772467708
 20
-1590.23674725499
 10
2720.109981967691
 20
-1587.182992614625
 10
2729.810257872506
 20
-1587.189908431033
 10
2786.340309871999
 20
-1587.245066283851
 10
2842.8772776879
 20
-1587.217487357442
 10
2899.407161008943
 20
-1587.217487357442
 10
2921.516182673875
 20
-1587.217487357442
 10
2943.625204338807
 20
-1587.127666083359
 10
2965.727394526557
 20
-1587.251982100259
 10
2982.15018133709
 20
-1587.341887713565
 10
2995.146181117338
 20
-1598.078608348152
 10
2998.234514839746
 20
-1613.789825121656
 10
2999.063653755713
 20
-1617.997340353055
 10
2998.84951646473
 20
-1622.274098087762
 10
2998.856347941916
 20
-1626.530108373247
 10
2998.863263758324
 20
-1684.331321164265
 10
2998.863263758324
 20
-1742.132702633729
 10
2998.863263758324
 20
-1799.933915424748
 97
        0
 97
        1
330
79
 92
        1
 93
        1
 72
     4
 94
        3
 73
     0
 74
     0
 95
       53
 96
       49
 40
0.0
 40
0.0
 40
0.0
 40
0.0
 40
1.0
 40
1.0
 40
1.0
 40
2.0
 40
2.0
 40
2.0
 40
3.0
 40
3.0
 40
3.0
 40
4.0
 40
4.0
 40
4.0
 40
5.0
 40
5.0
 40
5.0
 40
6.0
 40
6.0
 40
6.0
 40
7.0
 40
7.0
 40
7.0
 40
8.0
 40
8.0
 40
8.0
 40
9.0
 40
9.0
 40
9.0
 40
10.0
 40
10.0
 40
10.0
 40
11.0
 40
11.0
 40
11.0
 40
12.0
 40
12.0
 40
12.0
 40
13.0
 40
13.0
 40
13.0
 40
14.0
 40
14.0
 40
14.0
 40
15.0
 40
15.0
 40
15.0
 40
16.0
 40
16.0
 40
16.0
 40
16.0
 10
3001.274522186517
 20
-1851.385734039197
 10
3001.274522186517
 20
-1774.128558568054
 10
3001.295269635741
 20
-1696.864467280504
 10
3001.281438002925
 20
-1619.607207470139
 10
3001.281438002925
 20
-1609.37483539801
 10
2997.357049548142
 20
-1600.828404423451
 10
2989.874557890535
 20
-1593.884756071116
 10
2982.744435512856
 20
-1587.265813733074
 10
2974.170256933439
 20
-1584.612754748266
 10
2964.594297045524
 20
-1584.63350219749
 10
2944.675396362169
 20
-1584.667996940306
 10
2924.756580018037
 20
-1584.667996940306
 10
2904.837763673908
 20
-1584.667996940306
 10
2846.228075076922
 20
-1584.661081123899
 10
2787.61847081916
 20
-1584.647333830306
 10
2729.008866561397
 20
-1584.640418013898
 10
2717.753965731537
 20
-1584.640418013898
 10
2708.447469665871
 20
-1588.944754675014
 10
2701.075462392348
 20
-1597.435943457529
 10
2694.8504685719
 20
-1604.600729256477
 10
2692.784579267997
 20
-1613.050507479767
 10
2692.798410900816
 20
-1622.370835178253
 10
2692.881316358488
 20
-1681.443377439247
 10
2692.839821460041
 20
-1740.509003883833
 10
2692.839821460041
 20
-1799.574630328416
 10
2692.839821460041
 20
-1848.857033240898
 10
2692.825989827225
 20
-1898.139436153382
 10
2692.846737276448
 20
-1947.421796896251
 10
2692.846737276448
 20
-1959.042856469234
 10
2692.784579267997
 20
-1970.670831858628
 10
2693.019464008207
 20
-1982.29189143161
 10
2693.185274923553
 20
-1990.444584736633
 10
2696.515493541801
 20
-1997.429643648189
 10
2701.987422426768
 20
-2003.433626530859
 10
2710.002010251685
 20
-2012.221984570868
 10
2720.123729261284
 20
-2015.248160284824
 10
2731.779410085919
 20
-2015.2274128356
 10
2804.200237067858
 20
-2015.109970465495
 10
2876.627979866205
 20
-2015.199791739579
 10
2949.048891187367
 20
-2015.130675745109
 10
2956.980489215386
 20
-2015.116886281903
 10
2964.981245407487
 20
-2015.959772491464
 10
2972.843685271424
 20
-2014.501968996141
 10
2989.75707335082
 20
-2011.351435095672
 10
3001.274522186517
 20
-1997.008200543408
 10
3001.288353819333
 20
-1979.196641892795
 10
3001.322848562149
 20
-1936.595297157193
 10
3001.274522186517
 20
-1893.993994591205
 10
3001.274522186517
 20
-1851.385734039197
 97
        0
 97
        1
330
7A
 75
     2
 76
     1
 98
        1
 10
0.0
 20
0.0
450
        0
451
        0
460
0.0
461
0.0
452
        0
462
0.0
453
        0
470

  0
SPLINE
  5
7C
330
70
100
AcDbEntity
  8
Layer 1
100
AcDbSpline
210
0.0
220
0.0
230
1.0
 70
     9
 71
     3
 72
    53
 73
    49
 74
     0
 42
0.0000000001
 43
0.0000000001
 40
0.0
 40
0.0
 40
0.0
 40
0.0
 40
1.0
 40
1.0
 40
1.0
 40
2.0
 40
2.0
 40
2.0
 40
3.0
 40
3.0
 40
3.0
 40
4.0
 40
4.0
 40
4.0
 40
5.0
 40
5.0
 40
5.0
 40
6.0
 40
6.0
 40
6.0
 40
7.0
 40
7.0
 40
7.0
 40
8.0
 40
8.0
 40
8.0
 40
9.0
 40
9.0
 40
9.0
 40
10.0
 40
10.0
 40
10.0
 40
11.0
 40
11.0
 40
11.0
 40
12.0
 40
12.0
 40
12.0
 40
13.0
 40
13.0
 40
13.0
 40
14.0
 40
14.0
 40
14.0
 40
15.0
 40
15.0
 40
15.0
 40
16.0
 40
16.0
 40
16.0
 40
16.0
 10
2998.863263758324
 20
-1799.933915424748
 30
0.0
 10
2998.863263758324
 20
-1799.933915424748
 30
0.0
 10
2998.814937382691
 20
-1799.933915424748
 30
0.0
 10
2998.814937382691
 20
-1799.933915424748
 30
0.0
 10
2998.814937382691
 20
-1858.882099499231
 30
0.0
 10
2998.808021566283
 20
-1917.830283573712
 30
0.0
 10
2998.821853199099
 20
-1976.785341294988
 30
0.0
 10
2998.821853199099
 20
-1981.759879603524
 30
0.0
 10
2998.531641927626
 20
-1986.672259903604
 30
0.0
 10
2996.776795683645
 20
-1991.404955485908
 30
0.0
 10
2992.009436680075
 20
-2004.262723277214
 30
0.0
 10
2979.676849239672
 20
-2012.643427675648
 30
0.0
 10
2965.354277797409
 20
-2012.643427675648
 30
0.0
 10
2888.670524713582
 20
-2012.63651185924
 30
0.0
 10
2811.986771629754
 20
-2012.622722396034
 30
0.0
 10
2735.309934362331
 20
-2012.608890763218
 30
0.0
 10
2732.774275578015
 20
-2012.608890763218
 30
0.0
 10
2730.238701132921
 20
-2012.67104877167
 30
0.0
 10
2727.709958165013
 20
-2012.581269667196
 30
0.0
 10
2709.66347260458
 20
-2011.938689115803
 30
0.0
 10
2696.08713462061
 20
-1998.410761846691
 30
0.0
 10
2695.368648767175
 20
-1980.384981565872
 30
0.0
 10
2695.334069685132
 20
-1979.466063545431
 30
0.0
 10
2695.347901317948
 20
-1978.547187694603
 30
0.0
 10
2695.347901317948
 20
-1977.621353857754
 30
0.0
 10
2695.347901317948
 20
-1859.144647505073
 30
0.0
 10
2695.368648767175
 20
-1740.667898982772
 30
0.0
 10
2695.313322235909
 20
-1622.191192630087
 30
0.0
 10
2695.313322235909
 20
-1612.532327284496
 30
0.0
 10
2697.911139028676
 20
-1604.054885795574
 30
0.0
 10
2704.861703197416
 20
-1597.118153259647
 30
0.0
 10
2711.770772467708
 20
-1590.23674725499
 30
0.0
 10
2720.109981967691
 20
-1587.182992614625
 30
0.0
 10
2729.810257872506
 20
-1587.189908431033
 30
0.0
 10
2786.340309871999
 20
-1587.245066283851
 30
0.0
 10
2842.8772776879
 20
-1587.217487357442
 30
0.0
 10
2899.407161008943
 20
-1587.217487357442
 30
0.0
 10
2921.516182673875
 20
-1587.217487357442
 30
0.0
 10
2943.625204338807
 20
-1587.127666083359
 30
0.0
 10
2965.727394526557
 20
-1587.251982100259
 30
0.0
 10
2982.15018133709
 20
-1587.341887713565
 30
0.0
 10
2995.146181117338
 20
-1598.078608348152
 30
0.0
 10
2998.234514839746
 20
-1613.789825121656
 30
0.0
 10
2999.063653755713
 20
-1617.997340353055
 30
0.0
 10
2998.84951646473
 20
-1622.274098087762
 30
0.0
 10
2998.856347941916
 20
-1626.530108373247
 30
0.0
 10
2998.863263758324
 20
-1684.331321164265
 30
0.0
 10
2998.863263758324
 20
-1742.132702633729
 30
0.0
 10
2998.863263758324
 20
-1799.933915424748
 30
0.0
  0
SPLINE
  5
7D
330
70
100
AcDbEntity
  8
Layer 1
100
AcDbSpline
210
0.0
220
0.0
230
1.0
 70
    11
 71
     3
 72
    71
 73
    67
 74
     0
 42
0.0000000001
 43
0.0000000001
 40
0.0
 40
0.0
 40
0.0
 40
0.0
 40
1.0
 40
1.0
 40
1.0
 40
2.0
 40
2.0
 40
2.0
 40
3.0
 40
3.0
 40
3.0
 40
4.0
 40
4.0
 40
4.0
 40
5.0
 40
5.0
 40
5.0
 40
6.0
 40
6.0
 40
6.0
 40
7.0
 40
7.0
 40
7.0
 40
8.0
 40
8.0
 40
8.0
 40
9.0
 40
9.0
 40
9.0
 40
10.0
 40
10.0
 40
10.0
 40
11.0
 40
11.0
 40
11.0
 40
12.0
 40
12.0
 40
12.0
 40
13.0
 40
13.0
 40
13.0
 40
14.0
 40
14.0
 40
14.0
 40
15.0
 40
15.0
 40
15.0
 40
16.0
 40
16.0
 40
16.0
 40
17.0
 40
17.0
 40
17.0
 40
18.0
 40
18.0
 40
18.0
 40
19.0
 40
19.0
 40
19.0
 40
20.0
 40
20.0
 40
20.0
 40
21.0
 40
21.0
 40
21.0
 40
22.0
 40
22.0
 40
22.0
 40
22.0
 10
2732.450110035645
 20
-1672.933915424748
 30
0.0
 10
2732.450110035645
 20
-1672.933915424748
 30
0.0
 10
2715.705460081501
 20
-1606.933915424748
 30
0.0
 10
2715.705460081501
 20
-1606.933915424748
 30
0.0
 10
2715.705460081501
 20
-1606.933915424748
 30
0.0
 10
2724.714379372237
 20
-1606.933915424748
 30
0.0
 10
2724.714379372237
 20
-1606.933915424748
 30
0.0
 10
2724.714379372237
 20
-1606.933915424748
 30
0.0
 10
2732.548222233747
 20
-1640.325607567823
 30
0.0
 10
2732.548222233747
 20
-1640.325607567823
 30
0.0
 10
2734.506682949124
 20
-1648.551142572409
 30
0.0
 10
2736.269171484741
 20
-1656.776677576998
 30
0.0
 10
2737.444247913971
 20
-1663.141611847861
 30
0.0
 10
2737.444247913971
 20
-1663.141611847861
 30
0.0
 10
2737.640220093728
 20
-1663.141611847861
 30
0.0
 10
2737.640220093728
 20
-1663.141611847861
 30
0.0
 10
2738.717184324853
 20
-1656.580705397233
 30
0.0
 10
2740.773757238332
 20
-1648.746862535723
 30
0.0
 10
2743.02605011513
 20
-1640.227495369718
 30
0.0
 10
2743.02605011513
 20
-1640.227495369718
 30
0.0
 10
2751.838997226105
 20
-1606.933915424748
 30
0.0
 10
2751.838997226105
 20
-1606.933915424748
 30
0.0
 10
2751.838997226105
 20
-1606.933915424748
 30
0.0
 10
2760.750056535186
 20
-1606.933915424748
 30
0.0
 10
2760.750056535186
 20
-1606.933915424748
 30
0.0
 10
2760.750056535186
 20
-1606.933915424748
 30
0.0
 10
2768.77961936001
 20
-1640.423467549483
 30
0.0
 10
2768.77961936001
 20
-1640.423467549483
 30
0.0
 10
2770.640220093728
 20
-1648.257310410992
 30
0.0
 10
2772.402708629345
 20
-1656.091153272502
 30
0.0
 10
2773.38206509526
 20
-1663.043751866205
 30
0.0
 10
2773.38206509526
 20
-1663.043751866205
 30
0.0
 10
2773.578037275021
 20
-1663.043751866205
 30
0.0
 10
2773.578037275021
 20
-1663.043751866205
 30
0.0
 10
2774.948833667562
 20
-1655.797321111082
 30
0.0
 10
2776.809434401281
 20
-1648.453282590753
 30
0.0
 10
2778.865755098317
 20
-1640.227495369718
 30
0.0
 10
2778.865755098317
 20
-1640.227495369718
 30
0.0
 10
2787.580842227634
 20
-1606.933915424748
 30
0.0
 10
2787.580842227634
 20
-1606.933915424748
 30
0.0
 10
2787.580842227634
 20
-1606.933915424748
 30
0.0
 10
2796.2961815734
 20
-1606.933915424748
 30
0.0
 10
2796.2961815734
 20
-1606.933915424748
 30
0.0
 10
2796.2961815734
 20
-1606.933915424748
 30
0.0
 10
2777.592818687432
 20
-1672.933915424748
 30
0.0
 10
2777.592818687432
 20
-1672.933915424748
 30
0.0
 10
2777.592818687432
 20
-1672.933915424748
 30
0.0
 10
2768.681759378355
 20
-1672.933915424748
 30
0.0
 10
2768.681759378355
 20
-1672.933915424748
 30
0.0
 10
2768.681759378355
 20
-1672.933915424748
 30
0.0
 10
2760.35836439211
 20
-1638.56286681576
 30
0.0
 10
2760.35836439211
 20
-1638.56286681576
 30
0.0
 10
2758.301791478627
 20
-1630.141611847861
 30
0.0
 10
2756.930995086086
 20
-1623.678565378892
 30
0.0
 10
2756.04975081828
 20
-1617.019798946608
 30
0.0
 10
2756.04975081828
 20
-1617.019798946608
 30
0.0
 10
2755.853778638519
 20
-1617.019798946608
 30
0.0
 10
2755.853778638519
 20
-1617.019798946608
 30
0.0
 10
2754.678702209292
 20
-1623.580705397233
 30
0.0
 10
2753.210045835093
 20
-1630.043499649755
 30
0.0
 10
2750.761780778538
 20
-1638.56286681576
 30
0.0
 10
2750.761780778538
 20
-1638.56286681576
 30
0.0
 10
2741.361169344726
 20
-1672.933915424748
 30
0.0
 10
2741.361169344726
 20
-1672.933915424748
 30
0.0
 10
2741.361169344726
 20
-1672.933915424748
 30
0.0
 10
2732.450110035645
 20
-1672.933915424748
 30
0.0
 10
2732.450110035645
 20
-1672.933915424748
 30
0.0
  0
HATCH
  5
7E
330
70
100
AcDbEntity
  8
Layer 1
 62
   246
420
  8590872
440
 33554687
100
AcDbHatch
 10
0.0
 20
0.0
 30
0.0
210
0.0
220
0.0
230
1.0
  2
SOLID
 70
     1
 71
     1
 91
        1
 92
        1
 93
        1
 72
     4
 94
        3
 73
     0
 74
     0
 95
       71
 96
       67
 40
0.0
 40
0.0
 40
0.0
 40
0.0
 40
1.0
 40
1.0
 40
1.0
 40
2.0
 40
2.0
 40
2.0
 40
3.0
 40
3.0
 40
3.0
 40
4.0
 40
4.0
 40
4.0
 40
5.0
 40
5.0
 40
5.0
 40
6.0
 40
6.0
 40
6.0
 40
7.0
 40
7.0
 40
7.0
 40
8.0
 40
8.0
 40
8.0
 40
9.0
 40
9.0
 40
9.0
 40
10.0
 40
10.0
 40
10.0
 40
11.0
 40
11.0
 40
11.0
 40
12.0
 40
12.0
 40
12.0
 40
13.0
 40
13.0
 40
13.0
 40
14.0
 40
14.0
 40
14.0
 40
15.0
 40
15.0
 40
15.0
 40
16.0
 40
16.0
 40
16.0
 40
17.0
 40
17.0
 40
17.0
 40
18.0
 40
18.0
 40
18.0
 40
19.0
 40
19.0
 40
19.0
 40
20.0
 40
20.0
 40
20.0
 40
21.0
 40
21.0
 40
21.0
 40
22.0
 40
22.0
 40
22.0
 40
22.0
 10
2732.450110035645
 20
-1672.933915424748
 10
2732.450110035645
 20
-1672.933915424748
 10
2715.705460081501
 20
-1606.933915424748
 10
2715.705460081501
 20
-1606.933915424748
 10
2715.705460081501
 20
-1606.933915424748
 10
2724.714379372237
 20
-1606.933915424748
 10
2724.714379372237
 20
-1606.933915424748
 10
2724.714379372237
 20
-1606.933915424748
 10
2732.548222233747
 20
-1640.325607567823
 10
2732.548222233747
 20
-1640.325607567823
 10
2734.506682949124
 20
-1648.551142572409
 10
2736.269171484741
 20
-1656.776677576998
 10
2737.444247913971
 20
-1663.141611847861
 10
2737.444247913971
 20
-1663.141611847861
 10
2737.640220093728
 20
-1663.141611847861
 10
2737.640220093728
 20
-1663.141611847861
 10
2738.717184324853
 20
-1656.580705397233
 10
2740.773757238332
 20
-1648.746862535723
 10
2743.02605011513
 20
-1640.227495369718
 10
2743.02605011513
 20
-1640.227495369718
 10
2751.838997226105
 20
-1606.933915424748
 10
2751.838997226105
 20
-1606.933915424748
 10
2751.838997226105
 20
-1606.933915424748
 10
2760.750056535186
 20
-1606.933915424748
 10
2760.750056535186
 20
-1606.933915424748
 10
2760.750056535186
 20
-1606.933915424748
 10
2768.77961936001
 20
-1640.423467549483
 10
2768.77961936001
 20
-1640.423467549483
 10
2770.640220093728
 20
-1648.257310410992
 10
2772.402708629345
 20
-1656.091153272502
 10
2773.38206509526
 20
-1663.043751866205
 10
2773.38206509526
 20
-1663.043751866205
 10
2773.578037275021
 20
-1663.043751866205
 10
2773.578037275021
 20
-1663.043751866205
 10
2774.948833667562
 20
-1655.797321111082
 10
2776.809434401281
 20
-1648.453282590753
 10
2778.865755098317
 20
-1640.227495369718
 10
2778.865755098317
 20
-1640.227495369718
 10
2787.580842227634
 20
-1606.933915424748
 10
2787.580842227634
 20
-1606.933915424748
 10
2787.580842227634
 20
-1606.933915424748
 10
2796.2961815734
 20
-1606.933915424748
 10
2796.2961815734
 20
-1606.933915424748
 10
2796.2961815734
 20
-1606.933915424748
 10
2777.592818687432
 20
-1672.933915424748
 10
2777.592818687432
 20
-1672.933915424748
 10
2777.592818687432
 20
-1672.933915424748
 10
2768.681759378355
 20
-1672.933915424748
 10
2768.681759378355
 20
-1672.933915424748
 10
2768.681759378355
 20
-1672.933915424748
 10
2760.35836439211
 20
-1638.56286681576
 10
2760.35836439211
 20
-1638.56286681576
 10
2758.301791478627
 20
-1630.141611847861
 10
2756.930995086086
 20
-1623.678565378892
 10
2756.04975081828
 20
-1617.019798946608
 10
2756.04975081828
 20
-1617.019798946608
 10
2755.853778638519
 20
-1617.019798946608
 10
2755.853778638519
 20
-1617.019798946608
 10
2754.678702209292
 20
-1623.580705397233
 10
2753.210045835093
 20
-1630.043499649755
 10
2750.761780778538
 20
-1638.56286681576
 10
2750.761780778538
 20
-1638.56286681576
 10
2741.361169344726
 20
-1672.933915424748
 10
2741.361169344726
 20
-1672.933915424748
 10
2741.361169344726
 20
-1672.933915424748
 10
2732.450110035645
 20
-1672.933915424748
 10
2732.450110035645
 20
-1672.933915424748
 97
        0
 97
        1
330
7D
 75
     2
 76
     1
 98
        1
 10
0.0
 20
0.0
450
        0
451
        0
460
0.0
461
0.0
452
        0
462
0.0
453
        0
470

  0
SPLINE
  5
7F
330
70
100
AcDbEntity
  8
Layer 1
100
AcDbSpline
210
0.0
220
0.0
230
1.0
 70
     9
 71
     3
 72
    17
 73
    13
 74
     0
 42
0.0000000001
 43
0.0000000001
 40
0.0
 40
0.0
 40
0.0
 40
0.0
 40
1.0
 40
1.0
 40
1.0
 40
2.0
 40
2.0
 40
2.0
 40
3.0
 40
3.0
 40
3.0
 40
4.0
 40
4.0
 40
4.0
 40
4.0
 10
2845.897177107529
 20
-1805.444538471596
 30
0.0
 10
2846.163738931757
 20
-1799.284114851894
 30
0.0
 10
2845.276225322383
 20
-1798.385870903994
 30
0.0
 10
2840.045794457083
 20
-1799.522411394157
 30
0.0
 10
2835.066249555612
 20
-1800.604433822898
 30
0.0
 10
2828.885484318556
 20
-1809.998380430634
 30
0.0
 10
2829.568011460941
 20
-1815.432389913631
 30
0.0
 10
2829.693201751956
 20
-1816.429056966621
 30
0.0
 10
2829.858605994583
 20
-1817.109598680514
 30
0.0
 10
2831.17696661112
 20
-1817.33516140641
 30
0.0
 10
2838.654649837014
 20
-1818.614553476478
 30
0.0
 10
2845.566152030077
 20
-1813.094674211259
 30
0.0
 10
2845.897177107529
 20
-1805.444538471596
 30
0.0
  0
SPLINE
  5
80
330
70
100
AcDbEntity
  8
Layer 1
100
AcDbSpline
210
0.0
220
0.0
230
1.0
 70
     9
 71
     3
 72
    32
 73
    28
 74
     0
 42
0.0000000001
 43
0.0000000001
 40
0.0
 40
0.0
 40
0.0
 40
0.0
 40
1.0
 40
1.0
 40
1.0
 40
2.0
 40
2.0
 40
2.0
 40
3.0
 40
3.0
 40
3.0
 40
4.0
 40
4.0
 40
4.0
 40
5.0
 40
5.0
 40
5.0
 40
6.0
 40
6.0
 40
6.0
 40
7.0
 40
7.0
 40
7.0
 40
8.0
 40
8.0
 40
8.0
 40
9.0
 40
9.0
 40
9.0
 40
9.0
 10
2819.693401640279
 20
-1890.318420739546
 30
0.0
 10
2820.432143482975
 20
-1904.244956196791
 30
0.0
 10
2821.622534208609
 20
-1920.745256754606
 30
0.0
 10
2822.021370693694
 20
-1937.264689623327
 30
0.0
 10
2822.17115322397
 20
-1943.468070695828
 30
0.0
 10
2825.976154729031
 20
-1942.060835080305
 30
0.0
 10
2829.420800963029
 20
-1942.61408375392
 30
0.0
 10
2834.174728990556
 20
-1943.377661502102
 30
0.0
 10
2833.848568212905
 20
-1940.231371022208
 30
0.0
 10
2834.045829558132
 20
-1937.210631820329
 30
0.0
 10
2834.67411840402
 20
-1927.58937169976
 30
0.0
 10
2835.263140889167
 20
-1917.963328501461
 30
0.0
 10
2836.075487980818
 20
-1908.35672445302
 30
0.0
 10
2838.197892988048
 20
-1883.257569200607
 30
0.0
 10
2840.357055496379
 20
-1858.160904758479
 30
0.0
 10
2842.685647252367
 20
-1833.080349361151
 30
0.0
 10
2843.119761191863
 20
-1828.404683314862
 30
0.0
 10
2842.418598095692
 20
-1826.332672092596
 30
0.0
 10
2837.15423445255
 20
-1828.066889731189
 30
0.0
 10
2831.931691153166
 20
-1829.787308641773
 30
0.0
 10
2826.55305707571
 20
-1831.066141181995
 30
0.0
 10
2821.19250844687
 20
-1832.324018426962
 30
0.0
 10
2817.580201801508
 20
-1833.171670047051
 30
0.0
 10
2816.160728726742
 20
-1834.752386989285
 30
0.0
 10
2816.477567015163
 20
-1838.839211043929
 30
0.0
 10
2817.739785128788
 20
-1855.120076630144
 30
0.0
 10
2818.556418941046
 20
-1871.435479647422
 30
0.0
 10
2819.693401640279
 20
-1890.318420739546
 30
0.0
  0
SPLINE
  5
81
330
70
100
AcDbEntity
  8
Layer 1
100
AcDbSpline
210
0.0
220
0.0
230
1.0
 70
     9
 71
     3
 72
    29
 73
    25
 74
     0
 42
0.0000000001
 43
0.0000000001
 40
0.0
 40
0.0
 40
0.0
 40
0.0
 40
1.0
 40
1.0
 40
1.0
 40
2.0
 40
2.0
 40
2.0
 40
3.0
 40
3.0
 40
3.0
 40
4.0
 40
4.0
 40
4.0
 40
5.0
 40
5.0
 40
5.0
 40
6.0
 40
6.0
 40
6.0
 40
7.0
 40
7.0
 40
7.0
 40
8.0
 40
8.0
 40
8.0
 40
8.0
 10
2804.711475570091
 20
-1941.190657871524
 30
0.0
 10
2810.083918720526
 20
-1942.395145139442
 30
0.0
 10
2811.301834704782
 20
-1939.999725665391
 30
0.0
 10
2810.422777215843
 20
-1934.765865423611
 30
0.0
 10
2808.630684336744
 20
-1924.096010270339
 30
0.0
 10
2806.764435703519
 20
-1913.387944643298
 30
0.0
 10
2805.935104173596
 20
-1902.618132190197
 30
0.0
 10
2804.439363570766
 20
-1883.194414525249
 30
0.0
 10
2803.573653576086
 20
-1863.718642535146
 30
0.0
 10
2802.702267060859
 20
-1844.253104526446
 30
0.0
 10
2802.507496525921
 20
-1839.90229970461
 30
0.0
 10
2801.442269017274
 20
-1838.693787431659
 30
0.0
 10
2797.151739999483
 20
-1840.32781312887
 30
0.0
 10
2789.601705954456
 20
-1843.203173841853
 30
0.0
 10
2782.259591395776
 20
-1846.536897795946
 30
0.0
 10
2774.818277609966
 20
-1849.641458178832
 30
0.0
 10
2769.197917613763
 20
-1851.98630337442
 30
0.0
 10
2768.692608013525
 20
-1854.556296160856
 30
0.0
 10
2771.022156385063
 20
-1859.874997371917
 30
0.0
 10
2781.936183143991
 20
-1884.793298138174
 30
0.0
 10
2791.227961406525
 20
-1910.321793277035
 30
0.0
 10
2797.703616922505
 20
-1936.780660206641
 30
0.0
 10
2798.737339290872
 20
-1941.004316382994
 30
0.0
 10
2801.062411423626
 20
-1941.54709643366
 30
0.0
 10
2804.711475570091
 20
-1941.190657871524
 30
0.0
  0
SPLINE
  5
82
330
70
100
AcDbEntity
  8
Layer 1
100
AcDbSpline
210
0.0
220
0.0
230
1.0
 70
     9
 71
     3
 72
    32
 73
    28
 74
     0
 42
0.0000000001
 43
0.0000000001
 40
0.0
 40
0.0
 40
0.0
 40
0.0
 40
1.0
 40
1.0
 40
1.0
 40
2.0
 40
2.0
 40
2.0
 40
3.0
 40
3.0
 40
3.0
 40
4.0
 40
4.0
 40
4.0
 40
5.0
 40
5.0
 40
5.0
 40
6.0
 40
6.0
 40
6.0
 40
7.0
 40
7.0
 40
7.0
 40
8.0
 40
8.0
 40
8.0
 40
9.0
 40
9.0
 40
9.0
 40
9.0
 10
2845.607566263459
 20
-1935.3565303996
 30
0.0
 10
2845.746528208458
 20
-1935.372648469074
 30
0.0
 10
2845.885499178132
 20
-1935.388784587896
 30
0.0
 10
2846.024461123134
 20
-1935.404902657374
 30
0.0
 10
2845.927879051737
 20
-1936.976585899974
 30
0.0
 10
2845.945666686077
 20
-1938.565578469148
 30
0.0
 10
2845.710817569651
 20
-1940.116306416497
 30
0.0
 10
2845.227970385384
 20
-1943.304615782992
 30
0.0
 10
2846.707439499265
 20
-1944.345196904327
 30
0.0
 10
2849.6897787092
 20
-1944.290381028633
 30
0.0
 10
2853.596804164658
 20
-1944.218544615971
 30
0.0
 10
2856.96356745377
 20
-1943.551386495037
 30
0.0
 10
2859.248236116741
 20
-1939.776003973187
 30
0.0
 10
2876.282021310008
 20
-1911.628042779776
 30
0.0
 10
2891.810346325516
 20
-1882.726773918286
 30
0.0
 10
2903.729306739695
 20
-1851.989859096351
 30
0.0
 10
2906.441835242413
 20
-1844.994671092403
 30
0.0
 10
2904.883003136953
 20
-1838.939791046336
 30
0.0
 10
2899.973886798851
 20
-1833.470341664781
 30
0.0
 10
2889.575024585216
 20
-1821.884518101991
 30
0.0
 10
2876.846496679269
 20
-1818.684909842448
 30
0.0
 10
2861.952570214597
 20
-1822.421802125604
 30
0.0
 10
2859.219321058174
 20
-1823.107578150973
 30
0.0
 10
2858.53794004951
 20
-1824.667899327805
 30
0.0
 10
2858.272434112251
 20
-1826.939058052363
 30
0.0
 10
2854.04756862945
 20
-1863.077836465094
 30
0.0
 10
2849.828190149029
 20
-1899.217255629745
 30
0.0
 10
2845.607566263459
 20
-1935.3565303996
 30
0.0
  0
SPLINE
  5
83
330
70
100
AcDbEntity
  8
Layer 1
100
AcDbSpline
210
0.0
220
0.0
230
1.0
 70
     9
 71
     3
 72
   173
 73
   169
 74
     0
 42
0.0000000001
 43
0.0000000001
 40
0.0
 40
0.0
 40
0.0
 40
0.0
 40
1.0
 40
1.0
 40
1.0
 40
2.0
 40
2.0
 40
2.0
 40
3.0
 40
3.0
 40
3.0
 40
4.0
 40
4.0
 40
4.0
 40
5.0
 40
5.0
 40
5.0
 40
6.0
 40
6.0
 40
6.0
 40
7.0
 40
7.0
 40
7.0
 40
8.0
 40
8.0
 40
8.0
 40
9.0
 40
9.0
 40
9.0
 40
10.0
 40
10.0
 40
10.0
 40
11.0
 40
11.0
 40
11.0
 40
12.0
 40
12.0
 40
12.0
 40
13.0
 40
13.0
 40
13.0
 40
14.0
 40
14.0
 40
14.0
 40
15.0
 40
15.0
 40
15.0
 40
16.0
 40
16.0
 40
16.0
 40
17.0
 40
17.0
 40
17.0
 40
18.0
 40
18.0
 40
18.0
 40
19.0
 40
19.0
 40
19.0
 40
20.0
 40
20.0
 40
20.0
 40
21.0
 40
21.0
 40
21.0
 40
22.0
 40
22.0
 40
22.0
 40
23.0
 40
23.0
 40
23.0
 40
24.0
 40
24.0
 40
24.0
 40
25.0
 40
25.0
 40
25.0
 40
26.0
 40
26.0
 40
26.0
 40
27.0
 40
27.0
 40
27.0
 40
28.0
 40
28.0
 40
28.0
 40
29.0
 40
29.0
 40
29.0
 40
30.0
 40
30.0
 40
30.0
 40
31.0
 40
31.0
 40
31.0
 40
32.0
 40
32.0
 40
32.0
 40
33.0
 40
33.0
 40
33.0
 40
34.0
 40
34.0
 40
34.0
 40
35.0
 40
35.0
 40
35.0
 40
36.0
 40
36.0
 40
36.0
 40
37.0
 40
37.0
 40
37.0
 40
38.0
 40
38.0
 40
38.0
 40
39.0
 40
39.0
 40
39.0
 40
40.0
 40
40.0
 40
40.0
 40
41.0
 40
41.0
 40
41.0
 40
42.0
 40
42.0
 40
42.0
 40
43.0
 40
43.0
 40
43.0
 40
44.0
 40
44.0
 40
44.0
 40
45.0
 40
45.0
 40
45.0
 40
46.0
 40
46.0
 40
46.0
 40
47.0
 40
47.0
 40
47.0
 40
48.0
 40
48.0
 40
48.0
 40
49.0
 40
49.0
 40
49.0
 40
50.0
 40
50.0
 40
50.0
 40
51.0
 40
51.0
 40
51.0
 40
52.0
 40
52.0
 40
52.0
 40
53.0
 40
53.0
 40
53.0
 40
54.0
 40
54.0
 40
54.0
 40
55.0
 40
55.0
 40
55.0
 40
56.0
 40
56.0
 40
56.0
 40
56.0
 10
2921.986260278046
 20
-1708.933915424748
 30
0.0
 10
2937.502979561557
 20
-1718.188366503576
 30
0.0
 10
2953.457558024669
 20
-1726.785024817908
 30
0.0
 10
2967.000057463762
 20
-1738.998839412312
 30
0.0
 10
2969.679122471736
 20
-1741.415042712791
 30
0.0
 10
2971.796509759688
 20
-1744.281166670955
 30
0.0
 10
2973.285635275776
 20
-1747.505452904168
 30
0.0
 10
2977.357532518041
 20
-1756.32201885745
 30
0.0
 10
2973.038593823482
 20
-1763.410941647851
 30
0.0
 10
2963.473521329199
 20
-1762.955317395592
 30
0.0
 10
2953.450193889907
 20
-1762.477857942273
 30
0.0
 10
2943.461791942699
 20
-1761.224844997106
 30
0.0
 10
2933.465141442585
 20
-1760.23974757741
 30
0.0
 10
2918.788168163896
 20
-1758.793435119323
 30
0.0
 10
2904.236421274925
 20
-1755.554348419178
 30
0.0
 10
2889.354912762994
 20
-1757.127660615611
 30
0.0
 10
2887.421574696133
 20
-1757.332055966393
 30
0.0
 10
2885.45004420485
 20
-1757.757506217929
 30
0.0
 10
2883.645831187283
 20
-1758.463141040543
 30
0.0
 10
2881.018224875918
 20
-1759.490803339677
 30
0.0
 10
2878.521873437136
 20
-1761.183683454625
 30
0.0
 10
2877.928103972963
 20
-1764.029154444148
 30
0.0
 10
2877.287334001607
 20
-1767.099800098544
 30
0.0
 10
2880.654422179019
 20
-1767.457894688532
 30
0.0
 10
2882.362143371933
 20
-1768.805278659731
 30
0.0
 10
2884.857375751018
 20
-1770.773997964765
 30
0.0
 10
2887.338096452774
 20
-1772.689566446634
 30
0.0
 10
2888.823052569029
 20
-1775.567291624456
 30
0.0
 10
2891.793199443096
 20
-1781.32312101645
 30
0.0
 10
2889.841613483468
 20
-1786.137058620106
 30
0.0
 10
2883.678951744378
 20
-1788.008658885583
 30
0.0
 10
2881.049973682419
 20
-1788.807089928452
 30
0.0
 10
2878.332589904572
 20
-1789.359526381317
 30
0.0
 10
2875.62258831084
 20
-1789.837843178755
 30
0.0
 10
2866.830100190344
 20
-1791.389735309176
 30
0.0
 10
2861.626021375922
 20
-1797.999362124903
 30
0.0
 10
2861.965276956939
 20
-1807.061146546139
 30
0.0
 10
2862.072977427883
 20
-1809.938844649938
 30
0.0
 10
2863.698267239737
 20
-1809.631671788398
 30
0.0
 10
2865.563811948314
 20
-1809.23224869944
 30
0.0
 10
2871.390051854329
 20
-1807.984813003395
 30
0.0
 10
2876.921004395719
 20
-1805.858599583336
 30
0.0
 10
2882.09526568408
 20
-1802.980784158766
 30
0.0
 10
2890.806026348159
 20
-1798.136013753113
 30
0.0
 10
2899.436720096014
 20
-1798.309025796729
 30
0.0
 10
2908.030448775238
 20
-1802.968023268373
 30
0.0
 10
2922.508518217854
 20
-1810.817126016829
 30
0.0
 10
2935.590650937998
 20
-1820.569361245065
 30
0.0
 10
2946.994212165335
 20
-1832.470281334006
 30
0.0
 10
2949.56445764267
 20
-1835.152613274314
 30
0.0
 10
2951.865442917964
 20
-1838.18408281472
 30
0.0
 10
2953.823219804612
 20
-1841.344235195343
 30
0.0
 10
2958.737588503538
 20
-1849.276825211835
 30
0.0
 10
2958.216214981874
 20
-1855.347850401405
 30
0.0
 10
2952.344996095873
 20
-1862.480132242639
 30
0.0
 10
2951.095547897314
 20
-1863.997938175744
 30
0.0
 10
2949.841840052175
 20
-1865.574278150623
 30
0.0
 10
2948.330838723987
 20
-1866.805478456415
 30
0.0
 10
2924.784198304568
 20
-1885.991576429725
 30
0.0
 10
2910.345711086315
 20
-1911.724534604426
 30
0.0
 10
2896.935513382107
 20
-1938.194321390733
 30
0.0
 10
2894.798686944296
 20
-1942.412129577715
 30
0.0
 10
2892.404169937739
 20
-1946.577341959044
 30
0.0
 10
2890.913510226909
 20
-1951.02957510273
 30
0.0
 10
2886.806308456208
 20
-1963.296887970282
 30
0.0
 10
2877.455048561025
 20
-1967.397321234763
 30
0.0
 10
2865.723620892468
 20
-1967.561028838496
 30
0.0
 10
2859.446255534664
 20
-1967.648640382988
 30
0.0
 10
2853.104688639209
 20
-1967.143908361944
 30
0.0
 10
2846.881733046727
 20
-1966.268911976738
 30
0.0
 10
2834.678820259675
 20
-1964.553140773758
 30
0.0
 10
2822.547229478811
 20
-1964.506158315925
 30
0.0
 10
2810.370009941364
 20
-1966.329070460004
 30
0.0
 10
2801.965303079129
 20
-1967.587254543923
 30
0.0
 10
2793.523450654769
 20
-1968.144474074517
 30
0.0
 10
2785.029986114327
 20
-1967.125281432833
 30
0.0
 10
2781.467261033182
 20
-1966.697746481382
 30
0.0
 10
2778.046087978752
 20
-1965.800946481475
 30
0.0
 10
2774.821589665675
 20
-1964.282851758769
 30
0.0
 10
2766.142555246412
 20
-1960.196785776821
 30
0.0
 10
2765.073081628196
 20
-1952.51140868145
 30
0.0
 10
2772.962055390619
 20
-1947.234356345321
 30
0.0
 10
2777.355709369154
 20
-1944.295344599861
 30
0.0
 10
2777.740566632727
 20
-1941.796646745592
 30
0.0
 10
2775.930280008916
 20
-1937.194261059958
 30
0.0
 10
2763.167061252434
 20
-1904.745753459552
 30
0.0
 10
2750.653577813721
 20
-1872.198931050152
 30
0.0
 10
2738.087931753749
 20
-1839.672847343807
 30
0.0
 10
2736.171846609241
 20
-1834.713075505171
 30
0.0
 10
2734.469621443374
 20
-1829.67024055822
 30
0.0
 10
2732.527863354774
 20
-1824.721000515257
 30
0.0
 10
2731.596952339695
 20
-1822.348242000024
 30
0.0
 10
2732.046094619165
 20
-1820.539399324205
 30
0.0
 10
2733.958987284908
 20
-1818.953989550993
 30
0.0
 10
2735.792945631134
 20
-1817.434026720572
 30
0.0
 10
2737.301201201967
 20
-1818.562336707173
 30
0.0
 10
2738.754214481209
 20
-1819.552533068219
 30
0.0
 10
2747.080767658308
 20
-1825.226905744041
 30
0.0
 10
2755.24163682786
 20
-1831.159447296382
 30
0.0
 10
2761.26302630516
 20
-1839.378336101234
 30
0.0
 10
2763.392917280266
 20
-1842.285526842793
 30
0.0
 10
2765.297313214536
 20
-1842.87363783577
 30
0.0
 10
2768.663525998474
 20
-1841.731872058806
 30
0.0
 10
2778.759235843265
 20
-1838.307540368141
 30
0.0
 10
2788.585130468508
 20
-1834.287616228959
 30
0.0
 10
2798.244294223902
 20
-1829.787362789821
 30
0.0
 10
2801.682875876324
 20
-1828.185302491312
 30
0.0
 10
2802.598185484573
 20
-1826.143144893807
 30
0.0
 10
2802.099734637303
 20
-1822.400539991404
 30
0.0
 10
2800.64340479001
 20
-1811.465774529423
 30
0.0
 10
2799.598067664973
 20
-1800.475281699577
 30
0.0
 10
2798.472817043183
 20
-1789.498316857493
 30
0.0
 10
2798.273813935686
 20
-1787.557055126019
 30
0.0
 10
2798.231479185461
 20
-1785.539065608054
 30
0.0
 10
2798.532109157657
 20
-1783.621629018466
 30
0.0
 10
2798.971358137203
 20
-1780.820072097287
 30
0.0
 10
2798.68849775
 20
-1776.905948734975
 30
0.0
 10
2802.464548097798
 20
-1776.589836932888
 30
0.0
 10
2806.081556598814
 20
-1776.287027501692
 30
0.0
 10
2807.633403605856
 20
-1779.612872914544
 30
0.0
 10
2808.7474636307
 20
-1782.668415775397
 30
0.0
 10
2812.093000884308
 20
-1791.844299162125
 30
0.0
 10
2812.910925225088
 20
-1801.478590913337
 30
0.0
 10
2813.869688643254
 20
-1811.087469179865
 30
0.0
 10
2813.9991205315
 20
-1812.384666933629
 30
0.0
 10
2814.235070658271
 20
-1813.671251669637
 30
0.0
 10
2814.415230244455
 20
-1814.91804661376
 30
0.0
 10
2816.713390796484
 20
-1815.076989189116
 30
0.0
 10
2817.406476808568
 20
-1813.405953299903
 30
0.0
 10
2818.429649331911
 20
-1812.34471469759
 30
0.0
 10
2826.637239243717
 20
-1803.831829056636
 30
0.0
 10
2834.535743062892
 20
-1795.048591227971
 30
0.0
 10
2842.028867507639
 20
-1785.887715875697
 30
0.0
 10
2845.474172542907
 20
-1781.675597746276
 30
0.0
 10
2848.254133416909
 20
-1777.320343759688
 30
0.0
 10
2848.943735904462
 20
-1771.820833185846
 30
0.0
 10
2849.378382299781
 20
-1768.354604441689
 30
0.0
 10
2851.242825998014
 20
-1766.41120386225
 30
0.0
 10
2854.825405364065
 20
-1765.641854834432
 30
0.0
 10
2863.542880386312
 20
-1763.769816872222
 30
0.0
 10
2868.773979077558
 20
-1757.257358731765
 30
0.0
 10
2873.889652176093
 20
-1750.678727162185
 30
0.0
 10
2876.597668341334
 20
-1747.196308151151
 30
0.0
 10
2875.013404701838
 20
-1745.384913748489
 30
0.0
 10
2871.451618186891
 20
-1744.385952171889
 30
0.0
 10
2863.945705777727
 20
-1742.280791062336
 30
0.0
 10
2856.256177331876
 20
-1742.436920195274
 30
0.0
 10
2848.568471870365
 20
-1742.595950761215
 30
0.0
 10
2811.702701741733
 20
-1743.358556100667
 30
0.0
 10
2775.81212896437
 20
-1750.669639314501
 30
0.0
 10
2740.038073765385
 20
-1758.759218064222
 30
0.0
 10
2733.716022729526
 20
-1760.188830361299
 30
0.0
 10
2727.528021959324
 20
-1760.515997390206
 30
0.0
 10
2721.848915841484
 20
-1756.623961919851
 30
0.0
 10
2720.319641802677
 20
-1755.575903855313
 30
0.0
 10
2718.990638838195
 20
-1754.047254775249
 30
0.0
 10
2719.339302642855
 20
-1752.223191985113
 30
0.0
 10
2719.680690303327
 20
-1750.437190761613
 30
0.0
 10
2721.746203759622
 20
-1750.53733757962
 30
0.0
 10
2723.24237980302
 20
-1750.210129939673
 30
0.0
 10
2782.897563717894
 20
-1737.163845484634
 30
0.0
 10
2842.559238630233
 20
-1724.147062692029
 30
0.0
 10
2902.196014464362
 20
-1711.017182390833
 30
0.0
 10
2905.631166740305
 20
-1710.260889529489
 30
0.0
 10
2909.318125496918
 20
-1710.767258118931
 30
0.0
 10
2912.523202709485
 20
-1708.933915424748
 30
0.0
 10
2915.677561248789
 20
-1708.933915424748
 30
0.0
 10
2918.831901738742
 20
-1708.933915424748
 30
0.0
 10
2921.986260278046
 20
-1708.933915424748
 30
0.0
  0
HATCH
  5
84
330
70
100
AcDbEntity
  8
Layer 1
 62
   168
420
   922409
440
 33554687
100
AcDbHatch
 10
0.0
 20
0.0
 30
0.0
210
0.0
220
0.0
230
1.0
  2
SOLID
 70
     1
 71
     1
 91
        5
 92
        1
 93
        1
 72
     4
 94
        3
 73
     0
 74
     0
 95
       17
 96
       13
 40
0.0
 40
0.0
 40
0.0
 40
0.0
 40
1.0
 40
1.0
 40
1.0
 40
2.0
 40
2.0
 40
2.0
 40
3.0
 40
3.0
 40
3.0
 40
4.0
 40
4.0
 40
4.0
 40
4.0
 10
2845.897177107529
 20
-1805.444538471596
 10
2846.163738931757
 20
-1799.284114851894
 10
2845.276225322383
 20
-1798.385870903994
 10
2840.045794457083
 20
-1799.522411394157
 10
2835.066249555612
 20
-1800.604433822898
 10
2828.885484318556
 20
-1809.998380430634
 10
2829.568011460941
 20
-1815.432389913631
 10
2829.693201751956
 20
-1816.429056966621
 10
2829.858605994583
 20
-1817.109598680514
 10
2831.17696661112
 20
-1817.33516140641
 10
2838.654649837014
 20
-1818.614553476478
 10
2845.566152030077
 20
-1813.094674211259
 10
2845.897177107529
 20
-1805.444538471596
 97
        0
 97
        1
330
7F
 92
        1
 93
        1
 72
     4
 94
        3
 73
     0
 74
     0
 95
       32
 96
       28
 40
0.0
 40
0.0
 40
0.0
 40
0.0
 40
1.0
 40
1.0
 40
1.0
 40
2.0
 40
2.0
 40
2.0
 40
3.0
 40
3.0
 40
3.0
 40
4.0
 40
4.0
 40
4.0
 40
5.0
 40
5.0
 40
5.0
 40
6.0
 40
6.0
 40
6.0
 40
7.0
 40
7.0
 40
7.0
 40
8.0
 40
8.0
 40
8.0
 40
9.0
 40
9.0
 40
9.0
 40
9.0
 10
2819.693401640279
 20
-1890.318420739546
 10
2820.432143482975
 20
-1904.244956196791
 10
2821.622534208609
 20
-1920.745256754606
 10
2822.021370693694
 20
-1937.264689623327
 10
2822.17115322397
 20
-1943.468070695828
 10
2825.976154729031
 20
-1942.060835080305
 10
2829.420800963029
 20
-1942.61408375392
 10
2834.174728990556
 20
-1943.377661502102
 10
2833.848568212905
 20
-1940.231371022208
 10
2834.045829558132
 20
-1937.210631820329
 10
2834.67411840402
 20
-1927.58937169976
 10
2835.263140889167
 20
-1917.963328501461
 10
2836.075487980818
 20
-1908.35672445302
 10
2838.197892988048
 20
-1883.257569200607
 10
2840.357055496379
 20
-1858.160904758479
 10
2842.685647252367
 20
-1833.080349361151
 10
2843.119761191863
 20
-1828.404683314862
 10
2842.418598095692
 20
-1826.332672092596
 10
2837.15423445255
 20
-1828.066889731189
 10
2831.931691153166
 20
-1829.787308641773
 10
2826.55305707571
 20
-1831.066141181995
 10
2821.19250844687
 20
-1832.324018426962
 10
2817.580201801508
 20
-1833.171670047051
 10
2816.160728726742
 20
-1834.752386989285
 10
2816.477567015163
 20
-1838.839211043929
 10
2817.739785128788
 20
-1855.120076630144
 10
2818.556418941046
 20
-1871.435479647422
 10
2819.693401640279
 20
-1890.318420739546
 97
        0
 97
        1
330
80
 92
        1
 93
        1
 72
     4
 94
        3
 73
     0
 74
     0
 95
       29
 96
       25
 40
0.0
 40
0.0
 40
0.0
 40
0.0
 40
1.0
 40
1.0
 40
1.0
 40
2.0
 40
2.0
 40
2.0
 40
3.0
 40
3.0
 40
3.0
 40
4.0
 40
4.0
 40
4.0
 40
5.0
 40
5.0
 40
5.0
 40
6.0
 40
6.0
 40
6.0
 40
7.0
 40
7.0
 40
7.0
 40
8.0
 40
8.0
 40
8.0
 40
8.0
 10
2804.711475570091
 20
-1941.190657871524
 10
2810.083918720526
 20
-1942.395145139442
 10
2811.301834704782
 20
-1939.999725665391
 10
2810.422777215843
 20
-1934.765865423611
 10
2808.630684336744
 20
-1924.096010270339
 10
2806.764435703519
 20
-1913.387944643298
 10
2805.935104173596
 20
-1902.618132190197
 10
2804.439363570766
 20
-1883.194414525249
 10
2803.573653576086
 20
-1863.718642535146
 10
2802.702267060859
 20
-1844.253104526446
 10
2802.507496525921
 20
-1839.90229970461
 10
2801.442269017274
 20
-1838.693787431659
 10
2797.151739999483
 20
-1840.32781312887
 10
2789.601705954456
 20
-1843.203173841853
 10
2782.259591395776
 20
-1846.536897795946
 10
2774.818277609966
 20
-1849.641458178832
 10
2769.197917613763
 20
-1851.98630337442
 10
2768.692608013525
 20
-1854.556296160856
 10
2771.022156385063
 20
-1859.874997371917
 10
2781.936183143991
 20
-1884.793298138174
 10
2791.227961406525
 20
-1910.321793277035
 10
2797.703616922505
 20
-1936.780660206641
 10
2798.737339290872
 20
-1941.004316382994
 10
2801.062411423626
 20
-1941.54709643366
 10
2804.711475570091
 20
-1941.190657871524
 97
        0
 97
        1
330
81
 92
        1
 93
        1
 72
     4
 94
        3
 73
     0
 74
     0
 95
       32
 96
       28
 40
0.0
 40
0.0
 40
0.0
 40
0.0
 40
1.0
 40
1.0
 40
1.0
 40
2.0
 40
2.0
 40
2.0
 40
3.0
 40
3.0
 40
3.0
 40
4.0
 40
4.0
 40
4.0
 40
5.0
 40
5.0
 40
5.0
 40
6.0
 40
6.0
 40
6.0
 40
7.0
 40
7.0
 40
7.0
 40
8.0
 40
8.0
 40
8.0
 40
9.0
 40
9.0
 40
9.0
 40
9.0
 10
2845.607566263459
 20
-1935.3565303996
 10
2845.746528208458
 20
-1935.372648469074
 10
2845.885499178132
 20
-1935.388784587896
 10
2846.024461123134
 20
-1935.404902657374
 10
2845.927879051737
 20
-1936.976585899974
 10
2845.945666686077
 20
-1938.565578469148
 10
2845.710817569651
 20
-1940.116306416497
 10
2845.227970385384
 20
-1943.304615782992
 10
2846.707439499265
 20
-1944.345196904327
 10
2849.6897787092
 20
-1944.290381028633
 10
2853.596804164658
 20
-1944.218544615971
 10
2856.96356745377
 20
-1943.551386495037
 10
2859.248236116741
 20
-1939.776003973187
 10
2876.282021310008
 20
-1911.628042779776
 10
2891.810346325516
 20
-1882.726773918286
 10
2903.729306739695
 20
-1851.989859096351
 10
2906.441835242413
 20
-1844.994671092403
 10
2904.883003136953
 20
-1838.939791046336
 10
2899.973886798851
 20
-1833.470341664781
 10
2889.575024585216
 20
-1821.884518101991
 10
2876.846496679269
 20
-1818.684909842448
 10
2861.952570214597
 20
-1822.421802125604
 10
2859.219321058174
 20
-1823.107578150973
 10
2858.53794004951
 20
-1824.667899327805
 10
2858.272434112251
 20
-1826.939058052363
 10
2854.04756862945
 20
-1863.077836465094
 10
2849.828190149029
 20
-1899.217255629745
 10
2845.607566263459
 20
-1935.3565303996
 97
        0
 97
        1
330
82
 92
        1
 93
        1
 72
     4
 94
        3
 73
     0
 74
     0
 95
      173
 96
      169
 40
0.0
 40
0.0
 40
0.0
 40
0.0
 40
1.0
 40
1.0
 40
1.0
 40
2.0
 40
2.0
 40
2.0
 40
3.0
 40
3.0
 40
3.0
 40
4.0
 40
4.0
 40
4.0
 40
5.0
 40
5.0
 40
5.0
 40
6.0
 40
6.0
 40
6.0
 40
7.0
 40
7.0
 40
7.0
 40
8.0
 40
8.0
 40
8.0
 40
9.0
 40
9.0
 40
9.0
 40
10.0
 40
10.0
 40
10.0
 40
11.0
 40
11.0
 40
11.0
 40
12.0
 40
12.0
 40
12.0
 40
13.0
 40
13.0
 40
13.0
 40
14.0
 40
14.0
 40
14.0
 40
15.0
 40
15.0
 40
15.0
 40
16.0
 40
16.0
 40
16.0
 40
17.0
 40
17.0
 40
17.0
 40
18.0
 40
18.0
 40
18.0
 40
19.0
 40
19.0
 40
19.0
 40
20.0
 40
20.0
 40
20.0
 40
21.0
 40
21.0
 40
21.0
 40
22.0
 40
22.0
 40
22.0
 40
23.0
 40
23.0
 40
23.0
 40
24.0
 40
24.0
 40
24.0
 40
25.0
 40
25.0
 40
25.0
 40
26.0
 40
26.0
 40
26.0
 40
27.0
 40
27.0
 40
27.0
 40
28.0
 40
28.0
 40
28.0
 40
29.0
 40
29.0
 40
29.0
 40
30.0
 40
30.0
 40
30.0
 40
31.0
 40
31.0
 40
31.0
 40
32.0
 40
32.0
 40
32.0
 40
33.0
 40
33.0
 40
33.0
 40
34.0
 40
34.0
 40
34.0
 40
35.0
 40
35.0
 40
35.0
 40
36.0
 40
36.0
 40
36.0
 40
37.0
 40
37.0
 40
37.0
 40
38.0
 40
38.0
 40
38.0
 40
39.0
 40
39.0
 40
39.0
 40
40.0
 40
40.0
 40
40.0
 40
41.0
 40
41.0
 40
41.0
 40
42.0
 40
42.0
 40
42.0
 40
43.0
 40
43.0
 40
43.0
 40
44.0
 40
44.0
 40
44.0
 40
45.0
 40
45.0
 40
45.0
 40
46.0
 40
46.0
 40
46.0
 40
47.0
 40
47.0
 40
47.0
 40
48.0
 40
48.0
 40
48.0
 40
49.0
 40
49.0
 40
49.0
 40
50.0
 40
50.0
 40
50.0
 40
51.0
 40
51.0
 40
51.0
 40
52.0
 40
52.0
 40
52.0
 40
53.0
 40
53.0
 40
53.0
 40
54.0
 40
54.0
 40
54.0
 40
55.0
 40
55.0
 40
55.0
 40
56.0
 40
56.0
 40
56.0
 40
56.0
 10
2921.986260278046
 20
-1708.933915424748
 10
2937.502979561557
 20
-1718.188366503576
 10
2953.457558024669
 20
-1726.785024817908
 10
2967.000057463762
 20
-1738.998839412312
 10
2969.679122471736
 20
-1741.415042712791
 10
2971.796509759688
 20
-1744.281166670955
 10
2973.285635275776
 20
-1747.505452904168
 10
2977.357532518041
 20
-1756.32201885745
 10
2973.038593823482
 20
-1763.410941647851
 10
2963.473521329199
 20
-1762.955317395592
 10
2953.450193889907
 20
-1762.477857942273
 10
2943.461791942699
 20
-1761.224844997106
 10
2933.465141442585
 20
-1760.23974757741
 10
2918.788168163896
 20
-1758.793435119323
 10
2904.236421274925
 20
-1755.554348419178
 10
2889.354912762994
 20
-1757.127660615611
 10
2887.421574696133
 20
-1757.332055966393
 10
2885.45004420485
 20
-1757.757506217929
 10
2883.645831187283
 20
-1758.463141040543
 10
2881.018224875918
 20
-1759.490803339677
 10
2878.521873437136
 20
-1761.183683454625
 10
2877.928103972963
 20
-1764.029154444148
 10
2877.287334001607
 20
-1767.099800098544
 10
2880.654422179019
 20
-1767.457894688532
 10
2882.362143371933
 20
-1768.805278659731
 10
2884.857375751018
 20
-1770.773997964765
 10
2887.338096452774
 20
-1772.689566446634
 10
2888.823052569029
 20
-1775.567291624456
 10
2891.793199443096
 20
-1781.32312101645
 10
2889.841613483468
 20
-1786.137058620106
 10
2883.678951744378
 20
-1788.008658885583
 10
2881.049973682419
 20
-1788.807089928452
 10
2878.332589904572
 20
-1789.359526381317
 10
2875.62258831084
 20
-1789.837843178755
 10
2866.830100190344
 20
-1791.389735309176
 10
2861.626021375922
 20
-1797.999362124903
 10
2861.965276956939
 20
-1807.061146546139
 10
2862.072977427883
 20
-1809.938844649938
 10
2863.698267239737
 20
-1809.631671788398
 10
2865.563811948314
 20
-1809.23224869944
 10
2871.390051854329
 20
-1807.984813003395
 10
2876.921004395719
 20
-1805.858599583336
 10
2882.09526568408
 20
-1802.980784158766
 10
2890.806026348159
 20
-1798.136013753113
 10
2899.436720096014
 20
-1798.309025796729
 10
2908.030448775238
 20
-1802.968023268373
 10
2922.508518217854
 20
-1810.817126016829
 10
2935.590650937998
 20
-1820.569361245065
 10
2946.994212165335
 20
-1832.470281334006
 10
2949.56445764267
 20
-1835.152613274314
 10
2951.865442917964
 20
-1838.18408281472
 10
2953.823219804612
 20
-1841.344235195343
 10
2958.737588503538
 20
-1849.276825211835
 10
2958.216214981874
 20
-1855.347850401405
 10
2952.344996095873
 20
-1862.480132242639
 10
2951.095547897314
 20
-1863.997938175744
 10
2949.841840052175
 20
-1865.574278150623
 10
2948.330838723987
 20
-1866.805478456415
 10
2924.784198304568
 20
-1885.991576429725
 10
2910.345711086315
 20
-1911.724534604426
 10
2896.935513382107
 20
-1938.194321390733
 10
2894.798686944296
 20
-1942.412129577715
 10
2892.404169937739
 20
-1946.577341959044
 10
2890.913510226909
 20
-1951.02957510273
 10
2886.806308456208
 20
-1963.296887970282
 10
2877.455048561025
 20
-1967.397321234763
 10
2865.723620892468
 20
-1967.561028838496
 10
2859.446255534664
 20
-1967.648640382988
 10
2853.104688639209
 20
-1967.143908361944
 10
2846.881733046727
 20
-1966.268911976738
 10
2834.678820259675
 20
-1964.553140773758
 10
2822.547229478811
 20
-1964.506158315925
 10
2810.370009941364
 20
-1966.329070460004
 10
2801.965303079129
 20
-1967.587254543923
 10
2793.523450654769
 20
-1968.144474074517
 10
2785.029986114327
 20
-1967.125281432833
 10
2781.467261033182
 20
-1966.697746481382
 10
2778.046087978752
 20
-1965.800946481475
 10
2774.821589665675
 20
-1964.282851758769
 10
2766.142555246412
 20
-1960.196785776821
 10
2765.073081628196
 20
-1952.51140868145
 10
2772.962055390619
 20
-1947.234356345321
 10
2777.355709369154
 20
-1944.295344599861
 10
2777.740566632727
 20
-1941.796646745592
 10
2775.930280008916
 20
-1937.194261059958
 10
2763.167061252434
 20
-1904.745753459552
 10
2750.653577813721
 20
-1872.198931050152
 10
2738.087931753749
 20
-1839.672847343807
 10
2736.171846609241
 20
-1834.713075505171
 10
2734.469621443374
 20
-1829.67024055822
 10
2732.527863354774
 20
-1824.721000515257
 10
2731.596952339695
 20
-1822.348242000024
 10
2732.046094619165
 20
-1820.539399324205
 10
2733.958987284908
 20
-1818.953989550993
 10
2735.792945631134
 20
-1817.434026720572
 10
2737.301201201967
 20
-1818.562336707173
 10
2738.754214481209
 20
-1819.552533068219
 10
2747.080767658308
 20
-1825.226905744041
 10
2755.24163682786
 20
-1831.159447296382
 10
2761.26302630516
 20
-1839.378336101234
 10
2763.392917280266
 20
-1842.285526842793
 10
2765.297313214536
 20
-1842.87363783577
 10
2768.663525998474
 20
-1841.731872058806
 10
2778.759235843265
 20
-1838.307540368141
 10
2788.585130468508
 20
-1834.287616228959
 10
2798.244294223902
 20
-1829.787362789821
 10
2801.682875876324
 20
-1828.185302491312
 10
2802.598185484573
 20
-1826.143144893807
 10
2802.099734637303
 20
-1822.400539991404
 10
2800.64340479001
 20
-1811.465774529423
 10
2799.598067664973
 20
-1800.475281699577
 10
2798.472817043183
 20
-1789.498316857493
 10
2798.273813935686
 20
-1787.557055126019
 10
2798.231479185461
 20
-1785.539065608054
 10
2798.532109157657
 20
-1783.621629018466
 10
2798.971358137203
 20
-1780.820072097287
 10
2798.68849775
 20
-1776.905948734975
 10
2802.464548097798
 20
-1776.589836932888
 10
2806.081556598814
 20
-1776.287027501692
 10
2807.633403605856
 20
-1779.612872914544
 10
2808.7474636307
 20
-1782.668415775397
 10
2812.093000884308
 20
-1791.844299162125
 10
2812.910925225088
 20
-1801.478590913337
 10
2813.869688643254
 20
-1811.087469179865
 10
2813.9991205315
 20
-1812.384666933629
 10
2814.235070658271
 20
-1813.671251669637
 10
2814.415230244455
 20
-1814.91804661376
 10
2816.713390796484
 20
-1815.076989189116
 10
2817.406476808568
 20
-1813.405953299903
 10
2818.429649331911
 20
-1812.34471469759
 10
2826.637239243717
 20
-1803.831829056636
 10
2834.535743062892
 20
-1795.048591227971
 10
2842.028867507639
 20
-1785.887715875697
 10
2845.474172542907
 20
-1781.675597746276
 10
2848.254133416909
 20
-1777.320343759688
 10
2848.943735904462
 20
-1771.820833185846
 10
2849.378382299781
 20
-1768.354604441689
 10
2851.242825998014
 20
-1766.41120386225
 10
2854.825405364065
 20
-1765.641854834432
 10
2863.542880386312
 20
-1763.769816872222
 10
2868.773979077558
 20
-1757.257358731765
 10
2873.889652176093
 20
-1750.678727162185
 10
2876.597668341334
 20
-1747.196308151151
 10
2875.013404701838
 20
-1745.384913748489
 10
2871.451618186891
 20
-1744.385952171889
 10
2863.945705777727
 20
-1742.280791062336
 10
2856.256177331876
 20
-1742.436920195274
 10
2848.568471870365
 20
-1742.595950761215
 10
2811.702701741733
 20
-1743.358556100667
 10
2775.81212896437
 20
-1750.669639314501
 10
2740.038073765385
 20
-1758.759218064222
 10
2733.716022729526
 20
-1760.188830361299
 10
2727.528021959324
 20
-1760.515997390206
 10
2721.848915841484
 20
-1756.623961919851
 10
2720.319641802677
 20
-1755.575903855313
 10
2718.990638838195
 20
-1754.047254775249
 10
2719.339302642855
 20
-1752.223191985113
 10
2719.680690303327
 20
-1750.437190761613
 10
2721.746203759622
 20
-1750.53733757962
 10
2723.24237980302
 20
-1750.210129939673
 10
2782.897563717894
 20
-1737.163845484634
 10
2842.559238630233
 20
-1724.147062692029
 10
2902.196014464362
 20
-1711.017182390833
 10
2905.631166740305
 20
-1710.260889529489
 10
2909.318125496918
 20
-1710.767258118931
 10
2912.523202709485
 20
-1708.933915424748
 10
2915.677561248789
 20
-1708.933915424748
 10
2918.831901738742
 20
-1708.933915424748
 10
2921.986260278046
 20
-1708.933915424748
 97
        0
 97
        1
330
83
 75
     2
 76
     1
 98
        1
 10
0.0
 20
0.0
450
        0
451
        0
460
0.0
461
0.0
452
        0
462
0.0
453
        0
470

  0
ENDSEC
  0
SECTION
  2
OBJECTS
  0
DICTIONARY
  5
C
330
0
100
AcDbDictionary
281
     1
  3
ACAD_COLOR
350
63
  3
ACAD_DETAILVIEWSTYLE
350
6A
  3
ACAD_GROUP
350
D
  3
ACAD_LAYOUT
350
62
  3
ACAD_MATERIAL
350
10
  3
ACAD_MLEADERSTYLE
350
66
  3
ACAD_MLINESTYLE
350
5F
  3
ACAD_PLOTSETTINGS
350
61
  3
ACAD_PLOTSTYLENAME
350
E
  3
ACAD_SCALELIST
350
42
  3
ACAD_SECTIONVIEWSTYLE
350
68
  3
ACAD_TABLESTYLE
350
64
  3
ACAD_VISUALSTYLE
350
29
  3
ACDB_RECOMPOSE_DATA
350
8D
  3
AcDbVariableDictionary
350
85
  0
DICTIONARY
  5
63
102
{ACAD_REACTORS
330
C
102
}
330
C
100
AcDbDictionary
281
     1
  0
DICTIONARY
  5
6A
102
{ACAD_REACTORS
330
C
102
}
330
C
100
AcDbDictionary
281
     1
  3
Imperial24
350
6B
  0
DICTIONARY
  5
D
102
{ACAD_REACTORS
330
C
102
}
330
C
100
AcDbDictionary
281
     1
  0
DICTIONARY
  5
62
102
{ACAD_REACTORS
330
C
102
}
330
C
100
AcDbDictionary
281
     1
  3
Layout1
350
6F
  3
Layout2
350
77
  3
Model
350
73
  0
DICTIONARY
  5
10
102
{ACAD_REACTORS
330
C
102
}
330
C
100
AcDbDictionary
281
     1
  3
ByBlock
350
19
  3
ByLayer
350
11
  3
Global
350
21
  0
DICTIONARY
  5
66
102
{ACAD_REACTORS
330
C
102
}
330
C
100
AcDbDictionary
281
     1
  3
Standard
350
67
  0
DICTIONARY
  5
5F
102
{ACAD_REACTORS
330
C
102
}
330
C
100
AcDbDictionary
281
     1
  3
Standard
350
60
  0
DICTIONARY
  5
61
102
{ACAD_REACTORS
330
C
102
}
330
C
100
AcDbDictionary
281
     1
  0
ACDBDICTIONARYWDFLT
  5
E
102
{ACAD_REACTORS
330
C
102
}
330
C
100
AcDbDictionary
281
     1
  3
Normal
350
F
100
AcDbDictionaryWithDefault
340
F
  0
DICTIONARY
  5
42
102
{ACAD_REACTORS
330
C
102
}
330
C
100
AcDbDictionary
281
     1
  3
A0
350
43
  3
A1
350
44
  3
A2
350
45
  3
A3
350
46
  3
A4
350
47
  3
A5
350
48
  3
A6
350
49
  3
A7
350
4A
  3
A8
350
4B
  3
A9
350
4C
  3
B0
350
4D
  3
B1
350
4E
  3
B2
350
4F
  3
B3
350
50
  3
B4
350
51
  3
B5
350
52
  3
B6
350
53
  0
DICTIONARY
  5
68
102
{ACAD_REACTORS
330
C
102
}
330
C
100
AcDbDictionary
281
     1
  3
Imperial24
350
69
  0
DICTIONARY
  5
64
102
{ACAD_REACTORS
330
C
102
}
330
C
100
AcDbDictionary
281
     1
  3
Standard
350
65
  0
DICTIONARY
  5
29
102
{ACAD_REACTORS
330
C
102
}
330
C
100
AcDbDictionary
281
     1
  3
2dWireframe
350
2F
  3
Basic
350
2E
  3
Brighten
350
35
  3
ColorChange
350
39
  3
Conceptual
350
32
  3
Dim
350
34
  3
EdgeColorOff
350
41
  3
Facepattern
350
38
  3
Flat
350
2A
  3
FlatWithEdges
350
2B
  3
Gouraud
350
2C
  3
GouraudWithEdges
350
2D
  3
Hidden
350
31
  3
JitterOff
350
3F
  3
Linepattern
350
37
  3
OverhangOff
350
40
  3
Realistic
350
33
  3
Shaded
350
3E
  3
Shaded with edges
350
3D
  3
Shades of Gray
350
3A
  3
Sketchy
350
3B
  3
Thicken
350
36
  3
Wireframe
350
30
  3
X-Ray
350
3C
  0
XRECORD
  5
8D
102
{ACAD_REACTORS
330
C
102
}
330
C
100
AcDbXrecord
280
     1
 90
        1
330
65
  0
DICTIONARY
  5
85
102
{ACAD_REACTORS
330
C
102
}
330
C
100
AcDbDictionary
281
     1
  3
CANNOSCALE
350
8A
  3
CMLEADERSTYLE
350
87
  3
CTABLESTYLE
350
86
  3
CVIEWDETAILSTYLE
350
88
  3
CVIEWSECTIONSTYLE
350
89
  0
ACDBDETAILVIEWSTYLE
  5
6B
102
{ACAD_REACTORS
330
6A
102
}
330
6A
100
AcDbModelDocViewStyle
 70
     0
  3
Imperial24
290
     1
300
Imperial24
 90
        0
100
AcDbDetailViewStyle
 70
     0
 71
     0
 90
        3
 71
     1
340
55
 62
   256
 40
0.24
340
0
 62
   256
 40
0.24
300

 40
0.36
280
     3
 71
     2
340
5D
 90
       25
 62
   256
 71
     3
340
55
 62
   256
 40
0.24
 90
        1
 40
0.75
 90
        1
300
%<\AcVar ViewType \f "%tc1">% %<\AcVar ViewDetailId>%\PSCALE %<\AcVar ViewScale \f "%sn">%
 71
     4
340
5D
 90
       25
 62
   256
340
5D
 90
       25
 62
   256
280
     0
  0
LAYOUT
  5
6F
102
{ACAD_REACTORS
330
62
102
}
330
62
100
AcDbPlotSettings
  1

  2

  4

  6

 40
0.0
 41
0.0
 42
0.0
 43
0.0
 44
0.0
 45
0.0
 46
0.0
 47
0.0
 48
0.0
 49
0.0
140
0.0
141
0.0
142
1.0
143
1.0
 70
   688
 72
     0
 73
     0
 74
     5
  7

 75
    16
147
1.0
 76
     0
 77
     2
 78
   300
148
0.0
149
0.0
100
AcDbLayout
  1
Layout1
 70
     1
 71
     1
 10
0.0
 20
0.0
 11
12.0
 21
9.0
 12
0.0
 22
0.0
 32
0.0
 14
0.0
 24
0.0
 34
0.0
 15
0.0
 25
0.0
 35
0.0
146
0.0
 13
0.0
 23
0.0
 33
0.0
 16
1.0
 26
0.0
 36
0.0
 17
0.0
 27
1.0
 37
0.0
 76
     0
330
6C
  0
LAYOUT
  5
77
102
{ACAD_REACTORS
330
62
102
}
330
62
100
AcDbPlotSettings
  1

  2

  4

  6

 40
0.0
 41
0.0
 42
0.0
 43
0.0
 44
0.0
 45
0.0
 46
0.0
 47
0.0
 48
0.0
 49
0.0
140
0.0
141
0.0
142
1.0
143
1.0
 70
   688
 72
     0
 73
     0
 74
     5
  7

 75
    16
147
1.0
 76
     0
 77
     2
 78
   300
148
0.0
149
0.0
100
AcDbLayout
  1
Layout2
 70
     1
 71
     2
 10
0.0
 20
0.0
 11
12.0
 21
9.0
 12
0.0
 22
0.0
 32
0.0
 14
0.0
 24
0.0
 34
0.0
 15
0.0
 25
0.0
 35
0.0
146
0.0
 13
0.0
 23
0.0
 33
0.0
 16
1.0
 26
0.0
 36
0.0
 17
0.0
 27
1.0
 37
0.0
 76
     0
330
74
  0
LAYOUT
  5
73
102
{ACAD_REACTORS
330
62
102
}
330
62
100
AcDbPlotSettings
  1

  2

  4

  6

 40
0.0
 41
0.0
 42
0.0
 43
0.0
 44
0.0
 45
0.0
 46
0.0
 47
0.0
 48
0.0
 49
0.0
140
0.0
141
0.0
142
1.0
143
1.0
 70
  1712
 72
     0
 73
     0
 74
     0
  7

 75
     0
147
1.0
 76
     0
 77
     2
 78
   300
148
0.0
149
0.0
100
AcDbLayout
  1
Model
 70
     1
 71
     0
 10
0.0
 20
0.0
 11
12.0
 21
9.0
 12
0.0
 22
0.0
 32
0.0
 14
0.0
 24
0.0
 34
0.0
 15
0.0
 25
0.0
 35
0.0
146
0.0
 13
0.0
 23
0.0
 33
0.0
 16
1.0
 26
0.0
 36
0.0
 17
0.0
 27
1.0
 37
0.0
 76
     0
330
70
  0
MATERIAL
  5
19
102
{ACAD_XDICTIONARY
360
1A
102
}
102
{ACAD_REACTORS
330
10
102
}
330
10
100
AcDbMaterial
  1
ByBlock
 72
     0
 43
0.0208333333333333
 43
0.0
 43
0.0
 43
0.0
 43
0.0
 43
0.0208333333333333
 43
0.0
 43
0.0
 43
0.0
 43
0.0
 43
1.0
 43
0.0
 43
0.0
 43
0.0
 43
0.0
 43
1.0
 77
     0
 47
0.0208333333333333
 47
0.0
 47
0.0
 47
0.0
 47
0.0
 47
0.0208333333333333
 47
0.0
 47
0.0
 47
0.0
 47
0.0
 47
1.0
 47
0.0
 47
0.0
 47
0.0
 47
0.0
 47
1.0
171
     0
 49
0.0208333333333333
 49
0.0
 49
0.0
 49
0.0
 49
0.0
 49
0.0208333333333333
 49
0.0
 49
0.0
 49
0.0
 49
0.0
 49
1.0
 49
0.0
 49
0.0
 49
0.0
 49
0.0
 49
1.0
175
     0
142
0.0208333333333333
142
0.0
142
0.0
142
0.0
142
0.0
142
0.0208333333333333
142
0.0
142
0.0
142
0.0
142
0.0
142
1.0
142
0.0
142
0.0
142
0.0
142
0.0
142
1.0
179
     0
144
0.0208333333333333
144
0.0
144
0.0
144
0.0
144
0.0
144
0.0208333333333333
144
0.0
144
0.0
144
0.0
144
0.0
144
1.0
144
0.0
144
0.0
144
0.0
144
0.0
144
1.0
147
0.0208333333333333
147
0.0
147
0.0
147
0.0
147
0.0
147
0.0208333333333333
147
0.0
147
0.0
147
0.0
147
0.0
147
1.0
147
0.0
147
0.0
147
0.0
147
0.0
147
1.0
  0
MATERIAL
  5
11
102
{ACAD_XDICTIONARY
360
12
102
}
102
{ACAD_REACTORS
330
10
102
}
330
10
100
AcDbMaterial
  1
ByLayer
 72
     0
 43
0.0208333333333333
 43
0.0
 43
0.0
 43
0.0
 43
0.0
 43
0.0208333333333333
 43
0.0
 43
0.0
 43
0.0
 43
0.0
 43
1.0
 43
0.0
 43
0.0
 43
0.0
 43
0.0
 43
1.0
 77
     0
 47
0.0208333333333333
 47
0.0
 47
0.0
 47
0.0
 47
0.0
 47
0.0208333333333333
 47
0.0
 47
0.0
 47
0.0
 47
0.0
 47
1.0
 47
0.0
 47
0.0
 47
0.0
 47
0.0
 47
1.0
171
     0
 49
0.0208333333333333
 49
0.0
 49
0.0
 49
0.0
 49
0.0
 49
0.0208333333333333
 49
0.0
 49
0.0
 49
0.0
 49
0.0
 49
1.0
 49
0.0
 49
0.0
 49
0.0
 49
0.0
 49
1.0
175
     0
142
0.0208333333333333
142
0.0
142
0.0
142
0.0
142
0.0
142
0.0208333333333333
142
0.0
142
0.0
142
0.0
142
0.0
142
1.0
142
0.0
142
0.0
142
0.0
142
0.0
142
1.0
179
     0
144
0.0208333333333333
144
0.0
144
0.0
144
0.0
144
0.0
144
0.0208333333333333
144
0.0
144
0.0
144
0.0
144
0.0
144
1.0
144
0.0
144
0.0
144
0.0
144
0.0
144
1.0
147
0.0208333333333333
147
0.0
147
0.0
147
0.0
147
0.0
147
0.0208333333333333
147
0.0
147
0.0
147
0.0
147
0.0
147
1.0
147
0.0
147
0.0
147
0.0
147
0.0
147
1.0
  0
MATERIAL
  5
21
102
{ACAD_XDICTIONARY
360
22
102
}
102
{ACAD_REACTORS
330
10
102
}
330
10
100
AcDbMaterial
  1
Global
 72
     0
 43
0.0208333333333333
 43
0.0
 43
0.0
 43
0.0
 43
0.0
 43
0.0208333333333333
 43
0.0
 43
0.0
 43
0.0
 43
0.0
 43
1.0
 43
0.0
 43
0.0
 43
0.0
 43
0.0
 43
1.0
 77
     0
 47
0.0208333333333333
 47
0.0
 47
0.0
 47
0.0
 47
0.0
 47
0.0208333333333333
 47
0.0
 47
0.0
 47
0.0
 47
0.0
 47
1.0
 47
0.0
 47
0.0
 47
0.0
 47
0.0
 47
1.0
171
     0
 49
0.0208333333333333
 49
0.0
 49
0.0
 49
0.0
 49
0.0
 49
0.0208333333333333
 49
0.0
 49
0.0
 49
0.0
 49
0.0
 49
1.0
 49
0.0
 49
0.0
 49
0.0
 49
0.0
 49
1.0
175
     0
142
0.0208333333333333
142
0.0
142
0.0
142
0.0
142
0.0
142
0.0208333333333333
142
0.0
142
0.0
142
0.0
142
0.0
142
1.0
142
0.0
142
0.0
142
0.0
142
0.0
142
1.0
179
     0
144
0.0208333333333333
144
0.0
144
0.0
144
0.0
144
0.0
144
0.0208333333333333
144
0.0
144
0.0
144
0.0
144
0.0
144
1.0
144
0.0
144
0.0
144
0.0
144
0.0
144
1.0
147
0.0208333333333333
147
0.0
147
0.0
147
0.0
147
0.0
147
0.0208333333333333
147
0.0
147
0.0
147
0.0
147
0.0
147
1.0
147
0.0
147
0.0
147
0.0
147
0.0
147
1.0
  0
MLEADERSTYLE
  5
67
102
{ACAD_REACTORS
330
66
102
}
330
66
100
AcDbMLeaderStyle
179
     2
170
     2
171
     1
172
     0
 90
        2
 40
0.0
 41
0.0
173
     1
 91
-1056964608
340
5B
 92
       -2
290
     1
 42
0.09
291
     1
 43
0.36
  3
Standard
 44
0.18
300

342
55
174
     1
178
     6
175
     1
176
     0
 93
-1056964608
 45
0.18
292
     0
297
     0
 46
0.18
 94
-1056964608
 47
1.0
 49
1.0
140
1.0
293
     1
141
0.0
294
     1
177
     0
142
1.0
295
     1
296
     0
143
0.125
271
     0
272
     9
273
     9
298
     1
  0
MLINESTYLE
  5
60
102
{ACAD_REACTORS
330
5F
102
}
330
5F
100
AcDbMlineStyle
  2
STANDARD
 70
     0
  3

 62
   256
 51
90.0
 52
90.0
 71
     2
 49
0.5
 62
   256
  6
BYLAYER
 49
-0.5
 62
   256
  6
BYLAYER
  0
ACDBPLACEHOLDER
  5
F
102
{ACAD_REACTORS
330
E
102
}
330
E
  0
SCALE
  5
43
102
{ACAD_REACTORS
330
42
102
}
330
42
100
AcDbScale
 70
     0
300
1:1
140
1.0
141
1.0
290
     1
  0
SCALE
  5
44
102
{ACAD_REACTORS
330
42
102
}
330
42
100
AcDbScale
 70
     0
300
1/128" = 1'-0"
140
0.0078125
141
12.0
290
     0
  0
SCALE
  5
45
102
{ACAD_REACTORS
330
42
102
}
330
42
100
AcDbScale
 70
     0
300
1/64" = 1'-0"
140
0.015625
141
12.0
290
     0
  0
SCALE
  5
46
102
{ACAD_REACTORS
330
42
102
}
330
42
100
AcDbScale
 70
     0
300
1/32" = 1'-0"
140
0.03125
141
12.0
290
     0
  0
SCALE
  5
47
102
{ACAD_REACTORS
330
42
102
}
330
42
100
AcDbScale
 70
     0
300
1/16" = 1'-0"
140
0.0625
141
12.0
290
     0
  0
SCALE
  5
48
102
{ACAD_REACTORS
330
42
102
}
330
42
100
AcDbScale
 70
     0
300
3/32" = 1'-0"
140
0.09375
141
12.0
290
     0
  0
SCALE
  5
49
102
{ACAD_REACTORS
330
42
102
}
330
42
100
AcDbScale
 70
     0
300
1/8" = 1'-0"
140
0.125
141
12.0
290
     0
  0
SCALE
  5
4A
102
{ACAD_REACTORS
330
42
102
}
330
42
100
AcDbScale
 70
     0
300
3/16" = 1'-0"
140
0.1875
141
12.0
290
     0
  0
SCALE
  5
4B
102
{ACAD_REACTORS
330
42
102
}
330
42
100
AcDbScale
 70
     0
300
1/4" = 1'-0"
140
0.25
141
12.0
290
     0
  0
SCALE
  5
4C
102
{ACAD_REACTORS
330
42
102
}
330
42
100
AcDbScale
 70
     0
300
3/8" = 1'-0"
140
0.375
141
12.0
290
     0
  0
SCALE
  5
4D
102
{ACAD_REACTORS
330
42
102
}
330
42
100
AcDbScale
 70
     0
300
1/2" = 1'-0"
140
0.5
141
12.0
290
     0
  0
SCALE
  5
4E
102
{ACAD_REACTORS
330
42
102
}
330
42
100
AcDbScale
 70
     0
300
3/4" = 1'-0"
140
0.75
141
12.0
290
     0
  0
SCALE
  5
4F
102
{ACAD_REACTORS
330
42
102
}
330
42
100
AcDbScale
 70
     0
300
1" = 1'-0"
140
1.0
141
12.0
290
     0
  0
SCALE
  5
50
102
{ACAD_REACTORS
330
42
102
}
330
42
100
AcDbScale
 70
     0
300
1-1/2" = 1'-0"
140
1.5
141
12.0
290
     0
  0
SCALE
  5
51
102
{ACAD_REACTORS
330
42
102
}
330
42
100
AcDbScale
 70
     0
300
3" = 1'-0"
140
3.0
141
12.0
290
     0
  0
SCALE
  5
52
102
{ACAD_REACTORS
330
42
102
}
330
42
100
AcDbScale
 70
     0
300
6" = 1'-0"
140
6.0
141
12.0
290
     0
  0
SCALE
  5
53
102
{ACAD_REACTORS
330
42
102
}
330
42
100
AcDbScale
 70
     0
300
1'-0" = 1'-0"
140
12.0
141
12.0
290
     0
  0
ACDBSECTIONVIEWSTYLE
  5
69
102
{ACAD_REACTORS
330
68
102
}
330
68
100
AcDbModelDocViewStyle
 70
     0
  3
Imperial24
290
     1
300
Imperial24
 90
        0
100
AcDbSectionViewStyle
 70
     0
 71
     0
 90
       78
 71
     1
340
55
 62
   256
 40
0.24
340
0
340
0
 62
   256
 40
0.24
300
I, O, Q, S, X, Z
 40
0.48
 90
        3
 40
0.18
 90
        1
 71
     2
340
5D
 90
       25
 62
   256
340
5D
 90
       50
 62
   256
 40
0.24
 40
0.0
 40
0.24
 71
     3
340
55
 62
   256
 40
0.24
 90
        1
 40
0.75
 90
        1
300
%<\AcVar ViewType \f "%tc1">% %<\AcVar ViewSectionStartId>%-%<\AcVar ViewSectionEndId>%\PSCALE %<\AcVar ViewScale \f "%sn">%
 71
     4
 62
   256
 62
   257
300
ANSI31
 40
1.0
 90
        0
290
     0
290
     0
 90
        6
 40
0.0
 40
1.570796326794896
 40
0.2617993877991494
 40
1.308996938995747
 40
-0.2617993877991494
 40
1.832595714594046
  0
TABLESTYLE
  5
65
102
{ACAD_XDICTIONARY
360
8B
102
}
102
{ACAD_REACTORS
330
64
102
}
330
64
100
AcDbTableStyle
280
     0
  3
Standard
 70
     0
 71
     0
 40
0.06
 41
0.06
280
     0
281
     0
  7
Standard
140
0.18
170
     2
 62
     0
 63
     7
283
     0
 90
      512
 91
        0
  1

274
    -2
284
     1
 64
     0
275
    -2
285
     1
 65
     0
276
    -2
286
     1
 66
     0
277
    -2
287
     1
 67
     0
278
    -2
288
     1
 68
     0
279
    -2
289
     1
 69
     0
  7
Standard
140
0.25
170
     5
 62
     0
 63
     7
283
     0
 90
      512
 91
        0
  1

274
    -2
284
     1
 64
     0
275
    -2
285
     1
 65
     0
276
    -2
286
     1
 66
     0
277
    -2
287
     1
 67
     0
278
    -2
288
     1
 68
     0
279
    -2
289
     1
 69
     0
  7
Standard
140
0.18
170
     5
 62
     0
 63
     7
283
     0
 90
      512
 91
        0
  1

274
    -2
284
     1
 64
     0
275
    -2
285
     1
 65
     0
276
    -2
286
     1
 66
     0
277
    -2
287
     1
 67
     0
278
    -2
288
     1
 68
     0
279
    -2
289
     1
 69
     0
  0
VISUALSTYLE
  5
2F
102
{ACAD_REACTORS
330
29
102
}
330
29
100
AcDbVisualStyle
  2
2dWireframe
 70
     4
177
     3
291
     0
 70
    58
 90
        0
176
     1
 90
        2
176
     1
 90
        0
176
     1
 90
        0
176
     1
 40
0.6
176
     1
 40
30.0
176
     1
 62
     7
420
 16777215
176
     1
 90
        1
176
     1
 90
        4
176
     1
 62
     7
176
     1
 62
   257
176
     1
 90
        1
176
     1
 90
        1
176
     1
 40
1.0
176
     1
 90
        0
176
     1
 62
   257
176
     1
 40
1.0
176
     1
 90
        1
176
     1
 90
        6
176
     1
 90
        2
176
     1
 62
     7
176
     1
 90
        5
176
     1
 90
        0
176
     1
 90
        0
176
     1
290
     0
176
     1
 90
        1
176
     1
 40
0.0
176
     1
 90
        0
176
     1
290
     1
176
     1
290
     1
176
     1
290
     0
176
     1
290
     0
176
     1
290
     0
176
     1
290
     0
176
     1
290
     0
176
     1
290
     0
176
     1
290
     0
176
     1
 90
       50
176
     1
 40
0.0
176
     1
 40
1.0
176
     1
 90
        0
176
     1
 62
    18
420
        0
176
     1
 90
       50
176
     1
 90
        3
176
     1
 62
     5
420
      255
176
     1
290
     0
176
     1
 90
       50
176
     1
 90
       50
176
     1
 90
       50
176
     1
290
     0
176
     1
 90
       50
176
     1
 62
   256
176
     0
 40
1.0
176
     0
 90
        2
176
     1
  1
strokes_ogs.tif
176
     1
290
     0
176
     1
 40
1.0
176
     1
 40
1.0
176
     1
  0
VISUALSTYLE
  5
2E
102
{ACAD_REACTORS
330
29
102
}
330
29
100
AcDbVisualStyle
  2
Basic
 70
     7
177
     3
291
     1
 70
    58
 90
        1
176
     1
 90
        0
176
     1
 90
        1
176
     1
 90
        0
176
     1
 40
0.6
176
     1
 40
30.0
176
     1
 62
     7
420
 16777215
176
     1
 90
        0
176
     1
 90
        4
176
     1
 62
     7
176
     1
 62
   257
176
     1
 90
        1
176
     1
 90
        1
176
     1
 40
1.0
176
     1
 90
        8
176
     1
 62
     7
176
     1
 40
1.0
176
     1
 90
        1
176
     1
 90
        6
176
     1
 90
        2
176
     1
 62
     7
176
     1
 90
        5
176
     1
 90
        0
176
     1
 90
        0
176
     1
290
     0
176
     1
 90
        1
176
     1
 40
0.0
176
     1
 90
        0
176
     1
290
     0
176
     1
290
     1
176
     1
290
     1
176
     1
290
     0
176
     1
290
     0
176
     1
290
     0
176
     1
290
     0
176
     1
290
     0
176
     1
290
     0
176
     1
 90
       50
176
     1
 40
0.0
176
     1
 40
1.0
176
     1
 90
        0
176
     1
 62
    18
420
        0
176
     1
 90
       50
176
     1
 90
        3
176
     1
 62
     5
420
      255
176
     1
290
     0
176
     1
 90
       50
176
     1
 90
       50
176
     1
 90
       50
176
     1
290
     0
176
     1
 90
       50
176
     1
 62
   256
176
     0
 40
1.0
176
     0
 90
        2
176
     1
  1
strokes_ogs.tif
176
     1
290
     0
176
     1
 40
1.0
176
     1
 40
1.0
176
     1
  0
VISUALSTYLE
  5
35
102
{ACAD_REACTORS
330
29
102
}
330
29
100
AcDbVisualStyle
  2
Brighten
 70
    12
177
     3
291
     1
 70
    58
 90
        2
176
     1
 90
        2
176
     1
 90
        0
176
     1
 90
        0
176
     1
 40
0.6
176
     1
 40
30.0
176
     1
 62
     7
420
 16777215
176
     1
 90
        1
176
     1
 90
        4
176
     1
 62
     7
176
     1
 62
   257
176
     1
 90
        1
176
     1
 90
        1
176
     1
 40
1.0
176
     1
 90
        8
176
     1
 62
     7
176
     1
 40
1.0
176
     1
 90
        1
176
     1
 90
        6
176
     1
 90
        2
176
     1
 62
     7
176
     1
 90
        5
176
     1
 90
        0
176
     1
 90
        0
176
     1
290
     0
176
     1
 90
        1
176
     1
 40
50.0
176
     1
 90
        0
176
     1
290
     0
176
     1
290
     1
176
     1
290
     1
176
     1
290
     0
176
     1
290
     0
176
     1
290
     0
176
     1
290
     0
176
     1
290
     0
176
     1
290
     0
176
     1
 90
       50
176
     1
 40
0.0
176
     1
 40
1.0
176
     1
 90
        0
176
     1
 62
    18
420
        0
176
     1
 90
       50
176
     1
 90
        3
176
     1
 62
     5
420
      255
176
     1
290
     0
176
     1
 90
       50
176
     1
 90
       50
176
     1
 90
       50
176
     1
290
     0
176
     1
 90
       50
176
     1
 62
   256
176
     0
 40
1.0
176
     0
 90
        2
176
     1
  1
strokes_ogs.tif
176
     1
290
     0
176
     1
 40
1.0
176
     1
 40
1.0
176
     1
  0
VISUALSTYLE
  5
39
102
{ACAD_REACTORS
330
29
102
}
330
29
100
AcDbVisualStyle
  2
ColorChange
 70
    16
177
     3
291
     1
 70
    58
 90
        2
176
     1
 90
        2
176
     1
 90
        3
176
     1
 90
        0
176
     1
 40
0.6
176
     1
 40
30.0
176
     1
 62
     8
420
  8421504
176
     1
 90
        1
176
     1
 90
        4
176
     1
 62
     7
176
     1
 62
   257
176
     1
 90
        1
176
     1
 90
        1
176
     1
 40
1.0
176
     1
 90
        8
176
     1
 62
     8
420
  8421504
176
     1
 40
1.0
176
     1
 90
        1
176
     1
 90
        6
176
     1
 90
        2
176
     1
 62
     7
176
     1
 90
        5
176
     1
 90
        0
176
     1
 90
        0
176
     1
290
     0
176
     1
 90
        1
176
     1
 40
0.0
176
     1
 90
        0
176
     1
290
     0
176
     1
290
     1
176
     1
290
     1
176
     1
290
     0
176
     1
290
     0
176
     1
290
     0
176
     1
290
     0
176
     1
290
     0
176
     1
290
     0
176
     1
 90
       50
176
     1
 40
0.0
176
     1
 40
1.0
176
     1
 90
        0
176
     1
 62
    18
420
        0
176
     1
 90
       50
176
     1
 90
        3
176
     1
 62
     5
420
      255
176
     1
290
     0
176
     1
 90
       50
176
     1
 90
       50
176
     1
 90
       50
176
     1
290
     0
176
     1
 90
       50
176
     1
 62
   256
176
     0
 40
1.0
176
     0
 90
        2
176
     1
  1
strokes_ogs.tif
176
     1
290
     0
176
     1
 40
1.0
176
     1
 40
1.0
176
     1
  0
VISUALSTYLE
  5
32
102
{ACAD_REACTORS
330
29
102
}
330
29
100
AcDbVisualStyle
  2
Conceptual
 70
     9
177
     3
291
     0
 70
    58
 90
        3
176
     1
 90
        2
176
     1
 90
        0
176
     1
 90
        0
176
     1
 40
0.6
176
     1
 40
30.0
176
     1
 62
     7
420
 16777215
176
     1
 90
        2
176
     1
 90
        2
176
     1
 62
     7
176
     1
 62
   257
176
     1
 90
        1
176
     1
 90
        1
176
     1
 40
179.0
176
     1
 90
        8
176
     1
 62
     7
176
     1
 40
1.0
176
     1
 90
        1
176
     1
 90
        6
176
     1
 90
        2
176
     1
 62
     7
176
     1
 90
        3
176
     1
 90
        0
176
     1
 90
        0
176
     1
290
     0
176
     1
 90
        1
176
     1
 40
0.0
176
     1
 90
        0
176
     1
290
     0
176
     1
290
     1
176
     1
290
     1
176
     1
290
     0
176
     1
290
     0
176
     1
290
     0
176
     1
290
     0
176
     1
290
     0
176
     1
290
     0
176
     1
 90
       50
176
     1
 40
0.0
176
     1
 40
1.0
176
     1
 90
        0
176
     1
 62
    18
420
        0
176
     1
 90
       50
176
     1
 90
        3
176
     1
 62
     5
420
      255
176
     1
290
     0
176
     1
 90
       50
176
     1
 90
       50
176
     1
 90
       50
176
     1
290
     0
176
     1
 90
       50
176
     1
 62
   256
176
     0
 40
1.0
176
     0
 90
        2
176
     1
  1
strokes_ogs.tif
176
     1
290
     0
176
     1
 40
1.0
176
     1
 40
1.0
176
     1
  0
VISUALSTYLE
  5
34
102
{ACAD_REACTORS
330
29
102
}
330
29
100
AcDbVisualStyle
  2
Dim
 70
    11
177
     3
291
     1
 70
    58
 90
        2
176
     1
 90
        2
176
     1
 90
        0
176
     1
 90
        0
176
     1
 40
0.6
176
     1
 40
30.0
176
     1
 62
     7
420
 16777215
176
     1
 90
        1
176
     1
 90
        4
176
     1
 62
     7
176
     1
 62
   257
176
     1
 90
        1
176
     1
 90
        1
176
     1
 40
1.0
176
     1
 90
        8
176
     1
 62
     7
176
     1
 40
1.0
176
     1
 90
        1
176
     1
 90
        6
176
     1
 90
        2
176
     1
 62
     7
176
     1
 90
        5
176
     1
 90
        0
176
     1
 90
        0
176
     1
290
     0
176
     1
 90
        1
176
     1
 40
-50.0
176
     1
 90
        0
176
     1
290
     0
176
     1
290
     1
176
     1
290
     1
176
     1
290
     0
176
     1
290
     0
176
     1
290
     0
176
     1
290
     0
176
     1
290
     0
176
     1
290
     0
176
     1
 90
       50
176
     1
 40
0.0
176
     1
 40
1.0
176
     1
 90
        0
176
     1
 62
    18
420
        0
176
     1
 90
       50
176
     1
 90
        3
176
     1
 62
     5
420
      255
176
     1
290
     0
176
     1
 90
       50
176
     1
 90
       50
176
     1
 90
       50
176
     1
290
     0
176
     1
 90
       50
176
     1
 62
   256
176
     0
 40
1.0
176
     0
 90
        2
176
     1
  1
strokes_ogs.tif
176
     1
290
     0
176
     1
 40
1.0
176
     1
 40
1.0
176
     1
  0
VISUALSTYLE
  5
41
102
{ACAD_REACTORS
330
29
102
}
330
29
100
AcDbVisualStyle
  2
EdgeColorOff
 70
    22
177
     3
291
     1
 70
    58
 90
        2
176
     0
 90
        2
176
     0
 90
        0
176
     0
 90
        0
176
     0
 40
0.6
176
     0
 40
30.0
176
     0
 62
     7
420
 16777215
176
     0
 90
        1
176
     0
 90
        4
176
     0
 62
     7
176
     0
 62
   257
176
     0
 90
        1
176
     0
 90
        1
176
     0
 40
1.0
176
     0
 90
        8
176
     2
 62
     7
176
     0
 40
1.0
176
     0
 90
        1
176
     0
 90
        6
176
     0
 90
        2
176
     0
 62
     7
176
     0
 90
        5
176
     0
 90
        0
176
     0
 90
        0
176
     0
290
     0
176
     0
 90
        1
176
     0
 40
0.0
176
     0
 90
        0
176
     0
290
     0
176
     0
290
     1
176
     0
290
     1
176
     0
290
     0
176
     0
290
     0
176
     0
290
     0
176
     0
290
     0
176
     0
290
     0
176
     0
290
     0
176
     0
 90
       50
176
     0
 40
0.0
176
     0
 40
1.0
176
     0
 90
        0
176
     0
 62
    18
420
        0
176
     0
 90
       50
176
     0
 90
        3
176
     0
 62
     5
420
      255
176
     0
290
     0
176
     0
 90
       50
176
     0
 90
       50
176
     0
 90
       50
176
     0
290
     0
176
     0
 90
       50
176
     0
 62
   256
176
     0
 40
1.0
176
     0
 90
        2
176
     0
  1
strokes_ogs.tif
176
     0
290
     0
176
     0
 40
1.0
176
     0
 40
1.0
176
     0
  0
VISUALSTYLE
  5
38
102
{ACAD_REACTORS
330
29
102
}
330
29
100
AcDbVisualStyle
  2
Facepattern
 70
    15
177
     3
291
     1
 70
    58
 90
        2
176
     1
 90
        2
176
     1
 90
        0
176
     1
 90
        0
176
     1
 40
0.6
176
     1
 40
30.0
176
     1
 62
     7
420
 16777215
176
     1
 90
        1
176
     1
 90
        4
176
     1
 62
     7
176
     1
 62
   257
176
     1
 90
        1
176
     1
 90
        1
176
     1
 40
1.0
176
     1
 90
        8
176
     1
 62
     7
176
     1
 40
1.0
176
     1
 90
        1
176
     1
 90
        6
176
     1
 90
        2
176
     1
 62
     7
176
     1
 90
        5
176
     1
 90
        0
176
     1
 90
        0
176
     1
290
     0
176
     1
 90
        1
176
     1
 40
0.0
176
     1
 90
        0
176
     1
290
     0
176
     1
290
     1
176
     1
290
     1
176
     1
290
     0
176
     1
290
     0
176
     1
290
     0
176
     1
290
     0
176
     1
290
     0
176
     1
290
     0
176
     1
 90
       50
176
     1
 40
0.0
176
     1
 40
1.0
176
     1
 90
        0
176
     1
 62
    18
420
        0
176
     1
 90
       50
176
     1
 90
        3
176
     1
 62
     5
420
      255
176
     1
290
     0
176
     1
 90
       50
176
     1
 90
       50
176
     1
 90
       50
176
     1
290
     0
176
     1
 90
       50
176
     1
 62
   256
176
     0
 40
1.0
176
     0
 90
        2
176
     1
  1
strokes_ogs.tif
176
     1
290
     0
176
     1
 40
1.0
176
     1
 40
1.0
176
     1
  0
VISUALSTYLE
  5
2A
102
{ACAD_REACTORS
330
29
102
}
330
29
100
AcDbVisualStyle
  2
Flat
 70
     0
177
     3
291
     1
 70
    58
 90
        2
176
     1
 90
        1
176
     1
 90
        1
176
     1
 90
        2
176
     1
 40
0.6
176
     1
 40
30.0
176
     1
 62
     7
420
 16777215
176
     1
 90
        0
176
     1
 90
        0
176
     1
 62
     7
176
     1
 62
   257
176
     1
 90
        1
176
     1
 90
        1
176
     1
 40
1.0
176
     1
 90
        8
176
     1
 62
     7
176
     1
 40
1.0
176
     1
 90
        1
176
     1
 90
        6
176
     1
 90
        2
176
     1
 62
     7
176
     1
 90
        5
176
     1
 90
        0
176
     1
 90
        0
176
     1
290
     0
176
     1
 90
       13
176
     1
 40
0.0
176
     1
 90
        0
176
     1
290
     0
176
     1
290
     1
176
     1
290
     1
176
     1
290
     0
176
     1
290
     0
176
     1
290
     0
176
     1
290
     0
176
     1
290
     0
176
     1
290
     0
176
     1
 90
       50
176
     1
 40
0.0
176
     1
 40
1.0
176
     1
 90
        0
176
     1
 62
    18
420
        0
176
     1
 90
       50
176
     1
 90
        3
176
     1
 62
     5
420
      255
176
     1
290
     0
176
     1
 90
       50
176
     1
 90
       50
176
     1
 90
       50
176
     1
290
     0
176
     1
 90
       50
176
     1
 62
   256
176
     0
 40
1.0
176
     0
 90
        2
176
     1
  1
strokes_ogs.tif
176
     1
290
     0
176
     1
 40
1.0
176
     1
 40
1.0
176
     1
  0
VISUALSTYLE
  5
2B
102
{ACAD_REACTORS
330
29
102
}
330
29
100
AcDbVisualStyle
  2
FlatWithEdges
 70
     1
177
     3
291
     1
 70
    58
 90
        2
176
     1
 90
        1
176
     1
 90
        1
176
     1
 90
        2
176
     1
 40
0.6
176
     1
 40
30.0
176
     1
 62
     7
420
 16777215
176
     1
 90
        1
176
     1
 90
        0
176
     1
 62
     7
176
     1
 62
   257
176
     1
 90
        1
176
     1
 90
        1
176
     1
 40
1.0
176
     1
 90
        0
176
     1
 62
   257
176
     1
 40
1.0
176
     1
 90
        1
176
     1
 90
        6
176
     1
 90
        2
176
     1
 62
     7
176
     1
 90
        5
176
     1
 90
        0
176
     1
 90
        0
176
     1
290
     0
176
     1
 90
       13
176
     1
 40
0.0
176
     1
 90
        0
176
     1
290
     0
176
     1
290
     1
176
     1
290
     1
176
     1
290
     0
176
     1
290
     0
176
     1
290
     0
176
     1
290
     0
176
     1
290
     0
176
     1
290
     0
176
     1
 90
       50
176
     1
 40
0.0
176
     1
 40
1.0
176
     1
 90
        0
176
     1
 62
    18
420
        0
176
     1
 90
       50
176
     1
 90
        3
176
     1
 62
     5
420
      255
176
     1
290
     0
176
     1
 90
       50
176
     1
 90
       50
176
     1
 90
       50
176
     1
290
     0
176
     1
 90
       50
176
     1
 62
   256
176
     0
 40
1.0
176
     0
 90
        2
176
     1
  1
strokes_ogs.tif
176
     1
290
     0
176
     1
 40
1.0
176
     1
 40
1.0
176
     1
  0
VISUALSTYLE
  5
2C
102
{ACAD_REACTORS
330
29
102
}
330
29
100
AcDbVisualStyle
  2
Gouraud
 70
     2
177
     3
291
     1
 70
    58
 90
        2
176
     1
 90
        2
176
     1
 90
        1
176
     1
 90
        2
176
     1
 40
0.6
176
     1
 40
30.0
176
     1
 62
     7
420
 16777215
176
     1
 90
        0
176
     1
 90
        0
176
     1
 62
     7
176
     1
 62
   257
176
     1
 90
        1
176
     1
 90
        1
176
     1
 40
1.0
176
     1
 90
        0
176
     1
 62
     7
176
     1
 40
1.0
176
     1
 90
        1
176
     1
 90
        6
176
     1
 90
        2
176
     1
 62
     7
176
     1
 90
        5
176
     1
 90
        0
176
     1
 90
        0
176
     1
290
     0
176
     1
 90
       13
176
     1
 40
0.0
176
     1
 90
        0
176
     1
290
     0
176
     1
290
     1
176
     1
290
     1
176
     1
290
     0
176
     1
290
     0
176
     1
290
     0
176
     1
290
     0
176
     1
290
     0
176
     1
290
     0
176
     1
 90
       50
176
     1
 40
0.0
176
     1
 40
1.0
176
     1
 90
        0
176
     1
 62
    18
420
        0
176
     1
 90
       50
176
     1
 90
        3
176
     1
 62
     5
420
      255
176
     1
290
     0
176
     1
 90
       50
176
     1
 90
       50
176
     1
 90
       50
176
     1
290
     0
176
     1
 90
       50
176
     1
 62
   256
176
     0
 40
1.0
176
     0
 90
        2
176
     1
  1
strokes_ogs.tif
176
     1
290
     0
176
     1
 40
1.0
176
     1
 40
1.0
176
     1
  0
VISUALSTYLE
  5
2D
102
{ACAD_REACTORS
330
29
102
}
330
29
100
AcDbVisualStyle
  2
GouraudWithEdges
 70
     3
177
     3
291
     1
 70
    58
 90
        2
176
     1
 90
        2
176
     1
 90
        1
176
     1
 90
        2
176
     1
 40
0.6
176
     1
 40
30.0
176
     1
 62
     7
420
 16777215
176
     1
 90
        1
176
     1
 90
        0
176
     1
 62
     7
176
     1
 62
   257
176
     1
 90
        1
176
     1
 90
        1
176
     1
 40
1.0
176
     1
 90
        0
176
     1
 62
   257
176
     1
 40
1.0
176
     1
 90
        1
176
     1
 90
        6
176
     1
 90
        2
176
     1
 62
     7
176
     1
 90
        5
176
     1
 90
        0
176
     1
 90
        0
176
     1
290
     0
176
     1
 90
       13
176
     1
 40
0.0
176
     1
 90
        0
176
     1
290
     0
176
     1
290
     1
176
     1
290
     1
176
     1
290
     0
176
     1
290
     0
176
     1
290
     0
176
     1
290
     0
176
     1
290
     0
176
     1
290
     0
176
     1
 90
       50
176
     1
 40
0.0
176
     1
 40
1.0
176
     1
 90
        0
176
     1
 62
    18
420
        0
176
     1
 90
       50
176
     1
 90
        3
176
     1
 62
     5
420
      255
176
     1
290
     0
176
     1
 90
       50
176
     1
 90
       50
176
     1
 90
       50
176
     1
290
     0
176
     1
 90
       50
176
     1
 62
   256
176
     0
 40
1.0
176
     0
 90
        2
176
     1
  1
strokes_ogs.tif
176
     1
290
     0
176
     1
 40
1.0
176
     1
 40
1.0
176
     1
  0
VISUALSTYLE
  5
31
102
{ACAD_REACTORS
330
29
102
}
330
29
100
AcDbVisualStyle
  2
Hidden
 70
     6
177
     3
291
     0
 70
    58
 90
        1
176
     1
 90
        2
176
     1
 90
        2
176
     1
 90
        0
176
     1
 40
0.6
176
     1
 40
30.0
176
     1
 62
     7
420
 16777215
176
     1
 90
        2
176
     1
 90
        2
176
     1
 62
     7
176
     1
 62
   257
176
     1
 90
        2
176
     1
 90
        1
176
     1
 40
40.0
176
     1
 90
        0
176
     1
 62
   257
176
     1
 40
1.0
176
     1
 90
        1
176
     1
 90
        6
176
     1
 90
        2
176
     1
 62
     7
176
     1
 90
        3
176
     1
 90
        0
176
     1
 90
        0
176
     1
290
     0
176
     1
 90
        1
176
     1
 40
0.0
176
     1
 90
        0
176
     1
290
     0
176
     1
290
     1
176
     1
290
     1
176
     1
290
     0
176
     1
290
     0
176
     1
290
     0
176
     1
290
     0
176
     1
290
     0
176
     1
290
     0
176
     1
 90
       50
176
     1
 40
0.0
176
     1
 40
1.0
176
     1
 90
        0
176
     1
 62
    18
420
        0
176
     1
 90
       50
176
     1
 90
        3
176
     1
 62
     5
420
      255
176
     1
290
     0
176
     1
 90
       50
176
     1
 90
       50
176
     1
 90
       50
176
     1
290
     0
176
     1
 90
       50
176
     1
 62
   256
176
     0
 40
1.0
176
     0
 90
        2
176
     1
  1
strokes_ogs.tif
176
     1
290
     0
176
     1
 40
1.0
176
     1
 40
1.0
176
     1
  0
VISUALSTYLE
  5
3F
102
{ACAD_REACTORS
330
29
102
}
330
29
100
AcDbVisualStyle
  2
JitterOff
 70
    20
177
     3
291
     1
 70
    58
 90
        2
176
     0
 90
        2
176
     0
 90
        0
176
     0
 90
        0
176
     0
 40
0.6
176
     0
 40
30.0
176
     0
 62
     7
420
 16777215
176
     0
 90
        1
176
     0
 90
        4
176
     0
 62
     7
176
     0
 62
   257
176
     0
 90
        1
176
     0
 90
        1
176
     0
 40
1.0
176
     0
 90
       10
176
     2
 62
     7
176
     0
 40
1.0
176
     0
 90
        1
176
     0
 90
        6
176
     0
 90
        2
176
     0
 62
     7
176
     0
 90
        5
176
     0
 90
        0
176
     0
 90
        0
176
     0
290
     0
176
     0
 90
        1
176
     0
 40
0.0
176
     0
 90
        0
176
     0
290
     0
176
     0
290
     1
176
     0
290
     1
176
     0
290
     0
176
     0
290
     0
176
     0
290
     0
176
     0
290
     0
176
     0
290
     0
176
     0
290
     0
176
     0
 90
       50
176
     0
 40
0.0
176
     0
 40
1.0
176
     0
 90
        0
176
     0
 62
    18
420
        0
176
     0
 90
       50
176
     0
 90
        3
176
     0
 62
     5
420
      255
176
     0
290
     0
176
     0
 90
       50
176
     0
 90
       50
176
     0
 90
       50
176
     0
290
     0
176
     0
 90
       50
176
     0
 62
   256
176
     0
 40
1.0
176
     0
 90
        2
176
     0
  1
strokes_ogs.tif
176
     0
290
     0
176
     0
 40
1.0
176
     0
 40
1.0
176
     0
  0
VISUALSTYLE
  5
37
102
{ACAD_REACTORS
330
29
102
}
330
29
100
AcDbVisualStyle
  2
Linepattern
 70
    14
177
     3
291
     1
 70
    58
 90
        2
176
     1
 90
        2
176
     1
 90
        0
176
     1
 90
        0
176
     1
 40
0.6
176
     1
 40
30.0
176
     1
 62
     7
420
 16777215
176
     1
 90
        1
176
     1
 90
        4
176
     1
 62
     7
176
     1
 62
   257
176
     1
 90
        7
176
     1
 90
        7
176
     1
 40
1.0
176
     1
 90
        8
176
     1
 62
     7
176
     1
 40
1.0
176
     1
 90
        1
176
     1
 90
        6
176
     1
 90
        2
176
     1
 62
     7
176
     1
 90
        5
176
     1
 90
        0
176
     1
 90
        0
176
     1
290
     0
176
     1
 90
        1
176
     1
 40
0.0
176
     1
 90
        0
176
     1
290
     0
176
     1
290
     1
176
     1
290
     1
176
     1
290
     0
176
     1
290
     0
176
     1
290
     0
176
     1
290
     0
176
     1
290
     0
176
     1
290
     0
176
     1
 90
       50
176
     1
 40
0.0
176
     1
 40
1.0
176
     1
 90
        0
176
     1
 62
    18
420
        0
176
     1
 90
       50
176
     1
 90
        3
176
     1
 62
     5
420
      255
176
     1
290
     0
176
     1
 90
       50
176
     1
 90
       50
176
     1
 90
       50
176
     1
290
     0
176
     1
 90
       50
176
     1
 62
   256
176
     0
 40
1.0
176
     0
 90
        2
176
     1
  1
strokes_ogs.tif
176
     1
290
     0
176
     1
 40
1.0
176
     1
 40
1.0
176
     1
  0
VISUALSTYLE
  5
40
102
{ACAD_REACTORS
330
29
102
}
330
29
100
AcDbVisualStyle
  2
OverhangOff
 70
    21
177
     3
291
     1
 70
    58
 90
        2
176
     0
 90
        2
176
     0
 90
        0
176
     0
 90
        0
176
     0
 40
0.6
176
     0
 40
30.0
176
     0
 62
     7
420
 16777215
176
     0
 90
        1
176
     0
 90
        4
176
     0
 62
     7
176
     0
 62
   257
176
     0
 90
        1
176
     0
 90
        1
176
     0
 40
1.0
176
     0
 90
        9
176
     2
 62
     7
176
     0
 40
1.0
176
     0
 90
        1
176
     0
 90
        6
176
     0
 90
        2
176
     0
 62
     7
176
     0
 90
        5
176
     0
 90
        0
176
     0
 90
        0
176
     0
290
     0
176
     0
 90
        1
176
     0
 40
0.0
176
     0
 90
        0
176
     0
290
     0
176
     0
290
     1
176
     0
290
     1
176
     0
290
     0
176
     0
290
     0
176
     0
290
     0
176
     0
290
     0
176
     0
290
     0
176
     0
290
     0
176
     0
 90
       50
176
     0
 40
0.0
176
     0
 40
1.0
176
     0
 90
        0
176
     0
 62
    18
420
        0
176
     0
 90
       50
176
     0
 90
        3
176
     0
 62
     5
420
      255
176
     0
290
     0
176
     0
 90
       50
176
     0
 90
       50
176
     0
 90
       50
176
     0
290
     0
176
     0
 90
       50
176
     0
 62
   256
176
     0
 40
1.0
176
     0
 90
        2
176
     0
  1
strokes_ogs.tif
176
     0
290
     0
176
     0
 40
1.0
176
     0
 40
1.0
176
     0
  0
VISUALSTYLE
  5
33
102
{ACAD_REACTORS
330
29
102
}
330
29
100
AcDbVisualStyle
  2
Realistic
 70
     8
177
     3
291
     0
 70
    58
 90
        2
176
     1
 90
        3
176
     1
 90
        0
176
     1
 90
        2
176
     1
 40
0.6
176
     1
 40
30.0
176
     1
 62
     7
420
 16777215
176
     1
 90
        0
176
     1
 90
        0
176
     1
 62
     7
176
     1
 62
   257
176
     1
 90
        1
176
     1
 90
        1
176
     1
 40
1.0
176
     1
 90
        8
176
     1
 62
   257
176
     1
 40
1.0
176
     1
 90
        1
176
     1
 90
        6
176
     1
 90
        2
176
     1
 62
     7
176
     1
 90
        3
176
     1
 90
        0
176
     1
 90
        0
176
     1
290
     0
176
     1
 90
       13
176
     1
 40
0.0
176
     1
 90
        0
176
     1
290
     0
176
     1
290
     1
176
     1
290
     1
176
     1
290
     0
176
     1
290
     0
176
     1
290
     0
176
     1
290
     0
176
     1
290
     0
176
     1
290
     0
176
     1
 90
       50
176
     1
 40
0.0
176
     1
 40
1.0
176
     1
 90
        0
176
     1
 62
    18
420
        0
176
     1
 90
       50
176
     1
 90
        3
176
     1
 62
     5
420
      255
176
     1
290
     0
176
     1
 90
       50
176
     1
 90
       50
176
     1
 90
       50
176
     1
290
     0
176
     1
 90
       50
176
     1
 62
   256
176
     0
 40
1.0
176
     0
 90
        2
176
     1
  1
strokes_ogs.tif
176
     1
290
     0
176
     1
 40
1.0
176
     1
 40
1.0
176
     1
  0
VISUALSTYLE
  5
3E
102
{ACAD_REACTORS
330
29
102
}
330
29
100
AcDbVisualStyle
  2
Shaded
 70
    27
177
     3
291
     0
 70
    58
 90
        2
176
     1
 90
        2
176
     1
 90
        1
176
     1
 90
        2
176
     1
 40
0.6
176
     1
 40
30.0
176
     1
 62
     7
420
 16777215
176
     1
 90
        0
176
     1
 90
        4
176
     1
 62
     7
176
     1
 62
   257
176
     1
 90
        1
176
     1
 90
        1
176
     1
 40
1.0
176
     1
 90
        8
176
     1
 62
   257
176
     1
 40
1.0
176
     1
 90
        1
176
     1
 90
        6
176
     1
 90
        2
176
     1
 62
     8
420
  7895160
176
     1
 90
        3
176
     1
 90
        0
176
     1
 90
        0
176
     1
290
     0
176
     1
 90
        5
176
     1
 40
0.0
176
     1
 90
        0
176
     1
290
     0
176
     1
290
     1
176
     1
290
     1
176
     1
290
     0
176
     1
290
     0
176
     1
290
     0
176
     1
290
     0
176
     1
290
     0
176
     1
290
     0
176
     1
 90
       50
176
     1
 40
0.0
176
     1
 40
1.0
176
     1
 90
        0
176
     1
 62
    18
420
        0
176
     1
 90
       50
176
     1
 90
        3
176
     1
 62
     5
420
      255
176
     1
290
     0
176
     1
 90
       50
176
     1
 90
       50
176
     1
 90
       50
176
     1
290
     0
176
     1
 90
       50
176
     1
 62
   256
176
     0
 40
1.0
176
     0
 90
        2
176
     1
  1
strokes_ogs.tif
176
     1
290
     0
176
     1
 40
1.0
176
     1
 40
1.0
176
     1
  0
VISUALSTYLE
  5
3D
102
{ACAD_REACTORS
330
29
102
}
330
29
100
AcDbVisualStyle
  2
Shaded with edges
 70
    26
177
     3
291
     0
 70
    58
 90
        2
176
     1
 90
        2
176
     1
 90
        1
176
     1
 90
        2
176
     1
 40
0.6
176
     1
 40
30.0
176
     1
 62
     7
420
 16777215
176
     1
 90
        1
176
     1
 90
        2
176
     1
 62
     7
176
     1
 62
   257
176
     1
 90
        2
176
     1
 90
        1
176
     1
 40
1.0
176
     1
 90
        8
176
     1
 62
   257
176
     1
 40
1.0
176
     1
 90
        1
176
     1
 90
        6
176
     1
 90
        2
176
     1
 62
     7
176
     1
 90
        3
176
     1
 90
        0
176
     1
 90
        0
176
     1
290
     0
176
     1
 90
        5
176
     1
 40
0.0
176
     1
 90
        0
176
     1
290
     0
176
     1
290
     1
176
     1
290
     1
176
     1
290
     0
176
     1
290
     0
176
     1
290
     0
176
     1
290
     0
176
     1
290
     0
176
     1
290
     0
176
     1
 90
       50
176
     1
 40
0.0
176
     1
 40
1.0
176
     1
 90
        0
176
     1
 62
    18
420
        0
176
     1
 90
       50
176
     1
 90
        3
176
     1
 62
     5
420
      255
176
     1
290
     0
176
     1
 90
       50
176
     1
 90
       50
176
     1
 90
       50
176
     1
290
     0
176
     1
 90
       50
176
     1
 62
   256
176
     0
 40
1.0
176
     0
 90
        2
176
     1
  1
strokes_ogs.tif
176
     1
290
     0
176
     1
 40
1.0
176
     1
 40
1.0
176
     1
  0
VISUALSTYLE
  5
3A
102
{ACAD_REACTORS
330
29
102
}
330
29
100
AcDbVisualStyle
  2
Shades of Gray
 70
    23
177
     3
291
     0
 70
    58
 90
        2
176
     1
 90
        2
176
     1
 90
        3
176
     1
 90
        0
176
     1
 40
0.6
176
     1
 40
30.0
176
     1
 62
     7
420
 16777215
176
     1
 90
        2
176
     1
 90
        2
176
     1
 62
     7
176
     1
 62
     7
176
     1
 90
        1
176
     1
 90
        1
176
     1
 40
40.0
176
     1
 90
        8
176
     1
 62
     7
176
     1
 40
1.0
176
     1
 90
        1
176
     1
 90
        6
176
     1
 90
        2
176
     1
 62
     7
176
     1
 90
        3
176
     1
 90
        0
176
     1
 90
        0
176
     1
290
     0
176
     1
 90
        1
176
     1
 40
0.0
176
     1
 90
        0
176
     1
290
     0
176
     1
290
     1
176
     1
290
     1
176
     1
290
     0
176
     1
290
     0
176
     1
290
     0
176
     1
290
     0
176
     1
290
     0
176
     1
290
     0
176
     1
 90
       50
176
     1
 40
0.0
176
     1
 40
1.0
176
     1
 90
        0
176
     1
 62
    18
420
        0
176
     1
 90
       50
176
     1
 90
        3
176
     1
 62
     5
420
      255
176
     1
290
     0
176
     1
 90
       50
176
     1
 90
       50
176
     1
 90
       50
176
     1
290
     0
176
     1
 90
       50
176
     1
 62
   256
176
     0
 40
1.0
176
     0
 90
        2
176
     1
  1
strokes_ogs.tif
176
     1
290
     0
176
     1
 40
1.0
176
     1
 40
1.0
176
     1
  0
VISUALSTYLE
  5
3B
102
{ACAD_REACTORS
330
29
102
}
330
29
100
AcDbVisualStyle
  2
Sketchy
 70
    24
177
     3
291
     0
 70
    58
 90
        1
176
     1
 90
        2
176
     1
 90
        2
176
     1
 90
        0
176
     1
 40
0.6
176
     1
 40
30.0
176
     1
 62
     7
420
 16777215
176
     1
 90
        2
176
     1
 90
        2
176
     1
 62
     7
176
     1
 62
     7
176
     1
 90
        1
176
     1
 90
        1
176
     1
 40
40.0
176
     1
 90
       11
176
     1
 62
     7
176
     1
 40
1.0
176
     1
 90
        1
176
     1
 90
        6
176
     1
 90
        2
176
     1
 62
     7
176
     1
 90
        6
176
     1
 90
        0
176
     1
 90
        0
176
     1
290
     0
176
     1
 90
        1
176
     1
 40
0.0
176
     1
 90
        0
176
     1
290
     0
176
     1
290
     1
176
     1
290
     1
176
     1
290
     0
176
     1
290
     0
176
     1
290
     0
176
     1
290
     0
176
     1
290
     0
176
     1
290
     0
176
     1
 90
       50
176
     1
 40
0.0
176
     1
 40
1.0
176
     1
 90
        0
176
     1
 62
    18
420
        0
176
     1
 90
       50
176
     1
 90
        3
176
     1
 62
     5
420
      255
176
     1
290
     0
176
     1
 90
       50
176
     1
 90
       50
176
     1
 90
       50
176
     1
290
     0
176
     1
 90
       50
176
     1
 62
   256
176
     0
 40
1.0
176
     0
 90
        2
176
     1
  1
strokes_ogs.tif
176
     1
290
     0
176
     1
 40
1.0
176
     1
 40
1.0
176
     1
  0
VISUALSTYLE
  5
36
102
{ACAD_REACTORS
330
29
102
}
330
29
100
AcDbVisualStyle
  2
Thicken
 70
    13
177
     3
291
     1
 70
    58
 90
        2
176
     1
 90
        2
176
     1
 90
        0
176
     1
 90
        0
176
     1
 40
0.6
176
     1
 40
30.0
176
     1
 62
     7
420
 16777215
176
     1
 90
        1
176
     1
 90
        4
176
     1
 62
     7
176
     1
 62
   257
176
     1
 90
        1
176
     1
 90
        1
176
     1
 40
1.0
176
     1
 90
       12
176
     1
 62
     7
176
     1
 40
1.0
176
     1
 90
        1
176
     1
 90
        6
176
     1
 90
        2
176
     1
 62
     7
176
     1
 90
        5
176
     1
 90
        0
176
     1
 90
        0
176
     1
290
     0
176
     1
 90
        1
176
     1
 40
0.0
176
     1
 90
        0
176
     1
290
     0
176
     1
290
     1
176
     1
290
     1
176
     1
290
     0
176
     1
290
     0
176
     1
290
     0
176
     1
290
     0
176
     1
290
     0
176
     1
290
     0
176
     1
 90
       50
176
     1
 40
0.0
176
     1
 40
1.0
176
     1
 90
        0
176
     1
 62
    18
420
        0
176
     1
 90
       50
176
     1
 90
        3
176
     1
 62
     5
420
      255
176
     1
290
     0
176
     1
 90
       50
176
     1
 90
       50
176
     1
 90
       50
176
     1
290
     0
176
     1
 90
       50
176
     1
 62
   256
176
     0
 40
1.0
176
     0
 90
        2
176
     1
  1
strokes_ogs.tif
176
     1
290
     0
176
     1
 40
1.0
176
     1
 40
1.0
176
     1
  0
VISUALSTYLE
  5
30
102
{ACAD_REACTORS
330
29
102
}
330
29
100
AcDbVisualStyle
  2
Wireframe
 70
     5
177
     3
291
     0
 70
    58
 90
        0
176
     1
 90
        2
176
     1
 90
        0
176
     1
 90
        0
176
     1
 40
0.6
176
     1
 40
30.0
176
     1
 62
     7
420
 16777215
176
     1
 90
        1
176
     1
 90
        4
176
     1
 62
     7
176
     1
 62
   257
176
     1
 90
        1
176
     1
 90
        1
176
     1
 40
1.0
176
     1
 90
        0
176
     1
 62
   257
176
     1
 40
1.0
176
     1
 90
        1
176
     1
 90
        6
176
     1
 90
        2
176
     1
 62
     7
176
     1
 90
        3
176
     1
 90
        0
176
     1
 90
        0
176
     1
290
     0
176
     1
 90
        1
176
     1
 40
0.0
176
     1
 90
        0
176
     1
290
     0
176
     1
290
     1
176
     1
290
     1
176
     1
290
     0
176
     1
290
     0
176
     1
290
     0
176
     1
290
     0
176
     1
290
     0
176
     1
290
     0
176
     1
 90
       50
176
     1
 40
0.0
176
     1
 40
1.0
176
     1
 90
        0
176
     1
 62
    18
420
        0
176
     1
 90
       50
176
     1
 90
        3
176
     1
 62
     5
420
      255
176
     1
290
     0
176
     1
 90
       50
176
     1
 90
       50
176
     1
 90
       50
176
     1
290
     0
176
     1
 90
       50
176
     1
 62
   256
176
     0
 40
1.0
176
     0
 90
        2
176
     1
  1
strokes_ogs.tif
176
     1
290
     0
176
     1
 40
1.0
176
     1
 40
1.0
176
     1
  0
VISUALSTYLE
  5
3C
102
{ACAD_REACTORS
330
29
102
}
330
29
100
AcDbVisualStyle
  2
X-Ray
 70
    25
177
     3
291
     0
 70
    58
 90
        2
176
     1
 90
        2
176
     1
 90
        1
176
     1
 90
        1
176
     1
 40
0.5
176
     1
 40
30.0
176
     1
 62
     7
420
 16777215
176
     1
 90
        1
176
     1
 90
        0
176
     1
 62
     7
176
     1
 62
   257
176
     1
 90
        1
176
     1
 90
        1
176
     1
 40
1.0
176
     1
 90
        8
176
     1
 62
     7
176
     1
 40
1.0
176
     1
 90
        1
176
     1
 90
        6
176
     1
 90
        2
176
     1
 62
     7
176
     1
 90
        3
176
     1
 90
        0
176
     1
 90
        0
176
     1
290
     0
176
     1
 90
       13
176
     1
 40
0.0
176
     1
 90
        0
176
     1
290
     0
176
     1
290
     1
176
     1
290
     1
176
     1
290
     0
176
     1
290
     0
176
     1
290
     0
176
     1
290
     0
176
     1
290
     0
176
     1
290
     0
176
     1
 90
       50
176
     1
 40
0.0
176
     1
 40
1.0
176
     1
 90
        0
176
     1
 62
    18
420
        0
176
     1
 90
       50
176
     1
 90
        3
176
     1
 62
     5
420
      255
176
     1
290
     0
176
     1
 90
       50
176
     1
 90
       50
176
     1
 90
       50
176
     1
290
     0
176
     1
 90
       50
176
     1
 62
   256
176
     0
 40
1.0
176
     0
 90
        2
176
     1
  1
strokes_ogs.tif
176
     1
290
     0
176
     1
 40
1.0
176
     1
 40
1.0
176
     1
  0
DICTIONARYVAR
  5
8A
102
{ACAD_REACTORS
330
85
102
}
330
85
100
DictionaryVariables
280
     0
  1
1:1
  0
DICTIONARYVAR
  5
87
102
{ACAD_REACTORS
330
85
102
}
330
85
100
DictionaryVariables
280
     0
  1
STANDARD
  0
DICTIONARYVAR
  5
86
102
{ACAD_REACTORS
330
85
102
}
330
85
100
DictionaryVariables
280
     0
  1
STANDARD
  0
DICTIONARYVAR
  5
88
102
{ACAD_REACTORS
330
85
102
}
330
85
100
DictionaryVariables
280
     0
  1
Imperial24
  0
DICTIONARYVAR
  5
89
102
{ACAD_REACTORS
330
85
102
}
330
85
100
DictionaryVariables
280
     0
  1
Imperial24
  0
DICTIONARY
  5
1A
330
19
100
AcDbDictionary
280
     1
281
     1
  3
BUMPTILE
360
1C
  3
DIFFUSETILE
360
1B
  3
OPACITYTILE
360
1F
  3
REFLECTIONTILE
360
1E
  3
REFRACTIONTILE
360
20
  3
SPECULARTILE
360
1D
  0
DICTIONARY
  5
12
330
11
100
AcDbDictionary
280
     1
281
     1
  3
BUMPTILE
360
14
  3
DIFFUSETILE
360
13
  3
OPACITYTILE
360
17
  3
REFLECTIONTILE
360
16
  3
REFRACTIONTILE
360
18
  3
SPECULARTILE
360
15
  0
DICTIONARY
  5
22
330
21
100
AcDbDictionary
280
     1
281
     1
  3
BUMPTILE
360
24
  3
DIFFUSETILE
360
23
  3
OPACITYTILE
360
27
  3
REFLECTIONTILE
360
26
  3
REFRACTIONTILE
360
28
  3
SPECULARTILE
360
25
  0
DICTIONARY
  5
8B
330
65
100
AcDbDictionary
280
     1
281
     1
  3
ACAD_ROUNDTRIP_2008_TABLESTYLE_CELLSTYLEMAP
360
8C
  0
XRECORD
  5
1C
102
{ACAD_REACTORS
330
1A
102
}
330
1A
100
AcDbXrecord
280
     1
270
     1
271
     1
  0
XRECORD
  5
1B
102
{ACAD_REACTORS
330
1A
102
}
330
1A
100
AcDbXrecord
280
     1
270
     1
271
     1
  0
XRECORD
  5
1F
102
{ACAD_REACTORS
330
1A
102
}
330
1A
100
AcDbXrecord
280
     1
270
     1
271
     1
  0
XRECORD
  5
1E
102
{ACAD_REACTORS
330
1A
102
}
330
1A
100
AcDbXrecord
280
     1
270
     1
271
     1
  0
XRECORD
  5
20
102
{ACAD_REACTORS
330
1A
102
}
330
1A
100
AcDbXrecord
280
     1
270
     1
271
     1
  0
XRECORD
  5
1D
102
{ACAD_REACTORS
330
1A
102
}
330
1A
100
AcDbXrecord
280
     1
270
     1
271
     1
  0
XRECORD
  5
14
102
{ACAD_REACTORS
330
12
102
}
330
12
100
AcDbXrecord
280
     1
270
     1
271
     1
  0
XRECORD
  5
13
102
{ACAD_REACTORS
330
12
102
}
330
12
100
AcDbXrecord
280
     1
270
     1
271
     1
  0
XRECORD
  5
17
102
{ACAD_REACTORS
330
12
102
}
330
12
100
AcDbXrecord
280
     1
270
     1
271
     1
  0
XRECORD
  5
16
102
{ACAD_REACTORS
330
12
102
}
330
12
100
AcDbXrecord
280
     1
270
     1
271
     1
  0
XRECORD
  5
18
102
{ACAD_REACTORS
330
12
102
}
330
12
100
AcDbXrecord
280
     1
270
     1
271
     1
  0
XRECORD
  5
15
102
{ACAD_REACTORS
330
12
102
}
330
12
100
AcDbXrecord
280
     1
270
     1
271
     1
  0
XRECORD
  5
24
102
{ACAD_REACTORS
330
22
102
}
330
22
100
AcDbXrecord
280
     1
270
     1
271
     1
  0
XRECORD
  5
23
102
{ACAD_REACTORS
330
22
102
}
330
22
100
AcDbXrecord
280
     1
270
     1
271
     1
  0
XRECORD
  5
27
102
{ACAD_REACTORS
330
22
102
}
330
22
100
AcDbXrecord
280
     1
270
     1
271
     1
  0
XRECORD
  5
26
102
{ACAD_REACTORS
330
22
102
}
330
22
100
AcDbXrecord
280
     1
270
     1
271
     1
  0
XRECORD
  5
28
102
{ACAD_REACTORS
330
22
102
}
330
22
100
AcDbXrecord
280
     1
270
     1
271
     1
  0
XRECORD
  5
25
102
{ACAD_REACTORS
330
22
102
}
330
22
100
AcDbXrecord
280
     1
270
     1
271
     1
  0
CELLSTYLEMAP
  5
8C
102
{ACAD_REACTORS
330
8B
102
}
330
8B
100
AcDbCellStyleMap
 90
        3
300
CELLSTYLE
  1
TABLEFORMAT_BEGIN
 90
        5
170
     1
 91
        0
 92
    32768
 62
   257
 93
        1
300
CONTENTFORMAT
  1
CONTENTFORMAT_BEGIN
 90
        0
 91
        0
 92
      512
 93
        0
300

 40
0.0
140
1.0
 94
        5
 62
     0
340
55
144
0.25
309
CONTENTFORMAT_END
171
     0
 94
        0
309
TABLEFORMAT_END
  1
CELLSTYLE_BEGIN
 90
        1
 91
        1
300
_TITLE
309
CELLSTYLE_END
300
CELLSTYLE
  1
TABLEFORMAT_BEGIN
 90
        5
170
     1
 91
        0
 92
        0
 62
   257
 93
        1
300
CONTENTFORMAT
  1
CONTENTFORMAT_BEGIN
 90
        0
 91
        0
 92
      512
 93
        0
300

 40
0.0
140
1.0
 94
        5
 62
     0
340
55
144
0.18
309
CONTENTFORMAT_END
171
     0
 94
        0
309
TABLEFORMAT_END
  1
CELLSTYLE_BEGIN
 90
        2
 91
        1
300
_HEADER
309
CELLSTYLE_END
300
CELLSTYLE
  1
TABLEFORMAT_BEGIN
 90
        5
170
     1
 91
        0
 92
        0
 62
   257
 93
        1
300
CONTENTFORMAT
  1
CONTENTFORMAT_BEGIN
 90
        0
 91
        0
 92
      512
 93
        0
300

 40
0.0
140
1.0
 94
        2
 62
     0
340
55
144
0.18
309
CONTENTFORMAT_END
171
     0
 94
        0
309
TABLEFORMAT_END
  1
CELLSTYLE_BEGIN
 90
        3
 91
        2
300
_DATA
309
CELLSTYLE_END
  0
ENDSEC
  0
EOF
