<?xml version="1.0" encoding="UTF-8"?>
<svg id="Layer_1" data-name="Layer 1" xmlns="http://www.w3.org/2000/svg" viewBox="0 0 500 500">
  <defs>
    <style>
      .cls-1 {
        fill: #fff;
      }

      .cls-2 {
        fill: #0e1329;
      }

      .cls-3 {
        fill: #831618;
      }
    </style>
  </defs>
  <g>
    <path d="M401.27,291.39c0-77.26,.02-154.52,0-231.78,0-10.23-3.92-18.78-11.41-25.72-7.13-6.62-15.7-9.27-25.28-9.25-19.92,.03-39.84,.03-59.76,.03-58.61,0-117.22-.02-175.83-.03-11.25,0-20.56,4.3-27.93,12.8-6.22,7.16-8.29,15.61-8.28,24.93,.08,59.07,.04,118.14,.04,177.2,0,49.28-.01,98.56,0,147.85,0,11.62-.06,23.25,.17,34.87,.17,8.15,3.5,15.14,8.97,21.14,8.01,8.79,18.14,11.81,29.79,11.79,72.42-.12,144.85-.03,217.27-.1,7.93-.01,15.93,.83,23.79-.63,16.91-3.15,28.43-17.49,28.44-35.31,.03-42.6-.01-85.2-.01-127.81Zm-2.41-51.45h-.05c0,58.95,0,117.9,0,176.85,0,4.97-.29,9.89-2.05,14.62-4.77,12.86-17.1,21.24-31.42,21.24-76.68,0-153.37-.02-230.04-.03-2.54,0-5.07,.06-7.6-.03-18.05-.64-31.62-14.17-32.34-32.2-.03-.92-.02-1.84-.02-2.76,0-118.48,.02-236.95-.03-355.43,0-9.66,2.6-18.14,9.55-25.07,6.91-6.88,15.25-9.94,24.95-9.93,56.53,.06,113.07,.03,169.6,.03,22.11,0,44.22-.09,66.32,.03,16.42,.09,29.42,10.83,32.51,26.54,.83,4.21,.62,8.48,.62,12.74,0,57.8,0,115.6,0,173.4Z"/>
    <path class="cls-1" d="M398.86,239.93h-.05c0,58.95,0,117.9,0,176.85,0,4.97-.29,9.89-2.05,14.62-4.77,12.86-17.1,21.24-31.42,21.24-76.68,0-153.37-.02-230.04-.03-2.54,0-5.07,.06-7.6-.03-18.05-.64-31.62-14.17-32.34-32.2-.03-.92-.02-1.84-.02-2.76,0-118.48,.02-236.95-.03-355.43,0-9.66,2.6-18.14,9.55-25.07,6.91-6.88,15.25-9.94,24.95-9.93,56.53,.06,113.07,.03,169.6,.03,22.11,0,44.22-.09,66.32,.03,16.42,.09,29.42,10.83,32.51,26.54,.83,4.21,.62,8.48,.62,12.74,0,57.8,0,115.6,0,173.4Z"/>
  </g>
  <path class="cls-3" d="M132.45,112.93l-16.74-66h9.01l7.83,33.39c1.96,8.23,3.72,16.45,4.9,22.82h.2c1.08-6.56,3.13-14.39,5.39-22.91l8.81-33.29h8.91l8.03,33.49c1.86,7.83,3.62,15.67,4.6,22.62h.2c1.37-7.25,3.23-14.59,5.29-22.82l8.72-33.29h8.72l-18.7,66h-8.91l-8.32-34.37c-2.06-8.42-3.43-14.88-4.31-21.54h-.2c-1.18,6.56-2.64,13.02-5.09,21.54l-9.4,34.37h-8.91Z"/>
  <path class="cls-2" d="M321.99,148.93c15.52,9.25,31.47,17.85,45.01,30.06,2.68,2.42,4.8,5.28,6.29,8.51,4.07,8.82-.25,15.91-9.81,15.45-10.02-.48-20.01-1.73-30.01-2.72-14.68-1.45-29.23-4.69-44.11-3.11-1.93,.2-3.9,.63-5.71,1.34-2.63,1.03-5.12,2.72-5.72,5.57-.64,3.07,2.73,3.43,4.43,4.78,2.5,1.97,4.98,3.88,6.46,6.76,2.97,5.76,1.02,10.57-5.14,12.44-2.63,.8-5.35,1.35-8.06,1.83-8.79,1.55-14,8.16-13.66,17.22,.11,2.88,1.73,2.57,3.6,2.17,5.83-1.25,11.36-3.37,16.53-6.25,8.71-4.84,17.34-4.67,25.94-.01,14.48,7.85,27.56,17.6,38.96,29.5,2.57,2.68,4.87,5.71,6.83,8.87,4.91,7.93,4.39,14-1.48,21.14-1.25,1.52-2.5,3.09-4.01,4.33-23.55,19.19-37.99,44.92-51.4,71.39-2.14,4.22-4.53,8.38-6.02,12.84-4.11,12.27-13.46,16.37-25.19,16.53-6.28,.09-12.62-.42-18.84-1.29-12.2-1.72-24.33-1.76-36.51,.06-8.4,1.26-16.85,1.82-25.34,.8-3.56-.43-6.98-1.32-10.21-2.84-8.68-4.09-9.75-11.77-1.86-17.05,4.39-2.94,4.78-5.44,2.97-10.04-12.76-32.45-25.28-65-37.84-97.52-1.92-4.96-3.62-10-5.56-14.95-.93-2.37-.48-4.18,1.43-5.77,1.83-1.52,3.34-.39,4.8,.6,8.33,5.67,16.49,11.61,22.51,19.83,2.13,2.91,4.03,3.5,7.4,2.35,10.1-3.42,19.92-7.44,29.58-11.94,3.44-1.6,4.35-3.64,3.86-7.39-1.46-10.93-2.5-21.93-3.63-32.9-.2-1.94-.24-3.96,.06-5.88,.44-2.8,.16-6.72,3.93-7.03,3.62-.3,5.17,3.02,6.28,6.08,3.35,9.18,4.16,18.81,5.12,28.42,.13,1.3,.37,2.58,.55,3.83,2.3,.16,2.99-1.51,4.01-2.57,8.21-8.51,16.11-17.3,23.6-26.46,3.45-4.21,6.23-8.57,6.91-14.07,.43-3.47,2.3-5.41,5.88-6.18,8.72-1.87,13.95-8.38,19.06-14.96,2.71-3.48,1.12-5.29-2.44-6.29-7.51-2.11-15.2-1.95-22.88-1.79-36.87,.76-72.76,8.07-108.53,16.16-6.32,1.43-12.51,1.76-18.19-2.14-1.53-1.05-2.86-2.58-2.51-4.4,.34-1.79,2.41-1.69,3.9-2.01,59.66-13.05,119.32-26.06,178.95-39.19,3.44-.76,7.12-.25,10.33-2.08h9.46Zm-76.38,226.42c.14,.02,.28,.03,.42,.05-.1,1.57-.08,3.16-.31,4.71-.48,3.19,1,4.23,3.98,4.17,3.91-.07,7.27-.74,9.56-4.51,17.03-28.15,32.56-57.05,44.48-87.79,2.71-7,1.15-13.05-3.76-18.52-10.4-11.59-23.13-14.79-38.02-11.05-2.73,.69-3.41,2.25-3.68,4.52-4.22,36.14-8.44,72.28-12.66,108.42Zm-40.9,5.83c5.37,1.2,6.59-1.19,5.71-6.42-1.79-10.67-3.66-21.38-4.49-32.15-1.5-19.42-2.36-38.9-3.23-58.37-.19-4.35-1.26-5.56-5.55-3.93-7.55,2.88-14.89,6.21-22.33,9.31-5.62,2.34-6.13,4.91-3.8,10.23,10.91,24.92,20.21,50.45,26.68,76.91,1.03,4.22,3.36,4.77,7.01,4.41Zm14.98-50.87c.74,13.93,1.93,30.43,2.33,46.95,.15,6.2,3.95,4.8,7.4,5.35,4.75,.76,4.43-2.38,4.63-5.4,.63-9.62,1.22-19.25,2.03-28.85,2.12-25.1,4.28-50.2,6.61-75.28,.43-4.68-.27-6.75-5.53-5.01-5.22,1.72-10.6,3-15.96,4.26-3.61,.85-5.03,2.43-4.71,6.52,1.26,16.28,2.08,32.6,3.22,51.48Zm26.2-84.87c.27-6.16-.62-7.06-5.85-5.92-4.98,1.08-11.16,10.48-10.48,15.91,.13,1,.29,1.68,1.61,1.9,7.48,1.28,14.39-4.24,14.72-11.89Z"/>
</svg>