<?xml version="1.0" encoding="UTF-8"?>
<svg id="Layer_1" data-name="Layer 1" xmlns="http://www.w3.org/2000/svg" viewBox="0 0 500 500">
  <defs>
    <style>
      .cls-1 {
        fill: #fff;
      }

      .cls-2 {
        fill: #831618;
      }

      .cls-3 {
        fill: #064e29;
      }

      .cls-4 {
        fill: #1b2251;
      }
    </style>
  </defs>
  <g>
    <path d="M405.33,293.46c0-77.84,.02-155.7,0-233.54,0-10.31-3.95-18.92-11.49-25.92-7.18-6.67-15.82-9.34-25.47-9.32-20.07,.03-40.14,.03-60.21,.03-59.06,0-118.11-.02-177.16-.03-11.34,0-20.72,4.34-28.15,12.89-6.27,7.22-8.35,15.73-8.34,25.12,.08,59.52,.04,119.04,.04,178.55,0,49.66-.01,99.31,0,148.97,0,11.71-.06,23.43,.17,35.14,.17,8.21,3.52,15.25,9.04,21.3,8.08,8.86,18.27,11.9,30.02,11.88,72.97-.12,145.95-.03,218.92-.1,7.99-.01,16.05,.84,23.98-.63,17.04-3.17,28.65-17.63,28.66-35.57,.03-42.93-.01-85.85-.01-128.78Zm-2.43-51.84h-.05c0,59.4,0,118.79,0,178.2,0,5.01-.29,9.96-2.06,14.73-4.8,12.96-17.23,21.4-31.66,21.4-77.27,0-154.53-.02-231.79-.03-2.55,0-5.11,.06-7.66-.03-18.18-.65-31.86-14.28-32.59-32.44-.03-.93-.02-1.85-.02-2.78,0-119.38,.02-238.75-.03-358.13,0-9.73,2.62-18.27,9.62-25.26,6.96-6.93,15.36-10.01,25.14-10,56.96,.06,113.93,.03,170.89,.03,22.28,0,44.55-.09,66.82,.03,16.55,.09,29.64,10.91,32.75,26.74,.84,4.24,.62,8.55,.63,12.84,0,58.24,0,116.48,0,174.72Z"/>
    <path class="cls-1" d="M402.9,241.62h-.05c0,59.4,0,118.79,0,178.2,0,5.01-.29,9.96-2.06,14.73-4.8,12.96-17.23,21.4-31.66,21.4-77.27,0-154.53-.02-231.79-.03-2.55,0-5.11,.06-7.66-.03-18.18-.65-31.86-14.28-32.59-32.44-.03-.93-.02-1.85-.02-2.78,0-119.38,.02-238.75-.03-358.13,0-9.73,2.62-18.27,9.62-25.26,6.96-6.93,15.36-10.01,25.14-10,56.96,.06,113.93,.03,170.89,.03,22.28,0,44.55-.09,66.82,.03,16.55,.09,29.64,10.91,32.75,26.74,.84,4.24,.62,8.55,.63,12.84,0,58.24,0,116.48,0,174.72Z"/>
    <path class="cls-4" d="M129.8,101.58v-.21l4.45-4.91c11.72-13.51,19.16-23.45,19.16-35.73,0-9.52-5.05-19.35-17.03-19.35-6.42,0-11.89,2.87-15.74,6.76l2.4,6.35c2.57-2.56,6.76-5.63,11.81-5.63,8.3,0,11.04,6.25,11.04,13-.09,10.03-6.5,18.63-20.7,34.81l-5.9,6.86v5.53h35.51v-7.47h-24.98Z"/>
  </g>
  <g>
    <path class="cls-3" d="M282.23,247.27c-.21,2.57-.22,5.18-.66,7.72-1.38,8,1.82,14.21,9.78,15.98,5.99,1.33,4.4,4.16,2.79,7.45-4.38,8.93-17.29,15.3-26.85,12.02-14.7-5.05-29.19-5.23-44.18-1.78-10.61,2.45-24.55-5.6-28.8-15.58-1.94-4.55,.99-10.49,7.09-11.67,7.68-1.48,10.06-6.58,11.53-13,.08-.36,.16-.72,.26-1.08,3.02-11.28,4.31-11.7,13.22-4.35,4.97,4.1,10.44,3.03,14.79-2.91,4.63-6.32,5.72-6.4,10.2-.41,2.89,3.85,6.33,4.68,10.67,2.62,2.66-1.26,5.39-2.43,8.2-3.32,10.04-3.2,11.81-1.91,11.96,8.32Zm-31.82,13.4c-.22-2.38-.39-4.77-.68-7.14-.18-1.49-.6-3.08-2.33-3.36-2.05-.33-2.97,1.24-3.49,2.86-1.8,5.67-2.59,11.49-2.03,17.44,.15,1.63,.32,3.55,2.46,3.8,2.05,.24,3.49-.9,4.32-2.77,1.54-3.46,1.81-7.11,1.74-10.84Zm10.8,3.53c.67,1.64-1.11,4.88,2.63,5.34,3.09,.38,4.8-1.78,5.64-4.34,1.15-3.49,1.91-7.11,2.78-10.69,.35-1.45,.61-3.02-.93-3.98-1.52-.94-2.88,0-4.08,.81-4.4,2.96-5.61,7.52-6.05,12.86Zm-30.93,1.69c-.46-4.46-.4-8.96-3.5-12.58-.71-.83-1.48-1.81-2.7-1.63-1.59,.23-1.88,1.71-2.01,2.92-.44,4.27,.18,8.41,1.93,12.37,.84,1.89,1.75,4.14,4.09,3.82,2.8-.38,1.65-3.19,2.18-4.89Zm-19.32,5.14c-1.27,.04-3.18,.59-2.71,2.72,.91,4.05,4.36,5.2,7.98,5.67,1.26,.17,2.63-.17,2.75-1.96,.16-2.49-4.41-6.43-8.02-6.42Zm63.34,8.39c1.45-.56,4.01,.22,4.12-2.35,.07-1.7-1.8-1.48-3.02-1.41-1.6,.09-3.71-.03-4.02,1.99-.26,1.68,1.52,1.67,2.91,1.76Z"/>
    <path class="cls-2" d="M308.59,93.19c3.52,0,7.03-.09,10.55,.03,3.06,.1,5.89,1.03,7.86,3.52,1.4,1.76,2.68,3.9,1.34,6.1-1.19,1.95-3.33,.93-5.11,.71-.37-.04-.73-.2-1.09-.2-2.58,.02-6.57-1.74-7.14,1.58-.53,3.09,3.57,2.77,6,3.17,3.83,.65,5.5,3,4.89,6.67-.48,2.9-1.44,5.72-2.3,8.55-1.79,5.84-1.43,6.56,4.5,6.67,4.65,.09,8.05,2.43,11.15,5.45,1.59,1.54,2.31,3.57,.99,5.52-1.28,1.89-3.22,1.27-5.02,.59-9.58-3.62-19.6-3.41-29.6-3.28-1.95,.03-4.81-.19-4.8,2.5,0,2.99,2.94,2.75,5.13,2.81,2.77,.07,5.55-.07,8.33-.01,6.1,.13,7.64,2.63,4.99,8.01-3.39,6.87-2.99,7.88,4.16,10.67,4.13,1.61,8.3,3.13,12.37,4.89,1.92,.83,3.64,2.34,3.3,4.65-.37,2.54-2.75,2.6-4.76,2.96-5.58,1.02-10.68-.66-15.54-3.05-7.6-3.73-15.03-6.38-22.76-.23-1.15,.92-3.15,.92-4.79,1.05-1.89,.14-3.86-.23-4.78-2.11-.87-1.77,.45-3.22,1.47-4.48,1.39-1.72,3.03-3.24,4.5-4.9,.9-1.02,2.89-2.11,1.29-3.56-1.37-1.24-2.66,.51-3.69,1.45-1.22,1.12-2.27,2.43-3.39,3.66-.62,.68-1.19,1.43-1.88,2.04-3.16,2.79-7.4,5.87-10.79,3.04-3.8-3.17,1.02-6.51,2.72-9.4,1.85-3.15,5.01-5.44,6.37-9.01,1.75-4.6,.64-6.58-4.29-7.06-2.79-.27-5.52-.61-8-2-1.33-.75-2.48-1.68-2.44-3.42,.05-2,1.44-2.94,3.07-3.49,1.21-.41,2.52-.55,3.8-.69,4.17-.46,6.31-2.41,5.85-6.94-.28-2.73,.02-5.54,.21-8.31,.35-4.93,1.85-8.77,7.99-8.18,1.4,.13,3.38-.06,3.3-2.02-.08-1.96-2.09-1.74-3.49-1.83-2.4-.16-4.81-.11-7.21-.22-2.52-.11-5.19-.66-5.75-3.39-.64-3.16,2.11-4.8,4.52-5.42,5.17-1.33,10.47-2.28,15.77-2.98,4.02-.53,8.12-.44,12.18-.62,0,.17,0,.34,0,.51Zm-7.55,39.58c2.76-.53,6.39,1.02,8.01-2.27,1.38-2.79-.84-5.24-2.45-7.46-1.55-2.14-3.99-2.01-6.09-1.55-2.81,.62-7.94-1.37-7.92,2.31,.02,3.43,5.23,1.5,8.05,2.34,2.03,.61,5.73-1.63,5.78,1.81,.03,2.02-3.8,.68-5.82,1.25-2.16,.61-6.3-.86-6.15,1.67,.18,3.2,4.26,1.15,6.59,1.9Zm-.71-14.4c1.03-.09,2.86-.16,4.66-.44,1.56-.25,3.67-.27,3.53-2.54-.14-2.28-2.14-2.91-4.03-2.8-2.91,.17-5.79,.67-8.68,1.07-1.53,.21-3.05,.71-2.88,2.59,.17,1.9,1.89,1.96,3.33,2.09,1.08,.1,2.19,.02,4.07,.02Zm1.64,34.96c1.68-.02,3.1-.6,3.16-2.36,.07-1.81-1.03-3.3-2.92-3.32-1.58-.02-2.66,1.25-2.84,2.84-.21,1.83,1.06,2.54,2.6,2.84Z"/>
    <path class="cls-2" d="M238.06,359.09c-17.78,1.65-35.21,.64-51.09-8.72-3.37-1.98-6.69-4.07-9.18-7.1-6.38-7.79-6.27-17.44,1.19-25.04,11-11.22,23.66-20.17,39.02-24.6,3.73-1.08,7.54-2.1,11.47-1.91,22.42,1.11,44.74,2.85,66.13,10.49,5.44,1.94,10.6,4.44,15.34,7.71,8.76,6.04,10.84,15.71,5.39,24.79-4.66,7.77-11.59,12.97-19.85,16.2-12.87,5.03-26.36,7.41-40.12,8.14-6.09,.32-12.2,.05-18.31,.05Zm-17.36-8.43c19.52-.21,36.09-3.59,52.86-4.75,1.47-.1,2.94-.36,4.38-.65,8.81-1.77,17.12-4.88,24.24-10.43,10.28-8.02,9.26-16.15-2.32-21.71-10.45-5.02-21.55-7.64-32.93-9.36-28.39-4.3-54.83-.04-78.11,17.89-9.54,7.35-9.28,13.23,.83,20.14,10.18,6.95,21.56,9.36,31.05,8.87Z"/>
    <path class="cls-3" d="M289.64,423.67c-6.81-.45-13.72-.01-20.36-2.07-1.47-.46-3.75-.92-3.26-3.05,.37-1.59,2.47-1.44,3.89-1.41,8.92,.14,17.74-.76,26.54-2.08,1.5-.23,3.88,.54,3.83-1.94-.05-2.15-2.33-2.19-3.9-2.24-3.32-.12-6.73-.37-9.97,.2-15.45,2.75-31.02,1.6-46.55,1.76-15.19,.15-30.37,.06-45.56,.13-4.48,.02-8.84-.82-13.2-1.67-2.34-.46-4.24-1.62-4.16-4.38,.09-3.2,2.67-3.24,4.83-3.29,4.44-.1,8.9-.1,13.32,.19,27.42,1.82,54.81,.04,82.14-1.42,14.54-.77,29.02-3.22,43.68-3.14,2.99,.02,5.94,.23,8.7,1.44,2.33,1.02,4.29,2.44,3.4,5.49-.88,3.05-2.73,3.81-5.93,3.18-5.82-1.14-6.37-.42-4.72,5.42,.95,3.37-.47,4.87-3.55,5.48-9.64,1.9-19.29,3.67-29.19,3.39Z"/>
    <path class="cls-2" d="M208.14,184.07c.09,10.6-1.33,18.15-5.09,25.14-5.17,9.6-16.98,12.28-25.86,5.78-5.1-3.74-8.3-8.68-8.98-15.24-1.4-13.59,2.24-25.55,10.98-36,1.42-1.7,2.9-3.35,4.25-5.11,5-6.49,5.56-6.4,11.72-.63,8.37,7.83,13.55,16.98,12.98,26.06Zm-16.1-8.3c-.48-2.43,1.22-5.9-2.13-6.74-3.33-.84-4.29,2.79-5.71,4.9-.96,1.44-1.26,3.4-1.57,5.18-.49,2.82,.77,4.69,3.67,5,2.63,.28,4.76-.74,5.4-3.51,.36-1.58,.25-3.27,.34-4.83Zm-14.06,14.74c-2.2,.52-2.21,2.38-2.13,4.2,.12,2.8,1.07,5.18,4.32,5.2,1.9,0,2.88-1.58,2.77-3.41-.18-3-1.65-5.12-4.96-5.98Z"/>
    <path class="cls-3" d="M334.52,209.37c-.32,8.68-2.35,18.24-7.99,26.95-2.79,4.31-4.58,9.26-4.99,14.56-.35,4.58-2.37,8.49-5.27,11.98-1.86,2.24-2.09,3.54,1.41,4.47,5.25,1.39,6.27,3.99,3.62,8.55-3.96,6.82-10.51,11.31-15.93,16.79-1.97,1.99-5.24,1.9-7.83,.31-2.71-1.68-3.16-4.41-2.55-7.34,.33-1.62,.53-3.38,1.29-4.8,5.32-9.88,4.43-20.35,3.23-30.88-.21-1.83-.21-3.68-.16-5.52,.04-1.38,.75-2.48,2.11-2.97,1.5-.53,2.43,.38,3.26,1.44,.57,.73,1.1,1.49,1.76,2.13,.78,.76,1.69,1.71,2.86,1.31,1.7-.58,1.04-2.1,.96-3.32-.5-7.37-1.11-14.74-1.45-22.12-.1-2.23-1.01-5.06,1.93-6.37,2.44-1.09,4.15,.5,5.9,1.96,3.24,2.7,4.84,1.25,5.78-2.29,1.23-4.64,2.6-9.24,4.05-13.81,.62-1.95,1.57-4.07,4.08-3.84,2.65,.25,3.56,2.52,3.86,4.76,.28,2.17,.06,4.41,.06,8.05Z"/>
    <path class="cls-3" d="M171.67,235.07c.16-2.95,.19-5.92,.53-8.85,.26-2.31,.24-5.26,3.82-4.89,3.22,.33,4.89,2.43,4.9,5.64,0,2.77-.25,5.54-.31,8.31-.03,1.32,.18,2.77,1.65,3.2,1.7,.49,2.9-.61,3.49-2.05,1.18-2.9,2.12-5.91,3.24-8.84,1.15-3.01,3.43-4.56,6.51-3.45,3.29,1.19,1.93,3.87,1.19,6.12-2.14,6.5-4.69,12.83-7.87,18.9-2.31,4.41-3.19,9.14-2.21,13.97,1.9,9.4,3.74,18.86,8.46,27.39,1.04,1.88,1.08,3.48-.39,5.04-1.63,1.74-3.6,1.7-5.61,.86-1.59-.67-2.8-1.83-3.39-3.47-6.72-18.78-14.28-37.37-14.02-57.86Z"/>
    <path class="cls-3" d="M243.85,399.54c-1.98-.08-3.76-.45-5.34-1.57-1.51-1.07-3.24-1.91-4.52-3.21-14.68-14.87-33.68-21.66-52.73-28.37-2.64-.93-5.21-1.97-7.18-4.04-1.28-1.34-2.72-2.8-1.78-4.85,.95-2.08,3.08-1.89,4.87-1.74,1.62,.14,3.28,.59,4.8,1.22,6.83,2.83,13.59,5.83,20.43,8.65,5.34,2.2,10.69,4.38,16.28,.34,2-1.44,4.38-.75,5,1.54,3.28,12.13,13.03,18.95,21.47,26.87,1.07,1.01,2.27,2.13,1.84,3.79-.44,1.7-2.03,1.19-3.14,1.35Z"/>
    <path class="cls-3" d="M318.53,354.11c-3.98,13.02-6.48,26.59-14.25,38.19-1.32,1.97-4.14,4.21-5.54,.61-3.76-9.6-9.6-18.43-10.85-28.98-.37-3.09,.15-5.46,3.53-6.52,4.5-1.41,6.63-.02,6.79,4.77,.1,2.97,.01,5.92,1.76,8.55,.84,1.27,1.66,2.63,3.43,2.23,1.52-.35,1.69-1.79,1.91-3.08,1.01-6.02,2.1-12.03,4.51-17.69,.96-2.26,2.11-4.75,5.04-4.26,3.24,.54,3.51,3.35,3.68,6.17Z"/>
    <path class="cls-3" d="M221.31,398.83c-6.5-.59-12.4-3.83-18.39-6.61-9.53-4.43-18.78-9.44-28.87-12.6-2.47-.77-5.31-2.05-4.5-5.31,.8-3.21,3.79-3.25,6.41-2.61,16.83,4.13,32.22,11.59,46.79,20.79,1.52,.96,3.78,2.3,2.74,4.83-.65,1.57-2.37,1.53-4.17,1.51Z"/>
    <path class="cls-3" d="M177.4,305.9c-1.42-.22-3.42-.65-5.43-.82-4.57-.39-6.86-2.45-6.78-7.39,.07-4.3-2.36-8.09-3.83-12.05-1.48-4.02-2.29-8.15-2.4-12.43-.07-2.86,.59-5.24,3.74-5.89,2.99-.63,4.33,1.58,5.39,3.76,1.94,3.98,3.8,8,5.53,12.07,2.18,5.14,5.09,9.78,8.59,14.13,1.3,1.62,4.58,2.23,2.89,5.68-1.61,3.28-4.37,2.85-7.69,2.96Z"/>
    <path class="cls-3" d="M288.07,397.24c-4.12-.34-7.71-1.98-10.32-5.48-5.53-7.39-8.9-15.73-10.97-24.67-.68-2.96,.69-4.56,3.13-5.67,2.51-1.14,4.81-.99,6.2,1.65,5.19,9.8,11.35,19.09,15.51,29.44,1.4,3.48,.16,4.9-3.55,4.73Z"/>
    <path class="cls-3" d="M267.8,398.9c-3.49-.1-6.51-1.19-8.34-3.97-5.01-7.6-9.13-15.65-10.36-24.84-.31-2.3-.98-5.12,2.13-6.13,2.77-.89,5.2,.36,6.75,2.65,1.64,2.43,2.97,5.1,4.3,7.73,3.08,6.1,6.1,12.23,9.11,18.36,.77,1.56,2.81,2.95,1.41,4.92-1.21,1.71-3.36,1.13-5,1.27Z"/>
    <path class="cls-3" d="M330.29,288.08c.27,8.49-3.54,13.59-8.18,18.24-1.21,1.21-2.69,1.98-4.47,1.02-1.77-.96-2.64-2.4-2.57-4.48,.31-8.23,4.31-14.7,9.89-20.28,1.92-1.92,4.06-1.88,4.68,1.5,.33,1.8,.58,3.62,.64,4Z"/>
    <path class="cls-2" d="M219.37,334.77c.7-4.6-1.12-7.53-6.27-8.19-1.98-.25-4.43-.73-4.55-3.26-.15-3.11,2.89-2.95,4.83-3.53,2.1-.63,4.37-.68,6.56-.96,2.5-.31,4.16-1.45,4.21-4.2,.1-4.88,3.42-5.84,7.23-5.41,3.63,.41,6.74,.5,9.73-2.31,2.35-2.21,5.45-1.82,7.01,1.2,2.55,4.93,6.31,5.38,11.18,4.38,6.88-1.4,7.21-.98,6.7,5.74-.26,3.43,1.38,5.6,4.34,6.99,2.05,.97,4.21,2.04,3.9,4.75-.31,2.79-2.71,3.37-4.95,3.49-3.54,.18-4.81,2.66-5.45,5.37-1.04,4.42-3.12,5.83-7.52,4.05-3.19-1.29-6.32-.96-9.44,1.15-3.71,2.51-7.34,2.83-10.55-1.56-2.55-3.5-6.38-3.9-10.51-2.53-6.03,2-6.66,1.46-6.46-5.19Zm22.69-4.41c3.17-.08,6.16-.08,8.84-1.56,1.4-.78,3.37-1.41,3.01-3.48-.35-2.08-2.28-2.19-3.97-2.16-2.76,.05-5.61-.12-8.26,.48-2.69,.61-6.97,1.06-6.53,4.51,.43,3.36,4.48,2.07,6.9,2.21Z"/>
  </g>
</svg>