<?xml version="1.0" encoding="UTF-8"?>
<svg id="Layer_1" data-name="Layer 1" xmlns="http://www.w3.org/2000/svg" viewBox="0 0 500 500">
  <defs>
    <style>
      .cls-1 {
        fill: #fff;
      }

      .cls-2 {
        fill: #831618;
      }
    </style>
  </defs>
  <g>
    <g>
      <path d="M398.63,291.78c0-77.84,.02-155.7,0-233.54,0-10.31-3.95-18.92-11.49-25.92-7.18-6.67-15.82-9.34-25.47-9.32-20.07,.03-40.14,.03-60.21,.03-59.06,0-118.11-.02-177.16-.03-11.34,0-20.72,4.34-28.15,12.89-6.27,7.22-8.35,15.73-8.34,25.12,.08,59.52,.04,119.04,.04,178.55,0,49.66-.01,99.31,0,148.97,0,11.71-.06,23.43,.17,35.14,.17,8.21,3.52,15.25,9.04,21.3,8.08,8.86,18.27,11.9,30.02,11.88,72.97-.12,145.95-.03,218.92-.1,7.99-.01,16.05,.84,23.98-.63,17.04-3.17,28.65-17.63,28.66-35.57,.03-42.93-.01-85.85-.01-128.78Zm-2.43-51.84h-.05c0,59.4,0,118.79,0,178.2,0,5.01-.29,9.96-2.06,14.73-4.8,12.96-17.23,21.4-31.66,21.4-77.27,0-154.53-.02-231.79-.03-2.55,0-5.11,.06-7.66-.03-18.18-.65-31.86-14.28-32.59-32.44-.03-.93-.02-1.85-.02-2.78,0-119.38,.02-238.75-.03-358.13,0-9.73,2.62-18.27,9.62-25.26,6.96-6.93,15.36-10.01,25.14-10,56.96,.06,113.93,.03,170.89,.03,22.28,0,44.55-.09,66.82,.03,16.55,.09,29.64,10.91,32.75,26.74,.84,4.24,.62,8.55,.63,12.84,0,58.24,0,116.48,0,174.72Z"/>
      <path class="cls-1" d="M396.2,239.93h-.05c0,59.4,0,118.79,0,178.2,0,5.01-.29,9.96-2.06,14.73-4.8,12.96-17.23,21.4-31.66,21.4-77.27,0-154.53-.02-231.79-.03-2.55,0-5.11,.06-7.66-.03-18.18-.65-31.86-14.28-32.59-32.44-.03-.93-.02-1.85-.02-2.78,0-119.38,.02-238.75-.03-358.13,0-9.73,2.62-18.27,9.62-25.26,6.96-6.93,15.36-10.01,25.14-10,56.96,.06,113.93,.03,170.89,.03,22.28,0,44.55-.09,66.82,.03,16.55,.09,29.64,10.91,32.75,26.74,.84,4.24,.62,8.55,.63,12.84,0,58.24,0,116.48,0,174.72Z"/>
    </g>
    <polygon class="cls-2" points="119.42 46.82 119.42 53.91 145.25 53.91 145.25 54.11 122.34 110 129.73 110 152.72 52.45 152.72 46.82 119.42 46.82"/>
  </g>
  <g>
    <path class="cls-2" d="M194.85,338.94c.37-6.66,.71-12.91,1.06-19.15,.16-2.78,.92-4.98,4.2-5.52,21.26-3.51,41.78-10.25,62.85-14.57,3.56-.73,7.35-.85,10.98-.55,6.14,.51,8.71,4.38,6.92,10.35-5.13,17.09-7.56,34.44-6.26,52.31,.3,4.2,1.42,5.95,5.98,6.4,16.12,1.57,31.49,5.64,44.73,15.63,7.9,5.95,11.08,13.41,9.01,21.42-1.8,6.96-9.35,12.48-18.7,13.06-7.45,.47-14.49,2.21-21.38,4.95-7.07,2.81-14.11,2.89-21.52,.45-13.31-4.37-26.34-9.32-38.72-15.89-2.2-1.16-4.36-1.61-6.11,.15-5.54,5.56-11.85,4.13-17.95,1.86-5.4-2-7.08-.16-6.84,4.98,.03,.73-.03,1.49-.21,2.19-.58,2.23-.35,5.07-3.41,5.71-2.89,.6-4.49-1.55-5.73-3.51-3.35-5.33-5.13-11.37-7.11-17.28-1.18-3.55-3.11-4.88-6.84-4.81-6.83,.12-13.55-.96-20.08-3.08-2.5-.81-4.76-2-6.67-3.77-2.21-2.04-3.1-4.54-2.05-7.48,1.07-2.98,3.74-2.01,5.69-1.85,6.22,.52,12.42,1.33,18.61,2.18,4.46,.61,5.49-1.29,4.66-5.36-1.63-7.92-3.04-15.89-4.5-23.84-.43-2.34-1.19-5.12,1.46-6.44,2.75-1.36,5.02,.73,6.75,2.53,3.8,3.96,5.65,8.99,6.72,14.29,.88,4.34,1.87,8.63,3.64,12.7,.51,1.18,.83,2.66,1.73,3.41,5.1,4.26,10.09,.19,15.07-.59,2.98-.47,6.42-1.08,6.2-5.54-.1-2.01,.31-4.07,.1-6.06-.21-1.96,1.54-5.01-1.62-5.61-2.69-.52-5.49,.46-7.12,3.17-1.23,2.05-2.49,4.08-3.65,6.16-1.8,3.24-3.54,2.51-5.22-.05-3.36-5.1-4.35-10.91-4.59-16.82-.22-5.51-.05-11.04-.05-16.14Zm68.09,73.67c4.43,.09,8.28-1.36,11.74-4.08,3.9-3.06,7.82-6,13.13-6.41,4.57-.35,9.17-.89,13.63-1.9,4.28-.97,7.06-3.95,7.64-8.43,.54-4.17-2.9-5.64-5.68-7.29-6.15-3.64-13.19-4.32-20.01-5.82-4.78-1.06-6.54,.03-5.4,5.12,.85,3.77,1.54,7.98-1.71,10.94-4.59,4.19-10.27,6.34-16.43,7.17-1.9,.26-3.39-.34-3.85-2.24-1.2-4.91-3.99-4.41-7.35-2.34-2.03,1.25-4.09,2.48-6.12,3.73-2.06,1.27-1.81,2.54,.09,3.68,6.32,3.79,12.67,7.53,20.32,7.87Zm-31.74-44.33c.64,1.06-2.43,5.6,1.95,5.41,5.97-.26,11.84-2.26,17.39-4.73,.69-.31,1.41-1.37,1.47-2.13,.29-3.63,1.37-7.91-.88-10.65-1.88-2.29-5.4,.38-8.19,.85-1.8,.3-3.52,1.2-5.32,1.35-5.6,.46-7.82,3.34-6.42,9.9Zm20.33-28.22c.24-7.25,.25-7.2-6.01-5.56-4.09,1.07-8.26,1.86-12.33,2.99-3.18,.88-4.85,5.96-3.54,10.28,1.14,3.78,3.87,1.68,5.91,1.38,3.27-.47,6.46-1.49,9.73-1.98,4.56-.68,7.15-2.73,6.25-7.11Zm.87-21.4c.9-4.92-1.2-5.39-4.63-4.38-3.17,.94-6.36,2.27-9.58,2.42-6.32,.29-7.66,4.14-8.21,9.34-.36,3.39,.96,3.8,3.73,3.15,3.58-.84,7.16-1.97,10.78-2.2,5.94-.37,8.76-2.97,7.91-8.34Zm-21.04,69.5c-.18,4.52,2.07,6.08,6.2,4.67,4.15-1.41,8.28-2.94,12.24-4.81,2.92-1.38,2.36-4.42,1.8-6.81-.68-2.88-2.92-1.25-4.49-.85-4.25,1.09-8.44,2.39-12.69,3.49-2.31,.6-3.55,1.79-3.06,4.3Zm-11.95,7.95c-.27-5.42-2.5-7.03-7.28-5.6-2.97,.89-5.94,1.79-8.88,2.77-1.64,.54-4.08,.62-3.6,3.19,.42,2.27,1.12,4.7,3.23,6.1,1.48,.98,15.38-3.65,16.28-5.31,.24-.44,.23-1.02,.26-1.16Zm-1.26-49.93c.14-4.61-.1-5.36-2.93-4.97-3.39,.47-8.62-.87-8.22,5.3,.17,2.66-1.61,6.86,3.31,7.28,5.9,.5,7.65-1.37,7.84-7.61Zm-11.23-18.86c.24,2.76-.37,5.81,4.14,5.51,6.77-.44,8.67-2.39,8.52-8.97-.06-2.51-1.53-3.04-3.16-2.37-3.45,1.4-9.79-1.57-9.49,5.83Z"/>
    <path d="M151.77,222.41c6.31-9.89,15.83-14.29,25.54-18.16,10.94-4.36,21.94-8.5,32.09-14.61,3.96-2.39,5.72-5.16,4.87-9.89-1.94-10.85-3.47-21.78-5.38-32.64-.84-4.75-2.83-9.11-5.91-12.92-7.71-9.55-7.59-20.26-4.55-31.38,1.13-4.12,3.46-5.65,7.79-4.37,10.65,3.14,19.11,9.32,25.54,18.23,3.71,5.14,3.84,11.01,1.96,16.91-1.28,4.02-2.85,7.95-4.22,11.95-3.01,8.8-1.94,17.32,1.52,25.8,1.45,3.56,2.88,3.46,5.51,1.2,10.75-9.21,22-17.88,32.34-27.53,16.6-15.49,36.23-21.81,58.48-21.53,6.89,.09,9.31,2.77,8.35,9.58-.85,6.04-4.77,10.37-10.84,11.63-9,1.86-18.02,3.63-27.06,5.31-14.09,2.63-26.52,8.39-36.96,18.44-6.1,5.87-12.25,11.66-18.01,17.88-1.94,2.1-2.37,3.58,.68,4.85,10.09,4.18,20.14,8.38,31.4,4.27,1.86-.68,4.04-1.09,5.97-.84,11.43,1.5,17.3,7.26,10.7,18.72-4.92,8.54-12.38,13.42-22.85,12.29-11.72-1.26-23.29-3.41-34.8-5.82-6.34-1.33-12.3-4.02-16.36-9.49-1.97-2.66-4.18-1.57-6.42-.86-15.96,5.07-31.94,10.05-48.71,11.79-3.56,.37-7.13,.78-10.69,1.17Z"/>
    <path class="cls-2" d="M294.6,289.12c-21.35-1.36-41.51,4.37-61.63,10.42-18.22,5.48-36.56,10.11-55.86,6.41-6.89-1.32-13.7-2.77-19.55-7.01-2.88-2.08-3.05-3.37,.31-5.37,8.39-5,16.98-3.65,25.67-1.51,9.92,2.45,19.9,3.31,30.08,1.96,4.21-.56,6.63-2.7,7.52-6.81,.84-3.91-.44-6.17-4.42-7.42-2.97-.94-3.15-3.55-1.24-5.76,4.85-5.6,8.41-12.03,12.24-18.3,1.61-2.63,3.85-4.26,6.86-3.27,3.08,1.02,2.74,3.93,2.6,6.55-.42,7.42-2.49,14.45-4.89,21.42-.79,2.3-2.53,5.27,.76,6.81,3.41,1.58,4.86-1.57,6.26-3.84,3.87-6.26,7.19-12.79,9.71-19.75,1.99-5.51,1.35-10.11-3.52-13.71-2.99-2.21-3.18-4.35-.67-7.26,3.19-3.7,6.98-6.45,11.21-8.77,6.67-3.66,10.05-1.83,13.45,5.28,3.78,7.88,3.22,16.1-1.4,23.78-1.8,2.99-3.59,5.98-4.65,9.35-1.76,5.57-1.15,6.39,4.5,5.18,13.34-2.86,26.78-4.79,40.45-4.56,4.75,.08,9.56,.14,14.06,2.16,2.6,1.17,3.31,2.57,1.38,5.02-4.37,5.58-9.26,9.85-17.1,9.08-4.01-.39-8.08-.07-12.13-.07Z"/>
  </g>
</svg>