  0
SECTION
  2
HEADER
  9
$ACADVER
  1
AC1032
  9
$ACADMAINTVER
 90
      228
  9
$DWGCODEPAGE
  3
ANSI_1252
  9
$REQUIREDVERSIONS
160
                 0
  9
$INSBASE
 10
0.0
 20
0.0
 30
0.0
  9
$EXTMIN
 10
1.000000000000000E+20
 20
1.000000000000000E+20
 30
1.000000000000000E+20
  9
$EXTMAX
 10
-1.000000000000000E+20
 20
-1.000000000000000E+20
 30
-1.000000000000000E+20
  9
$LIMMIN
 10
0.0
 20
0.0
  9
$LIMMAX
 10
12.0
 20
9.0
  9
$ORTHOMODE
 70
     0
  9
$REGENMODE
 70
     1
  9
$FILLMODE
 70
     1
  9
$QTEXTMODE
 70
     0
  9
$MIRRTEXT
 70
     0
  9
$LTSCALE
 40
1.0
  9
$ATTMODE
 70
     1
  9
$TEXTSIZE
 40
0.2
  9
$TRACEWID
 40
0.05
  9
$TEXTSTYLE
  7
Standard
  9
$CLAYER
  8
0
  9
$CELTYPE
  6
ByLayer
  9
$CECOLOR
 62
   256
  9
$CELTSCALE
 40
1.0
  9
$DISPSILH
 70
     0
  9
$DIMSCALE
 40
1.0
  9
$DIMASZ
 40
0.18
  9
$DIMEXO
 40
0.0625
  9
$DIMDLI
 40
0.38
  9
$DIMRND
 40
0.0
  9
$DIMDLE
 40
0.0
  9
$DIMEXE
 40
0.18
  9
$DIMTP
 40
0.0
  9
$DIMTM
 40
0.0
  9
$DIMTXT
 40
0.18
  9
$DIMCEN
 40
0.09
  9
$DIMTSZ
 40
0.0
  9
$DIMTOL
 70
     0
  9
$DIMLIM
 70
     0
  9
$DIMTIH
 70
     1
  9
$DIMTOH
 70
     1
  9
$DIMSE1
 70
     0
  9
$DIMSE2
 70
     0
  9
$DIMTAD
 70
     0
  9
$DIMZIN
 70
     0
  9
$DIMBLK
  1

  9
$DIMASO
 70
     1
  9
$DIMSHO
 70
     1
  9
$DIMPOST
  1

  9
$DIMAPOST
  1

  9
$DIMALT
 70
     0
  9
$DIMALTD
 70
     2
  9
$DIMALTF
 40
25.4
  9
$DIMLFAC
 40
1.0
  9
$DIMTOFL
 70
     0
  9
$DIMTVP
 40
0.0
  9
$DIMTIX
 70
     0
  9
$DIMSOXD
 70
     0
  9
$DIMSAH
 70
     0
  9
$DIMBLK1
  1

  9
$DIMBLK2
  1

  9
$DIMSTYLE
  2
Standard
  9
$DIMCLRD
 70
     0
  9
$DIMCLRE
 70
     0
  9
$DIMCLRT
 70
     0
  9
$DIMTFAC
 40
1.0
  9
$DIMGAP
 40
0.09
  9
$DIMJUST
 70
     0
  9
$DIMSD1
 70
     0
  9
$DIMSD2
 70
     0
  9
$DIMTOLJ
 70
     1
  9
$DIMTZIN
 70
     0
  9
$DIMALTZ
 70
     0
  9
$DIMALTTZ
 70
     0
  9
$DIMUPT
 70
     0
  9
$DIMDEC
 70
     4
  9
$DIMTDEC
 70
     4
  9
$DIMALTU
 70
     2
  9
$DIMALTTD
 70
     2
  9
$DIMTXSTY
  7
Standard
  9
$DIMAUNIT
 70
     0
  9
$DIMADEC
 70
     0
  9
$DIMALTRND
 40
0.0
  9
$DIMAZIN
 70
     0
  9
$DIMDSEP
 70
    46
  9
$DIMATFIT
 70
     3
  9
$DIMFRAC
 70
     0
  9
$DIMLDRBLK
  1

  9
$DIMLUNIT
 70
     2
  9
$DIMLWD
 70
    -2
  9
$DIMLWE
 70
    -2
  9
$DIMTMOVE
 70
     0
  9
$DIMFXL
 40
1.0
  9
$DIMFXLON
 70
     0
  9
$DIMJOGANG
 40
0.7853981633974483
  9
$DIMTFILL
 70
     0
  9
$DIMTFILLCLR
 70
     0
  9
$DIMARCSYM
 70
     0
  9
$DIMLTYPE
  6

  9
$DIMLTEX1
  6

  9
$DIMLTEX2
  6

  9
$DIMTXTDIRECTION
 70
     0
  9
$LUNITS
 70
     2
  9
$LUPREC
 70
     4
  9
$SKETCHINC
 40
0.1
  9
$FILLETRAD
 40
0.0
  9
$AUNITS
 70
     0
  9
$AUPREC
 70
     0
  9
$MENU
  1
.
  9
$ELEVATION
 40
0.0
  9
$PELEVATION
 40
0.0
  9
$THICKNESS
 40
0.0
  9
$LIMCHECK
 70
     0
  9
$CHAMFERA
 40
0.0
  9
$CHAMFERB
 40
0.0
  9
$CHAMFERC
 40
0.0
  9
$CHAMFERD
 40
0.0
  9
$SKPOLY
 70
     0
  9
$TDCREATE
 40
2460929.579537037
  9
$TDUCREATE
 40
2460929.371203704
  9
$TDUPDATE
 40
2460929.579537037
  9
$TDUUPDATE
 40
2460929.371203704
  9
$TDINDWG
 40
0.0000000000
  9
$TDUSRTIMER
 40
0.0000000000
  9
$USRTIMER
 70
     1
  9
$ANGBASE
 50
0.0
  9
$ANGDIR
 70
     0
  9
$PDMODE
 70
     0
  9
$PDSIZE
 40
0.0
  9
$PLINEWID
 40
0.0
  9
$SPLFRAME
 70
     0
  9
$SPLINETYPE
 70
     6
  9
$SPLINESEGS
 70
     8
  9
$HANDSEED
  5
96
  9
$SURFTAB1
 70
     6
  9
$SURFTAB2
 70
     6
  9
$SURFTYPE
 70
     6
  9
$SURFU
 70
     6
  9
$SURFV
 70
     6
  9
$UCSBASE
  2

  9
$UCSNAME
  2

  9
$UCSORG
 10
0.0
 20
0.0
 30
0.0
  9
$UCSXDIR
 10
1.0
 20
0.0
 30
0.0
  9
$UCSYDIR
 10
0.0
 20
1.0
 30
0.0
  9
$UCSORTHOREF
  2

  9
$UCSORTHOVIEW
 70
     0
  9
$UCSORGTOP
 10
0.0
 20
0.0
 30
0.0
  9
$UCSORGBOTTOM
 10
0.0
 20
0.0
 30
0.0
  9
$UCSORGLEFT
 10
0.0
 20
0.0
 30
0.0
  9
$UCSORGRIGHT
 10
0.0
 20
0.0
 30
0.0
  9
$UCSORGFRONT
 10
0.0
 20
0.0
 30
0.0
  9
$UCSORGBACK
 10
0.0
 20
0.0
 30
0.0
  9
$PUCSBASE
  2

  9
$PUCSNAME
  2

  9
$PUCSORG
 10
0.0
 20
0.0
 30
0.0
  9
$PUCSXDIR
 10
1.0
 20
0.0
 30
0.0
  9
$PUCSYDIR
 10
0.0
 20
1.0
 30
0.0
  9
$PUCSORTHOREF
  2

  9
$PUCSORTHOVIEW
 70
     0
  9
$PUCSORGTOP
 10
0.0
 20
0.0
 30
0.0
  9
$PUCSORGBOTTOM
 10
0.0
 20
0.0
 30
0.0
  9
$PUCSORGLEFT
 10
0.0
 20
0.0
 30
0.0
  9
$PUCSORGRIGHT
 10
0.0
 20
0.0
 30
0.0
  9
$PUCSORGFRONT
 10
0.0
 20
0.0
 30
0.0
  9
$PUCSORGBACK
 10
0.0
 20
0.0
 30
0.0
  9
$USERI1
 70
     0
  9
$USERI2
 70
     0
  9
$USERI3
 70
     0
  9
$USERI4
 70
     0
  9
$USERI5
 70
     0
  9
$USERR1
 40
0.0
  9
$USERR2
 40
0.0
  9
$USERR3
 40
0.0
  9
$USERR4
 40
0.0
  9
$USERR5
 40
0.0
  9
$WORLDVIEW
 70
     1
  9
$SHADEDGE
 70
     3
  9
$SHADEDIF
 70
    70
  9
$TILEMODE
 70
     1
  9
$MAXACTVP
 70
    64
  9
$PINSBASE
 10
0.0
 20
0.0
 30
0.0
  9
$PLIMCHECK
 70
     0
  9
$PEXTMIN
 10
1.000000000000000E+20
 20
1.000000000000000E+20
 30
1.000000000000000E+20
  9
$PEXTMAX
 10
-1.000000000000000E+20
 20
-1.000000000000000E+20
 30
-1.000000000000000E+20
  9
$PLIMMIN
 10
0.0
 20
0.0
  9
$PLIMMAX
 10
12.0
 20
9.0
  9
$UNITMODE
 70
     0
  9
$VISRETAIN
 70
     1
  9
$PLINEGEN
 70
     0
  9
$PSLTSCALE
 70
     1
  9
$TREEDEPTH
 70
  3020
  9
$CMLSTYLE
  2
Standard
  9
$CMLJUST
 70
     0
  9
$CMLSCALE
 40
1.0
  9
$PROXYGRAPHICS
 70
     1
  9
$MEASUREMENT
 70
     0
  9
$CELWEIGHT
370
    -1
  9
$ENDCAPS
280
     0
  9
$JOINSTYLE
280
     0
  9
$LWDISPLAY
290
     1
  9
$INSUNITS
 70
     0
  9
$HYPERLINKBASE
  1

  9
$STYLESHEET
  1

  9
$XEDIT
290
     1
  9
$CEPSNTYPE
380
     0
  9
$PSTYLEMODE
290
     1
  9
$FINGERPRINTGUID
  2
{E617A6D9-7188-6141-86EC-260A76D511DA}
  9
$VERSIONGUID
  2
{670C8B76-B847-174C-AB58-490367D9E47A}
  9
$EXTNAMES
290
     1
  9
$PSVPSCALE
 40
0.0
  9
$OLESTARTUP
290
     0
  9
$SORTENTS
280
   127
  9
$INDEXCTL
280
     0
  9
$HIDETEXT
280
     1
  9
$XCLIPFRAME
280
     2
  9
$HALOGAP
280
     0
  9
$OBSCOLOR
 70
   257
  9
$OBSLTYPE
280
     0
  9
$INTERSECTIONDISPLAY
280
     0
  9
$INTERSECTIONCOLOR
 70
   257
  9
$DIMASSOC
280
     2
  9
$PROJECTNAME
  1

  9
$CAMERADISPLAY
290
     0
  9
$LENSLENGTH
 40
50.0
  9
$CAMERAHEIGHT
 40
0.0
  9
$STEPSPERSEC
 40
2.0
  9
$STEPSIZE
 40
6.0
  9
$3DDWFPREC
 40
2.0
  9
$PSOLWIDTH
 40
0.25
  9
$PSOLHEIGHT
 40
4.0
  9
$LOFTANG1
 40
1.570796326794896
  9
$LOFTANG2
 40
1.570796326794896
  9
$LOFTMAG1
 40
0.0
  9
$LOFTMAG2
 40
0.0
  9
$LOFTPARAM
 70
     7
  9
$LOFTNORMALS
280
     1
  9
$LATITUDE
 40
37.795
  9
$LONGITUDE
 40
-122.394
  9
$NORTHDIRECTION
 40
0.0
  9
$TIMEZONE
 70
 -8000
  9
$LIGHTGLYPHDISPLAY
280
     1
  9
$TILEMODELIGHTSYNCH
280
     1
  9
$CMATERIAL
347
11
  9
$SOLIDHIST
280
     0
  9
$SHOWHIST
280
     1
  9
$DWFFRAME
280
     2
  9
$DGNFRAME
280
     0
  9
$REALWORLDSCALE
290
     1
  9
$INTERFERECOLOR
 62
     1
  9
$INTERFEREOBJVS
345
33
  9
$INTERFEREVPVS
346
30
  9
$CSHADOW
280
     0
  9
$SHADOWPLANELOCATION
 40
0.0
  0
ENDSEC
  0
SECTION
  2
CLASSES
  0
CLASS
  1
ACDBDICTIONARYWDFLT
  2
AcDbDictionaryWithDefault
  3
ObjectDBX Classes
 90
        0
 91
        1
280
     0
281
     0
  0
CLASS
  1
MATERIAL
  2
AcDbMaterial
  3
ObjectDBX Classes
 90
     1153
 91
        3
280
     0
281
     0
  0
CLASS
  1
VISUALSTYLE
  2
AcDbVisualStyle
  3
ObjectDBX Classes
 90
     4095
 91
       24
280
     0
281
     0
  0
CLASS
  1
SCALE
  2
AcDbScale
  3
ObjectDBX Classes
 90
     1153
 91
       17
280
     0
281
     0
  0
CLASS
  1
TABLESTYLE
  2
AcDbTableStyle
  3
ObjectDBX Classes
 90
     4095
 91
        1
280
     0
281
     0
  0
CLASS
  1
MLEADERSTYLE
  2
AcDbMLeaderStyle
  3
ACDB_MLEADERSTYLE_CLASS
 90
     4095
 91
        1
280
     0
281
     0
  0
CLASS
  1
ACDBSECTIONVIEWSTYLE
  2
AcDbSectionViewStyle
  3
ObjectDBX Classes
 90
     1025
 91
        1
280
     0
281
     0
  0
CLASS
  1
ACDBDETAILVIEWSTYLE
  2
AcDbDetailViewStyle
  3
ObjectDBX Classes
 90
     1025
 91
        1
280
     0
281
     0
  0
CLASS
  1
DICTIONARYVAR
  2
AcDbDictionaryVar
  3
ObjectDBX Classes
 90
        0
 91
        5
280
     0
281
     0
  0
CLASS
  1
CELLSTYLEMAP
  2
AcDbCellStyleMap
  3
ObjectDBX Classes
 90
     1152
 91
        1
280
     0
281
     0
  0
ENDSEC
  0
SECTION
  2
TABLES
  0
TABLE
  2
VPORT
  5
8
330
0
100
AcDbSymbolTable
 70
     1
  0
VPORT
  5
57
330
8
100
AcDbSymbolTableRecord
100
AcDbViewportTableRecord
  2
*Active
 70
     0
 10
0.0
 20
0.0
 11
1.0
 21
1.0
 12
0.0
 22
0.0
 13
0.0
 23
0.0
 14
1.0
 24
1.0
 15
0.0
 25
0.0
 16
0.0
 26
0.0
 36
1.0
 17
2070.329143804109
 27
-1549.708560332395
 37
0.0
 40
3099.36839297975
 41
1.304893925962813
 42
50.0
 43
0.0
 44
0.0
 50
0.0
 51
0.0
 71
     0
 72
   100
 73
     1
 74
     1
 75
     0
 76
     0
 77
     0
 78
     0
281
     0
 65
     1
110
0.0
120
0.0
130
0.0
111
1.0
121
0.0
131
0.0
112
0.0
122
1.0
132
0.0
 79
     0
146
0.0
 60
     3
 61
     5
292
     1
282
     1
141
0.0
142
0.0
 63
   250
421
  3355443
  0
ENDTAB
  0
TABLE
  2
LTYPE
  5
5
330
0
100
AcDbSymbolTable
 70
     1
  0
LTYPE
  5
5B
330
5
100
AcDbSymbolTableRecord
100
AcDbLinetypeTableRecord
  2
ByBlock
 70
     0
  3

 72
    65
 73
     0
 40
0.0
  0
LTYPE
  5
5C
330
5
100
AcDbSymbolTableRecord
100
AcDbLinetypeTableRecord
  2
ByLayer
 70
     0
  3

 72
    65
 73
     0
 40
0.0
  0
LTYPE
  5
5D
330
5
100
AcDbSymbolTableRecord
100
AcDbLinetypeTableRecord
  2
Continuous
 70
     0
  3
Solid line
 72
    65
 73
     0
 40
0.0
  0
ENDTAB
  0
TABLE
  2
LAYER
  5
2
330
0
100
AcDbSymbolTable
 70
     2
  0
LAYER
  5
54
330
2
100
AcDbSymbolTableRecord
100
AcDbLayerTableRecord
  2
0
 70
     0
 62
     7
  6
Continuous
370
    -3
390
F
347
21
348
0
  0
LAYER
  5
78
330
2
100
AcDbSymbolTableRecord
100
AcDbLayerTableRecord
  2
Layer 1
 70
     0
 62
     7
  6
Continuous
370
     0
390
F
347
21
348
0
  0
ENDTAB
  0
TABLE
  2
STYLE
  5
3
330
0
100
AcDbSymbolTable
 70
     2
  0
STYLE
  5
55
330
3
100
AcDbSymbolTableRecord
100
AcDbTextStyleTableRecord
  2
Standard
 70
     0
 40
0.0
 41
1.0
 50
0.0
 71
     0
 42
0.2
  3
txt
  4

  0
STYLE
  5
5A
330
3
100
AcDbSymbolTableRecord
100
AcDbTextStyleTableRecord
  2
Annotative
 70
     0
 40
0.0
 41
1.0
 50
0.0
 71
     0
 42
0.2
  3
txt
  4

1001
AcadAnnotative
1000
AnnotativeData
1002
{
1070
     1
1070
     1
1002
}
  0
ENDTAB
  0
TABLE
  2
VIEW
  5
6
330
0
100
AcDbSymbolTable
 70
     0
  0
ENDTAB
  0
TABLE
  2
UCS
  5
7
330
0
100
AcDbSymbolTable
 70
     0
  0
ENDTAB
  0
TABLE
  2
APPID
  5
9
330
0
100
AcDbSymbolTable
 70
     2
  0
APPID
  5
56
330
9
100
AcDbSymbolTableRecord
100
AcDbRegAppTableRecord
  2
ACAD
 70
     0
  0
APPID
  5
5E
330
9
100
AcDbSymbolTableRecord
100
AcDbRegAppTableRecord
  2
AcadAnnotative
 70
     0
  0
ENDTAB
  0
TABLE
  2
DIMSTYLE
  5
A
330
0
100
AcDbSymbolTable
 70
     2
100
AcDbDimStyleTable
 71
     0
  0
DIMSTYLE
105
58
330
A
100
AcDbSymbolTableRecord
100
AcDbDimStyleTableRecord
  2
Standard
 70
     0
340
55
  0
DIMSTYLE
105
59
330
A
100
AcDbSymbolTableRecord
100
AcDbDimStyleTableRecord
  2
Annotative
 70
     0
340
55
1001
AcadAnnotative
1000
AnnotativeData
1002
{
1070
     1
1070
     1
1002
}
  0
ENDTAB
  0
TABLE
  2
BLOCK_RECORD
  5
1
330
0
100
AcDbSymbolTable
 70
     1
  0
BLOCK_RECORD
  5
70
330
1
100
AcDbSymbolTableRecord
100
AcDbBlockTableRecord
  2
*Model_Space
340
73
 70
     0
280
     1
281
     0
  0
BLOCK_RECORD
  5
6C
330
1
100
AcDbSymbolTableRecord
100
AcDbBlockTableRecord
  2
*Paper_Space
340
6F
 70
     0
280
     1
281
     0
  0
BLOCK_RECORD
  5
74
330
1
100
AcDbSymbolTableRecord
100
AcDbBlockTableRecord
  2
*Paper_Space0
340
77
 70
     0
280
     1
281
     0
  0
ENDTAB
  0
ENDSEC
  0
SECTION
  2
BLOCKS
  0
BLOCK
  5
71
330
70
100
AcDbEntity
  8
0
100
AcDbBlockBegin
  2
*Model_Space
 70
     0
 10
0.0
 20
0.0
 30
0.0
  3
*Model_Space
  1

  0
ENDBLK
  5
72
330
70
100
AcDbEntity
  8
0
100
AcDbBlockEnd
  0
BLOCK
  5
6D
330
6C
100
AcDbEntity
 67
     1
  8
0
100
AcDbBlockBegin
  2
*Paper_Space
 70
     0
 10
0.0
 20
0.0
 30
0.0
  3
*Paper_Space
  1

  0
ENDBLK
  5
6E
330
6C
100
AcDbEntity
 67
     1
  8
0
100
AcDbBlockEnd
  0
BLOCK
  5
75
330
74
100
AcDbEntity
 67
     1
  8
0
100
AcDbBlockBegin
  2
*Paper_Space0
 70
     0
 10
0.0
 20
0.0
 30
0.0
  3
*Paper_Space0
  1

  0
ENDBLK
  5
76
330
74
100
AcDbEntity
 67
     1
  8
0
100
AcDbBlockEnd
  0
ENDSEC
  0
SECTION
  2
ENTITIES
  0
SPLINE
  5
79
330
70
100
AcDbEntity
  8
Layer 1
100
AcDbSpline
210
0.0
220
0.0
230
1.0
 70
     9
 71
     3
 72
    53
 73
    49
 74
     0
 42
0.0000000001
 43
0.0000000001
 40
0.0
 40
0.0
 40
0.0
 40
0.0
 40
1.0
 40
1.0
 40
1.0
 40
2.0
 40
2.0
 40
2.0
 40
3.0
 40
3.0
 40
3.0
 40
4.0
 40
4.0
 40
4.0
 40
5.0
 40
5.0
 40
5.0
 40
6.0
 40
6.0
 40
6.0
 40
7.0
 40
7.0
 40
7.0
 40
8.0
 40
8.0
 40
8.0
 40
9.0
 40
9.0
 40
9.0
 40
10.0
 40
10.0
 40
10.0
 40
11.0
 40
11.0
 40
11.0
 40
12.0
 40
12.0
 40
12.0
 40
13.0
 40
13.0
 40
13.0
 40
14.0
 40
14.0
 40
14.0
 40
15.0
 40
15.0
 40
15.0
 40
16.0
 40
16.0
 40
16.0
 40
16.0
 10
396.1965506739361
 20
-1799.933435935763
 30
0.0
 10
396.1965506739361
 20
-1799.933435935763
 30
0.0
 10
396.1478571084481
 20
-1799.933435935763
 30
0.0
 10
396.1478571084481
 20
-1799.933435935763
 30
0.0
 10
396.1478571084481
 20
-1859.329515687706
 30
0.0
 10
396.1408887448051
 20
-1918.72559543965
 30
0.0
 10
396.1548254720983
 20
-1978.128601065218
 30
0.0
 10
396.1548254720983
 20
-1983.140936538169
 30
0.0
 10
395.8624091390775
 20
-1988.090641718351
 30
0.0
 10
394.0942293537883
 20
-1992.859296913786
 30
0.0
 10
389.2906473600742
 20
-2005.814759633373
 30
0.0
 10
376.8643553774018
 20
-2014.259141672315
 30
0.0
 10
362.4329592454596
 20
-2014.259141672315
 30
0.0
 10
285.166553411982
 20
-2014.252173308669
 30
0.0
 10
207.9001475785044
 20
-2014.238279071396
 30
0.0
 10
130.6407101086697
 20
-2014.224342344103
 30
0.0
 10
128.085785071682
 20
-2014.224342344103
 30
0.0
 10
125.530945014736
 20
-2014.286972636877
 30
0.0
 10
122.9829883413877
 20
-2014.196511379541
 30
0.0
 10
104.799383325917
 20
-2013.549048420722
 30
0.0
 10
91.11989062744397
 20
-1999.918334267775
 30
0.0
 10
90.39594562860292
 20
-1981.75559185322
 30
0.0
 10
90.36110381036996
 20
-1980.829691778697
 30
0.0
 10
90.37504053766316
 20
-1979.903834194196
 30
0.0
 10
90.37504053766316
 20
-1978.970965756027
 30
0.0
 10
90.37504053766316
 20
-1859.594058566141
 30
0.0
 10
90.39594562860292
 20
-1740.217108886234
 30
0.0
 10
90.34019871943019
 20
-1620.840201696348
 30
0.0
 10
90.34019871943019
 20
-1611.107947083463
 30
0.0
 10
92.95775404919913
 20
-1602.566092933513
 30
0.0
 10
99.96112947406073
 20
-1595.576654235945
 30
0.0
 10
106.9226947170464
 20
-1588.642962447546
 30
0.0
 10
115.3252665741092
 20
-1585.566004997374
 30
0.0
 10
125.0992463888251
 20
-1585.57297336102
 30
0.0
 10
182.058820795748
 20
-1585.628550310106
 30
0.0
 10
239.0253635663139
 20
-1585.600761835565
 30
0.0
 10
295.9847680131497
 20
-1585.600761835565
 30
0.0
 10
318.2617767906995
 20
-1585.600761835565
 30
0.0
 10
340.5387855682493
 20
-1585.510258088205
 30
0.0
 10
362.8089109621978
 20
-1585.635518673753
 30
0.0
 10
379.3564801615321
 20
-1585.726107401158
 30
0.0
 10
392.4512251740052
 20
-1596.544406982368
 30
0.0
 10
395.5630244424065
 20
-1612.374999546511
 30
0.0
 10
396.398463259593
 20
-1616.614484005033
 30
0.0
 10
396.1826989266847
 20
-1620.923737080062
 30
0.0
 10
396.1895823102859
 20
-1625.212085064151
 30
0.0
 10
396.1965506739361
 20
-1683.452478701325
 30
0.0
 10
396.1965506739361
 20
-1741.693042298589
 30
0.0
 10
396.1965506739361
 20
-1799.933435935763
 30
0.0
  0
SPLINE
  5
7A
330
70
100
AcDbEntity
  8
Layer 1
100
AcDbSpline
210
0.0
220
0.0
230
1.0
 70
     9
 71
     3
 72
    53
 73
    49
 74
     0
 42
0.0000000001
 43
0.0000000001
 40
0.0
 40
0.0
 40
0.0
 40
0.0
 40
1.0
 40
1.0
 40
1.0
 40
2.0
 40
2.0
 40
2.0
 40
3.0
 40
3.0
 40
3.0
 40
4.0
 40
4.0
 40
4.0
 40
5.0
 40
5.0
 40
5.0
 40
6.0
 40
6.0
 40
6.0
 40
7.0
 40
7.0
 40
7.0
 40
8.0
 40
8.0
 40
8.0
 40
9.0
 40
9.0
 40
9.0
 40
10.0
 40
10.0
 40
10.0
 40
11.0
 40
11.0
 40
11.0
 40
12.0
 40
12.0
 40
12.0
 40
13.0
 40
13.0
 40
13.0
 40
14.0
 40
14.0
 40
14.0
 40
15.0
 40
15.0
 40
15.0
 40
16.0
 40
16.0
 40
16.0
 40
16.0
 10
398.6261301453305
 20
-1851.776191905053
 30
0.0
 10
398.6261301453305
 20
-1773.932006749226
 30
0.0
 10
398.6470352362703
 20
-1696.080853229749
 30
0.0
 10
398.6330985089771
 20
-1618.236583093876
 30
0.0
 10
398.6330985089771
 20
-1607.926464178596
 30
0.0
 10
394.6788920597464
 20
-1599.315096352271
 30
0.0
 10
387.1395474944074
 20
-1592.318689291052
 30
0.0
 10
379.9552495548669
 20
-1585.649455401046
 30
0.0
 10
371.3159232939106
 20
-1582.976238142153
 30
0.0
 10
361.6672040647391
 20
-1582.997143233089
 30
0.0
 10
341.596957081987
 20
-1583.03190007128
 30
0.0
 10
321.5267950792804
 20
-1583.03190007128
 30
0.0
 10
301.4566330765738
 20
-1583.03190007128
 30
0.0
 10
242.4016207331115
 20
-1583.024931707634
 30
0.0
 10
183.3466933696909
 20
-1583.011079960386
 30
0.0
 10
124.291766006274
 20
-1583.004111596736
 30
0.0
 10
112.951349031835
 20
-1583.004111596736
 30
0.0
 10
103.5741410447481
 20
-1587.34115314631
 30
0.0
 10
96.14612033766753
 20
-1595.896859043507
 30
0.0
 10
89.873828235377
 20
-1603.116083781326
 30
0.0
 10
87.79224204608544
 20
-1611.630064476688
 30
0.0
 10
87.80617877337864
 20
-1621.021209191069
 30
0.0
 10
87.88971415709239
 20
-1680.542592018584
 30
0.0
 10
87.84790397521282
 20
-1740.057006482449
 30
0.0
 10
87.84790397521282
 20
-1799.571420946318
 30
0.0
 10
87.84790397521282
 20
-1849.228277721733
 30
0.0
 10
87.83396724792329
 20
-1898.885134497144
 30
0.0
 10
87.85487233885943
 20
-1948.541948782535
 30
0.0
 10
87.85487233885943
 20
-1960.251306620037
 30
0.0
 10
87.79224204608544
 20
-1971.967632821186
 30
0.0
 10
88.02891146993715
 20
-1983.676990658689
 30
0.0
 10
88.19598223736466
 20
-1991.891629147405
 30
0.0
 10
91.55150427330591
 20
-1998.929761410454
 30
0.0
 10
97.06500955852243
 20
-2004.979363306211
 30
0.0
 10
105.1404932244186
 20
-2013.834496390096
 30
0.0
 10
115.3391183213571
 20
-2016.883665365727
 30
0.0
 10
127.0833604671134
 20
-2016.862760274788
 30
0.0
 10
200.0544499528551
 20
-2016.744425562862
 30
0.0
 10
273.0325078022397
 20
-2016.834929310222
 30
0.0
 10
346.0036822680231
 20
-2016.765288163781
 30
0.0
 10
353.9955455701638
 20
-2016.751393926508
 30
0.0
 10
362.0570925087668
 20
-2017.600684490943
 30
0.0
 10
369.9792721744416
 20
-2016.131804422279
 30
0.0
 10
387.0211702924607
 20
-2012.95733237108
 30
0.0
 10
398.6261301453305
 20
-1998.505116128239
 30
0.0
 10
398.6400668726237
 20
-1980.558223026637
 30
0.0
 10
398.6748237108113
 20
-1937.633187943986
 30
0.0
 10
398.6261301453305
 20
-1894.708195351355
 30
0.0
 10
398.6261301453305
 20
-1851.776191905053
 30
0.0
  0
HATCH
  5
7B
330
70
100
AcDbEntity
  8
Layer 1
 62
    18
420
        0
440
 33554687
100
AcDbHatch
 10
0.0
 20
0.0
 30
0.0
210
0.0
220
0.0
230
1.0
  2
SOLID
 70
     1
 71
     1
 91
        2
 92
        1
 93
        1
 72
     4
 94
        3
 73
     0
 74
     0
 95
       53
 96
       49
 40
0.0
 40
0.0
 40
0.0
 40
0.0
 40
1.0
 40
1.0
 40
1.0
 40
2.0
 40
2.0
 40
2.0
 40
3.0
 40
3.0
 40
3.0
 40
4.0
 40
4.0
 40
4.0
 40
5.0
 40
5.0
 40
5.0
 40
6.0
 40
6.0
 40
6.0
 40
7.0
 40
7.0
 40
7.0
 40
8.0
 40
8.0
 40
8.0
 40
9.0
 40
9.0
 40
9.0
 40
10.0
 40
10.0
 40
10.0
 40
11.0
 40
11.0
 40
11.0
 40
12.0
 40
12.0
 40
12.0
 40
13.0
 40
13.0
 40
13.0
 40
14.0
 40
14.0
 40
14.0
 40
15.0
 40
15.0
 40
15.0
 40
16.0
 40
16.0
 40
16.0
 40
16.0
 10
396.1965506739361
 20
-1799.933435935763
 10
396.1965506739361
 20
-1799.933435935763
 10
396.1478571084481
 20
-1799.933435935763
 10
396.1478571084481
 20
-1799.933435935763
 10
396.1478571084481
 20
-1859.329515687706
 10
396.1408887448051
 20
-1918.72559543965
 10
396.1548254720983
 20
-1978.128601065218
 10
396.1548254720983
 20
-1983.140936538169
 10
395.8624091390775
 20
-1988.090641718351
 10
394.0942293537883
 20
-1992.859296913786
 10
389.2906473600742
 20
-2005.814759633373
 10
376.8643553774018
 20
-2014.259141672315
 10
362.4329592454596
 20
-2014.259141672315
 10
285.166553411982
 20
-2014.252173308669
 10
207.9001475785044
 20
-2014.238279071396
 10
130.6407101086697
 20
-2014.224342344103
 10
128.085785071682
 20
-2014.224342344103
 10
125.530945014736
 20
-2014.286972636877
 10
122.9829883413877
 20
-2014.196511379541
 10
104.799383325917
 20
-2013.549048420722
 10
91.11989062744397
 20
-1999.918334267775
 10
90.39594562860292
 20
-1981.75559185322
 10
90.36110381036996
 20
-1980.829691778697
 10
90.37504053766316
 20
-1979.903834194196
 10
90.37504053766316
 20
-1978.970965756027
 10
90.37504053766316
 20
-1859.594058566141
 10
90.39594562860292
 20
-1740.217108886234
 10
90.34019871943019
 20
-1620.840201696348
 10
90.34019871943019
 20
-1611.107947083463
 10
92.95775404919913
 20
-1602.566092933513
 10
99.96112947406073
 20
-1595.576654235945
 10
106.9226947170464
 20
-1588.642962447546
 10
115.3252665741092
 20
-1585.566004997374
 10
125.0992463888251
 20
-1585.57297336102
 10
182.058820795748
 20
-1585.628550310106
 10
239.0253635663139
 20
-1585.600761835565
 10
295.9847680131497
 20
-1585.600761835565
 10
318.2617767906995
 20
-1585.600761835565
 10
340.5387855682493
 20
-1585.510258088205
 10
362.8089109621978
 20
-1585.635518673753
 10
379.3564801615321
 20
-1585.726107401158
 10
392.4512251740052
 20
-1596.544406982368
 10
395.5630244424065
 20
-1612.374999546511
 10
396.398463259593
 20
-1616.614484005033
 10
396.1826989266847
 20
-1620.923737080062
 10
396.1895823102859
 20
-1625.212085064151
 10
396.1965506739361
 20
-1683.452478701325
 10
396.1965506739361
 20
-1741.693042298589
 10
396.1965506739361
 20
-1799.933435935763
 97
        0
 97
        1
330
79
 92
        1
 93
        1
 72
     4
 94
        3
 73
     0
 74
     0
 95
       53
 96
       49
 40
0.0
 40
0.0
 40
0.0
 40
0.0
 40
1.0
 40
1.0
 40
1.0
 40
2.0
 40
2.0
 40
2.0
 40
3.0
 40
3.0
 40
3.0
 40
4.0
 40
4.0
 40
4.0
 40
5.0
 40
5.0
 40
5.0
 40
6.0
 40
6.0
 40
6.0
 40
7.0
 40
7.0
 40
7.0
 40
8.0
 40
8.0
 40
8.0
 40
9.0
 40
9.0
 40
9.0
 40
10.0
 40
10.0
 40
10.0
 40
11.0
 40
11.0
 40
11.0
 40
12.0
 40
12.0
 40
12.0
 40
13.0
 40
13.0
 40
13.0
 40
14.0
 40
14.0
 40
14.0
 40
15.0
 40
15.0
 40
15.0
 40
16.0
 40
16.0
 40
16.0
 40
16.0
 10
398.6261301453305
 20
-1851.776191905053
 10
398.6261301453305
 20
-1773.932006749226
 10
398.6470352362703
 20
-1696.080853229749
 10
398.6330985089771
 20
-1618.236583093876
 10
398.6330985089771
 20
-1607.926464178596
 10
394.6788920597464
 20
-1599.315096352271
 10
387.1395474944074
 20
-1592.318689291052
 10
379.9552495548669
 20
-1585.649455401046
 10
371.3159232939106
 20
-1582.976238142153
 10
361.6672040647391
 20
-1582.997143233089
 10
341.596957081987
 20
-1583.03190007128
 10
321.5267950792804
 20
-1583.03190007128
 10
301.4566330765738
 20
-1583.03190007128
 10
242.4016207331115
 20
-1583.024931707634
 10
183.3466933696909
 20
-1583.011079960386
 10
124.291766006274
 20
-1583.004111596736
 10
112.951349031835
 20
-1583.004111596736
 10
103.5741410447481
 20
-1587.34115314631
 10
96.14612033766753
 20
-1595.896859043507
 10
89.873828235377
 20
-1603.116083781326
 10
87.79224204608544
 20
-1611.630064476688
 10
87.80617877337864
 20
-1621.021209191069
 10
87.88971415709239
 20
-1680.542592018584
 10
87.84790397521282
 20
-1740.057006482449
 10
87.84790397521282
 20
-1799.571420946318
 10
87.84790397521282
 20
-1849.228277721733
 10
87.83396724792329
 20
-1898.885134497144
 10
87.85487233885943
 20
-1948.541948782535
 10
87.85487233885943
 20
-1960.251306620037
 10
87.79224204608544
 20
-1971.967632821186
 10
88.02891146993715
 20
-1983.676990658689
 10
88.19598223736466
 20
-1991.891629147405
 10
91.55150427330591
 20
-1998.929761410454
 10
97.06500955852243
 20
-2004.979363306211
 10
105.1404932244186
 20
-2013.834496390096
 10
115.3391183213571
 20
-2016.883665365727
 10
127.0833604671134
 20
-2016.862760274788
 10
200.0544499528551
 20
-2016.744425562862
 10
273.0325078022397
 20
-2016.834929310222
 10
346.0036822680231
 20
-2016.765288163781
 10
353.9955455701638
 20
-2016.751393926508
 10
362.0570925087668
 20
-2017.600684490943
 10
369.9792721744416
 20
-2016.131804422279
 10
387.0211702924607
 20
-2012.95733237108
 10
398.6261301453305
 20
-1998.505116128239
 10
398.6400668726237
 20
-1980.558223026637
 10
398.6748237108113
 20
-1937.633187943986
 10
398.6261301453305
 20
-1894.708195351355
 10
398.6261301453305
 20
-1851.776191905053
 97
        0
 97
        1
330
7A
 75
     2
 76
     1
 98
        1
 10
0.0
 20
0.0
450
        0
451
        0
460
0.0
461
0.0
452
        0
462
0.0
453
        0
470

  0
SPLINE
  5
7C
330
70
100
AcDbEntity
  8
Layer 1
100
AcDbSpline
210
0.0
220
0.0
230
1.0
 70
     9
 71
     3
 72
    53
 73
    49
 74
     0
 42
0.0000000001
 43
0.0000000001
 40
0.0
 40
0.0
 40
0.0
 40
0.0
 40
1.0
 40
1.0
 40
1.0
 40
2.0
 40
2.0
 40
2.0
 40
3.0
 40
3.0
 40
3.0
 40
4.0
 40
4.0
 40
4.0
 40
5.0
 40
5.0
 40
5.0
 40
6.0
 40
6.0
 40
6.0
 40
7.0
 40
7.0
 40
7.0
 40
8.0
 40
8.0
 40
8.0
 40
9.0
 40
9.0
 40
9.0
 40
10.0
 40
10.0
 40
10.0
 40
11.0
 40
11.0
 40
11.0
 40
12.0
 40
12.0
 40
12.0
 40
13.0
 40
13.0
 40
13.0
 40
14.0
 40
14.0
 40
14.0
 40
15.0
 40
15.0
 40
15.0
 40
16.0
 40
16.0
 40
16.0
 40
16.0
 10
396.1965506739361
 20
-1799.933435935763
 30
0.0
 10
396.1965506739361
 20
-1799.933435935763
 30
0.0
 10
396.1478571084481
 20
-1799.933435935763
 30
0.0
 10
396.1478571084481
 20
-1799.933435935763
 30
0.0
 10
396.1478571084481
 20
-1859.329515687706
 30
0.0
 10
396.1408887448051
 20
-1918.72559543965
 30
0.0
 10
396.1548254720983
 20
-1978.128601065218
 30
0.0
 10
396.1548254720983
 20
-1983.140936538169
 30
0.0
 10
395.8624091390775
 20
-1988.090641718351
 30
0.0
 10
394.0942293537883
 20
-1992.859296913786
 30
0.0
 10
389.2906473600742
 20
-2005.814759633373
 30
0.0
 10
376.8643553774018
 20
-2014.259141672315
 30
0.0
 10
362.4329592454596
 20
-2014.259141672315
 30
0.0
 10
285.166553411982
 20
-2014.252173308669
 30
0.0
 10
207.9001475785044
 20
-2014.238279071396
 30
0.0
 10
130.6407101086697
 20
-2014.224342344103
 30
0.0
 10
128.085785071682
 20
-2014.224342344103
 30
0.0
 10
125.530945014736
 20
-2014.286972636877
 30
0.0
 10
122.9829883413877
 20
-2014.196511379541
 30
0.0
 10
104.799383325917
 20
-2013.549048420722
 30
0.0
 10
91.11989062744397
 20
-1999.918334267775
 30
0.0
 10
90.39594562860292
 20
-1981.75559185322
 30
0.0
 10
90.36110381036996
 20
-1980.829691778697
 30
0.0
 10
90.37504053766316
 20
-1979.903834194196
 30
0.0
 10
90.37504053766316
 20
-1978.970965756027
 30
0.0
 10
90.37504053766316
 20
-1859.594058566141
 30
0.0
 10
90.39594562860292
 20
-1740.217108886234
 30
0.0
 10
90.34019871943019
 20
-1620.840201696348
 30
0.0
 10
90.34019871943019
 20
-1611.107947083463
 30
0.0
 10
92.95775404919913
 20
-1602.566092933513
 30
0.0
 10
99.96112947406073
 20
-1595.576654235945
 30
0.0
 10
106.9226947170464
 20
-1588.642962447546
 30
0.0
 10
115.3252665741092
 20
-1585.566004997374
 30
0.0
 10
125.0992463888251
 20
-1585.57297336102
 30
0.0
 10
182.058820795748
 20
-1585.628550310106
 30
0.0
 10
239.0253635663139
 20
-1585.600761835565
 30
0.0
 10
295.9847680131497
 20
-1585.600761835565
 30
0.0
 10
318.2617767906995
 20
-1585.600761835565
 30
0.0
 10
340.5387855682493
 20
-1585.510258088205
 30
0.0
 10
362.8089109621978
 20
-1585.635518673753
 30
0.0
 10
379.3564801615321
 20
-1585.726107401158
 30
0.0
 10
392.4512251740052
 20
-1596.544406982368
 30
0.0
 10
395.5630244424065
 20
-1612.374999546511
 30
0.0
 10
396.398463259593
 20
-1616.614484005033
 30
0.0
 10
396.1826989266847
 20
-1620.923737080062
 30
0.0
 10
396.1895823102859
 20
-1625.212085064151
 30
0.0
 10
396.1965506739361
 20
-1683.452478701325
 30
0.0
 10
396.1965506739361
 20
-1741.693042298589
 30
0.0
 10
396.1965506739361
 20
-1799.933435935763
 30
0.0
  0
LWPOLYLINE
  5
7D
330
70
100
AcDbEntity
  8
Layer 1
100
AcDbPolyline
 90
        8
 70
     1
 43
0.0
 10
119.4166484104862
 20
-1606.816845867692
 10
119.4166484104862
 20
-1613.912372186569
 10
145.2455323516697
 20
-1613.912372186569
 10
145.2455323516697
 20
-1614.107062266525
 10
122.3407079923418
 20
-1669.997021648942
 10
129.7319778136298
 20
-1669.997021648942
 10
152.7179230396068
 20
-1612.454514325923
 10
152.7179230396068
 20
-1606.816845867692
  0
HATCH
  5
7E
330
70
100
AcDbEntity
  8
Layer 1
 62
   246
420
  8590872
440
 33554687
100
AcDbHatch
 10
0.0
 20
0.0
 30
0.0
210
0.0
220
0.0
230
1.0
  2
SOLID
 70
     1
 71
     1
 91
        1
 92
        1
 93
        8
 72
     1
 10
119.4166484104862
 20
-1606.816845867692
 11
119.4166484104862
 21
-1613.912372186569
 72
     1
 10
119.4166484104862
 20
-1613.912372186569
 11
145.2455323516697
 21
-1613.912372186569
 72
     1
 10
145.2455323516697
 20
-1613.912372186569
 11
145.2455323516697
 21
-1614.107062266525
 72
     1
 10
145.2455323516697
 20
-1614.107062266525
 11
122.3407079923418
 21
-1669.997021648942
 72
     1
 10
122.3407079923418
 20
-1669.997021648942
 11
129.7319778136298
 21
-1669.997021648942
 72
     1
 10
129.7319778136298
 20
-1669.997021648942
 11
152.7179230396068
 21
-1612.454514325923
 72
     1
 10
152.7179230396068
 20
-1612.454514325923
 11
152.7179230396068
 21
-1606.816845867692
 72
     1
 10
152.7179230396068
 20
-1606.816845867692
 11
119.4166484104862
 21
-1606.816845867692
 97
        1
330
7D
 75
     2
 76
     1
 98
        1
 10
0.0
 20
0.0
450
        0
451
        0
460
0.0
461
0.0
452
        0
462
0.0
453
        0
470

  0
SPLINE
  5
7F
330
70
100
AcDbEntity
  8
Layer 1
100
AcDbSpline
210
0.0
220
0.0
230
1.0
 70
     9
 71
     3
 72
    17
 73
    13
 74
     0
 42
0.0000000001
 43
0.0000000001
 40
0.0
 40
0.0
 40
0.0
 40
0.0
 40
1.0
 40
1.0
 40
1.0
 40
2.0
 40
2.0
 40
2.0
 40
3.0
 40
3.0
 40
3.0
 40
4.0
 40
4.0
 40
4.0
 40
4.0
 10
206.916817832498
 20
-1887.332652411122
 30
0.0
 10
207.1546291391533
 20
-1890.093100664868
 30
0.0
 10
206.5482608694765
 20
-1893.138197760436
 30
0.0
 10
211.0590492170777
 20
-1892.844970183312
 30
0.0
 10
217.8248988700689
 20
-1892.405128817634
 30
0.0
 10
219.7299090107845
 20
-1890.454519917872
 30
0.0
 10
219.5751631204912
 20
-1883.87122541499
 30
0.0
 10
219.5162664790223
 20
-1881.365476272949
 30
0.0
 10
218.0492774615268
 20
-1880.834723908818
 30
0.0
 10
216.4108401437552
 20
-1881.501809062425
 30
0.0
 10
212.9604610081151
 20
-1882.906682305951
 30
0.0
 10
206.6220818137117
 20
-1879.936720774174
 30
0.0
 10
206.916817832498
 20
-1887.332652411122
 30
0.0
  0
SPLINE
  5
80
330
70
100
AcDbEntity
  8
Layer 1
100
AcDbSpline
210
0.0
220
0.0
230
1.0
 70
     9
 71
     3
 72
    17
 73
    13
 74
     0
 42
0.0000000001
 43
0.0000000001
 40
0.0
 40
0.0
 40
0.0
 40
0.0
 40
1.0
 40
1.0
 40
1.0
 40
2.0
 40
2.0
 40
2.0
 40
3.0
 40
3.0
 40
3.0
 40
4.0
 40
4.0
 40
4.0
 40
4.0
 10
218.1508908114811
 20
-1906.189369910924
 30
0.0
 10
218.2921534242887
 20
-1901.584291318453
 30
0.0
 10
218.0465470978379
 20
-1900.824761443586
 30
0.0
 10
215.2196599942799
 20
-1901.215945031639
 30
0.0
 10
211.8271325460991
 20
-1901.685399045498
 30
0.0
 10
206.5982248396103
 20
-1900.343796081571
 30
0.0
 10
207.0035574419744
 20
-1906.519120315934
 30
0.0
 10
207.1780647608321
 20
-1909.177769824662
 30
0.0
 10
205.3898113760988
 20
-1913.379546733438
 30
0.0
 10
210.311730135385
 20
-1913.798842955049
 30
0.0
 10
216.2139000219795
 20
-1914.301668080687
 30
0.0
 10
217.9595546769087
 20
-1912.426599243037
 30
0.0
 10
218.1508908114811
 20
-1906.189369910924
 30
0.0
  0
SPLINE
  5
81
330
70
100
AcDbEntity
  8
Layer 1
100
AcDbSpline
210
0.0
220
0.0
230
1.0
 70
     9
 71
     3
 72
    23
 73
    19
 74
     0
 42
0.0000000001
 43
0.0000000001
 40
0.0
 40
0.0
 40
0.0
 40
0.0
 40
1.0
 40
1.0
 40
1.0
 40
2.0
 40
2.0
 40
2.0
 40
3.0
 40
3.0
 40
3.0
 40
4.0
 40
4.0
 40
4.0
 40
5.0
 40
5.0
 40
5.0
 40
6.0
 40
6.0
 40
6.0
 40
6.0
 10
219.4119059112818
 20
-1956.116850924216
 30
0.0
 10
219.1449707252614
 20
-1950.699640820588
 30
0.0
 10
216.9116849130114
 20
-1949.087546456201
 30
0.0
 10
212.127809634032
 20
-1950.519470525185
 30
0.0
 10
209.1576795612855
 20
-1951.40845671801
 30
0.0
 10
206.1900691760202
 20
-1952.310487981806
 30
0.0
 10
203.2483129753309
 20
-1953.287890766744
 30
0.0
 10
201.6101200419653
 20
-1953.832210678844
 30
0.0
 10
199.1675147737987
 20
-1953.905660832948
 30
0.0
 10
199.6484969899065
 20
-1956.477393764184
 30
0.0
 10
200.0733466364327
 20
-1958.749090063171
 30
0.0
 10
200.7663870992001
 20
-1961.179282289002
 30
0.0
 10
202.8791239836755
 20
-1962.57995886241
 30
0.0
 10
204.3616946137154
 20
-1963.562856082925
 30
0.0
 10
218.2577626396524
 20
-1958.926159204751
 30
0.0
 10
219.1545775604682
 20
-1957.274086922622
 30
0.0
 10
219.3943776505512
 20
-1956.83237475219
 30
0.0
 10
219.3839365375497
 20
-1956.25481856109
 30
0.0
 10
219.4119059112818
 20
-1956.116850924216
 30
0.0
  0
SPLINE
  5
82
330
70
100
AcDbEntity
  8
Layer 1
100
AcDbSpline
210
0.0
220
0.0
230
1.0
 70
     9
 71
     3
 72
    23
 73
    19
 74
     0
 42
0.0000000001
 43
0.0000000001
 40
0.0
 40
0.0
 40
0.0
 40
0.0
 40
1.0
 40
1.0
 40
1.0
 40
2.0
 40
2.0
 40
2.0
 40
3.0
 40
3.0
 40
3.0
 40
4.0
 40
4.0
 40
4.0
 40
5.0
 40
5.0
 40
5.0
 40
6.0
 40
6.0
 40
6.0
 40
6.0
 10
231.366533666147
 20
-1948.162391371519
 30
0.0
 10
231.189565649147
 20
-1952.678210667036
 30
0.0
 10
233.4347335996826
 20
-1954.239944990011
 30
0.0
 10
237.568099729313
 20
-1952.832493069665
 30
0.0
 10
241.7159013929049
 20
-1951.420153461229
 30
0.0
 10
245.8518883345969
 20
-1949.89350936791
 30
0.0
 10
249.808724653747
 20
-1948.026311393496
 30
0.0
 10
252.7260339869463
 20
-1946.649668762206
 30
0.0
 10
252.1733544428061
 20
-1943.608245859752
 30
0.0
 10
251.6125512239814
 20
-1941.214795565069
 30
0.0
 10
250.9366176695257
 20
-1938.329879806035
 30
0.0
 10
248.6899749855183
 20
-1939.967524981253
 30
0.0
 10
247.1193669805471
 20
-1940.369731148654
 30
0.0
 10
242.8698592694709
 20
-1941.45800018272
 30
0.0
 10
238.6748492805818
 20
-1942.758125214277
 30
0.0
 10
234.4292854281739
 20
-1943.863079804232
 30
0.0
 10
232.1226253052555
 20
-1944.463389026092
 30
0.0
 10
230.8745541518401
 20
-1945.649108448182
 30
0.0
 10
231.366533666147
 20
-1948.162391371519
 30
0.0
  0
SPLINE
  5
83
330
70
100
AcDbEntity
  8
Layer 1
100
AcDbSpline
210
0.0
220
0.0
230
1.0
 70
     9
 71
     3
 72
    23
 73
    19
 74
     0
 42
0.0000000001
 43
0.0000000001
 40
0.0
 40
0.0
 40
0.0
 40
0.0
 40
1.0
 40
1.0
 40
1.0
 40
2.0
 40
2.0
 40
2.0
 40
3.0
 40
3.0
 40
3.0
 40
4.0
 40
4.0
 40
4.0
 40
5.0
 40
5.0
 40
5.0
 40
6.0
 40
6.0
 40
6.0
 40
6.0
 10
252.410441023294
 20
-1878.661826325609
 30
0.0
 10
253.3056126696684
 20
-1873.738255864831
 30
0.0
 10
251.206165240561
 20
-1873.267234419964
 30
0.0
 10
247.7825251295835
 20
-1874.283131962125
 30
0.0
 10
244.6171740529426
 20
-1875.222410779974
 30
0.0
 10
241.4263732900435
 20
-1876.556614795379
 30
0.0
 10
238.1997912795196
 20
-1876.706751090183
 30
0.0
 10
231.8832802757897
 20
-1877.000602268887
 30
0.0
 10
230.5401772972436
 20
-1880.843353206412
 30
0.0
 10
229.9896635045516
 20
-1886.049263497742
 30
0.0
 10
229.6311768643973
 20
-1889.439245977293
 30
0.0
 10
230.9514004064622
 20
-1889.850435378317
 30
0.0
 10
233.7206802069595
 20
-1889.201468378833
 30
0.0
 10
237.2959987626054
 20
-1888.363600661774
 30
0.0
 10
240.8767443374345
 20
-1887.231173893946
 30
0.0
 10
244.5038892409175
 20
-1887.004115501084
 30
0.0
 10
250.4447561338966
 20
-1886.632179291642
 30
0.0
 10
253.2644633921918
 20
-1884.030243818837
 30
0.0
 10
252.410441023294
 20
-1878.661826325609
 30
0.0
  0
SPLINE
  5
84
330
70
100
AcDbEntity
  8
Layer 1
100
AcDbSpline
210
0.0
220
0.0
230
1.0
 70
     9
 71
     3
 72
    23
 73
    19
 74
     0
 42
0.0000000001
 43
0.0000000001
 40
0.0
 40
0.0
 40
0.0
 40
0.0
 40
1.0
 40
1.0
 40
1.0
 40
2.0
 40
2.0
 40
2.0
 40
3.0
 40
3.0
 40
3.0
 40
4.0
 40
4.0
 40
4.0
 40
5.0
 40
5.0
 40
5.0
 40
6.0
 40
6.0
 40
6.0
 40
6.0
 10
251.5406263656441
 20
-1900.059298926626
 30
0.0
 10
251.7776033945047
 20
-1892.811919299376
 30
0.0
 10
251.7907074548093
 20
-1892.861942258849
 30
0.0
 10
245.5305144157246
 20
-1894.501475092918
 30
0.0
 10
241.4387273430402
 20
-1895.573109133384
 30
0.0
 10
237.2706333468341
 20
-1896.359875228773
 30
0.0
 10
233.1958436308305
 20
-1897.487852515034
 30
0.0
 10
230.018307042159
 20
-1898.367434121814
 30
0.0
 10
228.3506447204345
 20
-1903.448303868561
 30
0.0
 10
229.6549917032571
 20
-1907.763593119671
 30
0.0
 10
230.7990393708715
 20
-1911.54850079678
 30
0.0
 10
233.5223243410474
 20
-1909.442648810869
 30
0.0
 10
235.5609537616474
 20
-1909.148426842035
 30
0.0
 10
238.8305895625927
 20
-1908.676562692322
 30
0.0
 10
242.0202779550964
 20
-1907.655828024366
 30
0.0
 10
245.2887761045058
 20
-1907.16984014149
 30
0.0
 10
249.8534301456639
 20
-1906.491125661054
 30
0.0
 10
252.4349468801265
 20
-1904.435903382098
 30
0.0
 10
251.5406263656441
 20
-1900.059298926626
 30
0.0
  0
SPLINE
  5
85
330
70
100
AcDbEntity
  8
Layer 1
100
AcDbSpline
210
0.0
220
0.0
230
1.0
 70
     9
 71
     3
 72
    26
 73
    22
 74
     0
 42
0.0000000001
 43
0.0000000001
 40
0.0
 40
0.0
 40
0.0
 40
0.0
 40
1.0
 40
1.0
 40
1.0
 40
2.0
 40
2.0
 40
2.0
 40
3.0
 40
3.0
 40
3.0
 40
4.0
 40
4.0
 40
4.0
 40
5.0
 40
5.0
 40
5.0
 40
6.0
 40
6.0
 40
6.0
 40
7.0
 40
7.0
 40
7.0
 40
7.0
 10
231.2091922449399
 20
-1928.28413020711
 30
0.0
 10
231.8477097043724
 20
-1929.34396637978
 30
0.0
 10
228.7796151936418
 20
-1933.885151091064
 30
0.0
 10
233.1564977417147
 20
-1933.693890799928
 30
0.0
 10
239.1290166285944
 20
-1933.432955672386
 30
0.0
 10
244.9957929117882
 20
-1931.430739528048
 30
0.0
 10
250.5453750921333
 20
-1928.961917712222
 30
0.0
 10
251.2361571059191
 20
-1928.654633818322
 30
0.0
 10
251.9577399817135
 20
-1927.594763937461
 30
0.0
 10
252.0182461894292
 20
-1926.832284595642
 30
0.0
 10
252.3061984342348
 20
-1923.203530125913
 30
0.0
 10
253.3850797363484
 20
-1918.922303004554
 30
0.0
 10
251.1353274714711
 20
-1916.183090912847
 30
0.0
 10
249.2537023901459
 20
-1913.892130381155
 30
0.0
 10
245.7323675067346
 20
-1916.563909231336
 30
0.0
 10
242.9451380930841
 20
-1917.033548640258
 30
0.0
 10
241.1469997805398
 20
-1917.336534739461
 30
0.0
 10
239.424865017776
 20
-1918.233341233226
 30
0.0
 10
237.6290188624043
 20
-1918.380696602049
 30
0.0
 10
232.0278715727254
 20
-1918.840307823342
 30
0.0
 10
229.8071757708276
 20
-1921.721549389265
 30
0.0
 10
231.2091922449399
 20
-1928.28413020711
 30
0.0
  0
SPLINE
  5
86
330
70
100
AcDbEntity
  8
Layer 1
100
AcDbSpline
210
0.0
220
0.0
230
1.0
 70
     9
 71
     3
 72
    47
 73
    43
 74
     0
 42
0.0000000001
 43
0.0000000001
 40
0.0
 40
0.0
 40
0.0
 40
0.0
 40
1.0
 40
1.0
 40
1.0
 40
2.0
 40
2.0
 40
2.0
 40
3.0
 40
3.0
 40
3.0
 40
4.0
 40
4.0
 40
4.0
 40
5.0
 40
5.0
 40
5.0
 40
6.0
 40
6.0
 40
6.0
 40
7.0
 40
7.0
 40
7.0
 40
8.0
 40
8.0
 40
8.0
 40
9.0
 40
9.0
 40
9.0
 40
10.0
 40
10.0
 40
10.0
 40
11.0
 40
11.0
 40
11.0
 40
12.0
 40
12.0
 40
12.0
 40
13.0
 40
13.0
 40
13.0
 40
14.0
 40
14.0
 40
14.0
 40
14.0
 10
262.9481532824284
 20
-1972.613573511597
 30
0.0
 10
267.3770644274991
 20
-1972.708226119546
 30
0.0
 10
271.2257732882644
 20
-1971.254425432842
 30
0.0
 10
274.6904025627991
 20
-1968.532960705128
 30
0.0
 10
278.5918226114809
 20
-1965.468312857207
 30
0.0
 10
282.5153720893395
 20
-1962.53222806011
 30
0.0
 10
287.815665323069
 20
-1962.124830830878
 30
0.0
 10
292.3863615579503
 20
-1961.773557744185
 30
0.0
 10
296.9870075229483
 20
-1961.235709805278
 30
0.0
 10
301.45034316085
 20
-1960.229823596652
 30
0.0
 10
305.7323455706646
 20
-1959.264791718804
 30
0.0
 10
308.5108445621445
 20
-1956.27561651661
 30
0.0
 10
309.088232212278
 20
-1951.798999850387
 30
0.0
 10
309.6261644216647
 20
-1947.628285042119
 30
0.0
 10
306.1923107279945
 20
-1946.160596579604
 30
0.0
 10
303.4033959046537
 20
-1944.50919846135
 30
0.0
 10
297.2501168289855
 20
-1940.865713510964
 30
0.0
 10
290.2095706783693
 20
-1940.190336141706
 30
0.0
 10
283.3970267500335
 20
-1938.684759669457
 30
0.0
 10
278.6182835435466
 20
-1937.628715668583
 30
0.0
 10
276.8557495106143
 20
-1938.711254309717
 30
0.0
 10
277.9983224447533
 20
-1943.804292714394
 30
0.0
 10
278.843656526722
 20
-1947.57239685694
 30
0.0
 10
279.5338149389245
 20
-1951.780089553711
 30
0.0
 10
276.2893338775393
 20
-1954.744590358106
 30
0.0
 10
271.7033172686133
 20
-1958.934822210536
 30
0.0
 10
266.0227113393012
 20
-1961.084562264663
 30
0.0
 10
259.8580051859644
 20
-1961.913143374353
 30
0.0
 10
257.9560624908772
 20
-1962.168752607289
 30
0.0
 10
256.4714862233123
 20
-1961.571409706481
 30
0.0
 10
256.0058917976348
 20
-1959.671986698875
 30
0.0
 10
254.8034446844103
 20
-1954.766534392216
 30
0.0
 10
252.018499000882
 20
-1955.265247118219
 30
0.0
 10
248.6599662660629
 20
-1957.334256048401
 30
0.0
 10
246.6259295868586
 20
-1958.587290733343
 30
0.0
 10
244.5729994650792
 20
-1959.809650962001
 30
0.0
 10
242.538625703939
 20
-1961.062213732231
 30
0.0
 10
240.4824427414642
 20
-1962.328158655364
 30
0.0
 10
240.7242568961228
 20
-1963.604317161193
 30
0.0
 10
242.6252810429287
 20
-1964.742912528476
 30
0.0
 10
248.9474465961539
 20
-1968.529353928399
 30
0.0
 10
255.2924831588171
 20
-1972.274806164769
 30
0.0
 10
262.9481532824284
 20
-1972.613573511597
 30
0.0
  0
SPLINE
  5
87
330
70
100
AcDbEntity
  8
Layer 1
100
AcDbSpline
210
0.0
220
0.0
230
1.0
 70
     9
 71
     3
 72
   131
 73
   127
 74
     0
 42
0.0000000001
 43
0.0000000001
 40
0.0
 40
0.0
 40
0.0
 40
0.0
 40
1.0
 40
1.0
 40
1.0
 40
2.0
 40
2.0
 40
2.0
 40
3.0
 40
3.0
 40
3.0
 40
4.0
 40
4.0
 40
4.0
 40
5.0
 40
5.0
 40
5.0
 40
6.0
 40
6.0
 40
6.0
 40
7.0
 40
7.0
 40
7.0
 40
8.0
 40
8.0
 40
8.0
 40
9.0
 40
9.0
 40
9.0
 40
10.0
 40
10.0
 40
10.0
 40
11.0
 40
11.0
 40
11.0
 40
12.0
 40
12.0
 40
12.0
 40
13.0
 40
13.0
 40
13.0
 40
14.0
 40
14.0
 40
14.0
 40
15.0
 40
15.0
 40
15.0
 40
16.0
 40
16.0
 40
16.0
 40
17.0
 40
17.0
 40
17.0
 40
18.0
 40
18.0
 40
18.0
 40
19.0
 40
19.0
 40
19.0
 40
20.0
 40
20.0
 40
20.0
 40
21.0
 40
21.0
 40
21.0
 40
22.0
 40
22.0
 40
22.0
 40
23.0
 40
23.0
 40
23.0
 40
24.0
 40
24.0
 40
24.0
 40
25.0
 40
25.0
 40
25.0
 40
26.0
 40
26.0
 40
26.0
 40
27.0
 40
27.0
 40
27.0
 40
28.0
 40
28.0
 40
28.0
 40
29.0
 40
29.0
 40
29.0
 40
30.0
 40
30.0
 40
30.0
 40
31.0
 40
31.0
 40
31.0
 40
32.0
 40
32.0
 40
32.0
 40
33.0
 40
33.0
 40
33.0
 40
34.0
 40
34.0
 40
34.0
 40
35.0
 40
35.0
 40
35.0
 40
36.0
 40
36.0
 40
36.0
 40
37.0
 40
37.0
 40
37.0
 40
38.0
 40
38.0
 40
38.0
 40
39.0
 40
39.0
 40
39.0
 40
40.0
 40
40.0
 40
40.0
 40
41.0
 40
41.0
 40
41.0
 40
42.0
 40
42.0
 40
42.0
 40
42.0
 10
194.8533842418474
 20
-1898.944417273622
 30
0.0
 10
195.2234791412083
 20
-1892.280442209085
 30
0.0
 10
195.5682634006152
 20
-1886.036858882453
 30
0.0
 10
195.9178510776255
 20
-1879.793562075469
 30
0.0
 10
196.0734775944802
 20
-1877.014270941436
 30
0.0
 10
196.8403811367243
 20
-1874.814895572064
 30
0.0
 10
200.1131728673063
 20
-1874.274334123565
 30
0.0
 10
221.3741947001654
 20
-1870.762563940123
 30
0.0
 10
241.888580042254
 20
-1864.024076913378
 30
0.0
 10
262.9599680043248
 20
-1859.706225839549
 30
0.0
 10
266.5161318788924
 20
-1858.977522107831
 30
0.0
 10
270.3114890960533
 20
-1858.854975969585
 30
0.0
 10
273.9379345545131
 20
-1859.155973285356
 30
0.0
 10
280.0823146670445
 20
-1859.665961402155
 30
0.0
 10
282.6472216890543
 20
-1863.536369912625
 30
0.0
 10
280.8546873637169
 20
-1869.504237068766
 30
0.0
 10
275.7225980166186
 20
-1886.590364277337
 30
0.0
 10
273.2980182050415
 20
-1903.940207539436
 30
0.0
 10
274.5961881613657
 20
-1921.810589582961
 30
0.0
 10
274.9011630439964
 20
-1926.008574319945
 30
0.0
 10
276.0177469607806
 20
-1927.765546500916
 30
0.0
 10
280.5795779407162
 20
-1928.208606999094
 30
0.0
 10
296.6999148370851
 20
-1929.774302034832
 30
0.0
 10
312.0654241516058
 20
-1933.853027182453
 30
0.0
 10
325.314160025453
 20
-1943.843394219104
 30
0.0
 10
333.210793171831
 20
-1949.797946638729
 30
0.0
 10
336.3940095911421
 20
-1957.249243983853
 30
0.0
 10
334.3196579122559
 20
-1965.264681658977
 30
0.0
 10
332.5184100188453
 20
-1972.224816913491
 30
0.0
 10
324.9660386548712
 20
-1977.744331385042
 30
0.0
 10
315.6229194998232
 20
-1978.329539336115
 30
0.0
 10
308.1735435217415
 20
-1978.796060737121
 30
0.0
 10
301.1350704250399
 20
-1980.535032742646
 30
0.0
 10
294.2380369091625
 20
-1983.280699953448
 30
0.0
 10
287.1718388231275
 20
-1986.093749843487
 30
0.0
 10
280.128966807144
 20
-1986.168447200758
 30
0.0
 10
272.7218946121757
 20
-1983.735288653879
 30
0.0
 10
259.4109839750199
 20
-1979.362830306232
 30
0.0
 10
246.3799103350357
 20
-1974.413860721488
 30
0.0
 10
233.9976014453714
 20
-1967.849560785762
 30
0.0
 10
231.8005013790753
 20
-1966.684774151967
 30
0.0
 10
229.6360814065847
 20
-1966.23803946067
 30
0.0
 10
227.8850671488545
 20
-1967.995483556351
 30
0.0
 10
222.3453024799273
 20
-1973.555582693134
 30
0.0
 10
216.0315049857927
 20
-1972.122411420987
 30
0.0
 10
209.9324286856135
 20
-1969.859175878621
 30
0.0
 10
204.535544622795
 20
-1967.856538381864
 30
0.0
 10
202.856885002875
 20
-1969.702702443399
 30
0.0
 10
203.0899013189737
 20
-1974.841786240693
 30
0.0
 10
203.1229016406178
 20
-1975.569613559371
 30
0.0
 10
203.0593027061295
 20
-1976.331283904539
 30
0.0
 10
202.8753908012222
 20
-1977.034066035288
 30
0.0
 10
202.2919946655602
 20
-1979.263424842968
 30
0.0
 10
202.527539096187
 20
-1982.102901956878
 30
0.0
 10
199.4622002302967
 20
-1982.744166634097
 30
0.0
 10
196.5760836168592
 20
-1983.34794779991
 30
0.0
 10
194.9677603566451
 20
-1981.195005467376
 30
0.0
 10
193.731356451779
 20
-1979.230390813128
 30
0.0
 10
190.3790260246023
 20
-1973.903552376847
 30
0.0
 10
188.5971561290498
 20
-1967.856066467149
 30
0.0
 10
186.6263560212537
 20
-1961.946076279615
 30
0.0
 10
185.4434133116192
 20
-1958.39869338951
 30
0.0
 10
183.5121192068545
 20
-1957.067826485283
 30
0.0
 10
179.7839508468132
 20
-1957.131804636952
 30
0.0
 10
172.9524587000887
 20
-1957.249008026498
 30
0.0
 10
166.2349297427863
 20
-1956.16744692298
 30
0.0
 10
159.7000675939853
 20
-1954.05370721974
 30
0.0
 10
157.2011548949813
 20
-1953.245418442664
 30
0.0
 10
154.9423688341885
 20
-1952.055552912745
 30
0.0
 10
153.0287209688358
 20
-1950.287457027851
 30
0.0
 10
150.8202570277317
 20
-1948.247032645937
 30
0.0
 10
149.9280538091698
 20
-1945.744671177363
 30
0.0
 10
150.9835184504627
 20
-1942.802923403724
 30
0.0
 10
152.0531468534063
 20
-1939.821703335248
 30
0.0
 10
154.7213821297227
 20
-1940.791622901182
 30
0.0
 10
156.6742347311265
 20
-1940.955646971794
 30
0.0
 10
162.8965123725684
 20
-1941.478123974368
 30
0.0
 10
169.0988874323811
 20
-1942.285435213824
 30
0.0
 10
175.2886345601255
 20
-1943.131376043278
 30
0.0
 10
179.7519069951668
 20
-1943.741393224925
 30
0.0
 10
180.7805630886469
 20
-1941.839442102791
 30
0.0
 10
179.945472084044
 20
-1937.769278836371
 30
0.0
 10
178.3200082073272
 20
-1929.846842067705
 30
0.0
 10
176.9018075867097
 20
-1921.881444206148
 30
0.0
 10
175.4438692192307
 20
-1913.925400368349
 30
0.0
 10
175.0147639132483
 20
-1911.583742713308
 30
0.0
 10
174.2535612692663
 20
-1908.802749315495
 30
0.0
 10
176.9041587332212
 20
-1907.488399426187
 30
0.0
 10
179.6509888767104
 20
-1906.126335588677
 30
0.0
 10
181.923477318247
 20
-1908.220625664144
 30
0.0
 10
183.6500362814367
 20
-1910.018620716866
 30
0.0
 10
187.4515199628076
 20
-1913.977310986669
 30
0.0
 10
189.2977472272068
 20
-1919.013096024322
 30
0.0
 10
190.3679528829671
 20
-1924.304928501431
 30
0.0
 10
191.245415087069
 20
-1928.643762925847
 30
0.0
 10
192.2338994406891
 20
-1932.935608128228
 30
0.0
 10
194.008374601246
 20
-1937.007136576492
 30
0.0
 10
194.5209835301066
 20
-1938.183316579765
 30
0.0
 10
194.83580963235
 20
-1939.666477103193
 30
0.0
 10
195.7352622193248
 20
-1940.416720370693
 30
0.0
 10
200.8393232033486
 20
-1944.674098944997
 30
0.0
 10
205.820627372912
 20
-1940.60855370112
 30
0.0
 10
210.8041478562118
 20
-1939.829253970638
 30
0.0
 10
213.7859662451265
 20
-1939.362968526988
 30
0.0
 10
217.2228115409926
 20
-1938.750018732488
 30
0.0
 10
217.0045762678383
 20
-1934.288166255112
 30
0.0
 10
216.9060472176134
 20
-1932.273629765972
 30
0.0
 10
217.3132506247275
 20
-1930.22214909652
 30
0.0
 10
217.1015968763968
 20
-1928.228798207128
 30
0.0
 10
216.8931201253217
 20
-1926.265447610145
 30
0.0
 10
218.6416736849133
 20
-1923.22104153255
 30
0.0
 10
215.4848507812785
 20
-1922.615558102956
 30
0.0
 10
212.7925352140774
 20
-1922.09916542935
 30
0.0
 10
209.996448972528
 20
-1923.075422135702
 30
0.0
 10
208.3639274427514
 20
-1925.785560910331
 30
0.0
 10
207.1316738592359
 20
-1927.831210062268
 30
0.0
 10
205.8740211517543
 20
-1929.863713018658
 30
0.0
 10
204.7126727537179
 20
-1931.949407504729
 30
0.0
 10
202.9088377564367
 20
-1935.188984023931
 30
0.0
 10
201.1720315023558
 20
-1934.456269017162
 30
0.0
 10
199.4882229558425
 20
-1931.903530653086
 30
0.0
 10
196.1252028177368
 20
-1926.804980958736
 30
0.0
 10
195.1422466078838
 20
-1920.998087281674
 30
0.0
 10
194.9013172933082
 20
-1915.081608266846
 30
0.0
 10
194.6768923530835
 20
-1909.57048713553
 30
0.0
 10
194.8533842418474
 20
-1904.043051238456
 30
0.0
 10
194.8533842418474
 20
-1898.944417273622
 30
0.0
  0
HATCH
  5
88
330
70
100
AcDbEntity
  8
Layer 1
 62
   246
420
  8590872
440
 33554687
100
AcDbHatch
 10
0.0
 20
0.0
 30
0.0
210
0.0
220
0.0
230
1.0
  2
SOLID
 70
     1
 71
     1
 91
        9
 92
        1
 93
        1
 72
     4
 94
        3
 73
     0
 74
     0
 95
       17
 96
       13
 40
0.0
 40
0.0
 40
0.0
 40
0.0
 40
1.0
 40
1.0
 40
1.0
 40
2.0
 40
2.0
 40
2.0
 40
3.0
 40
3.0
 40
3.0
 40
4.0
 40
4.0
 40
4.0
 40
4.0
 10
206.916817832498
 20
-1887.332652411122
 10
207.1546291391533
 20
-1890.093100664868
 10
206.5482608694765
 20
-1893.138197760436
 10
211.0590492170777
 20
-1892.844970183312
 10
217.8248988700689
 20
-1892.405128817634
 10
219.7299090107845
 20
-1890.454519917872
 10
219.5751631204912
 20
-1883.87122541499
 10
219.5162664790223
 20
-1881.365476272949
 10
218.0492774615268
 20
-1880.834723908818
 10
216.4108401437552
 20
-1881.501809062425
 10
212.9604610081151
 20
-1882.906682305951
 10
206.6220818137117
 20
-1879.936720774174
 10
206.916817832498
 20
-1887.332652411122
 97
        0
 97
        1
330
7F
 92
        1
 93
        1
 72
     4
 94
        3
 73
     0
 74
     0
 95
       17
 96
       13
 40
0.0
 40
0.0
 40
0.0
 40
0.0
 40
1.0
 40
1.0
 40
1.0
 40
2.0
 40
2.0
 40
2.0
 40
3.0
 40
3.0
 40
3.0
 40
4.0
 40
4.0
 40
4.0
 40
4.0
 10
218.1508908114811
 20
-1906.189369910924
 10
218.2921534242887
 20
-1901.584291318453
 10
218.0465470978379
 20
-1900.824761443586
 10
215.2196599942799
 20
-1901.215945031639
 10
211.8271325460991
 20
-1901.685399045498
 10
206.5982248396103
 20
-1900.343796081571
 10
207.0035574419744
 20
-1906.519120315934
 10
207.1780647608321
 20
-1909.177769824662
 10
205.3898113760988
 20
-1913.379546733438
 10
210.311730135385
 20
-1913.798842955049
 10
216.2139000219795
 20
-1914.301668080687
 10
217.9595546769087
 20
-1912.426599243037
 10
218.1508908114811
 20
-1906.189369910924
 97
        0
 97
        1
330
80
 92
        1
 93
        1
 72
     4
 94
        3
 73
     0
 74
     0
 95
       23
 96
       19
 40
0.0
 40
0.0
 40
0.0
 40
0.0
 40
1.0
 40
1.0
 40
1.0
 40
2.0
 40
2.0
 40
2.0
 40
3.0
 40
3.0
 40
3.0
 40
4.0
 40
4.0
 40
4.0
 40
5.0
 40
5.0
 40
5.0
 40
6.0
 40
6.0
 40
6.0
 40
6.0
 10
219.4119059112818
 20
-1956.116850924216
 10
219.1449707252614
 20
-1950.699640820588
 10
216.9116849130114
 20
-1949.087546456201
 10
212.127809634032
 20
-1950.519470525185
 10
209.1576795612855
 20
-1951.40845671801
 10
206.1900691760202
 20
-1952.310487981806
 10
203.2483129753309
 20
-1953.287890766744
 10
201.6101200419653
 20
-1953.832210678844
 10
199.1675147737987
 20
-1953.905660832948
 10
199.6484969899065
 20
-1956.477393764184
 10
200.0733466364327
 20
-1958.749090063171
 10
200.7663870992001
 20
-1961.179282289002
 10
202.8791239836755
 20
-1962.57995886241
 10
204.3616946137154
 20
-1963.562856082925
 10
218.2577626396524
 20
-1958.926159204751
 10
219.1545775604682
 20
-1957.274086922622
 10
219.3943776505512
 20
-1956.83237475219
 10
219.3839365375497
 20
-1956.25481856109
 10
219.4119059112818
 20
-1956.116850924216
 97
        0
 97
        1
330
81
 92
        1
 93
        1
 72
     4
 94
        3
 73
     0
 74
     0
 95
       23
 96
       19
 40
0.0
 40
0.0
 40
0.0
 40
0.0
 40
1.0
 40
1.0
 40
1.0
 40
2.0
 40
2.0
 40
2.0
 40
3.0
 40
3.0
 40
3.0
 40
4.0
 40
4.0
 40
4.0
 40
5.0
 40
5.0
 40
5.0
 40
6.0
 40
6.0
 40
6.0
 40
6.0
 10
231.366533666147
 20
-1948.162391371519
 10
231.189565649147
 20
-1952.678210667036
 10
233.4347335996826
 20
-1954.239944990011
 10
237.568099729313
 20
-1952.832493069665
 10
241.7159013929049
 20
-1951.420153461229
 10
245.8518883345969
 20
-1949.89350936791
 10
249.808724653747
 20
-1948.026311393496
 10
252.7260339869463
 20
-1946.649668762206
 10
252.1733544428061
 20
-1943.608245859752
 10
251.6125512239814
 20
-1941.214795565069
 10
250.9366176695257
 20
-1938.329879806035
 10
248.6899749855183
 20
-1939.967524981253
 10
247.1193669805471
 20
-1940.369731148654
 10
242.8698592694709
 20
-1941.45800018272
 10
238.6748492805818
 20
-1942.758125214277
 10
234.4292854281739
 20
-1943.863079804232
 10
232.1226253052555
 20
-1944.463389026092
 10
230.8745541518401
 20
-1945.649108448182
 10
231.366533666147
 20
-1948.162391371519
 97
        0
 97
        1
330
82
 92
        1
 93
        1
 72
     4
 94
        3
 73
     0
 74
     0
 95
       23
 96
       19
 40
0.0
 40
0.0
 40
0.0
 40
0.0
 40
1.0
 40
1.0
 40
1.0
 40
2.0
 40
2.0
 40
2.0
 40
3.0
 40
3.0
 40
3.0
 40
4.0
 40
4.0
 40
4.0
 40
5.0
 40
5.0
 40
5.0
 40
6.0
 40
6.0
 40
6.0
 40
6.0
 10
252.410441023294
 20
-1878.661826325609
 10
253.3056126696684
 20
-1873.738255864831
 10
251.206165240561
 20
-1873.267234419964
 10
247.7825251295835
 20
-1874.283131962125
 10
244.6171740529426
 20
-1875.222410779974
 10
241.4263732900435
 20
-1876.556614795379
 10
238.1997912795196
 20
-1876.706751090183
 10
231.8832802757897
 20
-1877.000602268887
 10
230.5401772972436
 20
-1880.843353206412
 10
229.9896635045516
 20
-1886.049263497742
 10
229.6311768643973
 20
-1889.439245977293
 10
230.9514004064622
 20
-1889.850435378317
 10
233.7206802069595
 20
-1889.201468378833
 10
237.2959987626054
 20
-1888.363600661774
 10
240.8767443374345
 20
-1887.231173893946
 10
244.5038892409175
 20
-1887.004115501084
 10
250.4447561338966
 20
-1886.632179291642
 10
253.2644633921918
 20
-1884.030243818837
 10
252.410441023294
 20
-1878.661826325609
 97
        0
 97
        1
330
83
 92
        1
 93
        1
 72
     4
 94
        3
 73
     0
 74
     0
 95
       23
 96
       19
 40
0.0
 40
0.0
 40
0.0
 40
0.0
 40
1.0
 40
1.0
 40
1.0
 40
2.0
 40
2.0
 40
2.0
 40
3.0
 40
3.0
 40
3.0
 40
4.0
 40
4.0
 40
4.0
 40
5.0
 40
5.0
 40
5.0
 40
6.0
 40
6.0
 40
6.0
 40
6.0
 10
251.5406263656441
 20
-1900.059298926626
 10
251.7776033945047
 20
-1892.811919299376
 10
251.7907074548093
 20
-1892.861942258849
 10
245.5305144157246
 20
-1894.501475092918
 10
241.4387273430402
 20
-1895.573109133384
 10
237.2706333468341
 20
-1896.359875228773
 10
233.1958436308305
 20
-1897.487852515034
 10
230.018307042159
 20
-1898.367434121814
 10
228.3506447204345
 20
-1903.448303868561
 10
229.6549917032571
 20
-1907.763593119671
 10
230.7990393708715
 20
-1911.54850079678
 10
233.5223243410474
 20
-1909.442648810869
 10
235.5609537616474
 20
-1909.148426842035
 10
238.8305895625927
 20
-1908.676562692322
 10
242.0202779550964
 20
-1907.655828024366
 10
245.2887761045058
 20
-1907.16984014149
 10
249.8534301456639
 20
-1906.491125661054
 10
252.4349468801265
 20
-1904.435903382098
 10
251.5406263656441
 20
-1900.059298926626
 97
        0
 97
        1
330
84
 92
        1
 93
        1
 72
     4
 94
        3
 73
     0
 74
     0
 95
       26
 96
       22
 40
0.0
 40
0.0
 40
0.0
 40
0.0
 40
1.0
 40
1.0
 40
1.0
 40
2.0
 40
2.0
 40
2.0
 40
3.0
 40
3.0
 40
3.0
 40
4.0
 40
4.0
 40
4.0
 40
5.0
 40
5.0
 40
5.0
 40
6.0
 40
6.0
 40
6.0
 40
7.0
 40
7.0
 40
7.0
 40
7.0
 10
231.2091922449399
 20
-1928.28413020711
 10
231.8477097043724
 20
-1929.34396637978
 10
228.7796151936418
 20
-1933.885151091064
 10
233.1564977417147
 20
-1933.693890799928
 10
239.1290166285944
 20
-1933.432955672386
 10
244.9957929117882
 20
-1931.430739528048
 10
250.5453750921333
 20
-1928.961917712222
 10
251.2361571059191
 20
-1928.654633818322
 10
251.9577399817135
 20
-1927.594763937461
 10
252.0182461894292
 20
-1926.832284595642
 10
252.3061984342348
 20
-1923.203530125913
 10
253.3850797363484
 20
-1918.922303004554
 10
251.1353274714711
 20
-1916.183090912847
 10
249.2537023901459
 20
-1913.892130381155
 10
245.7323675067346
 20
-1916.563909231336
 10
242.9451380930841
 20
-1917.033548640258
 10
241.1469997805398
 20
-1917.336534739461
 10
239.424865017776
 20
-1918.233341233226
 10
237.6290188624043
 20
-1918.380696602049
 10
232.0278715727254
 20
-1918.840307823342
 10
229.8071757708276
 20
-1921.721549389265
 10
231.2091922449399
 20
-1928.28413020711
 97
        0
 97
        1
330
85
 92
        1
 93
        1
 72
     4
 94
        3
 73
     0
 74
     0
 95
       47
 96
       43
 40
0.0
 40
0.0
 40
0.0
 40
0.0
 40
1.0
 40
1.0
 40
1.0
 40
2.0
 40
2.0
 40
2.0
 40
3.0
 40
3.0
 40
3.0
 40
4.0
 40
4.0
 40
4.0
 40
5.0
 40
5.0
 40
5.0
 40
6.0
 40
6.0
 40
6.0
 40
7.0
 40
7.0
 40
7.0
 40
8.0
 40
8.0
 40
8.0
 40
9.0
 40
9.0
 40
9.0
 40
10.0
 40
10.0
 40
10.0
 40
11.0
 40
11.0
 40
11.0
 40
12.0
 40
12.0
 40
12.0
 40
13.0
 40
13.0
 40
13.0
 40
14.0
 40
14.0
 40
14.0
 40
14.0
 10
262.9481532824284
 20
-1972.613573511597
 10
267.3770644274991
 20
-1972.708226119546
 10
271.2257732882644
 20
-1971.254425432842
 10
274.6904025627991
 20
-1968.532960705128
 10
278.5918226114809
 20
-1965.468312857207
 10
282.5153720893395
 20
-1962.53222806011
 10
287.815665323069
 20
-1962.124830830878
 10
292.3863615579503
 20
-1961.773557744185
 10
296.9870075229483
 20
-1961.235709805278
 10
301.45034316085
 20
-1960.229823596652
 10
305.7323455706646
 20
-1959.264791718804
 10
308.5108445621445
 20
-1956.27561651661
 10
309.088232212278
 20
-1951.798999850387
 10
309.6261644216647
 20
-1947.628285042119
 10
306.1923107279945
 20
-1946.160596579604
 10
303.4033959046537
 20
-1944.50919846135
 10
297.2501168289855
 20
-1940.865713510964
 10
290.2095706783693
 20
-1940.190336141706
 10
283.3970267500335
 20
-1938.684759669457
 10
278.6182835435466
 20
-1937.628715668583
 10
276.8557495106143
 20
-1938.711254309717
 10
277.9983224447533
 20
-1943.804292714394
 10
278.843656526722
 20
-1947.57239685694
 10
279.5338149389245
 20
-1951.780089553711
 10
276.2893338775393
 20
-1954.744590358106
 10
271.7033172686133
 20
-1958.934822210536
 10
266.0227113393012
 20
-1961.084562264663
 10
259.8580051859644
 20
-1961.913143374353
 10
257.9560624908772
 20
-1962.168752607289
 10
256.4714862233123
 20
-1961.571409706481
 10
256.0058917976348
 20
-1959.671986698875
 10
254.8034446844103
 20
-1954.766534392216
 10
252.018499000882
 20
-1955.265247118219
 10
248.6599662660629
 20
-1957.334256048401
 10
246.6259295868586
 20
-1958.587290733343
 10
244.5729994650792
 20
-1959.809650962001
 10
242.538625703939
 20
-1961.062213732231
 10
240.4824427414642
 20
-1962.328158655364
 10
240.7242568961228
 20
-1963.604317161193
 10
242.6252810429287
 20
-1964.742912528476
 10
248.9474465961539
 20
-1968.529353928399
 10
255.2924831588171
 20
-1972.274806164769
 10
262.9481532824284
 20
-1972.613573511597
 97
        0
 97
        1
330
86
 92
        1
 93
        1
 72
     4
 94
        3
 73
     0
 74
     0
 95
      131
 96
      127
 40
0.0
 40
0.0
 40
0.0
 40
0.0
 40
1.0
 40
1.0
 40
1.0
 40
2.0
 40
2.0
 40
2.0
 40
3.0
 40
3.0
 40
3.0
 40
4.0
 40
4.0
 40
4.0
 40
5.0
 40
5.0
 40
5.0
 40
6.0
 40
6.0
 40
6.0
 40
7.0
 40
7.0
 40
7.0
 40
8.0
 40
8.0
 40
8.0
 40
9.0
 40
9.0
 40
9.0
 40
10.0
 40
10.0
 40
10.0
 40
11.0
 40
11.0
 40
11.0
 40
12.0
 40
12.0
 40
12.0
 40
13.0
 40
13.0
 40
13.0
 40
14.0
 40
14.0
 40
14.0
 40
15.0
 40
15.0
 40
15.0
 40
16.0
 40
16.0
 40
16.0
 40
17.0
 40
17.0
 40
17.0
 40
18.0
 40
18.0
 40
18.0
 40
19.0
 40
19.0
 40
19.0
 40
20.0
 40
20.0
 40
20.0
 40
21.0
 40
21.0
 40
21.0
 40
22.0
 40
22.0
 40
22.0
 40
23.0
 40
23.0
 40
23.0
 40
24.0
 40
24.0
 40
24.0
 40
25.0
 40
25.0
 40
25.0
 40
26.0
 40
26.0
 40
26.0
 40
27.0
 40
27.0
 40
27.0
 40
28.0
 40
28.0
 40
28.0
 40
29.0
 40
29.0
 40
29.0
 40
30.0
 40
30.0
 40
30.0
 40
31.0
 40
31.0
 40
31.0
 40
32.0
 40
32.0
 40
32.0
 40
33.0
 40
33.0
 40
33.0
 40
34.0
 40
34.0
 40
34.0
 40
35.0
 40
35.0
 40
35.0
 40
36.0
 40
36.0
 40
36.0
 40
37.0
 40
37.0
 40
37.0
 40
38.0
 40
38.0
 40
38.0
 40
39.0
 40
39.0
 40
39.0
 40
40.0
 40
40.0
 40
40.0
 40
41.0
 40
41.0
 40
41.0
 40
42.0
 40
42.0
 40
42.0
 40
42.0
 10
194.8533842418474
 20
-1898.944417273622
 10
195.2234791412083
 20
-1892.280442209085
 10
195.5682634006152
 20
-1886.036858882453
 10
195.9178510776255
 20
-1879.793562075469
 10
196.0734775944802
 20
-1877.014270941436
 10
196.8403811367243
 20
-1874.814895572064
 10
200.1131728673063
 20
-1874.274334123565
 10
221.3741947001654
 20
-1870.762563940123
 10
241.888580042254
 20
-1864.024076913378
 10
262.9599680043248
 20
-1859.706225839549
 10
266.5161318788924
 20
-1858.977522107831
 10
270.3114890960533
 20
-1858.854975969585
 10
273.9379345545131
 20
-1859.155973285356
 10
280.0823146670445
 20
-1859.665961402155
 10
282.6472216890543
 20
-1863.536369912625
 10
280.8546873637169
 20
-1869.504237068766
 10
275.7225980166186
 20
-1886.590364277337
 10
273.2980182050415
 20
-1903.940207539436
 10
274.5961881613657
 20
-1921.810589582961
 10
274.9011630439964
 20
-1926.008574319945
 10
276.0177469607806
 20
-1927.765546500916
 10
280.5795779407162
 20
-1928.208606999094
 10
296.6999148370851
 20
-1929.774302034832
 10
312.0654241516058
 20
-1933.853027182453
 10
325.314160025453
 20
-1943.843394219104
 10
333.210793171831
 20
-1949.797946638729
 10
336.3940095911421
 20
-1957.249243983853
 10
334.3196579122559
 20
-1965.264681658977
 10
332.5184100188453
 20
-1972.224816913491
 10
324.9660386548712
 20
-1977.744331385042
 10
315.6229194998232
 20
-1978.329539336115
 10
308.1735435217415
 20
-1978.796060737121
 10
301.1350704250399
 20
-1980.535032742646
 10
294.2380369091625
 20
-1983.280699953448
 10
287.1718388231275
 20
-1986.093749843487
 10
280.128966807144
 20
-1986.168447200758
 10
272.7218946121757
 20
-1983.735288653879
 10
259.4109839750199
 20
-1979.362830306232
 10
246.3799103350357
 20
-1974.413860721488
 10
233.9976014453714
 20
-1967.849560785762
 10
231.8005013790753
 20
-1966.684774151967
 10
229.6360814065847
 20
-1966.23803946067
 10
227.8850671488545
 20
-1967.995483556351
 10
222.3453024799273
 20
-1973.555582693134
 10
216.0315049857927
 20
-1972.122411420987
 10
209.9324286856135
 20
-1969.859175878621
 10
204.535544622795
 20
-1967.856538381864
 10
202.856885002875
 20
-1969.702702443399
 10
203.0899013189737
 20
-1974.841786240693
 10
203.1229016406178
 20
-1975.569613559371
 10
203.0593027061295
 20
-1976.331283904539
 10
202.8753908012222
 20
-1977.034066035288
 10
202.2919946655602
 20
-1979.263424842968
 10
202.527539096187
 20
-1982.102901956878
 10
199.4622002302967
 20
-1982.744166634097
 10
196.5760836168592
 20
-1983.34794779991
 10
194.9677603566451
 20
-1981.195005467376
 10
193.731356451779
 20
-1979.230390813128
 10
190.3790260246023
 20
-1973.903552376847
 10
188.5971561290498
 20
-1967.856066467149
 10
186.6263560212537
 20
-1961.946076279615
 10
185.4434133116192
 20
-1958.39869338951
 10
183.5121192068545
 20
-1957.067826485283
 10
179.7839508468132
 20
-1957.131804636952
 10
172.9524587000887
 20
-1957.249008026498
 10
166.2349297427863
 20
-1956.16744692298
 10
159.7000675939853
 20
-1954.05370721974
 10
157.2011548949813
 20
-1953.245418442664
 10
154.9423688341885
 20
-1952.055552912745
 10
153.0287209688358
 20
-1950.287457027851
 10
150.8202570277317
 20
-1948.247032645937
 10
149.9280538091698
 20
-1945.744671177363
 10
150.9835184504627
 20
-1942.802923403724
 10
152.0531468534063
 20
-1939.821703335248
 10
154.7213821297227
 20
-1940.791622901182
 10
156.6742347311265
 20
-1940.955646971794
 10
162.8965123725684
 20
-1941.478123974368
 10
169.0988874323811
 20
-1942.285435213824
 10
175.2886345601255
 20
-1943.131376043278
 10
179.7519069951668
 20
-1943.741393224925
 10
180.7805630886469
 20
-1941.839442102791
 10
179.945472084044
 20
-1937.769278836371
 10
178.3200082073272
 20
-1929.846842067705
 10
176.9018075867097
 20
-1921.881444206148
 10
175.4438692192307
 20
-1913.925400368349
 10
175.0147639132483
 20
-1911.583742713308
 10
174.2535612692663
 20
-1908.802749315495
 10
176.9041587332212
 20
-1907.488399426187
 10
179.6509888767104
 20
-1906.126335588677
 10
181.923477318247
 20
-1908.220625664144
 10
183.6500362814367
 20
-1910.018620716866
 10
187.4515199628076
 20
-1913.977310986669
 10
189.2977472272068
 20
-1919.013096024322
 10
190.3679528829671
 20
-1924.304928501431
 10
191.245415087069
 20
-1928.643762925847
 10
192.2338994406891
 20
-1932.935608128228
 10
194.008374601246
 20
-1937.007136576492
 10
194.5209835301066
 20
-1938.183316579765
 10
194.83580963235
 20
-1939.666477103193
 10
195.7352622193248
 20
-1940.416720370693
 10
200.8393232033486
 20
-1944.674098944997
 10
205.820627372912
 20
-1940.60855370112
 10
210.8041478562118
 20
-1939.829253970638
 10
213.7859662451265
 20
-1939.362968526988
 10
217.2228115409926
 20
-1938.750018732488
 10
217.0045762678383
 20
-1934.288166255112
 10
216.9060472176134
 20
-1932.273629765972
 10
217.3132506247275
 20
-1930.22214909652
 10
217.1015968763968
 20
-1928.228798207128
 10
216.8931201253217
 20
-1926.265447610145
 10
218.6416736849133
 20
-1923.22104153255
 10
215.4848507812785
 20
-1922.615558102956
 10
212.7925352140774
 20
-1922.09916542935
 10
209.996448972528
 20
-1923.075422135702
 10
208.3639274427514
 20
-1925.785560910331
 10
207.1316738592359
 20
-1927.831210062268
 10
205.8740211517543
 20
-1929.863713018658
 10
204.7126727537179
 20
-1931.949407504729
 10
202.9088377564367
 20
-1935.188984023931
 10
201.1720315023558
 20
-1934.456269017162
 10
199.4882229558425
 20
-1931.903530653086
 10
196.1252028177368
 20
-1926.804980958736
 10
195.1422466078838
 20
-1920.998087281674
 10
194.9013172933082
 20
-1915.081608266846
 10
194.6768923530835
 20
-1909.57048713553
 10
194.8533842418474
 20
-1904.043051238456
 10
194.8533842418474
 20
-1898.944417273622
 97
        0
 97
        1
330
87
 75
     2
 76
     1
 98
        1
 10
0.0
 20
0.0
450
        0
451
        0
460
0.0
461
0.0
452
        0
462
0.0
453
        0
470

  0
SPLINE
  5
89
330
70
100
AcDbEntity
  8
Layer 1
100
AcDbSpline
210
0.0
220
0.0
230
1.0
 70
     9
 71
     3
 72
    92
 73
    88
 74
     0
 42
0.0000000001
 43
0.0000000001
 40
0.0
 40
0.0
 40
0.0
 40
0.0
 40
1.0
 40
1.0
 40
1.0
 40
2.0
 40
2.0
 40
2.0
 40
3.0
 40
3.0
 40
3.0
 40
4.0
 40
4.0
 40
4.0
 40
5.0
 40
5.0
 40
5.0
 40
6.0
 40
6.0
 40
6.0
 40
7.0
 40
7.0
 40
7.0
 40
8.0
 40
8.0
 40
8.0
 40
9.0
 40
9.0
 40
9.0
 40
10.0
 40
10.0
 40
10.0
 40
11.0
 40
11.0
 40
11.0
 40
12.0
 40
12.0
 40
12.0
 40
13.0
 40
13.0
 40
13.0
 40
14.0
 40
14.0
 40
14.0
 40
15.0
 40
15.0
 40
15.0
 40
16.0
 40
16.0
 40
16.0
 40
17.0
 40
17.0
 40
17.0
 40
18.0
 40
18.0
 40
18.0
 40
19.0
 40
19.0
 40
19.0
 40
20.0
 40
20.0
 40
20.0
 40
21.0
 40
21.0
 40
21.0
 40
22.0
 40
22.0
 40
22.0
 40
23.0
 40
23.0
 40
23.0
 40
24.0
 40
24.0
 40
24.0
 40
25.0
 40
25.0
 40
25.0
 40
26.0
 40
26.0
 40
26.0
 40
27.0
 40
27.0
 40
27.0
 40
28.0
 40
28.0
 40
28.0
 40
29.0
 40
29.0
 40
29.0
 40
29.0
 10
151.7703372149044
 20
-1782.406081964011
 30
0.0
 10
158.0805974554641
 20
-1772.51706703881
 30
0.0
 10
167.5988685985721
 20
-1768.118333154161
 30
0.0
 10
177.3112441616613
 20
-1764.249365668976
 30
0.0
 10
188.2543522260239
 20
-1759.89015464146
 30
0.0
 10
199.2499060262853
 20
-1755.753653649812
 30
0.0
 10
209.4025443074752
 20
-1749.635279408732
 30
0.0
 10
213.3618918870561
 20
-1747.24922806257
 30
0.0
 10
215.1212404956823
 20
-1744.471133569415
 30
0.0
 10
214.2740777442086
 20
-1739.742497592884
 30
0.0
 10
212.3300082340283
 20
-1728.891063174851
 30
0.0
 10
210.8074512591957
 20
-1717.964472125408
 30
0.0
 10
208.8982528754132
 20
-1707.10628342806
 30
0.0
 10
208.0629385540269
 20
-1702.355581225219
 30
0.0
 10
206.0701354227858
 20
-1698.000992433765
 30
0.0
 10
202.9923750875096
 20
-1694.189164550447
 30
0.0
 10
195.2798855898654
 20
-1684.637193640672
 30
0.0
 10
195.3993095066726
 20
-1673.932434107301
 30
0.0
 10
198.4415245516757
 20
-1662.805721725301
 30
0.0
 10
199.5668388906342
 20
-1658.68998550767
 30
0.0
 10
201.8981818383982
 20
-1657.158519035889
 30
0.0
 10
206.2321117206302
 20
-1658.434774452773
 30
0.0
 10
216.886041404643
 20
-1661.572140881657
 30
0.0
 10
225.3458373434041
 20
-1667.758555111748
 30
0.0
 10
231.7714449160921
 20
-1676.661497925939
 30
0.0
 10
235.479717014794
 20
-1681.79948199341
 30
0.0
 10
235.6146087789893
 20
-1687.671386135574
 30
0.0
 10
233.7304134478945
 20
-1693.567286298137
 30
0.0
 10
232.4454823846536
 20
-1697.588033352571
 30
0.0
 10
230.878708686716
 20
-1701.517759856928
 30
0.0
 10
229.512886385608
 20
-1705.513794591843
 30
0.0
 10
226.5046407728187
 20
-1714.31509245465
 30
0.0
 10
227.5682943984248
 20
-1722.838040694336
 30
0.0
 10
231.0358984210543
 20
-1731.317623342809
 30
0.0
 10
232.4897749511911
 20
-1734.872885523193
 30
0.0
 10
233.911991060384
 20
-1734.778435164407
 30
0.0
 10
236.5476178728095
 20
-1732.519699665903
 30
0.0
 10
247.2981468129583
 20
-1723.306483462384
 30
0.0
 10
258.5523604376831
 20
-1714.643258574553
 30
0.0
 10
268.8883797197268
 20
-1704.992733333409
 30
0.0
 10
285.4837830442084
 20
-1689.497936241892
 30
0.0
 10
305.1168002452468
 20
-1683.18663104733
 30
0.0
 10
327.3641743884764
 20
-1683.463697652325
 30
0.0
 10
334.253353895223
 20
-1683.54949553914
 30
0.0
 10
336.6783044969306
 20
-1686.235636186604
 30
0.0
 10
335.7153119648028
 20
-1693.048167474364
 30
0.0
 10
334.8610620656
 20
-1699.091604187291
 30
0.0
 10
330.9491756227653
 20
-1703.421741897731
 30
0.0
 10
324.8728523533464
 20
-1704.677060312799
 30
0.0
 10
315.872343279214
 20
-1706.536492762086
 30
0.0
 10
306.8512722069136
 20
-1708.303206611039
 30
0.0
 10
297.8160436932522
 20
-1709.986357847774
 30
0.0
 10
283.724586122451
 20
-1712.611429782038
 30
0.0
 10
271.2974031999074
 20
-1718.377907334838
 30
0.0
 10
260.8560289584056
 20
-1728.425300208204
 30
0.0
 10
254.7571549073909
 20
-1734.294039993685
 30
0.0
 10
248.6023673900527
 20
-1740.087568371938
 30
0.0
 10
242.8509236916507
 20
-1746.306106510638
 30
0.0
 10
240.9092306091297
 20
-1748.405494950406
 30
0.0
 10
240.4761814444792
 20
-1749.887854904235
 30
0.0
 10
243.5343320380634
 20
-1751.155628496875
 30
0.0
 10
253.6251494919816
 20
-1755.338849045012
 30
0.0
 10
263.6764188076268
 20
-1759.535021966581
 30
0.0
 10
274.9329667247657
 20
-1755.428681381261
 30
0.0
 10
276.790220782037
 20
-1754.751155114653
 30
0.0
 10
278.9744106101389
 20
-1754.339080873542
 30
0.0
 10
280.9036148068917
 20
-1754.593190091858
 30
0.0
 10
292.3294789810571
 20
-1756.098126108427
 30
0.0
 10
298.2024744259943
 20
-1761.853538946638
 30
0.0
 10
291.5996628789508
 20
-1773.314038289845
 30
0.0
 10
286.6787385113785
 20
-1781.855273224621
 30
0.0
 10
279.2211377340318
 20
-1786.735292699123
 30
0.0
 10
268.7479682388111
 20
-1785.607315412861
 30
0.0
 10
257.0320871929762
 20
-1784.345474462312
 30
0.0
 10
245.45777213369
 20
-1782.197832743244
 30
0.0
 10
233.9492891767295
 20
-1779.791244680062
 30
0.0
 10
227.6081627645399
 20
-1778.46523175573
 30
0.0
 10
221.6496833403435
 20
-1775.775520146493
 30
0.0
 10
217.590315122965
 20
-1770.298073500697
 30
0.0
 10
215.6220178485491
 20
-1767.642179636801
 30
0.0
 10
213.4114934941063
 20
-1768.726884029383
 30
0.0
 10
211.1671345402247
 20
-1769.439348838776
 30
0.0
 10
195.2052472219329
 20
-1774.506398226102
 30
0.0
 10
179.2258400699647
 20
-1779.491705243668
 30
0.0
 10
162.4584238329589
 20
-1781.232615470333
 30
0.0
 10
158.893546390318
 20
-1781.60274829141
 30
0.0
 10
155.3329203936118
 20
-1782.013853421951
 30
0.0
 10
151.7703372149044
 20
-1782.406081964011
 30
0.0
  0
HATCH
  5
8A
330
70
100
AcDbEntity
  8
Layer 1
 62
    18
420
        0
440
 33554687
100
AcDbHatch
 10
0.0
 20
0.0
 30
0.0
210
0.0
220
0.0
230
1.0
  2
SOLID
 70
     1
 71
     1
 91
        1
 92
        1
 93
        1
 72
     4
 94
        3
 73
     0
 74
     0
 95
       92
 96
       88
 40
0.0
 40
0.0
 40
0.0
 40
0.0
 40
1.0
 40
1.0
 40
1.0
 40
2.0
 40
2.0
 40
2.0
 40
3.0
 40
3.0
 40
3.0
 40
4.0
 40
4.0
 40
4.0
 40
5.0
 40
5.0
 40
5.0
 40
6.0
 40
6.0
 40
6.0
 40
7.0
 40
7.0
 40
7.0
 40
8.0
 40
8.0
 40
8.0
 40
9.0
 40
9.0
 40
9.0
 40
10.0
 40
10.0
 40
10.0
 40
11.0
 40
11.0
 40
11.0
 40
12.0
 40
12.0
 40
12.0
 40
13.0
 40
13.0
 40
13.0
 40
14.0
 40
14.0
 40
14.0
 40
15.0
 40
15.0
 40
15.0
 40
16.0
 40
16.0
 40
16.0
 40
17.0
 40
17.0
 40
17.0
 40
18.0
 40
18.0
 40
18.0
 40
19.0
 40
19.0
 40
19.0
 40
20.0
 40
20.0
 40
20.0
 40
21.0
 40
21.0
 40
21.0
 40
22.0
 40
22.0
 40
22.0
 40
23.0
 40
23.0
 40
23.0
 40
24.0
 40
24.0
 40
24.0
 40
25.0
 40
25.0
 40
25.0
 40
26.0
 40
26.0
 40
26.0
 40
27.0
 40
27.0
 40
27.0
 40
28.0
 40
28.0
 40
28.0
 40
29.0
 40
29.0
 40
29.0
 40
29.0
 10
151.7703372149044
 20
-1782.406081964011
 10
158.0805974554641
 20
-1772.51706703881
 10
167.5988685985721
 20
-1768.118333154161
 10
177.3112441616613
 20
-1764.249365668976
 10
188.2543522260239
 20
-1759.89015464146
 10
199.2499060262853
 20
-1755.753653649812
 10
209.4025443074752
 20
-1749.635279408732
 10
213.3618918870561
 20
-1747.24922806257
 10
215.1212404956823
 20
-1744.471133569415
 10
214.2740777442086
 20
-1739.742497592884
 10
212.3300082340283
 20
-1728.891063174851
 10
210.8074512591957
 20
-1717.964472125408
 10
208.8982528754132
 20
-1707.10628342806
 10
208.0629385540269
 20
-1702.355581225219
 10
206.0701354227858
 20
-1698.000992433765
 10
202.9923750875096
 20
-1694.189164550447
 10
195.2798855898654
 20
-1684.637193640672
 10
195.3993095066726
 20
-1673.932434107301
 10
198.4415245516757
 20
-1662.805721725301
 10
199.5668388906342
 20
-1658.68998550767
 10
201.8981818383982
 20
-1657.158519035889
 10
206.2321117206302
 20
-1658.434774452773
 10
216.886041404643
 20
-1661.572140881657
 10
225.3458373434041
 20
-1667.758555111748
 10
231.7714449160921
 20
-1676.661497925939
 10
235.479717014794
 20
-1681.79948199341
 10
235.6146087789893
 20
-1687.671386135574
 10
233.7304134478945
 20
-1693.567286298137
 10
232.4454823846536
 20
-1697.588033352571
 10
230.878708686716
 20
-1701.517759856928
 10
229.512886385608
 20
-1705.513794591843
 10
226.5046407728187
 20
-1714.31509245465
 10
227.5682943984248
 20
-1722.838040694336
 10
231.0358984210543
 20
-1731.317623342809
 10
232.4897749511911
 20
-1734.872885523193
 10
233.911991060384
 20
-1734.778435164407
 10
236.5476178728095
 20
-1732.519699665903
 10
247.2981468129583
 20
-1723.306483462384
 10
258.5523604376831
 20
-1714.643258574553
 10
268.8883797197268
 20
-1704.992733333409
 10
285.4837830442084
 20
-1689.497936241892
 10
305.1168002452468
 20
-1683.18663104733
 10
327.3641743884764
 20
-1683.463697652325
 10
334.253353895223
 20
-1683.54949553914
 10
336.6783044969306
 20
-1686.235636186604
 10
335.7153119648028
 20
-1693.048167474364
 10
334.8610620656
 20
-1699.091604187291
 10
330.9491756227653
 20
-1703.421741897731
 10
324.8728523533464
 20
-1704.677060312799
 10
315.872343279214
 20
-1706.536492762086
 10
306.8512722069136
 20
-1708.303206611039
 10
297.8160436932522
 20
-1709.986357847774
 10
283.724586122451
 20
-1712.611429782038
 10
271.2974031999074
 20
-1718.377907334838
 10
260.8560289584056
 20
-1728.425300208204
 10
254.7571549073909
 20
-1734.294039993685
 10
248.6023673900527
 20
-1740.087568371938
 10
242.8509236916507
 20
-1746.306106510638
 10
240.9092306091297
 20
-1748.405494950406
 10
240.4761814444792
 20
-1749.887854904235
 10
243.5343320380634
 20
-1751.155628496875
 10
253.6251494919816
 20
-1755.338849045012
 10
263.6764188076268
 20
-1759.535021966581
 10
274.9329667247657
 20
-1755.428681381261
 10
276.790220782037
 20
-1754.751155114653
 10
278.9744106101389
 20
-1754.339080873542
 10
280.9036148068917
 20
-1754.593190091858
 10
292.3294789810571
 20
-1756.098126108427
 10
298.2024744259943
 20
-1761.853538946638
 10
291.5996628789508
 20
-1773.314038289845
 10
286.6787385113785
 20
-1781.855273224621
 10
279.2211377340318
 20
-1786.735292699123
 10
268.7479682388111
 20
-1785.607315412861
 10
257.0320871929762
 20
-1784.345474462312
 10
245.45777213369
 20
-1782.197832743244
 10
233.9492891767295
 20
-1779.791244680062
 10
227.6081627645399
 20
-1778.46523175573
 10
221.6496833403435
 20
-1775.775520146493
 10
217.590315122965
 20
-1770.298073500697
 10
215.6220178485491
 20
-1767.642179636801
 10
213.4114934941063
 20
-1768.726884029383
 10
211.1671345402247
 20
-1769.439348838776
 10
195.2052472219329
 20
-1774.506398226102
 10
179.2258400699647
 20
-1779.491705243668
 10
162.4584238329589
 20
-1781.232615470333
 10
158.893546390318
 20
-1781.60274829141
 10
155.3329203936118
 20
-1782.013853421951
 10
151.7703372149044
 20
-1782.406081964011
 97
        0
 97
        1
330
89
 75
     2
 76
     1
 98
        1
 10
0.0
 20
0.0
450
        0
451
        0
460
0.0
461
0.0
452
        0
462
0.0
453
        0
470

  0
SPLINE
  5
8B
330
70
100
AcDbEntity
  8
Layer 1
100
AcDbSpline
210
0.0
220
0.0
230
1.0
 70
     9
 71
     3
 72
    89
 73
    85
 74
     0
 42
0.0000000001
 43
0.0000000001
 40
0.0
 40
0.0
 40
0.0
 40
0.0
 40
1.0
 40
1.0
 40
1.0
 40
2.0
 40
2.0
 40
2.0
 40
3.0
 40
3.0
 40
3.0
 40
4.0
 40
4.0
 40
4.0
 40
5.0
 40
5.0
 40
5.0
 40
6.0
 40
6.0
 40
6.0
 40
7.0
 40
7.0
 40
7.0
 40
8.0
 40
8.0
 40
8.0
 40
9.0
 40
9.0
 40
9.0
 40
10.0
 40
10.0
 40
10.0
 40
11.0
 40
11.0
 40
11.0
 40
12.0
 40
12.0
 40
12.0
 40
13.0
 40
13.0
 40
13.0
 40
14.0
 40
14.0
 40
14.0
 40
15.0
 40
15.0
 40
15.0
 40
16.0
 40
16.0
 40
16.0
 40
17.0
 40
17.0
 40
17.0
 40
18.0
 40
18.0
 40
18.0
 40
19.0
 40
19.0
 40
19.0
 40
20.0
 40
20.0
 40
20.0
 40
21.0
 40
21.0
 40
21.0
 40
22.0
 40
22.0
 40
22.0
 40
23.0
 40
23.0
 40
23.0
 40
24.0
 40
24.0
 40
24.0
 40
25.0
 40
25.0
 40
25.0
 40
26.0
 40
26.0
 40
26.0
 40
27.0
 40
27.0
 40
27.0
 40
28.0
 40
28.0
 40
28.0
 40
28.0
 10
294.6042595797699
 20
-1849.116965325174
 30
0.0
 10
273.253102036917
 20
-1847.75515429912
 30
0.0
 10
253.094009483626
 20
-1853.488749508949
 30
0.0
 10
232.9772459945925
 20
-1859.540617483828
 30
0.0
 10
214.7522958884329
 20
-1865.023390024231
 30
0.0
 10
196.4132056248309
 20
-1869.646081147915
 30
0.0
 10
177.119642575064
 20
-1865.950129394019
 30
0.0
 10
170.2307243068244
 20
-1864.630453610105
 30
0.0
 10
163.4237211628315
 20
-1863.178692269121
 30
0.0
 10
157.5655151878891
 20
-1858.942634127339
 30
0.0
 10
154.6892624346364
 20
-1856.862804866974
 30
0.0
 10
154.5111525525753
 20
-1855.571797901812
 30
0.0
 10
157.8747373029255
 20
-1853.56875590673
 30
0.0
 10
166.2632825472246
 20
-1848.573285868759
 30
0.0
 10
174.8556106766264
 20
-1849.917265260341
 30
0.0
 10
183.5422753996572
 20
-1852.059572657756
 30
0.0
 10
193.4607597132126
 20
-1854.50567515102
 30
0.0
 10
203.4446379225737
 20
-1855.373340911319
 30
0.0
 10
213.6191106862425
 20
-1854.021271553247
 30
0.0
 10
217.830148921239
 20
-1853.461698683491
 30
0.0
 10
220.248956204643
 20
-1851.323065479195
 30
0.0
 10
221.1368974434663
 20
-1847.210278201823
 30
0.0
 10
221.9815152263145
 20
-1843.298223218022
 30
0.0
 10
220.6959184262487
 20
-1841.042437186468
 30
0.0
 10
216.7146520937022
 20
-1839.785542913349
 30
0.0
 10
213.7409068171801
 20
-1838.84670230202
 30
0.0
 10
213.565674772155
 20
-1836.23298581551
 30
0.0
 10
215.4752860813132
 20
-1834.028975569501
 30
0.0
 10
220.3272519115926
 20
-1828.428982785459
 30
0.0
 10
223.889222022528
 20
-1821.996229075703
 30
0.0
 10
227.7113856807409
 20
-1815.728106184051
 30
0.0
 10
229.3174378514013
 20
-1813.094299614087
 30
0.0
 10
231.5643670550562
 20
-1811.464289344742
 30
0.0
 10
234.5678429584368
 20
-1812.455799008752
 30
0.0
 10
237.6445583397071
 20
-1813.47149430175
 30
0.0
 10
237.3107713784993
 20
-1816.385045171348
 30
0.0
 10
237.1636182588409
 20
-1819.002418996872
 30
0.0
 10
236.7463698099964
 20
-1826.423665487298
 30
0.0
 10
234.6689085502403
 20
-1833.448587890129
 30
0.0
 10
232.275795337493
 20
-1840.42508847269
 30
0.0
 10
231.4873606865185
 20
-1842.72353222339
 30
0.0
 10
229.743610544534
 20
-1845.699375834971
 30
0.0
 10
233.0348195894548
 20
-1847.230688513118
 30
0.0
 10
236.440998856091
 20
-1848.815428678306
 30
0.0
 10
237.8964428172367
 20
-1845.664824936411
 30
0.0
 10
239.2978609709062
 20
-1843.394915171692
 30
0.0
 10
243.1653958578609
 20
-1837.130584451832
 30
0.0
 10
246.4914676021326
 20
-1830.602116326023
 30
0.0
 10
249.0094443914458
 20
-1823.644930538463
 30
0.0
 10
251.0022643767843
 20
-1818.138764511623
 30
0.0
 10
250.3568788728808
 20
-1813.535607286194
 30
0.0
 10
245.4917668470516
 20
-1809.935690176189
 30
0.0
 10
242.5029034456493
 20
-1807.72411244069
 30
0.0
 10
242.3147864435778
 20
-1805.582984830056
 30
0.0
 10
244.8210749167192
 20
-1802.671759825825
 30
0.0
 10
248.0100554371566
 20
-1798.967549564466
 30
0.0
 10
251.8018901480755
 20
-1796.222286851989
 30
0.0
 10
256.0280886431938
 20
-1793.905269886552
 30
0.0
 10
262.6961086909796
 20
-1790.24950672661
 30
0.0
 10
266.0773523213138
 20
-1792.075201487514
 30
0.0
 10
269.4826720290075
 20
-1799.180281974997
 30
0.0
 10
273.2602650280824
 20
-1807.062049807948
 30
0.0
 10
272.706574238131
 20
-1815.279702937165
 30
0.0
 10
268.082138715421
 20
-1822.957131699819
 30
0.0
 10
266.2792644016627
 20
-1825.950217052486
 30
0.0
 10
264.4942722846681
 20
-1828.938381008869
 30
0.0
 10
263.4300287656734
 20
-1832.306891369026
 30
0.0
 10
261.6693402563469
 20
-1837.879799619422
 30
0.0
 10
262.2788939503298
 20
-1838.695504199113
 30
0.0
 10
267.9322383779727
 20
-1837.48313844989
 30
0.0
 10
281.271539741283
 20
-1834.622492590326
 30
0.0
 10
294.7140640207944
 20
-1832.689631054556
 30
0.0
 10
308.385466935626
 20
-1832.919217561943
 30
0.0
 10
313.1402436163808
 20
-1832.999072272854
 30
0.0
 10
317.9450601107019
 20
-1833.057876216786
 30
0.0
 10
322.4479186057361
 20
-1835.078345348022
 30
0.0
 10
325.0505788047048
 20
-1836.246199427445
 30
0.0
 10
325.7540856616178
 20
-1837.648679389218
 30
0.0
 10
323.832499516644
 20
-1840.102838140781
 30
0.0
 10
319.4615243295229
 20
-1845.68521839361
 30
0.0
 10
314.5692519266049
 20
-1849.955979120819
 30
0.0
 10
306.7312373290952
 20
-1849.185932289514
 30
0.0
 10
302.7253218798978
 20
-1848.792389127902
 30
0.0
 10
298.6488383271571
 20
-1849.116965325174
 30
0.0
 10
294.6042595797699
 20
-1849.116965325174
 30
0.0
  0
HATCH
  5
8C
330
70
100
AcDbEntity
  8
Layer 1
 62
   246
420
  8590872
440
 33554687
100
AcDbHatch
 10
0.0
 20
0.0
 30
0.0
210
0.0
220
0.0
230
1.0
  2
SOLID
 70
     1
 71
     1
 91
        1
 92
        1
 93
        1
 72
     4
 94
        3
 73
     0
 74
     0
 95
       89
 96
       85
 40
0.0
 40
0.0
 40
0.0
 40
0.0
 40
1.0
 40
1.0
 40
1.0
 40
2.0
 40
2.0
 40
2.0
 40
3.0
 40
3.0
 40
3.0
 40
4.0
 40
4.0
 40
4.0
 40
5.0
 40
5.0
 40
5.0
 40
6.0
 40
6.0
 40
6.0
 40
7.0
 40
7.0
 40
7.0
 40
8.0
 40
8.0
 40
8.0
 40
9.0
 40
9.0
 40
9.0
 40
10.0
 40
10.0
 40
10.0
 40
11.0
 40
11.0
 40
11.0
 40
12.0
 40
12.0
 40
12.0
 40
13.0
 40
13.0
 40
13.0
 40
14.0
 40
14.0
 40
14.0
 40
15.0
 40
15.0
 40
15.0
 40
16.0
 40
16.0
 40
16.0
 40
17.0
 40
17.0
 40
17.0
 40
18.0
 40
18.0
 40
18.0
 40
19.0
 40
19.0
 40
19.0
 40
20.0
 40
20.0
 40
20.0
 40
21.0
 40
21.0
 40
21.0
 40
22.0
 40
22.0
 40
22.0
 40
23.0
 40
23.0
 40
23.0
 40
24.0
 40
24.0
 40
24.0
 40
25.0
 40
25.0
 40
25.0
 40
26.0
 40
26.0
 40
26.0
 40
27.0
 40
27.0
 40
27.0
 40
28.0
 40
28.0
 40
28.0
 40
28.0
 10
294.6042595797699
 20
-1849.116965325174
 10
273.253102036917
 20
-1847.75515429912
 10
253.094009483626
 20
-1853.488749508949
 10
232.9772459945925
 20
-1859.540617483828
 10
214.7522958884329
 20
-1865.023390024231
 10
196.4132056248309
 20
-1869.646081147915
 10
177.119642575064
 20
-1865.950129394019
 10
170.2307243068244
 20
-1864.630453610105
 10
163.4237211628315
 20
-1863.178692269121
 10
157.5655151878891
 20
-1858.942634127339
 10
154.6892624346364
 20
-1856.862804866974
 10
154.5111525525753
 20
-1855.571797901812
 10
157.8747373029255
 20
-1853.56875590673
 10
166.2632825472246
 20
-1848.573285868759
 10
174.8556106766264
 20
-1849.917265260341
 10
183.5422753996572
 20
-1852.059572657756
 10
193.4607597132126
 20
-1854.50567515102
 10
203.4446379225737
 20
-1855.373340911319
 10
213.6191106862425
 20
-1854.021271553247
 10
217.830148921239
 20
-1853.461698683491
 10
220.248956204643
 20
-1851.323065479195
 10
221.1368974434663
 20
-1847.210278201823
 10
221.9815152263145
 20
-1843.298223218022
 10
220.6959184262487
 20
-1841.042437186468
 10
216.7146520937022
 20
-1839.785542913349
 10
213.7409068171801
 20
-1838.84670230202
 10
213.565674772155
 20
-1836.23298581551
 10
215.4752860813132
 20
-1834.028975569501
 10
220.3272519115926
 20
-1828.428982785459
 10
223.889222022528
 20
-1821.996229075703
 10
227.7113856807409
 20
-1815.728106184051
 10
229.3174378514013
 20
-1813.094299614087
 10
231.5643670550562
 20
-1811.464289344742
 10
234.5678429584368
 20
-1812.455799008752
 10
237.6445583397071
 20
-1813.47149430175
 10
237.3107713784993
 20
-1816.385045171348
 10
237.1636182588409
 20
-1819.002418996872
 10
236.7463698099964
 20
-1826.423665487298
 10
234.6689085502403
 20
-1833.448587890129
 10
232.275795337493
 20
-1840.42508847269
 10
231.4873606865185
 20
-1842.72353222339
 10
229.743610544534
 20
-1845.699375834971
 10
233.0348195894548
 20
-1847.230688513118
 10
236.440998856091
 20
-1848.815428678306
 10
237.8964428172367
 20
-1845.664824936411
 10
239.2978609709062
 20
-1843.394915171692
 10
243.1653958578609
 20
-1837.130584451832
 10
246.4914676021326
 20
-1830.602116326023
 10
249.0094443914458
 20
-1823.644930538463
 10
251.0022643767843
 20
-1818.138764511623
 10
250.3568788728808
 20
-1813.535607286194
 10
245.4917668470516
 20
-1809.935690176189
 10
242.5029034456493
 20
-1807.72411244069
 10
242.3147864435778
 20
-1805.582984830056
 10
244.8210749167192
 20
-1802.671759825825
 10
248.0100554371566
 20
-1798.967549564466
 10
251.8018901480755
 20
-1796.222286851989
 10
256.0280886431938
 20
-1793.905269886552
 10
262.6961086909796
 20
-1790.24950672661
 10
266.0773523213138
 20
-1792.075201487514
 10
269.4826720290075
 20
-1799.180281974997
 10
273.2602650280824
 20
-1807.062049807948
 10
272.706574238131
 20
-1815.279702937165
 10
268.082138715421
 20
-1822.957131699819
 10
266.2792644016627
 20
-1825.950217052486
 10
264.4942722846681
 20
-1828.938381008869
 10
263.4300287656734
 20
-1832.306891369026
 10
261.6693402563469
 20
-1837.879799619422
 10
262.2788939503298
 20
-1838.695504199113
 10
267.9322383779727
 20
-1837.48313844989
 10
281.271539741283
 20
-1834.622492590326
 10
294.7140640207944
 20
-1832.689631054556
 10
308.385466935626
 20
-1832.919217561943
 10
313.1402436163808
 20
-1832.999072272854
 10
317.9450601107019
 20
-1833.057876216786
 10
322.4479186057361
 20
-1835.078345348022
 10
325.0505788047048
 20
-1836.246199427445
 10
325.7540856616178
 20
-1837.648679389218
 10
323.832499516644
 20
-1840.102838140781
 10
319.4615243295229
 20
-1845.68521839361
 10
314.5692519266049
 20
-1849.955979120819
 10
306.7312373290952
 20
-1849.185932289514
 10
302.7253218798978
 20
-1848.792389127902
 10
298.6488383271571
 20
-1849.116965325174
 10
294.6042595797699
 20
-1849.116965325174
 97
        0
 97
        1
330
8B
 75
     2
 76
     1
 98
        1
 10
0.0
 20
0.0
450
        0
451
        0
460
0.0
461
0.0
452
        0
462
0.0
453
        0
470

  0
ENDSEC
  0
SECTION
  2
OBJECTS
  0
DICTIONARY
  5
C
330
0
100
AcDbDictionary
281
     1
  3
ACAD_COLOR
350
63
  3
ACAD_DETAILVIEWSTYLE
350
6A
  3
ACAD_GROUP
350
D
  3
ACAD_LAYOUT
350
62
  3
ACAD_MATERIAL
350
10
  3
ACAD_MLEADERSTYLE
350
66
  3
ACAD_MLINESTYLE
350
5F
  3
ACAD_PLOTSETTINGS
350
61
  3
ACAD_PLOTSTYLENAME
350
E
  3
ACAD_SCALELIST
350
42
  3
ACAD_SECTIONVIEWSTYLE
350
68
  3
ACAD_TABLESTYLE
350
64
  3
ACAD_VISUALSTYLE
350
29
  3
ACDB_RECOMPOSE_DATA
350
95
  3
AcDbVariableDictionary
350
8D
  0
DICTIONARY
  5
63
102
{ACAD_REACTORS
330
C
102
}
330
C
100
AcDbDictionary
281
     1
  0
DICTIONARY
  5
6A
102
{ACAD_REACTORS
330
C
102
}
330
C
100
AcDbDictionary
281
     1
  3
Imperial24
350
6B
  0
DICTIONARY
  5
D
102
{ACAD_REACTORS
330
C
102
}
330
C
100
AcDbDictionary
281
     1
  0
DICTIONARY
  5
62
102
{ACAD_REACTORS
330
C
102
}
330
C
100
AcDbDictionary
281
     1
  3
Layout1
350
6F
  3
Layout2
350
77
  3
Model
350
73
  0
DICTIONARY
  5
10
102
{ACAD_REACTORS
330
C
102
}
330
C
100
AcDbDictionary
281
     1
  3
ByBlock
350
19
  3
ByLayer
350
11
  3
Global
350
21
  0
DICTIONARY
  5
66
102
{ACAD_REACTORS
330
C
102
}
330
C
100
AcDbDictionary
281
     1
  3
Standard
350
67
  0
DICTIONARY
  5
5F
102
{ACAD_REACTORS
330
C
102
}
330
C
100
AcDbDictionary
281
     1
  3
Standard
350
60
  0
DICTIONARY
  5
61
102
{ACAD_REACTORS
330
C
102
}
330
C
100
AcDbDictionary
281
     1
  0
ACDBDICTIONARYWDFLT
  5
E
102
{ACAD_REACTORS
330
C
102
}
330
C
100
AcDbDictionary
281
     1
  3
Normal
350
F
100
AcDbDictionaryWithDefault
340
F
  0
DICTIONARY
  5
42
102
{ACAD_REACTORS
330
C
102
}
330
C
100
AcDbDictionary
281
     1
  3
A0
350
43
  3
A1
350
44
  3
A2
350
45
  3
A3
350
46
  3
A4
350
47
  3
A5
350
48
  3
A6
350
49
  3
A7
350
4A
  3
A8
350
4B
  3
A9
350
4C
  3
B0
350
4D
  3
B1
350
4E
  3
B2
350
4F
  3
B3
350
50
  3
B4
350
51
  3
B5
350
52
  3
B6
350
53
  0
DICTIONARY
  5
68
102
{ACAD_REACTORS
330
C
102
}
330
C
100
AcDbDictionary
281
     1
  3
Imperial24
350
69
  0
DICTIONARY
  5
64
102
{ACAD_REACTORS
330
C
102
}
330
C
100
AcDbDictionary
281
     1
  3
Standard
350
65
  0
DICTIONARY
  5
29
102
{ACAD_REACTORS
330
C
102
}
330
C
100
AcDbDictionary
281
     1
  3
2dWireframe
350
2F
  3
Basic
350
2E
  3
Brighten
350
35
  3
ColorChange
350
39
  3
Conceptual
350
32
  3
Dim
350
34
  3
EdgeColorOff
350
41
  3
Facepattern
350
38
  3
Flat
350
2A
  3
FlatWithEdges
350
2B
  3
Gouraud
350
2C
  3
GouraudWithEdges
350
2D
  3
Hidden
350
31
  3
JitterOff
350
3F
  3
Linepattern
350
37
  3
OverhangOff
350
40
  3
Realistic
350
33
  3
Shaded
350
3E
  3
Shaded with edges
350
3D
  3
Shades of Gray
350
3A
  3
Sketchy
350
3B
  3
Thicken
350
36
  3
Wireframe
350
30
  3
X-Ray
350
3C
  0
XRECORD
  5
95
102
{ACAD_REACTORS
330
C
102
}
330
C
100
AcDbXrecord
280
     1
 90
        1
330
65
  0
DICTIONARY
  5
8D
102
{ACAD_REACTORS
330
C
102
}
330
C
100
AcDbDictionary
281
     1
  3
CANNOSCALE
350
92
  3
CMLEADERSTYLE
350
8F
  3
CTABLESTYLE
350
8E
  3
CVIEWDETAILSTYLE
350
90
  3
CVIEWSECTIONSTYLE
350
91
  0
ACDBDETAILVIEWSTYLE
  5
6B
102
{ACAD_REACTORS
330
6A
102
}
330
6A
100
AcDbModelDocViewStyle
 70
     0
  3
Imperial24
290
     1
300
Imperial24
 90
        0
100
AcDbDetailViewStyle
 70
     0
 71
     0
 90
        3
 71
     1
340
55
 62
   256
 40
0.24
340
0
 62
   256
 40
0.24
300

 40
0.36
280
     3
 71
     2
340
5D
 90
       25
 62
   256
 71
     3
340
55
 62
   256
 40
0.24
 90
        1
 40
0.75
 90
        1
300
%<\AcVar ViewType \f "%tc1">% %<\AcVar ViewDetailId>%\PSCALE %<\AcVar ViewScale \f "%sn">%
 71
     4
340
5D
 90
       25
 62
   256
340
5D
 90
       25
 62
   256
280
     0
  0
LAYOUT
  5
6F
102
{ACAD_REACTORS
330
62
102
}
330
62
100
AcDbPlotSettings
  1

  2

  4

  6

 40
0.0
 41
0.0
 42
0.0
 43
0.0
 44
0.0
 45
0.0
 46
0.0
 47
0.0
 48
0.0
 49
0.0
140
0.0
141
0.0
142
1.0
143
1.0
 70
   688
 72
     0
 73
     0
 74
     5
  7

 75
    16
147
1.0
 76
     0
 77
     2
 78
   300
148
0.0
149
0.0
100
AcDbLayout
  1
Layout1
 70
     1
 71
     1
 10
0.0
 20
0.0
 11
12.0
 21
9.0
 12
0.0
 22
0.0
 32
0.0
 14
0.0
 24
0.0
 34
0.0
 15
0.0
 25
0.0
 35
0.0
146
0.0
 13
0.0
 23
0.0
 33
0.0
 16
1.0
 26
0.0
 36
0.0
 17
0.0
 27
1.0
 37
0.0
 76
     0
330
6C
  0
LAYOUT
  5
77
102
{ACAD_REACTORS
330
62
102
}
330
62
100
AcDbPlotSettings
  1

  2

  4

  6

 40
0.0
 41
0.0
 42
0.0
 43
0.0
 44
0.0
 45
0.0
 46
0.0
 47
0.0
 48
0.0
 49
0.0
140
0.0
141
0.0
142
1.0
143
1.0
 70
   688
 72
     0
 73
     0
 74
     5
  7

 75
    16
147
1.0
 76
     0
 77
     2
 78
   300
148
0.0
149
0.0
100
AcDbLayout
  1
Layout2
 70
     1
 71
     2
 10
0.0
 20
0.0
 11
12.0
 21
9.0
 12
0.0
 22
0.0
 32
0.0
 14
0.0
 24
0.0
 34
0.0
 15
0.0
 25
0.0
 35
0.0
146
0.0
 13
0.0
 23
0.0
 33
0.0
 16
1.0
 26
0.0
 36
0.0
 17
0.0
 27
1.0
 37
0.0
 76
     0
330
74
  0
LAYOUT
  5
73
102
{ACAD_REACTORS
330
62
102
}
330
62
100
AcDbPlotSettings
  1

  2

  4

  6

 40
0.0
 41
0.0
 42
0.0
 43
0.0
 44
0.0
 45
0.0
 46
0.0
 47
0.0
 48
0.0
 49
0.0
140
0.0
141
0.0
142
1.0
143
1.0
 70
  1712
 72
     0
 73
     0
 74
     0
  7

 75
     0
147
1.0
 76
     0
 77
     2
 78
   300
148
0.0
149
0.0
100
AcDbLayout
  1
Model
 70
     1
 71
     0
 10
0.0
 20
0.0
 11
12.0
 21
9.0
 12
0.0
 22
0.0
 32
0.0
 14
0.0
 24
0.0
 34
0.0
 15
0.0
 25
0.0
 35
0.0
146
0.0
 13
0.0
 23
0.0
 33
0.0
 16
1.0
 26
0.0
 36
0.0
 17
0.0
 27
1.0
 37
0.0
 76
     0
330
70
  0
MATERIAL
  5
19
102
{ACAD_XDICTIONARY
360
1A
102
}
102
{ACAD_REACTORS
330
10
102
}
330
10
100
AcDbMaterial
  1
ByBlock
 72
     0
 43
0.0208333333333333
 43
0.0
 43
0.0
 43
0.0
 43
0.0
 43
0.0208333333333333
 43
0.0
 43
0.0
 43
0.0
 43
0.0
 43
1.0
 43
0.0
 43
0.0
 43
0.0
 43
0.0
 43
1.0
 77
     0
 47
0.0208333333333333
 47
0.0
 47
0.0
 47
0.0
 47
0.0
 47
0.0208333333333333
 47
0.0
 47
0.0
 47
0.0
 47
0.0
 47
1.0
 47
0.0
 47
0.0
 47
0.0
 47
0.0
 47
1.0
171
     0
 49
0.0208333333333333
 49
0.0
 49
0.0
 49
0.0
 49
0.0
 49
0.0208333333333333
 49
0.0
 49
0.0
 49
0.0
 49
0.0
 49
1.0
 49
0.0
 49
0.0
 49
0.0
 49
0.0
 49
1.0
175
     0
142
0.0208333333333333
142
0.0
142
0.0
142
0.0
142
0.0
142
0.0208333333333333
142
0.0
142
0.0
142
0.0
142
0.0
142
1.0
142
0.0
142
0.0
142
0.0
142
0.0
142
1.0
179
     0
144
0.0208333333333333
144
0.0
144
0.0
144
0.0
144
0.0
144
0.0208333333333333
144
0.0
144
0.0
144
0.0
144
0.0
144
1.0
144
0.0
144
0.0
144
0.0
144
0.0
144
1.0
147
0.0208333333333333
147
0.0
147
0.0
147
0.0
147
0.0
147
0.0208333333333333
147
0.0
147
0.0
147
0.0
147
0.0
147
1.0
147
0.0
147
0.0
147
0.0
147
0.0
147
1.0
  0
MATERIAL
  5
11
102
{ACAD_XDICTIONARY
360
12
102
}
102
{ACAD_REACTORS
330
10
102
}
330
10
100
AcDbMaterial
  1
ByLayer
 72
     0
 43
0.0208333333333333
 43
0.0
 43
0.0
 43
0.0
 43
0.0
 43
0.0208333333333333
 43
0.0
 43
0.0
 43
0.0
 43
0.0
 43
1.0
 43
0.0
 43
0.0
 43
0.0
 43
0.0
 43
1.0
 77
     0
 47
0.0208333333333333
 47
0.0
 47
0.0
 47
0.0
 47
0.0
 47
0.0208333333333333
 47
0.0
 47
0.0
 47
0.0
 47
0.0
 47
1.0
 47
0.0
 47
0.0
 47
0.0
 47
0.0
 47
1.0
171
     0
 49
0.0208333333333333
 49
0.0
 49
0.0
 49
0.0
 49
0.0
 49
0.0208333333333333
 49
0.0
 49
0.0
 49
0.0
 49
0.0
 49
1.0
 49
0.0
 49
0.0
 49
0.0
 49
0.0
 49
1.0
175
     0
142
0.0208333333333333
142
0.0
142
0.0
142
0.0
142
0.0
142
0.0208333333333333
142
0.0
142
0.0
142
0.0
142
0.0
142
1.0
142
0.0
142
0.0
142
0.0
142
0.0
142
1.0
179
     0
144
0.0208333333333333
144
0.0
144
0.0
144
0.0
144
0.0
144
0.0208333333333333
144
0.0
144
0.0
144
0.0
144
0.0
144
1.0
144
0.0
144
0.0
144
0.0
144
0.0
144
1.0
147
0.0208333333333333
147
0.0
147
0.0
147
0.0
147
0.0
147
0.0208333333333333
147
0.0
147
0.0
147
0.0
147
0.0
147
1.0
147
0.0
147
0.0
147
0.0
147
0.0
147
1.0
  0
MATERIAL
  5
21
102
{ACAD_XDICTIONARY
360
22
102
}
102
{ACAD_REACTORS
330
10
102
}
330
10
100
AcDbMaterial
  1
Global
 72
     0
 43
0.0208333333333333
 43
0.0
 43
0.0
 43
0.0
 43
0.0
 43
0.0208333333333333
 43
0.0
 43
0.0
 43
0.0
 43
0.0
 43
1.0
 43
0.0
 43
0.0
 43
0.0
 43
0.0
 43
1.0
 77
     0
 47
0.0208333333333333
 47
0.0
 47
0.0
 47
0.0
 47
0.0
 47
0.0208333333333333
 47
0.0
 47
0.0
 47
0.0
 47
0.0
 47
1.0
 47
0.0
 47
0.0
 47
0.0
 47
0.0
 47
1.0
171
     0
 49
0.0208333333333333
 49
0.0
 49
0.0
 49
0.0
 49
0.0
 49
0.0208333333333333
 49
0.0
 49
0.0
 49
0.0
 49
0.0
 49
1.0
 49
0.0
 49
0.0
 49
0.0
 49
0.0
 49
1.0
175
     0
142
0.0208333333333333
142
0.0
142
0.0
142
0.0
142
0.0
142
0.0208333333333333
142
0.0
142
0.0
142
0.0
142
0.0
142
1.0
142
0.0
142
0.0
142
0.0
142
0.0
142
1.0
179
     0
144
0.0208333333333333
144
0.0
144
0.0
144
0.0
144
0.0
144
0.0208333333333333
144
0.0
144
0.0
144
0.0
144
0.0
144
1.0
144
0.0
144
0.0
144
0.0
144
0.0
144
1.0
147
0.0208333333333333
147
0.0
147
0.0
147
0.0
147
0.0
147
0.0208333333333333
147
0.0
147
0.0
147
0.0
147
0.0
147
1.0
147
0.0
147
0.0
147
0.0
147
0.0
147
1.0
  0
MLEADERSTYLE
  5
67
102
{ACAD_REACTORS
330
66
102
}
330
66
100
AcDbMLeaderStyle
179
     2
170
     2
171
     1
172
     0
 90
        2
 40
0.0
 41
0.0
173
     1
 91
-1056964608
340
5B
 92
       -2
290
     1
 42
0.09
291
     1
 43
0.36
  3
Standard
 44
0.18
300

342
55
174
     1
178
     6
175
     1
176
     0
 93
-1056964608
 45
0.18
292
     0
297
     0
 46
0.18
 94
-1056964608
 47
1.0
 49
1.0
140
1.0
293
     1
141
0.0
294
     1
177
     0
142
1.0
295
     1
296
     0
143
0.125
271
     0
272
     9
273
     9
298
     1
  0
MLINESTYLE
  5
60
102
{ACAD_REACTORS
330
5F
102
}
330
5F
100
AcDbMlineStyle
  2
STANDARD
 70
     0
  3

 62
   256
 51
90.0
 52
90.0
 71
     2
 49
0.5
 62
   256
  6
BYLAYER
 49
-0.5
 62
   256
  6
BYLAYER
  0
ACDBPLACEHOLDER
  5
F
102
{ACAD_REACTORS
330
E
102
}
330
E
  0
SCALE
  5
43
102
{ACAD_REACTORS
330
42
102
}
330
42
100
AcDbScale
 70
     0
300
1:1
140
1.0
141
1.0
290
     1
  0
SCALE
  5
44
102
{ACAD_REACTORS
330
42
102
}
330
42
100
AcDbScale
 70
     0
300
1/128" = 1'-0"
140
0.0078125
141
12.0
290
     0
  0
SCALE
  5
45
102
{ACAD_REACTORS
330
42
102
}
330
42
100
AcDbScale
 70
     0
300
1/64" = 1'-0"
140
0.015625
141
12.0
290
     0
  0
SCALE
  5
46
102
{ACAD_REACTORS
330
42
102
}
330
42
100
AcDbScale
 70
     0
300
1/32" = 1'-0"
140
0.03125
141
12.0
290
     0
  0
SCALE
  5
47
102
{ACAD_REACTORS
330
42
102
}
330
42
100
AcDbScale
 70
     0
300
1/16" = 1'-0"
140
0.0625
141
12.0
290
     0
  0
SCALE
  5
48
102
{ACAD_REACTORS
330
42
102
}
330
42
100
AcDbScale
 70
     0
300
3/32" = 1'-0"
140
0.09375
141
12.0
290
     0
  0
SCALE
  5
49
102
{ACAD_REACTORS
330
42
102
}
330
42
100
AcDbScale
 70
     0
300
1/8" = 1'-0"
140
0.125
141
12.0
290
     0
  0
SCALE
  5
4A
102
{ACAD_REACTORS
330
42
102
}
330
42
100
AcDbScale
 70
     0
300
3/16" = 1'-0"
140
0.1875
141
12.0
290
     0
  0
SCALE
  5
4B
102
{ACAD_REACTORS
330
42
102
}
330
42
100
AcDbScale
 70
     0
300
1/4" = 1'-0"
140
0.25
141
12.0
290
     0
  0
SCALE
  5
4C
102
{ACAD_REACTORS
330
42
102
}
330
42
100
AcDbScale
 70
     0
300
3/8" = 1'-0"
140
0.375
141
12.0
290
     0
  0
SCALE
  5
4D
102
{ACAD_REACTORS
330
42
102
}
330
42
100
AcDbScale
 70
     0
300
1/2" = 1'-0"
140
0.5
141
12.0
290
     0
  0
SCALE
  5
4E
102
{ACAD_REACTORS
330
42
102
}
330
42
100
AcDbScale
 70
     0
300
3/4" = 1'-0"
140
0.75
141
12.0
290
     0
  0
SCALE
  5
4F
102
{ACAD_REACTORS
330
42
102
}
330
42
100
AcDbScale
 70
     0
300
1" = 1'-0"
140
1.0
141
12.0
290
     0
  0
SCALE
  5
50
102
{ACAD_REACTORS
330
42
102
}
330
42
100
AcDbScale
 70
     0
300
1-1/2" = 1'-0"
140
1.5
141
12.0
290
     0
  0
SCALE
  5
51
102
{ACAD_REACTORS
330
42
102
}
330
42
100
AcDbScale
 70
     0
300
3" = 1'-0"
140
3.0
141
12.0
290
     0
  0
SCALE
  5
52
102
{ACAD_REACTORS
330
42
102
}
330
42
100
AcDbScale
 70
     0
300
6" = 1'-0"
140
6.0
141
12.0
290
     0
  0
SCALE
  5
53
102
{ACAD_REACTORS
330
42
102
}
330
42
100
AcDbScale
 70
     0
300
1'-0" = 1'-0"
140
12.0
141
12.0
290
     0
  0
ACDBSECTIONVIEWSTYLE
  5
69
102
{ACAD_REACTORS
330
68
102
}
330
68
100
AcDbModelDocViewStyle
 70
     0
  3
Imperial24
290
     1
300
Imperial24
 90
        0
100
AcDbSectionViewStyle
 70
     0
 71
     0
 90
       78
 71
     1
340
55
 62
   256
 40
0.24
340
0
340
0
 62
   256
 40
0.24
300
I, O, Q, S, X, Z
 40
0.48
 90
        3
 40
0.18
 90
        1
 71
     2
340
5D
 90
       25
 62
   256
340
5D
 90
       50
 62
   256
 40
0.24
 40
0.0
 40
0.24
 71
     3
340
55
 62
   256
 40
0.24
 90
        1
 40
0.75
 90
        1
300
%<\AcVar ViewType \f "%tc1">% %<\AcVar ViewSectionStartId>%-%<\AcVar ViewSectionEndId>%\PSCALE %<\AcVar ViewScale \f "%sn">%
 71
     4
 62
   256
 62
   257
300
ANSI31
 40
1.0
 90
        0
290
     0
290
     0
 90
        6
 40
0.0
 40
1.570796326794896
 40
0.2617993877991494
 40
1.308996938995747
 40
-0.2617993877991494
 40
1.832595714594046
  0
TABLESTYLE
  5
65
102
{ACAD_XDICTIONARY
360
93
102
}
102
{ACAD_REACTORS
330
64
102
}
330
64
100
AcDbTableStyle
280
     0
  3
Standard
 70
     0
 71
     0
 40
0.06
 41
0.06
280
     0
281
     0
  7
Standard
140
0.18
170
     2
 62
     0
 63
     7
283
     0
 90
      512
 91
        0
  1

274
    -2
284
     1
 64
     0
275
    -2
285
     1
 65
     0
276
    -2
286
     1
 66
     0
277
    -2
287
     1
 67
     0
278
    -2
288
     1
 68
     0
279
    -2
289
     1
 69
     0
  7
Standard
140
0.25
170
     5
 62
     0
 63
     7
283
     0
 90
      512
 91
        0
  1

274
    -2
284
     1
 64
     0
275
    -2
285
     1
 65
     0
276
    -2
286
     1
 66
     0
277
    -2
287
     1
 67
     0
278
    -2
288
     1
 68
     0
279
    -2
289
     1
 69
     0
  7
Standard
140
0.18
170
     5
 62
     0
 63
     7
283
     0
 90
      512
 91
        0
  1

274
    -2
284
     1
 64
     0
275
    -2
285
     1
 65
     0
276
    -2
286
     1
 66
     0
277
    -2
287
     1
 67
     0
278
    -2
288
     1
 68
     0
279
    -2
289
     1
 69
     0
  0
VISUALSTYLE
  5
2F
102
{ACAD_REACTORS
330
29
102
}
330
29
100
AcDbVisualStyle
  2
2dWireframe
 70
     4
177
     3
291
     0
 70
    58
 90
        0
176
     1
 90
        2
176
     1
 90
        0
176
     1
 90
        0
176
     1
 40
0.6
176
     1
 40
30.0
176
     1
 62
     7
420
 16777215
176
     1
 90
        1
176
     1
 90
        4
176
     1
 62
     7
176
     1
 62
   257
176
     1
 90
        1
176
     1
 90
        1
176
     1
 40
1.0
176
     1
 90
        0
176
     1
 62
   257
176
     1
 40
1.0
176
     1
 90
        1
176
     1
 90
        6
176
     1
 90
        2
176
     1
 62
     7
176
     1
 90
        5
176
     1
 90
        0
176
     1
 90
        0
176
     1
290
     0
176
     1
 90
        1
176
     1
 40
0.0
176
     1
 90
        0
176
     1
290
     1
176
     1
290
     1
176
     1
290
     0
176
     1
290
     0
176
     1
290
     0
176
     1
290
     0
176
     1
290
     0
176
     1
290
     0
176
     1
290
     0
176
     1
 90
       50
176
     1
 40
0.0
176
     1
 40
1.0
176
     1
 90
        0
176
     1
 62
    18
420
        0
176
     1
 90
       50
176
     1
 90
        3
176
     1
 62
     5
420
      255
176
     1
290
     0
176
     1
 90
       50
176
     1
 90
       50
176
     1
 90
       50
176
     1
290
     0
176
     1
 90
       50
176
     1
 62
   256
176
     0
 40
1.0
176
     0
 90
        2
176
     1
  1
strokes_ogs.tif
176
     1
290
     0
176
     1
 40
1.0
176
     1
 40
1.0
176
     1
  0
VISUALSTYLE
  5
2E
102
{ACAD_REACTORS
330
29
102
}
330
29
100
AcDbVisualStyle
  2
Basic
 70
     7
177
     3
291
     1
 70
    58
 90
        1
176
     1
 90
        0
176
     1
 90
        1
176
     1
 90
        0
176
     1
 40
0.6
176
     1
 40
30.0
176
     1
 62
     7
420
 16777215
176
     1
 90
        0
176
     1
 90
        4
176
     1
 62
     7
176
     1
 62
   257
176
     1
 90
        1
176
     1
 90
        1
176
     1
 40
1.0
176
     1
 90
        8
176
     1
 62
     7
176
     1
 40
1.0
176
     1
 90
        1
176
     1
 90
        6
176
     1
 90
        2
176
     1
 62
     7
176
     1
 90
        5
176
     1
 90
        0
176
     1
 90
        0
176
     1
290
     0
176
     1
 90
        1
176
     1
 40
0.0
176
     1
 90
        0
176
     1
290
     0
176
     1
290
     1
176
     1
290
     1
176
     1
290
     0
176
     1
290
     0
176
     1
290
     0
176
     1
290
     0
176
     1
290
     0
176
     1
290
     0
176
     1
 90
       50
176
     1
 40
0.0
176
     1
 40
1.0
176
     1
 90
        0
176
     1
 62
    18
420
        0
176
     1
 90
       50
176
     1
 90
        3
176
     1
 62
     5
420
      255
176
     1
290
     0
176
     1
 90
       50
176
     1
 90
       50
176
     1
 90
       50
176
     1
290
     0
176
     1
 90
       50
176
     1
 62
   256
176
     0
 40
1.0
176
     0
 90
        2
176
     1
  1
strokes_ogs.tif
176
     1
290
     0
176
     1
 40
1.0
176
     1
 40
1.0
176
     1
  0
VISUALSTYLE
  5
35
102
{ACAD_REACTORS
330
29
102
}
330
29
100
AcDbVisualStyle
  2
Brighten
 70
    12
177
     3
291
     1
 70
    58
 90
        2
176
     1
 90
        2
176
     1
 90
        0
176
     1
 90
        0
176
     1
 40
0.6
176
     1
 40
30.0
176
     1
 62
     7
420
 16777215
176
     1
 90
        1
176
     1
 90
        4
176
     1
 62
     7
176
     1
 62
   257
176
     1
 90
        1
176
     1
 90
        1
176
     1
 40
1.0
176
     1
 90
        8
176
     1
 62
     7
176
     1
 40
1.0
176
     1
 90
        1
176
     1
 90
        6
176
     1
 90
        2
176
     1
 62
     7
176
     1
 90
        5
176
     1
 90
        0
176
     1
 90
        0
176
     1
290
     0
176
     1
 90
        1
176
     1
 40
50.0
176
     1
 90
        0
176
     1
290
     0
176
     1
290
     1
176
     1
290
     1
176
     1
290
     0
176
     1
290
     0
176
     1
290
     0
176
     1
290
     0
176
     1
290
     0
176
     1
290
     0
176
     1
 90
       50
176
     1
 40
0.0
176
     1
 40
1.0
176
     1
 90
        0
176
     1
 62
    18
420
        0
176
     1
 90
       50
176
     1
 90
        3
176
     1
 62
     5
420
      255
176
     1
290
     0
176
     1
 90
       50
176
     1
 90
       50
176
     1
 90
       50
176
     1
290
     0
176
     1
 90
       50
176
     1
 62
   256
176
     0
 40
1.0
176
     0
 90
        2
176
     1
  1
strokes_ogs.tif
176
     1
290
     0
176
     1
 40
1.0
176
     1
 40
1.0
176
     1
  0
VISUALSTYLE
  5
39
102
{ACAD_REACTORS
330
29
102
}
330
29
100
AcDbVisualStyle
  2
ColorChange
 70
    16
177
     3
291
     1
 70
    58
 90
        2
176
     1
 90
        2
176
     1
 90
        3
176
     1
 90
        0
176
     1
 40
0.6
176
     1
 40
30.0
176
     1
 62
     8
420
  8421504
176
     1
 90
        1
176
     1
 90
        4
176
     1
 62
     7
176
     1
 62
   257
176
     1
 90
        1
176
     1
 90
        1
176
     1
 40
1.0
176
     1
 90
        8
176
     1
 62
     8
420
  8421504
176
     1
 40
1.0
176
     1
 90
        1
176
     1
 90
        6
176
     1
 90
        2
176
     1
 62
     7
176
     1
 90
        5
176
     1
 90
        0
176
     1
 90
        0
176
     1
290
     0
176
     1
 90
        1
176
     1
 40
0.0
176
     1
 90
        0
176
     1
290
     0
176
     1
290
     1
176
     1
290
     1
176
     1
290
     0
176
     1
290
     0
176
     1
290
     0
176
     1
290
     0
176
     1
290
     0
176
     1
290
     0
176
     1
 90
       50
176
     1
 40
0.0
176
     1
 40
1.0
176
     1
 90
        0
176
     1
 62
    18
420
        0
176
     1
 90
       50
176
     1
 90
        3
176
     1
 62
     5
420
      255
176
     1
290
     0
176
     1
 90
       50
176
     1
 90
       50
176
     1
 90
       50
176
     1
290
     0
176
     1
 90
       50
176
     1
 62
   256
176
     0
 40
1.0
176
     0
 90
        2
176
     1
  1
strokes_ogs.tif
176
     1
290
     0
176
     1
 40
1.0
176
     1
 40
1.0
176
     1
  0
VISUALSTYLE
  5
32
102
{ACAD_REACTORS
330
29
102
}
330
29
100
AcDbVisualStyle
  2
Conceptual
 70
     9
177
     3
291
     0
 70
    58
 90
        3
176
     1
 90
        2
176
     1
 90
        0
176
     1
 90
        0
176
     1
 40
0.6
176
     1
 40
30.0
176
     1
 62
     7
420
 16777215
176
     1
 90
        2
176
     1
 90
        2
176
     1
 62
     7
176
     1
 62
   257
176
     1
 90
        1
176
     1
 90
        1
176
     1
 40
179.0
176
     1
 90
        8
176
     1
 62
     7
176
     1
 40
1.0
176
     1
 90
        1
176
     1
 90
        6
176
     1
 90
        2
176
     1
 62
     7
176
     1
 90
        3
176
     1
 90
        0
176
     1
 90
        0
176
     1
290
     0
176
     1
 90
        1
176
     1
 40
0.0
176
     1
 90
        0
176
     1
290
     0
176
     1
290
     1
176
     1
290
     1
176
     1
290
     0
176
     1
290
     0
176
     1
290
     0
176
     1
290
     0
176
     1
290
     0
176
     1
290
     0
176
     1
 90
       50
176
     1
 40
0.0
176
     1
 40
1.0
176
     1
 90
        0
176
     1
 62
    18
420
        0
176
     1
 90
       50
176
     1
 90
        3
176
     1
 62
     5
420
      255
176
     1
290
     0
176
     1
 90
       50
176
     1
 90
       50
176
     1
 90
       50
176
     1
290
     0
176
     1
 90
       50
176
     1
 62
   256
176
     0
 40
1.0
176
     0
 90
        2
176
     1
  1
strokes_ogs.tif
176
     1
290
     0
176
     1
 40
1.0
176
     1
 40
1.0
176
     1
  0
VISUALSTYLE
  5
34
102
{ACAD_REACTORS
330
29
102
}
330
29
100
AcDbVisualStyle
  2
Dim
 70
    11
177
     3
291
     1
 70
    58
 90
        2
176
     1
 90
        2
176
     1
 90
        0
176
     1
 90
        0
176
     1
 40
0.6
176
     1
 40
30.0
176
     1
 62
     7
420
 16777215
176
     1
 90
        1
176
     1
 90
        4
176
     1
 62
     7
176
     1
 62
   257
176
     1
 90
        1
176
     1
 90
        1
176
     1
 40
1.0
176
     1
 90
        8
176
     1
 62
     7
176
     1
 40
1.0
176
     1
 90
        1
176
     1
 90
        6
176
     1
 90
        2
176
     1
 62
     7
176
     1
 90
        5
176
     1
 90
        0
176
     1
 90
        0
176
     1
290
     0
176
     1
 90
        1
176
     1
 40
-50.0
176
     1
 90
        0
176
     1
290
     0
176
     1
290
     1
176
     1
290
     1
176
     1
290
     0
176
     1
290
     0
176
     1
290
     0
176
     1
290
     0
176
     1
290
     0
176
     1
290
     0
176
     1
 90
       50
176
     1
 40
0.0
176
     1
 40
1.0
176
     1
 90
        0
176
     1
 62
    18
420
        0
176
     1
 90
       50
176
     1
 90
        3
176
     1
 62
     5
420
      255
176
     1
290
     0
176
     1
 90
       50
176
     1
 90
       50
176
     1
 90
       50
176
     1
290
     0
176
     1
 90
       50
176
     1
 62
   256
176
     0
 40
1.0
176
     0
 90
        2
176
     1
  1
strokes_ogs.tif
176
     1
290
     0
176
     1
 40
1.0
176
     1
 40
1.0
176
     1
  0
VISUALSTYLE
  5
41
102
{ACAD_REACTORS
330
29
102
}
330
29
100
AcDbVisualStyle
  2
EdgeColorOff
 70
    22
177
     3
291
     1
 70
    58
 90
        2
176
     0
 90
        2
176
     0
 90
        0
176
     0
 90
        0
176
     0
 40
0.6
176
     0
 40
30.0
176
     0
 62
     7
420
 16777215
176
     0
 90
        1
176
     0
 90
        4
176
     0
 62
     7
176
     0
 62
   257
176
     0
 90
        1
176
     0
 90
        1
176
     0
 40
1.0
176
     0
 90
        8
176
     2
 62
     7
176
     0
 40
1.0
176
     0
 90
        1
176
     0
 90
        6
176
     0
 90
        2
176
     0
 62
     7
176
     0
 90
        5
176
     0
 90
        0
176
     0
 90
        0
176
     0
290
     0
176
     0
 90
        1
176
     0
 40
0.0
176
     0
 90
        0
176
     0
290
     0
176
     0
290
     1
176
     0
290
     1
176
     0
290
     0
176
     0
290
     0
176
     0
290
     0
176
     0
290
     0
176
     0
290
     0
176
     0
290
     0
176
     0
 90
       50
176
     0
 40
0.0
176
     0
 40
1.0
176
     0
 90
        0
176
     0
 62
    18
420
        0
176
     0
 90
       50
176
     0
 90
        3
176
     0
 62
     5
420
      255
176
     0
290
     0
176
     0
 90
       50
176
     0
 90
       50
176
     0
 90
       50
176
     0
290
     0
176
     0
 90
       50
176
     0
 62
   256
176
     0
 40
1.0
176
     0
 90
        2
176
     0
  1
strokes_ogs.tif
176
     0
290
     0
176
     0
 40
1.0
176
     0
 40
1.0
176
     0
  0
VISUALSTYLE
  5
38
102
{ACAD_REACTORS
330
29
102
}
330
29
100
AcDbVisualStyle
  2
Facepattern
 70
    15
177
     3
291
     1
 70
    58
 90
        2
176
     1
 90
        2
176
     1
 90
        0
176
     1
 90
        0
176
     1
 40
0.6
176
     1
 40
30.0
176
     1
 62
     7
420
 16777215
176
     1
 90
        1
176
     1
 90
        4
176
     1
 62
     7
176
     1
 62
   257
176
     1
 90
        1
176
     1
 90
        1
176
     1
 40
1.0
176
     1
 90
        8
176
     1
 62
     7
176
     1
 40
1.0
176
     1
 90
        1
176
     1
 90
        6
176
     1
 90
        2
176
     1
 62
     7
176
     1
 90
        5
176
     1
 90
        0
176
     1
 90
        0
176
     1
290
     0
176
     1
 90
        1
176
     1
 40
0.0
176
     1
 90
        0
176
     1
290
     0
176
     1
290
     1
176
     1
290
     1
176
     1
290
     0
176
     1
290
     0
176
     1
290
     0
176
     1
290
     0
176
     1
290
     0
176
     1
290
     0
176
     1
 90
       50
176
     1
 40
0.0
176
     1
 40
1.0
176
     1
 90
        0
176
     1
 62
    18
420
        0
176
     1
 90
       50
176
     1
 90
        3
176
     1
 62
     5
420
      255
176
     1
290
     0
176
     1
 90
       50
176
     1
 90
       50
176
     1
 90
       50
176
     1
290
     0
176
     1
 90
       50
176
     1
 62
   256
176
     0
 40
1.0
176
     0
 90
        2
176
     1
  1
strokes_ogs.tif
176
     1
290
     0
176
     1
 40
1.0
176
     1
 40
1.0
176
     1
  0
VISUALSTYLE
  5
2A
102
{ACAD_REACTORS
330
29
102
}
330
29
100
AcDbVisualStyle
  2
Flat
 70
     0
177
     3
291
     1
 70
    58
 90
        2
176
     1
 90
        1
176
     1
 90
        1
176
     1
 90
        2
176
     1
 40
0.6
176
     1
 40
30.0
176
     1
 62
     7
420
 16777215
176
     1
 90
        0
176
     1
 90
        0
176
     1
 62
     7
176
     1
 62
   257
176
     1
 90
        1
176
     1
 90
        1
176
     1
 40
1.0
176
     1
 90
        8
176
     1
 62
     7
176
     1
 40
1.0
176
     1
 90
        1
176
     1
 90
        6
176
     1
 90
        2
176
     1
 62
     7
176
     1
 90
        5
176
     1
 90
        0
176
     1
 90
        0
176
     1
290
     0
176
     1
 90
       13
176
     1
 40
0.0
176
     1
 90
        0
176
     1
290
     0
176
     1
290
     1
176
     1
290
     1
176
     1
290
     0
176
     1
290
     0
176
     1
290
     0
176
     1
290
     0
176
     1
290
     0
176
     1
290
     0
176
     1
 90
       50
176
     1
 40
0.0
176
     1
 40
1.0
176
     1
 90
        0
176
     1
 62
    18
420
        0
176
     1
 90
       50
176
     1
 90
        3
176
     1
 62
     5
420
      255
176
     1
290
     0
176
     1
 90
       50
176
     1
 90
       50
176
     1
 90
       50
176
     1
290
     0
176
     1
 90
       50
176
     1
 62
   256
176
     0
 40
1.0
176
     0
 90
        2
176
     1
  1
strokes_ogs.tif
176
     1
290
     0
176
     1
 40
1.0
176
     1
 40
1.0
176
     1
  0
VISUALSTYLE
  5
2B
102
{ACAD_REACTORS
330
29
102
}
330
29
100
AcDbVisualStyle
  2
FlatWithEdges
 70
     1
177
     3
291
     1
 70
    58
 90
        2
176
     1
 90
        1
176
     1
 90
        1
176
     1
 90
        2
176
     1
 40
0.6
176
     1
 40
30.0
176
     1
 62
     7
420
 16777215
176
     1
 90
        1
176
     1
 90
        0
176
     1
 62
     7
176
     1
 62
   257
176
     1
 90
        1
176
     1
 90
        1
176
     1
 40
1.0
176
     1
 90
        0
176
     1
 62
   257
176
     1
 40
1.0
176
     1
 90
        1
176
     1
 90
        6
176
     1
 90
        2
176
     1
 62
     7
176
     1
 90
        5
176
     1
 90
        0
176
     1
 90
        0
176
     1
290
     0
176
     1
 90
       13
176
     1
 40
0.0
176
     1
 90
        0
176
     1
290
     0
176
     1
290
     1
176
     1
290
     1
176
     1
290
     0
176
     1
290
     0
176
     1
290
     0
176
     1
290
     0
176
     1
290
     0
176
     1
290
     0
176
     1
 90
       50
176
     1
 40
0.0
176
     1
 40
1.0
176
     1
 90
        0
176
     1
 62
    18
420
        0
176
     1
 90
       50
176
     1
 90
        3
176
     1
 62
     5
420
      255
176
     1
290
     0
176
     1
 90
       50
176
     1
 90
       50
176
     1
 90
       50
176
     1
290
     0
176
     1
 90
       50
176
     1
 62
   256
176
     0
 40
1.0
176
     0
 90
        2
176
     1
  1
strokes_ogs.tif
176
     1
290
     0
176
     1
 40
1.0
176
     1
 40
1.0
176
     1
  0
VISUALSTYLE
  5
2C
102
{ACAD_REACTORS
330
29
102
}
330
29
100
AcDbVisualStyle
  2
Gouraud
 70
     2
177
     3
291
     1
 70
    58
 90
        2
176
     1
 90
        2
176
     1
 90
        1
176
     1
 90
        2
176
     1
 40
0.6
176
     1
 40
30.0
176
     1
 62
     7
420
 16777215
176
     1
 90
        0
176
     1
 90
        0
176
     1
 62
     7
176
     1
 62
   257
176
     1
 90
        1
176
     1
 90
        1
176
     1
 40
1.0
176
     1
 90
        0
176
     1
 62
     7
176
     1
 40
1.0
176
     1
 90
        1
176
     1
 90
        6
176
     1
 90
        2
176
     1
 62
     7
176
     1
 90
        5
176
     1
 90
        0
176
     1
 90
        0
176
     1
290
     0
176
     1
 90
       13
176
     1
 40
0.0
176
     1
 90
        0
176
     1
290
     0
176
     1
290
     1
176
     1
290
     1
176
     1
290
     0
176
     1
290
     0
176
     1
290
     0
176
     1
290
     0
176
     1
290
     0
176
     1
290
     0
176
     1
 90
       50
176
     1
 40
0.0
176
     1
 40
1.0
176
     1
 90
        0
176
     1
 62
    18
420
        0
176
     1
 90
       50
176
     1
 90
        3
176
     1
 62
     5
420
      255
176
     1
290
     0
176
     1
 90
       50
176
     1
 90
       50
176
     1
 90
       50
176
     1
290
     0
176
     1
 90
       50
176
     1
 62
   256
176
     0
 40
1.0
176
     0
 90
        2
176
     1
  1
strokes_ogs.tif
176
     1
290
     0
176
     1
 40
1.0
176
     1
 40
1.0
176
     1
  0
VISUALSTYLE
  5
2D
102
{ACAD_REACTORS
330
29
102
}
330
29
100
AcDbVisualStyle
  2
GouraudWithEdges
 70
     3
177
     3
291
     1
 70
    58
 90
        2
176
     1
 90
        2
176
     1
 90
        1
176
     1
 90
        2
176
     1
 40
0.6
176
     1
 40
30.0
176
     1
 62
     7
420
 16777215
176
     1
 90
        1
176
     1
 90
        0
176
     1
 62
     7
176
     1
 62
   257
176
     1
 90
        1
176
     1
 90
        1
176
     1
 40
1.0
176
     1
 90
        0
176
     1
 62
   257
176
     1
 40
1.0
176
     1
 90
        1
176
     1
 90
        6
176
     1
 90
        2
176
     1
 62
     7
176
     1
 90
        5
176
     1
 90
        0
176
     1
 90
        0
176
     1
290
     0
176
     1
 90
       13
176
     1
 40
0.0
176
     1
 90
        0
176
     1
290
     0
176
     1
290
     1
176
     1
290
     1
176
     1
290
     0
176
     1
290
     0
176
     1
290
     0
176
     1
290
     0
176
     1
290
     0
176
     1
290
     0
176
     1
 90
       50
176
     1
 40
0.0
176
     1
 40
1.0
176
     1
 90
        0
176
     1
 62
    18
420
        0
176
     1
 90
       50
176
     1
 90
        3
176
     1
 62
     5
420
      255
176
     1
290
     0
176
     1
 90
       50
176
     1
 90
       50
176
     1
 90
       50
176
     1
290
     0
176
     1
 90
       50
176
     1
 62
   256
176
     0
 40
1.0
176
     0
 90
        2
176
     1
  1
strokes_ogs.tif
176
     1
290
     0
176
     1
 40
1.0
176
     1
 40
1.0
176
     1
  0
VISUALSTYLE
  5
31
102
{ACAD_REACTORS
330
29
102
}
330
29
100
AcDbVisualStyle
  2
Hidden
 70
     6
177
     3
291
     0
 70
    58
 90
        1
176
     1
 90
        2
176
     1
 90
        2
176
     1
 90
        0
176
     1
 40
0.6
176
     1
 40
30.0
176
     1
 62
     7
420
 16777215
176
     1
 90
        2
176
     1
 90
        2
176
     1
 62
     7
176
     1
 62
   257
176
     1
 90
        2
176
     1
 90
        1
176
     1
 40
40.0
176
     1
 90
        0
176
     1
 62
   257
176
     1
 40
1.0
176
     1
 90
        1
176
     1
 90
        6
176
     1
 90
        2
176
     1
 62
     7
176
     1
 90
        3
176
     1
 90
        0
176
     1
 90
        0
176
     1
290
     0
176
     1
 90
        1
176
     1
 40
0.0
176
     1
 90
        0
176
     1
290
     0
176
     1
290
     1
176
     1
290
     1
176
     1
290
     0
176
     1
290
     0
176
     1
290
     0
176
     1
290
     0
176
     1
290
     0
176
     1
290
     0
176
     1
 90
       50
176
     1
 40
0.0
176
     1
 40
1.0
176
     1
 90
        0
176
     1
 62
    18
420
        0
176
     1
 90
       50
176
     1
 90
        3
176
     1
 62
     5
420
      255
176
     1
290
     0
176
     1
 90
       50
176
     1
 90
       50
176
     1
 90
       50
176
     1
290
     0
176
     1
 90
       50
176
     1
 62
   256
176
     0
 40
1.0
176
     0
 90
        2
176
     1
  1
strokes_ogs.tif
176
     1
290
     0
176
     1
 40
1.0
176
     1
 40
1.0
176
     1
  0
VISUALSTYLE
  5
3F
102
{ACAD_REACTORS
330
29
102
}
330
29
100
AcDbVisualStyle
  2
JitterOff
 70
    20
177
     3
291
     1
 70
    58
 90
        2
176
     0
 90
        2
176
     0
 90
        0
176
     0
 90
        0
176
     0
 40
0.6
176
     0
 40
30.0
176
     0
 62
     7
420
 16777215
176
     0
 90
        1
176
     0
 90
        4
176
     0
 62
     7
176
     0
 62
   257
176
     0
 90
        1
176
     0
 90
        1
176
     0
 40
1.0
176
     0
 90
       10
176
     2
 62
     7
176
     0
 40
1.0
176
     0
 90
        1
176
     0
 90
        6
176
     0
 90
        2
176
     0
 62
     7
176
     0
 90
        5
176
     0
 90
        0
176
     0
 90
        0
176
     0
290
     0
176
     0
 90
        1
176
     0
 40
0.0
176
     0
 90
        0
176
     0
290
     0
176
     0
290
     1
176
     0
290
     1
176
     0
290
     0
176
     0
290
     0
176
     0
290
     0
176
     0
290
     0
176
     0
290
     0
176
     0
290
     0
176
     0
 90
       50
176
     0
 40
0.0
176
     0
 40
1.0
176
     0
 90
        0
176
     0
 62
    18
420
        0
176
     0
 90
       50
176
     0
 90
        3
176
     0
 62
     5
420
      255
176
     0
290
     0
176
     0
 90
       50
176
     0
 90
       50
176
     0
 90
       50
176
     0
290
     0
176
     0
 90
       50
176
     0
 62
   256
176
     0
 40
1.0
176
     0
 90
        2
176
     0
  1
strokes_ogs.tif
176
     0
290
     0
176
     0
 40
1.0
176
     0
 40
1.0
176
     0
  0
VISUALSTYLE
  5
37
102
{ACAD_REACTORS
330
29
102
}
330
29
100
AcDbVisualStyle
  2
Linepattern
 70
    14
177
     3
291
     1
 70
    58
 90
        2
176
     1
 90
        2
176
     1
 90
        0
176
     1
 90
        0
176
     1
 40
0.6
176
     1
 40
30.0
176
     1
 62
     7
420
 16777215
176
     1
 90
        1
176
     1
 90
        4
176
     1
 62
     7
176
     1
 62
   257
176
     1
 90
        7
176
     1
 90
        7
176
     1
 40
1.0
176
     1
 90
        8
176
     1
 62
     7
176
     1
 40
1.0
176
     1
 90
        1
176
     1
 90
        6
176
     1
 90
        2
176
     1
 62
     7
176
     1
 90
        5
176
     1
 90
        0
176
     1
 90
        0
176
     1
290
     0
176
     1
 90
        1
176
     1
 40
0.0
176
     1
 90
        0
176
     1
290
     0
176
     1
290
     1
176
     1
290
     1
176
     1
290
     0
176
     1
290
     0
176
     1
290
     0
176
     1
290
     0
176
     1
290
     0
176
     1
290
     0
176
     1
 90
       50
176
     1
 40
0.0
176
     1
 40
1.0
176
     1
 90
        0
176
     1
 62
    18
420
        0
176
     1
 90
       50
176
     1
 90
        3
176
     1
 62
     5
420
      255
176
     1
290
     0
176
     1
 90
       50
176
     1
 90
       50
176
     1
 90
       50
176
     1
290
     0
176
     1
 90
       50
176
     1
 62
   256
176
     0
 40
1.0
176
     0
 90
        2
176
     1
  1
strokes_ogs.tif
176
     1
290
     0
176
     1
 40
1.0
176
     1
 40
1.0
176
     1
  0
VISUALSTYLE
  5
40
102
{ACAD_REACTORS
330
29
102
}
330
29
100
AcDbVisualStyle
  2
OverhangOff
 70
    21
177
     3
291
     1
 70
    58
 90
        2
176
     0
 90
        2
176
     0
 90
        0
176
     0
 90
        0
176
     0
 40
0.6
176
     0
 40
30.0
176
     0
 62
     7
420
 16777215
176
     0
 90
        1
176
     0
 90
        4
176
     0
 62
     7
176
     0
 62
   257
176
     0
 90
        1
176
     0
 90
        1
176
     0
 40
1.0
176
     0
 90
        9
176
     2
 62
     7
176
     0
 40
1.0
176
     0
 90
        1
176
     0
 90
        6
176
     0
 90
        2
176
     0
 62
     7
176
     0
 90
        5
176
     0
 90
        0
176
     0
 90
        0
176
     0
290
     0
176
     0
 90
        1
176
     0
 40
0.0
176
     0
 90
        0
176
     0
290
     0
176
     0
290
     1
176
     0
290
     1
176
     0
290
     0
176
     0
290
     0
176
     0
290
     0
176
     0
290
     0
176
     0
290
     0
176
     0
290
     0
176
     0
 90
       50
176
     0
 40
0.0
176
     0
 40
1.0
176
     0
 90
        0
176
     0
 62
    18
420
        0
176
     0
 90
       50
176
     0
 90
        3
176
     0
 62
     5
420
      255
176
     0
290
     0
176
     0
 90
       50
176
     0
 90
       50
176
     0
 90
       50
176
     0
290
     0
176
     0
 90
       50
176
     0
 62
   256
176
     0
 40
1.0
176
     0
 90
        2
176
     0
  1
strokes_ogs.tif
176
     0
290
     0
176
     0
 40
1.0
176
     0
 40
1.0
176
     0
  0
VISUALSTYLE
  5
33
102
{ACAD_REACTORS
330
29
102
}
330
29
100
AcDbVisualStyle
  2
Realistic
 70
     8
177
     3
291
     0
 70
    58
 90
        2
176
     1
 90
        3
176
     1
 90
        0
176
     1
 90
        2
176
     1
 40
0.6
176
     1
 40
30.0
176
     1
 62
     7
420
 16777215
176
     1
 90
        0
176
     1
 90
        0
176
     1
 62
     7
176
     1
 62
   257
176
     1
 90
        1
176
     1
 90
        1
176
     1
 40
1.0
176
     1
 90
        8
176
     1
 62
   257
176
     1
 40
1.0
176
     1
 90
        1
176
     1
 90
        6
176
     1
 90
        2
176
     1
 62
     7
176
     1
 90
        3
176
     1
 90
        0
176
     1
 90
        0
176
     1
290
     0
176
     1
 90
       13
176
     1
 40
0.0
176
     1
 90
        0
176
     1
290
     0
176
     1
290
     1
176
     1
290
     1
176
     1
290
     0
176
     1
290
     0
176
     1
290
     0
176
     1
290
     0
176
     1
290
     0
176
     1
290
     0
176
     1
 90
       50
176
     1
 40
0.0
176
     1
 40
1.0
176
     1
 90
        0
176
     1
 62
    18
420
        0
176
     1
 90
       50
176
     1
 90
        3
176
     1
 62
     5
420
      255
176
     1
290
     0
176
     1
 90
       50
176
     1
 90
       50
176
     1
 90
       50
176
     1
290
     0
176
     1
 90
       50
176
     1
 62
   256
176
     0
 40
1.0
176
     0
 90
        2
176
     1
  1
strokes_ogs.tif
176
     1
290
     0
176
     1
 40
1.0
176
     1
 40
1.0
176
     1
  0
VISUALSTYLE
  5
3E
102
{ACAD_REACTORS
330
29
102
}
330
29
100
AcDbVisualStyle
  2
Shaded
 70
    27
177
     3
291
     0
 70
    58
 90
        2
176
     1
 90
        2
176
     1
 90
        1
176
     1
 90
        2
176
     1
 40
0.6
176
     1
 40
30.0
176
     1
 62
     7
420
 16777215
176
     1
 90
        0
176
     1
 90
        4
176
     1
 62
     7
176
     1
 62
   257
176
     1
 90
        1
176
     1
 90
        1
176
     1
 40
1.0
176
     1
 90
        8
176
     1
 62
   257
176
     1
 40
1.0
176
     1
 90
        1
176
     1
 90
        6
176
     1
 90
        2
176
     1
 62
     8
420
  7895160
176
     1
 90
        3
176
     1
 90
        0
176
     1
 90
        0
176
     1
290
     0
176
     1
 90
        5
176
     1
 40
0.0
176
     1
 90
        0
176
     1
290
     0
176
     1
290
     1
176
     1
290
     1
176
     1
290
     0
176
     1
290
     0
176
     1
290
     0
176
     1
290
     0
176
     1
290
     0
176
     1
290
     0
176
     1
 90
       50
176
     1
 40
0.0
176
     1
 40
1.0
176
     1
 90
        0
176
     1
 62
    18
420
        0
176
     1
 90
       50
176
     1
 90
        3
176
     1
 62
     5
420
      255
176
     1
290
     0
176
     1
 90
       50
176
     1
 90
       50
176
     1
 90
       50
176
     1
290
     0
176
     1
 90
       50
176
     1
 62
   256
176
     0
 40
1.0
176
     0
 90
        2
176
     1
  1
strokes_ogs.tif
176
     1
290
     0
176
     1
 40
1.0
176
     1
 40
1.0
176
     1
  0
VISUALSTYLE
  5
3D
102
{ACAD_REACTORS
330
29
102
}
330
29
100
AcDbVisualStyle
  2
Shaded with edges
 70
    26
177
     3
291
     0
 70
    58
 90
        2
176
     1
 90
        2
176
     1
 90
        1
176
     1
 90
        2
176
     1
 40
0.6
176
     1
 40
30.0
176
     1
 62
     7
420
 16777215
176
     1
 90
        1
176
     1
 90
        2
176
     1
 62
     7
176
     1
 62
   257
176
     1
 90
        2
176
     1
 90
        1
176
     1
 40
1.0
176
     1
 90
        8
176
     1
 62
   257
176
     1
 40
1.0
176
     1
 90
        1
176
     1
 90
        6
176
     1
 90
        2
176
     1
 62
     7
176
     1
 90
        3
176
     1
 90
        0
176
     1
 90
        0
176
     1
290
     0
176
     1
 90
        5
176
     1
 40
0.0
176
     1
 90
        0
176
     1
290
     0
176
     1
290
     1
176
     1
290
     1
176
     1
290
     0
176
     1
290
     0
176
     1
290
     0
176
     1
290
     0
176
     1
290
     0
176
     1
290
     0
176
     1
 90
       50
176
     1
 40
0.0
176
     1
 40
1.0
176
     1
 90
        0
176
     1
 62
    18
420
        0
176
     1
 90
       50
176
     1
 90
        3
176
     1
 62
     5
420
      255
176
     1
290
     0
176
     1
 90
       50
176
     1
 90
       50
176
     1
 90
       50
176
     1
290
     0
176
     1
 90
       50
176
     1
 62
   256
176
     0
 40
1.0
176
     0
 90
        2
176
     1
  1
strokes_ogs.tif
176
     1
290
     0
176
     1
 40
1.0
176
     1
 40
1.0
176
     1
  0
VISUALSTYLE
  5
3A
102
{ACAD_REACTORS
330
29
102
}
330
29
100
AcDbVisualStyle
  2
Shades of Gray
 70
    23
177
     3
291
     0
 70
    58
 90
        2
176
     1
 90
        2
176
     1
 90
        3
176
     1
 90
        0
176
     1
 40
0.6
176
     1
 40
30.0
176
     1
 62
     7
420
 16777215
176
     1
 90
        2
176
     1
 90
        2
176
     1
 62
     7
176
     1
 62
     7
176
     1
 90
        1
176
     1
 90
        1
176
     1
 40
40.0
176
     1
 90
        8
176
     1
 62
     7
176
     1
 40
1.0
176
     1
 90
        1
176
     1
 90
        6
176
     1
 90
        2
176
     1
 62
     7
176
     1
 90
        3
176
     1
 90
        0
176
     1
 90
        0
176
     1
290
     0
176
     1
 90
        1
176
     1
 40
0.0
176
     1
 90
        0
176
     1
290
     0
176
     1
290
     1
176
     1
290
     1
176
     1
290
     0
176
     1
290
     0
176
     1
290
     0
176
     1
290
     0
176
     1
290
     0
176
     1
290
     0
176
     1
 90
       50
176
     1
 40
0.0
176
     1
 40
1.0
176
     1
 90
        0
176
     1
 62
    18
420
        0
176
     1
 90
       50
176
     1
 90
        3
176
     1
 62
     5
420
      255
176
     1
290
     0
176
     1
 90
       50
176
     1
 90
       50
176
     1
 90
       50
176
     1
290
     0
176
     1
 90
       50
176
     1
 62
   256
176
     0
 40
1.0
176
     0
 90
        2
176
     1
  1
strokes_ogs.tif
176
     1
290
     0
176
     1
 40
1.0
176
     1
 40
1.0
176
     1
  0
VISUALSTYLE
  5
3B
102
{ACAD_REACTORS
330
29
102
}
330
29
100
AcDbVisualStyle
  2
Sketchy
 70
    24
177
     3
291
     0
 70
    58
 90
        1
176
     1
 90
        2
176
     1
 90
        2
176
     1
 90
        0
176
     1
 40
0.6
176
     1
 40
30.0
176
     1
 62
     7
420
 16777215
176
     1
 90
        2
176
     1
 90
        2
176
     1
 62
     7
176
     1
 62
     7
176
     1
 90
        1
176
     1
 90
        1
176
     1
 40
40.0
176
     1
 90
       11
176
     1
 62
     7
176
     1
 40
1.0
176
     1
 90
        1
176
     1
 90
        6
176
     1
 90
        2
176
     1
 62
     7
176
     1
 90
        6
176
     1
 90
        0
176
     1
 90
        0
176
     1
290
     0
176
     1
 90
        1
176
     1
 40
0.0
176
     1
 90
        0
176
     1
290
     0
176
     1
290
     1
176
     1
290
     1
176
     1
290
     0
176
     1
290
     0
176
     1
290
     0
176
     1
290
     0
176
     1
290
     0
176
     1
290
     0
176
     1
 90
       50
176
     1
 40
0.0
176
     1
 40
1.0
176
     1
 90
        0
176
     1
 62
    18
420
        0
176
     1
 90
       50
176
     1
 90
        3
176
     1
 62
     5
420
      255
176
     1
290
     0
176
     1
 90
       50
176
     1
 90
       50
176
     1
 90
       50
176
     1
290
     0
176
     1
 90
       50
176
     1
 62
   256
176
     0
 40
1.0
176
     0
 90
        2
176
     1
  1
strokes_ogs.tif
176
     1
290
     0
176
     1
 40
1.0
176
     1
 40
1.0
176
     1
  0
VISUALSTYLE
  5
36
102
{ACAD_REACTORS
330
29
102
}
330
29
100
AcDbVisualStyle
  2
Thicken
 70
    13
177
     3
291
     1
 70
    58
 90
        2
176
     1
 90
        2
176
     1
 90
        0
176
     1
 90
        0
176
     1
 40
0.6
176
     1
 40
30.0
176
     1
 62
     7
420
 16777215
176
     1
 90
        1
176
     1
 90
        4
176
     1
 62
     7
176
     1
 62
   257
176
     1
 90
        1
176
     1
 90
        1
176
     1
 40
1.0
176
     1
 90
       12
176
     1
 62
     7
176
     1
 40
1.0
176
     1
 90
        1
176
     1
 90
        6
176
     1
 90
        2
176
     1
 62
     7
176
     1
 90
        5
176
     1
 90
        0
176
     1
 90
        0
176
     1
290
     0
176
     1
 90
        1
176
     1
 40
0.0
176
     1
 90
        0
176
     1
290
     0
176
     1
290
     1
176
     1
290
     1
176
     1
290
     0
176
     1
290
     0
176
     1
290
     0
176
     1
290
     0
176
     1
290
     0
176
     1
290
     0
176
     1
 90
       50
176
     1
 40
0.0
176
     1
 40
1.0
176
     1
 90
        0
176
     1
 62
    18
420
        0
176
     1
 90
       50
176
     1
 90
        3
176
     1
 62
     5
420
      255
176
     1
290
     0
176
     1
 90
       50
176
     1
 90
       50
176
     1
 90
       50
176
     1
290
     0
176
     1
 90
       50
176
     1
 62
   256
176
     0
 40
1.0
176
     0
 90
        2
176
     1
  1
strokes_ogs.tif
176
     1
290
     0
176
     1
 40
1.0
176
     1
 40
1.0
176
     1
  0
VISUALSTYLE
  5
30
102
{ACAD_REACTORS
330
29
102
}
330
29
100
AcDbVisualStyle
  2
Wireframe
 70
     5
177
     3
291
     0
 70
    58
 90
        0
176
     1
 90
        2
176
     1
 90
        0
176
     1
 90
        0
176
     1
 40
0.6
176
     1
 40
30.0
176
     1
 62
     7
420
 16777215
176
     1
 90
        1
176
     1
 90
        4
176
     1
 62
     7
176
     1
 62
   257
176
     1
 90
        1
176
     1
 90
        1
176
     1
 40
1.0
176
     1
 90
        0
176
     1
 62
   257
176
     1
 40
1.0
176
     1
 90
        1
176
     1
 90
        6
176
     1
 90
        2
176
     1
 62
     7
176
     1
 90
        3
176
     1
 90
        0
176
     1
 90
        0
176
     1
290
     0
176
     1
 90
        1
176
     1
 40
0.0
176
     1
 90
        0
176
     1
290
     0
176
     1
290
     1
176
     1
290
     1
176
     1
290
     0
176
     1
290
     0
176
     1
290
     0
176
     1
290
     0
176
     1
290
     0
176
     1
290
     0
176
     1
 90
       50
176
     1
 40
0.0
176
     1
 40
1.0
176
     1
 90
        0
176
     1
 62
    18
420
        0
176
     1
 90
       50
176
     1
 90
        3
176
     1
 62
     5
420
      255
176
     1
290
     0
176
     1
 90
       50
176
     1
 90
       50
176
     1
 90
       50
176
     1
290
     0
176
     1
 90
       50
176
     1
 62
   256
176
     0
 40
1.0
176
     0
 90
        2
176
     1
  1
strokes_ogs.tif
176
     1
290
     0
176
     1
 40
1.0
176
     1
 40
1.0
176
     1
  0
VISUALSTYLE
  5
3C
102
{ACAD_REACTORS
330
29
102
}
330
29
100
AcDbVisualStyle
  2
X-Ray
 70
    25
177
     3
291
     0
 70
    58
 90
        2
176
     1
 90
        2
176
     1
 90
        1
176
     1
 90
        1
176
     1
 40
0.5
176
     1
 40
30.0
176
     1
 62
     7
420
 16777215
176
     1
 90
        1
176
     1
 90
        0
176
     1
 62
     7
176
     1
 62
   257
176
     1
 90
        1
176
     1
 90
        1
176
     1
 40
1.0
176
     1
 90
        8
176
     1
 62
     7
176
     1
 40
1.0
176
     1
 90
        1
176
     1
 90
        6
176
     1
 90
        2
176
     1
 62
     7
176
     1
 90
        3
176
     1
 90
        0
176
     1
 90
        0
176
     1
290
     0
176
     1
 90
       13
176
     1
 40
0.0
176
     1
 90
        0
176
     1
290
     0
176
     1
290
     1
176
     1
290
     1
176
     1
290
     0
176
     1
290
     0
176
     1
290
     0
176
     1
290
     0
176
     1
290
     0
176
     1
290
     0
176
     1
 90
       50
176
     1
 40
0.0
176
     1
 40
1.0
176
     1
 90
        0
176
     1
 62
    18
420
        0
176
     1
 90
       50
176
     1
 90
        3
176
     1
 62
     5
420
      255
176
     1
290
     0
176
     1
 90
       50
176
     1
 90
       50
176
     1
 90
       50
176
     1
290
     0
176
     1
 90
       50
176
     1
 62
   256
176
     0
 40
1.0
176
     0
 90
        2
176
     1
  1
strokes_ogs.tif
176
     1
290
     0
176
     1
 40
1.0
176
     1
 40
1.0
176
     1
  0
DICTIONARYVAR
  5
92
102
{ACAD_REACTORS
330
8D
102
}
330
8D
100
DictionaryVariables
280
     0
  1
1:1
  0
DICTIONARYVAR
  5
8F
102
{ACAD_REACTORS
330
8D
102
}
330
8D
100
DictionaryVariables
280
     0
  1
STANDARD
  0
DICTIONARYVAR
  5
8E
102
{ACAD_REACTORS
330
8D
102
}
330
8D
100
DictionaryVariables
280
     0
  1
STANDARD
  0
DICTIONARYVAR
  5
90
102
{ACAD_REACTORS
330
8D
102
}
330
8D
100
DictionaryVariables
280
     0
  1
Imperial24
  0
DICTIONARYVAR
  5
91
102
{ACAD_REACTORS
330
8D
102
}
330
8D
100
DictionaryVariables
280
     0
  1
Imperial24
  0
DICTIONARY
  5
1A
330
19
100
AcDbDictionary
280
     1
281
     1
  3
BUMPTILE
360
1C
  3
DIFFUSETILE
360
1B
  3
OPACITYTILE
360
1F
  3
REFLECTIONTILE
360
1E
  3
REFRACTIONTILE
360
20
  3
SPECULARTILE
360
1D
  0
DICTIONARY
  5
12
330
11
100
AcDbDictionary
280
     1
281
     1
  3
BUMPTILE
360
14
  3
DIFFUSETILE
360
13
  3
OPACITYTILE
360
17
  3
REFLECTIONTILE
360
16
  3
REFRACTIONTILE
360
18
  3
SPECULARTILE
360
15
  0
DICTIONARY
  5
22
330
21
100
AcDbDictionary
280
     1
281
     1
  3
BUMPTILE
360
24
  3
DIFFUSETILE
360
23
  3
OPACITYTILE
360
27
  3
REFLECTIONTILE
360
26
  3
REFRACTIONTILE
360
28
  3
SPECULARTILE
360
25
  0
DICTIONARY
  5
93
330
65
100
AcDbDictionary
280
     1
281
     1
  3
ACAD_ROUNDTRIP_2008_TABLESTYLE_CELLSTYLEMAP
360
94
  0
XRECORD
  5
1C
102
{ACAD_REACTORS
330
1A
102
}
330
1A
100
AcDbXrecord
280
     1
270
     1
271
     1
  0
XRECORD
  5
1B
102
{ACAD_REACTORS
330
1A
102
}
330
1A
100
AcDbXrecord
280
     1
270
     1
271
     1
  0
XRECORD
  5
1F
102
{ACAD_REACTORS
330
1A
102
}
330
1A
100
AcDbXrecord
280
     1
270
     1
271
     1
  0
XRECORD
  5
1E
102
{ACAD_REACTORS
330
1A
102
}
330
1A
100
AcDbXrecord
280
     1
270
     1
271
     1
  0
XRECORD
  5
20
102
{ACAD_REACTORS
330
1A
102
}
330
1A
100
AcDbXrecord
280
     1
270
     1
271
     1
  0
XRECORD
  5
1D
102
{ACAD_REACTORS
330
1A
102
}
330
1A
100
AcDbXrecord
280
     1
270
     1
271
     1
  0
XRECORD
  5
14
102
{ACAD_REACTORS
330
12
102
}
330
12
100
AcDbXrecord
280
     1
270
     1
271
     1
  0
XRECORD
  5
13
102
{ACAD_REACTORS
330
12
102
}
330
12
100
AcDbXrecord
280
     1
270
     1
271
     1
  0
XRECORD
  5
17
102
{ACAD_REACTORS
330
12
102
}
330
12
100
AcDbXrecord
280
     1
270
     1
271
     1
  0
XRECORD
  5
16
102
{ACAD_REACTORS
330
12
102
}
330
12
100
AcDbXrecord
280
     1
270
     1
271
     1
  0
XRECORD
  5
18
102
{ACAD_REACTORS
330
12
102
}
330
12
100
AcDbXrecord
280
     1
270
     1
271
     1
  0
XRECORD
  5
15
102
{ACAD_REACTORS
330
12
102
}
330
12
100
AcDbXrecord
280
     1
270
     1
271
     1
  0
XRECORD
  5
24
102
{ACAD_REACTORS
330
22
102
}
330
22
100
AcDbXrecord
280
     1
270
     1
271
     1
  0
XRECORD
  5
23
102
{ACAD_REACTORS
330
22
102
}
330
22
100
AcDbXrecord
280
     1
270
     1
271
     1
  0
XRECORD
  5
27
102
{ACAD_REACTORS
330
22
102
}
330
22
100
AcDbXrecord
280
     1
270
     1
271
     1
  0
XRECORD
  5
26
102
{ACAD_REACTORS
330
22
102
}
330
22
100
AcDbXrecord
280
     1
270
     1
271
     1
  0
XRECORD
  5
28
102
{ACAD_REACTORS
330
22
102
}
330
22
100
AcDbXrecord
280
     1
270
     1
271
     1
  0
XRECORD
  5
25
102
{ACAD_REACTORS
330
22
102
}
330
22
100
AcDbXrecord
280
     1
270
     1
271
     1
  0
CELLSTYLEMAP
  5
94
102
{ACAD_REACTORS
330
93
102
}
330
93
100
AcDbCellStyleMap
 90
        3
300
CELLSTYLE
  1
TABLEFORMAT_BEGIN
 90
        5
170
     1
 91
        0
 92
    32768
 62
   257
 93
        1
300
CONTENTFORMAT
  1
CONTENTFORMAT_BEGIN
 90
        0
 91
        0
 92
      512
 93
        0
300

 40
0.0
140
1.0
 94
        5
 62
     0
340
55
144
0.25
309
CONTENTFORMAT_END
171
     0
 94
        0
309
TABLEFORMAT_END
  1
CELLSTYLE_BEGIN
 90
        1
 91
        1
300
_TITLE
309
CELLSTYLE_END
300
CELLSTYLE
  1
TABLEFORMAT_BEGIN
 90
        5
170
     1
 91
        0
 92
        0
 62
   257
 93
        1
300
CONTENTFORMAT
  1
CONTENTFORMAT_BEGIN
 90
        0
 91
        0
 92
      512
 93
        0
300

 40
0.0
140
1.0
 94
        5
 62
     0
340
55
144
0.18
309
CONTENTFORMAT_END
171
     0
 94
        0
309
TABLEFORMAT_END
  1
CELLSTYLE_BEGIN
 90
        2
 91
        1
300
_HEADER
309
CELLSTYLE_END
300
CELLSTYLE
  1
TABLEFORMAT_BEGIN
 90
        5
170
     1
 91
        0
 92
        0
 62
   257
 93
        1
300
CONTENTFORMAT
  1
CONTENTFORMAT_BEGIN
 90
        0
 91
        0
 92
      512
 93
        0
300

 40
0.0
140
1.0
 94
        2
 62
     0
340
55
144
0.18
309
CONTENTFORMAT_END
171
     0
 94
        0
309
TABLEFORMAT_END
  1
CELLSTYLE_BEGIN
 90
        3
 91
        2
300
_DATA
309
CELLSTYLE_END
  0
ENDSEC
  0
EOF
