  0
SECTION
  2
HEADER
  9
$ACADVER
  1
AC1032
  9
$ACADMAINTVER
 90
      228
  9
$DWGCODEPAGE
  3
ANSI_1252
  9
$REQUIREDVERSIONS
160
                 0
  9
$INSBASE
 10
0.0
 20
0.0
 30
0.0
  9
$EXTMIN
 10
1.000000000000000E+20
 20
1.000000000000000E+20
 30
1.000000000000000E+20
  9
$EXTMAX
 10
-1.000000000000000E+20
 20
-1.000000000000000E+20
 30
-1.000000000000000E+20
  9
$LIMMIN
 10
0.0
 20
0.0
  9
$LIMMAX
 10
12.0
 20
9.0
  9
$ORTHOMODE
 70
     0
  9
$REGENMODE
 70
     1
  9
$FILLMODE
 70
     1
  9
$QTEXTMODE
 70
     0
  9
$MIRRTEXT
 70
     0
  9
$LTSCALE
 40
1.0
  9
$ATTMODE
 70
     1
  9
$TEXTSIZE
 40
0.2
  9
$TRACEWID
 40
0.05
  9
$TEXTSTYLE
  7
Standard
  9
$CLAYER
  8
0
  9
$CELTYPE
  6
ByLayer
  9
$CECOLOR
 62
   256
  9
$CELTSCALE
 40
1.0
  9
$DISPSILH
 70
     0
  9
$DIMSCALE
 40
1.0
  9
$DIMASZ
 40
0.18
  9
$DIMEXO
 40
0.0625
  9
$DIMDLI
 40
0.38
  9
$DIMRND
 40
0.0
  9
$DIMDLE
 40
0.0
  9
$DIMEXE
 40
0.18
  9
$DIMTP
 40
0.0
  9
$DIMTM
 40
0.0
  9
$DIMTXT
 40
0.18
  9
$DIMCEN
 40
0.09
  9
$DIMTSZ
 40
0.0
  9
$DIMTOL
 70
     0
  9
$DIMLIM
 70
     0
  9
$DIMTIH
 70
     1
  9
$DIMTOH
 70
     1
  9
$DIMSE1
 70
     0
  9
$DIMSE2
 70
     0
  9
$DIMTAD
 70
     0
  9
$DIMZIN
 70
     0
  9
$DIMBLK
  1

  9
$DIMASO
 70
     1
  9
$DIMSHO
 70
     1
  9
$DIMPOST
  1

  9
$DIMAPOST
  1

  9
$DIMALT
 70
     0
  9
$DIMALTD
 70
     2
  9
$DIMALTF
 40
25.4
  9
$DIMLFAC
 40
1.0
  9
$DIMTOFL
 70
     0
  9
$DIMTVP
 40
0.0
  9
$DIMTIX
 70
     0
  9
$DIMSOXD
 70
     0
  9
$DIMSAH
 70
     0
  9
$DIMBLK1
  1

  9
$DIMBLK2
  1

  9
$DIMSTYLE
  2
Standard
  9
$DIMCLRD
 70
     0
  9
$DIMCLRE
 70
     0
  9
$DIMCLRT
 70
     0
  9
$DIMTFAC
 40
1.0
  9
$DIMGAP
 40
0.09
  9
$DIMJUST
 70
     0
  9
$DIMSD1
 70
     0
  9
$DIMSD2
 70
     0
  9
$DIMTOLJ
 70
     1
  9
$DIMTZIN
 70
     0
  9
$DIMALTZ
 70
     0
  9
$DIMALTTZ
 70
     0
  9
$DIMUPT
 70
     0
  9
$DIMDEC
 70
     4
  9
$DIMTDEC
 70
     4
  9
$DIMALTU
 70
     2
  9
$DIMALTTD
 70
     2
  9
$DIMTXSTY
  7
Standard
  9
$DIMAUNIT
 70
     0
  9
$DIMADEC
 70
     0
  9
$DIMALTRND
 40
0.0
  9
$DIMAZIN
 70
     0
  9
$DIMDSEP
 70
    46
  9
$DIMATFIT
 70
     3
  9
$DIMFRAC
 70
     0
  9
$DIMLDRBLK
  1

  9
$DIMLUNIT
 70
     2
  9
$DIMLWD
 70
    -2
  9
$DIMLWE
 70
    -2
  9
$DIMTMOVE
 70
     0
  9
$DIMFXL
 40
1.0
  9
$DIMFXLON
 70
     0
  9
$DIMJOGANG
 40
0.7853981633974483
  9
$DIMTFILL
 70
     0
  9
$DIMTFILLCLR
 70
     0
  9
$DIMARCSYM
 70
     0
  9
$DIMLTYPE
  6

  9
$DIMLTEX1
  6

  9
$DIMLTEX2
  6

  9
$DIMTXTDIRECTION
 70
     0
  9
$LUNITS
 70
     2
  9
$LUPREC
 70
     4
  9
$SKETCHINC
 40
0.1
  9
$FILLETRAD
 40
0.0
  9
$AUNITS
 70
     0
  9
$AUPREC
 70
     0
  9
$MENU
  1
.
  9
$ELEVATION
 40
0.0
  9
$PELEVATION
 40
0.0
  9
$THICKNESS
 40
0.0
  9
$LIMCHECK
 70
     0
  9
$CHAMFERA
 40
0.0
  9
$CHAMFERB
 40
0.0
  9
$CHAMFERC
 40
0.0
  9
$CHAMFERD
 40
0.0
  9
$SKPOLY
 70
     0
  9
$TDCREATE
 40
2460929.577488426
  9
$TDUCREATE
 40
2460929.369155093
  9
$TDUPDATE
 40
2460929.577488426
  9
$TDUUPDATE
 40
2460929.369155093
  9
$TDINDWG
 40
0.0000000000
  9
$TDUSRTIMER
 40
0.0000000000
  9
$USRTIMER
 70
     1
  9
$ANGBASE
 50
0.0
  9
$ANGDIR
 70
     0
  9
$PDMODE
 70
     0
  9
$PDSIZE
 40
0.0
  9
$PLINEWID
 40
0.0
  9
$SPLFRAME
 70
     0
  9
$SPLINETYPE
 70
     6
  9
$SPLINESEGS
 70
     8
  9
$HANDSEED
  5
92
  9
$SURFTAB1
 70
     6
  9
$SURFTAB2
 70
     6
  9
$SURFTYPE
 70
     6
  9
$SURFU
 70
     6
  9
$SURFV
 70
     6
  9
$UCSBASE
  2

  9
$UCSNAME
  2

  9
$UCSORG
 10
0.0
 20
0.0
 30
0.0
  9
$UCSXDIR
 10
1.0
 20
0.0
 30
0.0
  9
$UCSYDIR
 10
0.0
 20
1.0
 30
0.0
  9
$UCSORTHOREF
  2

  9
$UCSORTHOVIEW
 70
     0
  9
$UCSORGTOP
 10
0.0
 20
0.0
 30
0.0
  9
$UCSORGBOTTOM
 10
0.0
 20
0.0
 30
0.0
  9
$UCSORGLEFT
 10
0.0
 20
0.0
 30
0.0
  9
$UCSORGRIGHT
 10
0.0
 20
0.0
 30
0.0
  9
$UCSORGFRONT
 10
0.0
 20
0.0
 30
0.0
  9
$UCSORGBACK
 10
0.0
 20
0.0
 30
0.0
  9
$PUCSBASE
  2

  9
$PUCSNAME
  2

  9
$PUCSORG
 10
0.0
 20
0.0
 30
0.0
  9
$PUCSXDIR
 10
1.0
 20
0.0
 30
0.0
  9
$PUCSYDIR
 10
0.0
 20
1.0
 30
0.0
  9
$PUCSORTHOREF
  2

  9
$PUCSORTHOVIEW
 70
     0
  9
$PUCSORGTOP
 10
0.0
 20
0.0
 30
0.0
  9
$PUCSORGBOTTOM
 10
0.0
 20
0.0
 30
0.0
  9
$PUCSORGLEFT
 10
0.0
 20
0.0
 30
0.0
  9
$PUCSORGRIGHT
 10
0.0
 20
0.0
 30
0.0
  9
$PUCSORGFRONT
 10
0.0
 20
0.0
 30
0.0
  9
$PUCSORGBACK
 10
0.0
 20
0.0
 30
0.0
  9
$USERI1
 70
     0
  9
$USERI2
 70
     0
  9
$USERI3
 70
     0
  9
$USERI4
 70
     0
  9
$USERI5
 70
     0
  9
$USERR1
 40
0.0
  9
$USERR2
 40
0.0
  9
$USERR3
 40
0.0
  9
$USERR4
 40
0.0
  9
$USERR5
 40
0.0
  9
$WORLDVIEW
 70
     1
  9
$SHADEDGE
 70
     3
  9
$SHADEDIF
 70
    70
  9
$TILEMODE
 70
     1
  9
$MAXACTVP
 70
    64
  9
$PINSBASE
 10
0.0
 20
0.0
 30
0.0
  9
$PLIMCHECK
 70
     0
  9
$PEXTMIN
 10
1.000000000000000E+20
 20
1.000000000000000E+20
 30
1.000000000000000E+20
  9
$PEXTMAX
 10
-1.000000000000000E+20
 20
-1.000000000000000E+20
 30
-1.000000000000000E+20
  9
$PLIMMIN
 10
0.0
 20
0.0
  9
$PLIMMAX
 10
12.0
 20
9.0
  9
$UNITMODE
 70
     0
  9
$VISRETAIN
 70
     1
  9
$PLINEGEN
 70
     0
  9
$PSLTSCALE
 70
     1
  9
$TREEDEPTH
 70
  3020
  9
$CMLSTYLE
  2
Standard
  9
$CMLJUST
 70
     0
  9
$CMLSCALE
 40
1.0
  9
$PROXYGRAPHICS
 70
     1
  9
$MEASUREMENT
 70
     0
  9
$CELWEIGHT
370
    -1
  9
$ENDCAPS
280
     0
  9
$JOINSTYLE
280
     0
  9
$LWDISPLAY
290
     1
  9
$INSUNITS
 70
     0
  9
$HYPERLINKBASE
  1

  9
$STYLESHEET
  1

  9
$XEDIT
290
     1
  9
$CEPSNTYPE
380
     0
  9
$PSTYLEMODE
290
     1
  9
$FINGERPRINTGUID
  2
{B1B8DDF8-0BED-A14C-A15F-0CF6F85865A2}
  9
$VERSIONGUID
  2
{D2F79E81-E3A9-F248-BA2A-EBBBFEC2F2BA}
  9
$EXTNAMES
290
     1
  9
$PSVPSCALE
 40
0.0
  9
$OLESTARTUP
290
     0
  9
$SORTENTS
280
   127
  9
$INDEXCTL
280
     0
  9
$HIDETEXT
280
     1
  9
$XCLIPFRAME
280
     2
  9
$HALOGAP
280
     0
  9
$OBSCOLOR
 70
   257
  9
$OBSLTYPE
280
     0
  9
$INTERSECTIONDISPLAY
280
     0
  9
$INTERSECTIONCOLOR
 70
   257
  9
$DIMASSOC
280
     2
  9
$PROJECTNAME
  1

  9
$CAMERADISPLAY
290
     0
  9
$LENSLENGTH
 40
50.0
  9
$CAMERAHEIGHT
 40
0.0
  9
$STEPSPERSEC
 40
2.0
  9
$STEPSIZE
 40
6.0
  9
$3DDWFPREC
 40
2.0
  9
$PSOLWIDTH
 40
0.25
  9
$PSOLHEIGHT
 40
4.0
  9
$LOFTANG1
 40
1.570796326794896
  9
$LOFTANG2
 40
1.570796326794896
  9
$LOFTMAG1
 40
0.0
  9
$LOFTMAG2
 40
0.0
  9
$LOFTPARAM
 70
     7
  9
$LOFTNORMALS
280
     1
  9
$LATITUDE
 40
37.795
  9
$LONGITUDE
 40
-122.394
  9
$NORTHDIRECTION
 40
0.0
  9
$TIMEZONE
 70
 -8000
  9
$LIGHTGLYPHDISPLAY
280
     1
  9
$TILEMODELIGHTSYNCH
280
     1
  9
$CMATERIAL
347
11
  9
$SOLIDHIST
280
     0
  9
$SHOWHIST
280
     1
  9
$DWFFRAME
280
     2
  9
$DGNFRAME
280
     0
  9
$REALWORLDSCALE
290
     1
  9
$INTERFERECOLOR
 62
     1
  9
$INTERFEREOBJVS
345
33
  9
$INTERFEREVPVS
346
30
  9
$CSHADOW
280
     0
  9
$SHADOWPLANELOCATION
 40
0.0
  0
ENDSEC
  0
SECTION
  2
CLASSES
  0
CLASS
  1
ACDBDICTIONARYWDFLT
  2
AcDbDictionaryWithDefault
  3
ObjectDBX Classes
 90
        0
 91
        1
280
     0
281
     0
  0
CLASS
  1
MATERIAL
  2
AcDbMaterial
  3
ObjectDBX Classes
 90
     1153
 91
        3
280
     0
281
     0
  0
CLASS
  1
VISUALSTYLE
  2
AcDbVisualStyle
  3
ObjectDBX Classes
 90
     4095
 91
       24
280
     0
281
     0
  0
CLASS
  1
SCALE
  2
AcDbScale
  3
ObjectDBX Classes
 90
     1153
 91
       17
280
     0
281
     0
  0
CLASS
  1
TABLESTYLE
  2
AcDbTableStyle
  3
ObjectDBX Classes
 90
     4095
 91
        1
280
     0
281
     0
  0
CLASS
  1
MLEADERSTYLE
  2
AcDbMLeaderStyle
  3
ACDB_MLEADERSTYLE_CLASS
 90
     4095
 91
        1
280
     0
281
     0
  0
CLASS
  1
ACDBSECTIONVIEWSTYLE
  2
AcDbSectionViewStyle
  3
ObjectDBX Classes
 90
     1025
 91
        1
280
     0
281
     0
  0
CLASS
  1
ACDBDETAILVIEWSTYLE
  2
AcDbDetailViewStyle
  3
ObjectDBX Classes
 90
     1025
 91
        1
280
     0
281
     0
  0
CLASS
  1
DICTIONARYVAR
  2
AcDbDictionaryVar
  3
ObjectDBX Classes
 90
        0
 91
        5
280
     0
281
     0
  0
CLASS
  1
CELLSTYLEMAP
  2
AcDbCellStyleMap
  3
ObjectDBX Classes
 90
     1152
 91
        1
280
     0
281
     0
  0
ENDSEC
  0
SECTION
  2
TABLES
  0
TABLE
  2
VPORT
  5
8
330
0
100
AcDbSymbolTable
 70
     1
  0
VPORT
  5
57
330
8
100
AcDbSymbolTableRecord
100
AcDbViewportTableRecord
  2
*Active
 70
     0
 10
0.0
 20
0.0
 11
1.0
 21
1.0
 12
0.0
 22
0.0
 13
0.0
 23
0.0
 14
1.0
 24
1.0
 15
0.0
 25
0.0
 16
0.0
 26
0.0
 36
1.0
 17
2070.329143804109
 27
-1549.708560332395
 37
0.0
 40
3099.36839297975
 41
1.304893925962813
 42
50.0
 43
0.0
 44
0.0
 50
0.0
 51
0.0
 71
     0
 72
   100
 73
     1
 74
     1
 75
     0
 76
     0
 77
     0
 78
     0
281
     0
 65
     1
110
0.0
120
0.0
130
0.0
111
1.0
121
0.0
131
0.0
112
0.0
122
1.0
132
0.0
 79
     0
146
0.0
 60
     3
 61
     5
292
     1
282
     1
141
0.0
142
0.0
 63
   250
421
  3355443
  0
ENDTAB
  0
TABLE
  2
LTYPE
  5
5
330
0
100
AcDbSymbolTable
 70
     1
  0
LTYPE
  5
5B
330
5
100
AcDbSymbolTableRecord
100
AcDbLinetypeTableRecord
  2
ByBlock
 70
     0
  3

 72
    65
 73
     0
 40
0.0
  0
LTYPE
  5
5C
330
5
100
AcDbSymbolTableRecord
100
AcDbLinetypeTableRecord
  2
ByLayer
 70
     0
  3

 72
    65
 73
     0
 40
0.0
  0
LTYPE
  5
5D
330
5
100
AcDbSymbolTableRecord
100
AcDbLinetypeTableRecord
  2
Continuous
 70
     0
  3
Solid line
 72
    65
 73
     0
 40
0.0
  0
ENDTAB
  0
TABLE
  2
LAYER
  5
2
330
0
100
AcDbSymbolTable
 70
     2
  0
LAYER
  5
54
330
2
100
AcDbSymbolTableRecord
100
AcDbLayerTableRecord
  2
0
 70
     0
 62
     7
  6
Continuous
370
    -3
390
F
347
21
348
0
  0
LAYER
  5
78
330
2
100
AcDbSymbolTableRecord
100
AcDbLayerTableRecord
  2
Layer 1
 70
     0
 62
     7
  6
Continuous
370
     0
390
F
347
21
348
0
  0
ENDTAB
  0
TABLE
  2
STYLE
  5
3
330
0
100
AcDbSymbolTable
 70
     2
  0
STYLE
  5
55
330
3
100
AcDbSymbolTableRecord
100
AcDbTextStyleTableRecord
  2
Standard
 70
     0
 40
0.0
 41
1.0
 50
0.0
 71
     0
 42
0.2
  3
txt
  4

  0
STYLE
  5
5A
330
3
100
AcDbSymbolTableRecord
100
AcDbTextStyleTableRecord
  2
Annotative
 70
     0
 40
0.0
 41
1.0
 50
0.0
 71
     0
 42
0.2
  3
txt
  4

1001
AcadAnnotative
1000
AnnotativeData
1002
{
1070
     1
1070
     1
1002
}
  0
ENDTAB
  0
TABLE
  2
VIEW
  5
6
330
0
100
AcDbSymbolTable
 70
     0
  0
ENDTAB
  0
TABLE
  2
UCS
  5
7
330
0
100
AcDbSymbolTable
 70
     0
  0
ENDTAB
  0
TABLE
  2
APPID
  5
9
330
0
100
AcDbSymbolTable
 70
     2
  0
APPID
  5
56
330
9
100
AcDbSymbolTableRecord
100
AcDbRegAppTableRecord
  2
ACAD
 70
     0
  0
APPID
  5
5E
330
9
100
AcDbSymbolTableRecord
100
AcDbRegAppTableRecord
  2
AcadAnnotative
 70
     0
  0
ENDTAB
  0
TABLE
  2
DIMSTYLE
  5
A
330
0
100
AcDbSymbolTable
 70
     2
100
AcDbDimStyleTable
 71
     0
  0
DIMSTYLE
105
58
330
A
100
AcDbSymbolTableRecord
100
AcDbDimStyleTableRecord
  2
Standard
 70
     0
340
55
  0
DIMSTYLE
105
59
330
A
100
AcDbSymbolTableRecord
100
AcDbDimStyleTableRecord
  2
Annotative
 70
     0
340
55
1001
AcadAnnotative
1000
AnnotativeData
1002
{
1070
     1
1070
     1
1002
}
  0
ENDTAB
  0
TABLE
  2
BLOCK_RECORD
  5
1
330
0
100
AcDbSymbolTable
 70
     1
  0
BLOCK_RECORD
  5
70
330
1
100
AcDbSymbolTableRecord
100
AcDbBlockTableRecord
  2
*Model_Space
340
73
 70
     0
280
     1
281
     0
  0
BLOCK_RECORD
  5
6C
330
1
100
AcDbSymbolTableRecord
100
AcDbBlockTableRecord
  2
*Paper_Space
340
6F
 70
     0
280
     1
281
     0
  0
BLOCK_RECORD
  5
74
330
1
100
AcDbSymbolTableRecord
100
AcDbBlockTableRecord
  2
*Paper_Space0
340
77
 70
     0
280
     1
281
     0
  0
ENDTAB
  0
ENDSEC
  0
SECTION
  2
BLOCKS
  0
BLOCK
  5
71
330
70
100
AcDbEntity
  8
0
100
AcDbBlockBegin
  2
*Model_Space
 70
     0
 10
0.0
 20
0.0
 30
0.0
  3
*Model_Space
  1

  0
ENDBLK
  5
72
330
70
100
AcDbEntity
  8
0
100
AcDbBlockEnd
  0
BLOCK
  5
6D
330
6C
100
AcDbEntity
 67
     1
  8
0
100
AcDbBlockBegin
  2
*Paper_Space
 70
     0
 10
0.0
 20
0.0
 30
0.0
  3
*Paper_Space
  1

  0
ENDBLK
  5
6E
330
6C
100
AcDbEntity
 67
     1
  8
0
100
AcDbBlockEnd
  0
BLOCK
  5
75
330
74
100
AcDbEntity
 67
     1
  8
0
100
AcDbBlockBegin
  2
*Paper_Space0
 70
     0
 10
0.0
 20
0.0
 30
0.0
  3
*Paper_Space0
  1

  0
ENDBLK
  5
76
330
74
100
AcDbEntity
 67
     1
  8
0
100
AcDbBlockEnd
  0
ENDSEC
  0
SECTION
  2
ENTITIES
  0
SPLINE
  5
79
330
70
100
AcDbEntity
  8
Layer 1
100
AcDbSpline
210
0.0
220
0.0
230
1.0
 70
     9
 71
     3
 72
    53
 73
    49
 74
     0
 42
0.0000000001
 43
0.0000000001
 40
0.0
 40
0.0
 40
0.0
 40
0.0
 40
1.0
 40
1.0
 40
1.0
 40
2.0
 40
2.0
 40
2.0
 40
3.0
 40
3.0
 40
3.0
 40
4.0
 40
4.0
 40
4.0
 40
5.0
 40
5.0
 40
5.0
 40
6.0
 40
6.0
 40
6.0
 40
7.0
 40
7.0
 40
7.0
 40
8.0
 40
8.0
 40
8.0
 40
9.0
 40
9.0
 40
9.0
 40
10.0
 40
10.0
 40
10.0
 40
11.0
 40
11.0
 40
11.0
 40
12.0
 40
12.0
 40
12.0
 40
13.0
 40
13.0
 40
13.0
 40
14.0
 40
14.0
 40
14.0
 40
15.0
 40
15.0
 40
15.0
 40
16.0
 40
16.0
 40
16.0
 40
16.0
 10
1435.481395937673
 20
-763.7255912279297
 30
0.0
 10
1435.481395937673
 20
-763.7255912279297
 30
0.0
 10
1435.432702372187
 20
-763.7255912279297
 30
0.0
 10
1435.432702372187
 20
-763.7255912279297
 30
0.0
 10
1435.432702372187
 20
-823.1216709798728
 30
0.0
 10
1435.425734008542
 20
-882.5177507318176
 30
0.0
 10
1435.439670735837
 20
-941.9207563573863
 30
0.0
 10
1435.439670735837
 20
-946.9330918303395
 30
0.0
 10
1435.147254402816
 20
-951.8827970105167
 30
0.0
 10
1433.379074617527
 20
-956.6514522059524
 30
0.0
 10
1428.575492623813
 20
-969.6069149255409
 30
0.0
 10
1416.149200641141
 20
-978.0512969644824
 30
0.0
 10
1401.717804509198
 20
-978.0512969644824
 30
0.0
 10
1324.451398675719
 20
-978.0443286008358
 30
0.0
 10
1247.184992842242
 20
-978.0304343635634
 30
0.0
 10
1169.925555372409
 20
-978.0164976362703
 30
0.0
 10
1167.370630335419
 20
-978.0164976362703
 30
0.0
 10
1164.815790278473
 20
-978.0791279290479
 30
0.0
 10
1162.267833605127
 20
-977.9886666717084
 30
0.0
 10
1144.084228589654
 20
-977.3412037128927
 30
0.0
 10
1130.404735891181
 20
-963.7104895599431
 30
0.0
 10
1129.680790892342
 20
-945.5477471453878
 30
0.0
 10
1129.645949074109
 20
-944.6218470708654
 30
0.0
 10
1129.659885801402
 20
-943.6959894863639
 30
0.0
 10
1129.659885801402
 20
-942.7631210481949
 30
0.0
 10
1129.659885801402
 20
-823.386213858309
 30
0.0
 10
1129.680790892342
 20
-704.0092641784004
 30
0.0
 10
1129.625043983169
 20
-584.6323569885144
 30
0.0
 10
1129.625043983169
 20
-574.9001023756309
 30
0.0
 10
1132.242599312936
 20
-566.3582482256815
 30
0.0
 10
1139.245974737798
 20
-559.3688095281113
 30
0.0
 10
1146.207539980784
 20
-552.435117739712
 30
0.0
 10
1154.610111837846
 20
-549.3581602895419
 30
0.0
 10
1164.384091652564
 20
-549.3651286531885
 30
0.0
 10
1221.343666059487
 20
-549.4207056022723
 30
0.0
 10
1278.310208830053
 20
-549.3929171277313
 30
0.0
 10
1335.269613276887
 20
-549.3929171277313
 30
0.0
 10
1357.546622054436
 20
-549.3929171277313
 30
0.0
 10
1379.823630831986
 20
-549.302413380371
 30
0.0
 10
1402.093756225935
 20
-549.427673965919
 30
0.0
 10
1418.641325425269
 20
-549.5182626933247
 30
0.0
 10
1431.736070437744
 20
-560.3365622745359
 30
0.0
 10
1434.847869706145
 20
-576.1671548386793
 30
0.0
 10
1435.683308523332
 20
-580.406639297199
 30
0.0
 10
1435.467544190422
 20
-584.7158923722282
 30
0.0
 10
1435.474427574025
 20
-589.0042403563192
 30
0.0
 10
1435.481395937673
 20
-647.244633993495
 30
0.0
 10
1435.481395937673
 20
-705.4851975907559
 30
0.0
 10
1435.481395937673
 20
-763.7255912279297
 30
0.0
  0
SPLINE
  5
7A
330
70
100
AcDbEntity
  8
Layer 1
100
AcDbSpline
210
0.0
220
0.0
230
1.0
 70
     9
 71
     3
 72
    53
 73
    49
 74
     0
 42
0.0000000001
 43
0.0000000001
 40
0.0
 40
0.0
 40
0.0
 40
0.0
 40
1.0
 40
1.0
 40
1.0
 40
2.0
 40
2.0
 40
2.0
 40
3.0
 40
3.0
 40
3.0
 40
4.0
 40
4.0
 40
4.0
 40
5.0
 40
5.0
 40
5.0
 40
6.0
 40
6.0
 40
6.0
 40
7.0
 40
7.0
 40
7.0
 40
8.0
 40
8.0
 40
8.0
 40
9.0
 40
9.0
 40
9.0
 40
10.0
 40
10.0
 40
10.0
 40
11.0
 40
11.0
 40
11.0
 40
12.0
 40
12.0
 40
12.0
 40
13.0
 40
13.0
 40
13.0
 40
14.0
 40
14.0
 40
14.0
 40
15.0
 40
15.0
 40
15.0
 40
16.0
 40
16.0
 40
16.0
 40
16.0
 10
1437.910975409069
 20
-815.5683471972215
 30
0.0
 10
1437.910975409069
 20
-737.7241620413924
 30
0.0
 10
1437.931880500007
 20
-659.8730085219167
 30
0.0
 10
1437.917943772716
 20
-582.0287383860422
 30
0.0
 10
1437.917943772716
 20
-571.7186194707619
 30
0.0
 10
1433.963737323483
 20
-563.1072516444374
 30
0.0
 10
1426.424392758145
 20
-556.1108445832205
 30
0.0
 10
1419.240094818604
 20
-549.4416106932122
 30
0.0
 10
1410.60076855765
 20
-546.7683934343194
 30
0.0
 10
1400.952049328476
 20
-546.7892985252574
 30
0.0
 10
1380.881802345726
 20
-546.8240553634468
 30
0.0
 10
1360.811640343017
 20
-546.8240553634468
 30
0.0
 10
1340.741478340313
 20
-546.8240553634468
 30
0.0
 10
1281.686465996848
 20
-546.8170869998003
 30
0.0
 10
1222.63153863343
 20
-546.8032352525524
 30
0.0
 10
1163.576611270011
 20
-546.796266888904
 30
0.0
 10
1152.236194295574
 20
-546.796266888904
 30
0.0
 10
1142.858986308487
 20
-551.1333084384777
 30
0.0
 10
1135.430965601406
 20
-559.6890143356749
 30
0.0
 10
1129.158673499116
 20
-566.908239073492
 30
0.0
 10
1127.077087309824
 20
-575.422219768855
 30
0.0
 10
1127.091024037118
 20
-584.8133644832369
 30
0.0
 10
1127.174559420831
 20
-644.3347473107523
 30
0.0
 10
1127.132749238952
 20
-703.8491617746195
 30
0.0
 10
1127.132749238952
 20
-763.3635762384865
 30
0.0
 10
1127.132749238952
 20
-813.0204330138994
 30
0.0
 10
1127.11881251166
 20
-862.6772897893124
 30
0.0
 10
1127.139717602598
 20
-912.3341040747027
 30
0.0
 10
1127.139717602598
 20
-924.0434619122051
 30
0.0
 10
1127.077087309824
 20
-935.7597881133525
 30
0.0
 10
1127.313756733674
 20
-947.4691459508548
 30
0.0
 10
1127.480827501102
 20
-955.6837844395714
 30
0.0
 10
1130.836349537045
 20
-962.7219167026241
 30
0.0
 10
1136.349854822259
 20
-968.7715185983789
 30
0.0
 10
1144.425338488157
 20
-977.6266516822671
 30
0.0
 10
1154.623963585094
 20
-980.6758206578942
 30
0.0
 10
1166.36820573085
 20
-980.6549155669545
 30
0.0
 10
1239.339295216592
 20
-980.5365808550286
 30
0.0
 10
1312.317353065979
 20
-980.627084602389
 30
0.0
 10
1385.288527531762
 20
-980.5574434559476
 30
0.0
 10
1393.280390833901
 20
-980.5435492186752
 30
0.0
 10
1401.341937772504
 20
-981.3928397831096
 30
0.0
 10
1409.264117438179
 20
-979.923959714446
 30
0.0
 10
1426.306015556198
 20
-976.7494876632463
 30
0.0
 10
1437.910975409069
 20
-962.297271420407
 30
0.0
 10
1437.924912136363
 20
-944.3503783188052
 30
0.0
 10
1437.95966897455
 20
-901.425343236152
 30
0.0
 10
1437.910975409069
 20
-858.5003506435214
 30
0.0
 10
1437.910975409069
 20
-815.5683471972215
 30
0.0
  0
HATCH
  5
7B
330
70
100
AcDbEntity
  8
Layer 1
 62
    18
420
        0
440
 33554687
100
AcDbHatch
 10
0.0
 20
0.0
 30
0.0
210
0.0
220
0.0
230
1.0
  2
SOLID
 70
     1
 71
     1
 91
        2
 92
        1
 93
        1
 72
     4
 94
        3
 73
     0
 74
     0
 95
       53
 96
       49
 40
0.0
 40
0.0
 40
0.0
 40
0.0
 40
1.0
 40
1.0
 40
1.0
 40
2.0
 40
2.0
 40
2.0
 40
3.0
 40
3.0
 40
3.0
 40
4.0
 40
4.0
 40
4.0
 40
5.0
 40
5.0
 40
5.0
 40
6.0
 40
6.0
 40
6.0
 40
7.0
 40
7.0
 40
7.0
 40
8.0
 40
8.0
 40
8.0
 40
9.0
 40
9.0
 40
9.0
 40
10.0
 40
10.0
 40
10.0
 40
11.0
 40
11.0
 40
11.0
 40
12.0
 40
12.0
 40
12.0
 40
13.0
 40
13.0
 40
13.0
 40
14.0
 40
14.0
 40
14.0
 40
15.0
 40
15.0
 40
15.0
 40
16.0
 40
16.0
 40
16.0
 40
16.0
 10
1435.481395937673
 20
-763.7255912279297
 10
1435.481395937673
 20
-763.7255912279297
 10
1435.432702372187
 20
-763.7255912279297
 10
1435.432702372187
 20
-763.7255912279297
 10
1435.432702372187
 20
-823.1216709798728
 10
1435.425734008542
 20
-882.5177507318176
 10
1435.439670735837
 20
-941.9207563573863
 10
1435.439670735837
 20
-946.9330918303395
 10
1435.147254402816
 20
-951.8827970105167
 10
1433.379074617527
 20
-956.6514522059524
 10
1428.575492623813
 20
-969.6069149255409
 10
1416.149200641141
 20
-978.0512969644824
 10
1401.717804509198
 20
-978.0512969644824
 10
1324.451398675719
 20
-978.0443286008358
 10
1247.184992842242
 20
-978.0304343635634
 10
1169.925555372409
 20
-978.0164976362703
 10
1167.370630335419
 20
-978.0164976362703
 10
1164.815790278473
 20
-978.0791279290479
 10
1162.267833605127
 20
-977.9886666717084
 10
1144.084228589654
 20
-977.3412037128927
 10
1130.404735891181
 20
-963.7104895599431
 10
1129.680790892342
 20
-945.5477471453878
 10
1129.645949074109
 20
-944.6218470708654
 10
1129.659885801402
 20
-943.6959894863639
 10
1129.659885801402
 20
-942.7631210481949
 10
1129.659885801402
 20
-823.386213858309
 10
1129.680790892342
 20
-704.0092641784004
 10
1129.625043983169
 20
-584.6323569885144
 10
1129.625043983169
 20
-574.9001023756309
 10
1132.242599312936
 20
-566.3582482256815
 10
1139.245974737798
 20
-559.3688095281113
 10
1146.207539980784
 20
-552.435117739712
 10
1154.610111837846
 20
-549.3581602895419
 10
1164.384091652564
 20
-549.3651286531885
 10
1221.343666059487
 20
-549.4207056022723
 10
1278.310208830053
 20
-549.3929171277313
 10
1335.269613276887
 20
-549.3929171277313
 10
1357.546622054436
 20
-549.3929171277313
 10
1379.823630831986
 20
-549.302413380371
 10
1402.093756225935
 20
-549.427673965919
 10
1418.641325425269
 20
-549.5182626933247
 10
1431.736070437744
 20
-560.3365622745359
 10
1434.847869706145
 20
-576.1671548386793
 10
1435.683308523332
 20
-580.406639297199
 10
1435.467544190422
 20
-584.7158923722282
 10
1435.474427574025
 20
-589.0042403563192
 10
1435.481395937673
 20
-647.244633993495
 10
1435.481395937673
 20
-705.4851975907559
 10
1435.481395937673
 20
-763.7255912279297
 97
        0
 97
        1
330
79
 92
        1
 93
        1
 72
     4
 94
        3
 73
     0
 74
     0
 95
       53
 96
       49
 40
0.0
 40
0.0
 40
0.0
 40
0.0
 40
1.0
 40
1.0
 40
1.0
 40
2.0
 40
2.0
 40
2.0
 40
3.0
 40
3.0
 40
3.0
 40
4.0
 40
4.0
 40
4.0
 40
5.0
 40
5.0
 40
5.0
 40
6.0
 40
6.0
 40
6.0
 40
7.0
 40
7.0
 40
7.0
 40
8.0
 40
8.0
 40
8.0
 40
9.0
 40
9.0
 40
9.0
 40
10.0
 40
10.0
 40
10.0
 40
11.0
 40
11.0
 40
11.0
 40
12.0
 40
12.0
 40
12.0
 40
13.0
 40
13.0
 40
13.0
 40
14.0
 40
14.0
 40
14.0
 40
15.0
 40
15.0
 40
15.0
 40
16.0
 40
16.0
 40
16.0
 40
16.0
 10
1437.910975409069
 20
-815.5683471972215
 10
1437.910975409069
 20
-737.7241620413924
 10
1437.931880500007
 20
-659.8730085219167
 10
1437.917943772716
 20
-582.0287383860422
 10
1437.917943772716
 20
-571.7186194707619
 10
1433.963737323483
 20
-563.1072516444374
 10
1426.424392758145
 20
-556.1108445832205
 10
1419.240094818604
 20
-549.4416106932122
 10
1410.60076855765
 20
-546.7683934343194
 10
1400.952049328476
 20
-546.7892985252574
 10
1380.881802345726
 20
-546.8240553634468
 10
1360.811640343017
 20
-546.8240553634468
 10
1340.741478340313
 20
-546.8240553634468
 10
1281.686465996848
 20
-546.8170869998003
 10
1222.63153863343
 20
-546.8032352525524
 10
1163.576611270011
 20
-546.796266888904
 10
1152.236194295574
 20
-546.796266888904
 10
1142.858986308487
 20
-551.1333084384777
 10
1135.430965601406
 20
-559.6890143356749
 10
1129.158673499116
 20
-566.908239073492
 10
1127.077087309824
 20
-575.422219768855
 10
1127.091024037118
 20
-584.8133644832369
 10
1127.174559420831
 20
-644.3347473107523
 10
1127.132749238952
 20
-703.8491617746195
 10
1127.132749238952
 20
-763.3635762384865
 10
1127.132749238952
 20
-813.0204330138994
 10
1127.11881251166
 20
-862.6772897893124
 10
1127.139717602598
 20
-912.3341040747027
 10
1127.139717602598
 20
-924.0434619122051
 10
1127.077087309824
 20
-935.7597881133525
 10
1127.313756733674
 20
-947.4691459508548
 10
1127.480827501102
 20
-955.6837844395714
 10
1130.836349537045
 20
-962.7219167026241
 10
1136.349854822259
 20
-968.7715185983789
 10
1144.425338488157
 20
-977.6266516822671
 10
1154.623963585094
 20
-980.6758206578942
 10
1166.36820573085
 20
-980.6549155669545
 10
1239.339295216592
 20
-980.5365808550286
 10
1312.317353065979
 20
-980.627084602389
 10
1385.288527531762
 20
-980.5574434559476
 10
1393.280390833901
 20
-980.5435492186752
 10
1401.341937772504
 20
-981.3928397831096
 10
1409.264117438179
 20
-979.923959714446
 10
1426.306015556198
 20
-976.7494876632463
 10
1437.910975409069
 20
-962.297271420407
 10
1437.924912136363
 20
-944.3503783188052
 10
1437.95966897455
 20
-901.425343236152
 10
1437.910975409069
 20
-858.5003506435214
 10
1437.910975409069
 20
-815.5683471972215
 97
        0
 97
        1
330
7A
 75
     2
 76
     1
 98
        1
 10
0.0
 20
0.0
450
        0
451
        0
460
0.0
461
0.0
452
        0
462
0.0
453
        0
470

  0
SPLINE
  5
7C
330
70
100
AcDbEntity
  8
Layer 1
100
AcDbSpline
210
0.0
220
0.0
230
1.0
 70
     9
 71
     3
 72
    53
 73
    49
 74
     0
 42
0.0000000001
 43
0.0000000001
 40
0.0
 40
0.0
 40
0.0
 40
0.0
 40
1.0
 40
1.0
 40
1.0
 40
2.0
 40
2.0
 40
2.0
 40
3.0
 40
3.0
 40
3.0
 40
4.0
 40
4.0
 40
4.0
 40
5.0
 40
5.0
 40
5.0
 40
6.0
 40
6.0
 40
6.0
 40
7.0
 40
7.0
 40
7.0
 40
8.0
 40
8.0
 40
8.0
 40
9.0
 40
9.0
 40
9.0
 40
10.0
 40
10.0
 40
10.0
 40
11.0
 40
11.0
 40
11.0
 40
12.0
 40
12.0
 40
12.0
 40
13.0
 40
13.0
 40
13.0
 40
14.0
 40
14.0
 40
14.0
 40
15.0
 40
15.0
 40
15.0
 40
16.0
 40
16.0
 40
16.0
 40
16.0
 10
1435.481395937673
 20
-763.7255912279297
 30
0.0
 10
1435.481395937673
 20
-763.7255912279297
 30
0.0
 10
1435.432702372187
 20
-763.7255912279297
 30
0.0
 10
1435.432702372187
 20
-763.7255912279297
 30
0.0
 10
1435.432702372187
 20
-823.1216709798728
 30
0.0
 10
1435.425734008542
 20
-882.5177507318176
 30
0.0
 10
1435.439670735837
 20
-941.9207563573863
 30
0.0
 10
1435.439670735837
 20
-946.9330918303395
 30
0.0
 10
1435.147254402816
 20
-951.8827970105167
 30
0.0
 10
1433.379074617527
 20
-956.6514522059524
 30
0.0
 10
1428.575492623813
 20
-969.6069149255409
 30
0.0
 10
1416.149200641141
 20
-978.0512969644824
 30
0.0
 10
1401.717804509198
 20
-978.0512969644824
 30
0.0
 10
1324.451398675719
 20
-978.0443286008358
 30
0.0
 10
1247.184992842242
 20
-978.0304343635634
 30
0.0
 10
1169.925555372409
 20
-978.0164976362703
 30
0.0
 10
1167.370630335419
 20
-978.0164976362703
 30
0.0
 10
1164.815790278473
 20
-978.0791279290479
 30
0.0
 10
1162.267833605127
 20
-977.9886666717084
 30
0.0
 10
1144.084228589654
 20
-977.3412037128927
 30
0.0
 10
1130.404735891181
 20
-963.7104895599431
 30
0.0
 10
1129.680790892342
 20
-945.5477471453878
 30
0.0
 10
1129.645949074109
 20
-944.6218470708654
 30
0.0
 10
1129.659885801402
 20
-943.6959894863639
 30
0.0
 10
1129.659885801402
 20
-942.7631210481949
 30
0.0
 10
1129.659885801402
 20
-823.386213858309
 30
0.0
 10
1129.680790892342
 20
-704.0092641784004
 30
0.0
 10
1129.625043983169
 20
-584.6323569885144
 30
0.0
 10
1129.625043983169
 20
-574.9001023756309
 30
0.0
 10
1132.242599312936
 20
-566.3582482256815
 30
0.0
 10
1139.245974737798
 20
-559.3688095281113
 30
0.0
 10
1146.207539980784
 20
-552.435117739712
 30
0.0
 10
1154.610111837846
 20
-549.3581602895419
 30
0.0
 10
1164.384091652564
 20
-549.3651286531885
 30
0.0
 10
1221.343666059487
 20
-549.4207056022723
 30
0.0
 10
1278.310208830053
 20
-549.3929171277313
 30
0.0
 10
1335.269613276887
 20
-549.3929171277313
 30
0.0
 10
1357.546622054436
 20
-549.3929171277313
 30
0.0
 10
1379.823630831986
 20
-549.302413380371
 30
0.0
 10
1402.093756225935
 20
-549.427673965919
 30
0.0
 10
1418.641325425269
 20
-549.5182626933247
 30
0.0
 10
1431.736070437744
 20
-560.3365622745359
 30
0.0
 10
1434.847869706145
 20
-576.1671548386793
 30
0.0
 10
1435.683308523332
 20
-580.406639297199
 30
0.0
 10
1435.467544190422
 20
-584.7158923722282
 30
0.0
 10
1435.474427574025
 20
-589.0042403563192
 30
0.0
 10
1435.481395937673
 20
-647.244633993495
 30
0.0
 10
1435.481395937673
 20
-705.4851975907559
 30
0.0
 10
1435.481395937673
 20
-763.7255912279297
 30
0.0
  0
SPLINE
  5
7D
330
70
100
AcDbEntity
  8
Layer 1
100
AcDbSpline
210
0.0
220
0.0
230
1.0
 70
    11
 71
     3
 72
    47
 73
    43
 74
     0
 42
0.0000000001
 43
0.0000000001
 40
0.0
 40
0.0
 40
0.0
 40
0.0
 40
1.0
 40
1.0
 40
1.0
 40
2.0
 40
2.0
 40
2.0
 40
3.0
 40
3.0
 40
3.0
 40
4.0
 40
4.0
 40
4.0
 40
5.0
 40
5.0
 40
5.0
 40
6.0
 40
6.0
 40
6.0
 40
7.0
 40
7.0
 40
7.0
 40
8.0
 40
8.0
 40
8.0
 40
9.0
 40
9.0
 40
9.0
 40
10.0
 40
10.0
 40
10.0
 40
11.0
 40
11.0
 40
11.0
 40
12.0
 40
12.0
 40
12.0
 40
13.0
 40
13.0
 40
13.0
 40
14.0
 40
14.0
 40
14.0
 40
14.0
 10
1162.32630623258
 20
-622.6861495973598
 30
0.0
 10
1162.32630623258
 20
-622.6861495973598
 30
0.0
 10
1162.32630623258
 20
-622.4810714723599
 30
0.0
 10
1162.32630623258
 20
-622.4810714723599
 30
0.0
 10
1162.32630623258
 20
-622.4810714723599
 30
0.0
 10
1166.77503670133
 20
-617.5665206911098
 30
0.0
 10
1166.77503670133
 20
-617.5665206911098
 30
0.0
 10
1178.49622810758
 20
-604.0518722536099
 30
0.0
 10
1185.93958748258
 20
-594.1202316286099
 30
0.0
 10
1185.93958748258
 20
-581.8340988161098
 30
0.0
 10
1185.93958748258
 20
-572.3121261598598
 30
0.0
 10
1180.89173592008
 20
-562.4830245973599
 30
0.0
 10
1168.91419685758
 20
-562.4830245973599
 30
0.0
 10
1162.49720467008
 20
-562.4830245973599
 30
0.0
 10
1157.02161873258
 20
-565.3497238161098
 30
0.0
 10
1153.17152107633
 20
-569.2403488161098
 30
0.0
 10
1153.17152107633
 20
-569.2403488161098
 30
0.0
 10
1155.56702888883
 20
-575.5884933473598
 30
0.0
 10
1155.56702888883
 20
-575.5884933473598
 30
0.0
 10
1158.13392342008
 20
-573.0284347536098
 30
0.0
 10
1162.32630623258
 20
-569.9571456911098
 30
0.0
 10
1167.37415779508
 20
-569.9571456911098
 30
0.0
 10
1175.67298592008
 20
-569.9571456911098
 30
0.0
 10
1178.41077888883
 20
-576.2027511598598
 30
0.0
 10
1178.41077888883
 20
-582.9600753786098
 30
0.0
 10
1178.32532967008
 20
-592.9937667848598
 30
0.0
 10
1171.90833748258
 20
-601.5943527223599
 30
0.0
 10
1157.70618904508
 20
-617.7715988161098
 30
0.0
 10
1157.70618904508
 20
-617.7715988161098
 30
0.0
 10
1151.80286873258
 20
-624.6314620973598
 30
0.0
 10
1151.80286873258
 20
-624.6314620973598
 30
0.0
 10
1151.80286873258
 20
-624.6314620973598
 30
0.0
 10
1151.80286873258
 20
-630.1602706911098
 30
0.0
 10
1151.80286873258
 20
-630.1602706911098
 30
0.0
 10
1151.80286873258
 20
-630.1602706911098
 30
0.0
 10
1187.30872810758
 20
-630.1602706911098
 30
0.0
 10
1187.30872810758
 20
-630.1602706911098
 30
0.0
 10
1187.30872810758
 20
-630.1602706911098
 30
0.0
 10
1187.30872810758
 20
-622.6861495973598
 30
0.0
 10
1187.30872810758
 20
-622.6861495973598
 30
0.0
 10
1187.30872810758
 20
-622.6861495973598
 30
0.0
 10
1162.32630623258
 20
-622.6861495973598
 30
0.0
 10
1162.32630623258
 20
-622.6861495973598
 30
0.0
  0
HATCH
  5
7E
330
70
100
AcDbEntity
  8
Layer 1
 62
   246
420
  8590872
440
 33554687
100
AcDbHatch
 10
0.0
 20
0.0
 30
0.0
210
0.0
220
0.0
230
1.0
  2
SOLID
 70
     1
 71
     1
 91
        1
 92
        1
 93
        1
 72
     4
 94
        3
 73
     0
 74
     0
 95
       47
 96
       43
 40
0.0
 40
0.0
 40
0.0
 40
0.0
 40
1.0
 40
1.0
 40
1.0
 40
2.0
 40
2.0
 40
2.0
 40
3.0
 40
3.0
 40
3.0
 40
4.0
 40
4.0
 40
4.0
 40
5.0
 40
5.0
 40
5.0
 40
6.0
 40
6.0
 40
6.0
 40
7.0
 40
7.0
 40
7.0
 40
8.0
 40
8.0
 40
8.0
 40
9.0
 40
9.0
 40
9.0
 40
10.0
 40
10.0
 40
10.0
 40
11.0
 40
11.0
 40
11.0
 40
12.0
 40
12.0
 40
12.0
 40
13.0
 40
13.0
 40
13.0
 40
14.0
 40
14.0
 40
14.0
 40
14.0
 10
1162.32630623258
 20
-622.6861495973598
 10
1162.32630623258
 20
-622.6861495973598
 10
1162.32630623258
 20
-622.4810714723599
 10
1162.32630623258
 20
-622.4810714723599
 10
1162.32630623258
 20
-622.4810714723599
 10
1166.77503670133
 20
-617.5665206911098
 10
1166.77503670133
 20
-617.5665206911098
 10
1178.49622810758
 20
-604.0518722536099
 10
1185.93958748258
 20
-594.1202316286099
 10
1185.93958748258
 20
-581.8340988161098
 10
1185.93958748258
 20
-572.3121261598598
 10
1180.89173592008
 20
-562.4830245973599
 10
1168.91419685758
 20
-562.4830245973599
 10
1162.49720467008
 20
-562.4830245973599
 10
1157.02161873258
 20
-565.3497238161098
 10
1153.17152107633
 20
-569.2403488161098
 10
1153.17152107633
 20
-569.2403488161098
 10
1155.56702888883
 20
-575.5884933473598
 10
1155.56702888883
 20
-575.5884933473598
 10
1158.13392342008
 20
-573.0284347536098
 10
1162.32630623258
 20
-569.9571456911098
 10
1167.37415779508
 20
-569.9571456911098
 10
1175.67298592008
 20
-569.9571456911098
 10
1178.41077888883
 20
-576.2027511598598
 10
1178.41077888883
 20
-582.9600753786098
 10
1178.32532967008
 20
-592.9937667848598
 10
1171.90833748258
 20
-601.5943527223599
 10
1157.70618904508
 20
-617.7715988161098
 10
1157.70618904508
 20
-617.7715988161098
 10
1151.80286873258
 20
-624.6314620973598
 10
1151.80286873258
 20
-624.6314620973598
 10
1151.80286873258
 20
-624.6314620973598
 10
1151.80286873258
 20
-630.1602706911098
 10
1151.80286873258
 20
-630.1602706911098
 10
1151.80286873258
 20
-630.1602706911098
 10
1187.30872810758
 20
-630.1602706911098
 10
1187.30872810758
 20
-630.1602706911098
 10
1187.30872810758
 20
-630.1602706911098
 10
1187.30872810758
 20
-622.6861495973598
 10
1187.30872810758
 20
-622.6861495973598
 10
1187.30872810758
 20
-622.6861495973598
 10
1162.32630623258
 20
-622.6861495973598
 10
1162.32630623258
 20
-622.6861495973598
 97
        0
 97
        1
330
7D
 75
     2
 76
     1
 98
        1
 10
0.0
 20
0.0
450
        0
451
        0
460
0.0
461
0.0
452
        0
462
0.0
453
        0
470

  0
SPLINE
  5
7F
330
70
100
AcDbEntity
  8
Layer 1
100
AcDbSpline
210
0.0
220
0.0
230
1.0
 70
     9
 71
     3
 72
    17
 73
    13
 74
     0
 42
0.0000000001
 43
0.0000000001
 40
0.0
 40
0.0
 40
0.0
 40
0.0
 40
1.0
 40
1.0
 40
1.0
 40
2.0
 40
2.0
 40
2.0
 40
3.0
 40
3.0
 40
3.0
 40
4.0
 40
4.0
 40
4.0
 40
4.0
 10
1274.267171332225
 20
-671.6011868729665
 30
0.0
 10
1273.505144144543
 20
-677.9281274645645
 30
0.0
 10
1273.897817417046
 20
-682.882622888309
 30
0.0
 10
1282.709362919326
 20
-682.7751652198958
 30
0.0
 10
1290.814300179034
 20
-682.6763208574111
 30
0.0
 10
1290.991657495832
 20
-678.1951482945069
 30
0.0
 10
1290.959741525034
 20
-672.2002039075023
 30
0.0
 10
1290.926590312689
 20
-665.9726084519907
 30
0.0
 10
1291.195255349286
 20
-660.8088313944271
 30
0.0
 10
1282.284673521308
 20
-660.9637206690213
 30
0.0
 10
1274.187498252406
 20
-661.1044547431784
 30
0.0
 10
1273.539113287101
 20
-665.4728781299573
 30
0.0
 10
1274.267171332225
 20
-671.6011868729665
 30
0.0
  0
SPLINE
  5
80
330
70
100
AcDbEntity
  8
Layer 1
100
AcDbSpline
210
0.0
220
0.0
230
1.0
 70
     9
 71
     3
 72
    26
 73
    22
 74
     0
 42
0.0000000001
 43
0.0000000001
 40
0.0
 40
0.0
 40
0.0
 40
0.0
 40
1.0
 40
1.0
 40
1.0
 40
2.0
 40
2.0
 40
2.0
 40
3.0
 40
3.0
 40
3.0
 40
4.0
 40
4.0
 40
4.0
 40
5.0
 40
5.0
 40
5.0
 40
6.0
 40
6.0
 40
6.0
 40
7.0
 40
7.0
 40
7.0
 40
7.0
 10
1274.154213500435
 20
-709.5507951636837
 30
0.0
 10
1274.154213500435
 20
-715.0165553947253
 30
0.0
 10
1274.453893115349
 20
-720.5031811924482
 30
0.0
 10
1274.075258196109
 20
-725.9425840396589
 30
0.0
 10
1273.641922107257
 20
-732.1678008205663
 30
0.0
 10
1276.184983989558
 20
-734.2858394557815
 30
0.0
 10
1282.293670753659
 20
-734.1980705360902
 30
0.0
 10
1287.954031605806
 20
-734.1167282109354
 30
0.0
 10
1291.214034359302
 20
-732.9897205308525
 30
0.0
 10
1290.938375184752
 20
-726.3530848523341
 30
0.0
 10
1290.54555168017
 20
-716.8956415602979
 30
0.0
 10
1290.692128112998
 20
-707.4057815238639
 30
0.0
 10
1290.907594300783
 20
-697.9365867446713
 30
0.0
 10
1291.050281391981
 20
-691.6647479415687
 30
0.0
 10
1291.300701577072
 20
-686.9239743442349
 30
0.0
 10
1282.148963875606
 20
-687.0382508798384
 30
0.0
 10
1273.382387842639
 20
-687.1476866039729
 30
0.0
 10
1273.993832408689
 20
-691.8741714612415
 30
0.0
 10
1274.125335556146
 20
-697.5265032433281
 30
0.0
 10
1274.218546215628
 20
-701.5325751991067
 30
0.0
 10
1274.143396790667
 20
-705.5425531889696
 30
0.0
 10
1274.154213500435
 20
-709.5507951636837
 30
0.0
  0
SPLINE
  5
81
330
70
100
AcDbEntity
  8
Layer 1
100
AcDbSpline
210
0.0
220
0.0
230
1.0
 70
     9
 71
     3
 72
    26
 73
    22
 74
     0
 42
0.0000000001
 43
0.0000000001
 40
0.0
 40
0.0
 40
0.0
 40
0.0
 40
1.0
 40
1.0
 40
1.0
 40
2.0
 40
2.0
 40
2.0
 40
3.0
 40
3.0
 40
3.0
 40
4.0
 40
4.0
 40
4.0
 40
5.0
 40
5.0
 40
5.0
 40
6.0
 40
6.0
 40
6.0
 40
7.0
 40
7.0
 40
7.0
 40
7.0
 10
1274.148421219124
 20
-632.8560579869308
 30
0.0
 10
1274.148421219124
 20
-637.9266494236936
 30
0.0
 10
1274.424430935192
 20
-643.0162452185932
 30
0.0
 10
1274.076827286724
 20
-648.0628913310328
 30
0.0
 10
1273.665274849489
 20
-654.0382554702637
 30
0.0
 10
1275.698048433012
 20
-656.3744978556123
 30
0.0
 10
1282.031148539894
 20
-656.3524972021014
 30
0.0
 10
1288.347673040602
 20
-656.3305466259525
 30
0.0
 10
1291.326040721251
 20
-654.898968442124
 30
0.0
 10
1290.972210787682
 20
-647.9089284875981
 30
0.0
 10
1290.478464710173
 20
-638.1550606090486
 30
0.0
 10
1290.565315544931
 20
-628.345790477847
 30
0.0
 10
1290.956503189085
 20
-618.5823828622114
 30
0.0
 10
1291.212849195113
 20
-612.1843199000222
 30
0.0
 10
1289.200407019765
 20
-609.4194570438912
 30
0.0
 10
1282.425674674718
 20
-609.4122083460251
 30
0.0
 10
1275.500059243879
 20
-609.4047968967397
 30
0.0
 10
1273.617050351773
 20
-612.5004332352554
 30
0.0
 10
1274.07854660942
 20
-618.7359200480832
 30
0.0
 10
1274.425132018236
 20
-623.4186706775899
 30
0.0
 10
1274.147035745496
 20
-628.14765940286
 30
0.0
 10
1274.148421219124
 20
-632.8560579869308
 30
0.0
  0
SPLINE
  5
82
330
70
100
AcDbEntity
  8
Layer 1
100
AcDbSpline
210
0.0
220
0.0
230
1.0
 70
     9
 71
     3
 72
    59
 73
    55
 74
     0
 42
0.0000000001
 43
0.0000000001
 40
0.0
 40
0.0
 40
0.0
 40
0.0
 40
1.0
 40
1.0
 40
1.0
 40
2.0
 40
2.0
 40
2.0
 40
3.0
 40
3.0
 40
3.0
 40
4.0
 40
4.0
 40
4.0
 40
5.0
 40
5.0
 40
5.0
 40
6.0
 40
6.0
 40
6.0
 40
7.0
 40
7.0
 40
7.0
 40
8.0
 40
8.0
 40
8.0
 40
9.0
 40
9.0
 40
9.0
 40
10.0
 40
10.0
 40
10.0
 40
11.0
 40
11.0
 40
11.0
 40
12.0
 40
12.0
 40
12.0
 40
13.0
 40
13.0
 40
13.0
 40
14.0
 40
14.0
 40
14.0
 40
15.0
 40
15.0
 40
15.0
 40
16.0
 40
16.0
 40
16.0
 40
17.0
 40
17.0
 40
17.0
 40
18.0
 40
18.0
 40
18.0
 40
18.0
 10
1283.73638280387
 20
-598.7891769411098
 30
0.0
 10
1289.758268810576
 20
-599.5299254238879
 30
0.0
 10
1296.756646645546
 20
-599.718671166981
 30
0.0
 10
1303.397522207215
 20
-601.3567433449216
 30
0.0
 10
1314.904665230469
 20
-604.195148977381
 30
0.0
 10
1316.83848595056
 20
-612.1300235224016
 30
0.0
 10
1308.657898492292
 20
-620.3824386074184
 30
0.0
 10
1305.728756856559
 20
-623.3372949675294
 30
0.0
 10
1300.577465754095
 20
-624.4635932183455
 30
0.0
 10
1300.638777135236
 20
-629.9462879433058
 30
0.0
 10
1300.740400791203
 20
-639.0355374456712
 30
0.0
 10
1300.54913866077
 20
-648.1405362777705
 30
0.0
 10
1301.06249837096
 20
-657.2059990341176
 30
0.0
 10
1301.244846731308
 20
-660.4265324816779
 30
0.0
 10
1305.324849562956
 20
-660.7226732964837
 30
0.0
 10
1307.583505425153
 20
-662.4076095371902
 30
0.0
 10
1315.413351053723
 20
-668.2485910807636
 30
0.0
 10
1315.975052108804
 20
-676.3870050556552
 30
0.0
 10
1307.547683420273
 20
-680.6879742384653
 30
0.0
 10
1300.75380483124
 20
-684.1552972625131
 30
0.0
 10
1300.332170152182
 20
-688.7658363388445
 30
0.0
 10
1300.52595284307
 20
-694.8104574670078
 30
0.0
 10
1300.885508288136
 20
-706.02626710202
 30
0.0
 10
1298.034303717075
 20
-717.3898383340484
 30
0.0
 10
1310.308515048922
 20
-725.8276731908272
 30
0.0
 10
1317.451015526079
 20
-730.7377249575393
 30
0.0
 10
1314.004457913992
 20
-739.3006029823309
 30
0.0
 10
1304.659955761292
 20
-741.7450625427181
 30
0.0
 10
1290.363971172674
 20
-745.4847730204628
 30
0.0
 10
1275.870314551539
 20
-745.5055050475157
 30
0.0
 10
1261.477538772198
 20
-742.0244441343648
 30
0.0
 10
1257.285663118229
 20
-741.010594595512
 30
0.0
 10
1252.633793527413
 20
-739.9684346557833
 30
0.0
 10
1251.73350274867
 20
-734.6549429841588
 30
0.0
 10
1250.850096386486
 20
-729.44105518165
 30
0.0
 10
1253.502351952347
 20
-725.689242675232
 30
0.0
 10
1257.348902477728
 20
-722.4222791686925
 30
0.0
 10
1263.30710677492
 20
-717.3618450897874
 30
0.0
 10
1269.016626902168
 20
-689.6413722092774
 30
0.0
 10
1263.290681400827
 20
-685.7072781123234
 30
0.0
 10
1248.412948120662
 20
-675.4852703796959
 30
0.0
 10
1247.498994568856
 20
-668.0812659284265
 30
0.0
 10
1263.274614914482
 20
-658.0066275201616
 30
0.0
 10
1268.563810720261
 20
-654.6288261234049
 30
0.0
 10
1263.513066610525
 20
-626.4600106384833
 30
0.0
 10
1258.140375153112
 20
-621.9724114810424
 30
0.0
 10
1254.032571040418
 20
-618.5413361194341
 30
0.0
 10
1250.781882675888
 20
-614.7501544617998
 30
0.0
 10
1251.707888179011
 20
-609.0025171173374
 30
0.0
 10
1252.757042256691
 20
-602.4905698921984
 30
0.0
 10
1258.59903369369
 20
-601.8256134938337
 30
0.0
 10
1263.316003852553
 20
-600.8658182920253
 30
0.0
 10
1269.68546012282
 20
-599.5697703100258
 30
0.0
 10
1276.300746153511
 20
-599.4817718691002
 30
0.0
 10
1283.73638280387
 20
-598.7891769411098
 30
0.0
  0
HATCH
  5
83
330
70
100
AcDbEntity
  8
Layer 1
 62
   118
420
  1005869
440
 33554687
100
AcDbHatch
 10
0.0
 20
0.0
 30
0.0
210
0.0
220
0.0
230
1.0
  2
SOLID
 70
     1
 71
     1
 91
        4
 92
        1
 93
        1
 72
     4
 94
        3
 73
     0
 74
     0
 95
       17
 96
       13
 40
0.0
 40
0.0
 40
0.0
 40
0.0
 40
1.0
 40
1.0
 40
1.0
 40
2.0
 40
2.0
 40
2.0
 40
3.0
 40
3.0
 40
3.0
 40
4.0
 40
4.0
 40
4.0
 40
4.0
 10
1274.267171332225
 20
-671.6011868729665
 10
1273.505144144543
 20
-677.9281274645645
 10
1273.897817417046
 20
-682.882622888309
 10
1282.709362919326
 20
-682.7751652198958
 10
1290.814300179034
 20
-682.6763208574111
 10
1290.991657495832
 20
-678.1951482945069
 10
1290.959741525034
 20
-672.2002039075023
 10
1290.926590312689
 20
-665.9726084519907
 10
1291.195255349286
 20
-660.8088313944271
 10
1282.284673521308
 20
-660.9637206690213
 10
1274.187498252406
 20
-661.1044547431784
 10
1273.539113287101
 20
-665.4728781299573
 10
1274.267171332225
 20
-671.6011868729665
 97
        0
 97
        1
330
7F
 92
        1
 93
        1
 72
     4
 94
        3
 73
     0
 74
     0
 95
       26
 96
       22
 40
0.0
 40
0.0
 40
0.0
 40
0.0
 40
1.0
 40
1.0
 40
1.0
 40
2.0
 40
2.0
 40
2.0
 40
3.0
 40
3.0
 40
3.0
 40
4.0
 40
4.0
 40
4.0
 40
5.0
 40
5.0
 40
5.0
 40
6.0
 40
6.0
 40
6.0
 40
7.0
 40
7.0
 40
7.0
 40
7.0
 10
1274.154213500435
 20
-709.5507951636837
 10
1274.154213500435
 20
-715.0165553947253
 10
1274.453893115349
 20
-720.5031811924482
 10
1274.075258196109
 20
-725.9425840396589
 10
1273.641922107257
 20
-732.1678008205663
 10
1276.184983989558
 20
-734.2858394557815
 10
1282.293670753659
 20
-734.1980705360902
 10
1287.954031605806
 20
-734.1167282109354
 10
1291.214034359302
 20
-732.9897205308525
 10
1290.938375184752
 20
-726.3530848523341
 10
1290.54555168017
 20
-716.8956415602979
 10
1290.692128112998
 20
-707.4057815238639
 10
1290.907594300783
 20
-697.9365867446713
 10
1291.050281391981
 20
-691.6647479415687
 10
1291.300701577072
 20
-686.9239743442349
 10
1282.148963875606
 20
-687.0382508798384
 10
1273.382387842639
 20
-687.1476866039729
 10
1273.993832408689
 20
-691.8741714612415
 10
1274.125335556146
 20
-697.5265032433281
 10
1274.218546215628
 20
-701.5325751991067
 10
1274.143396790667
 20
-705.5425531889696
 10
1274.154213500435
 20
-709.5507951636837
 97
        0
 97
        1
330
80
 92
        1
 93
        1
 72
     4
 94
        3
 73
     0
 74
     0
 95
       26
 96
       22
 40
0.0
 40
0.0
 40
0.0
 40
0.0
 40
1.0
 40
1.0
 40
1.0
 40
2.0
 40
2.0
 40
2.0
 40
3.0
 40
3.0
 40
3.0
 40
4.0
 40
4.0
 40
4.0
 40
5.0
 40
5.0
 40
5.0
 40
6.0
 40
6.0
 40
6.0
 40
7.0
 40
7.0
 40
7.0
 40
7.0
 10
1274.148421219124
 20
-632.8560579869308
 10
1274.148421219124
 20
-637.9266494236936
 10
1274.424430935192
 20
-643.0162452185932
 10
1274.076827286724
 20
-648.0628913310328
 10
1273.665274849489
 20
-654.0382554702637
 10
1275.698048433012
 20
-656.3744978556123
 10
1282.031148539894
 20
-656.3524972021014
 10
1288.347673040602
 20
-656.3305466259525
 10
1291.326040721251
 20
-654.898968442124
 10
1290.972210787682
 20
-647.9089284875981
 10
1290.478464710173
 20
-638.1550606090486
 10
1290.565315544931
 20
-628.345790477847
 10
1290.956503189085
 20
-618.5823828622114
 10
1291.212849195113
 20
-612.1843199000222
 10
1289.200407019765
 20
-609.4194570438912
 10
1282.425674674718
 20
-609.4122083460251
 10
1275.500059243879
 20
-609.4047968967397
 10
1273.617050351773
 20
-612.5004332352554
 10
1274.07854660942
 20
-618.7359200480832
 10
1274.425132018236
 20
-623.4186706775899
 10
1274.147035745496
 20
-628.14765940286
 10
1274.148421219124
 20
-632.8560579869308
 97
        0
 97
        1
330
81
 92
        1
 93
        1
 72
     4
 94
        3
 73
     0
 74
     0
 95
       59
 96
       55
 40
0.0
 40
0.0
 40
0.0
 40
0.0
 40
1.0
 40
1.0
 40
1.0
 40
2.0
 40
2.0
 40
2.0
 40
3.0
 40
3.0
 40
3.0
 40
4.0
 40
4.0
 40
4.0
 40
5.0
 40
5.0
 40
5.0
 40
6.0
 40
6.0
 40
6.0
 40
7.0
 40
7.0
 40
7.0
 40
8.0
 40
8.0
 40
8.0
 40
9.0
 40
9.0
 40
9.0
 40
10.0
 40
10.0
 40
10.0
 40
11.0
 40
11.0
 40
11.0
 40
12.0
 40
12.0
 40
12.0
 40
13.0
 40
13.0
 40
13.0
 40
14.0
 40
14.0
 40
14.0
 40
15.0
 40
15.0
 40
15.0
 40
16.0
 40
16.0
 40
16.0
 40
17.0
 40
17.0
 40
17.0
 40
18.0
 40
18.0
 40
18.0
 40
18.0
 10
1283.73638280387
 20
-598.7891769411098
 10
1289.758268810576
 20
-599.5299254238879
 10
1296.756646645546
 20
-599.718671166981
 10
1303.397522207215
 20
-601.3567433449216
 10
1314.904665230469
 20
-604.195148977381
 10
1316.83848595056
 20
-612.1300235224016
 10
1308.657898492292
 20
-620.3824386074184
 10
1305.728756856559
 20
-623.3372949675294
 10
1300.577465754095
 20
-624.4635932183455
 10
1300.638777135236
 20
-629.9462879433058
 10
1300.740400791203
 20
-639.0355374456712
 10
1300.54913866077
 20
-648.1405362777705
 10
1301.06249837096
 20
-657.2059990341176
 10
1301.244846731308
 20
-660.4265324816779
 10
1305.324849562956
 20
-660.7226732964837
 10
1307.583505425153
 20
-662.4076095371902
 10
1315.413351053723
 20
-668.2485910807636
 10
1315.975052108804
 20
-676.3870050556552
 10
1307.547683420273
 20
-680.6879742384653
 10
1300.75380483124
 20
-684.1552972625131
 10
1300.332170152182
 20
-688.7658363388445
 10
1300.52595284307
 20
-694.8104574670078
 10
1300.885508288136
 20
-706.02626710202
 10
1298.034303717075
 20
-717.3898383340484
 10
1310.308515048922
 20
-725.8276731908272
 10
1317.451015526079
 20
-730.7377249575393
 10
1314.004457913992
 20
-739.3006029823309
 10
1304.659955761292
 20
-741.7450625427181
 10
1290.363971172674
 20
-745.4847730204628
 10
1275.870314551539
 20
-745.5055050475157
 10
1261.477538772198
 20
-742.0244441343648
 10
1257.285663118229
 20
-741.010594595512
 10
1252.633793527413
 20
-739.9684346557833
 10
1251.73350274867
 20
-734.6549429841588
 10
1250.850096386486
 20
-729.44105518165
 10
1253.502351952347
 20
-725.689242675232
 10
1257.348902477728
 20
-722.4222791686925
 10
1263.30710677492
 20
-717.3618450897874
 10
1269.016626902168
 20
-689.6413722092774
 10
1263.290681400827
 20
-685.7072781123234
 10
1248.412948120662
 20
-675.4852703796959
 10
1247.498994568856
 20
-668.0812659284265
 10
1263.274614914482
 20
-658.0066275201616
 10
1268.563810720261
 20
-654.6288261234049
 10
1263.513066610525
 20
-626.4600106384833
 10
1258.140375153112
 20
-621.9724114810424
 10
1254.032571040418
 20
-618.5413361194341
 10
1250.781882675888
 20
-614.7501544617998
 10
1251.707888179011
 20
-609.0025171173374
 10
1252.757042256691
 20
-602.4905698921984
 10
1258.59903369369
 20
-601.8256134938337
 10
1263.316003852553
 20
-600.8658182920253
 10
1269.68546012282
 20
-599.5697703100258
 10
1276.300746153511
 20
-599.4817718691002
 10
1283.73638280387
 20
-598.7891769411098
 97
        0
 97
        1
330
82
 75
     2
 76
     1
 98
        1
 10
0.0
 20
0.0
450
        0
451
        0
460
0.0
461
0.0
452
        0
462
0.0
453
        0
470

  0
SPLINE
  5
84
330
70
100
AcDbEntity
  8
Layer 1
100
AcDbSpline
210
0.0
220
0.0
230
1.0
 70
     9
 71
     3
 72
    17
 73
    13
 74
     0
 42
0.0000000001
 43
0.0000000001
 40
0.0
 40
0.0
 40
0.0
 40
0.0
 40
1.0
 40
1.0
 40
1.0
 40
2.0
 40
2.0
 40
2.0
 40
3.0
 40
3.0
 40
3.0
 40
4.0
 40
4.0
 40
4.0
 40
4.0
 10
1290.665103031029
 20
-856.060358023612
 30
0.0
 10
1291.818184323241
 20
-850.0709054537592
 30
0.0
 10
1290.831026017286
 20
-845.202284356249
 30
0.0
 10
1282.341010551348
 20
-845.2209799039964
 30
0.0
 10
1274.488763650388
 20
-845.2382399007555
 30
0.0
 10
1273.901422986968
 20
-849.8097353287112
 30
0.0
 10
1274.043058453606
 20
-855.9346972348276
 30
0.0
 10
1274.184059607016
 20
-862.0323169023604
 30
0.0
 10
1273.517196095858
 20
-867.3077664728088
 30
0.0
 10
1282.661722657478
 20
-867.1427782639412
 30
0.0
 10
1290.848185859326
 20
-866.995016666925
 30
0.0
 10
1291.449715108089
 20
-862.7823756009938
 30
0.0
 10
1290.665103031029
 20
-856.060358023612
 30
0.0
  0
SPLINE
  5
85
330
70
100
AcDbEntity
  8
Layer 1
100
AcDbSpline
210
0.0
220
0.0
230
1.0
 70
     9
 71
     3
 72
    26
 73
    22
 74
     0
 42
0.0000000001
 43
0.0000000001
 40
0.0
 40
0.0
 40
0.0
 40
0.0
 40
1.0
 40
1.0
 40
1.0
 40
2.0
 40
2.0
 40
2.0
 40
3.0
 40
3.0
 40
3.0
 40
4.0
 40
4.0
 40
4.0
 40
5.0
 40
5.0
 40
5.0
 40
6.0
 40
6.0
 40
6.0
 40
7.0
 40
7.0
 40
7.0
 40
7.0
 10
1274.163995278095
 20
-817.8395641358429
 30
0.0
 10
1274.163995278095
 20
-823.3056582159525
 30
0.0
 10
1274.45110547564
 20
-828.7907983853283
 30
0.0
 10
1274.090147864494
 20
-834.2329721797915
 30
0.0
 10
1273.654892143508
 20
-840.7950092843083
 30
0.0
 10
1277.550443365684
 20
-841.0127456457495
 30
0.0
 10
1282.393925628455
 20
-840.9405674774816
 30
0.0
 10
1287.031990560354
 20
-840.8714941055377
 30
0.0
 10
1291.128251841559
 20
-841.1653480542344
 30
0.0
 10
1290.915289521776
 20
-834.4379221219705
 30
0.0
 10
1290.59265778351
 20
-824.244975950617
 30
0.0
 10
1290.567101637438
 20
-814.0231685274294
 30
0.0
 10
1290.955468256978
 20
-803.8341951599731
 30
0.0
 10
1291.20809184591
 20
-797.2068738704229
 30
0.0
 10
1289.756516102974
 20
-793.8606212104905
 30
0.0
 10
1282.049844087642
 20
-793.952229394451
 30
0.0
 10
1274.513902485127
 20
-794.0418177915571
 30
0.0
 10
1273.808829948261
 20
-797.8540736715395
 30
0.0
 10
1274.097793008126
 20
-803.6300130706504
 30
0.0
 10
1274.334191532407
 20
-808.3555130731721
 30
0.0
 10
1274.145917351121
 20
-813.1022458763519
 30
0.0
 10
1274.163995278095
 20
-817.8395641358429
 30
0.0
  0
SPLINE
  5
86
330
70
100
AcDbEntity
  8
Layer 1
100
AcDbSpline
210
0.0
220
0.0
230
1.0
 70
     9
 71
     3
 72
    26
 73
    22
 74
     0
 42
0.0000000001
 43
0.0000000001
 40
0.0
 40
0.0
 40
0.0
 40
0.0
 40
1.0
 40
1.0
 40
1.0
 40
2.0
 40
2.0
 40
2.0
 40
3.0
 40
3.0
 40
3.0
 40
4.0
 40
4.0
 40
4.0
 40
5.0
 40
5.0
 40
5.0
 40
6.0
 40
6.0
 40
6.0
 40
7.0
 40
7.0
 40
7.0
 40
7.0
 10
1274.154447194782
 20
-894.5916148511578
 30
0.0
 10
1274.154447194782
 20
-900.0238399434284
 30
0.0
 10
1274.453826345536
 20
-905.4768638325686
 30
0.0
 10
1274.077945681098
 20
-910.8829819278044
 30
0.0
 10
1273.618085283879
 20
-917.4967990226004
 30
0.0
 10
1277.161776281984
 20
-918.700992606954
 30
0.0
 10
1282.713953343997
 20
-918.7700659788998
 30
0.0
 10
1288.699633419395
 20
-918.8445477057275
 30
0.0
 10
1291.168447269214
 20
-916.6253861881441
 30
0.0
 10
1290.94151336598
 20
-910.4526170956479
 30
0.0
 10
1290.582558849237
 20
-900.6878657375173
 30
0.0
 10
1290.635791082955
 20
-890.8937356614979
 30
0.0
 10
1290.928977333518
 20
-881.1244773409661
 30
0.0
 10
1291.107202657889
 20
-875.1853358254948
 30
0.0
 10
1290.16716714773
 20
-871.9286047928553
 30
0.0
 10
1282.829999279656
 20
-871.8149959553839
 30
0.0
 10
1275.034072716284
 20
-871.6943095176947
 30
0.0
 10
1273.566989684188
 20
-875.0342023529038
 30
0.0
 10
1274.079765158512
 20
-881.5592823657125
 30
0.0
 10
1274.419189504844
 20
-885.8783878990843
 30
0.0
 10
1274.144081181253
 20
-890.2458347773418
 30
0.0
 10
1274.154447194782
 20
-894.5916148511578
 30
0.0
  0
SPLINE
  5
87
330
70
100
AcDbEntity
  8
Layer 1
100
AcDbSpline
210
0.0
220
0.0
230
1.0
 70
     9
 71
     3
 72
    59
 73
    55
 74
     0
 42
0.0000000001
 43
0.0000000001
 40
0.0
 40
0.0
 40
0.0
 40
0.0
 40
1.0
 40
1.0
 40
1.0
 40
2.0
 40
2.0
 40
2.0
 40
3.0
 40
3.0
 40
3.0
 40
4.0
 40
4.0
 40
4.0
 40
5.0
 40
5.0
 40
5.0
 40
6.0
 40
6.0
 40
6.0
 40
7.0
 40
7.0
 40
7.0
 40
8.0
 40
8.0
 40
8.0
 40
9.0
 40
9.0
 40
9.0
 40
10.0
 40
10.0
 40
10.0
 40
11.0
 40
11.0
 40
11.0
 40
12.0
 40
12.0
 40
12.0
 40
13.0
 40
13.0
 40
13.0
 40
14.0
 40
14.0
 40
14.0
 40
15.0
 40
15.0
 40
15.0
 40
16.0
 40
16.0
 40
16.0
 40
17.0
 40
17.0
 40
17.0
 40
18.0
 40
18.0
 40
18.0
 40
18.0
 10
1282.675176774876
 20
-928.7891769411098
 30
0.0
 10
1275.423774732091
 20
-928.2283438936019
 30
0.0
 10
1268.091581215112
 20
-928.5434640278626
 30
0.0
 10
1261.024697551611
 20
-926.2313589300511
 30
0.0
 10
1257.176010392202
 20
-924.9721804043756
 30
0.0
 10
1252.983667349539
 20
-924.1139879929697
 30
0.0
 10
1251.873293699213
 20
-919.5171534208357
 30
0.0
 10
1250.724034978819
 20
-914.7594369833559
 30
0.0
 10
1252.544856135988
 20
-910.196254397165
 30
0.0
 10
1256.587459525914
 20
-908.1678208515103
 30
0.0
 10
1267.071638930789
 20
-902.9072609494461
 30
0.0
 10
1264.181649444377
 20
-893.6022531413627
 30
0.0
 10
1264.354291143105
 20
-885.252120434462
 30
0.0
 10
1264.521349216187
 20
-877.1715040792779
 30
0.0
 10
1266.05358289369
 20
-869.2904960812038
 30
0.0
 10
1255.852816307946
 20
-864.1452810317577
 30
0.0
 10
1248.538792526435
 20
-860.4561153027452
 30
0.0
 10
1249.820739558474
 20
-852.0557049263688
 30
0.0
 10
1256.687489052589
 20
-848.2112993812416
 30
0.0
 10
1263.786831191621
 20
-844.2366593151119
 30
0.0
 10
1264.84090119681
 20
-839.1895958913382
 30
0.0
 10
1264.505967120431
 20
-832.1937886941823
 30
0.0
 10
1263.982157934444
 20
-821.2529371506798
 30
0.0
 10
1266.493896428042
 20
-810.2232984478296
 30
0.0
 10
1254.630703374925
 20
-802.1569875251634
 30
0.0
 10
1248.086393655861
 20
-797.7072134670042
 30
0.0
 10
1250.648827130271
 20
-789.5692251496739
 30
0.0
 10
1258.500514834044
 20
-787.1458982352205
 30
0.0
 10
1274.180988195601
 20
-782.306338698986
 30
0.0
 10
1290.201720526156
 20
-782.3864624750467
 30
0.0
 10
1305.916129645364
 20
-786.9261754718327
 30
0.0
 10
1314.78099084363
 20
-789.4871483565739
 30
0.0
 10
1316.900865648715
 20
-797.8339258803507
 30
0.0
 10
1309.281962553072
 20
-803.4846384944639
 30
0.0
 10
1294.825997491591
 20
-814.2061178160993
 30
0.0
 10
1302.262502149526
 20
-828.6230058442971
 30
0.0
 10
1300.980805504287
 20
-841.5288763031957
 30
0.0
 10
1300.636340037046
 20
-844.997467953698
 30
0.0
 10
1304.915233450307
 20
-845.3325522621589
 30
0.0
 10
1307.140304096372
 20
-847.0144838612659
 30
0.0
 10
1315.746799501758
 20
-853.5202006281952
 30
0.0
 10
1316.111896841332
 20
-860.6269792551911
 30
0.0
 10
1306.911300328924
 20
-865.9565123744805
 30
0.0
 10
1301.453719400022
 20
-869.117829343796
 30
0.0
 10
1300.29813423981
 20
-872.7198270814378
 30
0.0
 10
1300.494303951527
 20
-878.2322761044879
 30
0.0
 10
1300.919494123149
 20
-890.1788980394258
 30
0.0
 10
1297.858031409745
 20
-902.3769750915626
 30
0.0
 10
1310.78054424463
 20
-911.3410562325162
 30
0.0
 10
1316.724927190451
 20
-915.4645595975825
 30
0.0
 10
1314.069792176387
 20
-922.6792382430058
 30
0.0
 10
1306.415668004185
 20
-925.546801418347
 30
0.0
 10
1298.76421462452
 20
-928.4133630464866
 30
0.0
 10
1290.674450804903
 20
-928.3036936280049
 30
0.0
 10
1282.675176774876
 20
-928.7891769411098
 30
0.0
  0
HATCH
  5
88
330
70
100
AcDbEntity
  8
Layer 1
 62
   118
420
  1005869
440
 33554687
100
AcDbHatch
 10
0.0
 20
0.0
 30
0.0
210
0.0
220
0.0
230
1.0
  2
SOLID
 70
     1
 71
     1
 91
        4
 92
        1
 93
        1
 72
     4
 94
        3
 73
     0
 74
     0
 95
       17
 96
       13
 40
0.0
 40
0.0
 40
0.0
 40
0.0
 40
1.0
 40
1.0
 40
1.0
 40
2.0
 40
2.0
 40
2.0
 40
3.0
 40
3.0
 40
3.0
 40
4.0
 40
4.0
 40
4.0
 40
4.0
 10
1290.665103031029
 20
-856.060358023612
 10
1291.818184323241
 20
-850.0709054537592
 10
1290.831026017286
 20
-845.202284356249
 10
1282.341010551348
 20
-845.2209799039964
 10
1274.488763650388
 20
-845.2382399007555
 10
1273.901422986968
 20
-849.8097353287112
 10
1274.043058453606
 20
-855.9346972348276
 10
1274.184059607016
 20
-862.0323169023604
 10
1273.517196095858
 20
-867.3077664728088
 10
1282.661722657478
 20
-867.1427782639412
 10
1290.848185859326
 20
-866.995016666925
 10
1291.449715108089
 20
-862.7823756009938
 10
1290.665103031029
 20
-856.060358023612
 97
        0
 97
        1
330
84
 92
        1
 93
        1
 72
     4
 94
        3
 73
     0
 74
     0
 95
       26
 96
       22
 40
0.0
 40
0.0
 40
0.0
 40
0.0
 40
1.0
 40
1.0
 40
1.0
 40
2.0
 40
2.0
 40
2.0
 40
3.0
 40
3.0
 40
3.0
 40
4.0
 40
4.0
 40
4.0
 40
5.0
 40
5.0
 40
5.0
 40
6.0
 40
6.0
 40
6.0
 40
7.0
 40
7.0
 40
7.0
 40
7.0
 10
1274.163995278095
 20
-817.8395641358429
 10
1274.163995278095
 20
-823.3056582159525
 10
1274.45110547564
 20
-828.7907983853283
 10
1274.090147864494
 20
-834.2329721797915
 10
1273.654892143508
 20
-840.7950092843083
 10
1277.550443365684
 20
-841.0127456457495
 10
1282.393925628455
 20
-840.9405674774816
 10
1287.031990560354
 20
-840.8714941055377
 10
1291.128251841559
 20
-841.1653480542344
 10
1290.915289521776
 20
-834.4379221219705
 10
1290.59265778351
 20
-824.244975950617
 10
1290.567101637438
 20
-814.0231685274294
 10
1290.955468256978
 20
-803.8341951599731
 10
1291.20809184591
 20
-797.2068738704229
 10
1289.756516102974
 20
-793.8606212104905
 10
1282.049844087642
 20
-793.952229394451
 10
1274.513902485127
 20
-794.0418177915571
 10
1273.808829948261
 20
-797.8540736715395
 10
1274.097793008126
 20
-803.6300130706504
 10
1274.334191532407
 20
-808.3555130731721
 10
1274.145917351121
 20
-813.1022458763519
 10
1274.163995278095
 20
-817.8395641358429
 97
        0
 97
        1
330
85
 92
        1
 93
        1
 72
     4
 94
        3
 73
     0
 74
     0
 95
       26
 96
       22
 40
0.0
 40
0.0
 40
0.0
 40
0.0
 40
1.0
 40
1.0
 40
1.0
 40
2.0
 40
2.0
 40
2.0
 40
3.0
 40
3.0
 40
3.0
 40
4.0
 40
4.0
 40
4.0
 40
5.0
 40
5.0
 40
5.0
 40
6.0
 40
6.0
 40
6.0
 40
7.0
 40
7.0
 40
7.0
 40
7.0
 10
1274.154447194782
 20
-894.5916148511578
 10
1274.154447194782
 20
-900.0238399434284
 10
1274.453826345536
 20
-905.4768638325686
 10
1274.077945681098
 20
-910.8829819278044
 10
1273.618085283879
 20
-917.4967990226004
 10
1277.161776281984
 20
-918.700992606954
 10
1282.713953343997
 20
-918.7700659788998
 10
1288.699633419395
 20
-918.8445477057275
 10
1291.168447269214
 20
-916.6253861881441
 10
1290.94151336598
 20
-910.4526170956479
 10
1290.582558849237
 20
-900.6878657375173
 10
1290.635791082955
 20
-890.8937356614979
 10
1290.928977333518
 20
-881.1244773409661
 10
1291.107202657889
 20
-875.1853358254948
 10
1290.16716714773
 20
-871.9286047928553
 10
1282.829999279656
 20
-871.8149959553839
 10
1275.034072716284
 20
-871.6943095176947
 10
1273.566989684188
 20
-875.0342023529038
 10
1274.079765158512
 20
-881.5592823657125
 10
1274.419189504844
 20
-885.8783878990843
 10
1274.144081181253
 20
-890.2458347773418
 10
1274.154447194782
 20
-894.5916148511578
 97
        0
 97
        1
330
86
 92
        1
 93
        1
 72
     4
 94
        3
 73
     0
 74
     0
 95
       59
 96
       55
 40
0.0
 40
0.0
 40
0.0
 40
0.0
 40
1.0
 40
1.0
 40
1.0
 40
2.0
 40
2.0
 40
2.0
 40
3.0
 40
3.0
 40
3.0
 40
4.0
 40
4.0
 40
4.0
 40
5.0
 40
5.0
 40
5.0
 40
6.0
 40
6.0
 40
6.0
 40
7.0
 40
7.0
 40
7.0
 40
8.0
 40
8.0
 40
8.0
 40
9.0
 40
9.0
 40
9.0
 40
10.0
 40
10.0
 40
10.0
 40
11.0
 40
11.0
 40
11.0
 40
12.0
 40
12.0
 40
12.0
 40
13.0
 40
13.0
 40
13.0
 40
14.0
 40
14.0
 40
14.0
 40
15.0
 40
15.0
 40
15.0
 40
16.0
 40
16.0
 40
16.0
 40
17.0
 40
17.0
 40
17.0
 40
18.0
 40
18.0
 40
18.0
 40
18.0
 10
1282.675176774876
 20
-928.7891769411098
 10
1275.423774732091
 20
-928.2283438936019
 10
1268.091581215112
 20
-928.5434640278626
 10
1261.024697551611
 20
-926.2313589300511
 10
1257.176010392202
 20
-924.9721804043756
 10
1252.983667349539
 20
-924.1139879929697
 10
1251.873293699213
 20
-919.5171534208357
 10
1250.724034978819
 20
-914.7594369833559
 10
1252.544856135988
 20
-910.196254397165
 10
1256.587459525914
 20
-908.1678208515103
 10
1267.071638930789
 20
-902.9072609494461
 10
1264.181649444377
 20
-893.6022531413627
 10
1264.354291143105
 20
-885.252120434462
 10
1264.521349216187
 20
-877.1715040792779
 10
1266.05358289369
 20
-869.2904960812038
 10
1255.852816307946
 20
-864.1452810317577
 10
1248.538792526435
 20
-860.4561153027452
 10
1249.820739558474
 20
-852.0557049263688
 10
1256.687489052589
 20
-848.2112993812416
 10
1263.786831191621
 20
-844.2366593151119
 10
1264.84090119681
 20
-839.1895958913382
 10
1264.505967120431
 20
-832.1937886941823
 10
1263.982157934444
 20
-821.2529371506798
 10
1266.493896428042
 20
-810.2232984478296
 10
1254.630703374925
 20
-802.1569875251634
 10
1248.086393655861
 20
-797.7072134670042
 10
1250.648827130271
 20
-789.5692251496739
 10
1258.500514834044
 20
-787.1458982352205
 10
1274.180988195601
 20
-782.306338698986
 10
1290.201720526156
 20
-782.3864624750467
 10
1305.916129645364
 20
-786.9261754718327
 10
1314.78099084363
 20
-789.4871483565739
 10
1316.900865648715
 20
-797.8339258803507
 10
1309.281962553072
 20
-803.4846384944639
 10
1294.825997491591
 20
-814.2061178160993
 10
1302.262502149526
 20
-828.6230058442971
 10
1300.980805504287
 20
-841.5288763031957
 10
1300.636340037046
 20
-844.997467953698
 10
1304.915233450307
 20
-845.3325522621589
 10
1307.140304096372
 20
-847.0144838612659
 10
1315.746799501758
 20
-853.5202006281952
 10
1316.111896841332
 20
-860.6269792551911
 10
1306.911300328924
 20
-865.9565123744805
 10
1301.453719400022
 20
-869.117829343796
 10
1300.29813423981
 20
-872.7198270814378
 10
1300.494303951527
 20
-878.2322761044879
 10
1300.919494123149
 20
-890.1788980394258
 10
1297.858031409745
 20
-902.3769750915626
 10
1310.78054424463
 20
-911.3410562325162
 10
1316.724927190451
 20
-915.4645595975825
 10
1314.069792176387
 20
-922.6792382430058
 10
1306.415668004185
 20
-925.546801418347
 10
1298.76421462452
 20
-928.4133630464866
 10
1290.674450804903
 20
-928.3036936280049
 10
1282.675176774876
 20
-928.7891769411098
 97
        0
 97
        1
330
87
 75
     2
 76
     1
 98
        1
 10
0.0
 20
0.0
450
        0
451
        0
460
0.0
461
0.0
452
        0
462
0.0
453
        0
470

  0
ENDSEC
  0
SECTION
  2
OBJECTS
  0
DICTIONARY
  5
C
330
0
100
AcDbDictionary
281
     1
  3
ACAD_COLOR
350
63
  3
ACAD_DETAILVIEWSTYLE
350
6A
  3
ACAD_GROUP
350
D
  3
ACAD_LAYOUT
350
62
  3
ACAD_MATERIAL
350
10
  3
ACAD_MLEADERSTYLE
350
66
  3
ACAD_MLINESTYLE
350
5F
  3
ACAD_PLOTSETTINGS
350
61
  3
ACAD_PLOTSTYLENAME
350
E
  3
ACAD_SCALELIST
350
42
  3
ACAD_SECTIONVIEWSTYLE
350
68
  3
ACAD_TABLESTYLE
350
64
  3
ACAD_VISUALSTYLE
350
29
  3
ACDB_RECOMPOSE_DATA
350
91
  3
AcDbVariableDictionary
350
89
  0
DICTIONARY
  5
63
102
{ACAD_REACTORS
330
C
102
}
330
C
100
AcDbDictionary
281
     1
  0
DICTIONARY
  5
6A
102
{ACAD_REACTORS
330
C
102
}
330
C
100
AcDbDictionary
281
     1
  3
Imperial24
350
6B
  0
DICTIONARY
  5
D
102
{ACAD_REACTORS
330
C
102
}
330
C
100
AcDbDictionary
281
     1
  0
DICTIONARY
  5
62
102
{ACAD_REACTORS
330
C
102
}
330
C
100
AcDbDictionary
281
     1
  3
Layout1
350
6F
  3
Layout2
350
77
  3
Model
350
73
  0
DICTIONARY
  5
10
102
{ACAD_REACTORS
330
C
102
}
330
C
100
AcDbDictionary
281
     1
  3
ByBlock
350
19
  3
ByLayer
350
11
  3
Global
350
21
  0
DICTIONARY
  5
66
102
{ACAD_REACTORS
330
C
102
}
330
C
100
AcDbDictionary
281
     1
  3
Standard
350
67
  0
DICTIONARY
  5
5F
102
{ACAD_REACTORS
330
C
102
}
330
C
100
AcDbDictionary
281
     1
  3
Standard
350
60
  0
DICTIONARY
  5
61
102
{ACAD_REACTORS
330
C
102
}
330
C
100
AcDbDictionary
281
     1
  0
ACDBDICTIONARYWDFLT
  5
E
102
{ACAD_REACTORS
330
C
102
}
330
C
100
AcDbDictionary
281
     1
  3
Normal
350
F
100
AcDbDictionaryWithDefault
340
F
  0
DICTIONARY
  5
42
102
{ACAD_REACTORS
330
C
102
}
330
C
100
AcDbDictionary
281
     1
  3
A0
350
43
  3
A1
350
44
  3
A2
350
45
  3
A3
350
46
  3
A4
350
47
  3
A5
350
48
  3
A6
350
49
  3
A7
350
4A
  3
A8
350
4B
  3
A9
350
4C
  3
B0
350
4D
  3
B1
350
4E
  3
B2
350
4F
  3
B3
350
50
  3
B4
350
51
  3
B5
350
52
  3
B6
350
53
  0
DICTIONARY
  5
68
102
{ACAD_REACTORS
330
C
102
}
330
C
100
AcDbDictionary
281
     1
  3
Imperial24
350
69
  0
DICTIONARY
  5
64
102
{ACAD_REACTORS
330
C
102
}
330
C
100
AcDbDictionary
281
     1
  3
Standard
350
65
  0
DICTIONARY
  5
29
102
{ACAD_REACTORS
330
C
102
}
330
C
100
AcDbDictionary
281
     1
  3
2dWireframe
350
2F
  3
Basic
350
2E
  3
Brighten
350
35
  3
ColorChange
350
39
  3
Conceptual
350
32
  3
Dim
350
34
  3
EdgeColorOff
350
41
  3
Facepattern
350
38
  3
Flat
350
2A
  3
FlatWithEdges
350
2B
  3
Gouraud
350
2C
  3
GouraudWithEdges
350
2D
  3
Hidden
350
31
  3
JitterOff
350
3F
  3
Linepattern
350
37
  3
OverhangOff
350
40
  3
Realistic
350
33
  3
Shaded
350
3E
  3
Shaded with edges
350
3D
  3
Shades of Gray
350
3A
  3
Sketchy
350
3B
  3
Thicken
350
36
  3
Wireframe
350
30
  3
X-Ray
350
3C
  0
XRECORD
  5
91
102
{ACAD_REACTORS
330
C
102
}
330
C
100
AcDbXrecord
280
     1
 90
        1
330
65
  0
DICTIONARY
  5
89
102
{ACAD_REACTORS
330
C
102
}
330
C
100
AcDbDictionary
281
     1
  3
CANNOSCALE
350
8E
  3
CMLEADERSTYLE
350
8B
  3
CTABLESTYLE
350
8A
  3
CVIEWDETAILSTYLE
350
8C
  3
CVIEWSECTIONSTYLE
350
8D
  0
ACDBDETAILVIEWSTYLE
  5
6B
102
{ACAD_REACTORS
330
6A
102
}
330
6A
100
AcDbModelDocViewStyle
 70
     0
  3
Imperial24
290
     1
300
Imperial24
 90
        0
100
AcDbDetailViewStyle
 70
     0
 71
     0
 90
        3
 71
     1
340
55
 62
   256
 40
0.24
340
0
 62
   256
 40
0.24
300

 40
0.36
280
     3
 71
     2
340
5D
 90
       25
 62
   256
 71
     3
340
55
 62
   256
 40
0.24
 90
        1
 40
0.75
 90
        1
300
%<\AcVar ViewType \f "%tc1">% %<\AcVar ViewDetailId>%\PSCALE %<\AcVar ViewScale \f "%sn">%
 71
     4
340
5D
 90
       25
 62
   256
340
5D
 90
       25
 62
   256
280
     0
  0
LAYOUT
  5
6F
102
{ACAD_REACTORS
330
62
102
}
330
62
100
AcDbPlotSettings
  1

  2

  4

  6

 40
0.0
 41
0.0
 42
0.0
 43
0.0
 44
0.0
 45
0.0
 46
0.0
 47
0.0
 48
0.0
 49
0.0
140
0.0
141
0.0
142
1.0
143
1.0
 70
   688
 72
     0
 73
     0
 74
     5
  7

 75
    16
147
1.0
 76
     0
 77
     2
 78
   300
148
0.0
149
0.0
100
AcDbLayout
  1
Layout1
 70
     1
 71
     1
 10
0.0
 20
0.0
 11
12.0
 21
9.0
 12
0.0
 22
0.0
 32
0.0
 14
0.0
 24
0.0
 34
0.0
 15
0.0
 25
0.0
 35
0.0
146
0.0
 13
0.0
 23
0.0
 33
0.0
 16
1.0
 26
0.0
 36
0.0
 17
0.0
 27
1.0
 37
0.0
 76
     0
330
6C
  0
LAYOUT
  5
77
102
{ACAD_REACTORS
330
62
102
}
330
62
100
AcDbPlotSettings
  1

  2

  4

  6

 40
0.0
 41
0.0
 42
0.0
 43
0.0
 44
0.0
 45
0.0
 46
0.0
 47
0.0
 48
0.0
 49
0.0
140
0.0
141
0.0
142
1.0
143
1.0
 70
   688
 72
     0
 73
     0
 74
     5
  7

 75
    16
147
1.0
 76
     0
 77
     2
 78
   300
148
0.0
149
0.0
100
AcDbLayout
  1
Layout2
 70
     1
 71
     2
 10
0.0
 20
0.0
 11
12.0
 21
9.0
 12
0.0
 22
0.0
 32
0.0
 14
0.0
 24
0.0
 34
0.0
 15
0.0
 25
0.0
 35
0.0
146
0.0
 13
0.0
 23
0.0
 33
0.0
 16
1.0
 26
0.0
 36
0.0
 17
0.0
 27
1.0
 37
0.0
 76
     0
330
74
  0
LAYOUT
  5
73
102
{ACAD_REACTORS
330
62
102
}
330
62
100
AcDbPlotSettings
  1

  2

  4

  6

 40
0.0
 41
0.0
 42
0.0
 43
0.0
 44
0.0
 45
0.0
 46
0.0
 47
0.0
 48
0.0
 49
0.0
140
0.0
141
0.0
142
1.0
143
1.0
 70
  1712
 72
     0
 73
     0
 74
     0
  7

 75
     0
147
1.0
 76
     0
 77
     2
 78
   300
148
0.0
149
0.0
100
AcDbLayout
  1
Model
 70
     1
 71
     0
 10
0.0
 20
0.0
 11
12.0
 21
9.0
 12
0.0
 22
0.0
 32
0.0
 14
0.0
 24
0.0
 34
0.0
 15
0.0
 25
0.0
 35
0.0
146
0.0
 13
0.0
 23
0.0
 33
0.0
 16
1.0
 26
0.0
 36
0.0
 17
0.0
 27
1.0
 37
0.0
 76
     0
330
70
  0
MATERIAL
  5
19
102
{ACAD_XDICTIONARY
360
1A
102
}
102
{ACAD_REACTORS
330
10
102
}
330
10
100
AcDbMaterial
  1
ByBlock
 72
     0
 43
0.0208333333333333
 43
0.0
 43
0.0
 43
0.0
 43
0.0
 43
0.0208333333333333
 43
0.0
 43
0.0
 43
0.0
 43
0.0
 43
1.0
 43
0.0
 43
0.0
 43
0.0
 43
0.0
 43
1.0
 77
     0
 47
0.0208333333333333
 47
0.0
 47
0.0
 47
0.0
 47
0.0
 47
0.0208333333333333
 47
0.0
 47
0.0
 47
0.0
 47
0.0
 47
1.0
 47
0.0
 47
0.0
 47
0.0
 47
0.0
 47
1.0
171
     0
 49
0.0208333333333333
 49
0.0
 49
0.0
 49
0.0
 49
0.0
 49
0.0208333333333333
 49
0.0
 49
0.0
 49
0.0
 49
0.0
 49
1.0
 49
0.0
 49
0.0
 49
0.0
 49
0.0
 49
1.0
175
     0
142
0.0208333333333333
142
0.0
142
0.0
142
0.0
142
0.0
142
0.0208333333333333
142
0.0
142
0.0
142
0.0
142
0.0
142
1.0
142
0.0
142
0.0
142
0.0
142
0.0
142
1.0
179
     0
144
0.0208333333333333
144
0.0
144
0.0
144
0.0
144
0.0
144
0.0208333333333333
144
0.0
144
0.0
144
0.0
144
0.0
144
1.0
144
0.0
144
0.0
144
0.0
144
0.0
144
1.0
147
0.0208333333333333
147
0.0
147
0.0
147
0.0
147
0.0
147
0.0208333333333333
147
0.0
147
0.0
147
0.0
147
0.0
147
1.0
147
0.0
147
0.0
147
0.0
147
0.0
147
1.0
  0
MATERIAL
  5
11
102
{ACAD_XDICTIONARY
360
12
102
}
102
{ACAD_REACTORS
330
10
102
}
330
10
100
AcDbMaterial
  1
ByLayer
 72
     0
 43
0.0208333333333333
 43
0.0
 43
0.0
 43
0.0
 43
0.0
 43
0.0208333333333333
 43
0.0
 43
0.0
 43
0.0
 43
0.0
 43
1.0
 43
0.0
 43
0.0
 43
0.0
 43
0.0
 43
1.0
 77
     0
 47
0.0208333333333333
 47
0.0
 47
0.0
 47
0.0
 47
0.0
 47
0.0208333333333333
 47
0.0
 47
0.0
 47
0.0
 47
0.0
 47
1.0
 47
0.0
 47
0.0
 47
0.0
 47
0.0
 47
1.0
171
     0
 49
0.0208333333333333
 49
0.0
 49
0.0
 49
0.0
 49
0.0
 49
0.0208333333333333
 49
0.0
 49
0.0
 49
0.0
 49
0.0
 49
1.0
 49
0.0
 49
0.0
 49
0.0
 49
0.0
 49
1.0
175
     0
142
0.0208333333333333
142
0.0
142
0.0
142
0.0
142
0.0
142
0.0208333333333333
142
0.0
142
0.0
142
0.0
142
0.0
142
1.0
142
0.0
142
0.0
142
0.0
142
0.0
142
1.0
179
     0
144
0.0208333333333333
144
0.0
144
0.0
144
0.0
144
0.0
144
0.0208333333333333
144
0.0
144
0.0
144
0.0
144
0.0
144
1.0
144
0.0
144
0.0
144
0.0
144
0.0
144
1.0
147
0.0208333333333333
147
0.0
147
0.0
147
0.0
147
0.0
147
0.0208333333333333
147
0.0
147
0.0
147
0.0
147
0.0
147
1.0
147
0.0
147
0.0
147
0.0
147
0.0
147
1.0
  0
MATERIAL
  5
21
102
{ACAD_XDICTIONARY
360
22
102
}
102
{ACAD_REACTORS
330
10
102
}
330
10
100
AcDbMaterial
  1
Global
 72
     0
 43
0.0208333333333333
 43
0.0
 43
0.0
 43
0.0
 43
0.0
 43
0.0208333333333333
 43
0.0
 43
0.0
 43
0.0
 43
0.0
 43
1.0
 43
0.0
 43
0.0
 43
0.0
 43
0.0
 43
1.0
 77
     0
 47
0.0208333333333333
 47
0.0
 47
0.0
 47
0.0
 47
0.0
 47
0.0208333333333333
 47
0.0
 47
0.0
 47
0.0
 47
0.0
 47
1.0
 47
0.0
 47
0.0
 47
0.0
 47
0.0
 47
1.0
171
     0
 49
0.0208333333333333
 49
0.0
 49
0.0
 49
0.0
 49
0.0
 49
0.0208333333333333
 49
0.0
 49
0.0
 49
0.0
 49
0.0
 49
1.0
 49
0.0
 49
0.0
 49
0.0
 49
0.0
 49
1.0
175
     0
142
0.0208333333333333
142
0.0
142
0.0
142
0.0
142
0.0
142
0.0208333333333333
142
0.0
142
0.0
142
0.0
142
0.0
142
1.0
142
0.0
142
0.0
142
0.0
142
0.0
142
1.0
179
     0
144
0.0208333333333333
144
0.0
144
0.0
144
0.0
144
0.0
144
0.0208333333333333
144
0.0
144
0.0
144
0.0
144
0.0
144
1.0
144
0.0
144
0.0
144
0.0
144
0.0
144
1.0
147
0.0208333333333333
147
0.0
147
0.0
147
0.0
147
0.0
147
0.0208333333333333
147
0.0
147
0.0
147
0.0
147
0.0
147
1.0
147
0.0
147
0.0
147
0.0
147
0.0
147
1.0
  0
MLEADERSTYLE
  5
67
102
{ACAD_REACTORS
330
66
102
}
330
66
100
AcDbMLeaderStyle
179
     2
170
     2
171
     1
172
     0
 90
        2
 40
0.0
 41
0.0
173
     1
 91
-1056964608
340
5B
 92
       -2
290
     1
 42
0.09
291
     1
 43
0.36
  3
Standard
 44
0.18
300

342
55
174
     1
178
     6
175
     1
176
     0
 93
-1056964608
 45
0.18
292
     0
297
     0
 46
0.18
 94
-1056964608
 47
1.0
 49
1.0
140
1.0
293
     1
141
0.0
294
     1
177
     0
142
1.0
295
     1
296
     0
143
0.125
271
     0
272
     9
273
     9
298
     1
  0
MLINESTYLE
  5
60
102
{ACAD_REACTORS
330
5F
102
}
330
5F
100
AcDbMlineStyle
  2
STANDARD
 70
     0
  3

 62
   256
 51
90.0
 52
90.0
 71
     2
 49
0.5
 62
   256
  6
BYLAYER
 49
-0.5
 62
   256
  6
BYLAYER
  0
ACDBPLACEHOLDER
  5
F
102
{ACAD_REACTORS
330
E
102
}
330
E
  0
SCALE
  5
43
102
{ACAD_REACTORS
330
42
102
}
330
42
100
AcDbScale
 70
     0
300
1:1
140
1.0
141
1.0
290
     1
  0
SCALE
  5
44
102
{ACAD_REACTORS
330
42
102
}
330
42
100
AcDbScale
 70
     0
300
1/128" = 1'-0"
140
0.0078125
141
12.0
290
     0
  0
SCALE
  5
45
102
{ACAD_REACTORS
330
42
102
}
330
42
100
AcDbScale
 70
     0
300
1/64" = 1'-0"
140
0.015625
141
12.0
290
     0
  0
SCALE
  5
46
102
{ACAD_REACTORS
330
42
102
}
330
42
100
AcDbScale
 70
     0
300
1/32" = 1'-0"
140
0.03125
141
12.0
290
     0
  0
SCALE
  5
47
102
{ACAD_REACTORS
330
42
102
}
330
42
100
AcDbScale
 70
     0
300
1/16" = 1'-0"
140
0.0625
141
12.0
290
     0
  0
SCALE
  5
48
102
{ACAD_REACTORS
330
42
102
}
330
42
100
AcDbScale
 70
     0
300
3/32" = 1'-0"
140
0.09375
141
12.0
290
     0
  0
SCALE
  5
49
102
{ACAD_REACTORS
330
42
102
}
330
42
100
AcDbScale
 70
     0
300
1/8" = 1'-0"
140
0.125
141
12.0
290
     0
  0
SCALE
  5
4A
102
{ACAD_REACTORS
330
42
102
}
330
42
100
AcDbScale
 70
     0
300
3/16" = 1'-0"
140
0.1875
141
12.0
290
     0
  0
SCALE
  5
4B
102
{ACAD_REACTORS
330
42
102
}
330
42
100
AcDbScale
 70
     0
300
1/4" = 1'-0"
140
0.25
141
12.0
290
     0
  0
SCALE
  5
4C
102
{ACAD_REACTORS
330
42
102
}
330
42
100
AcDbScale
 70
     0
300
3/8" = 1'-0"
140
0.375
141
12.0
290
     0
  0
SCALE
  5
4D
102
{ACAD_REACTORS
330
42
102
}
330
42
100
AcDbScale
 70
     0
300
1/2" = 1'-0"
140
0.5
141
12.0
290
     0
  0
SCALE
  5
4E
102
{ACAD_REACTORS
330
42
102
}
330
42
100
AcDbScale
 70
     0
300
3/4" = 1'-0"
140
0.75
141
12.0
290
     0
  0
SCALE
  5
4F
102
{ACAD_REACTORS
330
42
102
}
330
42
100
AcDbScale
 70
     0
300
1" = 1'-0"
140
1.0
141
12.0
290
     0
  0
SCALE
  5
50
102
{ACAD_REACTORS
330
42
102
}
330
42
100
AcDbScale
 70
     0
300
1-1/2" = 1'-0"
140
1.5
141
12.0
290
     0
  0
SCALE
  5
51
102
{ACAD_REACTORS
330
42
102
}
330
42
100
AcDbScale
 70
     0
300
3" = 1'-0"
140
3.0
141
12.0
290
     0
  0
SCALE
  5
52
102
{ACAD_REACTORS
330
42
102
}
330
42
100
AcDbScale
 70
     0
300
6" = 1'-0"
140
6.0
141
12.0
290
     0
  0
SCALE
  5
53
102
{ACAD_REACTORS
330
42
102
}
330
42
100
AcDbScale
 70
     0
300
1'-0" = 1'-0"
140
12.0
141
12.0
290
     0
  0
ACDBSECTIONVIEWSTYLE
  5
69
102
{ACAD_REACTORS
330
68
102
}
330
68
100
AcDbModelDocViewStyle
 70
     0
  3
Imperial24
290
     1
300
Imperial24
 90
        0
100
AcDbSectionViewStyle
 70
     0
 71
     0
 90
       78
 71
     1
340
55
 62
   256
 40
0.24
340
0
340
0
 62
   256
 40
0.24
300
I, O, Q, S, X, Z
 40
0.48
 90
        3
 40
0.18
 90
        1
 71
     2
340
5D
 90
       25
 62
   256
340
5D
 90
       50
 62
   256
 40
0.24
 40
0.0
 40
0.24
 71
     3
340
55
 62
   256
 40
0.24
 90
        1
 40
0.75
 90
        1
300
%<\AcVar ViewType \f "%tc1">% %<\AcVar ViewSectionStartId>%-%<\AcVar ViewSectionEndId>%\PSCALE %<\AcVar ViewScale \f "%sn">%
 71
     4
 62
   256
 62
   257
300
ANSI31
 40
1.0
 90
        0
290
     0
290
     0
 90
        6
 40
0.0
 40
1.570796326794896
 40
0.2617993877991494
 40
1.308996938995747
 40
-0.2617993877991494
 40
1.832595714594046
  0
TABLESTYLE
  5
65
102
{ACAD_XDICTIONARY
360
8F
102
}
102
{ACAD_REACTORS
330
64
102
}
330
64
100
AcDbTableStyle
280
     0
  3
Standard
 70
     0
 71
     0
 40
0.06
 41
0.06
280
     0
281
     0
  7
Standard
140
0.18
170
     2
 62
     0
 63
     7
283
     0
 90
      512
 91
        0
  1

274
    -2
284
     1
 64
     0
275
    -2
285
     1
 65
     0
276
    -2
286
     1
 66
     0
277
    -2
287
     1
 67
     0
278
    -2
288
     1
 68
     0
279
    -2
289
     1
 69
     0
  7
Standard
140
0.25
170
     5
 62
     0
 63
     7
283
     0
 90
      512
 91
        0
  1

274
    -2
284
     1
 64
     0
275
    -2
285
     1
 65
     0
276
    -2
286
     1
 66
     0
277
    -2
287
     1
 67
     0
278
    -2
288
     1
 68
     0
279
    -2
289
     1
 69
     0
  7
Standard
140
0.18
170
     5
 62
     0
 63
     7
283
     0
 90
      512
 91
        0
  1

274
    -2
284
     1
 64
     0
275
    -2
285
     1
 65
     0
276
    -2
286
     1
 66
     0
277
    -2
287
     1
 67
     0
278
    -2
288
     1
 68
     0
279
    -2
289
     1
 69
     0
  0
VISUALSTYLE
  5
2F
102
{ACAD_REACTORS
330
29
102
}
330
29
100
AcDbVisualStyle
  2
2dWireframe
 70
     4
177
     3
291
     0
 70
    58
 90
        0
176
     1
 90
        2
176
     1
 90
        0
176
     1
 90
        0
176
     1
 40
0.6
176
     1
 40
30.0
176
     1
 62
     7
420
 16777215
176
     1
 90
        1
176
     1
 90
        4
176
     1
 62
     7
176
     1
 62
   257
176
     1
 90
        1
176
     1
 90
        1
176
     1
 40
1.0
176
     1
 90
        0
176
     1
 62
   257
176
     1
 40
1.0
176
     1
 90
        1
176
     1
 90
        6
176
     1
 90
        2
176
     1
 62
     7
176
     1
 90
        5
176
     1
 90
        0
176
     1
 90
        0
176
     1
290
     0
176
     1
 90
        1
176
     1
 40
0.0
176
     1
 90
        0
176
     1
290
     1
176
     1
290
     1
176
     1
290
     0
176
     1
290
     0
176
     1
290
     0
176
     1
290
     0
176
     1
290
     0
176
     1
290
     0
176
     1
290
     0
176
     1
 90
       50
176
     1
 40
0.0
176
     1
 40
1.0
176
     1
 90
        0
176
     1
 62
    18
420
        0
176
     1
 90
       50
176
     1
 90
        3
176
     1
 62
     5
420
      255
176
     1
290
     0
176
     1
 90
       50
176
     1
 90
       50
176
     1
 90
       50
176
     1
290
     0
176
     1
 90
       50
176
     1
 62
   256
176
     0
 40
1.0
176
     0
 90
        2
176
     1
  1
strokes_ogs.tif
176
     1
290
     0
176
     1
 40
1.0
176
     1
 40
1.0
176
     1
  0
VISUALSTYLE
  5
2E
102
{ACAD_REACTORS
330
29
102
}
330
29
100
AcDbVisualStyle
  2
Basic
 70
     7
177
     3
291
     1
 70
    58
 90
        1
176
     1
 90
        0
176
     1
 90
        1
176
     1
 90
        0
176
     1
 40
0.6
176
     1
 40
30.0
176
     1
 62
     7
420
 16777215
176
     1
 90
        0
176
     1
 90
        4
176
     1
 62
     7
176
     1
 62
   257
176
     1
 90
        1
176
     1
 90
        1
176
     1
 40
1.0
176
     1
 90
        8
176
     1
 62
     7
176
     1
 40
1.0
176
     1
 90
        1
176
     1
 90
        6
176
     1
 90
        2
176
     1
 62
     7
176
     1
 90
        5
176
     1
 90
        0
176
     1
 90
        0
176
     1
290
     0
176
     1
 90
        1
176
     1
 40
0.0
176
     1
 90
        0
176
     1
290
     0
176
     1
290
     1
176
     1
290
     1
176
     1
290
     0
176
     1
290
     0
176
     1
290
     0
176
     1
290
     0
176
     1
290
     0
176
     1
290
     0
176
     1
 90
       50
176
     1
 40
0.0
176
     1
 40
1.0
176
     1
 90
        0
176
     1
 62
    18
420
        0
176
     1
 90
       50
176
     1
 90
        3
176
     1
 62
     5
420
      255
176
     1
290
     0
176
     1
 90
       50
176
     1
 90
       50
176
     1
 90
       50
176
     1
290
     0
176
     1
 90
       50
176
     1
 62
   256
176
     0
 40
1.0
176
     0
 90
        2
176
     1
  1
strokes_ogs.tif
176
     1
290
     0
176
     1
 40
1.0
176
     1
 40
1.0
176
     1
  0
VISUALSTYLE
  5
35
102
{ACAD_REACTORS
330
29
102
}
330
29
100
AcDbVisualStyle
  2
Brighten
 70
    12
177
     3
291
     1
 70
    58
 90
        2
176
     1
 90
        2
176
     1
 90
        0
176
     1
 90
        0
176
     1
 40
0.6
176
     1
 40
30.0
176
     1
 62
     7
420
 16777215
176
     1
 90
        1
176
     1
 90
        4
176
     1
 62
     7
176
     1
 62
   257
176
     1
 90
        1
176
     1
 90
        1
176
     1
 40
1.0
176
     1
 90
        8
176
     1
 62
     7
176
     1
 40
1.0
176
     1
 90
        1
176
     1
 90
        6
176
     1
 90
        2
176
     1
 62
     7
176
     1
 90
        5
176
     1
 90
        0
176
     1
 90
        0
176
     1
290
     0
176
     1
 90
        1
176
     1
 40
50.0
176
     1
 90
        0
176
     1
290
     0
176
     1
290
     1
176
     1
290
     1
176
     1
290
     0
176
     1
290
     0
176
     1
290
     0
176
     1
290
     0
176
     1
290
     0
176
     1
290
     0
176
     1
 90
       50
176
     1
 40
0.0
176
     1
 40
1.0
176
     1
 90
        0
176
     1
 62
    18
420
        0
176
     1
 90
       50
176
     1
 90
        3
176
     1
 62
     5
420
      255
176
     1
290
     0
176
     1
 90
       50
176
     1
 90
       50
176
     1
 90
       50
176
     1
290
     0
176
     1
 90
       50
176
     1
 62
   256
176
     0
 40
1.0
176
     0
 90
        2
176
     1
  1
strokes_ogs.tif
176
     1
290
     0
176
     1
 40
1.0
176
     1
 40
1.0
176
     1
  0
VISUALSTYLE
  5
39
102
{ACAD_REACTORS
330
29
102
}
330
29
100
AcDbVisualStyle
  2
ColorChange
 70
    16
177
     3
291
     1
 70
    58
 90
        2
176
     1
 90
        2
176
     1
 90
        3
176
     1
 90
        0
176
     1
 40
0.6
176
     1
 40
30.0
176
     1
 62
     8
420
  8421504
176
     1
 90
        1
176
     1
 90
        4
176
     1
 62
     7
176
     1
 62
   257
176
     1
 90
        1
176
     1
 90
        1
176
     1
 40
1.0
176
     1
 90
        8
176
     1
 62
     8
420
  8421504
176
     1
 40
1.0
176
     1
 90
        1
176
     1
 90
        6
176
     1
 90
        2
176
     1
 62
     7
176
     1
 90
        5
176
     1
 90
        0
176
     1
 90
        0
176
     1
290
     0
176
     1
 90
        1
176
     1
 40
0.0
176
     1
 90
        0
176
     1
290
     0
176
     1
290
     1
176
     1
290
     1
176
     1
290
     0
176
     1
290
     0
176
     1
290
     0
176
     1
290
     0
176
     1
290
     0
176
     1
290
     0
176
     1
 90
       50
176
     1
 40
0.0
176
     1
 40
1.0
176
     1
 90
        0
176
     1
 62
    18
420
        0
176
     1
 90
       50
176
     1
 90
        3
176
     1
 62
     5
420
      255
176
     1
290
     0
176
     1
 90
       50
176
     1
 90
       50
176
     1
 90
       50
176
     1
290
     0
176
     1
 90
       50
176
     1
 62
   256
176
     0
 40
1.0
176
     0
 90
        2
176
     1
  1
strokes_ogs.tif
176
     1
290
     0
176
     1
 40
1.0
176
     1
 40
1.0
176
     1
  0
VISUALSTYLE
  5
32
102
{ACAD_REACTORS
330
29
102
}
330
29
100
AcDbVisualStyle
  2
Conceptual
 70
     9
177
     3
291
     0
 70
    58
 90
        3
176
     1
 90
        2
176
     1
 90
        0
176
     1
 90
        0
176
     1
 40
0.6
176
     1
 40
30.0
176
     1
 62
     7
420
 16777215
176
     1
 90
        2
176
     1
 90
        2
176
     1
 62
     7
176
     1
 62
   257
176
     1
 90
        1
176
     1
 90
        1
176
     1
 40
179.0
176
     1
 90
        8
176
     1
 62
     7
176
     1
 40
1.0
176
     1
 90
        1
176
     1
 90
        6
176
     1
 90
        2
176
     1
 62
     7
176
     1
 90
        3
176
     1
 90
        0
176
     1
 90
        0
176
     1
290
     0
176
     1
 90
        1
176
     1
 40
0.0
176
     1
 90
        0
176
     1
290
     0
176
     1
290
     1
176
     1
290
     1
176
     1
290
     0
176
     1
290
     0
176
     1
290
     0
176
     1
290
     0
176
     1
290
     0
176
     1
290
     0
176
     1
 90
       50
176
     1
 40
0.0
176
     1
 40
1.0
176
     1
 90
        0
176
     1
 62
    18
420
        0
176
     1
 90
       50
176
     1
 90
        3
176
     1
 62
     5
420
      255
176
     1
290
     0
176
     1
 90
       50
176
     1
 90
       50
176
     1
 90
       50
176
     1
290
     0
176
     1
 90
       50
176
     1
 62
   256
176
     0
 40
1.0
176
     0
 90
        2
176
     1
  1
strokes_ogs.tif
176
     1
290
     0
176
     1
 40
1.0
176
     1
 40
1.0
176
     1
  0
VISUALSTYLE
  5
34
102
{ACAD_REACTORS
330
29
102
}
330
29
100
AcDbVisualStyle
  2
Dim
 70
    11
177
     3
291
     1
 70
    58
 90
        2
176
     1
 90
        2
176
     1
 90
        0
176
     1
 90
        0
176
     1
 40
0.6
176
     1
 40
30.0
176
     1
 62
     7
420
 16777215
176
     1
 90
        1
176
     1
 90
        4
176
     1
 62
     7
176
     1
 62
   257
176
     1
 90
        1
176
     1
 90
        1
176
     1
 40
1.0
176
     1
 90
        8
176
     1
 62
     7
176
     1
 40
1.0
176
     1
 90
        1
176
     1
 90
        6
176
     1
 90
        2
176
     1
 62
     7
176
     1
 90
        5
176
     1
 90
        0
176
     1
 90
        0
176
     1
290
     0
176
     1
 90
        1
176
     1
 40
-50.0
176
     1
 90
        0
176
     1
290
     0
176
     1
290
     1
176
     1
290
     1
176
     1
290
     0
176
     1
290
     0
176
     1
290
     0
176
     1
290
     0
176
     1
290
     0
176
     1
290
     0
176
     1
 90
       50
176
     1
 40
0.0
176
     1
 40
1.0
176
     1
 90
        0
176
     1
 62
    18
420
        0
176
     1
 90
       50
176
     1
 90
        3
176
     1
 62
     5
420
      255
176
     1
290
     0
176
     1
 90
       50
176
     1
 90
       50
176
     1
 90
       50
176
     1
290
     0
176
     1
 90
       50
176
     1
 62
   256
176
     0
 40
1.0
176
     0
 90
        2
176
     1
  1
strokes_ogs.tif
176
     1
290
     0
176
     1
 40
1.0
176
     1
 40
1.0
176
     1
  0
VISUALSTYLE
  5
41
102
{ACAD_REACTORS
330
29
102
}
330
29
100
AcDbVisualStyle
  2
EdgeColorOff
 70
    22
177
     3
291
     1
 70
    58
 90
        2
176
     0
 90
        2
176
     0
 90
        0
176
     0
 90
        0
176
     0
 40
0.6
176
     0
 40
30.0
176
     0
 62
     7
420
 16777215
176
     0
 90
        1
176
     0
 90
        4
176
     0
 62
     7
176
     0
 62
   257
176
     0
 90
        1
176
     0
 90
        1
176
     0
 40
1.0
176
     0
 90
        8
176
     2
 62
     7
176
     0
 40
1.0
176
     0
 90
        1
176
     0
 90
        6
176
     0
 90
        2
176
     0
 62
     7
176
     0
 90
        5
176
     0
 90
        0
176
     0
 90
        0
176
     0
290
     0
176
     0
 90
        1
176
     0
 40
0.0
176
     0
 90
        0
176
     0
290
     0
176
     0
290
     1
176
     0
290
     1
176
     0
290
     0
176
     0
290
     0
176
     0
290
     0
176
     0
290
     0
176
     0
290
     0
176
     0
290
     0
176
     0
 90
       50
176
     0
 40
0.0
176
     0
 40
1.0
176
     0
 90
        0
176
     0
 62
    18
420
        0
176
     0
 90
       50
176
     0
 90
        3
176
     0
 62
     5
420
      255
176
     0
290
     0
176
     0
 90
       50
176
     0
 90
       50
176
     0
 90
       50
176
     0
290
     0
176
     0
 90
       50
176
     0
 62
   256
176
     0
 40
1.0
176
     0
 90
        2
176
     0
  1
strokes_ogs.tif
176
     0
290
     0
176
     0
 40
1.0
176
     0
 40
1.0
176
     0
  0
VISUALSTYLE
  5
38
102
{ACAD_REACTORS
330
29
102
}
330
29
100
AcDbVisualStyle
  2
Facepattern
 70
    15
177
     3
291
     1
 70
    58
 90
        2
176
     1
 90
        2
176
     1
 90
        0
176
     1
 90
        0
176
     1
 40
0.6
176
     1
 40
30.0
176
     1
 62
     7
420
 16777215
176
     1
 90
        1
176
     1
 90
        4
176
     1
 62
     7
176
     1
 62
   257
176
     1
 90
        1
176
     1
 90
        1
176
     1
 40
1.0
176
     1
 90
        8
176
     1
 62
     7
176
     1
 40
1.0
176
     1
 90
        1
176
     1
 90
        6
176
     1
 90
        2
176
     1
 62
     7
176
     1
 90
        5
176
     1
 90
        0
176
     1
 90
        0
176
     1
290
     0
176
     1
 90
        1
176
     1
 40
0.0
176
     1
 90
        0
176
     1
290
     0
176
     1
290
     1
176
     1
290
     1
176
     1
290
     0
176
     1
290
     0
176
     1
290
     0
176
     1
290
     0
176
     1
290
     0
176
     1
290
     0
176
     1
 90
       50
176
     1
 40
0.0
176
     1
 40
1.0
176
     1
 90
        0
176
     1
 62
    18
420
        0
176
     1
 90
       50
176
     1
 90
        3
176
     1
 62
     5
420
      255
176
     1
290
     0
176
     1
 90
       50
176
     1
 90
       50
176
     1
 90
       50
176
     1
290
     0
176
     1
 90
       50
176
     1
 62
   256
176
     0
 40
1.0
176
     0
 90
        2
176
     1
  1
strokes_ogs.tif
176
     1
290
     0
176
     1
 40
1.0
176
     1
 40
1.0
176
     1
  0
VISUALSTYLE
  5
2A
102
{ACAD_REACTORS
330
29
102
}
330
29
100
AcDbVisualStyle
  2
Flat
 70
     0
177
     3
291
     1
 70
    58
 90
        2
176
     1
 90
        1
176
     1
 90
        1
176
     1
 90
        2
176
     1
 40
0.6
176
     1
 40
30.0
176
     1
 62
     7
420
 16777215
176
     1
 90
        0
176
     1
 90
        0
176
     1
 62
     7
176
     1
 62
   257
176
     1
 90
        1
176
     1
 90
        1
176
     1
 40
1.0
176
     1
 90
        8
176
     1
 62
     7
176
     1
 40
1.0
176
     1
 90
        1
176
     1
 90
        6
176
     1
 90
        2
176
     1
 62
     7
176
     1
 90
        5
176
     1
 90
        0
176
     1
 90
        0
176
     1
290
     0
176
     1
 90
       13
176
     1
 40
0.0
176
     1
 90
        0
176
     1
290
     0
176
     1
290
     1
176
     1
290
     1
176
     1
290
     0
176
     1
290
     0
176
     1
290
     0
176
     1
290
     0
176
     1
290
     0
176
     1
290
     0
176
     1
 90
       50
176
     1
 40
0.0
176
     1
 40
1.0
176
     1
 90
        0
176
     1
 62
    18
420
        0
176
     1
 90
       50
176
     1
 90
        3
176
     1
 62
     5
420
      255
176
     1
290
     0
176
     1
 90
       50
176
     1
 90
       50
176
     1
 90
       50
176
     1
290
     0
176
     1
 90
       50
176
     1
 62
   256
176
     0
 40
1.0
176
     0
 90
        2
176
     1
  1
strokes_ogs.tif
176
     1
290
     0
176
     1
 40
1.0
176
     1
 40
1.0
176
     1
  0
VISUALSTYLE
  5
2B
102
{ACAD_REACTORS
330
29
102
}
330
29
100
AcDbVisualStyle
  2
FlatWithEdges
 70
     1
177
     3
291
     1
 70
    58
 90
        2
176
     1
 90
        1
176
     1
 90
        1
176
     1
 90
        2
176
     1
 40
0.6
176
     1
 40
30.0
176
     1
 62
     7
420
 16777215
176
     1
 90
        1
176
     1
 90
        0
176
     1
 62
     7
176
     1
 62
   257
176
     1
 90
        1
176
     1
 90
        1
176
     1
 40
1.0
176
     1
 90
        0
176
     1
 62
   257
176
     1
 40
1.0
176
     1
 90
        1
176
     1
 90
        6
176
     1
 90
        2
176
     1
 62
     7
176
     1
 90
        5
176
     1
 90
        0
176
     1
 90
        0
176
     1
290
     0
176
     1
 90
       13
176
     1
 40
0.0
176
     1
 90
        0
176
     1
290
     0
176
     1
290
     1
176
     1
290
     1
176
     1
290
     0
176
     1
290
     0
176
     1
290
     0
176
     1
290
     0
176
     1
290
     0
176
     1
290
     0
176
     1
 90
       50
176
     1
 40
0.0
176
     1
 40
1.0
176
     1
 90
        0
176
     1
 62
    18
420
        0
176
     1
 90
       50
176
     1
 90
        3
176
     1
 62
     5
420
      255
176
     1
290
     0
176
     1
 90
       50
176
     1
 90
       50
176
     1
 90
       50
176
     1
290
     0
176
     1
 90
       50
176
     1
 62
   256
176
     0
 40
1.0
176
     0
 90
        2
176
     1
  1
strokes_ogs.tif
176
     1
290
     0
176
     1
 40
1.0
176
     1
 40
1.0
176
     1
  0
VISUALSTYLE
  5
2C
102
{ACAD_REACTORS
330
29
102
}
330
29
100
AcDbVisualStyle
  2
Gouraud
 70
     2
177
     3
291
     1
 70
    58
 90
        2
176
     1
 90
        2
176
     1
 90
        1
176
     1
 90
        2
176
     1
 40
0.6
176
     1
 40
30.0
176
     1
 62
     7
420
 16777215
176
     1
 90
        0
176
     1
 90
        0
176
     1
 62
     7
176
     1
 62
   257
176
     1
 90
        1
176
     1
 90
        1
176
     1
 40
1.0
176
     1
 90
        0
176
     1
 62
     7
176
     1
 40
1.0
176
     1
 90
        1
176
     1
 90
        6
176
     1
 90
        2
176
     1
 62
     7
176
     1
 90
        5
176
     1
 90
        0
176
     1
 90
        0
176
     1
290
     0
176
     1
 90
       13
176
     1
 40
0.0
176
     1
 90
        0
176
     1
290
     0
176
     1
290
     1
176
     1
290
     1
176
     1
290
     0
176
     1
290
     0
176
     1
290
     0
176
     1
290
     0
176
     1
290
     0
176
     1
290
     0
176
     1
 90
       50
176
     1
 40
0.0
176
     1
 40
1.0
176
     1
 90
        0
176
     1
 62
    18
420
        0
176
     1
 90
       50
176
     1
 90
        3
176
     1
 62
     5
420
      255
176
     1
290
     0
176
     1
 90
       50
176
     1
 90
       50
176
     1
 90
       50
176
     1
290
     0
176
     1
 90
       50
176
     1
 62
   256
176
     0
 40
1.0
176
     0
 90
        2
176
     1
  1
strokes_ogs.tif
176
     1
290
     0
176
     1
 40
1.0
176
     1
 40
1.0
176
     1
  0
VISUALSTYLE
  5
2D
102
{ACAD_REACTORS
330
29
102
}
330
29
100
AcDbVisualStyle
  2
GouraudWithEdges
 70
     3
177
     3
291
     1
 70
    58
 90
        2
176
     1
 90
        2
176
     1
 90
        1
176
     1
 90
        2
176
     1
 40
0.6
176
     1
 40
30.0
176
     1
 62
     7
420
 16777215
176
     1
 90
        1
176
     1
 90
        0
176
     1
 62
     7
176
     1
 62
   257
176
     1
 90
        1
176
     1
 90
        1
176
     1
 40
1.0
176
     1
 90
        0
176
     1
 62
   257
176
     1
 40
1.0
176
     1
 90
        1
176
     1
 90
        6
176
     1
 90
        2
176
     1
 62
     7
176
     1
 90
        5
176
     1
 90
        0
176
     1
 90
        0
176
     1
290
     0
176
     1
 90
       13
176
     1
 40
0.0
176
     1
 90
        0
176
     1
290
     0
176
     1
290
     1
176
     1
290
     1
176
     1
290
     0
176
     1
290
     0
176
     1
290
     0
176
     1
290
     0
176
     1
290
     0
176
     1
290
     0
176
     1
 90
       50
176
     1
 40
0.0
176
     1
 40
1.0
176
     1
 90
        0
176
     1
 62
    18
420
        0
176
     1
 90
       50
176
     1
 90
        3
176
     1
 62
     5
420
      255
176
     1
290
     0
176
     1
 90
       50
176
     1
 90
       50
176
     1
 90
       50
176
     1
290
     0
176
     1
 90
       50
176
     1
 62
   256
176
     0
 40
1.0
176
     0
 90
        2
176
     1
  1
strokes_ogs.tif
176
     1
290
     0
176
     1
 40
1.0
176
     1
 40
1.0
176
     1
  0
VISUALSTYLE
  5
31
102
{ACAD_REACTORS
330
29
102
}
330
29
100
AcDbVisualStyle
  2
Hidden
 70
     6
177
     3
291
     0
 70
    58
 90
        1
176
     1
 90
        2
176
     1
 90
        2
176
     1
 90
        0
176
     1
 40
0.6
176
     1
 40
30.0
176
     1
 62
     7
420
 16777215
176
     1
 90
        2
176
     1
 90
        2
176
     1
 62
     7
176
     1
 62
   257
176
     1
 90
        2
176
     1
 90
        1
176
     1
 40
40.0
176
     1
 90
        0
176
     1
 62
   257
176
     1
 40
1.0
176
     1
 90
        1
176
     1
 90
        6
176
     1
 90
        2
176
     1
 62
     7
176
     1
 90
        3
176
     1
 90
        0
176
     1
 90
        0
176
     1
290
     0
176
     1
 90
        1
176
     1
 40
0.0
176
     1
 90
        0
176
     1
290
     0
176
     1
290
     1
176
     1
290
     1
176
     1
290
     0
176
     1
290
     0
176
     1
290
     0
176
     1
290
     0
176
     1
290
     0
176
     1
290
     0
176
     1
 90
       50
176
     1
 40
0.0
176
     1
 40
1.0
176
     1
 90
        0
176
     1
 62
    18
420
        0
176
     1
 90
       50
176
     1
 90
        3
176
     1
 62
     5
420
      255
176
     1
290
     0
176
     1
 90
       50
176
     1
 90
       50
176
     1
 90
       50
176
     1
290
     0
176
     1
 90
       50
176
     1
 62
   256
176
     0
 40
1.0
176
     0
 90
        2
176
     1
  1
strokes_ogs.tif
176
     1
290
     0
176
     1
 40
1.0
176
     1
 40
1.0
176
     1
  0
VISUALSTYLE
  5
3F
102
{ACAD_REACTORS
330
29
102
}
330
29
100
AcDbVisualStyle
  2
JitterOff
 70
    20
177
     3
291
     1
 70
    58
 90
        2
176
     0
 90
        2
176
     0
 90
        0
176
     0
 90
        0
176
     0
 40
0.6
176
     0
 40
30.0
176
     0
 62
     7
420
 16777215
176
     0
 90
        1
176
     0
 90
        4
176
     0
 62
     7
176
     0
 62
   257
176
     0
 90
        1
176
     0
 90
        1
176
     0
 40
1.0
176
     0
 90
       10
176
     2
 62
     7
176
     0
 40
1.0
176
     0
 90
        1
176
     0
 90
        6
176
     0
 90
        2
176
     0
 62
     7
176
     0
 90
        5
176
     0
 90
        0
176
     0
 90
        0
176
     0
290
     0
176
     0
 90
        1
176
     0
 40
0.0
176
     0
 90
        0
176
     0
290
     0
176
     0
290
     1
176
     0
290
     1
176
     0
290
     0
176
     0
290
     0
176
     0
290
     0
176
     0
290
     0
176
     0
290
     0
176
     0
290
     0
176
     0
 90
       50
176
     0
 40
0.0
176
     0
 40
1.0
176
     0
 90
        0
176
     0
 62
    18
420
        0
176
     0
 90
       50
176
     0
 90
        3
176
     0
 62
     5
420
      255
176
     0
290
     0
176
     0
 90
       50
176
     0
 90
       50
176
     0
 90
       50
176
     0
290
     0
176
     0
 90
       50
176
     0
 62
   256
176
     0
 40
1.0
176
     0
 90
        2
176
     0
  1
strokes_ogs.tif
176
     0
290
     0
176
     0
 40
1.0
176
     0
 40
1.0
176
     0
  0
VISUALSTYLE
  5
37
102
{ACAD_REACTORS
330
29
102
}
330
29
100
AcDbVisualStyle
  2
Linepattern
 70
    14
177
     3
291
     1
 70
    58
 90
        2
176
     1
 90
        2
176
     1
 90
        0
176
     1
 90
        0
176
     1
 40
0.6
176
     1
 40
30.0
176
     1
 62
     7
420
 16777215
176
     1
 90
        1
176
     1
 90
        4
176
     1
 62
     7
176
     1
 62
   257
176
     1
 90
        7
176
     1
 90
        7
176
     1
 40
1.0
176
     1
 90
        8
176
     1
 62
     7
176
     1
 40
1.0
176
     1
 90
        1
176
     1
 90
        6
176
     1
 90
        2
176
     1
 62
     7
176
     1
 90
        5
176
     1
 90
        0
176
     1
 90
        0
176
     1
290
     0
176
     1
 90
        1
176
     1
 40
0.0
176
     1
 90
        0
176
     1
290
     0
176
     1
290
     1
176
     1
290
     1
176
     1
290
     0
176
     1
290
     0
176
     1
290
     0
176
     1
290
     0
176
     1
290
     0
176
     1
290
     0
176
     1
 90
       50
176
     1
 40
0.0
176
     1
 40
1.0
176
     1
 90
        0
176
     1
 62
    18
420
        0
176
     1
 90
       50
176
     1
 90
        3
176
     1
 62
     5
420
      255
176
     1
290
     0
176
     1
 90
       50
176
     1
 90
       50
176
     1
 90
       50
176
     1
290
     0
176
     1
 90
       50
176
     1
 62
   256
176
     0
 40
1.0
176
     0
 90
        2
176
     1
  1
strokes_ogs.tif
176
     1
290
     0
176
     1
 40
1.0
176
     1
 40
1.0
176
     1
  0
VISUALSTYLE
  5
40
102
{ACAD_REACTORS
330
29
102
}
330
29
100
AcDbVisualStyle
  2
OverhangOff
 70
    21
177
     3
291
     1
 70
    58
 90
        2
176
     0
 90
        2
176
     0
 90
        0
176
     0
 90
        0
176
     0
 40
0.6
176
     0
 40
30.0
176
     0
 62
     7
420
 16777215
176
     0
 90
        1
176
     0
 90
        4
176
     0
 62
     7
176
     0
 62
   257
176
     0
 90
        1
176
     0
 90
        1
176
     0
 40
1.0
176
     0
 90
        9
176
     2
 62
     7
176
     0
 40
1.0
176
     0
 90
        1
176
     0
 90
        6
176
     0
 90
        2
176
     0
 62
     7
176
     0
 90
        5
176
     0
 90
        0
176
     0
 90
        0
176
     0
290
     0
176
     0
 90
        1
176
     0
 40
0.0
176
     0
 90
        0
176
     0
290
     0
176
     0
290
     1
176
     0
290
     1
176
     0
290
     0
176
     0
290
     0
176
     0
290
     0
176
     0
290
     0
176
     0
290
     0
176
     0
290
     0
176
     0
 90
       50
176
     0
 40
0.0
176
     0
 40
1.0
176
     0
 90
        0
176
     0
 62
    18
420
        0
176
     0
 90
       50
176
     0
 90
        3
176
     0
 62
     5
420
      255
176
     0
290
     0
176
     0
 90
       50
176
     0
 90
       50
176
     0
 90
       50
176
     0
290
     0
176
     0
 90
       50
176
     0
 62
   256
176
     0
 40
1.0
176
     0
 90
        2
176
     0
  1
strokes_ogs.tif
176
     0
290
     0
176
     0
 40
1.0
176
     0
 40
1.0
176
     0
  0
VISUALSTYLE
  5
33
102
{ACAD_REACTORS
330
29
102
}
330
29
100
AcDbVisualStyle
  2
Realistic
 70
     8
177
     3
291
     0
 70
    58
 90
        2
176
     1
 90
        3
176
     1
 90
        0
176
     1
 90
        2
176
     1
 40
0.6
176
     1
 40
30.0
176
     1
 62
     7
420
 16777215
176
     1
 90
        0
176
     1
 90
        0
176
     1
 62
     7
176
     1
 62
   257
176
     1
 90
        1
176
     1
 90
        1
176
     1
 40
1.0
176
     1
 90
        8
176
     1
 62
   257
176
     1
 40
1.0
176
     1
 90
        1
176
     1
 90
        6
176
     1
 90
        2
176
     1
 62
     7
176
     1
 90
        3
176
     1
 90
        0
176
     1
 90
        0
176
     1
290
     0
176
     1
 90
       13
176
     1
 40
0.0
176
     1
 90
        0
176
     1
290
     0
176
     1
290
     1
176
     1
290
     1
176
     1
290
     0
176
     1
290
     0
176
     1
290
     0
176
     1
290
     0
176
     1
290
     0
176
     1
290
     0
176
     1
 90
       50
176
     1
 40
0.0
176
     1
 40
1.0
176
     1
 90
        0
176
     1
 62
    18
420
        0
176
     1
 90
       50
176
     1
 90
        3
176
     1
 62
     5
420
      255
176
     1
290
     0
176
     1
 90
       50
176
     1
 90
       50
176
     1
 90
       50
176
     1
290
     0
176
     1
 90
       50
176
     1
 62
   256
176
     0
 40
1.0
176
     0
 90
        2
176
     1
  1
strokes_ogs.tif
176
     1
290
     0
176
     1
 40
1.0
176
     1
 40
1.0
176
     1
  0
VISUALSTYLE
  5
3E
102
{ACAD_REACTORS
330
29
102
}
330
29
100
AcDbVisualStyle
  2
Shaded
 70
    27
177
     3
291
     0
 70
    58
 90
        2
176
     1
 90
        2
176
     1
 90
        1
176
     1
 90
        2
176
     1
 40
0.6
176
     1
 40
30.0
176
     1
 62
     7
420
 16777215
176
     1
 90
        0
176
     1
 90
        4
176
     1
 62
     7
176
     1
 62
   257
176
     1
 90
        1
176
     1
 90
        1
176
     1
 40
1.0
176
     1
 90
        8
176
     1
 62
   257
176
     1
 40
1.0
176
     1
 90
        1
176
     1
 90
        6
176
     1
 90
        2
176
     1
 62
     8
420
  7895160
176
     1
 90
        3
176
     1
 90
        0
176
     1
 90
        0
176
     1
290
     0
176
     1
 90
        5
176
     1
 40
0.0
176
     1
 90
        0
176
     1
290
     0
176
     1
290
     1
176
     1
290
     1
176
     1
290
     0
176
     1
290
     0
176
     1
290
     0
176
     1
290
     0
176
     1
290
     0
176
     1
290
     0
176
     1
 90
       50
176
     1
 40
0.0
176
     1
 40
1.0
176
     1
 90
        0
176
     1
 62
    18
420
        0
176
     1
 90
       50
176
     1
 90
        3
176
     1
 62
     5
420
      255
176
     1
290
     0
176
     1
 90
       50
176
     1
 90
       50
176
     1
 90
       50
176
     1
290
     0
176
     1
 90
       50
176
     1
 62
   256
176
     0
 40
1.0
176
     0
 90
        2
176
     1
  1
strokes_ogs.tif
176
     1
290
     0
176
     1
 40
1.0
176
     1
 40
1.0
176
     1
  0
VISUALSTYLE
  5
3D
102
{ACAD_REACTORS
330
29
102
}
330
29
100
AcDbVisualStyle
  2
Shaded with edges
 70
    26
177
     3
291
     0
 70
    58
 90
        2
176
     1
 90
        2
176
     1
 90
        1
176
     1
 90
        2
176
     1
 40
0.6
176
     1
 40
30.0
176
     1
 62
     7
420
 16777215
176
     1
 90
        1
176
     1
 90
        2
176
     1
 62
     7
176
     1
 62
   257
176
     1
 90
        2
176
     1
 90
        1
176
     1
 40
1.0
176
     1
 90
        8
176
     1
 62
   257
176
     1
 40
1.0
176
     1
 90
        1
176
     1
 90
        6
176
     1
 90
        2
176
     1
 62
     7
176
     1
 90
        3
176
     1
 90
        0
176
     1
 90
        0
176
     1
290
     0
176
     1
 90
        5
176
     1
 40
0.0
176
     1
 90
        0
176
     1
290
     0
176
     1
290
     1
176
     1
290
     1
176
     1
290
     0
176
     1
290
     0
176
     1
290
     0
176
     1
290
     0
176
     1
290
     0
176
     1
290
     0
176
     1
 90
       50
176
     1
 40
0.0
176
     1
 40
1.0
176
     1
 90
        0
176
     1
 62
    18
420
        0
176
     1
 90
       50
176
     1
 90
        3
176
     1
 62
     5
420
      255
176
     1
290
     0
176
     1
 90
       50
176
     1
 90
       50
176
     1
 90
       50
176
     1
290
     0
176
     1
 90
       50
176
     1
 62
   256
176
     0
 40
1.0
176
     0
 90
        2
176
     1
  1
strokes_ogs.tif
176
     1
290
     0
176
     1
 40
1.0
176
     1
 40
1.0
176
     1
  0
VISUALSTYLE
  5
3A
102
{ACAD_REACTORS
330
29
102
}
330
29
100
AcDbVisualStyle
  2
Shades of Gray
 70
    23
177
     3
291
     0
 70
    58
 90
        2
176
     1
 90
        2
176
     1
 90
        3
176
     1
 90
        0
176
     1
 40
0.6
176
     1
 40
30.0
176
     1
 62
     7
420
 16777215
176
     1
 90
        2
176
     1
 90
        2
176
     1
 62
     7
176
     1
 62
     7
176
     1
 90
        1
176
     1
 90
        1
176
     1
 40
40.0
176
     1
 90
        8
176
     1
 62
     7
176
     1
 40
1.0
176
     1
 90
        1
176
     1
 90
        6
176
     1
 90
        2
176
     1
 62
     7
176
     1
 90
        3
176
     1
 90
        0
176
     1
 90
        0
176
     1
290
     0
176
     1
 90
        1
176
     1
 40
0.0
176
     1
 90
        0
176
     1
290
     0
176
     1
290
     1
176
     1
290
     1
176
     1
290
     0
176
     1
290
     0
176
     1
290
     0
176
     1
290
     0
176
     1
290
     0
176
     1
290
     0
176
     1
 90
       50
176
     1
 40
0.0
176
     1
 40
1.0
176
     1
 90
        0
176
     1
 62
    18
420
        0
176
     1
 90
       50
176
     1
 90
        3
176
     1
 62
     5
420
      255
176
     1
290
     0
176
     1
 90
       50
176
     1
 90
       50
176
     1
 90
       50
176
     1
290
     0
176
     1
 90
       50
176
     1
 62
   256
176
     0
 40
1.0
176
     0
 90
        2
176
     1
  1
strokes_ogs.tif
176
     1
290
     0
176
     1
 40
1.0
176
     1
 40
1.0
176
     1
  0
VISUALSTYLE
  5
3B
102
{ACAD_REACTORS
330
29
102
}
330
29
100
AcDbVisualStyle
  2
Sketchy
 70
    24
177
     3
291
     0
 70
    58
 90
        1
176
     1
 90
        2
176
     1
 90
        2
176
     1
 90
        0
176
     1
 40
0.6
176
     1
 40
30.0
176
     1
 62
     7
420
 16777215
176
     1
 90
        2
176
     1
 90
        2
176
     1
 62
     7
176
     1
 62
     7
176
     1
 90
        1
176
     1
 90
        1
176
     1
 40
40.0
176
     1
 90
       11
176
     1
 62
     7
176
     1
 40
1.0
176
     1
 90
        1
176
     1
 90
        6
176
     1
 90
        2
176
     1
 62
     7
176
     1
 90
        6
176
     1
 90
        0
176
     1
 90
        0
176
     1
290
     0
176
     1
 90
        1
176
     1
 40
0.0
176
     1
 90
        0
176
     1
290
     0
176
     1
290
     1
176
     1
290
     1
176
     1
290
     0
176
     1
290
     0
176
     1
290
     0
176
     1
290
     0
176
     1
290
     0
176
     1
290
     0
176
     1
 90
       50
176
     1
 40
0.0
176
     1
 40
1.0
176
     1
 90
        0
176
     1
 62
    18
420
        0
176
     1
 90
       50
176
     1
 90
        3
176
     1
 62
     5
420
      255
176
     1
290
     0
176
     1
 90
       50
176
     1
 90
       50
176
     1
 90
       50
176
     1
290
     0
176
     1
 90
       50
176
     1
 62
   256
176
     0
 40
1.0
176
     0
 90
        2
176
     1
  1
strokes_ogs.tif
176
     1
290
     0
176
     1
 40
1.0
176
     1
 40
1.0
176
     1
  0
VISUALSTYLE
  5
36
102
{ACAD_REACTORS
330
29
102
}
330
29
100
AcDbVisualStyle
  2
Thicken
 70
    13
177
     3
291
     1
 70
    58
 90
        2
176
     1
 90
        2
176
     1
 90
        0
176
     1
 90
        0
176
     1
 40
0.6
176
     1
 40
30.0
176
     1
 62
     7
420
 16777215
176
     1
 90
        1
176
     1
 90
        4
176
     1
 62
     7
176
     1
 62
   257
176
     1
 90
        1
176
     1
 90
        1
176
     1
 40
1.0
176
     1
 90
       12
176
     1
 62
     7
176
     1
 40
1.0
176
     1
 90
        1
176
     1
 90
        6
176
     1
 90
        2
176
     1
 62
     7
176
     1
 90
        5
176
     1
 90
        0
176
     1
 90
        0
176
     1
290
     0
176
     1
 90
        1
176
     1
 40
0.0
176
     1
 90
        0
176
     1
290
     0
176
     1
290
     1
176
     1
290
     1
176
     1
290
     0
176
     1
290
     0
176
     1
290
     0
176
     1
290
     0
176
     1
290
     0
176
     1
290
     0
176
     1
 90
       50
176
     1
 40
0.0
176
     1
 40
1.0
176
     1
 90
        0
176
     1
 62
    18
420
        0
176
     1
 90
       50
176
     1
 90
        3
176
     1
 62
     5
420
      255
176
     1
290
     0
176
     1
 90
       50
176
     1
 90
       50
176
     1
 90
       50
176
     1
290
     0
176
     1
 90
       50
176
     1
 62
   256
176
     0
 40
1.0
176
     0
 90
        2
176
     1
  1
strokes_ogs.tif
176
     1
290
     0
176
     1
 40
1.0
176
     1
 40
1.0
176
     1
  0
VISUALSTYLE
  5
30
102
{ACAD_REACTORS
330
29
102
}
330
29
100
AcDbVisualStyle
  2
Wireframe
 70
     5
177
     3
291
     0
 70
    58
 90
        0
176
     1
 90
        2
176
     1
 90
        0
176
     1
 90
        0
176
     1
 40
0.6
176
     1
 40
30.0
176
     1
 62
     7
420
 16777215
176
     1
 90
        1
176
     1
 90
        4
176
     1
 62
     7
176
     1
 62
   257
176
     1
 90
        1
176
     1
 90
        1
176
     1
 40
1.0
176
     1
 90
        0
176
     1
 62
   257
176
     1
 40
1.0
176
     1
 90
        1
176
     1
 90
        6
176
     1
 90
        2
176
     1
 62
     7
176
     1
 90
        3
176
     1
 90
        0
176
     1
 90
        0
176
     1
290
     0
176
     1
 90
        1
176
     1
 40
0.0
176
     1
 90
        0
176
     1
290
     0
176
     1
290
     1
176
     1
290
     1
176
     1
290
     0
176
     1
290
     0
176
     1
290
     0
176
     1
290
     0
176
     1
290
     0
176
     1
290
     0
176
     1
 90
       50
176
     1
 40
0.0
176
     1
 40
1.0
176
     1
 90
        0
176
     1
 62
    18
420
        0
176
     1
 90
       50
176
     1
 90
        3
176
     1
 62
     5
420
      255
176
     1
290
     0
176
     1
 90
       50
176
     1
 90
       50
176
     1
 90
       50
176
     1
290
     0
176
     1
 90
       50
176
     1
 62
   256
176
     0
 40
1.0
176
     0
 90
        2
176
     1
  1
strokes_ogs.tif
176
     1
290
     0
176
     1
 40
1.0
176
     1
 40
1.0
176
     1
  0
VISUALSTYLE
  5
3C
102
{ACAD_REACTORS
330
29
102
}
330
29
100
AcDbVisualStyle
  2
X-Ray
 70
    25
177
     3
291
     0
 70
    58
 90
        2
176
     1
 90
        2
176
     1
 90
        1
176
     1
 90
        1
176
     1
 40
0.5
176
     1
 40
30.0
176
     1
 62
     7
420
 16777215
176
     1
 90
        1
176
     1
 90
        0
176
     1
 62
     7
176
     1
 62
   257
176
     1
 90
        1
176
     1
 90
        1
176
     1
 40
1.0
176
     1
 90
        8
176
     1
 62
     7
176
     1
 40
1.0
176
     1
 90
        1
176
     1
 90
        6
176
     1
 90
        2
176
     1
 62
     7
176
     1
 90
        3
176
     1
 90
        0
176
     1
 90
        0
176
     1
290
     0
176
     1
 90
       13
176
     1
 40
0.0
176
     1
 90
        0
176
     1
290
     0
176
     1
290
     1
176
     1
290
     1
176
     1
290
     0
176
     1
290
     0
176
     1
290
     0
176
     1
290
     0
176
     1
290
     0
176
     1
290
     0
176
     1
 90
       50
176
     1
 40
0.0
176
     1
 40
1.0
176
     1
 90
        0
176
     1
 62
    18
420
        0
176
     1
 90
       50
176
     1
 90
        3
176
     1
 62
     5
420
      255
176
     1
290
     0
176
     1
 90
       50
176
     1
 90
       50
176
     1
 90
       50
176
     1
290
     0
176
     1
 90
       50
176
     1
 62
   256
176
     0
 40
1.0
176
     0
 90
        2
176
     1
  1
strokes_ogs.tif
176
     1
290
     0
176
     1
 40
1.0
176
     1
 40
1.0
176
     1
  0
DICTIONARYVAR
  5
8E
102
{ACAD_REACTORS
330
89
102
}
330
89
100
DictionaryVariables
280
     0
  1
1:1
  0
DICTIONARYVAR
  5
8B
102
{ACAD_REACTORS
330
89
102
}
330
89
100
DictionaryVariables
280
     0
  1
STANDARD
  0
DICTIONARYVAR
  5
8A
102
{ACAD_REACTORS
330
89
102
}
330
89
100
DictionaryVariables
280
     0
  1
STANDARD
  0
DICTIONARYVAR
  5
8C
102
{ACAD_REACTORS
330
89
102
}
330
89
100
DictionaryVariables
280
     0
  1
Imperial24
  0
DICTIONARYVAR
  5
8D
102
{ACAD_REACTORS
330
89
102
}
330
89
100
DictionaryVariables
280
     0
  1
Imperial24
  0
DICTIONARY
  5
1A
330
19
100
AcDbDictionary
280
     1
281
     1
  3
BUMPTILE
360
1C
  3
DIFFUSETILE
360
1B
  3
OPACITYTILE
360
1F
  3
REFLECTIONTILE
360
1E
  3
REFRACTIONTILE
360
20
  3
SPECULARTILE
360
1D
  0
DICTIONARY
  5
12
330
11
100
AcDbDictionary
280
     1
281
     1
  3
BUMPTILE
360
14
  3
DIFFUSETILE
360
13
  3
OPACITYTILE
360
17
  3
REFLECTIONTILE
360
16
  3
REFRACTIONTILE
360
18
  3
SPECULARTILE
360
15
  0
DICTIONARY
  5
22
330
21
100
AcDbDictionary
280
     1
281
     1
  3
BUMPTILE
360
24
  3
DIFFUSETILE
360
23
  3
OPACITYTILE
360
27
  3
REFLECTIONTILE
360
26
  3
REFRACTIONTILE
360
28
  3
SPECULARTILE
360
25
  0
DICTIONARY
  5
8F
330
65
100
AcDbDictionary
280
     1
281
     1
  3
ACAD_ROUNDTRIP_2008_TABLESTYLE_CELLSTYLEMAP
360
90
  0
XRECORD
  5
1C
102
{ACAD_REACTORS
330
1A
102
}
330
1A
100
AcDbXrecord
280
     1
270
     1
271
     1
  0
XRECORD
  5
1B
102
{ACAD_REACTORS
330
1A
102
}
330
1A
100
AcDbXrecord
280
     1
270
     1
271
     1
  0
XRECORD
  5
1F
102
{ACAD_REACTORS
330
1A
102
}
330
1A
100
AcDbXrecord
280
     1
270
     1
271
     1
  0
XRECORD
  5
1E
102
{ACAD_REACTORS
330
1A
102
}
330
1A
100
AcDbXrecord
280
     1
270
     1
271
     1
  0
XRECORD
  5
20
102
{ACAD_REACTORS
330
1A
102
}
330
1A
100
AcDbXrecord
280
     1
270
     1
271
     1
  0
XRECORD
  5
1D
102
{ACAD_REACTORS
330
1A
102
}
330
1A
100
AcDbXrecord
280
     1
270
     1
271
     1
  0
XRECORD
  5
14
102
{ACAD_REACTORS
330
12
102
}
330
12
100
AcDbXrecord
280
     1
270
     1
271
     1
  0
XRECORD
  5
13
102
{ACAD_REACTORS
330
12
102
}
330
12
100
AcDbXrecord
280
     1
270
     1
271
     1
  0
XRECORD
  5
17
102
{ACAD_REACTORS
330
12
102
}
330
12
100
AcDbXrecord
280
     1
270
     1
271
     1
  0
XRECORD
  5
16
102
{ACAD_REACTORS
330
12
102
}
330
12
100
AcDbXrecord
280
     1
270
     1
271
     1
  0
XRECORD
  5
18
102
{ACAD_REACTORS
330
12
102
}
330
12
100
AcDbXrecord
280
     1
270
     1
271
     1
  0
XRECORD
  5
15
102
{ACAD_REACTORS
330
12
102
}
330
12
100
AcDbXrecord
280
     1
270
     1
271
     1
  0
XRECORD
  5
24
102
{ACAD_REACTORS
330
22
102
}
330
22
100
AcDbXrecord
280
     1
270
     1
271
     1
  0
XRECORD
  5
23
102
{ACAD_REACTORS
330
22
102
}
330
22
100
AcDbXrecord
280
     1
270
     1
271
     1
  0
XRECORD
  5
27
102
{ACAD_REACTORS
330
22
102
}
330
22
100
AcDbXrecord
280
     1
270
     1
271
     1
  0
XRECORD
  5
26
102
{ACAD_REACTORS
330
22
102
}
330
22
100
AcDbXrecord
280
     1
270
     1
271
     1
  0
XRECORD
  5
28
102
{ACAD_REACTORS
330
22
102
}
330
22
100
AcDbXrecord
280
     1
270
     1
271
     1
  0
XRECORD
  5
25
102
{ACAD_REACTORS
330
22
102
}
330
22
100
AcDbXrecord
280
     1
270
     1
271
     1
  0
CELLSTYLEMAP
  5
90
102
{ACAD_REACTORS
330
8F
102
}
330
8F
100
AcDbCellStyleMap
 90
        3
300
CELLSTYLE
  1
TABLEFORMAT_BEGIN
 90
        5
170
     1
 91
        0
 92
    32768
 62
   257
 93
        1
300
CONTENTFORMAT
  1
CONTENTFORMAT_BEGIN
 90
        0
 91
        0
 92
      512
 93
        0
300

 40
0.0
140
1.0
 94
        5
 62
     0
340
55
144
0.25
309
CONTENTFORMAT_END
171
     0
 94
        0
309
TABLEFORMAT_END
  1
CELLSTYLE_BEGIN
 90
        1
 91
        1
300
_TITLE
309
CELLSTYLE_END
300
CELLSTYLE
  1
TABLEFORMAT_BEGIN
 90
        5
170
     1
 91
        0
 92
        0
 62
   257
 93
        1
300
CONTENTFORMAT
  1
CONTENTFORMAT_BEGIN
 90
        0
 91
        0
 92
      512
 93
        0
300

 40
0.0
140
1.0
 94
        5
 62
     0
340
55
144
0.18
309
CONTENTFORMAT_END
171
     0
 94
        0
309
TABLEFORMAT_END
  1
CELLSTYLE_BEGIN
 90
        2
 91
        1
300
_HEADER
309
CELLSTYLE_END
300
CELLSTYLE
  1
TABLEFORMAT_BEGIN
 90
        5
170
     1
 91
        0
 92
        0
 62
   257
 93
        1
300
CONTENTFORMAT
  1
CONTENTFORMAT_BEGIN
 90
        0
 91
        0
 92
      512
 93
        0
300

 40
0.0
140
1.0
 94
        2
 62
     0
340
55
144
0.18
309
CONTENTFORMAT_END
171
     0
 94
        0
309
TABLEFORMAT_END
  1
CELLSTYLE_BEGIN
 90
        3
 91
        2
300
_DATA
309
CELLSTYLE_END
  0
ENDSEC
  0
EOF
