<?xml version="1.0" encoding="UTF-8"?>
<svg id="Layer_1" data-name="Layer 1" xmlns="http://www.w3.org/2000/svg" viewBox="0 0 500 500">
  <defs>
    <style>
      .cls-1 {
        fill: #fff;
      }

      .cls-2 {
        fill: #831618;
      }

      .cls-3 {
        fill: #0f592d;
      }
    </style>
  </defs>
  <g>
    <path d="M397.91,295.57c0-77.84,.02-155.7,0-233.54,0-10.31-3.95-18.92-11.49-25.92-7.18-6.67-15.82-9.34-25.47-9.32-20.07,.03-40.14,.03-60.21,.03-59.06,0-118.11-.02-177.16-.03-11.34,0-20.72,4.34-28.15,12.89-6.27,7.22-8.35,15.73-8.34,25.12,.08,59.52,.04,119.04,.04,178.55,0,49.66-.01,99.31,0,148.97,0,11.71-.06,23.43,.17,35.14,.17,8.21,3.52,15.25,9.04,21.3,8.08,8.86,18.27,11.9,30.02,11.88,72.97-.12,145.95-.03,218.92-.1,7.99-.01,16.05,.84,23.98-.63,17.04-3.17,28.65-17.63,28.66-35.57,.03-42.93-.01-85.85-.01-128.78Zm-2.43-51.84h-.05c0,59.4,0,118.79,0,178.2,0,5.01-.29,9.96-2.06,14.73-4.8,12.96-17.23,21.4-31.66,21.4-77.27,0-154.53-.02-231.79-.03-2.55,0-5.11,.06-7.66-.03-18.18-.65-31.86-14.28-32.59-32.44-.03-.93-.02-1.85-.02-2.78,0-119.38,.02-238.75-.03-358.13,0-9.73,2.62-18.27,9.62-25.26,6.96-6.93,15.36-10.01,25.14-10,56.96,.06,113.93,.03,170.89,.03,22.28,0,44.55-.09,66.82,.03,16.55,.09,29.64,10.91,32.75,26.74,.84,4.24,.62,8.55,.63,12.84,0,58.24,0,116.48,0,174.72Z"/>
    <path class="cls-1" d="M395.48,243.73h-.05c0,59.4,0,118.79,0,178.2,0,5.01-.29,9.96-2.06,14.73-4.8,12.96-17.23,21.4-31.66,21.4-77.27,0-154.53-.02-231.79-.03-2.55,0-5.11,.06-7.66-.03-18.18-.65-31.86-14.28-32.59-32.44-.03-.93-.02-1.85-.02-2.78,0-119.38,.02-238.75-.03-358.13,0-9.73,2.62-18.27,9.62-25.26,6.96-6.93,15.36-10.01,25.14-10,56.96,.06,113.93,.03,170.89,.03,22.28,0,44.55-.09,66.82,.03,16.55,.09,29.64,10.91,32.75,26.74,.84,4.24,.62,8.55,.63,12.84,0,58.24,0,116.48,0,174.72Z"/>
  </g>
  <path class="cls-2" d="M122.33,102.69v-.21l4.45-4.91c11.72-13.51,19.16-23.45,19.16-35.73,0-9.52-5.05-19.35-17.03-19.35-6.42,0-11.89,2.87-15.74,6.76l2.4,6.35c2.57-2.56,6.76-5.63,11.81-5.63,8.3,0,11.04,6.25,11.04,13-.09,10.03-6.5,18.63-20.7,34.81l-5.9,6.86v5.53h35.51v-7.47h-24.98Z"/>
  <g>
    <path class="cls-3" d="M243.74,78.79c6.02,.74,13.02,.93,19.66,2.57,11.51,2.84,13.44,10.77,5.26,19.03-2.93,2.95-8.08,4.08-8.02,9.56,.1,9.09-.09,18.19,.42,27.26,.18,3.22,4.26,3.52,6.52,5.2,7.83,5.84,8.39,13.98-.04,18.28-6.79,3.47-7.22,8.08-7.02,14.12,.36,11.22-2.49,22.58,9.78,31.02,7.14,4.91,3.7,13.47-5.65,15.92-14.3,3.74-28.79,3.76-43.18,.28-4.19-1.01-8.84-2.06-9.74-7.37-.88-5.21,1.77-8.97,5.62-12.23,5.96-5.06,11.67-32.78,5.94-36.72-14.88-10.22-15.79-17.63-.02-27.7,5.29-3.38,.24-31.55-5.13-36.03-4.11-3.43-7.36-7.22-6.43-12.97,1.05-6.51,6.89-7.18,11.61-8.14,6.37-1.3,12.98-1.38,20.42-2.08Zm-9.59,34.07c0,5.07,.28,10.16-.07,15.21-.41,5.98,1.62,8.31,7.95,8.29,6.32-.02,9.29-1.45,8.94-8.44-.49-9.75-.41-19.56-.02-29.33,.26-6.4-1.76-9.16-8.53-9.17-6.93,0-8.81,3.09-8.35,9.32,.35,4.68,.07,9.41,.07,14.12Zm0,76.69c0,5.47,.3,10.95-.08,16.39-.43,6.23,2.11,8.34,8.22,8.26,5.66-.08,8.92-1.21,8.64-7.84-.39-9.46-.25-18.95-.03-28.42,.14-6.27,.39-11.01-8.76-10.9-8.77,.11-8.16,4.84-8.02,10.49,.09,4.01,.02,8.02,.03,12.02Zm.11-37.95c-.76,6.33-.37,11.28,8.44,11.17,8.1-.1,8.28-4.58,8.25-10.57-.03-6.23,.24-11.39-8.68-11.24-8.1,.14-8.75,4.51-8.02,10.64Z"/>
    <path class="cls-3" d="M242.68,408.79c-7.25-.56-14.58-.25-21.65-2.56-3.85-1.26-8.04-2.12-9.15-6.71-1.15-4.76,.67-9.32,4.71-11.35,10.48-5.26,7.59-14.57,7.77-22.92,.17-8.08,1.7-15.96-8.5-21.11-7.31-3.69-6.03-12.09,.83-15.93,7.1-3.97,8.15-9.02,7.82-16.02-.52-10.94,1.99-21.97-9.88-30.04-6.54-4.45-3.98-12.59,3.87-15.01,15.68-4.84,31.7-4.76,47.42-.22,8.86,2.56,10.98,10.91,3.37,16.56-14.46,10.72-7.02,25.14-8.3,38.04-.34,3.47,3.93,3.8,6.16,5.49,8.61,6.51,8.97,13.61-.23,18.94-5.46,3.16-6.61,6.76-6.42,12.28,.43,11.95-2.64,24.14,10.29,33.11,5.94,4.12,3.29,11.34-4.36,14.21-7.65,2.87-15.74,2.76-23.74,3.24Zm-8.52-34.2c0,5.43,.3,10.89-.08,16.29-.46,6.61,3.08,7.82,8.64,7.89,5.99,.07,8.45-2.14,8.23-8.32-.36-9.76-.31-19.56-.01-29.33,.18-5.94-.76-9.2-8.1-9.31-7.8-.12-9.26,3.22-8.75,9.74,.34,4.32,.06,8.69,.07,13.03Zm0-76.75c0,5.47,.29,10.95-.07,16.39-.44,6.56,3.46,6.78,8.3,6.71,4.64-.07,8.73,.22,8.52-6.5-.32-10.19-.35-20.41,.04-30.6,.25-6.63-1.2-9.97-8.91-9.88-7.54,.09-8.24,3.9-7.95,9.68,.24,4.73,.05,9.47,.07,14.21Zm16.5,38.22c1.15-5.99,.17-10.86-8.32-10.84-7.85,.02-8.44,4.59-8.3,10.71,.14,6.1-.53,11.37,8.62,11.21,8.19-.15,8.79-4.36,8-11.08Z"/>
  </g>
</svg>