<?xml version="1.0" encoding="UTF-8"?>
<svg id="Layer_1" data-name="Layer 1" xmlns="http://www.w3.org/2000/svg" viewBox="0 0 500 500">
  <defs>
    <style>
      .cls-1 {
        fill: #fff;
      }

      .cls-2 {
        fill: #831618;
      }

      .cls-3 {
        fill: #e2a025;
      }

      .cls-4 {
        fill: #1b2251;
      }

      .cls-5 {
        fill: #0f592d;
      }
    </style>
  </defs>
  <g>
    <path d="M377.84,303.79c0-77.84,.02-155.7,0-233.54,0-10.31-3.95-18.92-11.49-25.92-7.18-6.67-15.82-9.34-25.47-9.32-20.07,.03-40.14,.03-60.21,.03-59.06,0-118.11-.02-177.16-.03-11.34,0-20.72,4.34-28.15,12.89-6.27,7.22-8.35,15.73-8.34,25.12,.08,59.52,.04,119.04,.04,178.55,0,49.66-.01,99.31,0,148.97,0,11.71-.06,23.43,.17,35.14,.17,8.21,3.52,15.25,9.04,21.3,8.08,8.86,18.27,11.9,30.02,11.88,72.97-.12,145.95-.03,218.92-.1,7.99-.01,16.05,.84,23.98-.63,17.04-3.17,28.65-17.63,28.66-35.57,.03-42.93-.01-85.85-.01-128.78Zm-2.43-51.84h-.05c0,59.4,0,118.79,0,178.2,0,5.01-.29,9.96-2.06,14.73-4.8,12.96-17.23,21.4-31.66,21.4-77.27,0-154.53-.02-231.79-.03-2.55,0-5.11,.06-7.66-.03-18.18-.65-31.86-14.28-32.59-32.44-.03-.93-.02-1.85-.02-2.78,0-119.38,.02-238.75-.03-358.13,0-9.73,2.62-18.27,9.62-25.26,6.96-6.93,15.36-10.01,25.14-10,56.96,.06,113.93,.03,170.89,.03,22.28,0,44.55-.09,66.82,.03,16.55,.09,29.64,10.91,32.75,26.74,.84,4.24,.62,8.55,.63,12.84,0,58.24,0,116.48,0,174.72Z"/>
    <path class="cls-1" d="M375.41,251.94h-.05c0,59.4,0,118.79,0,178.2,0,5.01-.29,9.96-2.06,14.73-4.8,12.96-17.23,21.4-31.66,21.4-77.27,0-154.53-.02-231.79-.03-2.55,0-5.11,.06-7.66-.03-18.18-.65-31.86-14.28-32.59-32.44-.03-.93-.02-1.85-.02-2.78,0-119.38,.02-238.75-.03-358.13,0-9.73,2.62-18.27,9.62-25.26,6.96-6.93,15.36-10.01,25.14-10,56.96,.06,113.93,.03,170.89,.03,22.28,0,44.55-.09,66.82,.03,16.55,.09,29.64,10.91,32.75,26.74,.84,4.24,.62,8.55,.63,12.84,0,58.24,0,116.48,0,174.72Z"/>
    <path class="cls-4" d="M102.3,111.9v-.21l4.45-4.91c11.72-13.51,19.16-23.45,19.16-35.73,0-9.52-5.05-19.35-17.03-19.35-6.42,0-11.89,2.87-15.74,6.76l2.4,6.35c2.57-2.56,6.76-5.63,11.81-5.63,8.3,0,11.04,6.25,11.04,13-.09,10.03-6.5,18.63-20.7,34.81l-5.9,6.86v5.53h35.51v-7.47h-24.98Z"/>
  </g>
  <g>
    <path class="cls-4" d="M134.14,361.27c9.14,1.05,18.21,1.98,27.3,.85,10.7-1.32,14.74,1.25,17.11,11.8,1.62,7.22,4.06,14.3,3.89,21.88-.09,3.94,.2,7.81-2.99,10.91-1.41,1.37-.78,3.24-.57,5.01,.45,3.71,2.25,8.09-2.58,10.25-5.11,2.28-11.65,0-14.31-4.86-1.39-2.54-2.3-5.39-3.11-8.19-.87-3.01-2.57-4.72-5.73-4.93-3.72-.24-5.22,1.15-3.64,4.86,.23,.54,.46,1.08,.68,1.62,1.65,3.97,3.1,8.3-1.53,10.94-4.28,2.44-9.02,2.52-12.97-1.34-2.93-2.87-5.98-5.6-6.57-10.09-.41-3.08-2.44-4.35-5.63-4.91-7.27-1.27-9.87-5.88-7.31-12.88,2.01-5.49,4.33-10.9,6.94-16.13,2.91-5.8,4-11.86,3.51-18.19-1.12-14.27,2.84-27.5,8.02-40.49,1.92-4.81,5.02-8.8,9.08-12.06,4.61-3.69,7.39-3.23,10.2,2.02,.81,1.52,1.2,3.29,1.65,4.98,1.9,7.24,4.17,8.89,11.17,8.01,6.64-.84,11.14-5.39,11.1-11.38-.02-3.52-.3-7.04-.39-10.56-.03-1.16,0-2.43,1.6-2.67,1.44-.22,2.09,.78,2.71,1.8,.2,.33,.47,.68,.51,1.05,1.77,15.46,15.05,16.07,25.78,19.35,3.7,1.13,5.57,2.44,6.87,5.86,3.84,10.08,2.76,20.42,2.05,30.75-.26,3.82-2.47,5.46-6.28,5.21-3.9-.26-7.81-.22-11.7-.55-2-.17-3.83-.23-5.66,.81-10.76,6.11-21.61,3.95-29.38-5.72-2.62-3.26-4.11-7.09-5.82-10.81-.56-1.21-1.44-2.66-.08-3.75,1.36-1.08,3.11-.79,4.31,.3,1.42,1.29,2.87,2.78,3.69,4.48,2.3,4.79,6.31,7.36,10.99,9.11,2.95,1.1,6.23,2.46,7.7-2.03,1.3-3.97-1.41-9.13-5.03-9.83-.76-.15-1.57-.02-2.34-.1-1.28-.14-3.01,.62-3.65-1.01-.72-1.82,1.07-2.74,2.03-3.87,.88-1.04,2.03-1.86,2.88-2.92,2.12-2.61,1.55-5.66,.62-8.38-.89-2.63-3.62-1.76-5.65-1.75-2.34,0-4.67,.42-7.01,.54-6.79,.34-12.32-2.16-16.08-7.84-2.26-3.4-4.01-3.05-6.07-.03-6.26,9.14-8.79,19.47-9.86,30.31-.3,3.03,.75,4.23,3.88,4.2,4.89-.05,9.78,.37,14.67,.39,3.35,.01,6.26,1.2,6.45,4.55,.21,3.67-3.55,3.87-6.07,4.07-3.87,.31-7.8-.22-11.7-.21-2.59,0-5.36-.83-7.67,1.54Zm14.41,20.3c-.13-.01-.26-.03-.4-.04,0-1.95,.06-3.9-.01-5.85-.1-2.71-.63-5.32-4.1-5.19-3.98,.15-9.13-2.94-11.53,2.32-2.9,6.39-5.48,12.87-9.41,18.76-1.54,2.3-1.4,5.65,1.16,6.68,2.7,1.09,5.13-1.07,6.15-3.92,.78-2.19,1.22-4.51,1.93-6.73,.35-1.09,.91-2.44,2.37-1.94,.76,.26,1.52,1.26,1.77,2.09,.4,1.27,.23,2.71,.56,4.02,.5,1.99-1.43,5.34,2.22,5.63,3.42,.28,6.77-.72,7.57-4.87,.7-3.63,1.15-7.3,1.71-10.95Zm24.41,6.66c-.21-1.95-.64-5.24-.9-8.54-.69-9.09-2.99-10.96-11.88-9.81-3.1,.4-4.65,1.78-4.09,5,1.09,6.23,1.05,12.43-.46,18.59-.28,1.15-.67,2.42,1.02,2.74,1.28,.24,2.46-.32,2.71-1.62,.44-2.29,.44-4.66,.91-6.94,.34-1.65,.65-3.85,2.71-4.06,1.86-.19,3.16,1.42,3.95,3.03,.58,1.2,.81,2.58,1.18,3.88,.65,2.25-.85,6.37,2.38,6.32,3.78-.06,2.02-4.2,2.45-6.65,.03-.19,0-.39,0-1.94Zm36.1-45.51c.32-10.37-2.38-14.31-11.57-17.37-1.11-.37-2.17-.9-3.25-1.34-1.96-.8-3.99-2.23-5.78,.17-1.09,1.46-1.66,3.17-.79,4.96,1.4,2.89,3.67,1.21,5.65,.97,3.68-.45,7.92-1.64,9.45,3.16,1.53,4.79,3.07,9.95-1.67,14.2-.87,.78-1.81,1.79-1.25,3.04,.67,1.48,2.24,1.37,3.6,1.37,7.26-.03,4.02-6.23,5.6-9.15Z"/>
    <path class="cls-5" d="M223.55,288.09c-.65,.11-1.23,.26-1.81,.29-2.77,.13-6.01,.43-7.09-2.68-1.05-3.02,1.49-5.08,3.71-6.67,8.93-6.38,18.74-11.3,28.24-16.74,4.58-2.62,9.39-4.9,13.71-7.89,3.85-2.67,7.02-2.5,10.67,.14,6.65,4.81,13.52,9.32,20.19,14.11,5.94,4.27,12.41,7.35,19.32,9.65,1.66,.55,3.27,1.32,4.79,2.19,1.66,.96,2.49,2.46,1.99,4.46-.5,1.99-2.13,1.95-3.72,2.09q-9.69,.85-9.71,10.57c0,2.15,.12,4.31,.05,6.45-.1,3.17,1.21,5.19,4.37,5.97,1.33,.32,2.65,.73,3.91,1.25,2.66,1.1,6.13,1.84,5.63,5.65-.5,3.79-3.99,2.96-6.59,3.22-4.98,.49-8.09,2.51-7.32,8.22,.28,2.11,.12,4.3-.02,6.45-.13,1.97,.95,4.96-2.25,5.11-2.58,.12-4.82-1.42-5.77-4.18-1.51-4.38-1.12-8.97-.87-13.39,.3-5.27-2.09-7.67-6.51-9.72-6.73-3.11-13.24-6.73-19.65-10.45-3-1.74-5.24-1.8-7.83,.59-4.95,4.56-10.88,7.71-17.07,10.11-4.32,1.68-6.12,4.37-6.31,8.73-.14,3.32-.56,6.63-.81,9.94-.27,3.53-2.85,4.73-5.66,4.76-3.16,.04-2.64-3.05-2.69-4.94-.11-4.38,.03-8.51-6.37-7.48-1.69,.27-3.11-.56-3.33-2.5-.23-2-.26-4.44,1.86-5.11,6.49-2.06,6.12-7.21,6.14-12.33,.02-4.3,.1-8.61,.21-12.91,.06-2.49-.79-3.78-3.41-2.97Zm12.76,4.91c0,1.17,0,2.34,0,3.52-.06,7.54,1.06,8.35,7.51,4.84,5.65-3.07,11.47-5.84,16.33-10.25,3.13-2.84,6.32-3.93,10.19-.27,4.83,4.56,10.51,8.04,16.63,10.81,4.35,1.98,6.64,.8,7.69-3.69,2.57-11.06,.4-16.35-9.23-22.23-1.33-.81-3-1.32-3.99-2.43-11.76-13.18-22.75-6.95-34.76,.22-8.08,4.82-11.52,10.51-10.37,19.48Z"/>
    <path class="cls-5" d="M309.88,386.35c-10.94,.87-21.83,1.17-32.61-1.68-3.23-.85-4.76-2.13-4.52-5.5,.16-2.34-.17-4.71,.05-7.04,.49-5.31-1.68-7.48-7.09-7.28-5.63,.21-7.01,3.11-6.45,8.06,.26,2.31,.23,4.69,.06,7.02-.25,3.29-1.84,4.91-5.47,5.58-9.32,1.73-18.58,2.36-28,1.15-7.82-1.01-15.62,.5-23.43,.46-3.74-.02-9.41,.82-9.75-3.99-.36-5.16,5.43-5.38,9.36-5.63,6.63-.43,13.3-.33,19.94-.2,3.92,.07,5.73-1.38,5.67-5.45-.06-4.3,.2-8.6,.48-12.89,.15-2.29-.56-3.75-2.85-4.4-1.96-.56-3.76-1.45-3.72-3.89,.04-2.53,1.07-4.59,3.49-5.65,12.61-5.53,23.78-13.42,34.93-21.33,3.12-2.22,5.95-2.3,9.13-.06,6.23,4.39,12.55,8.67,18.92,12.85,7.27,4.77,15.32,7.78,23.72,9.87,3.04,.76,6,1.89,5.92,5.43-.08,3.63-3.57,3.05-5.89,3.32-5.23,.6-7.26,3-7.07,8.53,.53,15.39-1.92,13.23,13.47,13.46,4.11,.06,8.23-.13,12.32,.11,2.88,.17,6.45,.41,6.2,4.51-.22,3.49-2.88,4.77-6.28,4.68-3.52-.1-7.04-.01-10.56-.01-3.32,0-6.65,0-9.97,0Zm-72.77-23.07c-.19,3.52-.47,7.03-.52,10.55-.03,2,.5,3.88,2.69,4.77,7.07,2.87,13.62-.99,13.35-8.7-.54-15.02-.09-15.04,16.67-15.04,.98,0,1.96,.17,2.93,.09,4.07-.34,5.73,1.96,5.92,5.58,.23,4.49,.21,9,.37,13.5,.1,2.65,1.27,4.83,4.16,4.65,4.05-.25,9.34,2.61,11.91-1.87,5.97-10.43,.05-28.19-10.62-33.87-2.42-1.29-5.19-2.2-7.16-3.99-8.22-7.52-15.48-6.62-24.66-.45-9.38,6.32-17.81,11.74-15.04,24.79Z"/>
    <path class="cls-4" d="M299.51,171.51c-2.94-4.26-2.79-8.4-2.79-12.4,0-8.42,.02-16.84,.43-25.24,.2-4.11-1.43-5.42-5.12-4.73-3.26,.61-6.47,1.46-9.71,2.18-3.8,.84-7.13,.73-8.06-4.1-.45-2.33-1.9-3.32-4.22-3.02-1.29,.17-2.9-.31-3.63,1.29-1.01,2.24,.57,3.7,1.85,5.14,2.06,2.32,5.28,3.5,6.61,6.54,.68,1.55,1.97,3.19,.48,4.88-1.21,1.37-2.91,1.19-4.35,.46-5.88-2.98-7.05-.26-6.84,5.13,.17,4.29-.31,8.6-.59,12.9-.21,3.19-1.23,6.05-4.12,8.58-2.79-4.86-2.04-9.84-1.8-14.75,.06-1.17,.24-2.34,.35-3.51,.71-7.67,.63-7.67-6.68-4.8-2.71,1.07-5.57,1.84-8.42,2.48-1.45,.33-3.36,.76-4.37-.71-1.23-1.79,.27-3.37,1.21-4.78,2.02-3.03,4.94-4.92,8.32-6.21,3.96-1.51,7.09-4.03,9.24-7.77,1.8-3.14,.53-4.38-2.61-4.4-4.3-.02-7.84,2-11.39,4.19-2.03,1.26-4.14,3.56-6.89,1.94-2.59-1.52-2.43-4.23-2.18-6.83,.32-3.18,1.52-5.49,4.98-6.37,9.13-2.32,18.32-4.21,27.8-3.8,4.47,.19,8.66,1.27,10.14,6.33,.63,2.17,2.07,2.6,4.03,2.44,7.78-.64,15.56-1.21,23.34-1.91,1.1-.1,2.29-.56,3.2-1.19,.91-.64,1.91-1.66,1.47-2.95-.56-1.64-1.96-.7-3.01-.65-6.26,.26-12.51,.52-18.76,.87-2.45,.14-5.1,.43-5.41-2.82-.29-3.03,2.32-3.95,4.66-4.26,6.49-.87,12.87-.19,19.08,2.05,1.44,.52,3.27,2.55,4.49,.07,.9-1.84,2.22-4.03,1.17-6.12-1.14-2.27-3.35-1.22-5.24-.94-7.7,1.15-15.53-1.75-23.21,.81-1.11,.37-2.36-.4-2.73-1.7-.36-1.3,.42-2.21,1.4-2.97,2.14-1.66,4.7-1.97,7.24-1.93,7.24,.12,14.47,.39,21.71,.59,1.55,.04,3.19,.38,4.63,0,1.98-.52,3.95-2.52,5.58,.28,1.64,2.8,.74,5.46-1.51,7.39-2.96,2.54-4.68,5.6-5.63,9.35-.75,2.93,.16,4.14,3.03,3.95,3.36-.22,6.6,.4,9.9,.88,3.26,.47,6.56,.42,5.51,5.25-.93,4.29-3.47,6.56-7.93,5.93-2.1-.3-4.1-1.31-6.18-1.8-19.54-4.63-17.17-3.54-16.18,14.23,.48,8.57,3.48,17.46-2.29,26.54Z"/>
    <path class="cls-5" d="M293.89,253.45c2.49-9.1-2.79-15.74-11.53-20.97-4.5-2.69-8.49-6.28-12.56-9.65-2.97-2.46-5.97-2.77-9.16-.8-7.15,4.42-14.26,8.91-21.37,13.4-2.41,1.53-2.91,3.86-2.99,6.59-.17,6.05-.67,12.08-.94,18.12-.11,2.33-.42,4.61-3.32,4.5-2.82-.11-2.42-2.51-2.43-4.45,0-3.33,.12-6.66-.04-9.98-.28-5.73-3.31-7.61-8.59-5.33-2.97,1.28-6.21,3.05-7.99-1.02-1.57-3.61,.39-6.4,3.89-8.01,15.16-6.96,29.42-15.5,43.18-24.88,4.54-3.09,8.03-1.63,11.47,1.66,7.08,6.78,14.71,12.84,22.9,18.27,5.28,3.5,10.99,5.97,16.71,8.49,3.26,1.44,5.52,3.51,4.55,7.13-1.1,4.09-4.52,2.2-6.83,1.59-5.39-1.42-7.21,.65-6.94,5.82,.16,3.12-.04,6.26-.17,9.39-.1,2.37-.21,5.16-3.45,5.04-2.8-.11-4.63-1.75-4.42-5.02,.17-2.73,.04-5.48,.04-9.89Z"/>
    <path class="cls-2" d="M240.35,431.19c15.25,0,30.5-.09,45.74,.07,3.49,.04,8.86-.77,9.04,4.01,.18,4.87-5.26,4.47-8.68,4.44-30.48-.28-60.96,1.21-91.43-.64-3.15-.19-6.18-.94-9.11-2.09-1.5-.59-3.19-1.45-3.11-3.12,.1-1.95,2.19-1.92,3.66-2.14,9.32-1.34,18.69-1.38,28.08-1.2,8.59,.17,17.19,.04,25.78,.04,0,.21,0,.42,0,.63Z"/>
    <path class="cls-2" d="M170.13,238.44c-8.61,0-17.21,.01-25.82,0-2.41,0-4.93-.09-5.82-2.87-.91-2.84,1.56-3.66,3.37-4.7,3.6-2.07,4.3-5.83,5.62-9.28,5.75-15.01,23.63-20.62,36.19-11.34,4.24,3.13,6.49,7.72,8.5,12.42,1.47,3.43,2.7,6.85,7.22,7.62,2.44,.42,3.25,2.83,2.77,5.11-.54,2.58-2.76,3.01-5.05,3.01-8.99,0-17.98,0-26.97,0Zm-6.28-7.77c0,.06,0,.13,.01,.19,5.26-.29,10.53-.56,15.79-.89,4.67-.29,6.1-2.8,4.85-7.17-1.5-5.22-4.88-8.83-10.24-9.13-6.74-.38-13.46,.61-17.55,7.08-1.64,2.59-4.08,5.73-2.71,8.6,1.5,3.12,5.32,.93,8.09,1.31,.58,.08,1.17,.01,1.76,.01Z"/>
    <path class="cls-4" d="M147.05,297.37c-2.63,.02-4.97-.94-7.15-2.29-2.49-1.53-5.69-3.1-5.63-6.18,.06-3.15,3.8-3.42,6.13-4.59,5.18-2.6,10.86-4.37,14.09-9.83,1.08-1.82,3.06-2.3,5.17-1.78,5.99,1.47,11.99,.84,18,.21,5.08-.53,6.01,.95,4.87,6.07-1.59,7.16-5.46,11.22-12.74,13.43-7.51,2.28-14.98,4.12-22.74,4.96Zm23.71-12.21c-8.29-2.26-19.11,.68-24.74,6.56,9.01-.22,16.36-2.9,24.74-6.56Z"/>
    <path class="cls-2" d="M115.18,227.52c-6.39,.09-7.85-1.24-8.03-8.39-.13-4.94,.57-9.74,3.12-14.11,3.7-6.35,10.04-9.6,16.61-8.51,8.29,1.37,12.91,5.9,14.31,14.03,.23,1.35,.41,2.71,.53,4.07,.77,8.88-.68,10.76-9.42,11.64-5.44,.55-10.9,.83-17.11,1.28Zm7.99-7.8c3.76-1.19,9.64,1.87,10.07-4.9,.33-5.28-5.25-10.64-9.84-10.38-4.81,.27-9.97,6.22-9.31,11.63,.78,6.36,6.21,2.1,9.09,3.65Z"/>
    <path class="cls-2" d="M319.02,408.56c4.69,0,9.39-.07,14.08,.03,2.29,.05,4.5,.79,4.64,3.49,.14,2.8-.36,5.54-3.72,6.52-4.18,1.21-8.38,1.91-12.73,1.05-5.37-1.06-10.78-1.95-16.12-3.13-2.46-.54-5.6-1.34-5.43-4.41,.2-3.57,3.76-3.56,6.37-3.72,4.29-.26,8.61-.07,12.92-.07,0,.08,0,.16,0,.24Z"/>
    <path class="cls-4" d="M264.85,108.19c-6.74-1.43-13.35,1.85-20.2,.85-2.52-.37-5.75-.29-5.94-3.39-.2-3.2,1.58-5.89,5.26-6.73,10.5-2.39,20.43,.44,30.35,3.24,1.72,.49,3.17,1.93,2.95,3.9-.27,2.45-2.51,2.02-4.14,2.09-2.72,.13-5.45,.03-8.28,.03Z"/>
    <path class="cls-2" d="M313.77,395.96c5.37,0,9.87,.08,14.36-.03,3.08-.08,4.92,1.29,5.05,4.3,.11,2.75-1.99,3.47-4.31,3.75-10.35,1.22-20.66,.28-30.97-.52-1.91-.15-4.31-.67-4.16-3.18,.12-2.02,1.87-3.25,3.97-3.72,5.61-1.28,11.3-.19,16.07-.59Z"/>
    <path class="cls-2" d="M213.11,411.04c-5.03-.69-10.33,1.17-15.52-.53-1.42-.46-3.38-.59-3.39-2.62,0-1.84,1.65-2.67,3.14-3.04,11.08-2.71,22.32-3.43,33.65-2.23,2.02,.21,3.75,1.66,3.81,3.86,.07,2.47-2.12,2.98-4.01,3.5-5.75,1.57-11.64,.84-17.68,1.05Z"/>
    <path class="cls-2" d="M263.94,424.29c-3.73-.15-7.26-.08-10.63-1.35-2.22-.84-3.68-2.19-3.64-4.71,.04-2.35,1.63-3.64,3.58-4.07,7.51-1.66,15.09-1.84,22.57,.1,2.02,.52,4.42,1.79,4.27,4.24-.13,2.21-2.2,3.78-4.25,4.44-3.91,1.27-7.98,1.85-11.89,1.34Z"/>
    <path class="cls-2" d="M212.51,399.34c-5.98-.1-10.13,.35-14.08-1.04-1.84-.65-3.85-1.76-3.64-4.02,.19-2.06,2.3-2.54,4.04-2.72,8.15-.89,16.3-1.93,24.53-1.29,2.24,.17,5.11,.08,5.48,3.21,.39,3.34-2.11,4.31-4.82,4.64-4.45,.54-8.92,.95-11.51,1.22Z"/>
    <path class="cls-2" d="M215.38,425.52c-4.66-.27-9.16-.09-13.37-2.09-1.77-.84-2.96-2.03-2.94-3.94,.02-1.86,1.64-2.48,3.15-2.97,8.24-2.67,16.59-.61,24.89-.53,1.43,.01,2.3,1.47,2.68,2.8,.57,2.04-.81,3.34-2.22,4.39-3.73,2.76-8.17,2-12.19,2.34Z"/>
    <path class="cls-2" d="M269.41,398.81c2.32,.12,5.44,.31,8.57,.41,1.48,.05,2.74,.29,3.16,1.95,.41,1.64,.06,3.03-1.2,4.26-3.73,3.64-24.96,4.88-29.01,1.42-2.32-1.98-1.97-4.03,.98-5.41,5.32-2.47,11.03-2.34,17.5-2.64Z"/>
    <path class="cls-2" d="M318.81,430.1c-3.69-.19-7.39-.33-11.08-.58-1.99-.13-4.29-.52-4.48-2.86-.18-2.28,1.89-3.09,3.89-3.62,7.76-2.03,15.48-.57,23.19,.31,1.72,.2,2.96,1.38,2.91,3.13-.06,1.94-1.21,3.23-3.33,3.24-3.7,.02-7.4,0-11.09,0,0,.12,0,.24,0,.35Z"/>
    <path class="cls-2" d="M264.57,396.8c-3.68-.36-7.36-.67-11.03-1.12-1.18-.15-2.27-.86-2.39-2.19-.12-1.41,.95-2.19,2.13-2.36,7.67-1.12,15.27-3.3,23.13-1.75,1.65,.33,4.02,.41,4.21,2.44,.22,2.29-2.17,2.95-3.92,3.7-3.9,1.68-8.04,1.16-12.13,1.29Z"/>
    <path class="cls-4" d="M314.61,149.06c6.71,.05,9.73,2.23,9.75,6.82,.02,3.96-1.28,6.98-5.73,7.27-3.87,.25-9.11-6.05-9.15-10.67-.04-4.08,3.03-3.18,5.13-3.42Z"/>
    <path class="cls-4" d="M280.11,160.6c-1.45-.56-3.93,.38-4.44-1.61-.27-1.06,1.21-2.73,2.16-3.92,2.65-3.35,6.73-4.65,10.35-6.37,2.78-1.32,3.71,1.08,3.15,3.58-.87,3.87-6.95,8.33-11.22,8.32Z"/>
    <path class="cls-4" d="M309.22,133.49c4.75,.4,9.72,4.47,9.38,7.53-.23,2.03-1.43,2.5-3.28,2.3-3.36-.36-9.24-5.34-9.32-8.05-.07-2.8,2.11-1.42,3.22-1.78Z"/>
    <path class="cls-4" d="M281.5,144.33c-2.67,.04-2.37-1.3-1.46-2.98,1.44-2.66,3.68-4.53,6.06-6.27,1.38-1.01,2.82-2.64,4.5-.68,1.33,1.55,.75,3.38-.24,4.91-2.07,3.18-5.31,4.43-8.86,5.01Z"/>
    <path class="cls-5" d="M286.28,321.32c-.83,2.09-1.25,4.85-4.07,4.93-2.35,.07-4.89-1.12-4.82-3.89,.06-2.45,1.87-4.23,4.63-4.14,1.99,.06,3.81,.66,4.25,3.1Z"/>
    <path class="cls-5" d="M249.09,325.09c-2.31,.06-3.77-.78-3.67-3.38,.11-2.71,1.69-3.77,4.19-3.82,2.92-.06,3.66,1.9,3.64,4.25-.02,2.73-2.12,2.87-4.16,2.95Z"/>
    <path class="cls-5" d="M281.65,244.01c-.46,2.45-1.46,4.16-3.75,4.14-2.09-.02-3.04-1.73-3.01-3.59,.03-2.2,1.43-3.6,3.66-3.7,2.33-.1,2.58,1.86,3.1,3.16Z"/>
    <path class="cls-5" d="M255.2,244.3c-.07,2.19-1.35,2.82-3,2.98-2.18,.22-3.12-1.16-3.46-2.99-.34-1.86,.75-2.97,2.49-3.12,2.3-.19,3.3,1.46,3.98,3.13Z"/>
    <path class="cls-5" d="M255.2,286.27c-.28,2.51-2.21,3.4-4.48,3.42-2.1,.03-3.14-1.39-3-3.48,.17-2.46,1.41-4.18,4-4.03,2.19,.12,3.5,1.54,3.48,4.09Z"/>
    <path class="cls-5" d="M282.2,285.16c-.66,2.09-1.72,3.87-3.94,3.62-2.42-.28-2.64-2.37-2.49-4.42,.13-1.77,.86-2.89,2.84-2.78,2.35,.13,3.27,1.6,3.59,3.58Z"/>
    <path class="cls-5" d="M270.46,342.25c-.09,2.15-1.19,3.33-3.28,3.38-2.1,.05-3.27-1.1-3.4-3.2-.14-2.22,1.01-3.23,3.17-3.22,2.07,.01,3.31,.95,3.51,3.04Z"/>
    <path class="cls-5" d="M290.58,354.99c-.06,2.5-.96,3.83-3.18,3.65-1.73-.15-3.02-1.09-2.78-3.01,.23-1.86,1.25-3.34,3.34-3.38,2.07-.04,2.36,1.59,2.61,2.74Z"/>
    <path class="cls-5" d="M248.28,354.99c-.06,2.5-.96,3.83-3.18,3.65-1.73-.15-3.02-1.09-2.78-3.01,.23-1.86,1.25-3.34,3.34-3.38,2.07-.04,2.36,1.59,2.61,2.74Z"/>
    <path class="cls-4" d="M157.6,300.85c-.03,1.35-.52,2.07-1.72,1.97-.93-.08-1.63-.59-1.5-1.63,.13-1.01,.67-1.8,1.81-1.83,1.12-.02,1.28,.86,1.41,1.48Z"/>
    <path class="cls-4" d="M172.88,297.32c-.03,1.35-.52,2.07-1.72,1.97-.93-.08-1.63-.59-1.5-1.63,.13-1.01,.67-1.8,1.81-1.83,1.12-.02,1.28,.86,1.41,1.48Z"/>
    <path class="cls-5" d="M288.85,372.5c-1.88-.19-3.35-.61-3.2-2.7,.15-2.1,1.69-2.94,3.48-3.18,1.66-.22,2.47,.93,2.51,2.45,.05,1.99-.95,3.23-2.8,3.44Z"/>
    <path class="cls-3" d="M174.67,137.18h-11.01l-54.32,38.07c1.16,1.79,2.32,3.58,3.49,5.37,14.98-7.92,27.38-14.15,36.43-18.8,3.66-1.88,9.98-5.15,18.8-5.88,2.96-.24,5.42-.13,7.05,0,5.1,13.41,10.2,26.82,15.3,40.23l16.09-6.49h30.53v-6.09l-62.34-46.41Zm18.64,44.99l1.76-6.25-3.53-9.4h13.64l3.98,10.58,4.7,2.35-20.56,2.72Z"/>
    <polygon class="cls-4" points="163 309.02 167.14 308.53 164.53 304.19 163 309.02"/>
  </g>
</svg>