<?xml version="1.0" encoding="UTF-8"?>
<svg id="Layer_1" data-name="Layer 1" xmlns="http://www.w3.org/2000/svg" viewBox="0 0 500 500">
  <defs>
    <style>
      .cls-1 {
        fill: #fff;
      }

      .cls-2 {
        fill: #831618;
      }
    </style>
  </defs>
  <g>
    <path d="M397.91,291.78c0-77.84,.02-155.7,0-233.54,0-10.31-3.95-18.92-11.49-25.92-7.18-6.67-15.82-9.34-25.47-9.32-20.07,.03-40.14,.03-60.21,.03-59.06,0-118.11-.02-177.16-.03-11.34,0-20.72,4.34-28.15,12.89-6.27,7.22-8.35,15.73-8.34,25.12,.08,59.52,.04,119.04,.04,178.55,0,49.66-.01,99.31,0,148.97,0,11.71-.06,23.43,.17,35.14,.17,8.21,3.52,15.25,9.04,21.3,8.08,8.86,18.27,11.9,30.02,11.88,72.97-.12,145.95-.03,218.92-.1,7.99-.01,16.05,.84,23.98-.63,17.04-3.17,28.65-17.63,28.66-35.57,.03-42.93-.01-85.85-.01-128.78Zm-2.43-51.84h-.05c0,59.4,0,118.79,0,178.2,0,5.01-.29,9.96-2.06,14.73-4.8,12.96-17.23,21.4-31.66,21.4-77.27,0-154.53-.02-231.79-.03-2.55,0-5.11,.06-7.66-.03-18.18-.65-31.86-14.28-32.59-32.44-.03-.93-.02-1.85-.02-2.78,0-119.38,.02-238.75-.03-358.13,0-9.73,2.62-18.27,9.62-25.26,6.96-6.93,15.36-10.01,25.14-10,56.96,.06,113.93,.03,170.89,.03,22.28,0,44.55-.09,66.82,.03,16.55,.09,29.64,10.91,32.75,26.74,.84,4.24,.62,8.55,.63,12.84,0,58.24,0,116.48,0,174.72Z"/>
    <path class="cls-1" d="M395.44,239.93h-.05c0,59.4,0,118.79,0,178.2,0,5.01-.29,9.96-2.06,14.73-4.8,12.96-17.23,21.4-31.66,21.4-77.27,0-154.53-.02-231.79-.03-2.55,0-5.11,.06-7.66-.03-18.18-.65-31.86-14.28-32.59-32.44-.03-.93-.02-1.85-.02-2.78,0-119.38,.02-238.75-.03-358.13,0-9.73,2.62-18.27,9.62-25.26,6.96-6.93,15.36-10.01,25.14-10,56.96,.06,113.93,.03,170.89,.03,22.28,0,44.55-.09,66.82,.03,16.55,.09,29.64,10.91,32.75,26.74,.84,4.24,.62,8.55,.63,12.84,0,58.24,0,116.48,0,174.72Z"/>
    <path class="cls-2" d="M124.17,37.98c-10.57,0-17.65,10.27-17.65,21.97,0,10.56,5.96,18.93,15.26,18.93,5.17,0,9.3-2.47,12.16-6.66h.24c-.95,7.32-3.42,12.75-6.84,16.46-2.94,3.33-6.76,5.33-10.81,5.99-2.38,.29-4.13,.48-5.64,.29v6.85c1.67,.1,3.89,0,6.44-.48,5.56-.76,11.05-3.61,15.02-8.28,5.09-5.9,8.9-15.41,8.9-29.01,0-15.79-6.52-26.06-17.09-26.06Zm9.38,28.06c-1.83,3.71-5.48,6.47-10.17,6.47-6.04,0-9.94-5.42-9.94-13.13,0-8.75,4.21-15.03,10.17-15.03,7.31,0,10.57,8.09,10.57,18.64,0,1.33-.24,2.28-.64,3.04Z"/>
  </g>
  <g>
    <path class="cls-2" d="M194.01,332.48c.47-7.48,.97-14.97,1.4-22.45,.15-2.64,.72-4.68,3.91-5.19,21.88-3.54,42.94-10.63,64.65-14.87,3.68-.72,7.41-1.24,11.18-.6,6.23,1.07,8.38,4.13,6.93,10.26-1.69,7.1-3.75,14.1-5.02,21.33-1.94,11.01-1.82,22-1.33,33.08,.18,4.18,1.97,5.18,5.8,5.55,16.66,1.6,32.42,5.99,46.01,16.34,7.79,5.93,10.94,13.64,8.78,21.45-1.95,7.05-9.39,12.91-18.39,13.48-8.17,.52-15.86,2.38-23.44,5.36-6.07,2.39-12.41,2.67-18.75,.66-13.96-4.43-27.73-9.33-40.63-16.38-2.71-1.48-5.46-2.43-7.73,0-4.7,5.04-10.03,3.83-15.64,2.41-8.35-2.12-8.39-2.04-9.42,6.37-.33,2.71-.75,5.56-3.96,6.04-3.06,.46-4.94-2.04-5.98-4.32-2.42-5.27-4.64-10.69-6.32-16.23-1.26-4.16-3.46-5.67-7.69-5.53-6.03,.21-11.96-1.02-17.8-2.37-3.66-.85-7.08-2.42-9.7-5.34-1.98-2.22-2.31-4.78-1.15-7.32,1.11-2.42,3.55-1.66,5.51-1.46,6.34,.67,12.66,1.43,18.98,2.26,4.09,.54,5.45-1.05,4.65-5.07-1.6-8.09-3.07-16.2-4.49-24.33-.44-2.53-1.44-5.81,1.6-7.02,2.8-1.13,5.42,.91,7.35,3.04,3.63,4.03,5.19,9.09,6.26,14.25,.95,4.61,2.06,9.14,3.98,13.45,.46,1.02,.75,2.32,1.54,2.96,5.24,4.22,10.31,.13,15.39-.68,3.01-.48,6.49-1.26,6.39-5.71-.05-2.06,.34-4.14,.17-6.18-.17-2.05,1.18-5.22-1.71-5.77-2.64-.51-5.65,.51-7.37,3.12-1.34,2.03-2.36,4.26-3.61,6.36-1.98,3.33-3.86,2.86-5.72-.19-3.03-4.96-4.02-10.49-4.27-16.14-.22-4.87-.05-9.75-.05-14.63-.1,0-.2-.01-.3-.02Zm69.98,72.57c4.7,.03,7.96-1.41,10.74-3.72,5.83-4.83,12.32-7.5,20.01-7.54,3.11-.01,6.34-.81,9.3-1.86,3.51-1.25,5.9-3.85,6.42-7.81,.54-4.14-2.24-6.06-5.2-7.83-6.25-3.75-13.32-4.79-20.32-6.01-6.58-1.15-6.74-.95-5.79,5.65,1.22,8.55,.3,10.51-7.3,14.21-2.67,1.3-5.54,2.24-8.38,3.14-3.3,1.05-6.34,1.23-7.45-3.19-.46-1.84-1.65-2.97-3.74-2.35-3.84,1.14-6.94,3.66-10.23,5.77-1.66,1.06-.52,2.3,.65,3.06,6.8,4.45,13.94,8.03,21.3,8.46Zm-33.11-47.42q-.11,8.77,7.7,6.77c2.17-.56,4.33-1.17,6.47-1.82,8.27-2.52,8.93-3.72,7.73-12.36-.4-2.83-1.48-4.05-4.42-3.22-3.42,.96-6.83,2.07-10.32,2.57-5.36,.77-8.34,3.07-7.15,8.06Zm20.84-28.42c-.62-.9,2.64-5.26-2.32-4.6-5.54,.74-11.1,1.98-16.4,3.77-4.98,1.68-3.65,6.52-3.32,10.2,.38,4.15,3.74,1.96,5.76,1.69,3.52-.47,6.94-1.58,10.45-2.17,4.61-.77,7.18-2.93,5.83-8.89Zm1.17-19.61c1.35-5.52-1.15-5.93-5.4-4.55-3.01,.98-6.12,1.96-9.25,2.24-5.78,.51-7.74,3.62-8.16,9.07-.3,3.86,1.05,4.17,4.08,3.5,4.02-.9,8.03-1.97,12.1-2.39,5.11-.53,7.53-2.81,6.63-7.86Zm-.47,66.54c.26-3.61-.52-5.25-3.4-4.49-5.04,1.33-10.05,2.76-15.06,4.2-2.93,.84-2.67,3.19-2.42,5.47,.21,1.97,.84,4.01,3.17,3.87,6.08-.37,11.14-3.9,16.64-6.04,.86-.34,.96-2.64,1.08-3.01Zm-47.9,18.9c.54-.15,1.09-.26,1.61-.44,2.81-.96,5.6-1.99,8.43-2.89,3.66-1.17,5.36-2.63,3.8-7.2-1.69-4.95-4.37-2.7-6.93-2.04-3.05,.79-6.02,1.91-9.02,2.91-2.01,.66-4.2,1.39-3.19,4.16,.92,2.52,1.52,5.61,5.29,5.5Zm13.45-57.63c-.17-2.28,.98-5.36-3.42-5.26-6.22,.13-8.29,1.5-8.1,6.38,.12,2.95-.6,6.55,4.59,6.32,5.02-.21,7.87-1.83,6.93-7.44Zm-11.41-18.78c-.29,2.75,.14,5.23,4.6,4.98,6.41-.36,7.92-1.67,8.08-7.72,.06-2.33-.07-3.91-3.15-3.84-7.36,.16-9.58,1.41-9.52,6.57Z"/>
    <path d="M290.12,145.6c4.77,1.83,5.8,5.64,7.42,8.89,1.51,3.01,2.95,6.09,3.99,9.29,2.82,8.61,6.57,15.67,16.37,18.85,6.15,2,12.54,6.23,11.99,14.56-.51,7.72-6.68,11.01-12.64,13.73-21.39,9.8-43,10.24-63.92-.93-14.4-7.69-22.73-19.63-21.64-36.99,.77-12.19,1.52-24.33,4.69-36.19,.67-2.51,.97-5.16,1.12-7.76,.09-1.61,0-3.66-2.31-3.84-1.98-.15-3.06,1.31-3.56,3.01-.53,1.79-1.08,3.65-1.13,5.5-.28,10.41-5,18.81-12.16,25.83-16.25,15.92-35.11,28.03-55.96,37.03-2.88,1.24-6.12,1.76-9.25,2.29-1.86,.31-4.27-.09-4.93-1.9-.87-2.4,1.92-2.97,3.34-3.62,9.95-4.51,19.24-10.1,28.19-16.32,9.78-6.8,18.15-15.03,25.43-24.46,2.89-3.74,2.38-6.16-1.3-8.69-2.3-1.58-4.44-3.46-6.42-5.43-2.7-2.67-2.46-5.3,.74-7.49,1.7-1.16,3.45-2.26,5.2-3.36,3.74-2.35,5.23-5.54,4.4-10.03-.98-5.33-2.67-10.57-2.35-16.1,.4-6.91,2.83-9.02,9.59-8.1,7.54,1.03,13.94,3.93,18.4,10.56,2.57,3.83,5.37,3.68,7.65-.34,1.94-3.4,4.09-4.92,8.15-3.89,4.6,1.17,8.88-.5,12.91-2.69,5.44-2.95,10.77-6.11,16.31-8.84,3.61-1.78,7.56-4.15,11.28-.07,2.75,3.01,3.85,11.15,1.5,14.38-4.14,5.71-8.13,12.17-17.07,9.15-.51-.17-1.12-.09-1.68-.1-17.62-.56-20.96,1.99-24.42,19.05-2.39,11.79-3.83,23.65-3.32,35.76,.25,6.01,2.44,10.55,7.14,13.87,9.48,6.69,19.39,12.39,31.71,10.22,7.19-1.26,8.25-2.71,8.52-10.02,.38-10.17-1.57-20.18-2.01-30.3-.06-1.28,0-2.57,0-4.5Z"/>
    <path class="cls-2" d="M295.19,279.18c-23.18-1.56-44.86,5.39-66.61,11.94-19.1,5.75-38.35,8.96-58.21,4.05-5.35-1.32-10.36-3.22-14.81-6.51-2.23-1.65-2.52-2.94,.25-4.48,5.93-3.31,12.01-4.86,18.89-3.52,12.31,2.39,24.55,5.54,37.32,3.75,4.76-.67,8.16-2.46,9.11-7.58,.58-3.11,.3-5.57-3.23-6.69-4.7-1.49-4.66-4.16-1.77-7.54,4.41-5.16,7.69-11.07,11.18-16.85,1.56-2.58,3.61-5.22,7.23-3.96,3.55,1.24,2.69,4.48,2.63,7.22-.16,7.63-2.64,14.72-5.02,21.84-.77,2.32-1.9,4.99,1.1,6.41,2.95,1.39,4.42-1.21,5.79-3.14,4.92-6.95,8.29-14.68,10.98-22.71,1.52-4.53,.66-8.59-3.36-11.53-4.26-3.12-3.89-6.05-.3-9.53,3.14-3.04,6.53-5.59,10.45-7.5,6.16-3,10.26-1.83,13.24,4.37,4.12,8.56,3.68,17.11-1.26,25.26-2.06,3.4-3.74,6.93-4.95,10.69-1.2,3.7-.27,5.23,4.02,4.31,14.51-3.13,29.14-5.35,44.07-4.77,3.57,.14,7.1,.45,10.57,1.39,4.14,1.13,5.34,3.1,2.4,6.75-4.33,5.37-9.32,9.06-16.77,8.39-4.28-.39-8.62-.07-12.93-.07Z"/>
  </g>
</svg>