  0
SECTION
  2
HEADER
  9
$ACADVER
  1
AC1032
  9
$ACADMAINTVER
 90
      228
  9
$DWGCODEPAGE
  3
ANSI_1252
  9
$REQUIREDVERSIONS
160
                 0
  9
$INSBASE
 10
0.0
 20
0.0
 30
0.0
  9
$EXTMIN
 10
1.000000000000000E+20
 20
1.000000000000000E+20
 30
1.000000000000000E+20
  9
$EXTMAX
 10
-1.000000000000000E+20
 20
-1.000000000000000E+20
 30
-1.000000000000000E+20
  9
$LIMMIN
 10
0.0
 20
0.0
  9
$LIMMAX
 10
12.0
 20
9.0
  9
$ORTHOMODE
 70
     0
  9
$REGENMODE
 70
     1
  9
$FILLMODE
 70
     1
  9
$QTEXTMODE
 70
     0
  9
$MIRRTEXT
 70
     0
  9
$LTSCALE
 40
1.0
  9
$ATTMODE
 70
     1
  9
$TEXTSIZE
 40
0.2
  9
$TRACEWID
 40
0.05
  9
$TEXTSTYLE
  7
Standard
  9
$CLAYER
  8
0
  9
$CELTYPE
  6
ByLayer
  9
$CECOLOR
 62
   256
  9
$CELTSCALE
 40
1.0
  9
$DISPSILH
 70
     0
  9
$DIMSCALE
 40
1.0
  9
$DIMASZ
 40
0.18
  9
$DIMEXO
 40
0.0625
  9
$DIMDLI
 40
0.38
  9
$DIMRND
 40
0.0
  9
$DIMDLE
 40
0.0
  9
$DIMEXE
 40
0.18
  9
$DIMTP
 40
0.0
  9
$DIMTM
 40
0.0
  9
$DIMTXT
 40
0.18
  9
$DIMCEN
 40
0.09
  9
$DIMTSZ
 40
0.0
  9
$DIMTOL
 70
     0
  9
$DIMLIM
 70
     0
  9
$DIMTIH
 70
     1
  9
$DIMTOH
 70
     1
  9
$DIMSE1
 70
     0
  9
$DIMSE2
 70
     0
  9
$DIMTAD
 70
     0
  9
$DIMZIN
 70
     0
  9
$DIMBLK
  1

  9
$DIMASO
 70
     1
  9
$DIMSHO
 70
     1
  9
$DIMPOST
  1

  9
$DIMAPOST
  1

  9
$DIMALT
 70
     0
  9
$DIMALTD
 70
     2
  9
$DIMALTF
 40
25.4
  9
$DIMLFAC
 40
1.0
  9
$DIMTOFL
 70
     0
  9
$DIMTVP
 40
0.0
  9
$DIMTIX
 70
     0
  9
$DIMSOXD
 70
     0
  9
$DIMSAH
 70
     0
  9
$DIMBLK1
  1

  9
$DIMBLK2
  1

  9
$DIMSTYLE
  2
Standard
  9
$DIMCLRD
 70
     0
  9
$DIMCLRE
 70
     0
  9
$DIMCLRT
 70
     0
  9
$DIMTFAC
 40
1.0
  9
$DIMGAP
 40
0.09
  9
$DIMJUST
 70
     0
  9
$DIMSD1
 70
     0
  9
$DIMSD2
 70
     0
  9
$DIMTOLJ
 70
     1
  9
$DIMTZIN
 70
     0
  9
$DIMALTZ
 70
     0
  9
$DIMALTTZ
 70
     0
  9
$DIMUPT
 70
     0
  9
$DIMDEC
 70
     4
  9
$DIMTDEC
 70
     4
  9
$DIMALTU
 70
     2
  9
$DIMALTTD
 70
     2
  9
$DIMTXSTY
  7
Standard
  9
$DIMAUNIT
 70
     0
  9
$DIMADEC
 70
     0
  9
$DIMALTRND
 40
0.0
  9
$DIMAZIN
 70
     0
  9
$DIMDSEP
 70
    46
  9
$DIMATFIT
 70
     3
  9
$DIMFRAC
 70
     0
  9
$DIMLDRBLK
  1

  9
$DIMLUNIT
 70
     2
  9
$DIMLWD
 70
    -2
  9
$DIMLWE
 70
    -2
  9
$DIMTMOVE
 70
     0
  9
$DIMFXL
 40
1.0
  9
$DIMFXLON
 70
     0
  9
$DIMJOGANG
 40
0.7853981633974483
  9
$DIMTFILL
 70
     0
  9
$DIMTFILLCLR
 70
     0
  9
$DIMARCSYM
 70
     0
  9
$DIMLTYPE
  6

  9
$DIMLTEX1
  6

  9
$DIMLTEX2
  6

  9
$DIMTXTDIRECTION
 70
     0
  9
$LUNITS
 70
     2
  9
$LUPREC
 70
     4
  9
$SKETCHINC
 40
0.1
  9
$FILLETRAD
 40
0.0
  9
$AUNITS
 70
     0
  9
$AUPREC
 70
     0
  9
$MENU
  1
.
  9
$ELEVATION
 40
0.0
  9
$PELEVATION
 40
0.0
  9
$THICKNESS
 40
0.0
  9
$LIMCHECK
 70
     0
  9
$CHAMFERA
 40
0.0
  9
$CHAMFERB
 40
0.0
  9
$CHAMFERC
 40
0.0
  9
$CHAMFERD
 40
0.0
  9
$SKPOLY
 70
     0
  9
$TDCREATE
 40
2460929.579756944
  9
$TDUCREATE
 40
2460929.371423611
  9
$TDUPDATE
 40
2460929.579756944
  9
$TDUUPDATE
 40
2460929.371423611
  9
$TDINDWG
 40
0.0000000000
  9
$TDUSRTIMER
 40
0.0000000000
  9
$USRTIMER
 70
     1
  9
$ANGBASE
 50
0.0
  9
$ANGDIR
 70
     0
  9
$PDMODE
 70
     0
  9
$PDSIZE
 40
0.0
  9
$PLINEWID
 40
0.0
  9
$SPLFRAME
 70
     0
  9
$SPLINETYPE
 70
     6
  9
$SPLINESEGS
 70
     8
  9
$HANDSEED
  5
97
  9
$SURFTAB1
 70
     6
  9
$SURFTAB2
 70
     6
  9
$SURFTYPE
 70
     6
  9
$SURFU
 70
     6
  9
$SURFV
 70
     6
  9
$UCSBASE
  2

  9
$UCSNAME
  2

  9
$UCSORG
 10
0.0
 20
0.0
 30
0.0
  9
$UCSXDIR
 10
1.0
 20
0.0
 30
0.0
  9
$UCSYDIR
 10
0.0
 20
1.0
 30
0.0
  9
$UCSORTHOREF
  2

  9
$UCSORTHOVIEW
 70
     0
  9
$UCSORGTOP
 10
0.0
 20
0.0
 30
0.0
  9
$UCSORGBOTTOM
 10
0.0
 20
0.0
 30
0.0
  9
$UCSORGLEFT
 10
0.0
 20
0.0
 30
0.0
  9
$UCSORGRIGHT
 10
0.0
 20
0.0
 30
0.0
  9
$UCSORGFRONT
 10
0.0
 20
0.0
 30
0.0
  9
$UCSORGBACK
 10
0.0
 20
0.0
 30
0.0
  9
$PUCSBASE
  2

  9
$PUCSNAME
  2

  9
$PUCSORG
 10
0.0
 20
0.0
 30
0.0
  9
$PUCSXDIR
 10
1.0
 20
0.0
 30
0.0
  9
$PUCSYDIR
 10
0.0
 20
1.0
 30
0.0
  9
$PUCSORTHOREF
  2

  9
$PUCSORTHOVIEW
 70
     0
  9
$PUCSORGTOP
 10
0.0
 20
0.0
 30
0.0
  9
$PUCSORGBOTTOM
 10
0.0
 20
0.0
 30
0.0
  9
$PUCSORGLEFT
 10
0.0
 20
0.0
 30
0.0
  9
$PUCSORGRIGHT
 10
0.0
 20
0.0
 30
0.0
  9
$PUCSORGFRONT
 10
0.0
 20
0.0
 30
0.0
  9
$PUCSORGBACK
 10
0.0
 20
0.0
 30
0.0
  9
$USERI1
 70
     0
  9
$USERI2
 70
     0
  9
$USERI3
 70
     0
  9
$USERI4
 70
     0
  9
$USERI5
 70
     0
  9
$USERR1
 40
0.0
  9
$USERR2
 40
0.0
  9
$USERR3
 40
0.0
  9
$USERR4
 40
0.0
  9
$USERR5
 40
0.0
  9
$WORLDVIEW
 70
     1
  9
$SHADEDGE
 70
     3
  9
$SHADEDIF
 70
    70
  9
$TILEMODE
 70
     1
  9
$MAXACTVP
 70
    64
  9
$PINSBASE
 10
0.0
 20
0.0
 30
0.0
  9
$PLIMCHECK
 70
     0
  9
$PEXTMIN
 10
1.000000000000000E+20
 20
1.000000000000000E+20
 30
1.000000000000000E+20
  9
$PEXTMAX
 10
-1.000000000000000E+20
 20
-1.000000000000000E+20
 30
-1.000000000000000E+20
  9
$PLIMMIN
 10
0.0
 20
0.0
  9
$PLIMMAX
 10
12.0
 20
9.0
  9
$UNITMODE
 70
     0
  9
$VISRETAIN
 70
     1
  9
$PLINEGEN
 70
     0
  9
$PSLTSCALE
 70
     1
  9
$TREEDEPTH
 70
  3020
  9
$CMLSTYLE
  2
Standard
  9
$CMLJUST
 70
     0
  9
$CMLSCALE
 40
1.0
  9
$PROXYGRAPHICS
 70
     1
  9
$MEASUREMENT
 70
     0
  9
$CELWEIGHT
370
    -1
  9
$ENDCAPS
280
     0
  9
$JOINSTYLE
280
     0
  9
$LWDISPLAY
290
     1
  9
$INSUNITS
 70
     0
  9
$HYPERLINKBASE
  1

  9
$STYLESHEET
  1

  9
$XEDIT
290
     1
  9
$CEPSNTYPE
380
     0
  9
$PSTYLEMODE
290
     1
  9
$FINGERPRINTGUID
  2
{D5D7EA93-FDCA-8E47-A27B-F8F329520E79}
  9
$VERSIONGUID
  2
{3B817055-E509-8141-8B1D-0D48220AE994}
  9
$EXTNAMES
290
     1
  9
$PSVPSCALE
 40
0.0
  9
$OLESTARTUP
290
     0
  9
$SORTENTS
280
   127
  9
$INDEXCTL
280
     0
  9
$HIDETEXT
280
     1
  9
$XCLIPFRAME
280
     2
  9
$HALOGAP
280
     0
  9
$OBSCOLOR
 70
   257
  9
$OBSLTYPE
280
     0
  9
$INTERSECTIONDISPLAY
280
     0
  9
$INTERSECTIONCOLOR
 70
   257
  9
$DIMASSOC
280
     2
  9
$PROJECTNAME
  1

  9
$CAMERADISPLAY
290
     0
  9
$LENSLENGTH
 40
50.0
  9
$CAMERAHEIGHT
 40
0.0
  9
$STEPSPERSEC
 40
2.0
  9
$STEPSIZE
 40
6.0
  9
$3DDWFPREC
 40
2.0
  9
$PSOLWIDTH
 40
0.25
  9
$PSOLHEIGHT
 40
4.0
  9
$LOFTANG1
 40
1.570796326794896
  9
$LOFTANG2
 40
1.570796326794896
  9
$LOFTMAG1
 40
0.0
  9
$LOFTMAG2
 40
0.0
  9
$LOFTPARAM
 70
     7
  9
$LOFTNORMALS
280
     1
  9
$LATITUDE
 40
37.795
  9
$LONGITUDE
 40
-122.394
  9
$NORTHDIRECTION
 40
0.0
  9
$TIMEZONE
 70
 -8000
  9
$LIGHTGLYPHDISPLAY
280
     1
  9
$TILEMODELIGHTSYNCH
280
     1
  9
$CMATERIAL
347
11
  9
$SOLIDHIST
280
     0
  9
$SHOWHIST
280
     1
  9
$DWFFRAME
280
     2
  9
$DGNFRAME
280
     0
  9
$REALWORLDSCALE
290
     1
  9
$INTERFERECOLOR
 62
     1
  9
$INTERFEREOBJVS
345
33
  9
$INTERFEREVPVS
346
30
  9
$CSHADOW
280
     0
  9
$SHADOWPLANELOCATION
 40
0.0
  0
ENDSEC
  0
SECTION
  2
CLASSES
  0
CLASS
  1
ACDBDICTIONARYWDFLT
  2
AcDbDictionaryWithDefault
  3
ObjectDBX Classes
 90
        0
 91
        1
280
     0
281
     0
  0
CLASS
  1
MATERIAL
  2
AcDbMaterial
  3
ObjectDBX Classes
 90
     1153
 91
        3
280
     0
281
     0
  0
CLASS
  1
VISUALSTYLE
  2
AcDbVisualStyle
  3
ObjectDBX Classes
 90
     4095
 91
       24
280
     0
281
     0
  0
CLASS
  1
SCALE
  2
AcDbScale
  3
ObjectDBX Classes
 90
     1153
 91
       17
280
     0
281
     0
  0
CLASS
  1
TABLESTYLE
  2
AcDbTableStyle
  3
ObjectDBX Classes
 90
     4095
 91
        1
280
     0
281
     0
  0
CLASS
  1
MLEADERSTYLE
  2
AcDbMLeaderStyle
  3
ACDB_MLEADERSTYLE_CLASS
 90
     4095
 91
        1
280
     0
281
     0
  0
CLASS
  1
ACDBSECTIONVIEWSTYLE
  2
AcDbSectionViewStyle
  3
ObjectDBX Classes
 90
     1025
 91
        1
280
     0
281
     0
  0
CLASS
  1
ACDBDETAILVIEWSTYLE
  2
AcDbDetailViewStyle
  3
ObjectDBX Classes
 90
     1025
 91
        1
280
     0
281
     0
  0
CLASS
  1
DICTIONARYVAR
  2
AcDbDictionaryVar
  3
ObjectDBX Classes
 90
        0
 91
        5
280
     0
281
     0
  0
CLASS
  1
CELLSTYLEMAP
  2
AcDbCellStyleMap
  3
ObjectDBX Classes
 90
     1152
 91
        1
280
     0
281
     0
  0
ENDSEC
  0
SECTION
  2
TABLES
  0
TABLE
  2
VPORT
  5
8
330
0
100
AcDbSymbolTable
 70
     1
  0
VPORT
  5
57
330
8
100
AcDbSymbolTableRecord
100
AcDbViewportTableRecord
  2
*Active
 70
     0
 10
0.0
 20
0.0
 11
1.0
 21
1.0
 12
0.0
 22
0.0
 13
0.0
 23
0.0
 14
1.0
 24
1.0
 15
0.0
 25
0.0
 16
0.0
 26
0.0
 36
1.0
 17
2070.329143804109
 27
-1549.708560332395
 37
0.0
 40
3099.36839297975
 41
1.304893925962813
 42
50.0
 43
0.0
 44
0.0
 50
0.0
 51
0.0
 71
     0
 72
   100
 73
     1
 74
     1
 75
     0
 76
     0
 77
     0
 78
     0
281
     0
 65
     1
110
0.0
120
0.0
130
0.0
111
1.0
121
0.0
131
0.0
112
0.0
122
1.0
132
0.0
 79
     0
146
0.0
 60
     3
 61
     5
292
     1
282
     1
141
0.0
142
0.0
 63
   250
421
  3355443
  0
ENDTAB
  0
TABLE
  2
LTYPE
  5
5
330
0
100
AcDbSymbolTable
 70
     1
  0
LTYPE
  5
5B
330
5
100
AcDbSymbolTableRecord
100
AcDbLinetypeTableRecord
  2
ByBlock
 70
     0
  3

 72
    65
 73
     0
 40
0.0
  0
LTYPE
  5
5C
330
5
100
AcDbSymbolTableRecord
100
AcDbLinetypeTableRecord
  2
ByLayer
 70
     0
  3

 72
    65
 73
     0
 40
0.0
  0
LTYPE
  5
5D
330
5
100
AcDbSymbolTableRecord
100
AcDbLinetypeTableRecord
  2
Continuous
 70
     0
  3
Solid line
 72
    65
 73
     0
 40
0.0
  0
ENDTAB
  0
TABLE
  2
LAYER
  5
2
330
0
100
AcDbSymbolTable
 70
     2
  0
LAYER
  5
54
330
2
100
AcDbSymbolTableRecord
100
AcDbLayerTableRecord
  2
0
 70
     0
 62
     7
  6
Continuous
370
    -3
390
F
347
21
348
0
  0
LAYER
  5
78
330
2
100
AcDbSymbolTableRecord
100
AcDbLayerTableRecord
  2
Layer 1
 70
     0
 62
     7
  6
Continuous
370
     0
390
F
347
21
348
0
  0
ENDTAB
  0
TABLE
  2
STYLE
  5
3
330
0
100
AcDbSymbolTable
 70
     2
  0
STYLE
  5
55
330
3
100
AcDbSymbolTableRecord
100
AcDbTextStyleTableRecord
  2
Standard
 70
     0
 40
0.0
 41
1.0
 50
0.0
 71
     0
 42
0.2
  3
txt
  4

  0
STYLE
  5
5A
330
3
100
AcDbSymbolTableRecord
100
AcDbTextStyleTableRecord
  2
Annotative
 70
     0
 40
0.0
 41
1.0
 50
0.0
 71
     0
 42
0.2
  3
txt
  4

1001
AcadAnnotative
1000
AnnotativeData
1002
{
1070
     1
1070
     1
1002
}
  0
ENDTAB
  0
TABLE
  2
VIEW
  5
6
330
0
100
AcDbSymbolTable
 70
     0
  0
ENDTAB
  0
TABLE
  2
UCS
  5
7
330
0
100
AcDbSymbolTable
 70
     0
  0
ENDTAB
  0
TABLE
  2
APPID
  5
9
330
0
100
AcDbSymbolTable
 70
     2
  0
APPID
  5
56
330
9
100
AcDbSymbolTableRecord
100
AcDbRegAppTableRecord
  2
ACAD
 70
     0
  0
APPID
  5
5E
330
9
100
AcDbSymbolTableRecord
100
AcDbRegAppTableRecord
  2
AcadAnnotative
 70
     0
  0
ENDTAB
  0
TABLE
  2
DIMSTYLE
  5
A
330
0
100
AcDbSymbolTable
 70
     2
100
AcDbDimStyleTable
 71
     0
  0
DIMSTYLE
105
58
330
A
100
AcDbSymbolTableRecord
100
AcDbDimStyleTableRecord
  2
Standard
 70
     0
340
55
  0
DIMSTYLE
105
59
330
A
100
AcDbSymbolTableRecord
100
AcDbDimStyleTableRecord
  2
Annotative
 70
     0
340
55
1001
AcadAnnotative
1000
AnnotativeData
1002
{
1070
     1
1070
     1
1002
}
  0
ENDTAB
  0
TABLE
  2
BLOCK_RECORD
  5
1
330
0
100
AcDbSymbolTable
 70
     1
  0
BLOCK_RECORD
  5
70
330
1
100
AcDbSymbolTableRecord
100
AcDbBlockTableRecord
  2
*Model_Space
340
73
 70
     0
280
     1
281
     0
  0
BLOCK_RECORD
  5
6C
330
1
100
AcDbSymbolTableRecord
100
AcDbBlockTableRecord
  2
*Paper_Space
340
6F
 70
     0
280
     1
281
     0
  0
BLOCK_RECORD
  5
74
330
1
100
AcDbSymbolTableRecord
100
AcDbBlockTableRecord
  2
*Paper_Space0
340
77
 70
     0
280
     1
281
     0
  0
ENDTAB
  0
ENDSEC
  0
SECTION
  2
BLOCKS
  0
BLOCK
  5
71
330
70
100
AcDbEntity
  8
0
100
AcDbBlockBegin
  2
*Model_Space
 70
     0
 10
0.0
 20
0.0
 30
0.0
  3
*Model_Space
  1

  0
ENDBLK
  5
72
330
70
100
AcDbEntity
  8
0
100
AcDbBlockEnd
  0
BLOCK
  5
6D
330
6C
100
AcDbEntity
 67
     1
  8
0
100
AcDbBlockBegin
  2
*Paper_Space
 70
     0
 10
0.0
 20
0.0
 30
0.0
  3
*Paper_Space
  1

  0
ENDBLK
  5
6E
330
6C
100
AcDbEntity
 67
     1
  8
0
100
AcDbBlockEnd
  0
BLOCK
  5
75
330
74
100
AcDbEntity
 67
     1
  8
0
100
AcDbBlockBegin
  2
*Paper_Space0
 70
     0
 10
0.0
 20
0.0
 30
0.0
  3
*Paper_Space0
  1

  0
ENDBLK
  5
76
330
74
100
AcDbEntity
 67
     1
  8
0
100
AcDbBlockEnd
  0
ENDSEC
  0
SECTION
  2
ENTITIES
  0
SPLINE
  5
79
330
70
100
AcDbEntity
  8
Layer 1
100
AcDbSpline
210
0.0
220
0.0
230
1.0
 70
     9
 71
     3
 72
    53
 73
    49
 74
     0
 42
0.0000000001
 43
0.0000000001
 40
0.0
 40
0.0
 40
0.0
 40
0.0
 40
1.0
 40
1.0
 40
1.0
 40
2.0
 40
2.0
 40
2.0
 40
3.0
 40
3.0
 40
3.0
 40
4.0
 40
4.0
 40
4.0
 40
5.0
 40
5.0
 40
5.0
 40
6.0
 40
6.0
 40
6.0
 40
7.0
 40
7.0
 40
7.0
 40
8.0
 40
8.0
 40
8.0
 40
9.0
 40
9.0
 40
9.0
 40
10.0
 40
10.0
 40
10.0
 40
11.0
 40
11.0
 40
11.0
 40
12.0
 40
12.0
 40
12.0
 40
13.0
 40
13.0
 40
13.0
 40
14.0
 40
14.0
 40
14.0
 40
15.0
 40
15.0
 40
15.0
 40
16.0
 40
16.0
 40
16.0
 40
16.0
 10
1435.481395937673
 20
-1799.933435935762
 30
0.0
 10
1435.481395937673
 20
-1799.933435935762
 30
0.0
 10
1435.432702372185
 20
-1799.933435935762
 30
0.0
 10
1435.432702372185
 20
-1799.933435935762
 30
0.0
 10
1435.432702372185
 20
-1859.329515687704
 30
0.0
 10
1435.425734008542
 20
-1918.725595439648
 30
0.0
 10
1435.439670735835
 20
-1978.128601065217
 30
0.0
 10
1435.439670735835
 20
-1983.140936538171
 30
0.0
 10
1435.147254402815
 20
-1988.090641718349
 30
0.0
 10
1433.379074617525
 20
-1992.859296913784
 30
0.0
 10
1428.575492623811
 20
-2005.814759633375
 30
0.0
 10
1416.149200641139
 20
-2014.259141672313
 30
0.0
 10
1401.717804509197
 20
-2014.259141672313
 30
0.0
 10
1324.451398675719
 20
-2014.252173308667
 30
0.0
 10
1247.184992842242
 20
-2014.238279071398
 30
0.0
 10
1169.925555372407
 20
-2014.224342344105
 30
0.0
 10
1167.370630335419
 20
-2014.224342344105
 30
0.0
 10
1164.815790278473
 20
-2014.286972636879
 30
0.0
 10
1162.267833605125
 20
-2014.19651137954
 30
0.0
 10
1144.084228589654
 20
-2013.549048420724
 30
0.0
 10
1130.404735891181
 20
-1999.918334267777
 30
0.0
 10
1129.68079089234
 20
-1981.755591853222
 30
0.0
 10
1129.645949074107
 20
-1980.829691778696
 30
0.0
 10
1129.6598858014
 20
-1979.903834194197
 30
0.0
 10
1129.6598858014
 20
-1978.970965756029
 30
0.0
 10
1129.6598858014
 20
-1859.594058566139
 30
0.0
 10
1129.68079089234
 20
-1740.217108886232
 30
0.0
 10
1129.625043983167
 20
-1620.840201696346
 30
0.0
 10
1129.625043983167
 20
-1611.107947083463
 30
0.0
 10
1132.242599312936
 20
-1602.566092933513
 30
0.0
 10
1139.245974737798
 20
-1595.576654235943
 30
0.0
 10
1146.207539980784
 20
-1588.642962447544
 30
0.0
 10
1154.610111837846
 20
-1585.566004997376
 30
0.0
 10
1164.384091652562
 20
-1585.572973361022
 30
0.0
 10
1221.343666059485
 20
-1585.628550310104
 30
0.0
 10
1278.310208830051
 20
-1585.600761835563
 30
0.0
 10
1335.269613276887
 20
-1585.600761835563
 30
0.0
 10
1357.546622054436
 20
-1585.600761835563
 30
0.0
 10
1379.823630831986
 20
-1585.510258088203
 30
0.0
 10
1402.093756225935
 20
-1585.635518673751
 30
0.0
 10
1418.641325425269
 20
-1585.726107401157
 30
0.0
 10
1431.736070437742
 20
-1596.54440698237
 30
0.0
 10
1434.847869706144
 20
-1612.374999546511
 30
0.0
 10
1435.68330852333
 20
-1616.614484005031
 30
0.0
 10
1435.467544190422
 20
-1620.92373708006
 30
0.0
 10
1435.474427574023
 20
-1625.212085064153
 30
0.0
 10
1435.481395937673
 20
-1683.452478701327
 30
0.0
 10
1435.481395937673
 20
-1741.693042298588
 30
0.0
 10
1435.481395937673
 20
-1799.933435935762
 30
0.0
  0
SPLINE
  5
7A
330
70
100
AcDbEntity
  8
Layer 1
100
AcDbSpline
210
0.0
220
0.0
230
1.0
 70
     9
 71
     3
 72
    53
 73
    49
 74
     0
 42
0.0000000001
 43
0.0000000001
 40
0.0
 40
0.0
 40
0.0
 40
0.0
 40
1.0
 40
1.0
 40
1.0
 40
2.0
 40
2.0
 40
2.0
 40
3.0
 40
3.0
 40
3.0
 40
4.0
 40
4.0
 40
4.0
 40
5.0
 40
5.0
 40
5.0
 40
6.0
 40
6.0
 40
6.0
 40
7.0
 40
7.0
 40
7.0
 40
8.0
 40
8.0
 40
8.0
 40
9.0
 40
9.0
 40
9.0
 40
10.0
 40
10.0
 40
10.0
 40
11.0
 40
11.0
 40
11.0
 40
12.0
 40
12.0
 40
12.0
 40
13.0
 40
13.0
 40
13.0
 40
14.0
 40
14.0
 40
14.0
 40
15.0
 40
15.0
 40
15.0
 40
16.0
 40
16.0
 40
16.0
 40
16.0
 10
1437.910975409067
 20
-1851.776191905055
 30
0.0
 10
1437.910975409067
 20
-1773.932006749224
 30
0.0
 10
1437.931880500007
 20
-1696.08085322975
 30
0.0
 10
1437.917943772714
 20
-1618.236583093874
 30
0.0
 10
1437.917943772714
 20
-1607.926464178594
 30
0.0
 10
1433.963737323483
 20
-1599.315096352269
 30
0.0
 10
1426.424392758145
 20
-1592.318689291052
 30
0.0
 10
1419.240094818604
 20
-1585.649455401044
 30
0.0
 10
1410.600768557648
 20
-1582.976238142151
 30
0.0
 10
1400.952049328476
 20
-1582.997143233091
 30
0.0
 10
1380.881802345724
 20
-1583.031900071279
 30
0.0
 10
1360.811640343017
 20
-1583.031900071279
 30
0.0
 10
1340.741478340311
 20
-1583.031900071279
 30
0.0
 10
1281.686465996848
 20
-1583.024931707632
 30
0.0
 10
1222.631538633428
 20
-1583.011079960384
 30
0.0
 10
1163.576611270011
 20
-1583.004111596738
 30
0.0
 10
1152.236194295572
 20
-1583.004111596738
 30
0.0
 10
1142.858986308485
 20
-1587.34115314631
 30
0.0
 10
1135.430965601404
 20
-1595.896859043507
 30
0.0
 10
1129.158673499114
 20
-1603.116083781324
 30
0.0
 10
1127.077087309823
 20
-1611.630064476687
 30
0.0
 10
1127.091024037116
 20
-1621.021209191071
 30
0.0
 10
1127.174559420829
 20
-1680.542592018582
 30
0.0
 10
1127.13274923895
 20
-1740.057006482451
 30
0.0
 10
1127.13274923895
 20
-1799.57142094632
 30
0.0
 10
1127.13274923895
 20
-1849.228277721731
 30
0.0
 10
1127.11881251166
 20
-1898.885134497146
 30
0.0
 10
1127.139717602597
 20
-1948.541948782536
 30
0.0
 10
1127.139717602597
 20
-1960.251306620035
 30
0.0
 10
1127.077087309823
 20
-1971.967632821184
 30
0.0
 10
1127.313756733674
 20
-1983.676990658687
 30
0.0
 10
1127.480827501102
 20
-1991.891629147403
 30
0.0
 10
1130.836349537043
 20
-1998.929761410456
 30
0.0
 10
1136.349854822259
 20
-2004.979363306209
 30
0.0
 10
1144.425338488156
 20
-2013.834496390098
 30
0.0
 10
1154.623963585094
 20
-2016.883665365726
 30
0.0
 10
1166.36820573085
 20
-2016.862760274786
 30
0.0
 10
1239.339295216592
 20
-2016.744425562864
 30
0.0
 10
1312.317353065977
 20
-2016.834929310224
 30
0.0
 10
1385.28852753176
 20
-2016.765288163779
 30
0.0
 10
1393.280390833901
 20
-2016.75139392651
 30
0.0
 10
1401.341937772504
 20
-2017.600684490941
 30
0.0
 10
1409.264117438179
 20
-2016.131804422277
 30
0.0
 10
1426.306015556198
 20
-2012.957332371078
 30
0.0
 10
1437.910975409067
 20
-1998.505116128241
 30
0.0
 10
1437.924912136361
 20
-1980.558223026639
 30
0.0
 10
1437.959668974548
 20
-1937.633187943984
 30
0.0
 10
1437.910975409067
 20
-1894.708195351353
 30
0.0
 10
1437.910975409067
 20
-1851.776191905055
 30
0.0
  0
HATCH
  5
7B
330
70
100
AcDbEntity
  8
Layer 1
 62
    18
420
        0
440
 33554687
100
AcDbHatch
 10
0.0
 20
0.0
 30
0.0
210
0.0
220
0.0
230
1.0
  2
SOLID
 70
     1
 71
     1
 91
        2
 92
        1
 93
        1
 72
     4
 94
        3
 73
     0
 74
     0
 95
       53
 96
       49
 40
0.0
 40
0.0
 40
0.0
 40
0.0
 40
1.0
 40
1.0
 40
1.0
 40
2.0
 40
2.0
 40
2.0
 40
3.0
 40
3.0
 40
3.0
 40
4.0
 40
4.0
 40
4.0
 40
5.0
 40
5.0
 40
5.0
 40
6.0
 40
6.0
 40
6.0
 40
7.0
 40
7.0
 40
7.0
 40
8.0
 40
8.0
 40
8.0
 40
9.0
 40
9.0
 40
9.0
 40
10.0
 40
10.0
 40
10.0
 40
11.0
 40
11.0
 40
11.0
 40
12.0
 40
12.0
 40
12.0
 40
13.0
 40
13.0
 40
13.0
 40
14.0
 40
14.0
 40
14.0
 40
15.0
 40
15.0
 40
15.0
 40
16.0
 40
16.0
 40
16.0
 40
16.0
 10
1435.481395937673
 20
-1799.933435935762
 10
1435.481395937673
 20
-1799.933435935762
 10
1435.432702372185
 20
-1799.933435935762
 10
1435.432702372185
 20
-1799.933435935762
 10
1435.432702372185
 20
-1859.329515687704
 10
1435.425734008542
 20
-1918.725595439648
 10
1435.439670735835
 20
-1978.128601065217
 10
1435.439670735835
 20
-1983.140936538171
 10
1435.147254402815
 20
-1988.090641718349
 10
1433.379074617525
 20
-1992.859296913784
 10
1428.575492623811
 20
-2005.814759633375
 10
1416.149200641139
 20
-2014.259141672313
 10
1401.717804509197
 20
-2014.259141672313
 10
1324.451398675719
 20
-2014.252173308667
 10
1247.184992842242
 20
-2014.238279071398
 10
1169.925555372407
 20
-2014.224342344105
 10
1167.370630335419
 20
-2014.224342344105
 10
1164.815790278473
 20
-2014.286972636879
 10
1162.267833605125
 20
-2014.19651137954
 10
1144.084228589654
 20
-2013.549048420724
 10
1130.404735891181
 20
-1999.918334267777
 10
1129.68079089234
 20
-1981.755591853222
 10
1129.645949074107
 20
-1980.829691778696
 10
1129.6598858014
 20
-1979.903834194197
 10
1129.6598858014
 20
-1978.970965756029
 10
1129.6598858014
 20
-1859.594058566139
 10
1129.68079089234
 20
-1740.217108886232
 10
1129.625043983167
 20
-1620.840201696346
 10
1129.625043983167
 20
-1611.107947083463
 10
1132.242599312936
 20
-1602.566092933513
 10
1139.245974737798
 20
-1595.576654235943
 10
1146.207539980784
 20
-1588.642962447544
 10
1154.610111837846
 20
-1585.566004997376
 10
1164.384091652562
 20
-1585.572973361022
 10
1221.343666059485
 20
-1585.628550310104
 10
1278.310208830051
 20
-1585.600761835563
 10
1335.269613276887
 20
-1585.600761835563
 10
1357.546622054436
 20
-1585.600761835563
 10
1379.823630831986
 20
-1585.510258088203
 10
1402.093756225935
 20
-1585.635518673751
 10
1418.641325425269
 20
-1585.726107401157
 10
1431.736070437742
 20
-1596.54440698237
 10
1434.847869706144
 20
-1612.374999546511
 10
1435.68330852333
 20
-1616.614484005031
 10
1435.467544190422
 20
-1620.92373708006
 10
1435.474427574023
 20
-1625.212085064153
 10
1435.481395937673
 20
-1683.452478701327
 10
1435.481395937673
 20
-1741.693042298588
 10
1435.481395937673
 20
-1799.933435935762
 97
        0
 97
        1
330
79
 92
        1
 93
        1
 72
     4
 94
        3
 73
     0
 74
     0
 95
       53
 96
       49
 40
0.0
 40
0.0
 40
0.0
 40
0.0
 40
1.0
 40
1.0
 40
1.0
 40
2.0
 40
2.0
 40
2.0
 40
3.0
 40
3.0
 40
3.0
 40
4.0
 40
4.0
 40
4.0
 40
5.0
 40
5.0
 40
5.0
 40
6.0
 40
6.0
 40
6.0
 40
7.0
 40
7.0
 40
7.0
 40
8.0
 40
8.0
 40
8.0
 40
9.0
 40
9.0
 40
9.0
 40
10.0
 40
10.0
 40
10.0
 40
11.0
 40
11.0
 40
11.0
 40
12.0
 40
12.0
 40
12.0
 40
13.0
 40
13.0
 40
13.0
 40
14.0
 40
14.0
 40
14.0
 40
15.0
 40
15.0
 40
15.0
 40
16.0
 40
16.0
 40
16.0
 40
16.0
 10
1437.910975409067
 20
-1851.776191905055
 10
1437.910975409067
 20
-1773.932006749224
 10
1437.931880500007
 20
-1696.08085322975
 10
1437.917943772714
 20
-1618.236583093874
 10
1437.917943772714
 20
-1607.926464178594
 10
1433.963737323483
 20
-1599.315096352269
 10
1426.424392758145
 20
-1592.318689291052
 10
1419.240094818604
 20
-1585.649455401044
 10
1410.600768557648
 20
-1582.976238142151
 10
1400.952049328476
 20
-1582.997143233091
 10
1380.881802345724
 20
-1583.031900071279
 10
1360.811640343017
 20
-1583.031900071279
 10
1340.741478340311
 20
-1583.031900071279
 10
1281.686465996848
 20
-1583.024931707632
 10
1222.631538633428
 20
-1583.011079960384
 10
1163.576611270011
 20
-1583.004111596738
 10
1152.236194295572
 20
-1583.004111596738
 10
1142.858986308485
 20
-1587.34115314631
 10
1135.430965601404
 20
-1595.896859043507
 10
1129.158673499114
 20
-1603.116083781324
 10
1127.077087309823
 20
-1611.630064476687
 10
1127.091024037116
 20
-1621.021209191071
 10
1127.174559420829
 20
-1680.542592018582
 10
1127.13274923895
 20
-1740.057006482451
 10
1127.13274923895
 20
-1799.57142094632
 10
1127.13274923895
 20
-1849.228277721731
 10
1127.11881251166
 20
-1898.885134497146
 10
1127.139717602597
 20
-1948.541948782536
 10
1127.139717602597
 20
-1960.251306620035
 10
1127.077087309823
 20
-1971.967632821184
 10
1127.313756733674
 20
-1983.676990658687
 10
1127.480827501102
 20
-1991.891629147403
 10
1130.836349537043
 20
-1998.929761410456
 10
1136.349854822259
 20
-2004.979363306209
 10
1144.425338488156
 20
-2013.834496390098
 10
1154.623963585094
 20
-2016.883665365726
 10
1166.36820573085
 20
-2016.862760274786
 10
1239.339295216592
 20
-2016.744425562864
 10
1312.317353065977
 20
-2016.834929310224
 10
1385.28852753176
 20
-2016.765288163779
 10
1393.280390833901
 20
-2016.75139392651
 10
1401.341937772504
 20
-2017.600684490941
 10
1409.264117438179
 20
-2016.131804422277
 10
1426.306015556198
 20
-2012.957332371078
 10
1437.910975409067
 20
-1998.505116128241
 10
1437.924912136361
 20
-1980.558223026639
 10
1437.959668974548
 20
-1937.633187943984
 10
1437.910975409067
 20
-1894.708195351353
 10
1437.910975409067
 20
-1851.776191905055
 97
        0
 97
        1
330
7A
 75
     2
 76
     1
 98
        1
 10
0.0
 20
0.0
450
        0
451
        0
460
0.0
461
0.0
452
        0
462
0.0
453
        0
470

  0
SPLINE
  5
7C
330
70
100
AcDbEntity
  8
Layer 1
100
AcDbSpline
210
0.0
220
0.0
230
1.0
 70
     9
 71
     3
 72
    53
 73
    49
 74
     0
 42
0.0000000001
 43
0.0000000001
 40
0.0
 40
0.0
 40
0.0
 40
0.0
 40
1.0
 40
1.0
 40
1.0
 40
2.0
 40
2.0
 40
2.0
 40
3.0
 40
3.0
 40
3.0
 40
4.0
 40
4.0
 40
4.0
 40
5.0
 40
5.0
 40
5.0
 40
6.0
 40
6.0
 40
6.0
 40
7.0
 40
7.0
 40
7.0
 40
8.0
 40
8.0
 40
8.0
 40
9.0
 40
9.0
 40
9.0
 40
10.0
 40
10.0
 40
10.0
 40
11.0
 40
11.0
 40
11.0
 40
12.0
 40
12.0
 40
12.0
 40
13.0
 40
13.0
 40
13.0
 40
14.0
 40
14.0
 40
14.0
 40
15.0
 40
15.0
 40
15.0
 40
16.0
 40
16.0
 40
16.0
 40
16.0
 10
1435.435772341785
 20
-1799.933435935762
 30
0.0
 10
1435.435772341785
 20
-1799.933435935762
 30
0.0
 10
1435.387078776297
 20
-1799.933435935762
 30
0.0
 10
1435.387078776297
 20
-1799.933435935762
 30
0.0
 10
1435.387078776297
 20
-1859.329515687704
 30
0.0
 10
1435.380110412654
 20
-1918.725595439648
 30
0.0
 10
1435.394047139947
 20
-1978.128601065217
 30
0.0
 10
1435.394047139947
 20
-1983.140936538171
 30
0.0
 10
1435.101630806926
 20
-1988.090641718349
 30
0.0
 10
1433.333451021637
 20
-1992.859296913784
 30
0.0
 10
1428.529869027923
 20
-2005.814759633375
 30
0.0
 10
1416.103577045251
 20
-2014.259141672313
 30
0.0
 10
1401.672180913308
 20
-2014.259141672313
 30
0.0
 10
1324.405775079831
 20
-2014.252173308667
 30
0.0
 10
1247.139369246353
 20
-2014.238279071398
 30
0.0
 10
1169.879931776518
 20
-2014.224342344105
 30
0.0
 10
1167.325006739531
 20
-2014.224342344105
 30
0.0
 10
1164.770166682585
 20
-2014.286972636879
 30
0.0
 10
1162.222210009236
 20
-2014.19651137954
 30
0.0
 10
1144.038604993766
 20
-2013.549048420724
 30
0.0
 10
1130.359112295293
 20
-1999.918334267777
 30
0.0
 10
1129.635167296452
 20
-1981.755591853222
 30
0.0
 10
1129.600325478219
 20
-1980.829691778696
 30
0.0
 10
1129.614262205512
 20
-1979.903834194197
 30
0.0
 10
1129.614262205512
 20
-1978.970965756029
 30
0.0
 10
1129.614262205512
 20
-1859.594058566139
 30
0.0
 10
1129.635167296452
 20
-1740.217108886232
 30
0.0
 10
1129.579420387279
 20
-1620.840201696346
 30
0.0
 10
1129.579420387279
 20
-1611.107947083463
 30
0.0
 10
1132.196975717048
 20
-1602.566092933513
 30
0.0
 10
1139.200351141909
 20
-1595.576654235943
 30
0.0
 10
1146.161916384895
 20
-1588.642962447544
 30
0.0
 10
1154.564488241958
 20
-1585.566004997376
 30
0.0
 10
1164.338468056674
 20
-1585.572973361022
 30
0.0
 10
1221.298042463597
 20
-1585.628550310104
 30
0.0
 10
1278.264585234163
 20
-1585.600761835563
 30
0.0
 10
1335.223989680999
 20
-1585.600761835563
 30
0.0
 10
1357.500998458548
 20
-1585.600761835563
 30
0.0
 10
1379.778007236098
 20
-1585.510258088203
 30
0.0
 10
1402.048132630047
 20
-1585.635518673751
 30
0.0
 10
1418.595701829381
 20
-1585.726107401157
 30
0.0
 10
1431.690446841854
 20
-1596.54440698237
 30
0.0
 10
1434.802246110255
 20
-1612.374999546511
 30
0.0
 10
1435.637684927442
 20
-1616.614484005031
 30
0.0
 10
1435.421920594533
 20
-1620.92373708006
 30
0.0
 10
1435.428803978135
 20
-1625.212085064153
 30
0.0
 10
1435.435772341785
 20
-1683.452478701327
 30
0.0
 10
1435.435772341785
 20
-1741.693042298588
 30
0.0
 10
1435.435772341785
 20
-1799.933435935762
 30
0.0
  0
SPLINE
  5
7D
330
70
100
AcDbEntity
  8
Layer 1
100
AcDbSpline
210
0.0
220
0.0
230
1.0
 70
     9
 71
     3
 72
    20
 73
    16
 74
     0
 42
0.0000000001
 43
0.0000000001
 40
0.0
 40
0.0
 40
0.0
 40
0.0
 40
1.0
 40
1.0
 40
1.0
 40
2.0
 40
2.0
 40
2.0
 40
3.0
 40
3.0
 40
3.0
 40
4.0
 40
4.0
 40
4.0
 40
5.0
 40
5.0
 40
5.0
 40
5.0
 10
1173.545821530584
 20
-1626.03710958002
 30
0.0
 10
1171.717694216917
 20
-1629.746892500907
 30
0.0
 10
1168.061439589579
 20
-1632.505414137236
 30
0.0
 10
1163.371816718936
 20
-1632.505414137236
 30
0.0
 10
1157.331284880525
 20
-1632.505414137236
 30
0.0
 10
1153.436421080241
 20
-1627.083633081913
 30
0.0
 10
1153.436421080241
 20
-1619.378734217734
 30
0.0
 10
1153.436421080241
 20
-1610.627765481267
 30
0.0
 10
1157.649279234592
 20
-1604.349985358729
 30
0.0
 10
1163.610425891889
 20
-1604.349985358729
 30
0.0
 10
1170.922935146558
 20
-1604.349985358729
 30
0.0
 10
1174.181810238711
 20
-1612.435025833043
 30
0.0
 10
1174.181810238711
 20
-1622.993254921284
 30
0.0
 10
1174.181810238711
 20
-1624.325111445583
 30
0.0
 10
1173.943201065762
 20
-1625.27637273014
 30
0.0
 10
1173.545821530584
 20
-1626.03710958002
 30
0.0
  0
SPLINE
  5
7E
330
70
100
AcDbEntity
  8
Layer 1
100
AcDbSpline
210
0.0
220
0.0
230
1.0
 70
     9
 71
     3
 72
    41
 73
    37
 74
     0
 42
0.0000000001
 43
0.0000000001
 40
0.0
 40
0.0
 40
0.0
 40
0.0
 40
1.0
 40
1.0
 40
1.0
 40
2.0
 40
2.0
 40
2.0
 40
3.0
 40
3.0
 40
3.0
 40
4.0
 40
4.0
 40
4.0
 40
5.0
 40
5.0
 40
5.0
 40
6.0
 40
6.0
 40
6.0
 40
7.0
 40
7.0
 40
7.0
 40
8.0
 40
8.0
 40
8.0
 40
9.0
 40
9.0
 40
9.0
 40
10.0
 40
10.0
 40
10.0
 40
11.0
 40
11.0
 40
11.0
 40
12.0
 40
12.0
 40
12.0
 40
12.0
 10
1164.167029418902
 20
-1597.976943018848
 30
0.0
 10
1153.595191442469
 20
-1597.976943018848
 30
0.0
 10
1146.521291360754
 20
-1608.249839084683
 30
0.0
 10
1146.521291360754
 20
-1619.949400262547
 30
0.0
 10
1146.521291360754
 20
-1630.508082980394
 30
0.0
 10
1152.482438018047
 20
-1638.878456477114
 30
0.0
 10
1161.782298578218
 20
-1638.878456477114
 30
0.0
 10
1166.948686165157
 20
-1638.878456477114
 30
0.0
 10
1171.082159138394
 20
-1636.405267863191
 30
0.0
 10
1173.943201065762
 20
-1632.22008111483
 30
0.0
 10
1173.943201065762
 20
-1632.22008111483
 30
0.0
 10
1174.181810238711
 20
-1632.22008111483
 30
0.0
 10
1174.181810238711
 20
-1632.22008111483
 30
0.0
 10
1173.227827176517
 20
-1639.544384739265
 30
0.0
 10
1170.764164784326
 20
-1644.966165794589
 30
0.0
 10
1167.346065700334
 20
-1648.675948715476
 30
0.0
 10
1164.405184962244
 20
-1652.005136396618
 30
0.0
 10
1160.590159972682
 20
-1654.002467553461
 30
0.0
 10
1156.53652581017
 20
-1654.668395815608
 30
0.0
 10
1154.151794969486
 20
-1654.953728838014
 30
0.0
 10
1152.403052836933
 20
-1655.144253272692
 30
0.0
 10
1150.892919877329
 20
-1654.953728838014
 30
0.0
 10
1150.892919877329
 20
-1654.953728838014
 30
0.0
 10
1150.892919877329
 20
-1661.802628634976
 30
0.0
 10
1150.892919877329
 20
-1661.802628634976
 30
0.0
 10
1152.562276828768
 20
-1661.897890852311
 30
0.0
 10
1154.787783677617
 20
-1661.802628634976
 30
0.0
 10
1157.331284880525
 20
-1661.326771177895
 30
0.0
 10
1162.895052002644
 20
-1660.566034328012
 30
0.0
 10
1168.379433943646
 20
-1657.712250474347
 30
0.0
 10
1172.353682925044
 20
-1653.05165989851
 30
0.0
 10
1177.440685330868
 20
-1647.154021386106
 30
0.0
 10
1181.256163950038
 20
-1637.641862170154
 30
0.0
 10
1181.256163950038
 20
-1624.039778423177
 30
0.0
 10
1181.256163950038
 20
-1608.249839084683
 30
0.0
 10
1174.738413765728
 20
-1597.976943018848
 30
0.0
 10
1164.167029418902
 20
-1597.976943018848
 30
0.0
  0
HATCH
  5
7F
330
70
100
AcDbEntity
  8
Layer 1
 62
   246
420
  8590872
440
 33554687
100
AcDbHatch
 10
0.0
 20
0.0
 30
0.0
210
0.0
220
0.0
230
1.0
  2
SOLID
 70
     1
 71
     1
 91
        2
 92
        1
 93
        1
 72
     4
 94
        3
 73
     0
 74
     0
 95
       20
 96
       16
 40
0.0
 40
0.0
 40
0.0
 40
0.0
 40
1.0
 40
1.0
 40
1.0
 40
2.0
 40
2.0
 40
2.0
 40
3.0
 40
3.0
 40
3.0
 40
4.0
 40
4.0
 40
4.0
 40
5.0
 40
5.0
 40
5.0
 40
5.0
 10
1173.545821530584
 20
-1626.03710958002
 10
1171.717694216917
 20
-1629.746892500907
 10
1168.061439589579
 20
-1632.505414137236
 10
1163.371816718936
 20
-1632.505414137236
 10
1157.331284880525
 20
-1632.505414137236
 10
1153.436421080241
 20
-1627.083633081913
 10
1153.436421080241
 20
-1619.378734217734
 10
1153.436421080241
 20
-1610.627765481267
 10
1157.649279234592
 20
-1604.349985358729
 10
1163.610425891889
 20
-1604.349985358729
 10
1170.922935146558
 20
-1604.349985358729
 10
1174.181810238711
 20
-1612.435025833043
 10
1174.181810238711
 20
-1622.993254921284
 10
1174.181810238711
 20
-1624.325111445583
 10
1173.943201065762
 20
-1625.27637273014
 10
1173.545821530584
 20
-1626.03710958002
 97
        0
 97
        1
330
7D
 92
        1
 93
        1
 72
     4
 94
        3
 73
     0
 74
     0
 95
       41
 96
       37
 40
0.0
 40
0.0
 40
0.0
 40
0.0
 40
1.0
 40
1.0
 40
1.0
 40
2.0
 40
2.0
 40
2.0
 40
3.0
 40
3.0
 40
3.0
 40
4.0
 40
4.0
 40
4.0
 40
5.0
 40
5.0
 40
5.0
 40
6.0
 40
6.0
 40
6.0
 40
7.0
 40
7.0
 40
7.0
 40
8.0
 40
8.0
 40
8.0
 40
9.0
 40
9.0
 40
9.0
 40
10.0
 40
10.0
 40
10.0
 40
11.0
 40
11.0
 40
11.0
 40
12.0
 40
12.0
 40
12.0
 40
12.0
 10
1164.167029418902
 20
-1597.976943018848
 10
1153.595191442469
 20
-1597.976943018848
 10
1146.521291360754
 20
-1608.249839084683
 10
1146.521291360754
 20
-1619.949400262547
 10
1146.521291360754
 20
-1630.508082980394
 10
1152.482438018047
 20
-1638.878456477114
 10
1161.782298578218
 20
-1638.878456477114
 10
1166.948686165157
 20
-1638.878456477114
 10
1171.082159138394
 20
-1636.405267863191
 10
1173.943201065762
 20
-1632.22008111483
 10
1173.943201065762
 20
-1632.22008111483
 10
1174.181810238711
 20
-1632.22008111483
 10
1174.181810238711
 20
-1632.22008111483
 10
1173.227827176517
 20
-1639.544384739265
 10
1170.764164784326
 20
-1644.966165794589
 10
1167.346065700334
 20
-1648.675948715476
 10
1164.405184962244
 20
-1652.005136396618
 10
1160.590159972682
 20
-1654.002467553461
 10
1156.53652581017
 20
-1654.668395815608
 10
1154.151794969486
 20
-1654.953728838014
 10
1152.403052836933
 20
-1655.144253272692
 10
1150.892919877329
 20
-1654.953728838014
 10
1150.892919877329
 20
-1654.953728838014
 10
1150.892919877329
 20
-1661.802628634976
 10
1150.892919877329
 20
-1661.802628634976
 10
1152.562276828768
 20
-1661.897890852311
 10
1154.787783677617
 20
-1661.802628634976
 10
1157.331284880525
 20
-1661.326771177895
 10
1162.895052002644
 20
-1660.566034328012
 10
1168.379433943646
 20
-1657.712250474347
 10
1172.353682925044
 20
-1653.05165989851
 10
1177.440685330868
 20
-1647.154021386106
 10
1181.256163950038
 20
-1637.641862170154
 10
1181.256163950038
 20
-1624.039778423177
 10
1181.256163950038
 20
-1608.249839084683
 10
1174.738413765728
 20
-1597.976943018848
 10
1164.167029418902
 20
-1597.976943018848
 97
        0
 97
        1
330
7E
 75
     2
 76
     1
 98
        1
 10
0.0
 20
0.0
450
        0
451
        0
460
0.0
461
0.0
452
        0
462
0.0
453
        0
470

  0
SPLINE
  5
80
330
70
100
AcDbEntity
  8
Layer 1
100
AcDbSpline
210
0.0
220
0.0
230
1.0
 70
     9
 71
     3
 72
    17
 73
    13
 74
     0
 42
0.0000000001
 43
0.0000000001
 40
0.0
 40
0.0
 40
0.0
 40
0.0
 40
1.0
 40
1.0
 40
1.0
 40
2.0
 40
2.0
 40
2.0
 40
3.0
 40
3.0
 40
3.0
 40
4.0
 40
4.0
 40
4.0
 40
4.0
 10
1246.558601554909
 20
-1878.6363609979
 30
0.0
 10
1246.265264007066
 20
-1881.388621071057
 30
0.0
 10
1246.700743302714
 20
-1883.869448561438
 30
0.0
 10
1251.157561855307
 20
-1883.617687496304
 30
0.0
 10
1257.562685312306
 20
-1883.255869014547
 30
0.0
 10
1259.080793883226
 20
-1881.945849021549
 30
0.0
 10
1259.232573815661
 20
-1875.900868960745
 30
0.0
 10
1259.291021416564
 20
-1873.573066979244
 30
0.0
 10
1259.159016083962
 20
-1871.994878672771
 30
0.0
 10
1256.078928880713
 20
-1872.062002357872
 30
0.0
 10
1248.714333593194
 20
-1872.222552866517
 30
0.0
 10
1246.500239855832
 20
-1873.471788729008
 30
0.0
 10
1246.558601554909
 20
-1878.6363609979
 30
0.0
  0
SPLINE
  5
81
330
70
100
AcDbEntity
  8
Layer 1
100
AcDbSpline
210
0.0
220
0.0
230
1.0
 70
     9
 71
     3
 72
    17
 73
    13
 74
     0
 42
0.0000000001
 43
0.0000000001
 40
0.0
 40
0.0
 40
0.0
 40
0.0
 40
1.0
 40
1.0
 40
1.0
 40
2.0
 40
2.0
 40
2.0
 40
3.0
 40
3.0
 40
3.0
 40
4.0
 40
4.0
 40
4.0
 40
4.0
 10
1257.966234900057
 20
-1897.4118882606
 30
0.0
 10
1257.800667724903
 20
-1895.13490579805
 30
0.0
 10
1258.950601079108
 20
-1892.05585800687
 30
0.0
 10
1254.546689459781
 20
-1892.151432376007
 30
0.0
 10
1248.328204895308
 20
-1892.286349780434
 30
0.0
 10
1246.251837552008
 20
-1893.648718344843
 30
0.0
 10
1246.445889771927
 20
-1898.528234001705
 30
0.0
 10
1246.563283204304
 20
-1901.480078372233
 30
0.0
 10
1245.846458255411
 20
-1905.075000975934
 30
0.0
 10
1251.036921333991
 20
-1904.853185286572
 30
0.0
 10
1256.057754081153
 20
-1904.638602530771
 30
0.0
 10
1258.904952849953
 20
-1903.021620960682
 30
0.0
 10
1257.966234900057
 20
-1897.4118882606
 30
0.0
  0
SPLINE
  5
82
330
70
100
AcDbEntity
  8
Layer 1
100
AcDbSpline
210
0.0
220
0.0
230
1.0
 70
     9
 71
     3
 72
    26
 73
    22
 74
     0
 42
0.0000000001
 43
0.0000000001
 40
0.0
 40
0.0
 40
0.0
 40
0.0
 40
1.0
 40
1.0
 40
1.0
 40
2.0
 40
2.0
 40
2.0
 40
3.0
 40
3.0
 40
3.0
 40
4.0
 40
4.0
 40
4.0
 40
5.0
 40
5.0
 40
5.0
 40
6.0
 40
6.0
 40
6.0
 40
7.0
 40
7.0
 40
7.0
 40
7.0
 10
1244.511939062271
 20
-1955.039435989476
 30
0.0
 10
1245.053249404816
 20
-1954.894364989477
 30
0.0
 10
1245.600366710649
 20
-1954.780665335524
 30
0.0
 10
1246.125175312849
 20
-1954.601645934768
 30
0.0
 10
1248.938116434321
 20
-1953.641916398776
 30
0.0
 10
1251.728834753987
 20
-1952.613774650328
 30
0.0
 10
1254.558947650035
 20
-1951.708403788425
 30
0.0
 10
1258.221947449081
 20
-1950.536565469158
 30
0.0
 10
1259.914007213156
 20
-1949.079567455674
 30
0.0
 10
1258.356229180015
 20
-1944.508284722893
 30
0.0
 10
1256.668000637281
 20
-1939.554223463356
 30
0.0
 10
1253.986308912357
 20
-1941.803786063758
 30
0.0
 10
1251.424690756714
 20
-1942.467669718653
 30
0.0
 10
1248.372324071999
 20
-1943.258722433473
 30
0.0
 10
1245.405592915413
 20
-1944.38183723829
 30
0.0
 10
1242.405591982475
 20
-1945.372731955949
 30
0.0
 10
1240.394175008139
 20
-1946.037062300331
 30
0.0
 10
1238.208815430829
 20
-1946.767193441725
 30
0.0
 10
1239.217242710721
 20
-1949.535946665046
 30
0.0
 10
1240.13592835531
 20
-1952.058299097041
 30
0.0
 10
1240.735926823861
 20
-1955.141693520503
 30
0.0
 10
1244.511939062271
 20
-1955.039435989476
 30
0.0
  0
SPLINE
  5
83
330
70
100
AcDbEntity
  8
Layer 1
100
AcDbSpline
210
0.0
220
0.0
230
1.0
 70
     9
 71
     3
 72
    23
 73
    19
 74
     0
 42
0.0000000001
 43
0.0000000001
 40
0.0
 40
0.0
 40
0.0
 40
0.0
 40
1.0
 40
1.0
 40
1.0
 40
2.0
 40
2.0
 40
2.0
 40
3.0
 40
3.0
 40
3.0
 40
4.0
 40
4.0
 40
4.0
 40
5.0
 40
5.0
 40
5.0
 40
6.0
 40
6.0
 40
6.0
 40
6.0
 10
1292.411740921645
 20
-1936.138595146245
 30
0.0
 10
1292.673604041254
 20
-1932.526801424353
 30
0.0
 10
1291.8924643969
 20
-1930.883636978373
 30
0.0
 10
1289.006901873599
 20
-1931.647441634688
 30
0.0
 10
1283.968948892961
 20
-1932.98101590777
 30
0.0
 10
1278.954928160423
 20
-1934.407123625422
 30
0.0
 10
1273.945460224549
 20
-1935.845223237675
 30
0.0
 10
1271.017591053038
 20
-1936.685721042262
 30
0.0
 10
1271.279110565352
 20
-1939.039327931625
 30
0.0
 10
1271.522564924125
 20
-1941.313836421652
 30
0.0
 10
1271.733788918616
 20
-1943.287241838965
 30
0.0
 10
1272.363655451296
 20
-1945.323905359315
 30
0.0
 10
1274.695666622159
 20
-1945.181651939134
 30
0.0
 10
1280.777154958072
 20
-1944.810659142598
 30
0.0
 10
1285.834410078514
 20
-1941.285282655428
 30
0.0
 10
1291.333707393944
 20
-1939.146155439675
 30
0.0
 10
1292.195972720674
 20
-1938.81076035891
 30
0.0
 10
1292.292595092061
 20
-1936.50701088807
 30
0.0
 10
1292.411740921645
 20
-1936.138595146245
 30
0.0
  0
SPLINE
  5
84
330
70
100
AcDbEntity
  8
Layer 1
100
AcDbSpline
210
0.0
220
0.0
230
1.0
 70
     9
 71
     3
 72
    23
 73
    19
 74
     0
 42
0.0000000001
 43
0.0000000001
 40
0.0
 40
0.0
 40
0.0
 40
0.0
 40
1.0
 40
1.0
 40
1.0
 40
2.0
 40
2.0
 40
2.0
 40
3.0
 40
3.0
 40
3.0
 40
4.0
 40
4.0
 40
4.0
 40
5.0
 40
5.0
 40
5.0
 40
6.0
 40
6.0
 40
6.0
 40
6.0
 10
1292.885334856502
 20
-1869.601756944472
 30
0.0
 10
1294.239078877806
 20
-1864.078338396923
 30
0.0
 10
1291.731776445336
 20
-1863.667366891599
 30
0.0
 10
1287.486748839274
 20
-1865.048599496511
 30
0.0
 10
1284.472917712708
 20
-1866.02923753641
 30
0.0
 10
1281.364345464695
 20
-1867.007899834361
 30
0.0
 10
1278.235904124845
 20
-1867.284555248027
 30
0.0
 10
1272.460793233626
 20
-1867.795207229663
 30
0.0
 10
1270.500676828447
 20
-1870.902104392111
 30
0.0
 10
1270.075892309858
 20
-1876.356251708961
 30
0.0
 10
1269.775622484838
 20
-1880.211680183458
 30
0.0
 10
1271.123817248324
 20
-1880.527953518247
 30
0.0
 10
1274.154253197426
 20
-1879.852490297506
 30
0.0
 10
1278.170343852936
 20
-1878.957307391903
 30
0.0
 10
1282.183797322457
 20
-1877.880201603899
 30
0.0
 10
1286.258095053759
 20
-1877.459231126288
 30
0.0
 10
1291.369356650812
 20
-1876.931106713693
 30
0.0
 10
1293.789829519806
 20
-1874.651478474969
 30
0.0
 10
1292.885334856502
 20
-1869.601756944472
 30
0.0
  0
SPLINE
  5
85
330
70
100
AcDbEntity
  8
Layer 1
100
AcDbSpline
210
0.0
220
0.0
230
1.0
 70
     9
 71
     3
 72
    23
 73
    19
 74
     0
 42
0.0000000001
 43
0.0000000001
 40
0.0
 40
0.0
 40
0.0
 40
0.0
 40
1.0
 40
1.0
 40
1.0
 40
2.0
 40
2.0
 40
2.0
 40
3.0
 40
3.0
 40
3.0
 40
4.0
 40
4.0
 40
4.0
 40
5.0
 40
5.0
 40
5.0
 40
6.0
 40
6.0
 40
6.0
 40
6.0
 10
1291.711245909453
 20
-1889.208246909316
 30
0.0
 10
1291.086980175685
 20
-1888.303511720909
 30
0.0
 10
1294.350442002152
 20
-1883.946605579555
 30
0.0
 10
1289.38997246656
 20
-1884.611021825758
 30
0.0
 10
1283.847054205016
 20
-1885.353471288681
 30
0.0
 10
1278.286319905219
 20
-1886.591419651531
 30
0.0
 10
1272.992138964611
 20
-1888.379844081521
 30
0.0
 10
1268.014583556269
 20
-1890.061269199812
 30
0.0
 10
1269.338485283992
 20
-1894.900170474391
 30
0.0
 10
1269.674799514268
 20
-1898.579672013786
 30
0.0
 10
1270.054528526285
 20
-1902.734159097586
 30
0.0
 10
1273.412147341798
 20
-1900.536051689627
 30
0.0
 10
1275.437643625053
 20
-1900.267952097614
 30
0.0
 10
1278.953261665043
 20
-1899.802639098567
 30
0.0
 10
1282.378253280945
 20
-1898.689935594788
 30
0.0
 10
1285.883597462809
 20
-1898.100477280017
 30
0.0
 10
1290.491817979815
 20
-1897.325574108067
 30
0.0
 10
1293.062550318962
 20
-1895.165796093881
 30
0.0
 10
1291.711245909453
 20
-1889.208246909316
 30
0.0
  0
SPLINE
  5
86
330
70
100
AcDbEntity
  8
Layer 1
100
AcDbSpline
210
0.0
220
0.0
230
1.0
 70
     9
 71
     3
 72
    23
 73
    19
 74
     0
 42
0.0000000001
 43
0.0000000001
 40
0.0
 40
0.0
 40
0.0
 40
0.0
 40
1.0
 40
1.0
 40
1.0
 40
2.0
 40
2.0
 40
2.0
 40
3.0
 40
3.0
 40
3.0
 40
4.0
 40
4.0
 40
4.0
 40
5.0
 40
5.0
 40
5.0
 40
6.0
 40
6.0
 40
6.0
 40
6.0
 10
1270.875629699061
 20
-1917.630239735865
 30
0.0
 10
1270.769472225234
 20
-1926.402070110353
 30
0.0
 10
1270.772298395237
 20
-1926.412996822337
 30
0.0
 10
1278.573068783178
 20
-1924.395850196351
 30
0.0
 10
1280.742107013968
 20
-1923.834980008533
 30
0.0
 10
1282.901206403749
 20
-1923.228461591557
 30
0.0
 10
1285.043889955003
 20
-1922.574198940924
 30
0.0
 10
1293.309225996127
 20
-1920.050420538655
 30
0.0
 10
1293.97747346367
 20
-1918.85499357858
 30
0.0
 10
1292.769625099874
 20
-1910.218785003473
 30
0.0
 10
1292.373480249334
 20
-1907.386309807271
 30
0.0
 10
1291.29087674461
 20
-1906.172723201647
 30
0.0
 10
1288.351024268682
 20
-1906.995130082143
 30
0.0
 10
1284.935224147925
 20
-1907.950650428769
 30
0.0
 10
1281.522585214279
 20
-1909.06448783662
 30
0.0
 10
1278.030504274007
 20
-1909.566188848222
 30
0.0
 10
1272.666725675772
 20
-1910.336762568249
 30
0.0
 10
1269.691498828812
 20
-1912.636320030093
 30
0.0
 10
1270.875629699061
 20
-1917.630239735865
 30
0.0
  0
SPLINE
  5
87
330
70
100
AcDbEntity
  8
Layer 1
100
AcDbSpline
210
0.0
220
0.0
230
1.0
 70
     9
 71
     3
 72
    47
 73
    43
 74
     0
 42
0.0000000001
 43
0.0000000001
 40
0.0
 40
0.0
 40
0.0
 40
0.0
 40
1.0
 40
1.0
 40
1.0
 40
2.0
 40
2.0
 40
2.0
 40
3.0
 40
3.0
 40
3.0
 40
4.0
 40
4.0
 40
4.0
 40
5.0
 40
5.0
 40
5.0
 40
6.0
 40
6.0
 40
6.0
 40
7.0
 40
7.0
 40
7.0
 40
8.0
 40
8.0
 40
8.0
 40
9.0
 40
9.0
 40
9.0
 40
10.0
 40
10.0
 40
10.0
 40
11.0
 40
11.0
 40
11.0
 40
12.0
 40
12.0
 40
12.0
 40
13.0
 40
13.0
 40
13.0
 40
14.0
 40
14.0
 40
14.0
 40
14.0
 10
1303.987698890487
 20
-1965.050881222194
 30
0.0
 10
1308.68666609413
 20
-1965.078816495288
 30
0.0
 10
1311.942826265578
 20
-1963.638002385401
 30
0.0
 10
1314.72573610946
 20
-1961.33500885061
 30
0.0
 10
1320.55896817465
 20
-1956.507669961511
 30
0.0
 10
1327.042322422563
 20
-1953.833855433828
 30
0.0
 10
1334.733336050263
 20
-1953.799700868696
 30
0.0
 10
1337.845713749069
 20
-1953.785922216158
 30
0.0
 10
1341.073113989914
 20
-1952.991536510579
 30
0.0
 10
1344.031675883059
 20
-1951.941988027645
 30
0.0
 10
1347.543582964263
 20
-1950.69610233628
 30
0.0
 10
1349.934471245145
 20
-1948.094307897654
 30
0.0
 10
1350.450552222046
 20
-1944.136845236872
 30
0.0
 10
1350.990840332888
 20
-1939.993731554541
 30
0.0
 10
1348.206745043837
 20
-1938.081385153566
 30
0.0
 10
1345.248475216893
 20
-1936.308680757329
 30
0.0
 10
1338.996746646615
 20
-1932.562433500856
 30
0.0
 10
1331.924964905811
 20
-1931.52343376188
 30
0.0
 10
1324.927539783672
 20
-1930.300294873455
 30
0.0
 10
1318.343353975004
 20
-1929.149416599188
 30
0.0
 10
1318.190380007218
 20
-1929.346509743669
 30
0.0
 10
1319.134664395297
 20
-1935.954662161172
 30
0.0
 10
1320.356738101109
 20
-1944.506944654442
 30
0.0
 10
1319.432984248917
 20
-1946.464166168158
 30
0.0
 10
1311.832631406036
 20
-1950.167840480766
 30
0.0
 10
1309.162407574586
 20
-1951.469081307374
 30
0.0
 10
1306.296379126015
 20
-1952.408056962742
 30
0.0
 10
1303.455141943788
 20
-1953.308514240323
 30
0.0
 10
1300.155257744038
 20
-1954.354351764474
 30
0.0
 10
1297.111824848998
 20
-1954.539968425293
 30
0.0
 10
1296.00992779465
 20
-1950.123446418236
 30
0.0
 10
1295.551538482599
 20
-1948.286143850519
 30
0.0
 10
1294.359100905989
 20
-1947.15079662599
 30
0.0
 10
1292.270638585905
 20
-1947.768568181882
 30
0.0
 10
1288.429435453428
 20
-1948.904774424647
 30
0.0
 10
1285.335045596523
 20
-1951.428329482174
 30
0.0
 10
1282.042463051792
 20
-1953.534229872488
 30
0.0
 10
1280.385073263795
 20
-1954.594258377923
 30
0.0
 10
1281.526828764374
 20
-1955.832893955359
 30
0.0
 10
1282.689406867037
 20
-1956.594705689365
 30
0.0
 10
1289.484584735273
 20
-1961.047546987515
 30
0.0
 10
1296.625603346041
 20
-1964.619722788282
 30
0.0
 10
1303.987698890487
 20
-1965.050881222194
 30
0.0
  0
SPLINE
  5
88
330
70
100
AcDbEntity
  8
Layer 1
100
AcDbSpline
210
0.0
220
0.0
230
1.0
 70
     9
 71
     3
 72
   134
 73
   130
 74
     0
 42
0.0000000001
 43
0.0000000001
 40
0.0
 40
0.0
 40
0.0
 40
0.0
 40
1.0
 40
1.0
 40
1.0
 40
2.0
 40
2.0
 40
2.0
 40
3.0
 40
3.0
 40
3.0
 40
4.0
 40
4.0
 40
4.0
 40
5.0
 40
5.0
 40
5.0
 40
6.0
 40
6.0
 40
6.0
 40
7.0
 40
7.0
 40
7.0
 40
8.0
 40
8.0
 40
8.0
 40
9.0
 40
9.0
 40
9.0
 40
10.0
 40
10.0
 40
10.0
 40
11.0
 40
11.0
 40
11.0
 40
12.0
 40
12.0
 40
12.0
 40
13.0
 40
13.0
 40
13.0
 40
14.0
 40
14.0
 40
14.0
 40
15.0
 40
15.0
 40
15.0
 40
16.0
 40
16.0
 40
16.0
 40
17.0
 40
17.0
 40
17.0
 40
18.0
 40
18.0
 40
18.0
 40
19.0
 40
19.0
 40
19.0
 40
20.0
 40
20.0
 40
20.0
 40
21.0
 40
21.0
 40
21.0
 40
22.0
 40
22.0
 40
22.0
 40
23.0
 40
23.0
 40
23.0
 40
24.0
 40
24.0
 40
24.0
 40
25.0
 40
25.0
 40
25.0
 40
26.0
 40
26.0
 40
26.0
 40
27.0
 40
27.0
 40
27.0
 40
28.0
 40
28.0
 40
28.0
 40
29.0
 40
29.0
 40
29.0
 40
30.0
 40
30.0
 40
30.0
 40
31.0
 40
31.0
 40
31.0
 40
32.0
 40
32.0
 40
32.0
 40
33.0
 40
33.0
 40
33.0
 40
34.0
 40
34.0
 40
34.0
 40
35.0
 40
35.0
 40
35.0
 40
36.0
 40
36.0
 40
36.0
 40
37.0
 40
37.0
 40
37.0
 40
38.0
 40
38.0
 40
38.0
 40
39.0
 40
39.0
 40
39.0
 40
40.0
 40
40.0
 40
40.0
 40
41.0
 40
41.0
 40
41.0
 40
42.0
 40
42.0
 40
42.0
 40
43.0
 40
43.0
 40
43.0
 40
43.0
 10
1234.009942874683
 20
-1892.477481338343
 30
0.0
 10
1234.481449395225
 20
-1884.993731631059
 30
0.0
 10
1234.977145869343
 20
-1877.511390713685
 30
0.0
 10
1235.411413949274
 20
-1870.025476280445
 30
0.0
 10
1235.564722934174
 20
-1867.382586409321
 30
0.0
 10
1236.133513270146
 20
-1865.348414041864
 30
0.0
 10
1239.317902467824
 20
-1864.833192083201
 30
0.0
 10
1261.192965106675
 20
-1861.293916680943
 30
0.0
 10
1282.255155967468
 20
-1854.202429061764
 30
0.0
 10
1303.970741870475
 20
-1849.960081592604
 30
0.0
 10
1307.64880025923
 20
-1849.241564377784
 30
0.0
 10
1311.379550826692
 20
-1848.715192362395
 30
0.0
 10
1315.152857157656
 20
-1849.364661691261
 30
0.0
 10
1321.38319617381
 20
-1850.437042878953
 30
0.0
 10
1323.53629102611
 20
-1853.494512131999
 30
0.0
 10
1322.078932224966
 20
-1859.629465763033
 30
0.0
 10
1320.391150371714
 20
-1866.734388427447
 30
0.0
 10
1318.33390477439
 20
-1873.729013150134
 30
0.0
 10
1317.05750675522
 20
-1880.957720342614
 30
0.0
 10
1315.113411040176
 20
-1891.967808637497
 30
0.0
 10
1315.241576561253
 20
-1902.957950528895
 30
0.0
 10
1315.725822322263
 20
-1914.037206972285
 30
0.0
 10
1315.90834651743
 20
-1918.21375364443
 30
0.0
 10
1317.69594628991
 20
-1919.214716055836
 30
0.0
 10
1321.52653195697
 20
-1919.583028715473
 30
0.0
 10
1338.189613110386
 20
-1921.185269532603
 30
0.0
 10
1353.944780707916
 20
-1925.577687487907
 30
0.0
 10
1367.539276912288
 20
-1935.926074034216
 30
0.0
 10
1375.326449041524
 20
-1941.853780925199
 30
0.0
 10
1378.482533588267
 20
-1949.570204312369
 30
0.0
 10
1376.317756087937
 20
-1957.379161144118
 30
0.0
 10
1374.363197530758
 20
-1964.429811036271
 30
0.0
 10
1366.930954557014
 20
-1970.286700463728
 30
0.0
 10
1357.929955297044
 20
-1970.861486747
 30
0.0
 10
1349.759626673025
 20
-1971.383185703174
 30
0.0
 10
1342.070193638883
 20
-1973.239867722341
 30
0.0
 10
1334.493704322649
 20
-1976.225127902317
 30
0.0
 10
1328.423658109663
 20
-1978.61680647998
 30
0.0
 10
1322.082626003386
 20
-1978.899423480214
 30
0.0
 10
1315.743415015775
 20
-1976.88571292718
 30
0.0
 10
1301.785554096812
 20
-1972.451941833906
 30
0.0
 10
1288.009512978064
 20
-1967.556018928704
 30
0.0
 10
1275.114395062173
 20
-1960.510488785249
 30
0.0
 10
1272.407473971605
 20
-1959.031499904877
 30
0.0
 10
1269.652911729568
 20
-1958.075962377885
 30
0.0
 10
1267.383875185718
 20
-1960.510042095762
 30
0.0
 10
1262.685852902137
 20
-1965.549730293243
 30
0.0
 10
1257.351384006175
 20
-1964.342947112063
 30
0.0
 10
1251.748016631234
 20
-1962.917320444625
 30
0.0
 10
1243.402766123454
 20
-1960.794067885907
 30
0.0
 10
1243.362211872445
 20
-1960.876877244029
 30
0.0
 10
1242.331982709678
 20
-1969.287524810255
 30
0.0
 10
1242.000350128797
 20
-1971.994875409944
 30
0.0
 10
1241.577988041641
 20
-1974.843689133029
 30
0.0
 10
1238.375164312576
 20
-1975.32903443738
 30
0.0
 10
1235.311931047156
 20
-1975.793213532355
 30
0.0
 10
1233.440061585548
 20
-1973.292130391926
 30
0.0
 10
1232.393270551158
 20
-1971.006626468455
 30
0.0
 10
1229.977642545025
 20
-1965.732460652789
 30
0.0
 10
1227.752149635646
 20
-1960.321058083451
 30
0.0
 10
1226.072038815259
 20
-1954.77664513017
 30
0.0
 10
1224.811781748776
 20
-1950.617759872994
 30
0.0
 10
1222.609568233641
 20
-1949.104478984567
 30
0.0
 10
1218.382399616741
 20
-1949.24855352341
 30
0.0
 10
1212.354977888717
 20
-1949.453996325161
 30
0.0
 10
1206.423439776394
 20
-1948.23096051892
 30
0.0
 10
1200.581097822796
 20
-1946.876151315004
 30
0.0
 10
1196.925141973297
 20
-1946.028369035763
 30
0.0
 10
1193.497646319232
 20
-1944.459973537201
 30
0.0
 10
1190.881175554012
 20
-1941.531271118
 30
0.0
 10
1188.898561461188
 20
-1939.312049041759
 30
0.0
 10
1188.574548372075
 20
-1936.753033711373
 30
0.0
 10
1189.733166400663
 20
-1934.215218951098
 30
0.0
 10
1190.839392906928
 20
-1931.792134666664
 30
0.0
 10
1193.285219699206
 20
-1932.553912039939
 30
0.0
 10
1195.244636004521
 20
-1932.760179499195
 30
0.0
 10
1201.580166098985
 20
-1933.427086898287
 30
0.0
 10
1207.907329355814
 20
-1934.18759292457
 30
0.0
 10
1214.223299605004
 20
-1935.021252943983
 30
0.0
 10
1218.318179413283
 20
-1935.561747219204
 30
0.0
 10
1219.668556083095
 20
-1933.975552862755
 30
0.0
 10
1218.870339156172
 20
-1929.952529930067
 30
0.0
 10
1217.265538464693
 20
-1921.864478072859
 30
0.0
 10
1215.797424755212
 20
-1913.748181695997
 30
0.0
 10
1214.376350884431
 20
-1905.625442682349
 30
0.0
 10
1213.933011571906
 20
-1903.091321700495
 30
0.0
 10
1212.939995079203
 20
-1899.819355593472
 30
0.0
 10
1215.972475491708
 20
-1898.600580517692
 30
0.0
 10
1218.775211476521
 20
-1897.474132722111
 30
0.0
 10
1221.392983654368
 20
-1899.507171185496
 30
0.0
 10
1223.318241099456
 20
-1901.645061414981
 30
0.0
 10
1226.951407195105
 20
-1905.67945774914
 30
0.0
 10
1228.510336312687
 20
-1910.737838183477
 30
0.0
 10
1229.577099521106
 20
-1915.895022895524
 30
0.0
 10
1230.530807339252
 20
-1920.505683024321
 30
0.0
 10
1231.636999484784
 20
-1925.038430198949
 30
0.0
 10
1233.554216519169
 20
-1929.34637230075
 30
0.0
 10
1234.010209170334
 20
-1930.370974894058
 30
0.0
 10
1234.302618978479
 20
-1931.66929505866
 30
0.0
 10
1235.098439244517
 20
-1932.309263645815
 30
0.0
 10
1240.341345386514
 20
-1936.525290796171
 30
0.0
 10
1245.407611608272
 20
-1932.441655536624
 30
0.0
 10
1250.48572369153
 20
-1931.633937867993
 30
0.0
 10
1253.498566947121
 20
-1931.154708773492
 30
0.0
 10
1256.980090553254
 20
-1930.372658569804
 30
0.0
 10
1256.874826458395
 20
-1925.927033024853
 30
0.0
 10
1256.826077173398
 20
-1923.868584801994
 30
0.0
 10
1257.212601019677
 20
-1921.788094171157
 30
0.0
 10
1257.042592720234
 20
-1919.747513527645
 30
0.0
 10
1256.871871435654
 20
-1917.698325521391
 30
0.0
 10
1258.224842340543
 20
-1914.529493143998
 30
0.0
 10
1255.331660325475
 20
-1913.975821529011
 30
0.0
 10
1252.690368228275
 20
-1913.470358017528
 30
0.0
 10
1249.681957506793
 20
-1914.483123339521
 30
0.0
 10
1247.95996095713
 20
-1917.095500882837
 30
0.0
 10
1246.622125953592
 20
-1919.125068912539
 30
0.0
 10
1245.600014513173
 20
-1921.359736136697
 30
0.0
 10
1244.351757931472
 20
-1923.452046858491
 30
0.0
 10
1242.36691898141
 20
-1926.778972952367
 30
0.0
 10
1240.490402231135
 20
-1926.313281985293
 30
0.0
 10
1238.629390760052
 20
-1923.263835962591
 30
0.0
 10
1235.599667796086
 20
-1918.29926031982
 30
0.0
 10
1234.609924162869
 20
-1912.778006498234
 30
0.0
 10
1234.356067093235
 20
-1907.125803936478
 30
0.0
 10
1234.137446951718
 20
-1902.257919386555
 30
0.0
 10
1234.310719520461
 20
-1897.372424962757
 30
0.0
 10
1234.310719520461
 20
-1892.494713244194
 30
0.0
 10
1234.210463501931
 20
-1892.488975002367
 30
0.0
 10
1234.110207483398
 20
-1892.483219580174
 30
0.0
 10
1234.009942874683
 20
-1892.477481338343
 30
0.0
  0
HATCH
  5
89
330
70
100
AcDbEntity
  8
Layer 1
 62
   246
420
  8590872
440
 33554687
100
AcDbHatch
 10
0.0
 20
0.0
 30
0.0
210
0.0
220
0.0
230
1.0
  2
SOLID
 70
     1
 71
     1
 91
        9
 92
        1
 93
        1
 72
     4
 94
        3
 73
     0
 74
     0
 95
       17
 96
       13
 40
0.0
 40
0.0
 40
0.0
 40
0.0
 40
1.0
 40
1.0
 40
1.0
 40
2.0
 40
2.0
 40
2.0
 40
3.0
 40
3.0
 40
3.0
 40
4.0
 40
4.0
 40
4.0
 40
4.0
 10
1246.558601554909
 20
-1878.6363609979
 10
1246.265264007066
 20
-1881.388621071057
 10
1246.700743302714
 20
-1883.869448561438
 10
1251.157561855307
 20
-1883.617687496304
 10
1257.562685312306
 20
-1883.255869014547
 10
1259.080793883226
 20
-1881.945849021549
 10
1259.232573815661
 20
-1875.900868960745
 10
1259.291021416564
 20
-1873.573066979244
 10
1259.159016083962
 20
-1871.994878672771
 10
1256.078928880713
 20
-1872.062002357872
 10
1248.714333593194
 20
-1872.222552866517
 10
1246.500239855832
 20
-1873.471788729008
 10
1246.558601554909
 20
-1878.6363609979
 97
        0
 97
        1
330
80
 92
        1
 93
        1
 72
     4
 94
        3
 73
     0
 74
     0
 95
       17
 96
       13
 40
0.0
 40
0.0
 40
0.0
 40
0.0
 40
1.0
 40
1.0
 40
1.0
 40
2.0
 40
2.0
 40
2.0
 40
3.0
 40
3.0
 40
3.0
 40
4.0
 40
4.0
 40
4.0
 40
4.0
 10
1257.966234900057
 20
-1897.4118882606
 10
1257.800667724903
 20
-1895.13490579805
 10
1258.950601079108
 20
-1892.05585800687
 10
1254.546689459781
 20
-1892.151432376007
 10
1248.328204895308
 20
-1892.286349780434
 10
1246.251837552008
 20
-1893.648718344843
 10
1246.445889771927
 20
-1898.528234001705
 10
1246.563283204304
 20
-1901.480078372233
 10
1245.846458255411
 20
-1905.075000975934
 10
1251.036921333991
 20
-1904.853185286572
 10
1256.057754081153
 20
-1904.638602530771
 10
1258.904952849953
 20
-1903.021620960682
 10
1257.966234900057
 20
-1897.4118882606
 97
        0
 97
        1
330
81
 92
        1
 93
        1
 72
     4
 94
        3
 73
     0
 74
     0
 95
       26
 96
       22
 40
0.0
 40
0.0
 40
0.0
 40
0.0
 40
1.0
 40
1.0
 40
1.0
 40
2.0
 40
2.0
 40
2.0
 40
3.0
 40
3.0
 40
3.0
 40
4.0
 40
4.0
 40
4.0
 40
5.0
 40
5.0
 40
5.0
 40
6.0
 40
6.0
 40
6.0
 40
7.0
 40
7.0
 40
7.0
 40
7.0
 10
1244.511939062271
 20
-1955.039435989476
 10
1245.053249404816
 20
-1954.894364989477
 10
1245.600366710649
 20
-1954.780665335524
 10
1246.125175312849
 20
-1954.601645934768
 10
1248.938116434321
 20
-1953.641916398776
 10
1251.728834753987
 20
-1952.613774650328
 10
1254.558947650035
 20
-1951.708403788425
 10
1258.221947449081
 20
-1950.536565469158
 10
1259.914007213156
 20
-1949.079567455674
 10
1258.356229180015
 20
-1944.508284722893
 10
1256.668000637281
 20
-1939.554223463356
 10
1253.986308912357
 20
-1941.803786063758
 10
1251.424690756714
 20
-1942.467669718653
 10
1248.372324071999
 20
-1943.258722433473
 10
1245.405592915413
 20
-1944.38183723829
 10
1242.405591982475
 20
-1945.372731955949
 10
1240.394175008139
 20
-1946.037062300331
 10
1238.208815430829
 20
-1946.767193441725
 10
1239.217242710721
 20
-1949.535946665046
 10
1240.13592835531
 20
-1952.058299097041
 10
1240.735926823861
 20
-1955.141693520503
 10
1244.511939062271
 20
-1955.039435989476
 97
        0
 97
        1
330
82
 92
        1
 93
        1
 72
     4
 94
        3
 73
     0
 74
     0
 95
       23
 96
       19
 40
0.0
 40
0.0
 40
0.0
 40
0.0
 40
1.0
 40
1.0
 40
1.0
 40
2.0
 40
2.0
 40
2.0
 40
3.0
 40
3.0
 40
3.0
 40
4.0
 40
4.0
 40
4.0
 40
5.0
 40
5.0
 40
5.0
 40
6.0
 40
6.0
 40
6.0
 40
6.0
 10
1292.411740921645
 20
-1936.138595146245
 10
1292.673604041254
 20
-1932.526801424353
 10
1291.8924643969
 20
-1930.883636978373
 10
1289.006901873599
 20
-1931.647441634688
 10
1283.968948892961
 20
-1932.98101590777
 10
1278.954928160423
 20
-1934.407123625422
 10
1273.945460224549
 20
-1935.845223237675
 10
1271.017591053038
 20
-1936.685721042262
 10
1271.279110565352
 20
-1939.039327931625
 10
1271.522564924125
 20
-1941.313836421652
 10
1271.733788918616
 20
-1943.287241838965
 10
1272.363655451296
 20
-1945.323905359315
 10
1274.695666622159
 20
-1945.181651939134
 10
1280.777154958072
 20
-1944.810659142598
 10
1285.834410078514
 20
-1941.285282655428
 10
1291.333707393944
 20
-1939.146155439675
 10
1292.195972720674
 20
-1938.81076035891
 10
1292.292595092061
 20
-1936.50701088807
 10
1292.411740921645
 20
-1936.138595146245
 97
        0
 97
        1
330
83
 92
        1
 93
        1
 72
     4
 94
        3
 73
     0
 74
     0
 95
       23
 96
       19
 40
0.0
 40
0.0
 40
0.0
 40
0.0
 40
1.0
 40
1.0
 40
1.0
 40
2.0
 40
2.0
 40
2.0
 40
3.0
 40
3.0
 40
3.0
 40
4.0
 40
4.0
 40
4.0
 40
5.0
 40
5.0
 40
5.0
 40
6.0
 40
6.0
 40
6.0
 40
6.0
 10
1292.885334856502
 20
-1869.601756944472
 10
1294.239078877806
 20
-1864.078338396923
 10
1291.731776445336
 20
-1863.667366891599
 10
1287.486748839274
 20
-1865.048599496511
 10
1284.472917712708
 20
-1866.02923753641
 10
1281.364345464695
 20
-1867.007899834361
 10
1278.235904124845
 20
-1867.284555248027
 10
1272.460793233626
 20
-1867.795207229663
 10
1270.500676828447
 20
-1870.902104392111
 10
1270.075892309858
 20
-1876.356251708961
 10
1269.775622484838
 20
-1880.211680183458
 10
1271.123817248324
 20
-1880.527953518247
 10
1274.154253197426
 20
-1879.852490297506
 10
1278.170343852936
 20
-1878.957307391903
 10
1282.183797322457
 20
-1877.880201603899
 10
1286.258095053759
 20
-1877.459231126288
 10
1291.369356650812
 20
-1876.931106713693
 10
1293.789829519806
 20
-1874.651478474969
 10
1292.885334856502
 20
-1869.601756944472
 97
        0
 97
        1
330
84
 92
        1
 93
        1
 72
     4
 94
        3
 73
     0
 74
     0
 95
       23
 96
       19
 40
0.0
 40
0.0
 40
0.0
 40
0.0
 40
1.0
 40
1.0
 40
1.0
 40
2.0
 40
2.0
 40
2.0
 40
3.0
 40
3.0
 40
3.0
 40
4.0
 40
4.0
 40
4.0
 40
5.0
 40
5.0
 40
5.0
 40
6.0
 40
6.0
 40
6.0
 40
6.0
 10
1291.711245909453
 20
-1889.208246909316
 10
1291.086980175685
 20
-1888.303511720909
 10
1294.350442002152
 20
-1883.946605579555
 10
1289.38997246656
 20
-1884.611021825758
 10
1283.847054205016
 20
-1885.353471288681
 10
1278.286319905219
 20
-1886.591419651531
 10
1272.992138964611
 20
-1888.379844081521
 10
1268.014583556269
 20
-1890.061269199812
 10
1269.338485283992
 20
-1894.900170474391
 10
1269.674799514268
 20
-1898.579672013786
 10
1270.054528526285
 20
-1902.734159097586
 10
1273.412147341798
 20
-1900.536051689627
 10
1275.437643625053
 20
-1900.267952097614
 10
1278.953261665043
 20
-1899.802639098567
 10
1282.378253280945
 20
-1898.689935594788
 10
1285.883597462809
 20
-1898.100477280017
 10
1290.491817979815
 20
-1897.325574108067
 10
1293.062550318962
 20
-1895.165796093881
 10
1291.711245909453
 20
-1889.208246909316
 97
        0
 97
        1
330
85
 92
        1
 93
        1
 72
     4
 94
        3
 73
     0
 74
     0
 95
       23
 96
       19
 40
0.0
 40
0.0
 40
0.0
 40
0.0
 40
1.0
 40
1.0
 40
1.0
 40
2.0
 40
2.0
 40
2.0
 40
3.0
 40
3.0
 40
3.0
 40
4.0
 40
4.0
 40
4.0
 40
5.0
 40
5.0
 40
5.0
 40
6.0
 40
6.0
 40
6.0
 40
6.0
 10
1270.875629699061
 20
-1917.630239735865
 10
1270.769472225234
 20
-1926.402070110353
 10
1270.772298395237
 20
-1926.412996822337
 10
1278.573068783178
 20
-1924.395850196351
 10
1280.742107013968
 20
-1923.834980008533
 10
1282.901206403749
 20
-1923.228461591557
 10
1285.043889955003
 20
-1922.574198940924
 10
1293.309225996127
 20
-1920.050420538655
 10
1293.97747346367
 20
-1918.85499357858
 10
1292.769625099874
 20
-1910.218785003473
 10
1292.373480249334
 20
-1907.386309807271
 10
1291.29087674461
 20
-1906.172723201647
 10
1288.351024268682
 20
-1906.995130082143
 10
1284.935224147925
 20
-1907.950650428769
 10
1281.522585214279
 20
-1909.06448783662
 10
1278.030504274007
 20
-1909.566188848222
 10
1272.666725675772
 20
-1910.336762568249
 10
1269.691498828812
 20
-1912.636320030093
 10
1270.875629699061
 20
-1917.630239735865
 97
        0
 97
        1
330
86
 92
        1
 93
        1
 72
     4
 94
        3
 73
     0
 74
     0
 95
       47
 96
       43
 40
0.0
 40
0.0
 40
0.0
 40
0.0
 40
1.0
 40
1.0
 40
1.0
 40
2.0
 40
2.0
 40
2.0
 40
3.0
 40
3.0
 40
3.0
 40
4.0
 40
4.0
 40
4.0
 40
5.0
 40
5.0
 40
5.0
 40
6.0
 40
6.0
 40
6.0
 40
7.0
 40
7.0
 40
7.0
 40
8.0
 40
8.0
 40
8.0
 40
9.0
 40
9.0
 40
9.0
 40
10.0
 40
10.0
 40
10.0
 40
11.0
 40
11.0
 40
11.0
 40
12.0
 40
12.0
 40
12.0
 40
13.0
 40
13.0
 40
13.0
 40
14.0
 40
14.0
 40
14.0
 40
14.0
 10
1303.987698890487
 20
-1965.050881222194
 10
1308.68666609413
 20
-1965.078816495288
 10
1311.942826265578
 20
-1963.638002385401
 10
1314.72573610946
 20
-1961.33500885061
 10
1320.55896817465
 20
-1956.507669961511
 10
1327.042322422563
 20
-1953.833855433828
 10
1334.733336050263
 20
-1953.799700868696
 10
1337.845713749069
 20
-1953.785922216158
 10
1341.073113989914
 20
-1952.991536510579
 10
1344.031675883059
 20
-1951.941988027645
 10
1347.543582964263
 20
-1950.69610233628
 10
1349.934471245145
 20
-1948.094307897654
 10
1350.450552222046
 20
-1944.136845236872
 10
1350.990840332888
 20
-1939.993731554541
 10
1348.206745043837
 20
-1938.081385153566
 10
1345.248475216893
 20
-1936.308680757329
 10
1338.996746646615
 20
-1932.562433500856
 10
1331.924964905811
 20
-1931.52343376188
 10
1324.927539783672
 20
-1930.300294873455
 10
1318.343353975004
 20
-1929.149416599188
 10
1318.190380007218
 20
-1929.346509743669
 10
1319.134664395297
 20
-1935.954662161172
 10
1320.356738101109
 20
-1944.506944654442
 10
1319.432984248917
 20
-1946.464166168158
 10
1311.832631406036
 20
-1950.167840480766
 10
1309.162407574586
 20
-1951.469081307374
 10
1306.296379126015
 20
-1952.408056962742
 10
1303.455141943788
 20
-1953.308514240323
 10
1300.155257744038
 20
-1954.354351764474
 10
1297.111824848998
 20
-1954.539968425293
 10
1296.00992779465
 20
-1950.123446418236
 10
1295.551538482599
 20
-1948.286143850519
 10
1294.359100905989
 20
-1947.15079662599
 10
1292.270638585905
 20
-1947.768568181882
 10
1288.429435453428
 20
-1948.904774424647
 10
1285.335045596523
 20
-1951.428329482174
 10
1282.042463051792
 20
-1953.534229872488
 10
1280.385073263795
 20
-1954.594258377923
 10
1281.526828764374
 20
-1955.832893955359
 10
1282.689406867037
 20
-1956.594705689365
 10
1289.484584735273
 20
-1961.047546987515
 10
1296.625603346041
 20
-1964.619722788282
 10
1303.987698890487
 20
-1965.050881222194
 97
        0
 97
        1
330
87
 92
        1
 93
        1
 72
     4
 94
        3
 73
     0
 74
     0
 95
      134
 96
      130
 40
0.0
 40
0.0
 40
0.0
 40
0.0
 40
1.0
 40
1.0
 40
1.0
 40
2.0
 40
2.0
 40
2.0
 40
3.0
 40
3.0
 40
3.0
 40
4.0
 40
4.0
 40
4.0
 40
5.0
 40
5.0
 40
5.0
 40
6.0
 40
6.0
 40
6.0
 40
7.0
 40
7.0
 40
7.0
 40
8.0
 40
8.0
 40
8.0
 40
9.0
 40
9.0
 40
9.0
 40
10.0
 40
10.0
 40
10.0
 40
11.0
 40
11.0
 40
11.0
 40
12.0
 40
12.0
 40
12.0
 40
13.0
 40
13.0
 40
13.0
 40
14.0
 40
14.0
 40
14.0
 40
15.0
 40
15.0
 40
15.0
 40
16.0
 40
16.0
 40
16.0
 40
17.0
 40
17.0
 40
17.0
 40
18.0
 40
18.0
 40
18.0
 40
19.0
 40
19.0
 40
19.0
 40
20.0
 40
20.0
 40
20.0
 40
21.0
 40
21.0
 40
21.0
 40
22.0
 40
22.0
 40
22.0
 40
23.0
 40
23.0
 40
23.0
 40
24.0
 40
24.0
 40
24.0
 40
25.0
 40
25.0
 40
25.0
 40
26.0
 40
26.0
 40
26.0
 40
27.0
 40
27.0
 40
27.0
 40
28.0
 40
28.0
 40
28.0
 40
29.0
 40
29.0
 40
29.0
 40
30.0
 40
30.0
 40
30.0
 40
31.0
 40
31.0
 40
31.0
 40
32.0
 40
32.0
 40
32.0
 40
33.0
 40
33.0
 40
33.0
 40
34.0
 40
34.0
 40
34.0
 40
35.0
 40
35.0
 40
35.0
 40
36.0
 40
36.0
 40
36.0
 40
37.0
 40
37.0
 40
37.0
 40
38.0
 40
38.0
 40
38.0
 40
39.0
 40
39.0
 40
39.0
 40
40.0
 40
40.0
 40
40.0
 40
41.0
 40
41.0
 40
41.0
 40
42.0
 40
42.0
 40
42.0
 40
43.0
 40
43.0
 40
43.0
 40
43.0
 10
1234.009942874683
 20
-1892.477481338343
 10
1234.481449395225
 20
-1884.993731631059
 10
1234.977145869343
 20
-1877.511390713685
 10
1235.411413949274
 20
-1870.025476280445
 10
1235.564722934174
 20
-1867.382586409321
 10
1236.133513270146
 20
-1865.348414041864
 10
1239.317902467824
 20
-1864.833192083201
 10
1261.192965106675
 20
-1861.293916680943
 10
1282.255155967468
 20
-1854.202429061764
 10
1303.970741870475
 20
-1849.960081592604
 10
1307.64880025923
 20
-1849.241564377784
 10
1311.379550826692
 20
-1848.715192362395
 10
1315.152857157656
 20
-1849.364661691261
 10
1321.38319617381
 20
-1850.437042878953
 10
1323.53629102611
 20
-1853.494512131999
 10
1322.078932224966
 20
-1859.629465763033
 10
1320.391150371714
 20
-1866.734388427447
 10
1318.33390477439
 20
-1873.729013150134
 10
1317.05750675522
 20
-1880.957720342614
 10
1315.113411040176
 20
-1891.967808637497
 10
1315.241576561253
 20
-1902.957950528895
 10
1315.725822322263
 20
-1914.037206972285
 10
1315.90834651743
 20
-1918.21375364443
 10
1317.69594628991
 20
-1919.214716055836
 10
1321.52653195697
 20
-1919.583028715473
 10
1338.189613110386
 20
-1921.185269532603
 10
1353.944780707916
 20
-1925.577687487907
 10
1367.539276912288
 20
-1935.926074034216
 10
1375.326449041524
 20
-1941.853780925199
 10
1378.482533588267
 20
-1949.570204312369
 10
1376.317756087937
 20
-1957.379161144118
 10
1374.363197530758
 20
-1964.429811036271
 10
1366.930954557014
 20
-1970.286700463728
 10
1357.929955297044
 20
-1970.861486747
 10
1349.759626673025
 20
-1971.383185703174
 10
1342.070193638883
 20
-1973.239867722341
 10
1334.493704322649
 20
-1976.225127902317
 10
1328.423658109663
 20
-1978.61680647998
 10
1322.082626003386
 20
-1978.899423480214
 10
1315.743415015775
 20
-1976.88571292718
 10
1301.785554096812
 20
-1972.451941833906
 10
1288.009512978064
 20
-1967.556018928704
 10
1275.114395062173
 20
-1960.510488785249
 10
1272.407473971605
 20
-1959.031499904877
 10
1269.652911729568
 20
-1958.075962377885
 10
1267.383875185718
 20
-1960.510042095762
 10
1262.685852902137
 20
-1965.549730293243
 10
1257.351384006175
 20
-1964.342947112063
 10
1251.748016631234
 20
-1962.917320444625
 10
1243.402766123454
 20
-1960.794067885907
 10
1243.362211872445
 20
-1960.876877244029
 10
1242.331982709678
 20
-1969.287524810255
 10
1242.000350128797
 20
-1971.994875409944
 10
1241.577988041641
 20
-1974.843689133029
 10
1238.375164312576
 20
-1975.32903443738
 10
1235.311931047156
 20
-1975.793213532355
 10
1233.440061585548
 20
-1973.292130391926
 10
1232.393270551158
 20
-1971.006626468455
 10
1229.977642545025
 20
-1965.732460652789
 10
1227.752149635646
 20
-1960.321058083451
 10
1226.072038815259
 20
-1954.77664513017
 10
1224.811781748776
 20
-1950.617759872994
 10
1222.609568233641
 20
-1949.104478984567
 10
1218.382399616741
 20
-1949.24855352341
 10
1212.354977888717
 20
-1949.453996325161
 10
1206.423439776394
 20
-1948.23096051892
 10
1200.581097822796
 20
-1946.876151315004
 10
1196.925141973297
 20
-1946.028369035763
 10
1193.497646319232
 20
-1944.459973537201
 10
1190.881175554012
 20
-1941.531271118
 10
1188.898561461188
 20
-1939.312049041759
 10
1188.574548372075
 20
-1936.753033711373
 10
1189.733166400663
 20
-1934.215218951098
 10
1190.839392906928
 20
-1931.792134666664
 10
1193.285219699206
 20
-1932.553912039939
 10
1195.244636004521
 20
-1932.760179499195
 10
1201.580166098985
 20
-1933.427086898287
 10
1207.907329355814
 20
-1934.18759292457
 10
1214.223299605004
 20
-1935.021252943983
 10
1218.318179413283
 20
-1935.561747219204
 10
1219.668556083095
 20
-1933.975552862755
 10
1218.870339156172
 20
-1929.952529930067
 10
1217.265538464693
 20
-1921.864478072859
 10
1215.797424755212
 20
-1913.748181695997
 10
1214.376350884431
 20
-1905.625442682349
 10
1213.933011571906
 20
-1903.091321700495
 10
1212.939995079203
 20
-1899.819355593472
 10
1215.972475491708
 20
-1898.600580517692
 10
1218.775211476521
 20
-1897.474132722111
 10
1221.392983654368
 20
-1899.507171185496
 10
1223.318241099456
 20
-1901.645061414981
 10
1226.951407195105
 20
-1905.67945774914
 10
1228.510336312687
 20
-1910.737838183477
 10
1229.577099521106
 20
-1915.895022895524
 10
1230.530807339252
 20
-1920.505683024321
 10
1231.636999484784
 20
-1925.038430198949
 10
1233.554216519169
 20
-1929.34637230075
 10
1234.010209170334
 20
-1930.370974894058
 10
1234.302618978479
 20
-1931.66929505866
 10
1235.098439244517
 20
-1932.309263645815
 10
1240.341345386514
 20
-1936.525290796171
 10
1245.407611608272
 20
-1932.441655536624
 10
1250.48572369153
 20
-1931.633937867993
 10
1253.498566947121
 20
-1931.154708773492
 10
1256.980090553254
 20
-1930.372658569804
 10
1256.874826458395
 20
-1925.927033024853
 10
1256.826077173398
 20
-1923.868584801994
 10
1257.212601019677
 20
-1921.788094171157
 10
1257.042592720234
 20
-1919.747513527645
 10
1256.871871435654
 20
-1917.698325521391
 10
1258.224842340543
 20
-1914.529493143998
 10
1255.331660325475
 20
-1913.975821529011
 10
1252.690368228275
 20
-1913.470358017528
 10
1249.681957506793
 20
-1914.483123339521
 10
1247.95996095713
 20
-1917.095500882837
 10
1246.622125953592
 20
-1919.125068912539
 10
1245.600014513173
 20
-1921.359736136697
 10
1244.351757931472
 20
-1923.452046858491
 10
1242.36691898141
 20
-1926.778972952367
 10
1240.490402231135
 20
-1926.313281985293
 10
1238.629390760052
 20
-1923.263835962591
 10
1235.599667796086
 20
-1918.29926031982
 10
1234.609924162869
 20
-1912.778006498234
 10
1234.356067093235
 20
-1907.125803936478
 10
1234.137446951718
 20
-1902.257919386555
 10
1234.310719520461
 20
-1897.372424962757
 10
1234.310719520461
 20
-1892.494713244194
 10
1234.210463501931
 20
-1892.488975002367
 10
1234.110207483398
 20
-1892.483219580174
 10
1234.009942874683
 20
-1892.477481338343
 97
        0
 97
        1
330
88
 75
     2
 76
     1
 98
        1
 10
0.0
 20
0.0
450
        0
451
        0
460
0.0
461
0.0
452
        0
462
0.0
453
        0
470

  0
SPLINE
  5
8A
330
70
100
AcDbEntity
  8
Layer 1
100
AcDbSpline
210
0.0
220
0.0
230
1.0
 70
     9
 71
     3
 72
   131
 73
   127
 74
     0
 42
0.0000000001
 43
0.0000000001
 40
0.0
 40
0.0
 40
0.0
 40
0.0
 40
1.0
 40
1.0
 40
1.0
 40
2.0
 40
2.0
 40
2.0
 40
3.0
 40
3.0
 40
3.0
 40
4.0
 40
4.0
 40
4.0
 40
5.0
 40
5.0
 40
5.0
 40
6.0
 40
6.0
 40
6.0
 40
7.0
 40
7.0
 40
7.0
 40
8.0
 40
8.0
 40
8.0
 40
9.0
 40
9.0
 40
9.0
 40
10.0
 40
10.0
 40
10.0
 40
11.0
 40
11.0
 40
11.0
 40
12.0
 40
12.0
 40
12.0
 40
13.0
 40
13.0
 40
13.0
 40
14.0
 40
14.0
 40
14.0
 40
15.0
 40
15.0
 40
15.0
 40
16.0
 40
16.0
 40
16.0
 40
17.0
 40
17.0
 40
17.0
 40
18.0
 40
18.0
 40
18.0
 40
19.0
 40
19.0
 40
19.0
 40
20.0
 40
20.0
 40
20.0
 40
21.0
 40
21.0
 40
21.0
 40
22.0
 40
22.0
 40
22.0
 40
23.0
 40
23.0
 40
23.0
 40
24.0
 40
24.0
 40
24.0
 40
25.0
 40
25.0
 40
25.0
 40
26.0
 40
26.0
 40
26.0
 40
27.0
 40
27.0
 40
27.0
 40
28.0
 40
28.0
 40
28.0
 40
29.0
 40
29.0
 40
29.0
 40
30.0
 40
30.0
 40
30.0
 40
31.0
 40
31.0
 40
31.0
 40
32.0
 40
32.0
 40
32.0
 40
33.0
 40
33.0
 40
33.0
 40
34.0
 40
34.0
 40
34.0
 40
35.0
 40
35.0
 40
35.0
 40
36.0
 40
36.0
 40
36.0
 40
37.0
 40
37.0
 40
37.0
 40
38.0
 40
38.0
 40
38.0
 40
39.0
 40
39.0
 40
39.0
 40
40.0
 40
40.0
 40
40.0
 40
41.0
 40
41.0
 40
41.0
 40
42.0
 40
42.0
 40
42.0
 40
42.0
 10
1330.122074608698
 20
-1705.602350207593
 30
0.0
 10
1334.890914355805
 20
-1707.434017615671
 30
0.0
 10
1335.920224369056
 20
-1711.241237986663
 30
0.0
 10
1337.546105368092
 20
-1714.487974728041
 30
0.0
 10
1339.053184144839
 20
-1717.497519353599
 30
0.0
 10
1340.492503562989
 20
-1720.582674764448
 30
0.0
 10
1341.539045482092
 20
-1723.773162991618
 30
0.0
 10
1344.362449445703
 20
-1732.380422652108
 30
0.0
 10
1348.110174213543
 20
-1739.442308502812
 30
0.0
 10
1357.909098334232
 20
-1742.621002409576
 30
0.0
 10
1364.060081245581
 20
-1744.616312791955
 30
0.0
 10
1370.449252733902
 20
-1748.853351528405
 30
0.0
 10
1369.90198939497
 20
-1757.177942647571
 30
0.0
 10
1369.394412698624
 20
-1764.89930538961
 30
0.0
 10
1363.222538463731
 20
-1768.183684310168
 30
0.0
 10
1357.266226265434
 20
-1770.91135069118
 30
0.0
 10
1335.877187555343
 20
-1780.706374869065
 30
0.0
 10
1314.263223509868
 20
-1781.148837982988
 30
0.0
 10
1293.34941086929
 20
-1769.977460423781
 30
0.0
 10
1278.952445597715
 20
-1762.287134010674
 30
0.0
 10
1270.618920688881
 20
-1750.349701167366
 30
0.0
 10
1271.708602503884
 20
-1732.987705595316
 30
0.0
 10
1272.473798769744
 20
-1720.795840140158
 30
0.0
 10
1273.228300258546
 20
-1708.661726481123
 30
0.0
 10
1276.394778925965
 20
-1696.793573458695
 30
0.0
 10
1277.06464993798
 20
-1694.282839248366
 30
0.0
 10
1277.363949072391
 20
-1691.637917799113
 30
0.0
 10
1277.512756801723
 20
-1689.036445492323
 30
0.0
 10
1277.604946639003
 20
-1687.424785540219
 30
0.0
 10
1277.504329832809
 20
-1685.378423703967
 30
0.0
 10
1275.199145801511
 20
-1685.199936894516
 30
0.0
 10
1273.223678740425
 20
-1685.046980107095
 30
0.0
 10
1272.14259569798
 20
-1686.506366191281
 30
0.0
 10
1271.639546027749
 20
-1688.205877938568
 30
0.0
 10
1271.109308430288
 20
-1689.997261686387
 30
0.0
 10
1270.558471575485
 20
-1691.859145060984
 30
0.0
 10
1270.508751599882
 20
-1693.703495873344
 30
0.0
 10
1270.228067390682
 20
-1704.115514195617
 30
0.0
 10
1265.510004211614
 20
-1712.514672392912
 30
0.0
 10
1258.351264054599
 20
-1719.530111127498
 30
0.0
 10
1242.10371579335
 20
-1735.452392133009
 30
0.0
 10
1223.239735422703
 20
-1747.558329993839
 30
0.0
 10
1202.393110893594
 20
-1756.558478825753
 30
0.0
 10
1199.511907887852
 20
-1757.802388775171
 30
0.0
 10
1196.27197886601
 20
-1758.320625887847
 30
0.0
 10
1193.142871787022
 20
-1758.845374358769
 30
0.0
 10
1191.285390880897
 20
-1759.156862961974
 30
0.0
 10
1188.868547363959
 20
-1758.750607466774
 30
0.0
 10
1188.210423426349
 20
-1756.948163859144
 30
0.0
 10
1187.335444629698
 20
-1754.551760681175
 30
0.0
 10
1190.129985580519
 20
-1753.977240693557
 30
0.0
 10
1191.555071066468
 20
-1753.330494452506
 30
0.0
 10
1201.501505798951
 20
-1748.816499646005
 30
0.0
 10
1210.799304450258
 20
-1743.228225221506
 30
0.0
 10
1219.747663072612
 20
-1737.008022620555
 30
0.0
 10
1229.532155686906
 20
-1730.20659109955
 30
0.0
 10
1237.893066097164
 20
-1721.980331798067
 30
0.0
 10
1245.18012639854
 20
-1712.545493967283
 30
0.0
 10
1248.069597454821
 20
-1708.804375049692
 30
0.0
 10
1247.564108172792
 20
-1706.388064124063
 30
0.0
 10
1243.876463140503
 20
-1703.858607611239
 30
0.0
 10
1241.573194719873
 20
-1702.278739924111
 30
0.0
 10
1239.439359056465
 20
-1700.39634748909
 30
0.0
 10
1237.451487772025
 20
-1698.425755356506
 30
0.0
 10
1234.753612143504
 20
-1695.7513180406
 30
0.0
 10
1234.996233254584
 20
-1693.122013542908
 30
0.0
 10
1238.192889232701
 20
-1690.938707019186
 30
0.0
 10
1239.896013151676
 20
-1689.775476062665
 30
0.0
 10
1241.644115265586
 20
-1688.676680064154
 30
0.0
 10
1243.391186557608
 20
-1687.57948613466
 30
0.0
 10
1247.133946200032
 20
-1685.228941645315
 30
0.0
 10
1248.619790045945
 20
-1682.037383940444
 30
0.0
 10
1247.793242697538
 20
-1677.551968670714
 30
0.0
 10
1246.811006883719
 20
-1672.221704669025
 30
0.0
 10
1245.12312194828
 20
-1666.977144916922
 30
0.0
 10
1245.446413462072
 20
-1661.449487114374
 30
0.0
 10
1245.850753346603
 20
-1654.536464829188
 30
0.0
 10
1248.274327271432
 20
-1652.429554018674
 30
0.0
 10
1255.038958451132
 20
-1653.351925925277
 30
0.0
 10
1262.576663093929
 20
-1654.379706886064
 30
0.0
 10
1268.979132184573
 20
-1657.285963158711
 30
0.0
 10
1273.439455531577
 20
-1663.914923145477
 30
0.0
 10
1276.013349057841
 20
-1667.740262358648
 30
0.0
 10
1278.807443319176
 20
-1667.592107483176
 30
0.0
 10
1281.092861340825
 20
-1663.578686226841
 30
0.0
 10
1283.030041959053
 20
-1660.176817234352
 30
0.0
 10
1285.181745201804
 20
-1658.654791540268
 30
0.0
 10
1289.244111169784
 20
-1659.690316550472
 30
0.0
 10
1293.848723810188
 20
-1660.864070480407
 30
0.0
 10
1298.125208664121
 20
-1659.18683737112
 30
0.0
 10
1302.15799004399
 20
-1657.000468447381
 30
0.0
 10
1307.594682110251
 20
-1654.052966414047
 30
0.0
 10
1312.925646211803
 20
-1650.895189601373
 30
0.0
 10
1318.465643811338
 20
-1648.158986726625
 30
0.0
 10
1322.078245010372
 20
-1646.374722092454
 30
0.0
 10
1326.024334269685
 20
-1644.00929028016
 30
0.0
 10
1329.750033809909
 20
-1648.084077114972
 30
0.0
 10
1332.501245880819
 20
-1651.093076263949
 30
0.0
 10
1333.59611616598
 20
-1659.232835650206
 30
0.0
 10
1331.252817495468
 20
-1662.465424361208
 30
0.0
 10
1327.113706838125
 20
-1668.175376571545
 30
0.0
 10
1323.12166010309
 20
-1674.637676282453
 30
0.0
 10
1314.181393432536
 20
-1671.618549308454
 30
0.0
 10
1313.668353380195
 20
-1671.445293920073
 30
0.0
 10
1313.064377657203
 20
-1671.532778484956
 30
0.0
 10
1312.502184581299
 20
-1671.514857216969
 30
0.0
 10
1294.880078286845
 20
-1670.95301633854
 30
0.0
 10
1291.544854076794
 20
-1673.507981397933
 30
0.0
 10
1288.083337005421
 20
-1690.56857753598
 30
0.0
 10
1285.690885311345
 20
-1702.360076065959
 30
0.0
 10
1284.256702822254
 20
-1714.215356700095
 30
0.0
 10
1284.768162281038
 20
-1726.329017134883
 30
0.0
 10
1285.021950629212
 20
-1732.339516203623
 30
0.0
 10
1287.203427444085
 20
-1736.880192116588
 30
0.0
 10
1291.906844362198
 20
-1740.201620493744
 30
0.0
 10
1301.386316780616
 20
-1746.895769227032
 30
0.0
 10
1311.297033534771
 20
-1752.589367877668
 30
0.0
 10
1323.620715338518
 20
-1750.422709127395
 30
0.0
 10
1330.81274245225
 20
-1749.158251461727
 30
0.0
 10
1331.866637567465
 20
-1747.711991176218
 30
0.0
 10
1332.14231370034
 20
-1740.398747998954
 30
0.0
 10
1332.525796622052
 20
-1730.225755796435
 30
0.0
 10
1330.576443715395
 20
-1720.214508137915
 30
0.0
 10
1330.129805772838
 20
-1710.100959997451
 30
0.0
 10
1330.07324801206
 20
-1708.820189575452
 30
0.0
 10
1330.122074608698
 20
-1707.534771864781
 30
0.0
 10
1330.122074608698
 20
-1705.602350207593
 30
0.0
  0
HATCH
  5
8B
330
70
100
AcDbEntity
  8
Layer 1
 62
    18
420
        0
440
 33554687
100
AcDbHatch
 10
0.0
 20
0.0
 30
0.0
210
0.0
220
0.0
230
1.0
  2
SOLID
 70
     1
 71
     1
 91
        1
 92
        1
 93
        1
 72
     4
 94
        3
 73
     0
 74
     0
 95
      131
 96
      127
 40
0.0
 40
0.0
 40
0.0
 40
0.0
 40
1.0
 40
1.0
 40
1.0
 40
2.0
 40
2.0
 40
2.0
 40
3.0
 40
3.0
 40
3.0
 40
4.0
 40
4.0
 40
4.0
 40
5.0
 40
5.0
 40
5.0
 40
6.0
 40
6.0
 40
6.0
 40
7.0
 40
7.0
 40
7.0
 40
8.0
 40
8.0
 40
8.0
 40
9.0
 40
9.0
 40
9.0
 40
10.0
 40
10.0
 40
10.0
 40
11.0
 40
11.0
 40
11.0
 40
12.0
 40
12.0
 40
12.0
 40
13.0
 40
13.0
 40
13.0
 40
14.0
 40
14.0
 40
14.0
 40
15.0
 40
15.0
 40
15.0
 40
16.0
 40
16.0
 40
16.0
 40
17.0
 40
17.0
 40
17.0
 40
18.0
 40
18.0
 40
18.0
 40
19.0
 40
19.0
 40
19.0
 40
20.0
 40
20.0
 40
20.0
 40
21.0
 40
21.0
 40
21.0
 40
22.0
 40
22.0
 40
22.0
 40
23.0
 40
23.0
 40
23.0
 40
24.0
 40
24.0
 40
24.0
 40
25.0
 40
25.0
 40
25.0
 40
26.0
 40
26.0
 40
26.0
 40
27.0
 40
27.0
 40
27.0
 40
28.0
 40
28.0
 40
28.0
 40
29.0
 40
29.0
 40
29.0
 40
30.0
 40
30.0
 40
30.0
 40
31.0
 40
31.0
 40
31.0
 40
32.0
 40
32.0
 40
32.0
 40
33.0
 40
33.0
 40
33.0
 40
34.0
 40
34.0
 40
34.0
 40
35.0
 40
35.0
 40
35.0
 40
36.0
 40
36.0
 40
36.0
 40
37.0
 40
37.0
 40
37.0
 40
38.0
 40
38.0
 40
38.0
 40
39.0
 40
39.0
 40
39.0
 40
40.0
 40
40.0
 40
40.0
 40
41.0
 40
41.0
 40
41.0
 40
42.0
 40
42.0
 40
42.0
 40
42.0
 10
1330.122074608698
 20
-1705.602350207593
 10
1334.890914355805
 20
-1707.434017615671
 10
1335.920224369056
 20
-1711.241237986663
 10
1337.546105368092
 20
-1714.487974728041
 10
1339.053184144839
 20
-1717.497519353599
 10
1340.492503562989
 20
-1720.582674764448
 10
1341.539045482092
 20
-1723.773162991618
 10
1344.362449445703
 20
-1732.380422652108
 10
1348.110174213543
 20
-1739.442308502812
 10
1357.909098334232
 20
-1742.621002409576
 10
1364.060081245581
 20
-1744.616312791955
 10
1370.449252733902
 20
-1748.853351528405
 10
1369.90198939497
 20
-1757.177942647571
 10
1369.394412698624
 20
-1764.89930538961
 10
1363.222538463731
 20
-1768.183684310168
 10
1357.266226265434
 20
-1770.91135069118
 10
1335.877187555343
 20
-1780.706374869065
 10
1314.263223509868
 20
-1781.148837982988
 10
1293.34941086929
 20
-1769.977460423781
 10
1278.952445597715
 20
-1762.287134010674
 10
1270.618920688881
 20
-1750.349701167366
 10
1271.708602503884
 20
-1732.987705595316
 10
1272.473798769744
 20
-1720.795840140158
 10
1273.228300258546
 20
-1708.661726481123
 10
1276.394778925965
 20
-1696.793573458695
 10
1277.06464993798
 20
-1694.282839248366
 10
1277.363949072391
 20
-1691.637917799113
 10
1277.512756801723
 20
-1689.036445492323
 10
1277.604946639003
 20
-1687.424785540219
 10
1277.504329832809
 20
-1685.378423703967
 10
1275.199145801511
 20
-1685.199936894516
 10
1273.223678740425
 20
-1685.046980107095
 10
1272.14259569798
 20
-1686.506366191281
 10
1271.639546027749
 20
-1688.205877938568
 10
1271.109308430288
 20
-1689.997261686387
 10
1270.558471575485
 20
-1691.859145060984
 10
1270.508751599882
 20
-1693.703495873344
 10
1270.228067390682
 20
-1704.115514195617
 10
1265.510004211614
 20
-1712.514672392912
 10
1258.351264054599
 20
-1719.530111127498
 10
1242.10371579335
 20
-1735.452392133009
 10
1223.239735422703
 20
-1747.558329993839
 10
1202.393110893594
 20
-1756.558478825753
 10
1199.511907887852
 20
-1757.802388775171
 10
1196.27197886601
 20
-1758.320625887847
 10
1193.142871787022
 20
-1758.845374358769
 10
1191.285390880897
 20
-1759.156862961974
 10
1188.868547363959
 20
-1758.750607466774
 10
1188.210423426349
 20
-1756.948163859144
 10
1187.335444629698
 20
-1754.551760681175
 10
1190.129985580519
 20
-1753.977240693557
 10
1191.555071066468
 20
-1753.330494452506
 10
1201.501505798951
 20
-1748.816499646005
 10
1210.799304450258
 20
-1743.228225221506
 10
1219.747663072612
 20
-1737.008022620555
 10
1229.532155686906
 20
-1730.20659109955
 10
1237.893066097164
 20
-1721.980331798067
 10
1245.18012639854
 20
-1712.545493967283
 10
1248.069597454821
 20
-1708.804375049692
 10
1247.564108172792
 20
-1706.388064124063
 10
1243.876463140503
 20
-1703.858607611239
 10
1241.573194719873
 20
-1702.278739924111
 10
1239.439359056465
 20
-1700.39634748909
 10
1237.451487772025
 20
-1698.425755356506
 10
1234.753612143504
 20
-1695.7513180406
 10
1234.996233254584
 20
-1693.122013542908
 10
1238.192889232701
 20
-1690.938707019186
 10
1239.896013151676
 20
-1689.775476062665
 10
1241.644115265586
 20
-1688.676680064154
 10
1243.391186557608
 20
-1687.57948613466
 10
1247.133946200032
 20
-1685.228941645315
 10
1248.619790045945
 20
-1682.037383940444
 10
1247.793242697538
 20
-1677.551968670714
 10
1246.811006883719
 20
-1672.221704669025
 10
1245.12312194828
 20
-1666.977144916922
 10
1245.446413462072
 20
-1661.449487114374
 10
1245.850753346603
 20
-1654.536464829188
 10
1248.274327271432
 20
-1652.429554018674
 10
1255.038958451132
 20
-1653.351925925277
 10
1262.576663093929
 20
-1654.379706886064
 10
1268.979132184573
 20
-1657.285963158711
 10
1273.439455531577
 20
-1663.914923145477
 10
1276.013349057841
 20
-1667.740262358648
 10
1278.807443319176
 20
-1667.592107483176
 10
1281.092861340825
 20
-1663.578686226841
 10
1283.030041959053
 20
-1660.176817234352
 10
1285.181745201804
 20
-1658.654791540268
 10
1289.244111169784
 20
-1659.690316550472
 10
1293.848723810188
 20
-1660.864070480407
 10
1298.125208664121
 20
-1659.18683737112
 10
1302.15799004399
 20
-1657.000468447381
 10
1307.594682110251
 20
-1654.052966414047
 10
1312.925646211803
 20
-1650.895189601373
 10
1318.465643811338
 20
-1648.158986726625
 10
1322.078245010372
 20
-1646.374722092454
 10
1326.024334269685
 20
-1644.00929028016
 10
1329.750033809909
 20
-1648.084077114972
 10
1332.501245880819
 20
-1651.093076263949
 10
1333.59611616598
 20
-1659.232835650206
 10
1331.252817495468
 20
-1662.465424361208
 10
1327.113706838125
 20
-1668.175376571545
 10
1323.12166010309
 20
-1674.637676282453
 10
1314.181393432536
 20
-1671.618549308454
 10
1313.668353380195
 20
-1671.445293920073
 10
1313.064377657203
 20
-1671.532778484956
 10
1312.502184581299
 20
-1671.514857216969
 10
1294.880078286845
 20
-1670.95301633854
 10
1291.544854076794
 20
-1673.507981397933
 10
1288.083337005421
 20
-1690.56857753598
 10
1285.690885311345
 20
-1702.360076065959
 10
1284.256702822254
 20
-1714.215356700095
 10
1284.768162281038
 20
-1726.329017134883
 10
1285.021950629212
 20
-1732.339516203623
 10
1287.203427444085
 20
-1736.880192116588
 10
1291.906844362198
 20
-1740.201620493744
 10
1301.386316780616
 20
-1746.895769227032
 10
1311.297033534771
 20
-1752.589367877668
 10
1323.620715338518
 20
-1750.422709127395
 10
1330.81274245225
 20
-1749.158251461727
 10
1331.866637567465
 20
-1747.711991176218
 10
1332.14231370034
 20
-1740.398747998954
 10
1332.525796622052
 20
-1730.225755796435
 10
1330.576443715395
 20
-1720.214508137915
 10
1330.129805772838
 20
-1710.100959997451
 10
1330.07324801206
 20
-1708.820189575452
 10
1330.122074608698
 20
-1707.534771864781
 10
1330.122074608698
 20
-1705.602350207593
 97
        0
 97
        1
330
8A
 75
     2
 76
     1
 98
        1
 10
0.0
 20
0.0
450
        0
451
        0
460
0.0
461
0.0
452
        0
462
0.0
453
        0
470

  0
SPLINE
  5
8C
330
70
100
AcDbEntity
  8
Layer 1
100
AcDbSpline
210
0.0
220
0.0
230
1.0
 70
     9
 71
     3
 72
    89
 73
    85
 74
     0
 42
0.0000000001
 43
0.0000000001
 40
0.0
 40
0.0
 40
0.0
 40
0.0
 40
1.0
 40
1.0
 40
1.0
 40
2.0
 40
2.0
 40
2.0
 40
3.0
 40
3.0
 40
3.0
 40
4.0
 40
4.0
 40
4.0
 40
5.0
 40
5.0
 40
5.0
 40
6.0
 40
6.0
 40
6.0
 40
7.0
 40
7.0
 40
7.0
 40
8.0
 40
8.0
 40
8.0
 40
9.0
 40
9.0
 40
9.0
 40
10.0
 40
10.0
 40
10.0
 40
11.0
 40
11.0
 40
11.0
 40
12.0
 40
12.0
 40
12.0
 40
13.0
 40
13.0
 40
13.0
 40
14.0
 40
14.0
 40
14.0
 40
15.0
 40
15.0
 40
15.0
 40
16.0
 40
16.0
 40
16.0
 40
17.0
 40
17.0
 40
17.0
 40
18.0
 40
18.0
 40
18.0
 40
19.0
 40
19.0
 40
19.0
 40
20.0
 40
20.0
 40
20.0
 40
21.0
 40
21.0
 40
21.0
 40
22.0
 40
22.0
 40
22.0
 40
23.0
 40
23.0
 40
23.0
 40
24.0
 40
24.0
 40
24.0
 40
25.0
 40
25.0
 40
25.0
 40
26.0
 40
26.0
 40
26.0
 40
27.0
 40
27.0
 40
27.0
 40
28.0
 40
28.0
 40
28.0
 40
28.0
 10
1335.188667257385
 20
-1839.177117719793
 30
0.0
 10
1312.005998466786
 20
-1837.619219424099
 30
0.0
 10
1290.327487790924
 20
-1844.566168634586
 30
0.0
 10
1268.582008053243
 20
-1851.114430300548
 30
0.0
 10
1249.47983051544
 20
-1856.866742847736
 30
0.0
 10
1230.233277782408
 20
-1860.074780817502
 30
0.0
 10
1210.372428222261
 20
-1855.168103003963
 30
0.0
 10
1205.019859812029
 20
-1853.845730328705
 30
0.0
 10
1200.008270101105
 20
-1851.950701735402
 30
0.0
 10
1195.558950777729
 20
-1848.656057546903
 30
0.0
 10
1193.330034680672
 20
-1847.00557426554
 30
0.0
 10
1193.043461901456
 20
-1845.716187890613
 30
0.0
 10
1195.804977896125
 20
-1844.178321900223
 30
0.0
 10
1201.739939196122
 20
-1840.873111787399
 30
0.0
 10
1207.814065745737
 20
-1839.318254416264
 30
0.0
 10
1214.693766713477
 20
-1840.656140960896
 30
0.0
 10
1226.999091297486
 20
-1843.049142426646
 30
0.0
 10
1239.245349787463
 20
-1846.196310364079
 30
0.0
 10
1252.012920675406
 20
-1844.407645408983
 30
0.0
 10
1256.773857454726
 20
-1843.740634927702
 30
0.0
 10
1260.169333203976
 20
-1841.943963922631
 30
0.0
 10
1261.119458916069
 20
-1836.829008547154
 30
0.0
 10
1261.696401335117
 20
-1833.723039124403
 30
0.0
 10
1261.416584734339
 20
-1831.259288916588
 30
0.0
 10
1257.893080906928
 20
-1830.139197855968
 30
0.0
 10
1253.196003543406
 20
-1828.646069535401
 30
0.0
 10
1253.236197006754
 20
-1825.978371217572
 30
0.0
 10
1256.125006618989
 20
-1822.599663504321
 30
0.0
 10
1260.535979368229
 20
-1817.440640493247
 30
0.0
 10
1263.819112712343
 20
-1811.531471215838
 30
0.0
 10
1267.308754040823
 20
-1805.749814605644
 30
0.0
 10
1268.868756931202
 20
-1803.165200531775
 30
0.0
 10
1270.919327956817
 20
-1800.533752783578
 30
0.0
 10
1274.5352707368
 20
-1801.793932538423
 30
0.0
 10
1278.086374820192
 20
-1803.031554474337
 30
0.0
 10
1277.221626930753
 20
-1806.269073950027
 30
0.0
 10
1277.162844312741
 20
-1809.017468441112
 30
0.0
 10
1276.999725339567
 20
-1816.644004159882
 30
0.0
 10
1274.520933722411
 20
-1823.739546345141
 30
0.0
 10
1272.139760937796
 20
-1830.860378027324
 30
0.0
 10
1271.365029569497
 20
-1833.177167395015
 30
0.0
 10
1270.235815735188
 20
-1835.852029924948
 30
0.0
 10
1273.241683762691
 20
-1837.266420633836
 30
0.0
 10
1276.187772711022
 20
-1838.652652724891
 30
0.0
 10
1277.666417984099
 20
-1836.055119016726
 30
0.0
 10
1279.03377744447
 20
-1834.124647330934
 30
0.0
 10
1283.954414304375
 20
-1827.177491956072
 30
0.0
 10
1287.324514654883
 20
-1819.445331354784
 30
0.0
 10
1290.015131579297
 20
-1811.418321333555
 30
0.0
 10
1291.534030446997
 20
-1806.886879866646
 30
0.0
 10
1290.672005645374
 20
-1802.829427482988
 30
0.0
 10
1286.656662335728
 20
-1799.889867073261
 30
0.0
 10
1282.394591807828
 20
-1796.769689488856
 30
0.0
 10
1282.76256086017
 20
-1793.838324113117
 30
0.0
 10
1286.358445564299
 20
-1790.357754017232
 30
0.0
 10
1289.500751458509
 20
-1787.316210962313
 30
0.0
 10
1292.889337881494
 20
-1784.765991978684
 30
0.0
 10
1296.80355756418
 20
-1782.861582906227
 30
0.0
 10
1302.962117016388
 20
-1779.865189849892
 30
0.0
 10
1307.060767914732
 20
-1781.028283363497
 30
0.0
 10
1310.044636485163
 20
-1787.22989680978
 30
0.0
 10
1314.162993261881
 20
-1795.789395056252
 30
0.0
 10
1313.720719131972
 20
-1804.342485026669
 30
0.0
 10
1308.785401650384
 20
-1812.491887966416
 30
0.0
 10
1306.727417297374
 20
-1815.890129754394
 30
0.0
 10
1305.045837555801
 20
-1819.423529471909
 30
0.0
 10
1303.833694100816
 20
-1823.178006123098
 30
0.0
 10
1302.637940713808
 20
-1826.881714796434
 30
0.0
 10
1303.566642511054
 20
-1828.408224565721
 30
0.0
 10
1307.848728163895
 20
-1827.484127106234
 30
0.0
 10
1322.360002992369
 20
-1824.352507398902
 30
0.0
 10
1336.993464574989
 20
-1822.136704215247
 30
0.0
 10
1351.919215703201
 20
-1822.71406755323
 30
0.0
 10
1355.489604746031
 20
-1822.852180505504
 30
0.0
 10
1359.017523927185
 20
-1823.160018281198
 30
0.0
 10
1362.48988180872
 20
-1824.107274872376
 30
0.0
 10
1366.63034971488
 20
-1825.236815133614
 30
0.0
 10
1367.826876218299
 20
-1827.204052799983
 30
0.0
 10
1364.885752395381
 20
-1830.853935390542
 30
0.0
 10
1360.560629928826
 20
-1836.22130468501
 30
0.0
 10
1355.566057369193
 20
-1839.91870816448
 30
0.0
 10
1348.119348528326
 20
-1839.247058984716
 30
0.0
 10
1343.841815672142
 20
-1838.861273894124
 30
0.0
 10
1339.5009903522
 20
-1839.177117719793
 30
0.0
 10
1335.188667257385
 20
-1839.177117719793
 30
0.0
  0
HATCH
  5
8D
330
70
100
AcDbEntity
  8
Layer 1
 62
   246
420
  8590872
440
 33554687
100
AcDbHatch
 10
0.0
 20
0.0
 30
0.0
210
0.0
220
0.0
230
1.0
  2
SOLID
 70
     1
 71
     1
 91
        1
 92
        1
 93
        1
 72
     4
 94
        3
 73
     0
 74
     0
 95
       89
 96
       85
 40
0.0
 40
0.0
 40
0.0
 40
0.0
 40
1.0
 40
1.0
 40
1.0
 40
2.0
 40
2.0
 40
2.0
 40
3.0
 40
3.0
 40
3.0
 40
4.0
 40
4.0
 40
4.0
 40
5.0
 40
5.0
 40
5.0
 40
6.0
 40
6.0
 40
6.0
 40
7.0
 40
7.0
 40
7.0
 40
8.0
 40
8.0
 40
8.0
 40
9.0
 40
9.0
 40
9.0
 40
10.0
 40
10.0
 40
10.0
 40
11.0
 40
11.0
 40
11.0
 40
12.0
 40
12.0
 40
12.0
 40
13.0
 40
13.0
 40
13.0
 40
14.0
 40
14.0
 40
14.0
 40
15.0
 40
15.0
 40
15.0
 40
16.0
 40
16.0
 40
16.0
 40
17.0
 40
17.0
 40
17.0
 40
18.0
 40
18.0
 40
18.0
 40
19.0
 40
19.0
 40
19.0
 40
20.0
 40
20.0
 40
20.0
 40
21.0
 40
21.0
 40
21.0
 40
22.0
 40
22.0
 40
22.0
 40
23.0
 40
23.0
 40
23.0
 40
24.0
 40
24.0
 40
24.0
 40
25.0
 40
25.0
 40
25.0
 40
26.0
 40
26.0
 40
26.0
 40
27.0
 40
27.0
 40
27.0
 40
28.0
 40
28.0
 40
28.0
 40
28.0
 10
1335.188667257385
 20
-1839.177117719793
 10
1312.005998466786
 20
-1837.619219424099
 10
1290.327487790924
 20
-1844.566168634586
 10
1268.582008053243
 20
-1851.114430300548
 10
1249.47983051544
 20
-1856.866742847736
 10
1230.233277782408
 20
-1860.074780817502
 10
1210.372428222261
 20
-1855.168103003963
 10
1205.019859812029
 20
-1853.845730328705
 10
1200.008270101105
 20
-1851.950701735402
 10
1195.558950777729
 20
-1848.656057546903
 10
1193.330034680672
 20
-1847.00557426554
 10
1193.043461901456
 20
-1845.716187890613
 10
1195.804977896125
 20
-1844.178321900223
 10
1201.739939196122
 20
-1840.873111787399
 10
1207.814065745737
 20
-1839.318254416264
 10
1214.693766713477
 20
-1840.656140960896
 10
1226.999091297486
 20
-1843.049142426646
 10
1239.245349787463
 20
-1846.196310364079
 10
1252.012920675406
 20
-1844.407645408983
 10
1256.773857454726
 20
-1843.740634927702
 10
1260.169333203976
 20
-1841.943963922631
 10
1261.119458916069
 20
-1836.829008547154
 10
1261.696401335117
 20
-1833.723039124403
 10
1261.416584734339
 20
-1831.259288916588
 10
1257.893080906928
 20
-1830.139197855968
 10
1253.196003543406
 20
-1828.646069535401
 10
1253.236197006754
 20
-1825.978371217572
 10
1256.125006618989
 20
-1822.599663504321
 10
1260.535979368229
 20
-1817.440640493247
 10
1263.819112712343
 20
-1811.531471215838
 10
1267.308754040823
 20
-1805.749814605644
 10
1268.868756931202
 20
-1803.165200531775
 10
1270.919327956817
 20
-1800.533752783578
 10
1274.5352707368
 20
-1801.793932538423
 10
1278.086374820192
 20
-1803.031554474337
 10
1277.221626930753
 20
-1806.269073950027
 10
1277.162844312741
 20
-1809.017468441112
 10
1276.999725339567
 20
-1816.644004159882
 10
1274.520933722411
 20
-1823.739546345141
 10
1272.139760937796
 20
-1830.860378027324
 10
1271.365029569497
 20
-1833.177167395015
 10
1270.235815735188
 20
-1835.852029924948
 10
1273.241683762691
 20
-1837.266420633836
 10
1276.187772711022
 20
-1838.652652724891
 10
1277.666417984099
 20
-1836.055119016726
 10
1279.03377744447
 20
-1834.124647330934
 10
1283.954414304375
 20
-1827.177491956072
 10
1287.324514654883
 20
-1819.445331354784
 10
1290.015131579297
 20
-1811.418321333555
 10
1291.534030446997
 20
-1806.886879866646
 10
1290.672005645374
 20
-1802.829427482988
 10
1286.656662335728
 20
-1799.889867073261
 10
1282.394591807828
 20
-1796.769689488856
 10
1282.76256086017
 20
-1793.838324113117
 10
1286.358445564299
 20
-1790.357754017232
 10
1289.500751458509
 20
-1787.316210962313
 10
1292.889337881494
 20
-1784.765991978684
 10
1296.80355756418
 20
-1782.861582906227
 10
1302.962117016388
 20
-1779.865189849892
 10
1307.060767914732
 20
-1781.028283363497
 10
1310.044636485163
 20
-1787.22989680978
 10
1314.162993261881
 20
-1795.789395056252
 10
1313.720719131972
 20
-1804.342485026669
 10
1308.785401650384
 20
-1812.491887966416
 10
1306.727417297374
 20
-1815.890129754394
 10
1305.045837555801
 20
-1819.423529471909
 10
1303.833694100816
 20
-1823.178006123098
 10
1302.637940713808
 20
-1826.881714796434
 10
1303.566642511054
 20
-1828.408224565721
 10
1307.848728163895
 20
-1827.484127106234
 10
1322.360002992369
 20
-1824.352507398902
 10
1336.993464574989
 20
-1822.136704215247
 10
1351.919215703201
 20
-1822.71406755323
 10
1355.489604746031
 20
-1822.852180505504
 10
1359.017523927185
 20
-1823.160018281198
 10
1362.48988180872
 20
-1824.107274872376
 10
1366.63034971488
 20
-1825.236815133614
 10
1367.826876218299
 20
-1827.204052799983
 10
1364.885752395381
 20
-1830.853935390542
 10
1360.560629928826
 20
-1836.22130468501
 10
1355.566057369193
 20
-1839.91870816448
 10
1348.119348528326
 20
-1839.247058984716
 10
1343.841815672142
 20
-1838.861273894124
 10
1339.5009903522
 20
-1839.177117719793
 10
1335.188667257385
 20
-1839.177117719793
 97
        0
 97
        1
330
8C
 75
     2
 76
     1
 98
        1
 10
0.0
 20
0.0
450
        0
451
        0
460
0.0
461
0.0
452
        0
462
0.0
453
        0
470

  0
ENDSEC
  0
SECTION
  2
OBJECTS
  0
DICTIONARY
  5
C
330
0
100
AcDbDictionary
281
     1
  3
ACAD_COLOR
350
63
  3
ACAD_DETAILVIEWSTYLE
350
6A
  3
ACAD_GROUP
350
D
  3
ACAD_LAYOUT
350
62
  3
ACAD_MATERIAL
350
10
  3
ACAD_MLEADERSTYLE
350
66
  3
ACAD_MLINESTYLE
350
5F
  3
ACAD_PLOTSETTINGS
350
61
  3
ACAD_PLOTSTYLENAME
350
E
  3
ACAD_SCALELIST
350
42
  3
ACAD_SECTIONVIEWSTYLE
350
68
  3
ACAD_TABLESTYLE
350
64
  3
ACAD_VISUALSTYLE
350
29
  3
ACDB_RECOMPOSE_DATA
350
96
  3
AcDbVariableDictionary
350
8E
  0
DICTIONARY
  5
63
102
{ACAD_REACTORS
330
C
102
}
330
C
100
AcDbDictionary
281
     1
  0
DICTIONARY
  5
6A
102
{ACAD_REACTORS
330
C
102
}
330
C
100
AcDbDictionary
281
     1
  3
Imperial24
350
6B
  0
DICTIONARY
  5
D
102
{ACAD_REACTORS
330
C
102
}
330
C
100
AcDbDictionary
281
     1
  0
DICTIONARY
  5
62
102
{ACAD_REACTORS
330
C
102
}
330
C
100
AcDbDictionary
281
     1
  3
Layout1
350
6F
  3
Layout2
350
77
  3
Model
350
73
  0
DICTIONARY
  5
10
102
{ACAD_REACTORS
330
C
102
}
330
C
100
AcDbDictionary
281
     1
  3
ByBlock
350
19
  3
ByLayer
350
11
  3
Global
350
21
  0
DICTIONARY
  5
66
102
{ACAD_REACTORS
330
C
102
}
330
C
100
AcDbDictionary
281
     1
  3
Standard
350
67
  0
DICTIONARY
  5
5F
102
{ACAD_REACTORS
330
C
102
}
330
C
100
AcDbDictionary
281
     1
  3
Standard
350
60
  0
DICTIONARY
  5
61
102
{ACAD_REACTORS
330
C
102
}
330
C
100
AcDbDictionary
281
     1
  0
ACDBDICTIONARYWDFLT
  5
E
102
{ACAD_REACTORS
330
C
102
}
330
C
100
AcDbDictionary
281
     1
  3
Normal
350
F
100
AcDbDictionaryWithDefault
340
F
  0
DICTIONARY
  5
42
102
{ACAD_REACTORS
330
C
102
}
330
C
100
AcDbDictionary
281
     1
  3
A0
350
43
  3
A1
350
44
  3
A2
350
45
  3
A3
350
46
  3
A4
350
47
  3
A5
350
48
  3
A6
350
49
  3
A7
350
4A
  3
A8
350
4B
  3
A9
350
4C
  3
B0
350
4D
  3
B1
350
4E
  3
B2
350
4F
  3
B3
350
50
  3
B4
350
51
  3
B5
350
52
  3
B6
350
53
  0
DICTIONARY
  5
68
102
{ACAD_REACTORS
330
C
102
}
330
C
100
AcDbDictionary
281
     1
  3
Imperial24
350
69
  0
DICTIONARY
  5
64
102
{ACAD_REACTORS
330
C
102
}
330
C
100
AcDbDictionary
281
     1
  3
Standard
350
65
  0
DICTIONARY
  5
29
102
{ACAD_REACTORS
330
C
102
}
330
C
100
AcDbDictionary
281
     1
  3
2dWireframe
350
2F
  3
Basic
350
2E
  3
Brighten
350
35
  3
ColorChange
350
39
  3
Conceptual
350
32
  3
Dim
350
34
  3
EdgeColorOff
350
41
  3
Facepattern
350
38
  3
Flat
350
2A
  3
FlatWithEdges
350
2B
  3
Gouraud
350
2C
  3
GouraudWithEdges
350
2D
  3
Hidden
350
31
  3
JitterOff
350
3F
  3
Linepattern
350
37
  3
OverhangOff
350
40
  3
Realistic
350
33
  3
Shaded
350
3E
  3
Shaded with edges
350
3D
  3
Shades of Gray
350
3A
  3
Sketchy
350
3B
  3
Thicken
350
36
  3
Wireframe
350
30
  3
X-Ray
350
3C
  0
XRECORD
  5
96
102
{ACAD_REACTORS
330
C
102
}
330
C
100
AcDbXrecord
280
     1
 90
        1
330
65
  0
DICTIONARY
  5
8E
102
{ACAD_REACTORS
330
C
102
}
330
C
100
AcDbDictionary
281
     1
  3
CANNOSCALE
350
93
  3
CMLEADERSTYLE
350
90
  3
CTABLESTYLE
350
8F
  3
CVIEWDETAILSTYLE
350
91
  3
CVIEWSECTIONSTYLE
350
92
  0
ACDBDETAILVIEWSTYLE
  5
6B
102
{ACAD_REACTORS
330
6A
102
}
330
6A
100
AcDbModelDocViewStyle
 70
     0
  3
Imperial24
290
     1
300
Imperial24
 90
        0
100
AcDbDetailViewStyle
 70
     0
 71
     0
 90
        3
 71
     1
340
55
 62
   256
 40
0.24
340
0
 62
   256
 40
0.24
300

 40
0.36
280
     3
 71
     2
340
5D
 90
       25
 62
   256
 71
     3
340
55
 62
   256
 40
0.24
 90
        1
 40
0.75
 90
        1
300
%<\AcVar ViewType \f "%tc1">% %<\AcVar ViewDetailId>%\PSCALE %<\AcVar ViewScale \f "%sn">%
 71
     4
340
5D
 90
       25
 62
   256
340
5D
 90
       25
 62
   256
280
     0
  0
LAYOUT
  5
6F
102
{ACAD_REACTORS
330
62
102
}
330
62
100
AcDbPlotSettings
  1

  2

  4

  6

 40
0.0
 41
0.0
 42
0.0
 43
0.0
 44
0.0
 45
0.0
 46
0.0
 47
0.0
 48
0.0
 49
0.0
140
0.0
141
0.0
142
1.0
143
1.0
 70
   688
 72
     0
 73
     0
 74
     5
  7

 75
    16
147
1.0
 76
     0
 77
     2
 78
   300
148
0.0
149
0.0
100
AcDbLayout
  1
Layout1
 70
     1
 71
     1
 10
0.0
 20
0.0
 11
12.0
 21
9.0
 12
0.0
 22
0.0
 32
0.0
 14
0.0
 24
0.0
 34
0.0
 15
0.0
 25
0.0
 35
0.0
146
0.0
 13
0.0
 23
0.0
 33
0.0
 16
1.0
 26
0.0
 36
0.0
 17
0.0
 27
1.0
 37
0.0
 76
     0
330
6C
  0
LAYOUT
  5
77
102
{ACAD_REACTORS
330
62
102
}
330
62
100
AcDbPlotSettings
  1

  2

  4

  6

 40
0.0
 41
0.0
 42
0.0
 43
0.0
 44
0.0
 45
0.0
 46
0.0
 47
0.0
 48
0.0
 49
0.0
140
0.0
141
0.0
142
1.0
143
1.0
 70
   688
 72
     0
 73
     0
 74
     5
  7

 75
    16
147
1.0
 76
     0
 77
     2
 78
   300
148
0.0
149
0.0
100
AcDbLayout
  1
Layout2
 70
     1
 71
     2
 10
0.0
 20
0.0
 11
12.0
 21
9.0
 12
0.0
 22
0.0
 32
0.0
 14
0.0
 24
0.0
 34
0.0
 15
0.0
 25
0.0
 35
0.0
146
0.0
 13
0.0
 23
0.0
 33
0.0
 16
1.0
 26
0.0
 36
0.0
 17
0.0
 27
1.0
 37
0.0
 76
     0
330
74
  0
LAYOUT
  5
73
102
{ACAD_REACTORS
330
62
102
}
330
62
100
AcDbPlotSettings
  1

  2

  4

  6

 40
0.0
 41
0.0
 42
0.0
 43
0.0
 44
0.0
 45
0.0
 46
0.0
 47
0.0
 48
0.0
 49
0.0
140
0.0
141
0.0
142
1.0
143
1.0
 70
  1712
 72
     0
 73
     0
 74
     0
  7

 75
     0
147
1.0
 76
     0
 77
     2
 78
   300
148
0.0
149
0.0
100
AcDbLayout
  1
Model
 70
     1
 71
     0
 10
0.0
 20
0.0
 11
12.0
 21
9.0
 12
0.0
 22
0.0
 32
0.0
 14
0.0
 24
0.0
 34
0.0
 15
0.0
 25
0.0
 35
0.0
146
0.0
 13
0.0
 23
0.0
 33
0.0
 16
1.0
 26
0.0
 36
0.0
 17
0.0
 27
1.0
 37
0.0
 76
     0
330
70
  0
MATERIAL
  5
19
102
{ACAD_XDICTIONARY
360
1A
102
}
102
{ACAD_REACTORS
330
10
102
}
330
10
100
AcDbMaterial
  1
ByBlock
 72
     0
 43
0.0208333333333333
 43
0.0
 43
0.0
 43
0.0
 43
0.0
 43
0.0208333333333333
 43
0.0
 43
0.0
 43
0.0
 43
0.0
 43
1.0
 43
0.0
 43
0.0
 43
0.0
 43
0.0
 43
1.0
 77
     0
 47
0.0208333333333333
 47
0.0
 47
0.0
 47
0.0
 47
0.0
 47
0.0208333333333333
 47
0.0
 47
0.0
 47
0.0
 47
0.0
 47
1.0
 47
0.0
 47
0.0
 47
0.0
 47
0.0
 47
1.0
171
     0
 49
0.0208333333333333
 49
0.0
 49
0.0
 49
0.0
 49
0.0
 49
0.0208333333333333
 49
0.0
 49
0.0
 49
0.0
 49
0.0
 49
1.0
 49
0.0
 49
0.0
 49
0.0
 49
0.0
 49
1.0
175
     0
142
0.0208333333333333
142
0.0
142
0.0
142
0.0
142
0.0
142
0.0208333333333333
142
0.0
142
0.0
142
0.0
142
0.0
142
1.0
142
0.0
142
0.0
142
0.0
142
0.0
142
1.0
179
     0
144
0.0208333333333333
144
0.0
144
0.0
144
0.0
144
0.0
144
0.0208333333333333
144
0.0
144
0.0
144
0.0
144
0.0
144
1.0
144
0.0
144
0.0
144
0.0
144
0.0
144
1.0
147
0.0208333333333333
147
0.0
147
0.0
147
0.0
147
0.0
147
0.0208333333333333
147
0.0
147
0.0
147
0.0
147
0.0
147
1.0
147
0.0
147
0.0
147
0.0
147
0.0
147
1.0
  0
MATERIAL
  5
11
102
{ACAD_XDICTIONARY
360
12
102
}
102
{ACAD_REACTORS
330
10
102
}
330
10
100
AcDbMaterial
  1
ByLayer
 72
     0
 43
0.0208333333333333
 43
0.0
 43
0.0
 43
0.0
 43
0.0
 43
0.0208333333333333
 43
0.0
 43
0.0
 43
0.0
 43
0.0
 43
1.0
 43
0.0
 43
0.0
 43
0.0
 43
0.0
 43
1.0
 77
     0
 47
0.0208333333333333
 47
0.0
 47
0.0
 47
0.0
 47
0.0
 47
0.0208333333333333
 47
0.0
 47
0.0
 47
0.0
 47
0.0
 47
1.0
 47
0.0
 47
0.0
 47
0.0
 47
0.0
 47
1.0
171
     0
 49
0.0208333333333333
 49
0.0
 49
0.0
 49
0.0
 49
0.0
 49
0.0208333333333333
 49
0.0
 49
0.0
 49
0.0
 49
0.0
 49
1.0
 49
0.0
 49
0.0
 49
0.0
 49
0.0
 49
1.0
175
     0
142
0.0208333333333333
142
0.0
142
0.0
142
0.0
142
0.0
142
0.0208333333333333
142
0.0
142
0.0
142
0.0
142
0.0
142
1.0
142
0.0
142
0.0
142
0.0
142
0.0
142
1.0
179
     0
144
0.0208333333333333
144
0.0
144
0.0
144
0.0
144
0.0
144
0.0208333333333333
144
0.0
144
0.0
144
0.0
144
0.0
144
1.0
144
0.0
144
0.0
144
0.0
144
0.0
144
1.0
147
0.0208333333333333
147
0.0
147
0.0
147
0.0
147
0.0
147
0.0208333333333333
147
0.0
147
0.0
147
0.0
147
0.0
147
1.0
147
0.0
147
0.0
147
0.0
147
0.0
147
1.0
  0
MATERIAL
  5
21
102
{ACAD_XDICTIONARY
360
22
102
}
102
{ACAD_REACTORS
330
10
102
}
330
10
100
AcDbMaterial
  1
Global
 72
     0
 43
0.0208333333333333
 43
0.0
 43
0.0
 43
0.0
 43
0.0
 43
0.0208333333333333
 43
0.0
 43
0.0
 43
0.0
 43
0.0
 43
1.0
 43
0.0
 43
0.0
 43
0.0
 43
0.0
 43
1.0
 77
     0
 47
0.0208333333333333
 47
0.0
 47
0.0
 47
0.0
 47
0.0
 47
0.0208333333333333
 47
0.0
 47
0.0
 47
0.0
 47
0.0
 47
1.0
 47
0.0
 47
0.0
 47
0.0
 47
0.0
 47
1.0
171
     0
 49
0.0208333333333333
 49
0.0
 49
0.0
 49
0.0
 49
0.0
 49
0.0208333333333333
 49
0.0
 49
0.0
 49
0.0
 49
0.0
 49
1.0
 49
0.0
 49
0.0
 49
0.0
 49
0.0
 49
1.0
175
     0
142
0.0208333333333333
142
0.0
142
0.0
142
0.0
142
0.0
142
0.0208333333333333
142
0.0
142
0.0
142
0.0
142
0.0
142
1.0
142
0.0
142
0.0
142
0.0
142
0.0
142
1.0
179
     0
144
0.0208333333333333
144
0.0
144
0.0
144
0.0
144
0.0
144
0.0208333333333333
144
0.0
144
0.0
144
0.0
144
0.0
144
1.0
144
0.0
144
0.0
144
0.0
144
0.0
144
1.0
147
0.0208333333333333
147
0.0
147
0.0
147
0.0
147
0.0
147
0.0208333333333333
147
0.0
147
0.0
147
0.0
147
0.0
147
1.0
147
0.0
147
0.0
147
0.0
147
0.0
147
1.0
  0
MLEADERSTYLE
  5
67
102
{ACAD_REACTORS
330
66
102
}
330
66
100
AcDbMLeaderStyle
179
     2
170
     2
171
     1
172
     0
 90
        2
 40
0.0
 41
0.0
173
     1
 91
-1056964608
340
5B
 92
       -2
290
     1
 42
0.09
291
     1
 43
0.36
  3
Standard
 44
0.18
300

342
55
174
     1
178
     6
175
     1
176
     0
 93
-1056964608
 45
0.18
292
     0
297
     0
 46
0.18
 94
-1056964608
 47
1.0
 49
1.0
140
1.0
293
     1
141
0.0
294
     1
177
     0
142
1.0
295
     1
296
     0
143
0.125
271
     0
272
     9
273
     9
298
     1
  0
MLINESTYLE
  5
60
102
{ACAD_REACTORS
330
5F
102
}
330
5F
100
AcDbMlineStyle
  2
STANDARD
 70
     0
  3

 62
   256
 51
90.0
 52
90.0
 71
     2
 49
0.5
 62
   256
  6
BYLAYER
 49
-0.5
 62
   256
  6
BYLAYER
  0
ACDBPLACEHOLDER
  5
F
102
{ACAD_REACTORS
330
E
102
}
330
E
  0
SCALE
  5
43
102
{ACAD_REACTORS
330
42
102
}
330
42
100
AcDbScale
 70
     0
300
1:1
140
1.0
141
1.0
290
     1
  0
SCALE
  5
44
102
{ACAD_REACTORS
330
42
102
}
330
42
100
AcDbScale
 70
     0
300
1/128" = 1'-0"
140
0.0078125
141
12.0
290
     0
  0
SCALE
  5
45
102
{ACAD_REACTORS
330
42
102
}
330
42
100
AcDbScale
 70
     0
300
1/64" = 1'-0"
140
0.015625
141
12.0
290
     0
  0
SCALE
  5
46
102
{ACAD_REACTORS
330
42
102
}
330
42
100
AcDbScale
 70
     0
300
1/32" = 1'-0"
140
0.03125
141
12.0
290
     0
  0
SCALE
  5
47
102
{ACAD_REACTORS
330
42
102
}
330
42
100
AcDbScale
 70
     0
300
1/16" = 1'-0"
140
0.0625
141
12.0
290
     0
  0
SCALE
  5
48
102
{ACAD_REACTORS
330
42
102
}
330
42
100
AcDbScale
 70
     0
300
3/32" = 1'-0"
140
0.09375
141
12.0
290
     0
  0
SCALE
  5
49
102
{ACAD_REACTORS
330
42
102
}
330
42
100
AcDbScale
 70
     0
300
1/8" = 1'-0"
140
0.125
141
12.0
290
     0
  0
SCALE
  5
4A
102
{ACAD_REACTORS
330
42
102
}
330
42
100
AcDbScale
 70
     0
300
3/16" = 1'-0"
140
0.1875
141
12.0
290
     0
  0
SCALE
  5
4B
102
{ACAD_REACTORS
330
42
102
}
330
42
100
AcDbScale
 70
     0
300
1/4" = 1'-0"
140
0.25
141
12.0
290
     0
  0
SCALE
  5
4C
102
{ACAD_REACTORS
330
42
102
}
330
42
100
AcDbScale
 70
     0
300
3/8" = 1'-0"
140
0.375
141
12.0
290
     0
  0
SCALE
  5
4D
102
{ACAD_REACTORS
330
42
102
}
330
42
100
AcDbScale
 70
     0
300
1/2" = 1'-0"
140
0.5
141
12.0
290
     0
  0
SCALE
  5
4E
102
{ACAD_REACTORS
330
42
102
}
330
42
100
AcDbScale
 70
     0
300
3/4" = 1'-0"
140
0.75
141
12.0
290
     0
  0
SCALE
  5
4F
102
{ACAD_REACTORS
330
42
102
}
330
42
100
AcDbScale
 70
     0
300
1" = 1'-0"
140
1.0
141
12.0
290
     0
  0
SCALE
  5
50
102
{ACAD_REACTORS
330
42
102
}
330
42
100
AcDbScale
 70
     0
300
1-1/2" = 1'-0"
140
1.5
141
12.0
290
     0
  0
SCALE
  5
51
102
{ACAD_REACTORS
330
42
102
}
330
42
100
AcDbScale
 70
     0
300
3" = 1'-0"
140
3.0
141
12.0
290
     0
  0
SCALE
  5
52
102
{ACAD_REACTORS
330
42
102
}
330
42
100
AcDbScale
 70
     0
300
6" = 1'-0"
140
6.0
141
12.0
290
     0
  0
SCALE
  5
53
102
{ACAD_REACTORS
330
42
102
}
330
42
100
AcDbScale
 70
     0
300
1'-0" = 1'-0"
140
12.0
141
12.0
290
     0
  0
ACDBSECTIONVIEWSTYLE
  5
69
102
{ACAD_REACTORS
330
68
102
}
330
68
100
AcDbModelDocViewStyle
 70
     0
  3
Imperial24
290
     1
300
Imperial24
 90
        0
100
AcDbSectionViewStyle
 70
     0
 71
     0
 90
       78
 71
     1
340
55
 62
   256
 40
0.24
340
0
340
0
 62
   256
 40
0.24
300
I, O, Q, S, X, Z
 40
0.48
 90
        3
 40
0.18
 90
        1
 71
     2
340
5D
 90
       25
 62
   256
340
5D
 90
       50
 62
   256
 40
0.24
 40
0.0
 40
0.24
 71
     3
340
55
 62
   256
 40
0.24
 90
        1
 40
0.75
 90
        1
300
%<\AcVar ViewType \f "%tc1">% %<\AcVar ViewSectionStartId>%-%<\AcVar ViewSectionEndId>%\PSCALE %<\AcVar ViewScale \f "%sn">%
 71
     4
 62
   256
 62
   257
300
ANSI31
 40
1.0
 90
        0
290
     0
290
     0
 90
        6
 40
0.0
 40
1.570796326794896
 40
0.2617993877991494
 40
1.308996938995747
 40
-0.2617993877991494
 40
1.832595714594046
  0
TABLESTYLE
  5
65
102
{ACAD_XDICTIONARY
360
94
102
}
102
{ACAD_REACTORS
330
64
102
}
330
64
100
AcDbTableStyle
280
     0
  3
Standard
 70
     0
 71
     0
 40
0.06
 41
0.06
280
     0
281
     0
  7
Standard
140
0.18
170
     2
 62
     0
 63
     7
283
     0
 90
      512
 91
        0
  1

274
    -2
284
     1
 64
     0
275
    -2
285
     1
 65
     0
276
    -2
286
     1
 66
     0
277
    -2
287
     1
 67
     0
278
    -2
288
     1
 68
     0
279
    -2
289
     1
 69
     0
  7
Standard
140
0.25
170
     5
 62
     0
 63
     7
283
     0
 90
      512
 91
        0
  1

274
    -2
284
     1
 64
     0
275
    -2
285
     1
 65
     0
276
    -2
286
     1
 66
     0
277
    -2
287
     1
 67
     0
278
    -2
288
     1
 68
     0
279
    -2
289
     1
 69
     0
  7
Standard
140
0.18
170
     5
 62
     0
 63
     7
283
     0
 90
      512
 91
        0
  1

274
    -2
284
     1
 64
     0
275
    -2
285
     1
 65
     0
276
    -2
286
     1
 66
     0
277
    -2
287
     1
 67
     0
278
    -2
288
     1
 68
     0
279
    -2
289
     1
 69
     0
  0
VISUALSTYLE
  5
2F
102
{ACAD_REACTORS
330
29
102
}
330
29
100
AcDbVisualStyle
  2
2dWireframe
 70
     4
177
     3
291
     0
 70
    58
 90
        0
176
     1
 90
        2
176
     1
 90
        0
176
     1
 90
        0
176
     1
 40
0.6
176
     1
 40
30.0
176
     1
 62
     7
420
 16777215
176
     1
 90
        1
176
     1
 90
        4
176
     1
 62
     7
176
     1
 62
   257
176
     1
 90
        1
176
     1
 90
        1
176
     1
 40
1.0
176
     1
 90
        0
176
     1
 62
   257
176
     1
 40
1.0
176
     1
 90
        1
176
     1
 90
        6
176
     1
 90
        2
176
     1
 62
     7
176
     1
 90
        5
176
     1
 90
        0
176
     1
 90
        0
176
     1
290
     0
176
     1
 90
        1
176
     1
 40
0.0
176
     1
 90
        0
176
     1
290
     1
176
     1
290
     1
176
     1
290
     0
176
     1
290
     0
176
     1
290
     0
176
     1
290
     0
176
     1
290
     0
176
     1
290
     0
176
     1
290
     0
176
     1
 90
       50
176
     1
 40
0.0
176
     1
 40
1.0
176
     1
 90
        0
176
     1
 62
    18
420
        0
176
     1
 90
       50
176
     1
 90
        3
176
     1
 62
     5
420
      255
176
     1
290
     0
176
     1
 90
       50
176
     1
 90
       50
176
     1
 90
       50
176
     1
290
     0
176
     1
 90
       50
176
     1
 62
   256
176
     0
 40
1.0
176
     0
 90
        2
176
     1
  1
strokes_ogs.tif
176
     1
290
     0
176
     1
 40
1.0
176
     1
 40
1.0
176
     1
  0
VISUALSTYLE
  5
2E
102
{ACAD_REACTORS
330
29
102
}
330
29
100
AcDbVisualStyle
  2
Basic
 70
     7
177
     3
291
     1
 70
    58
 90
        1
176
     1
 90
        0
176
     1
 90
        1
176
     1
 90
        0
176
     1
 40
0.6
176
     1
 40
30.0
176
     1
 62
     7
420
 16777215
176
     1
 90
        0
176
     1
 90
        4
176
     1
 62
     7
176
     1
 62
   257
176
     1
 90
        1
176
     1
 90
        1
176
     1
 40
1.0
176
     1
 90
        8
176
     1
 62
     7
176
     1
 40
1.0
176
     1
 90
        1
176
     1
 90
        6
176
     1
 90
        2
176
     1
 62
     7
176
     1
 90
        5
176
     1
 90
        0
176
     1
 90
        0
176
     1
290
     0
176
     1
 90
        1
176
     1
 40
0.0
176
     1
 90
        0
176
     1
290
     0
176
     1
290
     1
176
     1
290
     1
176
     1
290
     0
176
     1
290
     0
176
     1
290
     0
176
     1
290
     0
176
     1
290
     0
176
     1
290
     0
176
     1
 90
       50
176
     1
 40
0.0
176
     1
 40
1.0
176
     1
 90
        0
176
     1
 62
    18
420
        0
176
     1
 90
       50
176
     1
 90
        3
176
     1
 62
     5
420
      255
176
     1
290
     0
176
     1
 90
       50
176
     1
 90
       50
176
     1
 90
       50
176
     1
290
     0
176
     1
 90
       50
176
     1
 62
   256
176
     0
 40
1.0
176
     0
 90
        2
176
     1
  1
strokes_ogs.tif
176
     1
290
     0
176
     1
 40
1.0
176
     1
 40
1.0
176
     1
  0
VISUALSTYLE
  5
35
102
{ACAD_REACTORS
330
29
102
}
330
29
100
AcDbVisualStyle
  2
Brighten
 70
    12
177
     3
291
     1
 70
    58
 90
        2
176
     1
 90
        2
176
     1
 90
        0
176
     1
 90
        0
176
     1
 40
0.6
176
     1
 40
30.0
176
     1
 62
     7
420
 16777215
176
     1
 90
        1
176
     1
 90
        4
176
     1
 62
     7
176
     1
 62
   257
176
     1
 90
        1
176
     1
 90
        1
176
     1
 40
1.0
176
     1
 90
        8
176
     1
 62
     7
176
     1
 40
1.0
176
     1
 90
        1
176
     1
 90
        6
176
     1
 90
        2
176
     1
 62
     7
176
     1
 90
        5
176
     1
 90
        0
176
     1
 90
        0
176
     1
290
     0
176
     1
 90
        1
176
     1
 40
50.0
176
     1
 90
        0
176
     1
290
     0
176
     1
290
     1
176
     1
290
     1
176
     1
290
     0
176
     1
290
     0
176
     1
290
     0
176
     1
290
     0
176
     1
290
     0
176
     1
290
     0
176
     1
 90
       50
176
     1
 40
0.0
176
     1
 40
1.0
176
     1
 90
        0
176
     1
 62
    18
420
        0
176
     1
 90
       50
176
     1
 90
        3
176
     1
 62
     5
420
      255
176
     1
290
     0
176
     1
 90
       50
176
     1
 90
       50
176
     1
 90
       50
176
     1
290
     0
176
     1
 90
       50
176
     1
 62
   256
176
     0
 40
1.0
176
     0
 90
        2
176
     1
  1
strokes_ogs.tif
176
     1
290
     0
176
     1
 40
1.0
176
     1
 40
1.0
176
     1
  0
VISUALSTYLE
  5
39
102
{ACAD_REACTORS
330
29
102
}
330
29
100
AcDbVisualStyle
  2
ColorChange
 70
    16
177
     3
291
     1
 70
    58
 90
        2
176
     1
 90
        2
176
     1
 90
        3
176
     1
 90
        0
176
     1
 40
0.6
176
     1
 40
30.0
176
     1
 62
     8
420
  8421504
176
     1
 90
        1
176
     1
 90
        4
176
     1
 62
     7
176
     1
 62
   257
176
     1
 90
        1
176
     1
 90
        1
176
     1
 40
1.0
176
     1
 90
        8
176
     1
 62
     8
420
  8421504
176
     1
 40
1.0
176
     1
 90
        1
176
     1
 90
        6
176
     1
 90
        2
176
     1
 62
     7
176
     1
 90
        5
176
     1
 90
        0
176
     1
 90
        0
176
     1
290
     0
176
     1
 90
        1
176
     1
 40
0.0
176
     1
 90
        0
176
     1
290
     0
176
     1
290
     1
176
     1
290
     1
176
     1
290
     0
176
     1
290
     0
176
     1
290
     0
176
     1
290
     0
176
     1
290
     0
176
     1
290
     0
176
     1
 90
       50
176
     1
 40
0.0
176
     1
 40
1.0
176
     1
 90
        0
176
     1
 62
    18
420
        0
176
     1
 90
       50
176
     1
 90
        3
176
     1
 62
     5
420
      255
176
     1
290
     0
176
     1
 90
       50
176
     1
 90
       50
176
     1
 90
       50
176
     1
290
     0
176
     1
 90
       50
176
     1
 62
   256
176
     0
 40
1.0
176
     0
 90
        2
176
     1
  1
strokes_ogs.tif
176
     1
290
     0
176
     1
 40
1.0
176
     1
 40
1.0
176
     1
  0
VISUALSTYLE
  5
32
102
{ACAD_REACTORS
330
29
102
}
330
29
100
AcDbVisualStyle
  2
Conceptual
 70
     9
177
     3
291
     0
 70
    58
 90
        3
176
     1
 90
        2
176
     1
 90
        0
176
     1
 90
        0
176
     1
 40
0.6
176
     1
 40
30.0
176
     1
 62
     7
420
 16777215
176
     1
 90
        2
176
     1
 90
        2
176
     1
 62
     7
176
     1
 62
   257
176
     1
 90
        1
176
     1
 90
        1
176
     1
 40
179.0
176
     1
 90
        8
176
     1
 62
     7
176
     1
 40
1.0
176
     1
 90
        1
176
     1
 90
        6
176
     1
 90
        2
176
     1
 62
     7
176
     1
 90
        3
176
     1
 90
        0
176
     1
 90
        0
176
     1
290
     0
176
     1
 90
        1
176
     1
 40
0.0
176
     1
 90
        0
176
     1
290
     0
176
     1
290
     1
176
     1
290
     1
176
     1
290
     0
176
     1
290
     0
176
     1
290
     0
176
     1
290
     0
176
     1
290
     0
176
     1
290
     0
176
     1
 90
       50
176
     1
 40
0.0
176
     1
 40
1.0
176
     1
 90
        0
176
     1
 62
    18
420
        0
176
     1
 90
       50
176
     1
 90
        3
176
     1
 62
     5
420
      255
176
     1
290
     0
176
     1
 90
       50
176
     1
 90
       50
176
     1
 90
       50
176
     1
290
     0
176
     1
 90
       50
176
     1
 62
   256
176
     0
 40
1.0
176
     0
 90
        2
176
     1
  1
strokes_ogs.tif
176
     1
290
     0
176
     1
 40
1.0
176
     1
 40
1.0
176
     1
  0
VISUALSTYLE
  5
34
102
{ACAD_REACTORS
330
29
102
}
330
29
100
AcDbVisualStyle
  2
Dim
 70
    11
177
     3
291
     1
 70
    58
 90
        2
176
     1
 90
        2
176
     1
 90
        0
176
     1
 90
        0
176
     1
 40
0.6
176
     1
 40
30.0
176
     1
 62
     7
420
 16777215
176
     1
 90
        1
176
     1
 90
        4
176
     1
 62
     7
176
     1
 62
   257
176
     1
 90
        1
176
     1
 90
        1
176
     1
 40
1.0
176
     1
 90
        8
176
     1
 62
     7
176
     1
 40
1.0
176
     1
 90
        1
176
     1
 90
        6
176
     1
 90
        2
176
     1
 62
     7
176
     1
 90
        5
176
     1
 90
        0
176
     1
 90
        0
176
     1
290
     0
176
     1
 90
        1
176
     1
 40
-50.0
176
     1
 90
        0
176
     1
290
     0
176
     1
290
     1
176
     1
290
     1
176
     1
290
     0
176
     1
290
     0
176
     1
290
     0
176
     1
290
     0
176
     1
290
     0
176
     1
290
     0
176
     1
 90
       50
176
     1
 40
0.0
176
     1
 40
1.0
176
     1
 90
        0
176
     1
 62
    18
420
        0
176
     1
 90
       50
176
     1
 90
        3
176
     1
 62
     5
420
      255
176
     1
290
     0
176
     1
 90
       50
176
     1
 90
       50
176
     1
 90
       50
176
     1
290
     0
176
     1
 90
       50
176
     1
 62
   256
176
     0
 40
1.0
176
     0
 90
        2
176
     1
  1
strokes_ogs.tif
176
     1
290
     0
176
     1
 40
1.0
176
     1
 40
1.0
176
     1
  0
VISUALSTYLE
  5
41
102
{ACAD_REACTORS
330
29
102
}
330
29
100
AcDbVisualStyle
  2
EdgeColorOff
 70
    22
177
     3
291
     1
 70
    58
 90
        2
176
     0
 90
        2
176
     0
 90
        0
176
     0
 90
        0
176
     0
 40
0.6
176
     0
 40
30.0
176
     0
 62
     7
420
 16777215
176
     0
 90
        1
176
     0
 90
        4
176
     0
 62
     7
176
     0
 62
   257
176
     0
 90
        1
176
     0
 90
        1
176
     0
 40
1.0
176
     0
 90
        8
176
     2
 62
     7
176
     0
 40
1.0
176
     0
 90
        1
176
     0
 90
        6
176
     0
 90
        2
176
     0
 62
     7
176
     0
 90
        5
176
     0
 90
        0
176
     0
 90
        0
176
     0
290
     0
176
     0
 90
        1
176
     0
 40
0.0
176
     0
 90
        0
176
     0
290
     0
176
     0
290
     1
176
     0
290
     1
176
     0
290
     0
176
     0
290
     0
176
     0
290
     0
176
     0
290
     0
176
     0
290
     0
176
     0
290
     0
176
     0
 90
       50
176
     0
 40
0.0
176
     0
 40
1.0
176
     0
 90
        0
176
     0
 62
    18
420
        0
176
     0
 90
       50
176
     0
 90
        3
176
     0
 62
     5
420
      255
176
     0
290
     0
176
     0
 90
       50
176
     0
 90
       50
176
     0
 90
       50
176
     0
290
     0
176
     0
 90
       50
176
     0
 62
   256
176
     0
 40
1.0
176
     0
 90
        2
176
     0
  1
strokes_ogs.tif
176
     0
290
     0
176
     0
 40
1.0
176
     0
 40
1.0
176
     0
  0
VISUALSTYLE
  5
38
102
{ACAD_REACTORS
330
29
102
}
330
29
100
AcDbVisualStyle
  2
Facepattern
 70
    15
177
     3
291
     1
 70
    58
 90
        2
176
     1
 90
        2
176
     1
 90
        0
176
     1
 90
        0
176
     1
 40
0.6
176
     1
 40
30.0
176
     1
 62
     7
420
 16777215
176
     1
 90
        1
176
     1
 90
        4
176
     1
 62
     7
176
     1
 62
   257
176
     1
 90
        1
176
     1
 90
        1
176
     1
 40
1.0
176
     1
 90
        8
176
     1
 62
     7
176
     1
 40
1.0
176
     1
 90
        1
176
     1
 90
        6
176
     1
 90
        2
176
     1
 62
     7
176
     1
 90
        5
176
     1
 90
        0
176
     1
 90
        0
176
     1
290
     0
176
     1
 90
        1
176
     1
 40
0.0
176
     1
 90
        0
176
     1
290
     0
176
     1
290
     1
176
     1
290
     1
176
     1
290
     0
176
     1
290
     0
176
     1
290
     0
176
     1
290
     0
176
     1
290
     0
176
     1
290
     0
176
     1
 90
       50
176
     1
 40
0.0
176
     1
 40
1.0
176
     1
 90
        0
176
     1
 62
    18
420
        0
176
     1
 90
       50
176
     1
 90
        3
176
     1
 62
     5
420
      255
176
     1
290
     0
176
     1
 90
       50
176
     1
 90
       50
176
     1
 90
       50
176
     1
290
     0
176
     1
 90
       50
176
     1
 62
   256
176
     0
 40
1.0
176
     0
 90
        2
176
     1
  1
strokes_ogs.tif
176
     1
290
     0
176
     1
 40
1.0
176
     1
 40
1.0
176
     1
  0
VISUALSTYLE
  5
2A
102
{ACAD_REACTORS
330
29
102
}
330
29
100
AcDbVisualStyle
  2
Flat
 70
     0
177
     3
291
     1
 70
    58
 90
        2
176
     1
 90
        1
176
     1
 90
        1
176
     1
 90
        2
176
     1
 40
0.6
176
     1
 40
30.0
176
     1
 62
     7
420
 16777215
176
     1
 90
        0
176
     1
 90
        0
176
     1
 62
     7
176
     1
 62
   257
176
     1
 90
        1
176
     1
 90
        1
176
     1
 40
1.0
176
     1
 90
        8
176
     1
 62
     7
176
     1
 40
1.0
176
     1
 90
        1
176
     1
 90
        6
176
     1
 90
        2
176
     1
 62
     7
176
     1
 90
        5
176
     1
 90
        0
176
     1
 90
        0
176
     1
290
     0
176
     1
 90
       13
176
     1
 40
0.0
176
     1
 90
        0
176
     1
290
     0
176
     1
290
     1
176
     1
290
     1
176
     1
290
     0
176
     1
290
     0
176
     1
290
     0
176
     1
290
     0
176
     1
290
     0
176
     1
290
     0
176
     1
 90
       50
176
     1
 40
0.0
176
     1
 40
1.0
176
     1
 90
        0
176
     1
 62
    18
420
        0
176
     1
 90
       50
176
     1
 90
        3
176
     1
 62
     5
420
      255
176
     1
290
     0
176
     1
 90
       50
176
     1
 90
       50
176
     1
 90
       50
176
     1
290
     0
176
     1
 90
       50
176
     1
 62
   256
176
     0
 40
1.0
176
     0
 90
        2
176
     1
  1
strokes_ogs.tif
176
     1
290
     0
176
     1
 40
1.0
176
     1
 40
1.0
176
     1
  0
VISUALSTYLE
  5
2B
102
{ACAD_REACTORS
330
29
102
}
330
29
100
AcDbVisualStyle
  2
FlatWithEdges
 70
     1
177
     3
291
     1
 70
    58
 90
        2
176
     1
 90
        1
176
     1
 90
        1
176
     1
 90
        2
176
     1
 40
0.6
176
     1
 40
30.0
176
     1
 62
     7
420
 16777215
176
     1
 90
        1
176
     1
 90
        0
176
     1
 62
     7
176
     1
 62
   257
176
     1
 90
        1
176
     1
 90
        1
176
     1
 40
1.0
176
     1
 90
        0
176
     1
 62
   257
176
     1
 40
1.0
176
     1
 90
        1
176
     1
 90
        6
176
     1
 90
        2
176
     1
 62
     7
176
     1
 90
        5
176
     1
 90
        0
176
     1
 90
        0
176
     1
290
     0
176
     1
 90
       13
176
     1
 40
0.0
176
     1
 90
        0
176
     1
290
     0
176
     1
290
     1
176
     1
290
     1
176
     1
290
     0
176
     1
290
     0
176
     1
290
     0
176
     1
290
     0
176
     1
290
     0
176
     1
290
     0
176
     1
 90
       50
176
     1
 40
0.0
176
     1
 40
1.0
176
     1
 90
        0
176
     1
 62
    18
420
        0
176
     1
 90
       50
176
     1
 90
        3
176
     1
 62
     5
420
      255
176
     1
290
     0
176
     1
 90
       50
176
     1
 90
       50
176
     1
 90
       50
176
     1
290
     0
176
     1
 90
       50
176
     1
 62
   256
176
     0
 40
1.0
176
     0
 90
        2
176
     1
  1
strokes_ogs.tif
176
     1
290
     0
176
     1
 40
1.0
176
     1
 40
1.0
176
     1
  0
VISUALSTYLE
  5
2C
102
{ACAD_REACTORS
330
29
102
}
330
29
100
AcDbVisualStyle
  2
Gouraud
 70
     2
177
     3
291
     1
 70
    58
 90
        2
176
     1
 90
        2
176
     1
 90
        1
176
     1
 90
        2
176
     1
 40
0.6
176
     1
 40
30.0
176
     1
 62
     7
420
 16777215
176
     1
 90
        0
176
     1
 90
        0
176
     1
 62
     7
176
     1
 62
   257
176
     1
 90
        1
176
     1
 90
        1
176
     1
 40
1.0
176
     1
 90
        0
176
     1
 62
     7
176
     1
 40
1.0
176
     1
 90
        1
176
     1
 90
        6
176
     1
 90
        2
176
     1
 62
     7
176
     1
 90
        5
176
     1
 90
        0
176
     1
 90
        0
176
     1
290
     0
176
     1
 90
       13
176
     1
 40
0.0
176
     1
 90
        0
176
     1
290
     0
176
     1
290
     1
176
     1
290
     1
176
     1
290
     0
176
     1
290
     0
176
     1
290
     0
176
     1
290
     0
176
     1
290
     0
176
     1
290
     0
176
     1
 90
       50
176
     1
 40
0.0
176
     1
 40
1.0
176
     1
 90
        0
176
     1
 62
    18
420
        0
176
     1
 90
       50
176
     1
 90
        3
176
     1
 62
     5
420
      255
176
     1
290
     0
176
     1
 90
       50
176
     1
 90
       50
176
     1
 90
       50
176
     1
290
     0
176
     1
 90
       50
176
     1
 62
   256
176
     0
 40
1.0
176
     0
 90
        2
176
     1
  1
strokes_ogs.tif
176
     1
290
     0
176
     1
 40
1.0
176
     1
 40
1.0
176
     1
  0
VISUALSTYLE
  5
2D
102
{ACAD_REACTORS
330
29
102
}
330
29
100
AcDbVisualStyle
  2
GouraudWithEdges
 70
     3
177
     3
291
     1
 70
    58
 90
        2
176
     1
 90
        2
176
     1
 90
        1
176
     1
 90
        2
176
     1
 40
0.6
176
     1
 40
30.0
176
     1
 62
     7
420
 16777215
176
     1
 90
        1
176
     1
 90
        0
176
     1
 62
     7
176
     1
 62
   257
176
     1
 90
        1
176
     1
 90
        1
176
     1
 40
1.0
176
     1
 90
        0
176
     1
 62
   257
176
     1
 40
1.0
176
     1
 90
        1
176
     1
 90
        6
176
     1
 90
        2
176
     1
 62
     7
176
     1
 90
        5
176
     1
 90
        0
176
     1
 90
        0
176
     1
290
     0
176
     1
 90
       13
176
     1
 40
0.0
176
     1
 90
        0
176
     1
290
     0
176
     1
290
     1
176
     1
290
     1
176
     1
290
     0
176
     1
290
     0
176
     1
290
     0
176
     1
290
     0
176
     1
290
     0
176
     1
290
     0
176
     1
 90
       50
176
     1
 40
0.0
176
     1
 40
1.0
176
     1
 90
        0
176
     1
 62
    18
420
        0
176
     1
 90
       50
176
     1
 90
        3
176
     1
 62
     5
420
      255
176
     1
290
     0
176
     1
 90
       50
176
     1
 90
       50
176
     1
 90
       50
176
     1
290
     0
176
     1
 90
       50
176
     1
 62
   256
176
     0
 40
1.0
176
     0
 90
        2
176
     1
  1
strokes_ogs.tif
176
     1
290
     0
176
     1
 40
1.0
176
     1
 40
1.0
176
     1
  0
VISUALSTYLE
  5
31
102
{ACAD_REACTORS
330
29
102
}
330
29
100
AcDbVisualStyle
  2
Hidden
 70
     6
177
     3
291
     0
 70
    58
 90
        1
176
     1
 90
        2
176
     1
 90
        2
176
     1
 90
        0
176
     1
 40
0.6
176
     1
 40
30.0
176
     1
 62
     7
420
 16777215
176
     1
 90
        2
176
     1
 90
        2
176
     1
 62
     7
176
     1
 62
   257
176
     1
 90
        2
176
     1
 90
        1
176
     1
 40
40.0
176
     1
 90
        0
176
     1
 62
   257
176
     1
 40
1.0
176
     1
 90
        1
176
     1
 90
        6
176
     1
 90
        2
176
     1
 62
     7
176
     1
 90
        3
176
     1
 90
        0
176
     1
 90
        0
176
     1
290
     0
176
     1
 90
        1
176
     1
 40
0.0
176
     1
 90
        0
176
     1
290
     0
176
     1
290
     1
176
     1
290
     1
176
     1
290
     0
176
     1
290
     0
176
     1
290
     0
176
     1
290
     0
176
     1
290
     0
176
     1
290
     0
176
     1
 90
       50
176
     1
 40
0.0
176
     1
 40
1.0
176
     1
 90
        0
176
     1
 62
    18
420
        0
176
     1
 90
       50
176
     1
 90
        3
176
     1
 62
     5
420
      255
176
     1
290
     0
176
     1
 90
       50
176
     1
 90
       50
176
     1
 90
       50
176
     1
290
     0
176
     1
 90
       50
176
     1
 62
   256
176
     0
 40
1.0
176
     0
 90
        2
176
     1
  1
strokes_ogs.tif
176
     1
290
     0
176
     1
 40
1.0
176
     1
 40
1.0
176
     1
  0
VISUALSTYLE
  5
3F
102
{ACAD_REACTORS
330
29
102
}
330
29
100
AcDbVisualStyle
  2
JitterOff
 70
    20
177
     3
291
     1
 70
    58
 90
        2
176
     0
 90
        2
176
     0
 90
        0
176
     0
 90
        0
176
     0
 40
0.6
176
     0
 40
30.0
176
     0
 62
     7
420
 16777215
176
     0
 90
        1
176
     0
 90
        4
176
     0
 62
     7
176
     0
 62
   257
176
     0
 90
        1
176
     0
 90
        1
176
     0
 40
1.0
176
     0
 90
       10
176
     2
 62
     7
176
     0
 40
1.0
176
     0
 90
        1
176
     0
 90
        6
176
     0
 90
        2
176
     0
 62
     7
176
     0
 90
        5
176
     0
 90
        0
176
     0
 90
        0
176
     0
290
     0
176
     0
 90
        1
176
     0
 40
0.0
176
     0
 90
        0
176
     0
290
     0
176
     0
290
     1
176
     0
290
     1
176
     0
290
     0
176
     0
290
     0
176
     0
290
     0
176
     0
290
     0
176
     0
290
     0
176
     0
290
     0
176
     0
 90
       50
176
     0
 40
0.0
176
     0
 40
1.0
176
     0
 90
        0
176
     0
 62
    18
420
        0
176
     0
 90
       50
176
     0
 90
        3
176
     0
 62
     5
420
      255
176
     0
290
     0
176
     0
 90
       50
176
     0
 90
       50
176
     0
 90
       50
176
     0
290
     0
176
     0
 90
       50
176
     0
 62
   256
176
     0
 40
1.0
176
     0
 90
        2
176
     0
  1
strokes_ogs.tif
176
     0
290
     0
176
     0
 40
1.0
176
     0
 40
1.0
176
     0
  0
VISUALSTYLE
  5
37
102
{ACAD_REACTORS
330
29
102
}
330
29
100
AcDbVisualStyle
  2
Linepattern
 70
    14
177
     3
291
     1
 70
    58
 90
        2
176
     1
 90
        2
176
     1
 90
        0
176
     1
 90
        0
176
     1
 40
0.6
176
     1
 40
30.0
176
     1
 62
     7
420
 16777215
176
     1
 90
        1
176
     1
 90
        4
176
     1
 62
     7
176
     1
 62
   257
176
     1
 90
        7
176
     1
 90
        7
176
     1
 40
1.0
176
     1
 90
        8
176
     1
 62
     7
176
     1
 40
1.0
176
     1
 90
        1
176
     1
 90
        6
176
     1
 90
        2
176
     1
 62
     7
176
     1
 90
        5
176
     1
 90
        0
176
     1
 90
        0
176
     1
290
     0
176
     1
 90
        1
176
     1
 40
0.0
176
     1
 90
        0
176
     1
290
     0
176
     1
290
     1
176
     1
290
     1
176
     1
290
     0
176
     1
290
     0
176
     1
290
     0
176
     1
290
     0
176
     1
290
     0
176
     1
290
     0
176
     1
 90
       50
176
     1
 40
0.0
176
     1
 40
1.0
176
     1
 90
        0
176
     1
 62
    18
420
        0
176
     1
 90
       50
176
     1
 90
        3
176
     1
 62
     5
420
      255
176
     1
290
     0
176
     1
 90
       50
176
     1
 90
       50
176
     1
 90
       50
176
     1
290
     0
176
     1
 90
       50
176
     1
 62
   256
176
     0
 40
1.0
176
     0
 90
        2
176
     1
  1
strokes_ogs.tif
176
     1
290
     0
176
     1
 40
1.0
176
     1
 40
1.0
176
     1
  0
VISUALSTYLE
  5
40
102
{ACAD_REACTORS
330
29
102
}
330
29
100
AcDbVisualStyle
  2
OverhangOff
 70
    21
177
     3
291
     1
 70
    58
 90
        2
176
     0
 90
        2
176
     0
 90
        0
176
     0
 90
        0
176
     0
 40
0.6
176
     0
 40
30.0
176
     0
 62
     7
420
 16777215
176
     0
 90
        1
176
     0
 90
        4
176
     0
 62
     7
176
     0
 62
   257
176
     0
 90
        1
176
     0
 90
        1
176
     0
 40
1.0
176
     0
 90
        9
176
     2
 62
     7
176
     0
 40
1.0
176
     0
 90
        1
176
     0
 90
        6
176
     0
 90
        2
176
     0
 62
     7
176
     0
 90
        5
176
     0
 90
        0
176
     0
 90
        0
176
     0
290
     0
176
     0
 90
        1
176
     0
 40
0.0
176
     0
 90
        0
176
     0
290
     0
176
     0
290
     1
176
     0
290
     1
176
     0
290
     0
176
     0
290
     0
176
     0
290
     0
176
     0
290
     0
176
     0
290
     0
176
     0
290
     0
176
     0
 90
       50
176
     0
 40
0.0
176
     0
 40
1.0
176
     0
 90
        0
176
     0
 62
    18
420
        0
176
     0
 90
       50
176
     0
 90
        3
176
     0
 62
     5
420
      255
176
     0
290
     0
176
     0
 90
       50
176
     0
 90
       50
176
     0
 90
       50
176
     0
290
     0
176
     0
 90
       50
176
     0
 62
   256
176
     0
 40
1.0
176
     0
 90
        2
176
     0
  1
strokes_ogs.tif
176
     0
290
     0
176
     0
 40
1.0
176
     0
 40
1.0
176
     0
  0
VISUALSTYLE
  5
33
102
{ACAD_REACTORS
330
29
102
}
330
29
100
AcDbVisualStyle
  2
Realistic
 70
     8
177
     3
291
     0
 70
    58
 90
        2
176
     1
 90
        3
176
     1
 90
        0
176
     1
 90
        2
176
     1
 40
0.6
176
     1
 40
30.0
176
     1
 62
     7
420
 16777215
176
     1
 90
        0
176
     1
 90
        0
176
     1
 62
     7
176
     1
 62
   257
176
     1
 90
        1
176
     1
 90
        1
176
     1
 40
1.0
176
     1
 90
        8
176
     1
 62
   257
176
     1
 40
1.0
176
     1
 90
        1
176
     1
 90
        6
176
     1
 90
        2
176
     1
 62
     7
176
     1
 90
        3
176
     1
 90
        0
176
     1
 90
        0
176
     1
290
     0
176
     1
 90
       13
176
     1
 40
0.0
176
     1
 90
        0
176
     1
290
     0
176
     1
290
     1
176
     1
290
     1
176
     1
290
     0
176
     1
290
     0
176
     1
290
     0
176
     1
290
     0
176
     1
290
     0
176
     1
290
     0
176
     1
 90
       50
176
     1
 40
0.0
176
     1
 40
1.0
176
     1
 90
        0
176
     1
 62
    18
420
        0
176
     1
 90
       50
176
     1
 90
        3
176
     1
 62
     5
420
      255
176
     1
290
     0
176
     1
 90
       50
176
     1
 90
       50
176
     1
 90
       50
176
     1
290
     0
176
     1
 90
       50
176
     1
 62
   256
176
     0
 40
1.0
176
     0
 90
        2
176
     1
  1
strokes_ogs.tif
176
     1
290
     0
176
     1
 40
1.0
176
     1
 40
1.0
176
     1
  0
VISUALSTYLE
  5
3E
102
{ACAD_REACTORS
330
29
102
}
330
29
100
AcDbVisualStyle
  2
Shaded
 70
    27
177
     3
291
     0
 70
    58
 90
        2
176
     1
 90
        2
176
     1
 90
        1
176
     1
 90
        2
176
     1
 40
0.6
176
     1
 40
30.0
176
     1
 62
     7
420
 16777215
176
     1
 90
        0
176
     1
 90
        4
176
     1
 62
     7
176
     1
 62
   257
176
     1
 90
        1
176
     1
 90
        1
176
     1
 40
1.0
176
     1
 90
        8
176
     1
 62
   257
176
     1
 40
1.0
176
     1
 90
        1
176
     1
 90
        6
176
     1
 90
        2
176
     1
 62
     8
420
  7895160
176
     1
 90
        3
176
     1
 90
        0
176
     1
 90
        0
176
     1
290
     0
176
     1
 90
        5
176
     1
 40
0.0
176
     1
 90
        0
176
     1
290
     0
176
     1
290
     1
176
     1
290
     1
176
     1
290
     0
176
     1
290
     0
176
     1
290
     0
176
     1
290
     0
176
     1
290
     0
176
     1
290
     0
176
     1
 90
       50
176
     1
 40
0.0
176
     1
 40
1.0
176
     1
 90
        0
176
     1
 62
    18
420
        0
176
     1
 90
       50
176
     1
 90
        3
176
     1
 62
     5
420
      255
176
     1
290
     0
176
     1
 90
       50
176
     1
 90
       50
176
     1
 90
       50
176
     1
290
     0
176
     1
 90
       50
176
     1
 62
   256
176
     0
 40
1.0
176
     0
 90
        2
176
     1
  1
strokes_ogs.tif
176
     1
290
     0
176
     1
 40
1.0
176
     1
 40
1.0
176
     1
  0
VISUALSTYLE
  5
3D
102
{ACAD_REACTORS
330
29
102
}
330
29
100
AcDbVisualStyle
  2
Shaded with edges
 70
    26
177
     3
291
     0
 70
    58
 90
        2
176
     1
 90
        2
176
     1
 90
        1
176
     1
 90
        2
176
     1
 40
0.6
176
     1
 40
30.0
176
     1
 62
     7
420
 16777215
176
     1
 90
        1
176
     1
 90
        2
176
     1
 62
     7
176
     1
 62
   257
176
     1
 90
        2
176
     1
 90
        1
176
     1
 40
1.0
176
     1
 90
        8
176
     1
 62
   257
176
     1
 40
1.0
176
     1
 90
        1
176
     1
 90
        6
176
     1
 90
        2
176
     1
 62
     7
176
     1
 90
        3
176
     1
 90
        0
176
     1
 90
        0
176
     1
290
     0
176
     1
 90
        5
176
     1
 40
0.0
176
     1
 90
        0
176
     1
290
     0
176
     1
290
     1
176
     1
290
     1
176
     1
290
     0
176
     1
290
     0
176
     1
290
     0
176
     1
290
     0
176
     1
290
     0
176
     1
290
     0
176
     1
 90
       50
176
     1
 40
0.0
176
     1
 40
1.0
176
     1
 90
        0
176
     1
 62
    18
420
        0
176
     1
 90
       50
176
     1
 90
        3
176
     1
 62
     5
420
      255
176
     1
290
     0
176
     1
 90
       50
176
     1
 90
       50
176
     1
 90
       50
176
     1
290
     0
176
     1
 90
       50
176
     1
 62
   256
176
     0
 40
1.0
176
     0
 90
        2
176
     1
  1
strokes_ogs.tif
176
     1
290
     0
176
     1
 40
1.0
176
     1
 40
1.0
176
     1
  0
VISUALSTYLE
  5
3A
102
{ACAD_REACTORS
330
29
102
}
330
29
100
AcDbVisualStyle
  2
Shades of Gray
 70
    23
177
     3
291
     0
 70
    58
 90
        2
176
     1
 90
        2
176
     1
 90
        3
176
     1
 90
        0
176
     1
 40
0.6
176
     1
 40
30.0
176
     1
 62
     7
420
 16777215
176
     1
 90
        2
176
     1
 90
        2
176
     1
 62
     7
176
     1
 62
     7
176
     1
 90
        1
176
     1
 90
        1
176
     1
 40
40.0
176
     1
 90
        8
176
     1
 62
     7
176
     1
 40
1.0
176
     1
 90
        1
176
     1
 90
        6
176
     1
 90
        2
176
     1
 62
     7
176
     1
 90
        3
176
     1
 90
        0
176
     1
 90
        0
176
     1
290
     0
176
     1
 90
        1
176
     1
 40
0.0
176
     1
 90
        0
176
     1
290
     0
176
     1
290
     1
176
     1
290
     1
176
     1
290
     0
176
     1
290
     0
176
     1
290
     0
176
     1
290
     0
176
     1
290
     0
176
     1
290
     0
176
     1
 90
       50
176
     1
 40
0.0
176
     1
 40
1.0
176
     1
 90
        0
176
     1
 62
    18
420
        0
176
     1
 90
       50
176
     1
 90
        3
176
     1
 62
     5
420
      255
176
     1
290
     0
176
     1
 90
       50
176
     1
 90
       50
176
     1
 90
       50
176
     1
290
     0
176
     1
 90
       50
176
     1
 62
   256
176
     0
 40
1.0
176
     0
 90
        2
176
     1
  1
strokes_ogs.tif
176
     1
290
     0
176
     1
 40
1.0
176
     1
 40
1.0
176
     1
  0
VISUALSTYLE
  5
3B
102
{ACAD_REACTORS
330
29
102
}
330
29
100
AcDbVisualStyle
  2
Sketchy
 70
    24
177
     3
291
     0
 70
    58
 90
        1
176
     1
 90
        2
176
     1
 90
        2
176
     1
 90
        0
176
     1
 40
0.6
176
     1
 40
30.0
176
     1
 62
     7
420
 16777215
176
     1
 90
        2
176
     1
 90
        2
176
     1
 62
     7
176
     1
 62
     7
176
     1
 90
        1
176
     1
 90
        1
176
     1
 40
40.0
176
     1
 90
       11
176
     1
 62
     7
176
     1
 40
1.0
176
     1
 90
        1
176
     1
 90
        6
176
     1
 90
        2
176
     1
 62
     7
176
     1
 90
        6
176
     1
 90
        0
176
     1
 90
        0
176
     1
290
     0
176
     1
 90
        1
176
     1
 40
0.0
176
     1
 90
        0
176
     1
290
     0
176
     1
290
     1
176
     1
290
     1
176
     1
290
     0
176
     1
290
     0
176
     1
290
     0
176
     1
290
     0
176
     1
290
     0
176
     1
290
     0
176
     1
 90
       50
176
     1
 40
0.0
176
     1
 40
1.0
176
     1
 90
        0
176
     1
 62
    18
420
        0
176
     1
 90
       50
176
     1
 90
        3
176
     1
 62
     5
420
      255
176
     1
290
     0
176
     1
 90
       50
176
     1
 90
       50
176
     1
 90
       50
176
     1
290
     0
176
     1
 90
       50
176
     1
 62
   256
176
     0
 40
1.0
176
     0
 90
        2
176
     1
  1
strokes_ogs.tif
176
     1
290
     0
176
     1
 40
1.0
176
     1
 40
1.0
176
     1
  0
VISUALSTYLE
  5
36
102
{ACAD_REACTORS
330
29
102
}
330
29
100
AcDbVisualStyle
  2
Thicken
 70
    13
177
     3
291
     1
 70
    58
 90
        2
176
     1
 90
        2
176
     1
 90
        0
176
     1
 90
        0
176
     1
 40
0.6
176
     1
 40
30.0
176
     1
 62
     7
420
 16777215
176
     1
 90
        1
176
     1
 90
        4
176
     1
 62
     7
176
     1
 62
   257
176
     1
 90
        1
176
     1
 90
        1
176
     1
 40
1.0
176
     1
 90
       12
176
     1
 62
     7
176
     1
 40
1.0
176
     1
 90
        1
176
     1
 90
        6
176
     1
 90
        2
176
     1
 62
     7
176
     1
 90
        5
176
     1
 90
        0
176
     1
 90
        0
176
     1
290
     0
176
     1
 90
        1
176
     1
 40
0.0
176
     1
 90
        0
176
     1
290
     0
176
     1
290
     1
176
     1
290
     1
176
     1
290
     0
176
     1
290
     0
176
     1
290
     0
176
     1
290
     0
176
     1
290
     0
176
     1
290
     0
176
     1
 90
       50
176
     1
 40
0.0
176
     1
 40
1.0
176
     1
 90
        0
176
     1
 62
    18
420
        0
176
     1
 90
       50
176
     1
 90
        3
176
     1
 62
     5
420
      255
176
     1
290
     0
176
     1
 90
       50
176
     1
 90
       50
176
     1
 90
       50
176
     1
290
     0
176
     1
 90
       50
176
     1
 62
   256
176
     0
 40
1.0
176
     0
 90
        2
176
     1
  1
strokes_ogs.tif
176
     1
290
     0
176
     1
 40
1.0
176
     1
 40
1.0
176
     1
  0
VISUALSTYLE
  5
30
102
{ACAD_REACTORS
330
29
102
}
330
29
100
AcDbVisualStyle
  2
Wireframe
 70
     5
177
     3
291
     0
 70
    58
 90
        0
176
     1
 90
        2
176
     1
 90
        0
176
     1
 90
        0
176
     1
 40
0.6
176
     1
 40
30.0
176
     1
 62
     7
420
 16777215
176
     1
 90
        1
176
     1
 90
        4
176
     1
 62
     7
176
     1
 62
   257
176
     1
 90
        1
176
     1
 90
        1
176
     1
 40
1.0
176
     1
 90
        0
176
     1
 62
   257
176
     1
 40
1.0
176
     1
 90
        1
176
     1
 90
        6
176
     1
 90
        2
176
     1
 62
     7
176
     1
 90
        3
176
     1
 90
        0
176
     1
 90
        0
176
     1
290
     0
176
     1
 90
        1
176
     1
 40
0.0
176
     1
 90
        0
176
     1
290
     0
176
     1
290
     1
176
     1
290
     1
176
     1
290
     0
176
     1
290
     0
176
     1
290
     0
176
     1
290
     0
176
     1
290
     0
176
     1
290
     0
176
     1
 90
       50
176
     1
 40
0.0
176
     1
 40
1.0
176
     1
 90
        0
176
     1
 62
    18
420
        0
176
     1
 90
       50
176
     1
 90
        3
176
     1
 62
     5
420
      255
176
     1
290
     0
176
     1
 90
       50
176
     1
 90
       50
176
     1
 90
       50
176
     1
290
     0
176
     1
 90
       50
176
     1
 62
   256
176
     0
 40
1.0
176
     0
 90
        2
176
     1
  1
strokes_ogs.tif
176
     1
290
     0
176
     1
 40
1.0
176
     1
 40
1.0
176
     1
  0
VISUALSTYLE
  5
3C
102
{ACAD_REACTORS
330
29
102
}
330
29
100
AcDbVisualStyle
  2
X-Ray
 70
    25
177
     3
291
     0
 70
    58
 90
        2
176
     1
 90
        2
176
     1
 90
        1
176
     1
 90
        1
176
     1
 40
0.5
176
     1
 40
30.0
176
     1
 62
     7
420
 16777215
176
     1
 90
        1
176
     1
 90
        0
176
     1
 62
     7
176
     1
 62
   257
176
     1
 90
        1
176
     1
 90
        1
176
     1
 40
1.0
176
     1
 90
        8
176
     1
 62
     7
176
     1
 40
1.0
176
     1
 90
        1
176
     1
 90
        6
176
     1
 90
        2
176
     1
 62
     7
176
     1
 90
        3
176
     1
 90
        0
176
     1
 90
        0
176
     1
290
     0
176
     1
 90
       13
176
     1
 40
0.0
176
     1
 90
        0
176
     1
290
     0
176
     1
290
     1
176
     1
290
     1
176
     1
290
     0
176
     1
290
     0
176
     1
290
     0
176
     1
290
     0
176
     1
290
     0
176
     1
290
     0
176
     1
 90
       50
176
     1
 40
0.0
176
     1
 40
1.0
176
     1
 90
        0
176
     1
 62
    18
420
        0
176
     1
 90
       50
176
     1
 90
        3
176
     1
 62
     5
420
      255
176
     1
290
     0
176
     1
 90
       50
176
     1
 90
       50
176
     1
 90
       50
176
     1
290
     0
176
     1
 90
       50
176
     1
 62
   256
176
     0
 40
1.0
176
     0
 90
        2
176
     1
  1
strokes_ogs.tif
176
     1
290
     0
176
     1
 40
1.0
176
     1
 40
1.0
176
     1
  0
DICTIONARYVAR
  5
93
102
{ACAD_REACTORS
330
8E
102
}
330
8E
100
DictionaryVariables
280
     0
  1
1:1
  0
DICTIONARYVAR
  5
90
102
{ACAD_REACTORS
330
8E
102
}
330
8E
100
DictionaryVariables
280
     0
  1
STANDARD
  0
DICTIONARYVAR
  5
8F
102
{ACAD_REACTORS
330
8E
102
}
330
8E
100
DictionaryVariables
280
     0
  1
STANDARD
  0
DICTIONARYVAR
  5
91
102
{ACAD_REACTORS
330
8E
102
}
330
8E
100
DictionaryVariables
280
     0
  1
Imperial24
  0
DICTIONARYVAR
  5
92
102
{ACAD_REACTORS
330
8E
102
}
330
8E
100
DictionaryVariables
280
     0
  1
Imperial24
  0
DICTIONARY
  5
1A
330
19
100
AcDbDictionary
280
     1
281
     1
  3
BUMPTILE
360
1C
  3
DIFFUSETILE
360
1B
  3
OPACITYTILE
360
1F
  3
REFLECTIONTILE
360
1E
  3
REFRACTIONTILE
360
20
  3
SPECULARTILE
360
1D
  0
DICTIONARY
  5
12
330
11
100
AcDbDictionary
280
     1
281
     1
  3
BUMPTILE
360
14
  3
DIFFUSETILE
360
13
  3
OPACITYTILE
360
17
  3
REFLECTIONTILE
360
16
  3
REFRACTIONTILE
360
18
  3
SPECULARTILE
360
15
  0
DICTIONARY
  5
22
330
21
100
AcDbDictionary
280
     1
281
     1
  3
BUMPTILE
360
24
  3
DIFFUSETILE
360
23
  3
OPACITYTILE
360
27
  3
REFLECTIONTILE
360
26
  3
REFRACTIONTILE
360
28
  3
SPECULARTILE
360
25
  0
DICTIONARY
  5
94
330
65
100
AcDbDictionary
280
     1
281
     1
  3
ACAD_ROUNDTRIP_2008_TABLESTYLE_CELLSTYLEMAP
360
95
  0
XRECORD
  5
1C
102
{ACAD_REACTORS
330
1A
102
}
330
1A
100
AcDbXrecord
280
     1
270
     1
271
     1
  0
XRECORD
  5
1B
102
{ACAD_REACTORS
330
1A
102
}
330
1A
100
AcDbXrecord
280
     1
270
     1
271
     1
  0
XRECORD
  5
1F
102
{ACAD_REACTORS
330
1A
102
}
330
1A
100
AcDbXrecord
280
     1
270
     1
271
     1
  0
XRECORD
  5
1E
102
{ACAD_REACTORS
330
1A
102
}
330
1A
100
AcDbXrecord
280
     1
270
     1
271
     1
  0
XRECORD
  5
20
102
{ACAD_REACTORS
330
1A
102
}
330
1A
100
AcDbXrecord
280
     1
270
     1
271
     1
  0
XRECORD
  5
1D
102
{ACAD_REACTORS
330
1A
102
}
330
1A
100
AcDbXrecord
280
     1
270
     1
271
     1
  0
XRECORD
  5
14
102
{ACAD_REACTORS
330
12
102
}
330
12
100
AcDbXrecord
280
     1
270
     1
271
     1
  0
XRECORD
  5
13
102
{ACAD_REACTORS
330
12
102
}
330
12
100
AcDbXrecord
280
     1
270
     1
271
     1
  0
XRECORD
  5
17
102
{ACAD_REACTORS
330
12
102
}
330
12
100
AcDbXrecord
280
     1
270
     1
271
     1
  0
XRECORD
  5
16
102
{ACAD_REACTORS
330
12
102
}
330
12
100
AcDbXrecord
280
     1
270
     1
271
     1
  0
XRECORD
  5
18
102
{ACAD_REACTORS
330
12
102
}
330
12
100
AcDbXrecord
280
     1
270
     1
271
     1
  0
XRECORD
  5
15
102
{ACAD_REACTORS
330
12
102
}
330
12
100
AcDbXrecord
280
     1
270
     1
271
     1
  0
XRECORD
  5
24
102
{ACAD_REACTORS
330
22
102
}
330
22
100
AcDbXrecord
280
     1
270
     1
271
     1
  0
XRECORD
  5
23
102
{ACAD_REACTORS
330
22
102
}
330
22
100
AcDbXrecord
280
     1
270
     1
271
     1
  0
XRECORD
  5
27
102
{ACAD_REACTORS
330
22
102
}
330
22
100
AcDbXrecord
280
     1
270
     1
271
     1
  0
XRECORD
  5
26
102
{ACAD_REACTORS
330
22
102
}
330
22
100
AcDbXrecord
280
     1
270
     1
271
     1
  0
XRECORD
  5
28
102
{ACAD_REACTORS
330
22
102
}
330
22
100
AcDbXrecord
280
     1
270
     1
271
     1
  0
XRECORD
  5
25
102
{ACAD_REACTORS
330
22
102
}
330
22
100
AcDbXrecord
280
     1
270
     1
271
     1
  0
CELLSTYLEMAP
  5
95
102
{ACAD_REACTORS
330
94
102
}
330
94
100
AcDbCellStyleMap
 90
        3
300
CELLSTYLE
  1
TABLEFORMAT_BEGIN
 90
        5
170
     1
 91
        0
 92
    32768
 62
   257
 93
        1
300
CONTENTFORMAT
  1
CONTENTFORMAT_BEGIN
 90
        0
 91
        0
 92
      512
 93
        0
300

 40
0.0
140
1.0
 94
        5
 62
     0
340
55
144
0.25
309
CONTENTFORMAT_END
171
     0
 94
        0
309
TABLEFORMAT_END
  1
CELLSTYLE_BEGIN
 90
        1
 91
        1
300
_TITLE
309
CELLSTYLE_END
300
CELLSTYLE
  1
TABLEFORMAT_BEGIN
 90
        5
170
     1
 91
        0
 92
        0
 62
   257
 93
        1
300
CONTENTFORMAT
  1
CONTENTFORMAT_BEGIN
 90
        0
 91
        0
 92
      512
 93
        0
300

 40
0.0
140
1.0
 94
        5
 62
     0
340
55
144
0.18
309
CONTENTFORMAT_END
171
     0
 94
        0
309
TABLEFORMAT_END
  1
CELLSTYLE_BEGIN
 90
        2
 91
        1
300
_HEADER
309
CELLSTYLE_END
300
CELLSTYLE
  1
TABLEFORMAT_BEGIN
 90
        5
170
     1
 91
        0
 92
        0
 62
   257
 93
        1
300
CONTENTFORMAT
  1
CONTENTFORMAT_BEGIN
 90
        0
 91
        0
 92
      512
 93
        0
300

 40
0.0
140
1.0
 94
        2
 62
     0
340
55
144
0.18
309
CONTENTFORMAT_END
171
     0
 94
        0
309
TABLEFORMAT_END
  1
CELLSTYLE_BEGIN
 90
        3
 91
        2
300
_DATA
309
CELLSTYLE_END
  0
ENDSEC
  0
EOF
