<?xml version="1.0" encoding="UTF-8"?>
<svg id="Layer_1" data-name="Layer 1" xmlns="http://www.w3.org/2000/svg" viewBox="0 0 500 500">
  <defs>
    <style>
      .cls-1 {
        fill: #fff;
      }

      .cls-2 {
        fill: #831618;
      }

      .cls-3 {
        fill: #1b2251;
      }

      .cls-4 {
        fill: #0f592d;
      }
    </style>
  </defs>
  <g>
    <path d="M394.75,299.08c0-77.84,.02-155.7,0-233.54,0-10.31-3.95-18.92-11.49-25.92-7.18-6.67-15.82-9.34-25.47-9.32-20.07,.03-40.14,.03-60.21,.03-59.06,0-118.11-.02-177.16-.03-11.34,0-20.72,4.34-28.15,12.89-6.27,7.22-8.35,15.73-8.34,25.12,.08,59.52,.04,119.04,.04,178.55,0,49.66-.01,99.31,0,148.97,0,11.71-.06,23.43,.17,35.14,.17,8.21,3.52,15.25,9.04,21.3,8.08,8.86,18.27,11.9,30.02,11.88,72.97-.12,145.95-.03,218.92-.1,7.99-.01,16.05,.84,23.98-.63,17.04-3.17,28.65-17.63,28.66-35.57,.03-42.93-.01-85.85-.01-128.78Zm-2.43-51.84h-.05c0,59.4,0,118.79,0,178.2,0,5.01-.29,9.96-2.06,14.73-4.8,12.96-17.23,21.4-31.66,21.4-77.27,0-154.53-.02-231.79-.03-2.55,0-5.11,.06-7.66-.03-18.18-.65-31.86-14.28-32.59-32.44-.03-.93-.02-1.85-.02-2.78,0-119.38,.02-238.75-.03-358.13,0-9.73,2.62-18.27,9.62-25.26,6.96-6.93,15.36-10.01,25.14-10,56.96,.06,113.93,.03,170.89,.03,22.28,0,44.55-.09,66.82,.03,16.55,.09,29.64,10.91,32.75,26.74,.84,4.24,.62,8.55,.63,12.84,0,58.24,0,116.48,0,174.72Z"/>
    <path class="cls-1" d="M392.32,247.24h-.05c0,59.4,0,118.79,0,178.2,0,5.01-.29,9.96-2.06,14.73-4.8,12.96-17.23,21.4-31.66,21.4-77.27,0-154.53-.02-231.79-.03-2.55,0-5.11,.06-7.66-.03-18.18-.65-31.86-14.28-32.59-32.44-.03-.93-.02-1.85-.02-2.78,0-119.38,.02-238.75-.03-358.13,0-9.73,2.62-18.27,9.62-25.26,6.96-6.93,15.36-10.01,25.14-10,56.96,.06,113.93,.03,170.89,.03,22.28,0,44.55-.09,66.82,.03,16.55,.09,29.64,10.91,32.75,26.74,.84,4.24,.62,8.55,.63,12.84,0,58.24,0,116.48,0,174.72Z"/>
  </g>
  <path class="cls-2" d="M130.55,84.74v-.21c6.84-2.97,10.27-8.81,10.27-15.67,0-8.09-4.96-15.87-15.91-15.87-5.99,0-11.64,2.56-14.54,5.12l1.97,6.55c2.4-2.05,6.67-4.4,11.12-4.4,6.93,0,9.75,4.71,9.75,10.03,0,7.88-6.93,11.26-12.41,11.26h-4.19v6.76h4.19c7.27,0,14.29,3.99,14.37,13.31,.09,5.53-2.91,12.9-12.58,12.9-5.22,0-10.18-2.56-12.32-4.2l-2.05,6.96c2.74,2.15,8.21,4.51,14.46,4.51,13.35,0,20.28-9.32,20.28-19.97,0-9.32-5.56-15.46-12.41-17.1Z"/>
  <path class="cls-3" d="M178.12,303.19c4.08-2.72,4.78-5.43,6.04-7.76,1.31-2.43,3-5.4,5.99-4.32,2.82,1.02,1.58,4.34,1.42,6.76-.05,.72-.32,1.43-.74,3.22,8.1-5.55,15.27-10.31,13.98-20.91-.21-1.73-.88-4.19,1.75-4.91,2.3-.63,3.68,1.18,4.62,2.81,3.19,5.51,6.5,10.99,9.17,16.76,2.97,6.43,7.48,9.05,14.58,9.16,22.58,.34,44.63,4.65,66.51,9.9,4.71,1.13,9.37,2.47,14.11,3.4,6.11,1.2,9.41-1.98,8.25-8.17-1.58-8.4-6.12-15.03-13.52-19.41-4.5-2.66-9.12-5.24-14.27-6.45-3.94-.92-5.29-3.16-5.09-7.09,.59-11.74-.35-23.32-5.93-33.93-3.52-6.7-7.49-13.22-15.1-16.18-5.88-2.29-7.71-1.3-8.91,4.8-.6,3.04-1.01,6.11-1.56,9.16-.05,.27-.52,.47-1.25,1.08-.25-11.77,.2-23.1,2.38-34.32,2.33-11.98,3.92-24.07,4.81-36.23,.92-12.44-3.29-19.89-12.58-23.79-11.05-4.64-21.11-.67-26.79,9.75-5,9.18-5.17,18.88-4.65,28.8,.92,17.55,1.86,35.09,2.79,52.64,.04,.78,.02,1.53-1.22,2.17-1.2-1.61-.67-3.57-.93-5.32-2.55-17.18-5.1-34.37-7.62-51.56-.17-1.13-.31-2.37-.03-3.44,2.1-8.22,3.79-16.6,6.59-24.58,4.47-12.75,16.79-19.89,28.61-17.43,12.13,2.53,20.47,14.27,20.64,27.45,.18,14.08-3.35,27.67-4.51,41.56-.49,5.96,.95,8.92,5.74,12.84,14.71,12.04,24.69,27.53,24.61,47.22-.03,8.12,3.21,11.69,9.83,14.8,13.07,6.15,20.78,16.89,23.81,30.92,1.82,8.45-2.76,13.85-11.41,13.03-6.34-.6-12.59-2.16-18.88-3.32-18.08-3.36-35.93-8.01-54.31-9.61-6.56-.57-13.14-.83-19.71-1.32-5.06-.38-8.76-2.59-10.42-7.74-1.59-4.95-4.51-5.88-8.69-2.52-1.96,1.57-4.44,2.6-6.12,4.4-7.35,7.9-16.59,9.35-26.63,8.2-2.48-.28-4.39,.27-6.49,1.62-21.64,13.92-34.98,3.07-43.02-15.42-1.73-3.98-1.6-8.3,.53-12.4,1.81-3.48,2.74-7.26,2.83-11.19,.22-9.66,7.33-16.48,10.3-25,.41-1.17,1.59-2.5,3.17-1.92,1.94,.71,1.5,2.55,1.17,3.99-1.05,4.61-3.77,8.48-5.93,12.58-4.49,8.49-4.19,12.95,1.44,17.47,6.87,5.52,15.58,5.61,21.87,.25,3.83-3.26,6-7.53,7.57-12.19,.62-1.83,1.21-3.68,1.97-5.46,.54-1.28,1.42-2.46,3.03-2.23,1.53,.22,2.13,1.44,2.5,2.85,3.07,11.77-14.36,31.04-26.23,28.87-4.64-.85-8.78-2.87-12.31-6.16-1.31-1.22-2.85-3.06-5.05-1.82-2.03,1.15-1.66,3.35-1.62,5.25,.23,10.43,7.64,19.79,16.87,21.86,7.69,1.72,20.75-5.91,23.89-14.03,3.81-9.83,6.56-19.82,9.05-29.97,.63-2.56,.52-6.85,4.56-5.98,3.59,.77,2.69,4.7,2.41,7.49-.73,7.15-1.97,14.18-4.9,20.85-1.2,2.74-1.73,5.78-3,10.16Z"/>
  <path class="cls-3" d="M317.9,364.85c-.54,11.31-2.56,13.51-14.12,13.51-12.4,0-24.19-3.08-35.22-8.74-3.37-1.73-6.27-2.36-9.68,.04-3.26,2.29-7.4,2.69-11.19,2.59-16.7-.44-32.75,2.73-48.48,7.95-7.79,2.58-15.7,2.02-23.59,.84-6.15-.92-6.91-2.71-4.88-8.76,3.3-9.84,11.05-15.77,19.03-21.24,3.53-2.42,5.33-4.83,5.87-9.12,1.39-11.01,5.72-21.27,9.01-31.79,.79-2.53,2.59-4.38,5.37-4.65,2.68-.26,3.49,2.13,4.54,3.89,4.11,6.85,8.98,13.05,14.8,18.55,2.56,2.42,4.9,2.59,7.63,.36,1.95-1.59,4.17-2.83,6.18-4.34,2.99-2.26,5.82-6.03,9.04-.19,.3,.54,1.9,.85,2.66,.58,8.36-2.91,16.64-2.08,24.97,.13,.98,.26,2.22-.63,3.36-.75,3.01-.31,6.31,.31,8.25,2.2,9.09,8.86,19.93,16.25,24.92,28.69,1.33,3.32,1.72,6.73,1.51,10.25Zm-77.64,.93c3.84-.37,7.31-.68,10.77-1.03,1.54-.16,3.21-.3,3.71-2.16,.47-1.75-.67-3.02-1.79-4.03-2.57-2.32-5.28-4.5-7.98-6.68-10.38-8.4-19.36-18.22-28.48-27.9-3.15-3.34-5.21-3.75-7.42,1.21-4.83,10.82-7.01,22.02-6.74,33.82,.04,1.7,1.14,4.34-1.47,4.99-2.56,.64-3.6-1.47-4.4-3.62-.83-2.22-1.82-4.62-4.98-2.87-4.07,2.26-8.12,4.59-10.76,8.61-4.08,6.22-2.85,8.27,4.5,9.03,10.77,1.1,20.15-2.95,29.38-7.42,6.36-3.08,12.77-4.19,19.68-2.71,2.07,.44,4.21,.55,5.96,.77Zm56.13-11.65c-.46-2.89-.74-5.53-1.31-8.09-.92-4.14-1.63-8.47-4.8-11.62-2.43-2.41-5.19-3.38-6.56,.99-2.77,8.86-7.09,16.71-14.05,22.98-1.26,1.13-2.34,2.38,.08,3.44,9.04,3.94,18.07,8.19,28.01,8.98,4.11,.32,9.63,2.04,12.34-2.6,2.67-4.57,.18-9.44-1.97-13.75-1.44-2.89-3.17-6.43-6.64-6.78-3.83-.39-1.23,4.87-5.09,6.46Zm-33.35-9.18c.14-1.81-.49-4.83-1.17-7.84-.38-1.68-.62-3.7-2.9-3.71-2.1,0-3.83,1.17-4.17,3.31-.63,3.99-1.28,8.03-1.28,12.05,0,3.25,2.28,5.41,5.56,5.54,3.92,.15,3.81-3,3.95-5.73,.04-.77,0-1.54,0-3.62Zm-14.22-6.73c-.98-2.87,.17-7.53-4.72-7.64-2.54-.06-5.04,1.96-5.64,4.95-.29,1.45,6.35,8.12,7.83,7.89,3.06-.47,2.1-3.11,2.54-5.2Zm20.26,10.3c5.51-3.91,6.6-8.38,6.36-13.45-.09-1.92-.54-3.57-2.77-3.7-2.36-.14-3.57,1.18-3.58,3.54-.02,4.21,0,8.41,0,13.61Z"/>
  <path class="cls-2" d="M212.73,226.15c0,.39,.12,.83-.02,1.15-4.87,11.44,.2,21.85,3.28,32.49,1.27,4.4,5.85,6.05,7.75,9.94,1.12,2.29,1.94,4.59,5.4,5.3,5.49,1.12,8.91-.29,11.18-5.33,.88-1.95,1.65-5.09,4.75-3.75,2.34,1.02,1.5,3.64,1.22,5.75-.27,2.07-2.66,4.83,.53,6.02,2.7,1.01,4.57-1.61,6.02-3.63,2.64-3.7,3.72-8.04,4.67-12.41,.99-4.57,2.4-8.98,5.22-12.81,.84-1.14,1.72-2.25,3.32-1.54,1.26,.55,1.25,1.84,1.3,3,.16,3.41-1.26,6.44-2.48,9.48-1.48,3.7-.43,5.58,3.64,5.58,.19,0,.39,0,.58,.02,2.87,.44,7.56-1.23,7.82,2.74,.25,3.95-4.61,3.57-7.63,4.5-2.8,.86-7.34-1.01-8.16,2.6-.86,3.8,3.85,4.66,6.31,6.65,5.66,4.59,11.84,7.9,19.22,8.9,2.46,.34,6.25,.9,5.38,4.62-.86,3.66-4.23,2.38-6.82,1.79-7.24-1.66-13.91-4.66-20.24-8.56-3.79-2.34-7.8-4.33-12.55-3.64-2.96,.43-4.94,1.15-2.89,4.76,.78,1.37,1.81,3.66-.06,4.7-1.83,1.02-2.95-1.14-4.16-2.33-1.51-1.5-3.22-2.82-4.57-4.44-2.78-3.34-5.96-4.15-9.7-1.86-4.93,3.01-7.15,1.1-8.75-3.93-1.27-4-3.57-7.69-5.54-11.45-1.4-2.68-3.89-3.02-6.53-2.39-8.89,2.11-16.37,0-22.33-7.12-2.32-2.78-5.72-3.07-9.02-3.28-10.95-.7-20.77-4.1-29.22-11.37-8.49-7.31-11.15-16-6.95-26.51,4.49-11.25,11.09-20.7,23.01-25.53,10.16-4.12,18.76-10.8,26.9-18.02,2.51-2.22,3.32-2.02,4.63,1.26,3.01,7.51,7.48,14.34,10.29,22.02,3.18,8.67,4.51,17.57,5.22,26.65Zm-55.43-1.49c5.05,4.89,2.87,13.07,8.46,17.36-1.15-.01-1.88-.27-2.38-.76-2.4-2.38-5.17-3.22-6.92,.11-1.24,2.36,.95,4.74,2.94,5.94,15.87,9.58,40.3,3.96,46.56-15,5.56-16.84-1.35-30.62-10.71-43.78-2.01-2.83-4.2-2.22-6.11,.27-2,2.6-8.33,3.81-2.66,8.75-1.93,.93-3.45-1.53-5.19-.1,.97,3.45,5.4,3.15,6.95,6.01-2.05,1.45-3.76-1.47-5.77,.19,2.01,2.16,3.98,4.27,5.95,6.38-5-1.48-8.82-4.79-14.17-6.43,1.33,3.82,5.5,4.29,6.66,7.7-3.56,.25-5.68-2.66-8.68-3.15-.11,2.32,2.99,2.19,2.65,4.57-4.14,.71-7.69-2.58-12.05-1.84,4.5,1.86,3.01,7.75,7.17,9.81-3.99-.38-6.88-3.82-12.23-4.04,2.91,2.22,4.81,3.67,6.86,5.24-2.71,1.4-4.27-2.13-6.72-1.04,.41,2.83,4.13,2.77,4.77,6.02-2.03-.83-3.71-1.51-5.39-2.2Zm50.86,31.73c-.8-1.93-.25-6.28-3.74-5.45-3.76,.9-7.35,3.14-11.22,4.3-.81,.24-1.14,.82-1.06,1.74,.24,2.58,6.6,6.94,9.96,6.73,4.31-.27,6-2.87,6.05-7.32Z"/>
  <path class="cls-3" d="M292.73,434.37c-3.91,.38-8.06-.55-11.87-2.62-8.48-4.6-17.37-5.08-26.52-2.79-11.15,2.78-22.21,3.02-33.2-.64-5.58-1.86-11.2-1.23-16.63,.25-7.36,2.02-14.63,.77-21.94,.15-3.81-.32-4.05-2.96-3.45-5.94,1.44-7.13,4.4-13.64,8.55-19.55,2.9-4.13,5.81-8.17,7.49-13.03,1.24-3.59,10.66-8.71,14.39-8.19,1.94,.27,3.12,1.43,3.66,3.27,1.96,6.69,5.88,12.13,10.64,17.09,1.41,1.47,3.49,3.4,1.5,5.48-1.75,1.83-3.52-.32-5.09-1.2-4.34-2.44-7.44-6.1-9.91-10.37-1.54-2.66-3.13-6.17-6.95-4.54-3.75,1.6-.92,5.13-1.26,7.77-.38,2.9,4.04,5.3,1.25,7.99-3.13,3.02-4.83-1.64-7.39-2.23-1.81-.42-3.05,.04-4,1.46-.75,1.13-1.52,2.29-1.97,3.55-1.14,3.22-3.73,6.88-1.32,9.85,2.13,2.63,6.5,1.93,9.36,.97,12.38-4.13,24.57-1.85,36.75,.37,5.66,1.03,11.11,1.07,16.68-.24,4.9-1.15,9.95-1.46,14.93-2.12,8.7-1.14,15.58,4.08,23.43,5.81,7.69,1.69,9.09,.53,7.03-7.32-1.83-6.95-4.36-13.66-9.11-19.27-2.66-3.14-5.47-5-9.08-1.11-.87,.94-2.18,2.17-3.51,1.12-1.65-1.3-.51-2.99,.39-4.11,3.62-4.5,6.69-9.6,12.27-12.11,3.47-1.56,7.17-.86,6.85,3.09-.67,8.44,5.04,14.41,7.05,21.75,1.39,5.07,2.74,10.11,2.98,15.34,.42,9.35-2.31,12.08-12.01,12.06Z"/>
  <path class="cls-3" d="M327.03,133.99c15.95,3.29,12.34-.82,13.09-12.35,.44-6.72-.27-6.98-6.81-5.55-.76,.16-1.5,.42-2.27,.51-3.06,.36-6.87,0-7.11-3.18-.24-3.14,3.82-2.09,6.07-2.56,2.26-.47,4.6-.64,6.91-.86,3.13-.29,3.69-2.27,3.38-4.92-.3-2.6-1.62-3.7-4.3-3.39-4.11,.47-7.66,1.31-10.56,4.98-6.84,8.67-14.37,16.77-23.55,23.11-3.09,2.13-6.36,3.99-9.96,5.42,7.86-10.02,17.61-18.25,24.62-29.58-3.69-.73-6.4,.95-9.26,1.45-2.11,.37-4.16,.99-6.03-.75-1.27-1.18-3.19-2.14-2.61-4.13,.51-1.74,2.5-1.46,4.01-1.68,5.89-.86,11.77-1.74,18.39-2.71-3.68-1.78-9.31-1.09-9.21-4.42,.09-2.96,5.51-1.77,8.53-2.59,.74-.2,1.54-.22,2.28-.42,1.48-.41,3.51-.78,3.22-2.66-.34-2.25-2.5-1.22-3.83-1.07-4.84,.55-9.59,1.09-13.51-4.75,5.3-.33,9.8-.64,14.31-.88,6.26-.33,8.7-2.96,8.38-9.13-.1-2-2.59-4.88,1.41-5.49,3.62-.55,5.57,2.01,6.8,5.1,.14,.35,.21,.8,.11,1.15-2.48,8.53,2.89,6.87,7.7,5.96,.95-.18,1.91-.33,2.87-.47,2.86-.44,5.58,.53,5.74,3.38,.16,2.83-3,2.34-4.94,2.5-3.85,.32-7.74,.28-11.59,.59-1.5,.12-3.63,.64-3.47,2.4,.22,2.49,2.34,.99,3.7,1,.77,0,1.55-.02,2.32-.05,2.48-.09,4.54,1.16,4.5,3.45-.04,2.07-2.59,1.63-4.21,1.92-3.53,.63-7.89-1.22-10.95,4.46,7.63-.56,14.38-1.05,21.14-1.55,2.49-.18,5.02-.89,7.39,.49,1.2,.69,2.43,1.6,2.15,3.14-.31,1.71-1.88,1.74-3.25,1.65-1.93-.13-3.86-.59-5.78-.55-1.73,.03-4.9-1.2-4.77,1.22,.11,1.99,.7,5.6,4.35,5.91,.96,.08,1.96,.03,2.88,.25,1.34,.32,2.68,.85,2.74,2.53,.07,1.94-1.5,2.24-2.8,2.1-5.38-.58-5.6,2.55-5.71,6.74-.22,8.08-.02,16.42-7.7,22.09-5.26,3.88-5.92,3.9-8.61-1.98-.68-1.49-1.86-2.43-3.09-3.38-1.03-.8-2.58-.93-3.11-2.43Z"/>
  <path class="cls-4" d="M308.38,207.79c8.1,.13,11.75-4.54,14.88-10.99,2.83-5.83,9.41-7.75,15.3-9.74,3.63-1.22,7.71-3.39,11.05-2.66,4.98,1.09,1,6.26,2.24,9.57,3.25,8.69,3.67,17.39-3.61,24.77-2.69,2.73-1.45,5.43,.65,7.68,2.64,2.83,5.62,5.32,8.35,8.07,1.51,1.52,1.97,3.72,.64,5.28-1.22,1.42-2.77-.27-4.08-.9-3.56-1.72-6.51-4.12-8.53-7.62-.94-1.63-2.54-2.79-4.34-1.42-1.81,1.38-1.15,3.37,.27,4.53,10.25,8.35,8.59,20.45,10.1,31.56,.19,1.42-.31,2.96-1.72,3.3-1.14,.28-1.95-1.05-2.6-2.01-1.34-1.98-1.75-4.3-2.11-6.59-.39-2.49-.43-5.03-.94-7.49-.63-3.04-1.43-6.94-3.94-8.08-2.74-1.24-3.99,2.94-5.67,4.75-6.36,6.86-13.88,7.97-22.31,5.35-6.34-1.97-9.91-6.61-11.13-12.98-1.02-5.3,.08-10.46,2.3-15.28,1.99-4.3,3-7.81-3.42-8.83-1.76-.28-3.3-1.69-2.95-3.71,.33-1.94,2.18-2.54,3.93-2.91,2.05-.44,3.75,.43,5.48,1.39,1.94,1.07,4.45,3.41,6.07,.86,1.56-2.46-2.57-2.71-3.92-5.87Zm26.32,26.28c-.03-7.89-6.49-14.28-14.65-14.5-7.18-.19-14.36,9.06-14.56,18.75-.13,6.16,7.08,12.3,14.52,12.38,8.54,.09,14.74-6.92,14.7-16.63Zm-10.34-24.87c-.3,3.35,.76,5.86,3.84,7.74,7.57,4.63,15.23,2.18,20.13-6.71,2.53-4.59,1.68-12.47-1.99-15.62-4.24-3.64-8.66-2.09-12.98,.07-5.98,2.99-8.49,8.14-9.01,14.52Z"/>
  <path class="cls-4" d="M308.26,202.27c-3.25-.46-6.02,.99-8.65,3.26-4.58,3.95-8.31,8.65-12.24,13.19-1.54,1.78-3.33,3.67-5.9,1.76-2.11-1.57-1.79-4.19-.73-5.84,5.6-8.76,10.53-18.42,23.12-18.79,5.07-.15,5.66-3.23,3.64-7.22-2.3-4.55-5.84-8.19-9.16-11.97-4.17-4.74-7.46-9.9-8.54-16.24-.22-1.3-.18-3.03-2.02-2.99-2,.04-2.2,1.84-2.5,3.38-.38,2.01,.36,3.8,.94,5.66,2.53,8.16,4.4,16.44,4.58,25.05,.07,3.3-.77,5.82-3.12,8.31-3.59,3.78-6.64,8.07-9.91,12.15-1.42,1.78-3.29,3.42-5.42,2.03-2.55-1.66-.61-3.79,.47-5.51,1.02-1.63,2.14-3.27,3.51-4.59,4.8-4.6,6.82-10.34,6.78-16.76-.05-8.33-.29-16.65-2.26-24.84-1.1-4.58-1.14-9.24,.84-13.69,1.06-2.4,2.34-4.63,5.5-4.2,2.92,.4,6,.88,6.79,4.42,3.41,15.34,11.73,28.12,20.9,40.47,.34,.46,.6,.99,.86,1.52,4.01,8.25,2.02,11.44-7.44,11.46Z"/>
  <path class="cls-4" d="M116.85,386.82c-.32-3.82,.63-6.06,2.53-7.94,18.86-18.66,37.7-37.35,56.59-55.97,1.42-1.4,3.38-3.69,5.34-1.34,2.22,2.66,.27,4.94-1.83,6.96-16.65,15.93-33.28,31.88-49.88,47.87-2.08,2.01-4.03,4.17-5.92,6.36-.79,.92-.98,2.15,.03,3.14,.83,.81,1.76,.33,2.68,.04,2.69-.84,4.62-2.7,6.6-4.58,18.2-17.39,36.43-34.74,54.66-52.1,.98-.93,1.98-1.86,3.02-2.72,1.11-.92,2.34-1.5,3.62-.3,1.19,1.11,1.11,2.48,.32,3.71-.83,1.28-1.78,2.53-2.88,3.58-18.45,17.69-36.9,35.38-55.43,52.98-2.36,2.24-5.13,4.1-7.85,5.92-2.64,1.76-5.61,2.99-8.76,1.5-3.56-1.7-2.25-5.38-2.84-7.1Z"/>
  <path class="cls-3" d="M272.64,379.03c-.61,1.17-1.16,2.64-2.04,3.87-3.85,5.34-7.79,10.61-11.72,15.89-1.14,1.54-2.3,3.57-4.61,2.2-2.39-1.42-1.91-3.6-.62-5.56,3.82-5.83,7.66-11.66,11.62-17.39,1.09-1.57,2.55-3.07,4.87-2.24,1.36,.49,2.29,1.4,2.5,3.23Z"/>
  <path class="cls-3" d="M324.62,119.14c.58,.04,1.17,0,1.73,.13,3.33,.73,6.3,2,7.28,5.68,.35,1.33,.28,3.02-1.18,3.51-3.22,1.07-5.98-.39-8.5-2.3-.61-.46-1.25-.94-1.72-1.53-1.03-1.29-3.1-2.38-2.29-4.25,.82-1.9,3.03-1.1,4.69-1.24Z"/>
  <path class="cls-3" d="M240.25,195.74c6-.89,5.61-3.74,3.8-7.12-.54-1.02-1.12-2.12-1.25-3.23-.23-2.05-.8-4.8,2.12-5.16,2.99-.37,3.29,2.33,3.07,4.45-.23,2.24,.45,4.2,.92,6.26,.5,2.16,2.1,4.63-.65,6.28-2.38,1.42-4.7,.64-8.01-1.48Z"/>
  <path class="cls-3" d="M243.13,219.2c-2.75-.17-6.35-.39-6.33-3.39,.02-2.45,3.66-2.6,6.1-2.72,2.39-.12,4.95-.03,4.9,3.23-.05,3.07-2.82,2.43-4.68,2.89Z"/>
  <path class="cls-3" d="M229.8,169.35c2.42,1.88,6.43,2.17,7.57,6.03,.43,1.47-1.12,2.07-2.25,1.79-3.29-.81-7.13-1.14-8.62-4.76-.64-1.56,1.29-2.54,3.3-3.06Z"/>
  <path class="cls-3" d="M240.29,257.41v-26.53c.55,.02,1.11,.04,1.66,.06-.28,8.23,.34,16.49-1.66,26.47Z"/>
  <path class="cls-3" d="M244.96,166.73c-2.18-.3-5.43,.76-5.57-2.48-.12-2.78,2.92-2.8,4.86-2.38,2.31,.5,6.43-1.12,6.39,2.78-.03,2.79-3.53,2-5.68,2.08Z"/>
  <path class="cls-3" d="M229.37,225.12v25.17c-2.14-8.25-2.94-16.58-1.66-25.01,.55-.05,1.11-.1,1.66-.15Z"/>
  <path class="cls-3" d="M234.53,251.93c-1.27-8.02-2.63-15.07,0-22.28v22.28Z"/>
  <path class="cls-3" d="M255.84,188.55c-1.43-.33-3.52-.07-3.42-2.24,.13-2.77,2.32-3.26,4.62-3.16,1.74,.08,3.18,.97,3.13,2.76-.08,2.78-2.41,2.48-4.33,2.64Z"/>
  <path class="cls-3" d="M245.76,153.14c1.79,.48,5.19-1.35,4.97,1.7-.16,2.24-3.85,1.74-6.02,1.79-1.83,.04-4.99-.22-4.69-2.22,.57-3.7,3.81-.45,5.74-1.28Z"/>
  <path class="cls-3" d="M234.61,182.91c1.91,.27,4.18,.56,4.39,2.9,.17,2-1.88,2.3-3.41,2.14-1.91-.2-4.24-.63-4.46-2.93-.21-2.13,1.94-1.91,3.48-2.11Z"/>
  <path class="cls-3" d="M255.79,170.91c1.4,.34,3.52-.3,3.36,2.07-.15,2.3-2.19,2.33-3.88,2.43-1.52,.1-3.61,.11-3.65-1.73-.07-2.52,2.45-2.35,4.17-2.77Z"/>
  <path class="cls-3" d="M245.64,232.28c1.85,6.49,1.61,13.02,0,19.54v-19.54Z"/>
</svg>