  0
SECTION
  2
HEADER
  9
$ACADVER
  1
AC1032
  9
$ACADMAINTVER
 90
      228
  9
$DWGCODEPAGE
  3
ANSI_1252
  9
$REQUIREDVERSIONS
160
                 0
  9
$INSBASE
 10
0.0
 20
0.0
 30
0.0
  9
$EXTMIN
 10
1.000000000000000E+20
 20
1.000000000000000E+20
 30
1.000000000000000E+20
  9
$EXTMAX
 10
-1.000000000000000E+20
 20
-1.000000000000000E+20
 30
-1.000000000000000E+20
  9
$LIMMIN
 10
0.0
 20
0.0
  9
$LIMMAX
 10
12.0
 20
9.0
  9
$ORTHOMODE
 70
     0
  9
$REGENMODE
 70
     1
  9
$FILLMODE
 70
     1
  9
$QTEXTMODE
 70
     0
  9
$MIRRTEXT
 70
     0
  9
$LTSCALE
 40
1.0
  9
$ATTMODE
 70
     1
  9
$TEXTSIZE
 40
0.2
  9
$TRACEWID
 40
0.05
  9
$TEXTSTYLE
  7
Standard
  9
$CLAYER
  8
0
  9
$CELTYPE
  6
ByLayer
  9
$CECOLOR
 62
   256
  9
$CELTSCALE
 40
1.0
  9
$DISPSILH
 70
     0
  9
$DIMSCALE
 40
1.0
  9
$DIMASZ
 40
0.18
  9
$DIMEXO
 40
0.0625
  9
$DIMDLI
 40
0.38
  9
$DIMRND
 40
0.0
  9
$DIMDLE
 40
0.0
  9
$DIMEXE
 40
0.18
  9
$DIMTP
 40
0.0
  9
$DIMTM
 40
0.0
  9
$DIMTXT
 40
0.18
  9
$DIMCEN
 40
0.09
  9
$DIMTSZ
 40
0.0
  9
$DIMTOL
 70
     0
  9
$DIMLIM
 70
     0
  9
$DIMTIH
 70
     1
  9
$DIMTOH
 70
     1
  9
$DIMSE1
 70
     0
  9
$DIMSE2
 70
     0
  9
$DIMTAD
 70
     0
  9
$DIMZIN
 70
     0
  9
$DIMBLK
  1

  9
$DIMASO
 70
     1
  9
$DIMSHO
 70
     1
  9
$DIMPOST
  1

  9
$DIMAPOST
  1

  9
$DIMALT
 70
     0
  9
$DIMALTD
 70
     2
  9
$DIMALTF
 40
25.4
  9
$DIMLFAC
 40
1.0
  9
$DIMTOFL
 70
     0
  9
$DIMTVP
 40
0.0
  9
$DIMTIX
 70
     0
  9
$DIMSOXD
 70
     0
  9
$DIMSAH
 70
     0
  9
$DIMBLK1
  1

  9
$DIMBLK2
  1

  9
$DIMSTYLE
  2
Standard
  9
$DIMCLRD
 70
     0
  9
$DIMCLRE
 70
     0
  9
$DIMCLRT
 70
     0
  9
$DIMTFAC
 40
1.0
  9
$DIMGAP
 40
0.09
  9
$DIMJUST
 70
     0
  9
$DIMSD1
 70
     0
  9
$DIMSD2
 70
     0
  9
$DIMTOLJ
 70
     1
  9
$DIMTZIN
 70
     0
  9
$DIMALTZ
 70
     0
  9
$DIMALTTZ
 70
     0
  9
$DIMUPT
 70
     0
  9
$DIMDEC
 70
     4
  9
$DIMTDEC
 70
     4
  9
$DIMALTU
 70
     2
  9
$DIMALTTD
 70
     2
  9
$DIMTXSTY
  7
Standard
  9
$DIMAUNIT
 70
     0
  9
$DIMADEC
 70
     0
  9
$DIMALTRND
 40
0.0
  9
$DIMAZIN
 70
     0
  9
$DIMDSEP
 70
    46
  9
$DIMATFIT
 70
     3
  9
$DIMFRAC
 70
     0
  9
$DIMLDRBLK
  1

  9
$DIMLUNIT
 70
     2
  9
$DIMLWD
 70
    -2
  9
$DIMLWE
 70
    -2
  9
$DIMTMOVE
 70
     0
  9
$DIMFXL
 40
1.0
  9
$DIMFXLON
 70
     0
  9
$DIMJOGANG
 40
0.7853981633974483
  9
$DIMTFILL
 70
     0
  9
$DIMTFILLCLR
 70
     0
  9
$DIMARCSYM
 70
     0
  9
$DIMLTYPE
  6

  9
$DIMLTEX1
  6

  9
$DIMLTEX2
  6

  9
$DIMTXTDIRECTION
 70
     0
  9
$LUNITS
 70
     2
  9
$LUPREC
 70
     4
  9
$SKETCHINC
 40
0.1
  9
$FILLETRAD
 40
0.0
  9
$AUNITS
 70
     0
  9
$AUPREC
 70
     0
  9
$MENU
  1
.
  9
$ELEVATION
 40
0.0
  9
$PELEVATION
 40
0.0
  9
$THICKNESS
 40
0.0
  9
$LIMCHECK
 70
     0
  9
$CHAMFERA
 40
0.0
  9
$CHAMFERB
 40
0.0
  9
$CHAMFERC
 40
0.0
  9
$CHAMFERD
 40
0.0
  9
$SKPOLY
 70
     0
  9
$TDCREATE
 40
2460929.579282407
  9
$TDUCREATE
 40
2460929.370949074
  9
$TDUPDATE
 40
2460929.579282407
  9
$TDUUPDATE
 40
2460929.370949074
  9
$TDINDWG
 40
0.0000000000
  9
$TDUSRTIMER
 40
0.0000000000
  9
$USRTIMER
 70
     1
  9
$ANGBASE
 50
0.0
  9
$ANGDIR
 70
     0
  9
$PDMODE
 70
     0
  9
$PDSIZE
 40
0.0
  9
$PLINEWID
 40
0.0
  9
$SPLFRAME
 70
     0
  9
$SPLINETYPE
 70
     6
  9
$SPLINESEGS
 70
     8
  9
$HANDSEED
  5
99
  9
$SURFTAB1
 70
     6
  9
$SURFTAB2
 70
     6
  9
$SURFTYPE
 70
     6
  9
$SURFU
 70
     6
  9
$SURFV
 70
     6
  9
$UCSBASE
  2

  9
$UCSNAME
  2

  9
$UCSORG
 10
0.0
 20
0.0
 30
0.0
  9
$UCSXDIR
 10
1.0
 20
0.0
 30
0.0
  9
$UCSYDIR
 10
0.0
 20
1.0
 30
0.0
  9
$UCSORTHOREF
  2

  9
$UCSORTHOVIEW
 70
     0
  9
$UCSORGTOP
 10
0.0
 20
0.0
 30
0.0
  9
$UCSORGBOTTOM
 10
0.0
 20
0.0
 30
0.0
  9
$UCSORGLEFT
 10
0.0
 20
0.0
 30
0.0
  9
$UCSORGRIGHT
 10
0.0
 20
0.0
 30
0.0
  9
$UCSORGFRONT
 10
0.0
 20
0.0
 30
0.0
  9
$UCSORGBACK
 10
0.0
 20
0.0
 30
0.0
  9
$PUCSBASE
  2

  9
$PUCSNAME
  2

  9
$PUCSORG
 10
0.0
 20
0.0
 30
0.0
  9
$PUCSXDIR
 10
1.0
 20
0.0
 30
0.0
  9
$PUCSYDIR
 10
0.0
 20
1.0
 30
0.0
  9
$PUCSORTHOREF
  2

  9
$PUCSORTHOVIEW
 70
     0
  9
$PUCSORGTOP
 10
0.0
 20
0.0
 30
0.0
  9
$PUCSORGBOTTOM
 10
0.0
 20
0.0
 30
0.0
  9
$PUCSORGLEFT
 10
0.0
 20
0.0
 30
0.0
  9
$PUCSORGRIGHT
 10
0.0
 20
0.0
 30
0.0
  9
$PUCSORGFRONT
 10
0.0
 20
0.0
 30
0.0
  9
$PUCSORGBACK
 10
0.0
 20
0.0
 30
0.0
  9
$USERI1
 70
     0
  9
$USERI2
 70
     0
  9
$USERI3
 70
     0
  9
$USERI4
 70
     0
  9
$USERI5
 70
     0
  9
$USERR1
 40
0.0
  9
$USERR2
 40
0.0
  9
$USERR3
 40
0.0
  9
$USERR4
 40
0.0
  9
$USERR5
 40
0.0
  9
$WORLDVIEW
 70
     1
  9
$SHADEDGE
 70
     3
  9
$SHADEDIF
 70
    70
  9
$TILEMODE
 70
     1
  9
$MAXACTVP
 70
    64
  9
$PINSBASE
 10
0.0
 20
0.0
 30
0.0
  9
$PLIMCHECK
 70
     0
  9
$PEXTMIN
 10
1.000000000000000E+20
 20
1.000000000000000E+20
 30
1.000000000000000E+20
  9
$PEXTMAX
 10
-1.000000000000000E+20
 20
-1.000000000000000E+20
 30
-1.000000000000000E+20
  9
$PLIMMIN
 10
0.0
 20
0.0
  9
$PLIMMAX
 10
12.0
 20
9.0
  9
$UNITMODE
 70
     0
  9
$VISRETAIN
 70
     1
  9
$PLINEGEN
 70
     0
  9
$PSLTSCALE
 70
     1
  9
$TREEDEPTH
 70
  3020
  9
$CMLSTYLE
  2
Standard
  9
$CMLJUST
 70
     0
  9
$CMLSCALE
 40
1.0
  9
$PROXYGRAPHICS
 70
     1
  9
$MEASUREMENT
 70
     0
  9
$CELWEIGHT
370
    -1
  9
$ENDCAPS
280
     0
  9
$JOINSTYLE
280
     0
  9
$LWDISPLAY
290
     1
  9
$INSUNITS
 70
     0
  9
$HYPERLINKBASE
  1

  9
$STYLESHEET
  1

  9
$XEDIT
290
     1
  9
$CEPSNTYPE
380
     0
  9
$PSTYLEMODE
290
     1
  9
$FINGERPRINTGUID
  2
{134CF97A-88E2-D646-B786-4FBD17B10770}
  9
$VERSIONGUID
  2
{5CC8A096-E527-E348-ACF0-07177E72B7D7}
  9
$EXTNAMES
290
     1
  9
$PSVPSCALE
 40
0.0
  9
$OLESTARTUP
290
     0
  9
$SORTENTS
280
   127
  9
$INDEXCTL
280
     0
  9
$HIDETEXT
280
     1
  9
$XCLIPFRAME
280
     2
  9
$HALOGAP
280
     0
  9
$OBSCOLOR
 70
   257
  9
$OBSLTYPE
280
     0
  9
$INTERSECTIONDISPLAY
280
     0
  9
$INTERSECTIONCOLOR
 70
   257
  9
$DIMASSOC
280
     2
  9
$PROJECTNAME
  1

  9
$CAMERADISPLAY
290
     0
  9
$LENSLENGTH
 40
50.0
  9
$CAMERAHEIGHT
 40
0.0
  9
$STEPSPERSEC
 40
2.0
  9
$STEPSIZE
 40
6.0
  9
$3DDWFPREC
 40
2.0
  9
$PSOLWIDTH
 40
0.25
  9
$PSOLHEIGHT
 40
4.0
  9
$LOFTANG1
 40
1.570796326794896
  9
$LOFTANG2
 40
1.570796326794896
  9
$LOFTMAG1
 40
0.0
  9
$LOFTMAG2
 40
0.0
  9
$LOFTPARAM
 70
     7
  9
$LOFTNORMALS
280
     1
  9
$LATITUDE
 40
37.795
  9
$LONGITUDE
 40
-122.394
  9
$NORTHDIRECTION
 40
0.0
  9
$TIMEZONE
 70
 -8000
  9
$LIGHTGLYPHDISPLAY
280
     1
  9
$TILEMODELIGHTSYNCH
280
     1
  9
$CMATERIAL
347
11
  9
$SOLIDHIST
280
     0
  9
$SHOWHIST
280
     1
  9
$DWFFRAME
280
     2
  9
$DGNFRAME
280
     0
  9
$REALWORLDSCALE
290
     1
  9
$INTERFERECOLOR
 62
     1
  9
$INTERFEREOBJVS
345
33
  9
$INTERFEREVPVS
346
30
  9
$CSHADOW
280
     0
  9
$SHADOWPLANELOCATION
 40
0.0
  0
ENDSEC
  0
SECTION
  2
CLASSES
  0
CLASS
  1
ACDBDICTIONARYWDFLT
  2
AcDbDictionaryWithDefault
  3
ObjectDBX Classes
 90
        0
 91
        1
280
     0
281
     0
  0
CLASS
  1
MATERIAL
  2
AcDbMaterial
  3
ObjectDBX Classes
 90
     1153
 91
        3
280
     0
281
     0
  0
CLASS
  1
VISUALSTYLE
  2
AcDbVisualStyle
  3
ObjectDBX Classes
 90
     4095
 91
       24
280
     0
281
     0
  0
CLASS
  1
SCALE
  2
AcDbScale
  3
ObjectDBX Classes
 90
     1153
 91
       17
280
     0
281
     0
  0
CLASS
  1
TABLESTYLE
  2
AcDbTableStyle
  3
ObjectDBX Classes
 90
     4095
 91
        1
280
     0
281
     0
  0
CLASS
  1
MLEADERSTYLE
  2
AcDbMLeaderStyle
  3
ACDB_MLEADERSTYLE_CLASS
 90
     4095
 91
        1
280
     0
281
     0
  0
CLASS
  1
ACDBSECTIONVIEWSTYLE
  2
AcDbSectionViewStyle
  3
ObjectDBX Classes
 90
     1025
 91
        1
280
     0
281
     0
  0
CLASS
  1
ACDBDETAILVIEWSTYLE
  2
AcDbDetailViewStyle
  3
ObjectDBX Classes
 90
     1025
 91
        1
280
     0
281
     0
  0
CLASS
  1
DICTIONARYVAR
  2
AcDbDictionaryVar
  3
ObjectDBX Classes
 90
        0
 91
        5
280
     0
281
     0
  0
CLASS
  1
CELLSTYLEMAP
  2
AcDbCellStyleMap
  3
ObjectDBX Classes
 90
     1152
 91
        1
280
     0
281
     0
  0
ENDSEC
  0
SECTION
  2
TABLES
  0
TABLE
  2
VPORT
  5
8
330
0
100
AcDbSymbolTable
 70
     1
  0
VPORT
  5
57
330
8
100
AcDbSymbolTableRecord
100
AcDbViewportTableRecord
  2
*Active
 70
     0
 10
0.0
 20
0.0
 11
1.0
 21
1.0
 12
0.0
 22
0.0
 13
0.0
 23
0.0
 14
1.0
 24
1.0
 15
0.0
 25
0.0
 16
0.0
 26
0.0
 36
1.0
 17
2070.329143804109
 27
-1549.708560332395
 37
0.0
 40
3099.36839297975
 41
1.304893925962813
 42
50.0
 43
0.0
 44
0.0
 50
0.0
 51
0.0
 71
     0
 72
   100
 73
     1
 74
     1
 75
     0
 76
     0
 77
     0
 78
     0
281
     0
 65
     1
110
0.0
120
0.0
130
0.0
111
1.0
121
0.0
131
0.0
112
0.0
122
1.0
132
0.0
 79
     0
146
0.0
 60
     3
 61
     5
292
     1
282
     1
141
0.0
142
0.0
 63
   250
421
  3355443
  0
ENDTAB
  0
TABLE
  2
LTYPE
  5
5
330
0
100
AcDbSymbolTable
 70
     1
  0
LTYPE
  5
5B
330
5
100
AcDbSymbolTableRecord
100
AcDbLinetypeTableRecord
  2
ByBlock
 70
     0
  3

 72
    65
 73
     0
 40
0.0
  0
LTYPE
  5
5C
330
5
100
AcDbSymbolTableRecord
100
AcDbLinetypeTableRecord
  2
ByLayer
 70
     0
  3

 72
    65
 73
     0
 40
0.0
  0
LTYPE
  5
5D
330
5
100
AcDbSymbolTableRecord
100
AcDbLinetypeTableRecord
  2
Continuous
 70
     0
  3
Solid line
 72
    65
 73
     0
 40
0.0
  0
ENDTAB
  0
TABLE
  2
LAYER
  5
2
330
0
100
AcDbSymbolTable
 70
     2
  0
LAYER
  5
54
330
2
100
AcDbSymbolTableRecord
100
AcDbLayerTableRecord
  2
0
 70
     0
 62
     7
  6
Continuous
370
    -3
390
F
347
21
348
0
  0
LAYER
  5
78
330
2
100
AcDbSymbolTableRecord
100
AcDbLayerTableRecord
  2
Layer 1
 70
     0
 62
     7
  6
Continuous
370
     0
390
F
347
21
348
0
  0
ENDTAB
  0
TABLE
  2
STYLE
  5
3
330
0
100
AcDbSymbolTable
 70
     2
  0
STYLE
  5
55
330
3
100
AcDbSymbolTableRecord
100
AcDbTextStyleTableRecord
  2
Standard
 70
     0
 40
0.0
 41
1.0
 50
0.0
 71
     0
 42
0.2
  3
txt
  4

  0
STYLE
  5
5A
330
3
100
AcDbSymbolTableRecord
100
AcDbTextStyleTableRecord
  2
Annotative
 70
     0
 40
0.0
 41
1.0
 50
0.0
 71
     0
 42
0.2
  3
txt
  4

1001
AcadAnnotative
1000
AnnotativeData
1002
{
1070
     1
1070
     1
1002
}
  0
ENDTAB
  0
TABLE
  2
VIEW
  5
6
330
0
100
AcDbSymbolTable
 70
     0
  0
ENDTAB
  0
TABLE
  2
UCS
  5
7
330
0
100
AcDbSymbolTable
 70
     0
  0
ENDTAB
  0
TABLE
  2
APPID
  5
9
330
0
100
AcDbSymbolTable
 70
     2
  0
APPID
  5
56
330
9
100
AcDbSymbolTableRecord
100
AcDbRegAppTableRecord
  2
ACAD
 70
     0
  0
APPID
  5
5E
330
9
100
AcDbSymbolTableRecord
100
AcDbRegAppTableRecord
  2
AcadAnnotative
 70
     0
  0
ENDTAB
  0
TABLE
  2
DIMSTYLE
  5
A
330
0
100
AcDbSymbolTable
 70
     2
100
AcDbDimStyleTable
 71
     0
  0
DIMSTYLE
105
58
330
A
100
AcDbSymbolTableRecord
100
AcDbDimStyleTableRecord
  2
Standard
 70
     0
340
55
  0
DIMSTYLE
105
59
330
A
100
AcDbSymbolTableRecord
100
AcDbDimStyleTableRecord
  2
Annotative
 70
     0
340
55
1001
AcadAnnotative
1000
AnnotativeData
1002
{
1070
     1
1070
     1
1002
}
  0
ENDTAB
  0
TABLE
  2
BLOCK_RECORD
  5
1
330
0
100
AcDbSymbolTable
 70
     1
  0
BLOCK_RECORD
  5
70
330
1
100
AcDbSymbolTableRecord
100
AcDbBlockTableRecord
  2
*Model_Space
340
73
 70
     0
280
     1
281
     0
  0
BLOCK_RECORD
  5
6C
330
1
100
AcDbSymbolTableRecord
100
AcDbBlockTableRecord
  2
*Paper_Space
340
6F
 70
     0
280
     1
281
     0
  0
BLOCK_RECORD
  5
74
330
1
100
AcDbSymbolTableRecord
100
AcDbBlockTableRecord
  2
*Paper_Space0
340
77
 70
     0
280
     1
281
     0
  0
ENDTAB
  0
ENDSEC
  0
SECTION
  2
BLOCKS
  0
BLOCK
  5
71
330
70
100
AcDbEntity
  8
0
100
AcDbBlockBegin
  2
*Model_Space
 70
     0
 10
0.0
 20
0.0
 30
0.0
  3
*Model_Space
  1

  0
ENDBLK
  5
72
330
70
100
AcDbEntity
  8
0
100
AcDbBlockEnd
  0
BLOCK
  5
6D
330
6C
100
AcDbEntity
 67
     1
  8
0
100
AcDbBlockBegin
  2
*Paper_Space
 70
     0
 10
0.0
 20
0.0
 30
0.0
  3
*Paper_Space
  1

  0
ENDBLK
  5
6E
330
6C
100
AcDbEntity
 67
     1
  8
0
100
AcDbBlockEnd
  0
BLOCK
  5
75
330
74
100
AcDbEntity
 67
     1
  8
0
100
AcDbBlockBegin
  2
*Paper_Space0
 70
     0
 10
0.0
 20
0.0
 30
0.0
  3
*Paper_Space0
  1

  0
ENDBLK
  5
76
330
74
100
AcDbEntity
 67
     1
  8
0
100
AcDbBlockEnd
  0
ENDSEC
  0
SECTION
  2
ENTITIES
  0
SPLINE
  5
79
330
70
100
AcDbEntity
  8
Layer 1
100
AcDbSpline
210
0.0
220
0.0
230
1.0
 70
     9
 71
     3
 72
    53
 73
    49
 74
     0
 42
0.0000000001
 43
0.0000000001
 40
0.0
 40
0.0
 40
0.0
 40
0.0
 40
1.0
 40
1.0
 40
1.0
 40
2.0
 40
2.0
 40
2.0
 40
3.0
 40
3.0
 40
3.0
 40
4.0
 40
4.0
 40
4.0
 40
5.0
 40
5.0
 40
5.0
 40
6.0
 40
6.0
 40
6.0
 40
7.0
 40
7.0
 40
7.0
 40
8.0
 40
8.0
 40
8.0
 40
9.0
 40
9.0
 40
9.0
 40
10.0
 40
10.0
 40
10.0
 40
11.0
 40
11.0
 40
11.0
 40
12.0
 40
12.0
 40
12.0
 40
13.0
 40
13.0
 40
13.0
 40
14.0
 40
14.0
 40
14.0
 40
15.0
 40
15.0
 40
15.0
 40
16.0
 40
16.0
 40
16.0
 40
16.0
 10
3520.202659172983
 20
-1281.867610958129
 30
0.0
 10
3520.202659172983
 20
-1281.867610958129
 30
0.0
 10
3520.153965607498
 20
-1281.867610958129
 30
0.0
 10
3520.153965607498
 20
-1281.867610958129
 30
0.0
 10
3520.153965607498
 20
-1341.263690710072
 30
0.0
 10
3520.146997243852
 20
-1400.659770462015
 30
0.0
 10
3520.160933971149
 20
-1460.062776087584
 30
0.0
 10
3520.160933971149
 20
-1465.075111560535
 30
0.0
 10
3519.868517638128
 20
-1470.024816740716
 30
0.0
 10
3518.100337852839
 20
-1474.793471936152
 30
0.0
 10
3513.296755859125
 20
-1487.748934655738
 30
0.0
 10
3500.870463876452
 20
-1496.193316694681
 30
0.0
 10
3486.43906774451
 20
-1496.193316694681
 30
0.0
 10
3409.172661911031
 20
-1496.186348331034
 30
0.0
 10
3331.906256077553
 20
-1496.172454093762
 30
0.0
 10
3254.646818607722
 20
-1496.158517366469
 30
0.0
 10
3252.091893570731
 20
-1496.158517366469
 30
0.0
 10
3249.537053513785
 20
-1496.221147659243
 30
0.0
 10
3246.98909684044
 20
-1496.130686401907
 30
0.0
 10
3228.805491824966
 20
-1495.483223443088
 30
0.0
 10
3215.125999126492
 20
-1481.852509290141
 30
0.0
 10
3214.402054127653
 20
-1463.689766875585
 30
0.0
 10
3214.367212309422
 20
-1462.763866801063
 30
0.0
 10
3214.381149036714
 20
-1461.838009216562
 30
0.0
 10
3214.381149036714
 20
-1460.905140778393
 30
0.0
 10
3214.381149036714
 20
-1341.528233588507
 30
0.0
 10
3214.402054127653
 20
-1222.1512839086
 30
0.0
 10
3214.346307218483
 20
-1102.774376718714
 30
0.0
 10
3214.346307218483
 20
-1093.042122105829
 30
0.0
 10
3216.963862548248
 20
-1084.500267955879
 30
0.0
 10
3223.967237973109
 20
-1077.510829258311
 30
0.0
 10
3230.928803216095
 20
-1070.577137469912
 30
0.0
 10
3239.331375073158
 20
-1067.500180019739
 30
0.0
 10
3249.105354887876
 20
-1067.507148383386
 30
0.0
 10
3306.064929294799
 20
-1067.562725332472
 30
0.0
 10
3363.031472065366
 20
-1067.534936857929
 30
0.0
 10
3419.990876512198
 20
-1067.534936857929
 30
0.0
 10
3442.267885289748
 20
-1067.534936857929
 30
0.0
 10
3464.544894067296
 20
-1067.44443311057
 30
0.0
 10
3486.815019461245
 20
-1067.569693696118
 30
0.0
 10
3503.362588660579
 20
-1067.660282423522
 30
0.0
 10
3516.457333673056
 20
-1078.478582004733
 30
0.0
 10
3519.569132941457
 20
-1094.309174568877
 30
0.0
 10
3520.404571758643
 20
-1098.548659027398
 30
0.0
 10
3520.188807425731
 20
-1102.857912102428
 30
0.0
 10
3520.195690809337
 20
-1107.146260086517
 30
0.0
 10
3520.202659172983
 20
-1165.38665372369
 30
0.0
 10
3520.202659172983
 20
-1223.627217320955
 30
0.0
 10
3520.202659172983
 20
-1281.867610958129
 30
0.0
  0
SPLINE
  5
7A
330
70
100
AcDbEntity
  8
Layer 1
100
AcDbSpline
210
0.0
220
0.0
230
1.0
 70
     9
 71
     3
 72
    53
 73
    49
 74
     0
 42
0.0000000001
 43
0.0000000001
 40
0.0
 40
0.0
 40
0.0
 40
0.0
 40
1.0
 40
1.0
 40
1.0
 40
2.0
 40
2.0
 40
2.0
 40
3.0
 40
3.0
 40
3.0
 40
4.0
 40
4.0
 40
4.0
 40
5.0
 40
5.0
 40
5.0
 40
6.0
 40
6.0
 40
6.0
 40
7.0
 40
7.0
 40
7.0
 40
8.0
 40
8.0
 40
8.0
 40
9.0
 40
9.0
 40
9.0
 40
10.0
 40
10.0
 40
10.0
 40
11.0
 40
11.0
 40
11.0
 40
12.0
 40
12.0
 40
12.0
 40
13.0
 40
13.0
 40
13.0
 40
14.0
 40
14.0
 40
14.0
 40
15.0
 40
15.0
 40
15.0
 40
16.0
 40
16.0
 40
16.0
 40
16.0
 10
3522.632238644381
 20
-1333.710366927419
 30
0.0
 10
3522.632238644381
 20
-1255.866181771592
 30
0.0
 10
3522.653143735317
 20
-1178.015028252114
 30
0.0
 10
3522.639207008027
 20
-1100.170758116242
 30
0.0
 10
3522.639207008027
 20
-1089.860639200961
 30
0.0
 10
3518.685000558793
 20
-1081.249271374635
 30
0.0
 10
3511.145655993454
 20
-1074.252864313418
 30
0.0
 10
3503.961358053913
 20
-1067.583630423412
 30
0.0
 10
3495.322031792961
 20
-1064.910413164517
 30
0.0
 10
3485.673312563786
 20
-1064.931318255455
 30
0.0
 10
3465.603065581038
 20
-1064.966075093644
 30
0.0
 10
3445.532903578329
 20
-1064.966075093644
 30
0.0
 10
3425.462741575626
 20
-1064.966075093644
 30
0.0
 10
3366.40772923216
 20
-1064.959106729999
 30
0.0
 10
3307.352801868741
 20
-1064.94525498275
 30
0.0
 10
3248.297874505322
 20
-1064.938286619101
 30
0.0
 10
3236.957457530888
 20
-1064.938286619101
 30
0.0
 10
3227.580249543799
 20
-1069.275328168675
 30
0.0
 10
3220.152228836718
 20
-1077.831034065872
 30
0.0
 10
3213.879936734429
 20
-1085.050258803691
 30
0.0
 10
3211.798350545136
 20
-1093.564239499053
 30
0.0
 10
3211.812287272431
 20
-1102.955384213434
 30
0.0
 10
3211.895822656145
 20
-1162.47676704095
 30
0.0
 10
3211.854012474265
 20
-1221.991181504815
 30
0.0
 10
3211.854012474265
 20
-1281.505595968684
 30
0.0
 10
3211.854012474265
 20
-1331.162452744099
 30
0.0
 10
3211.840075746972
 20
-1380.81930951951
 30
0.0
 10
3211.86098083791
 20
-1430.4761238049
 30
0.0
 10
3211.86098083791
 20
-1442.185481642403
 30
0.0
 10
3211.798350545136
 20
-1453.901807843552
 30
0.0
 10
3212.035019968986
 20
-1465.611165681054
 30
0.0
 10
3212.202090736413
 20
-1473.825804169771
 30
0.0
 10
3215.557612772358
 20
-1480.86393643282
 30
0.0
 10
3221.071118057571
 20
-1486.913538328576
 30
0.0
 10
3229.146601723469
 20
-1495.768671412462
 30
0.0
 10
3239.345226820406
 20
-1498.817840388093
 30
0.0
 10
3251.089468966162
 20
-1498.796935297153
 30
0.0
 10
3324.060558451904
 20
-1498.678600585227
 30
0.0
 10
3397.038616301292
 20
-1498.769104332587
 30
0.0
 10
3470.009790767073
 20
-1498.699463186146
 30
0.0
 10
3478.00165406921
 20
-1498.685568948874
 30
0.0
 10
3486.063201007814
 20
-1499.534859513308
 30
0.0
 10
3493.985380673488
 20
-1498.065979444645
 30
0.0
 10
3511.027278791507
 20
-1494.891507393445
 30
0.0
 10
3522.632238644381
 20
-1480.439291150605
 30
0.0
 10
3522.646175371674
 20
-1462.492398049003
 30
0.0
 10
3522.680932209862
 20
-1419.567362966351
 30
0.0
 10
3522.632238644381
 20
-1376.642370373721
 30
0.0
 10
3522.632238644381
 20
-1333.710366927419
 30
0.0
  0
HATCH
  5
7B
330
70
100
AcDbEntity
  8
Layer 1
 62
    18
420
        0
440
 33554687
100
AcDbHatch
 10
0.0
 20
0.0
 30
0.0
210
0.0
220
0.0
230
1.0
  2
SOLID
 70
     1
 71
     1
 91
        2
 92
        1
 93
        1
 72
     4
 94
        3
 73
     0
 74
     0
 95
       53
 96
       49
 40
0.0
 40
0.0
 40
0.0
 40
0.0
 40
1.0
 40
1.0
 40
1.0
 40
2.0
 40
2.0
 40
2.0
 40
3.0
 40
3.0
 40
3.0
 40
4.0
 40
4.0
 40
4.0
 40
5.0
 40
5.0
 40
5.0
 40
6.0
 40
6.0
 40
6.0
 40
7.0
 40
7.0
 40
7.0
 40
8.0
 40
8.0
 40
8.0
 40
9.0
 40
9.0
 40
9.0
 40
10.0
 40
10.0
 40
10.0
 40
11.0
 40
11.0
 40
11.0
 40
12.0
 40
12.0
 40
12.0
 40
13.0
 40
13.0
 40
13.0
 40
14.0
 40
14.0
 40
14.0
 40
15.0
 40
15.0
 40
15.0
 40
16.0
 40
16.0
 40
16.0
 40
16.0
 10
3520.202659172983
 20
-1281.867610958129
 10
3520.202659172983
 20
-1281.867610958129
 10
3520.153965607498
 20
-1281.867610958129
 10
3520.153965607498
 20
-1281.867610958129
 10
3520.153965607498
 20
-1341.263690710072
 10
3520.146997243852
 20
-1400.659770462015
 10
3520.160933971149
 20
-1460.062776087584
 10
3520.160933971149
 20
-1465.075111560535
 10
3519.868517638128
 20
-1470.024816740716
 10
3518.100337852839
 20
-1474.793471936152
 10
3513.296755859125
 20
-1487.748934655738
 10
3500.870463876452
 20
-1496.193316694681
 10
3486.43906774451
 20
-1496.193316694681
 10
3409.172661911031
 20
-1496.186348331034
 10
3331.906256077553
 20
-1496.172454093762
 10
3254.646818607722
 20
-1496.158517366469
 10
3252.091893570731
 20
-1496.158517366469
 10
3249.537053513785
 20
-1496.221147659243
 10
3246.98909684044
 20
-1496.130686401907
 10
3228.805491824966
 20
-1495.483223443088
 10
3215.125999126492
 20
-1481.852509290141
 10
3214.402054127653
 20
-1463.689766875585
 10
3214.367212309422
 20
-1462.763866801063
 10
3214.381149036714
 20
-1461.838009216562
 10
3214.381149036714
 20
-1460.905140778393
 10
3214.381149036714
 20
-1341.528233588507
 10
3214.402054127653
 20
-1222.1512839086
 10
3214.346307218483
 20
-1102.774376718714
 10
3214.346307218483
 20
-1093.042122105829
 10
3216.963862548248
 20
-1084.500267955879
 10
3223.967237973109
 20
-1077.510829258311
 10
3230.928803216095
 20
-1070.577137469912
 10
3239.331375073158
 20
-1067.500180019739
 10
3249.105354887876
 20
-1067.507148383386
 10
3306.064929294799
 20
-1067.562725332472
 10
3363.031472065366
 20
-1067.534936857929
 10
3419.990876512198
 20
-1067.534936857929
 10
3442.267885289748
 20
-1067.534936857929
 10
3464.544894067296
 20
-1067.44443311057
 10
3486.815019461245
 20
-1067.569693696118
 10
3503.362588660579
 20
-1067.660282423522
 10
3516.457333673056
 20
-1078.478582004733
 10
3519.569132941457
 20
-1094.309174568877
 10
3520.404571758643
 20
-1098.548659027398
 10
3520.188807425731
 20
-1102.857912102428
 10
3520.195690809337
 20
-1107.146260086517
 10
3520.202659172983
 20
-1165.38665372369
 10
3520.202659172983
 20
-1223.627217320955
 10
3520.202659172983
 20
-1281.867610958129
 97
        0
 97
        1
330
79
 92
        1
 93
        1
 72
     4
 94
        3
 73
     0
 74
     0
 95
       53
 96
       49
 40
0.0
 40
0.0
 40
0.0
 40
0.0
 40
1.0
 40
1.0
 40
1.0
 40
2.0
 40
2.0
 40
2.0
 40
3.0
 40
3.0
 40
3.0
 40
4.0
 40
4.0
 40
4.0
 40
5.0
 40
5.0
 40
5.0
 40
6.0
 40
6.0
 40
6.0
 40
7.0
 40
7.0
 40
7.0
 40
8.0
 40
8.0
 40
8.0
 40
9.0
 40
9.0
 40
9.0
 40
10.0
 40
10.0
 40
10.0
 40
11.0
 40
11.0
 40
11.0
 40
12.0
 40
12.0
 40
12.0
 40
13.0
 40
13.0
 40
13.0
 40
14.0
 40
14.0
 40
14.0
 40
15.0
 40
15.0
 40
15.0
 40
16.0
 40
16.0
 40
16.0
 40
16.0
 10
3522.632238644381
 20
-1333.710366927419
 10
3522.632238644381
 20
-1255.866181771592
 10
3522.653143735317
 20
-1178.015028252114
 10
3522.639207008027
 20
-1100.170758116242
 10
3522.639207008027
 20
-1089.860639200961
 10
3518.685000558793
 20
-1081.249271374635
 10
3511.145655993454
 20
-1074.252864313418
 10
3503.961358053913
 20
-1067.583630423412
 10
3495.322031792961
 20
-1064.910413164517
 10
3485.673312563786
 20
-1064.931318255455
 10
3465.603065581038
 20
-1064.966075093644
 10
3445.532903578329
 20
-1064.966075093644
 10
3425.462741575626
 20
-1064.966075093644
 10
3366.40772923216
 20
-1064.959106729999
 10
3307.352801868741
 20
-1064.94525498275
 10
3248.297874505322
 20
-1064.938286619101
 10
3236.957457530888
 20
-1064.938286619101
 10
3227.580249543799
 20
-1069.275328168675
 10
3220.152228836718
 20
-1077.831034065872
 10
3213.879936734429
 20
-1085.050258803691
 10
3211.798350545136
 20
-1093.564239499053
 10
3211.812287272431
 20
-1102.955384213434
 10
3211.895822656145
 20
-1162.47676704095
 10
3211.854012474265
 20
-1221.991181504815
 10
3211.854012474265
 20
-1281.505595968684
 10
3211.854012474265
 20
-1331.162452744099
 10
3211.840075746972
 20
-1380.81930951951
 10
3211.86098083791
 20
-1430.4761238049
 10
3211.86098083791
 20
-1442.185481642403
 10
3211.798350545136
 20
-1453.901807843552
 10
3212.035019968986
 20
-1465.611165681054
 10
3212.202090736413
 20
-1473.825804169771
 10
3215.557612772358
 20
-1480.86393643282
 10
3221.071118057571
 20
-1486.913538328576
 10
3229.146601723469
 20
-1495.768671412462
 10
3239.345226820406
 20
-1498.817840388093
 10
3251.089468966162
 20
-1498.796935297153
 10
3324.060558451904
 20
-1498.678600585227
 10
3397.038616301292
 20
-1498.769104332587
 10
3470.009790767073
 20
-1498.699463186146
 10
3478.00165406921
 20
-1498.685568948874
 10
3486.063201007814
 20
-1499.534859513308
 10
3493.985380673488
 20
-1498.065979444645
 10
3511.027278791507
 20
-1494.891507393445
 10
3522.632238644381
 20
-1480.439291150605
 10
3522.646175371674
 20
-1462.492398049003
 10
3522.680932209862
 20
-1419.567362966351
 10
3522.632238644381
 20
-1376.642370373721
 10
3522.632238644381
 20
-1333.710366927419
 97
        0
 97
        1
330
7A
 75
     2
 76
     1
 98
        1
 10
0.0
 20
0.0
450
        0
451
        0
460
0.0
461
0.0
452
        0
462
0.0
453
        0
470

  0
SPLINE
  5
7C
330
70
100
AcDbEntity
  8
Layer 1
100
AcDbSpline
210
0.0
220
0.0
230
1.0
 70
     9
 71
     3
 72
    53
 73
    49
 74
     0
 42
0.0000000001
 43
0.0000000001
 40
0.0
 40
0.0
 40
0.0
 40
0.0
 40
1.0
 40
1.0
 40
1.0
 40
2.0
 40
2.0
 40
2.0
 40
3.0
 40
3.0
 40
3.0
 40
4.0
 40
4.0
 40
4.0
 40
5.0
 40
5.0
 40
5.0
 40
6.0
 40
6.0
 40
6.0
 40
7.0
 40
7.0
 40
7.0
 40
8.0
 40
8.0
 40
8.0
 40
9.0
 40
9.0
 40
9.0
 40
10.0
 40
10.0
 40
10.0
 40
11.0
 40
11.0
 40
11.0
 40
12.0
 40
12.0
 40
12.0
 40
13.0
 40
13.0
 40
13.0
 40
14.0
 40
14.0
 40
14.0
 40
15.0
 40
15.0
 40
15.0
 40
16.0
 40
16.0
 40
16.0
 40
16.0
 10
3520.202659172983
 20
-1281.867610958129
 30
0.0
 10
3520.202659172983
 20
-1281.867610958129
 30
0.0
 10
3520.153965607498
 20
-1281.867610958129
 30
0.0
 10
3520.153965607498
 20
-1281.867610958129
 30
0.0
 10
3520.153965607498
 20
-1341.263690710072
 30
0.0
 10
3520.146997243852
 20
-1400.659770462015
 30
0.0
 10
3520.160933971149
 20
-1460.062776087584
 30
0.0
 10
3520.160933971149
 20
-1465.075111560535
 30
0.0
 10
3519.868517638128
 20
-1470.024816740716
 30
0.0
 10
3518.100337852839
 20
-1474.793471936152
 30
0.0
 10
3513.296755859125
 20
-1487.748934655738
 30
0.0
 10
3500.870463876452
 20
-1496.193316694681
 30
0.0
 10
3486.43906774451
 20
-1496.193316694681
 30
0.0
 10
3409.172661911031
 20
-1496.186348331034
 30
0.0
 10
3331.906256077553
 20
-1496.172454093762
 30
0.0
 10
3254.646818607722
 20
-1496.158517366469
 30
0.0
 10
3252.091893570731
 20
-1496.158517366469
 30
0.0
 10
3249.537053513785
 20
-1496.221147659243
 30
0.0
 10
3246.98909684044
 20
-1496.130686401907
 30
0.0
 10
3228.805491824966
 20
-1495.483223443088
 30
0.0
 10
3215.125999126492
 20
-1481.852509290141
 30
0.0
 10
3214.402054127653
 20
-1463.689766875585
 30
0.0
 10
3214.367212309422
 20
-1462.763866801063
 30
0.0
 10
3214.381149036714
 20
-1461.838009216562
 30
0.0
 10
3214.381149036714
 20
-1460.905140778393
 30
0.0
 10
3214.381149036714
 20
-1341.528233588507
 30
0.0
 10
3214.402054127653
 20
-1222.1512839086
 30
0.0
 10
3214.346307218483
 20
-1102.774376718714
 30
0.0
 10
3214.346307218483
 20
-1093.042122105829
 30
0.0
 10
3216.963862548248
 20
-1084.500267955879
 30
0.0
 10
3223.967237973109
 20
-1077.510829258311
 30
0.0
 10
3230.928803216095
 20
-1070.577137469912
 30
0.0
 10
3239.331375073158
 20
-1067.500180019739
 30
0.0
 10
3249.105354887876
 20
-1067.507148383386
 30
0.0
 10
3306.064929294799
 20
-1067.562725332472
 30
0.0
 10
3363.031472065366
 20
-1067.534936857929
 30
0.0
 10
3419.990876512198
 20
-1067.534936857929
 30
0.0
 10
3442.267885289748
 20
-1067.534936857929
 30
0.0
 10
3464.544894067296
 20
-1067.44443311057
 30
0.0
 10
3486.815019461245
 20
-1067.569693696118
 30
0.0
 10
3503.362588660579
 20
-1067.660282423522
 30
0.0
 10
3516.457333673056
 20
-1078.478582004733
 30
0.0
 10
3519.569132941457
 20
-1094.309174568877
 30
0.0
 10
3520.404571758643
 20
-1098.548659027398
 30
0.0
 10
3520.188807425731
 20
-1102.857912102428
 30
0.0
 10
3520.195690809337
 20
-1107.146260086517
 30
0.0
 10
3520.202659172983
 20
-1165.38665372369
 30
0.0
 10
3520.202659172983
 20
-1223.627217320955
 30
0.0
 10
3520.202659172983
 20
-1281.867610958129
 30
0.0
  0
SPLINE
  5
7D
330
70
100
AcDbEntity
  8
Layer 1
100
AcDbSpline
210
0.0
220
0.0
230
1.0
 70
    11
 71
     3
 72
    50
 73
    46
 74
     0
 42
0.0000000001
 43
0.0000000001
 40
0.0
 40
0.0
 40
0.0
 40
0.0
 40
1.0
 40
1.0
 40
1.0
 40
2.0
 40
2.0
 40
2.0
 40
3.0
 40
3.0
 40
3.0
 40
4.0
 40
4.0
 40
4.0
 40
5.0
 40
5.0
 40
5.0
 40
6.0
 40
6.0
 40
6.0
 40
7.0
 40
7.0
 40
7.0
 40
8.0
 40
8.0
 40
8.0
 40
9.0
 40
9.0
 40
9.0
 40
10.0
 40
10.0
 40
10.0
 40
11.0
 40
11.0
 40
11.0
 40
12.0
 40
12.0
 40
12.0
 40
13.0
 40
13.0
 40
13.0
 40
14.0
 40
14.0
 40
14.0
 40
15.0
 40
15.0
 40
15.0
 40
15.0
 10
3261.04353385143
 20
-1090.488314096587
 30
0.0
 10
3261.04353385143
 20
-1090.488314096587
 30
0.0
 10
3242.175899882899
 20
-1090.488314096587
 30
0.0
 10
3242.175899882899
 20
-1090.488314096587
 30
0.0
 10
3242.175899882899
 20
-1090.488314096587
 30
0.0
 10
3240.274157004467
 20
-1105.692704990845
 30
0.0
 10
3240.274157004467
 20
-1105.692704990845
 30
0.0
 10
3241.415202731525
 20
-1105.510346084696
 30
0.0
 10
3242.48026558102
 20
-1105.328421366416
 30
0.0
 10
3244.306459769759
 20
-1105.328421366416
 30
0.0
 10
3248.110379714492
 20
-1105.328421366416
 30
0.0
 10
3251.91386547135
 20
-1106.33009278663
 30
0.0
 10
3254.95708826471
 20
-1108.514926157463
 30
0.0
 10
3258.836991087004
 20
-1111.155222605805
 30
0.0
 10
3262.032613823361
 20
-1116.253890784207
 30
0.0
 10
3262.032613823361
 20
-1123.719317051721
 30
0.0
 10
3262.032613823361
 20
-1135.281740077426
 30
0.0
 10
3254.348356868464
 20
-1143.931196671307
 30
0.0
 10
3243.621745495952
 20
-1143.931196671307
 30
0.0
 10
3238.220014183041
 20
-1143.931196671307
 30
0.0
 10
3233.655397086939
 20
-1142.110212737029
 30
0.0
 10
3231.296888567388
 20
-1140.289228802755
 30
0.0
 10
3231.296888567388
 20
-1140.289228802755
 30
0.0
 10
3232.970682813129
 20
-1134.18932339201
 30
0.0
 10
3232.970682813129
 20
-1134.18932339201
 30
0.0
 10
3235.024825634555
 20
-1135.646023701855
 30
0.0
 10
3239.057128399847
 20
-1137.467007636133
 30
0.0
 10
3243.545328430515
 20
-1137.467007636133
 30
0.0
 10
3249.860156837796
 20
-1137.467007636133
 30
0.0
 10
3255.261453962834
 20
-1132.550698363881
 30
0.0
 10
3255.261453962834
 20
-1124.629809018862
 30
0.0
 10
3255.185471085272
 20
-1116.982023845195
 30
0.0
 10
3250.925219687291
 20
-1111.519506230234
 30
0.0
 10
3241.034854155842
 20
-1111.519506230234
 30
0.0
 10
3238.220014183041
 20
-1111.519506230234
 30
0.0
 10
3236.013905606487
 20
-1111.883789854663
 30
0.0
 10
3234.188145605621
 20
-1112.156894026019
 30
0.0
 10
3234.188145605621
 20
-1112.156894026019
 30
0.0
 10
3237.383334154106
 20
-1083.751020890058
 30
0.0
 10
3237.383334154106
 20
-1083.751020890058
 30
0.0
 10
3237.383334154106
 20
-1083.751020890058
 30
0.0
 10
3261.04353385143
 20
-1083.751020890058
 30
0.0
 10
3261.04353385143
 20
-1083.751020890058
 30
0.0
 10
3261.04353385143
 20
-1083.751020890058
 30
0.0
 10
3261.04353385143
 20
-1090.488314096587
 30
0.0
 10
3261.04353385143
 20
-1090.488314096587
 30
0.0
  0
HATCH
  5
7E
330
70
100
AcDbEntity
  8
Layer 1
 62
   246
420
  8590872
440
 33554687
100
AcDbHatch
 10
0.0
 20
0.0
 30
0.0
210
0.0
220
0.0
230
1.0
  2
SOLID
 70
     1
 71
     1
 91
        1
 92
        1
 93
        1
 72
     4
 94
        3
 73
     0
 74
     0
 95
       50
 96
       46
 40
0.0
 40
0.0
 40
0.0
 40
0.0
 40
1.0
 40
1.0
 40
1.0
 40
2.0
 40
2.0
 40
2.0
 40
3.0
 40
3.0
 40
3.0
 40
4.0
 40
4.0
 40
4.0
 40
5.0
 40
5.0
 40
5.0
 40
6.0
 40
6.0
 40
6.0
 40
7.0
 40
7.0
 40
7.0
 40
8.0
 40
8.0
 40
8.0
 40
9.0
 40
9.0
 40
9.0
 40
10.0
 40
10.0
 40
10.0
 40
11.0
 40
11.0
 40
11.0
 40
12.0
 40
12.0
 40
12.0
 40
13.0
 40
13.0
 40
13.0
 40
14.0
 40
14.0
 40
14.0
 40
15.0
 40
15.0
 40
15.0
 40
15.0
 10
3261.04353385143
 20
-1090.488314096587
 10
3261.04353385143
 20
-1090.488314096587
 10
3242.175899882899
 20
-1090.488314096587
 10
3242.175899882899
 20
-1090.488314096587
 10
3242.175899882899
 20
-1090.488314096587
 10
3240.274157004467
 20
-1105.692704990845
 10
3240.274157004467
 20
-1105.692704990845
 10
3241.415202731525
 20
-1105.510346084696
 10
3242.48026558102
 20
-1105.328421366416
 10
3244.306459769759
 20
-1105.328421366416
 10
3248.110379714492
 20
-1105.328421366416
 10
3251.91386547135
 20
-1106.33009278663
 10
3254.95708826471
 20
-1108.514926157463
 10
3258.836991087004
 20
-1111.155222605805
 10
3262.032613823361
 20
-1116.253890784207
 10
3262.032613823361
 20
-1123.719317051721
 10
3262.032613823361
 20
-1135.281740077426
 10
3254.348356868464
 20
-1143.931196671307
 10
3243.621745495952
 20
-1143.931196671307
 10
3238.220014183041
 20
-1143.931196671307
 10
3233.655397086939
 20
-1142.110212737029
 10
3231.296888567388
 20
-1140.289228802755
 10
3231.296888567388
 20
-1140.289228802755
 10
3232.970682813129
 20
-1134.18932339201
 10
3232.970682813129
 20
-1134.18932339201
 10
3235.024825634555
 20
-1135.646023701855
 10
3239.057128399847
 20
-1137.467007636133
 10
3243.545328430515
 20
-1137.467007636133
 10
3249.860156837796
 20
-1137.467007636133
 10
3255.261453962834
 20
-1132.550698363881
 10
3255.261453962834
 20
-1124.629809018862
 10
3255.185471085272
 20
-1116.982023845195
 10
3250.925219687291
 20
-1111.519506230234
 10
3241.034854155842
 20
-1111.519506230234
 10
3238.220014183041
 20
-1111.519506230234
 10
3236.013905606487
 20
-1111.883789854663
 10
3234.188145605621
 20
-1112.156894026019
 10
3234.188145605621
 20
-1112.156894026019
 10
3237.383334154106
 20
-1083.751020890058
 10
3237.383334154106
 20
-1083.751020890058
 10
3237.383334154106
 20
-1083.751020890058
 10
3261.04353385143
 20
-1083.751020890058
 10
3261.04353385143
 20
-1083.751020890058
 10
3261.04353385143
 20
-1083.751020890058
 10
3261.04353385143
 20
-1090.488314096587
 10
3261.04353385143
 20
-1090.488314096587
 97
        0
 97
        1
330
7D
 75
     2
 76
     1
 98
        1
 10
0.0
 20
0.0
450
        0
451
        0
460
0.0
461
0.0
452
        0
462
0.0
453
        0
470

  0
SPLINE
  5
7F
330
70
100
AcDbEntity
  8
Layer 1
100
AcDbSpline
210
0.0
220
0.0
230
1.0
 70
     9
 71
     3
 72
    26
 73
    22
 74
     0
 42
0.0000000001
 43
0.0000000001
 40
0.0
 40
0.0
 40
0.0
 40
0.0
 40
1.0
 40
1.0
 40
1.0
 40
2.0
 40
2.0
 40
2.0
 40
3.0
 40
3.0
 40
3.0
 40
4.0
 40
4.0
 40
4.0
 40
5.0
 40
5.0
 40
5.0
 40
6.0
 40
6.0
 40
6.0
 40
7.0
 40
7.0
 40
7.0
 40
7.0
 10
3336.214757186819
 20
-1212.548609322523
 30
0.0
 10
3336.299296811114
 20
-1218.659621200529
 30
0.0
 10
3338.860849921224
 20
-1224.224147465114
 30
0.0
 10
3339.67413124935
 20
-1230.139210976061
 30
0.0
 10
3339.920617169366
 20
-1231.931951481657
 30
0.0
 10
3338.760290250122
 20
-1234.385421234955
 30
0.0
 10
3341.738971460234
 20
-1234.992819605502
 30
0.0
 10
3344.564601782034
 20
-1235.56900091545
 30
0.0
 10
3346.223129710721
 20
-1233.808391951589
 30
0.0
 10
3347.409652357779
 20
-1231.708227828459
 30
0.0
 10
3350.543612464788
 20
-1226.161101645856
 30
0.0
 10
3352.512407215996
 20
-1220.155014008011
 30
0.0
 10
3354.155031486378
 20
-1214.013890760238
 30
0.0
 10
3354.893250540165
 20
-1211.253986691722
 30
0.0
 10
3354.039399503462
 20
-1210.416671136649
 30
0.0
 10
3351.327730158137
 20
-1210.543434849032
 30
0.0
 10
3347.717674544787
 20
-1210.712189872488
 30
0.0
 10
3343.9800155591
 20
-1211.027444773933
 30
0.0
 10
3340.617451795017
 20
-1209.46950977021
 30
0.0
 10
3336.94911047944
 20
-1207.769888384661
 30
0.0
 10
3335.609387301702
 20
-1208.662588242715
 30
0.0
 10
3336.214757186819
 20
-1212.548609322523
 30
0.0
  0
SPLINE
  5
80
330
70
100
AcDbEntity
  8
Layer 1
100
AcDbSpline
210
0.0
220
0.0
230
1.0
 70
     9
 71
     3
 72
    23
 73
    19
 74
     0
 42
0.0000000001
 43
0.0000000001
 40
0.0
 40
0.0
 40
0.0
 40
0.0
 40
1.0
 40
1.0
 40
1.0
 40
2.0
 40
2.0
 40
2.0
 40
3.0
 40
3.0
 40
3.0
 40
4.0
 40
4.0
 40
4.0
 40
5.0
 40
5.0
 40
5.0
 40
6.0
 40
6.0
 40
6.0
 40
6.0
 10
3369.965903206848
 20
-1171.713655489116
 30
0.0
 10
3369.408194415848
 20
-1166.90334754147
 30
0.0
 10
3365.416908243819
 20
-1165.333391267541
 30
0.0
 10
3361.477473152201
 20
-1163.997213782572
 30
0.0
 10
3355.876883076998
 20
-1162.097595372573
 30
0.0
 10
3355.026415620498
 20
-1162.932026155334
 30
0.0
 10
3354.689936443232
 20
-1168.813295431574
 30
0.0
 10
3354.206192549206
 20
-1177.268479940195
 30
0.0
 10
3354.619479828434
 20
-1185.927207166028
 30
0.0
 10
3349.002013419541
 20
-1193.279452603424
 30
0.0
 10
3347.480341749593
 20
-1195.271034561848
 30
0.0
 10
3348.662566335314
 20
-1197.490031351871
 30
0.0
 10
3351.01195982187
 20
-1197.760210646775
 30
0.0
 10
3355.118370855458
 20
-1198.232440391953
 30
0.0
 10
3359.813458336699
 20
-1197.326738274835
 30
0.0
 10
3361.803070003949
 20
-1193.921559689814
 30
0.0
 10
3365.723916188112
 20
-1187.211105427145
 30
0.0
 10
3368.103254775139
 20
-1179.679571806305
 30
0.0
 10
3369.965903206848
 20
-1171.713655489116
 30
0.0
  0
SPLINE
  5
81
330
70
100
AcDbEntity
  8
Layer 1
100
AcDbSpline
210
0.0
220
0.0
230
1.0
 70
     9
 71
     3
 72
    29
 73
    25
 74
     0
 42
0.0000000001
 43
0.0000000001
 40
0.0
 40
0.0
 40
0.0
 40
0.0
 40
1.0
 40
1.0
 40
1.0
 40
2.0
 40
2.0
 40
2.0
 40
3.0
 40
3.0
 40
3.0
 40
4.0
 40
4.0
 40
4.0
 40
5.0
 40
5.0
 40
5.0
 40
6.0
 40
6.0
 40
6.0
 40
7.0
 40
7.0
 40
7.0
 40
8.0
 40
8.0
 40
8.0
 40
8.0
 10
3398.247629000441
 20
-1212.701086581758
 30
0.0
 10
3398.133967308698
 20
-1207.193640566992
 30
0.0
 10
3398.966444427213
 20
-1203.384319514102
 30
0.0
 10
3398.089490271628
 20
-1199.616424456672
 30
0.0
 10
3396.870520171167
 20
-1194.378924959798
 30
0.0
 10
3394.013082532765
 20
-1193.096007687535
 30
0.0
 10
3389.396366084878
 20
-1195.771247429785
 30
0.0
 10
3383.916146667573
 20
-1198.946849682344
 30
0.0
 10
3378.484694035211
 20
-1202.208837148396
 30
0.0
 10
3373.088232776499
 20
-1205.524712493753
 30
0.0
 10
3372.053572192274
 20
-1206.160468092978
 30
0.0
 10
3370.966678108253
 20
-1207.060616815562
 30
0.0
 10
3370.434566475595
 20
-1208.108312912708
 30
0.0
 10
3366.90299828411
 20
-1215.061886142118
 30
0.0
 10
3363.809350168271
 20
-1222.167088657349
 30
0.0
 10
3362.505532845317
 20
-1229.968502288361
 30
0.0
 10
3361.804691129601
 20
-1234.16195529917
 30
0.0
 10
3363.274054478567
 20
-1235.032649415706
 30
0.0
 10
3367.141794249119
 20
-1234.30683405151
 30
0.0
 10
3373.966425638351
 20
-1233.026161414765
 30
0.0
 10
3380.248761400457
 20
-1230.25310544482
 30
0.0
 10
3386.710102688208
 20
-1227.912407842524
 30
0.0
 10
3394.777040073797
 20
-1224.990058670389
 30
0.0
 10
3401.628615402682
 20
-1221.565368383309
 30
0.0
 10
3398.247629000441
 20
-1212.701086581758
 30
0.0
  0
SPLINE
  5
82
330
70
100
AcDbEntity
  8
Layer 1
100
AcDbSpline
210
0.0
220
0.0
230
1.0
 70
     9
 71
     3
 72
   134
 73
   130
 74
     0
 42
0.0000000001
 43
0.0000000001
 40
0.0
 40
0.0
 40
0.0
 40
0.0
 40
1.0
 40
1.0
 40
1.0
 40
2.0
 40
2.0
 40
2.0
 40
3.0
 40
3.0
 40
3.0
 40
4.0
 40
4.0
 40
4.0
 40
5.0
 40
5.0
 40
5.0
 40
6.0
 40
6.0
 40
6.0
 40
7.0
 40
7.0
 40
7.0
 40
8.0
 40
8.0
 40
8.0
 40
9.0
 40
9.0
 40
9.0
 40
10.0
 40
10.0
 40
10.0
 40
11.0
 40
11.0
 40
11.0
 40
12.0
 40
12.0
 40
12.0
 40
13.0
 40
13.0
 40
13.0
 40
14.0
 40
14.0
 40
14.0
 40
15.0
 40
15.0
 40
15.0
 40
16.0
 40
16.0
 40
16.0
 40
17.0
 40
17.0
 40
17.0
 40
18.0
 40
18.0
 40
18.0
 40
19.0
 40
19.0
 40
19.0
 40
20.0
 40
20.0
 40
20.0
 40
21.0
 40
21.0
 40
21.0
 40
22.0
 40
22.0
 40
22.0
 40
23.0
 40
23.0
 40
23.0
 40
24.0
 40
24.0
 40
24.0
 40
25.0
 40
25.0
 40
25.0
 40
26.0
 40
26.0
 40
26.0
 40
27.0
 40
27.0
 40
27.0
 40
28.0
 40
28.0
 40
28.0
 40
29.0
 40
29.0
 40
29.0
 40
30.0
 40
30.0
 40
30.0
 40
31.0
 40
31.0
 40
31.0
 40
32.0
 40
32.0
 40
32.0
 40
33.0
 40
33.0
 40
33.0
 40
34.0
 40
34.0
 40
34.0
 40
35.0
 40
35.0
 40
35.0
 40
36.0
 40
36.0
 40
36.0
 40
37.0
 40
37.0
 40
37.0
 40
38.0
 40
38.0
 40
38.0
 40
39.0
 40
39.0
 40
39.0
 40
40.0
 40
40.0
 40
40.0
 40
41.0
 40
41.0
 40
41.0
 40
42.0
 40
42.0
 40
42.0
 40
43.0
 40
43.0
 40
43.0
 40
43.0
 10
3411.643131577122
 20
-1245.923554430123
 30
0.0
 10
3409.692377044692
 20
-1246.226364074654
 30
0.0
 10
3406.469346475034
 20
-1246.70625052098
 30
0.0
 10
3403.253665008324
 20
-1247.231112812268
 30
0.0
 10
3399.39909376613
 20
-1247.860234266526
 30
0.0
 10
3396.853444314322
 20
-1247.594893408176
 30
0.0
 10
3397.836644550982
 20
-1242.343477171104
 30
0.0
 10
3399.044541116229
 20
-1235.892161921988
 30
0.0
 10
3398.743144760727
 20
-1235.864270247342
 30
0.0
 10
3392.497255228624
 20
-1238.102279931529
 30
0.0
 10
3380.881000404045
 20
-1242.264607329853
 30
0.0
 10
3369.174619306777
 20
-1246.189543738733
 30
0.0
 10
3357.658342210762
 20
-1250.610769060128
 30
0.0
 10
3351.966561739368
 20
-1252.795905107724
 30
0.0
 10
3346.015268148502
 20
-1255.075108010359
 30
0.0
 10
3344.017816883878
 20
-1262.012752641073
 30
0.0
 10
3343.386691884585
 20
-1264.20479717798
 30
0.0
 10
3341.144059913928
 20
-1263.876199165411
 30
0.0
 10
3339.35880152672
 20
-1263.900973290733
 30
0.0
 10
3326.087834653832
 20
-1264.085183045387
 30
0.0
 10
3317.164743401769
 20
-1250.075423489638
 30
0.0
 10
3321.950713681002
 20
-1236.504980671631
 30
0.0
 10
3323.333650249148
 20
-1232.583685560367
 30
0.0
 10
3325.370016842844
 20
-1228.879039343695
 30
0.0
 10
3325.465181075244
 20
-1224.568424672431
 30
0.0
 10
3325.512110584452
 20
-1222.442571942844
 30
0.0
 10
3325.143965419484
 20
-1220.480452903929
 30
0.0
 10
3323.206645446284
 20
-1219.368535290637
 30
0.0
 10
3320.993418200884
 20
-1218.098246171518
 30
0.0
 10
3319.942970346863
 20
-1220.221180874935
 30
0.0
 10
3318.713350697905
 20
-1221.352884534623
 30
0.0
 10
3306.484019406271
 20
-1232.608310043321
 30
0.0
 10
3293.066627476576
 20
-1242.137477825018
 30
0.0
 10
3278.109872823687
 20
-1249.437581210725
 30
0.0
 10
3273.200460061289
 20
-1251.833771191051
 30
0.0
 10
3268.18676527389
 20
-1254.022847820998
 30
0.0
 10
3262.57394609186
 20
-1253.884129346127
 30
0.0
 10
3261.054228086159
 20
-1253.846577425295
 30
0.0
 10
3258.875104752031
 20
-1253.967820997001
 30
0.0
 10
3258.513550086342
 20
-1251.997571389443
 30
0.0
 10
3258.189694905484
 20
-1250.232755812359
 30
0.0
 10
3260.301662070368
 20
-1249.942499499783
 30
0.0
 10
3261.473744228942
 20
-1249.31794213774
 30
0.0
 10
3278.767430484542
 20
-1240.102906939734
 30
0.0
 10
3293.991799728425
 20
-1228.152824933183
 30
0.0
 10
3307.795119324452
 20
-1214.33528099876
 30
0.0
 10
3314.778330056135
 20
-1207.344870806498
 30
0.0
 10
3320.819084842498
 20
-1199.652255490277
 30
0.0
 10
3324.117319015396
 20
-1190.180641825897
 30
0.0
 10
3326.309970435236
 20
-1183.883961180153
 30
0.0
 10
3326.562267467202
 20
-1177.603416969728
 30
0.0
 10
3321.971555537439
 20
-1172.172051628747
 30
0.0
 10
3319.46830475648
 20
-1169.210396394694
 30
0.0
 10
3320.399030402863
 20
-1167.185814137455
 30
0.0
 10
3322.04210360035
 20
-1164.091920774402
 30
0.0
 10
3325.665477384428
 20
-1157.269168228232
 30
0.0
 10
3329.166476965576
 20
-1150.757686355468
 30
0.0
 10
3336.63698975425
 20
-1147.212124524235
 30
0.0
 10
3339.155711893338
 20
-1146.016716861592
 30
0.0
 10
3340.848325028002
 20
-1145.781578821127
 30
0.0
 10
3342.979772719449
 20
-1147.501593136011
 30
0.0
 10
3345.377093330997
 20
-1149.436167587436
 30
0.0
 10
3348.519366902877
 20
-1150.7320351596
 30
0.0
 10
3350.298182354809
 20
-1153.089883439931
 30
0.0
 10
3354.091358658916
 20
-1158.11783997632
 30
0.0
 10
3358.62432526167
 20
-1157.791141590475
 30
0.0
 10
3363.845239396127
 20
-1156.490084337864
 30
0.0
 10
3382.830873709201
 20
-1151.75886861665
 30
0.0
 10
3400.146923185312
 20
-1142.808282657884
 30
0.0
 10
3417.991592638831
 20
-1135.207461503241
 30
0.0
 10
3431.872202517778
 20
-1129.295091554912
 30
0.0
 10
3445.401768029002
 20
-1132.355476458612
 30
0.0
 10
3458.735900607995
 20
-1136.762367288201
 30
0.0
 10
3464.365579496787
 20
-1138.622964372455
 30
0.0
 10
3464.149612306317
 20
-1143.710921263195
 30
0.0
 10
3462.964095588506
 20
-1148.722406747304
 30
0.0
 10
3461.786327019958
 20
-1153.701051966797
 30
0.0
 10
3459.253131138527
 20
-1156.984469466927
 30
0.0
 10
3453.788707304479
 20
-1157.029333080111
 30
0.0
 10
3447.884484551724
 20
-1157.077808893788
 30
0.0
 10
3442.317273037988
 20
-1155.184995054785
 30
0.0
 10
3436.781303525244
 20
-1153.515724051119
 30
0.0
 10
3429.517380338661
 20
-1151.325427420202
 30
0.0
 10
3422.509046316132
 20
-1151.49324717886
 30
0.0
 10
3415.455337402327
 20
-1154.17689599083
 30
0.0
 10
3407.311982647625
 20
-1157.275112355616
 30
0.0
 10
3399.103267432092
 20
-1160.225419710118
 30
0.0
 10
3391.729506747608
 20
-1164.989188881406
 30
0.0
 10
3384.231193732398
 20
-1169.833419922467
 30
0.0
 10
3379.405526658397
 20
-1176.615332572453
 30
0.0
 10
3377.197287491919
 20
-1185.281226005009
 30
0.0
 10
3376.515300714533
 20
-1187.957579751551
 30
0.0
 10
3376.801017875285
 20
-1189.254588346773
 30
0.0
 10
3379.983478736362
 20
-1187.973200752048
 30
0.0
 10
3384.521716075847
 20
-1186.145905329708
 30
0.0
 10
3389.177638824072
 20
-1184.605432758953
 30
0.0
 10
3393.685648405281
 20
-1182.710174761277
 30
0.0
 10
3397.400852722341
 20
-1181.148224354024
 30
0.0
 10
3399.92901064406
 20
-1178.274683534157
 30
0.0
 10
3400.754554332875
 20
-1174.288809427763
 30
0.0
 10
3401.469346042647
 20
-1170.837682322385
 30
0.0
 10
3403.373345648637
 20
-1170.597872114661
 30
0.0
 10
3406.28518660117
 20
-1171.393158948068
 30
0.0
 10
3412.570033029668
 20
-1173.109681607709
 30
0.0
 10
3418.976837987852
 20
-1180.238062063
 30
0.0
 10
3416.237717581517
 20
-1187.497479351624
 30
0.0
 10
3412.958504616251
 20
-1196.188383843252
 30
0.0
 10
3415.628806160363
 20
-1205.098048849545
 30
0.0
 10
3416.369469372825
 20
-1213.90968979152
 30
0.0
 10
3416.632108355091
 20
-1217.034155921644
 30
0.0
 10
3418.997787919329
 20
-1218.024405976518
 30
0.0
 10
3421.383702457072
 20
-1218.989258396207
 30
0.0
 10
3431.305323975023
 20
-1223.001494499714
 30
0.0
 10
3441.229057113051
 20
-1227.008601195398
 30
0.0
 10
3451.16589227172
 20
-1230.982944526015
 30
0.0
 10
3457.084364303266
 20
-1233.350095573541
 30
0.0
 10
3462.739116602117
 20
-1236.266600379867
 30
0.0
 10
3468.134123004473
 20
-1239.613027708631
 30
0.0
 10
3477.45145538774
 20
-1245.392415472857
 30
0.0
 10
3479.076371977944
 20
-1257.028564418874
 30
0.0
 10
3471.653179431325
 20
-1263.593408344293
 30
0.0
 10
3468.379686129893
 20
-1266.488389590065
 30
0.0
 10
3464.76302962543
 20
-1267.429640082978
 30
0.0
 10
3460.608392182114
 20
-1265.475643299244
 30
0.0
 10
3455.335560459526
 20
-1262.995736727648
 30
0.0
 10
3450.452713374131
 20
-1259.866232637812
 30
0.0
 10
3445.538857064756
 20
-1256.7656677192
 30
0.0
 10
3435.579459162426
 20
-1250.481411546706
 30
0.0
 10
3425.057888138454
 20
-1245.800722986624
 30
0.0
 10
3411.643131577122
 20
-1245.923554430123
 30
0.0
  0
HATCH
  5
83
330
70
100
AcDbEntity
  8
Layer 1
 62
    18
420
        0
440
 33554687
100
AcDbHatch
 10
0.0
 20
0.0
 30
0.0
210
0.0
220
0.0
230
1.0
  2
SOLID
 70
     1
 71
     1
 91
        4
 92
        1
 93
        1
 72
     4
 94
        3
 73
     0
 74
     0
 95
       26
 96
       22
 40
0.0
 40
0.0
 40
0.0
 40
0.0
 40
1.0
 40
1.0
 40
1.0
 40
2.0
 40
2.0
 40
2.0
 40
3.0
 40
3.0
 40
3.0
 40
4.0
 40
4.0
 40
4.0
 40
5.0
 40
5.0
 40
5.0
 40
6.0
 40
6.0
 40
6.0
 40
7.0
 40
7.0
 40
7.0
 40
7.0
 10
3336.214757186819
 20
-1212.548609322523
 10
3336.299296811114
 20
-1218.659621200529
 10
3338.860849921224
 20
-1224.224147465114
 10
3339.67413124935
 20
-1230.139210976061
 10
3339.920617169366
 20
-1231.931951481657
 10
3338.760290250122
 20
-1234.385421234955
 10
3341.738971460234
 20
-1234.992819605502
 10
3344.564601782034
 20
-1235.56900091545
 10
3346.223129710721
 20
-1233.808391951589
 10
3347.409652357779
 20
-1231.708227828459
 10
3350.543612464788
 20
-1226.161101645856
 10
3352.512407215996
 20
-1220.155014008011
 10
3354.155031486378
 20
-1214.013890760238
 10
3354.893250540165
 20
-1211.253986691722
 10
3354.039399503462
 20
-1210.416671136649
 10
3351.327730158137
 20
-1210.543434849032
 10
3347.717674544787
 20
-1210.712189872488
 10
3343.9800155591
 20
-1211.027444773933
 10
3340.617451795017
 20
-1209.46950977021
 10
3336.94911047944
 20
-1207.769888384661
 10
3335.609387301702
 20
-1208.662588242715
 10
3336.214757186819
 20
-1212.548609322523
 97
        0
 97
        1
330
7F
 92
        1
 93
        1
 72
     4
 94
        3
 73
     0
 74
     0
 95
       23
 96
       19
 40
0.0
 40
0.0
 40
0.0
 40
0.0
 40
1.0
 40
1.0
 40
1.0
 40
2.0
 40
2.0
 40
2.0
 40
3.0
 40
3.0
 40
3.0
 40
4.0
 40
4.0
 40
4.0
 40
5.0
 40
5.0
 40
5.0
 40
6.0
 40
6.0
 40
6.0
 40
6.0
 10
3369.965903206848
 20
-1171.713655489116
 10
3369.408194415848
 20
-1166.90334754147
 10
3365.416908243819
 20
-1165.333391267541
 10
3361.477473152201
 20
-1163.997213782572
 10
3355.876883076998
 20
-1162.097595372573
 10
3355.026415620498
 20
-1162.932026155334
 10
3354.689936443232
 20
-1168.813295431574
 10
3354.206192549206
 20
-1177.268479940195
 10
3354.619479828434
 20
-1185.927207166028
 10
3349.002013419541
 20
-1193.279452603424
 10
3347.480341749593
 20
-1195.271034561848
 10
3348.662566335314
 20
-1197.490031351871
 10
3351.01195982187
 20
-1197.760210646775
 10
3355.118370855458
 20
-1198.232440391953
 10
3359.813458336699
 20
-1197.326738274835
 10
3361.803070003949
 20
-1193.921559689814
 10
3365.723916188112
 20
-1187.211105427145
 10
3368.103254775139
 20
-1179.679571806305
 10
3369.965903206848
 20
-1171.713655489116
 97
        0
 97
        1
330
80
 92
        1
 93
        1
 72
     4
 94
        3
 73
     0
 74
     0
 95
       29
 96
       25
 40
0.0
 40
0.0
 40
0.0
 40
0.0
 40
1.0
 40
1.0
 40
1.0
 40
2.0
 40
2.0
 40
2.0
 40
3.0
 40
3.0
 40
3.0
 40
4.0
 40
4.0
 40
4.0
 40
5.0
 40
5.0
 40
5.0
 40
6.0
 40
6.0
 40
6.0
 40
7.0
 40
7.0
 40
7.0
 40
8.0
 40
8.0
 40
8.0
 40
8.0
 10
3398.247629000441
 20
-1212.701086581758
 10
3398.133967308698
 20
-1207.193640566992
 10
3398.966444427213
 20
-1203.384319514102
 10
3398.089490271628
 20
-1199.616424456672
 10
3396.870520171167
 20
-1194.378924959798
 10
3394.013082532765
 20
-1193.096007687535
 10
3389.396366084878
 20
-1195.771247429785
 10
3383.916146667573
 20
-1198.946849682344
 10
3378.484694035211
 20
-1202.208837148396
 10
3373.088232776499
 20
-1205.524712493753
 10
3372.053572192274
 20
-1206.160468092978
 10
3370.966678108253
 20
-1207.060616815562
 10
3370.434566475595
 20
-1208.108312912708
 10
3366.90299828411
 20
-1215.061886142118
 10
3363.809350168271
 20
-1222.167088657349
 10
3362.505532845317
 20
-1229.968502288361
 10
3361.804691129601
 20
-1234.16195529917
 10
3363.274054478567
 20
-1235.032649415706
 10
3367.141794249119
 20
-1234.30683405151
 10
3373.966425638351
 20
-1233.026161414765
 10
3380.248761400457
 20
-1230.25310544482
 10
3386.710102688208
 20
-1227.912407842524
 10
3394.777040073797
 20
-1224.990058670389
 10
3401.628615402682
 20
-1221.565368383309
 10
3398.247629000441
 20
-1212.701086581758
 97
        0
 97
        1
330
81
 92
        1
 93
        1
 72
     4
 94
        3
 73
     0
 74
     0
 95
      134
 96
      130
 40
0.0
 40
0.0
 40
0.0
 40
0.0
 40
1.0
 40
1.0
 40
1.0
 40
2.0
 40
2.0
 40
2.0
 40
3.0
 40
3.0
 40
3.0
 40
4.0
 40
4.0
 40
4.0
 40
5.0
 40
5.0
 40
5.0
 40
6.0
 40
6.0
 40
6.0
 40
7.0
 40
7.0
 40
7.0
 40
8.0
 40
8.0
 40
8.0
 40
9.0
 40
9.0
 40
9.0
 40
10.0
 40
10.0
 40
10.0
 40
11.0
 40
11.0
 40
11.0
 40
12.0
 40
12.0
 40
12.0
 40
13.0
 40
13.0
 40
13.0
 40
14.0
 40
14.0
 40
14.0
 40
15.0
 40
15.0
 40
15.0
 40
16.0
 40
16.0
 40
16.0
 40
17.0
 40
17.0
 40
17.0
 40
18.0
 40
18.0
 40
18.0
 40
19.0
 40
19.0
 40
19.0
 40
20.0
 40
20.0
 40
20.0
 40
21.0
 40
21.0
 40
21.0
 40
22.0
 40
22.0
 40
22.0
 40
23.0
 40
23.0
 40
23.0
 40
24.0
 40
24.0
 40
24.0
 40
25.0
 40
25.0
 40
25.0
 40
26.0
 40
26.0
 40
26.0
 40
27.0
 40
27.0
 40
27.0
 40
28.0
 40
28.0
 40
28.0
 40
29.0
 40
29.0
 40
29.0
 40
30.0
 40
30.0
 40
30.0
 40
31.0
 40
31.0
 40
31.0
 40
32.0
 40
32.0
 40
32.0
 40
33.0
 40
33.0
 40
33.0
 40
34.0
 40
34.0
 40
34.0
 40
35.0
 40
35.0
 40
35.0
 40
36.0
 40
36.0
 40
36.0
 40
37.0
 40
37.0
 40
37.0
 40
38.0
 40
38.0
 40
38.0
 40
39.0
 40
39.0
 40
39.0
 40
40.0
 40
40.0
 40
40.0
 40
41.0
 40
41.0
 40
41.0
 40
42.0
 40
42.0
 40
42.0
 40
43.0
 40
43.0
 40
43.0
 40
43.0
 10
3411.643131577122
 20
-1245.923554430123
 10
3409.692377044692
 20
-1246.226364074654
 10
3406.469346475034
 20
-1246.70625052098
 10
3403.253665008324
 20
-1247.231112812268
 10
3399.39909376613
 20
-1247.860234266526
 10
3396.853444314322
 20
-1247.594893408176
 10
3397.836644550982
 20
-1242.343477171104
 10
3399.044541116229
 20
-1235.892161921988
 10
3398.743144760727
 20
-1235.864270247342
 10
3392.497255228624
 20
-1238.102279931529
 10
3380.881000404045
 20
-1242.264607329853
 10
3369.174619306777
 20
-1246.189543738733
 10
3357.658342210762
 20
-1250.610769060128
 10
3351.966561739368
 20
-1252.795905107724
 10
3346.015268148502
 20
-1255.075108010359
 10
3344.017816883878
 20
-1262.012752641073
 10
3343.386691884585
 20
-1264.20479717798
 10
3341.144059913928
 20
-1263.876199165411
 10
3339.35880152672
 20
-1263.900973290733
 10
3326.087834653832
 20
-1264.085183045387
 10
3317.164743401769
 20
-1250.075423489638
 10
3321.950713681002
 20
-1236.504980671631
 10
3323.333650249148
 20
-1232.583685560367
 10
3325.370016842844
 20
-1228.879039343695
 10
3325.465181075244
 20
-1224.568424672431
 10
3325.512110584452
 20
-1222.442571942844
 10
3325.143965419484
 20
-1220.480452903929
 10
3323.206645446284
 20
-1219.368535290637
 10
3320.993418200884
 20
-1218.098246171518
 10
3319.942970346863
 20
-1220.221180874935
 10
3318.713350697905
 20
-1221.352884534623
 10
3306.484019406271
 20
-1232.608310043321
 10
3293.066627476576
 20
-1242.137477825018
 10
3278.109872823687
 20
-1249.437581210725
 10
3273.200460061289
 20
-1251.833771191051
 10
3268.18676527389
 20
-1254.022847820998
 10
3262.57394609186
 20
-1253.884129346127
 10
3261.054228086159
 20
-1253.846577425295
 10
3258.875104752031
 20
-1253.967820997001
 10
3258.513550086342
 20
-1251.997571389443
 10
3258.189694905484
 20
-1250.232755812359
 10
3260.301662070368
 20
-1249.942499499783
 10
3261.473744228942
 20
-1249.31794213774
 10
3278.767430484542
 20
-1240.102906939734
 10
3293.991799728425
 20
-1228.152824933183
 10
3307.795119324452
 20
-1214.33528099876
 10
3314.778330056135
 20
-1207.344870806498
 10
3320.819084842498
 20
-1199.652255490277
 10
3324.117319015396
 20
-1190.180641825897
 10
3326.309970435236
 20
-1183.883961180153
 10
3326.562267467202
 20
-1177.603416969728
 10
3321.971555537439
 20
-1172.172051628747
 10
3319.46830475648
 20
-1169.210396394694
 10
3320.399030402863
 20
-1167.185814137455
 10
3322.04210360035
 20
-1164.091920774402
 10
3325.665477384428
 20
-1157.269168228232
 10
3329.166476965576
 20
-1150.757686355468
 10
3336.63698975425
 20
-1147.212124524235
 10
3339.155711893338
 20
-1146.016716861592
 10
3340.848325028002
 20
-1145.781578821127
 10
3342.979772719449
 20
-1147.501593136011
 10
3345.377093330997
 20
-1149.436167587436
 10
3348.519366902877
 20
-1150.7320351596
 10
3350.298182354809
 20
-1153.089883439931
 10
3354.091358658916
 20
-1158.11783997632
 10
3358.62432526167
 20
-1157.791141590475
 10
3363.845239396127
 20
-1156.490084337864
 10
3382.830873709201
 20
-1151.75886861665
 10
3400.146923185312
 20
-1142.808282657884
 10
3417.991592638831
 20
-1135.207461503241
 10
3431.872202517778
 20
-1129.295091554912
 10
3445.401768029002
 20
-1132.355476458612
 10
3458.735900607995
 20
-1136.762367288201
 10
3464.365579496787
 20
-1138.622964372455
 10
3464.149612306317
 20
-1143.710921263195
 10
3462.964095588506
 20
-1148.722406747304
 10
3461.786327019958
 20
-1153.701051966797
 10
3459.253131138527
 20
-1156.984469466927
 10
3453.788707304479
 20
-1157.029333080111
 10
3447.884484551724
 20
-1157.077808893788
 10
3442.317273037988
 20
-1155.184995054785
 10
3436.781303525244
 20
-1153.515724051119
 10
3429.517380338661
 20
-1151.325427420202
 10
3422.509046316132
 20
-1151.49324717886
 10
3415.455337402327
 20
-1154.17689599083
 10
3407.311982647625
 20
-1157.275112355616
 10
3399.103267432092
 20
-1160.225419710118
 10
3391.729506747608
 20
-1164.989188881406
 10
3384.231193732398
 20
-1169.833419922467
 10
3379.405526658397
 20
-1176.615332572453
 10
3377.197287491919
 20
-1185.281226005009
 10
3376.515300714533
 20
-1187.957579751551
 10
3376.801017875285
 20
-1189.254588346773
 10
3379.983478736362
 20
-1187.973200752048
 10
3384.521716075847
 20
-1186.145905329708
 10
3389.177638824072
 20
-1184.605432758953
 10
3393.685648405281
 20
-1182.710174761277
 10
3397.400852722341
 20
-1181.148224354024
 10
3399.92901064406
 20
-1178.274683534157
 10
3400.754554332875
 20
-1174.288809427763
 10
3401.469346042647
 20
-1170.837682322385
 10
3403.373345648637
 20
-1170.597872114661
 10
3406.28518660117
 20
-1171.393158948068
 10
3412.570033029668
 20
-1173.109681607709
 10
3418.976837987852
 20
-1180.238062063
 10
3416.237717581517
 20
-1187.497479351624
 10
3412.958504616251
 20
-1196.188383843252
 10
3415.628806160363
 20
-1205.098048849545
 10
3416.369469372825
 20
-1213.90968979152
 10
3416.632108355091
 20
-1217.034155921644
 10
3418.997787919329
 20
-1218.024405976518
 10
3421.383702457072
 20
-1218.989258396207
 10
3431.305323975023
 20
-1223.001494499714
 10
3441.229057113051
 20
-1227.008601195398
 10
3451.16589227172
 20
-1230.982944526015
 10
3457.084364303266
 20
-1233.350095573541
 10
3462.739116602117
 20
-1236.266600379867
 10
3468.134123004473
 20
-1239.613027708631
 10
3477.45145538774
 20
-1245.392415472857
 10
3479.076371977944
 20
-1257.028564418874
 10
3471.653179431325
 20
-1263.593408344293
 10
3468.379686129893
 20
-1266.488389590065
 10
3464.76302962543
 20
-1267.429640082978
 10
3460.608392182114
 20
-1265.475643299244
 10
3455.335560459526
 20
-1262.995736727648
 10
3450.452713374131
 20
-1259.866232637812
 10
3445.538857064756
 20
-1256.7656677192
 10
3435.579459162426
 20
-1250.481411546706
 10
3425.057888138454
 20
-1245.800722986624
 10
3411.643131577122
 20
-1245.923554430123
 97
        0
 97
        1
330
82
 75
     2
 76
     1
 98
        1
 10
0.0
 20
0.0
450
        0
451
        0
460
0.0
461
0.0
452
        0
462
0.0
453
        0
470

  0
SPLINE
  5
84
330
70
100
AcDbEntity
  8
Layer 1
100
AcDbSpline
210
0.0
220
0.0
230
1.0
 70
     9
 71
     3
 72
    17
 73
    13
 74
     0
 42
0.0000000001
 43
0.0000000001
 40
0.0
 40
0.0
 40
0.0
 40
0.0
 40
1.0
 40
1.0
 40
1.0
 40
2.0
 40
2.0
 40
2.0
 40
3.0
 40
3.0
 40
3.0
 40
4.0
 40
4.0
 40
4.0
 40
4.0
 10
3339.309078693314
 20
-1361.296572916927
 30
0.0
 10
3339.229618596059
 20
-1364.014244583891
 30
0.0
 10
3339.355393006121
 20
-1366.39818051699
 30
0.0
 10
3343.171314950121
 20
-1366.258830218791
 30
0.0
 10
3349.589949968819
 20
-1366.024440390164
 30
0.0
 10
3351.595631563669
 20
-1364.086023039604
 30
0.0
 10
3351.581939287022
 20
-1357.914422629602
 30
0.0
 10
3351.577325314018
 20
-1355.833063564017
 30
0.0
 10
3351.391569254897
 20
-1354.538690337163
 30
0.0
 10
3348.69557079086
 20
-1354.643622890789
 30
0.0
 10
3341.596877718624
 20
-1354.919879328515
 30
0.0
 10
3339.284770122026
 20
-1356.425697220948
 30
0.0
 10
3339.309078693314
 20
-1361.296572916927
 30
0.0
  0
SPLINE
  5
85
330
70
100
AcDbEntity
  8
Layer 1
100
AcDbSpline
210
0.0
220
0.0
230
1.0
 70
     9
 71
     3
 72
    17
 73
    13
 74
     0
 42
0.0000000001
 43
0.0000000001
 40
0.0
 40
0.0
 40
0.0
 40
0.0
 40
1.0
 40
1.0
 40
1.0
 40
2.0
 40
2.0
 40
2.0
 40
3.0
 40
3.0
 40
3.0
 40
4.0
 40
4.0
 40
4.0
 40
4.0
 10
3350.058613237564
 20
-1380.176518151075
 30
0.0
 10
3349.408591732616
 20
-1378.03156107921
 30
0.0
 10
3351.634363996511
 20
-1374.08379589579
 30
0.0
 10
3346.274515237099
 20
-1374.56339968431
 30
0.0
 10
3342.214925637674
 20
-1374.926648218466
 30
0.0
 10
3338.483061137006
 20
-1374.950058935549
 30
0.0
 10
3339.399512564201
 20
-1380.67605762836
 30
0.0
 10
3339.843143990216
 20
-1383.447833324714
 30
0.0
 10
3338.44282396702
 20
-1387.296668276144
 30
0.0
 10
3343.598469088757
 20
-1386.979808875979
 30
0.0
 10
3347.84957597846
 20
-1386.718533301952
 30
0.0
 10
3351.247945835752
 20
-1385.797285005524
 30
0.0
 10
3350.058613237564
 20
-1380.176518151075
 30
0.0
  0
SPLINE
  5
86
330
70
100
AcDbEntity
  8
Layer 1
100
AcDbSpline
210
0.0
220
0.0
230
1.0
 70
     9
 71
     3
 72
    23
 73
    19
 74
     0
 42
0.0000000001
 43
0.0000000001
 40
0.0
 40
0.0
 40
0.0
 40
0.0
 40
1.0
 40
1.0
 40
1.0
 40
2.0
 40
2.0
 40
2.0
 40
3.0
 40
3.0
 40
3.0
 40
4.0
 40
4.0
 40
4.0
 40
5.0
 40
5.0
 40
5.0
 40
6.0
 40
6.0
 40
6.0
 40
6.0
 10
3337.580152344087
 20
-1434.814172227373
 30
0.0
 10
3340.385597573175
 20
-1433.874451411998
 30
0.0
 10
3343.418598962766
 20
-1432.675816046617
 30
0.0
 10
3346.550372628513
 20
-1431.853215324369
 30
0.0
 10
3350.999265161008
 20
-1430.68464144797
 30
0.0
 10
3351.414905150796
 20
-1428.264824600476
 30
0.0
 10
3349.957837416376
 20
-1424.261591979427
 30
0.0
 10
3348.336794900803
 20
-1419.80776956226
 30
0.0
 10
3345.71539315707
 20
-1422.258080198911
 30
0.0
 10
3343.40458246099
 20
-1422.839224647386
 30
0.0
 10
3340.607849743086
 20
-1423.542610283356
 30
0.0
 10
3337.86641819352
 20
-1424.488316793439
 30
0.0
 10
3335.140017388443
 20
-1425.440674075425
 30
0.0
 10
3333.483725781807
 20
-1426.01922472286
 30
0.0
 10
3331.264720678318
 20
-1426.496816652882
 30
0.0
 10
3332.425845690192
 20
-1429.060755727413
 30
0.0
 10
3333.466092922812
 20
-1431.357832579521
 30
0.0
 10
3333.591302017263
 20
-1434.586981859325
 30
0.0
 10
3337.580152344087
 20
-1434.814172227373
 30
0.0
  0
SPLINE
  5
87
330
70
100
AcDbEntity
  8
Layer 1
100
AcDbSpline
210
0.0
220
0.0
230
1.0
 70
     9
 71
     3
 72
    23
 73
    19
 74
     0
 42
0.0000000001
 43
0.0000000001
 40
0.0
 40
0.0
 40
0.0
 40
0.0
 40
1.0
 40
1.0
 40
1.0
 40
2.0
 40
2.0
 40
2.0
 40
3.0
 40
3.0
 40
3.0
 40
4.0
 40
4.0
 40
4.0
 40
5.0
 40
5.0
 40
5.0
 40
6.0
 40
6.0
 40
6.0
 40
6.0
 10
3368.171342052447
 20
-1425.510507180356
 30
0.0
 10
3373.07501436735
 20
-1423.683639901458
 30
0.0
 10
3378.068538610602
 20
-1422.060286242654
 30
0.0
 10
3382.847234608071
 20
-1419.950295604042
 30
0.0
 10
3385.529158376078
 20
-1418.766125667542
 30
0.0
 10
3383.967357611189
 20
-1416.067641477509
 30
0.0
 10
3383.813342360954
 20
-1414.075436009219
 30
0.0
 10
3383.642666927114
 20
-1411.867978308438
 30
0.0
 10
3381.844530982816
 20
-1411.67557147742
 30
0.0
 10
3380.133503523459
 20
-1412.158484024957
 30
0.0
 10
3375.43179852418
 20
-1413.485612303412
 30
0.0
 10
3370.764893688855
 20
-1414.935746608128
 30
0.0
 10
3366.081212281421
 20
-1416.327088089264
 30
0.0
 10
3363.339148908523
 20
-1417.141608123654
 30
0.0
 10
3363.080384000887
 20
-1419.106578681019
 30
0.0
 10
3363.641468058624
 20
-1421.483464795907
 30
0.0
 10
3364.193157901058
 20
-1423.820612548706
 30
0.0
 10
3365.21206446935
 20
-1425.577912753547
 30
0.0
 10
3368.171342052447
 20
-1425.510507180356
 30
0.0
  0
SPLINE
  5
88
330
70
100
AcDbEntity
  8
Layer 1
100
AcDbSpline
210
0.0
220
0.0
230
1.0
 70
     9
 71
     3
 72
    23
 73
    19
 74
     0
 42
0.0000000001
 43
0.0000000001
 40
0.0
 40
0.0
 40
0.0
 40
0.0
 40
1.0
 40
1.0
 40
1.0
 40
2.0
 40
2.0
 40
2.0
 40
3.0
 40
3.0
 40
3.0
 40
4.0
 40
4.0
 40
4.0
 40
5.0
 40
5.0
 40
5.0
 40
6.0
 40
6.0
 40
6.0
 40
6.0
 10
3384.237046411668
 20
-1353.210448054412
 30
0.0
 10
3384.287559024237
 20
-1346.505339349657
 30
0.0
 10
3384.105228112643
 20
-1346.361167241831
 30
0.0
 10
3378.227259281955
 20
-1347.944117461358
 30
0.0
 10
3375.250407034117
 20
-1348.745818132914
 30
0.0
 10
3372.309194610187
 20
-1350.034721099881
 30
0.0
 10
3369.290675276403
 20
-1350.251569517627
 30
0.0
 10
3363.363814958801
 20
-1350.677368561491
 30
0.0
 10
3362.602983280558
 20
-1354.676394569317
 30
0.0
 10
3362.116595704701
 20
-1359.218938283605
 30
0.0
 10
3361.846599306023
 20
-1361.740511941142
 30
0.0
 10
3362.874235012432
 20
-1362.531787527748
 30
0.0
 10
3365.247463202777
 20
-1362.049174264944
 30
0.0
 10
3369.693337947524
 20
-1361.145051706154
 30
0.0
 10
3374.119426645874
 20
-1360.071218075446
 30
0.0
 10
3378.607517165245
 20
-1359.468242468215
 30
0.0
 10
3382.797653103568
 20
-1358.905321134739
 30
0.0
 10
3384.962695506565
 20
-1357.104641270192
 30
0.0
 10
3384.237046411668
 20
-1353.210448054412
 30
0.0
  0
SPLINE
  5
89
330
70
100
AcDbEntity
  8
Layer 1
100
AcDbSpline
210
0.0
220
0.0
230
1.0
 70
     9
 71
     3
 72
    23
 73
    19
 74
     0
 42
0.0000000001
 43
0.0000000001
 40
0.0
 40
0.0
 40
0.0
 40
0.0
 40
1.0
 40
1.0
 40
1.0
 40
2.0
 40
2.0
 40
2.0
 40
3.0
 40
3.0
 40
3.0
 40
4.0
 40
4.0
 40
4.0
 40
5.0
 40
5.0
 40
5.0
 40
6.0
 40
6.0
 40
6.0
 40
6.0
 10
3382.992504093262
 20
-1373.078332200196
 30
0.0
 10
3383.224383255496
 20
-1366.452317800243
 30
0.0
 10
3383.233860605451
 20
-1366.487583518236
 30
0.0
 10
3377.392338004767
 20
-1368.056600370634
 30
0.0
 10
3374.088616945054
 20
-1368.94397961117
 30
0.0
 10
3370.764428134823
 20
-1369.771086231377
 30
0.0
 10
3367.419813141399
 20
-1370.486825676148
 30
0.0
 10
3361.683206467413
 20
-1371.714441780074
 30
0.0
 10
3360.449213935928
 20
-1373.718818160939
 30
0.0
 10
3361.718264348782
 20
-1380.080414497142
 30
0.0
 10
3362.795963740654
 20
-1385.482770002448
 30
0.0
 10
3366.483234815743
 20
-1382.220882297978
 30
0.0
 10
3369.015258498628
 20
-1382.088382294831
 30
0.0
 10
3371.498540336961
 20
-1381.958426211939
 30
0.0
 10
3373.921466420318
 20
-1380.942055250432
 30
0.0
 10
3376.407973883023
 20
-1380.549909112376
 30
0.0
 10
3381.203313437167
 20
-1379.793616585958
 30
0.0
 10
3384.233953802734
 20
-1377.766295042042
 30
0.0
 10
3382.992504093262
 20
-1373.078332200196
 30
0.0
  0
SPLINE
  5
8A
330
70
100
AcDbEntity
  8
Layer 1
100
AcDbSpline
210
0.0
220
0.0
230
1.0
 70
     9
 71
     3
 72
    23
 73
    19
 74
     0
 42
0.0000000001
 43
0.0000000001
 40
0.0
 40
0.0
 40
0.0
 40
0.0
 40
1.0
 40
1.0
 40
1.0
 40
2.0
 40
2.0
 40
2.0
 40
3.0
 40
3.0
 40
3.0
 40
4.0
 40
4.0
 40
4.0
 40
5.0
 40
5.0
 40
5.0
 40
6.0
 40
6.0
 40
6.0
 40
6.0
 10
3362.54991012081
 20
-1399.018088431368
 30
0.0
 10
3362.464289746084
 20
-1407.86657464966
 30
0.0
 10
3362.600688764255
 20
-1407.977476271063
 30
0.0
 10
3370.4306840875
 20
-1405.832269795254
 30
0.0
 10
3372.70188112346
 20
-1405.210023576445
 30
0.0
 10
3374.952784991665
 20
-1404.512789904483
 30
0.0
 10
3377.208228011692
 20
-1403.834111886114
 30
0.0
 10
3383.209884572758
 20
-1402.02812803098
 30
0.0
 10
3385.53095408449
 20
-1397.759064057152
 30
0.0
 10
3382.969376033984
 20
-1390.737943925645
 30
0.0
 10
3381.12272270869
 20
-1385.676423853199
 30
0.0
 10
3377.2449568995
 20
-1390.296316044664
 30
0.0
 10
3374.307768192568
 20
-1390.242893719392
 30
0.0
 10
3372.732549495377
 20
-1390.214245519441
 30
0.0
 10
3371.162244055923
 20
-1391.0681547504
 30
0.0
 10
3369.557396169923
 20
-1391.301330813153
 30
0.0
 10
3364.523277277698
 20
-1392.032799333466
 30
0.0
 10
3361.379399207095
 20
-1394.212024507536
 30
0.0
 10
3362.54991012081
 20
-1399.018088431368
 30
0.0
  0
SPLINE
  5
8B
330
70
100
AcDbEntity
  8
Layer 1
100
AcDbSpline
210
0.0
220
0.0
230
1.0
 70
     9
 71
     3
 72
    47
 73
    43
 74
     0
 42
0.0000000001
 43
0.0000000001
 40
0.0
 40
0.0
 40
0.0
 40
0.0
 40
1.0
 40
1.0
 40
1.0
 40
2.0
 40
2.0
 40
2.0
 40
3.0
 40
3.0
 40
3.0
 40
4.0
 40
4.0
 40
4.0
 40
5.0
 40
5.0
 40
5.0
 40
6.0
 40
6.0
 40
6.0
 40
7.0
 40
7.0
 40
7.0
 40
8.0
 40
8.0
 40
8.0
 40
9.0
 40
9.0
 40
9.0
 40
10.0
 40
10.0
 40
10.0
 40
11.0
 40
11.0
 40
11.0
 40
12.0
 40
12.0
 40
12.0
 40
13.0
 40
13.0
 40
13.0
 40
14.0
 40
14.0
 40
14.0
 40
14.0
 10
3409.254589984481
 20
-1420.117895055879
 30
0.0
 10
3409.558630021817
 20
-1424.031575033322
 30
0.0
 10
3408.614004262163
 20
-1427.388585402871
 30
0.0
 10
3404.900994699827
 20
-1429.34996454341
 30
0.0
 10
3401.215635721655
 20
-1431.296745239634
 30
0.0
 10
3397.492666628401
 20
-1433.090159135882
 30
0.0
 10
3393.311808516872
 20
-1433.902617430985
 30
0.0
 10
3390.106901300639
 20
-1434.52532920383
 30
0.0
 10
3387.577413224543
 20
-1434.572582938167
 30
0.0
 10
3386.441511265093
 20
-1430.813865945955
 30
0.0
 10
3385.930964760318
 20
-1429.124403614479
 30
0.0
 10
3384.706507773044
 20
-1427.609956345507
 30
0.0
 10
3382.825569718611
 20
-1428.557591579444
 30
0.0
 10
3379.441590469014
 20
-1430.262450447863
 30
0.0
 10
3376.197227548495
 20
-1432.276936002015
 30
0.0
 10
3373.036190486395
 20
-1434.375420805239
 30
0.0
 10
3371.821244102936
 20
-1435.181959913353
 30
0.0
 10
3372.697849092996
 20
-1436.216420974419
 30
0.0
 10
3373.485242291507
 20
-1437.073904995273
 30
0.0
 10
3381.020683240838
 20
-1445.280392202218
 30
0.0
 10
3397.992854555945
 20
-1446.869594147328
 30
0.0
 10
3406.867195649993
 20
-1439.986810071311
 30
0.0
 10
3411.020885358314
 20
-1436.765309179192
 30
0.0
 10
3415.423264054847
 20
-1434.808120024944
 30
0.0
 10
3420.761888538436
 20
-1434.546378896885
 30
0.0
 10
3424.895409780976
 20
-1434.343729877143
 30
0.0
 10
3429.122524011058
 20
-1434.120031164341
 30
0.0
 10
3433.05557436165
 20
-1432.474463927393
 30
0.0
 10
3436.713316009515
 20
-1430.944021552009
 30
0.0
 10
3438.980796926677
 20
-1428.269081094492
 30
0.0
 10
3439.307100422939
 20
-1424.276922008653
 30
0.0
 10
3439.617358931995
 20
-1420.481160216969
 30
0.0
 10
3436.690753265848
 20
-1418.967677309921
 30
0.0
 10
3433.97088684416
 20
-1417.475909173122
 30
0.0
 10
3429.000548854441
 20
-1414.749824279709
 30
0.0
 10
3423.630898519943
 20
-1413.078219270782
 30
0.0
 10
3418.129895440455
 20
-1411.841940536455
 30
0.0
 10
3408.722129186299
 20
-1409.727726657694
 30
0.0
 10
3408.715544922121
 20
-1409.760215678417
 30
0.0
 10
3409.249236113105
 20
-1419.045491341131
 30
0.0
 10
3409.270019775286
 20
-1419.407127063104
 30
0.0
 10
3409.251879794935
 20
-1419.770957539805
 30
0.0
 10
3409.254589984481
 20
-1420.117895055879
 30
0.0
  0
SPLINE
  5
8C
330
70
100
AcDbEntity
  8
Layer 1
100
AcDbSpline
210
0.0
220
0.0
230
1.0
 70
     9
 71
     3
 72
   122
 73
   118
 74
     0
 42
0.0000000001
 43
0.0000000001
 40
0.0
 40
0.0
 40
0.0
 40
0.0
 40
1.0
 40
1.0
 40
1.0
 40
2.0
 40
2.0
 40
2.0
 40
3.0
 40
3.0
 40
3.0
 40
4.0
 40
4.0
 40
4.0
 40
5.0
 40
5.0
 40
5.0
 40
6.0
 40
6.0
 40
6.0
 40
7.0
 40
7.0
 40
7.0
 40
8.0
 40
8.0
 40
8.0
 40
9.0
 40
9.0
 40
9.0
 40
10.0
 40
10.0
 40
10.0
 40
11.0
 40
11.0
 40
11.0
 40
12.0
 40
12.0
 40
12.0
 40
13.0
 40
13.0
 40
13.0
 40
14.0
 40
14.0
 40
14.0
 40
15.0
 40
15.0
 40
15.0
 40
16.0
 40
16.0
 40
16.0
 40
17.0
 40
17.0
 40
17.0
 40
18.0
 40
18.0
 40
18.0
 40
19.0
 40
19.0
 40
19.0
 40
20.0
 40
20.0
 40
20.0
 40
21.0
 40
21.0
 40
21.0
 40
22.0
 40
22.0
 40
22.0
 40
23.0
 40
23.0
 40
23.0
 40
24.0
 40
24.0
 40
24.0
 40
25.0
 40
25.0
 40
25.0
 40
26.0
 40
26.0
 40
26.0
 40
27.0
 40
27.0
 40
27.0
 40
28.0
 40
28.0
 40
28.0
 40
29.0
 40
29.0
 40
29.0
 40
30.0
 40
30.0
 40
30.0
 40
31.0
 40
31.0
 40
31.0
 40
32.0
 40
32.0
 40
32.0
 40
33.0
 40
33.0
 40
33.0
 40
34.0
 40
34.0
 40
34.0
 40
35.0
 40
35.0
 40
35.0
 40
36.0
 40
36.0
 40
36.0
 40
37.0
 40
37.0
 40
37.0
 40
38.0
 40
38.0
 40
38.0
 40
39.0
 40
39.0
 40
39.0
 40
39.0
 10
3326.389879459596
 20
-1375.356953160289
 30
0.0
 10
3326.821015747905
 20
-1368.474667892163
 30
0.0
 10
3327.294675409041
 20
-1361.59467714034
 30
0.0
 10
3327.666769469823
 20
-1354.709199501704
 30
0.0
 10
3327.87768207365
 20
-1350.806177386233
 30
0.0
 10
3329.227946724846
 20
-1348.585817187967
 30
0.0
 10
3333.655930893187
 20
-1347.936485700605
 30
0.0
 10
3353.450465338396
 20
-1345.033806186359
 30
0.0
 10
3372.46760768334
 20
-1338.6841978665
 30
0.0
 10
3391.951609275155
 20
-1334.379186470564
 30
0.0
 10
3395.649953885455
 20
-1333.562039381272
 30
0.0
 10
3399.490791283679
 20
-1333.042963261539
 30
0.0
 10
3403.270508088157
 20
-1333.015146408071
 30
0.0
 10
3410.478647925444
 20
-1332.962123129114
 30
0.0
 10
3413.583660547764
 20
-1337.111988643593
 30
0.0
 10
3411.464525097796
 20
-1343.957661412421
 30
0.0
 10
3406.304473839675
 20
-1360.626773679048
 30
0.0
 10
3404.14832684409
 20
-1377.558840839604
 30
0.0
 10
3405.643137709034
 20
-1395.013625417513
 30
0.0
 10
3406.020751910491
 20
-1399.422954170678
 30
0.0
 10
3406.963083153839
 20
-1401.229004533533
 30
0.0
 10
3411.809051709057
 20
-1401.593101041109
 30
0.0
 10
3426.674507890715
 20
-1402.710064927575
 30
0.0
 10
3440.72863640849
 20
-1406.804147092757
 30
0.0
 10
3453.207479721355
 20
-1415.314275290723
 30
0.0
 10
3460.263599539974
 20
-1420.126275028474
 30
0.0
 10
3465.659603558115
 20
-1426.009448088171
 30
0.0
 10
3464.803266795416
 20
-1435.400371262492
 30
0.0
 10
3464.056002691849
 20
-1443.594887080021
 30
0.0
 10
3457.767930638978
 20
-1450.123916598769
 30
0.0
 10
3448.002186587397
 20
-1451.30203433284
 30
0.0
 10
3439.099363562695
 20
-1452.375967725126
 30
0.0
 10
3430.53479879674
 20
-1454.268278599503
 30
0.0
 10
3422.169258379847
 20
-1457.391348067526
 30
0.0
 10
3416.686993850181
 20
-1459.437990103805
 30
0.0
 10
3411.136908074081
 20
-1459.016597196326
 30
0.0
 10
3405.58692205956
 20
-1457.408673328323
 30
0.0
 10
3392.124878510036
 20
-1453.508594179414
 30
0.0
 10
3379.142355614379
 20
-1448.414934251768
 30
0.0
 10
3366.786551581634
 20
-1441.794988681174
 30
0.0
 10
3364.535847236584
 20
-1440.589170482145
 30
0.0
 10
3362.322129496755
 20
-1439.544234455335
 30
0.0
 10
3360.335460796072
 20
-1441.583061834631
 30
0.0
 10
3355.02771252102
 20
-1447.030210288675
 30
0.0
 10
3349.150109482788
 20
-1445.170920496775
 30
0.0
 10
3343.159825741667
 20
-1443.364770372341
 30
0.0
 10
3336.460145729474
 20
-1441.344731423655
 30
0.0
 10
3336.465532854712
 20
-1441.392450712025
 30
0.0
 10
3335.439443452771
 20
-1448.113720792492
 30
0.0
 10
3335.007384369859
 20
-1450.943823758397
 30
0.0
 10
3335.094850333786
 20
-1454.537601607525
 30
0.0
 10
3331.548251397811
 20
-1455.136636632408
 30
0.0
 10
3327.729719025842
 20
-1455.78162849111
 30
0.0
 10
3326.53972966393
 20
-1452.288011266771
 30
0.0
 10
3325.202932825829
 20
-1449.500972048908
 30
0.0
 10
3322.764352488115
 20
-1444.416689709641
 30
0.0
 10
3320.585326837201
 20
-1439.210265944462
 30
0.0
 10
3319.219366364325
 20
-1433.74409628279
 30
0.0
 10
3318.419486341576
 20
-1430.543179529694
 30
0.0
 10
3316.854110786792
 20
-1429.237932290784
 30
0.0
 10
3313.533397004878
 20
-1429.438918617551
 30
0.0
 10
3306.380383753165
 20
-1429.871817360415
 30
0.0
 10
3299.43733121355
 20
-1428.637799888537
 30
0.0
 10
3292.643064754766
 20
-1426.377501805026
 30
0.0
 10
3289.597418585103
 20
-1425.364256706311
 30
0.0
 10
3287.118513786025
 20
-1423.643336223756
 30
0.0
 10
3285.191402747689
 20
-1421.147999861355
 30
0.0
 10
3283.854938448182
 20
-1419.41740250569
 30
0.0
 10
3283.910879753312
 20
-1417.297601978528
 30
0.0
 10
3284.595098696016
 20
-1415.422117557054
 30
0.0
 10
3285.351653096581
 20
-1413.348340371431
 30
0.0
 10
3287.427824560087
 20
-1414.173834179456
 30
0.0
 10
3288.904121338757
 20
-1414.289856895219
 30
0.0
 10
3295.235568894601
 20
-1414.787467648654
 30
0.0
 10
3301.572104290946
 20
-1415.31843202316
 30
0.0
 10
3307.868144799893
 20
-1416.135080304558
 30
0.0
 10
3312.281513896987
 20
-1416.707545495709
 30
0.0
 10
3313.357750119043
 20
-1415.06979291574
 30
0.0
 10
3312.449346125843
 20
-1410.962309445183
 30
0.0
 10
3310.725673886413
 20
-1403.168535888388
 30
0.0
 10
3309.272854332543
 20
-1395.315221296173
 30
0.0
 10
3307.647064828529
 20
-1387.49920090738
 30
0.0
 10
3307.1362938602
 20
-1385.043686041722
 30
0.0
 10
3306.946771801494
 20
-1382.611166219901
 30
0.0
 10
3309.453697133926
 20
-1381.25951322007
 30
0.0
 10
3311.792840118291
 20
-1379.998294091129
 30
0.0
 10
3313.695625958408
 20
-1381.739083754729
 30
0.0
 10
3315.299950096122
 20
-1383.099033592502
 30
0.0
 10
3320.159211881673
 20
-1387.218139286954
 30
0.0
 10
3321.401567758822
 20
-1393.222905083884
 30
0.0
 10
3323.137834897531
 20
-1398.937547583676
 30
0.0
 10
3324.349913135611
 20
-1402.926880091462
 30
0.0
 10
3325.543768258689
 20
-1406.922364563253
 30
0.0
 10
3326.687476561652
 20
-1410.93174914831
 30
0.0
 10
3327.798404872621
 20
-1414.826208394964
 30
0.0
 10
3330.308364619732
 20
-1416.060757928594
 30
0.0
 10
3334.139358875545
 20
-1415.113887533426
 30
0.0
 10
3335.721552569768
 20
-1414.722822145803
 30
0.0
 10
3337.363536703357
 20
-1414.579364995957
 30
0.0
 10
3338.956355005685
 20
-1414.224646076757
 30
0.0
 10
3349.723696991695
 20
-1411.82667701495
 30
0.0
 10
3350.973609808411
 20
-1409.918670318894
 30
0.0
 10
3349.554900400916
 20
-1398.951813489399
 30
0.0
 10
3349.266788962279
 20
-1396.724652876871
 30
0.0
 10
3348.459892375176
 20
-1396.268060759118
 30
0.0
 10
3346.387229193846
 20
-1396.598637376327
 30
0.0
 10
3342.32999230498
 20
-1397.245740855106
 30
0.0
 10
3340.140624703763
 20
-1399.774480719364
 30
0.0
 10
3338.501267625078
 20
-1403.295499123928
 30
0.0
 10
3337.543007783032
 20
-1405.353646995588
 30
0.0
 10
3336.424871698019
 20
-1408.241112869114
 30
0.0
 10
3333.869678388533
 20
-1408.052829516674
 30
0.0
 10
3331.377584277434
 20
-1407.869201704558
 30
0.0
 10
3330.581328925371
 20
-1404.90605004683
 30
0.0
 10
3329.714633585438
 20
-1402.769456320628
 30
0.0
 10
3326.133625218352
 20
-1393.94155424136
 30
0.0
 10
3326.539513513843
 20
-1384.633466431031
 30
0.0
 10
3326.389879459596
 20
-1375.356953160289
 30
0.0
  0
HATCH
  5
8D
330
70
100
AcDbEntity
  8
Layer 1
 62
   246
420
  8590872
440
 33554687
100
AcDbHatch
 10
0.0
 20
0.0
 30
0.0
210
0.0
220
0.0
230
1.0
  2
SOLID
 70
     1
 71
     1
 91
        9
 92
        1
 93
        1
 72
     4
 94
        3
 73
     0
 74
     0
 95
       17
 96
       13
 40
0.0
 40
0.0
 40
0.0
 40
0.0
 40
1.0
 40
1.0
 40
1.0
 40
2.0
 40
2.0
 40
2.0
 40
3.0
 40
3.0
 40
3.0
 40
4.0
 40
4.0
 40
4.0
 40
4.0
 10
3339.309078693314
 20
-1361.296572916927
 10
3339.229618596059
 20
-1364.014244583891
 10
3339.355393006121
 20
-1366.39818051699
 10
3343.171314950121
 20
-1366.258830218791
 10
3349.589949968819
 20
-1366.024440390164
 10
3351.595631563669
 20
-1364.086023039604
 10
3351.581939287022
 20
-1357.914422629602
 10
3351.577325314018
 20
-1355.833063564017
 10
3351.391569254897
 20
-1354.538690337163
 10
3348.69557079086
 20
-1354.643622890789
 10
3341.596877718624
 20
-1354.919879328515
 10
3339.284770122026
 20
-1356.425697220948
 10
3339.309078693314
 20
-1361.296572916927
 97
        0
 97
        1
330
84
 92
        1
 93
        1
 72
     4
 94
        3
 73
     0
 74
     0
 95
       17
 96
       13
 40
0.0
 40
0.0
 40
0.0
 40
0.0
 40
1.0
 40
1.0
 40
1.0
 40
2.0
 40
2.0
 40
2.0
 40
3.0
 40
3.0
 40
3.0
 40
4.0
 40
4.0
 40
4.0
 40
4.0
 10
3350.058613237564
 20
-1380.176518151075
 10
3349.408591732616
 20
-1378.03156107921
 10
3351.634363996511
 20
-1374.08379589579
 10
3346.274515237099
 20
-1374.56339968431
 10
3342.214925637674
 20
-1374.926648218466
 10
3338.483061137006
 20
-1374.950058935549
 10
3339.399512564201
 20
-1380.67605762836
 10
3339.843143990216
 20
-1383.447833324714
 10
3338.44282396702
 20
-1387.296668276144
 10
3343.598469088757
 20
-1386.979808875979
 10
3347.84957597846
 20
-1386.718533301952
 10
3351.247945835752
 20
-1385.797285005524
 10
3350.058613237564
 20
-1380.176518151075
 97
        0
 97
        1
330
85
 92
        1
 93
        1
 72
     4
 94
        3
 73
     0
 74
     0
 95
       23
 96
       19
 40
0.0
 40
0.0
 40
0.0
 40
0.0
 40
1.0
 40
1.0
 40
1.0
 40
2.0
 40
2.0
 40
2.0
 40
3.0
 40
3.0
 40
3.0
 40
4.0
 40
4.0
 40
4.0
 40
5.0
 40
5.0
 40
5.0
 40
6.0
 40
6.0
 40
6.0
 40
6.0
 10
3337.580152344087
 20
-1434.814172227373
 10
3340.385597573175
 20
-1433.874451411998
 10
3343.418598962766
 20
-1432.675816046617
 10
3346.550372628513
 20
-1431.853215324369
 10
3350.999265161008
 20
-1430.68464144797
 10
3351.414905150796
 20
-1428.264824600476
 10
3349.957837416376
 20
-1424.261591979427
 10
3348.336794900803
 20
-1419.80776956226
 10
3345.71539315707
 20
-1422.258080198911
 10
3343.40458246099
 20
-1422.839224647386
 10
3340.607849743086
 20
-1423.542610283356
 10
3337.86641819352
 20
-1424.488316793439
 10
3335.140017388443
 20
-1425.440674075425
 10
3333.483725781807
 20
-1426.01922472286
 10
3331.264720678318
 20
-1426.496816652882
 10
3332.425845690192
 20
-1429.060755727413
 10
3333.466092922812
 20
-1431.357832579521
 10
3333.591302017263
 20
-1434.586981859325
 10
3337.580152344087
 20
-1434.814172227373
 97
        0
 97
        1
330
86
 92
        1
 93
        1
 72
     4
 94
        3
 73
     0
 74
     0
 95
       23
 96
       19
 40
0.0
 40
0.0
 40
0.0
 40
0.0
 40
1.0
 40
1.0
 40
1.0
 40
2.0
 40
2.0
 40
2.0
 40
3.0
 40
3.0
 40
3.0
 40
4.0
 40
4.0
 40
4.0
 40
5.0
 40
5.0
 40
5.0
 40
6.0
 40
6.0
 40
6.0
 40
6.0
 10
3368.171342052447
 20
-1425.510507180356
 10
3373.07501436735
 20
-1423.683639901458
 10
3378.068538610602
 20
-1422.060286242654
 10
3382.847234608071
 20
-1419.950295604042
 10
3385.529158376078
 20
-1418.766125667542
 10
3383.967357611189
 20
-1416.067641477509
 10
3383.813342360954
 20
-1414.075436009219
 10
3383.642666927114
 20
-1411.867978308438
 10
3381.844530982816
 20
-1411.67557147742
 10
3380.133503523459
 20
-1412.158484024957
 10
3375.43179852418
 20
-1413.485612303412
 10
3370.764893688855
 20
-1414.935746608128
 10
3366.081212281421
 20
-1416.327088089264
 10
3363.339148908523
 20
-1417.141608123654
 10
3363.080384000887
 20
-1419.106578681019
 10
3363.641468058624
 20
-1421.483464795907
 10
3364.193157901058
 20
-1423.820612548706
 10
3365.21206446935
 20
-1425.577912753547
 10
3368.171342052447
 20
-1425.510507180356
 97
        0
 97
        1
330
87
 92
        1
 93
        1
 72
     4
 94
        3
 73
     0
 74
     0
 95
       23
 96
       19
 40
0.0
 40
0.0
 40
0.0
 40
0.0
 40
1.0
 40
1.0
 40
1.0
 40
2.0
 40
2.0
 40
2.0
 40
3.0
 40
3.0
 40
3.0
 40
4.0
 40
4.0
 40
4.0
 40
5.0
 40
5.0
 40
5.0
 40
6.0
 40
6.0
 40
6.0
 40
6.0
 10
3384.237046411668
 20
-1353.210448054412
 10
3384.287559024237
 20
-1346.505339349657
 10
3384.105228112643
 20
-1346.361167241831
 10
3378.227259281955
 20
-1347.944117461358
 10
3375.250407034117
 20
-1348.745818132914
 10
3372.309194610187
 20
-1350.034721099881
 10
3369.290675276403
 20
-1350.251569517627
 10
3363.363814958801
 20
-1350.677368561491
 10
3362.602983280558
 20
-1354.676394569317
 10
3362.116595704701
 20
-1359.218938283605
 10
3361.846599306023
 20
-1361.740511941142
 10
3362.874235012432
 20
-1362.531787527748
 10
3365.247463202777
 20
-1362.049174264944
 10
3369.693337947524
 20
-1361.145051706154
 10
3374.119426645874
 20
-1360.071218075446
 10
3378.607517165245
 20
-1359.468242468215
 10
3382.797653103568
 20
-1358.905321134739
 10
3384.962695506565
 20
-1357.104641270192
 10
3384.237046411668
 20
-1353.210448054412
 97
        0
 97
        1
330
88
 92
        1
 93
        1
 72
     4
 94
        3
 73
     0
 74
     0
 95
       23
 96
       19
 40
0.0
 40
0.0
 40
0.0
 40
0.0
 40
1.0
 40
1.0
 40
1.0
 40
2.0
 40
2.0
 40
2.0
 40
3.0
 40
3.0
 40
3.0
 40
4.0
 40
4.0
 40
4.0
 40
5.0
 40
5.0
 40
5.0
 40
6.0
 40
6.0
 40
6.0
 40
6.0
 10
3382.992504093262
 20
-1373.078332200196
 10
3383.224383255496
 20
-1366.452317800243
 10
3383.233860605451
 20
-1366.487583518236
 10
3377.392338004767
 20
-1368.056600370634
 10
3374.088616945054
 20
-1368.94397961117
 10
3370.764428134823
 20
-1369.771086231377
 10
3367.419813141399
 20
-1370.486825676148
 10
3361.683206467413
 20
-1371.714441780074
 10
3360.449213935928
 20
-1373.718818160939
 10
3361.718264348782
 20
-1380.080414497142
 10
3362.795963740654
 20
-1385.482770002448
 10
3366.483234815743
 20
-1382.220882297978
 10
3369.015258498628
 20
-1382.088382294831
 10
3371.498540336961
 20
-1381.958426211939
 10
3373.921466420318
 20
-1380.942055250432
 10
3376.407973883023
 20
-1380.549909112376
 10
3381.203313437167
 20
-1379.793616585958
 10
3384.233953802734
 20
-1377.766295042042
 10
3382.992504093262
 20
-1373.078332200196
 97
        0
 97
        1
330
89
 92
        1
 93
        1
 72
     4
 94
        3
 73
     0
 74
     0
 95
       23
 96
       19
 40
0.0
 40
0.0
 40
0.0
 40
0.0
 40
1.0
 40
1.0
 40
1.0
 40
2.0
 40
2.0
 40
2.0
 40
3.0
 40
3.0
 40
3.0
 40
4.0
 40
4.0
 40
4.0
 40
5.0
 40
5.0
 40
5.0
 40
6.0
 40
6.0
 40
6.0
 40
6.0
 10
3362.54991012081
 20
-1399.018088431368
 10
3362.464289746084
 20
-1407.86657464966
 10
3362.600688764255
 20
-1407.977476271063
 10
3370.4306840875
 20
-1405.832269795254
 10
3372.70188112346
 20
-1405.210023576445
 10
3374.952784991665
 20
-1404.512789904483
 10
3377.208228011692
 20
-1403.834111886114
 10
3383.209884572758
 20
-1402.02812803098
 10
3385.53095408449
 20
-1397.759064057152
 10
3382.969376033984
 20
-1390.737943925645
 10
3381.12272270869
 20
-1385.676423853199
 10
3377.2449568995
 20
-1390.296316044664
 10
3374.307768192568
 20
-1390.242893719392
 10
3372.732549495377
 20
-1390.214245519441
 10
3371.162244055923
 20
-1391.0681547504
 10
3369.557396169923
 20
-1391.301330813153
 10
3364.523277277698
 20
-1392.032799333466
 10
3361.379399207095
 20
-1394.212024507536
 10
3362.54991012081
 20
-1399.018088431368
 97
        0
 97
        1
330
8A
 92
        1
 93
        1
 72
     4
 94
        3
 73
     0
 74
     0
 95
       47
 96
       43
 40
0.0
 40
0.0
 40
0.0
 40
0.0
 40
1.0
 40
1.0
 40
1.0
 40
2.0
 40
2.0
 40
2.0
 40
3.0
 40
3.0
 40
3.0
 40
4.0
 40
4.0
 40
4.0
 40
5.0
 40
5.0
 40
5.0
 40
6.0
 40
6.0
 40
6.0
 40
7.0
 40
7.0
 40
7.0
 40
8.0
 40
8.0
 40
8.0
 40
9.0
 40
9.0
 40
9.0
 40
10.0
 40
10.0
 40
10.0
 40
11.0
 40
11.0
 40
11.0
 40
12.0
 40
12.0
 40
12.0
 40
13.0
 40
13.0
 40
13.0
 40
14.0
 40
14.0
 40
14.0
 40
14.0
 10
3409.254589984481
 20
-1420.117895055879
 10
3409.558630021817
 20
-1424.031575033322
 10
3408.614004262163
 20
-1427.388585402871
 10
3404.900994699827
 20
-1429.34996454341
 10
3401.215635721655
 20
-1431.296745239634
 10
3397.492666628401
 20
-1433.090159135882
 10
3393.311808516872
 20
-1433.902617430985
 10
3390.106901300639
 20
-1434.52532920383
 10
3387.577413224543
 20
-1434.572582938167
 10
3386.441511265093
 20
-1430.813865945955
 10
3385.930964760318
 20
-1429.124403614479
 10
3384.706507773044
 20
-1427.609956345507
 10
3382.825569718611
 20
-1428.557591579444
 10
3379.441590469014
 20
-1430.262450447863
 10
3376.197227548495
 20
-1432.276936002015
 10
3373.036190486395
 20
-1434.375420805239
 10
3371.821244102936
 20
-1435.181959913353
 10
3372.697849092996
 20
-1436.216420974419
 10
3373.485242291507
 20
-1437.073904995273
 10
3381.020683240838
 20
-1445.280392202218
 10
3397.992854555945
 20
-1446.869594147328
 10
3406.867195649993
 20
-1439.986810071311
 10
3411.020885358314
 20
-1436.765309179192
 10
3415.423264054847
 20
-1434.808120024944
 10
3420.761888538436
 20
-1434.546378896885
 10
3424.895409780976
 20
-1434.343729877143
 10
3429.122524011058
 20
-1434.120031164341
 10
3433.05557436165
 20
-1432.474463927393
 10
3436.713316009515
 20
-1430.944021552009
 10
3438.980796926677
 20
-1428.269081094492
 10
3439.307100422939
 20
-1424.276922008653
 10
3439.617358931995
 20
-1420.481160216969
 10
3436.690753265848
 20
-1418.967677309921
 10
3433.97088684416
 20
-1417.475909173122
 10
3429.000548854441
 20
-1414.749824279709
 10
3423.630898519943
 20
-1413.078219270782
 10
3418.129895440455
 20
-1411.841940536455
 10
3408.722129186299
 20
-1409.727726657694
 10
3408.715544922121
 20
-1409.760215678417
 10
3409.249236113105
 20
-1419.045491341131
 10
3409.270019775286
 20
-1419.407127063104
 10
3409.251879794935
 20
-1419.770957539805
 10
3409.254589984481
 20
-1420.117895055879
 97
        0
 97
        1
330
8B
 92
        1
 93
        1
 72
     4
 94
        3
 73
     0
 74
     0
 95
      122
 96
      118
 40
0.0
 40
0.0
 40
0.0
 40
0.0
 40
1.0
 40
1.0
 40
1.0
 40
2.0
 40
2.0
 40
2.0
 40
3.0
 40
3.0
 40
3.0
 40
4.0
 40
4.0
 40
4.0
 40
5.0
 40
5.0
 40
5.0
 40
6.0
 40
6.0
 40
6.0
 40
7.0
 40
7.0
 40
7.0
 40
8.0
 40
8.0
 40
8.0
 40
9.0
 40
9.0
 40
9.0
 40
10.0
 40
10.0
 40
10.0
 40
11.0
 40
11.0
 40
11.0
 40
12.0
 40
12.0
 40
12.0
 40
13.0
 40
13.0
 40
13.0
 40
14.0
 40
14.0
 40
14.0
 40
15.0
 40
15.0
 40
15.0
 40
16.0
 40
16.0
 40
16.0
 40
17.0
 40
17.0
 40
17.0
 40
18.0
 40
18.0
 40
18.0
 40
19.0
 40
19.0
 40
19.0
 40
20.0
 40
20.0
 40
20.0
 40
21.0
 40
21.0
 40
21.0
 40
22.0
 40
22.0
 40
22.0
 40
23.0
 40
23.0
 40
23.0
 40
24.0
 40
24.0
 40
24.0
 40
25.0
 40
25.0
 40
25.0
 40
26.0
 40
26.0
 40
26.0
 40
27.0
 40
27.0
 40
27.0
 40
28.0
 40
28.0
 40
28.0
 40
29.0
 40
29.0
 40
29.0
 40
30.0
 40
30.0
 40
30.0
 40
31.0
 40
31.0
 40
31.0
 40
32.0
 40
32.0
 40
32.0
 40
33.0
 40
33.0
 40
33.0
 40
34.0
 40
34.0
 40
34.0
 40
35.0
 40
35.0
 40
35.0
 40
36.0
 40
36.0
 40
36.0
 40
37.0
 40
37.0
 40
37.0
 40
38.0
 40
38.0
 40
38.0
 40
39.0
 40
39.0
 40
39.0
 40
39.0
 10
3326.389879459596
 20
-1375.356953160289
 10
3326.821015747905
 20
-1368.474667892163
 10
3327.294675409041
 20
-1361.59467714034
 10
3327.666769469823
 20
-1354.709199501704
 10
3327.87768207365
 20
-1350.806177386233
 10
3329.227946724846
 20
-1348.585817187967
 10
3333.655930893187
 20
-1347.936485700605
 10
3353.450465338396
 20
-1345.033806186359
 10
3372.46760768334
 20
-1338.6841978665
 10
3391.951609275155
 20
-1334.379186470564
 10
3395.649953885455
 20
-1333.562039381272
 10
3399.490791283679
 20
-1333.042963261539
 10
3403.270508088157
 20
-1333.015146408071
 10
3410.478647925444
 20
-1332.962123129114
 10
3413.583660547764
 20
-1337.111988643593
 10
3411.464525097796
 20
-1343.957661412421
 10
3406.304473839675
 20
-1360.626773679048
 10
3404.14832684409
 20
-1377.558840839604
 10
3405.643137709034
 20
-1395.013625417513
 10
3406.020751910491
 20
-1399.422954170678
 10
3406.963083153839
 20
-1401.229004533533
 10
3411.809051709057
 20
-1401.593101041109
 10
3426.674507890715
 20
-1402.710064927575
 10
3440.72863640849
 20
-1406.804147092757
 10
3453.207479721355
 20
-1415.314275290723
 10
3460.263599539974
 20
-1420.126275028474
 10
3465.659603558115
 20
-1426.009448088171
 10
3464.803266795416
 20
-1435.400371262492
 10
3464.056002691849
 20
-1443.594887080021
 10
3457.767930638978
 20
-1450.123916598769
 10
3448.002186587397
 20
-1451.30203433284
 10
3439.099363562695
 20
-1452.375967725126
 10
3430.53479879674
 20
-1454.268278599503
 10
3422.169258379847
 20
-1457.391348067526
 10
3416.686993850181
 20
-1459.437990103805
 10
3411.136908074081
 20
-1459.016597196326
 10
3405.58692205956
 20
-1457.408673328323
 10
3392.124878510036
 20
-1453.508594179414
 10
3379.142355614379
 20
-1448.414934251768
 10
3366.786551581634
 20
-1441.794988681174
 10
3364.535847236584
 20
-1440.589170482145
 10
3362.322129496755
 20
-1439.544234455335
 10
3360.335460796072
 20
-1441.583061834631
 10
3355.02771252102
 20
-1447.030210288675
 10
3349.150109482788
 20
-1445.170920496775
 10
3343.159825741667
 20
-1443.364770372341
 10
3336.460145729474
 20
-1441.344731423655
 10
3336.465532854712
 20
-1441.392450712025
 10
3335.439443452771
 20
-1448.113720792492
 10
3335.007384369859
 20
-1450.943823758397
 10
3335.094850333786
 20
-1454.537601607525
 10
3331.548251397811
 20
-1455.136636632408
 10
3327.729719025842
 20
-1455.78162849111
 10
3326.53972966393
 20
-1452.288011266771
 10
3325.202932825829
 20
-1449.500972048908
 10
3322.764352488115
 20
-1444.416689709641
 10
3320.585326837201
 20
-1439.210265944462
 10
3319.219366364325
 20
-1433.74409628279
 10
3318.419486341576
 20
-1430.543179529694
 10
3316.854110786792
 20
-1429.237932290784
 10
3313.533397004878
 20
-1429.438918617551
 10
3306.380383753165
 20
-1429.871817360415
 10
3299.43733121355
 20
-1428.637799888537
 10
3292.643064754766
 20
-1426.377501805026
 10
3289.597418585103
 20
-1425.364256706311
 10
3287.118513786025
 20
-1423.643336223756
 10
3285.191402747689
 20
-1421.147999861355
 10
3283.854938448182
 20
-1419.41740250569
 10
3283.910879753312
 20
-1417.297601978528
 10
3284.595098696016
 20
-1415.422117557054
 10
3285.351653096581
 20
-1413.348340371431
 10
3287.427824560087
 20
-1414.173834179456
 10
3288.904121338757
 20
-1414.289856895219
 10
3295.235568894601
 20
-1414.787467648654
 10
3301.572104290946
 20
-1415.31843202316
 10
3307.868144799893
 20
-1416.135080304558
 10
3312.281513896987
 20
-1416.707545495709
 10
3313.357750119043
 20
-1415.06979291574
 10
3312.449346125843
 20
-1410.962309445183
 10
3310.725673886413
 20
-1403.168535888388
 10
3309.272854332543
 20
-1395.315221296173
 10
3307.647064828529
 20
-1387.49920090738
 10
3307.1362938602
 20
-1385.043686041722
 10
3306.946771801494
 20
-1382.611166219901
 10
3309.453697133926
 20
-1381.25951322007
 10
3311.792840118291
 20
-1379.998294091129
 10
3313.695625958408
 20
-1381.739083754729
 10
3315.299950096122
 20
-1383.099033592502
 10
3320.159211881673
 20
-1387.218139286954
 10
3321.401567758822
 20
-1393.222905083884
 10
3323.137834897531
 20
-1398.937547583676
 10
3324.349913135611
 20
-1402.926880091462
 10
3325.543768258689
 20
-1406.922364563253
 10
3326.687476561652
 20
-1410.93174914831
 10
3327.798404872621
 20
-1414.826208394964
 10
3330.308364619732
 20
-1416.060757928594
 10
3334.139358875545
 20
-1415.113887533426
 10
3335.721552569768
 20
-1414.722822145803
 10
3337.363536703357
 20
-1414.579364995957
 10
3338.956355005685
 20
-1414.224646076757
 10
3349.723696991695
 20
-1411.82667701495
 10
3350.973609808411
 20
-1409.918670318894
 10
3349.554900400916
 20
-1398.951813489399
 10
3349.266788962279
 20
-1396.724652876871
 10
3348.459892375176
 20
-1396.268060759118
 10
3346.387229193846
 20
-1396.598637376327
 10
3342.32999230498
 20
-1397.245740855106
 10
3340.140624703763
 20
-1399.774480719364
 10
3338.501267625078
 20
-1403.295499123928
 10
3337.543007783032
 20
-1405.353646995588
 10
3336.424871698019
 20
-1408.241112869114
 10
3333.869678388533
 20
-1408.052829516674
 10
3331.377584277434
 20
-1407.869201704558
 10
3330.581328925371
 20
-1404.90605004683
 10
3329.714633585438
 20
-1402.769456320628
 10
3326.133625218352
 20
-1393.94155424136
 10
3326.539513513843
 20
-1384.633466431031
 10
3326.389879459596
 20
-1375.356953160289
 97
        0
 97
        1
330
8C
 75
     2
 76
     1
 98
        1
 10
0.0
 20
0.0
450
        0
451
        0
460
0.0
461
0.0
452
        0
462
0.0
453
        0
470

  0
SPLINE
  5
8E
330
70
100
AcDbEntity
  8
Layer 1
100
AcDbSpline
210
0.0
220
0.0
230
1.0
 70
     9
 71
     3
 72
    92
 73
    88
 74
     0
 42
0.0000000001
 43
0.0000000001
 40
0.0
 40
0.0
 40
0.0
 40
0.0
 40
1.0
 40
1.0
 40
1.0
 40
2.0
 40
2.0
 40
2.0
 40
3.0
 40
3.0
 40
3.0
 40
4.0
 40
4.0
 40
4.0
 40
5.0
 40
5.0
 40
5.0
 40
6.0
 40
6.0
 40
6.0
 40
7.0
 40
7.0
 40
7.0
 40
8.0
 40
8.0
 40
8.0
 40
9.0
 40
9.0
 40
9.0
 40
10.0
 40
10.0
 40
10.0
 40
11.0
 40
11.0
 40
11.0
 40
12.0
 40
12.0
 40
12.0
 40
13.0
 40
13.0
 40
13.0
 40
14.0
 40
14.0
 40
14.0
 40
15.0
 40
15.0
 40
15.0
 40
16.0
 40
16.0
 40
16.0
 40
17.0
 40
17.0
 40
17.0
 40
18.0
 40
18.0
 40
18.0
 40
19.0
 40
19.0
 40
19.0
 40
20.0
 40
20.0
 40
20.0
 40
21.0
 40
21.0
 40
21.0
 40
22.0
 40
22.0
 40
22.0
 40
23.0
 40
23.0
 40
23.0
 40
24.0
 40
24.0
 40
24.0
 40
25.0
 40
25.0
 40
25.0
 40
26.0
 40
26.0
 40
26.0
 40
27.0
 40
27.0
 40
27.0
 40
28.0
 40
28.0
 40
28.0
 40
29.0
 40
29.0
 40
29.0
 40
29.0
 10
3425.646647720754
 20
-1322.792195042338
 30
0.0
 10
3404.706642518028
 20
-1321.233353870943
 30
0.0
 10
3384.703764329636
 20
-1327.347192327005
 30
0.0
 10
3364.658229752978
 20
-1333.222800133667
 30
0.0
 10
3347.201400062714
 20
-1338.339604747519
 30
0.0
 10
3329.740164236062
 20
-1343.206257203344
 30
0.0
 10
3311.181742255878
 20
-1340.340655742432
 30
0.0
 10
3303.381272203129
 20
-1339.136200951642
 30
0.0
 10
3295.879563137518
 20
-1337.445109181052
 30
0.0
 10
3289.359013352942
 20
-1332.678650603874
 30
0.0
 10
3286.660566573499
 20
-1330.706114793474
 30
0.0
 10
3286.572867832554
 20
-1329.335956020838
 30
0.0
 10
3289.659503540774
 20
-1327.646244285414
 30
0.0
 10
3294.580659072305
 20
-1324.952249366412
 30
0.0
 10
3299.666425365052
 20
-1323.348964411806
 30
0.0
 10
3305.295605445954
 20
-1324.398589232803
 30
0.0
 10
3312.604184409102
 20
-1325.761315767843
 30
0.0
 10
3319.87202323764
 20
-1327.34950347024
 30
0.0
 10
3327.194223812982
 20
-1328.630043091548
 30
0.0
 10
3333.128715891341
 20
-1329.667912673213
 30
0.0
 10
3339.089977326589
 20
-1329.58758797561
 30
0.0
 10
3345.064083065067
 20
-1328.541321794423
 30
0.0
 10
3349.279117830683
 20
-1327.803152621426
 30
0.0
 10
3352.032869935196
 20
-1325.727263815724
 30
0.0
 10
3353.007731766589
 20
-1321.481294647315
 30
0.0
 10
3353.91872956083
 20
-1317.513510640478
 30
0.0
 10
3352.096210224061
 20
-1315.488782897607
 30
0.0
 10
3348.437678797036
 20
-1314.213929686274
 30
0.0
 10
3346.057458982732
 20
-1313.384511922832
 30
0.0
 10
3345.71933373942
 20
-1311.182790512813
 30
0.0
 10
3347.422430153289
 20
-1309.378086931269
 30
0.0
 10
3352.468171269407
 20
-1304.031381759823
 30
0.0
 10
3355.461143325634
 20
-1297.318574786594
 30
0.0
 10
3359.679353834836
 20
-1291.429183255172
 30
0.0
 10
3361.483068114061
 20
-1288.910868475862
 30
0.0
 10
3363.664321773562
 20
-1286.763550379973
 30
0.0
 10
3366.922634688139
 20
-1288.03642498667
 30
0.0
 10
3370.154011976527
 20
-1289.298774746833
 30
0.0
 10
3369.458416057145
 20
-1292.565800172598
 30
0.0
 10
3369.344080974748
 20
-1295.178788689879
 30
0.0
 10
3369.031569516709
 20
-1302.320786600635
 30
0.0
 10
3366.785786742865
 20
-1309.060346303825
 30
0.0
 10
3364.698716326912
 20
-1315.825611240399
 30
0.0
 10
3364.020104816264
 20
-1318.025337418848
 30
0.0
 10
3362.731492820564
 20
-1320.548091588397
 30
0.0
 10
3365.743319815123
 20
-1322.00486003808
 30
0.0
 10
3368.560403895037
 20
-1323.367436930756
 30
0.0
 10
3370.245285507368
 20
-1321.217358764527
 30
0.0
 10
3371.532592289081
 20
-1319.297962621594
 30
0.0
 10
3376.412496407913
 20
-1312.021885149367
 30
0.0
 10
3380.101263906683
 20
-1304.157513648873
 30
0.0
 10
3382.421651714296
 20
-1295.690981260702
 30
0.0
 10
3383.530019478085
 20
-1291.646829765545
 30
0.0
 10
3381.800436365131
 20
-1288.374117929806
 30
0.0
 10
3378.704934346624
 20
-1286.170484422871
 30
0.0
 10
3374.55954978971
 20
-1283.219453796923
 30
0.0
 10
3375.223097302009
 20
-1280.619916465807
 30
0.0
 10
3378.121046454741
 20
-1277.278535410221
 30
0.0
 10
3381.814851913219
 20
-1273.019547355817
 30
0.0
 10
3386.446948271121
 20
-1270.271913961454
 30
0.0
 10
3391.562223207435
 20
-1268.319596497627
 30
0.0
 10
3395.305477154979
 20
-1266.890927559213
 30
0.0
 10
3400.702994223732
 20
-1270.75963169169
 30
0.0
 10
3402.386138321905
 20
-1276.088280017434
 30
0.0
 10
3404.90062890737
 20
-1284.048871560369
 30
0.0
 10
3404.672008623366
 20
-1291.842512101725
 30
0.0
 10
3400.036919418111
 20
-1299.112105071349
 30
0.0
 10
3397.388565421261
 20
-1303.265761525811
 30
0.0
 10
3393.284856263755
 20
-1308.572877977535
 30
0.0
 10
3395.664901495297
 20
-1312.330231561505
 30
0.0
 10
3397.830209929173
 20
-1315.748578674888
 30
0.0
 10
3403.912207814771
 20
-1312.183781564302
 30
0.0
 10
3408.19231206995
 20
-1311.445629018236
 30
0.0
 10
3421.289394511554
 20
-1309.18692711998
 30
0.0
 10
3434.410137074188
 20
-1307.536538073404
 30
0.0
 10
3447.706642911163
 20
-1308.928345108573
 30
0.0
 10
3450.620628737631
 20
-1309.23338276169
 30
0.0
 10
3454.705549464526
 20
-1308.927613523662
 30
0.0
 10
3455.625650502802
 20
-1312.317345690951
 30
0.0
 10
3456.42804950541
 20
-1315.2732978881
 30
0.0
 10
3453.052566616911
 20
-1317.190266499289
 30
0.0
 10
3451.022351987222
 20
-1319.190519401579
 30
0.0
 10
3448.171132820542
 20
-1321.999655809072
 30
0.0
 10
3444.889907996778
 20
-1323.2552217819
 30
0.0
 10
3440.698574919508
 20
-1322.89074285494
 30
0.0
 10
3435.835197968845
 20
-1322.467820269926
 30
0.0
 10
3430.906842976732
 20
-1322.792195042338
 30
0.0
 10
3425.646647720754
 20
-1322.792195042338
 30
0.0
  0
HATCH
  5
8F
330
70
100
AcDbEntity
  8
Layer 1
 62
   246
420
  8590872
440
 33554687
100
AcDbHatch
 10
0.0
 20
0.0
 30
0.0
210
0.0
220
0.0
230
1.0
  2
SOLID
 70
     1
 71
     1
 91
        1
 92
        1
 93
        1
 72
     4
 94
        3
 73
     0
 74
     0
 95
       92
 96
       88
 40
0.0
 40
0.0
 40
0.0
 40
0.0
 40
1.0
 40
1.0
 40
1.0
 40
2.0
 40
2.0
 40
2.0
 40
3.0
 40
3.0
 40
3.0
 40
4.0
 40
4.0
 40
4.0
 40
5.0
 40
5.0
 40
5.0
 40
6.0
 40
6.0
 40
6.0
 40
7.0
 40
7.0
 40
7.0
 40
8.0
 40
8.0
 40
8.0
 40
9.0
 40
9.0
 40
9.0
 40
10.0
 40
10.0
 40
10.0
 40
11.0
 40
11.0
 40
11.0
 40
12.0
 40
12.0
 40
12.0
 40
13.0
 40
13.0
 40
13.0
 40
14.0
 40
14.0
 40
14.0
 40
15.0
 40
15.0
 40
15.0
 40
16.0
 40
16.0
 40
16.0
 40
17.0
 40
17.0
 40
17.0
 40
18.0
 40
18.0
 40
18.0
 40
19.0
 40
19.0
 40
19.0
 40
20.0
 40
20.0
 40
20.0
 40
21.0
 40
21.0
 40
21.0
 40
22.0
 40
22.0
 40
22.0
 40
23.0
 40
23.0
 40
23.0
 40
24.0
 40
24.0
 40
24.0
 40
25.0
 40
25.0
 40
25.0
 40
26.0
 40
26.0
 40
26.0
 40
27.0
 40
27.0
 40
27.0
 40
28.0
 40
28.0
 40
28.0
 40
29.0
 40
29.0
 40
29.0
 40
29.0
 10
3425.646647720754
 20
-1322.792195042338
 10
3404.706642518028
 20
-1321.233353870943
 10
3384.703764329636
 20
-1327.347192327005
 10
3364.658229752978
 20
-1333.222800133667
 10
3347.201400062714
 20
-1338.339604747519
 10
3329.740164236062
 20
-1343.206257203344
 10
3311.181742255878
 20
-1340.340655742432
 10
3303.381272203129
 20
-1339.136200951642
 10
3295.879563137518
 20
-1337.445109181052
 10
3289.359013352942
 20
-1332.678650603874
 10
3286.660566573499
 20
-1330.706114793474
 10
3286.572867832554
 20
-1329.335956020838
 10
3289.659503540774
 20
-1327.646244285414
 10
3294.580659072305
 20
-1324.952249366412
 10
3299.666425365052
 20
-1323.348964411806
 10
3305.295605445954
 20
-1324.398589232803
 10
3312.604184409102
 20
-1325.761315767843
 10
3319.87202323764
 20
-1327.34950347024
 10
3327.194223812982
 20
-1328.630043091548
 10
3333.128715891341
 20
-1329.667912673213
 10
3339.089977326589
 20
-1329.58758797561
 10
3345.064083065067
 20
-1328.541321794423
 10
3349.279117830683
 20
-1327.803152621426
 10
3352.032869935196
 20
-1325.727263815724
 10
3353.007731766589
 20
-1321.481294647315
 10
3353.91872956083
 20
-1317.513510640478
 10
3352.096210224061
 20
-1315.488782897607
 10
3348.437678797036
 20
-1314.213929686274
 10
3346.057458982732
 20
-1313.384511922832
 10
3345.71933373942
 20
-1311.182790512813
 10
3347.422430153289
 20
-1309.378086931269
 10
3352.468171269407
 20
-1304.031381759823
 10
3355.461143325634
 20
-1297.318574786594
 10
3359.679353834836
 20
-1291.429183255172
 10
3361.483068114061
 20
-1288.910868475862
 10
3363.664321773562
 20
-1286.763550379973
 10
3366.922634688139
 20
-1288.03642498667
 10
3370.154011976527
 20
-1289.298774746833
 10
3369.458416057145
 20
-1292.565800172598
 10
3369.344080974748
 20
-1295.178788689879
 10
3369.031569516709
 20
-1302.320786600635
 10
3366.785786742865
 20
-1309.060346303825
 10
3364.698716326912
 20
-1315.825611240399
 10
3364.020104816264
 20
-1318.025337418848
 10
3362.731492820564
 20
-1320.548091588397
 10
3365.743319815123
 20
-1322.00486003808
 10
3368.560403895037
 20
-1323.367436930756
 10
3370.245285507368
 20
-1321.217358764527
 10
3371.532592289081
 20
-1319.297962621594
 10
3376.412496407913
 20
-1312.021885149367
 10
3380.101263906683
 20
-1304.157513648873
 10
3382.421651714296
 20
-1295.690981260702
 10
3383.530019478085
 20
-1291.646829765545
 10
3381.800436365131
 20
-1288.374117929806
 10
3378.704934346624
 20
-1286.170484422871
 10
3374.55954978971
 20
-1283.219453796923
 10
3375.223097302009
 20
-1280.619916465807
 10
3378.121046454741
 20
-1277.278535410221
 10
3381.814851913219
 20
-1273.019547355817
 10
3386.446948271121
 20
-1270.271913961454
 10
3391.562223207435
 20
-1268.319596497627
 10
3395.305477154979
 20
-1266.890927559213
 10
3400.702994223732
 20
-1270.75963169169
 10
3402.386138321905
 20
-1276.088280017434
 10
3404.90062890737
 20
-1284.048871560369
 10
3404.672008623366
 20
-1291.842512101725
 10
3400.036919418111
 20
-1299.112105071349
 10
3397.388565421261
 20
-1303.265761525811
 10
3393.284856263755
 20
-1308.572877977535
 10
3395.664901495297
 20
-1312.330231561505
 10
3397.830209929173
 20
-1315.748578674888
 10
3403.912207814771
 20
-1312.183781564302
 10
3408.19231206995
 20
-1311.445629018236
 10
3421.289394511554
 20
-1309.18692711998
 10
3434.410137074188
 20
-1307.536538073404
 10
3447.706642911163
 20
-1308.928345108573
 10
3450.620628737631
 20
-1309.23338276169
 10
3454.705549464526
 20
-1308.927613523662
 10
3455.625650502802
 20
-1312.317345690951
 10
3456.42804950541
 20
-1315.2732978881
 10
3453.052566616911
 20
-1317.190266499289
 10
3451.022351987222
 20
-1319.190519401579
 10
3448.171132820542
 20
-1321.999655809072
 10
3444.889907996778
 20
-1323.2552217819
 10
3440.698574919508
 20
-1322.89074285494
 10
3435.835197968845
 20
-1322.467820269926
 10
3430.906842976732
 20
-1322.792195042338
 10
3425.646647720754
 20
-1322.792195042338
 97
        0
 97
        1
330
8E
 75
     2
 76
     1
 98
        1
 10
0.0
 20
0.0
450
        0
451
        0
460
0.0
461
0.0
452
        0
462
0.0
453
        0
470

  0
ENDSEC
  0
SECTION
  2
OBJECTS
  0
DICTIONARY
  5
C
330
0
100
AcDbDictionary
281
     1
  3
ACAD_COLOR
350
63
  3
ACAD_DETAILVIEWSTYLE
350
6A
  3
ACAD_GROUP
350
D
  3
ACAD_LAYOUT
350
62
  3
ACAD_MATERIAL
350
10
  3
ACAD_MLEADERSTYLE
350
66
  3
ACAD_MLINESTYLE
350
5F
  3
ACAD_PLOTSETTINGS
350
61
  3
ACAD_PLOTSTYLENAME
350
E
  3
ACAD_SCALELIST
350
42
  3
ACAD_SECTIONVIEWSTYLE
350
68
  3
ACAD_TABLESTYLE
350
64
  3
ACAD_VISUALSTYLE
350
29
  3
ACDB_RECOMPOSE_DATA
350
98
  3
AcDbVariableDictionary
350
90
  0
DICTIONARY
  5
63
102
{ACAD_REACTORS
330
C
102
}
330
C
100
AcDbDictionary
281
     1
  0
DICTIONARY
  5
6A
102
{ACAD_REACTORS
330
C
102
}
330
C
100
AcDbDictionary
281
     1
  3
Imperial24
350
6B
  0
DICTIONARY
  5
D
102
{ACAD_REACTORS
330
C
102
}
330
C
100
AcDbDictionary
281
     1
  0
DICTIONARY
  5
62
102
{ACAD_REACTORS
330
C
102
}
330
C
100
AcDbDictionary
281
     1
  3
Layout1
350
6F
  3
Layout2
350
77
  3
Model
350
73
  0
DICTIONARY
  5
10
102
{ACAD_REACTORS
330
C
102
}
330
C
100
AcDbDictionary
281
     1
  3
ByBlock
350
19
  3
ByLayer
350
11
  3
Global
350
21
  0
DICTIONARY
  5
66
102
{ACAD_REACTORS
330
C
102
}
330
C
100
AcDbDictionary
281
     1
  3
Standard
350
67
  0
DICTIONARY
  5
5F
102
{ACAD_REACTORS
330
C
102
}
330
C
100
AcDbDictionary
281
     1
  3
Standard
350
60
  0
DICTIONARY
  5
61
102
{ACAD_REACTORS
330
C
102
}
330
C
100
AcDbDictionary
281
     1
  0
ACDBDICTIONARYWDFLT
  5
E
102
{ACAD_REACTORS
330
C
102
}
330
C
100
AcDbDictionary
281
     1
  3
Normal
350
F
100
AcDbDictionaryWithDefault
340
F
  0
DICTIONARY
  5
42
102
{ACAD_REACTORS
330
C
102
}
330
C
100
AcDbDictionary
281
     1
  3
A0
350
43
  3
A1
350
44
  3
A2
350
45
  3
A3
350
46
  3
A4
350
47
  3
A5
350
48
  3
A6
350
49
  3
A7
350
4A
  3
A8
350
4B
  3
A9
350
4C
  3
B0
350
4D
  3
B1
350
4E
  3
B2
350
4F
  3
B3
350
50
  3
B4
350
51
  3
B5
350
52
  3
B6
350
53
  0
DICTIONARY
  5
68
102
{ACAD_REACTORS
330
C
102
}
330
C
100
AcDbDictionary
281
     1
  3
Imperial24
350
69
  0
DICTIONARY
  5
64
102
{ACAD_REACTORS
330
C
102
}
330
C
100
AcDbDictionary
281
     1
  3
Standard
350
65
  0
DICTIONARY
  5
29
102
{ACAD_REACTORS
330
C
102
}
330
C
100
AcDbDictionary
281
     1
  3
2dWireframe
350
2F
  3
Basic
350
2E
  3
Brighten
350
35
  3
ColorChange
350
39
  3
Conceptual
350
32
  3
Dim
350
34
  3
EdgeColorOff
350
41
  3
Facepattern
350
38
  3
Flat
350
2A
  3
FlatWithEdges
350
2B
  3
Gouraud
350
2C
  3
GouraudWithEdges
350
2D
  3
Hidden
350
31
  3
JitterOff
350
3F
  3
Linepattern
350
37
  3
OverhangOff
350
40
  3
Realistic
350
33
  3
Shaded
350
3E
  3
Shaded with edges
350
3D
  3
Shades of Gray
350
3A
  3
Sketchy
350
3B
  3
Thicken
350
36
  3
Wireframe
350
30
  3
X-Ray
350
3C
  0
XRECORD
  5
98
102
{ACAD_REACTORS
330
C
102
}
330
C
100
AcDbXrecord
280
     1
 90
        1
330
65
  0
DICTIONARY
  5
90
102
{ACAD_REACTORS
330
C
102
}
330
C
100
AcDbDictionary
281
     1
  3
CANNOSCALE
350
95
  3
CMLEADERSTYLE
350
92
  3
CTABLESTYLE
350
91
  3
CVIEWDETAILSTYLE
350
93
  3
CVIEWSECTIONSTYLE
350
94
  0
ACDBDETAILVIEWSTYLE
  5
6B
102
{ACAD_REACTORS
330
6A
102
}
330
6A
100
AcDbModelDocViewStyle
 70
     0
  3
Imperial24
290
     1
300
Imperial24
 90
        0
100
AcDbDetailViewStyle
 70
     0
 71
     0
 90
        3
 71
     1
340
55
 62
   256
 40
0.24
340
0
 62
   256
 40
0.24
300

 40
0.36
280
     3
 71
     2
340
5D
 90
       25
 62
   256
 71
     3
340
55
 62
   256
 40
0.24
 90
        1
 40
0.75
 90
        1
300
%<\AcVar ViewType \f "%tc1">% %<\AcVar ViewDetailId>%\PSCALE %<\AcVar ViewScale \f "%sn">%
 71
     4
340
5D
 90
       25
 62
   256
340
5D
 90
       25
 62
   256
280
     0
  0
LAYOUT
  5
6F
102
{ACAD_REACTORS
330
62
102
}
330
62
100
AcDbPlotSettings
  1

  2

  4

  6

 40
0.0
 41
0.0
 42
0.0
 43
0.0
 44
0.0
 45
0.0
 46
0.0
 47
0.0
 48
0.0
 49
0.0
140
0.0
141
0.0
142
1.0
143
1.0
 70
   688
 72
     0
 73
     0
 74
     5
  7

 75
    16
147
1.0
 76
     0
 77
     2
 78
   300
148
0.0
149
0.0
100
AcDbLayout
  1
Layout1
 70
     1
 71
     1
 10
0.0
 20
0.0
 11
12.0
 21
9.0
 12
0.0
 22
0.0
 32
0.0
 14
0.0
 24
0.0
 34
0.0
 15
0.0
 25
0.0
 35
0.0
146
0.0
 13
0.0
 23
0.0
 33
0.0
 16
1.0
 26
0.0
 36
0.0
 17
0.0
 27
1.0
 37
0.0
 76
     0
330
6C
  0
LAYOUT
  5
77
102
{ACAD_REACTORS
330
62
102
}
330
62
100
AcDbPlotSettings
  1

  2

  4

  6

 40
0.0
 41
0.0
 42
0.0
 43
0.0
 44
0.0
 45
0.0
 46
0.0
 47
0.0
 48
0.0
 49
0.0
140
0.0
141
0.0
142
1.0
143
1.0
 70
   688
 72
     0
 73
     0
 74
     5
  7

 75
    16
147
1.0
 76
     0
 77
     2
 78
   300
148
0.0
149
0.0
100
AcDbLayout
  1
Layout2
 70
     1
 71
     2
 10
0.0
 20
0.0
 11
12.0
 21
9.0
 12
0.0
 22
0.0
 32
0.0
 14
0.0
 24
0.0
 34
0.0
 15
0.0
 25
0.0
 35
0.0
146
0.0
 13
0.0
 23
0.0
 33
0.0
 16
1.0
 26
0.0
 36
0.0
 17
0.0
 27
1.0
 37
0.0
 76
     0
330
74
  0
LAYOUT
  5
73
102
{ACAD_REACTORS
330
62
102
}
330
62
100
AcDbPlotSettings
  1

  2

  4

  6

 40
0.0
 41
0.0
 42
0.0
 43
0.0
 44
0.0
 45
0.0
 46
0.0
 47
0.0
 48
0.0
 49
0.0
140
0.0
141
0.0
142
1.0
143
1.0
 70
  1712
 72
     0
 73
     0
 74
     0
  7

 75
     0
147
1.0
 76
     0
 77
     2
 78
   300
148
0.0
149
0.0
100
AcDbLayout
  1
Model
 70
     1
 71
     0
 10
0.0
 20
0.0
 11
12.0
 21
9.0
 12
0.0
 22
0.0
 32
0.0
 14
0.0
 24
0.0
 34
0.0
 15
0.0
 25
0.0
 35
0.0
146
0.0
 13
0.0
 23
0.0
 33
0.0
 16
1.0
 26
0.0
 36
0.0
 17
0.0
 27
1.0
 37
0.0
 76
     0
330
70
  0
MATERIAL
  5
19
102
{ACAD_XDICTIONARY
360
1A
102
}
102
{ACAD_REACTORS
330
10
102
}
330
10
100
AcDbMaterial
  1
ByBlock
 72
     0
 43
0.0208333333333333
 43
0.0
 43
0.0
 43
0.0
 43
0.0
 43
0.0208333333333333
 43
0.0
 43
0.0
 43
0.0
 43
0.0
 43
1.0
 43
0.0
 43
0.0
 43
0.0
 43
0.0
 43
1.0
 77
     0
 47
0.0208333333333333
 47
0.0
 47
0.0
 47
0.0
 47
0.0
 47
0.0208333333333333
 47
0.0
 47
0.0
 47
0.0
 47
0.0
 47
1.0
 47
0.0
 47
0.0
 47
0.0
 47
0.0
 47
1.0
171
     0
 49
0.0208333333333333
 49
0.0
 49
0.0
 49
0.0
 49
0.0
 49
0.0208333333333333
 49
0.0
 49
0.0
 49
0.0
 49
0.0
 49
1.0
 49
0.0
 49
0.0
 49
0.0
 49
0.0
 49
1.0
175
     0
142
0.0208333333333333
142
0.0
142
0.0
142
0.0
142
0.0
142
0.0208333333333333
142
0.0
142
0.0
142
0.0
142
0.0
142
1.0
142
0.0
142
0.0
142
0.0
142
0.0
142
1.0
179
     0
144
0.0208333333333333
144
0.0
144
0.0
144
0.0
144
0.0
144
0.0208333333333333
144
0.0
144
0.0
144
0.0
144
0.0
144
1.0
144
0.0
144
0.0
144
0.0
144
0.0
144
1.0
147
0.0208333333333333
147
0.0
147
0.0
147
0.0
147
0.0
147
0.0208333333333333
147
0.0
147
0.0
147
0.0
147
0.0
147
1.0
147
0.0
147
0.0
147
0.0
147
0.0
147
1.0
  0
MATERIAL
  5
11
102
{ACAD_XDICTIONARY
360
12
102
}
102
{ACAD_REACTORS
330
10
102
}
330
10
100
AcDbMaterial
  1
ByLayer
 72
     0
 43
0.0208333333333333
 43
0.0
 43
0.0
 43
0.0
 43
0.0
 43
0.0208333333333333
 43
0.0
 43
0.0
 43
0.0
 43
0.0
 43
1.0
 43
0.0
 43
0.0
 43
0.0
 43
0.0
 43
1.0
 77
     0
 47
0.0208333333333333
 47
0.0
 47
0.0
 47
0.0
 47
0.0
 47
0.0208333333333333
 47
0.0
 47
0.0
 47
0.0
 47
0.0
 47
1.0
 47
0.0
 47
0.0
 47
0.0
 47
0.0
 47
1.0
171
     0
 49
0.0208333333333333
 49
0.0
 49
0.0
 49
0.0
 49
0.0
 49
0.0208333333333333
 49
0.0
 49
0.0
 49
0.0
 49
0.0
 49
1.0
 49
0.0
 49
0.0
 49
0.0
 49
0.0
 49
1.0
175
     0
142
0.0208333333333333
142
0.0
142
0.0
142
0.0
142
0.0
142
0.0208333333333333
142
0.0
142
0.0
142
0.0
142
0.0
142
1.0
142
0.0
142
0.0
142
0.0
142
0.0
142
1.0
179
     0
144
0.0208333333333333
144
0.0
144
0.0
144
0.0
144
0.0
144
0.0208333333333333
144
0.0
144
0.0
144
0.0
144
0.0
144
1.0
144
0.0
144
0.0
144
0.0
144
0.0
144
1.0
147
0.0208333333333333
147
0.0
147
0.0
147
0.0
147
0.0
147
0.0208333333333333
147
0.0
147
0.0
147
0.0
147
0.0
147
1.0
147
0.0
147
0.0
147
0.0
147
0.0
147
1.0
  0
MATERIAL
  5
21
102
{ACAD_XDICTIONARY
360
22
102
}
102
{ACAD_REACTORS
330
10
102
}
330
10
100
AcDbMaterial
  1
Global
 72
     0
 43
0.0208333333333333
 43
0.0
 43
0.0
 43
0.0
 43
0.0
 43
0.0208333333333333
 43
0.0
 43
0.0
 43
0.0
 43
0.0
 43
1.0
 43
0.0
 43
0.0
 43
0.0
 43
0.0
 43
1.0
 77
     0
 47
0.0208333333333333
 47
0.0
 47
0.0
 47
0.0
 47
0.0
 47
0.0208333333333333
 47
0.0
 47
0.0
 47
0.0
 47
0.0
 47
1.0
 47
0.0
 47
0.0
 47
0.0
 47
0.0
 47
1.0
171
     0
 49
0.0208333333333333
 49
0.0
 49
0.0
 49
0.0
 49
0.0
 49
0.0208333333333333
 49
0.0
 49
0.0
 49
0.0
 49
0.0
 49
1.0
 49
0.0
 49
0.0
 49
0.0
 49
0.0
 49
1.0
175
     0
142
0.0208333333333333
142
0.0
142
0.0
142
0.0
142
0.0
142
0.0208333333333333
142
0.0
142
0.0
142
0.0
142
0.0
142
1.0
142
0.0
142
0.0
142
0.0
142
0.0
142
1.0
179
     0
144
0.0208333333333333
144
0.0
144
0.0
144
0.0
144
0.0
144
0.0208333333333333
144
0.0
144
0.0
144
0.0
144
0.0
144
1.0
144
0.0
144
0.0
144
0.0
144
0.0
144
1.0
147
0.0208333333333333
147
0.0
147
0.0
147
0.0
147
0.0
147
0.0208333333333333
147
0.0
147
0.0
147
0.0
147
0.0
147
1.0
147
0.0
147
0.0
147
0.0
147
0.0
147
1.0
  0
MLEADERSTYLE
  5
67
102
{ACAD_REACTORS
330
66
102
}
330
66
100
AcDbMLeaderStyle
179
     2
170
     2
171
     1
172
     0
 90
        2
 40
0.0
 41
0.0
173
     1
 91
-1056964608
340
5B
 92
       -2
290
     1
 42
0.09
291
     1
 43
0.36
  3
Standard
 44
0.18
300

342
55
174
     1
178
     6
175
     1
176
     0
 93
-1056964608
 45
0.18
292
     0
297
     0
 46
0.18
 94
-1056964608
 47
1.0
 49
1.0
140
1.0
293
     1
141
0.0
294
     1
177
     0
142
1.0
295
     1
296
     0
143
0.125
271
     0
272
     9
273
     9
298
     1
  0
MLINESTYLE
  5
60
102
{ACAD_REACTORS
330
5F
102
}
330
5F
100
AcDbMlineStyle
  2
STANDARD
 70
     0
  3

 62
   256
 51
90.0
 52
90.0
 71
     2
 49
0.5
 62
   256
  6
BYLAYER
 49
-0.5
 62
   256
  6
BYLAYER
  0
ACDBPLACEHOLDER
  5
F
102
{ACAD_REACTORS
330
E
102
}
330
E
  0
SCALE
  5
43
102
{ACAD_REACTORS
330
42
102
}
330
42
100
AcDbScale
 70
     0
300
1:1
140
1.0
141
1.0
290
     1
  0
SCALE
  5
44
102
{ACAD_REACTORS
330
42
102
}
330
42
100
AcDbScale
 70
     0
300
1/128" = 1'-0"
140
0.0078125
141
12.0
290
     0
  0
SCALE
  5
45
102
{ACAD_REACTORS
330
42
102
}
330
42
100
AcDbScale
 70
     0
300
1/64" = 1'-0"
140
0.015625
141
12.0
290
     0
  0
SCALE
  5
46
102
{ACAD_REACTORS
330
42
102
}
330
42
100
AcDbScale
 70
     0
300
1/32" = 1'-0"
140
0.03125
141
12.0
290
     0
  0
SCALE
  5
47
102
{ACAD_REACTORS
330
42
102
}
330
42
100
AcDbScale
 70
     0
300
1/16" = 1'-0"
140
0.0625
141
12.0
290
     0
  0
SCALE
  5
48
102
{ACAD_REACTORS
330
42
102
}
330
42
100
AcDbScale
 70
     0
300
3/32" = 1'-0"
140
0.09375
141
12.0
290
     0
  0
SCALE
  5
49
102
{ACAD_REACTORS
330
42
102
}
330
42
100
AcDbScale
 70
     0
300
1/8" = 1'-0"
140
0.125
141
12.0
290
     0
  0
SCALE
  5
4A
102
{ACAD_REACTORS
330
42
102
}
330
42
100
AcDbScale
 70
     0
300
3/16" = 1'-0"
140
0.1875
141
12.0
290
     0
  0
SCALE
  5
4B
102
{ACAD_REACTORS
330
42
102
}
330
42
100
AcDbScale
 70
     0
300
1/4" = 1'-0"
140
0.25
141
12.0
290
     0
  0
SCALE
  5
4C
102
{ACAD_REACTORS
330
42
102
}
330
42
100
AcDbScale
 70
     0
300
3/8" = 1'-0"
140
0.375
141
12.0
290
     0
  0
SCALE
  5
4D
102
{ACAD_REACTORS
330
42
102
}
330
42
100
AcDbScale
 70
     0
300
1/2" = 1'-0"
140
0.5
141
12.0
290
     0
  0
SCALE
  5
4E
102
{ACAD_REACTORS
330
42
102
}
330
42
100
AcDbScale
 70
     0
300
3/4" = 1'-0"
140
0.75
141
12.0
290
     0
  0
SCALE
  5
4F
102
{ACAD_REACTORS
330
42
102
}
330
42
100
AcDbScale
 70
     0
300
1" = 1'-0"
140
1.0
141
12.0
290
     0
  0
SCALE
  5
50
102
{ACAD_REACTORS
330
42
102
}
330
42
100
AcDbScale
 70
     0
300
1-1/2" = 1'-0"
140
1.5
141
12.0
290
     0
  0
SCALE
  5
51
102
{ACAD_REACTORS
330
42
102
}
330
42
100
AcDbScale
 70
     0
300
3" = 1'-0"
140
3.0
141
12.0
290
     0
  0
SCALE
  5
52
102
{ACAD_REACTORS
330
42
102
}
330
42
100
AcDbScale
 70
     0
300
6" = 1'-0"
140
6.0
141
12.0
290
     0
  0
SCALE
  5
53
102
{ACAD_REACTORS
330
42
102
}
330
42
100
AcDbScale
 70
     0
300
1'-0" = 1'-0"
140
12.0
141
12.0
290
     0
  0
ACDBSECTIONVIEWSTYLE
  5
69
102
{ACAD_REACTORS
330
68
102
}
330
68
100
AcDbModelDocViewStyle
 70
     0
  3
Imperial24
290
     1
300
Imperial24
 90
        0
100
AcDbSectionViewStyle
 70
     0
 71
     0
 90
       78
 71
     1
340
55
 62
   256
 40
0.24
340
0
340
0
 62
   256
 40
0.24
300
I, O, Q, S, X, Z
 40
0.48
 90
        3
 40
0.18
 90
        1
 71
     2
340
5D
 90
       25
 62
   256
340
5D
 90
       50
 62
   256
 40
0.24
 40
0.0
 40
0.24
 71
     3
340
55
 62
   256
 40
0.24
 90
        1
 40
0.75
 90
        1
300
%<\AcVar ViewType \f "%tc1">% %<\AcVar ViewSectionStartId>%-%<\AcVar ViewSectionEndId>%\PSCALE %<\AcVar ViewScale \f "%sn">%
 71
     4
 62
   256
 62
   257
300
ANSI31
 40
1.0
 90
        0
290
     0
290
     0
 90
        6
 40
0.0
 40
1.570796326794896
 40
0.2617993877991494
 40
1.308996938995747
 40
-0.2617993877991494
 40
1.832595714594046
  0
TABLESTYLE
  5
65
102
{ACAD_XDICTIONARY
360
96
102
}
102
{ACAD_REACTORS
330
64
102
}
330
64
100
AcDbTableStyle
280
     0
  3
Standard
 70
     0
 71
     0
 40
0.06
 41
0.06
280
     0
281
     0
  7
Standard
140
0.18
170
     2
 62
     0
 63
     7
283
     0
 90
      512
 91
        0
  1

274
    -2
284
     1
 64
     0
275
    -2
285
     1
 65
     0
276
    -2
286
     1
 66
     0
277
    -2
287
     1
 67
     0
278
    -2
288
     1
 68
     0
279
    -2
289
     1
 69
     0
  7
Standard
140
0.25
170
     5
 62
     0
 63
     7
283
     0
 90
      512
 91
        0
  1

274
    -2
284
     1
 64
     0
275
    -2
285
     1
 65
     0
276
    -2
286
     1
 66
     0
277
    -2
287
     1
 67
     0
278
    -2
288
     1
 68
     0
279
    -2
289
     1
 69
     0
  7
Standard
140
0.18
170
     5
 62
     0
 63
     7
283
     0
 90
      512
 91
        0
  1

274
    -2
284
     1
 64
     0
275
    -2
285
     1
 65
     0
276
    -2
286
     1
 66
     0
277
    -2
287
     1
 67
     0
278
    -2
288
     1
 68
     0
279
    -2
289
     1
 69
     0
  0
VISUALSTYLE
  5
2F
102
{ACAD_REACTORS
330
29
102
}
330
29
100
AcDbVisualStyle
  2
2dWireframe
 70
     4
177
     3
291
     0
 70
    58
 90
        0
176
     1
 90
        2
176
     1
 90
        0
176
     1
 90
        0
176
     1
 40
0.6
176
     1
 40
30.0
176
     1
 62
     7
420
 16777215
176
     1
 90
        1
176
     1
 90
        4
176
     1
 62
     7
176
     1
 62
   257
176
     1
 90
        1
176
     1
 90
        1
176
     1
 40
1.0
176
     1
 90
        0
176
     1
 62
   257
176
     1
 40
1.0
176
     1
 90
        1
176
     1
 90
        6
176
     1
 90
        2
176
     1
 62
     7
176
     1
 90
        5
176
     1
 90
        0
176
     1
 90
        0
176
     1
290
     0
176
     1
 90
        1
176
     1
 40
0.0
176
     1
 90
        0
176
     1
290
     1
176
     1
290
     1
176
     1
290
     0
176
     1
290
     0
176
     1
290
     0
176
     1
290
     0
176
     1
290
     0
176
     1
290
     0
176
     1
290
     0
176
     1
 90
       50
176
     1
 40
0.0
176
     1
 40
1.0
176
     1
 90
        0
176
     1
 62
    18
420
        0
176
     1
 90
       50
176
     1
 90
        3
176
     1
 62
     5
420
      255
176
     1
290
     0
176
     1
 90
       50
176
     1
 90
       50
176
     1
 90
       50
176
     1
290
     0
176
     1
 90
       50
176
     1
 62
   256
176
     0
 40
1.0
176
     0
 90
        2
176
     1
  1
strokes_ogs.tif
176
     1
290
     0
176
     1
 40
1.0
176
     1
 40
1.0
176
     1
  0
VISUALSTYLE
  5
2E
102
{ACAD_REACTORS
330
29
102
}
330
29
100
AcDbVisualStyle
  2
Basic
 70
     7
177
     3
291
     1
 70
    58
 90
        1
176
     1
 90
        0
176
     1
 90
        1
176
     1
 90
        0
176
     1
 40
0.6
176
     1
 40
30.0
176
     1
 62
     7
420
 16777215
176
     1
 90
        0
176
     1
 90
        4
176
     1
 62
     7
176
     1
 62
   257
176
     1
 90
        1
176
     1
 90
        1
176
     1
 40
1.0
176
     1
 90
        8
176
     1
 62
     7
176
     1
 40
1.0
176
     1
 90
        1
176
     1
 90
        6
176
     1
 90
        2
176
     1
 62
     7
176
     1
 90
        5
176
     1
 90
        0
176
     1
 90
        0
176
     1
290
     0
176
     1
 90
        1
176
     1
 40
0.0
176
     1
 90
        0
176
     1
290
     0
176
     1
290
     1
176
     1
290
     1
176
     1
290
     0
176
     1
290
     0
176
     1
290
     0
176
     1
290
     0
176
     1
290
     0
176
     1
290
     0
176
     1
 90
       50
176
     1
 40
0.0
176
     1
 40
1.0
176
     1
 90
        0
176
     1
 62
    18
420
        0
176
     1
 90
       50
176
     1
 90
        3
176
     1
 62
     5
420
      255
176
     1
290
     0
176
     1
 90
       50
176
     1
 90
       50
176
     1
 90
       50
176
     1
290
     0
176
     1
 90
       50
176
     1
 62
   256
176
     0
 40
1.0
176
     0
 90
        2
176
     1
  1
strokes_ogs.tif
176
     1
290
     0
176
     1
 40
1.0
176
     1
 40
1.0
176
     1
  0
VISUALSTYLE
  5
35
102
{ACAD_REACTORS
330
29
102
}
330
29
100
AcDbVisualStyle
  2
Brighten
 70
    12
177
     3
291
     1
 70
    58
 90
        2
176
     1
 90
        2
176
     1
 90
        0
176
     1
 90
        0
176
     1
 40
0.6
176
     1
 40
30.0
176
     1
 62
     7
420
 16777215
176
     1
 90
        1
176
     1
 90
        4
176
     1
 62
     7
176
     1
 62
   257
176
     1
 90
        1
176
     1
 90
        1
176
     1
 40
1.0
176
     1
 90
        8
176
     1
 62
     7
176
     1
 40
1.0
176
     1
 90
        1
176
     1
 90
        6
176
     1
 90
        2
176
     1
 62
     7
176
     1
 90
        5
176
     1
 90
        0
176
     1
 90
        0
176
     1
290
     0
176
     1
 90
        1
176
     1
 40
50.0
176
     1
 90
        0
176
     1
290
     0
176
     1
290
     1
176
     1
290
     1
176
     1
290
     0
176
     1
290
     0
176
     1
290
     0
176
     1
290
     0
176
     1
290
     0
176
     1
290
     0
176
     1
 90
       50
176
     1
 40
0.0
176
     1
 40
1.0
176
     1
 90
        0
176
     1
 62
    18
420
        0
176
     1
 90
       50
176
     1
 90
        3
176
     1
 62
     5
420
      255
176
     1
290
     0
176
     1
 90
       50
176
     1
 90
       50
176
     1
 90
       50
176
     1
290
     0
176
     1
 90
       50
176
     1
 62
   256
176
     0
 40
1.0
176
     0
 90
        2
176
     1
  1
strokes_ogs.tif
176
     1
290
     0
176
     1
 40
1.0
176
     1
 40
1.0
176
     1
  0
VISUALSTYLE
  5
39
102
{ACAD_REACTORS
330
29
102
}
330
29
100
AcDbVisualStyle
  2
ColorChange
 70
    16
177
     3
291
     1
 70
    58
 90
        2
176
     1
 90
        2
176
     1
 90
        3
176
     1
 90
        0
176
     1
 40
0.6
176
     1
 40
30.0
176
     1
 62
     8
420
  8421504
176
     1
 90
        1
176
     1
 90
        4
176
     1
 62
     7
176
     1
 62
   257
176
     1
 90
        1
176
     1
 90
        1
176
     1
 40
1.0
176
     1
 90
        8
176
     1
 62
     8
420
  8421504
176
     1
 40
1.0
176
     1
 90
        1
176
     1
 90
        6
176
     1
 90
        2
176
     1
 62
     7
176
     1
 90
        5
176
     1
 90
        0
176
     1
 90
        0
176
     1
290
     0
176
     1
 90
        1
176
     1
 40
0.0
176
     1
 90
        0
176
     1
290
     0
176
     1
290
     1
176
     1
290
     1
176
     1
290
     0
176
     1
290
     0
176
     1
290
     0
176
     1
290
     0
176
     1
290
     0
176
     1
290
     0
176
     1
 90
       50
176
     1
 40
0.0
176
     1
 40
1.0
176
     1
 90
        0
176
     1
 62
    18
420
        0
176
     1
 90
       50
176
     1
 90
        3
176
     1
 62
     5
420
      255
176
     1
290
     0
176
     1
 90
       50
176
     1
 90
       50
176
     1
 90
       50
176
     1
290
     0
176
     1
 90
       50
176
     1
 62
   256
176
     0
 40
1.0
176
     0
 90
        2
176
     1
  1
strokes_ogs.tif
176
     1
290
     0
176
     1
 40
1.0
176
     1
 40
1.0
176
     1
  0
VISUALSTYLE
  5
32
102
{ACAD_REACTORS
330
29
102
}
330
29
100
AcDbVisualStyle
  2
Conceptual
 70
     9
177
     3
291
     0
 70
    58
 90
        3
176
     1
 90
        2
176
     1
 90
        0
176
     1
 90
        0
176
     1
 40
0.6
176
     1
 40
30.0
176
     1
 62
     7
420
 16777215
176
     1
 90
        2
176
     1
 90
        2
176
     1
 62
     7
176
     1
 62
   257
176
     1
 90
        1
176
     1
 90
        1
176
     1
 40
179.0
176
     1
 90
        8
176
     1
 62
     7
176
     1
 40
1.0
176
     1
 90
        1
176
     1
 90
        6
176
     1
 90
        2
176
     1
 62
     7
176
     1
 90
        3
176
     1
 90
        0
176
     1
 90
        0
176
     1
290
     0
176
     1
 90
        1
176
     1
 40
0.0
176
     1
 90
        0
176
     1
290
     0
176
     1
290
     1
176
     1
290
     1
176
     1
290
     0
176
     1
290
     0
176
     1
290
     0
176
     1
290
     0
176
     1
290
     0
176
     1
290
     0
176
     1
 90
       50
176
     1
 40
0.0
176
     1
 40
1.0
176
     1
 90
        0
176
     1
 62
    18
420
        0
176
     1
 90
       50
176
     1
 90
        3
176
     1
 62
     5
420
      255
176
     1
290
     0
176
     1
 90
       50
176
     1
 90
       50
176
     1
 90
       50
176
     1
290
     0
176
     1
 90
       50
176
     1
 62
   256
176
     0
 40
1.0
176
     0
 90
        2
176
     1
  1
strokes_ogs.tif
176
     1
290
     0
176
     1
 40
1.0
176
     1
 40
1.0
176
     1
  0
VISUALSTYLE
  5
34
102
{ACAD_REACTORS
330
29
102
}
330
29
100
AcDbVisualStyle
  2
Dim
 70
    11
177
     3
291
     1
 70
    58
 90
        2
176
     1
 90
        2
176
     1
 90
        0
176
     1
 90
        0
176
     1
 40
0.6
176
     1
 40
30.0
176
     1
 62
     7
420
 16777215
176
     1
 90
        1
176
     1
 90
        4
176
     1
 62
     7
176
     1
 62
   257
176
     1
 90
        1
176
     1
 90
        1
176
     1
 40
1.0
176
     1
 90
        8
176
     1
 62
     7
176
     1
 40
1.0
176
     1
 90
        1
176
     1
 90
        6
176
     1
 90
        2
176
     1
 62
     7
176
     1
 90
        5
176
     1
 90
        0
176
     1
 90
        0
176
     1
290
     0
176
     1
 90
        1
176
     1
 40
-50.0
176
     1
 90
        0
176
     1
290
     0
176
     1
290
     1
176
     1
290
     1
176
     1
290
     0
176
     1
290
     0
176
     1
290
     0
176
     1
290
     0
176
     1
290
     0
176
     1
290
     0
176
     1
 90
       50
176
     1
 40
0.0
176
     1
 40
1.0
176
     1
 90
        0
176
     1
 62
    18
420
        0
176
     1
 90
       50
176
     1
 90
        3
176
     1
 62
     5
420
      255
176
     1
290
     0
176
     1
 90
       50
176
     1
 90
       50
176
     1
 90
       50
176
     1
290
     0
176
     1
 90
       50
176
     1
 62
   256
176
     0
 40
1.0
176
     0
 90
        2
176
     1
  1
strokes_ogs.tif
176
     1
290
     0
176
     1
 40
1.0
176
     1
 40
1.0
176
     1
  0
VISUALSTYLE
  5
41
102
{ACAD_REACTORS
330
29
102
}
330
29
100
AcDbVisualStyle
  2
EdgeColorOff
 70
    22
177
     3
291
     1
 70
    58
 90
        2
176
     0
 90
        2
176
     0
 90
        0
176
     0
 90
        0
176
     0
 40
0.6
176
     0
 40
30.0
176
     0
 62
     7
420
 16777215
176
     0
 90
        1
176
     0
 90
        4
176
     0
 62
     7
176
     0
 62
   257
176
     0
 90
        1
176
     0
 90
        1
176
     0
 40
1.0
176
     0
 90
        8
176
     2
 62
     7
176
     0
 40
1.0
176
     0
 90
        1
176
     0
 90
        6
176
     0
 90
        2
176
     0
 62
     7
176
     0
 90
        5
176
     0
 90
        0
176
     0
 90
        0
176
     0
290
     0
176
     0
 90
        1
176
     0
 40
0.0
176
     0
 90
        0
176
     0
290
     0
176
     0
290
     1
176
     0
290
     1
176
     0
290
     0
176
     0
290
     0
176
     0
290
     0
176
     0
290
     0
176
     0
290
     0
176
     0
290
     0
176
     0
 90
       50
176
     0
 40
0.0
176
     0
 40
1.0
176
     0
 90
        0
176
     0
 62
    18
420
        0
176
     0
 90
       50
176
     0
 90
        3
176
     0
 62
     5
420
      255
176
     0
290
     0
176
     0
 90
       50
176
     0
 90
       50
176
     0
 90
       50
176
     0
290
     0
176
     0
 90
       50
176
     0
 62
   256
176
     0
 40
1.0
176
     0
 90
        2
176
     0
  1
strokes_ogs.tif
176
     0
290
     0
176
     0
 40
1.0
176
     0
 40
1.0
176
     0
  0
VISUALSTYLE
  5
38
102
{ACAD_REACTORS
330
29
102
}
330
29
100
AcDbVisualStyle
  2
Facepattern
 70
    15
177
     3
291
     1
 70
    58
 90
        2
176
     1
 90
        2
176
     1
 90
        0
176
     1
 90
        0
176
     1
 40
0.6
176
     1
 40
30.0
176
     1
 62
     7
420
 16777215
176
     1
 90
        1
176
     1
 90
        4
176
     1
 62
     7
176
     1
 62
   257
176
     1
 90
        1
176
     1
 90
        1
176
     1
 40
1.0
176
     1
 90
        8
176
     1
 62
     7
176
     1
 40
1.0
176
     1
 90
        1
176
     1
 90
        6
176
     1
 90
        2
176
     1
 62
     7
176
     1
 90
        5
176
     1
 90
        0
176
     1
 90
        0
176
     1
290
     0
176
     1
 90
        1
176
     1
 40
0.0
176
     1
 90
        0
176
     1
290
     0
176
     1
290
     1
176
     1
290
     1
176
     1
290
     0
176
     1
290
     0
176
     1
290
     0
176
     1
290
     0
176
     1
290
     0
176
     1
290
     0
176
     1
 90
       50
176
     1
 40
0.0
176
     1
 40
1.0
176
     1
 90
        0
176
     1
 62
    18
420
        0
176
     1
 90
       50
176
     1
 90
        3
176
     1
 62
     5
420
      255
176
     1
290
     0
176
     1
 90
       50
176
     1
 90
       50
176
     1
 90
       50
176
     1
290
     0
176
     1
 90
       50
176
     1
 62
   256
176
     0
 40
1.0
176
     0
 90
        2
176
     1
  1
strokes_ogs.tif
176
     1
290
     0
176
     1
 40
1.0
176
     1
 40
1.0
176
     1
  0
VISUALSTYLE
  5
2A
102
{ACAD_REACTORS
330
29
102
}
330
29
100
AcDbVisualStyle
  2
Flat
 70
     0
177
     3
291
     1
 70
    58
 90
        2
176
     1
 90
        1
176
     1
 90
        1
176
     1
 90
        2
176
     1
 40
0.6
176
     1
 40
30.0
176
     1
 62
     7
420
 16777215
176
     1
 90
        0
176
     1
 90
        0
176
     1
 62
     7
176
     1
 62
   257
176
     1
 90
        1
176
     1
 90
        1
176
     1
 40
1.0
176
     1
 90
        8
176
     1
 62
     7
176
     1
 40
1.0
176
     1
 90
        1
176
     1
 90
        6
176
     1
 90
        2
176
     1
 62
     7
176
     1
 90
        5
176
     1
 90
        0
176
     1
 90
        0
176
     1
290
     0
176
     1
 90
       13
176
     1
 40
0.0
176
     1
 90
        0
176
     1
290
     0
176
     1
290
     1
176
     1
290
     1
176
     1
290
     0
176
     1
290
     0
176
     1
290
     0
176
     1
290
     0
176
     1
290
     0
176
     1
290
     0
176
     1
 90
       50
176
     1
 40
0.0
176
     1
 40
1.0
176
     1
 90
        0
176
     1
 62
    18
420
        0
176
     1
 90
       50
176
     1
 90
        3
176
     1
 62
     5
420
      255
176
     1
290
     0
176
     1
 90
       50
176
     1
 90
       50
176
     1
 90
       50
176
     1
290
     0
176
     1
 90
       50
176
     1
 62
   256
176
     0
 40
1.0
176
     0
 90
        2
176
     1
  1
strokes_ogs.tif
176
     1
290
     0
176
     1
 40
1.0
176
     1
 40
1.0
176
     1
  0
VISUALSTYLE
  5
2B
102
{ACAD_REACTORS
330
29
102
}
330
29
100
AcDbVisualStyle
  2
FlatWithEdges
 70
     1
177
     3
291
     1
 70
    58
 90
        2
176
     1
 90
        1
176
     1
 90
        1
176
     1
 90
        2
176
     1
 40
0.6
176
     1
 40
30.0
176
     1
 62
     7
420
 16777215
176
     1
 90
        1
176
     1
 90
        0
176
     1
 62
     7
176
     1
 62
   257
176
     1
 90
        1
176
     1
 90
        1
176
     1
 40
1.0
176
     1
 90
        0
176
     1
 62
   257
176
     1
 40
1.0
176
     1
 90
        1
176
     1
 90
        6
176
     1
 90
        2
176
     1
 62
     7
176
     1
 90
        5
176
     1
 90
        0
176
     1
 90
        0
176
     1
290
     0
176
     1
 90
       13
176
     1
 40
0.0
176
     1
 90
        0
176
     1
290
     0
176
     1
290
     1
176
     1
290
     1
176
     1
290
     0
176
     1
290
     0
176
     1
290
     0
176
     1
290
     0
176
     1
290
     0
176
     1
290
     0
176
     1
 90
       50
176
     1
 40
0.0
176
     1
 40
1.0
176
     1
 90
        0
176
     1
 62
    18
420
        0
176
     1
 90
       50
176
     1
 90
        3
176
     1
 62
     5
420
      255
176
     1
290
     0
176
     1
 90
       50
176
     1
 90
       50
176
     1
 90
       50
176
     1
290
     0
176
     1
 90
       50
176
     1
 62
   256
176
     0
 40
1.0
176
     0
 90
        2
176
     1
  1
strokes_ogs.tif
176
     1
290
     0
176
     1
 40
1.0
176
     1
 40
1.0
176
     1
  0
VISUALSTYLE
  5
2C
102
{ACAD_REACTORS
330
29
102
}
330
29
100
AcDbVisualStyle
  2
Gouraud
 70
     2
177
     3
291
     1
 70
    58
 90
        2
176
     1
 90
        2
176
     1
 90
        1
176
     1
 90
        2
176
     1
 40
0.6
176
     1
 40
30.0
176
     1
 62
     7
420
 16777215
176
     1
 90
        0
176
     1
 90
        0
176
     1
 62
     7
176
     1
 62
   257
176
     1
 90
        1
176
     1
 90
        1
176
     1
 40
1.0
176
     1
 90
        0
176
     1
 62
     7
176
     1
 40
1.0
176
     1
 90
        1
176
     1
 90
        6
176
     1
 90
        2
176
     1
 62
     7
176
     1
 90
        5
176
     1
 90
        0
176
     1
 90
        0
176
     1
290
     0
176
     1
 90
       13
176
     1
 40
0.0
176
     1
 90
        0
176
     1
290
     0
176
     1
290
     1
176
     1
290
     1
176
     1
290
     0
176
     1
290
     0
176
     1
290
     0
176
     1
290
     0
176
     1
290
     0
176
     1
290
     0
176
     1
 90
       50
176
     1
 40
0.0
176
     1
 40
1.0
176
     1
 90
        0
176
     1
 62
    18
420
        0
176
     1
 90
       50
176
     1
 90
        3
176
     1
 62
     5
420
      255
176
     1
290
     0
176
     1
 90
       50
176
     1
 90
       50
176
     1
 90
       50
176
     1
290
     0
176
     1
 90
       50
176
     1
 62
   256
176
     0
 40
1.0
176
     0
 90
        2
176
     1
  1
strokes_ogs.tif
176
     1
290
     0
176
     1
 40
1.0
176
     1
 40
1.0
176
     1
  0
VISUALSTYLE
  5
2D
102
{ACAD_REACTORS
330
29
102
}
330
29
100
AcDbVisualStyle
  2
GouraudWithEdges
 70
     3
177
     3
291
     1
 70
    58
 90
        2
176
     1
 90
        2
176
     1
 90
        1
176
     1
 90
        2
176
     1
 40
0.6
176
     1
 40
30.0
176
     1
 62
     7
420
 16777215
176
     1
 90
        1
176
     1
 90
        0
176
     1
 62
     7
176
     1
 62
   257
176
     1
 90
        1
176
     1
 90
        1
176
     1
 40
1.0
176
     1
 90
        0
176
     1
 62
   257
176
     1
 40
1.0
176
     1
 90
        1
176
     1
 90
        6
176
     1
 90
        2
176
     1
 62
     7
176
     1
 90
        5
176
     1
 90
        0
176
     1
 90
        0
176
     1
290
     0
176
     1
 90
       13
176
     1
 40
0.0
176
     1
 90
        0
176
     1
290
     0
176
     1
290
     1
176
     1
290
     1
176
     1
290
     0
176
     1
290
     0
176
     1
290
     0
176
     1
290
     0
176
     1
290
     0
176
     1
290
     0
176
     1
 90
       50
176
     1
 40
0.0
176
     1
 40
1.0
176
     1
 90
        0
176
     1
 62
    18
420
        0
176
     1
 90
       50
176
     1
 90
        3
176
     1
 62
     5
420
      255
176
     1
290
     0
176
     1
 90
       50
176
     1
 90
       50
176
     1
 90
       50
176
     1
290
     0
176
     1
 90
       50
176
     1
 62
   256
176
     0
 40
1.0
176
     0
 90
        2
176
     1
  1
strokes_ogs.tif
176
     1
290
     0
176
     1
 40
1.0
176
     1
 40
1.0
176
     1
  0
VISUALSTYLE
  5
31
102
{ACAD_REACTORS
330
29
102
}
330
29
100
AcDbVisualStyle
  2
Hidden
 70
     6
177
     3
291
     0
 70
    58
 90
        1
176
     1
 90
        2
176
     1
 90
        2
176
     1
 90
        0
176
     1
 40
0.6
176
     1
 40
30.0
176
     1
 62
     7
420
 16777215
176
     1
 90
        2
176
     1
 90
        2
176
     1
 62
     7
176
     1
 62
   257
176
     1
 90
        2
176
     1
 90
        1
176
     1
 40
40.0
176
     1
 90
        0
176
     1
 62
   257
176
     1
 40
1.0
176
     1
 90
        1
176
     1
 90
        6
176
     1
 90
        2
176
     1
 62
     7
176
     1
 90
        3
176
     1
 90
        0
176
     1
 90
        0
176
     1
290
     0
176
     1
 90
        1
176
     1
 40
0.0
176
     1
 90
        0
176
     1
290
     0
176
     1
290
     1
176
     1
290
     1
176
     1
290
     0
176
     1
290
     0
176
     1
290
     0
176
     1
290
     0
176
     1
290
     0
176
     1
290
     0
176
     1
 90
       50
176
     1
 40
0.0
176
     1
 40
1.0
176
     1
 90
        0
176
     1
 62
    18
420
        0
176
     1
 90
       50
176
     1
 90
        3
176
     1
 62
     5
420
      255
176
     1
290
     0
176
     1
 90
       50
176
     1
 90
       50
176
     1
 90
       50
176
     1
290
     0
176
     1
 90
       50
176
     1
 62
   256
176
     0
 40
1.0
176
     0
 90
        2
176
     1
  1
strokes_ogs.tif
176
     1
290
     0
176
     1
 40
1.0
176
     1
 40
1.0
176
     1
  0
VISUALSTYLE
  5
3F
102
{ACAD_REACTORS
330
29
102
}
330
29
100
AcDbVisualStyle
  2
JitterOff
 70
    20
177
     3
291
     1
 70
    58
 90
        2
176
     0
 90
        2
176
     0
 90
        0
176
     0
 90
        0
176
     0
 40
0.6
176
     0
 40
30.0
176
     0
 62
     7
420
 16777215
176
     0
 90
        1
176
     0
 90
        4
176
     0
 62
     7
176
     0
 62
   257
176
     0
 90
        1
176
     0
 90
        1
176
     0
 40
1.0
176
     0
 90
       10
176
     2
 62
     7
176
     0
 40
1.0
176
     0
 90
        1
176
     0
 90
        6
176
     0
 90
        2
176
     0
 62
     7
176
     0
 90
        5
176
     0
 90
        0
176
     0
 90
        0
176
     0
290
     0
176
     0
 90
        1
176
     0
 40
0.0
176
     0
 90
        0
176
     0
290
     0
176
     0
290
     1
176
     0
290
     1
176
     0
290
     0
176
     0
290
     0
176
     0
290
     0
176
     0
290
     0
176
     0
290
     0
176
     0
290
     0
176
     0
 90
       50
176
     0
 40
0.0
176
     0
 40
1.0
176
     0
 90
        0
176
     0
 62
    18
420
        0
176
     0
 90
       50
176
     0
 90
        3
176
     0
 62
     5
420
      255
176
     0
290
     0
176
     0
 90
       50
176
     0
 90
       50
176
     0
 90
       50
176
     0
290
     0
176
     0
 90
       50
176
     0
 62
   256
176
     0
 40
1.0
176
     0
 90
        2
176
     0
  1
strokes_ogs.tif
176
     0
290
     0
176
     0
 40
1.0
176
     0
 40
1.0
176
     0
  0
VISUALSTYLE
  5
37
102
{ACAD_REACTORS
330
29
102
}
330
29
100
AcDbVisualStyle
  2
Linepattern
 70
    14
177
     3
291
     1
 70
    58
 90
        2
176
     1
 90
        2
176
     1
 90
        0
176
     1
 90
        0
176
     1
 40
0.6
176
     1
 40
30.0
176
     1
 62
     7
420
 16777215
176
     1
 90
        1
176
     1
 90
        4
176
     1
 62
     7
176
     1
 62
   257
176
     1
 90
        7
176
     1
 90
        7
176
     1
 40
1.0
176
     1
 90
        8
176
     1
 62
     7
176
     1
 40
1.0
176
     1
 90
        1
176
     1
 90
        6
176
     1
 90
        2
176
     1
 62
     7
176
     1
 90
        5
176
     1
 90
        0
176
     1
 90
        0
176
     1
290
     0
176
     1
 90
        1
176
     1
 40
0.0
176
     1
 90
        0
176
     1
290
     0
176
     1
290
     1
176
     1
290
     1
176
     1
290
     0
176
     1
290
     0
176
     1
290
     0
176
     1
290
     0
176
     1
290
     0
176
     1
290
     0
176
     1
 90
       50
176
     1
 40
0.0
176
     1
 40
1.0
176
     1
 90
        0
176
     1
 62
    18
420
        0
176
     1
 90
       50
176
     1
 90
        3
176
     1
 62
     5
420
      255
176
     1
290
     0
176
     1
 90
       50
176
     1
 90
       50
176
     1
 90
       50
176
     1
290
     0
176
     1
 90
       50
176
     1
 62
   256
176
     0
 40
1.0
176
     0
 90
        2
176
     1
  1
strokes_ogs.tif
176
     1
290
     0
176
     1
 40
1.0
176
     1
 40
1.0
176
     1
  0
VISUALSTYLE
  5
40
102
{ACAD_REACTORS
330
29
102
}
330
29
100
AcDbVisualStyle
  2
OverhangOff
 70
    21
177
     3
291
     1
 70
    58
 90
        2
176
     0
 90
        2
176
     0
 90
        0
176
     0
 90
        0
176
     0
 40
0.6
176
     0
 40
30.0
176
     0
 62
     7
420
 16777215
176
     0
 90
        1
176
     0
 90
        4
176
     0
 62
     7
176
     0
 62
   257
176
     0
 90
        1
176
     0
 90
        1
176
     0
 40
1.0
176
     0
 90
        9
176
     2
 62
     7
176
     0
 40
1.0
176
     0
 90
        1
176
     0
 90
        6
176
     0
 90
        2
176
     0
 62
     7
176
     0
 90
        5
176
     0
 90
        0
176
     0
 90
        0
176
     0
290
     0
176
     0
 90
        1
176
     0
 40
0.0
176
     0
 90
        0
176
     0
290
     0
176
     0
290
     1
176
     0
290
     1
176
     0
290
     0
176
     0
290
     0
176
     0
290
     0
176
     0
290
     0
176
     0
290
     0
176
     0
290
     0
176
     0
 90
       50
176
     0
 40
0.0
176
     0
 40
1.0
176
     0
 90
        0
176
     0
 62
    18
420
        0
176
     0
 90
       50
176
     0
 90
        3
176
     0
 62
     5
420
      255
176
     0
290
     0
176
     0
 90
       50
176
     0
 90
       50
176
     0
 90
       50
176
     0
290
     0
176
     0
 90
       50
176
     0
 62
   256
176
     0
 40
1.0
176
     0
 90
        2
176
     0
  1
strokes_ogs.tif
176
     0
290
     0
176
     0
 40
1.0
176
     0
 40
1.0
176
     0
  0
VISUALSTYLE
  5
33
102
{ACAD_REACTORS
330
29
102
}
330
29
100
AcDbVisualStyle
  2
Realistic
 70
     8
177
     3
291
     0
 70
    58
 90
        2
176
     1
 90
        3
176
     1
 90
        0
176
     1
 90
        2
176
     1
 40
0.6
176
     1
 40
30.0
176
     1
 62
     7
420
 16777215
176
     1
 90
        0
176
     1
 90
        0
176
     1
 62
     7
176
     1
 62
   257
176
     1
 90
        1
176
     1
 90
        1
176
     1
 40
1.0
176
     1
 90
        8
176
     1
 62
   257
176
     1
 40
1.0
176
     1
 90
        1
176
     1
 90
        6
176
     1
 90
        2
176
     1
 62
     7
176
     1
 90
        3
176
     1
 90
        0
176
     1
 90
        0
176
     1
290
     0
176
     1
 90
       13
176
     1
 40
0.0
176
     1
 90
        0
176
     1
290
     0
176
     1
290
     1
176
     1
290
     1
176
     1
290
     0
176
     1
290
     0
176
     1
290
     0
176
     1
290
     0
176
     1
290
     0
176
     1
290
     0
176
     1
 90
       50
176
     1
 40
0.0
176
     1
 40
1.0
176
     1
 90
        0
176
     1
 62
    18
420
        0
176
     1
 90
       50
176
     1
 90
        3
176
     1
 62
     5
420
      255
176
     1
290
     0
176
     1
 90
       50
176
     1
 90
       50
176
     1
 90
       50
176
     1
290
     0
176
     1
 90
       50
176
     1
 62
   256
176
     0
 40
1.0
176
     0
 90
        2
176
     1
  1
strokes_ogs.tif
176
     1
290
     0
176
     1
 40
1.0
176
     1
 40
1.0
176
     1
  0
VISUALSTYLE
  5
3E
102
{ACAD_REACTORS
330
29
102
}
330
29
100
AcDbVisualStyle
  2
Shaded
 70
    27
177
     3
291
     0
 70
    58
 90
        2
176
     1
 90
        2
176
     1
 90
        1
176
     1
 90
        2
176
     1
 40
0.6
176
     1
 40
30.0
176
     1
 62
     7
420
 16777215
176
     1
 90
        0
176
     1
 90
        4
176
     1
 62
     7
176
     1
 62
   257
176
     1
 90
        1
176
     1
 90
        1
176
     1
 40
1.0
176
     1
 90
        8
176
     1
 62
   257
176
     1
 40
1.0
176
     1
 90
        1
176
     1
 90
        6
176
     1
 90
        2
176
     1
 62
     8
420
  7895160
176
     1
 90
        3
176
     1
 90
        0
176
     1
 90
        0
176
     1
290
     0
176
     1
 90
        5
176
     1
 40
0.0
176
     1
 90
        0
176
     1
290
     0
176
     1
290
     1
176
     1
290
     1
176
     1
290
     0
176
     1
290
     0
176
     1
290
     0
176
     1
290
     0
176
     1
290
     0
176
     1
290
     0
176
     1
 90
       50
176
     1
 40
0.0
176
     1
 40
1.0
176
     1
 90
        0
176
     1
 62
    18
420
        0
176
     1
 90
       50
176
     1
 90
        3
176
     1
 62
     5
420
      255
176
     1
290
     0
176
     1
 90
       50
176
     1
 90
       50
176
     1
 90
       50
176
     1
290
     0
176
     1
 90
       50
176
     1
 62
   256
176
     0
 40
1.0
176
     0
 90
        2
176
     1
  1
strokes_ogs.tif
176
     1
290
     0
176
     1
 40
1.0
176
     1
 40
1.0
176
     1
  0
VISUALSTYLE
  5
3D
102
{ACAD_REACTORS
330
29
102
}
330
29
100
AcDbVisualStyle
  2
Shaded with edges
 70
    26
177
     3
291
     0
 70
    58
 90
        2
176
     1
 90
        2
176
     1
 90
        1
176
     1
 90
        2
176
     1
 40
0.6
176
     1
 40
30.0
176
     1
 62
     7
420
 16777215
176
     1
 90
        1
176
     1
 90
        2
176
     1
 62
     7
176
     1
 62
   257
176
     1
 90
        2
176
     1
 90
        1
176
     1
 40
1.0
176
     1
 90
        8
176
     1
 62
   257
176
     1
 40
1.0
176
     1
 90
        1
176
     1
 90
        6
176
     1
 90
        2
176
     1
 62
     7
176
     1
 90
        3
176
     1
 90
        0
176
     1
 90
        0
176
     1
290
     0
176
     1
 90
        5
176
     1
 40
0.0
176
     1
 90
        0
176
     1
290
     0
176
     1
290
     1
176
     1
290
     1
176
     1
290
     0
176
     1
290
     0
176
     1
290
     0
176
     1
290
     0
176
     1
290
     0
176
     1
290
     0
176
     1
 90
       50
176
     1
 40
0.0
176
     1
 40
1.0
176
     1
 90
        0
176
     1
 62
    18
420
        0
176
     1
 90
       50
176
     1
 90
        3
176
     1
 62
     5
420
      255
176
     1
290
     0
176
     1
 90
       50
176
     1
 90
       50
176
     1
 90
       50
176
     1
290
     0
176
     1
 90
       50
176
     1
 62
   256
176
     0
 40
1.0
176
     0
 90
        2
176
     1
  1
strokes_ogs.tif
176
     1
290
     0
176
     1
 40
1.0
176
     1
 40
1.0
176
     1
  0
VISUALSTYLE
  5
3A
102
{ACAD_REACTORS
330
29
102
}
330
29
100
AcDbVisualStyle
  2
Shades of Gray
 70
    23
177
     3
291
     0
 70
    58
 90
        2
176
     1
 90
        2
176
     1
 90
        3
176
     1
 90
        0
176
     1
 40
0.6
176
     1
 40
30.0
176
     1
 62
     7
420
 16777215
176
     1
 90
        2
176
     1
 90
        2
176
     1
 62
     7
176
     1
 62
     7
176
     1
 90
        1
176
     1
 90
        1
176
     1
 40
40.0
176
     1
 90
        8
176
     1
 62
     7
176
     1
 40
1.0
176
     1
 90
        1
176
     1
 90
        6
176
     1
 90
        2
176
     1
 62
     7
176
     1
 90
        3
176
     1
 90
        0
176
     1
 90
        0
176
     1
290
     0
176
     1
 90
        1
176
     1
 40
0.0
176
     1
 90
        0
176
     1
290
     0
176
     1
290
     1
176
     1
290
     1
176
     1
290
     0
176
     1
290
     0
176
     1
290
     0
176
     1
290
     0
176
     1
290
     0
176
     1
290
     0
176
     1
 90
       50
176
     1
 40
0.0
176
     1
 40
1.0
176
     1
 90
        0
176
     1
 62
    18
420
        0
176
     1
 90
       50
176
     1
 90
        3
176
     1
 62
     5
420
      255
176
     1
290
     0
176
     1
 90
       50
176
     1
 90
       50
176
     1
 90
       50
176
     1
290
     0
176
     1
 90
       50
176
     1
 62
   256
176
     0
 40
1.0
176
     0
 90
        2
176
     1
  1
strokes_ogs.tif
176
     1
290
     0
176
     1
 40
1.0
176
     1
 40
1.0
176
     1
  0
VISUALSTYLE
  5
3B
102
{ACAD_REACTORS
330
29
102
}
330
29
100
AcDbVisualStyle
  2
Sketchy
 70
    24
177
     3
291
     0
 70
    58
 90
        1
176
     1
 90
        2
176
     1
 90
        2
176
     1
 90
        0
176
     1
 40
0.6
176
     1
 40
30.0
176
     1
 62
     7
420
 16777215
176
     1
 90
        2
176
     1
 90
        2
176
     1
 62
     7
176
     1
 62
     7
176
     1
 90
        1
176
     1
 90
        1
176
     1
 40
40.0
176
     1
 90
       11
176
     1
 62
     7
176
     1
 40
1.0
176
     1
 90
        1
176
     1
 90
        6
176
     1
 90
        2
176
     1
 62
     7
176
     1
 90
        6
176
     1
 90
        0
176
     1
 90
        0
176
     1
290
     0
176
     1
 90
        1
176
     1
 40
0.0
176
     1
 90
        0
176
     1
290
     0
176
     1
290
     1
176
     1
290
     1
176
     1
290
     0
176
     1
290
     0
176
     1
290
     0
176
     1
290
     0
176
     1
290
     0
176
     1
290
     0
176
     1
 90
       50
176
     1
 40
0.0
176
     1
 40
1.0
176
     1
 90
        0
176
     1
 62
    18
420
        0
176
     1
 90
       50
176
     1
 90
        3
176
     1
 62
     5
420
      255
176
     1
290
     0
176
     1
 90
       50
176
     1
 90
       50
176
     1
 90
       50
176
     1
290
     0
176
     1
 90
       50
176
     1
 62
   256
176
     0
 40
1.0
176
     0
 90
        2
176
     1
  1
strokes_ogs.tif
176
     1
290
     0
176
     1
 40
1.0
176
     1
 40
1.0
176
     1
  0
VISUALSTYLE
  5
36
102
{ACAD_REACTORS
330
29
102
}
330
29
100
AcDbVisualStyle
  2
Thicken
 70
    13
177
     3
291
     1
 70
    58
 90
        2
176
     1
 90
        2
176
     1
 90
        0
176
     1
 90
        0
176
     1
 40
0.6
176
     1
 40
30.0
176
     1
 62
     7
420
 16777215
176
     1
 90
        1
176
     1
 90
        4
176
     1
 62
     7
176
     1
 62
   257
176
     1
 90
        1
176
     1
 90
        1
176
     1
 40
1.0
176
     1
 90
       12
176
     1
 62
     7
176
     1
 40
1.0
176
     1
 90
        1
176
     1
 90
        6
176
     1
 90
        2
176
     1
 62
     7
176
     1
 90
        5
176
     1
 90
        0
176
     1
 90
        0
176
     1
290
     0
176
     1
 90
        1
176
     1
 40
0.0
176
     1
 90
        0
176
     1
290
     0
176
     1
290
     1
176
     1
290
     1
176
     1
290
     0
176
     1
290
     0
176
     1
290
     0
176
     1
290
     0
176
     1
290
     0
176
     1
290
     0
176
     1
 90
       50
176
     1
 40
0.0
176
     1
 40
1.0
176
     1
 90
        0
176
     1
 62
    18
420
        0
176
     1
 90
       50
176
     1
 90
        3
176
     1
 62
     5
420
      255
176
     1
290
     0
176
     1
 90
       50
176
     1
 90
       50
176
     1
 90
       50
176
     1
290
     0
176
     1
 90
       50
176
     1
 62
   256
176
     0
 40
1.0
176
     0
 90
        2
176
     1
  1
strokes_ogs.tif
176
     1
290
     0
176
     1
 40
1.0
176
     1
 40
1.0
176
     1
  0
VISUALSTYLE
  5
30
102
{ACAD_REACTORS
330
29
102
}
330
29
100
AcDbVisualStyle
  2
Wireframe
 70
     5
177
     3
291
     0
 70
    58
 90
        0
176
     1
 90
        2
176
     1
 90
        0
176
     1
 90
        0
176
     1
 40
0.6
176
     1
 40
30.0
176
     1
 62
     7
420
 16777215
176
     1
 90
        1
176
     1
 90
        4
176
     1
 62
     7
176
     1
 62
   257
176
     1
 90
        1
176
     1
 90
        1
176
     1
 40
1.0
176
     1
 90
        0
176
     1
 62
   257
176
     1
 40
1.0
176
     1
 90
        1
176
     1
 90
        6
176
     1
 90
        2
176
     1
 62
     7
176
     1
 90
        3
176
     1
 90
        0
176
     1
 90
        0
176
     1
290
     0
176
     1
 90
        1
176
     1
 40
0.0
176
     1
 90
        0
176
     1
290
     0
176
     1
290
     1
176
     1
290
     1
176
     1
290
     0
176
     1
290
     0
176
     1
290
     0
176
     1
290
     0
176
     1
290
     0
176
     1
290
     0
176
     1
 90
       50
176
     1
 40
0.0
176
     1
 40
1.0
176
     1
 90
        0
176
     1
 62
    18
420
        0
176
     1
 90
       50
176
     1
 90
        3
176
     1
 62
     5
420
      255
176
     1
290
     0
176
     1
 90
       50
176
     1
 90
       50
176
     1
 90
       50
176
     1
290
     0
176
     1
 90
       50
176
     1
 62
   256
176
     0
 40
1.0
176
     0
 90
        2
176
     1
  1
strokes_ogs.tif
176
     1
290
     0
176
     1
 40
1.0
176
     1
 40
1.0
176
     1
  0
VISUALSTYLE
  5
3C
102
{ACAD_REACTORS
330
29
102
}
330
29
100
AcDbVisualStyle
  2
X-Ray
 70
    25
177
     3
291
     0
 70
    58
 90
        2
176
     1
 90
        2
176
     1
 90
        1
176
     1
 90
        1
176
     1
 40
0.5
176
     1
 40
30.0
176
     1
 62
     7
420
 16777215
176
     1
 90
        1
176
     1
 90
        0
176
     1
 62
     7
176
     1
 62
   257
176
     1
 90
        1
176
     1
 90
        1
176
     1
 40
1.0
176
     1
 90
        8
176
     1
 62
     7
176
     1
 40
1.0
176
     1
 90
        1
176
     1
 90
        6
176
     1
 90
        2
176
     1
 62
     7
176
     1
 90
        3
176
     1
 90
        0
176
     1
 90
        0
176
     1
290
     0
176
     1
 90
       13
176
     1
 40
0.0
176
     1
 90
        0
176
     1
290
     0
176
     1
290
     1
176
     1
290
     1
176
     1
290
     0
176
     1
290
     0
176
     1
290
     0
176
     1
290
     0
176
     1
290
     0
176
     1
290
     0
176
     1
 90
       50
176
     1
 40
0.0
176
     1
 40
1.0
176
     1
 90
        0
176
     1
 62
    18
420
        0
176
     1
 90
       50
176
     1
 90
        3
176
     1
 62
     5
420
      255
176
     1
290
     0
176
     1
 90
       50
176
     1
 90
       50
176
     1
 90
       50
176
     1
290
     0
176
     1
 90
       50
176
     1
 62
   256
176
     0
 40
1.0
176
     0
 90
        2
176
     1
  1
strokes_ogs.tif
176
     1
290
     0
176
     1
 40
1.0
176
     1
 40
1.0
176
     1
  0
DICTIONARYVAR
  5
95
102
{ACAD_REACTORS
330
90
102
}
330
90
100
DictionaryVariables
280
     0
  1
1:1
  0
DICTIONARYVAR
  5
92
102
{ACAD_REACTORS
330
90
102
}
330
90
100
DictionaryVariables
280
     0
  1
STANDARD
  0
DICTIONARYVAR
  5
91
102
{ACAD_REACTORS
330
90
102
}
330
90
100
DictionaryVariables
280
     0
  1
STANDARD
  0
DICTIONARYVAR
  5
93
102
{ACAD_REACTORS
330
90
102
}
330
90
100
DictionaryVariables
280
     0
  1
Imperial24
  0
DICTIONARYVAR
  5
94
102
{ACAD_REACTORS
330
90
102
}
330
90
100
DictionaryVariables
280
     0
  1
Imperial24
  0
DICTIONARY
  5
1A
330
19
100
AcDbDictionary
280
     1
281
     1
  3
BUMPTILE
360
1C
  3
DIFFUSETILE
360
1B
  3
OPACITYTILE
360
1F
  3
REFLECTIONTILE
360
1E
  3
REFRACTIONTILE
360
20
  3
SPECULARTILE
360
1D
  0
DICTIONARY
  5
12
330
11
100
AcDbDictionary
280
     1
281
     1
  3
BUMPTILE
360
14
  3
DIFFUSETILE
360
13
  3
OPACITYTILE
360
17
  3
REFLECTIONTILE
360
16
  3
REFRACTIONTILE
360
18
  3
SPECULARTILE
360
15
  0
DICTIONARY
  5
22
330
21
100
AcDbDictionary
280
     1
281
     1
  3
BUMPTILE
360
24
  3
DIFFUSETILE
360
23
  3
OPACITYTILE
360
27
  3
REFLECTIONTILE
360
26
  3
REFRACTIONTILE
360
28
  3
SPECULARTILE
360
25
  0
DICTIONARY
  5
96
330
65
100
AcDbDictionary
280
     1
281
     1
  3
ACAD_ROUNDTRIP_2008_TABLESTYLE_CELLSTYLEMAP
360
97
  0
XRECORD
  5
1C
102
{ACAD_REACTORS
330
1A
102
}
330
1A
100
AcDbXrecord
280
     1
270
     1
271
     1
  0
XRECORD
  5
1B
102
{ACAD_REACTORS
330
1A
102
}
330
1A
100
AcDbXrecord
280
     1
270
     1
271
     1
  0
XRECORD
  5
1F
102
{ACAD_REACTORS
330
1A
102
}
330
1A
100
AcDbXrecord
280
     1
270
     1
271
     1
  0
XRECORD
  5
1E
102
{ACAD_REACTORS
330
1A
102
}
330
1A
100
AcDbXrecord
280
     1
270
     1
271
     1
  0
XRECORD
  5
20
102
{ACAD_REACTORS
330
1A
102
}
330
1A
100
AcDbXrecord
280
     1
270
     1
271
     1
  0
XRECORD
  5
1D
102
{ACAD_REACTORS
330
1A
102
}
330
1A
100
AcDbXrecord
280
     1
270
     1
271
     1
  0
XRECORD
  5
14
102
{ACAD_REACTORS
330
12
102
}
330
12
100
AcDbXrecord
280
     1
270
     1
271
     1
  0
XRECORD
  5
13
102
{ACAD_REACTORS
330
12
102
}
330
12
100
AcDbXrecord
280
     1
270
     1
271
     1
  0
XRECORD
  5
17
102
{ACAD_REACTORS
330
12
102
}
330
12
100
AcDbXrecord
280
     1
270
     1
271
     1
  0
XRECORD
  5
16
102
{ACAD_REACTORS
330
12
102
}
330
12
100
AcDbXrecord
280
     1
270
     1
271
     1
  0
XRECORD
  5
18
102
{ACAD_REACTORS
330
12
102
}
330
12
100
AcDbXrecord
280
     1
270
     1
271
     1
  0
XRECORD
  5
15
102
{ACAD_REACTORS
330
12
102
}
330
12
100
AcDbXrecord
280
     1
270
     1
271
     1
  0
XRECORD
  5
24
102
{ACAD_REACTORS
330
22
102
}
330
22
100
AcDbXrecord
280
     1
270
     1
271
     1
  0
XRECORD
  5
23
102
{ACAD_REACTORS
330
22
102
}
330
22
100
AcDbXrecord
280
     1
270
     1
271
     1
  0
XRECORD
  5
27
102
{ACAD_REACTORS
330
22
102
}
330
22
100
AcDbXrecord
280
     1
270
     1
271
     1
  0
XRECORD
  5
26
102
{ACAD_REACTORS
330
22
102
}
330
22
100
AcDbXrecord
280
     1
270
     1
271
     1
  0
XRECORD
  5
28
102
{ACAD_REACTORS
330
22
102
}
330
22
100
AcDbXrecord
280
     1
270
     1
271
     1
  0
XRECORD
  5
25
102
{ACAD_REACTORS
330
22
102
}
330
22
100
AcDbXrecord
280
     1
270
     1
271
     1
  0
CELLSTYLEMAP
  5
97
102
{ACAD_REACTORS
330
96
102
}
330
96
100
AcDbCellStyleMap
 90
        3
300
CELLSTYLE
  1
TABLEFORMAT_BEGIN
 90
        5
170
     1
 91
        0
 92
    32768
 62
   257
 93
        1
300
CONTENTFORMAT
  1
CONTENTFORMAT_BEGIN
 90
        0
 91
        0
 92
      512
 93
        0
300

 40
0.0
140
1.0
 94
        5
 62
     0
340
55
144
0.25
309
CONTENTFORMAT_END
171
     0
 94
        0
309
TABLEFORMAT_END
  1
CELLSTYLE_BEGIN
 90
        1
 91
        1
300
_TITLE
309
CELLSTYLE_END
300
CELLSTYLE
  1
TABLEFORMAT_BEGIN
 90
        5
170
     1
 91
        0
 92
        0
 62
   257
 93
        1
300
CONTENTFORMAT
  1
CONTENTFORMAT_BEGIN
 90
        0
 91
        0
 92
      512
 93
        0
300

 40
0.0
140
1.0
 94
        5
 62
     0
340
55
144
0.18
309
CONTENTFORMAT_END
171
     0
 94
        0
309
TABLEFORMAT_END
  1
CELLSTYLE_BEGIN
 90
        2
 91
        1
300
_HEADER
309
CELLSTYLE_END
300
CELLSTYLE
  1
TABLEFORMAT_BEGIN
 90
        5
170
     1
 91
        0
 92
        0
 62
   257
 93
        1
300
CONTENTFORMAT
  1
CONTENTFORMAT_BEGIN
 90
        0
 91
        0
 92
      512
 93
        0
300

 40
0.0
140
1.0
 94
        2
 62
     0
340
55
144
0.18
309
CONTENTFORMAT_END
171
     0
 94
        0
309
TABLEFORMAT_END
  1
CELLSTYLE_BEGIN
 90
        3
 91
        2
300
_DATA
309
CELLSTYLE_END
  0
ENDSEC
  0
EOF
