<?xml version="1.0" encoding="UTF-8"?>
<svg id="Layer_1" data-name="Layer 1" xmlns="http://www.w3.org/2000/svg" viewBox="0 0 500 500">
  <defs>
    <style>
      .cls-1 {
        fill: #fff;
      }

      .cls-2 {
        fill: #831618;
      }
    </style>
  </defs>
  <g>
    <path d="M402.63,293.71c0-77.84,.02-155.7,0-233.54,0-10.31-3.95-18.92-11.49-25.92-7.18-6.67-15.82-9.34-25.47-9.32-20.07,.03-40.14,.03-60.21,.03-59.06,0-118.11-.02-177.16-.03-11.34,0-20.72,4.34-28.15,12.89-6.27,7.22-8.35,15.73-8.34,25.12,.08,59.52,.04,119.04,.04,178.55,0,49.66-.01,99.31,0,148.97,0,11.71-.06,23.43,.17,35.14,.17,8.21,3.52,15.25,9.04,21.3,8.08,8.86,18.27,11.9,30.02,11.88,72.97-.12,145.95-.03,218.92-.1,7.99-.01,16.05,.84,23.98-.63,17.04-3.17,28.65-17.63,28.66-35.57,.03-42.93-.01-85.85-.01-128.78Zm-2.43-51.84h-.05c0,59.4,0,118.79,0,178.2,0,5.01-.29,9.96-2.06,14.73-4.8,12.96-17.23,21.4-31.66,21.4-77.27,0-154.53-.02-231.79-.03-2.55,0-5.11,.06-7.66-.03-18.18-.65-31.86-14.28-32.59-32.44-.03-.93-.02-1.85-.02-2.78,0-119.38,.02-238.75-.03-358.13,0-9.73,2.62-18.27,9.62-25.26,6.96-6.93,15.36-10.01,25.14-10,56.96,.06,113.93,.03,170.89,.03,22.28,0,44.55-.09,66.82,.03,16.55,.09,29.64,10.91,32.75,26.74,.84,4.24,.62,8.55,.63,12.84,0,58.24,0,116.48,0,174.72Z"/>
    <path class="cls-1" d="M400.2,241.87h-.05c0,59.4,0,118.79,0,178.2,0,5.01-.29,9.96-2.06,14.73-4.8,12.96-17.23,21.4-31.66,21.4-77.27,0-154.53-.02-231.79-.03-2.55,0-5.11,.06-7.66-.03-18.18-.65-31.86-14.28-32.59-32.44-.03-.93-.02-1.85-.02-2.78,0-119.38,.02-238.75-.03-358.13,0-9.73,2.62-18.27,9.62-25.26,6.96-6.93,15.36-10.01,25.14-10,56.96,.06,113.93,.03,170.89,.03,22.28,0,44.55-.09,66.82,.03,16.55,.09,29.64,10.91,32.75,26.74,.84,4.24,.62,8.55,.63,12.84,0,58.24,0,116.48,0,174.72Z"/>
  </g>
  <path class="cls-2" d="M141.04,50.49h-18.87l-1.9,15.2c1.14-.18,2.21-.36,4.03-.36,3.8,0,7.61,1,10.65,3.19,3.88,2.64,7.08,7.74,7.08,15.2,0,11.56-7.68,20.21-18.41,20.21-5.4,0-9.97-1.82-12.32-3.64l1.67-6.1c2.05,1.46,6.09,3.28,10.57,3.28,6.31,0,11.72-4.92,11.72-12.84-.08-7.65-4.34-13.11-14.23-13.11-2.81,0-5.02,.36-6.85,.64l3.2-28.41h23.66v6.74Z"/>
  <g>
    <path d="M291.64,205.92c-1.95,.3-5.17,.78-8.39,1.31-3.85,.63-6.4,.36-5.42-4.89,1.21-6.45,.91-6.48-5.34-4.24-11.62,4.16-23.32,8.09-34.84,12.51-5.69,2.19-11.64,4.46-13.64,11.4-.63,2.19-2.87,1.86-4.66,1.89-13.27,.18-22.19-13.83-17.41-27.4,1.38-3.92,3.42-7.63,3.51-11.94,.05-2.13-.32-4.09-2.26-5.2-2.21-1.27-3.26,.85-4.49,1.98-12.23,11.26-25.65,20.78-40.6,28.08-4.91,2.4-9.92,4.59-15.54,4.45-1.52-.04-3.7,.08-4.06-1.89-.32-1.76,1.79-2.06,2.96-2.68,17.29-9.22,32.52-21.17,46.32-34.98,6.98-6.99,13.02-14.68,16.32-24.15,2.19-6.3,2.44-12.58-2.15-18.01-2.5-2.96-1.57-4.99,.07-8.08,3.62-6.82,7.12-13.33,14.59-16.88,2.52-1.2,4.21-1.43,6.34,.29,2.4,1.93,5.54,3.23,7.32,5.59,3.79,5.03,8.33,4.7,13.55,3.4,18.99-4.73,36.3-13.68,54.15-21.28,13.88-5.91,27.41-2.85,40.74,1.55,5.63,1.86,5.41,6.95,4.23,11.96-1.18,4.98-3.71,8.26-9.18,8.31-5.9,.05-11.47-1.84-17.01-3.51-7.26-2.19-14.27-2.02-21.33,.66-8.14,3.1-16.35,6.05-23.73,10.81-7.5,4.84-12.32,11.63-14.53,20.29-.68,2.68-.4,3.97,2.79,2.69,4.54-1.83,9.19-3.37,13.7-5.26,3.72-1.56,6.24-4.44,7.07-8.42,.71-3.45,2.62-3.69,5.53-2.9,6.28,1.72,12.69,8.84,9.95,16.1-3.28,8.69-.61,17.6,.13,26.41,.26,3.12,2.63,4.11,5.01,5.08,9.92,4.01,19.85,8.02,29.78,11.99,5.92,2.37,11.57,5.28,16.97,8.63,9.32,5.78,10.94,17.42,3.52,23.98-3.27,2.89-6.89,3.84-11.04,1.88-5.27-2.48-10.16-5.61-15.07-8.71-9.96-6.28-20.48-10.96-33.9-10.84Zm-13.4-33.22c-.11-5.51,.72-9.32-.16-13.08-1.22-5.24-4.08-6.52-8.69-3.85-5.48,3.18-10.91,6.44-16.31,9.75-1.03,.64-2.12,1.54-2.65,2.58-3.53,6.95-6.63,14.06-7.93,21.86-.7,4.19,.77,5.06,4.64,4.34,6.82-1.28,13.11-4.05,19.57-6.39,8.07-2.92,14.92-6.35,11.54-15.21Zm-28.28-40.99c-.56-4.81-4.55-6.38-8.49-7.72-5.6-1.9-6.45-1.07-6.79,4.82-.48,8.46-.07,17.11-5.69,24.47-1.52,1.99-.34,4.21,2.01,4.48,4.11,.47,8.8-.43,10.79-3.84,3.92-6.71,6.3-14.24,8.16-22.21Zm-33.75,40.83c.08,6.11,2.65,11.68,3.46,17.59,.25,1.79-.91,4.25,2.06,4.85,2.83,.58,4.48-1.18,5.67-3.28,3.13-5.55,5.1-11.55,6.75-17.69,.74-2.76-.12-3.6-2.83-3.47-3.61,.17-7.35,.48-10.71-1.07-3.67-1.7-5.01-.81-4.4,3.08Z"/>
    <path class="cls-2" d="M206.39,335.36c.43-6.88,.9-13.76,1.28-20.65,.21-3.9,1.56-6.12,5.99-6.77,19.79-2.9,38.81-9.25,58.3-13.56,3.7-.82,7.54-1.34,11.32-1.36,7.21-.05,10.31,4.1,8.19,10.94-5.16,16.67-7.32,33.6-5.82,51.06,.38,4.41,1.32,6.22,6.17,6.58,14.87,1.12,28.92,5.21,41.4,13.72,7.06,4.81,12.45,10.7,11.6,20.09-.75,8.19-7.04,14.72-16.8,15.9-8.9,1.07-17.47,2.97-25.83,6.09-5.48,2.05-11.03,1.63-16.58,.02-13.46-3.9-26.44-8.99-38.8-15.61-2.25-1.21-4.46-2.25-6.45-.21-5.31,5.45-11.19,3.59-17.18,1.78-6.7-2.02-6.69-1.97-7.72,4.75-.43,2.83-.34,6.42-3.89,7.02-3.82,.64-5.01-2.85-6.35-5.64-2.44-5.08-4.62-10.29-5.98-15.76-.8-3.2-2.37-4.51-5.69-4.31-7.15,.43-14.1-.8-20.89-3.06-3.05-1.01-5.52-2.73-7.45-5.23-1.34-1.73-1.28-3.85-.6-5.73,.76-2.07,2.83-1.25,4.31-1.13,6.33,.5,12.67,1.03,18.96,1.85,4.41,.57,5.49-1.07,4.58-5.17-1.72-7.79-3.18-15.65-4.8-23.46-.51-2.46-.7-4.89,1.81-6.24,2.34-1.26,4.24,.48,5.85,1.84,4.86,4.12,6.1,10.12,7.84,15.84,1.21,3.99,2.41,7.98,3.55,11.99,1.11,3.89,3.62,5.13,7.45,4.18,1.58-.39,3.22-.53,4.82-.89,10.77-2.4,12.02-4.31,10.6-15.27-.29-2.23-1.1-2.68-3.17-2.35-4.06,.65-6.25,3.18-7.89,6.7-.96,2.06-2.08,4.95-4.63,4.76-2.49-.18-3.29-3.15-4.16-5.28-3.58-8.83-3.18-18.14-3.32-27.41Zm82.86,44.76c.3,3.91-.64,7.27-4.35,9.23-3.69,1.95-7.41,3.74-11.59,4.55-3.2,.62-5.73,.67-6.87-3.09-.51-1.69-1.74-3.2-3.62-2.26-3.38,1.7-6.63,3.72-9.79,5.82-1.21,.81-.34,1.84,.45,2.7,7.54,8.21,24.51,9.8,33.38,2.91,4.15-3.22,8.56-5.18,13.89-5.44,4.13-.2,8.36-.43,12.29-2.07,3.66-1.53,5.93-4.21,6.25-8.2,.31-3.8-2.62-5.31-5.34-6.8-4.97-2.73-10.34-4.4-15.84-5.63-9.41-2.11-9.41-2.08-8.88,7.2,.02,.36,0,.73,0,1.07Zm-46.7-21.1c-.09,8.85,.05,8.96,7.88,6.81,2.27-.62,4.52-1.32,6.78-2,6-1.81,8.32-6.08,5.76-13.1-1.85-5.06-5.72-.44-8.66-.5-1.58-.03-3.15,.83-4.75,1.06-5.03,.73-8.18,2.91-7.01,7.72Zm20.44-25.94c.23-6.63,.24-6.59-5.6-5.02-3.3,.89-6.63,1.71-9.97,2.43-5.74,1.23-6.97,3.23-5.7,9.59,1.08,5.4,4.76,2.14,7.3,2.01,2.48-.13,4.91-1.15,7.39-1.54,4.8-.76,7.83-2.78,6.58-7.47Zm1.24-19.87c.05-6.71-.13-6.85-6.01-5.27-2.98,.8-5.92,2.09-8.94,2.31-5.93,.43-6.69,4.42-7.17,8.97-.27,2.52,.76,3.31,3.13,2.83,4.45-.9,8.87-1.98,13.36-2.58,4.19-.56,6.36-2.36,5.63-6.26Zm-16.07,72.3c4.9-1.83,9.9-3.45,14.68-5.56,2.68-1.18,1.12-3.88,.97-5.87-.17-2.21-1.97-2.4-3.68-1.92-4.7,1.33-9.37,2.78-14.05,4.17-2.74,.81-3,2.78-2.44,5.16,.55,2.34,1.57,4.09,4.53,4.03Zm-30.59,9.3c2.81-.94,5.84-2.14,8.97-2.96,4.45-1.17,4.86-3.59,3.41-7.59-1.62-4.45-4.24-2-6.55-1.42-2.8,.7-5.54,1.65-8.26,2.6-1.66,.58-3.88,1.06-2.71,3.62,1.04,2.3,1.17,5.53,5.15,5.75Zm12.48-54.64c-.65-2.14,1.58-6.09-3.78-5.61-4.06,.36-7.79,.39-6.88,6.11,.44,2.77-.96,6.62,4.2,6.3,4.25-.26,7.65-1.18,6.46-6.8Zm-10.75-18.88c-.08,2.72,.05,5.1,3.86,4.96,6.42-.23,8.42-2.17,8.41-8.34,0-2.08-.19-3.38-2.89-3.27-7.1,.28-9.41,1.78-9.39,6.65Z"/>
    <path class="cls-2" d="M305.65,282.79c-20.94-1.56-40.94,4.55-60.99,10.43-17.46,5.12-34.92,9.98-53.48,7.12-7.8-1.2-15.3-2.9-21.82-7.66-2.7-1.97-2.79-3.34,.3-5.03,4.92-2.69,10.01-4.3,15.64-3.25,7.31,1.36,14.58,2.95,21.9,4.23,5.93,1.04,11.9,.96,17.87-.09,4.22-.74,6.97-2.81,7.94-7.06,.91-3.97-.91-5.99-4.57-7.27-2.38-.83-2.72-3.03-1.02-4.84,5.05-5.35,8.04-12.06,12.26-17.95,1.8-2.52,3.98-4.67,7.24-3.39,3.23,1.26,2.54,4.53,2.42,7.14-.31,7.14-2.56,13.88-4.65,20.65-.68,2.2-1.97,4.72,1.04,6.18,2.82,1.36,4.5-.79,5.79-2.71,4.88-7.28,8.57-15.14,10.89-23.61,1.11-4.04-.62-7.32-3.72-9.52-4.15-2.95-3.48-5.55-.58-8.89,3.69-4.26,8.33-7.01,13.44-8.96,3.74-1.43,9.14,2.44,10.82,7.77,2.51,7.96,2.29,15.75-2.35,23.02-2.65,4.15-6.75,9.46-4.37,13.22,2.17,3.42,8.25-.15,12.53-.88,13.1-2.26,26.22-3.91,39.51-2.52,2.91,.31,7,0,7.92,3.39,.8,2.96-2.57,4.87-4.6,6.87-2.85,2.81-6.13,4.06-10.32,3.7-4.86-.42-9.79-.1-15.05-.1Z"/>
  </g>
</svg>