<?xml version="1.0" encoding="UTF-8"?>
<svg id="Layer_1" data-name="Layer 1" xmlns="http://www.w3.org/2000/svg" viewBox="0 0 500 500">
  <defs>
    <style>
      .cls-1 {
        fill: #fff;
      }

      .cls-2 {
        fill: #0e1329;
      }

      .cls-3 {
        fill: #831618;
      }

      .cls-4 {
        fill: #0f592d;
      }
    </style>
  </defs>
  <g>
    <path d="M398.63,295.57c0-77.84,.02-155.7,0-233.54,0-10.31-3.95-18.92-11.49-25.92-7.18-6.67-15.82-9.34-25.47-9.32-20.07,.03-40.14,.03-60.21,.03-59.06,0-118.11-.02-177.16-.03-11.34,0-20.72,4.34-28.15,12.89-6.27,7.22-8.35,15.73-8.34,25.12,.08,59.52,.04,119.04,.04,178.55,0,49.66-.01,99.31,0,148.97,0,11.71-.06,23.43,.17,35.14,.17,8.21,3.52,15.25,9.04,21.3,8.08,8.86,18.27,11.9,30.02,11.88,72.97-.12,145.95-.03,218.92-.1,7.99-.01,16.05,.84,23.98-.63,17.04-3.17,28.65-17.63,28.66-35.57,.03-42.93-.01-85.85-.01-128.78Zm-2.43-51.84h-.05c0,59.4,0,118.79,0,178.2,0,5.01-.29,9.96-2.06,14.73-4.8,12.96-17.23,21.4-31.66,21.4-77.27,0-154.53-.02-231.79-.03-2.55,0-5.11,.06-7.66-.03-18.18-.65-31.86-14.28-32.59-32.44-.03-.93-.02-1.85-.02-2.78,0-119.38,.02-238.75-.03-358.13,0-9.73,2.62-18.27,9.62-25.26,6.96-6.93,15.36-10.01,25.14-10,56.96,.06,113.93,.03,170.89,.03,22.28,0,44.55-.09,66.82,.03,16.55,.09,29.64,10.91,32.75,26.74,.84,4.24,.62,8.55,.63,12.84,0,58.24,0,116.48,0,174.72Z"/>
    <path class="cls-1" d="M396.2,243.73h-.05c0,59.4,0,118.79,0,178.2,0,5.01-.29,9.96-2.06,14.73-4.8,12.96-17.23,21.4-31.66,21.4-77.27,0-154.53-.02-231.79-.03-2.55,0-5.11,.06-7.66-.03-18.18-.65-31.86-14.28-32.59-32.44-.03-.93-.02-1.85-.02-2.78,0-119.38,.02-238.75-.03-358.13,0-9.73,2.62-18.27,9.62-25.26,6.96-6.93,15.36-10.01,25.14-10,56.96,.06,113.93,.03,170.89,.03,22.28,0,44.55-.09,66.82,.03,16.55,.09,29.64,10.91,32.75,26.74,.84,4.24,.62,8.55,.63,12.84,0,58.24,0,116.48,0,174.72Z"/>
  </g>
  <g>
    <g>
      <path class="cls-2" d="M328.32,337.54c-18.37,0-35.04,11.78-42.35,27.79-7.25-16.07-23.86-27.79-42.35-27.79-18.69,0-35.62,12.19-42.72,28.62-7.04-16.5-23.9-28.62-42.71-28.62-24.64,0-46.24,21.18-46.26,45.36-.01,24.9,21.55,46.56,46.29,46.5,19.09-.05,35.78-12.23,42.73-29.11,7.12,16.79,24,29.16,42.7,29.11,18.76-.05,35.22-11.82,42.37-28.26,7.33,16.36,23.95,28.31,42.33,28.26,25.19-.06,46.23-21.26,46.17-46.52-.06-24.35-21.45-45.34-46.21-45.34Zm-171.14,84.43c-21.36-.42-37.66-17.58-37.28-39.27,.38-21.9,16.68-37.58,38.84-37.38,22.05,.2,37.94,16.38,37.69,38.4-.25,22.2-17.17,38.68-39.26,38.25Zm85.43,0c-21.36-.42-37.66-17.58-37.28-39.27,.38-21.9,16.68-37.58,38.84-37.38,22.05,.2,37.94,16.38,37.69,38.4-.25,22.2-17.17,38.68-39.26,38.25Zm84.7,0c-21.36-.42-37.66-17.58-37.28-39.27,.38-21.9,16.68-37.58,38.84-37.38,22.05,.2,37.94,16.38,37.69,38.4-.25,22.2-17.17,38.68-39.26,38.25Z"/>
      <path class="cls-2" d="M330.13,349.73c-18.71-1.03-35,13.58-35.75,32.06-.75,18.29,14.28,34.78,32.59,35.75,17.8,.95,34.4-14.64,35.24-33.09,.82-18-13.69-33.71-32.07-34.72Zm-1.96,4.39c4.78-.05,10.29,.8,10.6,6.79,.33,6.44-4.81,8.07-10.36,8.28-5.46-.16-10.68-1.6-10.6-8.03,.08-6.1,5.59-6.99,10.36-7.04Zm-27.54,24.08c.66-5.2,1.3-11.51,8.08-11.95,4.71-.3,6.34,4.03,6.42,8.46-1.12,5.16-1.29,11.39-8.36,11.79-5.2,.29-6.69-3.98-6.14-8.31Zm17.94,31.48c-6.58-1.08-12.44-4.01-13.13-11.55-.37-4.02,3.09-5.49,7.44-5.56,5.19,1.84,11.45,3.39,12.42,10.62,.59,4.38-2.23,7.24-6.73,6.5Zm9.75-18.41c-5.47-.11-9.04-3.01-8.62-8.65,.36-4.86,3.8-7.97,8.72-7.82,5.38,.16,8.18,3.73,8.89,8.82-.85,5.3-4.04,7.75-8.98,7.65Zm22.85,7.05c-.83,7.55-6.93,9.88-12.66,11.49-4.67,.12-6.98-1.83-7.32-5.81-.41-4.83,7.34-11.41,13.29-11.38,3.84,.02,7.12,1.71,6.68,5.7Zm-.58-11.92c-7.18,.03-8.14-6-8.89-11.34-.65-4.61,1.4-8.57,6.44-8.08,6.28,.61,6.95,6.34,7.94,10.9-.02,4.37-.74,8.5-5.48,8.52Z"/>
      <path class="cls-2" d="M328.26,381.47c-1.45,.21-2.42,1.06-2.16,2.49,.14,.75,1.03,1.71,1.76,1.92,1.42,.4,2.51-.5,2.64-1.95,.13-1.45-.79-2.28-2.25-2.47Z"/>
      <path class="cls-2" d="M160,349.73c-18.71-1.03-35,13.58-35.75,32.06-.75,18.29,14.28,34.78,32.59,35.75,17.8,.95,34.4-14.64,35.24-33.09,.82-18-13.69-33.71-32.07-34.72Zm-1.96,4.39c4.78-.05,10.29,.8,10.6,6.79,.33,6.44-4.81,8.07-10.36,8.28-5.46-.16-10.68-1.6-10.6-8.03,.08-6.1,5.59-6.99,10.36-7.04Zm-27.54,24.08c.66-5.2,1.3-11.51,8.08-11.95,4.71-.3,6.34,4.03,6.42,8.46-1.12,5.16-1.29,11.39-8.36,11.79-5.2,.29-6.69-3.98-6.14-8.31Zm17.94,31.48c-6.58-1.08-12.44-4.01-13.13-11.55-.37-4.02,3.09-5.49,7.44-5.56,5.19,1.84,11.45,3.39,12.42,10.62,.59,4.38-2.23,7.24-6.73,6.5Zm9.75-18.41c-5.47-.11-9.04-3.01-8.62-8.65,.36-4.86,3.8-7.97,8.72-7.82,5.38,.16,8.18,3.73,8.89,8.82-.85,5.3-4.04,7.75-8.98,7.65Zm22.85,7.05c-.83,7.55-6.93,9.88-12.66,11.49-4.67,.12-6.98-1.83-7.32-5.81-.41-4.83,7.34-11.41,13.29-11.38,3.84,.02,7.12,1.71,6.68,5.7Zm4.91-20.44c-.02,4.37-.74,8.5-5.48,8.52-7.18,.03-8.14-6-8.89-11.34-.65-4.61,1.4-8.57,6.44-8.08,6.28,.61,6.95,6.34,7.94,10.9Z"/>
      <path class="cls-2" d="M158.13,381.47c-1.45,.21-2.42,1.06-2.16,2.49,.14,.75,1.03,1.72,1.76,1.92,1.42,.4,2.51-.5,2.64-1.95,.13-1.45-.79-2.28-2.25-2.47Z"/>
      <path class="cls-2" d="M245.43,349.73c-18.71-1.03-35,13.58-35.75,32.06-.75,18.29,14.28,34.78,32.59,35.75,17.8,.95,34.4-14.64,35.24-33.09,.82-18-13.69-33.71-32.07-34.72Zm-1.96,4.39c4.78-.05,10.29,.8,10.6,6.79,.33,6.44-4.81,8.07-10.36,8.28-5.46-.16-10.68-1.6-10.6-8.03,.08-6.1,5.59-6.99,10.36-7.04Zm-27.54,24.08c.66-5.2,1.3-11.51,8.08-11.95,4.71-.3,6.34,4.03,6.42,8.46-1.12,5.16-1.29,11.39-8.36,11.79-5.2,.29-6.69-3.98-6.14-8.31Zm17.94,31.48c-6.58-1.08-12.44-4.01-13.13-11.55-.37-4.02,3.09-5.49,7.44-5.56,5.19,1.84,11.45,3.39,12.42,10.62,.59,4.38-2.23,7.24-6.73,6.5Zm9.75-18.41c-5.47-.11-9.04-3.01-8.62-8.65,.36-4.86,3.8-7.97,8.72-7.82,5.38,.16,8.18,3.73,8.89,8.82-.85,5.3-4.04,7.75-8.98,7.65Zm22.85,7.05c-.83,7.55-6.93,9.88-12.66,11.49-4.67,.12-6.98-1.83-7.32-5.81-.41-4.83,7.34-11.41,13.29-11.38,3.84,.02,7.12,1.71,6.68,5.7Zm4.91-20.44c-.02,4.37-.74,8.5-5.48,8.52-7.18,.03-8.14-6-8.89-11.34-.65-4.61,1.4-8.57,6.44-8.08,6.28,.61,6.95,6.34,7.94,10.9Z"/>
      <path class="cls-2" d="M243.56,381.47c-1.45,.21-2.42,1.06-2.16,2.49,.14,.75,1.03,1.72,1.76,1.92,1.42,.4,2.51-.5,2.64-1.95,.13-1.45-.79-2.28-2.25-2.47Z"/>
    </g>
    <g>
      <path class="cls-3" d="M328.32,224.59c-18.37,0-35.04,11.78-42.35,27.79-7.25-16.07-23.86-27.79-42.35-27.79-18.69,0-35.62,12.19-42.72,28.62-7.04-16.5-23.9-28.62-42.71-28.62-24.64,0-46.24,21.18-46.26,45.36-.01,24.9,21.55,46.56,46.29,46.5,19.09-.05,35.78-12.23,42.73-29.11,7.12,16.79,24,29.16,42.7,29.11,18.76-.05,35.22-11.82,42.37-28.26,7.33,16.36,23.95,28.31,42.33,28.26,25.19-.06,46.23-21.26,46.17-46.52-.06-24.35-21.45-45.34-46.21-45.34Zm-171.14,84.43c-21.36-.42-37.66-17.58-37.28-39.27,.38-21.9,16.68-37.58,38.84-37.38,22.05,.2,37.94,16.38,37.69,38.4-.25,22.2-17.17,38.68-39.26,38.25Zm85.43,0c-21.36-.42-37.66-17.58-37.28-39.27,.38-21.9,16.68-37.58,38.84-37.38,22.05,.2,37.94,16.38,37.69,38.4-.25,22.2-17.17,38.68-39.26,38.25Zm84.7,0c-21.36-.42-37.66-17.58-37.28-39.27,.38-21.9,16.68-37.58,38.84-37.38,22.05,.2,37.94,16.38,37.69,38.4-.25,22.2-17.17,38.68-39.26,38.25Z"/>
      <path class="cls-3" d="M330.13,236.77c-18.71-1.03-35,13.58-35.75,32.06-.75,18.29,14.28,34.78,32.59,35.75,17.8,.95,34.4-14.64,35.24-33.09,.82-18-13.69-33.71-32.07-34.72Zm-1.96,4.39c4.78-.05,10.29,.8,10.6,6.79,.33,6.44-4.81,8.07-10.36,8.28-5.46-.16-10.68-1.6-10.6-8.03,.08-6.1,5.59-6.99,10.36-7.04Zm-27.54,24.08c.66-5.2,1.3-11.51,8.08-11.95,4.71-.3,6.34,4.03,6.42,8.46-1.12,5.16-1.29,11.39-8.36,11.79-5.2,.29-6.69-3.98-6.14-8.31Zm17.94,31.48c-6.58-1.08-12.44-4.01-13.13-11.55-.37-4.02,3.09-5.49,7.44-5.56,5.19,1.84,11.45,3.39,12.42,10.62,.59,4.38-2.23,7.24-6.73,6.5Zm9.75-18.41c-5.47-.11-9.04-3.01-8.62-8.65,.36-4.86,3.8-7.97,8.72-7.82,5.38,.16,8.18,3.73,8.89,8.82-.85,5.3-4.04,7.75-8.98,7.65Zm22.85,7.05c-.83,7.55-6.93,9.88-12.66,11.49-4.67,.12-6.98-1.83-7.32-5.81-.41-4.83,7.34-11.41,13.29-11.38,3.84,.02,7.12,1.71,6.68,5.7Zm-.58-11.92c-7.18,.03-8.14-6-8.89-11.34-.65-4.61,1.4-8.57,6.44-8.08,6.28,.61,6.95,6.34,7.94,10.9-.02,4.37-.74,8.5-5.48,8.52Z"/>
      <path class="cls-3" d="M328.26,268.51c-1.45,.21-2.42,1.06-2.16,2.49,.14,.75,1.03,1.71,1.76,1.92,1.42,.4,2.51-.5,2.64-1.95,.13-1.45-.79-2.28-2.25-2.47Z"/>
      <path class="cls-3" d="M160,236.77c-18.71-1.03-35,13.58-35.75,32.06-.75,18.29,14.28,34.78,32.59,35.75,17.8,.95,34.4-14.64,35.24-33.09,.82-18-13.69-33.71-32.07-34.72Zm-1.96,4.39c4.78-.05,10.29,.8,10.6,6.79,.33,6.44-4.81,8.07-10.36,8.28-5.46-.16-10.68-1.6-10.6-8.03,.08-6.1,5.59-6.99,10.36-7.04Zm-27.54,24.08c.66-5.2,1.3-11.51,8.08-11.95,4.71-.3,6.34,4.03,6.42,8.46-1.12,5.16-1.29,11.39-8.36,11.79-5.2,.29-6.69-3.98-6.14-8.31Zm17.94,31.48c-6.58-1.08-12.44-4.01-13.13-11.55-.37-4.02,3.09-5.49,7.44-5.56,5.19,1.84,11.45,3.39,12.42,10.62,.59,4.38-2.23,7.24-6.73,6.5Zm9.75-18.41c-5.47-.11-9.04-3.01-8.62-8.65,.36-4.86,3.8-7.97,8.72-7.82,5.38,.16,8.18,3.73,8.89,8.82-.85,5.3-4.04,7.75-8.98,7.65Zm22.85,7.05c-.83,7.55-6.93,9.88-12.66,11.49-4.67,.12-6.98-1.83-7.32-5.81-.41-4.83,7.34-11.41,13.29-11.38,3.84,.02,7.12,1.71,6.68,5.7Zm4.91-20.44c-.02,4.37-.74,8.5-5.48,8.52-7.18,.03-8.14-6-8.89-11.34-.65-4.61,1.4-8.57,6.44-8.08,6.28,.61,6.95,6.34,7.94,10.9Z"/>
      <path class="cls-3" d="M158.13,268.51c-1.45,.21-2.42,1.06-2.16,2.49,.14,.75,1.03,1.72,1.76,1.92,1.42,.4,2.51-.5,2.64-1.95,.13-1.45-.79-2.28-2.25-2.47Z"/>
      <path class="cls-3" d="M245.43,236.77c-18.71-1.03-35,13.58-35.75,32.06-.75,18.29,14.28,34.78,32.59,35.75,17.8,.95,34.4-14.64,35.24-33.09,.82-18-13.69-33.71-32.07-34.72Zm-1.96,4.39c4.78-.05,10.29,.8,10.6,6.79,.33,6.44-4.81,8.07-10.36,8.28-5.46-.16-10.68-1.6-10.6-8.03,.08-6.1,5.59-6.99,10.36-7.04Zm-27.54,24.08c.66-5.2,1.3-11.51,8.08-11.95,4.71-.3,6.34,4.03,6.42,8.46-1.12,5.16-1.29,11.39-8.36,11.79-5.2,.29-6.69-3.98-6.14-8.31Zm17.94,31.48c-6.58-1.08-12.44-4.01-13.13-11.55-.37-4.02,3.09-5.49,7.44-5.56,5.19,1.84,11.45,3.39,12.42,10.62,.59,4.38-2.23,7.24-6.73,6.5Zm9.75-18.41c-5.47-.11-9.04-3.01-8.62-8.65,.36-4.86,3.8-7.97,8.72-7.82,5.38,.16,8.18,3.73,8.89,8.82-.85,5.3-4.04,7.75-8.98,7.65Zm22.85,7.05c-.83,7.55-6.93,9.88-12.66,11.49-4.67,.12-6.98-1.83-7.32-5.81-.41-4.83,7.34-11.41,13.29-11.38,3.84,.02,7.12,1.71,6.68,5.7Zm4.91-20.44c-.02,4.37-.74,8.5-5.48,8.52-7.18,.03-8.14-6-8.89-11.34-.65-4.61,1.4-8.57,6.44-8.08,6.28,.61,6.95,6.34,7.94,10.9Z"/>
      <path class="cls-3" d="M243.56,268.51c-1.45,.21-2.42,1.06-2.16,2.49,.14,.75,1.03,1.72,1.76,1.92,1.42,.4,2.51-.5,2.64-1.95,.13-1.45-.79-2.28-2.25-2.47Z"/>
    </g>
    <g>
      <path class="cls-4" d="M328.32,111.63c-18.37,0-35.04,11.78-42.35,27.79-7.25-16.07-23.86-27.79-42.35-27.79-18.69,0-35.62,12.19-42.72,28.62-7.04-16.5-23.9-28.62-42.71-28.62-24.64,0-46.24,21.18-46.26,45.36-.01,24.9,21.55,46.56,46.29,46.5,19.09-.05,35.78-12.23,42.73-29.11,7.12,16.79,24,29.16,42.7,29.11,18.76-.05,35.22-11.82,42.37-28.26,7.33,16.36,23.95,28.31,42.33,28.26,25.19-.06,46.23-21.26,46.17-46.52-.06-24.35-21.45-45.34-46.21-45.34Zm-171.14,84.43c-21.36-.42-37.66-17.58-37.28-39.27,.38-21.9,16.68-37.58,38.84-37.38,22.05,.2,37.94,16.38,37.69,38.4-.25,22.2-17.17,38.68-39.26,38.25Zm85.43,0c-21.36-.42-37.66-17.58-37.28-39.27,.38-21.9,16.68-37.58,38.84-37.38,22.05,.2,37.94,16.38,37.69,38.4-.25,22.2-17.17,38.68-39.26,38.25Zm84.7,0c-21.36-.42-37.66-17.58-37.28-39.27,.38-21.9,16.68-37.58,38.84-37.38,22.05,.2,37.94,16.38,37.69,38.4-.25,22.2-17.17,38.68-39.26,38.25Z"/>
      <path class="cls-4" d="M330.13,123.81c-18.71-1.03-35,13.58-35.75,32.06-.75,18.29,14.28,34.78,32.59,35.75,17.8,.95,34.4-14.64,35.24-33.09,.82-18-13.69-33.71-32.07-34.72Zm-1.96,4.39c4.78-.05,10.29,.8,10.6,6.79,.33,6.44-4.81,8.07-10.36,8.28-5.46-.16-10.68-1.6-10.6-8.03,.08-6.1,5.59-6.99,10.36-7.04Zm-27.54,24.08c.66-5.2,1.3-11.51,8.08-11.95,4.71-.3,6.34,4.03,6.42,8.46-1.12,5.16-1.29,11.39-8.36,11.79-5.2,.29-6.69-3.98-6.14-8.31Zm17.94,31.48c-6.58-1.08-12.44-4.01-13.13-11.55-.37-4.02,3.09-5.49,7.44-5.56,5.19,1.84,11.45,3.39,12.42,10.62,.59,4.38-2.23,7.24-6.73,6.5Zm9.75-18.41c-5.47-.11-9.04-3.01-8.62-8.65,.36-4.86,3.8-7.97,8.72-7.82,5.38,.16,8.18,3.73,8.89,8.82-.85,5.3-4.04,7.75-8.98,7.65Zm22.85,7.05c-.83,7.55-6.93,9.88-12.66,11.49-4.67,.12-6.98-1.83-7.32-5.81-.41-4.83,7.34-11.41,13.29-11.38,3.84,.02,7.12,1.71,6.68,5.7Zm-.58-11.92c-7.18,.03-8.14-6-8.89-11.34-.65-4.61,1.4-8.57,6.44-8.08,6.28,.61,6.95,6.34,7.94,10.9-.02,4.37-.74,8.5-5.48,8.52Z"/>
      <path class="cls-4" d="M328.26,155.55c-1.45,.21-2.42,1.06-2.16,2.49,.14,.75,1.03,1.71,1.76,1.92,1.42,.4,2.51-.5,2.64-1.95,.13-1.45-.79-2.28-2.25-2.47Z"/>
      <path class="cls-4" d="M160,123.81c-18.71-1.03-35,13.58-35.75,32.06-.75,18.29,14.28,34.78,32.59,35.75,17.8,.95,34.4-14.64,35.24-33.09,.82-18-13.69-33.71-32.07-34.72Zm-1.96,4.39c4.78-.05,10.29,.8,10.6,6.79,.33,6.44-4.81,8.07-10.36,8.28-5.46-.16-10.68-1.6-10.6-8.03,.08-6.1,5.59-6.99,10.36-7.04Zm-27.54,24.08c.66-5.2,1.3-11.51,8.08-11.95,4.71-.3,6.34,4.03,6.42,8.46-1.12,5.16-1.29,11.39-8.36,11.79-5.2,.29-6.69-3.98-6.14-8.31Zm17.94,31.48c-6.58-1.08-12.44-4.01-13.13-11.55-.37-4.02,3.09-5.49,7.44-5.56,5.19,1.84,11.45,3.39,12.42,10.62,.59,4.38-2.23,7.24-6.73,6.5Zm9.75-18.41c-5.47-.11-9.04-3.01-8.62-8.65,.36-4.86,3.8-7.97,8.72-7.82,5.38,.16,8.18,3.73,8.89,8.82-.85,5.3-4.04,7.75-8.98,7.65Zm22.85,7.05c-.83,7.55-6.93,9.88-12.66,11.49-4.67,.12-6.98-1.83-7.32-5.81-.41-4.83,7.34-11.41,13.29-11.38,3.84,.02,7.12,1.71,6.68,5.7Zm4.91-20.44c-.02,4.37-.74,8.5-5.48,8.52-7.18,.03-8.14-6-8.89-11.34-.65-4.61,1.4-8.57,6.44-8.08,6.28,.61,6.95,6.34,7.94,10.9Z"/>
      <path class="cls-4" d="M158.13,155.55c-1.45,.21-2.42,1.06-2.16,2.49,.14,.75,1.03,1.72,1.76,1.92,1.42,.4,2.51-.5,2.64-1.95,.13-1.45-.79-2.28-2.25-2.47Z"/>
      <path class="cls-4" d="M245.43,123.81c-18.71-1.03-35,13.58-35.75,32.06-.75,18.29,14.28,34.78,32.59,35.75,17.8,.95,34.4-14.64,35.24-33.09,.82-18-13.69-33.71-32.07-34.72Zm-1.96,4.39c4.78-.05,10.29,.8,10.6,6.79,.33,6.44-4.81,8.07-10.36,8.28-5.46-.16-10.68-1.6-10.6-8.03,.08-6.1,5.59-6.99,10.36-7.04Zm-27.54,24.08c.66-5.2,1.3-11.51,8.08-11.95,4.71-.3,6.34,4.03,6.42,8.46-1.12,5.16-1.29,11.39-8.36,11.79-5.2,.29-6.69-3.98-6.14-8.31Zm17.94,31.48c-6.58-1.08-12.44-4.01-13.13-11.55-.37-4.02,3.09-5.49,7.44-5.56,5.19,1.84,11.45,3.39,12.42,10.62,.59,4.38-2.23,7.24-6.73,6.5Zm9.75-18.41c-5.47-.11-9.04-3.01-8.62-8.65,.36-4.86,3.8-7.97,8.72-7.82,5.38,.16,8.18,3.73,8.89,8.82-.85,5.3-4.04,7.75-8.98,7.65Zm22.85,7.05c-.83,7.55-6.93,9.88-12.66,11.49-4.67,.12-6.98-1.83-7.32-5.81-.41-4.83,7.34-11.41,13.29-11.38,3.84,.02,7.12,1.71,6.68,5.7Zm4.91-20.44c-.02,4.37-.74,8.5-5.48,8.52-7.18,.03-8.14-6-8.89-11.34-.65-4.61,1.4-8.57,6.44-8.08,6.28,.61,6.95,6.34,7.94,10.9Z"/>
      <path class="cls-4" d="M243.56,155.55c-1.45,.21-2.42,1.06-2.16,2.49,.14,.75,1.03,1.72,1.76,1.92,1.42,.4,2.51-.5,2.64-1.95,.13-1.45-.79-2.28-2.25-2.47Z"/>
    </g>
  </g>
  <path class="cls-3" d="M127.38,41.77c-10.57,0-17.65,10.27-17.65,21.97,0,10.56,5.96,18.93,15.26,18.93,5.17,0,9.3-2.47,12.16-6.66h.24c-.95,7.32-3.42,12.75-6.84,16.46-2.94,3.33-6.76,5.33-10.81,5.99-2.38,.29-4.13,.48-5.64,.29v6.85c1.67,.1,3.89,0,6.44-.48,5.56-.76,11.05-3.61,15.02-8.28,5.09-5.9,8.9-15.41,8.9-29.01,0-15.79-6.52-26.06-17.09-26.06Zm9.38,28.06c-1.83,3.71-5.48,6.47-10.17,6.47-6.04,0-9.94-5.42-9.94-13.13,0-8.75,4.21-15.03,10.17-15.03,7.31,0,10.57,8.09,10.57,18.64,0,1.33-.24,2.28-.64,3.04Z"/>
</svg>