<?xml version="1.0" encoding="UTF-8"?>
<svg id="Layer_1" data-name="Layer 1" xmlns="http://www.w3.org/2000/svg" viewBox="0 0 500 500">
  <defs>
    <style>
      .cls-1 {
        fill: #fff;
      }

      .cls-2 {
        fill: #831618;
      }

      .cls-3 {
        fill: #1b2251;
      }

      .cls-4 {
        fill: #0f592d;
      }
    </style>
  </defs>
  <g>
    <g>
      <path d="M404.69,299.19c0-77.84,.02-155.7,0-233.54,0-10.31-3.95-18.92-11.49-25.92-7.18-6.67-15.82-9.34-25.47-9.32-20.07,.03-40.14,.03-60.21,.03-59.06,0-118.11-.02-177.16-.03-11.34,0-20.72,4.34-28.15,12.89-6.27,7.22-8.35,15.73-8.34,25.12,.08,59.52,.04,119.04,.04,178.55,0,49.66-.01,99.31,0,148.97,0,11.71-.06,23.43,.17,35.14,.17,8.21,3.52,15.25,9.04,21.3,8.08,8.86,18.27,11.9,30.02,11.88,72.97-.12,145.95-.03,218.92-.1,7.99-.01,16.05,.84,23.98-.63,17.04-3.17,28.65-17.63,28.66-35.57,.03-42.93-.01-85.85-.01-128.78Zm-2.43-51.84h-.05c0,59.4,0,118.79,0,178.2,0,5.01-.29,9.96-2.06,14.73-4.8,12.96-17.23,21.4-31.66,21.4-77.27,0-154.53-.02-231.79-.03-2.55,0-5.11,.06-7.66-.03-18.18-.65-31.86-14.28-32.59-32.44-.03-.93-.02-1.85-.02-2.78,0-119.38,.02-238.75-.03-358.13,0-9.73,2.62-18.27,9.62-25.26,6.96-6.93,15.36-10.01,25.14-10,56.96,.06,113.93,.03,170.89,.03,22.28,0,44.55-.09,66.82,.03,16.55,.09,29.64,10.91,32.75,26.74,.84,4.24,.62,8.55,.63,12.84,0,58.24,0,116.48,0,174.72Z"/>
      <path class="cls-1" d="M402.26,247.35h-.05c0,59.4,0,118.79,0,178.2,0,5.01-.29,9.96-2.06,14.73-4.8,12.96-17.23,21.4-31.66,21.4-77.27,0-154.53-.02-231.79-.03-2.55,0-5.11,.06-7.66-.03-18.18-.65-31.86-14.28-32.59-32.44-.03-.93-.02-1.85-.02-2.78,0-119.38,.02-238.75-.03-358.13,0-9.73,2.62-18.27,9.62-25.26,6.96-6.93,15.36-10.01,25.14-10,56.96,.06,113.93,.03,170.89,.03,22.28,0,44.55-.09,66.82,.03,16.55,.09,29.64,10.91,32.75,26.74,.84,4.24,.62,8.55,.63,12.84,0,58.24,0,116.48,0,174.72Z"/>
    </g>
    <g>
      <path class="cls-3" d="M250.37,258.36c-40.67-.55-74.45,32.57-73.88,73.83,.54,38.67,31.82,71.36,72.1,71.65,41.09,.3,73.35-32.47,73.51-72.62,.27-39.55-32.16-72.32-71.73-72.86Zm-.79,136.21c-35.35,0-63.71-28.18-63.76-63.43-.06-35.08,28.34-63.43,63.59-63.49,34.64-.05,63.29,28.45,63.42,62.94,.13,35.86-28.9,63.97-63.25,63.98Z"/>
      <path class="cls-3" d="M308.49,317.41c-5.75-25.85-28.89-45.5-55.24-46.92-14.9-.8-28.6,2.9-40.4,12.1-18.81,14.67-26.55,34.09-23.61,57.75,.18,1.48,.19,3.06,1.12,4.37-.34,1.34,.34,2.51,.71,3.69,.62,1.95,.93,4.04,2.25,5.72-.21,.57,.14,1.02,.35,1.48,1.89,4.28,4.26,8.28,7.08,12.03,19.8,26.24,56.75,32.21,84.07,12.81,6.79-4.82,12.33-10.87,16.57-18.03,8.31-14.04,10.64-29.08,7.11-45Zm-71.9-32.77c2.49-1.03,5.11-1.55,7.78-1.81,5.3-.53,10.58-.38,15.72,1.11,5.15,1.48,8.62,4.59,9.41,10.18,.21,1.52-.07,2.95-.5,4.33-1.56,5.04-4.23,9.56-6.94,14.05-.42,.69-.79,.65-1.38,.27-2.65-1.7-5.55-2.68-8.68-2.96-.79-.07-1.01-.43-.98-1.24,.07-2.25,.03-4.51,.03-6.76-.02,0-.04,0-.06,0,0-1.78,.03-3.56-.01-5.34-.03-1.28,.08-2.31,1.21-3.3,1.67-1.46,1.34-4.44-.36-5.9-1.42-1.22-4.03-.99-5.44,.49-1.51,1.59-1.52,4.19,.19,5.62,.93,.78,1.16,1.57,1.15,2.68-.05,4.04-.04,8.07,0,12.11,0,.94-.21,1.43-1.24,1.53-3.02,.3-5.81,1.32-8.4,2.89-.62,.37-1.07,.55-1.53-.23-2.55-4.34-5.2-8.63-6.7-13.48-1.91-6.17,.79-11.78,6.75-14.23Zm-35.14,43.4c-.09-8.67,2.51-16.68,7.9-23.53,4.05-5.15,10.31-5.84,15.7-2,4.09,2.91,7.34,6.7,10.63,10.44,.48,.55,.49,.91-.12,1.4-2.52,2.04-4.51,4.51-5.87,7.47-.28,.62-.68,.69-1.26,.49-4.23-1.38-8.46-2.76-12.7-4.12-.59-.19-.75-.61-.96-1.11-.97-2.37-3.34-3.38-5.5-2.39-2.09,.95-2.98,3.53-1.93,5.59,1.09,2.15,3.68,2.79,5.94,1.4,.62-.38,1.11-.4,1.76-.19,3.98,1.31,7.96,2.6,11.96,3.84,.93,.29,1.21,.68,1,1.69-.63,2.96-.59,5.94,.14,8.88,.22,.87,.12,1.37-.87,1.57-4.41,.9-8.8,1.93-12.8,2.03-7.76,.36-12.94-4.12-13.02-11.47Zm47.37,26.13c-.43,4.38-.93,8.75-2.08,13.02-1.47,5.44-5.66,8.89-11.34,8.96-1.66-.04-3.66-.45-5.56-1.25-6.58-2.77-12.25-6.85-16.74-12.41-3.91-4.84-4.14-9.91-.91-14.65,1.09-1.59,2.64-2.68,4.23-3.7,3.54-2.28,7.38-3.94,11.23-5.62,.82-.36,1.19-.24,1.51,.61,1.12,2.99,2.9,5.57,5.25,7.73,.69,.63,.56,1.04,.07,1.69-2.43,3.28-4.83,6.6-7.2,9.92-.49,.69-1.04,1-1.93,1.05-2.38,.13-4.03,2.22-3.7,4.53,.3,2.15,2.4,3.78,4.49,3.48,2.4-.34,4.08-2.54,3.46-4.87-.29-1.09,0-1.76,.58-2.55,2.24-3.03,4.5-6.06,6.66-9.15,.71-1.02,1.2-1.39,2.46-.68,2.53,1.44,5.31,2.21,8.24,2.34,1.07,.05,1.4,.41,1.29,1.54Zm-17.85-23.09c.02-10.13,8.2-18.26,18.36-18.26,10.15,0,18.25,8.14,18.25,18.32,0,10.12-8.2,18.31-18.31,18.3-10.07-.01-18.32-8.29-18.3-18.37Zm55.48,30.28c-4.94,6.93-11.7,11.61-19.81,14.28-1.15,.38-2.37,.42-3.57,.5-4.21,.09-8.38-2.53-10.08-6.56-2.16-5.1-2.47-10.58-3.04-16-.06-.6,.22-.87,.79-.91,3.35-.22,6.49-1.15,9.38-2.87,.63-.37,.94-.08,1.28,.39,2.55,3.52,5.11,7.04,7.68,10.55,.38,.52,.34,.98,.18,1.6-.66,2.49,.79,4.71,3.27,5.15,2.17,.39,4.36-1.25,4.62-3.46,.29-2.44-1.31-4.37-3.86-4.53-.78-.05-1.23-.33-1.66-.93-2.44-3.41-4.89-6.81-7.4-10.17-.6-.81-.52-1.26,.2-1.94,2.21-2.07,3.81-4.58,4.93-7.39,.23-.57,.34-1.21,1.29-.79,4.32,1.9,8.68,3.72,12.59,6.41,6.09,4.19,7.51,10.64,3.21,16.67Zm8.69-26.42c-2.73,3.65-6.53,4.86-12.04,4.52-3.26-.16-7.5-1.1-11.76-2.01-.96-.2-1.29-.56-1.03-1.58,.76-2.94,.73-5.92,.14-8.89-.17-.86,.05-1.23,.87-1.49,4.14-1.32,8.27-2.66,12.4-4.04,.75-.25,1.28,0,1.89,.36,1.58,.95,3.36,.81,4.7-.27,1.23-.99,1.81-2.74,1.33-4.25-.55-1.7-1.73-2.7-3.52-2.94-1.71-.23-3.47,.84-4.16,2.67-.25,.67-.58,1.05-1.23,1.26-4.08,1.31-8.17,2.61-12.24,3.97-.98,.33-1.48,.17-1.94-.81-1.29-2.74-3.16-5.05-5.51-6.97-.45-.37-.78-.64-.26-1.24,3.58-4.04,7.06-8.2,11.6-11.23,4.44-2.96,10.05-2.38,13.88,1.31,1.06,1.02,2.03,2.13,2.79,3.39,3.69,6.17,5.93,12.82,6.26,20.04,.13,2.92-.37,5.77-2.18,8.2Z"/>
      <path class="cls-3" d="M249.24,318.39c-6.91-.03-12.59,5.61-12.66,12.56-.07,7.15,5.52,12.86,12.63,12.88,7.05,.03,12.82-5.6,12.85-12.54,.03-7.18-5.62-12.87-12.81-12.9Z"/>
    </g>
    <g>
      <path class="cls-4" d="M253.28,245.11c39.38-2.05,71.14-35.67,68.66-77.07-1.15-19.26-8.92-35.64-23.05-48.78-16.27-15.12-35.75-21.23-57.68-19.04-35.61,3.54-64.75,34.26-64.68,72.17-.24,40.63,33.79,74.96,76.75,72.73Zm-6.35-136.08c38.31-1.32,66.04,29.42,65.89,63.77-.16,34.73-28.57,63.1-63.33,63.09-35.25-.01-63.67-28.29-63.68-63.36,.01-33.59,25.94-62.28,61.13-63.49Z"/>
      <path class="cls-4" d="M250.54,233.19c33.57-.7,60.26-28.49,59.51-62.12-.72-32.45-27.49-60.13-62.4-59.3-32.86,.78-59.56,28.02-59.12,61.51,.44,33.66,28.01,60.34,62.01,59.91Zm-1.71-37.52c-.55,4.77-.96,9.15-2.29,13.39-2.03,6.46-7.53,9.63-14.09,7.99-5.96-1.49-10.77-5.03-15.33-8.95-2.4-2.06-4.46-4.42-5.91-7.27-2.25-4.41-1.4-9.81,2.29-13.11,4.21-3.76,9.43-5.77,14.51-8,.59-.26,.81,0,1.02,.55,1.22,3.12,3.07,5.83,5.54,8.1,.53,.48,.4,.84,.04,1.33-2.57,3.51-5.12,7.02-7.66,10.56-.41,.56-.94,.54-1.52,.59-2.48,.2-4.14,2.26-3.77,4.64,.34,2.22,2.56,3.82,4.69,3.38,2.43-.5,3.87-2.67,3.21-5.04-.23-.82-.08-1.35,.39-2,2.39-3.25,4.77-6.51,7.09-9.81,.6-.85,1.07-.99,2.01-.47,2.45,1.37,5.1,2.19,7.91,2.39,1.43,.1,2.38,.42,1.87,1.74Zm-17.86-23.42c.11-10.12,8.36-18.18,18.53-18.09,10.26,.09,18.25,8.4,18.11,18.82-.13,9.88-8.6,17.94-18.68,17.8-9.97-.14-18.06-8.48-17.95-18.53Zm53.24,33.36c-4.78,4.96-10.24,8.99-16.88,11.16-7.6,2.49-13.83-1.87-15.44-8.83-.96-4.15-1.5-8.35-1.93-12.58-.1-.96,.19-1.33,1.14-1.39,3.14-.2,6.07-1.14,8.79-2.71,.69-.4,1.09-.3,1.56,.34,2.54,3.46,5.11,6.9,7.69,10.33,.41,.54,.53,.96,.22,1.69-.85,2.01,.35,4.31,2.46,5.04,2.2,.77,4.54-.45,5.22-2.72,.63-2.09-.59-4.78-2.71-4.87-2.53-.11-3.31-2-4.46-3.44-1.99-2.48-3.68-5.2-5.58-7.77-.62-.84-.6-1.33,.18-2.09,2.16-2.1,3.82-4.58,4.92-7.41,.22-.56,.34-1.14,1.18-.77,5.12,2.27,10.39,4.28,14.67,8.04,2.41,2.11,3.47,4.92,3.64,7.78-.12,4.28-2.03,7.45-4.66,10.18Zm-5.24-63.99c4.65-.63,8.29,1.19,10.9,4.85,4.97,6.97,7.56,14.8,7.38,23.41-.14,6.7-5.57,11.15-11.5,10.98-.31,0-.63,0-.94,0-4.64-.13-9.14-1.13-13.65-2.14-.85-.19-1.07-.52-.86-1.41,.73-2.99,.77-6.02,.14-9.04-.15-.73-.04-1.17,.74-1.42,4.24-1.35,8.48-2.72,12.71-4.1,.62-.2,1.07,.02,1.6,.33,2.2,1.31,4.72,.67,5.83-1.41,1.1-2.05,.24-4.64-1.85-5.6-2.19-1.01-4.57-.05-5.51,2.33-.29,.73-.73,1.04-1.42,1.26-3.99,1.27-7.99,2.55-11.95,3.9-1.03,.35-1.56,.27-2.05-.8-1.22-2.65-3.03-4.9-5.28-6.76-.69-.57-.95-.94-.24-1.73,2.86-3.21,5.69-6.45,9.02-9.2,2.04-1.68,4.21-3.09,6.93-3.46Zm-42.43-15.62c5.56-2.2,11.36-2.27,17.2-1.86,3.79,.27,7.5,.99,10.75,3.12,4.3,2.81,5.99,7.67,4.42,12.82-1.51,4.96-4.23,9.33-6.83,13.76-.41,.7-.79,.63-1.38,.26-2.66-1.66-5.54-2.73-8.66-3.09-.84-.1-1.01-.5-.99-1.24,.03-2.2,.01-4.4,.01-6.61,0-1.57,.04-3.15-.01-4.72-.06-1.58,0-2.91,1.43-4.15,1.56-1.35,1.16-4.09-.42-5.48-1.61-1.42-4.05-1.36-5.55,.14-1.59,1.59-1.74,4.14-.05,5.62,1.11,.97,1.27,1.99,1.26,3.29-.05,3.83-.05,7.66,0,11.48,.02,1.11-.32,1.58-1.44,1.7-2.97,.3-5.68,1.38-8.24,2.89-.48,.28-.9,.75-1.4-.09-2.69-4.56-5.51-9.06-6.95-14.21-1.64-5.84,1.21-11.4,6.85-13.64Zm-35.05,44.55c-.37-2.62-.05-5.23,.5-7.81,1.2-5.56,2.95-10.91,6.28-15.6,3.6-5.07,8.31-6.74,13.66-4.99,1.57,.52,2.91,1.44,4.17,2.46,3.53,2.83,6.53,6.2,9.5,9.6,.52,.59,.58,.99-.09,1.52-2.51,1.98-4.4,4.48-5.8,7.34-.32,.66-.68,.79-1.36,.57-4.13-1.36-8.26-2.72-12.41-4.01-.8-.25-.98-.81-1.26-1.43-.87-1.99-3.14-3.01-5.07-2.31-1.96,.71-3.16,2.87-2.66,4.77,.56,2.1,2.5,3.38,4.67,3.05,.21-.03,.47-.02,.6-.14,1.72-1.52,3.41-.56,5.12,0,3.23,1.06,6.47,2.13,9.72,3.14,.87,.27,1.13,.61,.93,1.56-.63,3.01-.61,6.04,.15,9.04,.2,.79,.1,1.29-.83,1.47-2.06,.4-4.09,.92-6.15,1.27-2.32,.39-4.65,.81-6.69,.79-7.55,.21-12.02-3.38-12.99-10.29Z"/>
      <path class="cls-4" d="M249.31,185.16c7.01,0,12.8-5.74,12.77-12.65-.03-7.08-5.71-12.77-12.79-12.81-6.9-.04-12.71,5.73-12.75,12.69-.05,7.05,5.68,12.78,12.78,12.77Z"/>
    </g>
  </g>
  <path class="cls-2" d="M129.16,107.31v-.21l4.45-4.91c11.72-13.51,19.16-23.45,19.16-35.73,0-9.52-5.05-19.35-17.03-19.35-6.42,0-11.89,2.87-15.74,6.76l2.4,6.35c2.57-2.56,6.76-5.63,11.81-5.63,8.3,0,11.04,6.25,11.04,13-.09,10.03-6.5,18.63-20.7,34.81l-5.9,6.86v5.53h35.51v-7.47h-24.98Z"/>
</svg>