<?xml version="1.0" encoding="UTF-8"?>
<svg id="Layer_1" data-name="Layer 1" xmlns="http://www.w3.org/2000/svg" viewBox="0 0 500 500">
  <defs>
    <style>
      .cls-1 {
        fill: #fff;
      }

      .cls-2 {
        fill: #831618;
      }

      .cls-3 {
        fill: #0f592d;
      }
    </style>
  </defs>
  <g>
    <path d="M412.83,295.57c0-77.84,.02-155.7,0-233.54,0-10.31-3.95-18.92-11.49-25.92-7.18-6.67-15.82-9.34-25.47-9.32-20.07,.03-40.14,.03-60.21,.03-59.06,0-118.11-.02-177.16-.03-11.34,0-20.72,4.34-28.15,12.89-6.27,7.22-8.35,15.73-8.34,25.12,.08,59.52,.04,119.04,.04,178.55,0,49.66-.01,99.31,0,148.97,0,11.71-.06,23.43,.17,35.14,.17,8.21,3.52,15.25,9.04,21.3,8.08,8.86,18.27,11.9,30.02,11.88,72.97-.12,145.95-.03,218.92-.1,7.99-.01,16.05,.84,23.98-.63,17.04-3.17,28.65-17.63,28.66-35.57,.03-42.93-.01-85.85-.01-128.78Zm-2.43-51.84h-.05c0,59.4,0,118.79,0,178.2,0,5.01-.29,9.96-2.06,14.73-4.8,12.96-17.23,21.4-31.66,21.4-77.27,0-154.53-.02-231.79-.03-2.55,0-5.11,.06-7.66-.03-18.18-.65-31.86-14.28-32.59-32.44-.03-.93-.02-1.85-.02-2.78,0-119.38,.02-238.75-.03-358.13,0-9.73,2.62-18.27,9.62-25.26,6.96-6.93,15.36-10.01,25.14-10,56.96,.06,113.93,.03,170.89,.03,22.28,0,44.55-.09,66.82,.03,16.55,.09,29.64,10.91,32.75,26.74,.84,4.24,.62,8.55,.63,12.84,0,58.24,0,116.48,0,174.72Z"/>
    <path class="cls-1" d="M410.4,243.73h-.05c0,59.4,0,118.79,0,178.2,0,5.01-.29,9.96-2.06,14.73-4.8,12.96-17.23,21.4-31.66,21.4-77.27,0-154.53-.02-231.79-.03-2.55,0-5.11,.06-7.66-.03-18.18-.65-31.86-14.28-32.59-32.44-.03-.93-.02-1.85-.02-2.78,0-119.38,.02-238.75-.03-358.13,0-9.73,2.62-18.27,9.62-25.26,6.96-6.93,15.36-10.01,25.14-10,56.96,.06,113.93,.03,170.89,.03,22.28,0,44.55-.09,66.82,.03,16.55,.09,29.64,10.91,32.75,26.74,.84,4.24,.62,8.55,.63,12.84,0,58.24,0,116.48,0,174.72Z"/>
  </g>
  <polygon class="cls-2" points="133.62 50.61 133.62 57.7 159.45 57.7 159.45 57.9 136.54 113.79 143.93 113.79 166.92 56.25 166.92 50.61 133.62 50.61"/>
  <g>
    <path class="cls-3" d="M347.98,191.28c4.25,.52,9.19,.66,13.88,1.81,8.12,2,9.49,7.6,3.71,13.43-2.07,2.09-5.7,2.88-5.66,6.75,.07,6.42-.06,12.84,.3,19.24,.13,2.27,3.01,2.48,4.6,3.67,5.53,4.12,5.92,9.87-.03,12.9-4.8,2.45-5.09,5.7-4.96,9.97,.25,7.92-1.76,15.94,6.91,21.89,5.04,3.47,2.61,9.51-3.99,11.24-10.09,2.64-20.32,2.65-30.48,.2-2.96-.72-6.24-1.45-6.88-5.2-.62-3.68,1.25-6.33,3.96-8.63,4.21-3.57,8.24-23.14,4.19-25.92-10.5-7.22-11.15-12.44-.01-19.55,3.73-2.38,.17-22.27-3.62-25.44-2.9-2.42-5.19-5.1-4.54-9.16,.74-4.6,4.86-5.07,8.19-5.74,4.5-.91,9.17-.98,14.41-1.47Zm-6.77,24.05c0,3.58,.19,7.17-.05,10.73-.29,4.22,1.14,5.87,5.61,5.85,4.46-.02,6.56-1.03,6.31-5.96-.35-6.89-.29-13.81-.01-20.7,.18-4.52-1.24-6.47-6.02-6.47-4.89,0-6.22,2.18-5.89,6.58,.24,3.31,.05,6.64,.05,9.97Zm0,54.14c0,3.86,.21,7.73-.06,11.57-.31,4.39,1.49,5.89,5.8,5.83,4-.06,6.3-.85,6.1-5.54-.28-6.68-.17-13.37-.02-20.06,.1-4.43,.28-7.77-6.18-7.69-6.19,.08-5.76,3.41-5.66,7.4,.07,2.83,.01,5.66,.02,8.49Zm.08-26.79c-.54,4.47-.26,7.96,5.96,7.89,5.72-.07,5.85-3.23,5.82-7.46-.02-4.4,.17-8.04-6.12-7.93-5.72,.1-6.17,3.18-5.66,7.51Z"/>
    <path class="cls-3" d="M347.23,424.22c-5.12-.4-10.29-.17-15.28-1.81-2.72-.89-5.68-1.49-6.46-4.74-.81-3.36,.47-6.58,3.33-8.01,7.4-3.71,5.36-10.28,5.48-16.18,.12-5.7,1.2-11.27-6-14.9-5.16-2.6-4.26-8.53,.59-11.25,5.01-2.81,5.76-6.37,5.52-11.31-.37-7.72,1.4-15.51-6.97-21.2-4.62-3.14-2.81-8.89,2.73-10.6,11.07-3.42,22.38-3.36,33.47-.16,6.26,1.81,7.75,7.7,2.38,11.69-10.2,7.57-4.95,17.74-5.86,26.85-.24,2.45,2.78,2.68,4.35,3.87,6.08,4.59,6.33,9.61-.16,13.37-3.85,2.23-4.67,4.77-4.53,8.67,.3,8.43-1.86,17.04,7.26,23.37,4.2,2.91,2.32,8-3.08,10.03-5.4,2.02-11.11,1.95-16.76,2.29Zm-6.01-24.14c0,3.83,.21,7.68-.05,11.5-.32,4.67,2.18,5.52,6.1,5.57,4.23,.05,5.97-1.51,5.81-5.87-.25-6.89-.22-13.81,0-20.7,.13-4.19-.54-6.49-5.72-6.57-5.5-.09-6.54,2.27-6.18,6.88,.24,3.05,.05,6.13,.05,9.2Zm0-54.18c0,3.86,.2,7.73-.05,11.57-.31,4.63,2.44,4.79,5.86,4.73,3.27-.05,6.17,.16,6.02-4.59-.23-7.19-.25-14.41,.03-21.6,.18-4.68-.85-7.04-6.29-6.98-5.32,.06-5.82,2.75-5.61,6.83,.17,3.34,.03,6.69,.05,10.03Zm11.65,26.98c.81-4.23,.12-7.66-5.88-7.65-5.54,.01-5.96,3.24-5.86,7.56,.1,4.3-.37,8.03,6.08,7.91,5.78-.1,6.2-3.08,5.65-7.82Z"/>
  </g>
  <path class="cls-3" d="M258.6,191.28c4.25,.52,9.19,.66,13.88,1.81,8.12,2,9.49,7.6,3.71,13.43-2.07,2.09-5.7,2.88-5.66,6.75,.07,6.42-.06,12.84,.3,19.24,.13,2.27,3.01,2.48,4.6,3.67,5.53,4.12,5.92,9.87-.03,12.9-4.8,2.45-5.09,5.7-4.96,9.97,.25,7.92-1.76,15.94,6.91,21.89,5.04,3.47,2.61,9.51-3.99,11.24-10.09,2.64-20.32,2.65-30.48,.2-2.96-.72-6.24-1.45-6.88-5.2-.62-3.68,1.25-6.33,3.96-8.63,4.21-3.57,8.24-23.14,4.19-25.92-10.5-7.22-11.15-12.44-.01-19.55,3.73-2.38,.17-22.27-3.62-25.44-2.9-2.42-5.19-5.1-4.54-9.16,.74-4.6,4.86-5.07,8.19-5.74,4.5-.91,9.17-.98,14.41-1.47Zm-6.77,24.05c0,3.58,.19,7.17-.05,10.73-.29,4.22,1.14,5.87,5.61,5.85,4.46-.02,6.56-1.03,6.31-5.96-.35-6.89-.29-13.81-.01-20.7,.18-4.52-1.24-6.47-6.02-6.47-4.89,0-6.22,2.18-5.89,6.58,.24,3.31,.05,6.64,.05,9.97Zm0,54.14c0,3.86,.21,7.73-.06,11.57-.31,4.39,1.49,5.89,5.8,5.83,4-.06,6.3-.85,6.1-5.54-.28-6.68-.17-13.37-.02-20.06,.1-4.43,.28-7.77-6.18-7.69-6.19,.08-5.76,3.41-5.66,7.4,.07,2.83,.01,5.66,.02,8.49Zm.08-26.79c-.54,4.47-.26,7.96,5.96,7.89,5.72-.07,5.85-3.23,5.82-7.46-.02-4.4,.17-8.04-6.12-7.93-5.72,.1-6.17,3.18-5.66,7.51Z"/>
  <path class="cls-2" d="M258.6,61.79c4.25,.52,9.19,.66,13.88,1.81,8.12,2,9.49,7.6,3.71,13.43-2.07,2.09-5.7,2.88-5.66,6.75,.07,6.42-.06,12.84,.3,19.24,.13,2.27,3.01,2.48,4.6,3.67,5.53,4.12,5.92,9.87-.03,12.9-4.8,2.45-5.09,5.7-4.96,9.97,.25,7.92-1.76,15.94,6.91,21.89,5.04,3.47,2.61,9.51-3.99,11.24-10.09,2.64-20.32,2.65-30.48,.2-2.96-.72-6.24-1.45-6.88-5.2-.62-3.68,1.25-6.33,3.96-8.63,4.21-3.57,8.24-23.14,4.19-25.92-10.5-7.22-11.15-12.44-.01-19.55,3.73-2.38,.17-22.27-3.62-25.44-2.9-2.42-5.19-5.1-4.54-9.16,.74-4.6,4.86-5.07,8.19-5.74,4.5-.91,9.17-.98,14.41-1.47Zm-6.77,24.05c0,3.58,.19,7.17-.05,10.73-.29,4.22,1.14,5.87,5.61,5.85,4.46-.02,6.56-1.03,6.31-5.96-.35-6.89-.29-13.81-.01-20.7,.18-4.52-1.24-6.47-6.02-6.47-4.89,0-6.22,2.18-5.89,6.58,.24,3.31,.05,6.64,.05,9.97Zm0,54.14c0,3.86,.21,7.73-.06,11.57-.31,4.39,1.49,5.89,5.8,5.83,4-.06,6.3-.85,6.1-5.54-.28-6.68-.17-13.37-.02-20.06,.1-4.43,.28-7.77-6.18-7.69-6.19,.08-5.76,3.41-5.66,7.4,.07,2.83,.01,5.66,.02,8.49Zm.08-26.79c-.54,4.47-.26,7.96,5.96,7.89,5.72-.07,5.85-3.23,5.82-7.46-.02-4.4,.17-8.04-6.12-7.93-5.72,.1-6.17,3.18-5.66,7.51Z"/>
  <path class="cls-3" d="M257.85,424.22c-5.12-.4-10.29-.17-15.28-1.81-2.72-.89-5.68-1.49-6.46-4.74-.81-3.36,.47-6.58,3.33-8.01,7.4-3.71,5.36-10.28,5.48-16.18,.12-5.7,1.2-11.27-6-14.9-5.16-2.6-4.26-8.53,.59-11.25,5.01-2.81,5.76-6.37,5.52-11.31-.37-7.72,1.4-15.51-6.97-21.2-4.62-3.14-2.81-8.89,2.73-10.6,11.07-3.42,22.38-3.36,33.47-.16,6.26,1.81,7.75,7.7,2.38,11.69-10.2,7.57-4.95,17.74-5.86,26.85-.24,2.45,2.78,2.68,4.35,3.87,6.08,4.59,6.33,9.61-.16,13.37-3.85,2.23-4.67,4.77-4.53,8.67,.3,8.43-1.86,17.04,7.26,23.37,4.2,2.91,2.32,8-3.08,10.03-5.4,2.02-11.11,1.95-16.76,2.29Zm-6.01-24.14c0,3.83,.21,7.68-.05,11.5-.32,4.67,2.18,5.52,6.1,5.57,4.23,.05,5.97-1.51,5.81-5.87-.25-6.89-.22-13.81,0-20.7,.13-4.19-.54-6.49-5.72-6.57-5.5-.09-6.54,2.27-6.18,6.88,.24,3.05,.05,6.13,.05,9.2Zm0-54.18c0,3.86,.2,7.73-.05,11.57-.31,4.63,2.44,4.79,5.86,4.73,3.27-.05,6.17,.16,6.02-4.59-.23-7.19-.25-14.41,.03-21.6,.18-4.68-.85-7.04-6.29-6.98-5.32,.06-5.82,2.75-5.61,6.83,.17,3.34,.03,6.69,.05,10.03Zm11.65,26.98c.81-4.23,.12-7.66-5.88-7.65-5.54,.01-5.96,3.24-5.86,7.56,.1,4.3-.37,8.03,6.08,7.91,5.78-.1,6.2-3.08,5.65-7.82Z"/>
  <g>
    <path class="cls-3" d="M172.7,191.28c4.25,.52,9.19,.66,13.88,1.81,8.12,2,9.49,7.6,3.71,13.43-2.07,2.09-5.7,2.88-5.66,6.75,.07,6.42-.06,12.84,.3,19.24,.13,2.27,3.01,2.48,4.6,3.67,5.53,4.12,5.92,9.87-.03,12.9-4.8,2.45-5.09,5.7-4.96,9.97,.25,7.92-1.76,15.94,6.91,21.89,5.04,3.47,2.61,9.51-3.99,11.24-10.09,2.64-20.32,2.65-30.48,.2-2.96-.72-6.24-1.45-6.88-5.2-.62-3.68,1.25-6.33,3.96-8.63,4.21-3.57,8.24-23.14,4.19-25.92-10.5-7.22-11.15-12.44-.01-19.55,3.73-2.38,.17-22.27-3.62-25.44-2.9-2.42-5.19-5.1-4.54-9.16,.74-4.6,4.86-5.07,8.19-5.74,4.5-.91,9.17-.98,14.41-1.47Zm-6.77,24.05c0,3.58,.19,7.17-.05,10.73-.29,4.22,1.14,5.87,5.61,5.85,4.46-.02,6.56-1.03,6.31-5.96-.35-6.89-.29-13.81-.01-20.7,.18-4.52-1.24-6.47-6.02-6.47-4.89,0-6.22,2.18-5.89,6.58,.24,3.31,.05,6.64,.05,9.97Zm0,54.14c0,3.86,.21,7.73-.06,11.57-.31,4.39,1.49,5.89,5.8,5.83,4-.06,6.3-.85,6.1-5.54-.28-6.68-.17-13.37-.02-20.06,.1-4.43,.28-7.77-6.18-7.69-6.19,.08-5.76,3.41-5.66,7.4,.07,2.83,.01,5.66,.02,8.49Zm.08-26.79c-.54,4.47-.26,7.96,5.96,7.89,5.72-.07,5.85-3.23,5.82-7.46-.02-4.4,.17-8.04-6.12-7.93-5.72,.1-6.17,3.18-5.66,7.51Z"/>
    <path class="cls-3" d="M171.95,424.22c-5.12-.4-10.29-.17-15.28-1.81-2.72-.89-5.68-1.49-6.46-4.74-.81-3.36,.47-6.58,3.33-8.01,7.4-3.71,5.36-10.28,5.48-16.18,.12-5.7,1.2-11.27-6-14.9-5.16-2.6-4.26-8.53,.59-11.25,5.01-2.81,5.76-6.37,5.52-11.31-.37-7.72,1.4-15.51-6.97-21.2-4.62-3.14-2.81-8.89,2.73-10.6,11.07-3.42,22.38-3.36,33.47-.16,6.26,1.81,7.75,7.7,2.38,11.69-10.2,7.57-4.95,17.74-5.86,26.85-.24,2.45,2.78,2.68,4.35,3.87,6.08,4.59,6.33,9.61-.16,13.37-3.85,2.23-4.67,4.77-4.53,8.67,.3,8.43-1.86,17.04,7.26,23.37,4.2,2.91,2.32,8-3.08,10.03-5.4,2.02-11.11,1.95-16.76,2.29Zm-6.01-24.14c0,3.83,.21,7.68-.05,11.5-.32,4.67,2.18,5.52,6.1,5.57,4.23,.05,5.97-1.51,5.81-5.87-.25-6.89-.22-13.81,0-20.7,.13-4.19-.54-6.49-5.72-6.57-5.5-.09-6.54,2.27-6.18,6.88,.24,3.05,.05,6.13,.05,9.2Zm0-54.18c0,3.86,.2,7.73-.05,11.57-.31,4.63,2.44,4.79,5.86,4.73,3.27-.05,6.17,.16,6.02-4.59-.23-7.19-.25-14.41,.03-21.6,.18-4.68-.85-7.04-6.29-6.98-5.32,.06-5.82,2.75-5.61,6.83,.17,3.34,.03,6.69,.05,10.03Zm11.65,26.98c.81-4.23,.12-7.66-5.88-7.65-5.54,.01-5.96,3.24-5.86,7.56,.1,4.3-.37,8.03,6.08,7.91,5.78-.1,6.2-3.08,5.65-7.82Z"/>
  </g>
</svg>