<?xml version="1.0" encoding="UTF-8"?>
<svg id="Layer_1" data-name="Layer 1" xmlns="http://www.w3.org/2000/svg" viewBox="0 0 500 500">
  <defs>
    <style>
      .cls-1 {
        fill: #fff;
      }

      .cls-2 {
        fill: #831618;
      }

      .cls-3 {
        fill: #0f592d;
      }
    </style>
  </defs>
  <g>
    <path d="M380.03,295.57c0-77.84,.02-155.7,0-233.54,0-10.31-3.95-18.92-11.49-25.92-7.18-6.67-15.82-9.34-25.47-9.32-20.07,.03-40.14,.03-60.21,.03-59.06,0-118.11-.02-177.16-.03-11.34,0-20.72,4.34-28.15,12.89-6.27,7.22-8.35,15.73-8.34,25.12,.08,59.52,.04,119.04,.04,178.55,0,49.66-.01,99.31,0,148.97,0,11.71-.06,23.43,.17,35.14,.17,8.21,3.52,15.25,9.04,21.3,8.08,8.86,18.27,11.9,30.02,11.88,72.97-.12,145.95-.03,218.92-.1,7.99-.01,16.05,.84,23.98-.63,17.04-3.17,28.65-17.63,28.66-35.57,.03-42.93-.01-85.85-.01-128.78Zm-2.43-51.84h-.05c0,59.4,0,118.79,0,178.2,0,5.01-.29,9.96-2.06,14.73-4.8,12.96-17.23,21.4-31.66,21.4-77.27,0-154.53-.02-231.79-.03-2.55,0-5.11,.06-7.66-.03-18.18-.65-31.86-14.28-32.59-32.44-.03-.93-.02-1.85-.02-2.78,0-119.38,.02-238.75-.03-358.13,0-9.73,2.62-18.27,9.62-25.26,6.96-6.93,15.36-10.01,25.14-10,56.96,.06,113.93,.03,170.89,.03,22.28,0,44.55-.09,66.82,.03,16.55,.09,29.64,10.91,32.75,26.74,.84,4.24,.62,8.55,.63,12.84,0,58.24,0,116.48,0,174.72Z"/>
    <path class="cls-1" d="M377.6,243.73h-.05c0,59.4,0,118.79,0,178.2,0,5.01-.29,9.96-2.06,14.73-4.8,12.96-17.23,21.4-31.66,21.4-77.27,0-154.53-.02-231.79-.03-2.55,0-5.11,.06-7.66-.03-18.18-.65-31.86-14.28-32.59-32.44-.03-.93-.02-1.85-.02-2.78,0-119.38,.02-238.75-.03-358.13,0-9.73,2.62-18.27,9.62-25.26,6.96-6.93,15.36-10.01,25.14-10,56.96,.06,113.93,.03,170.89,.03,22.28,0,44.55-.09,66.82,.03,16.55,.09,29.64,10.91,32.75,26.74,.84,4.24,.62,8.55,.63,12.84,0,58.24,0,116.48,0,174.72Z"/>
  </g>
  <path class="cls-2" d="M117.57,81.22v-.21c6.84-2.97,10.27-8.81,10.27-15.67,0-8.09-4.96-15.87-15.91-15.87-5.99,0-11.64,2.56-14.54,5.12l1.97,6.55c2.4-2.05,6.67-4.4,11.12-4.4,6.93,0,9.75,4.71,9.75,10.03,0,7.88-6.93,11.26-12.41,11.26h-4.19v6.76h4.19c7.27,0,14.29,3.99,14.37,13.31,.09,5.53-2.91,12.9-12.58,12.9-5.22,0-10.18-2.56-12.32-4.2l-2.05,6.96c2.74,2.15,8.21,4.51,14.46,4.51,13.35,0,20.28-9.32,20.28-19.97,0-9.32-5.56-15.46-12.41-17.1Z"/>
  <g>
    <path class="cls-3" d="M225.37,126.79c4.99,.61,10.79,.77,16.29,2.13,9.53,2.35,11.14,8.93,4.36,15.76-2.43,2.45-6.7,3.38-6.64,7.92,.08,7.53-.07,15.08,.35,22.59,.15,2.67,3.53,2.91,5.4,4.31,6.49,4.84,6.95,11.58-.03,15.15-5.63,2.87-5.98,6.69-5.82,11.7,.3,9.29-2.06,18.71,8.11,25.7,5.92,4.07,3.06,11.16-4.68,13.19-11.85,3.1-23.85,3.12-35.78,.23-3.47-.84-7.33-1.7-8.07-6.11-.73-4.32,1.47-7.43,4.65-10.14,4.94-4.19,9.67-27.16,4.92-30.42-12.33-8.47-13.08-14.6-.01-22.95,4.38-2.8,.2-26.14-4.25-29.86-3.4-2.84-6.1-5.98-5.33-10.75,.87-5.4,5.71-5.95,9.62-6.74,5.28-1.07,10.76-1.15,16.92-1.72Zm-7.94,28.23c0,4.2,.23,8.42-.06,12.6-.34,4.95,1.34,6.89,6.59,6.87,5.23-.02,7.7-1.2,7.41-7-.41-8.08-.34-16.21-.01-24.3,.21-5.3-1.46-7.59-7.07-7.6-5.74,0-7.3,2.56-6.92,7.73,.29,3.88,.06,7.8,.06,11.7Zm0,63.55c0,4.53,.25,9.07-.07,13.58-.36,5.16,1.75,6.91,6.81,6.84,4.69-.07,7.39-1,7.16-6.5-.33-7.84-.2-15.7-.03-23.54,.12-5.2,.33-9.12-7.26-9.03-7.26,.09-6.76,4.01-6.65,8.69,.08,3.32,.01,6.64,.02,9.96Zm.09-31.44c-.63,5.24-.31,9.35,6.99,9.26,6.72-.08,6.86-3.79,6.84-8.76-.03-5.16,.2-9.44-7.19-9.31-6.71,.12-7.25,3.74-6.64,8.81Z"/>
    <g>
      <path class="cls-3" d="M129.98,400.22c-6.01-.46-12.08-.2-17.94-2.12-3.19-1.04-6.66-1.75-7.58-5.56-.95-3.94,.56-7.72,3.91-9.4,8.69-4.36,6.29-12.07,6.44-18.99,.14-6.7,1.41-13.23-7.04-17.49-6.06-3.06-5-10.02,.69-13.2,5.88-3.29,6.76-7.48,6.48-13.27-.43-9.07,1.65-18.2-8.18-24.89-5.42-3.69-3.3-10.43,3.21-12.44,12.99-4.01,26.27-3.94,39.29-.18,7.35,2.12,9.1,9.04,2.79,13.72-11.98,8.88-5.82,20.83-6.88,31.52-.29,2.87,3.26,3.15,5.1,4.55,7.13,5.39,7.43,11.28-.19,15.69-4.52,2.62-5.48,5.6-5.32,10.17,.35,9.9-2.18,20.01,8.52,27.43,4.93,3.42,2.73,9.39-3.62,11.77-6.34,2.38-13.04,2.28-19.67,2.69Zm-7.06-28.33c0,4.5,.25,9.02-.06,13.5-.38,5.48,2.56,6.48,7.16,6.53,4.96,.06,7.01-1.78,6.82-6.89-.3-8.09-.25-16.21-.01-24.3,.15-4.92-.63-7.62-6.71-7.71-6.46-.1-7.68,2.67-7.25,8.07,.28,3.58,.05,7.2,.06,10.8Zm0-63.59c0,4.53,.24,9.07-.06,13.58-.36,5.44,2.87,5.62,6.88,5.56,3.84-.06,7.24,.19,7.06-5.39-.27-8.45-.29-16.91,.03-25.36,.21-5.49-.99-8.26-7.38-8.19-6.24,.07-6.83,3.23-6.59,8.02,.2,3.92,.04,7.85,.05,11.77Zm13.67,31.67c.96-4.96,.14-9-6.9-8.98-6.51,.01-6.99,3.8-6.88,8.88,.12,5.05-.44,9.42,7.14,9.29,6.78-.12,7.28-3.61,6.63-9.18Z"/>
      <path class="cls-3" d="M319.63,400.22c-6.01-.46-12.08-.2-17.94-2.12-3.19-1.04-6.66-1.75-7.58-5.56-.95-3.94,.56-7.72,3.91-9.4,8.69-4.36,6.29-12.07,6.44-18.99,.14-6.7,1.41-13.23-7.04-17.49-6.06-3.06-5-10.02,.69-13.2,5.88-3.29,6.76-7.48,6.48-13.27-.43-9.07,1.65-18.2-8.18-24.89-5.42-3.69-3.3-10.43,3.21-12.44,12.99-4.01,26.27-3.94,39.29-.18,7.35,2.12,9.1,9.04,2.79,13.72-11.98,8.88-5.82,20.83-6.88,31.52-.29,2.87,3.26,3.15,5.1,4.55,7.13,5.39,7.43,11.28-.19,15.69-4.52,2.62-5.48,5.6-5.32,10.17,.35,9.9-2.18,20.01,8.52,27.43,4.93,3.42,2.73,9.39-3.62,11.77-6.34,2.38-13.04,2.28-19.67,2.69Zm-7.06-28.33c0,4.5,.25,9.02-.06,13.5-.38,5.48,2.56,6.48,7.16,6.53,4.96,.06,7.01-1.78,6.82-6.89-.3-8.09-.25-16.21-.01-24.3,.15-4.92-.63-7.62-6.71-7.71-6.46-.1-7.68,2.67-7.25,8.07,.28,3.58,.05,7.2,.06,10.8Zm0-63.59c0,4.53,.24,9.07-.06,13.58-.36,5.44,2.87,5.62,6.88,5.56,3.84-.06,7.24,.19,7.06-5.39-.27-8.45-.29-16.91,.03-25.36,.21-5.49-.99-8.26-7.38-8.19-6.24,.07-6.83,3.23-6.59,8.02,.2,3.92,.04,7.85,.05,11.77Zm13.67,31.67c.96-4.96,.14-9-6.9-8.98-6.51,.01-6.99,3.8-6.88,8.88,.12,5.05-.44,9.42,7.14,9.29,6.78-.12,7.28-3.61,6.63-9.18Z"/>
    </g>
  </g>
</svg>