  0
SECTION
  2
HEADER
  9
$ACADVER
  1
AC1032
  9
$ACADMAINTVER
 90
      228
  9
$DWGCODEPAGE
  3
ANSI_1252
  9
$REQUIREDVERSIONS
160
                 0
  9
$INSBASE
 10
0.0
 20
0.0
 30
0.0
  9
$EXTMIN
 10
1.000000000000000E+20
 20
1.000000000000000E+20
 30
1.000000000000000E+20
  9
$EXTMAX
 10
-1.000000000000000E+20
 20
-1.000000000000000E+20
 30
-1.000000000000000E+20
  9
$LIMMIN
 10
0.0
 20
0.0
  9
$LIMMAX
 10
12.0
 20
9.0
  9
$ORTHOMODE
 70
     0
  9
$REGENMODE
 70
     1
  9
$FILLMODE
 70
     1
  9
$QTEXTMODE
 70
     0
  9
$MIRRTEXT
 70
     0
  9
$LTSCALE
 40
1.0
  9
$ATTMODE
 70
     1
  9
$TEXTSIZE
 40
0.2
  9
$TRACEWID
 40
0.05
  9
$TEXTSTYLE
  7
Standard
  9
$CLAYER
  8
0
  9
$CELTYPE
  6
ByLayer
  9
$CECOLOR
 62
   256
  9
$CELTSCALE
 40
1.0
  9
$DISPSILH
 70
     0
  9
$DIMSCALE
 40
1.0
  9
$DIMASZ
 40
0.18
  9
$DIMEXO
 40
0.0625
  9
$DIMDLI
 40
0.38
  9
$DIMRND
 40
0.0
  9
$DIMDLE
 40
0.0
  9
$DIMEXE
 40
0.18
  9
$DIMTP
 40
0.0
  9
$DIMTM
 40
0.0
  9
$DIMTXT
 40
0.18
  9
$DIMCEN
 40
0.09
  9
$DIMTSZ
 40
0.0
  9
$DIMTOL
 70
     0
  9
$DIMLIM
 70
     0
  9
$DIMTIH
 70
     1
  9
$DIMTOH
 70
     1
  9
$DIMSE1
 70
     0
  9
$DIMSE2
 70
     0
  9
$DIMTAD
 70
     0
  9
$DIMZIN
 70
     0
  9
$DIMBLK
  1

  9
$DIMASO
 70
     1
  9
$DIMSHO
 70
     1
  9
$DIMPOST
  1

  9
$DIMAPOST
  1

  9
$DIMALT
 70
     0
  9
$DIMALTD
 70
     2
  9
$DIMALTF
 40
25.4
  9
$DIMLFAC
 40
1.0
  9
$DIMTOFL
 70
     0
  9
$DIMTVP
 40
0.0
  9
$DIMTIX
 70
     0
  9
$DIMSOXD
 70
     0
  9
$DIMSAH
 70
     0
  9
$DIMBLK1
  1

  9
$DIMBLK2
  1

  9
$DIMSTYLE
  2
Standard
  9
$DIMCLRD
 70
     0
  9
$DIMCLRE
 70
     0
  9
$DIMCLRT
 70
     0
  9
$DIMTFAC
 40
1.0
  9
$DIMGAP
 40
0.09
  9
$DIMJUST
 70
     0
  9
$DIMSD1
 70
     0
  9
$DIMSD2
 70
     0
  9
$DIMTOLJ
 70
     1
  9
$DIMTZIN
 70
     0
  9
$DIMALTZ
 70
     0
  9
$DIMALTTZ
 70
     0
  9
$DIMUPT
 70
     0
  9
$DIMDEC
 70
     4
  9
$DIMTDEC
 70
     4
  9
$DIMALTU
 70
     2
  9
$DIMALTTD
 70
     2
  9
$DIMTXSTY
  7
Standard
  9
$DIMAUNIT
 70
     0
  9
$DIMADEC
 70
     0
  9
$DIMALTRND
 40
0.0
  9
$DIMAZIN
 70
     0
  9
$DIMDSEP
 70
    46
  9
$DIMATFIT
 70
     3
  9
$DIMFRAC
 70
     0
  9
$DIMLDRBLK
  1

  9
$DIMLUNIT
 70
     2
  9
$DIMLWD
 70
    -2
  9
$DIMLWE
 70
    -2
  9
$DIMTMOVE
 70
     0
  9
$DIMFXL
 40
1.0
  9
$DIMFXLON
 70
     0
  9
$DIMJOGANG
 40
0.7853981633974483
  9
$DIMTFILL
 70
     0
  9
$DIMTFILLCLR
 70
     0
  9
$DIMARCSYM
 70
     0
  9
$DIMLTYPE
  6

  9
$DIMLTEX1
  6

  9
$DIMLTEX2
  6

  9
$DIMTXTDIRECTION
 70
     0
  9
$LUNITS
 70
     2
  9
$LUPREC
 70
     4
  9
$SKETCHINC
 40
0.1
  9
$FILLETRAD
 40
0.0
  9
$AUNITS
 70
     0
  9
$AUPREC
 70
     0
  9
$MENU
  1
.
  9
$ELEVATION
 40
0.0
  9
$PELEVATION
 40
0.0
  9
$THICKNESS
 40
0.0
  9
$LIMCHECK
 70
     0
  9
$CHAMFERA
 40
0.0
  9
$CHAMFERB
 40
0.0
  9
$CHAMFERC
 40
0.0
  9
$CHAMFERD
 40
0.0
  9
$SKPOLY
 70
     0
  9
$TDCREATE
 40
2460929.577581019
  9
$TDUCREATE
 40
2460929.369247685
  9
$TDUPDATE
 40
2460929.577581019
  9
$TDUUPDATE
 40
2460929.369247685
  9
$TDINDWG
 40
0.0000000000
  9
$TDUSRTIMER
 40
0.0000000000
  9
$USRTIMER
 70
     1
  9
$ANGBASE
 50
0.0
  9
$ANGDIR
 70
     0
  9
$PDMODE
 70
     0
  9
$PDSIZE
 40
0.0
  9
$PLINEWID
 40
0.0
  9
$SPLFRAME
 70
     0
  9
$SPLINETYPE
 70
     6
  9
$SPLINESEGS
 70
     8
  9
$HANDSEED
  5
97
  9
$SURFTAB1
 70
     6
  9
$SURFTAB2
 70
     6
  9
$SURFTYPE
 70
     6
  9
$SURFU
 70
     6
  9
$SURFV
 70
     6
  9
$UCSBASE
  2

  9
$UCSNAME
  2

  9
$UCSORG
 10
0.0
 20
0.0
 30
0.0
  9
$UCSXDIR
 10
1.0
 20
0.0
 30
0.0
  9
$UCSYDIR
 10
0.0
 20
1.0
 30
0.0
  9
$UCSORTHOREF
  2

  9
$UCSORTHOVIEW
 70
     0
  9
$UCSORGTOP
 10
0.0
 20
0.0
 30
0.0
  9
$UCSORGBOTTOM
 10
0.0
 20
0.0
 30
0.0
  9
$UCSORGLEFT
 10
0.0
 20
0.0
 30
0.0
  9
$UCSORGRIGHT
 10
0.0
 20
0.0
 30
0.0
  9
$UCSORGFRONT
 10
0.0
 20
0.0
 30
0.0
  9
$UCSORGBACK
 10
0.0
 20
0.0
 30
0.0
  9
$PUCSBASE
  2

  9
$PUCSNAME
  2

  9
$PUCSORG
 10
0.0
 20
0.0
 30
0.0
  9
$PUCSXDIR
 10
1.0
 20
0.0
 30
0.0
  9
$PUCSYDIR
 10
0.0
 20
1.0
 30
0.0
  9
$PUCSORTHOREF
  2

  9
$PUCSORTHOVIEW
 70
     0
  9
$PUCSORGTOP
 10
0.0
 20
0.0
 30
0.0
  9
$PUCSORGBOTTOM
 10
0.0
 20
0.0
 30
0.0
  9
$PUCSORGLEFT
 10
0.0
 20
0.0
 30
0.0
  9
$PUCSORGRIGHT
 10
0.0
 20
0.0
 30
0.0
  9
$PUCSORGFRONT
 10
0.0
 20
0.0
 30
0.0
  9
$PUCSORGBACK
 10
0.0
 20
0.0
 30
0.0
  9
$USERI1
 70
     0
  9
$USERI2
 70
     0
  9
$USERI3
 70
     0
  9
$USERI4
 70
     0
  9
$USERI5
 70
     0
  9
$USERR1
 40
0.0
  9
$USERR2
 40
0.0
  9
$USERR3
 40
0.0
  9
$USERR4
 40
0.0
  9
$USERR5
 40
0.0
  9
$WORLDVIEW
 70
     1
  9
$SHADEDGE
 70
     3
  9
$SHADEDIF
 70
    70
  9
$TILEMODE
 70
     1
  9
$MAXACTVP
 70
    64
  9
$PINSBASE
 10
0.0
 20
0.0
 30
0.0
  9
$PLIMCHECK
 70
     0
  9
$PEXTMIN
 10
1.000000000000000E+20
 20
1.000000000000000E+20
 30
1.000000000000000E+20
  9
$PEXTMAX
 10
-1.000000000000000E+20
 20
-1.000000000000000E+20
 30
-1.000000000000000E+20
  9
$PLIMMIN
 10
0.0
 20
0.0
  9
$PLIMMAX
 10
12.0
 20
9.0
  9
$UNITMODE
 70
     0
  9
$VISRETAIN
 70
     1
  9
$PLINEGEN
 70
     0
  9
$PSLTSCALE
 70
     1
  9
$TREEDEPTH
 70
  3020
  9
$CMLSTYLE
  2
Standard
  9
$CMLJUST
 70
     0
  9
$CMLSCALE
 40
1.0
  9
$PROXYGRAPHICS
 70
     1
  9
$MEASUREMENT
 70
     0
  9
$CELWEIGHT
370
    -1
  9
$ENDCAPS
280
     0
  9
$JOINSTYLE
280
     0
  9
$LWDISPLAY
290
     1
  9
$INSUNITS
 70
     0
  9
$HYPERLINKBASE
  1

  9
$STYLESHEET
  1

  9
$XEDIT
290
     1
  9
$CEPSNTYPE
380
     0
  9
$PSTYLEMODE
290
     1
  9
$FINGERPRINTGUID
  2
{D787E7E2-059A-F045-B166-48704A031C33}
  9
$VERSIONGUID
  2
{34049CCC-89DF-DB40-BF4B-334B6E5D817F}
  9
$EXTNAMES
290
     1
  9
$PSVPSCALE
 40
0.0
  9
$OLESTARTUP
290
     0
  9
$SORTENTS
280
   127
  9
$INDEXCTL
280
     0
  9
$HIDETEXT
280
     1
  9
$XCLIPFRAME
280
     2
  9
$HALOGAP
280
     0
  9
$OBSCOLOR
 70
   257
  9
$OBSLTYPE
280
     0
  9
$INTERSECTIONDISPLAY
280
     0
  9
$INTERSECTIONCOLOR
 70
   257
  9
$DIMASSOC
280
     2
  9
$PROJECTNAME
  1

  9
$CAMERADISPLAY
290
     0
  9
$LENSLENGTH
 40
50.0
  9
$CAMERAHEIGHT
 40
0.0
  9
$STEPSPERSEC
 40
2.0
  9
$STEPSIZE
 40
6.0
  9
$3DDWFPREC
 40
2.0
  9
$PSOLWIDTH
 40
0.25
  9
$PSOLHEIGHT
 40
4.0
  9
$LOFTANG1
 40
1.570796326794896
  9
$LOFTANG2
 40
1.570796326794896
  9
$LOFTMAG1
 40
0.0
  9
$LOFTMAG2
 40
0.0
  9
$LOFTPARAM
 70
     7
  9
$LOFTNORMALS
280
     1
  9
$LATITUDE
 40
37.795
  9
$LONGITUDE
 40
-122.394
  9
$NORTHDIRECTION
 40
0.0
  9
$TIMEZONE
 70
 -8000
  9
$LIGHTGLYPHDISPLAY
280
     1
  9
$TILEMODELIGHTSYNCH
280
     1
  9
$CMATERIAL
347
11
  9
$SOLIDHIST
280
     0
  9
$SHOWHIST
280
     1
  9
$DWFFRAME
280
     2
  9
$DGNFRAME
280
     0
  9
$REALWORLDSCALE
290
     1
  9
$INTERFERECOLOR
 62
     1
  9
$INTERFEREOBJVS
345
33
  9
$INTERFEREVPVS
346
30
  9
$CSHADOW
280
     0
  9
$SHADOWPLANELOCATION
 40
0.0
  0
ENDSEC
  0
SECTION
  2
CLASSES
  0
CLASS
  1
ACDBDICTIONARYWDFLT
  2
AcDbDictionaryWithDefault
  3
ObjectDBX Classes
 90
        0
 91
        1
280
     0
281
     0
  0
CLASS
  1
MATERIAL
  2
AcDbMaterial
  3
ObjectDBX Classes
 90
     1153
 91
        3
280
     0
281
     0
  0
CLASS
  1
VISUALSTYLE
  2
AcDbVisualStyle
  3
ObjectDBX Classes
 90
     4095
 91
       24
280
     0
281
     0
  0
CLASS
  1
SCALE
  2
AcDbScale
  3
ObjectDBX Classes
 90
     1153
 91
       17
280
     0
281
     0
  0
CLASS
  1
TABLESTYLE
  2
AcDbTableStyle
  3
ObjectDBX Classes
 90
     4095
 91
        1
280
     0
281
     0
  0
CLASS
  1
MLEADERSTYLE
  2
AcDbMLeaderStyle
  3
ACDB_MLEADERSTYLE_CLASS
 90
     4095
 91
        1
280
     0
281
     0
  0
CLASS
  1
ACDBSECTIONVIEWSTYLE
  2
AcDbSectionViewStyle
  3
ObjectDBX Classes
 90
     1025
 91
        1
280
     0
281
     0
  0
CLASS
  1
ACDBDETAILVIEWSTYLE
  2
AcDbDetailViewStyle
  3
ObjectDBX Classes
 90
     1025
 91
        1
280
     0
281
     0
  0
CLASS
  1
DICTIONARYVAR
  2
AcDbDictionaryVar
  3
ObjectDBX Classes
 90
        0
 91
        5
280
     0
281
     0
  0
CLASS
  1
CELLSTYLEMAP
  2
AcDbCellStyleMap
  3
ObjectDBX Classes
 90
     1152
 91
        1
280
     0
281
     0
  0
ENDSEC
  0
SECTION
  2
TABLES
  0
TABLE
  2
VPORT
  5
8
330
0
100
AcDbSymbolTable
 70
     1
  0
VPORT
  5
57
330
8
100
AcDbSymbolTableRecord
100
AcDbViewportTableRecord
  2
*Active
 70
     0
 10
0.0
 20
0.0
 11
1.0
 21
1.0
 12
0.0
 22
0.0
 13
0.0
 23
0.0
 14
1.0
 24
1.0
 15
0.0
 25
0.0
 16
0.0
 26
0.0
 36
1.0
 17
2070.329143804109
 27
-1549.708560332395
 37
0.0
 40
3099.36839297975
 41
1.304893925962813
 42
50.0
 43
0.0
 44
0.0
 50
0.0
 51
0.0
 71
     0
 72
   100
 73
     1
 74
     1
 75
     0
 76
     0
 77
     0
 78
     0
281
     0
 65
     1
110
0.0
120
0.0
130
0.0
111
1.0
121
0.0
131
0.0
112
0.0
122
1.0
132
0.0
 79
     0
146
0.0
 60
     3
 61
     5
292
     1
282
     1
141
0.0
142
0.0
 63
   250
421
  3355443
  0
ENDTAB
  0
TABLE
  2
LTYPE
  5
5
330
0
100
AcDbSymbolTable
 70
     1
  0
LTYPE
  5
5B
330
5
100
AcDbSymbolTableRecord
100
AcDbLinetypeTableRecord
  2
ByBlock
 70
     0
  3

 72
    65
 73
     0
 40
0.0
  0
LTYPE
  5
5C
330
5
100
AcDbSymbolTableRecord
100
AcDbLinetypeTableRecord
  2
ByLayer
 70
     0
  3

 72
    65
 73
     0
 40
0.0
  0
LTYPE
  5
5D
330
5
100
AcDbSymbolTableRecord
100
AcDbLinetypeTableRecord
  2
Continuous
 70
     0
  3
Solid line
 72
    65
 73
     0
 40
0.0
  0
ENDTAB
  0
TABLE
  2
LAYER
  5
2
330
0
100
AcDbSymbolTable
 70
     2
  0
LAYER
  5
54
330
2
100
AcDbSymbolTableRecord
100
AcDbLayerTableRecord
  2
0
 70
     0
 62
     7
  6
Continuous
370
    -3
390
F
347
21
348
0
  0
LAYER
  5
78
330
2
100
AcDbSymbolTableRecord
100
AcDbLayerTableRecord
  2
Layer 1
 70
     0
 62
     7
  6
Continuous
370
     0
390
F
347
21
348
0
  0
ENDTAB
  0
TABLE
  2
STYLE
  5
3
330
0
100
AcDbSymbolTable
 70
     2
  0
STYLE
  5
55
330
3
100
AcDbSymbolTableRecord
100
AcDbTextStyleTableRecord
  2
Standard
 70
     0
 40
0.0
 41
1.0
 50
0.0
 71
     0
 42
0.2
  3
txt
  4

  0
STYLE
  5
5A
330
3
100
AcDbSymbolTableRecord
100
AcDbTextStyleTableRecord
  2
Annotative
 70
     0
 40
0.0
 41
1.0
 50
0.0
 71
     0
 42
0.2
  3
txt
  4

1001
AcadAnnotative
1000
AnnotativeData
1002
{
1070
     1
1070
     1
1002
}
  0
ENDTAB
  0
TABLE
  2
VIEW
  5
6
330
0
100
AcDbSymbolTable
 70
     0
  0
ENDTAB
  0
TABLE
  2
UCS
  5
7
330
0
100
AcDbSymbolTable
 70
     0
  0
ENDTAB
  0
TABLE
  2
APPID
  5
9
330
0
100
AcDbSymbolTable
 70
     2
  0
APPID
  5
56
330
9
100
AcDbSymbolTableRecord
100
AcDbRegAppTableRecord
  2
ACAD
 70
     0
  0
APPID
  5
5E
330
9
100
AcDbSymbolTableRecord
100
AcDbRegAppTableRecord
  2
AcadAnnotative
 70
     0
  0
ENDTAB
  0
TABLE
  2
DIMSTYLE
  5
A
330
0
100
AcDbSymbolTable
 70
     2
100
AcDbDimStyleTable
 71
     0
  0
DIMSTYLE
105
58
330
A
100
AcDbSymbolTableRecord
100
AcDbDimStyleTableRecord
  2
Standard
 70
     0
340
55
  0
DIMSTYLE
105
59
330
A
100
AcDbSymbolTableRecord
100
AcDbDimStyleTableRecord
  2
Annotative
 70
     0
340
55
1001
AcadAnnotative
1000
AnnotativeData
1002
{
1070
     1
1070
     1
1002
}
  0
ENDTAB
  0
TABLE
  2
BLOCK_RECORD
  5
1
330
0
100
AcDbSymbolTable
 70
     1
  0
BLOCK_RECORD
  5
70
330
1
100
AcDbSymbolTableRecord
100
AcDbBlockTableRecord
  2
*Model_Space
340
73
 70
     0
280
     1
281
     0
  0
BLOCK_RECORD
  5
6C
330
1
100
AcDbSymbolTableRecord
100
AcDbBlockTableRecord
  2
*Paper_Space
340
6F
 70
     0
280
     1
281
     0
  0
BLOCK_RECORD
  5
74
330
1
100
AcDbSymbolTableRecord
100
AcDbBlockTableRecord
  2
*Paper_Space0
340
77
 70
     0
280
     1
281
     0
  0
ENDTAB
  0
ENDSEC
  0
SECTION
  2
BLOCKS
  0
BLOCK
  5
71
330
70
100
AcDbEntity
  8
0
100
AcDbBlockBegin
  2
*Model_Space
 70
     0
 10
0.0
 20
0.0
 30
0.0
  3
*Model_Space
  1

  0
ENDBLK
  5
72
330
70
100
AcDbEntity
  8
0
100
AcDbBlockEnd
  0
BLOCK
  5
6D
330
6C
100
AcDbEntity
 67
     1
  8
0
100
AcDbBlockBegin
  2
*Paper_Space
 70
     0
 10
0.0
 20
0.0
 30
0.0
  3
*Paper_Space
  1

  0
ENDBLK
  5
6E
330
6C
100
AcDbEntity
 67
     1
  8
0
100
AcDbBlockEnd
  0
BLOCK
  5
75
330
74
100
AcDbEntity
 67
     1
  8
0
100
AcDbBlockBegin
  2
*Paper_Space0
 70
     0
 10
0.0
 20
0.0
 30
0.0
  3
*Paper_Space0
  1

  0
ENDBLK
  5
76
330
74
100
AcDbEntity
 67
     1
  8
0
100
AcDbBlockEnd
  0
ENDSEC
  0
SECTION
  2
ENTITIES
  0
SPLINE
  5
79
330
70
100
AcDbEntity
  8
Layer 1
100
AcDbSpline
210
0.0
220
0.0
230
1.0
 70
     9
 71
     3
 72
    53
 73
    49
 74
     0
 42
0.0000000001
 43
0.0000000001
 40
0.0
 40
0.0
 40
0.0
 40
0.0
 40
1.0
 40
1.0
 40
1.0
 40
2.0
 40
2.0
 40
2.0
 40
3.0
 40
3.0
 40
3.0
 40
4.0
 40
4.0
 40
4.0
 40
5.0
 40
5.0
 40
5.0
 40
6.0
 40
6.0
 40
6.0
 40
7.0
 40
7.0
 40
7.0
 40
8.0
 40
8.0
 40
8.0
 40
9.0
 40
9.0
 40
9.0
 40
10.0
 40
10.0
 40
10.0
 40
11.0
 40
11.0
 40
11.0
 40
12.0
 40
12.0
 40
12.0
 40
13.0
 40
13.0
 40
13.0
 40
14.0
 40
14.0
 40
14.0
 40
15.0
 40
15.0
 40
15.0
 40
16.0
 40
16.0
 40
16.0
 40
16.0
 10
1937.595789928
 20
-763.7255912279297
 30
0.0
 10
1937.595789928
 20
-763.7255912279297
 30
0.0
 10
1937.547096362514
 20
-763.7255912279297
 30
0.0
 10
1937.547096362514
 20
-763.7255912279297
 30
0.0
 10
1937.547096362514
 20
-823.1216709798728
 30
0.0
 10
1937.540127998869
 20
-882.5177507318167
 30
0.0
 10
1937.554064726164
 20
-941.9207563573854
 30
0.0
 10
1937.554064726164
 20
-946.9330918303384
 30
0.0
 10
1937.261648393143
 20
-951.8827970105167
 30
0.0
 10
1935.493468607854
 20
-956.6514522059524
 30
0.0
 10
1930.68988661414
 20
-969.6069149255409
 30
0.0
 10
1918.263594631467
 20
-978.0512969644824
 30
0.0
 10
1903.832198499525
 20
-978.0512969644824
 30
0.0
 10
1826.565792666046
 20
-978.0443286008358
 30
0.0
 10
1749.299386832568
 20
-978.0304343635634
 30
0.0
 10
1672.039949362735
 20
-978.0164976362703
 30
0.0
 10
1669.485024325746
 20
-978.0164976362703
 30
0.0
 10
1666.9301842688
 20
-978.0791279290461
 30
0.0
 10
1664.382227595453
 20
-977.9886666717084
 30
0.0
 10
1646.198622579981
 20
-977.341203712891
 30
0.0
 10
1632.519129881508
 20
-963.7104895599431
 30
0.0
 10
1631.795184882669
 20
-945.5477471453878
 30
0.0
 10
1631.760343064436
 20
-944.6218470708645
 30
0.0
 10
1631.774279791729
 20
-943.6959894863639
 30
0.0
 10
1631.774279791729
 20
-942.7631210481949
 30
0.0
 10
1631.774279791729
 20
-823.3862138583081
 30
0.0
 10
1631.795184882669
 20
-704.0092641784004
 30
0.0
 10
1631.739437973496
 20
-584.6323569885144
 30
0.0
 10
1631.739437973496
 20
-574.9001023756299
 30
0.0
 10
1634.356993303263
 20
-566.3582482256806
 30
0.0
 10
1641.360368728125
 20
-559.3688095281113
 30
0.0
 10
1648.32193397111
 20
-552.435117739712
 30
0.0
 10
1656.724505828173
 20
-549.3581602895419
 30
0.0
 10
1666.498485642891
 20
-549.3651286531885
 30
0.0
 10
1723.458060049814
 20
-549.4207056022723
 30
0.0
 10
1780.42460282038
 20
-549.3929171277304
 30
0.0
 10
1837.384007267214
 20
-549.3929171277304
 30
0.0
 10
1859.661016044763
 20
-549.3929171277304
 30
0.0
 10
1881.938024822313
 20
-549.302413380371
 30
0.0
 10
1904.208150216262
 20
-549.427673965919
 30
0.0
 10
1920.755719415596
 20
-549.5182626933237
 30
0.0
 10
1933.850464428071
 20
-560.3365622745359
 30
0.0
 10
1936.962263696472
 20
-576.1671548386784
 30
0.0
 10
1937.797702513659
 20
-580.406639297199
 30
0.0
 10
1937.581938180749
 20
-584.7158923722282
 30
0.0
 10
1937.588821564352
 20
-589.0042403563192
 30
0.0
 10
1937.595789928
 20
-647.244633993494
 30
0.0
 10
1937.595789928
 20
-705.4851975907559
 30
0.0
 10
1937.595789928
 20
-763.7255912279297
 30
0.0
  0
SPLINE
  5
7A
330
70
100
AcDbEntity
  8
Layer 1
100
AcDbSpline
210
0.0
220
0.0
230
1.0
 70
     9
 71
     3
 72
    53
 73
    49
 74
     0
 42
0.0000000001
 43
0.0000000001
 40
0.0
 40
0.0
 40
0.0
 40
0.0
 40
1.0
 40
1.0
 40
1.0
 40
2.0
 40
2.0
 40
2.0
 40
3.0
 40
3.0
 40
3.0
 40
4.0
 40
4.0
 40
4.0
 40
5.0
 40
5.0
 40
5.0
 40
6.0
 40
6.0
 40
6.0
 40
7.0
 40
7.0
 40
7.0
 40
8.0
 40
8.0
 40
8.0
 40
9.0
 40
9.0
 40
9.0
 40
10.0
 40
10.0
 40
10.0
 40
11.0
 40
11.0
 40
11.0
 40
12.0
 40
12.0
 40
12.0
 40
13.0
 40
13.0
 40
13.0
 40
14.0
 40
14.0
 40
14.0
 40
15.0
 40
15.0
 40
15.0
 40
16.0
 40
16.0
 40
16.0
 40
16.0
 10
1940.025369399396
 20
-815.5683471972215
 30
0.0
 10
1940.025369399396
 20
-737.7241620413924
 30
0.0
 10
1940.046274490334
 20
-659.8730085219167
 30
0.0
 10
1940.032337763043
 20
-582.0287383860422
 30
0.0
 10
1940.032337763043
 20
-571.7186194707619
 30
0.0
 10
1936.07813131381
 20
-563.1072516444365
 30
0.0
 10
1928.538786748471
 20
-556.1108445832196
 30
0.0
 10
1921.354488808931
 20
-549.4416106932122
 30
0.0
 10
1912.715162547976
 20
-546.7683934343186
 30
0.0
 10
1903.066443318803
 20
-546.7892985252574
 30
0.0
 10
1882.996196336053
 20
-546.8240553634459
 30
0.0
 10
1862.926034333344
 20
-546.8240553634459
 30
0.0
 10
1842.855872330639
 20
-546.8240553634459
 30
0.0
 10
1783.800859987175
 20
-546.8170869998003
 30
0.0
 10
1724.745932623757
 20
-546.8032352525515
 30
0.0
 10
1665.691005260338
 20
-546.796266888904
 30
0.0
 10
1654.350588285901
 20
-546.796266888904
 30
0.0
 10
1644.973380298814
 20
-551.1333084384768
 30
0.0
 10
1637.545359591733
 20
-559.689014335674
 30
0.0
 10
1631.273067489443
 20
-566.908239073492
 30
0.0
 10
1629.191481300151
 20
-575.4222197688541
 30
0.0
 10
1629.205418027444
 20
-584.8133644832369
 30
0.0
 10
1629.288953411158
 20
-644.3347473107515
 30
0.0
 10
1629.247143229278
 20
-703.8491617746185
 30
0.0
 10
1629.247143229278
 20
-763.3635762384865
 30
0.0
 10
1629.247143229278
 20
-813.0204330138994
 30
0.0
 10
1629.233206501987
 20
-862.6772897893124
 30
0.0
 10
1629.254111592925
 20
-912.3341040747027
 30
0.0
 10
1629.254111592925
 20
-924.0434619122043
 30
0.0
 10
1629.191481300151
 20
-935.7597881133525
 30
0.0
 10
1629.428150724001
 20
-947.4691459508548
 30
0.0
 10
1629.595221491429
 20
-955.6837844395714
 30
0.0
 10
1632.950743527372
 20
-962.7219167026233
 30
0.0
 10
1638.464248812586
 20
-968.771518598378
 30
0.0
 10
1646.539732478484
 20
-977.6266516822651
 30
0.0
 10
1656.738357575421
 20
-980.6758206578942
 30
0.0
 10
1668.482599721177
 20
-980.6549155669545
 30
0.0
 10
1741.453689206919
 20
-980.5365808550286
 30
0.0
 10
1814.431747056305
 20
-980.627084602389
 30
0.0
 10
1887.402921522089
 20
-980.5574434559476
 30
0.0
 10
1895.394784824228
 20
-980.5435492186752
 30
0.0
 10
1903.45633176283
 20
-981.3928397831096
 30
0.0
 10
1911.378511428505
 20
-979.923959714446
 30
0.0
 10
1928.420409546525
 20
-976.7494876632463
 30
0.0
 10
1940.025369399396
 20
-962.297271420407
 30
0.0
 10
1940.03930612669
 20
-944.3503783188052
 30
0.0
 10
1940.074062964877
 20
-901.425343236152
 30
0.0
 10
1940.025369399396
 20
-858.5003506435214
 30
0.0
 10
1940.025369399396
 20
-815.5683471972215
 30
0.0
  0
HATCH
  5
7B
330
70
100
AcDbEntity
  8
Layer 1
 62
    18
420
        0
440
 33554687
100
AcDbHatch
 10
0.0
 20
0.0
 30
0.0
210
0.0
220
0.0
230
1.0
  2
SOLID
 70
     1
 71
     1
 91
        2
 92
        1
 93
        1
 72
     4
 94
        3
 73
     0
 74
     0
 95
       53
 96
       49
 40
0.0
 40
0.0
 40
0.0
 40
0.0
 40
1.0
 40
1.0
 40
1.0
 40
2.0
 40
2.0
 40
2.0
 40
3.0
 40
3.0
 40
3.0
 40
4.0
 40
4.0
 40
4.0
 40
5.0
 40
5.0
 40
5.0
 40
6.0
 40
6.0
 40
6.0
 40
7.0
 40
7.0
 40
7.0
 40
8.0
 40
8.0
 40
8.0
 40
9.0
 40
9.0
 40
9.0
 40
10.0
 40
10.0
 40
10.0
 40
11.0
 40
11.0
 40
11.0
 40
12.0
 40
12.0
 40
12.0
 40
13.0
 40
13.0
 40
13.0
 40
14.0
 40
14.0
 40
14.0
 40
15.0
 40
15.0
 40
15.0
 40
16.0
 40
16.0
 40
16.0
 40
16.0
 10
1937.595789928
 20
-763.7255912279297
 10
1937.595789928
 20
-763.7255912279297
 10
1937.547096362514
 20
-763.7255912279297
 10
1937.547096362514
 20
-763.7255912279297
 10
1937.547096362514
 20
-823.1216709798728
 10
1937.540127998869
 20
-882.5177507318167
 10
1937.554064726164
 20
-941.9207563573854
 10
1937.554064726164
 20
-946.9330918303384
 10
1937.261648393143
 20
-951.8827970105167
 10
1935.493468607854
 20
-956.6514522059524
 10
1930.68988661414
 20
-969.6069149255409
 10
1918.263594631467
 20
-978.0512969644824
 10
1903.832198499525
 20
-978.0512969644824
 10
1826.565792666046
 20
-978.0443286008358
 10
1749.299386832568
 20
-978.0304343635634
 10
1672.039949362735
 20
-978.0164976362703
 10
1669.485024325746
 20
-978.0164976362703
 10
1666.9301842688
 20
-978.0791279290461
 10
1664.382227595453
 20
-977.9886666717084
 10
1646.198622579981
 20
-977.341203712891
 10
1632.519129881508
 20
-963.7104895599431
 10
1631.795184882669
 20
-945.5477471453878
 10
1631.760343064436
 20
-944.6218470708645
 10
1631.774279791729
 20
-943.6959894863639
 10
1631.774279791729
 20
-942.7631210481949
 10
1631.774279791729
 20
-823.3862138583081
 10
1631.795184882669
 20
-704.0092641784004
 10
1631.739437973496
 20
-584.6323569885144
 10
1631.739437973496
 20
-574.9001023756299
 10
1634.356993303263
 20
-566.3582482256806
 10
1641.360368728125
 20
-559.3688095281113
 10
1648.32193397111
 20
-552.435117739712
 10
1656.724505828173
 20
-549.3581602895419
 10
1666.498485642891
 20
-549.3651286531885
 10
1723.458060049814
 20
-549.4207056022723
 10
1780.42460282038
 20
-549.3929171277304
 10
1837.384007267214
 20
-549.3929171277304
 10
1859.661016044763
 20
-549.3929171277304
 10
1881.938024822313
 20
-549.302413380371
 10
1904.208150216262
 20
-549.427673965919
 10
1920.755719415596
 20
-549.5182626933237
 10
1933.850464428071
 20
-560.3365622745359
 10
1936.962263696472
 20
-576.1671548386784
 10
1937.797702513659
 20
-580.406639297199
 10
1937.581938180749
 20
-584.7158923722282
 10
1937.588821564352
 20
-589.0042403563192
 10
1937.595789928
 20
-647.244633993494
 10
1937.595789928
 20
-705.4851975907559
 10
1937.595789928
 20
-763.7255912279297
 97
        0
 97
        1
330
79
 92
        1
 93
        1
 72
     4
 94
        3
 73
     0
 74
     0
 95
       53
 96
       49
 40
0.0
 40
0.0
 40
0.0
 40
0.0
 40
1.0
 40
1.0
 40
1.0
 40
2.0
 40
2.0
 40
2.0
 40
3.0
 40
3.0
 40
3.0
 40
4.0
 40
4.0
 40
4.0
 40
5.0
 40
5.0
 40
5.0
 40
6.0
 40
6.0
 40
6.0
 40
7.0
 40
7.0
 40
7.0
 40
8.0
 40
8.0
 40
8.0
 40
9.0
 40
9.0
 40
9.0
 40
10.0
 40
10.0
 40
10.0
 40
11.0
 40
11.0
 40
11.0
 40
12.0
 40
12.0
 40
12.0
 40
13.0
 40
13.0
 40
13.0
 40
14.0
 40
14.0
 40
14.0
 40
15.0
 40
15.0
 40
15.0
 40
16.0
 40
16.0
 40
16.0
 40
16.0
 10
1940.025369399396
 20
-815.5683471972215
 10
1940.025369399396
 20
-737.7241620413924
 10
1940.046274490334
 20
-659.8730085219167
 10
1940.032337763043
 20
-582.0287383860422
 10
1940.032337763043
 20
-571.7186194707619
 10
1936.07813131381
 20
-563.1072516444365
 10
1928.538786748471
 20
-556.1108445832196
 10
1921.354488808931
 20
-549.4416106932122
 10
1912.715162547976
 20
-546.7683934343186
 10
1903.066443318803
 20
-546.7892985252574
 10
1882.996196336053
 20
-546.8240553634459
 10
1862.926034333344
 20
-546.8240553634459
 10
1842.855872330639
 20
-546.8240553634459
 10
1783.800859987175
 20
-546.8170869998003
 10
1724.745932623757
 20
-546.8032352525515
 10
1665.691005260338
 20
-546.796266888904
 10
1654.350588285901
 20
-546.796266888904
 10
1644.973380298814
 20
-551.1333084384768
 10
1637.545359591733
 20
-559.689014335674
 10
1631.273067489443
 20
-566.908239073492
 10
1629.191481300151
 20
-575.4222197688541
 10
1629.205418027444
 20
-584.8133644832369
 10
1629.288953411158
 20
-644.3347473107515
 10
1629.247143229278
 20
-703.8491617746185
 10
1629.247143229278
 20
-763.3635762384865
 10
1629.247143229278
 20
-813.0204330138994
 10
1629.233206501987
 20
-862.6772897893124
 10
1629.254111592925
 20
-912.3341040747027
 10
1629.254111592925
 20
-924.0434619122043
 10
1629.191481300151
 20
-935.7597881133525
 10
1629.428150724001
 20
-947.4691459508548
 10
1629.595221491429
 20
-955.6837844395714
 10
1632.950743527372
 20
-962.7219167026233
 10
1638.464248812586
 20
-968.771518598378
 10
1646.539732478484
 20
-977.6266516822651
 10
1656.738357575421
 20
-980.6758206578942
 10
1668.482599721177
 20
-980.6549155669545
 10
1741.453689206919
 20
-980.5365808550286
 10
1814.431747056305
 20
-980.627084602389
 10
1887.402921522089
 20
-980.5574434559476
 10
1895.394784824228
 20
-980.5435492186752
 10
1903.45633176283
 20
-981.3928397831096
 10
1911.378511428505
 20
-979.923959714446
 10
1928.420409546525
 20
-976.7494876632463
 10
1940.025369399396
 20
-962.297271420407
 10
1940.03930612669
 20
-944.3503783188052
 10
1940.074062964877
 20
-901.425343236152
 10
1940.025369399396
 20
-858.5003506435214
 10
1940.025369399396
 20
-815.5683471972215
 97
        0
 97
        1
330
7A
 75
     2
 76
     1
 98
        1
 10
0.0
 20
0.0
450
        0
451
        0
460
0.0
461
0.0
452
        0
462
0.0
453
        0
470

  0
SPLINE
  5
7C
330
70
100
AcDbEntity
  8
Layer 1
100
AcDbSpline
210
0.0
220
0.0
230
1.0
 70
     9
 71
     3
 72
    53
 73
    49
 74
     0
 42
0.0000000001
 43
0.0000000001
 40
0.0
 40
0.0
 40
0.0
 40
0.0
 40
1.0
 40
1.0
 40
1.0
 40
2.0
 40
2.0
 40
2.0
 40
3.0
 40
3.0
 40
3.0
 40
4.0
 40
4.0
 40
4.0
 40
5.0
 40
5.0
 40
5.0
 40
6.0
 40
6.0
 40
6.0
 40
7.0
 40
7.0
 40
7.0
 40
8.0
 40
8.0
 40
8.0
 40
9.0
 40
9.0
 40
9.0
 40
10.0
 40
10.0
 40
10.0
 40
11.0
 40
11.0
 40
11.0
 40
12.0
 40
12.0
 40
12.0
 40
13.0
 40
13.0
 40
13.0
 40
14.0
 40
14.0
 40
14.0
 40
15.0
 40
15.0
 40
15.0
 40
16.0
 40
16.0
 40
16.0
 40
16.0
 10
1937.595789928
 20
-763.7255912279297
 30
0.0
 10
1937.595789928
 20
-763.7255912279297
 30
0.0
 10
1937.547096362514
 20
-763.7255912279297
 30
0.0
 10
1937.547096362514
 20
-763.7255912279297
 30
0.0
 10
1937.547096362514
 20
-823.1216709798728
 30
0.0
 10
1937.540127998869
 20
-882.5177507318167
 30
0.0
 10
1937.554064726164
 20
-941.9207563573854
 30
0.0
 10
1937.554064726164
 20
-946.9330918303384
 30
0.0
 10
1937.261648393143
 20
-951.8827970105167
 30
0.0
 10
1935.493468607854
 20
-956.6514522059524
 30
0.0
 10
1930.68988661414
 20
-969.6069149255409
 30
0.0
 10
1918.263594631467
 20
-978.0512969644824
 30
0.0
 10
1903.832198499525
 20
-978.0512969644824
 30
0.0
 10
1826.565792666046
 20
-978.0443286008358
 30
0.0
 10
1749.299386832568
 20
-978.0304343635634
 30
0.0
 10
1672.039949362735
 20
-978.0164976362703
 30
0.0
 10
1669.485024325746
 20
-978.0164976362703
 30
0.0
 10
1666.9301842688
 20
-978.0791279290461
 30
0.0
 10
1664.382227595453
 20
-977.9886666717084
 30
0.0
 10
1646.198622579981
 20
-977.341203712891
 30
0.0
 10
1632.519129881508
 20
-963.7104895599431
 30
0.0
 10
1631.795184882669
 20
-945.5477471453878
 30
0.0
 10
1631.760343064436
 20
-944.6218470708645
 30
0.0
 10
1631.774279791729
 20
-943.6959894863639
 30
0.0
 10
1631.774279791729
 20
-942.7631210481949
 30
0.0
 10
1631.774279791729
 20
-823.3862138583081
 30
0.0
 10
1631.795184882669
 20
-704.0092641784004
 30
0.0
 10
1631.739437973496
 20
-584.6323569885144
 30
0.0
 10
1631.739437973496
 20
-574.9001023756299
 30
0.0
 10
1634.356993303263
 20
-566.3582482256806
 30
0.0
 10
1641.360368728125
 20
-559.3688095281113
 30
0.0
 10
1648.32193397111
 20
-552.435117739712
 30
0.0
 10
1656.724505828173
 20
-549.3581602895419
 30
0.0
 10
1666.498485642891
 20
-549.3651286531885
 30
0.0
 10
1723.458060049814
 20
-549.4207056022723
 30
0.0
 10
1780.42460282038
 20
-549.3929171277304
 30
0.0
 10
1837.384007267214
 20
-549.3929171277304
 30
0.0
 10
1859.661016044763
 20
-549.3929171277304
 30
0.0
 10
1881.938024822313
 20
-549.302413380371
 30
0.0
 10
1904.208150216262
 20
-549.427673965919
 30
0.0
 10
1920.755719415596
 20
-549.5182626933237
 30
0.0
 10
1933.850464428071
 20
-560.3365622745359
 30
0.0
 10
1936.962263696472
 20
-576.1671548386784
 30
0.0
 10
1937.797702513659
 20
-580.406639297199
 30
0.0
 10
1937.581938180749
 20
-584.7158923722282
 30
0.0
 10
1937.588821564352
 20
-589.0042403563192
 30
0.0
 10
1937.595789928
 20
-647.244633993494
 30
0.0
 10
1937.595789928
 20
-705.4851975907559
 30
0.0
 10
1937.595789928
 20
-763.7255912279297
 30
0.0
  0
SPLINE
  5
7D
330
70
100
AcDbEntity
  8
Layer 1
100
AcDbSpline
210
0.0
220
0.0
230
1.0
 70
     9
 71
     3
 72
    59
 73
    55
 74
     0
 42
0.0000000001
 43
0.0000000001
 40
0.0
 40
0.0
 40
0.0
 40
0.0
 40
1.0
 40
1.0
 40
1.0
 40
2.0
 40
2.0
 40
2.0
 40
3.0
 40
3.0
 40
3.0
 40
4.0
 40
4.0
 40
4.0
 40
5.0
 40
5.0
 40
5.0
 40
6.0
 40
6.0
 40
6.0
 40
7.0
 40
7.0
 40
7.0
 40
8.0
 40
8.0
 40
8.0
 40
9.0
 40
9.0
 40
9.0
 40
10.0
 40
10.0
 40
10.0
 40
11.0
 40
11.0
 40
11.0
 40
12.0
 40
12.0
 40
12.0
 40
13.0
 40
13.0
 40
13.0
 40
14.0
 40
14.0
 40
14.0
 40
15.0
 40
15.0
 40
15.0
 40
16.0
 40
16.0
 40
16.0
 40
17.0
 40
17.0
 40
17.0
 40
18.0
 40
18.0
 40
18.0
 40
18.0
 10
1677.574098127323
 20
-601.2227706911098
 30
0.0
 10
1677.574098127323
 20
-601.2227706911098
 30
0.0
 10
1677.574098127323
 20
-601.0176925661099
 30
0.0
 10
1677.574098127323
 20
-601.0176925661099
 30
0.0
 10
1684.418824689823
 20
-598.0484542848598
 30
0.0
 10
1687.841187971073
 20
-592.2125167848598
 30
0.0
 10
1687.841187971073
 20
-585.3526535036098
 30
0.0
 10
1687.841187971073
 20
-577.2642745973598
 30
0.0
 10
1682.878785627323
 20
-569.4830245973598
 30
0.0
 10
1671.927613752323
 20
-569.4830245973598
 30
0.0
 10
1665.938844221073
 20
-569.4830245973598
 30
0.0
 10
1660.291871564823
 20
-572.0425949098598
 30
0.0
 10
1657.383180158573
 20
-574.6021652223598
 30
0.0
 10
1657.383180158573
 20
-574.6021652223598
 30
0.0
 10
1659.350953596073
 20
-581.1548995973598
 30
0.0
 10
1659.350953596073
 20
-581.1548995973598
 30
0.0
 10
1661.746461408573
 20
-579.1070480348598
 30
0.0
 10
1666.024293439823
 20
-576.7520675661098
 30
0.0
 10
1670.473023908573
 20
-576.7520675661098
 30
0.0
 10
1677.403199689823
 20
-576.7520675661098
 30
0.0
 10
1680.226441877323
 20
-581.4620285036098
 30
0.0
 10
1680.226441877323
 20
-586.7862472536098
 30
0.0
 10
1680.226441877323
 20
-594.6700363161098
 30
0.0
 10
1673.296266096073
 20
-598.0484542848598
 30
0.0
 10
1667.820680158573
 20
-598.0484542848598
 30
0.0
 10
1667.820680158573
 20
-598.0484542848598
 30
0.0
 10
1663.628785627323
 20
-598.0484542848598
 30
0.0
 10
1663.628785627323
 20
-598.0484542848598
 30
0.0
 10
1663.628785627323
 20
-598.0484542848598
 30
0.0
 10
1663.628785627323
 20
-604.8062667848598
 30
0.0
 10
1663.628785627323
 20
-604.8062667848598
 30
0.0
 10
1663.628785627323
 20
-604.8062667848598
 30
0.0
 10
1667.820680158573
 20
-604.8062667848598
 30
0.0
 10
1667.820680158573
 20
-604.8062667848598
 30
0.0
 10
1675.093141096073
 20
-604.8062667848598
 30
0.0
 10
1682.108766096073
 20
-608.7994308473598
 30
0.0
 10
1682.194215314823
 20
-618.1163253786098
 30
0.0
 10
1682.279664533573
 20
-623.6451339723599
 30
0.0
 10
1679.285523908573
 20
-631.0172042848599
 30
0.0
 10
1669.617555158573
 20
-631.0172042848599
 30
0.0
 10
1664.398805158573
 20
-631.0172042848599
 30
0.0
 10
1659.436402814823
 20
-628.4576339723598
 30
0.0
 10
1657.297242658573
 20
-626.8194503786098
 30
0.0
 10
1657.297242658573
 20
-626.8194503786098
 30
0.0
 10
1655.244020002323
 20
-633.7813644411099
 30
0.0
 10
1655.244020002323
 20
-633.7813644411099
 30
0.0
 10
1657.981812971073
 20
-635.9317550661098
 30
0.0
 10
1663.457398908573
 20
-638.2867355348598
 30
0.0
 10
1669.703004377323
 20
-638.2867355348598
 30
0.0
 10
1683.049684064823
 20
-638.2867355348598
 30
0.0
 10
1689.979859846073
 20
-628.9693527223598
 30
0.0
 10
1689.979859846073
 20
-618.3214035036098
 30
0.0
 10
1689.979859846073
 20
-609.0040206911099
 30
0.0
 10
1684.418824689823
 20
-602.8609542848599
 30
0.0
 10
1677.574098127323
 20
-601.2227706911098
 30
0.0
  0
HATCH
  5
7E
330
70
100
AcDbEntity
  8
Layer 1
 62
   246
420
  8590872
440
 33554687
100
AcDbHatch
 10
0.0
 20
0.0
 30
0.0
210
0.0
220
0.0
230
1.0
  2
SOLID
 70
     1
 71
     1
 91
        1
 92
        1
 93
        1
 72
     4
 94
        3
 73
     0
 74
     0
 95
       59
 96
       55
 40
0.0
 40
0.0
 40
0.0
 40
0.0
 40
1.0
 40
1.0
 40
1.0
 40
2.0
 40
2.0
 40
2.0
 40
3.0
 40
3.0
 40
3.0
 40
4.0
 40
4.0
 40
4.0
 40
5.0
 40
5.0
 40
5.0
 40
6.0
 40
6.0
 40
6.0
 40
7.0
 40
7.0
 40
7.0
 40
8.0
 40
8.0
 40
8.0
 40
9.0
 40
9.0
 40
9.0
 40
10.0
 40
10.0
 40
10.0
 40
11.0
 40
11.0
 40
11.0
 40
12.0
 40
12.0
 40
12.0
 40
13.0
 40
13.0
 40
13.0
 40
14.0
 40
14.0
 40
14.0
 40
15.0
 40
15.0
 40
15.0
 40
16.0
 40
16.0
 40
16.0
 40
17.0
 40
17.0
 40
17.0
 40
18.0
 40
18.0
 40
18.0
 40
18.0
 10
1677.574098127323
 20
-601.2227706911098
 10
1677.574098127323
 20
-601.2227706911098
 10
1677.574098127323
 20
-601.0176925661099
 10
1677.574098127323
 20
-601.0176925661099
 10
1684.418824689823
 20
-598.0484542848598
 10
1687.841187971073
 20
-592.2125167848598
 10
1687.841187971073
 20
-585.3526535036098
 10
1687.841187971073
 20
-577.2642745973598
 10
1682.878785627323
 20
-569.4830245973598
 10
1671.927613752323
 20
-569.4830245973598
 10
1665.938844221073
 20
-569.4830245973598
 10
1660.291871564823
 20
-572.0425949098598
 10
1657.383180158573
 20
-574.6021652223598
 10
1657.383180158573
 20
-574.6021652223598
 10
1659.350953596073
 20
-581.1548995973598
 10
1659.350953596073
 20
-581.1548995973598
 10
1661.746461408573
 20
-579.1070480348598
 10
1666.024293439823
 20
-576.7520675661098
 10
1670.473023908573
 20
-576.7520675661098
 10
1677.403199689823
 20
-576.7520675661098
 10
1680.226441877323
 20
-581.4620285036098
 10
1680.226441877323
 20
-586.7862472536098
 10
1680.226441877323
 20
-594.6700363161098
 10
1673.296266096073
 20
-598.0484542848598
 10
1667.820680158573
 20
-598.0484542848598
 10
1667.820680158573
 20
-598.0484542848598
 10
1663.628785627323
 20
-598.0484542848598
 10
1663.628785627323
 20
-598.0484542848598
 10
1663.628785627323
 20
-598.0484542848598
 10
1663.628785627323
 20
-604.8062667848598
 10
1663.628785627323
 20
-604.8062667848598
 10
1663.628785627323
 20
-604.8062667848598
 10
1667.820680158573
 20
-604.8062667848598
 10
1667.820680158573
 20
-604.8062667848598
 10
1675.093141096073
 20
-604.8062667848598
 10
1682.108766096073
 20
-608.7994308473598
 10
1682.194215314823
 20
-618.1163253786098
 10
1682.279664533573
 20
-623.6451339723599
 10
1679.285523908573
 20
-631.0172042848599
 10
1669.617555158573
 20
-631.0172042848599
 10
1664.398805158573
 20
-631.0172042848599
 10
1659.436402814823
 20
-628.4576339723598
 10
1657.297242658573
 20
-626.8194503786098
 10
1657.297242658573
 20
-626.8194503786098
 10
1655.244020002323
 20
-633.7813644411099
 10
1655.244020002323
 20
-633.7813644411099
 10
1657.981812971073
 20
-635.9317550661098
 10
1663.457398908573
 20
-638.2867355348598
 10
1669.703004377323
 20
-638.2867355348598
 10
1683.049684064823
 20
-638.2867355348598
 10
1689.979859846073
 20
-628.9693527223598
 10
1689.979859846073
 20
-618.3214035036098
 10
1689.979859846073
 20
-609.0040206911099
 10
1684.418824689823
 20
-602.8609542848599
 10
1677.574098127323
 20
-601.2227706911098
 97
        0
 97
        1
330
7D
 75
     2
 76
     1
 98
        1
 10
0.0
 20
0.0
450
        0
451
        0
460
0.0
461
0.0
452
        0
462
0.0
453
        0
470

  0
SPLINE
  5
7F
330
70
100
AcDbEntity
  8
Layer 1
100
AcDbSpline
210
0.0
220
0.0
230
1.0
 70
     9
 71
     3
 72
    17
 73
    13
 74
     0
 42
0.0000000001
 43
0.0000000001
 40
0.0
 40
0.0
 40
0.0
 40
0.0
 40
1.0
 40
1.0
 40
1.0
 40
2.0
 40
2.0
 40
2.0
 40
3.0
 40
3.0
 40
3.0
 40
4.0
 40
4.0
 40
4.0
 40
4.0
 10
1777.527643220883
 20
-707.1186878699736
 30
0.0
 10
1776.896253871922
 20
-712.3609718273065
 30
0.0
 10
1777.221609352524
 20
-716.4660952278782
 30
0.0
 10
1784.522550930398
 20
-716.3770595236447
 30
0.0
 10
1791.238021378815
 20
-716.29516050654
 30
0.0
 10
1791.384973512013
 20
-712.5822160436573
 30
0.0
 10
1791.358529043431
 20
-707.6150126488855
 30
0.0
 10
1791.331061096465
 20
-702.4550426323266
 30
0.0
 10
1791.553667645532
 20
-698.176515714581
 30
0.0
 10
1784.170667996479
 20
-698.3048516057778
 30
0.0
 10
1777.461628864952
 20
-698.4214589878965
 30
0.0
 10
1776.924399527552
 20
-702.0409833864286
 30
0.0
 10
1777.527643220883
 20
-707.1186878699736
 30
0.0
  0
SPLINE
  5
80
330
70
100
AcDbEntity
  8
Layer 1
100
AcDbSpline
210
0.0
220
0.0
230
1.0
 70
     9
 71
     3
 72
    26
 73
    22
 74
     0
 42
0.0000000001
 43
0.0000000001
 40
0.0
 40
0.0
 40
0.0
 40
0.0
 40
1.0
 40
1.0
 40
1.0
 40
2.0
 40
2.0
 40
2.0
 40
3.0
 40
3.0
 40
3.0
 40
4.0
 40
4.0
 40
4.0
 40
5.0
 40
5.0
 40
5.0
 40
6.0
 40
6.0
 40
6.0
 40
7.0
 40
7.0
 40
7.0
 40
7.0
 10
1777.434050271671
 20
-738.5624196151011
 30
0.0
 10
1777.434050271671
 20
-743.0911593367737
 30
0.0
 10
1777.682354426715
 20
-747.6371875447029
 30
0.0
 10
1777.368630639668
 20
-752.1440884505336
 30
0.0
 10
1777.009583357045
 20
-757.3020875796573
 30
0.0
 10
1779.116676400688
 20
-759.0570210736032
 30
0.0
 10
1784.178122791755
 20
-758.9842987850052
 30
0.0
 10
1788.868101851672
 20
-758.9169013501732
 30
0.0
 10
1791.569227283165
 20
-757.9831017995757
 30
0.0
 10
1791.340825633502
 20
-752.4842152137944
 30
0.0
 10
1791.0153456758
 20
-744.6481050860829
 30
0.0
 10
1791.136793834073
 20
-736.7851355661214
 30
0.0
 10
1791.315321658576
 20
-728.9392885629486
 30
0.0
 10
1791.433547243007
 20
-723.7426600401258
 30
0.0
 10
1791.641036739691
 20
-719.8146191466066
 30
0.0
 10
1784.058223681854
 20
-719.9093047281503
 30
0.0
 10
1776.794542249566
 20
-719.9999793808792
 30
0.0
 10
1777.301164050892
 20
-723.9161811190078
 30
0.0
 10
1777.41012300669
 20
-728.5995075694127
 30
0.0
 10
1777.487354132505
 20
-731.9188001155753
 30
0.0
 10
1777.425087920395
 20
-735.2413290663662
 30
0.0
 10
1777.434050271671
 20
-738.5624196151011
 30
0.0
  0
SPLINE
  5
81
330
70
100
AcDbEntity
  8
Layer 1
100
AcDbSpline
210
0.0
220
0.0
230
1.0
 70
     9
 71
     3
 72
    26
 73
    22
 74
     0
 42
0.0000000001
 43
0.0000000001
 40
0.0
 40
0.0
 40
0.0
 40
0.0
 40
1.0
 40
1.0
 40
1.0
 40
2.0
 40
2.0
 40
2.0
 40
3.0
 40
3.0
 40
3.0
 40
4.0
 40
4.0
 40
4.0
 40
5.0
 40
5.0
 40
5.0
 40
6.0
 40
6.0
 40
6.0
 40
7.0
 40
7.0
 40
7.0
 40
7.0
 10
1777.429250987887
 20
-675.0158152977437
 30
0.0
 10
1777.429250987887
 20
-679.2171318358578
 30
0.0
 10
1777.657943084117
 20
-683.434194727256
 30
0.0
 10
1777.369930733834
 20
-687.6156709985407
 30
0.0
 10
1777.028932630868
 20
-692.5666508778085
 30
0.0
 10
1778.713218454564
 20
-694.5023804456532
 30
0.0
 10
1783.960605973041
 20
-694.4841514657419
 30
0.0
 10
1789.194259518035
 20
-694.4659639781985
 30
0.0
 10
1791.662031877402
 20
-693.2798078513778
 30
0.0
 10
1791.36886064282
 20
-687.4881027161336
 30
0.0
 10
1790.959759734782
 20
-679.4063854372352
 30
0.0
 10
1791.031721329986
 20
-671.2787637696237
 30
0.0
 10
1791.355845870365
 20
-663.1891421948084
 30
0.0
 10
1791.568245297147
 20
-657.8879287032114
 30
0.0
 10
1789.900805374458
 20
-655.5970590506395
 30
0.0
 10
1784.287496671223
 20
-655.5910530305118
 30
0.0
 10
1778.549171466153
 20
-655.5849121601932
 30
0.0
 10
1776.988975481424
 20
-658.149849270033
 30
0.0
 10
1777.371355305104
 20
-663.3163577920941
 30
0.0
 10
1777.658523977256
 20
-667.1963228630247
 30
0.0
 10
1777.4281030324
 20
-671.1145992195042
 30
0.0
 10
1777.429250987887
 20
-675.0158152977437
 30
0.0
  0
SPLINE
  5
82
330
70
100
AcDbEntity
  8
Layer 1
100
AcDbSpline
210
0.0
220
0.0
230
1.0
 70
     9
 71
     3
 72
    59
 73
    55
 74
     0
 42
0.0000000001
 43
0.0000000001
 40
0.0
 40
0.0
 40
0.0
 40
0.0
 40
1.0
 40
1.0
 40
1.0
 40
2.0
 40
2.0
 40
2.0
 40
3.0
 40
3.0
 40
3.0
 40
4.0
 40
4.0
 40
4.0
 40
5.0
 40
5.0
 40
5.0
 40
6.0
 40
6.0
 40
6.0
 40
7.0
 40
7.0
 40
7.0
 40
8.0
 40
8.0
 40
8.0
 40
9.0
 40
9.0
 40
9.0
 40
10.0
 40
10.0
 40
10.0
 40
11.0
 40
11.0
 40
11.0
 40
12.0
 40
12.0
 40
12.0
 40
13.0
 40
13.0
 40
13.0
 40
14.0
 40
14.0
 40
14.0
 40
15.0
 40
15.0
 40
15.0
 40
16.0
 40
16.0
 40
16.0
 40
17.0
 40
17.0
 40
17.0
 40
18.0
 40
18.0
 40
18.0
 40
18.0
 10
1785.373504054843
 20
-646.7891769411099
 30
0.0
 10
1790.363030343074
 20
-647.402935491783
 30
0.0
 10
1796.161643957425
 20
-647.5593236807826
 30
0.0
 10
1801.664043563616
 20
-648.9165735830147
 30
0.0
 10
1811.198463935077
 20
-651.2683782342564
 30
0.0
 10
1812.800760841543
 20
-657.8429406042696
 30
0.0
 10
1806.022609257345
 20
-664.6806060735634
 30
0.0
 10
1803.595623894758
 20
-667.1288977666145
 30
0.0
 10
1799.327442407189
 20
-668.0621095086799
 30
0.0
 10
1799.378242895213
 20
-672.604880565801
 30
0.0
 10
1799.462444738687
 20
-680.1359180649897
 30
0.0
 10
1799.303971558245
 20
-687.6800049136063
 30
0.0
 10
1799.729323643365
 20
-695.1913335384606
 30
0.0
 10
1799.880411182479
 20
-697.859756069347
 30
0.0
 10
1803.260960293155
 20
-698.1051280971215
 30
0.0
 10
1805.132404353695
 20
-699.501207939491
 30
0.0
 10
1811.619943399277
 20
-704.3408430518566
 30
0.0
 10
1812.085349449364
 20
-711.0840511476281
 30
0.0
 10
1805.102723480486
 20
-714.6476853277845
 30
0.0
 10
1799.473550862262
 20
-717.5205891587466
 30
0.0
 10
1799.12419896273
 20
-721.3407222364312
 30
0.0
 10
1799.284760592314
 20
-726.3490860592892
 30
0.0
 10
1799.582675787525
 20
-735.6421176702124
 30
0.0
 10
1797.220266378812
 20
-745.0575794254246
 30
0.0
 10
1807.390252997515
 20
-752.0488772990092
 30
0.0
 10
1813.308281644155
 20
-756.1171762238491
 30
0.0
 10
1810.452583314718
 20
-763.2120805378836
 30
0.0
 10
1802.710052305428
 20
-765.2374751108627
 30
0.0
 10
1790.864894352982
 20
-768.3360697568414
 30
0.0
 10
1778.855952197116
 20
-768.3532475967868
 30
0.0
 10
1766.930596414615
 20
-765.4689610264722
 30
0.0
 10
1763.457353356014
 20
-764.6289203945534
 30
0.0
 10
1759.602975244748
 20
-763.7654227444772
 30
0.0
 10
1758.857025470443
 20
-759.362847480128
 30
0.0
 10
1758.125065539218
 20
-755.0428005337826
 30
0.0
 10
1760.322632689151
 20
-751.9341785657734
 30
0.0
 10
1763.509751300167
 20
-749.2272856952641
 30
0.0
 10
1768.446513128336
 20
-745.0343851922617
 30
0.0
 10
1773.177223861878
 20
-722.0661609506396
 30
0.0
 10
1768.432903631954
 20
-718.8065067666739
 30
0.0
 10
1756.105728851826
 20
-710.3369050100727
 30
0.0
 10
1755.348458576718
 20
-704.2022032228515
 30
0.0
 10
1768.419591497533
 20
-695.8547065869997
 30
0.0
 10
1772.802036048486
 20
-693.0559772774822
 30
0.0
 10
1768.617164318499
 20
-669.7162718739209
 30
0.0
 10
1764.165538160936
 20
-665.9980025572722
 30
0.0
 10
1760.761953871168
 20
-663.155132284638
 30
0.0
 10
1758.06854601994
 20
-660.0138904007572
 30
0.0
 10
1758.835802124711
 20
-655.2515970605172
 30
0.0
 10
1759.70509487538
 20
-649.8560230109224
 30
0.0
 10
1764.545566750481
 20
-649.3050631577362
 30
0.0
 10
1768.453884938877
 20
-648.5098100783188
 30
0.0
 10
1773.731395915811
 20
-647.4359495851431
 30
0.0
 10
1779.212592922453
 20
-647.3630371231948
 30
0.0
 10
1785.373504054843
 20
-646.7891769411099
 30
0.0
  0
HATCH
  5
83
330
70
100
AcDbEntity
  8
Layer 1
 62
   118
420
  1005869
440
 33554687
100
AcDbHatch
 10
0.0
 20
0.0
 30
0.0
210
0.0
220
0.0
230
1.0
  2
SOLID
 70
     1
 71
     1
 91
        4
 92
        1
 93
        1
 72
     4
 94
        3
 73
     0
 74
     0
 95
       17
 96
       13
 40
0.0
 40
0.0
 40
0.0
 40
0.0
 40
1.0
 40
1.0
 40
1.0
 40
2.0
 40
2.0
 40
2.0
 40
3.0
 40
3.0
 40
3.0
 40
4.0
 40
4.0
 40
4.0
 40
4.0
 10
1777.527643220883
 20
-707.1186878699736
 10
1776.896253871922
 20
-712.3609718273065
 10
1777.221609352524
 20
-716.4660952278782
 10
1784.522550930398
 20
-716.3770595236447
 10
1791.238021378815
 20
-716.29516050654
 10
1791.384973512013
 20
-712.5822160436573
 10
1791.358529043431
 20
-707.6150126488855
 10
1791.331061096465
 20
-702.4550426323266
 10
1791.553667645532
 20
-698.176515714581
 10
1784.170667996479
 20
-698.3048516057778
 10
1777.461628864952
 20
-698.4214589878965
 10
1776.924399527552
 20
-702.0409833864286
 10
1777.527643220883
 20
-707.1186878699736
 97
        0
 97
        1
330
7F
 92
        1
 93
        1
 72
     4
 94
        3
 73
     0
 74
     0
 95
       26
 96
       22
 40
0.0
 40
0.0
 40
0.0
 40
0.0
 40
1.0
 40
1.0
 40
1.0
 40
2.0
 40
2.0
 40
2.0
 40
3.0
 40
3.0
 40
3.0
 40
4.0
 40
4.0
 40
4.0
 40
5.0
 40
5.0
 40
5.0
 40
6.0
 40
6.0
 40
6.0
 40
7.0
 40
7.0
 40
7.0
 40
7.0
 10
1777.434050271671
 20
-738.5624196151011
 10
1777.434050271671
 20
-743.0911593367737
 10
1777.682354426715
 20
-747.6371875447029
 10
1777.368630639668
 20
-752.1440884505336
 10
1777.009583357045
 20
-757.3020875796573
 10
1779.116676400688
 20
-759.0570210736032
 10
1784.178122791755
 20
-758.9842987850052
 10
1788.868101851672
 20
-758.9169013501732
 10
1791.569227283165
 20
-757.9831017995757
 10
1791.340825633502
 20
-752.4842152137944
 10
1791.0153456758
 20
-744.6481050860829
 10
1791.136793834073
 20
-736.7851355661214
 10
1791.315321658576
 20
-728.9392885629486
 10
1791.433547243007
 20
-723.7426600401258
 10
1791.641036739691
 20
-719.8146191466066
 10
1784.058223681854
 20
-719.9093047281503
 10
1776.794542249566
 20
-719.9999793808792
 10
1777.301164050892
 20
-723.9161811190078
 10
1777.41012300669
 20
-728.5995075694127
 10
1777.487354132505
 20
-731.9188001155753
 10
1777.425087920395
 20
-735.2413290663662
 10
1777.434050271671
 20
-738.5624196151011
 97
        0
 97
        1
330
80
 92
        1
 93
        1
 72
     4
 94
        3
 73
     0
 74
     0
 95
       26
 96
       22
 40
0.0
 40
0.0
 40
0.0
 40
0.0
 40
1.0
 40
1.0
 40
1.0
 40
2.0
 40
2.0
 40
2.0
 40
3.0
 40
3.0
 40
3.0
 40
4.0
 40
4.0
 40
4.0
 40
5.0
 40
5.0
 40
5.0
 40
6.0
 40
6.0
 40
6.0
 40
7.0
 40
7.0
 40
7.0
 40
7.0
 10
1777.429250987887
 20
-675.0158152977437
 10
1777.429250987887
 20
-679.2171318358578
 10
1777.657943084117
 20
-683.434194727256
 10
1777.369930733834
 20
-687.6156709985407
 10
1777.028932630868
 20
-692.5666508778085
 10
1778.713218454564
 20
-694.5023804456532
 10
1783.960605973041
 20
-694.4841514657419
 10
1789.194259518035
 20
-694.4659639781985
 10
1791.662031877402
 20
-693.2798078513778
 10
1791.36886064282
 20
-687.4881027161336
 10
1790.959759734782
 20
-679.4063854372352
 10
1791.031721329986
 20
-671.2787637696237
 10
1791.355845870365
 20
-663.1891421948084
 10
1791.568245297147
 20
-657.8879287032114
 10
1789.900805374458
 20
-655.5970590506395
 10
1784.287496671223
 20
-655.5910530305118
 10
1778.549171466153
 20
-655.5849121601932
 10
1776.988975481424
 20
-658.149849270033
 10
1777.371355305104
 20
-663.3163577920941
 10
1777.658523977256
 20
-667.1963228630247
 10
1777.4281030324
 20
-671.1145992195042
 10
1777.429250987887
 20
-675.0158152977437
 97
        0
 97
        1
330
81
 92
        1
 93
        1
 72
     4
 94
        3
 73
     0
 74
     0
 95
       59
 96
       55
 40
0.0
 40
0.0
 40
0.0
 40
0.0
 40
1.0
 40
1.0
 40
1.0
 40
2.0
 40
2.0
 40
2.0
 40
3.0
 40
3.0
 40
3.0
 40
4.0
 40
4.0
 40
4.0
 40
5.0
 40
5.0
 40
5.0
 40
6.0
 40
6.0
 40
6.0
 40
7.0
 40
7.0
 40
7.0
 40
8.0
 40
8.0
 40
8.0
 40
9.0
 40
9.0
 40
9.0
 40
10.0
 40
10.0
 40
10.0
 40
11.0
 40
11.0
 40
11.0
 40
12.0
 40
12.0
 40
12.0
 40
13.0
 40
13.0
 40
13.0
 40
14.0
 40
14.0
 40
14.0
 40
15.0
 40
15.0
 40
15.0
 40
16.0
 40
16.0
 40
16.0
 40
17.0
 40
17.0
 40
17.0
 40
18.0
 40
18.0
 40
18.0
 40
18.0
 10
1785.373504054843
 20
-646.7891769411099
 10
1790.363030343074
 20
-647.402935491783
 10
1796.161643957425
 20
-647.5593236807826
 10
1801.664043563616
 20
-648.9165735830147
 10
1811.198463935077
 20
-651.2683782342564
 10
1812.800760841543
 20
-657.8429406042696
 10
1806.022609257345
 20
-664.6806060735634
 10
1803.595623894758
 20
-667.1288977666145
 10
1799.327442407189
 20
-668.0621095086799
 10
1799.378242895213
 20
-672.604880565801
 10
1799.462444738687
 20
-680.1359180649897
 10
1799.303971558245
 20
-687.6800049136063
 10
1799.729323643365
 20
-695.1913335384606
 10
1799.880411182479
 20
-697.859756069347
 10
1803.260960293155
 20
-698.1051280971215
 10
1805.132404353695
 20
-699.501207939491
 10
1811.619943399277
 20
-704.3408430518566
 10
1812.085349449364
 20
-711.0840511476281
 10
1805.102723480486
 20
-714.6476853277845
 10
1799.473550862262
 20
-717.5205891587466
 10
1799.12419896273
 20
-721.3407222364312
 10
1799.284760592314
 20
-726.3490860592892
 10
1799.582675787525
 20
-735.6421176702124
 10
1797.220266378812
 20
-745.0575794254246
 10
1807.390252997515
 20
-752.0488772990092
 10
1813.308281644155
 20
-756.1171762238491
 10
1810.452583314718
 20
-763.2120805378836
 10
1802.710052305428
 20
-765.2374751108627
 10
1790.864894352982
 20
-768.3360697568414
 10
1778.855952197116
 20
-768.3532475967868
 10
1766.930596414615
 20
-765.4689610264722
 10
1763.457353356014
 20
-764.6289203945534
 10
1759.602975244748
 20
-763.7654227444772
 10
1758.857025470443
 20
-759.362847480128
 10
1758.125065539218
 20
-755.0428005337826
 10
1760.322632689151
 20
-751.9341785657734
 10
1763.509751300167
 20
-749.2272856952641
 10
1768.446513128336
 20
-745.0343851922617
 10
1773.177223861878
 20
-722.0661609506396
 10
1768.432903631954
 20
-718.8065067666739
 10
1756.105728851826
 20
-710.3369050100727
 10
1755.348458576718
 20
-704.2022032228515
 10
1768.419591497533
 20
-695.8547065869997
 10
1772.802036048486
 20
-693.0559772774822
 10
1768.617164318499
 20
-669.7162718739209
 10
1764.165538160936
 20
-665.9980025572722
 10
1760.761953871168
 20
-663.155132284638
 10
1758.06854601994
 20
-660.0138904007572
 10
1758.835802124711
 20
-655.2515970605172
 10
1759.70509487538
 20
-649.8560230109224
 10
1764.545566750481
 20
-649.3050631577362
 10
1768.453884938877
 20
-648.5098100783188
 10
1773.731395915811
 20
-647.4359495851431
 10
1779.212592922453
 20
-647.3630371231948
 10
1785.373504054843
 20
-646.7891769411099
 97
        0
 97
        1
330
82
 75
     2
 76
     1
 98
        1
 10
0.0
 20
0.0
450
        0
451
        0
460
0.0
461
0.0
452
        0
462
0.0
453
        0
470

  0
SPLINE
  5
84
330
70
100
AcDbEntity
  8
Layer 1
100
AcDbSpline
210
0.0
220
0.0
230
1.0
 70
     9
 71
     3
 72
    17
 73
    13
 74
     0
 42
0.0000000001
 43
0.0000000001
 40
0.0
 40
0.0
 40
0.0
 40
0.0
 40
1.0
 40
1.0
 40
1.0
 40
2.0
 40
2.0
 40
2.0
 40
3.0
 40
3.0
 40
3.0
 40
4.0
 40
4.0
 40
4.0
 40
4.0
 10
1696.595855586984
 20
-859.9551717450466
 30
0.0
 10
1697.551258830011
 20
-854.9925186798564
 30
0.0
 10
1696.733333629712
 20
-850.9585477733326
 30
0.0
 10
1689.698800709693
 20
-850.9740382570198
 30
0.0
 10
1683.192700745265
 20
-850.9883392928541
 30
0.0
 10
1682.706050603263
 20
-854.7761221550526
 30
0.0
 10
1682.823404847988
 20
-859.8510535654003
 30
0.0
 10
1682.940233522731
 20
-864.9033301433556
 30
0.0
 10
1682.387693501899
 20
-869.2743850395581
 30
0.0
 10
1689.964531658886
 20
-869.1376815210132
 30
0.0
 10
1696.747551680813
 20
-869.0152513767243
 30
0.0
 10
1697.245957993471
 20
-865.5248028165969
 30
0.0
 10
1696.595855586984
 20
-859.9551717450466
 30
0.0
  0
SPLINE
  5
85
330
70
100
AcDbEntity
  8
Layer 1
100
AcDbSpline
210
0.0
220
0.0
230
1.0
 70
     9
 71
     3
 72
    26
 73
    22
 74
     0
 42
0.0000000001
 43
0.0000000001
 40
0.0
 40
0.0
 40
0.0
 40
0.0
 40
1.0
 40
1.0
 40
1.0
 40
2.0
 40
2.0
 40
2.0
 40
3.0
 40
3.0
 40
3.0
 40
4.0
 40
4.0
 40
4.0
 40
5.0
 40
5.0
 40
5.0
 40
6.0
 40
6.0
 40
6.0
 40
7.0
 40
7.0
 40
7.0
 40
7.0
 10
1682.923608914343
 20
-828.2867450017102
 30
0.0
 10
1682.923608914343
 20
-832.8157613391622
 30
0.0
 10
1683.161498485266
 20
-837.3605586068716
 30
0.0
 10
1682.862421503776
 20
-841.8697554236759
 30
0.0
 10
1682.50178368042
 20
-847.306832213384
 30
0.0
 10
1685.729502572567
 20
-847.4872410251927
 30
0.0
 10
1689.742644310845
 20
-847.4274366935269
 30
0.0
 10
1693.585584359604
 20
-847.3702048886144
 30
0.0
 10
1696.979604658772
 20
-847.6136820982947
 30
0.0
 10
1696.803151452619
 20
-842.0395698511056
 30
0.0
 10
1696.535829962693
 20
-833.5940474981661
 30
0.0
 10
1696.514655024722
 20
-825.1246117110341
 30
0.0
 10
1696.83644216176
 20
-816.6823810858778
 30
0.0
 10
1697.045757322592
 20
-811.1912120803626
 30
0.0
 10
1695.843031910541
 20
-808.41862296207
 30
0.0
 10
1689.457550257044
 20
-808.4945263321406
 30
0.0
 10
1683.213529913508
 20
-808.5687561767409
 30
0.0
 10
1682.629331216642
 20
-811.7274594317432
 30
0.0
 10
1682.868756005142
 20
-816.5132028747439
 30
0.0
 10
1683.06462763906
 20
-820.4285885963217
 30
0.0
 10
1682.908630169848
 20
-824.361567081517
 30
0.0
 10
1682.923608914343
 20
-828.2867450017102
 30
0.0
  0
SPLINE
  5
86
330
70
100
AcDbEntity
  8
Layer 1
100
AcDbSpline
210
0.0
220
0.0
230
1.0
 70
     9
 71
     3
 72
    26
 73
    22
 74
     0
 42
0.0000000001
 43
0.0000000001
 40
0.0
 40
0.0
 40
0.0
 40
0.0
 40
1.0
 40
1.0
 40
1.0
 40
2.0
 40
2.0
 40
2.0
 40
3.0
 40
3.0
 40
3.0
 40
4.0
 40
4.0
 40
4.0
 40
5.0
 40
5.0
 40
5.0
 40
6.0
 40
6.0
 40
6.0
 40
7.0
 40
7.0
 40
7.0
 40
7.0
 10
1682.915697703032
 20
-891.8808373331231
 30
0.0
 10
1682.915697703032
 20
-896.3817909996796
 30
0.0
 10
1683.163752903872
 20
-900.89997782934
 30
0.0
 10
1682.852311197011
 20
-905.379300141889
 30
0.0
 10
1682.471286790656
 20
-910.8592800390971
 30
0.0
 10
1685.407466481327
 20
-911.8570331580649
 30
0.0
 10
1690.007808197686
 20
-911.9142649629758
 30
0.0
 10
1694.967335504561
 20
-911.9759779435254
 30
0.0
 10
1697.012909198702
 20
-910.1372575297746
 30
0.0
 10
1696.82487962215
 20
-905.02271473971
 30
0.0
 10
1696.527462335343
 20
-896.93197978638
 30
0.0
 10
1696.571568721487
 20
-888.8169026443957
 30
0.0
 10
1696.814492699606
 20
-880.7224333780332
 30
0.0
 10
1696.962164033834
 20
-875.8014663109115
 30
0.0
 10
1696.183283150903
 20
-873.1030517140617
 30
0.0
 10
1690.103959842865
 20
-873.0089193640797
 30
0.0
 10
1683.644524960546
 20
-872.9089227595595
 30
0.0
 10
1682.428950745507
 20
-875.6762423472419
 30
0.0
 10
1682.853818753014
 20
-881.082697770088
 30
0.0
 10
1683.135054016684
 20
-884.6613591025006
 30
0.0
 10
1682.907108783058
 20
-888.2800743998778
 30
0.0
 10
1682.915697703032
 20
-891.8808373331231
 30
0.0
  0
SPLINE
  5
87
330
70
100
AcDbEntity
  8
Layer 1
100
AcDbSpline
210
0.0
220
0.0
230
1.0
 70
     9
 71
     3
 72
    59
 73
    55
 74
     0
 42
0.0000000001
 43
0.0000000001
 40
0.0
 40
0.0
 40
0.0
 40
0.0
 40
1.0
 40
1.0
 40
1.0
 40
2.0
 40
2.0
 40
2.0
 40
3.0
 40
3.0
 40
3.0
 40
4.0
 40
4.0
 40
4.0
 40
5.0
 40
5.0
 40
5.0
 40
6.0
 40
6.0
 40
6.0
 40
7.0
 40
7.0
 40
7.0
 40
8.0
 40
8.0
 40
8.0
 40
9.0
 40
9.0
 40
9.0
 40
10.0
 40
10.0
 40
10.0
 40
11.0
 40
11.0
 40
11.0
 40
12.0
 40
12.0
 40
12.0
 40
13.0
 40
13.0
 40
13.0
 40
14.0
 40
14.0
 40
14.0
 40
15.0
 40
15.0
 40
15.0
 40
16.0
 40
16.0
 40
16.0
 40
17.0
 40
17.0
 40
17.0
 40
18.0
 40
18.0
 40
18.0
 40
18.0
 10
1689.975679274825
 20
-920.2157534791959
 30
0.0
 10
1683.967418560705
 20
-919.7510666301369
 30
0.0
 10
1677.892216827787
 20
-920.0121642650119
 30
0.0
 10
1672.036841655352
 20
-918.0964340180716
 30
0.0
 10
1668.847952703341
 20
-917.0531222801146
 30
0.0
 10
1665.374322382649
 20
-916.3420537556849
 30
0.0
 10
1664.454305213294
 20
-912.5332757557735
 30
0.0
 10
1663.502069220951
 20
-908.5911966114135
 30
0.0
 10
1665.010738601231
 20
-904.81030148214
 30
0.0
 10
1668.360299829137
 20
-903.1296116635839
 30
0.0
 10
1677.047127957883
 20
-898.7708938311762
 30
0.0
 10
1674.65258271091
 20
-891.0610864686759
 30
0.0
 10
1674.795627646217
 20
-884.1424555605362
 30
0.0
 10
1674.934046182597
 20
-877.4471365717008
 30
0.0
 10
1676.203601967132
 20
-870.9172061578138
 30
0.0
 10
1667.751599889543
 20
-866.6540590774429
 30
0.0
 10
1661.691452970464
 20
-863.5973440605793
 30
0.0
 10
1662.753629904624
 20
-856.6370548159476
 30
0.0
 10
1668.443180832262
 20
-853.4517134613169
 30
0.0
 10
1674.325449973923
 20
-850.1584642908538
 30
0.0
 10
1675.198815891956
 20
-845.976642249845
 30
0.0
 10
1674.921301110527
 20
-840.1801585769998
 30
0.0
 10
1674.487290951489
 20
-831.1149477226017
 30
0.0
 10
1676.568430519559
 20
-821.9761709014738
 30
0.0
 10
1666.738999418578
 20
-815.2927048988194
 30
0.0
 10
1661.316610926795
 20
-811.6057761500597
 30
0.0
 10
1663.43975460108
 20
-804.8629207394087
 30
0.0
 10
1669.945391234076
 20
-802.8550359453138
 30
0.0
 10
1682.937688657552
 20
-798.8451444424509
 30
0.0
 10
1696.211912884148
 20
-798.9115322296847
 30
0.0
 10
1709.232328301674
 20
-802.672981269613
 30
0.0
 10
1716.577445419638
 20
-804.794914749862
 30
0.0
 10
1718.333900300375
 20
-811.7107656694114
 30
0.0
 10
1712.021140935476
 20
-816.3927505332821
 30
0.0
 10
1700.043428701186
 20
-825.2761971585513
 30
0.0
 10
1706.205059034608
 20
-837.2215315157728
 30
0.0
 10
1705.14308956228
 20
-847.9148890212892
 30
0.0
 10
1704.85767740033
 20
-850.7888439922162
 30
0.0
 10
1708.403020362026
 20
-851.0664832507437
 30
0.0
 10
1710.246636875085
 20
-852.4600735510912
 30
0.0
 10
1717.377681040796
 20
-857.8504852586902
 30
0.0
 10
1717.680188057957
 20
-863.7389160168551
 30
0.0
 10
1710.056892280696
 20
-868.1547826694405
 30
0.0
 10
1705.534929645638
 20
-870.7741404763247
 30
0.0
 10
1704.57745178426
 20
-873.7586311129954
 30
0.0
 10
1704.739991216671
 20
-878.3260555515207
 30
0.0
 10
1705.092289074259
 20
-888.2246129359591
 30
0.0
 10
1702.555667047214
 20
-898.3315173259997
 30
0.0
 10
1713.262813849369
 20
-905.7588446538202
 30
0.0
 10
1718.188123784241
 20
-909.1754368006487
 30
0.0
 10
1715.988170823204
 20
-915.1532697789544
 30
0.0
 10
1709.6462284935
 20
-917.5292333608931
 30
0.0
 10
1703.306499090037
 20
-919.9043670954916
 30
0.0
 10
1696.603600828827
 20
-919.8134988117153
 30
0.0
 10
1689.975679274825
 20
-920.2157534791959
 30
0.0
  0
HATCH
  5
88
330
70
100
AcDbEntity
  8
Layer 1
 62
   118
420
  1005869
440
 33554687
100
AcDbHatch
 10
0.0
 20
0.0
 30
0.0
210
0.0
220
0.0
230
1.0
  2
SOLID
 70
     1
 71
     1
 91
        4
 92
        1
 93
        1
 72
     4
 94
        3
 73
     0
 74
     0
 95
       17
 96
       13
 40
0.0
 40
0.0
 40
0.0
 40
0.0
 40
1.0
 40
1.0
 40
1.0
 40
2.0
 40
2.0
 40
2.0
 40
3.0
 40
3.0
 40
3.0
 40
4.0
 40
4.0
 40
4.0
 40
4.0
 10
1696.595855586984
 20
-859.9551717450466
 10
1697.551258830011
 20
-854.9925186798564
 10
1696.733333629712
 20
-850.9585477733326
 10
1689.698800709693
 20
-850.9740382570198
 10
1683.192700745265
 20
-850.9883392928541
 10
1682.706050603263
 20
-854.7761221550526
 10
1682.823404847988
 20
-859.8510535654003
 10
1682.940233522731
 20
-864.9033301433556
 10
1682.387693501899
 20
-869.2743850395581
 10
1689.964531658886
 20
-869.1376815210132
 10
1696.747551680813
 20
-869.0152513767243
 10
1697.245957993471
 20
-865.5248028165969
 10
1696.595855586984
 20
-859.9551717450466
 97
        0
 97
        1
330
84
 92
        1
 93
        1
 72
     4
 94
        3
 73
     0
 74
     0
 95
       26
 96
       22
 40
0.0
 40
0.0
 40
0.0
 40
0.0
 40
1.0
 40
1.0
 40
1.0
 40
2.0
 40
2.0
 40
2.0
 40
3.0
 40
3.0
 40
3.0
 40
4.0
 40
4.0
 40
4.0
 40
5.0
 40
5.0
 40
5.0
 40
6.0
 40
6.0
 40
6.0
 40
7.0
 40
7.0
 40
7.0
 40
7.0
 10
1682.923608914343
 20
-828.2867450017102
 10
1682.923608914343
 20
-832.8157613391622
 10
1683.161498485266
 20
-837.3605586068716
 10
1682.862421503776
 20
-841.8697554236759
 10
1682.50178368042
 20
-847.306832213384
 10
1685.729502572567
 20
-847.4872410251927
 10
1689.742644310845
 20
-847.4274366935269
 10
1693.585584359604
 20
-847.3702048886144
 10
1696.979604658772
 20
-847.6136820982947
 10
1696.803151452619
 20
-842.0395698511056
 10
1696.535829962693
 20
-833.5940474981661
 10
1696.514655024722
 20
-825.1246117110341
 10
1696.83644216176
 20
-816.6823810858778
 10
1697.045757322592
 20
-811.1912120803626
 10
1695.843031910541
 20
-808.41862296207
 10
1689.457550257044
 20
-808.4945263321406
 10
1683.213529913508
 20
-808.5687561767409
 10
1682.629331216642
 20
-811.7274594317432
 10
1682.868756005142
 20
-816.5132028747439
 10
1683.06462763906
 20
-820.4285885963217
 10
1682.908630169848
 20
-824.361567081517
 10
1682.923608914343
 20
-828.2867450017102
 97
        0
 97
        1
330
85
 92
        1
 93
        1
 72
     4
 94
        3
 73
     0
 74
     0
 95
       26
 96
       22
 40
0.0
 40
0.0
 40
0.0
 40
0.0
 40
1.0
 40
1.0
 40
1.0
 40
2.0
 40
2.0
 40
2.0
 40
3.0
 40
3.0
 40
3.0
 40
4.0
 40
4.0
 40
4.0
 40
5.0
 40
5.0
 40
5.0
 40
6.0
 40
6.0
 40
6.0
 40
7.0
 40
7.0
 40
7.0
 40
7.0
 10
1682.915697703032
 20
-891.8808373331231
 10
1682.915697703032
 20
-896.3817909996796
 10
1683.163752903872
 20
-900.89997782934
 10
1682.852311197011
 20
-905.379300141889
 10
1682.471286790656
 20
-910.8592800390971
 10
1685.407466481327
 20
-911.8570331580649
 10
1690.007808197686
 20
-911.9142649629758
 10
1694.967335504561
 20
-911.9759779435254
 10
1697.012909198702
 20
-910.1372575297746
 10
1696.82487962215
 20
-905.02271473971
 10
1696.527462335343
 20
-896.93197978638
 10
1696.571568721487
 20
-888.8169026443957
 10
1696.814492699606
 20
-880.7224333780332
 10
1696.962164033834
 20
-875.8014663109115
 10
1696.183283150903
 20
-873.1030517140617
 10
1690.103959842865
 20
-873.0089193640797
 10
1683.644524960546
 20
-872.9089227595595
 10
1682.428950745507
 20
-875.6762423472419
 10
1682.853818753014
 20
-881.082697770088
 10
1683.135054016684
 20
-884.6613591025006
 10
1682.907108783058
 20
-888.2800743998778
 10
1682.915697703032
 20
-891.8808373331231
 97
        0
 97
        1
330
86
 92
        1
 93
        1
 72
     4
 94
        3
 73
     0
 74
     0
 95
       59
 96
       55
 40
0.0
 40
0.0
 40
0.0
 40
0.0
 40
1.0
 40
1.0
 40
1.0
 40
2.0
 40
2.0
 40
2.0
 40
3.0
 40
3.0
 40
3.0
 40
4.0
 40
4.0
 40
4.0
 40
5.0
 40
5.0
 40
5.0
 40
6.0
 40
6.0
 40
6.0
 40
7.0
 40
7.0
 40
7.0
 40
8.0
 40
8.0
 40
8.0
 40
9.0
 40
9.0
 40
9.0
 40
10.0
 40
10.0
 40
10.0
 40
11.0
 40
11.0
 40
11.0
 40
12.0
 40
12.0
 40
12.0
 40
13.0
 40
13.0
 40
13.0
 40
14.0
 40
14.0
 40
14.0
 40
15.0
 40
15.0
 40
15.0
 40
16.0
 40
16.0
 40
16.0
 40
17.0
 40
17.0
 40
17.0
 40
18.0
 40
18.0
 40
18.0
 40
18.0
 10
1689.975679274825
 20
-920.2157534791959
 10
1683.967418560705
 20
-919.7510666301369
 10
1677.892216827787
 20
-920.0121642650119
 10
1672.036841655352
 20
-918.0964340180716
 10
1668.847952703341
 20
-917.0531222801146
 10
1665.374322382649
 20
-916.3420537556849
 10
1664.454305213294
 20
-912.5332757557735
 10
1663.502069220951
 20
-908.5911966114135
 10
1665.010738601231
 20
-904.81030148214
 10
1668.360299829137
 20
-903.1296116635839
 10
1677.047127957883
 20
-898.7708938311762
 10
1674.65258271091
 20
-891.0610864686759
 10
1674.795627646217
 20
-884.1424555605362
 10
1674.934046182597
 20
-877.4471365717008
 10
1676.203601967132
 20
-870.9172061578138
 10
1667.751599889543
 20
-866.6540590774429
 10
1661.691452970464
 20
-863.5973440605793
 10
1662.753629904624
 20
-856.6370548159476
 10
1668.443180832262
 20
-853.4517134613169
 10
1674.325449973923
 20
-850.1584642908538
 10
1675.198815891956
 20
-845.976642249845
 10
1674.921301110527
 20
-840.1801585769998
 10
1674.487290951489
 20
-831.1149477226017
 10
1676.568430519559
 20
-821.9761709014738
 10
1666.738999418578
 20
-815.2927048988194
 10
1661.316610926795
 20
-811.6057761500597
 10
1663.43975460108
 20
-804.8629207394087
 10
1669.945391234076
 20
-802.8550359453138
 10
1682.937688657552
 20
-798.8451444424509
 10
1696.211912884148
 20
-798.9115322296847
 10
1709.232328301674
 20
-802.672981269613
 10
1716.577445419638
 20
-804.794914749862
 10
1718.333900300375
 20
-811.7107656694114
 10
1712.021140935476
 20
-816.3927505332821
 10
1700.043428701186
 20
-825.2761971585513
 10
1706.205059034608
 20
-837.2215315157728
 10
1705.14308956228
 20
-847.9148890212892
 10
1704.85767740033
 20
-850.7888439922162
 10
1708.403020362026
 20
-851.0664832507437
 10
1710.246636875085
 20
-852.4600735510912
 10
1717.377681040796
 20
-857.8504852586902
 10
1717.680188057957
 20
-863.7389160168551
 10
1710.056892280696
 20
-868.1547826694405
 10
1705.534929645638
 20
-870.7741404763247
 10
1704.57745178426
 20
-873.7586311129954
 10
1704.739991216671
 20
-878.3260555515207
 10
1705.092289074259
 20
-888.2246129359591
 10
1702.555667047214
 20
-898.3315173259997
 10
1713.262813849369
 20
-905.7588446538202
 10
1718.188123784241
 20
-909.1754368006487
 10
1715.988170823204
 20
-915.1532697789544
 10
1709.6462284935
 20
-917.5292333608931
 10
1703.306499090037
 20
-919.9043670954916
 10
1696.603600828827
 20
-919.8134988117153
 10
1689.975679274825
 20
-920.2157534791959
 97
        0
 97
        1
330
87
 75
     2
 76
     1
 98
        1
 10
0.0
 20
0.0
450
        0
451
        0
460
0.0
461
0.0
452
        0
462
0.0
453
        0
470

  0
SPLINE
  5
89
330
70
100
AcDbEntity
  8
Layer 1
100
AcDbSpline
210
0.0
220
0.0
230
1.0
 70
     9
 71
     3
 72
    17
 73
    13
 74
     0
 42
0.0000000001
 43
0.0000000001
 40
0.0
 40
0.0
 40
0.0
 40
0.0
 40
1.0
 40
1.0
 40
1.0
 40
2.0
 40
2.0
 40
2.0
 40
3.0
 40
3.0
 40
3.0
 40
4.0
 40
4.0
 40
4.0
 40
4.0
 10
1886.247717887452
 20
-859.9551717450466
 30
0.0
 10
1887.20312113048
 20
-854.9925186798564
 30
0.0
 10
1886.385195930181
 20
-850.9585477733326
 30
0.0
 10
1879.350663010162
 20
-850.9740382570198
 30
0.0
 10
1872.844563045734
 20
-850.9883392928541
 30
0.0
 10
1872.357912903731
 20
-854.7761221550526
 30
0.0
 10
1872.475267148456
 20
-859.8510535654003
 30
0.0
 10
1872.592095823198
 20
-864.9033301433556
 30
0.0
 10
1872.039555802366
 20
-869.2743850395581
 30
0.0
 10
1879.616393959353
 20
-869.1376815210132
 30
0.0
 10
1886.39941398128
 20
-869.0152513767243
 30
0.0
 10
1886.897820293938
 20
-865.5248028165969
 30
0.0
 10
1886.247717887452
 20
-859.9551717450466
 30
0.0
  0
SPLINE
  5
8A
330
70
100
AcDbEntity
  8
Layer 1
100
AcDbSpline
210
0.0
220
0.0
230
1.0
 70
     9
 71
     3
 72
    26
 73
    22
 74
     0
 42
0.0000000001
 43
0.0000000001
 40
0.0
 40
0.0
 40
0.0
 40
0.0
 40
1.0
 40
1.0
 40
1.0
 40
2.0
 40
2.0
 40
2.0
 40
3.0
 40
3.0
 40
3.0
 40
4.0
 40
4.0
 40
4.0
 40
5.0
 40
5.0
 40
5.0
 40
6.0
 40
6.0
 40
6.0
 40
7.0
 40
7.0
 40
7.0
 40
7.0
 10
1872.575471214812
 20
-828.2867450017102
 30
0.0
 10
1872.575471214812
 20
-832.8157613391622
 30
0.0
 10
1872.813360785732
 20
-837.3605586068716
 30
0.0
 10
1872.514283804244
 20
-841.8697554236759
 30
0.0
 10
1872.153645980887
 20
-847.306832213384
 30
0.0
 10
1875.381364873035
 20
-847.4872410251927
 30
0.0
 10
1879.394506611314
 20
-847.4274366935269
 30
0.0
 10
1883.237446660072
 20
-847.3702048886144
 30
0.0
 10
1886.631466959241
 20
-847.6136820982947
 30
0.0
 10
1886.455013753088
 20
-842.0395698511056
 30
0.0
 10
1886.18769226316
 20
-833.5940474981661
 30
0.0
 10
1886.16651732519
 20
-825.1246117110341
 30
0.0
 10
1886.488304462229
 20
-816.6823810858778
 30
0.0
 10
1886.69761962306
 20
-811.1912120803626
 30
0.0
 10
1885.494894211009
 20
-808.41862296207
 30
0.0
 10
1879.109412557513
 20
-808.4945263321406
 30
0.0
 10
1872.865392213977
 20
-808.5687561767409
 30
0.0
 10
1872.281193517108
 20
-811.7274594317432
 30
0.0
 10
1872.520618305609
 20
-816.5132028747439
 30
0.0
 10
1872.716489939526
 20
-820.4285885963217
 30
0.0
 10
1872.560492470316
 20
-824.361567081517
 30
0.0
 10
1872.575471214812
 20
-828.2867450017102
 30
0.0
  0
SPLINE
  5
8B
330
70
100
AcDbEntity
  8
Layer 1
100
AcDbSpline
210
0.0
220
0.0
230
1.0
 70
     9
 71
     3
 72
    26
 73
    22
 74
     0
 42
0.0000000001
 43
0.0000000001
 40
0.0
 40
0.0
 40
0.0
 40
0.0
 40
1.0
 40
1.0
 40
1.0
 40
2.0
 40
2.0
 40
2.0
 40
3.0
 40
3.0
 40
3.0
 40
4.0
 40
4.0
 40
4.0
 40
5.0
 40
5.0
 40
5.0
 40
6.0
 40
6.0
 40
6.0
 40
7.0
 40
7.0
 40
7.0
 40
7.0
 10
1872.567560003499
 20
-891.8808373331231
 30
0.0
 10
1872.567560003499
 20
-896.3817909996796
 30
0.0
 10
1872.815615204341
 20
-900.89997782934
 30
0.0
 10
1872.50417349748
 20
-905.379300141889
 30
0.0
 10
1872.123149091125
 20
-910.8592800390971
 30
0.0
 10
1875.059328781795
 20
-911.8570331580649
 30
0.0
 10
1879.659670498156
 20
-911.9142649629758
 30
0.0
 10
1884.61919780503
 20
-911.9759779435254
 30
0.0
 10
1886.66477149917
 20
-910.1372575297746
 30
0.0
 10
1886.476741922619
 20
-905.02271473971
 30
0.0
 10
1886.179324635812
 20
-896.93197978638
 30
0.0
 10
1886.223431021955
 20
-888.8169026443957
 30
0.0
 10
1886.466355000075
 20
-880.7224333780332
 30
0.0
 10
1886.6140263343
 20
-875.8014663109115
 30
0.0
 10
1885.835145451372
 20
-873.1030517140617
 30
0.0
 10
1879.755822143332
 20
-873.0089193640797
 30
0.0
 10
1873.296387261014
 20
-872.9089227595595
 30
0.0
 10
1872.080813045974
 20
-875.6762423472419
 30
0.0
 10
1872.50568105348
 20
-881.082697770088
 30
0.0
 10
1872.786916317152
 20
-884.6613591025006
 30
0.0
 10
1872.558971083526
 20
-888.2800743998778
 30
0.0
 10
1872.567560003499
 20
-891.8808373331231
 30
0.0
  0
SPLINE
  5
8C
330
70
100
AcDbEntity
  8
Layer 1
100
AcDbSpline
210
0.0
220
0.0
230
1.0
 70
     9
 71
     3
 72
    59
 73
    55
 74
     0
 42
0.0000000001
 43
0.0000000001
 40
0.0
 40
0.0
 40
0.0
 40
0.0
 40
1.0
 40
1.0
 40
1.0
 40
2.0
 40
2.0
 40
2.0
 40
3.0
 40
3.0
 40
3.0
 40
4.0
 40
4.0
 40
4.0
 40
5.0
 40
5.0
 40
5.0
 40
6.0
 40
6.0
 40
6.0
 40
7.0
 40
7.0
 40
7.0
 40
8.0
 40
8.0
 40
8.0
 40
9.0
 40
9.0
 40
9.0
 40
10.0
 40
10.0
 40
10.0
 40
11.0
 40
11.0
 40
11.0
 40
12.0
 40
12.0
 40
12.0
 40
13.0
 40
13.0
 40
13.0
 40
14.0
 40
14.0
 40
14.0
 40
15.0
 40
15.0
 40
15.0
 40
16.0
 40
16.0
 40
16.0
 40
17.0
 40
17.0
 40
17.0
 40
18.0
 40
18.0
 40
18.0
 40
18.0
 10
1879.627541575291
 20
-920.2157534791959
 30
0.0
 10
1873.619280861172
 20
-919.7510666301369
 30
0.0
 10
1867.544079128256
 20
-920.0121642650119
 30
0.0
 10
1861.68870395582
 20
-918.0964340180716
 30
0.0
 10
1858.499815003808
 20
-917.0531222801146
 30
0.0
 10
1855.026184683116
 20
-916.3420537556849
 30
0.0
 10
1854.106167513762
 20
-912.5332757557735
 30
0.0
 10
1853.15393152142
 20
-908.5911966114135
 30
0.0
 10
1854.6626009017
 20
-904.81030148214
 30
0.0
 10
1858.012162129604
 20
-903.1296116635839
 30
0.0
 10
1866.69899025835
 20
-898.7708938311762
 30
0.0
 10
1864.304445011379
 20
-891.0610864686759
 30
0.0
 10
1864.447489946684
 20
-884.1424555605362
 30
0.0
 10
1864.585908483066
 20
-877.4471365717008
 30
0.0
 10
1865.855464267601
 20
-870.9172061578138
 30
0.0
 10
1857.403462190012
 20
-866.6540590774429
 30
0.0
 10
1851.343315270931
 20
-863.5973440605793
 30
0.0
 10
1852.405492205093
 20
-856.6370548159476
 30
0.0
 10
1858.095043132731
 20
-853.4517134613169
 30
0.0
 10
1863.97731227439
 20
-850.1584642908538
 30
0.0
 10
1864.850678192422
 20
-845.976642249845
 30
0.0
 10
1864.573163410998
 20
-840.1801585769998
 30
0.0
 10
1864.139153251955
 20
-831.1149477226017
 30
0.0
 10
1866.220292820027
 20
-821.9761709014738
 30
0.0
 10
1856.390861719046
 20
-815.2927048988194
 30
0.0
 10
1850.968473227261
 20
-811.6057761500597
 30
0.0
 10
1853.091616901547
 20
-804.8629207394087
 30
0.0
 10
1859.597253534544
 20
-802.8550359453138
 30
0.0
 10
1872.58955095802
 20
-798.8451444424509
 30
0.0
 10
1885.863775184616
 20
-798.9115322296847
 30
0.0
 10
1898.884190602142
 20
-802.672981269613
 30
0.0
 10
1906.229307720106
 20
-804.794914749862
 30
0.0
 10
1907.985762600843
 20
-811.7107656694114
 30
0.0
 10
1901.673003235945
 20
-816.3927505332821
 30
0.0
 10
1889.695291001655
 20
-825.2761971585513
 30
0.0
 10
1895.856921335075
 20
-837.2215315157728
 30
0.0
 10
1894.79495186275
 20
-847.9148890212892
 30
0.0
 10
1894.509539700799
 20
-850.7888439922162
 30
0.0
 10
1898.054882662495
 20
-851.0664832507437
 30
0.0
 10
1899.898499175552
 20
-852.4600735510912
 30
0.0
 10
1907.029543341263
 20
-857.8504852586902
 30
0.0
 10
1907.332050358425
 20
-863.7389160168551
 30
0.0
 10
1899.708754581163
 20
-868.1547826694405
 30
0.0
 10
1895.186791946107
 20
-870.7741404763247
 30
0.0
 10
1894.229314084727
 20
-873.7586311129954
 30
0.0
 10
1894.391853517138
 20
-878.3260555515207
 30
0.0
 10
1894.744151374725
 20
-888.2246129359591
 30
0.0
 10
1892.207529347681
 20
-898.3315173259997
 30
0.0
 10
1902.914676149838
 20
-905.7588446538202
 30
0.0
 10
1907.839986084707
 20
-909.1754368006487
 30
0.0
 10
1905.640033123671
 20
-915.1532697789544
 30
0.0
 10
1899.298090793967
 20
-917.5292333608931
 30
0.0
 10
1892.958361390505
 20
-919.9043670954916
 30
0.0
 10
1886.255463129295
 20
-919.8134988117153
 30
0.0
 10
1879.627541575291
 20
-920.2157534791959
 30
0.0
  0
HATCH
  5
8D
330
70
100
AcDbEntity
  8
Layer 1
 62
   118
420
  1005869
440
 33554687
100
AcDbHatch
 10
0.0
 20
0.0
 30
0.0
210
0.0
220
0.0
230
1.0
  2
SOLID
 70
     1
 71
     1
 91
        4
 92
        1
 93
        1
 72
     4
 94
        3
 73
     0
 74
     0
 95
       17
 96
       13
 40
0.0
 40
0.0
 40
0.0
 40
0.0
 40
1.0
 40
1.0
 40
1.0
 40
2.0
 40
2.0
 40
2.0
 40
3.0
 40
3.0
 40
3.0
 40
4.0
 40
4.0
 40
4.0
 40
4.0
 10
1886.247717887452
 20
-859.9551717450466
 10
1887.20312113048
 20
-854.9925186798564
 10
1886.385195930181
 20
-850.9585477733326
 10
1879.350663010162
 20
-850.9740382570198
 10
1872.844563045734
 20
-850.9883392928541
 10
1872.357912903731
 20
-854.7761221550526
 10
1872.475267148456
 20
-859.8510535654003
 10
1872.592095823198
 20
-864.9033301433556
 10
1872.039555802366
 20
-869.2743850395581
 10
1879.616393959353
 20
-869.1376815210132
 10
1886.39941398128
 20
-869.0152513767243
 10
1886.897820293938
 20
-865.5248028165969
 10
1886.247717887452
 20
-859.9551717450466
 97
        0
 97
        1
330
89
 92
        1
 93
        1
 72
     4
 94
        3
 73
     0
 74
     0
 95
       26
 96
       22
 40
0.0
 40
0.0
 40
0.0
 40
0.0
 40
1.0
 40
1.0
 40
1.0
 40
2.0
 40
2.0
 40
2.0
 40
3.0
 40
3.0
 40
3.0
 40
4.0
 40
4.0
 40
4.0
 40
5.0
 40
5.0
 40
5.0
 40
6.0
 40
6.0
 40
6.0
 40
7.0
 40
7.0
 40
7.0
 40
7.0
 10
1872.575471214812
 20
-828.2867450017102
 10
1872.575471214812
 20
-832.8157613391622
 10
1872.813360785732
 20
-837.3605586068716
 10
1872.514283804244
 20
-841.8697554236759
 10
1872.153645980887
 20
-847.306832213384
 10
1875.381364873035
 20
-847.4872410251927
 10
1879.394506611314
 20
-847.4274366935269
 10
1883.237446660072
 20
-847.3702048886144
 10
1886.631466959241
 20
-847.6136820982947
 10
1886.455013753088
 20
-842.0395698511056
 10
1886.18769226316
 20
-833.5940474981661
 10
1886.16651732519
 20
-825.1246117110341
 10
1886.488304462229
 20
-816.6823810858778
 10
1886.69761962306
 20
-811.1912120803626
 10
1885.494894211009
 20
-808.41862296207
 10
1879.109412557513
 20
-808.4945263321406
 10
1872.865392213977
 20
-808.5687561767409
 10
1872.281193517108
 20
-811.7274594317432
 10
1872.520618305609
 20
-816.5132028747439
 10
1872.716489939526
 20
-820.4285885963217
 10
1872.560492470316
 20
-824.361567081517
 10
1872.575471214812
 20
-828.2867450017102
 97
        0
 97
        1
330
8A
 92
        1
 93
        1
 72
     4
 94
        3
 73
     0
 74
     0
 95
       26
 96
       22
 40
0.0
 40
0.0
 40
0.0
 40
0.0
 40
1.0
 40
1.0
 40
1.0
 40
2.0
 40
2.0
 40
2.0
 40
3.0
 40
3.0
 40
3.0
 40
4.0
 40
4.0
 40
4.0
 40
5.0
 40
5.0
 40
5.0
 40
6.0
 40
6.0
 40
6.0
 40
7.0
 40
7.0
 40
7.0
 40
7.0
 10
1872.567560003499
 20
-891.8808373331231
 10
1872.567560003499
 20
-896.3817909996796
 10
1872.815615204341
 20
-900.89997782934
 10
1872.50417349748
 20
-905.379300141889
 10
1872.123149091125
 20
-910.8592800390971
 10
1875.059328781795
 20
-911.8570331580649
 10
1879.659670498156
 20
-911.9142649629758
 10
1884.61919780503
 20
-911.9759779435254
 10
1886.66477149917
 20
-910.1372575297746
 10
1886.476741922619
 20
-905.02271473971
 10
1886.179324635812
 20
-896.93197978638
 10
1886.223431021955
 20
-888.8169026443957
 10
1886.466355000075
 20
-880.7224333780332
 10
1886.6140263343
 20
-875.8014663109115
 10
1885.835145451372
 20
-873.1030517140617
 10
1879.755822143332
 20
-873.0089193640797
 10
1873.296387261014
 20
-872.9089227595595
 10
1872.080813045974
 20
-875.6762423472419
 10
1872.50568105348
 20
-881.082697770088
 10
1872.786916317152
 20
-884.6613591025006
 10
1872.558971083526
 20
-888.2800743998778
 10
1872.567560003499
 20
-891.8808373331231
 97
        0
 97
        1
330
8B
 92
        1
 93
        1
 72
     4
 94
        3
 73
     0
 74
     0
 95
       59
 96
       55
 40
0.0
 40
0.0
 40
0.0
 40
0.0
 40
1.0
 40
1.0
 40
1.0
 40
2.0
 40
2.0
 40
2.0
 40
3.0
 40
3.0
 40
3.0
 40
4.0
 40
4.0
 40
4.0
 40
5.0
 40
5.0
 40
5.0
 40
6.0
 40
6.0
 40
6.0
 40
7.0
 40
7.0
 40
7.0
 40
8.0
 40
8.0
 40
8.0
 40
9.0
 40
9.0
 40
9.0
 40
10.0
 40
10.0
 40
10.0
 40
11.0
 40
11.0
 40
11.0
 40
12.0
 40
12.0
 40
12.0
 40
13.0
 40
13.0
 40
13.0
 40
14.0
 40
14.0
 40
14.0
 40
15.0
 40
15.0
 40
15.0
 40
16.0
 40
16.0
 40
16.0
 40
17.0
 40
17.0
 40
17.0
 40
18.0
 40
18.0
 40
18.0
 40
18.0
 10
1879.627541575291
 20
-920.2157534791959
 10
1873.619280861172
 20
-919.7510666301369
 10
1867.544079128256
 20
-920.0121642650119
 10
1861.68870395582
 20
-918.0964340180716
 10
1858.499815003808
 20
-917.0531222801146
 10
1855.026184683116
 20
-916.3420537556849
 10
1854.106167513762
 20
-912.5332757557735
 10
1853.15393152142
 20
-908.5911966114135
 10
1854.6626009017
 20
-904.81030148214
 10
1858.012162129604
 20
-903.1296116635839
 10
1866.69899025835
 20
-898.7708938311762
 10
1864.304445011379
 20
-891.0610864686759
 10
1864.447489946684
 20
-884.1424555605362
 10
1864.585908483066
 20
-877.4471365717008
 10
1865.855464267601
 20
-870.9172061578138
 10
1857.403462190012
 20
-866.6540590774429
 10
1851.343315270931
 20
-863.5973440605793
 10
1852.405492205093
 20
-856.6370548159476
 10
1858.095043132731
 20
-853.4517134613169
 10
1863.97731227439
 20
-850.1584642908538
 10
1864.850678192422
 20
-845.976642249845
 10
1864.573163410998
 20
-840.1801585769998
 10
1864.139153251955
 20
-831.1149477226017
 10
1866.220292820027
 20
-821.9761709014738
 10
1856.390861719046
 20
-815.2927048988194
 10
1850.968473227261
 20
-811.6057761500597
 10
1853.091616901547
 20
-804.8629207394087
 10
1859.597253534544
 20
-802.8550359453138
 10
1872.58955095802
 20
-798.8451444424509
 10
1885.863775184616
 20
-798.9115322296847
 10
1898.884190602142
 20
-802.672981269613
 10
1906.229307720106
 20
-804.794914749862
 10
1907.985762600843
 20
-811.7107656694114
 10
1901.673003235945
 20
-816.3927505332821
 10
1889.695291001655
 20
-825.2761971585513
 10
1895.856921335075
 20
-837.2215315157728
 10
1894.79495186275
 20
-847.9148890212892
 10
1894.509539700799
 20
-850.7888439922162
 10
1898.054882662495
 20
-851.0664832507437
 10
1899.898499175552
 20
-852.4600735510912
 10
1907.029543341263
 20
-857.8504852586902
 10
1907.332050358425
 20
-863.7389160168551
 10
1899.708754581163
 20
-868.1547826694405
 10
1895.186791946107
 20
-870.7741404763247
 10
1894.229314084727
 20
-873.7586311129954
 10
1894.391853517138
 20
-878.3260555515207
 10
1894.744151374725
 20
-888.2246129359591
 10
1892.207529347681
 20
-898.3315173259997
 10
1902.914676149838
 20
-905.7588446538202
 10
1907.839986084707
 20
-909.1754368006487
 10
1905.640033123671
 20
-915.1532697789544
 10
1899.298090793967
 20
-917.5292333608931
 10
1892.958361390505
 20
-919.9043670954916
 10
1886.255463129295
 20
-919.8134988117153
 10
1879.627541575291
 20
-920.2157534791959
 97
        0
 97
        1
330
8C
 75
     2
 76
     1
 98
        1
 10
0.0
 20
0.0
450
        0
451
        0
460
0.0
461
0.0
452
        0
462
0.0
453
        0
470

  0
ENDSEC
  0
SECTION
  2
OBJECTS
  0
DICTIONARY
  5
C
330
0
100
AcDbDictionary
281
     1
  3
ACAD_COLOR
350
63
  3
ACAD_DETAILVIEWSTYLE
350
6A
  3
ACAD_GROUP
350
D
  3
ACAD_LAYOUT
350
62
  3
ACAD_MATERIAL
350
10
  3
ACAD_MLEADERSTYLE
350
66
  3
ACAD_MLINESTYLE
350
5F
  3
ACAD_PLOTSETTINGS
350
61
  3
ACAD_PLOTSTYLENAME
350
E
  3
ACAD_SCALELIST
350
42
  3
ACAD_SECTIONVIEWSTYLE
350
68
  3
ACAD_TABLESTYLE
350
64
  3
ACAD_VISUALSTYLE
350
29
  3
ACDB_RECOMPOSE_DATA
350
96
  3
AcDbVariableDictionary
350
8E
  0
DICTIONARY
  5
63
102
{ACAD_REACTORS
330
C
102
}
330
C
100
AcDbDictionary
281
     1
  0
DICTIONARY
  5
6A
102
{ACAD_REACTORS
330
C
102
}
330
C
100
AcDbDictionary
281
     1
  3
Imperial24
350
6B
  0
DICTIONARY
  5
D
102
{ACAD_REACTORS
330
C
102
}
330
C
100
AcDbDictionary
281
     1
  0
DICTIONARY
  5
62
102
{ACAD_REACTORS
330
C
102
}
330
C
100
AcDbDictionary
281
     1
  3
Layout1
350
6F
  3
Layout2
350
77
  3
Model
350
73
  0
DICTIONARY
  5
10
102
{ACAD_REACTORS
330
C
102
}
330
C
100
AcDbDictionary
281
     1
  3
ByBlock
350
19
  3
ByLayer
350
11
  3
Global
350
21
  0
DICTIONARY
  5
66
102
{ACAD_REACTORS
330
C
102
}
330
C
100
AcDbDictionary
281
     1
  3
Standard
350
67
  0
DICTIONARY
  5
5F
102
{ACAD_REACTORS
330
C
102
}
330
C
100
AcDbDictionary
281
     1
  3
Standard
350
60
  0
DICTIONARY
  5
61
102
{ACAD_REACTORS
330
C
102
}
330
C
100
AcDbDictionary
281
     1
  0
ACDBDICTIONARYWDFLT
  5
E
102
{ACAD_REACTORS
330
C
102
}
330
C
100
AcDbDictionary
281
     1
  3
Normal
350
F
100
AcDbDictionaryWithDefault
340
F
  0
DICTIONARY
  5
42
102
{ACAD_REACTORS
330
C
102
}
330
C
100
AcDbDictionary
281
     1
  3
A0
350
43
  3
A1
350
44
  3
A2
350
45
  3
A3
350
46
  3
A4
350
47
  3
A5
350
48
  3
A6
350
49
  3
A7
350
4A
  3
A8
350
4B
  3
A9
350
4C
  3
B0
350
4D
  3
B1
350
4E
  3
B2
350
4F
  3
B3
350
50
  3
B4
350
51
  3
B5
350
52
  3
B6
350
53
  0
DICTIONARY
  5
68
102
{ACAD_REACTORS
330
C
102
}
330
C
100
AcDbDictionary
281
     1
  3
Imperial24
350
69
  0
DICTIONARY
  5
64
102
{ACAD_REACTORS
330
C
102
}
330
C
100
AcDbDictionary
281
     1
  3
Standard
350
65
  0
DICTIONARY
  5
29
102
{ACAD_REACTORS
330
C
102
}
330
C
100
AcDbDictionary
281
     1
  3
2dWireframe
350
2F
  3
Basic
350
2E
  3
Brighten
350
35
  3
ColorChange
350
39
  3
Conceptual
350
32
  3
Dim
350
34
  3
EdgeColorOff
350
41
  3
Facepattern
350
38
  3
Flat
350
2A
  3
FlatWithEdges
350
2B
  3
Gouraud
350
2C
  3
GouraudWithEdges
350
2D
  3
Hidden
350
31
  3
JitterOff
350
3F
  3
Linepattern
350
37
  3
OverhangOff
350
40
  3
Realistic
350
33
  3
Shaded
350
3E
  3
Shaded with edges
350
3D
  3
Shades of Gray
350
3A
  3
Sketchy
350
3B
  3
Thicken
350
36
  3
Wireframe
350
30
  3
X-Ray
350
3C
  0
XRECORD
  5
96
102
{ACAD_REACTORS
330
C
102
}
330
C
100
AcDbXrecord
280
     1
 90
        1
330
65
  0
DICTIONARY
  5
8E
102
{ACAD_REACTORS
330
C
102
}
330
C
100
AcDbDictionary
281
     1
  3
CANNOSCALE
350
93
  3
CMLEADERSTYLE
350
90
  3
CTABLESTYLE
350
8F
  3
CVIEWDETAILSTYLE
350
91
  3
CVIEWSECTIONSTYLE
350
92
  0
ACDBDETAILVIEWSTYLE
  5
6B
102
{ACAD_REACTORS
330
6A
102
}
330
6A
100
AcDbModelDocViewStyle
 70
     0
  3
Imperial24
290
     1
300
Imperial24
 90
        0
100
AcDbDetailViewStyle
 70
     0
 71
     0
 90
        3
 71
     1
340
55
 62
   256
 40
0.24
340
0
 62
   256
 40
0.24
300

 40
0.36
280
     3
 71
     2
340
5D
 90
       25
 62
   256
 71
     3
340
55
 62
   256
 40
0.24
 90
        1
 40
0.75
 90
        1
300
%<\AcVar ViewType \f "%tc1">% %<\AcVar ViewDetailId>%\PSCALE %<\AcVar ViewScale \f "%sn">%
 71
     4
340
5D
 90
       25
 62
   256
340
5D
 90
       25
 62
   256
280
     0
  0
LAYOUT
  5
6F
102
{ACAD_REACTORS
330
62
102
}
330
62
100
AcDbPlotSettings
  1

  2

  4

  6

 40
0.0
 41
0.0
 42
0.0
 43
0.0
 44
0.0
 45
0.0
 46
0.0
 47
0.0
 48
0.0
 49
0.0
140
0.0
141
0.0
142
1.0
143
1.0
 70
   688
 72
     0
 73
     0
 74
     5
  7

 75
    16
147
1.0
 76
     0
 77
     2
 78
   300
148
0.0
149
0.0
100
AcDbLayout
  1
Layout1
 70
     1
 71
     1
 10
0.0
 20
0.0
 11
12.0
 21
9.0
 12
0.0
 22
0.0
 32
0.0
 14
0.0
 24
0.0
 34
0.0
 15
0.0
 25
0.0
 35
0.0
146
0.0
 13
0.0
 23
0.0
 33
0.0
 16
1.0
 26
0.0
 36
0.0
 17
0.0
 27
1.0
 37
0.0
 76
     0
330
6C
  0
LAYOUT
  5
77
102
{ACAD_REACTORS
330
62
102
}
330
62
100
AcDbPlotSettings
  1

  2

  4

  6

 40
0.0
 41
0.0
 42
0.0
 43
0.0
 44
0.0
 45
0.0
 46
0.0
 47
0.0
 48
0.0
 49
0.0
140
0.0
141
0.0
142
1.0
143
1.0
 70
   688
 72
     0
 73
     0
 74
     5
  7

 75
    16
147
1.0
 76
     0
 77
     2
 78
   300
148
0.0
149
0.0
100
AcDbLayout
  1
Layout2
 70
     1
 71
     2
 10
0.0
 20
0.0
 11
12.0
 21
9.0
 12
0.0
 22
0.0
 32
0.0
 14
0.0
 24
0.0
 34
0.0
 15
0.0
 25
0.0
 35
0.0
146
0.0
 13
0.0
 23
0.0
 33
0.0
 16
1.0
 26
0.0
 36
0.0
 17
0.0
 27
1.0
 37
0.0
 76
     0
330
74
  0
LAYOUT
  5
73
102
{ACAD_REACTORS
330
62
102
}
330
62
100
AcDbPlotSettings
  1

  2

  4

  6

 40
0.0
 41
0.0
 42
0.0
 43
0.0
 44
0.0
 45
0.0
 46
0.0
 47
0.0
 48
0.0
 49
0.0
140
0.0
141
0.0
142
1.0
143
1.0
 70
  1712
 72
     0
 73
     0
 74
     0
  7

 75
     0
147
1.0
 76
     0
 77
     2
 78
   300
148
0.0
149
0.0
100
AcDbLayout
  1
Model
 70
     1
 71
     0
 10
0.0
 20
0.0
 11
12.0
 21
9.0
 12
0.0
 22
0.0
 32
0.0
 14
0.0
 24
0.0
 34
0.0
 15
0.0
 25
0.0
 35
0.0
146
0.0
 13
0.0
 23
0.0
 33
0.0
 16
1.0
 26
0.0
 36
0.0
 17
0.0
 27
1.0
 37
0.0
 76
     0
330
70
  0
MATERIAL
  5
19
102
{ACAD_XDICTIONARY
360
1A
102
}
102
{ACAD_REACTORS
330
10
102
}
330
10
100
AcDbMaterial
  1
ByBlock
 72
     0
 43
0.0208333333333333
 43
0.0
 43
0.0
 43
0.0
 43
0.0
 43
0.0208333333333333
 43
0.0
 43
0.0
 43
0.0
 43
0.0
 43
1.0
 43
0.0
 43
0.0
 43
0.0
 43
0.0
 43
1.0
 77
     0
 47
0.0208333333333333
 47
0.0
 47
0.0
 47
0.0
 47
0.0
 47
0.0208333333333333
 47
0.0
 47
0.0
 47
0.0
 47
0.0
 47
1.0
 47
0.0
 47
0.0
 47
0.0
 47
0.0
 47
1.0
171
     0
 49
0.0208333333333333
 49
0.0
 49
0.0
 49
0.0
 49
0.0
 49
0.0208333333333333
 49
0.0
 49
0.0
 49
0.0
 49
0.0
 49
1.0
 49
0.0
 49
0.0
 49
0.0
 49
0.0
 49
1.0
175
     0
142
0.0208333333333333
142
0.0
142
0.0
142
0.0
142
0.0
142
0.0208333333333333
142
0.0
142
0.0
142
0.0
142
0.0
142
1.0
142
0.0
142
0.0
142
0.0
142
0.0
142
1.0
179
     0
144
0.0208333333333333
144
0.0
144
0.0
144
0.0
144
0.0
144
0.0208333333333333
144
0.0
144
0.0
144
0.0
144
0.0
144
1.0
144
0.0
144
0.0
144
0.0
144
0.0
144
1.0
147
0.0208333333333333
147
0.0
147
0.0
147
0.0
147
0.0
147
0.0208333333333333
147
0.0
147
0.0
147
0.0
147
0.0
147
1.0
147
0.0
147
0.0
147
0.0
147
0.0
147
1.0
  0
MATERIAL
  5
11
102
{ACAD_XDICTIONARY
360
12
102
}
102
{ACAD_REACTORS
330
10
102
}
330
10
100
AcDbMaterial
  1
ByLayer
 72
     0
 43
0.0208333333333333
 43
0.0
 43
0.0
 43
0.0
 43
0.0
 43
0.0208333333333333
 43
0.0
 43
0.0
 43
0.0
 43
0.0
 43
1.0
 43
0.0
 43
0.0
 43
0.0
 43
0.0
 43
1.0
 77
     0
 47
0.0208333333333333
 47
0.0
 47
0.0
 47
0.0
 47
0.0
 47
0.0208333333333333
 47
0.0
 47
0.0
 47
0.0
 47
0.0
 47
1.0
 47
0.0
 47
0.0
 47
0.0
 47
0.0
 47
1.0
171
     0
 49
0.0208333333333333
 49
0.0
 49
0.0
 49
0.0
 49
0.0
 49
0.0208333333333333
 49
0.0
 49
0.0
 49
0.0
 49
0.0
 49
1.0
 49
0.0
 49
0.0
 49
0.0
 49
0.0
 49
1.0
175
     0
142
0.0208333333333333
142
0.0
142
0.0
142
0.0
142
0.0
142
0.0208333333333333
142
0.0
142
0.0
142
0.0
142
0.0
142
1.0
142
0.0
142
0.0
142
0.0
142
0.0
142
1.0
179
     0
144
0.0208333333333333
144
0.0
144
0.0
144
0.0
144
0.0
144
0.0208333333333333
144
0.0
144
0.0
144
0.0
144
0.0
144
1.0
144
0.0
144
0.0
144
0.0
144
0.0
144
1.0
147
0.0208333333333333
147
0.0
147
0.0
147
0.0
147
0.0
147
0.0208333333333333
147
0.0
147
0.0
147
0.0
147
0.0
147
1.0
147
0.0
147
0.0
147
0.0
147
0.0
147
1.0
  0
MATERIAL
  5
21
102
{ACAD_XDICTIONARY
360
22
102
}
102
{ACAD_REACTORS
330
10
102
}
330
10
100
AcDbMaterial
  1
Global
 72
     0
 43
0.0208333333333333
 43
0.0
 43
0.0
 43
0.0
 43
0.0
 43
0.0208333333333333
 43
0.0
 43
0.0
 43
0.0
 43
0.0
 43
1.0
 43
0.0
 43
0.0
 43
0.0
 43
0.0
 43
1.0
 77
     0
 47
0.0208333333333333
 47
0.0
 47
0.0
 47
0.0
 47
0.0
 47
0.0208333333333333
 47
0.0
 47
0.0
 47
0.0
 47
0.0
 47
1.0
 47
0.0
 47
0.0
 47
0.0
 47
0.0
 47
1.0
171
     0
 49
0.0208333333333333
 49
0.0
 49
0.0
 49
0.0
 49
0.0
 49
0.0208333333333333
 49
0.0
 49
0.0
 49
0.0
 49
0.0
 49
1.0
 49
0.0
 49
0.0
 49
0.0
 49
0.0
 49
1.0
175
     0
142
0.0208333333333333
142
0.0
142
0.0
142
0.0
142
0.0
142
0.0208333333333333
142
0.0
142
0.0
142
0.0
142
0.0
142
1.0
142
0.0
142
0.0
142
0.0
142
0.0
142
1.0
179
     0
144
0.0208333333333333
144
0.0
144
0.0
144
0.0
144
0.0
144
0.0208333333333333
144
0.0
144
0.0
144
0.0
144
0.0
144
1.0
144
0.0
144
0.0
144
0.0
144
0.0
144
1.0
147
0.0208333333333333
147
0.0
147
0.0
147
0.0
147
0.0
147
0.0208333333333333
147
0.0
147
0.0
147
0.0
147
0.0
147
1.0
147
0.0
147
0.0
147
0.0
147
0.0
147
1.0
  0
MLEADERSTYLE
  5
67
102
{ACAD_REACTORS
330
66
102
}
330
66
100
AcDbMLeaderStyle
179
     2
170
     2
171
     1
172
     0
 90
        2
 40
0.0
 41
0.0
173
     1
 91
-1056964608
340
5B
 92
       -2
290
     1
 42
0.09
291
     1
 43
0.36
  3
Standard
 44
0.18
300

342
55
174
     1
178
     6
175
     1
176
     0
 93
-1056964608
 45
0.18
292
     0
297
     0
 46
0.18
 94
-1056964608
 47
1.0
 49
1.0
140
1.0
293
     1
141
0.0
294
     1
177
     0
142
1.0
295
     1
296
     0
143
0.125
271
     0
272
     9
273
     9
298
     1
  0
MLINESTYLE
  5
60
102
{ACAD_REACTORS
330
5F
102
}
330
5F
100
AcDbMlineStyle
  2
STANDARD
 70
     0
  3

 62
   256
 51
90.0
 52
90.0
 71
     2
 49
0.5
 62
   256
  6
BYLAYER
 49
-0.5
 62
   256
  6
BYLAYER
  0
ACDBPLACEHOLDER
  5
F
102
{ACAD_REACTORS
330
E
102
}
330
E
  0
SCALE
  5
43
102
{ACAD_REACTORS
330
42
102
}
330
42
100
AcDbScale
 70
     0
300
1:1
140
1.0
141
1.0
290
     1
  0
SCALE
  5
44
102
{ACAD_REACTORS
330
42
102
}
330
42
100
AcDbScale
 70
     0
300
1/128" = 1'-0"
140
0.0078125
141
12.0
290
     0
  0
SCALE
  5
45
102
{ACAD_REACTORS
330
42
102
}
330
42
100
AcDbScale
 70
     0
300
1/64" = 1'-0"
140
0.015625
141
12.0
290
     0
  0
SCALE
  5
46
102
{ACAD_REACTORS
330
42
102
}
330
42
100
AcDbScale
 70
     0
300
1/32" = 1'-0"
140
0.03125
141
12.0
290
     0
  0
SCALE
  5
47
102
{ACAD_REACTORS
330
42
102
}
330
42
100
AcDbScale
 70
     0
300
1/16" = 1'-0"
140
0.0625
141
12.0
290
     0
  0
SCALE
  5
48
102
{ACAD_REACTORS
330
42
102
}
330
42
100
AcDbScale
 70
     0
300
3/32" = 1'-0"
140
0.09375
141
12.0
290
     0
  0
SCALE
  5
49
102
{ACAD_REACTORS
330
42
102
}
330
42
100
AcDbScale
 70
     0
300
1/8" = 1'-0"
140
0.125
141
12.0
290
     0
  0
SCALE
  5
4A
102
{ACAD_REACTORS
330
42
102
}
330
42
100
AcDbScale
 70
     0
300
3/16" = 1'-0"
140
0.1875
141
12.0
290
     0
  0
SCALE
  5
4B
102
{ACAD_REACTORS
330
42
102
}
330
42
100
AcDbScale
 70
     0
300
1/4" = 1'-0"
140
0.25
141
12.0
290
     0
  0
SCALE
  5
4C
102
{ACAD_REACTORS
330
42
102
}
330
42
100
AcDbScale
 70
     0
300
3/8" = 1'-0"
140
0.375
141
12.0
290
     0
  0
SCALE
  5
4D
102
{ACAD_REACTORS
330
42
102
}
330
42
100
AcDbScale
 70
     0
300
1/2" = 1'-0"
140
0.5
141
12.0
290
     0
  0
SCALE
  5
4E
102
{ACAD_REACTORS
330
42
102
}
330
42
100
AcDbScale
 70
     0
300
3/4" = 1'-0"
140
0.75
141
12.0
290
     0
  0
SCALE
  5
4F
102
{ACAD_REACTORS
330
42
102
}
330
42
100
AcDbScale
 70
     0
300
1" = 1'-0"
140
1.0
141
12.0
290
     0
  0
SCALE
  5
50
102
{ACAD_REACTORS
330
42
102
}
330
42
100
AcDbScale
 70
     0
300
1-1/2" = 1'-0"
140
1.5
141
12.0
290
     0
  0
SCALE
  5
51
102
{ACAD_REACTORS
330
42
102
}
330
42
100
AcDbScale
 70
     0
300
3" = 1'-0"
140
3.0
141
12.0
290
     0
  0
SCALE
  5
52
102
{ACAD_REACTORS
330
42
102
}
330
42
100
AcDbScale
 70
     0
300
6" = 1'-0"
140
6.0
141
12.0
290
     0
  0
SCALE
  5
53
102
{ACAD_REACTORS
330
42
102
}
330
42
100
AcDbScale
 70
     0
300
1'-0" = 1'-0"
140
12.0
141
12.0
290
     0
  0
ACDBSECTIONVIEWSTYLE
  5
69
102
{ACAD_REACTORS
330
68
102
}
330
68
100
AcDbModelDocViewStyle
 70
     0
  3
Imperial24
290
     1
300
Imperial24
 90
        0
100
AcDbSectionViewStyle
 70
     0
 71
     0
 90
       78
 71
     1
340
55
 62
   256
 40
0.24
340
0
340
0
 62
   256
 40
0.24
300
I, O, Q, S, X, Z
 40
0.48
 90
        3
 40
0.18
 90
        1
 71
     2
340
5D
 90
       25
 62
   256
340
5D
 90
       50
 62
   256
 40
0.24
 40
0.0
 40
0.24
 71
     3
340
55
 62
   256
 40
0.24
 90
        1
 40
0.75
 90
        1
300
%<\AcVar ViewType \f "%tc1">% %<\AcVar ViewSectionStartId>%-%<\AcVar ViewSectionEndId>%\PSCALE %<\AcVar ViewScale \f "%sn">%
 71
     4
 62
   256
 62
   257
300
ANSI31
 40
1.0
 90
        0
290
     0
290
     0
 90
        6
 40
0.0
 40
1.570796326794896
 40
0.2617993877991494
 40
1.308996938995747
 40
-0.2617993877991494
 40
1.832595714594046
  0
TABLESTYLE
  5
65
102
{ACAD_XDICTIONARY
360
94
102
}
102
{ACAD_REACTORS
330
64
102
}
330
64
100
AcDbTableStyle
280
     0
  3
Standard
 70
     0
 71
     0
 40
0.06
 41
0.06
280
     0
281
     0
  7
Standard
140
0.18
170
     2
 62
     0
 63
     7
283
     0
 90
      512
 91
        0
  1

274
    -2
284
     1
 64
     0
275
    -2
285
     1
 65
     0
276
    -2
286
     1
 66
     0
277
    -2
287
     1
 67
     0
278
    -2
288
     1
 68
     0
279
    -2
289
     1
 69
     0
  7
Standard
140
0.25
170
     5
 62
     0
 63
     7
283
     0
 90
      512
 91
        0
  1

274
    -2
284
     1
 64
     0
275
    -2
285
     1
 65
     0
276
    -2
286
     1
 66
     0
277
    -2
287
     1
 67
     0
278
    -2
288
     1
 68
     0
279
    -2
289
     1
 69
     0
  7
Standard
140
0.18
170
     5
 62
     0
 63
     7
283
     0
 90
      512
 91
        0
  1

274
    -2
284
     1
 64
     0
275
    -2
285
     1
 65
     0
276
    -2
286
     1
 66
     0
277
    -2
287
     1
 67
     0
278
    -2
288
     1
 68
     0
279
    -2
289
     1
 69
     0
  0
VISUALSTYLE
  5
2F
102
{ACAD_REACTORS
330
29
102
}
330
29
100
AcDbVisualStyle
  2
2dWireframe
 70
     4
177
     3
291
     0
 70
    58
 90
        0
176
     1
 90
        2
176
     1
 90
        0
176
     1
 90
        0
176
     1
 40
0.6
176
     1
 40
30.0
176
     1
 62
     7
420
 16777215
176
     1
 90
        1
176
     1
 90
        4
176
     1
 62
     7
176
     1
 62
   257
176
     1
 90
        1
176
     1
 90
        1
176
     1
 40
1.0
176
     1
 90
        0
176
     1
 62
   257
176
     1
 40
1.0
176
     1
 90
        1
176
     1
 90
        6
176
     1
 90
        2
176
     1
 62
     7
176
     1
 90
        5
176
     1
 90
        0
176
     1
 90
        0
176
     1
290
     0
176
     1
 90
        1
176
     1
 40
0.0
176
     1
 90
        0
176
     1
290
     1
176
     1
290
     1
176
     1
290
     0
176
     1
290
     0
176
     1
290
     0
176
     1
290
     0
176
     1
290
     0
176
     1
290
     0
176
     1
290
     0
176
     1
 90
       50
176
     1
 40
0.0
176
     1
 40
1.0
176
     1
 90
        0
176
     1
 62
    18
420
        0
176
     1
 90
       50
176
     1
 90
        3
176
     1
 62
     5
420
      255
176
     1
290
     0
176
     1
 90
       50
176
     1
 90
       50
176
     1
 90
       50
176
     1
290
     0
176
     1
 90
       50
176
     1
 62
   256
176
     0
 40
1.0
176
     0
 90
        2
176
     1
  1
strokes_ogs.tif
176
     1
290
     0
176
     1
 40
1.0
176
     1
 40
1.0
176
     1
  0
VISUALSTYLE
  5
2E
102
{ACAD_REACTORS
330
29
102
}
330
29
100
AcDbVisualStyle
  2
Basic
 70
     7
177
     3
291
     1
 70
    58
 90
        1
176
     1
 90
        0
176
     1
 90
        1
176
     1
 90
        0
176
     1
 40
0.6
176
     1
 40
30.0
176
     1
 62
     7
420
 16777215
176
     1
 90
        0
176
     1
 90
        4
176
     1
 62
     7
176
     1
 62
   257
176
     1
 90
        1
176
     1
 90
        1
176
     1
 40
1.0
176
     1
 90
        8
176
     1
 62
     7
176
     1
 40
1.0
176
     1
 90
        1
176
     1
 90
        6
176
     1
 90
        2
176
     1
 62
     7
176
     1
 90
        5
176
     1
 90
        0
176
     1
 90
        0
176
     1
290
     0
176
     1
 90
        1
176
     1
 40
0.0
176
     1
 90
        0
176
     1
290
     0
176
     1
290
     1
176
     1
290
     1
176
     1
290
     0
176
     1
290
     0
176
     1
290
     0
176
     1
290
     0
176
     1
290
     0
176
     1
290
     0
176
     1
 90
       50
176
     1
 40
0.0
176
     1
 40
1.0
176
     1
 90
        0
176
     1
 62
    18
420
        0
176
     1
 90
       50
176
     1
 90
        3
176
     1
 62
     5
420
      255
176
     1
290
     0
176
     1
 90
       50
176
     1
 90
       50
176
     1
 90
       50
176
     1
290
     0
176
     1
 90
       50
176
     1
 62
   256
176
     0
 40
1.0
176
     0
 90
        2
176
     1
  1
strokes_ogs.tif
176
     1
290
     0
176
     1
 40
1.0
176
     1
 40
1.0
176
     1
  0
VISUALSTYLE
  5
35
102
{ACAD_REACTORS
330
29
102
}
330
29
100
AcDbVisualStyle
  2
Brighten
 70
    12
177
     3
291
     1
 70
    58
 90
        2
176
     1
 90
        2
176
     1
 90
        0
176
     1
 90
        0
176
     1
 40
0.6
176
     1
 40
30.0
176
     1
 62
     7
420
 16777215
176
     1
 90
        1
176
     1
 90
        4
176
     1
 62
     7
176
     1
 62
   257
176
     1
 90
        1
176
     1
 90
        1
176
     1
 40
1.0
176
     1
 90
        8
176
     1
 62
     7
176
     1
 40
1.0
176
     1
 90
        1
176
     1
 90
        6
176
     1
 90
        2
176
     1
 62
     7
176
     1
 90
        5
176
     1
 90
        0
176
     1
 90
        0
176
     1
290
     0
176
     1
 90
        1
176
     1
 40
50.0
176
     1
 90
        0
176
     1
290
     0
176
     1
290
     1
176
     1
290
     1
176
     1
290
     0
176
     1
290
     0
176
     1
290
     0
176
     1
290
     0
176
     1
290
     0
176
     1
290
     0
176
     1
 90
       50
176
     1
 40
0.0
176
     1
 40
1.0
176
     1
 90
        0
176
     1
 62
    18
420
        0
176
     1
 90
       50
176
     1
 90
        3
176
     1
 62
     5
420
      255
176
     1
290
     0
176
     1
 90
       50
176
     1
 90
       50
176
     1
 90
       50
176
     1
290
     0
176
     1
 90
       50
176
     1
 62
   256
176
     0
 40
1.0
176
     0
 90
        2
176
     1
  1
strokes_ogs.tif
176
     1
290
     0
176
     1
 40
1.0
176
     1
 40
1.0
176
     1
  0
VISUALSTYLE
  5
39
102
{ACAD_REACTORS
330
29
102
}
330
29
100
AcDbVisualStyle
  2
ColorChange
 70
    16
177
     3
291
     1
 70
    58
 90
        2
176
     1
 90
        2
176
     1
 90
        3
176
     1
 90
        0
176
     1
 40
0.6
176
     1
 40
30.0
176
     1
 62
     8
420
  8421504
176
     1
 90
        1
176
     1
 90
        4
176
     1
 62
     7
176
     1
 62
   257
176
     1
 90
        1
176
     1
 90
        1
176
     1
 40
1.0
176
     1
 90
        8
176
     1
 62
     8
420
  8421504
176
     1
 40
1.0
176
     1
 90
        1
176
     1
 90
        6
176
     1
 90
        2
176
     1
 62
     7
176
     1
 90
        5
176
     1
 90
        0
176
     1
 90
        0
176
     1
290
     0
176
     1
 90
        1
176
     1
 40
0.0
176
     1
 90
        0
176
     1
290
     0
176
     1
290
     1
176
     1
290
     1
176
     1
290
     0
176
     1
290
     0
176
     1
290
     0
176
     1
290
     0
176
     1
290
     0
176
     1
290
     0
176
     1
 90
       50
176
     1
 40
0.0
176
     1
 40
1.0
176
     1
 90
        0
176
     1
 62
    18
420
        0
176
     1
 90
       50
176
     1
 90
        3
176
     1
 62
     5
420
      255
176
     1
290
     0
176
     1
 90
       50
176
     1
 90
       50
176
     1
 90
       50
176
     1
290
     0
176
     1
 90
       50
176
     1
 62
   256
176
     0
 40
1.0
176
     0
 90
        2
176
     1
  1
strokes_ogs.tif
176
     1
290
     0
176
     1
 40
1.0
176
     1
 40
1.0
176
     1
  0
VISUALSTYLE
  5
32
102
{ACAD_REACTORS
330
29
102
}
330
29
100
AcDbVisualStyle
  2
Conceptual
 70
     9
177
     3
291
     0
 70
    58
 90
        3
176
     1
 90
        2
176
     1
 90
        0
176
     1
 90
        0
176
     1
 40
0.6
176
     1
 40
30.0
176
     1
 62
     7
420
 16777215
176
     1
 90
        2
176
     1
 90
        2
176
     1
 62
     7
176
     1
 62
   257
176
     1
 90
        1
176
     1
 90
        1
176
     1
 40
179.0
176
     1
 90
        8
176
     1
 62
     7
176
     1
 40
1.0
176
     1
 90
        1
176
     1
 90
        6
176
     1
 90
        2
176
     1
 62
     7
176
     1
 90
        3
176
     1
 90
        0
176
     1
 90
        0
176
     1
290
     0
176
     1
 90
        1
176
     1
 40
0.0
176
     1
 90
        0
176
     1
290
     0
176
     1
290
     1
176
     1
290
     1
176
     1
290
     0
176
     1
290
     0
176
     1
290
     0
176
     1
290
     0
176
     1
290
     0
176
     1
290
     0
176
     1
 90
       50
176
     1
 40
0.0
176
     1
 40
1.0
176
     1
 90
        0
176
     1
 62
    18
420
        0
176
     1
 90
       50
176
     1
 90
        3
176
     1
 62
     5
420
      255
176
     1
290
     0
176
     1
 90
       50
176
     1
 90
       50
176
     1
 90
       50
176
     1
290
     0
176
     1
 90
       50
176
     1
 62
   256
176
     0
 40
1.0
176
     0
 90
        2
176
     1
  1
strokes_ogs.tif
176
     1
290
     0
176
     1
 40
1.0
176
     1
 40
1.0
176
     1
  0
VISUALSTYLE
  5
34
102
{ACAD_REACTORS
330
29
102
}
330
29
100
AcDbVisualStyle
  2
Dim
 70
    11
177
     3
291
     1
 70
    58
 90
        2
176
     1
 90
        2
176
     1
 90
        0
176
     1
 90
        0
176
     1
 40
0.6
176
     1
 40
30.0
176
     1
 62
     7
420
 16777215
176
     1
 90
        1
176
     1
 90
        4
176
     1
 62
     7
176
     1
 62
   257
176
     1
 90
        1
176
     1
 90
        1
176
     1
 40
1.0
176
     1
 90
        8
176
     1
 62
     7
176
     1
 40
1.0
176
     1
 90
        1
176
     1
 90
        6
176
     1
 90
        2
176
     1
 62
     7
176
     1
 90
        5
176
     1
 90
        0
176
     1
 90
        0
176
     1
290
     0
176
     1
 90
        1
176
     1
 40
-50.0
176
     1
 90
        0
176
     1
290
     0
176
     1
290
     1
176
     1
290
     1
176
     1
290
     0
176
     1
290
     0
176
     1
290
     0
176
     1
290
     0
176
     1
290
     0
176
     1
290
     0
176
     1
 90
       50
176
     1
 40
0.0
176
     1
 40
1.0
176
     1
 90
        0
176
     1
 62
    18
420
        0
176
     1
 90
       50
176
     1
 90
        3
176
     1
 62
     5
420
      255
176
     1
290
     0
176
     1
 90
       50
176
     1
 90
       50
176
     1
 90
       50
176
     1
290
     0
176
     1
 90
       50
176
     1
 62
   256
176
     0
 40
1.0
176
     0
 90
        2
176
     1
  1
strokes_ogs.tif
176
     1
290
     0
176
     1
 40
1.0
176
     1
 40
1.0
176
     1
  0
VISUALSTYLE
  5
41
102
{ACAD_REACTORS
330
29
102
}
330
29
100
AcDbVisualStyle
  2
EdgeColorOff
 70
    22
177
     3
291
     1
 70
    58
 90
        2
176
     0
 90
        2
176
     0
 90
        0
176
     0
 90
        0
176
     0
 40
0.6
176
     0
 40
30.0
176
     0
 62
     7
420
 16777215
176
     0
 90
        1
176
     0
 90
        4
176
     0
 62
     7
176
     0
 62
   257
176
     0
 90
        1
176
     0
 90
        1
176
     0
 40
1.0
176
     0
 90
        8
176
     2
 62
     7
176
     0
 40
1.0
176
     0
 90
        1
176
     0
 90
        6
176
     0
 90
        2
176
     0
 62
     7
176
     0
 90
        5
176
     0
 90
        0
176
     0
 90
        0
176
     0
290
     0
176
     0
 90
        1
176
     0
 40
0.0
176
     0
 90
        0
176
     0
290
     0
176
     0
290
     1
176
     0
290
     1
176
     0
290
     0
176
     0
290
     0
176
     0
290
     0
176
     0
290
     0
176
     0
290
     0
176
     0
290
     0
176
     0
 90
       50
176
     0
 40
0.0
176
     0
 40
1.0
176
     0
 90
        0
176
     0
 62
    18
420
        0
176
     0
 90
       50
176
     0
 90
        3
176
     0
 62
     5
420
      255
176
     0
290
     0
176
     0
 90
       50
176
     0
 90
       50
176
     0
 90
       50
176
     0
290
     0
176
     0
 90
       50
176
     0
 62
   256
176
     0
 40
1.0
176
     0
 90
        2
176
     0
  1
strokes_ogs.tif
176
     0
290
     0
176
     0
 40
1.0
176
     0
 40
1.0
176
     0
  0
VISUALSTYLE
  5
38
102
{ACAD_REACTORS
330
29
102
}
330
29
100
AcDbVisualStyle
  2
Facepattern
 70
    15
177
     3
291
     1
 70
    58
 90
        2
176
     1
 90
        2
176
     1
 90
        0
176
     1
 90
        0
176
     1
 40
0.6
176
     1
 40
30.0
176
     1
 62
     7
420
 16777215
176
     1
 90
        1
176
     1
 90
        4
176
     1
 62
     7
176
     1
 62
   257
176
     1
 90
        1
176
     1
 90
        1
176
     1
 40
1.0
176
     1
 90
        8
176
     1
 62
     7
176
     1
 40
1.0
176
     1
 90
        1
176
     1
 90
        6
176
     1
 90
        2
176
     1
 62
     7
176
     1
 90
        5
176
     1
 90
        0
176
     1
 90
        0
176
     1
290
     0
176
     1
 90
        1
176
     1
 40
0.0
176
     1
 90
        0
176
     1
290
     0
176
     1
290
     1
176
     1
290
     1
176
     1
290
     0
176
     1
290
     0
176
     1
290
     0
176
     1
290
     0
176
     1
290
     0
176
     1
290
     0
176
     1
 90
       50
176
     1
 40
0.0
176
     1
 40
1.0
176
     1
 90
        0
176
     1
 62
    18
420
        0
176
     1
 90
       50
176
     1
 90
        3
176
     1
 62
     5
420
      255
176
     1
290
     0
176
     1
 90
       50
176
     1
 90
       50
176
     1
 90
       50
176
     1
290
     0
176
     1
 90
       50
176
     1
 62
   256
176
     0
 40
1.0
176
     0
 90
        2
176
     1
  1
strokes_ogs.tif
176
     1
290
     0
176
     1
 40
1.0
176
     1
 40
1.0
176
     1
  0
VISUALSTYLE
  5
2A
102
{ACAD_REACTORS
330
29
102
}
330
29
100
AcDbVisualStyle
  2
Flat
 70
     0
177
     3
291
     1
 70
    58
 90
        2
176
     1
 90
        1
176
     1
 90
        1
176
     1
 90
        2
176
     1
 40
0.6
176
     1
 40
30.0
176
     1
 62
     7
420
 16777215
176
     1
 90
        0
176
     1
 90
        0
176
     1
 62
     7
176
     1
 62
   257
176
     1
 90
        1
176
     1
 90
        1
176
     1
 40
1.0
176
     1
 90
        8
176
     1
 62
     7
176
     1
 40
1.0
176
     1
 90
        1
176
     1
 90
        6
176
     1
 90
        2
176
     1
 62
     7
176
     1
 90
        5
176
     1
 90
        0
176
     1
 90
        0
176
     1
290
     0
176
     1
 90
       13
176
     1
 40
0.0
176
     1
 90
        0
176
     1
290
     0
176
     1
290
     1
176
     1
290
     1
176
     1
290
     0
176
     1
290
     0
176
     1
290
     0
176
     1
290
     0
176
     1
290
     0
176
     1
290
     0
176
     1
 90
       50
176
     1
 40
0.0
176
     1
 40
1.0
176
     1
 90
        0
176
     1
 62
    18
420
        0
176
     1
 90
       50
176
     1
 90
        3
176
     1
 62
     5
420
      255
176
     1
290
     0
176
     1
 90
       50
176
     1
 90
       50
176
     1
 90
       50
176
     1
290
     0
176
     1
 90
       50
176
     1
 62
   256
176
     0
 40
1.0
176
     0
 90
        2
176
     1
  1
strokes_ogs.tif
176
     1
290
     0
176
     1
 40
1.0
176
     1
 40
1.0
176
     1
  0
VISUALSTYLE
  5
2B
102
{ACAD_REACTORS
330
29
102
}
330
29
100
AcDbVisualStyle
  2
FlatWithEdges
 70
     1
177
     3
291
     1
 70
    58
 90
        2
176
     1
 90
        1
176
     1
 90
        1
176
     1
 90
        2
176
     1
 40
0.6
176
     1
 40
30.0
176
     1
 62
     7
420
 16777215
176
     1
 90
        1
176
     1
 90
        0
176
     1
 62
     7
176
     1
 62
   257
176
     1
 90
        1
176
     1
 90
        1
176
     1
 40
1.0
176
     1
 90
        0
176
     1
 62
   257
176
     1
 40
1.0
176
     1
 90
        1
176
     1
 90
        6
176
     1
 90
        2
176
     1
 62
     7
176
     1
 90
        5
176
     1
 90
        0
176
     1
 90
        0
176
     1
290
     0
176
     1
 90
       13
176
     1
 40
0.0
176
     1
 90
        0
176
     1
290
     0
176
     1
290
     1
176
     1
290
     1
176
     1
290
     0
176
     1
290
     0
176
     1
290
     0
176
     1
290
     0
176
     1
290
     0
176
     1
290
     0
176
     1
 90
       50
176
     1
 40
0.0
176
     1
 40
1.0
176
     1
 90
        0
176
     1
 62
    18
420
        0
176
     1
 90
       50
176
     1
 90
        3
176
     1
 62
     5
420
      255
176
     1
290
     0
176
     1
 90
       50
176
     1
 90
       50
176
     1
 90
       50
176
     1
290
     0
176
     1
 90
       50
176
     1
 62
   256
176
     0
 40
1.0
176
     0
 90
        2
176
     1
  1
strokes_ogs.tif
176
     1
290
     0
176
     1
 40
1.0
176
     1
 40
1.0
176
     1
  0
VISUALSTYLE
  5
2C
102
{ACAD_REACTORS
330
29
102
}
330
29
100
AcDbVisualStyle
  2
Gouraud
 70
     2
177
     3
291
     1
 70
    58
 90
        2
176
     1
 90
        2
176
     1
 90
        1
176
     1
 90
        2
176
     1
 40
0.6
176
     1
 40
30.0
176
     1
 62
     7
420
 16777215
176
     1
 90
        0
176
     1
 90
        0
176
     1
 62
     7
176
     1
 62
   257
176
     1
 90
        1
176
     1
 90
        1
176
     1
 40
1.0
176
     1
 90
        0
176
     1
 62
     7
176
     1
 40
1.0
176
     1
 90
        1
176
     1
 90
        6
176
     1
 90
        2
176
     1
 62
     7
176
     1
 90
        5
176
     1
 90
        0
176
     1
 90
        0
176
     1
290
     0
176
     1
 90
       13
176
     1
 40
0.0
176
     1
 90
        0
176
     1
290
     0
176
     1
290
     1
176
     1
290
     1
176
     1
290
     0
176
     1
290
     0
176
     1
290
     0
176
     1
290
     0
176
     1
290
     0
176
     1
290
     0
176
     1
 90
       50
176
     1
 40
0.0
176
     1
 40
1.0
176
     1
 90
        0
176
     1
 62
    18
420
        0
176
     1
 90
       50
176
     1
 90
        3
176
     1
 62
     5
420
      255
176
     1
290
     0
176
     1
 90
       50
176
     1
 90
       50
176
     1
 90
       50
176
     1
290
     0
176
     1
 90
       50
176
     1
 62
   256
176
     0
 40
1.0
176
     0
 90
        2
176
     1
  1
strokes_ogs.tif
176
     1
290
     0
176
     1
 40
1.0
176
     1
 40
1.0
176
     1
  0
VISUALSTYLE
  5
2D
102
{ACAD_REACTORS
330
29
102
}
330
29
100
AcDbVisualStyle
  2
GouraudWithEdges
 70
     3
177
     3
291
     1
 70
    58
 90
        2
176
     1
 90
        2
176
     1
 90
        1
176
     1
 90
        2
176
     1
 40
0.6
176
     1
 40
30.0
176
     1
 62
     7
420
 16777215
176
     1
 90
        1
176
     1
 90
        0
176
     1
 62
     7
176
     1
 62
   257
176
     1
 90
        1
176
     1
 90
        1
176
     1
 40
1.0
176
     1
 90
        0
176
     1
 62
   257
176
     1
 40
1.0
176
     1
 90
        1
176
     1
 90
        6
176
     1
 90
        2
176
     1
 62
     7
176
     1
 90
        5
176
     1
 90
        0
176
     1
 90
        0
176
     1
290
     0
176
     1
 90
       13
176
     1
 40
0.0
176
     1
 90
        0
176
     1
290
     0
176
     1
290
     1
176
     1
290
     1
176
     1
290
     0
176
     1
290
     0
176
     1
290
     0
176
     1
290
     0
176
     1
290
     0
176
     1
290
     0
176
     1
 90
       50
176
     1
 40
0.0
176
     1
 40
1.0
176
     1
 90
        0
176
     1
 62
    18
420
        0
176
     1
 90
       50
176
     1
 90
        3
176
     1
 62
     5
420
      255
176
     1
290
     0
176
     1
 90
       50
176
     1
 90
       50
176
     1
 90
       50
176
     1
290
     0
176
     1
 90
       50
176
     1
 62
   256
176
     0
 40
1.0
176
     0
 90
        2
176
     1
  1
strokes_ogs.tif
176
     1
290
     0
176
     1
 40
1.0
176
     1
 40
1.0
176
     1
  0
VISUALSTYLE
  5
31
102
{ACAD_REACTORS
330
29
102
}
330
29
100
AcDbVisualStyle
  2
Hidden
 70
     6
177
     3
291
     0
 70
    58
 90
        1
176
     1
 90
        2
176
     1
 90
        2
176
     1
 90
        0
176
     1
 40
0.6
176
     1
 40
30.0
176
     1
 62
     7
420
 16777215
176
     1
 90
        2
176
     1
 90
        2
176
     1
 62
     7
176
     1
 62
   257
176
     1
 90
        2
176
     1
 90
        1
176
     1
 40
40.0
176
     1
 90
        0
176
     1
 62
   257
176
     1
 40
1.0
176
     1
 90
        1
176
     1
 90
        6
176
     1
 90
        2
176
     1
 62
     7
176
     1
 90
        3
176
     1
 90
        0
176
     1
 90
        0
176
     1
290
     0
176
     1
 90
        1
176
     1
 40
0.0
176
     1
 90
        0
176
     1
290
     0
176
     1
290
     1
176
     1
290
     1
176
     1
290
     0
176
     1
290
     0
176
     1
290
     0
176
     1
290
     0
176
     1
290
     0
176
     1
290
     0
176
     1
 90
       50
176
     1
 40
0.0
176
     1
 40
1.0
176
     1
 90
        0
176
     1
 62
    18
420
        0
176
     1
 90
       50
176
     1
 90
        3
176
     1
 62
     5
420
      255
176
     1
290
     0
176
     1
 90
       50
176
     1
 90
       50
176
     1
 90
       50
176
     1
290
     0
176
     1
 90
       50
176
     1
 62
   256
176
     0
 40
1.0
176
     0
 90
        2
176
     1
  1
strokes_ogs.tif
176
     1
290
     0
176
     1
 40
1.0
176
     1
 40
1.0
176
     1
  0
VISUALSTYLE
  5
3F
102
{ACAD_REACTORS
330
29
102
}
330
29
100
AcDbVisualStyle
  2
JitterOff
 70
    20
177
     3
291
     1
 70
    58
 90
        2
176
     0
 90
        2
176
     0
 90
        0
176
     0
 90
        0
176
     0
 40
0.6
176
     0
 40
30.0
176
     0
 62
     7
420
 16777215
176
     0
 90
        1
176
     0
 90
        4
176
     0
 62
     7
176
     0
 62
   257
176
     0
 90
        1
176
     0
 90
        1
176
     0
 40
1.0
176
     0
 90
       10
176
     2
 62
     7
176
     0
 40
1.0
176
     0
 90
        1
176
     0
 90
        6
176
     0
 90
        2
176
     0
 62
     7
176
     0
 90
        5
176
     0
 90
        0
176
     0
 90
        0
176
     0
290
     0
176
     0
 90
        1
176
     0
 40
0.0
176
     0
 90
        0
176
     0
290
     0
176
     0
290
     1
176
     0
290
     1
176
     0
290
     0
176
     0
290
     0
176
     0
290
     0
176
     0
290
     0
176
     0
290
     0
176
     0
290
     0
176
     0
 90
       50
176
     0
 40
0.0
176
     0
 40
1.0
176
     0
 90
        0
176
     0
 62
    18
420
        0
176
     0
 90
       50
176
     0
 90
        3
176
     0
 62
     5
420
      255
176
     0
290
     0
176
     0
 90
       50
176
     0
 90
       50
176
     0
 90
       50
176
     0
290
     0
176
     0
 90
       50
176
     0
 62
   256
176
     0
 40
1.0
176
     0
 90
        2
176
     0
  1
strokes_ogs.tif
176
     0
290
     0
176
     0
 40
1.0
176
     0
 40
1.0
176
     0
  0
VISUALSTYLE
  5
37
102
{ACAD_REACTORS
330
29
102
}
330
29
100
AcDbVisualStyle
  2
Linepattern
 70
    14
177
     3
291
     1
 70
    58
 90
        2
176
     1
 90
        2
176
     1
 90
        0
176
     1
 90
        0
176
     1
 40
0.6
176
     1
 40
30.0
176
     1
 62
     7
420
 16777215
176
     1
 90
        1
176
     1
 90
        4
176
     1
 62
     7
176
     1
 62
   257
176
     1
 90
        7
176
     1
 90
        7
176
     1
 40
1.0
176
     1
 90
        8
176
     1
 62
     7
176
     1
 40
1.0
176
     1
 90
        1
176
     1
 90
        6
176
     1
 90
        2
176
     1
 62
     7
176
     1
 90
        5
176
     1
 90
        0
176
     1
 90
        0
176
     1
290
     0
176
     1
 90
        1
176
     1
 40
0.0
176
     1
 90
        0
176
     1
290
     0
176
     1
290
     1
176
     1
290
     1
176
     1
290
     0
176
     1
290
     0
176
     1
290
     0
176
     1
290
     0
176
     1
290
     0
176
     1
290
     0
176
     1
 90
       50
176
     1
 40
0.0
176
     1
 40
1.0
176
     1
 90
        0
176
     1
 62
    18
420
        0
176
     1
 90
       50
176
     1
 90
        3
176
     1
 62
     5
420
      255
176
     1
290
     0
176
     1
 90
       50
176
     1
 90
       50
176
     1
 90
       50
176
     1
290
     0
176
     1
 90
       50
176
     1
 62
   256
176
     0
 40
1.0
176
     0
 90
        2
176
     1
  1
strokes_ogs.tif
176
     1
290
     0
176
     1
 40
1.0
176
     1
 40
1.0
176
     1
  0
VISUALSTYLE
  5
40
102
{ACAD_REACTORS
330
29
102
}
330
29
100
AcDbVisualStyle
  2
OverhangOff
 70
    21
177
     3
291
     1
 70
    58
 90
        2
176
     0
 90
        2
176
     0
 90
        0
176
     0
 90
        0
176
     0
 40
0.6
176
     0
 40
30.0
176
     0
 62
     7
420
 16777215
176
     0
 90
        1
176
     0
 90
        4
176
     0
 62
     7
176
     0
 62
   257
176
     0
 90
        1
176
     0
 90
        1
176
     0
 40
1.0
176
     0
 90
        9
176
     2
 62
     7
176
     0
 40
1.0
176
     0
 90
        1
176
     0
 90
        6
176
     0
 90
        2
176
     0
 62
     7
176
     0
 90
        5
176
     0
 90
        0
176
     0
 90
        0
176
     0
290
     0
176
     0
 90
        1
176
     0
 40
0.0
176
     0
 90
        0
176
     0
290
     0
176
     0
290
     1
176
     0
290
     1
176
     0
290
     0
176
     0
290
     0
176
     0
290
     0
176
     0
290
     0
176
     0
290
     0
176
     0
290
     0
176
     0
 90
       50
176
     0
 40
0.0
176
     0
 40
1.0
176
     0
 90
        0
176
     0
 62
    18
420
        0
176
     0
 90
       50
176
     0
 90
        3
176
     0
 62
     5
420
      255
176
     0
290
     0
176
     0
 90
       50
176
     0
 90
       50
176
     0
 90
       50
176
     0
290
     0
176
     0
 90
       50
176
     0
 62
   256
176
     0
 40
1.0
176
     0
 90
        2
176
     0
  1
strokes_ogs.tif
176
     0
290
     0
176
     0
 40
1.0
176
     0
 40
1.0
176
     0
  0
VISUALSTYLE
  5
33
102
{ACAD_REACTORS
330
29
102
}
330
29
100
AcDbVisualStyle
  2
Realistic
 70
     8
177
     3
291
     0
 70
    58
 90
        2
176
     1
 90
        3
176
     1
 90
        0
176
     1
 90
        2
176
     1
 40
0.6
176
     1
 40
30.0
176
     1
 62
     7
420
 16777215
176
     1
 90
        0
176
     1
 90
        0
176
     1
 62
     7
176
     1
 62
   257
176
     1
 90
        1
176
     1
 90
        1
176
     1
 40
1.0
176
     1
 90
        8
176
     1
 62
   257
176
     1
 40
1.0
176
     1
 90
        1
176
     1
 90
        6
176
     1
 90
        2
176
     1
 62
     7
176
     1
 90
        3
176
     1
 90
        0
176
     1
 90
        0
176
     1
290
     0
176
     1
 90
       13
176
     1
 40
0.0
176
     1
 90
        0
176
     1
290
     0
176
     1
290
     1
176
     1
290
     1
176
     1
290
     0
176
     1
290
     0
176
     1
290
     0
176
     1
290
     0
176
     1
290
     0
176
     1
290
     0
176
     1
 90
       50
176
     1
 40
0.0
176
     1
 40
1.0
176
     1
 90
        0
176
     1
 62
    18
420
        0
176
     1
 90
       50
176
     1
 90
        3
176
     1
 62
     5
420
      255
176
     1
290
     0
176
     1
 90
       50
176
     1
 90
       50
176
     1
 90
       50
176
     1
290
     0
176
     1
 90
       50
176
     1
 62
   256
176
     0
 40
1.0
176
     0
 90
        2
176
     1
  1
strokes_ogs.tif
176
     1
290
     0
176
     1
 40
1.0
176
     1
 40
1.0
176
     1
  0
VISUALSTYLE
  5
3E
102
{ACAD_REACTORS
330
29
102
}
330
29
100
AcDbVisualStyle
  2
Shaded
 70
    27
177
     3
291
     0
 70
    58
 90
        2
176
     1
 90
        2
176
     1
 90
        1
176
     1
 90
        2
176
     1
 40
0.6
176
     1
 40
30.0
176
     1
 62
     7
420
 16777215
176
     1
 90
        0
176
     1
 90
        4
176
     1
 62
     7
176
     1
 62
   257
176
     1
 90
        1
176
     1
 90
        1
176
     1
 40
1.0
176
     1
 90
        8
176
     1
 62
   257
176
     1
 40
1.0
176
     1
 90
        1
176
     1
 90
        6
176
     1
 90
        2
176
     1
 62
     8
420
  7895160
176
     1
 90
        3
176
     1
 90
        0
176
     1
 90
        0
176
     1
290
     0
176
     1
 90
        5
176
     1
 40
0.0
176
     1
 90
        0
176
     1
290
     0
176
     1
290
     1
176
     1
290
     1
176
     1
290
     0
176
     1
290
     0
176
     1
290
     0
176
     1
290
     0
176
     1
290
     0
176
     1
290
     0
176
     1
 90
       50
176
     1
 40
0.0
176
     1
 40
1.0
176
     1
 90
        0
176
     1
 62
    18
420
        0
176
     1
 90
       50
176
     1
 90
        3
176
     1
 62
     5
420
      255
176
     1
290
     0
176
     1
 90
       50
176
     1
 90
       50
176
     1
 90
       50
176
     1
290
     0
176
     1
 90
       50
176
     1
 62
   256
176
     0
 40
1.0
176
     0
 90
        2
176
     1
  1
strokes_ogs.tif
176
     1
290
     0
176
     1
 40
1.0
176
     1
 40
1.0
176
     1
  0
VISUALSTYLE
  5
3D
102
{ACAD_REACTORS
330
29
102
}
330
29
100
AcDbVisualStyle
  2
Shaded with edges
 70
    26
177
     3
291
     0
 70
    58
 90
        2
176
     1
 90
        2
176
     1
 90
        1
176
     1
 90
        2
176
     1
 40
0.6
176
     1
 40
30.0
176
     1
 62
     7
420
 16777215
176
     1
 90
        1
176
     1
 90
        2
176
     1
 62
     7
176
     1
 62
   257
176
     1
 90
        2
176
     1
 90
        1
176
     1
 40
1.0
176
     1
 90
        8
176
     1
 62
   257
176
     1
 40
1.0
176
     1
 90
        1
176
     1
 90
        6
176
     1
 90
        2
176
     1
 62
     7
176
     1
 90
        3
176
     1
 90
        0
176
     1
 90
        0
176
     1
290
     0
176
     1
 90
        5
176
     1
 40
0.0
176
     1
 90
        0
176
     1
290
     0
176
     1
290
     1
176
     1
290
     1
176
     1
290
     0
176
     1
290
     0
176
     1
290
     0
176
     1
290
     0
176
     1
290
     0
176
     1
290
     0
176
     1
 90
       50
176
     1
 40
0.0
176
     1
 40
1.0
176
     1
 90
        0
176
     1
 62
    18
420
        0
176
     1
 90
       50
176
     1
 90
        3
176
     1
 62
     5
420
      255
176
     1
290
     0
176
     1
 90
       50
176
     1
 90
       50
176
     1
 90
       50
176
     1
290
     0
176
     1
 90
       50
176
     1
 62
   256
176
     0
 40
1.0
176
     0
 90
        2
176
     1
  1
strokes_ogs.tif
176
     1
290
     0
176
     1
 40
1.0
176
     1
 40
1.0
176
     1
  0
VISUALSTYLE
  5
3A
102
{ACAD_REACTORS
330
29
102
}
330
29
100
AcDbVisualStyle
  2
Shades of Gray
 70
    23
177
     3
291
     0
 70
    58
 90
        2
176
     1
 90
        2
176
     1
 90
        3
176
     1
 90
        0
176
     1
 40
0.6
176
     1
 40
30.0
176
     1
 62
     7
420
 16777215
176
     1
 90
        2
176
     1
 90
        2
176
     1
 62
     7
176
     1
 62
     7
176
     1
 90
        1
176
     1
 90
        1
176
     1
 40
40.0
176
     1
 90
        8
176
     1
 62
     7
176
     1
 40
1.0
176
     1
 90
        1
176
     1
 90
        6
176
     1
 90
        2
176
     1
 62
     7
176
     1
 90
        3
176
     1
 90
        0
176
     1
 90
        0
176
     1
290
     0
176
     1
 90
        1
176
     1
 40
0.0
176
     1
 90
        0
176
     1
290
     0
176
     1
290
     1
176
     1
290
     1
176
     1
290
     0
176
     1
290
     0
176
     1
290
     0
176
     1
290
     0
176
     1
290
     0
176
     1
290
     0
176
     1
 90
       50
176
     1
 40
0.0
176
     1
 40
1.0
176
     1
 90
        0
176
     1
 62
    18
420
        0
176
     1
 90
       50
176
     1
 90
        3
176
     1
 62
     5
420
      255
176
     1
290
     0
176
     1
 90
       50
176
     1
 90
       50
176
     1
 90
       50
176
     1
290
     0
176
     1
 90
       50
176
     1
 62
   256
176
     0
 40
1.0
176
     0
 90
        2
176
     1
  1
strokes_ogs.tif
176
     1
290
     0
176
     1
 40
1.0
176
     1
 40
1.0
176
     1
  0
VISUALSTYLE
  5
3B
102
{ACAD_REACTORS
330
29
102
}
330
29
100
AcDbVisualStyle
  2
Sketchy
 70
    24
177
     3
291
     0
 70
    58
 90
        1
176
     1
 90
        2
176
     1
 90
        2
176
     1
 90
        0
176
     1
 40
0.6
176
     1
 40
30.0
176
     1
 62
     7
420
 16777215
176
     1
 90
        2
176
     1
 90
        2
176
     1
 62
     7
176
     1
 62
     7
176
     1
 90
        1
176
     1
 90
        1
176
     1
 40
40.0
176
     1
 90
       11
176
     1
 62
     7
176
     1
 40
1.0
176
     1
 90
        1
176
     1
 90
        6
176
     1
 90
        2
176
     1
 62
     7
176
     1
 90
        6
176
     1
 90
        0
176
     1
 90
        0
176
     1
290
     0
176
     1
 90
        1
176
     1
 40
0.0
176
     1
 90
        0
176
     1
290
     0
176
     1
290
     1
176
     1
290
     1
176
     1
290
     0
176
     1
290
     0
176
     1
290
     0
176
     1
290
     0
176
     1
290
     0
176
     1
290
     0
176
     1
 90
       50
176
     1
 40
0.0
176
     1
 40
1.0
176
     1
 90
        0
176
     1
 62
    18
420
        0
176
     1
 90
       50
176
     1
 90
        3
176
     1
 62
     5
420
      255
176
     1
290
     0
176
     1
 90
       50
176
     1
 90
       50
176
     1
 90
       50
176
     1
290
     0
176
     1
 90
       50
176
     1
 62
   256
176
     0
 40
1.0
176
     0
 90
        2
176
     1
  1
strokes_ogs.tif
176
     1
290
     0
176
     1
 40
1.0
176
     1
 40
1.0
176
     1
  0
VISUALSTYLE
  5
36
102
{ACAD_REACTORS
330
29
102
}
330
29
100
AcDbVisualStyle
  2
Thicken
 70
    13
177
     3
291
     1
 70
    58
 90
        2
176
     1
 90
        2
176
     1
 90
        0
176
     1
 90
        0
176
     1
 40
0.6
176
     1
 40
30.0
176
     1
 62
     7
420
 16777215
176
     1
 90
        1
176
     1
 90
        4
176
     1
 62
     7
176
     1
 62
   257
176
     1
 90
        1
176
     1
 90
        1
176
     1
 40
1.0
176
     1
 90
       12
176
     1
 62
     7
176
     1
 40
1.0
176
     1
 90
        1
176
     1
 90
        6
176
     1
 90
        2
176
     1
 62
     7
176
     1
 90
        5
176
     1
 90
        0
176
     1
 90
        0
176
     1
290
     0
176
     1
 90
        1
176
     1
 40
0.0
176
     1
 90
        0
176
     1
290
     0
176
     1
290
     1
176
     1
290
     1
176
     1
290
     0
176
     1
290
     0
176
     1
290
     0
176
     1
290
     0
176
     1
290
     0
176
     1
290
     0
176
     1
 90
       50
176
     1
 40
0.0
176
     1
 40
1.0
176
     1
 90
        0
176
     1
 62
    18
420
        0
176
     1
 90
       50
176
     1
 90
        3
176
     1
 62
     5
420
      255
176
     1
290
     0
176
     1
 90
       50
176
     1
 90
       50
176
     1
 90
       50
176
     1
290
     0
176
     1
 90
       50
176
     1
 62
   256
176
     0
 40
1.0
176
     0
 90
        2
176
     1
  1
strokes_ogs.tif
176
     1
290
     0
176
     1
 40
1.0
176
     1
 40
1.0
176
     1
  0
VISUALSTYLE
  5
30
102
{ACAD_REACTORS
330
29
102
}
330
29
100
AcDbVisualStyle
  2
Wireframe
 70
     5
177
     3
291
     0
 70
    58
 90
        0
176
     1
 90
        2
176
     1
 90
        0
176
     1
 90
        0
176
     1
 40
0.6
176
     1
 40
30.0
176
     1
 62
     7
420
 16777215
176
     1
 90
        1
176
     1
 90
        4
176
     1
 62
     7
176
     1
 62
   257
176
     1
 90
        1
176
     1
 90
        1
176
     1
 40
1.0
176
     1
 90
        0
176
     1
 62
   257
176
     1
 40
1.0
176
     1
 90
        1
176
     1
 90
        6
176
     1
 90
        2
176
     1
 62
     7
176
     1
 90
        3
176
     1
 90
        0
176
     1
 90
        0
176
     1
290
     0
176
     1
 90
        1
176
     1
 40
0.0
176
     1
 90
        0
176
     1
290
     0
176
     1
290
     1
176
     1
290
     1
176
     1
290
     0
176
     1
290
     0
176
     1
290
     0
176
     1
290
     0
176
     1
290
     0
176
     1
290
     0
176
     1
 90
       50
176
     1
 40
0.0
176
     1
 40
1.0
176
     1
 90
        0
176
     1
 62
    18
420
        0
176
     1
 90
       50
176
     1
 90
        3
176
     1
 62
     5
420
      255
176
     1
290
     0
176
     1
 90
       50
176
     1
 90
       50
176
     1
 90
       50
176
     1
290
     0
176
     1
 90
       50
176
     1
 62
   256
176
     0
 40
1.0
176
     0
 90
        2
176
     1
  1
strokes_ogs.tif
176
     1
290
     0
176
     1
 40
1.0
176
     1
 40
1.0
176
     1
  0
VISUALSTYLE
  5
3C
102
{ACAD_REACTORS
330
29
102
}
330
29
100
AcDbVisualStyle
  2
X-Ray
 70
    25
177
     3
291
     0
 70
    58
 90
        2
176
     1
 90
        2
176
     1
 90
        1
176
     1
 90
        1
176
     1
 40
0.5
176
     1
 40
30.0
176
     1
 62
     7
420
 16777215
176
     1
 90
        1
176
     1
 90
        0
176
     1
 62
     7
176
     1
 62
   257
176
     1
 90
        1
176
     1
 90
        1
176
     1
 40
1.0
176
     1
 90
        8
176
     1
 62
     7
176
     1
 40
1.0
176
     1
 90
        1
176
     1
 90
        6
176
     1
 90
        2
176
     1
 62
     7
176
     1
 90
        3
176
     1
 90
        0
176
     1
 90
        0
176
     1
290
     0
176
     1
 90
       13
176
     1
 40
0.0
176
     1
 90
        0
176
     1
290
     0
176
     1
290
     1
176
     1
290
     1
176
     1
290
     0
176
     1
290
     0
176
     1
290
     0
176
     1
290
     0
176
     1
290
     0
176
     1
290
     0
176
     1
 90
       50
176
     1
 40
0.0
176
     1
 40
1.0
176
     1
 90
        0
176
     1
 62
    18
420
        0
176
     1
 90
       50
176
     1
 90
        3
176
     1
 62
     5
420
      255
176
     1
290
     0
176
     1
 90
       50
176
     1
 90
       50
176
     1
 90
       50
176
     1
290
     0
176
     1
 90
       50
176
     1
 62
   256
176
     0
 40
1.0
176
     0
 90
        2
176
     1
  1
strokes_ogs.tif
176
     1
290
     0
176
     1
 40
1.0
176
     1
 40
1.0
176
     1
  0
DICTIONARYVAR
  5
93
102
{ACAD_REACTORS
330
8E
102
}
330
8E
100
DictionaryVariables
280
     0
  1
1:1
  0
DICTIONARYVAR
  5
90
102
{ACAD_REACTORS
330
8E
102
}
330
8E
100
DictionaryVariables
280
     0
  1
STANDARD
  0
DICTIONARYVAR
  5
8F
102
{ACAD_REACTORS
330
8E
102
}
330
8E
100
DictionaryVariables
280
     0
  1
STANDARD
  0
DICTIONARYVAR
  5
91
102
{ACAD_REACTORS
330
8E
102
}
330
8E
100
DictionaryVariables
280
     0
  1
Imperial24
  0
DICTIONARYVAR
  5
92
102
{ACAD_REACTORS
330
8E
102
}
330
8E
100
DictionaryVariables
280
     0
  1
Imperial24
  0
DICTIONARY
  5
1A
330
19
100
AcDbDictionary
280
     1
281
     1
  3
BUMPTILE
360
1C
  3
DIFFUSETILE
360
1B
  3
OPACITYTILE
360
1F
  3
REFLECTIONTILE
360
1E
  3
REFRACTIONTILE
360
20
  3
SPECULARTILE
360
1D
  0
DICTIONARY
  5
12
330
11
100
AcDbDictionary
280
     1
281
     1
  3
BUMPTILE
360
14
  3
DIFFUSETILE
360
13
  3
OPACITYTILE
360
17
  3
REFLECTIONTILE
360
16
  3
REFRACTIONTILE
360
18
  3
SPECULARTILE
360
15
  0
DICTIONARY
  5
22
330
21
100
AcDbDictionary
280
     1
281
     1
  3
BUMPTILE
360
24
  3
DIFFUSETILE
360
23
  3
OPACITYTILE
360
27
  3
REFLECTIONTILE
360
26
  3
REFRACTIONTILE
360
28
  3
SPECULARTILE
360
25
  0
DICTIONARY
  5
94
330
65
100
AcDbDictionary
280
     1
281
     1
  3
ACAD_ROUNDTRIP_2008_TABLESTYLE_CELLSTYLEMAP
360
95
  0
XRECORD
  5
1C
102
{ACAD_REACTORS
330
1A
102
}
330
1A
100
AcDbXrecord
280
     1
270
     1
271
     1
  0
XRECORD
  5
1B
102
{ACAD_REACTORS
330
1A
102
}
330
1A
100
AcDbXrecord
280
     1
270
     1
271
     1
  0
XRECORD
  5
1F
102
{ACAD_REACTORS
330
1A
102
}
330
1A
100
AcDbXrecord
280
     1
270
     1
271
     1
  0
XRECORD
  5
1E
102
{ACAD_REACTORS
330
1A
102
}
330
1A
100
AcDbXrecord
280
     1
270
     1
271
     1
  0
XRECORD
  5
20
102
{ACAD_REACTORS
330
1A
102
}
330
1A
100
AcDbXrecord
280
     1
270
     1
271
     1
  0
XRECORD
  5
1D
102
{ACAD_REACTORS
330
1A
102
}
330
1A
100
AcDbXrecord
280
     1
270
     1
271
     1
  0
XRECORD
  5
14
102
{ACAD_REACTORS
330
12
102
}
330
12
100
AcDbXrecord
280
     1
270
     1
271
     1
  0
XRECORD
  5
13
102
{ACAD_REACTORS
330
12
102
}
330
12
100
AcDbXrecord
280
     1
270
     1
271
     1
  0
XRECORD
  5
17
102
{ACAD_REACTORS
330
12
102
}
330
12
100
AcDbXrecord
280
     1
270
     1
271
     1
  0
XRECORD
  5
16
102
{ACAD_REACTORS
330
12
102
}
330
12
100
AcDbXrecord
280
     1
270
     1
271
     1
  0
XRECORD
  5
18
102
{ACAD_REACTORS
330
12
102
}
330
12
100
AcDbXrecord
280
     1
270
     1
271
     1
  0
XRECORD
  5
15
102
{ACAD_REACTORS
330
12
102
}
330
12
100
AcDbXrecord
280
     1
270
     1
271
     1
  0
XRECORD
  5
24
102
{ACAD_REACTORS
330
22
102
}
330
22
100
AcDbXrecord
280
     1
270
     1
271
     1
  0
XRECORD
  5
23
102
{ACAD_REACTORS
330
22
102
}
330
22
100
AcDbXrecord
280
     1
270
     1
271
     1
  0
XRECORD
  5
27
102
{ACAD_REACTORS
330
22
102
}
330
22
100
AcDbXrecord
280
     1
270
     1
271
     1
  0
XRECORD
  5
26
102
{ACAD_REACTORS
330
22
102
}
330
22
100
AcDbXrecord
280
     1
270
     1
271
     1
  0
XRECORD
  5
28
102
{ACAD_REACTORS
330
22
102
}
330
22
100
AcDbXrecord
280
     1
270
     1
271
     1
  0
XRECORD
  5
25
102
{ACAD_REACTORS
330
22
102
}
330
22
100
AcDbXrecord
280
     1
270
     1
271
     1
  0
CELLSTYLEMAP
  5
95
102
{ACAD_REACTORS
330
94
102
}
330
94
100
AcDbCellStyleMap
 90
        3
300
CELLSTYLE
  1
TABLEFORMAT_BEGIN
 90
        5
170
     1
 91
        0
 92
    32768
 62
   257
 93
        1
300
CONTENTFORMAT
  1
CONTENTFORMAT_BEGIN
 90
        0
 91
        0
 92
      512
 93
        0
300

 40
0.0
140
1.0
 94
        5
 62
     0
340
55
144
0.25
309
CONTENTFORMAT_END
171
     0
 94
        0
309
TABLEFORMAT_END
  1
CELLSTYLE_BEGIN
 90
        1
 91
        1
300
_TITLE
309
CELLSTYLE_END
300
CELLSTYLE
  1
TABLEFORMAT_BEGIN
 90
        5
170
     1
 91
        0
 92
        0
 62
   257
 93
        1
300
CONTENTFORMAT
  1
CONTENTFORMAT_BEGIN
 90
        0
 91
        0
 92
      512
 93
        0
300

 40
0.0
140
1.0
 94
        5
 62
     0
340
55
144
0.18
309
CONTENTFORMAT_END
171
     0
 94
        0
309
TABLEFORMAT_END
  1
CELLSTYLE_BEGIN
 90
        2
 91
        1
300
_HEADER
309
CELLSTYLE_END
300
CELLSTYLE
  1
TABLEFORMAT_BEGIN
 90
        5
170
     1
 91
        0
 92
        0
 62
   257
 93
        1
300
CONTENTFORMAT
  1
CONTENTFORMAT_BEGIN
 90
        0
 91
        0
 92
      512
 93
        0
300

 40
0.0
140
1.0
 94
        2
 62
     0
340
55
144
0.18
309
CONTENTFORMAT_END
171
     0
 94
        0
309
TABLEFORMAT_END
  1
CELLSTYLE_BEGIN
 90
        3
 91
        2
300
_DATA
309
CELLSTYLE_END
  0
ENDSEC
  0
EOF
