<?xml version="1.0" encoding="UTF-8"?>
<svg id="Layer_1" data-name="Layer 1" xmlns="http://www.w3.org/2000/svg" viewBox="0 0 500 500">
  <defs>
    <style>
      .cls-1 {
        fill: #fff;
      }

      .cls-2 {
        fill: #831618;
      }

      .cls-3 {
        fill: #0f592d;
      }
    </style>
  </defs>
  <g>
    <path d="M398.63,293.71c0-77.84,.02-155.7,0-233.54,0-10.31-3.95-18.92-11.49-25.92-7.18-6.67-15.82-9.34-25.47-9.32-20.07,.03-40.14,.03-60.21,.03-59.06,0-118.11-.02-177.16-.03-11.34,0-20.72,4.34-28.15,12.89-6.27,7.22-8.35,15.73-8.34,25.12,.08,59.52,.04,119.04,.04,178.55,0,49.66-.01,99.31,0,148.97,0,11.71-.06,23.43,.17,35.14,.17,8.21,3.52,15.25,9.04,21.3,8.08,8.86,18.27,11.9,30.02,11.88,72.97-.12,145.95-.03,218.92-.1,7.99-.01,16.05,.84,23.98-.63,17.04-3.17,28.65-17.63,28.66-35.57,.03-42.93-.01-85.85-.01-128.78Zm-2.43-51.84h-.05c0,59.4,0,118.79,0,178.2,0,5.01-.29,9.96-2.06,14.73-4.8,12.96-17.23,21.4-31.66,21.4-77.27,0-154.53-.02-231.79-.03-2.55,0-5.11,.06-7.66-.03-18.18-.65-31.86-14.28-32.59-32.44-.03-.93-.02-1.85-.02-2.78,0-119.38,.02-238.75-.03-358.13,0-9.73,2.62-18.27,9.62-25.26,6.96-6.93,15.36-10.01,25.14-10,56.96,.06,113.93,.03,170.89,.03,22.28,0,44.55-.09,66.82,.03,16.55,.09,29.64,10.91,32.75,26.74,.84,4.24,.62,8.55,.63,12.84,0,58.24,0,116.48,0,174.72Z"/>
    <path class="cls-1" d="M396.2,241.87h-.05c0,59.4,0,118.79,0,178.2,0,5.01-.29,9.96-2.06,14.73-4.8,12.96-17.23,21.4-31.66,21.4-77.27,0-154.53-.02-231.79-.03-2.55,0-5.11,.06-7.66-.03-18.18-.65-31.86-14.28-32.59-32.44-.03-.93-.02-1.85-.02-2.78,0-119.38,.02-238.75-.03-358.13,0-9.73,2.62-18.27,9.62-25.26,6.96-6.93,15.36-10.01,25.14-10,56.96,.06,113.93,.03,170.89,.03,22.28,0,44.55-.09,66.82,.03,16.55,.09,29.64,10.91,32.75,26.74,.84,4.24,.62,8.55,.63,12.84,0,58.24,0,116.48,0,174.72Z"/>
  </g>
  <path class="cls-2" d="M110.82,82.71c0-6.63,3.31-11.31,8.71-14.06l-.07-.24c-4.86-2.75-6.96-7.27-6.96-11.8,0-8.32,5.87-13.98,13.57-13.98,8.51,0,12.76,6.38,12.76,12.93,0,4.44-1.82,9.21-7.23,12.28v.24c5.47,2.59,8.85,7.19,8.85,13.58,0,9.13-6.55,15.27-14.92,15.27-9.18,0-14.72-6.55-14.72-14.22Zm23.64-.32c0-6.38-3.71-9.46-9.66-11.48-5.13,1.78-7.9,5.82-7.9,10.83-.2,5.33,3.17,10.02,8.78,10.02s8.78-3.96,8.78-9.37Zm-16.34-26.26c0,5.25,3.31,8.08,8.37,9.7,3.78-1.54,6.69-4.77,6.69-9.54,0-4.2-2.09-8.57-7.43-8.57-4.93,0-7.63,3.88-7.63,8.4Z"/>
  <g>
    <path class="cls-3" d="M186.3,199.49c6.4-8.66,17.78-12.21,15.99-25.36-.53-3.88,4.22-5.94,8.9-6.08,11.13-.34,15.29-5.94,12.89-16.55-2.11-9.31,3.08-14.59,12.2-11.75,4.57,1.42,8.46,2.57,13.13,.2,3.59-1.82,7.95-2.27,11.12,1.32,2.94,3.32,2.74,7.23,1.54,11.34-2.41,8.23,2.78,15.75,11.42,15.55,8.24-.18,11.04,2.64,11.02,11.11-.03,9.82,10.42,12.57,15.73,20.4,2.11-5.47,1.61-7.87-2.92-10.48-10.33-5.96-10.59-12.61-.68-18.65,4.25-2.59,5.19-5.34,5.01-9.63-.21-5.01-.3-10.04,.02-15.04,.34-5.4-.74-9.45-5.97-12.45-4.11-2.36-7.08-6.55-5.76-11.82,1.26-5.04,6.09-6.13,10.24-6.86,12.59-2.23,25.33-2.81,37.8,.5,10.6,2.81,12.02,9.78,4.06,17.43-10.07,9.68-9.81,30.49,.49,39.34,6.08,5.23,6.43,12-.57,15.52-6.54,3.28-7.1,7.76-6.75,13.65,.22,3.67,.25,7.37,0,11.03-.41,5.96,.29,10.97,6.33,14.35,3.9,2.18,6.34,6.35,5.16,11.06-1.11,4.4-5.28,5.71-9.27,6.62-12.91,2.93-25.88,3.09-38.71-.17-6.91-1.76-12.39-5.23-6.88-13.4,2.43-3.61,.58-5.38-1.64-7.57-6.66-6.57-12.25-15.26-20.19-19.25-9.6-4.82-19.65-6.89-20.03-20.47-.05-1.84-4.15-7.52-8.21-4.83-3.75,2.47-9.02,5.02-8.07,11.44,1.09,7.39-2.72,10.91-9.7,10.29-4-.35-6.2,1.44-8.59,3.86-5.17,5.23-10.4,10.4-15.65,15.56-3.96,3.89-8.81,6.81-3.71,13.91,3.3,4.59-1.2,8.29-5.58,9.62-14.74,4.48-29.74,4.61-44.41,.03-8.34-2.6-8.81-9.67-1.82-16.31,2.75-2.61,7.31-3.61,7.1-8.83-.35-8.67,3.15-21.66-1.19-25.2-12.71-10.38-14.24-16.42,.27-25.74,4.91-3.15-.27-29.3-5.26-33.78-3.32-2.98-6.35-6.31-5.54-11.13,.89-5.25,5.6-6.46,9.78-7.3,12.57-2.54,25.24-2.6,37.81,.07,3.93,.84,8.05,2.14,9.31,6.63,1.38,4.9-1.19,9.02-5.02,11.08-9.04,4.84-6.35,12.96-6.48,20.24-.13,7.29-1.97,14.67,7.29,19.53,7.2,3.78,6.13,11.36-1.44,15.8-4.12,2.42-7.65,4.21-4.56,11.21Zm-10.82-55.26c0-5.01-.25-10.03,.07-15.01,.37-5.67-2.73-6.66-7.4-6.64-4.6,.01-7.64,.8-7.42,6.56,.36,9.33,.31,18.69,0,28.03-.18,5.43,.37,8.56,7.3,8.46,6.62-.09,7.97-2.72,7.52-8.39-.34-4.31-.07-8.67-.08-13.01Zm150.24-.48c0-4.67-.25-9.36,.07-14.01,.35-5.12-1.56-7.23-6.8-7.19-5.04,.04-8.29,.85-8.03,7.07,.38,8.99,.31,18.02,.01,27.02-.19,5.83,.61,9.03,7.94,9.02,7.53,0,6.92-4.09,6.83-8.9-.08-4.34-.02-8.68-.02-13.01Zm-164.89,70.72c0,5.33,.31,10.68-.08,15.98-.43,5.77,2.64,6.52,7.29,6.47,4.48-.05,7.75-.41,7.54-6.31-.34-9.32-.32-18.66,.01-27.98,.21-5.86-.6-8.94-7.89-8.91-7.34,.03-7.07,3.85-6.91,8.75,.12,3.99,.03,7.99,.05,11.99Zm164.89,1.13c0-5-.3-10.02,.08-14.98,.41-5.31-1.65-6.93-6.83-6.73-4.75,.18-8.38,.02-8.04,6.63,.48,9.3,.32,18.66,.04,27.97-.17,5.47,.68,8.56,7.41,8.58,6.67,.01,7.84-2.9,7.41-8.47-.33-4.31-.07-8.66-.07-12.99Zm-98.28-34.98c2.84-1.95,4.2-2.45,4.88-3.42,7.18-10.25,14.26-11.01,21.65-.16,1.94,2.85,4.13,2.31,6.56-.06,2.7-2.63,2.85-4.41,.16-7.32-5.69-6.13-13.86-10.83-12.82-21.23,.24-2.43-2.39-2.82-4.44-2.83-2.01-.01-4.81,.15-4.62,2.56,.86,10.73-7.71,15.49-13.38,22.09-1.31,1.52-2.75,2.81-1.01,5.06,1.22,1.57,2.01,3.48,3.03,5.3Zm-41.92,40.72c.94,.73,1.88,1.45,2.82,2.18,7.76-8.49,15.51-16.99,23.3-25.45,1.61-1.75,2.05-3.41-.11-4.92-1.73-1.21-2.48-3.94-5.65-2.9-8.12,2.67-21.14,22.33-20.35,31.1Zm115.13,3.71c1.19-12.48-11.62-31.92-19.91-34.79-3.17-1.1-3.96,1.57-5.67,2.8-2.09,1.51-1.88,3.17-.2,4.93,7.96,8.32,15.89,16.66,25.79,27.05Zm-139.78-45.57c-.14,5.21-1.24,10.23,6.74,10.37,7.91,.14,8.06-4.22,8.01-10.06-.05-5.74,.09-10.2-8-10.02-8.04,.18-6.85,5.13-6.74,9.72Zm164.79-.16c.76-5.41,.27-9.68-7.73-9.55-7.97,.13-6.7,5.11-6.96,10-.3,5.84,.01,10.21,7.94,10.07,7.96-.13,6.91-5.12,6.74-10.53Zm-108.22,11.54c3.33-1.28,6.44-3.59,7.26-7.17,.64-2.75-2.33-5.55-4.67-5.5-4.22,.09-7.33,3.52-8.14,7.34-.5,2.35,2.39,4.5,5.55,5.33Zm57.66-5.47c-1.94-3.24-4.09-6.77-8.16-7.25-2.73-.32-5.23,2.65-5.18,4.94,.09,3.83,3.57,6.52,6.81,7.5,3.04,.92,5.09-2.11,6.53-5.19Z"/>
    <path class="cls-3" d="M300.23,329.28c-6.52,8.69-17.81,12.44-16.09,25.47,.46,3.47-3.74,6.7-7.93,5.81-5.93-1.25-9.07,2.28-13.07,5.41-5.53,4.33-1.29,8.27-.54,12.45,1.52,8.47-4.05,13.38-12.79,10.52-4.65-1.52-8.46-1.76-13.19-.19-9.58,3.18-14.83-2.38-12.25-12.22,2.34-8.92-2.66-15.89-12-15.85-7.68,.04-10.78-2.94-10.43-10.78,.46-10.48-11.14-12.03-14.71-21.43q-2.12,8.04,2.69,11.38c9.27,6.43,9.56,12.36-.02,18.34-4.17,2.6-5.23,5.33-5.03,9.66,.24,5,.25,10.04,0,15.04-.26,5.29,.33,9.66,5.74,12.61,3.87,2.11,6.83,5.92,5.99,10.73-.9,5.15-5.59,6.14-9.87,7.09-12.92,2.86-25.89,3.12-38.67-.41-10.25-2.83-11.5-9.32-3.61-16.6,10.05-9.27,9.86-30.78-.34-39.39-6.26-5.29-6.72-11.6,.44-15.44,6.83-3.66,7-8.59,6.78-14.73-.36-10,2.1-20.1-8.83-27.58-6.21-4.25-3.95-11.3,3.6-13.61,14.7-4.51,29.69-4.5,44.4,.08,5.51,1.71,8.66,5.81,4.8,11.55-2.74,4.06-1.38,6.39,1.63,9.24,6.31,5.97,13.17,11.62,18.28,18.54,4.68,6.33,11.52,1.09,16.44,5.12,5.5,4.5-1.52,12.36,5.18,16.07,2.68,1.48,4.15,6.79,7.92,4.16,3.53-2.47,8.75-4.9,8.09-10.46-1.09-9.12,2.83-12.35,11.47-11.31,4.47,.54,6.16-3.5,8.72-5.88,4.9-4.54,9.38-9.54,14.3-14.06,4.13-3.79,7.28-6.87,3.1-13.17-3.09-4.67,.84-8.39,5.38-9.78,14.74-4.53,29.72-4.64,44.41-.16,8.23,2.51,9.76,9.75,2.52,15.24-13.14,9.96-5.57,23.26-7.18,35.01-.46,3.32,3.71,3.3,5.71,4.82,7.44,5.68,8.03,12.14,.17,16.73-5.31,3.11-6.5,6.6-6.28,12.02,.43,10.93-2.43,22.08,9.37,30.34,5.8,4.05,2.79,10.75-5.28,13.01-13.78,3.86-27.8,3.94-41.58,.09-9.53-2.67-10.57-9.13-3.31-16.21,2.71-2.64,7.42-3.54,7.25-8.77-.28-8.68-.02-17.38-.64-26.03-.1-1.41-3.62-2.5-5.48-3.85-7.89-5.76-7.99-12.18,.34-17.39,4.06-2.54,7.48-4.43,4.39-11.25Zm-139.41,55.04c0,5.01,.28,10.03-.07,15.01-.38,5.4,2.08,6.9,7.05,6.95,5.29,.05,8.03-1.35,7.79-7.33-.38-9.33-.47-18.7,.03-28.02,.36-6.57-2.5-7.52-8.23-7.69-6.65-.2-6.81,3.3-6.61,8.07,.19,4.33,.04,8.67,.04,13.01Zm164.9,.4c0-5.01-.33-10.04,.08-15.01,.48-5.8-2.52-6.5-7.24-6.37-4.39,.12-7.82,.14-7.59,6.17,.35,9.33,.27,18.69,0,28.03-.15,5.4,.58,8.81,7.36,8.82,6.62,0,7.87-3.04,7.45-8.62-.32-4.31-.06-8.67-.07-13.01Zm-150.23-71.23c0-4.66-.27-9.35,.07-13.99,.39-5.46-1.4-7.77-7.24-7.67-5.33,.08-7.9,1.22-7.62,7.25,.45,9.64,.35,19.32,.02,28.97-.17,5.09,1.26,7.23,6.68,6.88,4.54-.29,8.76,.33,8.16-6.46-.44-4.96-.09-9.99-.08-14.98Zm150.21,.14c0-5.33-.24-10.67,.07-15.99,.31-5.47-2.99-5.71-6.99-5.7-4.21,.02-8.01-.21-7.8,5.99,.32,9.65,.35,19.33-.03,28.98-.23,5.78,1.13,8.09,7.62,8.17,6.98,.09,7.53-3.16,7.22-8.46-.26-4.32-.05-8.66-.08-12.99Zm-60.96,40.5c-2.25-1.44-4.15-2.88-6.23-3.92-2.93-1.47-4.48,1.17-5.66,2.83-6.36,8.93-12.42,9.54-18.97,.16-1.89-2.71-4.18-5.12-8.03-1.34-3.67,3.6-1.56,5.45,.83,8.09,5.21,5.78,12.78,10.11,11.93,19.74-.28,3.11,2.57,3.44,5.03,3.36,2.09-.07,4.55-.54,4.28-3.08-1.04-9.65,6.62-13.95,11.72-19.85,1.26-1.46,2.5-2.93,5.12-6Zm-76.3-49c-.98,.81-1.97,1.63-2.95,2.44-.74,8.72,12.5,28.57,20.53,31.11,3.11,.98,4.06-1.54,5.73-2.88,2.02-1.62,1.47-3.31-.11-5.04-7.76-8.52-15.47-17.08-23.19-25.63Zm112.52,2.28c-.89-.65-1.78-1.29-2.67-1.94-7.84,8.48-15.67,16.97-23.53,25.44-1.65,1.78-1.84,3.5,.11,5.06,1.67,1.34,2.69,3.73,5.79,2.62,8.51-3.07,21.18-22.28,20.29-31.18Zm-140.25,39.24c.46,6.27-2.02,12.3,7.03,12.3,7.17,0,8.21-3.35,7.81-9.13-.35-5.07,1.49-10.95-7.08-11.06-7.04-.09-8.51,3.44-7.76,7.89Zm164.95,1.96c.62-5.24,.47-10.02-7.6-9.85-7.63,.16-7,4.96-7.09,10.09-.1,5.64-.37,10.21,7.83,10.13,8.09-.08,7.03-4.92,6.86-10.36Zm-107.9-10.61c-3.18,.89-6.53,2.69-5.98,5.64,.63,3.33,3.79,6.44,7.32,7.09,3.21,.59,5.81-2.64,5.58-5.36-.3-3.64-3.83-5.66-6.92-7.37Zm57.31,5.68c-1.03-2.83-2.94-5.29-5.59-5.3-4.02-.02-6.86,3.32-7.57,6.71-.59,2.81,2.29,6.06,5.39,5.64,3.64-.5,5.78-4.01,7.76-7.05Z"/>
  </g>
</svg>