  0
SECTION
  2
HEADER
  9
$ACADVER
  1
AC1032
  9
$ACADMAINTVER
 90
      228
  9
$DWGCODEPAGE
  3
ANSI_1252
  9
$REQUIREDVERSIONS
160
                 0
  9
$INSBASE
 10
0.0
 20
0.0
 30
0.0
  9
$EXTMIN
 10
1.000000000000000E+20
 20
1.000000000000000E+20
 30
1.000000000000000E+20
  9
$EXTMAX
 10
-1.000000000000000E+20
 20
-1.000000000000000E+20
 30
-1.000000000000000E+20
  9
$LIMMIN
 10
0.0
 20
0.0
  9
$LIMMAX
 10
12.0
 20
9.0
  9
$ORTHOMODE
 70
     0
  9
$REGENMODE
 70
     1
  9
$FILLMODE
 70
     1
  9
$QTEXTMODE
 70
     0
  9
$MIRRTEXT
 70
     0
  9
$LTSCALE
 40
1.0
  9
$ATTMODE
 70
     1
  9
$TEXTSIZE
 40
0.2
  9
$TRACEWID
 40
0.05
  9
$TEXTSTYLE
  7
Standard
  9
$CLAYER
  8
0
  9
$CELTYPE
  6
ByLayer
  9
$CECOLOR
 62
   256
  9
$CELTSCALE
 40
1.0
  9
$DISPSILH
 70
     0
  9
$DIMSCALE
 40
1.0
  9
$DIMASZ
 40
0.18
  9
$DIMEXO
 40
0.0625
  9
$DIMDLI
 40
0.38
  9
$DIMRND
 40
0.0
  9
$DIMDLE
 40
0.0
  9
$DIMEXE
 40
0.18
  9
$DIMTP
 40
0.0
  9
$DIMTM
 40
0.0
  9
$DIMTXT
 40
0.18
  9
$DIMCEN
 40
0.09
  9
$DIMTSZ
 40
0.0
  9
$DIMTOL
 70
     0
  9
$DIMLIM
 70
     0
  9
$DIMTIH
 70
     1
  9
$DIMTOH
 70
     1
  9
$DIMSE1
 70
     0
  9
$DIMSE2
 70
     0
  9
$DIMTAD
 70
     0
  9
$DIMZIN
 70
     0
  9
$DIMBLK
  1

  9
$DIMASO
 70
     1
  9
$DIMSHO
 70
     1
  9
$DIMPOST
  1

  9
$DIMAPOST
  1

  9
$DIMALT
 70
     0
  9
$DIMALTD
 70
     2
  9
$DIMALTF
 40
25.4
  9
$DIMLFAC
 40
1.0
  9
$DIMTOFL
 70
     0
  9
$DIMTVP
 40
0.0
  9
$DIMTIX
 70
     0
  9
$DIMSOXD
 70
     0
  9
$DIMSAH
 70
     0
  9
$DIMBLK1
  1

  9
$DIMBLK2
  1

  9
$DIMSTYLE
  2
Standard
  9
$DIMCLRD
 70
     0
  9
$DIMCLRE
 70
     0
  9
$DIMCLRT
 70
     0
  9
$DIMTFAC
 40
1.0
  9
$DIMGAP
 40
0.09
  9
$DIMJUST
 70
     0
  9
$DIMSD1
 70
     0
  9
$DIMSD2
 70
     0
  9
$DIMTOLJ
 70
     1
  9
$DIMTZIN
 70
     0
  9
$DIMALTZ
 70
     0
  9
$DIMALTTZ
 70
     0
  9
$DIMUPT
 70
     0
  9
$DIMDEC
 70
     4
  9
$DIMTDEC
 70
     4
  9
$DIMALTU
 70
     2
  9
$DIMALTTD
 70
     2
  9
$DIMTXSTY
  7
Standard
  9
$DIMAUNIT
 70
     0
  9
$DIMADEC
 70
     0
  9
$DIMALTRND
 40
0.0
  9
$DIMAZIN
 70
     0
  9
$DIMDSEP
 70
    46
  9
$DIMATFIT
 70
     3
  9
$DIMFRAC
 70
     0
  9
$DIMLDRBLK
  1

  9
$DIMLUNIT
 70
     2
  9
$DIMLWD
 70
    -2
  9
$DIMLWE
 70
    -2
  9
$DIMTMOVE
 70
     0
  9
$DIMFXL
 40
1.0
  9
$DIMFXLON
 70
     0
  9
$DIMJOGANG
 40
0.7853981633974483
  9
$DIMTFILL
 70
     0
  9
$DIMTFILLCLR
 70
     0
  9
$DIMARCSYM
 70
     0
  9
$DIMLTYPE
  6

  9
$DIMLTEX1
  6

  9
$DIMLTEX2
  6

  9
$DIMTXTDIRECTION
 70
     0
  9
$LUNITS
 70
     2
  9
$LUPREC
 70
     4
  9
$SKETCHINC
 40
0.1
  9
$FILLETRAD
 40
0.0
  9
$AUNITS
 70
     0
  9
$AUPREC
 70
     0
  9
$MENU
  1
.
  9
$ELEVATION
 40
0.0
  9
$PELEVATION
 40
0.0
  9
$THICKNESS
 40
0.0
  9
$LIMCHECK
 70
     0
  9
$CHAMFERA
 40
0.0
  9
$CHAMFERB
 40
0.0
  9
$CHAMFERC
 40
0.0
  9
$CHAMFERD
 40
0.0
  9
$SKPOLY
 70
     0
  9
$TDCREATE
 40
2460929.579872685
  9
$TDUCREATE
 40
2460929.371539352
  9
$TDUPDATE
 40
2460929.579872685
  9
$TDUUPDATE
 40
2460929.371539352
  9
$TDINDWG
 40
0.0000000000
  9
$TDUSRTIMER
 40
0.0000000000
  9
$USRTIMER
 70
     1
  9
$ANGBASE
 50
0.0
  9
$ANGDIR
 70
     0
  9
$PDMODE
 70
     0
  9
$PDSIZE
 40
0.0
  9
$PLINEWID
 40
0.0
  9
$SPLFRAME
 70
     0
  9
$SPLINETYPE
 70
     6
  9
$SPLINESEGS
 70
     8
  9
$HANDSEED
  5
8F
  9
$SURFTAB1
 70
     6
  9
$SURFTAB2
 70
     6
  9
$SURFTYPE
 70
     6
  9
$SURFU
 70
     6
  9
$SURFV
 70
     6
  9
$UCSBASE
  2

  9
$UCSNAME
  2

  9
$UCSORG
 10
0.0
 20
0.0
 30
0.0
  9
$UCSXDIR
 10
1.0
 20
0.0
 30
0.0
  9
$UCSYDIR
 10
0.0
 20
1.0
 30
0.0
  9
$UCSORTHOREF
  2

  9
$UCSORTHOVIEW
 70
     0
  9
$UCSORGTOP
 10
0.0
 20
0.0
 30
0.0
  9
$UCSORGBOTTOM
 10
0.0
 20
0.0
 30
0.0
  9
$UCSORGLEFT
 10
0.0
 20
0.0
 30
0.0
  9
$UCSORGRIGHT
 10
0.0
 20
0.0
 30
0.0
  9
$UCSORGFRONT
 10
0.0
 20
0.0
 30
0.0
  9
$UCSORGBACK
 10
0.0
 20
0.0
 30
0.0
  9
$PUCSBASE
  2

  9
$PUCSNAME
  2

  9
$PUCSORG
 10
0.0
 20
0.0
 30
0.0
  9
$PUCSXDIR
 10
1.0
 20
0.0
 30
0.0
  9
$PUCSYDIR
 10
0.0
 20
1.0
 30
0.0
  9
$PUCSORTHOREF
  2

  9
$PUCSORTHOVIEW
 70
     0
  9
$PUCSORGTOP
 10
0.0
 20
0.0
 30
0.0
  9
$PUCSORGBOTTOM
 10
0.0
 20
0.0
 30
0.0
  9
$PUCSORGLEFT
 10
0.0
 20
0.0
 30
0.0
  9
$PUCSORGRIGHT
 10
0.0
 20
0.0
 30
0.0
  9
$PUCSORGFRONT
 10
0.0
 20
0.0
 30
0.0
  9
$PUCSORGBACK
 10
0.0
 20
0.0
 30
0.0
  9
$USERI1
 70
     0
  9
$USERI2
 70
     0
  9
$USERI3
 70
     0
  9
$USERI4
 70
     0
  9
$USERI5
 70
     0
  9
$USERR1
 40
0.0
  9
$USERR2
 40
0.0
  9
$USERR3
 40
0.0
  9
$USERR4
 40
0.0
  9
$USERR5
 40
0.0
  9
$WORLDVIEW
 70
     1
  9
$SHADEDGE
 70
     3
  9
$SHADEDIF
 70
    70
  9
$TILEMODE
 70
     1
  9
$MAXACTVP
 70
    64
  9
$PINSBASE
 10
0.0
 20
0.0
 30
0.0
  9
$PLIMCHECK
 70
     0
  9
$PEXTMIN
 10
1.000000000000000E+20
 20
1.000000000000000E+20
 30
1.000000000000000E+20
  9
$PEXTMAX
 10
-1.000000000000000E+20
 20
-1.000000000000000E+20
 30
-1.000000000000000E+20
  9
$PLIMMIN
 10
0.0
 20
0.0
  9
$PLIMMAX
 10
12.0
 20
9.0
  9
$UNITMODE
 70
     0
  9
$VISRETAIN
 70
     1
  9
$PLINEGEN
 70
     0
  9
$PSLTSCALE
 70
     1
  9
$TREEDEPTH
 70
  3020
  9
$CMLSTYLE
  2
Standard
  9
$CMLJUST
 70
     0
  9
$CMLSCALE
 40
1.0
  9
$PROXYGRAPHICS
 70
     1
  9
$MEASUREMENT
 70
     0
  9
$CELWEIGHT
370
    -1
  9
$ENDCAPS
280
     0
  9
$JOINSTYLE
280
     0
  9
$LWDISPLAY
290
     1
  9
$INSUNITS
 70
     0
  9
$HYPERLINKBASE
  1

  9
$STYLESHEET
  1

  9
$XEDIT
290
     1
  9
$CEPSNTYPE
380
     0
  9
$PSTYLEMODE
290
     1
  9
$FINGERPRINTGUID
  2
{0686F1C8-27E3-D144-A2F7-9355822C1922}
  9
$VERSIONGUID
  2
{00D83310-41F8-EE44-9DEC-27EA768A1BB1}
  9
$EXTNAMES
290
     1
  9
$PSVPSCALE
 40
0.0
  9
$OLESTARTUP
290
     0
  9
$SORTENTS
280
   127
  9
$INDEXCTL
280
     0
  9
$HIDETEXT
280
     1
  9
$XCLIPFRAME
280
     2
  9
$HALOGAP
280
     0
  9
$OBSCOLOR
 70
   257
  9
$OBSLTYPE
280
     0
  9
$INTERSECTIONDISPLAY
280
     0
  9
$INTERSECTIONCOLOR
 70
   257
  9
$DIMASSOC
280
     2
  9
$PROJECTNAME
  1

  9
$CAMERADISPLAY
290
     0
  9
$LENSLENGTH
 40
50.0
  9
$CAMERAHEIGHT
 40
0.0
  9
$STEPSPERSEC
 40
2.0
  9
$STEPSIZE
 40
6.0
  9
$3DDWFPREC
 40
2.0
  9
$PSOLWIDTH
 40
0.25
  9
$PSOLHEIGHT
 40
4.0
  9
$LOFTANG1
 40
1.570796326794896
  9
$LOFTANG2
 40
1.570796326794896
  9
$LOFTMAG1
 40
0.0
  9
$LOFTMAG2
 40
0.0
  9
$LOFTPARAM
 70
     7
  9
$LOFTNORMALS
280
     1
  9
$LATITUDE
 40
37.795
  9
$LONGITUDE
 40
-122.394
  9
$NORTHDIRECTION
 40
0.0
  9
$TIMEZONE
 70
 -8000
  9
$LIGHTGLYPHDISPLAY
280
     1
  9
$TILEMODELIGHTSYNCH
280
     1
  9
$CMATERIAL
347
11
  9
$SOLIDHIST
280
     0
  9
$SHOWHIST
280
     1
  9
$DWFFRAME
280
     2
  9
$DGNFRAME
280
     0
  9
$REALWORLDSCALE
290
     1
  9
$INTERFERECOLOR
 62
     1
  9
$INTERFEREOBJVS
345
33
  9
$INTERFEREVPVS
346
30
  9
$CSHADOW
280
     0
  9
$SHADOWPLANELOCATION
 40
0.0
  0
ENDSEC
  0
SECTION
  2
CLASSES
  0
CLASS
  1
ACDBDICTIONARYWDFLT
  2
AcDbDictionaryWithDefault
  3
ObjectDBX Classes
 90
        0
 91
        1
280
     0
281
     0
  0
CLASS
  1
MATERIAL
  2
AcDbMaterial
  3
ObjectDBX Classes
 90
     1153
 91
        3
280
     0
281
     0
  0
CLASS
  1
VISUALSTYLE
  2
AcDbVisualStyle
  3
ObjectDBX Classes
 90
     4095
 91
       24
280
     0
281
     0
  0
CLASS
  1
SCALE
  2
AcDbScale
  3
ObjectDBX Classes
 90
     1153
 91
       17
280
     0
281
     0
  0
CLASS
  1
TABLESTYLE
  2
AcDbTableStyle
  3
ObjectDBX Classes
 90
     4095
 91
        1
280
     0
281
     0
  0
CLASS
  1
MLEADERSTYLE
  2
AcDbMLeaderStyle
  3
ACDB_MLEADERSTYLE_CLASS
 90
     4095
 91
        1
280
     0
281
     0
  0
CLASS
  1
ACDBSECTIONVIEWSTYLE
  2
AcDbSectionViewStyle
  3
ObjectDBX Classes
 90
     1025
 91
        1
280
     0
281
     0
  0
CLASS
  1
ACDBDETAILVIEWSTYLE
  2
AcDbDetailViewStyle
  3
ObjectDBX Classes
 90
     1025
 91
        1
280
     0
281
     0
  0
CLASS
  1
DICTIONARYVAR
  2
AcDbDictionaryVar
  3
ObjectDBX Classes
 90
        0
 91
        5
280
     0
281
     0
  0
CLASS
  1
CELLSTYLEMAP
  2
AcDbCellStyleMap
  3
ObjectDBX Classes
 90
     1152
 91
        1
280
     0
281
     0
  0
ENDSEC
  0
SECTION
  2
TABLES
  0
TABLE
  2
VPORT
  5
8
330
0
100
AcDbSymbolTable
 70
     1
  0
VPORT
  5
57
330
8
100
AcDbSymbolTableRecord
100
AcDbViewportTableRecord
  2
*Active
 70
     0
 10
0.0
 20
0.0
 11
1.0
 21
1.0
 12
0.0
 22
0.0
 13
0.0
 23
0.0
 14
1.0
 24
1.0
 15
0.0
 25
0.0
 16
0.0
 26
0.0
 36
1.0
 17
2070.329143804109
 27
-1549.708560332395
 37
0.0
 40
3099.36839297975
 41
1.304893925962813
 42
50.0
 43
0.0
 44
0.0
 50
0.0
 51
0.0
 71
     0
 72
   100
 73
     1
 74
     1
 75
     0
 76
     0
 77
     0
 78
     0
281
     0
 65
     1
110
0.0
120
0.0
130
0.0
111
1.0
121
0.0
131
0.0
112
0.0
122
1.0
132
0.0
 79
     0
146
0.0
 60
     3
 61
     5
292
     1
282
     1
141
0.0
142
0.0
 63
   250
421
  3355443
  0
ENDTAB
  0
TABLE
  2
LTYPE
  5
5
330
0
100
AcDbSymbolTable
 70
     1
  0
LTYPE
  5
5B
330
5
100
AcDbSymbolTableRecord
100
AcDbLinetypeTableRecord
  2
ByBlock
 70
     0
  3

 72
    65
 73
     0
 40
0.0
  0
LTYPE
  5
5C
330
5
100
AcDbSymbolTableRecord
100
AcDbLinetypeTableRecord
  2
ByLayer
 70
     0
  3

 72
    65
 73
     0
 40
0.0
  0
LTYPE
  5
5D
330
5
100
AcDbSymbolTableRecord
100
AcDbLinetypeTableRecord
  2
Continuous
 70
     0
  3
Solid line
 72
    65
 73
     0
 40
0.0
  0
ENDTAB
  0
TABLE
  2
LAYER
  5
2
330
0
100
AcDbSymbolTable
 70
     2
  0
LAYER
  5
54
330
2
100
AcDbSymbolTableRecord
100
AcDbLayerTableRecord
  2
0
 70
     0
 62
     7
  6
Continuous
370
    -3
390
F
347
21
348
0
  0
LAYER
  5
78
330
2
100
AcDbSymbolTableRecord
100
AcDbLayerTableRecord
  2
Layer 1
 70
     0
 62
     7
  6
Continuous
370
     0
390
F
347
21
348
0
  0
ENDTAB
  0
TABLE
  2
STYLE
  5
3
330
0
100
AcDbSymbolTable
 70
     2
  0
STYLE
  5
55
330
3
100
AcDbSymbolTableRecord
100
AcDbTextStyleTableRecord
  2
Standard
 70
     0
 40
0.0
 41
1.0
 50
0.0
 71
     0
 42
0.2
  3
txt
  4

  0
STYLE
  5
5A
330
3
100
AcDbSymbolTableRecord
100
AcDbTextStyleTableRecord
  2
Annotative
 70
     0
 40
0.0
 41
1.0
 50
0.0
 71
     0
 42
0.2
  3
txt
  4

1001
AcadAnnotative
1000
AnnotativeData
1002
{
1070
     1
1070
     1
1002
}
  0
ENDTAB
  0
TABLE
  2
VIEW
  5
6
330
0
100
AcDbSymbolTable
 70
     0
  0
ENDTAB
  0
TABLE
  2
UCS
  5
7
330
0
100
AcDbSymbolTable
 70
     0
  0
ENDTAB
  0
TABLE
  2
APPID
  5
9
330
0
100
AcDbSymbolTable
 70
     2
  0
APPID
  5
56
330
9
100
AcDbSymbolTableRecord
100
AcDbRegAppTableRecord
  2
ACAD
 70
     0
  0
APPID
  5
5E
330
9
100
AcDbSymbolTableRecord
100
AcDbRegAppTableRecord
  2
AcadAnnotative
 70
     0
  0
ENDTAB
  0
TABLE
  2
DIMSTYLE
  5
A
330
0
100
AcDbSymbolTable
 70
     2
100
AcDbDimStyleTable
 71
     0
  0
DIMSTYLE
105
58
330
A
100
AcDbSymbolTableRecord
100
AcDbDimStyleTableRecord
  2
Standard
 70
     0
340
55
  0
DIMSTYLE
105
59
330
A
100
AcDbSymbolTableRecord
100
AcDbDimStyleTableRecord
  2
Annotative
 70
     0
340
55
1001
AcadAnnotative
1000
AnnotativeData
1002
{
1070
     1
1070
     1
1002
}
  0
ENDTAB
  0
TABLE
  2
BLOCK_RECORD
  5
1
330
0
100
AcDbSymbolTable
 70
     1
  0
BLOCK_RECORD
  5
70
330
1
100
AcDbSymbolTableRecord
100
AcDbBlockTableRecord
  2
*Model_Space
340
73
 70
     0
280
     1
281
     0
  0
BLOCK_RECORD
  5
6C
330
1
100
AcDbSymbolTableRecord
100
AcDbBlockTableRecord
  2
*Paper_Space
340
6F
 70
     0
280
     1
281
     0
  0
BLOCK_RECORD
  5
74
330
1
100
AcDbSymbolTableRecord
100
AcDbBlockTableRecord
  2
*Paper_Space0
340
77
 70
     0
280
     1
281
     0
  0
ENDTAB
  0
ENDSEC
  0
SECTION
  2
BLOCKS
  0
BLOCK
  5
71
330
70
100
AcDbEntity
  8
0
100
AcDbBlockBegin
  2
*Model_Space
 70
     0
 10
0.0
 20
0.0
 30
0.0
  3
*Model_Space
  1

  0
ENDBLK
  5
72
330
70
100
AcDbEntity
  8
0
100
AcDbBlockEnd
  0
BLOCK
  5
6D
330
6C
100
AcDbEntity
 67
     1
  8
0
100
AcDbBlockBegin
  2
*Paper_Space
 70
     0
 10
0.0
 20
0.0
 30
0.0
  3
*Paper_Space
  1

  0
ENDBLK
  5
6E
330
6C
100
AcDbEntity
 67
     1
  8
0
100
AcDbBlockEnd
  0
BLOCK
  5
75
330
74
100
AcDbEntity
 67
     1
  8
0
100
AcDbBlockBegin
  2
*Paper_Space0
 70
     0
 10
0.0
 20
0.0
 30
0.0
  3
*Paper_Space0
  1

  0
ENDBLK
  5
76
330
74
100
AcDbEntity
 67
     1
  8
0
100
AcDbBlockEnd
  0
ENDSEC
  0
SECTION
  2
ENTITIES
  0
SPLINE
  5
79
330
70
100
AcDbEntity
  8
Layer 1
100
AcDbSpline
210
0.0
220
0.0
230
1.0
 70
     9
 71
     3
 72
    53
 73
    49
 74
     0
 42
0.0000000001
 43
0.0000000001
 40
0.0
 40
0.0
 40
0.0
 40
0.0
 40
1.0
 40
1.0
 40
1.0
 40
2.0
 40
2.0
 40
2.0
 40
3.0
 40
3.0
 40
3.0
 40
4.0
 40
4.0
 40
4.0
 40
5.0
 40
5.0
 40
5.0
 40
6.0
 40
6.0
 40
6.0
 40
7.0
 40
7.0
 40
7.0
 40
8.0
 40
8.0
 40
8.0
 40
9.0
 40
9.0
 40
9.0
 40
10.0
 40
10.0
 40
10.0
 40
11.0
 40
11.0
 40
11.0
 40
12.0
 40
12.0
 40
12.0
 40
13.0
 40
13.0
 40
13.0
 40
14.0
 40
14.0
 40
14.0
 40
15.0
 40
15.0
 40
15.0
 40
16.0
 40
16.0
 40
16.0
 40
16.0
 10
1936.44229038324
 20
-1799.933915424748
 30
0.0
 10
1936.44229038324
 20
-1799.933915424748
 30
0.0
 10
1936.393964007606
 20
-1799.933915424748
 30
0.0
 10
1936.393964007606
 20
-1799.933915424748
 30
0.0
 10
1936.393964007606
 20
-1858.882099499231
 30
0.0
 10
1936.387048191198
 20
-1917.830283573712
 30
0.0
 10
1936.400879824016
 20
-1976.785341294988
 30
0.0
 10
1936.400879824016
 20
-1981.759879603524
 30
0.0
 10
1936.110668552543
 20
-1986.672259903604
 30
0.0
 10
1934.35582230856
 20
-1991.404955485908
 30
0.0
 10
1929.58846330499
 20
-2004.262723277214
 30
0.0
 10
1917.255875864588
 20
-2012.643427675648
 30
0.0
 10
1902.933304422326
 20
-2012.643427675648
 30
0.0
 10
1826.249551338496
 20
-2012.63651185924
 30
0.0
 10
1749.565798254669
 20
-2012.622722396034
 30
0.0
 10
1672.888960987247
 20
-2012.608890763218
 30
0.0
 10
1670.353302202931
 20
-2012.608890763218
 30
0.0
 10
1667.817727757838
 20
-2012.67104877167
 30
0.0
 10
1665.288984789928
 20
-2012.581269667196
 30
0.0
 10
1647.242499229494
 20
-2011.938689115803
 30
0.0
 10
1633.666161245526
 20
-1998.410761846691
 30
0.0
 10
1632.94767539209
 20
-1980.384981565872
 30
0.0
 10
1632.913096310049
 20
-1979.466063545431
 30
0.0
 10
1632.926927942864
 20
-1978.547187694603
 30
0.0
 10
1632.926927942864
 20
-1977.621353857754
 30
0.0
 10
1632.926927942864
 20
-1859.144647505073
 30
0.0
 10
1632.94767539209
 20
-1740.667898982772
 30
0.0
 10
1632.892348860823
 20
-1622.191192630087
 30
0.0
 10
1632.892348860823
 20
-1612.532327284496
 30
0.0
 10
1635.490165653591
 20
-1604.054885795574
 30
0.0
 10
1642.440729822332
 20
-1597.118153259647
 30
0.0
 10
1649.349799092624
 20
-1590.23674725499
 30
0.0
 10
1657.689008592608
 20
-1587.182992614625
 30
0.0
 10
1667.389284497423
 20
-1587.189908431033
 30
0.0
 10
1723.919336496916
 20
-1587.245066283851
 30
0.0
 10
1780.456304312815
 20
-1587.217487357442
 30
0.0
 10
1836.986187633858
 20
-1587.217487357442
 30
0.0
 10
1859.095209298792
 20
-1587.217487357442
 30
0.0
 10
1881.204230963723
 20
-1587.127666083359
 30
0.0
 10
1903.306421151474
 20
-1587.251982100259
 30
0.0
 10
1919.729207962007
 20
-1587.341887713565
 30
0.0
 10
1932.725207742254
 20
-1598.078608348152
 30
0.0
 10
1935.81354146466
 20
-1613.789825121656
 30
0.0
 10
1936.64268038063
 20
-1617.997340353055
 30
0.0
 10
1936.428543089647
 20
-1622.274098087762
 30
0.0
 10
1936.435374566832
 20
-1626.530108373247
 30
0.0
 10
1936.44229038324
 20
-1684.331321164265
 30
0.0
 10
1936.44229038324
 20
-1742.132702633729
 30
0.0
 10
1936.44229038324
 20
-1799.933915424748
 30
0.0
  0
SPLINE
  5
7A
330
70
100
AcDbEntity
  8
Layer 1
100
AcDbSpline
210
0.0
220
0.0
230
1.0
 70
     9
 71
     3
 72
    53
 73
    49
 74
     0
 42
0.0000000001
 43
0.0000000001
 40
0.0
 40
0.0
 40
0.0
 40
0.0
 40
1.0
 40
1.0
 40
1.0
 40
2.0
 40
2.0
 40
2.0
 40
3.0
 40
3.0
 40
3.0
 40
4.0
 40
4.0
 40
4.0
 40
5.0
 40
5.0
 40
5.0
 40
6.0
 40
6.0
 40
6.0
 40
7.0
 40
7.0
 40
7.0
 40
8.0
 40
8.0
 40
8.0
 40
9.0
 40
9.0
 40
9.0
 40
10.0
 40
10.0
 40
10.0
 40
11.0
 40
11.0
 40
11.0
 40
12.0
 40
12.0
 40
12.0
 40
13.0
 40
13.0
 40
13.0
 40
14.0
 40
14.0
 40
14.0
 40
15.0
 40
15.0
 40
15.0
 40
16.0
 40
16.0
 40
16.0
 40
16.0
 10
1938.853548811434
 20
-1851.385734039197
 30
0.0
 10
1938.853548811434
 20
-1774.128558568054
 30
0.0
 10
1938.874296260657
 20
-1696.864467280504
 30
0.0
 10
1938.860464627842
 20
-1619.607207470139
 30
0.0
 10
1938.860464627842
 20
-1609.37483539801
 30
0.0
 10
1934.936076173059
 20
-1600.828404423451
 30
0.0
 10
1927.453584515451
 20
-1593.884756071116
 30
0.0
 10
1920.323462137771
 20
-1587.265813733074
 30
0.0
 10
1911.749283558356
 20
-1584.612754748266
 30
0.0
 10
1902.173323670438
 20
-1584.63350219749
 30
0.0
 10
1882.254422987083
 20
-1584.667996940306
 30
0.0
 10
1862.335606642953
 20
-1584.667996940306
 30
0.0
 10
1842.416790298825
 20
-1584.667996940306
 30
0.0
 10
1783.807101701837
 20
-1584.661081123899
 30
0.0
 10
1725.197497444074
 20
-1584.647333830306
 30
0.0
 10
1666.587893186311
 20
-1584.640418013898
 30
0.0
 10
1655.332992356454
 20
-1584.640418013898
 30
0.0
 10
1646.026496290786
 20
-1588.944754675014
 30
0.0
 10
1638.654489017264
 20
-1597.435943457529
 30
0.0
 10
1632.429495196817
 20
-1604.600729256477
 30
0.0
 10
1630.363605892913
 20
-1613.050507479767
 30
0.0
 10
1630.377437525731
 20
-1622.370835178253
 30
0.0
 10
1630.460342983404
 20
-1681.443377439247
 30
0.0
 10
1630.418848084955
 20
-1740.509003883833
 30
0.0
 10
1630.418848084955
 20
-1799.574630328416
 30
0.0
 10
1630.418848084955
 20
-1848.857033240898
 30
0.0
 10
1630.405016452139
 20
-1898.139436153382
 30
0.0
 10
1630.425763901363
 20
-1947.421796896251
 30
0.0
 10
1630.425763901363
 20
-1959.042856469234
 30
0.0
 10
1630.363605892913
 20
-1970.670831858628
 30
0.0
 10
1630.598490633121
 20
-1982.29189143161
 30
0.0
 10
1630.76430154847
 20
-1990.444584736633
 30
0.0
 10
1634.094520166716
 20
-1997.429643648189
 30
0.0
 10
1639.566449051683
 20
-2003.433626530859
 30
0.0
 10
1647.581036876601
 20
-2012.221984570868
 30
0.0
 10
1657.702755886199
 20
-2015.248160284824
 30
0.0
 10
1669.358436710836
 20
-2015.2274128356
 30
0.0
 10
1741.779263692775
 20
-2015.109970465495
 30
0.0
 10
1814.20700649112
 20
-2015.199791739579
 30
0.0
 10
1886.627917812282
 20
-2015.130675745109
 30
0.0
 10
1894.559515840301
 20
-2015.116886281903
 30
0.0
 10
1902.560272032402
 20
-2015.959772491464
 30
0.0
 10
1910.422711896339
 20
-2014.501968996141
 30
0.0
 10
1927.336099975737
 20
-2011.351435095672
 30
0.0
 10
1938.853548811434
 20
-1997.008200543408
 30
0.0
 10
1938.86738044425
 20
-1979.196641892795
 30
0.0
 10
1938.901875187066
 20
-1936.595297157193
 30
0.0
 10
1938.853548811434
 20
-1893.993994591205
 30
0.0
 10
1938.853548811434
 20
-1851.385734039197
 30
0.0
  0
HATCH
  5
7B
330
70
100
AcDbEntity
  8
Layer 1
 62
    18
420
        0
440
 33554687
100
AcDbHatch
 10
0.0
 20
0.0
 30
0.0
210
0.0
220
0.0
230
1.0
  2
SOLID
 70
     1
 71
     1
 91
        2
 92
        1
 93
        1
 72
     4
 94
        3
 73
     0
 74
     0
 95
       53
 96
       49
 40
0.0
 40
0.0
 40
0.0
 40
0.0
 40
1.0
 40
1.0
 40
1.0
 40
2.0
 40
2.0
 40
2.0
 40
3.0
 40
3.0
 40
3.0
 40
4.0
 40
4.0
 40
4.0
 40
5.0
 40
5.0
 40
5.0
 40
6.0
 40
6.0
 40
6.0
 40
7.0
 40
7.0
 40
7.0
 40
8.0
 40
8.0
 40
8.0
 40
9.0
 40
9.0
 40
9.0
 40
10.0
 40
10.0
 40
10.0
 40
11.0
 40
11.0
 40
11.0
 40
12.0
 40
12.0
 40
12.0
 40
13.0
 40
13.0
 40
13.0
 40
14.0
 40
14.0
 40
14.0
 40
15.0
 40
15.0
 40
15.0
 40
16.0
 40
16.0
 40
16.0
 40
16.0
 10
1936.44229038324
 20
-1799.933915424748
 10
1936.44229038324
 20
-1799.933915424748
 10
1936.393964007606
 20
-1799.933915424748
 10
1936.393964007606
 20
-1799.933915424748
 10
1936.393964007606
 20
-1858.882099499231
 10
1936.387048191198
 20
-1917.830283573712
 10
1936.400879824016
 20
-1976.785341294988
 10
1936.400879824016
 20
-1981.759879603524
 10
1936.110668552543
 20
-1986.672259903604
 10
1934.35582230856
 20
-1991.404955485908
 10
1929.58846330499
 20
-2004.262723277214
 10
1917.255875864588
 20
-2012.643427675648
 10
1902.933304422326
 20
-2012.643427675648
 10
1826.249551338496
 20
-2012.63651185924
 10
1749.565798254669
 20
-2012.622722396034
 10
1672.888960987247
 20
-2012.608890763218
 10
1670.353302202931
 20
-2012.608890763218
 10
1667.817727757838
 20
-2012.67104877167
 10
1665.288984789928
 20
-2012.581269667196
 10
1647.242499229494
 20
-2011.938689115803
 10
1633.666161245526
 20
-1998.410761846691
 10
1632.94767539209
 20
-1980.384981565872
 10
1632.913096310049
 20
-1979.466063545431
 10
1632.926927942864
 20
-1978.547187694603
 10
1632.926927942864
 20
-1977.621353857754
 10
1632.926927942864
 20
-1859.144647505073
 10
1632.94767539209
 20
-1740.667898982772
 10
1632.892348860823
 20
-1622.191192630087
 10
1632.892348860823
 20
-1612.532327284496
 10
1635.490165653591
 20
-1604.054885795574
 10
1642.440729822332
 20
-1597.118153259647
 10
1649.349799092624
 20
-1590.23674725499
 10
1657.689008592608
 20
-1587.182992614625
 10
1667.389284497423
 20
-1587.189908431033
 10
1723.919336496916
 20
-1587.245066283851
 10
1780.456304312815
 20
-1587.217487357442
 10
1836.986187633858
 20
-1587.217487357442
 10
1859.095209298792
 20
-1587.217487357442
 10
1881.204230963723
 20
-1587.127666083359
 10
1903.306421151474
 20
-1587.251982100259
 10
1919.729207962007
 20
-1587.341887713565
 10
1932.725207742254
 20
-1598.078608348152
 10
1935.81354146466
 20
-1613.789825121656
 10
1936.64268038063
 20
-1617.997340353055
 10
1936.428543089647
 20
-1622.274098087762
 10
1936.435374566832
 20
-1626.530108373247
 10
1936.44229038324
 20
-1684.331321164265
 10
1936.44229038324
 20
-1742.132702633729
 10
1936.44229038324
 20
-1799.933915424748
 97
        0
 97
        1
330
79
 92
        1
 93
        1
 72
     4
 94
        3
 73
     0
 74
     0
 95
       53
 96
       49
 40
0.0
 40
0.0
 40
0.0
 40
0.0
 40
1.0
 40
1.0
 40
1.0
 40
2.0
 40
2.0
 40
2.0
 40
3.0
 40
3.0
 40
3.0
 40
4.0
 40
4.0
 40
4.0
 40
5.0
 40
5.0
 40
5.0
 40
6.0
 40
6.0
 40
6.0
 40
7.0
 40
7.0
 40
7.0
 40
8.0
 40
8.0
 40
8.0
 40
9.0
 40
9.0
 40
9.0
 40
10.0
 40
10.0
 40
10.0
 40
11.0
 40
11.0
 40
11.0
 40
12.0
 40
12.0
 40
12.0
 40
13.0
 40
13.0
 40
13.0
 40
14.0
 40
14.0
 40
14.0
 40
15.0
 40
15.0
 40
15.0
 40
16.0
 40
16.0
 40
16.0
 40
16.0
 10
1938.853548811434
 20
-1851.385734039197
 10
1938.853548811434
 20
-1774.128558568054
 10
1938.874296260657
 20
-1696.864467280504
 10
1938.860464627842
 20
-1619.607207470139
 10
1938.860464627842
 20
-1609.37483539801
 10
1934.936076173059
 20
-1600.828404423451
 10
1927.453584515451
 20
-1593.884756071116
 10
1920.323462137771
 20
-1587.265813733074
 10
1911.749283558356
 20
-1584.612754748266
 10
1902.173323670438
 20
-1584.63350219749
 10
1882.254422987083
 20
-1584.667996940306
 10
1862.335606642953
 20
-1584.667996940306
 10
1842.416790298825
 20
-1584.667996940306
 10
1783.807101701837
 20
-1584.661081123899
 10
1725.197497444074
 20
-1584.647333830306
 10
1666.587893186311
 20
-1584.640418013898
 10
1655.332992356454
 20
-1584.640418013898
 10
1646.026496290786
 20
-1588.944754675014
 10
1638.654489017264
 20
-1597.435943457529
 10
1632.429495196817
 20
-1604.600729256477
 10
1630.363605892913
 20
-1613.050507479767
 10
1630.377437525731
 20
-1622.370835178253
 10
1630.460342983404
 20
-1681.443377439247
 10
1630.418848084955
 20
-1740.509003883833
 10
1630.418848084955
 20
-1799.574630328416
 10
1630.418848084955
 20
-1848.857033240898
 10
1630.405016452139
 20
-1898.139436153382
 10
1630.425763901363
 20
-1947.421796896251
 10
1630.425763901363
 20
-1959.042856469234
 10
1630.363605892913
 20
-1970.670831858628
 10
1630.598490633121
 20
-1982.29189143161
 10
1630.76430154847
 20
-1990.444584736633
 10
1634.094520166716
 20
-1997.429643648189
 10
1639.566449051683
 20
-2003.433626530859
 10
1647.581036876601
 20
-2012.221984570868
 10
1657.702755886199
 20
-2015.248160284824
 10
1669.358436710836
 20
-2015.2274128356
 10
1741.779263692775
 20
-2015.109970465495
 10
1814.20700649112
 20
-2015.199791739579
 10
1886.627917812282
 20
-2015.130675745109
 10
1894.559515840301
 20
-2015.116886281903
 10
1902.560272032402
 20
-2015.959772491464
 10
1910.422711896339
 20
-2014.501968996141
 10
1927.336099975737
 20
-2011.351435095672
 10
1938.853548811434
 20
-1997.008200543408
 10
1938.86738044425
 20
-1979.196641892795
 10
1938.901875187066
 20
-1936.595297157193
 10
1938.853548811434
 20
-1893.993994591205
 10
1938.853548811434
 20
-1851.385734039197
 97
        0
 97
        1
330
7A
 75
     2
 76
     1
 98
        1
 10
0.0
 20
0.0
450
        0
451
        0
460
0.0
461
0.0
452
        0
462
0.0
453
        0
470

  0
SPLINE
  5
7C
330
70
100
AcDbEntity
  8
Layer 1
100
AcDbSpline
210
0.0
220
0.0
230
1.0
 70
     9
 71
     3
 72
    53
 73
    49
 74
     0
 42
0.0000000001
 43
0.0000000001
 40
0.0
 40
0.0
 40
0.0
 40
0.0
 40
1.0
 40
1.0
 40
1.0
 40
2.0
 40
2.0
 40
2.0
 40
3.0
 40
3.0
 40
3.0
 40
4.0
 40
4.0
 40
4.0
 40
5.0
 40
5.0
 40
5.0
 40
6.0
 40
6.0
 40
6.0
 40
7.0
 40
7.0
 40
7.0
 40
8.0
 40
8.0
 40
8.0
 40
9.0
 40
9.0
 40
9.0
 40
10.0
 40
10.0
 40
10.0
 40
11.0
 40
11.0
 40
11.0
 40
12.0
 40
12.0
 40
12.0
 40
13.0
 40
13.0
 40
13.0
 40
14.0
 40
14.0
 40
14.0
 40
15.0
 40
15.0
 40
15.0
 40
16.0
 40
16.0
 40
16.0
 40
16.0
 10
1936.44229038324
 20
-1799.933915424748
 30
0.0
 10
1936.44229038324
 20
-1799.933915424748
 30
0.0
 10
1936.393964007606
 20
-1799.933915424748
 30
0.0
 10
1936.393964007606
 20
-1799.933915424748
 30
0.0
 10
1936.393964007606
 20
-1858.882099499231
 30
0.0
 10
1936.387048191198
 20
-1917.830283573712
 30
0.0
 10
1936.400879824016
 20
-1976.785341294988
 30
0.0
 10
1936.400879824016
 20
-1981.759879603524
 30
0.0
 10
1936.110668552543
 20
-1986.672259903604
 30
0.0
 10
1934.35582230856
 20
-1991.404955485908
 30
0.0
 10
1929.58846330499
 20
-2004.262723277214
 30
0.0
 10
1917.255875864588
 20
-2012.643427675648
 30
0.0
 10
1902.933304422326
 20
-2012.643427675648
 30
0.0
 10
1826.249551338496
 20
-2012.63651185924
 30
0.0
 10
1749.565798254669
 20
-2012.622722396034
 30
0.0
 10
1672.888960987247
 20
-2012.608890763218
 30
0.0
 10
1670.353302202931
 20
-2012.608890763218
 30
0.0
 10
1667.817727757838
 20
-2012.67104877167
 30
0.0
 10
1665.288984789928
 20
-2012.581269667196
 30
0.0
 10
1647.242499229494
 20
-2011.938689115803
 30
0.0
 10
1633.666161245526
 20
-1998.410761846691
 30
0.0
 10
1632.94767539209
 20
-1980.384981565872
 30
0.0
 10
1632.913096310049
 20
-1979.466063545431
 30
0.0
 10
1632.926927942864
 20
-1978.547187694603
 30
0.0
 10
1632.926927942864
 20
-1977.621353857754
 30
0.0
 10
1632.926927942864
 20
-1859.144647505073
 30
0.0
 10
1632.94767539209
 20
-1740.667898982772
 30
0.0
 10
1632.892348860823
 20
-1622.191192630087
 30
0.0
 10
1632.892348860823
 20
-1612.532327284496
 30
0.0
 10
1635.490165653591
 20
-1604.054885795574
 30
0.0
 10
1642.440729822332
 20
-1597.118153259647
 30
0.0
 10
1649.349799092624
 20
-1590.23674725499
 30
0.0
 10
1657.689008592608
 20
-1587.182992614625
 30
0.0
 10
1667.389284497423
 20
-1587.189908431033
 30
0.0
 10
1723.919336496916
 20
-1587.245066283851
 30
0.0
 10
1780.456304312815
 20
-1587.217487357442
 30
0.0
 10
1836.986187633858
 20
-1587.217487357442
 30
0.0
 10
1859.095209298792
 20
-1587.217487357442
 30
0.0
 10
1881.204230963723
 20
-1587.127666083359
 30
0.0
 10
1903.306421151474
 20
-1587.251982100259
 30
0.0
 10
1919.729207962007
 20
-1587.341887713565
 30
0.0
 10
1932.725207742254
 20
-1598.078608348152
 30
0.0
 10
1935.81354146466
 20
-1613.789825121656
 30
0.0
 10
1936.64268038063
 20
-1617.997340353055
 30
0.0
 10
1936.428543089647
 20
-1622.274098087762
 30
0.0
 10
1936.435374566832
 20
-1626.530108373247
 30
0.0
 10
1936.44229038324
 20
-1684.331321164265
 30
0.0
 10
1936.44229038324
 20
-1742.132702633729
 30
0.0
 10
1936.44229038324
 20
-1799.933915424748
 30
0.0
  0
LWPOLYLINE
  5
7D
330
70
100
AcDbEntity
  8
Layer 1
100
AcDbPolyline
 90
       12
 70
     1
 43
0.0
 10
1662.285473352705
 20
-1655.226577682128
 10
1662.285473352705
 20
-1635.55078239153
 10
1683.499261358273
 20
-1635.55078239153
 10
1683.499261358273
 20
-1629.721531825564
 10
1662.285473352705
 20
-1629.721531825564
 10
1662.285473352705
 20
-1612.475359319103
 10
1684.714533779333
 20
-1612.475359319103
 10
1684.714533779333
 20
-1606.564045592686
 10
1655.241872423661
 20
-1606.564045592686
 10
1655.241872423661
 20
-1661.136969350564
 10
1685.928884142411
 20
-1661.136969350564
 10
1685.928884142411
 20
-1655.226577682128
  0
HATCH
  5
7E
330
70
100
AcDbEntity
  8
Layer 1
 62
   246
420
  8590872
440
 33554687
100
AcDbHatch
 10
0.0
 20
0.0
 30
0.0
210
0.0
220
0.0
230
1.0
  2
SOLID
 70
     1
 71
     1
 91
        1
 92
        1
 93
       12
 72
     1
 10
1662.285473352705
 20
-1655.226577682128
 11
1662.285473352705
 21
-1635.55078239153
 72
     1
 10
1662.285473352705
 20
-1635.55078239153
 11
1683.499261358273
 21
-1635.55078239153
 72
     1
 10
1683.499261358273
 20
-1635.55078239153
 11
1683.499261358273
 21
-1629.721531825564
 72
     1
 10
1683.499261358273
 20
-1629.721531825564
 11
1662.285473352705
 21
-1629.721531825564
 72
     1
 10
1662.285473352705
 20
-1629.721531825564
 11
1662.285473352705
 21
-1612.475359319103
 72
     1
 10
1662.285473352705
 20
-1612.475359319103
 11
1684.714533779333
 21
-1612.475359319103
 72
     1
 10
1684.714533779333
 20
-1612.475359319103
 11
1684.714533779333
 21
-1606.564045592686
 72
     1
 10
1684.714533779333
 20
-1606.564045592686
 11
1655.241872423661
 21
-1606.564045592686
 72
     1
 10
1655.241872423661
 20
-1606.564045592686
 11
1655.241872423661
 21
-1661.136969350564
 72
     1
 10
1655.241872423661
 20
-1661.136969350564
 11
1685.928884142411
 21
-1661.136969350564
 72
     1
 10
1685.928884142411
 20
-1661.136969350564
 11
1685.928884142411
 21
-1655.226577682128
 72
     1
 10
1685.928884142411
 20
-1655.226577682128
 11
1662.285473352705
 21
-1655.226577682128
 97
        1
330
7D
 75
     2
 76
     1
 98
        1
 10
0.0
 20
0.0
450
        0
451
        0
460
0.0
461
0.0
452
        0
462
0.0
453
        0
470

  0
SPLINE
  5
7F
330
70
100
AcDbEntity
  8
Layer 1
100
AcDbSpline
210
0.0
220
0.0
230
1.0
 70
     9
 71
     3
 72
    23
 73
    19
 74
     0
 42
0.0000000001
 43
0.0000000001
 40
0.0
 40
0.0
 40
0.0
 40
0.0
 40
1.0
 40
1.0
 40
1.0
 40
2.0
 40
2.0
 40
2.0
 40
3.0
 40
3.0
 40
3.0
 40
4.0
 40
4.0
 40
4.0
 40
5.0
 40
5.0
 40
5.0
 40
6.0
 40
6.0
 40
6.0
 40
6.0
 10
1768.596077187765
 20
-1814.633544964794
 30
0.0
 10
1768.596077187765
 20
-1811.999765153394
 30
0.0
 10
1768.590766070079
 20
-1809.365950854213
 30
0.0
 10
1768.59795677162
 20
-1806.732188286702
 30
0.0
 10
1768.602819548201
 20
-1804.95491242151
 30
0.0
 10
1767.950828120656
 20
-1803.808711147007
 30
0.0
 10
1765.954675577606
 20
-1803.952801080055
 30
0.0
 10
1759.007742267073
 20
-1804.454236116331
 30
0.0
 10
1752.063042040112
 20
-1804.987192980947
 30
0.0
 10
1745.400934659346
 20
-1807.247694336065
 30
0.0
 10
1743.935549007063
 20
-1807.744921863528
 30
0.0
 10
1742.763352570511
 20
-1808.224146771301
 30
0.0
 10
1743.324796339078
 20
-1810.41631059594
 30
0.0
 10
1745.214390272593
 20
-1817.794418718697
 30
0.0
 10
1752.192026326758
 20
-1823.848230685596
 30
0.0
 10
1759.628030805448
 20
-1824.234804179983
 30
0.0
 10
1769.267261063309
 20
-1824.735911582376
 30
0.0
 10
1769.267261063309
 20
-1824.735894338488
 30
0.0
 10
1768.596077187765
 20
-1814.633544964794
 30
0.0
  0
SPLINE
  5
80
330
70
100
AcDbEntity
  8
Layer 1
100
AcDbSpline
210
0.0
220
0.0
230
1.0
 70
     9
 71
     3
 72
    32
 73
    28
 74
     0
 42
0.0000000001
 43
0.0000000001
 40
0.0
 40
0.0
 40
0.0
 40
0.0
 40
1.0
 40
1.0
 40
1.0
 40
2.0
 40
2.0
 40
2.0
 40
3.0
 40
3.0
 40
3.0
 40
4.0
 40
4.0
 40
4.0
 40
5.0
 40
5.0
 40
5.0
 40
6.0
 40
6.0
 40
6.0
 40
7.0
 40
7.0
 40
7.0
 40
8.0
 40
8.0
 40
8.0
 40
9.0
 40
9.0
 40
9.0
 40
9.0
 10
1779.505337084085
 20
-1812.46798846025
 30
0.0
 10
1779.505337084085
 20
-1813.784404159012
 30
0.0
 10
1779.617146457696
 20
-1815.112097360916
 30
0.0
 10
1779.485713538872
 20
-1816.415252509354
 30
0.0
 10
1778.955084599214
 20
-1821.676087015609
 30
0.0
 10
1780.788178931767
 20
-1823.399924070063
 30
0.0
 10
1786.468298589061
 20
-1823.18735865543
 30
0.0
 10
1797.072738266797
 20
-1822.790507803443
 30
0.0
 10
1804.977526478722
 20
-1819.439589153406
 30
0.0
 10
1808.306303975811
 20
-1808.601287858628
 30
0.0
 10
1808.685962670872
 20
-1807.36509072958
 30
0.0
 10
1809.638342637638
 20
-1806.31229959956
 30
0.0
 10
1810.081562306037
 20
-1805.086397072
 30
0.0
 10
1810.79640770749
 20
-1803.109368001396
 30
0.0
 10
1813.641563105215
 20
-1801.394187379012
 30
0.0
 10
1811.896602287237
 20
-1799.154982226302
 30
0.0
 10
1810.336220052719
 20
-1797.152587395581
 30
0.0
 10
1807.438643233683
 20
-1797.077835138547
 30
0.0
 10
1805.044346547003
 20
-1797.484446031476
 30
0.0
 10
1799.121829547815
 20
-1798.490178589533
 30
0.0
 10
1793.298551127458
 20
-1800.414837970494
 30
0.0
 10
1787.352392757015
 20
-1800.858988808877
 30
0.0
 10
1780.53483172062
 20
-1801.368252570575
 30
0.0
 10
1778.750451373329
 20
-1804.800355448087
 30
0.0
 10
1779.49343880096
 20
-1810.776604404118
 30
0.0
 10
1779.562517818647
 20
-1811.332185250563
 30
0.0
 10
1779.502664281353
 20
-1811.903820157286
 30
0.0
 10
1779.505337084085
 20
-1812.46798846025
 30
0.0
  0
SPLINE
  5
81
330
70
100
AcDbEntity
  8
Layer 1
100
AcDbSpline
210
0.0
220
0.0
230
1.0
 70
     9
 71
     3
 72
    29
 73
    25
 74
     0
 42
0.0000000001
 43
0.0000000001
 40
0.0
 40
0.0
 40
0.0
 40
0.0
 40
1.0
 40
1.0
 40
1.0
 40
2.0
 40
2.0
 40
2.0
 40
3.0
 40
3.0
 40
3.0
 40
4.0
 40
4.0
 40
4.0
 40
5.0
 40
5.0
 40
5.0
 40
6.0
 40
6.0
 40
6.0
 40
7.0
 40
7.0
 40
7.0
 40
8.0
 40
8.0
 40
8.0
 40
8.0
 10
1768.497459388924
 20
-1783.524414609894
 30
0.0
 10
1768.43212229506
 20
-1782.40035448834
 30
0.0
 10
1768.358973719667
 20
-1781.276708220108
 30
0.0
 10
1768.302672423424
 20
-1780.152199757447
 30
0.0
 10
1767.952069680634
 20
-1773.148387480405
 30
0.0
 10
1767.94796563515
 20
-1773.12328037862
 30
0.0
 10
1761.302981435754
 20
-1774.54779801495
 30
0.0
 10
1752.295110292742
 20
-1776.478837634689
 30
0.0
 10
1743.523635618396
 20
-1779.219684750338
 30
0.0
 10
1734.871712823636
 20
-1782.361521251235
 30
0.0
 10
1724.459257979506
 20
-1786.142674921566
 30
0.0
 10
1724.45902518701
 20
-1786.138415681083
 30
0.0
 10
1731.528346996802
 20
-1794.121232488875
 30
0.0
 10
1732.399163370541
 20
-1795.104547991765
 30
0.0
 10
1733.299363330436
 20
-1796.067032877244
 30
0.0
 10
1734.10301475812
 20
-1797.103459556993
 30
0.0
 10
1735.304543049162
 20
-1798.653029873368
 30
0.0
 10
1736.637969844019
 20
-1798.947227856583
 30
0.0
 10
1738.512639191962
 20
-1798.216690516512
 30
0.0
 10
1745.410341200573
 20
-1795.528730407166
 30
0.0
 10
1752.793174148799
 20
-1795.178144908264
 30
0.0
 10
1759.999834909258
 20
-1794.001542658179
 30
0.0
 10
1768.886929856593
 20
-1792.550590140641
 30
0.0
 10
1768.895879434771
 20
-1792.605460194134
 30
0.0
 10
1768.497459388924
 20
-1783.524414609894
 30
0.0
  0
SPLINE
  5
82
330
70
100
AcDbEntity
  8
Layer 1
100
AcDbSpline
210
0.0
220
0.0
230
1.0
 70
     9
 71
     3
 72
    26
 73
    22
 74
     0
 42
0.0000000001
 43
0.0000000001
 40
0.0
 40
0.0
 40
0.0
 40
0.0
 40
1.0
 40
1.0
 40
1.0
 40
2.0
 40
2.0
 40
2.0
 40
3.0
 40
3.0
 40
3.0
 40
4.0
 40
4.0
 40
4.0
 40
5.0
 40
5.0
 40
5.0
 40
6.0
 40
6.0
 40
6.0
 40
7.0
 40
7.0
 40
7.0
 40
7.0
 10
1809.702472659299
 20
-1767.387221546747
 30
0.0
 10
1801.772870491695
 20
-1767.316607822975
 30
0.0
 10
1793.991548522068
 20
-1768.464274828007
 30
0.0
 10
1786.205846604738
 20
-1769.887913026019
 30
0.0
 10
1782.015288531531
 20
-1770.654179703242
 30
0.0
 10
1779.764736900128
 20
-1772.388690724734
 30
0.0
 10
1780.007185973689
 20
-1776.869860052329
 30
0.0
 10
1780.247238146734
 20
-1781.306695342364
 30
0.0
 10
1777.492216554663
 20
-1787.591661635802
 30
0.0
 10
1780.639140002693
 20
-1789.74892382994
 30
0.0
 10
1784.674572054156
 20
-1792.515222925145
 30
0.0
 10
1789.593598200801
 20
-1787.966681724834
 30
0.0
 10
1793.846924028474
 20
-1785.701058934805
 30
0.0
 10
1801.314579664668
 20
-1781.723290446783
 30
0.0
 10
1806.486142559697
 20
-1782.126331854773
 30
0.0
 10
1812.544558644855
 20
-1787.131577444363
 30
0.0
 10
1817.547027968381
 20
-1791.264489198018
 30
0.0
 10
1817.547045212272
 20
-1791.264471954129
 30
0.0
 10
1820.563915252564
 20
-1785.200796482952
 30
0.0
 10
1828.117738600038
 20
-1770.018087140977
 30
0.0
 10
1826.433838391555
 20
-1767.256478383466
 30
0.0
 10
1809.702472659299
 20
-1767.387221546747
 30
0.0
  0
SPLINE
  5
83
330
70
100
AcDbEntity
  8
Layer 1
100
AcDbSpline
210
0.0
220
0.0
230
1.0
 70
     9
 71
     3
 72
    29
 73
    25
 74
     0
 42
0.0000000001
 43
0.0000000001
 40
0.0
 40
0.0
 40
0.0
 40
0.0
 40
1.0
 40
1.0
 40
1.0
 40
2.0
 40
2.0
 40
2.0
 40
3.0
 40
3.0
 40
3.0
 40
4.0
 40
4.0
 40
4.0
 40
5.0
 40
5.0
 40
5.0
 40
6.0
 40
6.0
 40
6.0
 40
7.0
 40
7.0
 40
7.0
 40
8.0
 40
8.0
 40
8.0
 40
8.0
 10
1768.570194110993
 20
-1846.699676648606
 30
0.0
 10
1768.66848427595
 20
-1845.388485848083
 30
0.0
 10
1768.87829066841
 20
-1844.073915245399
 30
0.0
 10
1768.838371066327
 20
-1842.766931953689
 30
0.0
 10
1768.781207575653
 20
-1840.894676750153
 30
0.0
 10
1770.271786549167
 20
-1838.120169563974
 30
0.0
 10
1767.238758985266
 20
-1837.616785968288
 30
0.0
 10
1764.352183767152
 20
-1837.137716255513
 30
0.0
 10
1760.928952870315
 20
-1835.363044217496
 30
0.0
 10
1758.615167899459
 20
-1839.181858540504
 30
0.0
 10
1752.269011667364
 20
-1849.656003396061
 30
0.0
 10
1744.632865995765
 20
-1859.197581512846
 30
0.0
 10
1737.033182526589
 20
-1868.760542051477
 30
0.0
 10
1735.927297463606
 20
-1870.152106616711
 30
0.0
 10
1734.926151779911
 20
-1871.334313130592
 30
0.0
 10
1736.492750436267
 20
-1873.140386289728
 30
0.0
 10
1742.27280704988
 20
-1879.804097352131
 30
0.0
 10
1747.189824283505
 20
-1887.26694194341
 30
0.0
 10
1754.109701932841
 20
-1892.872240368117
 30
0.0
 10
1759.958225406093
 20
-1897.60968836792
 30
0.0
 10
1762.296677759577
 20
-1896.670310293149
 30
0.0
 10
1763.851472974194
 20
-1889.246988694518
 30
0.0
 10
1766.789228053642
 20
-1875.220757984644
 30
0.0
 10
1767.699981273354
 20
-1860.959855194964
 30
0.0
 10
1768.570194110993
 20
-1846.699676648606
 30
0.0
  0
SPLINE
  5
84
330
70
100
AcDbEntity
  8
Layer 1
100
AcDbSpline
210
0.0
220
0.0
230
1.0
 70
     9
 71
     3
 72
   203
 73
   199
 74
     0
 42
0.0000000001
 43
0.0000000001
 40
0.0
 40
0.0
 40
0.0
 40
0.0
 40
1.0
 40
1.0
 40
1.0
 40
2.0
 40
2.0
 40
2.0
 40
3.0
 40
3.0
 40
3.0
 40
4.0
 40
4.0
 40
4.0
 40
5.0
 40
5.0
 40
5.0
 40
6.0
 40
6.0
 40
6.0
 40
7.0
 40
7.0
 40
7.0
 40
8.0
 40
8.0
 40
8.0
 40
9.0
 40
9.0
 40
9.0
 40
10.0
 40
10.0
 40
10.0
 40
11.0
 40
11.0
 40
11.0
 40
12.0
 40
12.0
 40
12.0
 40
13.0
 40
13.0
 40
13.0
 40
14.0
 40
14.0
 40
14.0
 40
15.0
 40
15.0
 40
15.0
 40
16.0
 40
16.0
 40
16.0
 40
17.0
 40
17.0
 40
17.0
 40
18.0
 40
18.0
 40
18.0
 40
19.0
 40
19.0
 40
19.0
 40
20.0
 40
20.0
 40
20.0
 40
21.0
 40
21.0
 40
21.0
 40
22.0
 40
22.0
 40
22.0
 40
23.0
 40
23.0
 40
23.0
 40
24.0
 40
24.0
 40
24.0
 40
25.0
 40
25.0
 40
25.0
 40
26.0
 40
26.0
 40
26.0
 40
27.0
 40
27.0
 40
27.0
 40
28.0
 40
28.0
 40
28.0
 40
29.0
 40
29.0
 40
29.0
 40
30.0
 40
30.0
 40
30.0
 40
31.0
 40
31.0
 40
31.0
 40
32.0
 40
32.0
 40
32.0
 40
33.0
 40
33.0
 40
33.0
 40
34.0
 40
34.0
 40
34.0
 40
35.0
 40
35.0
 40
35.0
 40
36.0
 40
36.0
 40
36.0
 40
37.0
 40
37.0
 40
37.0
 40
38.0
 40
38.0
 40
38.0
 40
39.0
 40
39.0
 40
39.0
 40
40.0
 40
40.0
 40
40.0
 40
41.0
 40
41.0
 40
41.0
 40
42.0
 40
42.0
 40
42.0
 40
43.0
 40
43.0
 40
43.0
 40
44.0
 40
44.0
 40
44.0
 40
45.0
 40
45.0
 40
45.0
 40
46.0
 40
46.0
 40
46.0
 40
47.0
 40
47.0
 40
47.0
 40
48.0
 40
48.0
 40
48.0
 40
49.0
 40
49.0
 40
49.0
 40
50.0
 40
50.0
 40
50.0
 40
51.0
 40
51.0
 40
51.0
 40
52.0
 40
52.0
 40
52.0
 40
53.0
 40
53.0
 40
53.0
 40
54.0
 40
54.0
 40
54.0
 40
55.0
 40
55.0
 40
55.0
 40
56.0
 40
56.0
 40
56.0
 40
57.0
 40
57.0
 40
57.0
 40
58.0
 40
58.0
 40
58.0
 40
59.0
 40
59.0
 40
59.0
 40
60.0
 40
60.0
 40
60.0
 40
61.0
 40
61.0
 40
61.0
 40
62.0
 40
62.0
 40
62.0
 40
63.0
 40
63.0
 40
63.0
 40
64.0
 40
64.0
 40
64.0
 40
65.0
 40
65.0
 40
65.0
 40
66.0
 40
66.0
 40
66.0
 40
66.0
 10
1902.221366763628
 20
-1903.788346088208
 30
0.0
 10
1894.605241246681
 20
-1903.348799368075
 30
0.0
 10
1888.647805373101
 20
-1900.987386776934
 30
0.0
 10
1882.962581524785
 20
-1898.168666260419
 30
0.0
 10
1875.921556936168
 20
-1894.677675503375
 30
0.0
 10
1869.599257623937
 20
-1894.758618316409
 30
0.0
 10
1862.802906570507
 20
-1899.104492094139
 30
0.0
 10
1843.379149049533
 20
-1911.524885679169
 30
0.0
 10
1835.184042729326
 20
-1906.943356919986
 30
0.0
 10
1822.180236661667
 20
-1890.649330690121
 30
0.0
 10
1810.30894022097
 20
-1875.774373027791
 30
0.0
 10
1801.111826022639
 20
-1859.009916273335
 30
0.0
 10
1789.935216877637
 20
-1843.633730501389
 30
0.0
 10
1787.896282246996
 20
-1840.828649900743
 30
0.0
 10
1786.519581913726
 20
-1835.487458873666
 30
0.0
 10
1781.966815960708
 20
-1837.045858060997
 30
0.0
 10
1777.818557146209
 20
-1838.46580606685
 30
0.0
 10
1780.372394290112
 20
-1843.304027351567
 30
0.0
 10
1780.040501166442
 20
-1846.566864218695
 30
0.0
 10
1777.088554366686
 20
-1875.587294080491
 30
0.0
 10
1782.297226109958
 20
-1903.965647750679
 30
0.0
 10
1787.020792779451
 20
-1932.383576145177
 30
0.0
 10
1788.583709865592
 20
-1941.786496153818
 30
0.0
 10
1788.353107343493
 20
-1951.132235427896
 30
0.0
 10
1784.991256068091
 20
-1960.210866867732
 30
0.0
 10
1783.745126459215
 20
-1963.575977238077
 30
0.0
 10
1781.755095496613
 20
-1966.270162391207
 30
0.0
 10
1777.946955140642
 20
-1966.7507150784
 30
0.0
 10
1774.014779494049
 20
-1967.246890728657
 30
0.0
 10
1771.603945918213
 20
-1964.747699467691
 30
0.0
 10
1769.783111990448
 20
-1961.764644692921
 30
0.0
 10
1762.973241728363
 20
-1950.608159165902
 30
0.0
 10
1759.749531244446
 20
-1938.268053126139
 30
0.0
 10
1758.628488803393
 20
-1925.40256028885
 30
0.0
 10
1758.240854809859
 20
-1920.953912935132
 30
0.0
 10
1757.224724186981
 20
-1917.016891755848
 30
0.0
 10
1754.971465265071
 20
-1913.180471422591
 30
0.0
 10
1748.093188496954
 20
-1901.469594877435
 30
0.0
 10
1739.857300380236
 20
-1890.695509823763
 30
0.0
 10
1732.212162020738
 20
-1879.513123976081
 30
0.0
 10
1730.149861921061
 20
-1876.496650545225
 30
0.0
 10
1728.820875427514
 20
-1876.74866997695
 30
0.0
 10
1726.151159352293
 20
-1878.829679695751
 30
0.0
 10
1715.005994438132
 20
-1887.517150766835
 30
0.0
 10
1703.66668920429
 20
-1895.937548491456
 30
0.0
 10
1689.870992040964
 20
-1900.188615369719
 30
0.0
 10
1682.299204872552
 20
-1902.521782471355
 30
0.0
 10
1674.761620957155
 20
-1902.720570019006
 30
0.0
 10
1667.03579844295
 20
-1900.690033162111
 30
0.0
 10
1667.450669158512
 20
-1898.114382499141
 30
0.0
 10
1669.663034198633
 20
-1897.994778887889
 30
0.0
 10
1671.200210470086
 20
-1897.207457422697
 30
0.0
 10
1686.971505461266
 20
-1889.129178447678
 30
0.0
 10
1702.197216750412
 20
-1880.155820947679
 30
0.0
 10
1716.606235921124
 20
-1869.821748199127
 30
0.0
 10
1720.304498219007
 20
-1867.169379475825
 30
0.0
 10
1724.350733566671
 20
-1864.708107525868
 30
0.0
 10
1721.336726011885
 20
-1858.491392543463
 30
0.0
 10
1725.261521274158
 20
-1862.287065567987
 30
0.0
 10
1727.640772668044
 20
-1860.062603940019
 30
0.0
 10
1730.125961891477
 20
-1857.480141941058
 30
0.0
 10
1735.124603071738
 20
-1852.285765381424
 30
0.0
 10
1739.094629053781
 20
-1846.390907579533
 30
0.0
 10
1742.630221128662
 20
-1840.141739598805
 30
0.0
 10
1744.034675500615
 20
-1837.659361129214
 30
0.0
 10
1743.963139228804
 20
-1836.453616707413
 30
0.0
 10
1741.046533778712
 20
-1835.065052578791
 30
0.0
 10
1737.165606969007
 20
-1833.217387160379
 30
0.0
 10
1732.498660607698
 20
-1831.491066985969
 30
0.0
 10
1734.115654528456
 20
-1825.284163776172
 30
0.0
 10
1734.604398062733
 20
-1823.408114917145
 30
0.0
 10
1732.500186691839
 20
-1822.034535727706
 30
0.0
 10
1731.339328112035
 20
-1820.583048649625
 30
0.0
 10
1720.765737750984
 20
-1807.362331707407
 30
0.0
 10
1709.306734064505
 20
-1794.847458856793
 30
0.0
 10
1699.597657435913
 20
-1780.943590780347
 30
0.0
 10
1698.223673015094
 20
-1778.975959629022
 30
0.0
 10
1695.114160183357
 20
-1777.040867695466
 30
0.0
 10
1697.013005463101
 20
-1774.193660275001
 30
0.0
 10
1698.982248918009
 20
-1771.240903012482
 30
0.0
 10
1702.468118240143
 20
-1772.266086676865
 30
0.0
 10
1704.720170089853
 20
-1773.620421686641
 30
0.0
 10
1714.071565359387
 20
-1779.244067608803
 30
0.0
 10
1723.451930361752
 20
-1777.193372646148
 30
0.0
 10
1733.007450162459
 20
-1774.603737189531
 30
0.0
 10
1742.815506711549
 20
-1771.945660739109
 30
0.0
 10
1752.699901955422
 20
-1769.570280598209
 30
0.0
 10
1762.520132689857
 20
-1766.95565874703
 30
0.0
 10
1767.849434055753
 20
-1765.536762618381
 30
0.0
 10
1769.155313738591
 20
-1762.663189292261
 30
0.0
 10
1767.41443972221
 20
-1755.55794846254
 30
0.0
 10
1766.165223457275
 20
-1750.459309972351
 30
0.0
 10
1762.574278500025
 20
-1753.816988226716
 30
0.0
 10
1760.092719115142
 20
-1754.088476008661
 30
0.0
 10
1755.625957056462
 20
-1754.577202299048
 30
0.0
 10
1751.328547227613
 20
-1756.284174830462
 30
0.0
 10
1746.724842827705
 20
-1755.994287819392
 30
0.0
 10
1743.503718927077
 20
-1755.791447957921
 30
0.0
 10
1740.318350229436
 20
-1755.386078624973
 30
0.0
 10
1737.493430534971
 20
-1753.754151496699
 30
0.0
 10
1735.543870978889
 20
-1752.627918645181
 30
0.0
 10
1733.008389954386
 20
-1751.075003014421
 30
0.0
 10
1733.352026166185
 20
-1748.849661948132
 30
0.0
 10
1733.727399754933
 20
-1746.418773729869
 30
0.0
 10
1736.791017977189
 20
-1747.288572714182
 30
0.0
 10
1738.672860782786
 20
-1747.005497039104
 30
0.0
 10
1745.928813198776
 20
-1745.91404511087
 30
0.0
 10
1753.175971231585
 20
-1744.871169216794
 30
0.0
 10
1760.379450494598
 20
-1743.386263482624
 30
0.0
 10
1765.457741196251
 20
-1742.339438738059
 30
0.0
 10
1766.576886809558
 20
-1739.684793821465
 30
0.0
 10
1766.163119702869
 20
-1735.049990068486
 30
0.0
 10
1765.119726492132
 20
-1723.362022029321
 30
0.0
 10
1761.579478567333
 20
-1712.650342608451
 30
0.0
 10
1754.851861653818
 20
-1702.971830772387
 30
0.0
 10
1748.704458481597
 20
-1694.128017985409
 30
0.0
 10
1745.370214671828
 20
-1684.305623142956
 30
0.0
 10
1744.933082096099
 20
-1672.633381530186
 30
0.0
 10
1751.509366643357
 20
-1675.146066133972
 30
0.0
 10
1757.436306699966
 20
-1677.720440749186
 30
0.0
 10
1763.560240939818
 20
-1679.678811932337
 30
0.0
 10
1773.050346049162
 20
-1682.713675970373
 30
0.0
 10
1782.688403722599
 20
-1685.28325678456
 30
0.0
 10
1792.233689275426
 20
-1688.150122238019
 30
0.0
 10
1794.925339576934
 20
-1688.958550222842
 30
0.0
 10
1797.671273639718
 20
-1689.829461437968
 30
0.0
 10
1800.108473121207
 20
-1691.182848033868
 30
0.0
 10
1803.472807516566
 20
-1693.051059545532
 30
0.0
 10
1805.059572900627
 20
-1696.170142735436
 30
0.0
 10
1804.928277932911
 20
-1700.123485255272
 30
0.0
 10
1804.811640270496
 20
-1703.635246276122
 30
0.0
 10
1802.841388048107
 20
-1705.783670977356
 30
0.0
 10
1799.775528120331
 20
-1706.808501142028
 30
0.0
 10
1787.114875435591
 20
-1711.040677340343
 30
0.0
 10
1784.498184317781
 20
-1721.782240420138
 30
0.0
 10
1782.550814735548
 20
-1733.006968636249
 30
0.0
 10
1781.982214753218
 20
-1736.284264503958
 30
0.0
 10
1783.469362192902
 20
-1736.533757706007
 30
0.0
 10
1786.07727617142
 20
-1735.56276296151
 30
0.0
 10
1790.025143756627
 20
-1734.092842166525
 30
0.0
 10
1793.37637279666
 20
-1731.741025799385
 30
0.0
 10
1796.598841720597
 20
-1729.089752063008
 30
0.0
 10
1803.131137108065
 20
-1723.715297574841
 30
0.0
 10
1816.474389122597
 20
-1726.734926637311
 30
0.0
 10
1819.883178262738
 20
-1734.353906017817
 30
0.0
 10
1821.180884342386
 20
-1737.254440163744
 30
0.0
 10
1819.527540304482
 20
-1738.998762957844
 30
0.0
 10
1817.059612213529
 20
-1740.163829046463
 30
0.0
 10
1812.58223654142
 20
-1742.277464202472
 30
0.0
 10
1807.682937403322
 20
-1742.886380396323
 30
0.0
 10
1802.933573876502
 20
-1744.020631656034
 30
0.0
 10
1797.259662019101
 20
-1745.375725396903
 30
0.0
 10
1791.577024754073
 20
-1746.695434678388
 30
0.0
 10
1785.888076225823
 20
-1747.98588108094
 30
0.0
 10
1783.484950668186
 20
-1748.531012130899
 30
0.0
 10
1782.065226832885
 20
-1749.55869615913
 30
0.0
 10
1781.60421147146
 20
-1752.359379568186
 30
0.0
 10
1779.924829161788
 20
-1762.561726251804
 30
0.0
 10
1779.8882376302
 20
-1762.637582117708
 30
0.0
 10
1790.035076236454
 20
-1760.859633740861
 30
0.0
 10
1802.2707877747
 20
-1758.71564934094
 30
0.0
 10
1814.519483961052
 20
-1756.641157812029
 30
0.0
 10
1826.731295469713
 20
-1754.368499515456
 30
0.0
 10
1830.465890640853
 20
-1753.673501829767
 30
0.0
 10
1833.796478746244
 20
-1753.926314480372
 30
0.0
 10
1836.878961782619
 20
-1756.28812368095
 30
0.0
 10
1843.678382248217
 20
-1761.497795569759
 30
0.0
 10
1849.694533562442
 20
-1767.478079595721
 30
0.0
 10
1853.169797893095
 20
-1775.389799850856
 30
0.0
 10
1856.26411023704
 20
-1782.434238729414
 30
0.0
 10
1854.411495822602
 20
-1786.36101703888
 30
0.0
 10
1847.029783727134
 20
-1787.990857656636
 30
0.0
 10
1842.778423702762
 20
-1788.929545975859
 30
0.0
 10
1840.714278507006
 20
-1790.952857643437
 30
0.0
 10
1839.12463339355
 20
-1794.791364487215
 30
0.0
 10
1836.078552205987
 20
-1802.146762408696
 30
0.0
 10
1831.017953734026
 20
-1808.30065790497
 30
0.0
 10
1826.246155908153
 20
-1814.613093712929
 30
0.0
 10
1822.956935891487
 20
-1818.96433034001
 30
0.0
 10
1820.17754868484
 20
-1823.5051980099
 30
0.0
 10
1819.78102546674
 20
-1829.339891884503
 30
0.0
 10
1819.277003847175
 20
-1836.756419391035
 30
0.0
 10
1815.526716737419
 20
-1838.788853075674
 30
0.0
 10
1809.20717644736
 20
-1834.984058034091
 30
0.0
 10
1805.349977228352
 20
-1832.66173733838
 30
0.0
 10
1801.834241491184
 20
-1832.968454384712
 30
0.0
 10
1797.888425928719
 20
-1833.873051536195
 30
0.0
 10
1794.419059007963
 20
-1834.668408653471
 30
0.0
 10
1794.526419458318
 20
-1835.835716447606
 30
0.0
 10
1796.682784970247
 20
-1838.270018955815
 30
0.0
 10
1807.44393710748
 20
-1850.418131540025
 30
0.0
 10
1820.04314981718
 20
-1860.131717445481
 30
0.0
 10
1834.80786729976
 20
-1866.843452737608
 30
0.0
 10
1851.078941913913
 20
-1874.239942845597
 30
0.0
 10
1867.530232407709
 20
-1881.239116516608
 30
0.0
 10
1883.845485864427
 20
-1888.539920286817
 30
0.0
 10
1890.970074337145
 20
-1891.728073872465
 30
0.0
 10
1896.97829346262
 20
-1896.411582988763
 30
0.0
 10
1902.221366763628
 20
-1903.788346088208
 30
0.0
  0
HATCH
  5
85
330
70
100
AcDbEntity
  8
Layer 1
 62
   168
420
   922409
440
 33554687
100
AcDbHatch
 10
0.0
 20
0.0
 30
0.0
210
0.0
220
0.0
230
1.0
  2
SOLID
 70
     1
 71
     1
 91
        6
 92
        1
 93
        1
 72
     4
 94
        3
 73
     0
 74
     0
 95
       23
 96
       19
 40
0.0
 40
0.0
 40
0.0
 40
0.0
 40
1.0
 40
1.0
 40
1.0
 40
2.0
 40
2.0
 40
2.0
 40
3.0
 40
3.0
 40
3.0
 40
4.0
 40
4.0
 40
4.0
 40
5.0
 40
5.0
 40
5.0
 40
6.0
 40
6.0
 40
6.0
 40
6.0
 10
1768.596077187765
 20
-1814.633544964794
 10
1768.596077187765
 20
-1811.999765153394
 10
1768.590766070079
 20
-1809.365950854213
 10
1768.59795677162
 20
-1806.732188286702
 10
1768.602819548201
 20
-1804.95491242151
 10
1767.950828120656
 20
-1803.808711147007
 10
1765.954675577606
 20
-1803.952801080055
 10
1759.007742267073
 20
-1804.454236116331
 10
1752.063042040112
 20
-1804.987192980947
 10
1745.400934659346
 20
-1807.247694336065
 10
1743.935549007063
 20
-1807.744921863528
 10
1742.763352570511
 20
-1808.224146771301
 10
1743.324796339078
 20
-1810.41631059594
 10
1745.214390272593
 20
-1817.794418718697
 10
1752.192026326758
 20
-1823.848230685596
 10
1759.628030805448
 20
-1824.234804179983
 10
1769.267261063309
 20
-1824.735911582376
 10
1769.267261063309
 20
-1824.735894338488
 10
1768.596077187765
 20
-1814.633544964794
 97
        0
 97
        1
330
7F
 92
        1
 93
        1
 72
     4
 94
        3
 73
     0
 74
     0
 95
       32
 96
       28
 40
0.0
 40
0.0
 40
0.0
 40
0.0
 40
1.0
 40
1.0
 40
1.0
 40
2.0
 40
2.0
 40
2.0
 40
3.0
 40
3.0
 40
3.0
 40
4.0
 40
4.0
 40
4.0
 40
5.0
 40
5.0
 40
5.0
 40
6.0
 40
6.0
 40
6.0
 40
7.0
 40
7.0
 40
7.0
 40
8.0
 40
8.0
 40
8.0
 40
9.0
 40
9.0
 40
9.0
 40
9.0
 10
1779.505337084085
 20
-1812.46798846025
 10
1779.505337084085
 20
-1813.784404159012
 10
1779.617146457696
 20
-1815.112097360916
 10
1779.485713538872
 20
-1816.415252509354
 10
1778.955084599214
 20
-1821.676087015609
 10
1780.788178931767
 20
-1823.399924070063
 10
1786.468298589061
 20
-1823.18735865543
 10
1797.072738266797
 20
-1822.790507803443
 10
1804.977526478722
 20
-1819.439589153406
 10
1808.306303975811
 20
-1808.601287858628
 10
1808.685962670872
 20
-1807.36509072958
 10
1809.638342637638
 20
-1806.31229959956
 10
1810.081562306037
 20
-1805.086397072
 10
1810.79640770749
 20
-1803.109368001396
 10
1813.641563105215
 20
-1801.394187379012
 10
1811.896602287237
 20
-1799.154982226302
 10
1810.336220052719
 20
-1797.152587395581
 10
1807.438643233683
 20
-1797.077835138547
 10
1805.044346547003
 20
-1797.484446031476
 10
1799.121829547815
 20
-1798.490178589533
 10
1793.298551127458
 20
-1800.414837970494
 10
1787.352392757015
 20
-1800.858988808877
 10
1780.53483172062
 20
-1801.368252570575
 10
1778.750451373329
 20
-1804.800355448087
 10
1779.49343880096
 20
-1810.776604404118
 10
1779.562517818647
 20
-1811.332185250563
 10
1779.502664281353
 20
-1811.903820157286
 10
1779.505337084085
 20
-1812.46798846025
 97
        0
 97
        1
330
80
 92
        1
 93
        1
 72
     4
 94
        3
 73
     0
 74
     0
 95
       29
 96
       25
 40
0.0
 40
0.0
 40
0.0
 40
0.0
 40
1.0
 40
1.0
 40
1.0
 40
2.0
 40
2.0
 40
2.0
 40
3.0
 40
3.0
 40
3.0
 40
4.0
 40
4.0
 40
4.0
 40
5.0
 40
5.0
 40
5.0
 40
6.0
 40
6.0
 40
6.0
 40
7.0
 40
7.0
 40
7.0
 40
8.0
 40
8.0
 40
8.0
 40
8.0
 10
1768.497459388924
 20
-1783.524414609894
 10
1768.43212229506
 20
-1782.40035448834
 10
1768.358973719667
 20
-1781.276708220108
 10
1768.302672423424
 20
-1780.152199757447
 10
1767.952069680634
 20
-1773.148387480405
 10
1767.94796563515
 20
-1773.12328037862
 10
1761.302981435754
 20
-1774.54779801495
 10
1752.295110292742
 20
-1776.478837634689
 10
1743.523635618396
 20
-1779.219684750338
 10
1734.871712823636
 20
-1782.361521251235
 10
1724.459257979506
 20
-1786.142674921566
 10
1724.45902518701
 20
-1786.138415681083
 10
1731.528346996802
 20
-1794.121232488875
 10
1732.399163370541
 20
-1795.104547991765
 10
1733.299363330436
 20
-1796.067032877244
 10
1734.10301475812
 20
-1797.103459556993
 10
1735.304543049162
 20
-1798.653029873368
 10
1736.637969844019
 20
-1798.947227856583
 10
1738.512639191962
 20
-1798.216690516512
 10
1745.410341200573
 20
-1795.528730407166
 10
1752.793174148799
 20
-1795.178144908264
 10
1759.999834909258
 20
-1794.001542658179
 10
1768.886929856593
 20
-1792.550590140641
 10
1768.895879434771
 20
-1792.605460194134
 10
1768.497459388924
 20
-1783.524414609894
 97
        0
 97
        1
330
81
 92
        1
 93
        1
 72
     4
 94
        3
 73
     0
 74
     0
 95
       26
 96
       22
 40
0.0
 40
0.0
 40
0.0
 40
0.0
 40
1.0
 40
1.0
 40
1.0
 40
2.0
 40
2.0
 40
2.0
 40
3.0
 40
3.0
 40
3.0
 40
4.0
 40
4.0
 40
4.0
 40
5.0
 40
5.0
 40
5.0
 40
6.0
 40
6.0
 40
6.0
 40
7.0
 40
7.0
 40
7.0
 40
7.0
 10
1809.702472659299
 20
-1767.387221546747
 10
1801.772870491695
 20
-1767.316607822975
 10
1793.991548522068
 20
-1768.464274828007
 10
1786.205846604738
 20
-1769.887913026019
 10
1782.015288531531
 20
-1770.654179703242
 10
1779.764736900128
 20
-1772.388690724734
 10
1780.007185973689
 20
-1776.869860052329
 10
1780.247238146734
 20
-1781.306695342364
 10
1777.492216554663
 20
-1787.591661635802
 10
1780.639140002693
 20
-1789.74892382994
 10
1784.674572054156
 20
-1792.515222925145
 10
1789.593598200801
 20
-1787.966681724834
 10
1793.846924028474
 20
-1785.701058934805
 10
1801.314579664668
 20
-1781.723290446783
 10
1806.486142559697
 20
-1782.126331854773
 10
1812.544558644855
 20
-1787.131577444363
 10
1817.547027968381
 20
-1791.264489198018
 10
1817.547045212272
 20
-1791.264471954129
 10
1820.563915252564
 20
-1785.200796482952
 10
1828.117738600038
 20
-1770.018087140977
 10
1826.433838391555
 20
-1767.256478383466
 10
1809.702472659299
 20
-1767.387221546747
 97
        0
 97
        1
330
82
 92
        1
 93
        1
 72
     4
 94
        3
 73
     0
 74
     0
 95
       29
 96
       25
 40
0.0
 40
0.0
 40
0.0
 40
0.0
 40
1.0
 40
1.0
 40
1.0
 40
2.0
 40
2.0
 40
2.0
 40
3.0
 40
3.0
 40
3.0
 40
4.0
 40
4.0
 40
4.0
 40
5.0
 40
5.0
 40
5.0
 40
6.0
 40
6.0
 40
6.0
 40
7.0
 40
7.0
 40
7.0
 40
8.0
 40
8.0
 40
8.0
 40
8.0
 10
1768.570194110993
 20
-1846.699676648606
 10
1768.66848427595
 20
-1845.388485848083
 10
1768.87829066841
 20
-1844.073915245399
 10
1768.838371066327
 20
-1842.766931953689
 10
1768.781207575653
 20
-1840.894676750153
 10
1770.271786549167
 20
-1838.120169563974
 10
1767.238758985266
 20
-1837.616785968288
 10
1764.352183767152
 20
-1837.137716255513
 10
1760.928952870315
 20
-1835.363044217496
 10
1758.615167899459
 20
-1839.181858540504
 10
1752.269011667364
 20
-1849.656003396061
 10
1744.632865995765
 20
-1859.197581512846
 10
1737.033182526589
 20
-1868.760542051477
 10
1735.927297463606
 20
-1870.152106616711
 10
1734.926151779911
 20
-1871.334313130592
 10
1736.492750436267
 20
-1873.140386289728
 10
1742.27280704988
 20
-1879.804097352131
 10
1747.189824283505
 20
-1887.26694194341
 10
1754.109701932841
 20
-1892.872240368117
 10
1759.958225406093
 20
-1897.60968836792
 10
1762.296677759577
 20
-1896.670310293149
 10
1763.851472974194
 20
-1889.246988694518
 10
1766.789228053642
 20
-1875.220757984644
 10
1767.699981273354
 20
-1860.959855194964
 10
1768.570194110993
 20
-1846.699676648606
 97
        0
 97
        1
330
83
 92
        1
 93
        1
 72
     4
 94
        3
 73
     0
 74
     0
 95
      203
 96
      199
 40
0.0
 40
0.0
 40
0.0
 40
0.0
 40
1.0
 40
1.0
 40
1.0
 40
2.0
 40
2.0
 40
2.0
 40
3.0
 40
3.0
 40
3.0
 40
4.0
 40
4.0
 40
4.0
 40
5.0
 40
5.0
 40
5.0
 40
6.0
 40
6.0
 40
6.0
 40
7.0
 40
7.0
 40
7.0
 40
8.0
 40
8.0
 40
8.0
 40
9.0
 40
9.0
 40
9.0
 40
10.0
 40
10.0
 40
10.0
 40
11.0
 40
11.0
 40
11.0
 40
12.0
 40
12.0
 40
12.0
 40
13.0
 40
13.0
 40
13.0
 40
14.0
 40
14.0
 40
14.0
 40
15.0
 40
15.0
 40
15.0
 40
16.0
 40
16.0
 40
16.0
 40
17.0
 40
17.0
 40
17.0
 40
18.0
 40
18.0
 40
18.0
 40
19.0
 40
19.0
 40
19.0
 40
20.0
 40
20.0
 40
20.0
 40
21.0
 40
21.0
 40
21.0
 40
22.0
 40
22.0
 40
22.0
 40
23.0
 40
23.0
 40
23.0
 40
24.0
 40
24.0
 40
24.0
 40
25.0
 40
25.0
 40
25.0
 40
26.0
 40
26.0
 40
26.0
 40
27.0
 40
27.0
 40
27.0
 40
28.0
 40
28.0
 40
28.0
 40
29.0
 40
29.0
 40
29.0
 40
30.0
 40
30.0
 40
30.0
 40
31.0
 40
31.0
 40
31.0
 40
32.0
 40
32.0
 40
32.0
 40
33.0
 40
33.0
 40
33.0
 40
34.0
 40
34.0
 40
34.0
 40
35.0
 40
35.0
 40
35.0
 40
36.0
 40
36.0
 40
36.0
 40
37.0
 40
37.0
 40
37.0
 40
38.0
 40
38.0
 40
38.0
 40
39.0
 40
39.0
 40
39.0
 40
40.0
 40
40.0
 40
40.0
 40
41.0
 40
41.0
 40
41.0
 40
42.0
 40
42.0
 40
42.0
 40
43.0
 40
43.0
 40
43.0
 40
44.0
 40
44.0
 40
44.0
 40
45.0
 40
45.0
 40
45.0
 40
46.0
 40
46.0
 40
46.0
 40
47.0
 40
47.0
 40
47.0
 40
48.0
 40
48.0
 40
48.0
 40
49.0
 40
49.0
 40
49.0
 40
50.0
 40
50.0
 40
50.0
 40
51.0
 40
51.0
 40
51.0
 40
52.0
 40
52.0
 40
52.0
 40
53.0
 40
53.0
 40
53.0
 40
54.0
 40
54.0
 40
54.0
 40
55.0
 40
55.0
 40
55.0
 40
56.0
 40
56.0
 40
56.0
 40
57.0
 40
57.0
 40
57.0
 40
58.0
 40
58.0
 40
58.0
 40
59.0
 40
59.0
 40
59.0
 40
60.0
 40
60.0
 40
60.0
 40
61.0
 40
61.0
 40
61.0
 40
62.0
 40
62.0
 40
62.0
 40
63.0
 40
63.0
 40
63.0
 40
64.0
 40
64.0
 40
64.0
 40
65.0
 40
65.0
 40
65.0
 40
66.0
 40
66.0
 40
66.0
 40
66.0
 10
1902.221366763628
 20
-1903.788346088208
 10
1894.605241246681
 20
-1903.348799368075
 10
1888.647805373101
 20
-1900.987386776934
 10
1882.962581524785
 20
-1898.168666260419
 10
1875.921556936168
 20
-1894.677675503375
 10
1869.599257623937
 20
-1894.758618316409
 10
1862.802906570507
 20
-1899.104492094139
 10
1843.379149049533
 20
-1911.524885679169
 10
1835.184042729326
 20
-1906.943356919986
 10
1822.180236661667
 20
-1890.649330690121
 10
1810.30894022097
 20
-1875.774373027791
 10
1801.111826022639
 20
-1859.009916273335
 10
1789.935216877637
 20
-1843.633730501389
 10
1787.896282246996
 20
-1840.828649900743
 10
1786.519581913726
 20
-1835.487458873666
 10
1781.966815960708
 20
-1837.045858060997
 10
1777.818557146209
 20
-1838.46580606685
 10
1780.372394290112
 20
-1843.304027351567
 10
1780.040501166442
 20
-1846.566864218695
 10
1777.088554366686
 20
-1875.587294080491
 10
1782.297226109958
 20
-1903.965647750679
 10
1787.020792779451
 20
-1932.383576145177
 10
1788.583709865592
 20
-1941.786496153818
 10
1788.353107343493
 20
-1951.132235427896
 10
1784.991256068091
 20
-1960.210866867732
 10
1783.745126459215
 20
-1963.575977238077
 10
1781.755095496613
 20
-1966.270162391207
 10
1777.946955140642
 20
-1966.7507150784
 10
1774.014779494049
 20
-1967.246890728657
 10
1771.603945918213
 20
-1964.747699467691
 10
1769.783111990448
 20
-1961.764644692921
 10
1762.973241728363
 20
-1950.608159165902
 10
1759.749531244446
 20
-1938.268053126139
 10
1758.628488803393
 20
-1925.40256028885
 10
1758.240854809859
 20
-1920.953912935132
 10
1757.224724186981
 20
-1917.016891755848
 10
1754.971465265071
 20
-1913.180471422591
 10
1748.093188496954
 20
-1901.469594877435
 10
1739.857300380236
 20
-1890.695509823763
 10
1732.212162020738
 20
-1879.513123976081
 10
1730.149861921061
 20
-1876.496650545225
 10
1728.820875427514
 20
-1876.74866997695
 10
1726.151159352293
 20
-1878.829679695751
 10
1715.005994438132
 20
-1887.517150766835
 10
1703.66668920429
 20
-1895.937548491456
 10
1689.870992040964
 20
-1900.188615369719
 10
1682.299204872552
 20
-1902.521782471355
 10
1674.761620957155
 20
-1902.720570019006
 10
1667.03579844295
 20
-1900.690033162111
 10
1667.450669158512
 20
-1898.114382499141
 10
1669.663034198633
 20
-1897.994778887889
 10
1671.200210470086
 20
-1897.207457422697
 10
1686.971505461266
 20
-1889.129178447678
 10
1702.197216750412
 20
-1880.155820947679
 10
1716.606235921124
 20
-1869.821748199127
 10
1720.304498219007
 20
-1867.169379475825
 10
1724.350733566671
 20
-1864.708107525868
 10
1721.336726011885
 20
-1858.491392543463
 10
1725.261521274158
 20
-1862.287065567987
 10
1727.640772668044
 20
-1860.062603940019
 10
1730.125961891477
 20
-1857.480141941058
 10
1735.124603071738
 20
-1852.285765381424
 10
1739.094629053781
 20
-1846.390907579533
 10
1742.630221128662
 20
-1840.141739598805
 10
1744.034675500615
 20
-1837.659361129214
 10
1743.963139228804
 20
-1836.453616707413
 10
1741.046533778712
 20
-1835.065052578791
 10
1737.165606969007
 20
-1833.217387160379
 10
1732.498660607698
 20
-1831.491066985969
 10
1734.115654528456
 20
-1825.284163776172
 10
1734.604398062733
 20
-1823.408114917145
 10
1732.500186691839
 20
-1822.034535727706
 10
1731.339328112035
 20
-1820.583048649625
 10
1720.765737750984
 20
-1807.362331707407
 10
1709.306734064505
 20
-1794.847458856793
 10
1699.597657435913
 20
-1780.943590780347
 10
1698.223673015094
 20
-1778.975959629022
 10
1695.114160183357
 20
-1777.040867695466
 10
1697.013005463101
 20
-1774.193660275001
 10
1698.982248918009
 20
-1771.240903012482
 10
1702.468118240143
 20
-1772.266086676865
 10
1704.720170089853
 20
-1773.620421686641
 10
1714.071565359387
 20
-1779.244067608803
 10
1723.451930361752
 20
-1777.193372646148
 10
1733.007450162459
 20
-1774.603737189531
 10
1742.815506711549
 20
-1771.945660739109
 10
1752.699901955422
 20
-1769.570280598209
 10
1762.520132689857
 20
-1766.95565874703
 10
1767.849434055753
 20
-1765.536762618381
 10
1769.155313738591
 20
-1762.663189292261
 10
1767.41443972221
 20
-1755.55794846254
 10
1766.165223457275
 20
-1750.459309972351
 10
1762.574278500025
 20
-1753.816988226716
 10
1760.092719115142
 20
-1754.088476008661
 10
1755.625957056462
 20
-1754.577202299048
 10
1751.328547227613
 20
-1756.284174830462
 10
1746.724842827705
 20
-1755.994287819392
 10
1743.503718927077
 20
-1755.791447957921
 10
1740.318350229436
 20
-1755.386078624973
 10
1737.493430534971
 20
-1753.754151496699
 10
1735.543870978889
 20
-1752.627918645181
 10
1733.008389954386
 20
-1751.075003014421
 10
1733.352026166185
 20
-1748.849661948132
 10
1733.727399754933
 20
-1746.418773729869
 10
1736.791017977189
 20
-1747.288572714182
 10
1738.672860782786
 20
-1747.005497039104
 10
1745.928813198776
 20
-1745.91404511087
 10
1753.175971231585
 20
-1744.871169216794
 10
1760.379450494598
 20
-1743.386263482624
 10
1765.457741196251
 20
-1742.339438738059
 10
1766.576886809558
 20
-1739.684793821465
 10
1766.163119702869
 20
-1735.049990068486
 10
1765.119726492132
 20
-1723.362022029321
 10
1761.579478567333
 20
-1712.650342608451
 10
1754.851861653818
 20
-1702.971830772387
 10
1748.704458481597
 20
-1694.128017985409
 10
1745.370214671828
 20
-1684.305623142956
 10
1744.933082096099
 20
-1672.633381530186
 10
1751.509366643357
 20
-1675.146066133972
 10
1757.436306699966
 20
-1677.720440749186
 10
1763.560240939818
 20
-1679.678811932337
 10
1773.050346049162
 20
-1682.713675970373
 10
1782.688403722599
 20
-1685.28325678456
 10
1792.233689275426
 20
-1688.150122238019
 10
1794.925339576934
 20
-1688.958550222842
 10
1797.671273639718
 20
-1689.829461437968
 10
1800.108473121207
 20
-1691.182848033868
 10
1803.472807516566
 20
-1693.051059545532
 10
1805.059572900627
 20
-1696.170142735436
 10
1804.928277932911
 20
-1700.123485255272
 10
1804.811640270496
 20
-1703.635246276122
 10
1802.841388048107
 20
-1705.783670977356
 10
1799.775528120331
 20
-1706.808501142028
 10
1787.114875435591
 20
-1711.040677340343
 10
1784.498184317781
 20
-1721.782240420138
 10
1782.550814735548
 20
-1733.006968636249
 10
1781.982214753218
 20
-1736.284264503958
 10
1783.469362192902
 20
-1736.533757706007
 10
1786.07727617142
 20
-1735.56276296151
 10
1790.025143756627
 20
-1734.092842166525
 10
1793.37637279666
 20
-1731.741025799385
 10
1796.598841720597
 20
-1729.089752063008
 10
1803.131137108065
 20
-1723.715297574841
 10
1816.474389122597
 20
-1726.734926637311
 10
1819.883178262738
 20
-1734.353906017817
 10
1821.180884342386
 20
-1737.254440163744
 10
1819.527540304482
 20
-1738.998762957844
 10
1817.059612213529
 20
-1740.163829046463
 10
1812.58223654142
 20
-1742.277464202472
 10
1807.682937403322
 20
-1742.886380396323
 10
1802.933573876502
 20
-1744.020631656034
 10
1797.259662019101
 20
-1745.375725396903
 10
1791.577024754073
 20
-1746.695434678388
 10
1785.888076225823
 20
-1747.98588108094
 10
1783.484950668186
 20
-1748.531012130899
 10
1782.065226832885
 20
-1749.55869615913
 10
1781.60421147146
 20
-1752.359379568186
 10
1779.924829161788
 20
-1762.561726251804
 10
1779.8882376302
 20
-1762.637582117708
 10
1790.035076236454
 20
-1760.859633740861
 10
1802.2707877747
 20
-1758.71564934094
 10
1814.519483961052
 20
-1756.641157812029
 10
1826.731295469713
 20
-1754.368499515456
 10
1830.465890640853
 20
-1753.673501829767
 10
1833.796478746244
 20
-1753.926314480372
 10
1836.878961782619
 20
-1756.28812368095
 10
1843.678382248217
 20
-1761.497795569759
 10
1849.694533562442
 20
-1767.478079595721
 10
1853.169797893095
 20
-1775.389799850856
 10
1856.26411023704
 20
-1782.434238729414
 10
1854.411495822602
 20
-1786.36101703888
 10
1847.029783727134
 20
-1787.990857656636
 10
1842.778423702762
 20
-1788.929545975859
 10
1840.714278507006
 20
-1790.952857643437
 10
1839.12463339355
 20
-1794.791364487215
 10
1836.078552205987
 20
-1802.146762408696
 10
1831.017953734026
 20
-1808.30065790497
 10
1826.246155908153
 20
-1814.613093712929
 10
1822.956935891487
 20
-1818.96433034001
 10
1820.17754868484
 20
-1823.5051980099
 10
1819.78102546674
 20
-1829.339891884503
 10
1819.277003847175
 20
-1836.756419391035
 10
1815.526716737419
 20
-1838.788853075674
 10
1809.20717644736
 20
-1834.984058034091
 10
1805.349977228352
 20
-1832.66173733838
 10
1801.834241491184
 20
-1832.968454384712
 10
1797.888425928719
 20
-1833.873051536195
 10
1794.419059007963
 20
-1834.668408653471
 10
1794.526419458318
 20
-1835.835716447606
 10
1796.682784970247
 20
-1838.270018955815
 10
1807.44393710748
 20
-1850.418131540025
 10
1820.04314981718
 20
-1860.131717445481
 10
1834.80786729976
 20
-1866.843452737608
 10
1851.078941913913
 20
-1874.239942845597
 10
1867.530232407709
 20
-1881.239116516608
 10
1883.845485864427
 20
-1888.539920286817
 10
1890.970074337145
 20
-1891.728073872465
 10
1896.97829346262
 20
-1896.411582988763
 10
1902.221366763628
 20
-1903.788346088208
 97
        0
 97
        1
330
84
 75
     2
 76
     1
 98
        1
 10
0.0
 20
0.0
450
        0
451
        0
460
0.0
461
0.0
452
        0
462
0.0
453
        0
470

  0
ENDSEC
  0
SECTION
  2
OBJECTS
  0
DICTIONARY
  5
C
330
0
100
AcDbDictionary
281
     1
  3
ACAD_COLOR
350
63
  3
ACAD_DETAILVIEWSTYLE
350
6A
  3
ACAD_GROUP
350
D
  3
ACAD_LAYOUT
350
62
  3
ACAD_MATERIAL
350
10
  3
ACAD_MLEADERSTYLE
350
66
  3
ACAD_MLINESTYLE
350
5F
  3
ACAD_PLOTSETTINGS
350
61
  3
ACAD_PLOTSTYLENAME
350
E
  3
ACAD_SCALELIST
350
42
  3
ACAD_SECTIONVIEWSTYLE
350
68
  3
ACAD_TABLESTYLE
350
64
  3
ACAD_VISUALSTYLE
350
29
  3
ACDB_RECOMPOSE_DATA
350
8E
  3
AcDbVariableDictionary
350
86
  0
DICTIONARY
  5
63
102
{ACAD_REACTORS
330
C
102
}
330
C
100
AcDbDictionary
281
     1
  0
DICTIONARY
  5
6A
102
{ACAD_REACTORS
330
C
102
}
330
C
100
AcDbDictionary
281
     1
  3
Imperial24
350
6B
  0
DICTIONARY
  5
D
102
{ACAD_REACTORS
330
C
102
}
330
C
100
AcDbDictionary
281
     1
  0
DICTIONARY
  5
62
102
{ACAD_REACTORS
330
C
102
}
330
C
100
AcDbDictionary
281
     1
  3
Layout1
350
6F
  3
Layout2
350
77
  3
Model
350
73
  0
DICTIONARY
  5
10
102
{ACAD_REACTORS
330
C
102
}
330
C
100
AcDbDictionary
281
     1
  3
ByBlock
350
19
  3
ByLayer
350
11
  3
Global
350
21
  0
DICTIONARY
  5
66
102
{ACAD_REACTORS
330
C
102
}
330
C
100
AcDbDictionary
281
     1
  3
Standard
350
67
  0
DICTIONARY
  5
5F
102
{ACAD_REACTORS
330
C
102
}
330
C
100
AcDbDictionary
281
     1
  3
Standard
350
60
  0
DICTIONARY
  5
61
102
{ACAD_REACTORS
330
C
102
}
330
C
100
AcDbDictionary
281
     1
  0
ACDBDICTIONARYWDFLT
  5
E
102
{ACAD_REACTORS
330
C
102
}
330
C
100
AcDbDictionary
281
     1
  3
Normal
350
F
100
AcDbDictionaryWithDefault
340
F
  0
DICTIONARY
  5
42
102
{ACAD_REACTORS
330
C
102
}
330
C
100
AcDbDictionary
281
     1
  3
A0
350
43
  3
A1
350
44
  3
A2
350
45
  3
A3
350
46
  3
A4
350
47
  3
A5
350
48
  3
A6
350
49
  3
A7
350
4A
  3
A8
350
4B
  3
A9
350
4C
  3
B0
350
4D
  3
B1
350
4E
  3
B2
350
4F
  3
B3
350
50
  3
B4
350
51
  3
B5
350
52
  3
B6
350
53
  0
DICTIONARY
  5
68
102
{ACAD_REACTORS
330
C
102
}
330
C
100
AcDbDictionary
281
     1
  3
Imperial24
350
69
  0
DICTIONARY
  5
64
102
{ACAD_REACTORS
330
C
102
}
330
C
100
AcDbDictionary
281
     1
  3
Standard
350
65
  0
DICTIONARY
  5
29
102
{ACAD_REACTORS
330
C
102
}
330
C
100
AcDbDictionary
281
     1
  3
2dWireframe
350
2F
  3
Basic
350
2E
  3
Brighten
350
35
  3
ColorChange
350
39
  3
Conceptual
350
32
  3
Dim
350
34
  3
EdgeColorOff
350
41
  3
Facepattern
350
38
  3
Flat
350
2A
  3
FlatWithEdges
350
2B
  3
Gouraud
350
2C
  3
GouraudWithEdges
350
2D
  3
Hidden
350
31
  3
JitterOff
350
3F
  3
Linepattern
350
37
  3
OverhangOff
350
40
  3
Realistic
350
33
  3
Shaded
350
3E
  3
Shaded with edges
350
3D
  3
Shades of Gray
350
3A
  3
Sketchy
350
3B
  3
Thicken
350
36
  3
Wireframe
350
30
  3
X-Ray
350
3C
  0
XRECORD
  5
8E
102
{ACAD_REACTORS
330
C
102
}
330
C
100
AcDbXrecord
280
     1
 90
        1
330
65
  0
DICTIONARY
  5
86
102
{ACAD_REACTORS
330
C
102
}
330
C
100
AcDbDictionary
281
     1
  3
CANNOSCALE
350
8B
  3
CMLEADERSTYLE
350
88
  3
CTABLESTYLE
350
87
  3
CVIEWDETAILSTYLE
350
89
  3
CVIEWSECTIONSTYLE
350
8A
  0
ACDBDETAILVIEWSTYLE
  5
6B
102
{ACAD_REACTORS
330
6A
102
}
330
6A
100
AcDbModelDocViewStyle
 70
     0
  3
Imperial24
290
     1
300
Imperial24
 90
        0
100
AcDbDetailViewStyle
 70
     0
 71
     0
 90
        3
 71
     1
340
55
 62
   256
 40
0.24
340
0
 62
   256
 40
0.24
300

 40
0.36
280
     3
 71
     2
340
5D
 90
       25
 62
   256
 71
     3
340
55
 62
   256
 40
0.24
 90
        1
 40
0.75
 90
        1
300
%<\AcVar ViewType \f "%tc1">% %<\AcVar ViewDetailId>%\PSCALE %<\AcVar ViewScale \f "%sn">%
 71
     4
340
5D
 90
       25
 62
   256
340
5D
 90
       25
 62
   256
280
     0
  0
LAYOUT
  5
6F
102
{ACAD_REACTORS
330
62
102
}
330
62
100
AcDbPlotSettings
  1

  2

  4

  6

 40
0.0
 41
0.0
 42
0.0
 43
0.0
 44
0.0
 45
0.0
 46
0.0
 47
0.0
 48
0.0
 49
0.0
140
0.0
141
0.0
142
1.0
143
1.0
 70
   688
 72
     0
 73
     0
 74
     5
  7

 75
    16
147
1.0
 76
     0
 77
     2
 78
   300
148
0.0
149
0.0
100
AcDbLayout
  1
Layout1
 70
     1
 71
     1
 10
0.0
 20
0.0
 11
12.0
 21
9.0
 12
0.0
 22
0.0
 32
0.0
 14
0.0
 24
0.0
 34
0.0
 15
0.0
 25
0.0
 35
0.0
146
0.0
 13
0.0
 23
0.0
 33
0.0
 16
1.0
 26
0.0
 36
0.0
 17
0.0
 27
1.0
 37
0.0
 76
     0
330
6C
  0
LAYOUT
  5
77
102
{ACAD_REACTORS
330
62
102
}
330
62
100
AcDbPlotSettings
  1

  2

  4

  6

 40
0.0
 41
0.0
 42
0.0
 43
0.0
 44
0.0
 45
0.0
 46
0.0
 47
0.0
 48
0.0
 49
0.0
140
0.0
141
0.0
142
1.0
143
1.0
 70
   688
 72
     0
 73
     0
 74
     5
  7

 75
    16
147
1.0
 76
     0
 77
     2
 78
   300
148
0.0
149
0.0
100
AcDbLayout
  1
Layout2
 70
     1
 71
     2
 10
0.0
 20
0.0
 11
12.0
 21
9.0
 12
0.0
 22
0.0
 32
0.0
 14
0.0
 24
0.0
 34
0.0
 15
0.0
 25
0.0
 35
0.0
146
0.0
 13
0.0
 23
0.0
 33
0.0
 16
1.0
 26
0.0
 36
0.0
 17
0.0
 27
1.0
 37
0.0
 76
     0
330
74
  0
LAYOUT
  5
73
102
{ACAD_REACTORS
330
62
102
}
330
62
100
AcDbPlotSettings
  1

  2

  4

  6

 40
0.0
 41
0.0
 42
0.0
 43
0.0
 44
0.0
 45
0.0
 46
0.0
 47
0.0
 48
0.0
 49
0.0
140
0.0
141
0.0
142
1.0
143
1.0
 70
  1712
 72
     0
 73
     0
 74
     0
  7

 75
     0
147
1.0
 76
     0
 77
     2
 78
   300
148
0.0
149
0.0
100
AcDbLayout
  1
Model
 70
     1
 71
     0
 10
0.0
 20
0.0
 11
12.0
 21
9.0
 12
0.0
 22
0.0
 32
0.0
 14
0.0
 24
0.0
 34
0.0
 15
0.0
 25
0.0
 35
0.0
146
0.0
 13
0.0
 23
0.0
 33
0.0
 16
1.0
 26
0.0
 36
0.0
 17
0.0
 27
1.0
 37
0.0
 76
     0
330
70
  0
MATERIAL
  5
19
102
{ACAD_XDICTIONARY
360
1A
102
}
102
{ACAD_REACTORS
330
10
102
}
330
10
100
AcDbMaterial
  1
ByBlock
 72
     0
 43
0.0208333333333333
 43
0.0
 43
0.0
 43
0.0
 43
0.0
 43
0.0208333333333333
 43
0.0
 43
0.0
 43
0.0
 43
0.0
 43
1.0
 43
0.0
 43
0.0
 43
0.0
 43
0.0
 43
1.0
 77
     0
 47
0.0208333333333333
 47
0.0
 47
0.0
 47
0.0
 47
0.0
 47
0.0208333333333333
 47
0.0
 47
0.0
 47
0.0
 47
0.0
 47
1.0
 47
0.0
 47
0.0
 47
0.0
 47
0.0
 47
1.0
171
     0
 49
0.0208333333333333
 49
0.0
 49
0.0
 49
0.0
 49
0.0
 49
0.0208333333333333
 49
0.0
 49
0.0
 49
0.0
 49
0.0
 49
1.0
 49
0.0
 49
0.0
 49
0.0
 49
0.0
 49
1.0
175
     0
142
0.0208333333333333
142
0.0
142
0.0
142
0.0
142
0.0
142
0.0208333333333333
142
0.0
142
0.0
142
0.0
142
0.0
142
1.0
142
0.0
142
0.0
142
0.0
142
0.0
142
1.0
179
     0
144
0.0208333333333333
144
0.0
144
0.0
144
0.0
144
0.0
144
0.0208333333333333
144
0.0
144
0.0
144
0.0
144
0.0
144
1.0
144
0.0
144
0.0
144
0.0
144
0.0
144
1.0
147
0.0208333333333333
147
0.0
147
0.0
147
0.0
147
0.0
147
0.0208333333333333
147
0.0
147
0.0
147
0.0
147
0.0
147
1.0
147
0.0
147
0.0
147
0.0
147
0.0
147
1.0
  0
MATERIAL
  5
11
102
{ACAD_XDICTIONARY
360
12
102
}
102
{ACAD_REACTORS
330
10
102
}
330
10
100
AcDbMaterial
  1
ByLayer
 72
     0
 43
0.0208333333333333
 43
0.0
 43
0.0
 43
0.0
 43
0.0
 43
0.0208333333333333
 43
0.0
 43
0.0
 43
0.0
 43
0.0
 43
1.0
 43
0.0
 43
0.0
 43
0.0
 43
0.0
 43
1.0
 77
     0
 47
0.0208333333333333
 47
0.0
 47
0.0
 47
0.0
 47
0.0
 47
0.0208333333333333
 47
0.0
 47
0.0
 47
0.0
 47
0.0
 47
1.0
 47
0.0
 47
0.0
 47
0.0
 47
0.0
 47
1.0
171
     0
 49
0.0208333333333333
 49
0.0
 49
0.0
 49
0.0
 49
0.0
 49
0.0208333333333333
 49
0.0
 49
0.0
 49
0.0
 49
0.0
 49
1.0
 49
0.0
 49
0.0
 49
0.0
 49
0.0
 49
1.0
175
     0
142
0.0208333333333333
142
0.0
142
0.0
142
0.0
142
0.0
142
0.0208333333333333
142
0.0
142
0.0
142
0.0
142
0.0
142
1.0
142
0.0
142
0.0
142
0.0
142
0.0
142
1.0
179
     0
144
0.0208333333333333
144
0.0
144
0.0
144
0.0
144
0.0
144
0.0208333333333333
144
0.0
144
0.0
144
0.0
144
0.0
144
1.0
144
0.0
144
0.0
144
0.0
144
0.0
144
1.0
147
0.0208333333333333
147
0.0
147
0.0
147
0.0
147
0.0
147
0.0208333333333333
147
0.0
147
0.0
147
0.0
147
0.0
147
1.0
147
0.0
147
0.0
147
0.0
147
0.0
147
1.0
  0
MATERIAL
  5
21
102
{ACAD_XDICTIONARY
360
22
102
}
102
{ACAD_REACTORS
330
10
102
}
330
10
100
AcDbMaterial
  1
Global
 72
     0
 43
0.0208333333333333
 43
0.0
 43
0.0
 43
0.0
 43
0.0
 43
0.0208333333333333
 43
0.0
 43
0.0
 43
0.0
 43
0.0
 43
1.0
 43
0.0
 43
0.0
 43
0.0
 43
0.0
 43
1.0
 77
     0
 47
0.0208333333333333
 47
0.0
 47
0.0
 47
0.0
 47
0.0
 47
0.0208333333333333
 47
0.0
 47
0.0
 47
0.0
 47
0.0
 47
1.0
 47
0.0
 47
0.0
 47
0.0
 47
0.0
 47
1.0
171
     0
 49
0.0208333333333333
 49
0.0
 49
0.0
 49
0.0
 49
0.0
 49
0.0208333333333333
 49
0.0
 49
0.0
 49
0.0
 49
0.0
 49
1.0
 49
0.0
 49
0.0
 49
0.0
 49
0.0
 49
1.0
175
     0
142
0.0208333333333333
142
0.0
142
0.0
142
0.0
142
0.0
142
0.0208333333333333
142
0.0
142
0.0
142
0.0
142
0.0
142
1.0
142
0.0
142
0.0
142
0.0
142
0.0
142
1.0
179
     0
144
0.0208333333333333
144
0.0
144
0.0
144
0.0
144
0.0
144
0.0208333333333333
144
0.0
144
0.0
144
0.0
144
0.0
144
1.0
144
0.0
144
0.0
144
0.0
144
0.0
144
1.0
147
0.0208333333333333
147
0.0
147
0.0
147
0.0
147
0.0
147
0.0208333333333333
147
0.0
147
0.0
147
0.0
147
0.0
147
1.0
147
0.0
147
0.0
147
0.0
147
0.0
147
1.0
  0
MLEADERSTYLE
  5
67
102
{ACAD_REACTORS
330
66
102
}
330
66
100
AcDbMLeaderStyle
179
     2
170
     2
171
     1
172
     0
 90
        2
 40
0.0
 41
0.0
173
     1
 91
-1056964608
340
5B
 92
       -2
290
     1
 42
0.09
291
     1
 43
0.36
  3
Standard
 44
0.18
300

342
55
174
     1
178
     6
175
     1
176
     0
 93
-1056964608
 45
0.18
292
     0
297
     0
 46
0.18
 94
-1056964608
 47
1.0
 49
1.0
140
1.0
293
     1
141
0.0
294
     1
177
     0
142
1.0
295
     1
296
     0
143
0.125
271
     0
272
     9
273
     9
298
     1
  0
MLINESTYLE
  5
60
102
{ACAD_REACTORS
330
5F
102
}
330
5F
100
AcDbMlineStyle
  2
STANDARD
 70
     0
  3

 62
   256
 51
90.0
 52
90.0
 71
     2
 49
0.5
 62
   256
  6
BYLAYER
 49
-0.5
 62
   256
  6
BYLAYER
  0
ACDBPLACEHOLDER
  5
F
102
{ACAD_REACTORS
330
E
102
}
330
E
  0
SCALE
  5
43
102
{ACAD_REACTORS
330
42
102
}
330
42
100
AcDbScale
 70
     0
300
1:1
140
1.0
141
1.0
290
     1
  0
SCALE
  5
44
102
{ACAD_REACTORS
330
42
102
}
330
42
100
AcDbScale
 70
     0
300
1/128" = 1'-0"
140
0.0078125
141
12.0
290
     0
  0
SCALE
  5
45
102
{ACAD_REACTORS
330
42
102
}
330
42
100
AcDbScale
 70
     0
300
1/64" = 1'-0"
140
0.015625
141
12.0
290
     0
  0
SCALE
  5
46
102
{ACAD_REACTORS
330
42
102
}
330
42
100
AcDbScale
 70
     0
300
1/32" = 1'-0"
140
0.03125
141
12.0
290
     0
  0
SCALE
  5
47
102
{ACAD_REACTORS
330
42
102
}
330
42
100
AcDbScale
 70
     0
300
1/16" = 1'-0"
140
0.0625
141
12.0
290
     0
  0
SCALE
  5
48
102
{ACAD_REACTORS
330
42
102
}
330
42
100
AcDbScale
 70
     0
300
3/32" = 1'-0"
140
0.09375
141
12.0
290
     0
  0
SCALE
  5
49
102
{ACAD_REACTORS
330
42
102
}
330
42
100
AcDbScale
 70
     0
300
1/8" = 1'-0"
140
0.125
141
12.0
290
     0
  0
SCALE
  5
4A
102
{ACAD_REACTORS
330
42
102
}
330
42
100
AcDbScale
 70
     0
300
3/16" = 1'-0"
140
0.1875
141
12.0
290
     0
  0
SCALE
  5
4B
102
{ACAD_REACTORS
330
42
102
}
330
42
100
AcDbScale
 70
     0
300
1/4" = 1'-0"
140
0.25
141
12.0
290
     0
  0
SCALE
  5
4C
102
{ACAD_REACTORS
330
42
102
}
330
42
100
AcDbScale
 70
     0
300
3/8" = 1'-0"
140
0.375
141
12.0
290
     0
  0
SCALE
  5
4D
102
{ACAD_REACTORS
330
42
102
}
330
42
100
AcDbScale
 70
     0
300
1/2" = 1'-0"
140
0.5
141
12.0
290
     0
  0
SCALE
  5
4E
102
{ACAD_REACTORS
330
42
102
}
330
42
100
AcDbScale
 70
     0
300
3/4" = 1'-0"
140
0.75
141
12.0
290
     0
  0
SCALE
  5
4F
102
{ACAD_REACTORS
330
42
102
}
330
42
100
AcDbScale
 70
     0
300
1" = 1'-0"
140
1.0
141
12.0
290
     0
  0
SCALE
  5
50
102
{ACAD_REACTORS
330
42
102
}
330
42
100
AcDbScale
 70
     0
300
1-1/2" = 1'-0"
140
1.5
141
12.0
290
     0
  0
SCALE
  5
51
102
{ACAD_REACTORS
330
42
102
}
330
42
100
AcDbScale
 70
     0
300
3" = 1'-0"
140
3.0
141
12.0
290
     0
  0
SCALE
  5
52
102
{ACAD_REACTORS
330
42
102
}
330
42
100
AcDbScale
 70
     0
300
6" = 1'-0"
140
6.0
141
12.0
290
     0
  0
SCALE
  5
53
102
{ACAD_REACTORS
330
42
102
}
330
42
100
AcDbScale
 70
     0
300
1'-0" = 1'-0"
140
12.0
141
12.0
290
     0
  0
ACDBSECTIONVIEWSTYLE
  5
69
102
{ACAD_REACTORS
330
68
102
}
330
68
100
AcDbModelDocViewStyle
 70
     0
  3
Imperial24
290
     1
300
Imperial24
 90
        0
100
AcDbSectionViewStyle
 70
     0
 71
     0
 90
       78
 71
     1
340
55
 62
   256
 40
0.24
340
0
340
0
 62
   256
 40
0.24
300
I, O, Q, S, X, Z
 40
0.48
 90
        3
 40
0.18
 90
        1
 71
     2
340
5D
 90
       25
 62
   256
340
5D
 90
       50
 62
   256
 40
0.24
 40
0.0
 40
0.24
 71
     3
340
55
 62
   256
 40
0.24
 90
        1
 40
0.75
 90
        1
300
%<\AcVar ViewType \f "%tc1">% %<\AcVar ViewSectionStartId>%-%<\AcVar ViewSectionEndId>%\PSCALE %<\AcVar ViewScale \f "%sn">%
 71
     4
 62
   256
 62
   257
300
ANSI31
 40
1.0
 90
        0
290
     0
290
     0
 90
        6
 40
0.0
 40
1.570796326794896
 40
0.2617993877991494
 40
1.308996938995747
 40
-0.2617993877991494
 40
1.832595714594046
  0
TABLESTYLE
  5
65
102
{ACAD_XDICTIONARY
360
8C
102
}
102
{ACAD_REACTORS
330
64
102
}
330
64
100
AcDbTableStyle
280
     0
  3
Standard
 70
     0
 71
     0
 40
0.06
 41
0.06
280
     0
281
     0
  7
Standard
140
0.18
170
     2
 62
     0
 63
     7
283
     0
 90
      512
 91
        0
  1

274
    -2
284
     1
 64
     0
275
    -2
285
     1
 65
     0
276
    -2
286
     1
 66
     0
277
    -2
287
     1
 67
     0
278
    -2
288
     1
 68
     0
279
    -2
289
     1
 69
     0
  7
Standard
140
0.25
170
     5
 62
     0
 63
     7
283
     0
 90
      512
 91
        0
  1

274
    -2
284
     1
 64
     0
275
    -2
285
     1
 65
     0
276
    -2
286
     1
 66
     0
277
    -2
287
     1
 67
     0
278
    -2
288
     1
 68
     0
279
    -2
289
     1
 69
     0
  7
Standard
140
0.18
170
     5
 62
     0
 63
     7
283
     0
 90
      512
 91
        0
  1

274
    -2
284
     1
 64
     0
275
    -2
285
     1
 65
     0
276
    -2
286
     1
 66
     0
277
    -2
287
     1
 67
     0
278
    -2
288
     1
 68
     0
279
    -2
289
     1
 69
     0
  0
VISUALSTYLE
  5
2F
102
{ACAD_REACTORS
330
29
102
}
330
29
100
AcDbVisualStyle
  2
2dWireframe
 70
     4
177
     3
291
     0
 70
    58
 90
        0
176
     1
 90
        2
176
     1
 90
        0
176
     1
 90
        0
176
     1
 40
0.6
176
     1
 40
30.0
176
     1
 62
     7
420
 16777215
176
     1
 90
        1
176
     1
 90
        4
176
     1
 62
     7
176
     1
 62
   257
176
     1
 90
        1
176
     1
 90
        1
176
     1
 40
1.0
176
     1
 90
        0
176
     1
 62
   257
176
     1
 40
1.0
176
     1
 90
        1
176
     1
 90
        6
176
     1
 90
        2
176
     1
 62
     7
176
     1
 90
        5
176
     1
 90
        0
176
     1
 90
        0
176
     1
290
     0
176
     1
 90
        1
176
     1
 40
0.0
176
     1
 90
        0
176
     1
290
     1
176
     1
290
     1
176
     1
290
     0
176
     1
290
     0
176
     1
290
     0
176
     1
290
     0
176
     1
290
     0
176
     1
290
     0
176
     1
290
     0
176
     1
 90
       50
176
     1
 40
0.0
176
     1
 40
1.0
176
     1
 90
        0
176
     1
 62
    18
420
        0
176
     1
 90
       50
176
     1
 90
        3
176
     1
 62
     5
420
      255
176
     1
290
     0
176
     1
 90
       50
176
     1
 90
       50
176
     1
 90
       50
176
     1
290
     0
176
     1
 90
       50
176
     1
 62
   256
176
     0
 40
1.0
176
     0
 90
        2
176
     1
  1
strokes_ogs.tif
176
     1
290
     0
176
     1
 40
1.0
176
     1
 40
1.0
176
     1
  0
VISUALSTYLE
  5
2E
102
{ACAD_REACTORS
330
29
102
}
330
29
100
AcDbVisualStyle
  2
Basic
 70
     7
177
     3
291
     1
 70
    58
 90
        1
176
     1
 90
        0
176
     1
 90
        1
176
     1
 90
        0
176
     1
 40
0.6
176
     1
 40
30.0
176
     1
 62
     7
420
 16777215
176
     1
 90
        0
176
     1
 90
        4
176
     1
 62
     7
176
     1
 62
   257
176
     1
 90
        1
176
     1
 90
        1
176
     1
 40
1.0
176
     1
 90
        8
176
     1
 62
     7
176
     1
 40
1.0
176
     1
 90
        1
176
     1
 90
        6
176
     1
 90
        2
176
     1
 62
     7
176
     1
 90
        5
176
     1
 90
        0
176
     1
 90
        0
176
     1
290
     0
176
     1
 90
        1
176
     1
 40
0.0
176
     1
 90
        0
176
     1
290
     0
176
     1
290
     1
176
     1
290
     1
176
     1
290
     0
176
     1
290
     0
176
     1
290
     0
176
     1
290
     0
176
     1
290
     0
176
     1
290
     0
176
     1
 90
       50
176
     1
 40
0.0
176
     1
 40
1.0
176
     1
 90
        0
176
     1
 62
    18
420
        0
176
     1
 90
       50
176
     1
 90
        3
176
     1
 62
     5
420
      255
176
     1
290
     0
176
     1
 90
       50
176
     1
 90
       50
176
     1
 90
       50
176
     1
290
     0
176
     1
 90
       50
176
     1
 62
   256
176
     0
 40
1.0
176
     0
 90
        2
176
     1
  1
strokes_ogs.tif
176
     1
290
     0
176
     1
 40
1.0
176
     1
 40
1.0
176
     1
  0
VISUALSTYLE
  5
35
102
{ACAD_REACTORS
330
29
102
}
330
29
100
AcDbVisualStyle
  2
Brighten
 70
    12
177
     3
291
     1
 70
    58
 90
        2
176
     1
 90
        2
176
     1
 90
        0
176
     1
 90
        0
176
     1
 40
0.6
176
     1
 40
30.0
176
     1
 62
     7
420
 16777215
176
     1
 90
        1
176
     1
 90
        4
176
     1
 62
     7
176
     1
 62
   257
176
     1
 90
        1
176
     1
 90
        1
176
     1
 40
1.0
176
     1
 90
        8
176
     1
 62
     7
176
     1
 40
1.0
176
     1
 90
        1
176
     1
 90
        6
176
     1
 90
        2
176
     1
 62
     7
176
     1
 90
        5
176
     1
 90
        0
176
     1
 90
        0
176
     1
290
     0
176
     1
 90
        1
176
     1
 40
50.0
176
     1
 90
        0
176
     1
290
     0
176
     1
290
     1
176
     1
290
     1
176
     1
290
     0
176
     1
290
     0
176
     1
290
     0
176
     1
290
     0
176
     1
290
     0
176
     1
290
     0
176
     1
 90
       50
176
     1
 40
0.0
176
     1
 40
1.0
176
     1
 90
        0
176
     1
 62
    18
420
        0
176
     1
 90
       50
176
     1
 90
        3
176
     1
 62
     5
420
      255
176
     1
290
     0
176
     1
 90
       50
176
     1
 90
       50
176
     1
 90
       50
176
     1
290
     0
176
     1
 90
       50
176
     1
 62
   256
176
     0
 40
1.0
176
     0
 90
        2
176
     1
  1
strokes_ogs.tif
176
     1
290
     0
176
     1
 40
1.0
176
     1
 40
1.0
176
     1
  0
VISUALSTYLE
  5
39
102
{ACAD_REACTORS
330
29
102
}
330
29
100
AcDbVisualStyle
  2
ColorChange
 70
    16
177
     3
291
     1
 70
    58
 90
        2
176
     1
 90
        2
176
     1
 90
        3
176
     1
 90
        0
176
     1
 40
0.6
176
     1
 40
30.0
176
     1
 62
     8
420
  8421504
176
     1
 90
        1
176
     1
 90
        4
176
     1
 62
     7
176
     1
 62
   257
176
     1
 90
        1
176
     1
 90
        1
176
     1
 40
1.0
176
     1
 90
        8
176
     1
 62
     8
420
  8421504
176
     1
 40
1.0
176
     1
 90
        1
176
     1
 90
        6
176
     1
 90
        2
176
     1
 62
     7
176
     1
 90
        5
176
     1
 90
        0
176
     1
 90
        0
176
     1
290
     0
176
     1
 90
        1
176
     1
 40
0.0
176
     1
 90
        0
176
     1
290
     0
176
     1
290
     1
176
     1
290
     1
176
     1
290
     0
176
     1
290
     0
176
     1
290
     0
176
     1
290
     0
176
     1
290
     0
176
     1
290
     0
176
     1
 90
       50
176
     1
 40
0.0
176
     1
 40
1.0
176
     1
 90
        0
176
     1
 62
    18
420
        0
176
     1
 90
       50
176
     1
 90
        3
176
     1
 62
     5
420
      255
176
     1
290
     0
176
     1
 90
       50
176
     1
 90
       50
176
     1
 90
       50
176
     1
290
     0
176
     1
 90
       50
176
     1
 62
   256
176
     0
 40
1.0
176
     0
 90
        2
176
     1
  1
strokes_ogs.tif
176
     1
290
     0
176
     1
 40
1.0
176
     1
 40
1.0
176
     1
  0
VISUALSTYLE
  5
32
102
{ACAD_REACTORS
330
29
102
}
330
29
100
AcDbVisualStyle
  2
Conceptual
 70
     9
177
     3
291
     0
 70
    58
 90
        3
176
     1
 90
        2
176
     1
 90
        0
176
     1
 90
        0
176
     1
 40
0.6
176
     1
 40
30.0
176
     1
 62
     7
420
 16777215
176
     1
 90
        2
176
     1
 90
        2
176
     1
 62
     7
176
     1
 62
   257
176
     1
 90
        1
176
     1
 90
        1
176
     1
 40
179.0
176
     1
 90
        8
176
     1
 62
     7
176
     1
 40
1.0
176
     1
 90
        1
176
     1
 90
        6
176
     1
 90
        2
176
     1
 62
     7
176
     1
 90
        3
176
     1
 90
        0
176
     1
 90
        0
176
     1
290
     0
176
     1
 90
        1
176
     1
 40
0.0
176
     1
 90
        0
176
     1
290
     0
176
     1
290
     1
176
     1
290
     1
176
     1
290
     0
176
     1
290
     0
176
     1
290
     0
176
     1
290
     0
176
     1
290
     0
176
     1
290
     0
176
     1
 90
       50
176
     1
 40
0.0
176
     1
 40
1.0
176
     1
 90
        0
176
     1
 62
    18
420
        0
176
     1
 90
       50
176
     1
 90
        3
176
     1
 62
     5
420
      255
176
     1
290
     0
176
     1
 90
       50
176
     1
 90
       50
176
     1
 90
       50
176
     1
290
     0
176
     1
 90
       50
176
     1
 62
   256
176
     0
 40
1.0
176
     0
 90
        2
176
     1
  1
strokes_ogs.tif
176
     1
290
     0
176
     1
 40
1.0
176
     1
 40
1.0
176
     1
  0
VISUALSTYLE
  5
34
102
{ACAD_REACTORS
330
29
102
}
330
29
100
AcDbVisualStyle
  2
Dim
 70
    11
177
     3
291
     1
 70
    58
 90
        2
176
     1
 90
        2
176
     1
 90
        0
176
     1
 90
        0
176
     1
 40
0.6
176
     1
 40
30.0
176
     1
 62
     7
420
 16777215
176
     1
 90
        1
176
     1
 90
        4
176
     1
 62
     7
176
     1
 62
   257
176
     1
 90
        1
176
     1
 90
        1
176
     1
 40
1.0
176
     1
 90
        8
176
     1
 62
     7
176
     1
 40
1.0
176
     1
 90
        1
176
     1
 90
        6
176
     1
 90
        2
176
     1
 62
     7
176
     1
 90
        5
176
     1
 90
        0
176
     1
 90
        0
176
     1
290
     0
176
     1
 90
        1
176
     1
 40
-50.0
176
     1
 90
        0
176
     1
290
     0
176
     1
290
     1
176
     1
290
     1
176
     1
290
     0
176
     1
290
     0
176
     1
290
     0
176
     1
290
     0
176
     1
290
     0
176
     1
290
     0
176
     1
 90
       50
176
     1
 40
0.0
176
     1
 40
1.0
176
     1
 90
        0
176
     1
 62
    18
420
        0
176
     1
 90
       50
176
     1
 90
        3
176
     1
 62
     5
420
      255
176
     1
290
     0
176
     1
 90
       50
176
     1
 90
       50
176
     1
 90
       50
176
     1
290
     0
176
     1
 90
       50
176
     1
 62
   256
176
     0
 40
1.0
176
     0
 90
        2
176
     1
  1
strokes_ogs.tif
176
     1
290
     0
176
     1
 40
1.0
176
     1
 40
1.0
176
     1
  0
VISUALSTYLE
  5
41
102
{ACAD_REACTORS
330
29
102
}
330
29
100
AcDbVisualStyle
  2
EdgeColorOff
 70
    22
177
     3
291
     1
 70
    58
 90
        2
176
     0
 90
        2
176
     0
 90
        0
176
     0
 90
        0
176
     0
 40
0.6
176
     0
 40
30.0
176
     0
 62
     7
420
 16777215
176
     0
 90
        1
176
     0
 90
        4
176
     0
 62
     7
176
     0
 62
   257
176
     0
 90
        1
176
     0
 90
        1
176
     0
 40
1.0
176
     0
 90
        8
176
     2
 62
     7
176
     0
 40
1.0
176
     0
 90
        1
176
     0
 90
        6
176
     0
 90
        2
176
     0
 62
     7
176
     0
 90
        5
176
     0
 90
        0
176
     0
 90
        0
176
     0
290
     0
176
     0
 90
        1
176
     0
 40
0.0
176
     0
 90
        0
176
     0
290
     0
176
     0
290
     1
176
     0
290
     1
176
     0
290
     0
176
     0
290
     0
176
     0
290
     0
176
     0
290
     0
176
     0
290
     0
176
     0
290
     0
176
     0
 90
       50
176
     0
 40
0.0
176
     0
 40
1.0
176
     0
 90
        0
176
     0
 62
    18
420
        0
176
     0
 90
       50
176
     0
 90
        3
176
     0
 62
     5
420
      255
176
     0
290
     0
176
     0
 90
       50
176
     0
 90
       50
176
     0
 90
       50
176
     0
290
     0
176
     0
 90
       50
176
     0
 62
   256
176
     0
 40
1.0
176
     0
 90
        2
176
     0
  1
strokes_ogs.tif
176
     0
290
     0
176
     0
 40
1.0
176
     0
 40
1.0
176
     0
  0
VISUALSTYLE
  5
38
102
{ACAD_REACTORS
330
29
102
}
330
29
100
AcDbVisualStyle
  2
Facepattern
 70
    15
177
     3
291
     1
 70
    58
 90
        2
176
     1
 90
        2
176
     1
 90
        0
176
     1
 90
        0
176
     1
 40
0.6
176
     1
 40
30.0
176
     1
 62
     7
420
 16777215
176
     1
 90
        1
176
     1
 90
        4
176
     1
 62
     7
176
     1
 62
   257
176
     1
 90
        1
176
     1
 90
        1
176
     1
 40
1.0
176
     1
 90
        8
176
     1
 62
     7
176
     1
 40
1.0
176
     1
 90
        1
176
     1
 90
        6
176
     1
 90
        2
176
     1
 62
     7
176
     1
 90
        5
176
     1
 90
        0
176
     1
 90
        0
176
     1
290
     0
176
     1
 90
        1
176
     1
 40
0.0
176
     1
 90
        0
176
     1
290
     0
176
     1
290
     1
176
     1
290
     1
176
     1
290
     0
176
     1
290
     0
176
     1
290
     0
176
     1
290
     0
176
     1
290
     0
176
     1
290
     0
176
     1
 90
       50
176
     1
 40
0.0
176
     1
 40
1.0
176
     1
 90
        0
176
     1
 62
    18
420
        0
176
     1
 90
       50
176
     1
 90
        3
176
     1
 62
     5
420
      255
176
     1
290
     0
176
     1
 90
       50
176
     1
 90
       50
176
     1
 90
       50
176
     1
290
     0
176
     1
 90
       50
176
     1
 62
   256
176
     0
 40
1.0
176
     0
 90
        2
176
     1
  1
strokes_ogs.tif
176
     1
290
     0
176
     1
 40
1.0
176
     1
 40
1.0
176
     1
  0
VISUALSTYLE
  5
2A
102
{ACAD_REACTORS
330
29
102
}
330
29
100
AcDbVisualStyle
  2
Flat
 70
     0
177
     3
291
     1
 70
    58
 90
        2
176
     1
 90
        1
176
     1
 90
        1
176
     1
 90
        2
176
     1
 40
0.6
176
     1
 40
30.0
176
     1
 62
     7
420
 16777215
176
     1
 90
        0
176
     1
 90
        0
176
     1
 62
     7
176
     1
 62
   257
176
     1
 90
        1
176
     1
 90
        1
176
     1
 40
1.0
176
     1
 90
        8
176
     1
 62
     7
176
     1
 40
1.0
176
     1
 90
        1
176
     1
 90
        6
176
     1
 90
        2
176
     1
 62
     7
176
     1
 90
        5
176
     1
 90
        0
176
     1
 90
        0
176
     1
290
     0
176
     1
 90
       13
176
     1
 40
0.0
176
     1
 90
        0
176
     1
290
     0
176
     1
290
     1
176
     1
290
     1
176
     1
290
     0
176
     1
290
     0
176
     1
290
     0
176
     1
290
     0
176
     1
290
     0
176
     1
290
     0
176
     1
 90
       50
176
     1
 40
0.0
176
     1
 40
1.0
176
     1
 90
        0
176
     1
 62
    18
420
        0
176
     1
 90
       50
176
     1
 90
        3
176
     1
 62
     5
420
      255
176
     1
290
     0
176
     1
 90
       50
176
     1
 90
       50
176
     1
 90
       50
176
     1
290
     0
176
     1
 90
       50
176
     1
 62
   256
176
     0
 40
1.0
176
     0
 90
        2
176
     1
  1
strokes_ogs.tif
176
     1
290
     0
176
     1
 40
1.0
176
     1
 40
1.0
176
     1
  0
VISUALSTYLE
  5
2B
102
{ACAD_REACTORS
330
29
102
}
330
29
100
AcDbVisualStyle
  2
FlatWithEdges
 70
     1
177
     3
291
     1
 70
    58
 90
        2
176
     1
 90
        1
176
     1
 90
        1
176
     1
 90
        2
176
     1
 40
0.6
176
     1
 40
30.0
176
     1
 62
     7
420
 16777215
176
     1
 90
        1
176
     1
 90
        0
176
     1
 62
     7
176
     1
 62
   257
176
     1
 90
        1
176
     1
 90
        1
176
     1
 40
1.0
176
     1
 90
        0
176
     1
 62
   257
176
     1
 40
1.0
176
     1
 90
        1
176
     1
 90
        6
176
     1
 90
        2
176
     1
 62
     7
176
     1
 90
        5
176
     1
 90
        0
176
     1
 90
        0
176
     1
290
     0
176
     1
 90
       13
176
     1
 40
0.0
176
     1
 90
        0
176
     1
290
     0
176
     1
290
     1
176
     1
290
     1
176
     1
290
     0
176
     1
290
     0
176
     1
290
     0
176
     1
290
     0
176
     1
290
     0
176
     1
290
     0
176
     1
 90
       50
176
     1
 40
0.0
176
     1
 40
1.0
176
     1
 90
        0
176
     1
 62
    18
420
        0
176
     1
 90
       50
176
     1
 90
        3
176
     1
 62
     5
420
      255
176
     1
290
     0
176
     1
 90
       50
176
     1
 90
       50
176
     1
 90
       50
176
     1
290
     0
176
     1
 90
       50
176
     1
 62
   256
176
     0
 40
1.0
176
     0
 90
        2
176
     1
  1
strokes_ogs.tif
176
     1
290
     0
176
     1
 40
1.0
176
     1
 40
1.0
176
     1
  0
VISUALSTYLE
  5
2C
102
{ACAD_REACTORS
330
29
102
}
330
29
100
AcDbVisualStyle
  2
Gouraud
 70
     2
177
     3
291
     1
 70
    58
 90
        2
176
     1
 90
        2
176
     1
 90
        1
176
     1
 90
        2
176
     1
 40
0.6
176
     1
 40
30.0
176
     1
 62
     7
420
 16777215
176
     1
 90
        0
176
     1
 90
        0
176
     1
 62
     7
176
     1
 62
   257
176
     1
 90
        1
176
     1
 90
        1
176
     1
 40
1.0
176
     1
 90
        0
176
     1
 62
     7
176
     1
 40
1.0
176
     1
 90
        1
176
     1
 90
        6
176
     1
 90
        2
176
     1
 62
     7
176
     1
 90
        5
176
     1
 90
        0
176
     1
 90
        0
176
     1
290
     0
176
     1
 90
       13
176
     1
 40
0.0
176
     1
 90
        0
176
     1
290
     0
176
     1
290
     1
176
     1
290
     1
176
     1
290
     0
176
     1
290
     0
176
     1
290
     0
176
     1
290
     0
176
     1
290
     0
176
     1
290
     0
176
     1
 90
       50
176
     1
 40
0.0
176
     1
 40
1.0
176
     1
 90
        0
176
     1
 62
    18
420
        0
176
     1
 90
       50
176
     1
 90
        3
176
     1
 62
     5
420
      255
176
     1
290
     0
176
     1
 90
       50
176
     1
 90
       50
176
     1
 90
       50
176
     1
290
     0
176
     1
 90
       50
176
     1
 62
   256
176
     0
 40
1.0
176
     0
 90
        2
176
     1
  1
strokes_ogs.tif
176
     1
290
     0
176
     1
 40
1.0
176
     1
 40
1.0
176
     1
  0
VISUALSTYLE
  5
2D
102
{ACAD_REACTORS
330
29
102
}
330
29
100
AcDbVisualStyle
  2
GouraudWithEdges
 70
     3
177
     3
291
     1
 70
    58
 90
        2
176
     1
 90
        2
176
     1
 90
        1
176
     1
 90
        2
176
     1
 40
0.6
176
     1
 40
30.0
176
     1
 62
     7
420
 16777215
176
     1
 90
        1
176
     1
 90
        0
176
     1
 62
     7
176
     1
 62
   257
176
     1
 90
        1
176
     1
 90
        1
176
     1
 40
1.0
176
     1
 90
        0
176
     1
 62
   257
176
     1
 40
1.0
176
     1
 90
        1
176
     1
 90
        6
176
     1
 90
        2
176
     1
 62
     7
176
     1
 90
        5
176
     1
 90
        0
176
     1
 90
        0
176
     1
290
     0
176
     1
 90
       13
176
     1
 40
0.0
176
     1
 90
        0
176
     1
290
     0
176
     1
290
     1
176
     1
290
     1
176
     1
290
     0
176
     1
290
     0
176
     1
290
     0
176
     1
290
     0
176
     1
290
     0
176
     1
290
     0
176
     1
 90
       50
176
     1
 40
0.0
176
     1
 40
1.0
176
     1
 90
        0
176
     1
 62
    18
420
        0
176
     1
 90
       50
176
     1
 90
        3
176
     1
 62
     5
420
      255
176
     1
290
     0
176
     1
 90
       50
176
     1
 90
       50
176
     1
 90
       50
176
     1
290
     0
176
     1
 90
       50
176
     1
 62
   256
176
     0
 40
1.0
176
     0
 90
        2
176
     1
  1
strokes_ogs.tif
176
     1
290
     0
176
     1
 40
1.0
176
     1
 40
1.0
176
     1
  0
VISUALSTYLE
  5
31
102
{ACAD_REACTORS
330
29
102
}
330
29
100
AcDbVisualStyle
  2
Hidden
 70
     6
177
     3
291
     0
 70
    58
 90
        1
176
     1
 90
        2
176
     1
 90
        2
176
     1
 90
        0
176
     1
 40
0.6
176
     1
 40
30.0
176
     1
 62
     7
420
 16777215
176
     1
 90
        2
176
     1
 90
        2
176
     1
 62
     7
176
     1
 62
   257
176
     1
 90
        2
176
     1
 90
        1
176
     1
 40
40.0
176
     1
 90
        0
176
     1
 62
   257
176
     1
 40
1.0
176
     1
 90
        1
176
     1
 90
        6
176
     1
 90
        2
176
     1
 62
     7
176
     1
 90
        3
176
     1
 90
        0
176
     1
 90
        0
176
     1
290
     0
176
     1
 90
        1
176
     1
 40
0.0
176
     1
 90
        0
176
     1
290
     0
176
     1
290
     1
176
     1
290
     1
176
     1
290
     0
176
     1
290
     0
176
     1
290
     0
176
     1
290
     0
176
     1
290
     0
176
     1
290
     0
176
     1
 90
       50
176
     1
 40
0.0
176
     1
 40
1.0
176
     1
 90
        0
176
     1
 62
    18
420
        0
176
     1
 90
       50
176
     1
 90
        3
176
     1
 62
     5
420
      255
176
     1
290
     0
176
     1
 90
       50
176
     1
 90
       50
176
     1
 90
       50
176
     1
290
     0
176
     1
 90
       50
176
     1
 62
   256
176
     0
 40
1.0
176
     0
 90
        2
176
     1
  1
strokes_ogs.tif
176
     1
290
     0
176
     1
 40
1.0
176
     1
 40
1.0
176
     1
  0
VISUALSTYLE
  5
3F
102
{ACAD_REACTORS
330
29
102
}
330
29
100
AcDbVisualStyle
  2
JitterOff
 70
    20
177
     3
291
     1
 70
    58
 90
        2
176
     0
 90
        2
176
     0
 90
        0
176
     0
 90
        0
176
     0
 40
0.6
176
     0
 40
30.0
176
     0
 62
     7
420
 16777215
176
     0
 90
        1
176
     0
 90
        4
176
     0
 62
     7
176
     0
 62
   257
176
     0
 90
        1
176
     0
 90
        1
176
     0
 40
1.0
176
     0
 90
       10
176
     2
 62
     7
176
     0
 40
1.0
176
     0
 90
        1
176
     0
 90
        6
176
     0
 90
        2
176
     0
 62
     7
176
     0
 90
        5
176
     0
 90
        0
176
     0
 90
        0
176
     0
290
     0
176
     0
 90
        1
176
     0
 40
0.0
176
     0
 90
        0
176
     0
290
     0
176
     0
290
     1
176
     0
290
     1
176
     0
290
     0
176
     0
290
     0
176
     0
290
     0
176
     0
290
     0
176
     0
290
     0
176
     0
290
     0
176
     0
 90
       50
176
     0
 40
0.0
176
     0
 40
1.0
176
     0
 90
        0
176
     0
 62
    18
420
        0
176
     0
 90
       50
176
     0
 90
        3
176
     0
 62
     5
420
      255
176
     0
290
     0
176
     0
 90
       50
176
     0
 90
       50
176
     0
 90
       50
176
     0
290
     0
176
     0
 90
       50
176
     0
 62
   256
176
     0
 40
1.0
176
     0
 90
        2
176
     0
  1
strokes_ogs.tif
176
     0
290
     0
176
     0
 40
1.0
176
     0
 40
1.0
176
     0
  0
VISUALSTYLE
  5
37
102
{ACAD_REACTORS
330
29
102
}
330
29
100
AcDbVisualStyle
  2
Linepattern
 70
    14
177
     3
291
     1
 70
    58
 90
        2
176
     1
 90
        2
176
     1
 90
        0
176
     1
 90
        0
176
     1
 40
0.6
176
     1
 40
30.0
176
     1
 62
     7
420
 16777215
176
     1
 90
        1
176
     1
 90
        4
176
     1
 62
     7
176
     1
 62
   257
176
     1
 90
        7
176
     1
 90
        7
176
     1
 40
1.0
176
     1
 90
        8
176
     1
 62
     7
176
     1
 40
1.0
176
     1
 90
        1
176
     1
 90
        6
176
     1
 90
        2
176
     1
 62
     7
176
     1
 90
        5
176
     1
 90
        0
176
     1
 90
        0
176
     1
290
     0
176
     1
 90
        1
176
     1
 40
0.0
176
     1
 90
        0
176
     1
290
     0
176
     1
290
     1
176
     1
290
     1
176
     1
290
     0
176
     1
290
     0
176
     1
290
     0
176
     1
290
     0
176
     1
290
     0
176
     1
290
     0
176
     1
 90
       50
176
     1
 40
0.0
176
     1
 40
1.0
176
     1
 90
        0
176
     1
 62
    18
420
        0
176
     1
 90
       50
176
     1
 90
        3
176
     1
 62
     5
420
      255
176
     1
290
     0
176
     1
 90
       50
176
     1
 90
       50
176
     1
 90
       50
176
     1
290
     0
176
     1
 90
       50
176
     1
 62
   256
176
     0
 40
1.0
176
     0
 90
        2
176
     1
  1
strokes_ogs.tif
176
     1
290
     0
176
     1
 40
1.0
176
     1
 40
1.0
176
     1
  0
VISUALSTYLE
  5
40
102
{ACAD_REACTORS
330
29
102
}
330
29
100
AcDbVisualStyle
  2
OverhangOff
 70
    21
177
     3
291
     1
 70
    58
 90
        2
176
     0
 90
        2
176
     0
 90
        0
176
     0
 90
        0
176
     0
 40
0.6
176
     0
 40
30.0
176
     0
 62
     7
420
 16777215
176
     0
 90
        1
176
     0
 90
        4
176
     0
 62
     7
176
     0
 62
   257
176
     0
 90
        1
176
     0
 90
        1
176
     0
 40
1.0
176
     0
 90
        9
176
     2
 62
     7
176
     0
 40
1.0
176
     0
 90
        1
176
     0
 90
        6
176
     0
 90
        2
176
     0
 62
     7
176
     0
 90
        5
176
     0
 90
        0
176
     0
 90
        0
176
     0
290
     0
176
     0
 90
        1
176
     0
 40
0.0
176
     0
 90
        0
176
     0
290
     0
176
     0
290
     1
176
     0
290
     1
176
     0
290
     0
176
     0
290
     0
176
     0
290
     0
176
     0
290
     0
176
     0
290
     0
176
     0
290
     0
176
     0
 90
       50
176
     0
 40
0.0
176
     0
 40
1.0
176
     0
 90
        0
176
     0
 62
    18
420
        0
176
     0
 90
       50
176
     0
 90
        3
176
     0
 62
     5
420
      255
176
     0
290
     0
176
     0
 90
       50
176
     0
 90
       50
176
     0
 90
       50
176
     0
290
     0
176
     0
 90
       50
176
     0
 62
   256
176
     0
 40
1.0
176
     0
 90
        2
176
     0
  1
strokes_ogs.tif
176
     0
290
     0
176
     0
 40
1.0
176
     0
 40
1.0
176
     0
  0
VISUALSTYLE
  5
33
102
{ACAD_REACTORS
330
29
102
}
330
29
100
AcDbVisualStyle
  2
Realistic
 70
     8
177
     3
291
     0
 70
    58
 90
        2
176
     1
 90
        3
176
     1
 90
        0
176
     1
 90
        2
176
     1
 40
0.6
176
     1
 40
30.0
176
     1
 62
     7
420
 16777215
176
     1
 90
        0
176
     1
 90
        0
176
     1
 62
     7
176
     1
 62
   257
176
     1
 90
        1
176
     1
 90
        1
176
     1
 40
1.0
176
     1
 90
        8
176
     1
 62
   257
176
     1
 40
1.0
176
     1
 90
        1
176
     1
 90
        6
176
     1
 90
        2
176
     1
 62
     7
176
     1
 90
        3
176
     1
 90
        0
176
     1
 90
        0
176
     1
290
     0
176
     1
 90
       13
176
     1
 40
0.0
176
     1
 90
        0
176
     1
290
     0
176
     1
290
     1
176
     1
290
     1
176
     1
290
     0
176
     1
290
     0
176
     1
290
     0
176
     1
290
     0
176
     1
290
     0
176
     1
290
     0
176
     1
 90
       50
176
     1
 40
0.0
176
     1
 40
1.0
176
     1
 90
        0
176
     1
 62
    18
420
        0
176
     1
 90
       50
176
     1
 90
        3
176
     1
 62
     5
420
      255
176
     1
290
     0
176
     1
 90
       50
176
     1
 90
       50
176
     1
 90
       50
176
     1
290
     0
176
     1
 90
       50
176
     1
 62
   256
176
     0
 40
1.0
176
     0
 90
        2
176
     1
  1
strokes_ogs.tif
176
     1
290
     0
176
     1
 40
1.0
176
     1
 40
1.0
176
     1
  0
VISUALSTYLE
  5
3E
102
{ACAD_REACTORS
330
29
102
}
330
29
100
AcDbVisualStyle
  2
Shaded
 70
    27
177
     3
291
     0
 70
    58
 90
        2
176
     1
 90
        2
176
     1
 90
        1
176
     1
 90
        2
176
     1
 40
0.6
176
     1
 40
30.0
176
     1
 62
     7
420
 16777215
176
     1
 90
        0
176
     1
 90
        4
176
     1
 62
     7
176
     1
 62
   257
176
     1
 90
        1
176
     1
 90
        1
176
     1
 40
1.0
176
     1
 90
        8
176
     1
 62
   257
176
     1
 40
1.0
176
     1
 90
        1
176
     1
 90
        6
176
     1
 90
        2
176
     1
 62
     8
420
  7895160
176
     1
 90
        3
176
     1
 90
        0
176
     1
 90
        0
176
     1
290
     0
176
     1
 90
        5
176
     1
 40
0.0
176
     1
 90
        0
176
     1
290
     0
176
     1
290
     1
176
     1
290
     1
176
     1
290
     0
176
     1
290
     0
176
     1
290
     0
176
     1
290
     0
176
     1
290
     0
176
     1
290
     0
176
     1
 90
       50
176
     1
 40
0.0
176
     1
 40
1.0
176
     1
 90
        0
176
     1
 62
    18
420
        0
176
     1
 90
       50
176
     1
 90
        3
176
     1
 62
     5
420
      255
176
     1
290
     0
176
     1
 90
       50
176
     1
 90
       50
176
     1
 90
       50
176
     1
290
     0
176
     1
 90
       50
176
     1
 62
   256
176
     0
 40
1.0
176
     0
 90
        2
176
     1
  1
strokes_ogs.tif
176
     1
290
     0
176
     1
 40
1.0
176
     1
 40
1.0
176
     1
  0
VISUALSTYLE
  5
3D
102
{ACAD_REACTORS
330
29
102
}
330
29
100
AcDbVisualStyle
  2
Shaded with edges
 70
    26
177
     3
291
     0
 70
    58
 90
        2
176
     1
 90
        2
176
     1
 90
        1
176
     1
 90
        2
176
     1
 40
0.6
176
     1
 40
30.0
176
     1
 62
     7
420
 16777215
176
     1
 90
        1
176
     1
 90
        2
176
     1
 62
     7
176
     1
 62
   257
176
     1
 90
        2
176
     1
 90
        1
176
     1
 40
1.0
176
     1
 90
        8
176
     1
 62
   257
176
     1
 40
1.0
176
     1
 90
        1
176
     1
 90
        6
176
     1
 90
        2
176
     1
 62
     7
176
     1
 90
        3
176
     1
 90
        0
176
     1
 90
        0
176
     1
290
     0
176
     1
 90
        5
176
     1
 40
0.0
176
     1
 90
        0
176
     1
290
     0
176
     1
290
     1
176
     1
290
     1
176
     1
290
     0
176
     1
290
     0
176
     1
290
     0
176
     1
290
     0
176
     1
290
     0
176
     1
290
     0
176
     1
 90
       50
176
     1
 40
0.0
176
     1
 40
1.0
176
     1
 90
        0
176
     1
 62
    18
420
        0
176
     1
 90
       50
176
     1
 90
        3
176
     1
 62
     5
420
      255
176
     1
290
     0
176
     1
 90
       50
176
     1
 90
       50
176
     1
 90
       50
176
     1
290
     0
176
     1
 90
       50
176
     1
 62
   256
176
     0
 40
1.0
176
     0
 90
        2
176
     1
  1
strokes_ogs.tif
176
     1
290
     0
176
     1
 40
1.0
176
     1
 40
1.0
176
     1
  0
VISUALSTYLE
  5
3A
102
{ACAD_REACTORS
330
29
102
}
330
29
100
AcDbVisualStyle
  2
Shades of Gray
 70
    23
177
     3
291
     0
 70
    58
 90
        2
176
     1
 90
        2
176
     1
 90
        3
176
     1
 90
        0
176
     1
 40
0.6
176
     1
 40
30.0
176
     1
 62
     7
420
 16777215
176
     1
 90
        2
176
     1
 90
        2
176
     1
 62
     7
176
     1
 62
     7
176
     1
 90
        1
176
     1
 90
        1
176
     1
 40
40.0
176
     1
 90
        8
176
     1
 62
     7
176
     1
 40
1.0
176
     1
 90
        1
176
     1
 90
        6
176
     1
 90
        2
176
     1
 62
     7
176
     1
 90
        3
176
     1
 90
        0
176
     1
 90
        0
176
     1
290
     0
176
     1
 90
        1
176
     1
 40
0.0
176
     1
 90
        0
176
     1
290
     0
176
     1
290
     1
176
     1
290
     1
176
     1
290
     0
176
     1
290
     0
176
     1
290
     0
176
     1
290
     0
176
     1
290
     0
176
     1
290
     0
176
     1
 90
       50
176
     1
 40
0.0
176
     1
 40
1.0
176
     1
 90
        0
176
     1
 62
    18
420
        0
176
     1
 90
       50
176
     1
 90
        3
176
     1
 62
     5
420
      255
176
     1
290
     0
176
     1
 90
       50
176
     1
 90
       50
176
     1
 90
       50
176
     1
290
     0
176
     1
 90
       50
176
     1
 62
   256
176
     0
 40
1.0
176
     0
 90
        2
176
     1
  1
strokes_ogs.tif
176
     1
290
     0
176
     1
 40
1.0
176
     1
 40
1.0
176
     1
  0
VISUALSTYLE
  5
3B
102
{ACAD_REACTORS
330
29
102
}
330
29
100
AcDbVisualStyle
  2
Sketchy
 70
    24
177
     3
291
     0
 70
    58
 90
        1
176
     1
 90
        2
176
     1
 90
        2
176
     1
 90
        0
176
     1
 40
0.6
176
     1
 40
30.0
176
     1
 62
     7
420
 16777215
176
     1
 90
        2
176
     1
 90
        2
176
     1
 62
     7
176
     1
 62
     7
176
     1
 90
        1
176
     1
 90
        1
176
     1
 40
40.0
176
     1
 90
       11
176
     1
 62
     7
176
     1
 40
1.0
176
     1
 90
        1
176
     1
 90
        6
176
     1
 90
        2
176
     1
 62
     7
176
     1
 90
        6
176
     1
 90
        0
176
     1
 90
        0
176
     1
290
     0
176
     1
 90
        1
176
     1
 40
0.0
176
     1
 90
        0
176
     1
290
     0
176
     1
290
     1
176
     1
290
     1
176
     1
290
     0
176
     1
290
     0
176
     1
290
     0
176
     1
290
     0
176
     1
290
     0
176
     1
290
     0
176
     1
 90
       50
176
     1
 40
0.0
176
     1
 40
1.0
176
     1
 90
        0
176
     1
 62
    18
420
        0
176
     1
 90
       50
176
     1
 90
        3
176
     1
 62
     5
420
      255
176
     1
290
     0
176
     1
 90
       50
176
     1
 90
       50
176
     1
 90
       50
176
     1
290
     0
176
     1
 90
       50
176
     1
 62
   256
176
     0
 40
1.0
176
     0
 90
        2
176
     1
  1
strokes_ogs.tif
176
     1
290
     0
176
     1
 40
1.0
176
     1
 40
1.0
176
     1
  0
VISUALSTYLE
  5
36
102
{ACAD_REACTORS
330
29
102
}
330
29
100
AcDbVisualStyle
  2
Thicken
 70
    13
177
     3
291
     1
 70
    58
 90
        2
176
     1
 90
        2
176
     1
 90
        0
176
     1
 90
        0
176
     1
 40
0.6
176
     1
 40
30.0
176
     1
 62
     7
420
 16777215
176
     1
 90
        1
176
     1
 90
        4
176
     1
 62
     7
176
     1
 62
   257
176
     1
 90
        1
176
     1
 90
        1
176
     1
 40
1.0
176
     1
 90
       12
176
     1
 62
     7
176
     1
 40
1.0
176
     1
 90
        1
176
     1
 90
        6
176
     1
 90
        2
176
     1
 62
     7
176
     1
 90
        5
176
     1
 90
        0
176
     1
 90
        0
176
     1
290
     0
176
     1
 90
        1
176
     1
 40
0.0
176
     1
 90
        0
176
     1
290
     0
176
     1
290
     1
176
     1
290
     1
176
     1
290
     0
176
     1
290
     0
176
     1
290
     0
176
     1
290
     0
176
     1
290
     0
176
     1
290
     0
176
     1
 90
       50
176
     1
 40
0.0
176
     1
 40
1.0
176
     1
 90
        0
176
     1
 62
    18
420
        0
176
     1
 90
       50
176
     1
 90
        3
176
     1
 62
     5
420
      255
176
     1
290
     0
176
     1
 90
       50
176
     1
 90
       50
176
     1
 90
       50
176
     1
290
     0
176
     1
 90
       50
176
     1
 62
   256
176
     0
 40
1.0
176
     0
 90
        2
176
     1
  1
strokes_ogs.tif
176
     1
290
     0
176
     1
 40
1.0
176
     1
 40
1.0
176
     1
  0
VISUALSTYLE
  5
30
102
{ACAD_REACTORS
330
29
102
}
330
29
100
AcDbVisualStyle
  2
Wireframe
 70
     5
177
     3
291
     0
 70
    58
 90
        0
176
     1
 90
        2
176
     1
 90
        0
176
     1
 90
        0
176
     1
 40
0.6
176
     1
 40
30.0
176
     1
 62
     7
420
 16777215
176
     1
 90
        1
176
     1
 90
        4
176
     1
 62
     7
176
     1
 62
   257
176
     1
 90
        1
176
     1
 90
        1
176
     1
 40
1.0
176
     1
 90
        0
176
     1
 62
   257
176
     1
 40
1.0
176
     1
 90
        1
176
     1
 90
        6
176
     1
 90
        2
176
     1
 62
     7
176
     1
 90
        3
176
     1
 90
        0
176
     1
 90
        0
176
     1
290
     0
176
     1
 90
        1
176
     1
 40
0.0
176
     1
 90
        0
176
     1
290
     0
176
     1
290
     1
176
     1
290
     1
176
     1
290
     0
176
     1
290
     0
176
     1
290
     0
176
     1
290
     0
176
     1
290
     0
176
     1
290
     0
176
     1
 90
       50
176
     1
 40
0.0
176
     1
 40
1.0
176
     1
 90
        0
176
     1
 62
    18
420
        0
176
     1
 90
       50
176
     1
 90
        3
176
     1
 62
     5
420
      255
176
     1
290
     0
176
     1
 90
       50
176
     1
 90
       50
176
     1
 90
       50
176
     1
290
     0
176
     1
 90
       50
176
     1
 62
   256
176
     0
 40
1.0
176
     0
 90
        2
176
     1
  1
strokes_ogs.tif
176
     1
290
     0
176
     1
 40
1.0
176
     1
 40
1.0
176
     1
  0
VISUALSTYLE
  5
3C
102
{ACAD_REACTORS
330
29
102
}
330
29
100
AcDbVisualStyle
  2
X-Ray
 70
    25
177
     3
291
     0
 70
    58
 90
        2
176
     1
 90
        2
176
     1
 90
        1
176
     1
 90
        1
176
     1
 40
0.5
176
     1
 40
30.0
176
     1
 62
     7
420
 16777215
176
     1
 90
        1
176
     1
 90
        0
176
     1
 62
     7
176
     1
 62
   257
176
     1
 90
        1
176
     1
 90
        1
176
     1
 40
1.0
176
     1
 90
        8
176
     1
 62
     7
176
     1
 40
1.0
176
     1
 90
        1
176
     1
 90
        6
176
     1
 90
        2
176
     1
 62
     7
176
     1
 90
        3
176
     1
 90
        0
176
     1
 90
        0
176
     1
290
     0
176
     1
 90
       13
176
     1
 40
0.0
176
     1
 90
        0
176
     1
290
     0
176
     1
290
     1
176
     1
290
     1
176
     1
290
     0
176
     1
290
     0
176
     1
290
     0
176
     1
290
     0
176
     1
290
     0
176
     1
290
     0
176
     1
 90
       50
176
     1
 40
0.0
176
     1
 40
1.0
176
     1
 90
        0
176
     1
 62
    18
420
        0
176
     1
 90
       50
176
     1
 90
        3
176
     1
 62
     5
420
      255
176
     1
290
     0
176
     1
 90
       50
176
     1
 90
       50
176
     1
 90
       50
176
     1
290
     0
176
     1
 90
       50
176
     1
 62
   256
176
     0
 40
1.0
176
     0
 90
        2
176
     1
  1
strokes_ogs.tif
176
     1
290
     0
176
     1
 40
1.0
176
     1
 40
1.0
176
     1
  0
DICTIONARYVAR
  5
8B
102
{ACAD_REACTORS
330
86
102
}
330
86
100
DictionaryVariables
280
     0
  1
1:1
  0
DICTIONARYVAR
  5
88
102
{ACAD_REACTORS
330
86
102
}
330
86
100
DictionaryVariables
280
     0
  1
STANDARD
  0
DICTIONARYVAR
  5
87
102
{ACAD_REACTORS
330
86
102
}
330
86
100
DictionaryVariables
280
     0
  1
STANDARD
  0
DICTIONARYVAR
  5
89
102
{ACAD_REACTORS
330
86
102
}
330
86
100
DictionaryVariables
280
     0
  1
Imperial24
  0
DICTIONARYVAR
  5
8A
102
{ACAD_REACTORS
330
86
102
}
330
86
100
DictionaryVariables
280
     0
  1
Imperial24
  0
DICTIONARY
  5
1A
330
19
100
AcDbDictionary
280
     1
281
     1
  3
BUMPTILE
360
1C
  3
DIFFUSETILE
360
1B
  3
OPACITYTILE
360
1F
  3
REFLECTIONTILE
360
1E
  3
REFRACTIONTILE
360
20
  3
SPECULARTILE
360
1D
  0
DICTIONARY
  5
12
330
11
100
AcDbDictionary
280
     1
281
     1
  3
BUMPTILE
360
14
  3
DIFFUSETILE
360
13
  3
OPACITYTILE
360
17
  3
REFLECTIONTILE
360
16
  3
REFRACTIONTILE
360
18
  3
SPECULARTILE
360
15
  0
DICTIONARY
  5
22
330
21
100
AcDbDictionary
280
     1
281
     1
  3
BUMPTILE
360
24
  3
DIFFUSETILE
360
23
  3
OPACITYTILE
360
27
  3
REFLECTIONTILE
360
26
  3
REFRACTIONTILE
360
28
  3
SPECULARTILE
360
25
  0
DICTIONARY
  5
8C
330
65
100
AcDbDictionary
280
     1
281
     1
  3
ACAD_ROUNDTRIP_2008_TABLESTYLE_CELLSTYLEMAP
360
8D
  0
XRECORD
  5
1C
102
{ACAD_REACTORS
330
1A
102
}
330
1A
100
AcDbXrecord
280
     1
270
     1
271
     1
  0
XRECORD
  5
1B
102
{ACAD_REACTORS
330
1A
102
}
330
1A
100
AcDbXrecord
280
     1
270
     1
271
     1
  0
XRECORD
  5
1F
102
{ACAD_REACTORS
330
1A
102
}
330
1A
100
AcDbXrecord
280
     1
270
     1
271
     1
  0
XRECORD
  5
1E
102
{ACAD_REACTORS
330
1A
102
}
330
1A
100
AcDbXrecord
280
     1
270
     1
271
     1
  0
XRECORD
  5
20
102
{ACAD_REACTORS
330
1A
102
}
330
1A
100
AcDbXrecord
280
     1
270
     1
271
     1
  0
XRECORD
  5
1D
102
{ACAD_REACTORS
330
1A
102
}
330
1A
100
AcDbXrecord
280
     1
270
     1
271
     1
  0
XRECORD
  5
14
102
{ACAD_REACTORS
330
12
102
}
330
12
100
AcDbXrecord
280
     1
270
     1
271
     1
  0
XRECORD
  5
13
102
{ACAD_REACTORS
330
12
102
}
330
12
100
AcDbXrecord
280
     1
270
     1
271
     1
  0
XRECORD
  5
17
102
{ACAD_REACTORS
330
12
102
}
330
12
100
AcDbXrecord
280
     1
270
     1
271
     1
  0
XRECORD
  5
16
102
{ACAD_REACTORS
330
12
102
}
330
12
100
AcDbXrecord
280
     1
270
     1
271
     1
  0
XRECORD
  5
18
102
{ACAD_REACTORS
330
12
102
}
330
12
100
AcDbXrecord
280
     1
270
     1
271
     1
  0
XRECORD
  5
15
102
{ACAD_REACTORS
330
12
102
}
330
12
100
AcDbXrecord
280
     1
270
     1
271
     1
  0
XRECORD
  5
24
102
{ACAD_REACTORS
330
22
102
}
330
22
100
AcDbXrecord
280
     1
270
     1
271
     1
  0
XRECORD
  5
23
102
{ACAD_REACTORS
330
22
102
}
330
22
100
AcDbXrecord
280
     1
270
     1
271
     1
  0
XRECORD
  5
27
102
{ACAD_REACTORS
330
22
102
}
330
22
100
AcDbXrecord
280
     1
270
     1
271
     1
  0
XRECORD
  5
26
102
{ACAD_REACTORS
330
22
102
}
330
22
100
AcDbXrecord
280
     1
270
     1
271
     1
  0
XRECORD
  5
28
102
{ACAD_REACTORS
330
22
102
}
330
22
100
AcDbXrecord
280
     1
270
     1
271
     1
  0
XRECORD
  5
25
102
{ACAD_REACTORS
330
22
102
}
330
22
100
AcDbXrecord
280
     1
270
     1
271
     1
  0
CELLSTYLEMAP
  5
8D
102
{ACAD_REACTORS
330
8C
102
}
330
8C
100
AcDbCellStyleMap
 90
        3
300
CELLSTYLE
  1
TABLEFORMAT_BEGIN
 90
        5
170
     1
 91
        0
 92
    32768
 62
   257
 93
        1
300
CONTENTFORMAT
  1
CONTENTFORMAT_BEGIN
 90
        0
 91
        0
 92
      512
 93
        0
300

 40
0.0
140
1.0
 94
        5
 62
     0
340
55
144
0.25
309
CONTENTFORMAT_END
171
     0
 94
        0
309
TABLEFORMAT_END
  1
CELLSTYLE_BEGIN
 90
        1
 91
        1
300
_TITLE
309
CELLSTYLE_END
300
CELLSTYLE
  1
TABLEFORMAT_BEGIN
 90
        5
170
     1
 91
        0
 92
        0
 62
   257
 93
        1
300
CONTENTFORMAT
  1
CONTENTFORMAT_BEGIN
 90
        0
 91
        0
 92
      512
 93
        0
300

 40
0.0
140
1.0
 94
        5
 62
     0
340
55
144
0.18
309
CONTENTFORMAT_END
171
     0
 94
        0
309
TABLEFORMAT_END
  1
CELLSTYLE_BEGIN
 90
        2
 91
        1
300
_HEADER
309
CELLSTYLE_END
300
CELLSTYLE
  1
TABLEFORMAT_BEGIN
 90
        5
170
     1
 91
        0
 92
        0
 62
   257
 93
        1
300
CONTENTFORMAT
  1
CONTENTFORMAT_BEGIN
 90
        0
 91
        0
 92
      512
 93
        0
300

 40
0.0
140
1.0
 94
        2
 62
     0
340
55
144
0.18
309
CONTENTFORMAT_END
171
     0
 94
        0
309
TABLEFORMAT_END
  1
CELLSTYLE_BEGIN
 90
        3
 91
        2
300
_DATA
309
CELLSTYLE_END
  0
ENDSEC
  0
EOF
