<?xml version="1.0" encoding="UTF-8"?>
<svg id="Layer_1" data-name="Layer 1" xmlns="http://www.w3.org/2000/svg" viewBox="0 0 500 500">
  <defs>
    <style>
      .cls-1 {
        fill: #fff;
      }

      .cls-2 {
        fill: #0e1329;
      }

      .cls-3 {
        fill: #831618;
      }
    </style>
  </defs>
  <g>
    <g>
      <path d="M378.85,291.39c0-77.26,.02-154.52,0-231.78,0-10.23-3.92-18.78-11.41-25.72-7.13-6.62-15.7-9.27-25.28-9.25-19.92,.03-39.84,.03-59.76,.03-58.61,0-117.22-.02-175.83-.03-11.25,0-20.56,4.3-27.93,12.8-6.22,7.16-8.29,15.61-8.28,24.93,.08,59.07,.04,118.14,.04,177.2,0,49.28-.01,98.56,0,147.85,0,11.62-.06,23.25,.17,34.87,.17,8.15,3.5,15.14,8.97,21.14,8.01,8.79,18.14,11.81,29.79,11.79,72.42-.12,144.85-.03,217.27-.1,7.93-.01,15.93,.83,23.79-.63,16.91-3.15,28.43-17.49,28.44-35.31,.03-42.6-.01-85.2-.01-127.81Zm-2.41-51.45h-.05c0,58.95,0,117.9,0,176.85,0,4.97-.29,9.89-2.05,14.62-4.77,12.86-17.1,21.24-31.42,21.24-76.68,0-153.37-.02-230.04-.03-2.54,0-5.07,.06-7.6-.03-18.05-.64-31.62-14.17-32.34-32.2-.03-.92-.02-1.84-.02-2.76,0-118.48,.02-236.95-.03-355.43,0-9.66,2.6-18.14,9.55-25.07,6.91-6.88,15.25-9.94,24.95-9.93,56.53,.06,113.07,.03,169.6,.03,22.11,0,44.22-.09,66.32,.03,16.42,.09,29.42,10.83,32.51,26.54,.83,4.21,.62,8.48,.62,12.74,0,57.8,0,115.6,0,173.4Z"/>
      <path class="cls-1" d="M376.44,239.93h-.05c0,58.95,0,117.9,0,176.85,0,4.97-.29,9.89-2.05,14.62-4.77,12.86-17.1,21.24-31.42,21.24-76.68,0-153.37-.02-230.04-.03-2.54,0-5.07,.06-7.6-.03-18.05-.64-31.62-14.17-32.34-32.2-.03-.92-.02-1.84-.02-2.76,0-118.48,.02-236.95-.03-355.43,0-9.66,2.6-18.14,9.55-25.07,6.91-6.88,15.25-9.94,24.95-9.93,56.53,.06,113.07,.03,169.6,.03,22.11,0,44.22-.09,66.32,.03,16.42,.09,29.42,10.83,32.51,26.54,.83,4.21,.62,8.48,.62,12.74,0,57.8,0,115.6,0,173.4Z"/>
    </g>
    <polygon class="cls-3" points="102.29 95.23 102.29 75.55 123.5 75.55 123.5 69.72 102.29 69.72 102.29 52.48 124.71 52.48 124.71 46.56 95.24 46.56 95.24 101.14 125.93 101.14 125.93 95.23 102.29 95.23"/>
  </g>
  <path class="cls-2" d="M342.22,343.79c-7.62-.44-13.57-2.8-19.26-5.62-7.04-3.49-13.36-3.41-20.16,.94-19.42,12.42-27.62,7.84-40.62-8.46-11.87-14.87-21.07-31.64-32.25-47.02-2.04-2.81-3.42-8.15-7.97-6.59-4.15,1.42-1.59,6.26-1.93,9.52-2.95,29.02,2.26,57.4,6.98,85.82,1.56,9.4,1.33,18.75-2.03,27.83-1.25,3.37-3.24,6.06-7.04,6.54-3.93,.5-6.34-2-8.16-4.99-6.81-11.16-10.03-23.5-11.15-36.36-.39-4.45-1.4-8.39-3.66-12.22-6.88-11.71-15.11-22.48-22.76-33.67-2.06-3.02-3.39-2.76-6.06-.68-11.15,8.69-22.48,17.11-36.28,21.36-7.57,2.33-15.11,2.53-22.84,.5,.41-2.58,2.63-2.7,4.16-3.48,15.77-8.08,31-17.05,45.41-27.39,3.7-2.65,7.74-5.11,4.73-11.33,3.92,3.8,6.3,1.57,8.79-1.01,5-5.19,8.97-11.09,12.5-17.34,1.4-2.48,1.33-3.69-1.58-5.08-3.88-1.85-8.55-3.57-6.93-9.78,.49-1.88-1.62-3.25-2.78-4.7-10.57-13.22-22.03-25.74-31.74-39.64-1.37-1.97-4.48-3.9-2.58-6.75,1.97-2.95,5.46-1.93,7.71-.57,9.35,5.62,18.73,3.57,28.29,.98,9.81-2.66,19.69-5.03,29.51-7.65,5.33-1.42,6.64-4.29,4.89-11.4-1.25-5.1-4.84-1.74-7.32-1.47-4.47,.49-8.76,2.2-13.37,1.91-3.22-.2-6.41-.61-9.23-2.24-1.95-1.13-4.49-2.68-4.14-4.9,.38-2.43,3.44-1.56,5.32-1.84,7.26-1.09,14.5-2.13,21.71-3.62,5.08-1.05,6.2-3.7,5.78-8.34-1.04-11.69-4.58-22.4-11.31-32.08-6.15-8.84-9.48-18.67-9.92-30.34,6.58,2.51,12.5,5.09,18.63,7.05,9.49,3.03,19.13,5.6,28.67,8.47,2.69,.81,5.44,1.68,7.87,3.03,3.36,1.87,4.95,4.99,4.82,8.94-.12,3.51-2.09,5.66-5.15,6.69-12.66,4.23-15.28,14.97-17.22,26.2-.57,3.28,.92,3.53,3.53,2.56,3.95-1.47,7.3-3.82,10.52-6.47,6.53-5.37,19.88-2.35,23.28,5.26,1.3,2.9-.36,4.64-2.82,5.81-4.48,2.11-9.38,2.72-14.13,3.86-5.67,1.36-11.36,2.67-17.05,3.97-2.4,.55-3.82,1.57-4.28,4.37-1.68,10.2-1.72,10.28,8.43,8.5,12.24-2.14,24.48-4.22,36.7-6.49,3.73-.69,7.07-.44,10.15,1.92,6.8,5.21,12.82,11.19,16.29,19.1,3.09,7.04,1.24,10.97-6.14,12.6-4.25,.94-6.32,2.96-7.91,6.8-3.05,7.36-8.11,13.51-12.88,19.82-3.29,4.35-6.07,8.89-6.47,14.73-.5,7.42-4.25,9.45-10.57,5.64-3.86-2.32-7.37-2.02-11.32-1.11-3.47,.8-3.36,1.96-1.21,4.4,10.76,12.15,23.36,21.86,38.13,28.57,16.27,7.4,32.72,14.4,49.04,21.7,7.12,3.19,13.13,7.87,18.38,15.25Zm-133.65-57.09c.1-1.31,.31-2.63,.27-3.93-.06-1.87,1.43-4.65-1.6-5.15-2.89-.48-6.31-2.25-8.62,1.57-6.35,10.47-13.98,20.02-21.58,29.58-1.11,1.39-2.11,2.57-.54,4.38,5.78,6.66,10.7,14.13,17.62,19.73,5.85,4.74,8.19,3.8,9.74-3.63,2.94-14.03,3.85-28.29,4.72-42.55Zm41.13-79.31c-7.93-.07-15.71,1.08-23.5,2.5-4.19,.77-6.44,2.5-6.2,6.98,.24,4.44-2.51,10.72,.63,12.88,4.04,2.77,8.95-1.78,13.21-4.05,7.47-3.98,12.64-3.57,18.7,1.43q5,4.13,8.02-1.93c7.55-15.18,5.87-17.94-10.86-17.81Zm-41.21,16.14c-.07-1.12-.14-2.25-.19-3.37-.35-7-.35-7.03-7-5.6-9.01,1.93-17.78,4.67-26.43,7.81q-10.41,3.78-3.34,11.76c.87,.98,1.77,1.95,2.57,2.98,1.2,1.55,2.53,1.84,4.41,1.11,6.9-2.69,14.28-3.04,21.49-4.22,8.89-1.45,8.9-1.4,8.5-10.48Zm11.01,28.94c0,1.32,.11,2.64-.02,3.95-.53,5.26,1.3,6.98,6.98,6.77,10.6-.4,18.51-3.75,21.84-14.59,.38-1.24,1.33-2.29,1.78-3.51,.71-1.98,3.56-3.69,1.82-5.93-1.56-2-4.46-2.08-6.85-1.67-5.92,1.01-11.75,2.93-17.69,3.37-6.82,.51-8.6,3.94-7.86,9.92,.07,.56,0,1.13,.01,1.69Zm-10.91,2.17c0-2.63,0-5.27,0-7.9,0-1.78-.65-2.92-2.64-2.78-6.95,.5-13.89,1.03-20.55,3.29-1.47,.5-2.64,.98-2.08,3.17,1.89,7.38,8.87,13.43,16.3,13.82q9.64,.5,8.97-9.6Z"/>
</svg>