  0
SECTION
  2
HEADER
  9
$ACADVER
  1
AC1032
  9
$ACADMAINTVER
 90
      228
  9
$DWGCODEPAGE
  3
ANSI_1252
  9
$REQUIREDVERSIONS
160
                 0
  9
$INSBASE
 10
0.0
 20
0.0
 30
0.0
  9
$EXTMIN
 10
1.000000000000000E+20
 20
1.000000000000000E+20
 30
1.000000000000000E+20
  9
$EXTMAX
 10
-1.000000000000000E+20
 20
-1.000000000000000E+20
 30
-1.000000000000000E+20
  9
$LIMMIN
 10
0.0
 20
0.0
  9
$LIMMAX
 10
12.0
 20
9.0
  9
$ORTHOMODE
 70
     0
  9
$REGENMODE
 70
     1
  9
$FILLMODE
 70
     1
  9
$QTEXTMODE
 70
     0
  9
$MIRRTEXT
 70
     0
  9
$LTSCALE
 40
1.0
  9
$ATTMODE
 70
     1
  9
$TEXTSIZE
 40
0.2
  9
$TRACEWID
 40
0.05
  9
$TEXTSTYLE
  7
Standard
  9
$CLAYER
  8
0
  9
$CELTYPE
  6
ByLayer
  9
$CECOLOR
 62
   256
  9
$CELTSCALE
 40
1.0
  9
$DISPSILH
 70
     0
  9
$DIMSCALE
 40
1.0
  9
$DIMASZ
 40
0.18
  9
$DIMEXO
 40
0.0625
  9
$DIMDLI
 40
0.38
  9
$DIMRND
 40
0.0
  9
$DIMDLE
 40
0.0
  9
$DIMEXE
 40
0.18
  9
$DIMTP
 40
0.0
  9
$DIMTM
 40
0.0
  9
$DIMTXT
 40
0.18
  9
$DIMCEN
 40
0.09
  9
$DIMTSZ
 40
0.0
  9
$DIMTOL
 70
     0
  9
$DIMLIM
 70
     0
  9
$DIMTIH
 70
     1
  9
$DIMTOH
 70
     1
  9
$DIMSE1
 70
     0
  9
$DIMSE2
 70
     0
  9
$DIMTAD
 70
     0
  9
$DIMZIN
 70
     0
  9
$DIMBLK
  1

  9
$DIMASO
 70
     1
  9
$DIMSHO
 70
     1
  9
$DIMPOST
  1

  9
$DIMAPOST
  1

  9
$DIMALT
 70
     0
  9
$DIMALTD
 70
     2
  9
$DIMALTF
 40
25.4
  9
$DIMLFAC
 40
1.0
  9
$DIMTOFL
 70
     0
  9
$DIMTVP
 40
0.0
  9
$DIMTIX
 70
     0
  9
$DIMSOXD
 70
     0
  9
$DIMSAH
 70
     0
  9
$DIMBLK1
  1

  9
$DIMBLK2
  1

  9
$DIMSTYLE
  2
Standard
  9
$DIMCLRD
 70
     0
  9
$DIMCLRE
 70
     0
  9
$DIMCLRT
 70
     0
  9
$DIMTFAC
 40
1.0
  9
$DIMGAP
 40
0.09
  9
$DIMJUST
 70
     0
  9
$DIMSD1
 70
     0
  9
$DIMSD2
 70
     0
  9
$DIMTOLJ
 70
     1
  9
$DIMTZIN
 70
     0
  9
$DIMALTZ
 70
     0
  9
$DIMALTTZ
 70
     0
  9
$DIMUPT
 70
     0
  9
$DIMDEC
 70
     4
  9
$DIMTDEC
 70
     4
  9
$DIMALTU
 70
     2
  9
$DIMALTTD
 70
     2
  9
$DIMTXSTY
  7
Standard
  9
$DIMAUNIT
 70
     0
  9
$DIMADEC
 70
     0
  9
$DIMALTRND
 40
0.0
  9
$DIMAZIN
 70
     0
  9
$DIMDSEP
 70
    46
  9
$DIMATFIT
 70
     3
  9
$DIMFRAC
 70
     0
  9
$DIMLDRBLK
  1

  9
$DIMLUNIT
 70
     2
  9
$DIMLWD
 70
    -2
  9
$DIMLWE
 70
    -2
  9
$DIMTMOVE
 70
     0
  9
$DIMFXL
 40
1.0
  9
$DIMFXLON
 70
     0
  9
$DIMJOGANG
 40
0.7853981633974483
  9
$DIMTFILL
 70
     0
  9
$DIMTFILLCLR
 70
     0
  9
$DIMARCSYM
 70
     0
  9
$DIMLTYPE
  6

  9
$DIMLTEX1
  6

  9
$DIMLTEX2
  6

  9
$DIMTXTDIRECTION
 70
     0
  9
$LUNITS
 70
     2
  9
$LUPREC
 70
     4
  9
$SKETCHINC
 40
0.1
  9
$FILLETRAD
 40
0.0
  9
$AUNITS
 70
     0
  9
$AUPREC
 70
     0
  9
$MENU
  1
.
  9
$ELEVATION
 40
0.0
  9
$PELEVATION
 40
0.0
  9
$THICKNESS
 40
0.0
  9
$LIMCHECK
 70
     0
  9
$CHAMFERA
 40
0.0
  9
$CHAMFERB
 40
0.0
  9
$CHAMFERC
 40
0.0
  9
$CHAMFERD
 40
0.0
  9
$SKPOLY
 70
     0
  9
$TDCREATE
 40
2460929.578055556
  9
$TDUCREATE
 40
2460929.369722222
  9
$TDUPDATE
 40
2460929.578055556
  9
$TDUUPDATE
 40
2460929.369722222
  9
$TDINDWG
 40
0.0000000000
  9
$TDUSRTIMER
 40
0.0000000000
  9
$USRTIMER
 70
     1
  9
$ANGBASE
 50
0.0
  9
$ANGDIR
 70
     0
  9
$PDMODE
 70
     0
  9
$PDSIZE
 40
0.0
  9
$PLINEWID
 40
0.0
  9
$SPLFRAME
 70
     0
  9
$SPLINETYPE
 70
     6
  9
$SPLINESEGS
 70
     8
  9
$HANDSEED
  5
A1
  9
$SURFTAB1
 70
     6
  9
$SURFTAB2
 70
     6
  9
$SURFTYPE
 70
     6
  9
$SURFU
 70
     6
  9
$SURFV
 70
     6
  9
$UCSBASE
  2

  9
$UCSNAME
  2

  9
$UCSORG
 10
0.0
 20
0.0
 30
0.0
  9
$UCSXDIR
 10
1.0
 20
0.0
 30
0.0
  9
$UCSYDIR
 10
0.0
 20
1.0
 30
0.0
  9
$UCSORTHOREF
  2

  9
$UCSORTHOVIEW
 70
     0
  9
$UCSORGTOP
 10
0.0
 20
0.0
 30
0.0
  9
$UCSORGBOTTOM
 10
0.0
 20
0.0
 30
0.0
  9
$UCSORGLEFT
 10
0.0
 20
0.0
 30
0.0
  9
$UCSORGRIGHT
 10
0.0
 20
0.0
 30
0.0
  9
$UCSORGFRONT
 10
0.0
 20
0.0
 30
0.0
  9
$UCSORGBACK
 10
0.0
 20
0.0
 30
0.0
  9
$PUCSBASE
  2

  9
$PUCSNAME
  2

  9
$PUCSORG
 10
0.0
 20
0.0
 30
0.0
  9
$PUCSXDIR
 10
1.0
 20
0.0
 30
0.0
  9
$PUCSYDIR
 10
0.0
 20
1.0
 30
0.0
  9
$PUCSORTHOREF
  2

  9
$PUCSORTHOVIEW
 70
     0
  9
$PUCSORGTOP
 10
0.0
 20
0.0
 30
0.0
  9
$PUCSORGBOTTOM
 10
0.0
 20
0.0
 30
0.0
  9
$PUCSORGLEFT
 10
0.0
 20
0.0
 30
0.0
  9
$PUCSORGRIGHT
 10
0.0
 20
0.0
 30
0.0
  9
$PUCSORGFRONT
 10
0.0
 20
0.0
 30
0.0
  9
$PUCSORGBACK
 10
0.0
 20
0.0
 30
0.0
  9
$USERI1
 70
     0
  9
$USERI2
 70
     0
  9
$USERI3
 70
     0
  9
$USERI4
 70
     0
  9
$USERI5
 70
     0
  9
$USERR1
 40
0.0
  9
$USERR2
 40
0.0
  9
$USERR3
 40
0.0
  9
$USERR4
 40
0.0
  9
$USERR5
 40
0.0
  9
$WORLDVIEW
 70
     1
  9
$SHADEDGE
 70
     3
  9
$SHADEDIF
 70
    70
  9
$TILEMODE
 70
     1
  9
$MAXACTVP
 70
    64
  9
$PINSBASE
 10
0.0
 20
0.0
 30
0.0
  9
$PLIMCHECK
 70
     0
  9
$PEXTMIN
 10
1.000000000000000E+20
 20
1.000000000000000E+20
 30
1.000000000000000E+20
  9
$PEXTMAX
 10
-1.000000000000000E+20
 20
-1.000000000000000E+20
 30
-1.000000000000000E+20
  9
$PLIMMIN
 10
0.0
 20
0.0
  9
$PLIMMAX
 10
12.0
 20
9.0
  9
$UNITMODE
 70
     0
  9
$VISRETAIN
 70
     1
  9
$PLINEGEN
 70
     0
  9
$PSLTSCALE
 70
     1
  9
$TREEDEPTH
 70
  3020
  9
$CMLSTYLE
  2
Standard
  9
$CMLJUST
 70
     0
  9
$CMLSCALE
 40
1.0
  9
$PROXYGRAPHICS
 70
     1
  9
$MEASUREMENT
 70
     0
  9
$CELWEIGHT
370
    -1
  9
$ENDCAPS
280
     0
  9
$JOINSTYLE
280
     0
  9
$LWDISPLAY
290
     1
  9
$INSUNITS
 70
     0
  9
$HYPERLINKBASE
  1

  9
$STYLESHEET
  1

  9
$XEDIT
290
     1
  9
$CEPSNTYPE
380
     0
  9
$PSTYLEMODE
290
     1
  9
$FINGERPRINTGUID
  2
{DBFFC5BD-EE48-5D4B-A2EB-18A4BEC9C2E2}
  9
$VERSIONGUID
  2
{A01D55EE-6C11-3E46-BC70-51D9D0EB81DF}
  9
$EXTNAMES
290
     1
  9
$PSVPSCALE
 40
0.0
  9
$OLESTARTUP
290
     0
  9
$SORTENTS
280
   127
  9
$INDEXCTL
280
     0
  9
$HIDETEXT
280
     1
  9
$XCLIPFRAME
280
     2
  9
$HALOGAP
280
     0
  9
$OBSCOLOR
 70
   257
  9
$OBSLTYPE
280
     0
  9
$INTERSECTIONDISPLAY
280
     0
  9
$INTERSECTIONCOLOR
 70
   257
  9
$DIMASSOC
280
     2
  9
$PROJECTNAME
  1

  9
$CAMERADISPLAY
290
     0
  9
$LENSLENGTH
 40
50.0
  9
$CAMERAHEIGHT
 40
0.0
  9
$STEPSPERSEC
 40
2.0
  9
$STEPSIZE
 40
6.0
  9
$3DDWFPREC
 40
2.0
  9
$PSOLWIDTH
 40
0.25
  9
$PSOLHEIGHT
 40
4.0
  9
$LOFTANG1
 40
1.570796326794896
  9
$LOFTANG2
 40
1.570796326794896
  9
$LOFTMAG1
 40
0.0
  9
$LOFTMAG2
 40
0.0
  9
$LOFTPARAM
 70
     7
  9
$LOFTNORMALS
280
     1
  9
$LATITUDE
 40
37.795
  9
$LONGITUDE
 40
-122.394
  9
$NORTHDIRECTION
 40
0.0
  9
$TIMEZONE
 70
 -8000
  9
$LIGHTGLYPHDISPLAY
280
     1
  9
$TILEMODELIGHTSYNCH
280
     1
  9
$CMATERIAL
347
11
  9
$SOLIDHIST
280
     0
  9
$SHOWHIST
280
     1
  9
$DWFFRAME
280
     2
  9
$DGNFRAME
280
     0
  9
$REALWORLDSCALE
290
     1
  9
$INTERFERECOLOR
 62
     1
  9
$INTERFEREOBJVS
345
33
  9
$INTERFEREVPVS
346
30
  9
$CSHADOW
280
     0
  9
$SHADOWPLANELOCATION
 40
0.0
  0
ENDSEC
  0
SECTION
  2
CLASSES
  0
CLASS
  1
ACDBDICTIONARYWDFLT
  2
AcDbDictionaryWithDefault
  3
ObjectDBX Classes
 90
        0
 91
        1
280
     0
281
     0
  0
CLASS
  1
MATERIAL
  2
AcDbMaterial
  3
ObjectDBX Classes
 90
     1153
 91
        3
280
     0
281
     0
  0
CLASS
  1
VISUALSTYLE
  2
AcDbVisualStyle
  3
ObjectDBX Classes
 90
     4095
 91
       24
280
     0
281
     0
  0
CLASS
  1
SCALE
  2
AcDbScale
  3
ObjectDBX Classes
 90
     1153
 91
       17
280
     0
281
     0
  0
CLASS
  1
TABLESTYLE
  2
AcDbTableStyle
  3
ObjectDBX Classes
 90
     4095
 91
        1
280
     0
281
     0
  0
CLASS
  1
MLEADERSTYLE
  2
AcDbMLeaderStyle
  3
ACDB_MLEADERSTYLE_CLASS
 90
     4095
 91
        1
280
     0
281
     0
  0
CLASS
  1
ACDBSECTIONVIEWSTYLE
  2
AcDbSectionViewStyle
  3
ObjectDBX Classes
 90
     1025
 91
        1
280
     0
281
     0
  0
CLASS
  1
ACDBDETAILVIEWSTYLE
  2
AcDbDetailViewStyle
  3
ObjectDBX Classes
 90
     1025
 91
        1
280
     0
281
     0
  0
CLASS
  1
DICTIONARYVAR
  2
AcDbDictionaryVar
  3
ObjectDBX Classes
 90
        0
 91
        5
280
     0
281
     0
  0
CLASS
  1
CELLSTYLEMAP
  2
AcDbCellStyleMap
  3
ObjectDBX Classes
 90
     1152
 91
        1
280
     0
281
     0
  0
ENDSEC
  0
SECTION
  2
TABLES
  0
TABLE
  2
VPORT
  5
8
330
0
100
AcDbSymbolTable
 70
     1
  0
VPORT
  5
57
330
8
100
AcDbSymbolTableRecord
100
AcDbViewportTableRecord
  2
*Active
 70
     0
 10
0.0
 20
0.0
 11
1.0
 21
1.0
 12
0.0
 22
0.0
 13
0.0
 23
0.0
 14
1.0
 24
1.0
 15
0.0
 25
0.0
 16
0.0
 26
0.0
 36
1.0
 17
2070.329143804109
 27
-1549.708560332395
 37
0.0
 40
3099.36839297975
 41
1.304893925962813
 42
50.0
 43
0.0
 44
0.0
 50
0.0
 51
0.0
 71
     0
 72
   100
 73
     1
 74
     1
 75
     0
 76
     0
 77
     0
 78
     0
281
     0
 65
     1
110
0.0
120
0.0
130
0.0
111
1.0
121
0.0
131
0.0
112
0.0
122
1.0
132
0.0
 79
     0
146
0.0
 60
     3
 61
     5
292
     1
282
     1
141
0.0
142
0.0
 63
   250
421
  3355443
  0
ENDTAB
  0
TABLE
  2
LTYPE
  5
5
330
0
100
AcDbSymbolTable
 70
     1
  0
LTYPE
  5
5B
330
5
100
AcDbSymbolTableRecord
100
AcDbLinetypeTableRecord
  2
ByBlock
 70
     0
  3

 72
    65
 73
     0
 40
0.0
  0
LTYPE
  5
5C
330
5
100
AcDbSymbolTableRecord
100
AcDbLinetypeTableRecord
  2
ByLayer
 70
     0
  3

 72
    65
 73
     0
 40
0.0
  0
LTYPE
  5
5D
330
5
100
AcDbSymbolTableRecord
100
AcDbLinetypeTableRecord
  2
Continuous
 70
     0
  3
Solid line
 72
    65
 73
     0
 40
0.0
  0
ENDTAB
  0
TABLE
  2
LAYER
  5
2
330
0
100
AcDbSymbolTable
 70
     2
  0
LAYER
  5
54
330
2
100
AcDbSymbolTableRecord
100
AcDbLayerTableRecord
  2
0
 70
     0
 62
     7
  6
Continuous
370
    -3
390
F
347
21
348
0
  0
LAYER
  5
78
330
2
100
AcDbSymbolTableRecord
100
AcDbLayerTableRecord
  2
Layer 1
 70
     0
 62
     7
  6
Continuous
370
     0
390
F
347
21
348
0
  0
ENDTAB
  0
TABLE
  2
STYLE
  5
3
330
0
100
AcDbSymbolTable
 70
     2
  0
STYLE
  5
55
330
3
100
AcDbSymbolTableRecord
100
AcDbTextStyleTableRecord
  2
Standard
 70
     0
 40
0.0
 41
1.0
 50
0.0
 71
     0
 42
0.2
  3
txt
  4

  0
STYLE
  5
5A
330
3
100
AcDbSymbolTableRecord
100
AcDbTextStyleTableRecord
  2
Annotative
 70
     0
 40
0.0
 41
1.0
 50
0.0
 71
     0
 42
0.2
  3
txt
  4

1001
AcadAnnotative
1000
AnnotativeData
1002
{
1070
     1
1070
     1
1002
}
  0
ENDTAB
  0
TABLE
  2
VIEW
  5
6
330
0
100
AcDbSymbolTable
 70
     0
  0
ENDTAB
  0
TABLE
  2
UCS
  5
7
330
0
100
AcDbSymbolTable
 70
     0
  0
ENDTAB
  0
TABLE
  2
APPID
  5
9
330
0
100
AcDbSymbolTable
 70
     2
  0
APPID
  5
56
330
9
100
AcDbSymbolTableRecord
100
AcDbRegAppTableRecord
  2
ACAD
 70
     0
  0
APPID
  5
5E
330
9
100
AcDbSymbolTableRecord
100
AcDbRegAppTableRecord
  2
AcadAnnotative
 70
     0
  0
ENDTAB
  0
TABLE
  2
DIMSTYLE
  5
A
330
0
100
AcDbSymbolTable
 70
     2
100
AcDbDimStyleTable
 71
     0
  0
DIMSTYLE
105
58
330
A
100
AcDbSymbolTableRecord
100
AcDbDimStyleTableRecord
  2
Standard
 70
     0
340
55
  0
DIMSTYLE
105
59
330
A
100
AcDbSymbolTableRecord
100
AcDbDimStyleTableRecord
  2
Annotative
 70
     0
340
55
1001
AcadAnnotative
1000
AnnotativeData
1002
{
1070
     1
1070
     1
1002
}
  0
ENDTAB
  0
TABLE
  2
BLOCK_RECORD
  5
1
330
0
100
AcDbSymbolTable
 70
     1
  0
BLOCK_RECORD
  5
70
330
1
100
AcDbSymbolTableRecord
100
AcDbBlockTableRecord
  2
*Model_Space
340
73
 70
     0
280
     1
281
     0
  0
BLOCK_RECORD
  5
6C
330
1
100
AcDbSymbolTableRecord
100
AcDbBlockTableRecord
  2
*Paper_Space
340
6F
 70
     0
280
     1
281
     0
  0
BLOCK_RECORD
  5
74
330
1
100
AcDbSymbolTableRecord
100
AcDbBlockTableRecord
  2
*Paper_Space0
340
77
 70
     0
280
     1
281
     0
  0
ENDTAB
  0
ENDSEC
  0
SECTION
  2
BLOCKS
  0
BLOCK
  5
71
330
70
100
AcDbEntity
  8
0
100
AcDbBlockBegin
  2
*Model_Space
 70
     0
 10
0.0
 20
0.0
 30
0.0
  3
*Model_Space
  1

  0
ENDBLK
  5
72
330
70
100
AcDbEntity
  8
0
100
AcDbBlockEnd
  0
BLOCK
  5
6D
330
6C
100
AcDbEntity
 67
     1
  8
0
100
AcDbBlockBegin
  2
*Paper_Space
 70
     0
 10
0.0
 20
0.0
 30
0.0
  3
*Paper_Space
  1

  0
ENDBLK
  5
6E
330
6C
100
AcDbEntity
 67
     1
  8
0
100
AcDbBlockEnd
  0
BLOCK
  5
75
330
74
100
AcDbEntity
 67
     1
  8
0
100
AcDbBlockBegin
  2
*Paper_Space0
 70
     0
 10
0.0
 20
0.0
 30
0.0
  3
*Paper_Space0
  1

  0
ENDBLK
  5
76
330
74
100
AcDbEntity
 67
     1
  8
0
100
AcDbBlockEnd
  0
ENDSEC
  0
SECTION
  2
ENTITIES
  0
SPLINE
  5
79
330
70
100
AcDbEntity
  8
Layer 1
100
AcDbSpline
210
0.0
220
0.0
230
1.0
 70
     9
 71
     3
 72
    53
 73
    49
 74
     0
 42
0.0000000001
 43
0.0000000001
 40
0.0
 40
0.0
 40
0.0
 40
0.0
 40
1.0
 40
1.0
 40
1.0
 40
2.0
 40
2.0
 40
2.0
 40
3.0
 40
3.0
 40
3.0
 40
4.0
 40
4.0
 40
4.0
 40
5.0
 40
5.0
 40
5.0
 40
6.0
 40
6.0
 40
6.0
 40
7.0
 40
7.0
 40
7.0
 40
8.0
 40
8.0
 40
8.0
 40
9.0
 40
9.0
 40
9.0
 40
10.0
 40
10.0
 40
10.0
 40
11.0
 40
11.0
 40
11.0
 40
12.0
 40
12.0
 40
12.0
 40
13.0
 40
13.0
 40
13.0
 40
14.0
 40
14.0
 40
14.0
 40
15.0
 40
15.0
 40
15.0
 40
16.0
 40
16.0
 40
16.0
 40
16.0
 10
3000.016763303082
 20
-763.7255912279306
 30
0.0
 10
3000.016763303082
 20
-763.7255912279306
 30
0.0
 10
2999.968069737597
 20
-763.7255912279306
 30
0.0
 10
2999.968069737597
 20
-763.7255912279306
 30
0.0
 10
2999.968069737597
 20
-823.1216709798736
 30
0.0
 10
2999.96110137395
 20
-882.5177507318167
 30
0.0
 10
2999.975038101247
 20
-941.9207563573854
 30
0.0
 10
2999.975038101247
 20
-946.9330918303384
 30
0.0
 10
2999.682621768227
 20
-951.8827970105176
 30
0.0
 10
2997.914441982937
 20
-956.6514522059533
 30
0.0
 10
2993.110859989224
 20
-969.6069149255418
 30
0.0
 10
2980.684568006551
 20
-978.0512969644824
 30
0.0
 10
2966.253171874609
 20
-978.0512969644824
 30
0.0
 10
2888.986766041128
 20
-978.0443286008358
 30
0.0
 10
2811.720360207653
 20
-978.0304343635652
 30
0.0
 10
2734.460922737819
 20
-978.0164976362721
 30
0.0
 10
2731.905997700831
 20
-978.0164976362721
 30
0.0
 10
2729.351157643885
 20
-978.0791279290461
 30
0.0
 10
2726.803200970536
 20
-977.9886666717084
 30
0.0
 10
2708.619595955066
 20
-977.341203712891
 30
0.0
 10
2694.940103256593
 20
-963.710489559944
 30
0.0
 10
2694.216158257752
 20
-945.5477471453887
 30
0.0
 10
2694.181316439519
 20
-944.6218470708645
 30
0.0
 10
2694.195253166812
 20
-943.6959894863647
 30
0.0
 10
2694.195253166812
 20
-942.7631210481958
 30
0.0
 10
2694.195253166812
 20
-823.3862138583081
 30
0.0
 10
2694.216158257752
 20
-704.0092641784013
 30
0.0
 10
2694.160411348579
 20
-584.6323569885153
 30
0.0
 10
2694.160411348579
 20
-574.9001023756299
 30
0.0
 10
2696.777966678348
 20
-566.3582482256806
 30
0.0
 10
2703.78134210321
 20
-559.3688095281122
 30
0.0
 10
2710.742907346196
 20
-552.4351177397129
 30
0.0
 10
2719.145479203258
 20
-549.3581602895428
 30
0.0
 10
2728.919459017974
 20
-549.3651286531894
 30
0.0
 10
2785.879033424897
 20
-549.4207056022733
 30
0.0
 10
2842.845576195467
 20
-549.3929171277304
 30
0.0
 10
2899.804980642295
 20
-549.3929171277304
 30
0.0
 10
2922.081989419845
 20
-549.3929171277304
 30
0.0
 10
2944.358998197395
 20
-549.3024133803719
 30
0.0
 10
2966.629123591344
 20
-549.4276739659198
 30
0.0
 10
2983.176692790678
 20
-549.5182626933237
 30
0.0
 10
2996.271437803154
 20
-560.3365622745368
 30
0.0
 10
2999.383237071556
 20
-576.1671548386784
 30
0.0
 10
3000.218675888742
 20
-580.4066392971999
 30
0.0
 10
3000.00291155583
 20
-584.715892372229
 30
0.0
 10
3000.009794939435
 20
-589.0042403563202
 30
0.0
 10
3000.016763303082
 20
-647.244633993494
 30
0.0
 10
3000.016763303082
 20
-705.4851975907568
 30
0.0
 10
3000.016763303082
 20
-763.7255912279306
 30
0.0
  0
SPLINE
  5
7A
330
70
100
AcDbEntity
  8
Layer 1
100
AcDbSpline
210
0.0
220
0.0
230
1.0
 70
     9
 71
     3
 72
    53
 73
    49
 74
     0
 42
0.0000000001
 43
0.0000000001
 40
0.0
 40
0.0
 40
0.0
 40
0.0
 40
1.0
 40
1.0
 40
1.0
 40
2.0
 40
2.0
 40
2.0
 40
3.0
 40
3.0
 40
3.0
 40
4.0
 40
4.0
 40
4.0
 40
5.0
 40
5.0
 40
5.0
 40
6.0
 40
6.0
 40
6.0
 40
7.0
 40
7.0
 40
7.0
 40
8.0
 40
8.0
 40
8.0
 40
9.0
 40
9.0
 40
9.0
 40
10.0
 40
10.0
 40
10.0
 40
11.0
 40
11.0
 40
11.0
 40
12.0
 40
12.0
 40
12.0
 40
13.0
 40
13.0
 40
13.0
 40
14.0
 40
14.0
 40
14.0
 40
15.0
 40
15.0
 40
15.0
 40
16.0
 40
16.0
 40
16.0
 40
16.0
 10
3002.44634277448
 20
-815.5683471972224
 30
0.0
 10
3002.44634277448
 20
-737.7241620413933
 30
0.0
 10
3002.467247865416
 20
-659.8730085219176
 30
0.0
 10
3002.453311138126
 20
-582.0287383860431
 30
0.0
 10
3002.453311138126
 20
-571.7186194707628
 30
0.0
 10
2998.499104688892
 20
-563.1072516444365
 30
0.0
 10
2990.959760123553
 20
-556.1108445832196
 30
0.0
 10
2983.775462184012
 20
-549.441610693213
 30
0.0
 10
2975.13613592306
 20
-546.7683934343186
 30
0.0
 10
2965.487416693884
 20
-546.7892985252583
 30
0.0
 10
2945.417169711136
 20
-546.8240553634459
 30
0.0
 10
2925.347007708426
 20
-546.8240553634459
 30
0.0
 10
2905.276845705723
 20
-546.8240553634459
 30
0.0
 10
2846.221833362261
 20
-546.8170869998012
 30
0.0
 10
2787.16690599884
 20
-546.8032352525515
 30
0.0
 10
2728.111978635423
 20
-546.7962668889049
 30
0.0
 10
2716.771561660984
 20
-546.7962668889049
 30
0.0
 10
2707.394353673897
 20
-551.1333084384768
 30
0.0
 10
2699.966332966817
 20
-559.689014335674
 30
0.0
 10
2693.694040864526
 20
-566.9082390734929
 30
0.0
 10
2691.612454675234
 20
-575.4222197688541
 30
0.0
 10
2691.626391402528
 20
-584.8133644832378
 30
0.0
 10
2691.709926786242
 20
-644.3347473107515
 30
0.0
 10
2691.668116604362
 20
-703.8491617746185
 30
0.0
 10
2691.668116604362
 20
-763.3635762384874
 30
0.0
 10
2691.668116604362
 20
-813.0204330139005
 30
0.0
 10
2691.654179877073
 20
-862.6772897893133
 30
0.0
 10
2691.675084968009
 20
-912.3341040747035
 30
0.0
 10
2691.675084968009
 20
-924.0434619122043
 30
0.0
 10
2691.612454675234
 20
-935.7597881133534
 30
0.0
 10
2691.849124099086
 20
-947.4691459508559
 30
0.0
 10
2692.016194866514
 20
-955.6837844395722
 30
0.0
 10
2695.371716902455
 20
-962.7219167026233
 30
0.0
 10
2700.885222187672
 20
-968.771518598378
 30
0.0
 10
2708.960705853568
 20
-977.6266516822651
 30
0.0
 10
2719.159330950506
 20
-980.6758206578942
 30
0.0
 10
2730.903573096262
 20
-980.6549155669545
 30
0.0
 10
2803.874662582004
 20
-980.5365808550304
 30
0.0
 10
2876.852720431389
 20
-980.6270846023908
 30
0.0
 10
2949.823894897172
 20
-980.5574434559476
 30
0.0
 10
2957.815758199309
 20
-980.543549218677
 30
0.0
 10
2965.877305137912
 20
-981.3928397831096
 30
0.0
 10
2973.799484803587
 20
-979.923959714446
 30
0.0
 10
2990.841382921606
 20
-976.7494876632463
 30
0.0
 10
3002.44634277448
 20
-962.2972714204079
 30
0.0
 10
3002.460279501773
 20
-944.3503783188061
 30
0.0
 10
3002.49503633996
 20
-901.4253432361529
 30
0.0
 10
3002.44634277448
 20
-858.5003506435223
 30
0.0
 10
3002.44634277448
 20
-815.5683471972224
 30
0.0
  0
HATCH
  5
7B
330
70
100
AcDbEntity
  8
Layer 1
 62
    18
420
        0
440
 33554687
100
AcDbHatch
 10
0.0
 20
0.0
 30
0.0
210
0.0
220
0.0
230
1.0
  2
SOLID
 70
     1
 71
     1
 91
        2
 92
        1
 93
        1
 72
     4
 94
        3
 73
     0
 74
     0
 95
       53
 96
       49
 40
0.0
 40
0.0
 40
0.0
 40
0.0
 40
1.0
 40
1.0
 40
1.0
 40
2.0
 40
2.0
 40
2.0
 40
3.0
 40
3.0
 40
3.0
 40
4.0
 40
4.0
 40
4.0
 40
5.0
 40
5.0
 40
5.0
 40
6.0
 40
6.0
 40
6.0
 40
7.0
 40
7.0
 40
7.0
 40
8.0
 40
8.0
 40
8.0
 40
9.0
 40
9.0
 40
9.0
 40
10.0
 40
10.0
 40
10.0
 40
11.0
 40
11.0
 40
11.0
 40
12.0
 40
12.0
 40
12.0
 40
13.0
 40
13.0
 40
13.0
 40
14.0
 40
14.0
 40
14.0
 40
15.0
 40
15.0
 40
15.0
 40
16.0
 40
16.0
 40
16.0
 40
16.0
 10
3000.016763303082
 20
-763.7255912279306
 10
3000.016763303082
 20
-763.7255912279306
 10
2999.968069737597
 20
-763.7255912279306
 10
2999.968069737597
 20
-763.7255912279306
 10
2999.968069737597
 20
-823.1216709798736
 10
2999.96110137395
 20
-882.5177507318167
 10
2999.975038101247
 20
-941.9207563573854
 10
2999.975038101247
 20
-946.9330918303384
 10
2999.682621768227
 20
-951.8827970105176
 10
2997.914441982937
 20
-956.6514522059533
 10
2993.110859989224
 20
-969.6069149255418
 10
2980.684568006551
 20
-978.0512969644824
 10
2966.253171874609
 20
-978.0512969644824
 10
2888.986766041128
 20
-978.0443286008358
 10
2811.720360207653
 20
-978.0304343635652
 10
2734.460922737819
 20
-978.0164976362721
 10
2731.905997700831
 20
-978.0164976362721
 10
2729.351157643885
 20
-978.0791279290461
 10
2726.803200970536
 20
-977.9886666717084
 10
2708.619595955066
 20
-977.341203712891
 10
2694.940103256593
 20
-963.710489559944
 10
2694.216158257752
 20
-945.5477471453887
 10
2694.181316439519
 20
-944.6218470708645
 10
2694.195253166812
 20
-943.6959894863647
 10
2694.195253166812
 20
-942.7631210481958
 10
2694.195253166812
 20
-823.3862138583081
 10
2694.216158257752
 20
-704.0092641784013
 10
2694.160411348579
 20
-584.6323569885153
 10
2694.160411348579
 20
-574.9001023756299
 10
2696.777966678348
 20
-566.3582482256806
 10
2703.78134210321
 20
-559.3688095281122
 10
2710.742907346196
 20
-552.4351177397129
 10
2719.145479203258
 20
-549.3581602895428
 10
2728.919459017974
 20
-549.3651286531894
 10
2785.879033424897
 20
-549.4207056022733
 10
2842.845576195467
 20
-549.3929171277304
 10
2899.804980642295
 20
-549.3929171277304
 10
2922.081989419845
 20
-549.3929171277304
 10
2944.358998197395
 20
-549.3024133803719
 10
2966.629123591344
 20
-549.4276739659198
 10
2983.176692790678
 20
-549.5182626933237
 10
2996.271437803154
 20
-560.3365622745368
 10
2999.383237071556
 20
-576.1671548386784
 10
3000.218675888742
 20
-580.4066392971999
 10
3000.00291155583
 20
-584.715892372229
 10
3000.009794939435
 20
-589.0042403563202
 10
3000.016763303082
 20
-647.244633993494
 10
3000.016763303082
 20
-705.4851975907568
 10
3000.016763303082
 20
-763.7255912279306
 97
        0
 97
        1
330
79
 92
        1
 93
        1
 72
     4
 94
        3
 73
     0
 74
     0
 95
       53
 96
       49
 40
0.0
 40
0.0
 40
0.0
 40
0.0
 40
1.0
 40
1.0
 40
1.0
 40
2.0
 40
2.0
 40
2.0
 40
3.0
 40
3.0
 40
3.0
 40
4.0
 40
4.0
 40
4.0
 40
5.0
 40
5.0
 40
5.0
 40
6.0
 40
6.0
 40
6.0
 40
7.0
 40
7.0
 40
7.0
 40
8.0
 40
8.0
 40
8.0
 40
9.0
 40
9.0
 40
9.0
 40
10.0
 40
10.0
 40
10.0
 40
11.0
 40
11.0
 40
11.0
 40
12.0
 40
12.0
 40
12.0
 40
13.0
 40
13.0
 40
13.0
 40
14.0
 40
14.0
 40
14.0
 40
15.0
 40
15.0
 40
15.0
 40
16.0
 40
16.0
 40
16.0
 40
16.0
 10
3002.44634277448
 20
-815.5683471972224
 10
3002.44634277448
 20
-737.7241620413933
 10
3002.467247865416
 20
-659.8730085219176
 10
3002.453311138126
 20
-582.0287383860431
 10
3002.453311138126
 20
-571.7186194707628
 10
2998.499104688892
 20
-563.1072516444365
 10
2990.959760123553
 20
-556.1108445832196
 10
2983.775462184012
 20
-549.441610693213
 10
2975.13613592306
 20
-546.7683934343186
 10
2965.487416693884
 20
-546.7892985252583
 10
2945.417169711136
 20
-546.8240553634459
 10
2925.347007708426
 20
-546.8240553634459
 10
2905.276845705723
 20
-546.8240553634459
 10
2846.221833362261
 20
-546.8170869998012
 10
2787.16690599884
 20
-546.8032352525515
 10
2728.111978635423
 20
-546.7962668889049
 10
2716.771561660984
 20
-546.7962668889049
 10
2707.394353673897
 20
-551.1333084384768
 10
2699.966332966817
 20
-559.689014335674
 10
2693.694040864526
 20
-566.9082390734929
 10
2691.612454675234
 20
-575.4222197688541
 10
2691.626391402528
 20
-584.8133644832378
 10
2691.709926786242
 20
-644.3347473107515
 10
2691.668116604362
 20
-703.8491617746185
 10
2691.668116604362
 20
-763.3635762384874
 10
2691.668116604362
 20
-813.0204330139005
 10
2691.654179877073
 20
-862.6772897893133
 10
2691.675084968009
 20
-912.3341040747035
 10
2691.675084968009
 20
-924.0434619122043
 10
2691.612454675234
 20
-935.7597881133534
 10
2691.849124099086
 20
-947.4691459508559
 10
2692.016194866514
 20
-955.6837844395722
 10
2695.371716902455
 20
-962.7219167026233
 10
2700.885222187672
 20
-968.771518598378
 10
2708.960705853568
 20
-977.6266516822651
 10
2719.159330950506
 20
-980.6758206578942
 10
2730.903573096262
 20
-980.6549155669545
 10
2803.874662582004
 20
-980.5365808550304
 10
2876.852720431389
 20
-980.6270846023908
 10
2949.823894897172
 20
-980.5574434559476
 10
2957.815758199309
 20
-980.543549218677
 10
2965.877305137912
 20
-981.3928397831096
 10
2973.799484803587
 20
-979.923959714446
 10
2990.841382921606
 20
-976.7494876632463
 10
3002.44634277448
 20
-962.2972714204079
 10
3002.460279501773
 20
-944.3503783188061
 10
3002.49503633996
 20
-901.4253432361529
 10
3002.44634277448
 20
-858.5003506435223
 10
3002.44634277448
 20
-815.5683471972224
 97
        0
 97
        1
330
7A
 75
     2
 76
     1
 98
        1
 10
0.0
 20
0.0
450
        0
451
        0
460
0.0
461
0.0
452
        0
462
0.0
453
        0
470

  0
SPLINE
  5
7C
330
70
100
AcDbEntity
  8
Layer 1
100
AcDbSpline
210
0.0
220
0.0
230
1.0
 70
     9
 71
     3
 72
    53
 73
    49
 74
     0
 42
0.0000000001
 43
0.0000000001
 40
0.0
 40
0.0
 40
0.0
 40
0.0
 40
1.0
 40
1.0
 40
1.0
 40
2.0
 40
2.0
 40
2.0
 40
3.0
 40
3.0
 40
3.0
 40
4.0
 40
4.0
 40
4.0
 40
5.0
 40
5.0
 40
5.0
 40
6.0
 40
6.0
 40
6.0
 40
7.0
 40
7.0
 40
7.0
 40
8.0
 40
8.0
 40
8.0
 40
9.0
 40
9.0
 40
9.0
 40
10.0
 40
10.0
 40
10.0
 40
11.0
 40
11.0
 40
11.0
 40
12.0
 40
12.0
 40
12.0
 40
13.0
 40
13.0
 40
13.0
 40
14.0
 40
14.0
 40
14.0
 40
15.0
 40
15.0
 40
15.0
 40
16.0
 40
16.0
 40
16.0
 40
16.0
 10
3000.016763303082
 20
-763.7255912279306
 30
0.0
 10
3000.016763303082
 20
-763.7255912279306
 30
0.0
 10
2999.968069737597
 20
-763.7255912279306
 30
0.0
 10
2999.968069737597
 20
-763.7255912279306
 30
0.0
 10
2999.968069737597
 20
-823.1216709798736
 30
0.0
 10
2999.96110137395
 20
-882.5177507318167
 30
0.0
 10
2999.975038101247
 20
-941.9207563573854
 30
0.0
 10
2999.975038101247
 20
-946.9330918303384
 30
0.0
 10
2999.682621768227
 20
-951.8827970105176
 30
0.0
 10
2997.914441982937
 20
-956.6514522059533
 30
0.0
 10
2993.110859989224
 20
-969.6069149255418
 30
0.0
 10
2980.684568006551
 20
-978.0512969644824
 30
0.0
 10
2966.253171874609
 20
-978.0512969644824
 30
0.0
 10
2888.986766041128
 20
-978.0443286008358
 30
0.0
 10
2811.720360207653
 20
-978.0304343635652
 30
0.0
 10
2734.460922737819
 20
-978.0164976362721
 30
0.0
 10
2731.905997700831
 20
-978.0164976362721
 30
0.0
 10
2729.351157643885
 20
-978.0791279290461
 30
0.0
 10
2726.803200970536
 20
-977.9886666717084
 30
0.0
 10
2708.619595955066
 20
-977.341203712891
 30
0.0
 10
2694.940103256593
 20
-963.710489559944
 30
0.0
 10
2694.216158257752
 20
-945.5477471453887
 30
0.0
 10
2694.181316439519
 20
-944.6218470708645
 30
0.0
 10
2694.195253166812
 20
-943.6959894863647
 30
0.0
 10
2694.195253166812
 20
-942.7631210481958
 30
0.0
 10
2694.195253166812
 20
-823.3862138583081
 30
0.0
 10
2694.216158257752
 20
-704.0092641784013
 30
0.0
 10
2694.160411348579
 20
-584.6323569885153
 30
0.0
 10
2694.160411348579
 20
-574.9001023756299
 30
0.0
 10
2696.777966678348
 20
-566.3582482256806
 30
0.0
 10
2703.78134210321
 20
-559.3688095281122
 30
0.0
 10
2710.742907346196
 20
-552.4351177397129
 30
0.0
 10
2719.145479203258
 20
-549.3581602895428
 30
0.0
 10
2728.919459017974
 20
-549.3651286531894
 30
0.0
 10
2785.879033424897
 20
-549.4207056022733
 30
0.0
 10
2842.845576195467
 20
-549.3929171277304
 30
0.0
 10
2899.804980642295
 20
-549.3929171277304
 30
0.0
 10
2922.081989419845
 20
-549.3929171277304
 30
0.0
 10
2944.358998197395
 20
-549.3024133803719
 30
0.0
 10
2966.629123591344
 20
-549.4276739659198
 30
0.0
 10
2983.176692790678
 20
-549.5182626933237
 30
0.0
 10
2996.271437803154
 20
-560.3365622745368
 30
0.0
 10
2999.383237071556
 20
-576.1671548386784
 30
0.0
 10
3000.218675888742
 20
-580.4066392971999
 30
0.0
 10
3000.00291155583
 20
-584.715892372229
 30
0.0
 10
3000.009794939435
 20
-589.0042403563202
 30
0.0
 10
3000.016763303082
 20
-647.244633993494
 30
0.0
 10
3000.016763303082
 20
-705.4851975907568
 30
0.0
 10
3000.016763303082
 20
-763.7255912279306
 30
0.0
  0
SPLINE
  5
7D
330
70
100
AcDbEntity
  8
Layer 1
100
AcDbSpline
210
0.0
220
0.0
230
1.0
 70
    11
 71
     3
 72
    50
 73
    46
 74
     0
 42
0.0000000001
 43
0.0000000001
 40
0.0
 40
0.0
 40
0.0
 40
0.0
 40
1.0
 40
1.0
 40
1.0
 40
2.0
 40
2.0
 40
2.0
 40
3.0
 40
3.0
 40
3.0
 40
4.0
 40
4.0
 40
4.0
 40
5.0
 40
5.0
 40
5.0
 40
6.0
 40
6.0
 40
6.0
 40
7.0
 40
7.0
 40
7.0
 40
8.0
 40
8.0
 40
8.0
 40
9.0
 40
9.0
 40
9.0
 40
10.0
 40
10.0
 40
10.0
 40
11.0
 40
11.0
 40
11.0
 40
12.0
 40
12.0
 40
12.0
 40
13.0
 40
13.0
 40
13.0
 40
14.0
 40
14.0
 40
14.0
 40
15.0
 40
15.0
 40
15.0
 40
15.0
 10
2740.857637981529
 20
-572.3462943663889
 30
0.0
 10
2740.857637981529
 20
-572.3462943663889
 30
0.0
 10
2721.990004012996
 20
-572.3462943663889
 30
0.0
 10
2721.990004012996
 20
-572.3462943663889
 30
0.0
 10
2721.990004012996
 20
-572.3462943663889
 30
0.0
 10
2720.088261134568
 20
-587.5506852606467
 30
0.0
 10
2720.088261134568
 20
-587.5506852606467
 30
0.0
 10
2721.229306861626
 20
-587.3683263544972
 30
0.0
 10
2722.294369711121
 20
-587.1864016362178
 30
0.0
 10
2724.12056389986
 20
-587.1864016362178
 30
0.0
 10
2727.92448384459
 20
-587.1864016362178
 30
0.0
 10
2731.72796960145
 20
-588.1880730564317
 30
0.0
 10
2734.77119239481
 20
-590.3729064272665
 30
0.0
 10
2738.651095217103
 20
-593.0132028756069
 30
0.0
 10
2741.846717953462
 20
-598.1118710540085
 30
0.0
 10
2741.846717953462
 20
-605.5772973215243
 30
0.0
 10
2741.846717953462
 20
-617.1397203472297
 30
0.0
 10
2734.162460998565
 20
-625.7891769411108
 30
0.0
 10
2723.435849626048
 20
-625.7891769411108
 30
0.0
 10
2718.03411831314
 20
-625.7891769411108
 30
0.0
 10
2713.469501217036
 20
-623.9681930068327
 30
0.0
 10
2711.110992697488
 20
-622.1472090725565
 30
0.0
 10
2711.110992697488
 20
-622.1472090725565
 30
0.0
 10
2712.784786943228
 20
-616.0473036618114
 30
0.0
 10
2712.784786943228
 20
-616.0473036618114
 30
0.0
 10
2714.838929764656
 20
-617.5040039716586
 30
0.0
 10
2718.871232529948
 20
-619.3249879059367
 30
0.0
 10
2723.359432560616
 20
-619.3249879059367
 30
0.0
 10
2729.674260967894
 20
-619.3249879059367
 30
0.0
 10
2735.075558092931
 20
-614.4086786336847
 30
0.0
 10
2735.075558092931
 20
-606.4877892886634
 30
0.0
 10
2734.999575215368
 20
-598.8400041149962
 30
0.0
 10
2730.739323817389
 20
-593.3774865000377
 30
0.0
 10
2720.848958285939
 20
-593.3774865000377
 30
0.0
 10
2718.03411831314
 20
-593.3774865000377
 30
0.0
 10
2715.828009736588
 20
-593.7417701244667
 30
0.0
 10
2714.002249735723
 20
-594.0148742958208
 30
0.0
 10
2714.002249735723
 20
-594.0148742958208
 30
0.0
 10
2717.197438284208
 20
-565.6090011598608
 30
0.0
 10
2717.197438284208
 20
-565.6090011598608
 30
0.0
 10
2717.197438284208
 20
-565.6090011598608
 30
0.0
 10
2740.857637981529
 20
-565.6090011598608
 30
0.0
 10
2740.857637981529
 20
-565.6090011598608
 30
0.0
 10
2740.857637981529
 20
-565.6090011598608
 30
0.0
 10
2740.857637981529
 20
-572.3462943663889
 30
0.0
 10
2740.857637981529
 20
-572.3462943663889
 30
0.0
  0
HATCH
  5
7E
330
70
100
AcDbEntity
  8
Layer 1
 62
   246
420
  8590872
440
 33554687
100
AcDbHatch
 10
0.0
 20
0.0
 30
0.0
210
0.0
220
0.0
230
1.0
  2
SOLID
 70
     1
 71
     1
 91
        1
 92
        1
 93
        1
 72
     4
 94
        3
 73
     0
 74
     0
 95
       50
 96
       46
 40
0.0
 40
0.0
 40
0.0
 40
0.0
 40
1.0
 40
1.0
 40
1.0
 40
2.0
 40
2.0
 40
2.0
 40
3.0
 40
3.0
 40
3.0
 40
4.0
 40
4.0
 40
4.0
 40
5.0
 40
5.0
 40
5.0
 40
6.0
 40
6.0
 40
6.0
 40
7.0
 40
7.0
 40
7.0
 40
8.0
 40
8.0
 40
8.0
 40
9.0
 40
9.0
 40
9.0
 40
10.0
 40
10.0
 40
10.0
 40
11.0
 40
11.0
 40
11.0
 40
12.0
 40
12.0
 40
12.0
 40
13.0
 40
13.0
 40
13.0
 40
14.0
 40
14.0
 40
14.0
 40
15.0
 40
15.0
 40
15.0
 40
15.0
 10
2740.857637981529
 20
-572.3462943663889
 10
2740.857637981529
 20
-572.3462943663889
 10
2721.990004012996
 20
-572.3462943663889
 10
2721.990004012996
 20
-572.3462943663889
 10
2721.990004012996
 20
-572.3462943663889
 10
2720.088261134568
 20
-587.5506852606467
 10
2720.088261134568
 20
-587.5506852606467
 10
2721.229306861626
 20
-587.3683263544972
 10
2722.294369711121
 20
-587.1864016362178
 10
2724.12056389986
 20
-587.1864016362178
 10
2727.92448384459
 20
-587.1864016362178
 10
2731.72796960145
 20
-588.1880730564317
 10
2734.77119239481
 20
-590.3729064272665
 10
2738.651095217103
 20
-593.0132028756069
 10
2741.846717953462
 20
-598.1118710540085
 10
2741.846717953462
 20
-605.5772973215243
 10
2741.846717953462
 20
-617.1397203472297
 10
2734.162460998565
 20
-625.7891769411108
 10
2723.435849626048
 20
-625.7891769411108
 10
2718.03411831314
 20
-625.7891769411108
 10
2713.469501217036
 20
-623.9681930068327
 10
2711.110992697488
 20
-622.1472090725565
 10
2711.110992697488
 20
-622.1472090725565
 10
2712.784786943228
 20
-616.0473036618114
 10
2712.784786943228
 20
-616.0473036618114
 10
2714.838929764656
 20
-617.5040039716586
 10
2718.871232529948
 20
-619.3249879059367
 10
2723.359432560616
 20
-619.3249879059367
 10
2729.674260967894
 20
-619.3249879059367
 10
2735.075558092931
 20
-614.4086786336847
 10
2735.075558092931
 20
-606.4877892886634
 10
2734.999575215368
 20
-598.8400041149962
 10
2730.739323817389
 20
-593.3774865000377
 10
2720.848958285939
 20
-593.3774865000377
 10
2718.03411831314
 20
-593.3774865000377
 10
2715.828009736588
 20
-593.7417701244667
 10
2714.002249735723
 20
-594.0148742958208
 10
2714.002249735723
 20
-594.0148742958208
 10
2717.197438284208
 20
-565.6090011598608
 10
2717.197438284208
 20
-565.6090011598608
 10
2717.197438284208
 20
-565.6090011598608
 10
2740.857637981529
 20
-565.6090011598608
 10
2740.857637981529
 20
-565.6090011598608
 10
2740.857637981529
 20
-565.6090011598608
 10
2740.857637981529
 20
-572.3462943663889
 10
2740.857637981529
 20
-572.3462943663889
 97
        0
 97
        1
330
7D
 75
     2
 76
     1
 98
        1
 10
0.0
 20
0.0
450
        0
451
        0
460
0.0
461
0.0
452
        0
462
0.0
453
        0
470

  0
SPLINE
  5
7F
330
70
100
AcDbEntity
  8
Layer 1
100
AcDbSpline
210
0.0
220
0.0
230
1.0
 70
     9
 71
     3
 72
    17
 73
    13
 74
     0
 42
0.0000000001
 43
0.0000000001
 40
0.0
 40
0.0
 40
0.0
 40
0.0
 40
1.0
 40
1.0
 40
1.0
 40
2.0
 40
2.0
 40
2.0
 40
3.0
 40
3.0
 40
3.0
 40
4.0
 40
4.0
 40
4.0
 40
4.0
 10
2915.513743627233
 20
-702.0790468459308
 30
0.0
 10
2914.799043709469
 20
-708.0130397449047
 30
0.0
 10
2915.167329198625
 20
-712.6598260133814
 30
0.0
 10
2923.431615496646
 20
-712.5590422250606
 30
0.0
 10
2931.033178914137
 20
-712.4663367955399
 30
0.0
 10
2931.199521089036
 20
-708.2634766955634
 30
0.0
 10
2931.169587325419
 20
-702.640860692265
 30
0.0
 10
2931.13849503748
 20
-696.8000428948344
 30
0.0
 10
2931.390474077949
 20
-691.9569728599781
 30
0.0
 10
2923.033302309466
 20
-692.1022424167676
 30
0.0
 10
2915.439018808336
 20
-692.2342359110334
 30
0.0
 10
2914.830903128377
 20
-696.3313493549758
 30
0.0
 10
2915.513743627233
 20
-702.0790468459308
 30
0.0
  0
SPLINE
  5
80
330
70
100
AcDbEntity
  8
Layer 1
100
AcDbSpline
210
0.0
220
0.0
230
1.0
 70
     9
 71
     3
 72
    26
 73
    22
 74
     0
 42
0.0000000001
 43
0.0000000001
 40
0.0
 40
0.0
 40
0.0
 40
0.0
 40
1.0
 40
1.0
 40
1.0
 40
2.0
 40
2.0
 40
2.0
 40
3.0
 40
3.0
 40
3.0
 40
4.0
 40
4.0
 40
4.0
 40
5.0
 40
5.0
 40
5.0
 40
6.0
 40
6.0
 40
6.0
 40
7.0
 40
7.0
 40
7.0
 40
7.0
 10
2915.407801274525
 20
-737.6717164554811
 30
0.0
 10
2915.407801274525
 20
-742.7980143760869
 30
0.0
 10
2915.688868668965
 20
-747.9438819643274
 30
0.0
 10
2915.333749652195
 20
-753.0454594807761
 30
0.0
 10
2914.927326794748
 20
-758.8840463360956
 30
0.0
 10
2917.312446574642
 20
-760.87053981413
 30
0.0
 10
2923.04174075015
 20
-760.7882219641887
 30
0.0
 10
2928.35055321899
 20
-760.711931571881
 30
0.0
 10
2931.408086778823
 20
-759.654919027842
 30
0.0
 10
2931.149547985764
 20
-753.4304652939608
 30
0.0
 10
2930.781121594997
 20
-744.5603960203643
 30
0.0
 10
2930.9185945962
 20
-735.6599233111301
 30
0.0
 10
2931.120678812067
 20
-726.7788324007197
 30
0.0
 10
2931.254504027222
 20
-720.8965190800372
 30
0.0
 10
2931.489371350314
 20
-716.4501810032125
 30
0.0
 10
2922.906021191169
 20
-716.5573601589167
 30
0.0
 10
2914.683911440837
 20
-716.6599991517287
 30
0.0
 10
2915.257380981215
 20
-721.0929359201563
 30
0.0
 10
2915.380716854519
 20
-726.3942179808873
 30
0.0
 10
2915.468138473776
 20
-730.1514845766796
 30
0.0
 10
2915.397656358824
 20
-733.9124146142548
 30
0.0
 10
2915.407801274525
 20
-737.6717164554811
 30
0.0
  0
SPLINE
  5
81
330
70
100
AcDbEntity
  8
Layer 1
100
AcDbSpline
210
0.0
220
0.0
230
1.0
 70
     9
 71
     3
 72
    26
 73
    22
 74
     0
 42
0.0000000001
 43
0.0000000001
 40
0.0
 40
0.0
 40
0.0
 40
0.0
 40
1.0
 40
1.0
 40
1.0
 40
2.0
 40
2.0
 40
2.0
 40
3.0
 40
3.0
 40
3.0
 40
4.0
 40
4.0
 40
4.0
 40
5.0
 40
5.0
 40
5.0
 40
6.0
 40
6.0
 40
6.0
 40
7.0
 40
7.0
 40
7.0
 40
7.0
 10
2915.402368734789
 20
-665.7402640881264
 30
0.0
 10
2915.402368734789
 20
-670.4959359873246
 30
0.0
 10
2915.661236298265
 20
-675.2694319398051
 30
0.0
 10
2915.335221291198
 20
-680.002645688426
 30
0.0
 10
2914.949229166765
 20
-685.6068975156158
 30
0.0
 10
2916.855753154976
 20
-687.7980427499096
 30
0.0
 10
2922.795523019834
 20
-687.7774084923548
 30
0.0
 10
2928.719746740726
 20
-687.7568212020032
 30
0.0
 10
2931.513136754688
 20
-686.4141541334284
 30
0.0
 10
2931.181282158801
 20
-679.8582450248796
 30
0.0
 10
2930.718201199617
 20
-670.7101612249917
 30
0.0
 10
2930.79965798418
 20
-661.5101160436006
 30
0.0
 10
2931.166550113003
 20
-652.3530849916697
 30
0.0
 10
2931.406975221702
 20
-646.3523869235942
 30
0.0
 10
2929.519519917633
 20
-643.7592415767412
 30
0.0
 10
2923.165546295479
 20
-643.7524430742032
 30
0.0
 10
2916.67006049272
 20
-643.7454919282608
 30
0.0
 10
2914.903999750926
 20
-646.648867388265
 30
0.0
 10
2915.336833831812
 20
-652.4970864339938
 30
0.0
 10
2915.661893839099
 20
-656.8890051790604
 30
0.0
 10
2915.401069308859
 20
-661.3242903076042
 30
0.0
 10
2915.402368734789
 20
-665.7402640881264
 30
0.0
  0
SPLINE
  5
82
330
70
100
AcDbEntity
  8
Layer 1
100
AcDbSpline
210
0.0
220
0.0
230
1.0
 70
     9
 71
     3
 72
    59
 73
    55
 74
     0
 42
0.0000000001
 43
0.0000000001
 40
0.0
 40
0.0
 40
0.0
 40
0.0
 40
1.0
 40
1.0
 40
1.0
 40
2.0
 40
2.0
 40
2.0
 40
3.0
 40
3.0
 40
3.0
 40
4.0
 40
4.0
 40
4.0
 40
5.0
 40
5.0
 40
5.0
 40
6.0
 40
6.0
 40
6.0
 40
7.0
 40
7.0
 40
7.0
 40
8.0
 40
8.0
 40
8.0
 40
9.0
 40
9.0
 40
9.0
 40
10.0
 40
10.0
 40
10.0
 40
11.0
 40
11.0
 40
11.0
 40
12.0
 40
12.0
 40
12.0
 40
13.0
 40
13.0
 40
13.0
 40
14.0
 40
14.0
 40
14.0
 40
15.0
 40
15.0
 40
15.0
 40
16.0
 40
16.0
 40
16.0
 40
17.0
 40
17.0
 40
17.0
 40
18.0
 40
18.0
 40
18.0
 40
18.0
 10
2924.39485019338
 20
-633.7891769411108
 30
0.0
 10
2930.042734551525
 20
-634.4839197118235
 30
0.0
 10
2936.606463699261
 20
-634.6609430113167
 30
0.0
 10
2942.834893989608
 20
-636.197279338674
 30
0.0
 10
2953.627362165799
 20
-638.8593999360746
 30
0.0
 10
2955.441078962218
 20
-646.3014627344746
 30
0.0
 10
2947.768563757747
 20
-654.041344562811
 30
0.0
 10
2945.021342503665
 20
-656.812683475282
 30
0.0
 10
2940.189982957921
 20
-657.8690306506214
 30
0.0
 10
2940.247486469305
 20
-663.01121131348
 30
0.0
 10
2940.342798578551
 20
-671.5359542319893
 30
0.0
 10
2940.163415177142
 20
-680.0754683356299
 30
0.0
 10
2940.644891623901
 20
-688.577901833034
 30
0.0
 10
2940.815914863297
 20
-691.5984174095683
 30
0.0
 10
2944.642520705455
 20
-691.8761657883806
 30
0.0
 10
2946.760898087616
 20
-693.4564555892466
 30
0.0
 10
2954.104455007005
 20
-698.9346709290003
 30
0.0
 10
2954.631270459742
 20
-706.5676319212471
 30
0.0
 10
2946.727300882218
 20
-710.6014805436589
 30
0.0
 10
2940.35537013304
 20
-713.8534583211148
 30
0.0
 10
2939.959921945205
 20
-718.1776503604287
 30
0.0
 10
2940.141669362465
 20
-723.8468578284336
 30
0.0
 10
2940.478893875154
 20
-734.3660864772373
 30
0.0
 10
2937.804769243625
 20
-745.0238996843673
 30
0.0
 10
2949.316665369284
 20
-752.937685407176
 30
0.0
 10
2956.01556612531
 20
-757.5427882835902
 30
0.0
 10
2952.783064081085
 20
-765.5738511106028
 30
0.0
 10
2944.018921504465
 20
-767.8664924691202
 30
0.0
 10
2930.610818519372
 20
-771.3739405157503
 30
0.0
 10
2917.01732033097
 20
-771.3933849375134
 30
0.0
 10
2903.518437571651
 20
-768.1285224908861
 30
0.0
 10
2899.5869069995
 20
-767.1776401683673
 30
0.0
 10
2895.223951362537
 20
-766.2002057207992
 30
0.0
 10
2894.379574999153
 20
-761.216719406726
 30
0.0
 10
2893.551034410821
 20
-756.3266508580782
 30
0.0
 10
2896.038566175381
 20
-752.8078524042175
 30
0.0
 10
2899.646218748172
 20
-749.7437904032612
 30
0.0
 10
2905.234376480695
 20
-744.9976450182675
 30
0.0
 10
2910.589295086482
 20
-718.9988092701296
 30
0.0
 10
2905.218971238335
 20
-715.3090501998104
 30
0.0
 10
2891.265250263843
 20
-705.721901336863
 30
0.0
 10
2890.408059682092
 20
-698.7777378503015
 30
0.0
 10
2905.203902594256
 20
-689.3288056359251
 30
0.0
 10
2910.164601987336
 20
-686.160789560492
 30
0.0
 10
2905.42754475599
 20
-659.7414564499449
 30
0.0
 10
2900.388535380904
 20
-655.5325688923367
 30
0.0
 10
2896.535854913591
 20
-652.3145875414975
 30
0.0
 10
2893.487057253389
 20
-648.7588650387443
 30
0.0
 10
2894.355551275165
 20
-643.3681965641226
 30
0.0
 10
2895.339545475325
 20
-637.2606872500965
 30
0.0
 10
2900.818707986991
 20
-636.6370293401014
 30
0.0
 10
2905.242720986977
 20
-635.7368441985563
 30
0.0
 10
2911.216589040725
 20
-634.521289949138
 30
0.0
 10
2917.42101909068
 20
-634.4387568328547
 30
0.0
 10
2924.39485019338
 20
-633.7891769411108
 30
0.0
  0
HATCH
  5
83
330
70
100
AcDbEntity
  8
Layer 1
 62
   118
420
  1005869
440
 33554687
100
AcDbHatch
 10
0.0
 20
0.0
 30
0.0
210
0.0
220
0.0
230
1.0
  2
SOLID
 70
     1
 71
     1
 91
        4
 92
        1
 93
        1
 72
     4
 94
        3
 73
     0
 74
     0
 95
       17
 96
       13
 40
0.0
 40
0.0
 40
0.0
 40
0.0
 40
1.0
 40
1.0
 40
1.0
 40
2.0
 40
2.0
 40
2.0
 40
3.0
 40
3.0
 40
3.0
 40
4.0
 40
4.0
 40
4.0
 40
4.0
 10
2915.513743627233
 20
-702.0790468459308
 10
2914.799043709469
 20
-708.0130397449047
 10
2915.167329198625
 20
-712.6598260133814
 10
2923.431615496646
 20
-712.5590422250606
 10
2931.033178914137
 20
-712.4663367955399
 10
2931.199521089036
 20
-708.2634766955634
 10
2931.169587325419
 20
-702.640860692265
 10
2931.13849503748
 20
-696.8000428948344
 10
2931.390474077949
 20
-691.9569728599781
 10
2923.033302309466
 20
-692.1022424167676
 10
2915.439018808336
 20
-692.2342359110334
 10
2914.830903128377
 20
-696.3313493549758
 10
2915.513743627233
 20
-702.0790468459308
 97
        0
 97
        1
330
7F
 92
        1
 93
        1
 72
     4
 94
        3
 73
     0
 74
     0
 95
       26
 96
       22
 40
0.0
 40
0.0
 40
0.0
 40
0.0
 40
1.0
 40
1.0
 40
1.0
 40
2.0
 40
2.0
 40
2.0
 40
3.0
 40
3.0
 40
3.0
 40
4.0
 40
4.0
 40
4.0
 40
5.0
 40
5.0
 40
5.0
 40
6.0
 40
6.0
 40
6.0
 40
7.0
 40
7.0
 40
7.0
 40
7.0
 10
2915.407801274525
 20
-737.6717164554811
 10
2915.407801274525
 20
-742.7980143760869
 10
2915.688868668965
 20
-747.9438819643274
 10
2915.333749652195
 20
-753.0454594807761
 10
2914.927326794748
 20
-758.8840463360956
 10
2917.312446574642
 20
-760.87053981413
 10
2923.04174075015
 20
-760.7882219641887
 10
2928.35055321899
 20
-760.711931571881
 10
2931.408086778823
 20
-759.654919027842
 10
2931.149547985764
 20
-753.4304652939608
 10
2930.781121594997
 20
-744.5603960203643
 10
2930.9185945962
 20
-735.6599233111301
 10
2931.120678812067
 20
-726.7788324007197
 10
2931.254504027222
 20
-720.8965190800372
 10
2931.489371350314
 20
-716.4501810032125
 10
2922.906021191169
 20
-716.5573601589167
 10
2914.683911440837
 20
-716.6599991517287
 10
2915.257380981215
 20
-721.0929359201563
 10
2915.380716854519
 20
-726.3942179808873
 10
2915.468138473776
 20
-730.1514845766796
 10
2915.397656358824
 20
-733.9124146142548
 10
2915.407801274525
 20
-737.6717164554811
 97
        0
 97
        1
330
80
 92
        1
 93
        1
 72
     4
 94
        3
 73
     0
 74
     0
 95
       26
 96
       22
 40
0.0
 40
0.0
 40
0.0
 40
0.0
 40
1.0
 40
1.0
 40
1.0
 40
2.0
 40
2.0
 40
2.0
 40
3.0
 40
3.0
 40
3.0
 40
4.0
 40
4.0
 40
4.0
 40
5.0
 40
5.0
 40
5.0
 40
6.0
 40
6.0
 40
6.0
 40
7.0
 40
7.0
 40
7.0
 40
7.0
 10
2915.402368734789
 20
-665.7402640881264
 10
2915.402368734789
 20
-670.4959359873246
 10
2915.661236298265
 20
-675.2694319398051
 10
2915.335221291198
 20
-680.002645688426
 10
2914.949229166765
 20
-685.6068975156158
 10
2916.855753154976
 20
-687.7980427499096
 10
2922.795523019834
 20
-687.7774084923548
 10
2928.719746740726
 20
-687.7568212020032
 10
2931.513136754688
 20
-686.4141541334284
 10
2931.181282158801
 20
-679.8582450248796
 10
2930.718201199617
 20
-670.7101612249917
 10
2930.79965798418
 20
-661.5101160436006
 10
2931.166550113003
 20
-652.3530849916697
 10
2931.406975221702
 20
-646.3523869235942
 10
2929.519519917633
 20
-643.7592415767412
 10
2923.165546295479
 20
-643.7524430742032
 10
2916.67006049272
 20
-643.7454919282608
 10
2914.903999750926
 20
-646.648867388265
 10
2915.336833831812
 20
-652.4970864339938
 10
2915.661893839099
 20
-656.8890051790604
 10
2915.401069308859
 20
-661.3242903076042
 10
2915.402368734789
 20
-665.7402640881264
 97
        0
 97
        1
330
81
 92
        1
 93
        1
 72
     4
 94
        3
 73
     0
 74
     0
 95
       59
 96
       55
 40
0.0
 40
0.0
 40
0.0
 40
0.0
 40
1.0
 40
1.0
 40
1.0
 40
2.0
 40
2.0
 40
2.0
 40
3.0
 40
3.0
 40
3.0
 40
4.0
 40
4.0
 40
4.0
 40
5.0
 40
5.0
 40
5.0
 40
6.0
 40
6.0
 40
6.0
 40
7.0
 40
7.0
 40
7.0
 40
8.0
 40
8.0
 40
8.0
 40
9.0
 40
9.0
 40
9.0
 40
10.0
 40
10.0
 40
10.0
 40
11.0
 40
11.0
 40
11.0
 40
12.0
 40
12.0
 40
12.0
 40
13.0
 40
13.0
 40
13.0
 40
14.0
 40
14.0
 40
14.0
 40
15.0
 40
15.0
 40
15.0
 40
16.0
 40
16.0
 40
16.0
 40
17.0
 40
17.0
 40
17.0
 40
18.0
 40
18.0
 40
18.0
 40
18.0
 10
2924.39485019338
 20
-633.7891769411108
 10
2930.042734551525
 20
-634.4839197118235
 10
2936.606463699261
 20
-634.6609430113167
 10
2942.834893989608
 20
-636.197279338674
 10
2953.627362165799
 20
-638.8593999360746
 10
2955.441078962218
 20
-646.3014627344746
 10
2947.768563757747
 20
-654.041344562811
 10
2945.021342503665
 20
-656.812683475282
 10
2940.189982957921
 20
-657.8690306506214
 10
2940.247486469305
 20
-663.01121131348
 10
2940.342798578551
 20
-671.5359542319893
 10
2940.163415177142
 20
-680.0754683356299
 10
2940.644891623901
 20
-688.577901833034
 10
2940.815914863297
 20
-691.5984174095683
 10
2944.642520705455
 20
-691.8761657883806
 10
2946.760898087616
 20
-693.4564555892466
 10
2954.104455007005
 20
-698.9346709290003
 10
2954.631270459742
 20
-706.5676319212471
 10
2946.727300882218
 20
-710.6014805436589
 10
2940.35537013304
 20
-713.8534583211148
 10
2939.959921945205
 20
-718.1776503604287
 10
2940.141669362465
 20
-723.8468578284336
 10
2940.478893875154
 20
-734.3660864772373
 10
2937.804769243625
 20
-745.0238996843673
 10
2949.316665369284
 20
-752.937685407176
 10
2956.01556612531
 20
-757.5427882835902
 10
2952.783064081085
 20
-765.5738511106028
 10
2944.018921504465
 20
-767.8664924691202
 10
2930.610818519372
 20
-771.3739405157503
 10
2917.01732033097
 20
-771.3933849375134
 10
2903.518437571651
 20
-768.1285224908861
 10
2899.5869069995
 20
-767.1776401683673
 10
2895.223951362537
 20
-766.2002057207992
 10
2894.379574999153
 20
-761.216719406726
 10
2893.551034410821
 20
-756.3266508580782
 10
2896.038566175381
 20
-752.8078524042175
 10
2899.646218748172
 20
-749.7437904032612
 10
2905.234376480695
 20
-744.9976450182675
 10
2910.589295086482
 20
-718.9988092701296
 10
2905.218971238335
 20
-715.3090501998104
 10
2891.265250263843
 20
-705.721901336863
 10
2890.408059682092
 20
-698.7777378503015
 10
2905.203902594256
 20
-689.3288056359251
 10
2910.164601987336
 20
-686.160789560492
 10
2905.42754475599
 20
-659.7414564499449
 10
2900.388535380904
 20
-655.5325688923367
 10
2896.535854913591
 20
-652.3145875414975
 10
2893.487057253389
 20
-648.7588650387443
 10
2894.355551275165
 20
-643.3681965641226
 10
2895.339545475325
 20
-637.2606872500965
 10
2900.818707986991
 20
-636.6370293401014
 10
2905.242720986977
 20
-635.7368441985563
 10
2911.216589040725
 20
-634.521289949138
 10
2917.42101909068
 20
-634.4387568328547
 10
2924.39485019338
 20
-633.7891769411108
 97
        0
 97
        1
330
82
 75
     2
 76
     1
 98
        1
 10
0.0
 20
0.0
450
        0
451
        0
460
0.0
461
0.0
452
        0
462
0.0
453
        0
470

  0
SPLINE
  5
84
330
70
100
AcDbEntity
  8
Layer 1
100
AcDbSpline
210
0.0
220
0.0
230
1.0
 70
     9
 71
     3
 72
    17
 73
    13
 74
     0
 42
0.0000000001
 43
0.0000000001
 40
0.0
 40
0.0
 40
0.0
 40
0.0
 40
1.0
 40
1.0
 40
1.0
 40
2.0
 40
2.0
 40
2.0
 40
3.0
 40
3.0
 40
3.0
 40
4.0
 40
4.0
 40
4.0
 40
4.0
 10
2930.89324796268
 20
-875.0820007874208
 30
0.0
 10
2931.974714763395
 20
-869.4645355206448
 30
0.0
 10
2931.048865959713
 20
-864.8982901762865
 30
0.0
 10
2923.086140412083
 20
-864.9158245984873
 30
0.0
 10
2915.721573497516
 20
-864.9320126275542
 30
0.0
 10
2915.170710837194
 20
-869.2195859047897
 30
0.0
 10
2915.303549741098
 20
-874.9641444210556
 30
0.0
 10
2915.435793727111
 20
-880.6830588448537
 30
0.0
 10
2914.810347149492
 20
-885.6308657408936
 30
0.0
 10
2923.386934031502
 20
-885.476124464969
 30
0.0
 10
2931.064960054378
 20
-885.3375399066445
 30
0.0
 10
2931.629130088697
 20
-881.3865336012641
 30
0.0
 10
2930.89324796268
 20
-875.0820007874208
 30
0.0
  0
SPLINE
  5
85
330
70
100
AcDbEntity
  8
Layer 1
100
AcDbSpline
210
0.0
220
0.0
230
1.0
 70
     9
 71
     3
 72
    26
 73
    22
 74
     0
 42
0.0000000001
 43
0.0000000001
 40
0.0
 40
0.0
 40
0.0
 40
0.0
 40
1.0
 40
1.0
 40
1.0
 40
2.0
 40
2.0
 40
2.0
 40
3.0
 40
3.0
 40
3.0
 40
4.0
 40
4.0
 40
4.0
 40
5.0
 40
5.0
 40
5.0
 40
6.0
 40
6.0
 40
6.0
 40
7.0
 40
7.0
 40
7.0
 40
7.0
 10
2915.416975534712
 20
-839.2349881215505
 30
0.0
 10
2915.416975534712
 20
-844.3615991568385
 30
0.0
 10
2915.686254161372
 20
-849.506073384744
 30
0.0
 10
2915.347714567017
 20
-854.6102497530537
 30
0.0
 10
2914.939491300151
 20
-860.7647380112066
 30
0.0
 10
2918.593101280412
 20
-860.9689514069122
 30
0.0
 10
2923.135769089205
 20
-860.9012560126284
 30
0.0
 10
2927.485777434062
 20
-860.8364725848897
 30
0.0
 10
2931.327631961244
 20
-861.1120761281272
 30
0.0
 10
2931.127896105491
 20
-854.8024708564335
 30
0.0
 10
2930.825302076652
 20
-845.2425786265667
 30
0.0
 10
2930.801333147729
 20
-835.6556176324284
 30
0.0
 10
2931.165579457489
 20
-826.0994514672802
 30
0.0
 10
2931.40251333748
 20
-819.8837336330306
 30
0.0
 10
2930.041090699446
 20
-816.7453068950617
 30
0.0
 10
2922.813057442038
 20
-816.8312255638465
 30
0.0
 10
2915.745151033085
 20
-816.9152498888051
 30
0.0
 10
2915.083868480093
 20
-820.4907377558683
 30
0.0
 10
2915.354884893239
 20
-825.9079505276694
 30
0.0
 10
2915.576601399678
 20
-830.3399636077866
 30
0.0
 10
2915.400020374671
 20
-834.7918907816874
 30
0.0
 10
2915.416975534712
 20
-839.2349881215505
 30
0.0
  0
SPLINE
  5
86
330
70
100
AcDbEntity
  8
Layer 1
100
AcDbSpline
210
0.0
220
0.0
230
1.0
 70
     9
 71
     3
 72
    26
 73
    22
 74
     0
 42
0.0000000001
 43
0.0000000001
 40
0.0
 40
0.0
 40
0.0
 40
0.0
 40
1.0
 40
1.0
 40
1.0
 40
2.0
 40
2.0
 40
2.0
 40
3.0
 40
3.0
 40
3.0
 40
4.0
 40
4.0
 40
4.0
 40
5.0
 40
5.0
 40
5.0
 40
6.0
 40
6.0
 40
6.0
 40
7.0
 40
7.0
 40
7.0
 40
7.0
 10
2915.408020454803
 20
-911.2201944519675
 30
0.0
 10
2915.408020454803
 20
-916.3150400027499
 30
0.0
 10
2915.688806046031
 20
-921.429392598231
 30
0.0
 10
2915.336270225385
 20
-926.4997525808666
 30
0.0
 10
2914.90497040644
 20
-932.7028049262226
 30
0.0
 10
2918.22857316744
 20
-933.8322095847779
 30
0.0
 10
2923.435920823524
 20
-933.8969930125168
 30
0.0
 10
2929.049847894394
 20
-933.9668488981059
 30
0.0
 10
2931.365330968974
 20
-931.8855129828461
 30
0.0
 10
2931.152491263775
 20
-926.096116444094
 30
0.0
 10
2930.815830357517
 20
-916.9378251055677
 30
0.0
 10
2930.865756493588
 20
-907.7519796750111
 30
0.0
 10
2931.140733807462
 20
-898.5894612882749
 30
0.0
 10
2931.307890080532
 20
-893.0191824040994
 30
0.0
 10
2930.426237414236
 20
-889.9647173681515
 30
0.0
 10
2923.544759487044
 20
-889.8581644418118
 30
0.0
 10
2916.233015019361
 20
-889.7449734842103
 30
0.0
 10
2914.857048204338
 20
-892.8774353874851
 30
0.0
 10
2915.337976700403
 20
-898.9972618503216
 30
0.0
 10
2915.656320397755
 20
-903.0481204278439
 30
0.0
 10
2915.398298243921
 20
-907.1443180113401
 30
0.0
 10
2915.408020454803
 20
-911.2201944519675
 30
0.0
  0
SPLINE
  5
87
330
70
100
AcDbEntity
  8
Layer 1
100
AcDbSpline
210
0.0
220
0.0
230
1.0
 70
     9
 71
     3
 72
    59
 73
    55
 74
     0
 42
0.0000000001
 43
0.0000000001
 40
0.0
 40
0.0
 40
0.0
 40
0.0
 40
1.0
 40
1.0
 40
1.0
 40
2.0
 40
2.0
 40
2.0
 40
3.0
 40
3.0
 40
3.0
 40
4.0
 40
4.0
 40
4.0
 40
5.0
 40
5.0
 40
5.0
 40
6.0
 40
6.0
 40
6.0
 40
7.0
 40
7.0
 40
7.0
 40
8.0
 40
8.0
 40
8.0
 40
9.0
 40
9.0
 40
9.0
 40
10.0
 40
10.0
 40
10.0
 40
11.0
 40
11.0
 40
11.0
 40
12.0
 40
12.0
 40
12.0
 40
13.0
 40
13.0
 40
13.0
 40
14.0
 40
14.0
 40
14.0
 40
15.0
 40
15.0
 40
15.0
 40
16.0
 40
16.0
 40
16.0
 40
17.0
 40
17.0
 40
17.0
 40
18.0
 40
18.0
 40
18.0
 40
18.0
 10
2923.399552553192
 20
-943.2938464273812
 30
0.0
 10
2916.598513787847
 20
-942.767845072818
 30
0.0
 10
2909.721701269415
 20
-943.0633940213102
 30
0.0
 10
2903.0937209889
 20
-940.8948869785362
 30
0.0
 10
2899.484064482147
 20
-939.7139123318302
 30
0.0
 10
2895.552095549442
 20
-938.9090197298665
 30
0.0
 10
2894.51068394444
 20
-934.5976810482552
 30
0.0
 10
2893.432802306836
 20
-930.1354524013113
 30
0.0
 10
2895.140537611211
 20
-925.8556756796624
 30
0.0
 10
2898.932066781099
 20
-923.9532221823193
 30
0.0
 10
2908.765104603948
 20
-919.0193802011053
 30
0.0
 10
2906.05460387422
 20
-910.2922790913835
 30
0.0
 10
2906.216523304231
 20
-902.4607485955767
 30
0.0
 10
2906.373205891183
 20
-894.8819955826802
 30
0.0
 10
2907.810277036433
 20
-887.490453838247
 30
0.0
 10
2898.243050095136
 20
-882.6647929797182
 30
0.0
 10
2891.383278843283
 20
-879.2047504959665
 30
0.0
 10
2892.585607911313
 20
-871.3260649290278
 30
0.0
 10
2899.025883767741
 20
-867.7204241180715
 30
0.0
 10
2905.684306623231
 20
-863.9926372696027
 30
0.0
 10
2906.672911437081
 20
-859.2590321276311
 30
0.0
 10
2906.358779132204
 20
-852.6977139629471
 30
0.0
 10
2905.867502195894
 20
-842.4363665663696
 30
0.0
 10
2908.223243990733
 20
-832.0917463200713
 30
0.0
 10
2897.096839006017
 20
-824.5264102713063
 30
0.0
 10
2890.958977137487
 20
-820.3529986071862
 30
0.0
 10
2893.362265396815
 20
-812.7204368361599
 30
0.0
 10
2900.726307844287
 20
-810.4476156370237
 30
0.0
 10
2915.432913072035
 20
-805.9086269257477
 30
0.0
 10
2930.458644783839
 20
-805.983774449467
 30
0.0
 10
2945.197078119031
 20
-810.2415392089588
 30
0.0
 10
2953.511368831792
 20
-812.6434575915499
 30
0.0
 10
2955.499584440577
 20
-820.4718412847997
 30
0.0
 10
2948.35386903311
 20
-825.7716047393223
 30
0.0
 10
2934.795721492325
 20
-835.8272044782534
 30
0.0
 10
2941.770366693194
 20
-849.3487019454896
 30
0.0
 10
2940.568272461178
 20
-861.4530267055325
 30
0.0
 10
2940.245200732121
 20
-864.70619431878
 30
0.0
 10
2944.258344646178
 20
-865.0204675252663
 30
0.0
 10
2946.345222691313
 20
-866.5979392939917
 30
0.0
 10
2954.417193951549
 20
-872.6996051052628
 30
0.0
 10
2954.759616167959
 20
-879.3650025902971
 30
0.0
 10
2946.130441675085
 20
-884.363534064847
 30
0.0
 10
2941.011815064192
 20
-887.3285109246335
 30
0.0
 10
2939.927999903359
 20
-890.7067991648728
 30
0.0
 10
2940.111986090598
 20
-895.8768861737789
 30
0.0
 10
2940.510768949798
 20
-907.0815385175665
 30
0.0
 10
2937.639444691444
 20
-918.5220288399614
 30
0.0
 10
2949.759378218392
 20
-926.9293772362598
 30
0.0
 10
2955.33457300308
 20
-930.7967819215045
 30
0.0
 10
2952.844340624384
 20
-937.5633780718127
 30
0.0
 10
2945.665591617946
 20
-940.252845322766
 30
0.0
 10
2938.48934752897
 20
-942.9413732296724
 30
0.0
 10
2930.902015173781
 20
-942.8385150565828
 30
0.0
 10
2923.399552553192
 20
-943.2938464273812
 30
0.0
  0
HATCH
  5
88
330
70
100
AcDbEntity
  8
Layer 1
 62
   118
420
  1005869
440
 33554687
100
AcDbHatch
 10
0.0
 20
0.0
 30
0.0
210
0.0
220
0.0
230
1.0
  2
SOLID
 70
     1
 71
     1
 91
        4
 92
        1
 93
        1
 72
     4
 94
        3
 73
     0
 74
     0
 95
       17
 96
       13
 40
0.0
 40
0.0
 40
0.0
 40
0.0
 40
1.0
 40
1.0
 40
1.0
 40
2.0
 40
2.0
 40
2.0
 40
3.0
 40
3.0
 40
3.0
 40
4.0
 40
4.0
 40
4.0
 40
4.0
 10
2930.89324796268
 20
-875.0820007874208
 10
2931.974714763395
 20
-869.4645355206448
 10
2931.048865959713
 20
-864.8982901762865
 10
2923.086140412083
 20
-864.9158245984873
 10
2915.721573497516
 20
-864.9320126275542
 10
2915.170710837194
 20
-869.2195859047897
 10
2915.303549741098
 20
-874.9641444210556
 10
2915.435793727111
 20
-880.6830588448537
 10
2914.810347149492
 20
-885.6308657408936
 10
2923.386934031502
 20
-885.476124464969
 10
2931.064960054378
 20
-885.3375399066445
 10
2931.629130088697
 20
-881.3865336012641
 10
2930.89324796268
 20
-875.0820007874208
 97
        0
 97
        1
330
84
 92
        1
 93
        1
 72
     4
 94
        3
 73
     0
 74
     0
 95
       26
 96
       22
 40
0.0
 40
0.0
 40
0.0
 40
0.0
 40
1.0
 40
1.0
 40
1.0
 40
2.0
 40
2.0
 40
2.0
 40
3.0
 40
3.0
 40
3.0
 40
4.0
 40
4.0
 40
4.0
 40
5.0
 40
5.0
 40
5.0
 40
6.0
 40
6.0
 40
6.0
 40
7.0
 40
7.0
 40
7.0
 40
7.0
 10
2915.416975534712
 20
-839.2349881215505
 10
2915.416975534712
 20
-844.3615991568385
 10
2915.686254161372
 20
-849.506073384744
 10
2915.347714567017
 20
-854.6102497530537
 10
2914.939491300151
 20
-860.7647380112066
 10
2918.593101280412
 20
-860.9689514069122
 10
2923.135769089205
 20
-860.9012560126284
 10
2927.485777434062
 20
-860.8364725848897
 10
2931.327631961244
 20
-861.1120761281272
 10
2931.127896105491
 20
-854.8024708564335
 10
2930.825302076652
 20
-845.2425786265667
 10
2930.801333147729
 20
-835.6556176324284
 10
2931.165579457489
 20
-826.0994514672802
 10
2931.40251333748
 20
-819.8837336330306
 10
2930.041090699446
 20
-816.7453068950617
 10
2922.813057442038
 20
-816.8312255638465
 10
2915.745151033085
 20
-816.9152498888051
 10
2915.083868480093
 20
-820.4907377558683
 10
2915.354884893239
 20
-825.9079505276694
 10
2915.576601399678
 20
-830.3399636077866
 10
2915.400020374671
 20
-834.7918907816874
 10
2915.416975534712
 20
-839.2349881215505
 97
        0
 97
        1
330
85
 92
        1
 93
        1
 72
     4
 94
        3
 73
     0
 74
     0
 95
       26
 96
       22
 40
0.0
 40
0.0
 40
0.0
 40
0.0
 40
1.0
 40
1.0
 40
1.0
 40
2.0
 40
2.0
 40
2.0
 40
3.0
 40
3.0
 40
3.0
 40
4.0
 40
4.0
 40
4.0
 40
5.0
 40
5.0
 40
5.0
 40
6.0
 40
6.0
 40
6.0
 40
7.0
 40
7.0
 40
7.0
 40
7.0
 10
2915.408020454803
 20
-911.2201944519675
 10
2915.408020454803
 20
-916.3150400027499
 10
2915.688806046031
 20
-921.429392598231
 10
2915.336270225385
 20
-926.4997525808666
 10
2914.90497040644
 20
-932.7028049262226
 10
2918.22857316744
 20
-933.8322095847779
 10
2923.435920823524
 20
-933.8969930125168
 10
2929.049847894394
 20
-933.9668488981059
 10
2931.365330968974
 20
-931.8855129828461
 10
2931.152491263775
 20
-926.096116444094
 10
2930.815830357517
 20
-916.9378251055677
 10
2930.865756493588
 20
-907.7519796750111
 10
2931.140733807462
 20
-898.5894612882749
 10
2931.307890080532
 20
-893.0191824040994
 10
2930.426237414236
 20
-889.9647173681515
 10
2923.544759487044
 20
-889.8581644418118
 10
2916.233015019361
 20
-889.7449734842103
 10
2914.857048204338
 20
-892.8774353874851
 10
2915.337976700403
 20
-898.9972618503216
 10
2915.656320397755
 20
-903.0481204278439
 10
2915.398298243921
 20
-907.1443180113401
 10
2915.408020454803
 20
-911.2201944519675
 97
        0
 97
        1
330
86
 92
        1
 93
        1
 72
     4
 94
        3
 73
     0
 74
     0
 95
       59
 96
       55
 40
0.0
 40
0.0
 40
0.0
 40
0.0
 40
1.0
 40
1.0
 40
1.0
 40
2.0
 40
2.0
 40
2.0
 40
3.0
 40
3.0
 40
3.0
 40
4.0
 40
4.0
 40
4.0
 40
5.0
 40
5.0
 40
5.0
 40
6.0
 40
6.0
 40
6.0
 40
7.0
 40
7.0
 40
7.0
 40
8.0
 40
8.0
 40
8.0
 40
9.0
 40
9.0
 40
9.0
 40
10.0
 40
10.0
 40
10.0
 40
11.0
 40
11.0
 40
11.0
 40
12.0
 40
12.0
 40
12.0
 40
13.0
 40
13.0
 40
13.0
 40
14.0
 40
14.0
 40
14.0
 40
15.0
 40
15.0
 40
15.0
 40
16.0
 40
16.0
 40
16.0
 40
17.0
 40
17.0
 40
17.0
 40
18.0
 40
18.0
 40
18.0
 40
18.0
 10
2923.399552553192
 20
-943.2938464273812
 10
2916.598513787847
 20
-942.767845072818
 10
2909.721701269415
 20
-943.0633940213102
 10
2903.0937209889
 20
-940.8948869785362
 10
2899.484064482147
 20
-939.7139123318302
 10
2895.552095549442
 20
-938.9090197298665
 10
2894.51068394444
 20
-934.5976810482552
 10
2893.432802306836
 20
-930.1354524013113
 10
2895.140537611211
 20
-925.8556756796624
 10
2898.932066781099
 20
-923.9532221823193
 10
2908.765104603948
 20
-919.0193802011053
 10
2906.05460387422
 20
-910.2922790913835
 10
2906.216523304231
 20
-902.4607485955767
 10
2906.373205891183
 20
-894.8819955826802
 10
2907.810277036433
 20
-887.490453838247
 10
2898.243050095136
 20
-882.6647929797182
 10
2891.383278843283
 20
-879.2047504959665
 10
2892.585607911313
 20
-871.3260649290278
 10
2899.025883767741
 20
-867.7204241180715
 10
2905.684306623231
 20
-863.9926372696027
 10
2906.672911437081
 20
-859.2590321276311
 10
2906.358779132204
 20
-852.6977139629471
 10
2905.867502195894
 20
-842.4363665663696
 10
2908.223243990733
 20
-832.0917463200713
 10
2897.096839006017
 20
-824.5264102713063
 10
2890.958977137487
 20
-820.3529986071862
 10
2893.362265396815
 20
-812.7204368361599
 10
2900.726307844287
 20
-810.4476156370237
 10
2915.432913072035
 20
-805.9086269257477
 10
2930.458644783839
 20
-805.983774449467
 10
2945.197078119031
 20
-810.2415392089588
 10
2953.511368831792
 20
-812.6434575915499
 10
2955.499584440577
 20
-820.4718412847997
 10
2948.35386903311
 20
-825.7716047393223
 10
2934.795721492325
 20
-835.8272044782534
 10
2941.770366693194
 20
-849.3487019454896
 10
2940.568272461178
 20
-861.4530267055325
 10
2940.245200732121
 20
-864.70619431878
 10
2944.258344646178
 20
-865.0204675252663
 10
2946.345222691313
 20
-866.5979392939917
 10
2954.417193951549
 20
-872.6996051052628
 10
2954.759616167959
 20
-879.3650025902971
 10
2946.130441675085
 20
-884.363534064847
 10
2941.011815064192
 20
-887.3285109246335
 10
2939.927999903359
 20
-890.7067991648728
 10
2940.111986090598
 20
-895.8768861737789
 10
2940.510768949798
 20
-907.0815385175665
 10
2937.639444691444
 20
-918.5220288399614
 10
2949.759378218392
 20
-926.9293772362598
 10
2955.33457300308
 20
-930.7967819215045
 10
2952.844340624384
 20
-937.5633780718127
 10
2945.665591617946
 20
-940.252845322766
 10
2938.48934752897
 20
-942.9413732296724
 10
2930.902015173781
 20
-942.8385150565828
 10
2923.399552553192
 20
-943.2938464273812
 97
        0
 97
        1
330
87
 75
     2
 76
     1
 98
        1
 10
0.0
 20
0.0
450
        0
451
        0
460
0.0
461
0.0
452
        0
462
0.0
453
        0
470

  0
SPLINE
  5
89
330
70
100
AcDbEntity
  8
Layer 1
100
AcDbSpline
210
0.0
220
0.0
230
1.0
 70
     9
 71
     3
 72
    17
 73
    13
 74
     0
 42
0.0000000001
 43
0.0000000001
 40
0.0
 40
0.0
 40
0.0
 40
0.0
 40
1.0
 40
1.0
 40
1.0
 40
2.0
 40
2.0
 40
2.0
 40
3.0
 40
3.0
 40
3.0
 40
4.0
 40
4.0
 40
4.0
 40
4.0
 10
2763.115729797866
 20
-702.0790468459308
 30
0.0
 10
2762.401029880099
 20
-708.0130397449047
 30
0.0
 10
2762.769315369258
 20
-712.6598260133814
 30
0.0
 10
2771.033601667279
 20
-712.5590422250606
 30
0.0
 10
2778.63516508477
 20
-712.4663367955399
 30
0.0
 10
2778.801507259667
 20
-708.2634766955634
 30
0.0
 10
2778.771573496053
 20
-702.640860692265
 30
0.0
 10
2778.740481208113
 20
-696.8000428948344
 30
0.0
 10
2778.992460248583
 20
-691.9569728599781
 30
0.0
 10
2770.6352884801
 20
-692.1022424167676
 30
0.0
 10
2763.04100497897
 20
-692.2342359110334
 30
0.0
 10
2762.432889299011
 20
-696.3313493549758
 30
0.0
 10
2763.115729797866
 20
-702.0790468459308
 30
0.0
  0
SPLINE
  5
8A
330
70
100
AcDbEntity
  8
Layer 1
100
AcDbSpline
210
0.0
220
0.0
230
1.0
 70
     9
 71
     3
 72
    26
 73
    22
 74
     0
 42
0.0000000001
 43
0.0000000001
 40
0.0
 40
0.0
 40
0.0
 40
0.0
 40
1.0
 40
1.0
 40
1.0
 40
2.0
 40
2.0
 40
2.0
 40
3.0
 40
3.0
 40
3.0
 40
4.0
 40
4.0
 40
4.0
 40
5.0
 40
5.0
 40
5.0
 40
6.0
 40
6.0
 40
6.0
 40
7.0
 40
7.0
 40
7.0
 40
7.0
 10
2763.009787445159
 20
-737.6717164554811
 30
0.0
 10
2763.009787445159
 20
-742.7980143760869
 30
0.0
 10
2763.290854839599
 20
-747.9438819643274
 30
0.0
 10
2762.935735822825
 20
-753.0454594807761
 30
0.0
 10
2762.529312965382
 20
-758.8840463360956
 30
0.0
 10
2764.914432745273
 20
-760.87053981413
 30
0.0
 10
2770.643726920784
 20
-760.7882219641887
 30
0.0
 10
2775.95253938962
 20
-760.711931571881
 30
0.0
 10
2779.010072949458
 20
-759.654919027842
 30
0.0
 10
2778.751534156394
 20
-753.4304652939608
 30
0.0
 10
2778.383107765631
 20
-744.5603960203643
 30
0.0
 10
2778.520580766834
 20
-735.6599233111301
 30
0.0
 10
2778.722664982701
 20
-726.7788324007197
 30
0.0
 10
2778.856490197855
 20
-720.8965190800372
 30
0.0
 10
2779.091357520947
 20
-716.4501810032125
 30
0.0
 10
2770.508007361803
 20
-716.5573601589167
 30
0.0
 10
2762.285897611472
 20
-716.6599991517287
 30
0.0
 10
2762.859367151849
 20
-721.0929359201563
 30
0.0
 10
2762.982703025149
 20
-726.3942179808873
 30
0.0
 10
2763.07012464441
 20
-730.1514845766796
 30
0.0
 10
2762.999642529454
 20
-733.9124146142548
 30
0.0
 10
2763.009787445159
 20
-737.6717164554811
 30
0.0
  0
SPLINE
  5
8B
330
70
100
AcDbEntity
  8
Layer 1
100
AcDbSpline
210
0.0
220
0.0
230
1.0
 70
     9
 71
     3
 72
    26
 73
    22
 74
     0
 42
0.0000000001
 43
0.0000000001
 40
0.0
 40
0.0
 40
0.0
 40
0.0
 40
1.0
 40
1.0
 40
1.0
 40
2.0
 40
2.0
 40
2.0
 40
3.0
 40
3.0
 40
3.0
 40
4.0
 40
4.0
 40
4.0
 40
5.0
 40
5.0
 40
5.0
 40
6.0
 40
6.0
 40
6.0
 40
7.0
 40
7.0
 40
7.0
 40
7.0
 10
2763.004354905423
 20
-665.7402640881264
 30
0.0
 10
2763.004354905423
 20
-670.4959359873246
 30
0.0
 10
2763.263222468899
 20
-675.2694319398051
 30
0.0
 10
2762.937207461832
 20
-680.002645688426
 30
0.0
 10
2762.551215337399
 20
-685.6068975156158
 30
0.0
 10
2764.457739325606
 20
-687.7980427499096
 30
0.0
 10
2770.397509190467
 20
-687.7774084923548
 30
0.0
 10
2776.321732911356
 20
-687.7568212020032
 30
0.0
 10
2779.115122925321
 20
-686.4141541334284
 30
0.0
 10
2778.783268329431
 20
-679.8582450248796
 30
0.0
 10
2778.320187370251
 20
-670.7101612249917
 30
0.0
 10
2778.401644154814
 20
-661.5101160436006
 30
0.0
 10
2778.768536283636
 20
-652.3530849916697
 30
0.0
 10
2779.008961392332
 20
-646.3523869235942
 30
0.0
 10
2777.121506088266
 20
-643.7592415767412
 30
0.0
 10
2770.767532466113
 20
-643.7524430742032
 30
0.0
 10
2764.272046663353
 20
-643.7454919282608
 30
0.0
 10
2762.50598592156
 20
-646.648867388265
 30
0.0
 10
2762.938820002446
 20
-652.4970864339938
 30
0.0
 10
2763.263880009732
 20
-656.8890051790604
 30
0.0
 10
2763.003055479492
 20
-661.3242903076042
 30
0.0
 10
2763.004354905423
 20
-665.7402640881264
 30
0.0
  0
SPLINE
  5
8C
330
70
100
AcDbEntity
  8
Layer 1
100
AcDbSpline
210
0.0
220
0.0
230
1.0
 70
     9
 71
     3
 72
    59
 73
    55
 74
     0
 42
0.0000000001
 43
0.0000000001
 40
0.0
 40
0.0
 40
0.0
 40
0.0
 40
1.0
 40
1.0
 40
1.0
 40
2.0
 40
2.0
 40
2.0
 40
3.0
 40
3.0
 40
3.0
 40
4.0
 40
4.0
 40
4.0
 40
5.0
 40
5.0
 40
5.0
 40
6.0
 40
6.0
 40
6.0
 40
7.0
 40
7.0
 40
7.0
 40
8.0
 40
8.0
 40
8.0
 40
9.0
 40
9.0
 40
9.0
 40
10.0
 40
10.0
 40
10.0
 40
11.0
 40
11.0
 40
11.0
 40
12.0
 40
12.0
 40
12.0
 40
13.0
 40
13.0
 40
13.0
 40
14.0
 40
14.0
 40
14.0
 40
15.0
 40
15.0
 40
15.0
 40
16.0
 40
16.0
 40
16.0
 40
17.0
 40
17.0
 40
17.0
 40
18.0
 40
18.0
 40
18.0
 40
18.0
 10
2771.996836364009
 20
-633.7891769411108
 30
0.0
 10
2777.644720722159
 20
-634.4839197118235
 30
0.0
 10
2784.208449869896
 20
-634.6609430113167
 30
0.0
 10
2790.436880160238
 20
-636.197279338674
 30
0.0
 10
2801.229348336432
 20
-638.8593999360746
 30
0.0
 10
2803.043065132848
 20
-646.3014627344746
 30
0.0
 10
2795.370549928377
 20
-654.041344562811
 30
0.0
 10
2792.623328674299
 20
-656.812683475282
 30
0.0
 10
2787.791969128555
 20
-657.8690306506214
 30
0.0
 10
2787.849472639935
 20
-663.01121131348
 30
0.0
 10
2787.944784749185
 20
-671.5359542319893
 30
0.0
 10
2787.765401347775
 20
-680.0754683356299
 30
0.0
 10
2788.246877794534
 20
-688.577901833034
 30
0.0
 10
2788.41790103393
 20
-691.5984174095683
 30
0.0
 10
2792.244506876088
 20
-691.8761657883806
 30
0.0
 10
2794.362884258246
 20
-693.4564555892466
 30
0.0
 10
2801.706441177639
 20
-698.9346709290003
 30
0.0
 10
2802.233256630376
 20
-706.5676319212471
 30
0.0
 10
2794.329287052851
 20
-710.6014805436589
 30
0.0
 10
2787.957356303674
 20
-713.8534583211148
 30
0.0
 10
2787.561908115839
 20
-718.1776503604287
 30
0.0
 10
2787.743655533099
 20
-723.8468578284336
 30
0.0
 10
2788.080880045787
 20
-734.3660864772373
 30
0.0
 10
2785.406755414259
 20
-745.0238996843673
 30
0.0
 10
2796.918651539918
 20
-752.937685407176
 30
0.0
 10
2803.617552295944
 20
-757.5427882835902
 30
0.0
 10
2800.385050251718
 20
-765.5738511106028
 30
0.0
 10
2791.620907675095
 20
-767.8664924691202
 30
0.0
 10
2778.212804690005
 20
-771.3739405157503
 30
0.0
 10
2764.619306501603
 20
-771.3933849375134
 30
0.0
 10
2751.120423742285
 20
-768.1285224908861
 30
0.0
 10
2747.188893170135
 20
-767.1776401683673
 30
0.0
 10
2742.825937533171
 20
-766.2002057207992
 30
0.0
 10
2741.981561169787
 20
-761.216719406726
 30
0.0
 10
2741.153020581451
 20
-756.3266508580782
 30
0.0
 10
2743.640552346015
 20
-752.8078524042175
 30
0.0
 10
2747.248204918802
 20
-749.7437904032612
 30
0.0
 10
2752.83636265133
 20
-744.9976450182675
 30
0.0
 10
2758.191281257115
 20
-718.9988092701296
 30
0.0
 10
2752.820957408969
 20
-715.3090501998104
 30
0.0
 10
2738.867236434477
 20
-705.721901336863
 30
0.0
 10
2738.010045852725
 20
-698.7777378503015
 30
0.0
 10
2752.80588876489
 20
-689.3288056359251
 30
0.0
 10
2757.766588157969
 20
-686.160789560492
 30
0.0
 10
2753.029530926621
 20
-659.7414564499449
 30
0.0
 10
2747.990521551538
 20
-655.5325688923367
 30
0.0
 10
2744.137841084221
 20
-652.3145875414975
 30
0.0
 10
2741.089043424019
 20
-648.7588650387443
 30
0.0
 10
2741.957537445798
 20
-643.3681965641226
 30
0.0
 10
2742.941531645954
 20
-637.2606872500965
 30
0.0
 10
2748.420694157621
 20
-636.6370293401014
 30
0.0
 10
2752.84470715761
 20
-635.7368441985563
 30
0.0
 10
2758.818575211355
 20
-634.521289949138
 30
0.0
 10
2765.023005261313
 20
-634.4387568328547
 30
0.0
 10
2771.996836364009
 20
-633.7891769411108
 30
0.0
  0
HATCH
  5
8D
330
70
100
AcDbEntity
  8
Layer 1
 62
   118
420
  1005869
440
 33554687
100
AcDbHatch
 10
0.0
 20
0.0
 30
0.0
210
0.0
220
0.0
230
1.0
  2
SOLID
 70
     1
 71
     1
 91
        4
 92
        1
 93
        1
 72
     4
 94
        3
 73
     0
 74
     0
 95
       17
 96
       13
 40
0.0
 40
0.0
 40
0.0
 40
0.0
 40
1.0
 40
1.0
 40
1.0
 40
2.0
 40
2.0
 40
2.0
 40
3.0
 40
3.0
 40
3.0
 40
4.0
 40
4.0
 40
4.0
 40
4.0
 10
2763.115729797866
 20
-702.0790468459308
 10
2762.401029880099
 20
-708.0130397449047
 10
2762.769315369258
 20
-712.6598260133814
 10
2771.033601667279
 20
-712.5590422250606
 10
2778.63516508477
 20
-712.4663367955399
 10
2778.801507259667
 20
-708.2634766955634
 10
2778.771573496053
 20
-702.640860692265
 10
2778.740481208113
 20
-696.8000428948344
 10
2778.992460248583
 20
-691.9569728599781
 10
2770.6352884801
 20
-692.1022424167676
 10
2763.04100497897
 20
-692.2342359110334
 10
2762.432889299011
 20
-696.3313493549758
 10
2763.115729797866
 20
-702.0790468459308
 97
        0
 97
        1
330
89
 92
        1
 93
        1
 72
     4
 94
        3
 73
     0
 74
     0
 95
       26
 96
       22
 40
0.0
 40
0.0
 40
0.0
 40
0.0
 40
1.0
 40
1.0
 40
1.0
 40
2.0
 40
2.0
 40
2.0
 40
3.0
 40
3.0
 40
3.0
 40
4.0
 40
4.0
 40
4.0
 40
5.0
 40
5.0
 40
5.0
 40
6.0
 40
6.0
 40
6.0
 40
7.0
 40
7.0
 40
7.0
 40
7.0
 10
2763.009787445159
 20
-737.6717164554811
 10
2763.009787445159
 20
-742.7980143760869
 10
2763.290854839599
 20
-747.9438819643274
 10
2762.935735822825
 20
-753.0454594807761
 10
2762.529312965382
 20
-758.8840463360956
 10
2764.914432745273
 20
-760.87053981413
 10
2770.643726920784
 20
-760.7882219641887
 10
2775.95253938962
 20
-760.711931571881
 10
2779.010072949458
 20
-759.654919027842
 10
2778.751534156394
 20
-753.4304652939608
 10
2778.383107765631
 20
-744.5603960203643
 10
2778.520580766834
 20
-735.6599233111301
 10
2778.722664982701
 20
-726.7788324007197
 10
2778.856490197855
 20
-720.8965190800372
 10
2779.091357520947
 20
-716.4501810032125
 10
2770.508007361803
 20
-716.5573601589167
 10
2762.285897611472
 20
-716.6599991517287
 10
2762.859367151849
 20
-721.0929359201563
 10
2762.982703025149
 20
-726.3942179808873
 10
2763.07012464441
 20
-730.1514845766796
 10
2762.999642529454
 20
-733.9124146142548
 10
2763.009787445159
 20
-737.6717164554811
 97
        0
 97
        1
330
8A
 92
        1
 93
        1
 72
     4
 94
        3
 73
     0
 74
     0
 95
       26
 96
       22
 40
0.0
 40
0.0
 40
0.0
 40
0.0
 40
1.0
 40
1.0
 40
1.0
 40
2.0
 40
2.0
 40
2.0
 40
3.0
 40
3.0
 40
3.0
 40
4.0
 40
4.0
 40
4.0
 40
5.0
 40
5.0
 40
5.0
 40
6.0
 40
6.0
 40
6.0
 40
7.0
 40
7.0
 40
7.0
 40
7.0
 10
2763.004354905423
 20
-665.7402640881264
 10
2763.004354905423
 20
-670.4959359873246
 10
2763.263222468899
 20
-675.2694319398051
 10
2762.937207461832
 20
-680.002645688426
 10
2762.551215337399
 20
-685.6068975156158
 10
2764.457739325606
 20
-687.7980427499096
 10
2770.397509190467
 20
-687.7774084923548
 10
2776.321732911356
 20
-687.7568212020032
 10
2779.115122925321
 20
-686.4141541334284
 10
2778.783268329431
 20
-679.8582450248796
 10
2778.320187370251
 20
-670.7101612249917
 10
2778.401644154814
 20
-661.5101160436006
 10
2778.768536283636
 20
-652.3530849916697
 10
2779.008961392332
 20
-646.3523869235942
 10
2777.121506088266
 20
-643.7592415767412
 10
2770.767532466113
 20
-643.7524430742032
 10
2764.272046663353
 20
-643.7454919282608
 10
2762.50598592156
 20
-646.648867388265
 10
2762.938820002446
 20
-652.4970864339938
 10
2763.263880009732
 20
-656.8890051790604
 10
2763.003055479492
 20
-661.3242903076042
 10
2763.004354905423
 20
-665.7402640881264
 97
        0
 97
        1
330
8B
 92
        1
 93
        1
 72
     4
 94
        3
 73
     0
 74
     0
 95
       59
 96
       55
 40
0.0
 40
0.0
 40
0.0
 40
0.0
 40
1.0
 40
1.0
 40
1.0
 40
2.0
 40
2.0
 40
2.0
 40
3.0
 40
3.0
 40
3.0
 40
4.0
 40
4.0
 40
4.0
 40
5.0
 40
5.0
 40
5.0
 40
6.0
 40
6.0
 40
6.0
 40
7.0
 40
7.0
 40
7.0
 40
8.0
 40
8.0
 40
8.0
 40
9.0
 40
9.0
 40
9.0
 40
10.0
 40
10.0
 40
10.0
 40
11.0
 40
11.0
 40
11.0
 40
12.0
 40
12.0
 40
12.0
 40
13.0
 40
13.0
 40
13.0
 40
14.0
 40
14.0
 40
14.0
 40
15.0
 40
15.0
 40
15.0
 40
16.0
 40
16.0
 40
16.0
 40
17.0
 40
17.0
 40
17.0
 40
18.0
 40
18.0
 40
18.0
 40
18.0
 10
2771.996836364009
 20
-633.7891769411108
 10
2777.644720722159
 20
-634.4839197118235
 10
2784.208449869896
 20
-634.6609430113167
 10
2790.436880160238
 20
-636.197279338674
 10
2801.229348336432
 20
-638.8593999360746
 10
2803.043065132848
 20
-646.3014627344746
 10
2795.370549928377
 20
-654.041344562811
 10
2792.623328674299
 20
-656.812683475282
 10
2787.791969128555
 20
-657.8690306506214
 10
2787.849472639935
 20
-663.01121131348
 10
2787.944784749185
 20
-671.5359542319893
 10
2787.765401347775
 20
-680.0754683356299
 10
2788.246877794534
 20
-688.577901833034
 10
2788.41790103393
 20
-691.5984174095683
 10
2792.244506876088
 20
-691.8761657883806
 10
2794.362884258246
 20
-693.4564555892466
 10
2801.706441177639
 20
-698.9346709290003
 10
2802.233256630376
 20
-706.5676319212471
 10
2794.329287052851
 20
-710.6014805436589
 10
2787.957356303674
 20
-713.8534583211148
 10
2787.561908115839
 20
-718.1776503604287
 10
2787.743655533099
 20
-723.8468578284336
 10
2788.080880045787
 20
-734.3660864772373
 10
2785.406755414259
 20
-745.0238996843673
 10
2796.918651539918
 20
-752.937685407176
 10
2803.617552295944
 20
-757.5427882835902
 10
2800.385050251718
 20
-765.5738511106028
 10
2791.620907675095
 20
-767.8664924691202
 10
2778.212804690005
 20
-771.3739405157503
 10
2764.619306501603
 20
-771.3933849375134
 10
2751.120423742285
 20
-768.1285224908861
 10
2747.188893170135
 20
-767.1776401683673
 10
2742.825937533171
 20
-766.2002057207992
 10
2741.981561169787
 20
-761.216719406726
 10
2741.153020581451
 20
-756.3266508580782
 10
2743.640552346015
 20
-752.8078524042175
 10
2747.248204918802
 20
-749.7437904032612
 10
2752.83636265133
 20
-744.9976450182675
 10
2758.191281257115
 20
-718.9988092701296
 10
2752.820957408969
 20
-715.3090501998104
 10
2738.867236434477
 20
-705.721901336863
 10
2738.010045852725
 20
-698.7777378503015
 10
2752.80588876489
 20
-689.3288056359251
 10
2757.766588157969
 20
-686.160789560492
 10
2753.029530926621
 20
-659.7414564499449
 10
2747.990521551538
 20
-655.5325688923367
 10
2744.137841084221
 20
-652.3145875414975
 10
2741.089043424019
 20
-648.7588650387443
 10
2741.957537445798
 20
-643.3681965641226
 10
2742.941531645954
 20
-637.2606872500965
 10
2748.420694157621
 20
-636.6370293401014
 10
2752.84470715761
 20
-635.7368441985563
 10
2758.818575211355
 20
-634.521289949138
 10
2765.023005261313
 20
-634.4387568328547
 10
2771.996836364009
 20
-633.7891769411108
 97
        0
 97
        1
330
8C
 75
     2
 76
     1
 98
        1
 10
0.0
 20
0.0
450
        0
451
        0
460
0.0
461
0.0
452
        0
462
0.0
453
        0
470

  0
SPLINE
  5
8E
330
70
100
AcDbEntity
  8
Layer 1
100
AcDbSpline
210
0.0
220
0.0
230
1.0
 70
     9
 71
     3
 72
    17
 73
    13
 74
     0
 42
0.0000000001
 43
0.0000000001
 40
0.0
 40
0.0
 40
0.0
 40
0.0
 40
1.0
 40
1.0
 40
1.0
 40
2.0
 40
2.0
 40
2.0
 40
3.0
 40
3.0
 40
3.0
 40
4.0
 40
4.0
 40
4.0
 40
4.0
 10
2778.495234133314
 20
-875.0820007874208
 30
0.0
 10
2779.576700934029
 20
-869.4645355206448
 30
0.0
 10
2778.650852130346
 20
-864.8982901762865
 30
0.0
 10
2770.688126582716
 20
-864.9158245984873
 30
0.0
 10
2763.32355966815
 20
-864.9320126275542
 30
0.0
 10
2762.772697007824
 20
-869.2195859047897
 30
0.0
 10
2762.905535911732
 20
-874.9641444210556
 30
0.0
 10
2763.037779897741
 20
-880.6830588448537
 30
0.0
 10
2762.412333320126
 20
-885.6308657408936
 30
0.0
 10
2770.988920202135
 20
-885.476124464969
 30
0.0
 10
2778.666946225009
 20
-885.3375399066445
 30
0.0
 10
2779.231116259327
 20
-881.3865336012641
 30
0.0
 10
2778.495234133314
 20
-875.0820007874208
 30
0.0
  0
SPLINE
  5
8F
330
70
100
AcDbEntity
  8
Layer 1
100
AcDbSpline
210
0.0
220
0.0
230
1.0
 70
     9
 71
     3
 72
    26
 73
    22
 74
     0
 42
0.0000000001
 43
0.0000000001
 40
0.0
 40
0.0
 40
0.0
 40
0.0
 40
1.0
 40
1.0
 40
1.0
 40
2.0
 40
2.0
 40
2.0
 40
3.0
 40
3.0
 40
3.0
 40
4.0
 40
4.0
 40
4.0
 40
5.0
 40
5.0
 40
5.0
 40
6.0
 40
6.0
 40
6.0
 40
7.0
 40
7.0
 40
7.0
 40
7.0
 10
2763.018961705346
 20
-839.2349881215505
 30
0.0
 10
2763.018961705346
 20
-844.3615991568385
 30
0.0
 10
2763.288240332002
 20
-849.506073384744
 30
0.0
 10
2762.94970073765
 20
-854.6102497530537
 30
0.0
 10
2762.541477470784
 20
-860.7647380112066
 30
0.0
 10
2766.195087451046
 20
-860.9689514069122
 30
0.0
 10
2770.737755259839
 20
-860.9012560126284
 30
0.0
 10
2775.087763604696
 20
-860.8364725848897
 30
0.0
 10
2778.929618131873
 20
-861.1120761281272
 30
0.0
 10
2778.729882276124
 20
-854.8024708564335
 30
0.0
 10
2778.427288247285
 20
-845.2425786265667
 30
0.0
 10
2778.403319318363
 20
-835.6556176324284
 30
0.0
 10
2778.767565628123
 20
-826.0994514672802
 30
0.0
 10
2779.004499508114
 20
-819.8837336330306
 30
0.0
 10
2777.643076870076
 20
-816.7453068950617
 30
0.0
 10
2770.415043612667
 20
-816.8312255638465
 30
0.0
 10
2763.347137203719
 20
-816.9152498888051
 30
0.0
 10
2762.685854650726
 20
-820.4907377558683
 30
0.0
 10
2762.956871063872
 20
-825.9079505276694
 30
0.0
 10
2763.178587570312
 20
-830.3399636077866
 30
0.0
 10
2763.002006545305
 20
-834.7918907816874
 30
0.0
 10
2763.018961705346
 20
-839.2349881215505
 30
0.0
  0
SPLINE
  5
90
330
70
100
AcDbEntity
  8
Layer 1
100
AcDbSpline
210
0.0
220
0.0
230
1.0
 70
     9
 71
     3
 72
    26
 73
    22
 74
     0
 42
0.0000000001
 43
0.0000000001
 40
0.0
 40
0.0
 40
0.0
 40
0.0
 40
1.0
 40
1.0
 40
1.0
 40
2.0
 40
2.0
 40
2.0
 40
3.0
 40
3.0
 40
3.0
 40
4.0
 40
4.0
 40
4.0
 40
5.0
 40
5.0
 40
5.0
 40
6.0
 40
6.0
 40
6.0
 40
7.0
 40
7.0
 40
7.0
 40
7.0
 10
2763.010006625437
 20
-911.2201944519675
 30
0.0
 10
2763.010006625437
 20
-916.3150400027499
 30
0.0
 10
2763.290792216662
 20
-921.429392598231
 30
0.0
 10
2762.938256396019
 20
-926.4997525808666
 30
0.0
 10
2762.506956577074
 20
-932.7028049262226
 30
0.0
 10
2765.830559338074
 20
-933.8322095847779
 30
0.0
 10
2771.037906994158
 20
-933.8969930125168
 30
0.0
 10
2776.651834065024
 20
-933.9668488981059
 30
0.0
 10
2778.967317139608
 20
-931.8855129828461
 30
0.0
 10
2778.754477434408
 20
-926.096116444094
 30
0.0
 10
2778.417816528147
 20
-916.9378251055677
 30
0.0
 10
2778.467742664218
 20
-907.7519796750111
 30
0.0
 10
2778.742719978092
 20
-898.5894612882749
 30
0.0
 10
2778.909876251162
 20
-893.0191824040994
 30
0.0
 10
2778.02822358487
 20
-889.9647173681515
 30
0.0
 10
2771.146745657678
 20
-889.8581644418118
 30
0.0
 10
2763.835001189991
 20
-889.7449734842103
 30
0.0
 10
2762.459034374968
 20
-892.8774353874851
 30
0.0
 10
2762.939962871033
 20
-898.9972618503216
 30
0.0
 10
2763.258306568389
 20
-903.0481204278439
 30
0.0
 10
2763.000284414551
 20
-907.1443180113401
 30
0.0
 10
2763.010006625437
 20
-911.2201944519675
 30
0.0
  0
SPLINE
  5
91
330
70
100
AcDbEntity
  8
Layer 1
100
AcDbSpline
210
0.0
220
0.0
230
1.0
 70
     9
 71
     3
 72
    59
 73
    55
 74
     0
 42
0.0000000001
 43
0.0000000001
 40
0.0
 40
0.0
 40
0.0
 40
0.0
 40
1.0
 40
1.0
 40
1.0
 40
2.0
 40
2.0
 40
2.0
 40
3.0
 40
3.0
 40
3.0
 40
4.0
 40
4.0
 40
4.0
 40
5.0
 40
5.0
 40
5.0
 40
6.0
 40
6.0
 40
6.0
 40
7.0
 40
7.0
 40
7.0
 40
8.0
 40
8.0
 40
8.0
 40
9.0
 40
9.0
 40
9.0
 40
10.0
 40
10.0
 40
10.0
 40
11.0
 40
11.0
 40
11.0
 40
12.0
 40
12.0
 40
12.0
 40
13.0
 40
13.0
 40
13.0
 40
14.0
 40
14.0
 40
14.0
 40
15.0
 40
15.0
 40
15.0
 40
16.0
 40
16.0
 40
16.0
 40
17.0
 40
17.0
 40
17.0
 40
18.0
 40
18.0
 40
18.0
 40
18.0
 10
2771.001538723826
 20
-943.2938464273812
 30
0.0
 10
2764.200499958481
 20
-942.767845072818
 30
0.0
 10
2757.323687440048
 20
-943.0633940213102
 30
0.0
 10
2750.695707159533
 20
-940.8948869785362
 30
0.0
 10
2747.086050652781
 20
-939.7139123318302
 30
0.0
 10
2743.154081720075
 20
-938.9090197298665
 30
0.0
 10
2742.112670115073
 20
-934.5976810482552
 30
0.0
 10
2741.034788477469
 20
-930.1354524013113
 30
0.0
 10
2742.742523781841
 20
-925.8556756796624
 30
0.0
 10
2746.534052951733
 20
-923.9532221823193
 30
0.0
 10
2756.367090774582
 20
-919.0193802011053
 30
0.0
 10
2753.656590044853
 20
-910.2922790913835
 30
0.0
 10
2753.818509474864
 20
-902.4607485955767
 30
0.0
 10
2753.975192061817
 20
-894.8819955826802
 30
0.0
 10
2755.412263207063
 20
-887.490453838247
 30
0.0
 10
2745.84503626577
 20
-882.6647929797182
 30
0.0
 10
2738.985265013917
 20
-879.2047504959665
 30
0.0
 10
2740.187594081947
 20
-871.3260649290278
 30
0.0
 10
2746.627869938375
 20
-867.7204241180715
 30
0.0
 10
2753.286292793861
 20
-863.9926372696027
 30
0.0
 10
2754.274897607715
 20
-859.2590321276311
 30
0.0
 10
2753.960765302838
 20
-852.6977139629471
 30
0.0
 10
2753.469488366527
 20
-842.4363665663696
 30
0.0
 10
2755.825230161367
 20
-832.0917463200713
 30
0.0
 10
2744.698825176651
 20
-824.5264102713063
 30
0.0
 10
2738.56096330812
 20
-820.3529986071862
 30
0.0
 10
2740.964251567444
 20
-812.7204368361599
 30
0.0
 10
2748.328294014917
 20
-810.4476156370237
 30
0.0
 10
2763.034899242664
 20
-805.9086269257477
 30
0.0
 10
2778.060630954473
 20
-805.983774449467
 30
0.0
 10
2792.799064289664
 20
-810.2415392089588
 30
0.0
 10
2801.113355002426
 20
-812.6434575915499
 30
0.0
 10
2803.101570611211
 20
-820.4718412847997
 30
0.0
 10
2795.955855203744
 20
-825.7716047393223
 30
0.0
 10
2782.397707662958
 20
-835.8272044782534
 30
0.0
 10
2789.372352863828
 20
-849.3487019454896
 30
0.0
 10
2788.170258631808
 20
-861.4530267055325
 30
0.0
 10
2787.847186902755
 20
-864.70619431878
 30
0.0
 10
2791.860330816811
 20
-865.0204675252663
 30
0.0
 10
2793.947208861946
 20
-866.5979392939917
 30
0.0
 10
2802.019180122183
 20
-872.6996051052628
 30
0.0
 10
2802.361602338593
 20
-879.3650025902971
 30
0.0
 10
2793.732427845715
 20
-884.363534064847
 30
0.0
 10
2788.613801234826
 20
-887.3285109246335
 30
0.0
 10
2787.529986073993
 20
-890.7067991648728
 30
0.0
 10
2787.713972261228
 20
-895.8768861737789
 30
0.0
 10
2788.112755120432
 20
-907.0815385175665
 30
0.0
 10
2785.241430862078
 20
-918.5220288399614
 30
0.0
 10
2797.361364389026
 20
-926.9293772362598
 30
0.0
 10
2802.936559173713
 20
-930.7967819215045
 30
0.0
 10
2800.446326795018
 20
-937.5633780718127
 30
0.0
 10
2793.26757778858
 20
-940.252845322766
 30
0.0
 10
2786.0913336996
 20
-942.9413732296724
 30
0.0
 10
2778.504001344414
 20
-942.8385150565828
 30
0.0
 10
2771.001538723826
 20
-943.2938464273812
 30
0.0
  0
HATCH
  5
92
330
70
100
AcDbEntity
  8
Layer 1
 62
   118
420
  1005869
440
 33554687
100
AcDbHatch
 10
0.0
 20
0.0
 30
0.0
210
0.0
220
0.0
230
1.0
  2
SOLID
 70
     1
 71
     1
 91
        4
 92
        1
 93
        1
 72
     4
 94
        3
 73
     0
 74
     0
 95
       17
 96
       13
 40
0.0
 40
0.0
 40
0.0
 40
0.0
 40
1.0
 40
1.0
 40
1.0
 40
2.0
 40
2.0
 40
2.0
 40
3.0
 40
3.0
 40
3.0
 40
4.0
 40
4.0
 40
4.0
 40
4.0
 10
2778.495234133314
 20
-875.0820007874208
 10
2779.576700934029
 20
-869.4645355206448
 10
2778.650852130346
 20
-864.8982901762865
 10
2770.688126582716
 20
-864.9158245984873
 10
2763.32355966815
 20
-864.9320126275542
 10
2762.772697007824
 20
-869.2195859047897
 10
2762.905535911732
 20
-874.9641444210556
 10
2763.037779897741
 20
-880.6830588448537
 10
2762.412333320126
 20
-885.6308657408936
 10
2770.988920202135
 20
-885.476124464969
 10
2778.666946225009
 20
-885.3375399066445
 10
2779.231116259327
 20
-881.3865336012641
 10
2778.495234133314
 20
-875.0820007874208
 97
        0
 97
        1
330
8E
 92
        1
 93
        1
 72
     4
 94
        3
 73
     0
 74
     0
 95
       26
 96
       22
 40
0.0
 40
0.0
 40
0.0
 40
0.0
 40
1.0
 40
1.0
 40
1.0
 40
2.0
 40
2.0
 40
2.0
 40
3.0
 40
3.0
 40
3.0
 40
4.0
 40
4.0
 40
4.0
 40
5.0
 40
5.0
 40
5.0
 40
6.0
 40
6.0
 40
6.0
 40
7.0
 40
7.0
 40
7.0
 40
7.0
 10
2763.018961705346
 20
-839.2349881215505
 10
2763.018961705346
 20
-844.3615991568385
 10
2763.288240332002
 20
-849.506073384744
 10
2762.94970073765
 20
-854.6102497530537
 10
2762.541477470784
 20
-860.7647380112066
 10
2766.195087451046
 20
-860.9689514069122
 10
2770.737755259839
 20
-860.9012560126284
 10
2775.087763604696
 20
-860.8364725848897
 10
2778.929618131873
 20
-861.1120761281272
 10
2778.729882276124
 20
-854.8024708564335
 10
2778.427288247285
 20
-845.2425786265667
 10
2778.403319318363
 20
-835.6556176324284
 10
2778.767565628123
 20
-826.0994514672802
 10
2779.004499508114
 20
-819.8837336330306
 10
2777.643076870076
 20
-816.7453068950617
 10
2770.415043612667
 20
-816.8312255638465
 10
2763.347137203719
 20
-816.9152498888051
 10
2762.685854650726
 20
-820.4907377558683
 10
2762.956871063872
 20
-825.9079505276694
 10
2763.178587570312
 20
-830.3399636077866
 10
2763.002006545305
 20
-834.7918907816874
 10
2763.018961705346
 20
-839.2349881215505
 97
        0
 97
        1
330
8F
 92
        1
 93
        1
 72
     4
 94
        3
 73
     0
 74
     0
 95
       26
 96
       22
 40
0.0
 40
0.0
 40
0.0
 40
0.0
 40
1.0
 40
1.0
 40
1.0
 40
2.0
 40
2.0
 40
2.0
 40
3.0
 40
3.0
 40
3.0
 40
4.0
 40
4.0
 40
4.0
 40
5.0
 40
5.0
 40
5.0
 40
6.0
 40
6.0
 40
6.0
 40
7.0
 40
7.0
 40
7.0
 40
7.0
 10
2763.010006625437
 20
-911.2201944519675
 10
2763.010006625437
 20
-916.3150400027499
 10
2763.290792216662
 20
-921.429392598231
 10
2762.938256396019
 20
-926.4997525808666
 10
2762.506956577074
 20
-932.7028049262226
 10
2765.830559338074
 20
-933.8322095847779
 10
2771.037906994158
 20
-933.8969930125168
 10
2776.651834065024
 20
-933.9668488981059
 10
2778.967317139608
 20
-931.8855129828461
 10
2778.754477434408
 20
-926.096116444094
 10
2778.417816528147
 20
-916.9378251055677
 10
2778.467742664218
 20
-907.7519796750111
 10
2778.742719978092
 20
-898.5894612882749
 10
2778.909876251162
 20
-893.0191824040994
 10
2778.02822358487
 20
-889.9647173681515
 10
2771.146745657678
 20
-889.8581644418118
 10
2763.835001189991
 20
-889.7449734842103
 10
2762.459034374968
 20
-892.8774353874851
 10
2762.939962871033
 20
-898.9972618503216
 10
2763.258306568389
 20
-903.0481204278439
 10
2763.000284414551
 20
-907.1443180113401
 10
2763.010006625437
 20
-911.2201944519675
 97
        0
 97
        1
330
90
 92
        1
 93
        1
 72
     4
 94
        3
 73
     0
 74
     0
 95
       59
 96
       55
 40
0.0
 40
0.0
 40
0.0
 40
0.0
 40
1.0
 40
1.0
 40
1.0
 40
2.0
 40
2.0
 40
2.0
 40
3.0
 40
3.0
 40
3.0
 40
4.0
 40
4.0
 40
4.0
 40
5.0
 40
5.0
 40
5.0
 40
6.0
 40
6.0
 40
6.0
 40
7.0
 40
7.0
 40
7.0
 40
8.0
 40
8.0
 40
8.0
 40
9.0
 40
9.0
 40
9.0
 40
10.0
 40
10.0
 40
10.0
 40
11.0
 40
11.0
 40
11.0
 40
12.0
 40
12.0
 40
12.0
 40
13.0
 40
13.0
 40
13.0
 40
14.0
 40
14.0
 40
14.0
 40
15.0
 40
15.0
 40
15.0
 40
16.0
 40
16.0
 40
16.0
 40
17.0
 40
17.0
 40
17.0
 40
18.0
 40
18.0
 40
18.0
 40
18.0
 10
2771.001538723826
 20
-943.2938464273812
 10
2764.200499958481
 20
-942.767845072818
 10
2757.323687440048
 20
-943.0633940213102
 10
2750.695707159533
 20
-940.8948869785362
 10
2747.086050652781
 20
-939.7139123318302
 10
2743.154081720075
 20
-938.9090197298665
 10
2742.112670115073
 20
-934.5976810482552
 10
2741.034788477469
 20
-930.1354524013113
 10
2742.742523781841
 20
-925.8556756796624
 10
2746.534052951733
 20
-923.9532221823193
 10
2756.367090774582
 20
-919.0193802011053
 10
2753.656590044853
 20
-910.2922790913835
 10
2753.818509474864
 20
-902.4607485955767
 10
2753.975192061817
 20
-894.8819955826802
 10
2755.412263207063
 20
-887.490453838247
 10
2745.84503626577
 20
-882.6647929797182
 10
2738.985265013917
 20
-879.2047504959665
 10
2740.187594081947
 20
-871.3260649290278
 10
2746.627869938375
 20
-867.7204241180715
 10
2753.286292793861
 20
-863.9926372696027
 10
2754.274897607715
 20
-859.2590321276311
 10
2753.960765302838
 20
-852.6977139629471
 10
2753.469488366527
 20
-842.4363665663696
 10
2755.825230161367
 20
-832.0917463200713
 10
2744.698825176651
 20
-824.5264102713063
 10
2738.56096330812
 20
-820.3529986071862
 10
2740.964251567444
 20
-812.7204368361599
 10
2748.328294014917
 20
-810.4476156370237
 10
2763.034899242664
 20
-805.9086269257477
 10
2778.060630954473
 20
-805.983774449467
 10
2792.799064289664
 20
-810.2415392089588
 10
2801.113355002426
 20
-812.6434575915499
 10
2803.101570611211
 20
-820.4718412847997
 10
2795.955855203744
 20
-825.7716047393223
 10
2782.397707662958
 20
-835.8272044782534
 10
2789.372352863828
 20
-849.3487019454896
 10
2788.170258631808
 20
-861.4530267055325
 10
2787.847186902755
 20
-864.70619431878
 10
2791.860330816811
 20
-865.0204675252663
 10
2793.947208861946
 20
-866.5979392939917
 10
2802.019180122183
 20
-872.6996051052628
 10
2802.361602338593
 20
-879.3650025902971
 10
2793.732427845715
 20
-884.363534064847
 10
2788.613801234826
 20
-887.3285109246335
 10
2787.529986073993
 20
-890.7067991648728
 10
2787.713972261228
 20
-895.8768861737789
 10
2788.112755120432
 20
-907.0815385175665
 10
2785.241430862078
 20
-918.5220288399614
 10
2797.361364389026
 20
-926.9293772362598
 10
2802.936559173713
 20
-930.7967819215045
 10
2800.446326795018
 20
-937.5633780718127
 10
2793.26757778858
 20
-940.252845322766
 10
2786.0913336996
 20
-942.9413732296724
 10
2778.504001344414
 20
-942.8385150565828
 10
2771.001538723826
 20
-943.2938464273812
 97
        0
 97
        1
330
91
 75
     2
 76
     1
 98
        1
 10
0.0
 20
0.0
450
        0
451
        0
460
0.0
461
0.0
452
        0
462
0.0
453
        0
470

  0
SPLINE
  5
93
330
70
100
AcDbEntity
  8
Layer 1
100
AcDbSpline
210
0.0
220
0.0
230
1.0
 70
     9
 71
     3
 72
    17
 73
    13
 74
     0
 42
0.0000000001
 43
0.0000000001
 40
0.0
 40
0.0
 40
0.0
 40
0.0
 40
1.0
 40
1.0
 40
1.0
 40
2.0
 40
2.0
 40
2.0
 40
3.0
 40
3.0
 40
3.0
 40
4.0
 40
4.0
 40
4.0
 40
4.0
 10
2857.624972083175
 20
-788.4537831794514
 30
0.0
 10
2858.70643888389
 20
-782.8363179126736
 30
0.0
 10
2857.78059008021
 20
-778.2700725683152
 30
0.0
 10
2849.817864532581
 20
-778.2876069905159
 30
0.0
 10
2842.453297618014
 20
-778.3037950195848
 30
0.0
 10
2841.902434957689
 20
-782.5913682968185
 30
0.0
 10
2842.035273861597
 20
-788.3359268130861
 30
0.0
 10
2842.167517847606
 20
-794.0548412368825
 30
0.0
 10
2841.542071269991
 20
-799.0026481329223
 30
0.0
 10
2850.118658152
 20
-798.8479068569977
 30
0.0
 10
2857.796684174873
 20
-798.709322298675
 30
0.0
 10
2858.360854209191
 20
-794.7583159932946
 30
0.0
 10
2857.624972083175
 20
-788.4537831794514
 30
0.0
  0
SPLINE
  5
94
330
70
100
AcDbEntity
  8
Layer 1
100
AcDbSpline
210
0.0
220
0.0
230
1.0
 70
     9
 71
     3
 72
    26
 73
    22
 74
     0
 42
0.0000000001
 43
0.0000000001
 40
0.0
 40
0.0
 40
0.0
 40
0.0
 40
1.0
 40
1.0
 40
1.0
 40
2.0
 40
2.0
 40
2.0
 40
3.0
 40
3.0
 40
3.0
 40
4.0
 40
4.0
 40
4.0
 40
5.0
 40
5.0
 40
5.0
 40
6.0
 40
6.0
 40
6.0
 40
7.0
 40
7.0
 40
7.0
 40
7.0
 10
2842.14869965521
 20
-752.606770513581
 30
0.0
 10
2842.14869965521
 20
-757.7333815488692
 30
0.0
 10
2842.417978281867
 20
-762.8778557767746
 30
0.0
 10
2842.079438687515
 20
-767.9820321450843
 30
0.0
 10
2841.671215420649
 20
-774.1365204032354
 30
0.0
 10
2845.32482540091
 20
-774.3407337989411
 30
0.0
 10
2849.867493209704
 20
-774.2730384046589
 30
0.0
 10
2854.21750155456
 20
-774.2082549769183
 30
0.0
 10
2858.059356081738
 20
-774.4838585201559
 30
0.0
 10
2857.859620225985
 20
-768.1742532484622
 30
0.0
 10
2857.557026197146
 20
-758.6143610185972
 30
0.0
 10
2857.533057268227
 20
-749.0274000244571
 30
0.0
 10
2857.897303577983
 20
-739.4712338593089
 30
0.0
 10
2858.134237457975
 20
-733.2555160250612
 30
0.0
 10
2856.772814819941
 20
-730.1170892870905
 30
0.0
 10
2849.544781562532
 20
-730.2030079558772
 30
0.0
 10
2842.476875153583
 20
-730.2870322808339
 30
0.0
 10
2841.815592600591
 20
-733.862520147899
 30
0.0
 10
2842.086609013737
 20
-739.2797329197001
 30
0.0
 10
2842.308325520177
 20
-743.7117459998153
 30
0.0
 10
2842.13174449517
 20
-748.1636731737181
 30
0.0
 10
2842.14869965521
 20
-752.606770513581
 30
0.0
  0
SPLINE
  5
95
330
70
100
AcDbEntity
  8
Layer 1
100
AcDbSpline
210
0.0
220
0.0
230
1.0
 70
     9
 71
     3
 72
    26
 73
    22
 74
     0
 42
0.0000000001
 43
0.0000000001
 40
0.0
 40
0.0
 40
0.0
 40
0.0
 40
1.0
 40
1.0
 40
1.0
 40
2.0
 40
2.0
 40
2.0
 40
3.0
 40
3.0
 40
3.0
 40
4.0
 40
4.0
 40
4.0
 40
5.0
 40
5.0
 40
5.0
 40
6.0
 40
6.0
 40
6.0
 40
7.0
 40
7.0
 40
7.0
 40
7.0
 10
2842.139744575301
 20
-824.5919768439962
 30
0.0
 10
2842.139744575301
 20
-829.6868223947786
 30
0.0
 10
2842.420530166526
 20
-834.8011749902598
 30
0.0
 10
2842.067994345884
 20
-839.8715349728972
 30
0.0
 10
2841.636694526938
 20
-846.0745873182514
 30
0.0
 10
2844.960297287938
 20
-847.2039919768066
 30
0.0
 10
2850.167644944022
 20
-847.2687754045455
 30
0.0
 10
2855.781572014889
 20
-847.3386312901366
 30
0.0
 10
2858.097055089469
 20
-845.2572953748749
 30
0.0
 10
2857.884215384269
 20
-839.467898836123
 30
0.0
 10
2857.547554478011
 20
-830.3096074975965
 30
0.0
 10
2857.597480614082
 20
-821.1237620670399
 30
0.0
 10
2857.872457927957
 20
-811.9612436803054
 30
0.0
 10
2858.039614201027
 20
-806.3909647961299
 30
0.0
 10
2857.157961534731
 20
-803.3364997601802
 30
0.0
 10
2850.276483607542
 20
-803.2299468338424
 30
0.0
 10
2842.964739139856
 20
-803.1167558762408
 30
0.0
 10
2841.588772324833
 20
-806.2492177795157
 30
0.0
 10
2842.069700820897
 20
-812.3690442423503
 30
0.0
 10
2842.388044518254
 20
-816.4199028198726
 30
0.0
 10
2842.130022364416
 20
-820.5161004033707
 30
0.0
 10
2842.139744575301
 20
-824.5919768439962
 30
0.0
  0
SPLINE
  5
96
330
70
100
AcDbEntity
  8
Layer 1
100
AcDbSpline
210
0.0
220
0.0
230
1.0
 70
     9
 71
     3
 72
    59
 73
    55
 74
     0
 42
0.0000000001
 43
0.0000000001
 40
0.0
 40
0.0
 40
0.0
 40
0.0
 40
1.0
 40
1.0
 40
1.0
 40
2.0
 40
2.0
 40
2.0
 40
3.0
 40
3.0
 40
3.0
 40
4.0
 40
4.0
 40
4.0
 40
5.0
 40
5.0
 40
5.0
 40
6.0
 40
6.0
 40
6.0
 40
7.0
 40
7.0
 40
7.0
 40
8.0
 40
8.0
 40
8.0
 40
9.0
 40
9.0
 40
9.0
 40
10.0
 40
10.0
 40
10.0
 40
11.0
 40
11.0
 40
11.0
 40
12.0
 40
12.0
 40
12.0
 40
13.0
 40
13.0
 40
13.0
 40
14.0
 40
14.0
 40
14.0
 40
15.0
 40
15.0
 40
15.0
 40
16.0
 40
16.0
 40
16.0
 40
17.0
 40
17.0
 40
17.0
 40
18.0
 40
18.0
 40
18.0
 40
18.0
 10
2850.13127667369
 20
-856.6656288194099
 30
0.0
 10
2843.330237908345
 20
-856.1396274648487
 30
0.0
 10
2836.453425389913
 20
-856.4351764133407
 30
0.0
 10
2829.825445109398
 20
-854.2666693705651
 30
0.0
 10
2826.215788602646
 20
-853.0856947238589
 30
0.0
 10
2822.283819669939
 20
-852.2808021218953
 30
0.0
 10
2821.242408064938
 20
-847.9694634402857
 30
0.0
 10
2820.164526427334
 20
-843.5072347933401
 30
0.0
 10
2821.872261731705
 20
-839.2274580716911
 30
0.0
 10
2825.663790901597
 20
-837.3250045743498
 30
0.0
 10
2835.496828724446
 20
-832.3911625931359
 30
0.0
 10
2832.786327994718
 20
-823.6640614834122
 30
0.0
 10
2832.948247424729
 20
-815.8325309876072
 30
0.0
 10
2833.104930011681
 20
-808.253777974709
 30
0.0
 10
2834.542001156928
 20
-800.8622362302777
 30
0.0
 10
2824.974774215634
 20
-796.0365753717469
 30
0.0
 10
2818.115002963781
 20
-792.576532887997
 30
0.0
 10
2819.317332031811
 20
-784.6978473210565
 30
0.0
 10
2825.75760788824
 20
-781.0922065101004
 30
0.0
 10
2832.416030743725
 20
-777.3644196616332
 30
0.0
 10
2833.40463555758
 20
-772.6308145196599
 30
0.0
 10
2833.090503252703
 20
-766.0694963549758
 30
0.0
 10
2832.599226316392
 20
-755.8081489584001
 30
0.0
 10
2834.954968111231
 20
-745.4635287121018
 30
0.0
 10
2823.828563126515
 20
-737.898192663335
 30
0.0
 10
2817.690701257985
 20
-733.7247809992168
 30
0.0
 10
2820.093989517309
 20
-726.0922192281904
 30
0.0
 10
2827.458031964781
 20
-723.8193980290543
 30
0.0
 10
2842.164637192529
 20
-719.2804093177783
 30
0.0
 10
2857.190368904337
 20
-719.3555568414958
 30
0.0
 10
2871.928802239525
 20
-723.6133216009894
 30
0.0
 10
2880.243092952287
 20
-726.0152399835805
 30
0.0
 10
2882.231308561075
 20
-733.8436236768302
 30
0.0
 10
2875.085593153605
 20
-739.1433871313529
 30
0.0
 10
2861.527445612819
 20
-749.1989868702821
 30
0.0
 10
2868.502090813692
 20
-762.7204843375202
 30
0.0
 10
2867.299996581673
 20
-774.824809097563
 30
0.0
 10
2866.976924852619
 20
-778.0779767108106
 30
0.0
 10
2870.990068766673
 20
-778.3922499172949
 30
0.0
 10
2873.076946811807
 20
-779.9697216860222
 30
0.0
 10
2881.148918072044
 20
-786.0713874972934
 30
0.0
 10
2881.491340288458
 20
-792.7367849823258
 30
0.0
 10
2872.862165795579
 20
-797.7353164568758
 30
0.0
 10
2867.743539184687
 20
-800.700293316664
 30
0.0
 10
2866.659724023857
 20
-804.0785815569016
 30
0.0
 10
2866.843710211093
 20
-809.2486685658077
 30
0.0
 10
2867.242493070293
 20
-820.453320909597
 30
0.0
 10
2864.371168811942
 20
-831.8938112319901
 30
0.0
 10
2876.491102338891
 20
-840.3011596282905
 30
0.0
 10
2882.066297123575
 20
-844.1685643135333
 30
0.0
 10
2879.576064744879
 20
-850.9351604638414
 30
0.0
 10
2872.397315738444
 20
-853.6246277147947
 30
0.0
 10
2865.221071649465
 20
-856.3131556217014
 30
0.0
 10
2857.633739294275
 20
-856.2102974486116
 30
0.0
 10
2850.13127667369
 20
-856.6656288194099
 30
0.0
  0
HATCH
  5
97
330
70
100
AcDbEntity
  8
Layer 1
 62
   246
420
  8590872
440
 33554687
100
AcDbHatch
 10
0.0
 20
0.0
 30
0.0
210
0.0
220
0.0
230
1.0
  2
SOLID
 70
     1
 71
     1
 91
        4
 92
        1
 93
        1
 72
     4
 94
        3
 73
     0
 74
     0
 95
       17
 96
       13
 40
0.0
 40
0.0
 40
0.0
 40
0.0
 40
1.0
 40
1.0
 40
1.0
 40
2.0
 40
2.0
 40
2.0
 40
3.0
 40
3.0
 40
3.0
 40
4.0
 40
4.0
 40
4.0
 40
4.0
 10
2857.624972083175
 20
-788.4537831794514
 10
2858.70643888389
 20
-782.8363179126736
 10
2857.78059008021
 20
-778.2700725683152
 10
2849.817864532581
 20
-778.2876069905159
 10
2842.453297618014
 20
-778.3037950195848
 10
2841.902434957689
 20
-782.5913682968185
 10
2842.035273861597
 20
-788.3359268130861
 10
2842.167517847606
 20
-794.0548412368825
 10
2841.542071269991
 20
-799.0026481329223
 10
2850.118658152
 20
-798.8479068569977
 10
2857.796684174873
 20
-798.709322298675
 10
2858.360854209191
 20
-794.7583159932946
 10
2857.624972083175
 20
-788.4537831794514
 97
        0
 97
        1
330
93
 92
        1
 93
        1
 72
     4
 94
        3
 73
     0
 74
     0
 95
       26
 96
       22
 40
0.0
 40
0.0
 40
0.0
 40
0.0
 40
1.0
 40
1.0
 40
1.0
 40
2.0
 40
2.0
 40
2.0
 40
3.0
 40
3.0
 40
3.0
 40
4.0
 40
4.0
 40
4.0
 40
5.0
 40
5.0
 40
5.0
 40
6.0
 40
6.0
 40
6.0
 40
7.0
 40
7.0
 40
7.0
 40
7.0
 10
2842.14869965521
 20
-752.606770513581
 10
2842.14869965521
 20
-757.7333815488692
 10
2842.417978281867
 20
-762.8778557767746
 10
2842.079438687515
 20
-767.9820321450843
 10
2841.671215420649
 20
-774.1365204032354
 10
2845.32482540091
 20
-774.3407337989411
 10
2849.867493209704
 20
-774.2730384046589
 10
2854.21750155456
 20
-774.2082549769183
 10
2858.059356081738
 20
-774.4838585201559
 10
2857.859620225985
 20
-768.1742532484622
 10
2857.557026197146
 20
-758.6143610185972
 10
2857.533057268227
 20
-749.0274000244571
 10
2857.897303577983
 20
-739.4712338593089
 10
2858.134237457975
 20
-733.2555160250612
 10
2856.772814819941
 20
-730.1170892870905
 10
2849.544781562532
 20
-730.2030079558772
 10
2842.476875153583
 20
-730.2870322808339
 10
2841.815592600591
 20
-733.862520147899
 10
2842.086609013737
 20
-739.2797329197001
 10
2842.308325520177
 20
-743.7117459998153
 10
2842.13174449517
 20
-748.1636731737181
 10
2842.14869965521
 20
-752.606770513581
 97
        0
 97
        1
330
94
 92
        1
 93
        1
 72
     4
 94
        3
 73
     0
 74
     0
 95
       26
 96
       22
 40
0.0
 40
0.0
 40
0.0
 40
0.0
 40
1.0
 40
1.0
 40
1.0
 40
2.0
 40
2.0
 40
2.0
 40
3.0
 40
3.0
 40
3.0
 40
4.0
 40
4.0
 40
4.0
 40
5.0
 40
5.0
 40
5.0
 40
6.0
 40
6.0
 40
6.0
 40
7.0
 40
7.0
 40
7.0
 40
7.0
 10
2842.139744575301
 20
-824.5919768439962
 10
2842.139744575301
 20
-829.6868223947786
 10
2842.420530166526
 20
-834.8011749902598
 10
2842.067994345884
 20
-839.8715349728972
 10
2841.636694526938
 20
-846.0745873182514
 10
2844.960297287938
 20
-847.2039919768066
 10
2850.167644944022
 20
-847.2687754045455
 10
2855.781572014889
 20
-847.3386312901366
 10
2858.097055089469
 20
-845.2572953748749
 10
2857.884215384269
 20
-839.467898836123
 10
2857.547554478011
 20
-830.3096074975965
 10
2857.597480614082
 20
-821.1237620670399
 10
2857.872457927957
 20
-811.9612436803054
 10
2858.039614201027
 20
-806.3909647961299
 10
2857.157961534731
 20
-803.3364997601802
 10
2850.276483607542
 20
-803.2299468338424
 10
2842.964739139856
 20
-803.1167558762408
 10
2841.588772324833
 20
-806.2492177795157
 10
2842.069700820897
 20
-812.3690442423503
 10
2842.388044518254
 20
-816.4199028198726
 10
2842.130022364416
 20
-820.5161004033707
 10
2842.139744575301
 20
-824.5919768439962
 97
        0
 97
        1
330
95
 92
        1
 93
        1
 72
     4
 94
        3
 73
     0
 74
     0
 95
       59
 96
       55
 40
0.0
 40
0.0
 40
0.0
 40
0.0
 40
1.0
 40
1.0
 40
1.0
 40
2.0
 40
2.0
 40
2.0
 40
3.0
 40
3.0
 40
3.0
 40
4.0
 40
4.0
 40
4.0
 40
5.0
 40
5.0
 40
5.0
 40
6.0
 40
6.0
 40
6.0
 40
7.0
 40
7.0
 40
7.0
 40
8.0
 40
8.0
 40
8.0
 40
9.0
 40
9.0
 40
9.0
 40
10.0
 40
10.0
 40
10.0
 40
11.0
 40
11.0
 40
11.0
 40
12.0
 40
12.0
 40
12.0
 40
13.0
 40
13.0
 40
13.0
 40
14.0
 40
14.0
 40
14.0
 40
15.0
 40
15.0
 40
15.0
 40
16.0
 40
16.0
 40
16.0
 40
17.0
 40
17.0
 40
17.0
 40
18.0
 40
18.0
 40
18.0
 40
18.0
 10
2850.13127667369
 20
-856.6656288194099
 10
2843.330237908345
 20
-856.1396274648487
 10
2836.453425389913
 20
-856.4351764133407
 10
2829.825445109398
 20
-854.2666693705651
 10
2826.215788602646
 20
-853.0856947238589
 10
2822.283819669939
 20
-852.2808021218953
 10
2821.242408064938
 20
-847.9694634402857
 10
2820.164526427334
 20
-843.5072347933401
 10
2821.872261731705
 20
-839.2274580716911
 10
2825.663790901597
 20
-837.3250045743498
 10
2835.496828724446
 20
-832.3911625931359
 10
2832.786327994718
 20
-823.6640614834122
 10
2832.948247424729
 20
-815.8325309876072
 10
2833.104930011681
 20
-808.253777974709
 10
2834.542001156928
 20
-800.8622362302777
 10
2824.974774215634
 20
-796.0365753717469
 10
2818.115002963781
 20
-792.576532887997
 10
2819.317332031811
 20
-784.6978473210565
 10
2825.75760788824
 20
-781.0922065101004
 10
2832.416030743725
 20
-777.3644196616332
 10
2833.40463555758
 20
-772.6308145196599
 10
2833.090503252703
 20
-766.0694963549758
 10
2832.599226316392
 20
-755.8081489584001
 10
2834.954968111231
 20
-745.4635287121018
 10
2823.828563126515
 20
-737.898192663335
 10
2817.690701257985
 20
-733.7247809992168
 10
2820.093989517309
 20
-726.0922192281904
 10
2827.458031964781
 20
-723.8193980290543
 10
2842.164637192529
 20
-719.2804093177783
 10
2857.190368904337
 20
-719.3555568414958
 10
2871.928802239525
 20
-723.6133216009894
 10
2880.243092952287
 20
-726.0152399835805
 10
2882.231308561075
 20
-733.8436236768302
 10
2875.085593153605
 20
-739.1433871313529
 10
2861.527445612819
 20
-749.1989868702821
 10
2868.502090813692
 20
-762.7204843375202
 10
2867.299996581673
 20
-774.824809097563
 10
2866.976924852619
 20
-778.0779767108106
 10
2870.990068766673
 20
-778.3922499172949
 10
2873.076946811807
 20
-779.9697216860222
 10
2881.148918072044
 20
-786.0713874972934
 10
2881.491340288458
 20
-792.7367849823258
 10
2872.862165795579
 20
-797.7353164568758
 10
2867.743539184687
 20
-800.700293316664
 10
2866.659724023857
 20
-804.0785815569016
 10
2866.843710211093
 20
-809.2486685658077
 10
2867.242493070293
 20
-820.453320909597
 10
2864.371168811942
 20
-831.8938112319901
 10
2876.491102338891
 20
-840.3011596282905
 10
2882.066297123575
 20
-844.1685643135333
 10
2879.576064744879
 20
-850.9351604638414
 10
2872.397315738444
 20
-853.6246277147947
 10
2865.221071649465
 20
-856.3131556217014
 10
2857.633739294275
 20
-856.2102974486116
 10
2850.13127667369
 20
-856.6656288194099
 97
        0
 97
        1
330
96
 75
     2
 76
     1
 98
        1
 10
0.0
 20
0.0
450
        0
451
        0
460
0.0
461
0.0
452
        0
462
0.0
453
        0
470

  0
ENDSEC
  0
SECTION
  2
OBJECTS
  0
DICTIONARY
  5
C
330
0
100
AcDbDictionary
281
     1
  3
ACAD_COLOR
350
63
  3
ACAD_DETAILVIEWSTYLE
350
6A
  3
ACAD_GROUP
350
D
  3
ACAD_LAYOUT
350
62
  3
ACAD_MATERIAL
350
10
  3
ACAD_MLEADERSTYLE
350
66
  3
ACAD_MLINESTYLE
350
5F
  3
ACAD_PLOTSETTINGS
350
61
  3
ACAD_PLOTSTYLENAME
350
E
  3
ACAD_SCALELIST
350
42
  3
ACAD_SECTIONVIEWSTYLE
350
68
  3
ACAD_TABLESTYLE
350
64
  3
ACAD_VISUALSTYLE
350
29
  3
ACDB_RECOMPOSE_DATA
350
A0
  3
AcDbVariableDictionary
350
98
  0
DICTIONARY
  5
63
102
{ACAD_REACTORS
330
C
102
}
330
C
100
AcDbDictionary
281
     1
  0
DICTIONARY
  5
6A
102
{ACAD_REACTORS
330
C
102
}
330
C
100
AcDbDictionary
281
     1
  3
Imperial24
350
6B
  0
DICTIONARY
  5
D
102
{ACAD_REACTORS
330
C
102
}
330
C
100
AcDbDictionary
281
     1
  0
DICTIONARY
  5
62
102
{ACAD_REACTORS
330
C
102
}
330
C
100
AcDbDictionary
281
     1
  3
Layout1
350
6F
  3
Layout2
350
77
  3
Model
350
73
  0
DICTIONARY
  5
10
102
{ACAD_REACTORS
330
C
102
}
330
C
100
AcDbDictionary
281
     1
  3
ByBlock
350
19
  3
ByLayer
350
11
  3
Global
350
21
  0
DICTIONARY
  5
66
102
{ACAD_REACTORS
330
C
102
}
330
C
100
AcDbDictionary
281
     1
  3
Standard
350
67
  0
DICTIONARY
  5
5F
102
{ACAD_REACTORS
330
C
102
}
330
C
100
AcDbDictionary
281
     1
  3
Standard
350
60
  0
DICTIONARY
  5
61
102
{ACAD_REACTORS
330
C
102
}
330
C
100
AcDbDictionary
281
     1
  0
ACDBDICTIONARYWDFLT
  5
E
102
{ACAD_REACTORS
330
C
102
}
330
C
100
AcDbDictionary
281
     1
  3
Normal
350
F
100
AcDbDictionaryWithDefault
340
F
  0
DICTIONARY
  5
42
102
{ACAD_REACTORS
330
C
102
}
330
C
100
AcDbDictionary
281
     1
  3
A0
350
43
  3
A1
350
44
  3
A2
350
45
  3
A3
350
46
  3
A4
350
47
  3
A5
350
48
  3
A6
350
49
  3
A7
350
4A
  3
A8
350
4B
  3
A9
350
4C
  3
B0
350
4D
  3
B1
350
4E
  3
B2
350
4F
  3
B3
350
50
  3
B4
350
51
  3
B5
350
52
  3
B6
350
53
  0
DICTIONARY
  5
68
102
{ACAD_REACTORS
330
C
102
}
330
C
100
AcDbDictionary
281
     1
  3
Imperial24
350
69
  0
DICTIONARY
  5
64
102
{ACAD_REACTORS
330
C
102
}
330
C
100
AcDbDictionary
281
     1
  3
Standard
350
65
  0
DICTIONARY
  5
29
102
{ACAD_REACTORS
330
C
102
}
330
C
100
AcDbDictionary
281
     1
  3
2dWireframe
350
2F
  3
Basic
350
2E
  3
Brighten
350
35
  3
ColorChange
350
39
  3
Conceptual
350
32
  3
Dim
350
34
  3
EdgeColorOff
350
41
  3
Facepattern
350
38
  3
Flat
350
2A
  3
FlatWithEdges
350
2B
  3
Gouraud
350
2C
  3
GouraudWithEdges
350
2D
  3
Hidden
350
31
  3
JitterOff
350
3F
  3
Linepattern
350
37
  3
OverhangOff
350
40
  3
Realistic
350
33
  3
Shaded
350
3E
  3
Shaded with edges
350
3D
  3
Shades of Gray
350
3A
  3
Sketchy
350
3B
  3
Thicken
350
36
  3
Wireframe
350
30
  3
X-Ray
350
3C
  0
XRECORD
  5
A0
102
{ACAD_REACTORS
330
C
102
}
330
C
100
AcDbXrecord
280
     1
 90
        1
330
65
  0
DICTIONARY
  5
98
102
{ACAD_REACTORS
330
C
102
}
330
C
100
AcDbDictionary
281
     1
  3
CANNOSCALE
350
9D
  3
CMLEADERSTYLE
350
9A
  3
CTABLESTYLE
350
99
  3
CVIEWDETAILSTYLE
350
9B
  3
CVIEWSECTIONSTYLE
350
9C
  0
ACDBDETAILVIEWSTYLE
  5
6B
102
{ACAD_REACTORS
330
6A
102
}
330
6A
100
AcDbModelDocViewStyle
 70
     0
  3
Imperial24
290
     1
300
Imperial24
 90
        0
100
AcDbDetailViewStyle
 70
     0
 71
     0
 90
        3
 71
     1
340
55
 62
   256
 40
0.24
340
0
 62
   256
 40
0.24
300

 40
0.36
280
     3
 71
     2
340
5D
 90
       25
 62
   256
 71
     3
340
55
 62
   256
 40
0.24
 90
        1
 40
0.75
 90
        1
300
%<\AcVar ViewType \f "%tc1">% %<\AcVar ViewDetailId>%\PSCALE %<\AcVar ViewScale \f "%sn">%
 71
     4
340
5D
 90
       25
 62
   256
340
5D
 90
       25
 62
   256
280
     0
  0
LAYOUT
  5
6F
102
{ACAD_REACTORS
330
62
102
}
330
62
100
AcDbPlotSettings
  1

  2

  4

  6

 40
0.0
 41
0.0
 42
0.0
 43
0.0
 44
0.0
 45
0.0
 46
0.0
 47
0.0
 48
0.0
 49
0.0
140
0.0
141
0.0
142
1.0
143
1.0
 70
   688
 72
     0
 73
     0
 74
     5
  7

 75
    16
147
1.0
 76
     0
 77
     2
 78
   300
148
0.0
149
0.0
100
AcDbLayout
  1
Layout1
 70
     1
 71
     1
 10
0.0
 20
0.0
 11
12.0
 21
9.0
 12
0.0
 22
0.0
 32
0.0
 14
0.0
 24
0.0
 34
0.0
 15
0.0
 25
0.0
 35
0.0
146
0.0
 13
0.0
 23
0.0
 33
0.0
 16
1.0
 26
0.0
 36
0.0
 17
0.0
 27
1.0
 37
0.0
 76
     0
330
6C
  0
LAYOUT
  5
77
102
{ACAD_REACTORS
330
62
102
}
330
62
100
AcDbPlotSettings
  1

  2

  4

  6

 40
0.0
 41
0.0
 42
0.0
 43
0.0
 44
0.0
 45
0.0
 46
0.0
 47
0.0
 48
0.0
 49
0.0
140
0.0
141
0.0
142
1.0
143
1.0
 70
   688
 72
     0
 73
     0
 74
     5
  7

 75
    16
147
1.0
 76
     0
 77
     2
 78
   300
148
0.0
149
0.0
100
AcDbLayout
  1
Layout2
 70
     1
 71
     2
 10
0.0
 20
0.0
 11
12.0
 21
9.0
 12
0.0
 22
0.0
 32
0.0
 14
0.0
 24
0.0
 34
0.0
 15
0.0
 25
0.0
 35
0.0
146
0.0
 13
0.0
 23
0.0
 33
0.0
 16
1.0
 26
0.0
 36
0.0
 17
0.0
 27
1.0
 37
0.0
 76
     0
330
74
  0
LAYOUT
  5
73
102
{ACAD_REACTORS
330
62
102
}
330
62
100
AcDbPlotSettings
  1

  2

  4

  6

 40
0.0
 41
0.0
 42
0.0
 43
0.0
 44
0.0
 45
0.0
 46
0.0
 47
0.0
 48
0.0
 49
0.0
140
0.0
141
0.0
142
1.0
143
1.0
 70
  1712
 72
     0
 73
     0
 74
     0
  7

 75
     0
147
1.0
 76
     0
 77
     2
 78
   300
148
0.0
149
0.0
100
AcDbLayout
  1
Model
 70
     1
 71
     0
 10
0.0
 20
0.0
 11
12.0
 21
9.0
 12
0.0
 22
0.0
 32
0.0
 14
0.0
 24
0.0
 34
0.0
 15
0.0
 25
0.0
 35
0.0
146
0.0
 13
0.0
 23
0.0
 33
0.0
 16
1.0
 26
0.0
 36
0.0
 17
0.0
 27
1.0
 37
0.0
 76
     0
330
70
  0
MATERIAL
  5
19
102
{ACAD_XDICTIONARY
360
1A
102
}
102
{ACAD_REACTORS
330
10
102
}
330
10
100
AcDbMaterial
  1
ByBlock
 72
     0
 43
0.0208333333333333
 43
0.0
 43
0.0
 43
0.0
 43
0.0
 43
0.0208333333333333
 43
0.0
 43
0.0
 43
0.0
 43
0.0
 43
1.0
 43
0.0
 43
0.0
 43
0.0
 43
0.0
 43
1.0
 77
     0
 47
0.0208333333333333
 47
0.0
 47
0.0
 47
0.0
 47
0.0
 47
0.0208333333333333
 47
0.0
 47
0.0
 47
0.0
 47
0.0
 47
1.0
 47
0.0
 47
0.0
 47
0.0
 47
0.0
 47
1.0
171
     0
 49
0.0208333333333333
 49
0.0
 49
0.0
 49
0.0
 49
0.0
 49
0.0208333333333333
 49
0.0
 49
0.0
 49
0.0
 49
0.0
 49
1.0
 49
0.0
 49
0.0
 49
0.0
 49
0.0
 49
1.0
175
     0
142
0.0208333333333333
142
0.0
142
0.0
142
0.0
142
0.0
142
0.0208333333333333
142
0.0
142
0.0
142
0.0
142
0.0
142
1.0
142
0.0
142
0.0
142
0.0
142
0.0
142
1.0
179
     0
144
0.0208333333333333
144
0.0
144
0.0
144
0.0
144
0.0
144
0.0208333333333333
144
0.0
144
0.0
144
0.0
144
0.0
144
1.0
144
0.0
144
0.0
144
0.0
144
0.0
144
1.0
147
0.0208333333333333
147
0.0
147
0.0
147
0.0
147
0.0
147
0.0208333333333333
147
0.0
147
0.0
147
0.0
147
0.0
147
1.0
147
0.0
147
0.0
147
0.0
147
0.0
147
1.0
  0
MATERIAL
  5
11
102
{ACAD_XDICTIONARY
360
12
102
}
102
{ACAD_REACTORS
330
10
102
}
330
10
100
AcDbMaterial
  1
ByLayer
 72
     0
 43
0.0208333333333333
 43
0.0
 43
0.0
 43
0.0
 43
0.0
 43
0.0208333333333333
 43
0.0
 43
0.0
 43
0.0
 43
0.0
 43
1.0
 43
0.0
 43
0.0
 43
0.0
 43
0.0
 43
1.0
 77
     0
 47
0.0208333333333333
 47
0.0
 47
0.0
 47
0.0
 47
0.0
 47
0.0208333333333333
 47
0.0
 47
0.0
 47
0.0
 47
0.0
 47
1.0
 47
0.0
 47
0.0
 47
0.0
 47
0.0
 47
1.0
171
     0
 49
0.0208333333333333
 49
0.0
 49
0.0
 49
0.0
 49
0.0
 49
0.0208333333333333
 49
0.0
 49
0.0
 49
0.0
 49
0.0
 49
1.0
 49
0.0
 49
0.0
 49
0.0
 49
0.0
 49
1.0
175
     0
142
0.0208333333333333
142
0.0
142
0.0
142
0.0
142
0.0
142
0.0208333333333333
142
0.0
142
0.0
142
0.0
142
0.0
142
1.0
142
0.0
142
0.0
142
0.0
142
0.0
142
1.0
179
     0
144
0.0208333333333333
144
0.0
144
0.0
144
0.0
144
0.0
144
0.0208333333333333
144
0.0
144
0.0
144
0.0
144
0.0
144
1.0
144
0.0
144
0.0
144
0.0
144
0.0
144
1.0
147
0.0208333333333333
147
0.0
147
0.0
147
0.0
147
0.0
147
0.0208333333333333
147
0.0
147
0.0
147
0.0
147
0.0
147
1.0
147
0.0
147
0.0
147
0.0
147
0.0
147
1.0
  0
MATERIAL
  5
21
102
{ACAD_XDICTIONARY
360
22
102
}
102
{ACAD_REACTORS
330
10
102
}
330
10
100
AcDbMaterial
  1
Global
 72
     0
 43
0.0208333333333333
 43
0.0
 43
0.0
 43
0.0
 43
0.0
 43
0.0208333333333333
 43
0.0
 43
0.0
 43
0.0
 43
0.0
 43
1.0
 43
0.0
 43
0.0
 43
0.0
 43
0.0
 43
1.0
 77
     0
 47
0.0208333333333333
 47
0.0
 47
0.0
 47
0.0
 47
0.0
 47
0.0208333333333333
 47
0.0
 47
0.0
 47
0.0
 47
0.0
 47
1.0
 47
0.0
 47
0.0
 47
0.0
 47
0.0
 47
1.0
171
     0
 49
0.0208333333333333
 49
0.0
 49
0.0
 49
0.0
 49
0.0
 49
0.0208333333333333
 49
0.0
 49
0.0
 49
0.0
 49
0.0
 49
1.0
 49
0.0
 49
0.0
 49
0.0
 49
0.0
 49
1.0
175
     0
142
0.0208333333333333
142
0.0
142
0.0
142
0.0
142
0.0
142
0.0208333333333333
142
0.0
142
0.0
142
0.0
142
0.0
142
1.0
142
0.0
142
0.0
142
0.0
142
0.0
142
1.0
179
     0
144
0.0208333333333333
144
0.0
144
0.0
144
0.0
144
0.0
144
0.0208333333333333
144
0.0
144
0.0
144
0.0
144
0.0
144
1.0
144
0.0
144
0.0
144
0.0
144
0.0
144
1.0
147
0.0208333333333333
147
0.0
147
0.0
147
0.0
147
0.0
147
0.0208333333333333
147
0.0
147
0.0
147
0.0
147
0.0
147
1.0
147
0.0
147
0.0
147
0.0
147
0.0
147
1.0
  0
MLEADERSTYLE
  5
67
102
{ACAD_REACTORS
330
66
102
}
330
66
100
AcDbMLeaderStyle
179
     2
170
     2
171
     1
172
     0
 90
        2
 40
0.0
 41
0.0
173
     1
 91
-1056964608
340
5B
 92
       -2
290
     1
 42
0.09
291
     1
 43
0.36
  3
Standard
 44
0.18
300

342
55
174
     1
178
     6
175
     1
176
     0
 93
-1056964608
 45
0.18
292
     0
297
     0
 46
0.18
 94
-1056964608
 47
1.0
 49
1.0
140
1.0
293
     1
141
0.0
294
     1
177
     0
142
1.0
295
     1
296
     0
143
0.125
271
     0
272
     9
273
     9
298
     1
  0
MLINESTYLE
  5
60
102
{ACAD_REACTORS
330
5F
102
}
330
5F
100
AcDbMlineStyle
  2
STANDARD
 70
     0
  3

 62
   256
 51
90.0
 52
90.0
 71
     2
 49
0.5
 62
   256
  6
BYLAYER
 49
-0.5
 62
   256
  6
BYLAYER
  0
ACDBPLACEHOLDER
  5
F
102
{ACAD_REACTORS
330
E
102
}
330
E
  0
SCALE
  5
43
102
{ACAD_REACTORS
330
42
102
}
330
42
100
AcDbScale
 70
     0
300
1:1
140
1.0
141
1.0
290
     1
  0
SCALE
  5
44
102
{ACAD_REACTORS
330
42
102
}
330
42
100
AcDbScale
 70
     0
300
1/128" = 1'-0"
140
0.0078125
141
12.0
290
     0
  0
SCALE
  5
45
102
{ACAD_REACTORS
330
42
102
}
330
42
100
AcDbScale
 70
     0
300
1/64" = 1'-0"
140
0.015625
141
12.0
290
     0
  0
SCALE
  5
46
102
{ACAD_REACTORS
330
42
102
}
330
42
100
AcDbScale
 70
     0
300
1/32" = 1'-0"
140
0.03125
141
12.0
290
     0
  0
SCALE
  5
47
102
{ACAD_REACTORS
330
42
102
}
330
42
100
AcDbScale
 70
     0
300
1/16" = 1'-0"
140
0.0625
141
12.0
290
     0
  0
SCALE
  5
48
102
{ACAD_REACTORS
330
42
102
}
330
42
100
AcDbScale
 70
     0
300
3/32" = 1'-0"
140
0.09375
141
12.0
290
     0
  0
SCALE
  5
49
102
{ACAD_REACTORS
330
42
102
}
330
42
100
AcDbScale
 70
     0
300
1/8" = 1'-0"
140
0.125
141
12.0
290
     0
  0
SCALE
  5
4A
102
{ACAD_REACTORS
330
42
102
}
330
42
100
AcDbScale
 70
     0
300
3/16" = 1'-0"
140
0.1875
141
12.0
290
     0
  0
SCALE
  5
4B
102
{ACAD_REACTORS
330
42
102
}
330
42
100
AcDbScale
 70
     0
300
1/4" = 1'-0"
140
0.25
141
12.0
290
     0
  0
SCALE
  5
4C
102
{ACAD_REACTORS
330
42
102
}
330
42
100
AcDbScale
 70
     0
300
3/8" = 1'-0"
140
0.375
141
12.0
290
     0
  0
SCALE
  5
4D
102
{ACAD_REACTORS
330
42
102
}
330
42
100
AcDbScale
 70
     0
300
1/2" = 1'-0"
140
0.5
141
12.0
290
     0
  0
SCALE
  5
4E
102
{ACAD_REACTORS
330
42
102
}
330
42
100
AcDbScale
 70
     0
300
3/4" = 1'-0"
140
0.75
141
12.0
290
     0
  0
SCALE
  5
4F
102
{ACAD_REACTORS
330
42
102
}
330
42
100
AcDbScale
 70
     0
300
1" = 1'-0"
140
1.0
141
12.0
290
     0
  0
SCALE
  5
50
102
{ACAD_REACTORS
330
42
102
}
330
42
100
AcDbScale
 70
     0
300
1-1/2" = 1'-0"
140
1.5
141
12.0
290
     0
  0
SCALE
  5
51
102
{ACAD_REACTORS
330
42
102
}
330
42
100
AcDbScale
 70
     0
300
3" = 1'-0"
140
3.0
141
12.0
290
     0
  0
SCALE
  5
52
102
{ACAD_REACTORS
330
42
102
}
330
42
100
AcDbScale
 70
     0
300
6" = 1'-0"
140
6.0
141
12.0
290
     0
  0
SCALE
  5
53
102
{ACAD_REACTORS
330
42
102
}
330
42
100
AcDbScale
 70
     0
300
1'-0" = 1'-0"
140
12.0
141
12.0
290
     0
  0
ACDBSECTIONVIEWSTYLE
  5
69
102
{ACAD_REACTORS
330
68
102
}
330
68
100
AcDbModelDocViewStyle
 70
     0
  3
Imperial24
290
     1
300
Imperial24
 90
        0
100
AcDbSectionViewStyle
 70
     0
 71
     0
 90
       78
 71
     1
340
55
 62
   256
 40
0.24
340
0
340
0
 62
   256
 40
0.24
300
I, O, Q, S, X, Z
 40
0.48
 90
        3
 40
0.18
 90
        1
 71
     2
340
5D
 90
       25
 62
   256
340
5D
 90
       50
 62
   256
 40
0.24
 40
0.0
 40
0.24
 71
     3
340
55
 62
   256
 40
0.24
 90
        1
 40
0.75
 90
        1
300
%<\AcVar ViewType \f "%tc1">% %<\AcVar ViewSectionStartId>%-%<\AcVar ViewSectionEndId>%\PSCALE %<\AcVar ViewScale \f "%sn">%
 71
     4
 62
   256
 62
   257
300
ANSI31
 40
1.0
 90
        0
290
     0
290
     0
 90
        6
 40
0.0
 40
1.570796326794896
 40
0.2617993877991494
 40
1.308996938995747
 40
-0.2617993877991494
 40
1.832595714594046
  0
TABLESTYLE
  5
65
102
{ACAD_XDICTIONARY
360
9E
102
}
102
{ACAD_REACTORS
330
64
102
}
330
64
100
AcDbTableStyle
280
     0
  3
Standard
 70
     0
 71
     0
 40
0.06
 41
0.06
280
     0
281
     0
  7
Standard
140
0.18
170
     2
 62
     0
 63
     7
283
     0
 90
      512
 91
        0
  1

274
    -2
284
     1
 64
     0
275
    -2
285
     1
 65
     0
276
    -2
286
     1
 66
     0
277
    -2
287
     1
 67
     0
278
    -2
288
     1
 68
     0
279
    -2
289
     1
 69
     0
  7
Standard
140
0.25
170
     5
 62
     0
 63
     7
283
     0
 90
      512
 91
        0
  1

274
    -2
284
     1
 64
     0
275
    -2
285
     1
 65
     0
276
    -2
286
     1
 66
     0
277
    -2
287
     1
 67
     0
278
    -2
288
     1
 68
     0
279
    -2
289
     1
 69
     0
  7
Standard
140
0.18
170
     5
 62
     0
 63
     7
283
     0
 90
      512
 91
        0
  1

274
    -2
284
     1
 64
     0
275
    -2
285
     1
 65
     0
276
    -2
286
     1
 66
     0
277
    -2
287
     1
 67
     0
278
    -2
288
     1
 68
     0
279
    -2
289
     1
 69
     0
  0
VISUALSTYLE
  5
2F
102
{ACAD_REACTORS
330
29
102
}
330
29
100
AcDbVisualStyle
  2
2dWireframe
 70
     4
177
     3
291
     0
 70
    58
 90
        0
176
     1
 90
        2
176
     1
 90
        0
176
     1
 90
        0
176
     1
 40
0.6
176
     1
 40
30.0
176
     1
 62
     7
420
 16777215
176
     1
 90
        1
176
     1
 90
        4
176
     1
 62
     7
176
     1
 62
   257
176
     1
 90
        1
176
     1
 90
        1
176
     1
 40
1.0
176
     1
 90
        0
176
     1
 62
   257
176
     1
 40
1.0
176
     1
 90
        1
176
     1
 90
        6
176
     1
 90
        2
176
     1
 62
     7
176
     1
 90
        5
176
     1
 90
        0
176
     1
 90
        0
176
     1
290
     0
176
     1
 90
        1
176
     1
 40
0.0
176
     1
 90
        0
176
     1
290
     1
176
     1
290
     1
176
     1
290
     0
176
     1
290
     0
176
     1
290
     0
176
     1
290
     0
176
     1
290
     0
176
     1
290
     0
176
     1
290
     0
176
     1
 90
       50
176
     1
 40
0.0
176
     1
 40
1.0
176
     1
 90
        0
176
     1
 62
    18
420
        0
176
     1
 90
       50
176
     1
 90
        3
176
     1
 62
     5
420
      255
176
     1
290
     0
176
     1
 90
       50
176
     1
 90
       50
176
     1
 90
       50
176
     1
290
     0
176
     1
 90
       50
176
     1
 62
   256
176
     0
 40
1.0
176
     0
 90
        2
176
     1
  1
strokes_ogs.tif
176
     1
290
     0
176
     1
 40
1.0
176
     1
 40
1.0
176
     1
  0
VISUALSTYLE
  5
2E
102
{ACAD_REACTORS
330
29
102
}
330
29
100
AcDbVisualStyle
  2
Basic
 70
     7
177
     3
291
     1
 70
    58
 90
        1
176
     1
 90
        0
176
     1
 90
        1
176
     1
 90
        0
176
     1
 40
0.6
176
     1
 40
30.0
176
     1
 62
     7
420
 16777215
176
     1
 90
        0
176
     1
 90
        4
176
     1
 62
     7
176
     1
 62
   257
176
     1
 90
        1
176
     1
 90
        1
176
     1
 40
1.0
176
     1
 90
        8
176
     1
 62
     7
176
     1
 40
1.0
176
     1
 90
        1
176
     1
 90
        6
176
     1
 90
        2
176
     1
 62
     7
176
     1
 90
        5
176
     1
 90
        0
176
     1
 90
        0
176
     1
290
     0
176
     1
 90
        1
176
     1
 40
0.0
176
     1
 90
        0
176
     1
290
     0
176
     1
290
     1
176
     1
290
     1
176
     1
290
     0
176
     1
290
     0
176
     1
290
     0
176
     1
290
     0
176
     1
290
     0
176
     1
290
     0
176
     1
 90
       50
176
     1
 40
0.0
176
     1
 40
1.0
176
     1
 90
        0
176
     1
 62
    18
420
        0
176
     1
 90
       50
176
     1
 90
        3
176
     1
 62
     5
420
      255
176
     1
290
     0
176
     1
 90
       50
176
     1
 90
       50
176
     1
 90
       50
176
     1
290
     0
176
     1
 90
       50
176
     1
 62
   256
176
     0
 40
1.0
176
     0
 90
        2
176
     1
  1
strokes_ogs.tif
176
     1
290
     0
176
     1
 40
1.0
176
     1
 40
1.0
176
     1
  0
VISUALSTYLE
  5
35
102
{ACAD_REACTORS
330
29
102
}
330
29
100
AcDbVisualStyle
  2
Brighten
 70
    12
177
     3
291
     1
 70
    58
 90
        2
176
     1
 90
        2
176
     1
 90
        0
176
     1
 90
        0
176
     1
 40
0.6
176
     1
 40
30.0
176
     1
 62
     7
420
 16777215
176
     1
 90
        1
176
     1
 90
        4
176
     1
 62
     7
176
     1
 62
   257
176
     1
 90
        1
176
     1
 90
        1
176
     1
 40
1.0
176
     1
 90
        8
176
     1
 62
     7
176
     1
 40
1.0
176
     1
 90
        1
176
     1
 90
        6
176
     1
 90
        2
176
     1
 62
     7
176
     1
 90
        5
176
     1
 90
        0
176
     1
 90
        0
176
     1
290
     0
176
     1
 90
        1
176
     1
 40
50.0
176
     1
 90
        0
176
     1
290
     0
176
     1
290
     1
176
     1
290
     1
176
     1
290
     0
176
     1
290
     0
176
     1
290
     0
176
     1
290
     0
176
     1
290
     0
176
     1
290
     0
176
     1
 90
       50
176
     1
 40
0.0
176
     1
 40
1.0
176
     1
 90
        0
176
     1
 62
    18
420
        0
176
     1
 90
       50
176
     1
 90
        3
176
     1
 62
     5
420
      255
176
     1
290
     0
176
     1
 90
       50
176
     1
 90
       50
176
     1
 90
       50
176
     1
290
     0
176
     1
 90
       50
176
     1
 62
   256
176
     0
 40
1.0
176
     0
 90
        2
176
     1
  1
strokes_ogs.tif
176
     1
290
     0
176
     1
 40
1.0
176
     1
 40
1.0
176
     1
  0
VISUALSTYLE
  5
39
102
{ACAD_REACTORS
330
29
102
}
330
29
100
AcDbVisualStyle
  2
ColorChange
 70
    16
177
     3
291
     1
 70
    58
 90
        2
176
     1
 90
        2
176
     1
 90
        3
176
     1
 90
        0
176
     1
 40
0.6
176
     1
 40
30.0
176
     1
 62
     8
420
  8421504
176
     1
 90
        1
176
     1
 90
        4
176
     1
 62
     7
176
     1
 62
   257
176
     1
 90
        1
176
     1
 90
        1
176
     1
 40
1.0
176
     1
 90
        8
176
     1
 62
     8
420
  8421504
176
     1
 40
1.0
176
     1
 90
        1
176
     1
 90
        6
176
     1
 90
        2
176
     1
 62
     7
176
     1
 90
        5
176
     1
 90
        0
176
     1
 90
        0
176
     1
290
     0
176
     1
 90
        1
176
     1
 40
0.0
176
     1
 90
        0
176
     1
290
     0
176
     1
290
     1
176
     1
290
     1
176
     1
290
     0
176
     1
290
     0
176
     1
290
     0
176
     1
290
     0
176
     1
290
     0
176
     1
290
     0
176
     1
 90
       50
176
     1
 40
0.0
176
     1
 40
1.0
176
     1
 90
        0
176
     1
 62
    18
420
        0
176
     1
 90
       50
176
     1
 90
        3
176
     1
 62
     5
420
      255
176
     1
290
     0
176
     1
 90
       50
176
     1
 90
       50
176
     1
 90
       50
176
     1
290
     0
176
     1
 90
       50
176
     1
 62
   256
176
     0
 40
1.0
176
     0
 90
        2
176
     1
  1
strokes_ogs.tif
176
     1
290
     0
176
     1
 40
1.0
176
     1
 40
1.0
176
     1
  0
VISUALSTYLE
  5
32
102
{ACAD_REACTORS
330
29
102
}
330
29
100
AcDbVisualStyle
  2
Conceptual
 70
     9
177
     3
291
     0
 70
    58
 90
        3
176
     1
 90
        2
176
     1
 90
        0
176
     1
 90
        0
176
     1
 40
0.6
176
     1
 40
30.0
176
     1
 62
     7
420
 16777215
176
     1
 90
        2
176
     1
 90
        2
176
     1
 62
     7
176
     1
 62
   257
176
     1
 90
        1
176
     1
 90
        1
176
     1
 40
179.0
176
     1
 90
        8
176
     1
 62
     7
176
     1
 40
1.0
176
     1
 90
        1
176
     1
 90
        6
176
     1
 90
        2
176
     1
 62
     7
176
     1
 90
        3
176
     1
 90
        0
176
     1
 90
        0
176
     1
290
     0
176
     1
 90
        1
176
     1
 40
0.0
176
     1
 90
        0
176
     1
290
     0
176
     1
290
     1
176
     1
290
     1
176
     1
290
     0
176
     1
290
     0
176
     1
290
     0
176
     1
290
     0
176
     1
290
     0
176
     1
290
     0
176
     1
 90
       50
176
     1
 40
0.0
176
     1
 40
1.0
176
     1
 90
        0
176
     1
 62
    18
420
        0
176
     1
 90
       50
176
     1
 90
        3
176
     1
 62
     5
420
      255
176
     1
290
     0
176
     1
 90
       50
176
     1
 90
       50
176
     1
 90
       50
176
     1
290
     0
176
     1
 90
       50
176
     1
 62
   256
176
     0
 40
1.0
176
     0
 90
        2
176
     1
  1
strokes_ogs.tif
176
     1
290
     0
176
     1
 40
1.0
176
     1
 40
1.0
176
     1
  0
VISUALSTYLE
  5
34
102
{ACAD_REACTORS
330
29
102
}
330
29
100
AcDbVisualStyle
  2
Dim
 70
    11
177
     3
291
     1
 70
    58
 90
        2
176
     1
 90
        2
176
     1
 90
        0
176
     1
 90
        0
176
     1
 40
0.6
176
     1
 40
30.0
176
     1
 62
     7
420
 16777215
176
     1
 90
        1
176
     1
 90
        4
176
     1
 62
     7
176
     1
 62
   257
176
     1
 90
        1
176
     1
 90
        1
176
     1
 40
1.0
176
     1
 90
        8
176
     1
 62
     7
176
     1
 40
1.0
176
     1
 90
        1
176
     1
 90
        6
176
     1
 90
        2
176
     1
 62
     7
176
     1
 90
        5
176
     1
 90
        0
176
     1
 90
        0
176
     1
290
     0
176
     1
 90
        1
176
     1
 40
-50.0
176
     1
 90
        0
176
     1
290
     0
176
     1
290
     1
176
     1
290
     1
176
     1
290
     0
176
     1
290
     0
176
     1
290
     0
176
     1
290
     0
176
     1
290
     0
176
     1
290
     0
176
     1
 90
       50
176
     1
 40
0.0
176
     1
 40
1.0
176
     1
 90
        0
176
     1
 62
    18
420
        0
176
     1
 90
       50
176
     1
 90
        3
176
     1
 62
     5
420
      255
176
     1
290
     0
176
     1
 90
       50
176
     1
 90
       50
176
     1
 90
       50
176
     1
290
     0
176
     1
 90
       50
176
     1
 62
   256
176
     0
 40
1.0
176
     0
 90
        2
176
     1
  1
strokes_ogs.tif
176
     1
290
     0
176
     1
 40
1.0
176
     1
 40
1.0
176
     1
  0
VISUALSTYLE
  5
41
102
{ACAD_REACTORS
330
29
102
}
330
29
100
AcDbVisualStyle
  2
EdgeColorOff
 70
    22
177
     3
291
     1
 70
    58
 90
        2
176
     0
 90
        2
176
     0
 90
        0
176
     0
 90
        0
176
     0
 40
0.6
176
     0
 40
30.0
176
     0
 62
     7
420
 16777215
176
     0
 90
        1
176
     0
 90
        4
176
     0
 62
     7
176
     0
 62
   257
176
     0
 90
        1
176
     0
 90
        1
176
     0
 40
1.0
176
     0
 90
        8
176
     2
 62
     7
176
     0
 40
1.0
176
     0
 90
        1
176
     0
 90
        6
176
     0
 90
        2
176
     0
 62
     7
176
     0
 90
        5
176
     0
 90
        0
176
     0
 90
        0
176
     0
290
     0
176
     0
 90
        1
176
     0
 40
0.0
176
     0
 90
        0
176
     0
290
     0
176
     0
290
     1
176
     0
290
     1
176
     0
290
     0
176
     0
290
     0
176
     0
290
     0
176
     0
290
     0
176
     0
290
     0
176
     0
290
     0
176
     0
 90
       50
176
     0
 40
0.0
176
     0
 40
1.0
176
     0
 90
        0
176
     0
 62
    18
420
        0
176
     0
 90
       50
176
     0
 90
        3
176
     0
 62
     5
420
      255
176
     0
290
     0
176
     0
 90
       50
176
     0
 90
       50
176
     0
 90
       50
176
     0
290
     0
176
     0
 90
       50
176
     0
 62
   256
176
     0
 40
1.0
176
     0
 90
        2
176
     0
  1
strokes_ogs.tif
176
     0
290
     0
176
     0
 40
1.0
176
     0
 40
1.0
176
     0
  0
VISUALSTYLE
  5
38
102
{ACAD_REACTORS
330
29
102
}
330
29
100
AcDbVisualStyle
  2
Facepattern
 70
    15
177
     3
291
     1
 70
    58
 90
        2
176
     1
 90
        2
176
     1
 90
        0
176
     1
 90
        0
176
     1
 40
0.6
176
     1
 40
30.0
176
     1
 62
     7
420
 16777215
176
     1
 90
        1
176
     1
 90
        4
176
     1
 62
     7
176
     1
 62
   257
176
     1
 90
        1
176
     1
 90
        1
176
     1
 40
1.0
176
     1
 90
        8
176
     1
 62
     7
176
     1
 40
1.0
176
     1
 90
        1
176
     1
 90
        6
176
     1
 90
        2
176
     1
 62
     7
176
     1
 90
        5
176
     1
 90
        0
176
     1
 90
        0
176
     1
290
     0
176
     1
 90
        1
176
     1
 40
0.0
176
     1
 90
        0
176
     1
290
     0
176
     1
290
     1
176
     1
290
     1
176
     1
290
     0
176
     1
290
     0
176
     1
290
     0
176
     1
290
     0
176
     1
290
     0
176
     1
290
     0
176
     1
 90
       50
176
     1
 40
0.0
176
     1
 40
1.0
176
     1
 90
        0
176
     1
 62
    18
420
        0
176
     1
 90
       50
176
     1
 90
        3
176
     1
 62
     5
420
      255
176
     1
290
     0
176
     1
 90
       50
176
     1
 90
       50
176
     1
 90
       50
176
     1
290
     0
176
     1
 90
       50
176
     1
 62
   256
176
     0
 40
1.0
176
     0
 90
        2
176
     1
  1
strokes_ogs.tif
176
     1
290
     0
176
     1
 40
1.0
176
     1
 40
1.0
176
     1
  0
VISUALSTYLE
  5
2A
102
{ACAD_REACTORS
330
29
102
}
330
29
100
AcDbVisualStyle
  2
Flat
 70
     0
177
     3
291
     1
 70
    58
 90
        2
176
     1
 90
        1
176
     1
 90
        1
176
     1
 90
        2
176
     1
 40
0.6
176
     1
 40
30.0
176
     1
 62
     7
420
 16777215
176
     1
 90
        0
176
     1
 90
        0
176
     1
 62
     7
176
     1
 62
   257
176
     1
 90
        1
176
     1
 90
        1
176
     1
 40
1.0
176
     1
 90
        8
176
     1
 62
     7
176
     1
 40
1.0
176
     1
 90
        1
176
     1
 90
        6
176
     1
 90
        2
176
     1
 62
     7
176
     1
 90
        5
176
     1
 90
        0
176
     1
 90
        0
176
     1
290
     0
176
     1
 90
       13
176
     1
 40
0.0
176
     1
 90
        0
176
     1
290
     0
176
     1
290
     1
176
     1
290
     1
176
     1
290
     0
176
     1
290
     0
176
     1
290
     0
176
     1
290
     0
176
     1
290
     0
176
     1
290
     0
176
     1
 90
       50
176
     1
 40
0.0
176
     1
 40
1.0
176
     1
 90
        0
176
     1
 62
    18
420
        0
176
     1
 90
       50
176
     1
 90
        3
176
     1
 62
     5
420
      255
176
     1
290
     0
176
     1
 90
       50
176
     1
 90
       50
176
     1
 90
       50
176
     1
290
     0
176
     1
 90
       50
176
     1
 62
   256
176
     0
 40
1.0
176
     0
 90
        2
176
     1
  1
strokes_ogs.tif
176
     1
290
     0
176
     1
 40
1.0
176
     1
 40
1.0
176
     1
  0
VISUALSTYLE
  5
2B
102
{ACAD_REACTORS
330
29
102
}
330
29
100
AcDbVisualStyle
  2
FlatWithEdges
 70
     1
177
     3
291
     1
 70
    58
 90
        2
176
     1
 90
        1
176
     1
 90
        1
176
     1
 90
        2
176
     1
 40
0.6
176
     1
 40
30.0
176
     1
 62
     7
420
 16777215
176
     1
 90
        1
176
     1
 90
        0
176
     1
 62
     7
176
     1
 62
   257
176
     1
 90
        1
176
     1
 90
        1
176
     1
 40
1.0
176
     1
 90
        0
176
     1
 62
   257
176
     1
 40
1.0
176
     1
 90
        1
176
     1
 90
        6
176
     1
 90
        2
176
     1
 62
     7
176
     1
 90
        5
176
     1
 90
        0
176
     1
 90
        0
176
     1
290
     0
176
     1
 90
       13
176
     1
 40
0.0
176
     1
 90
        0
176
     1
290
     0
176
     1
290
     1
176
     1
290
     1
176
     1
290
     0
176
     1
290
     0
176
     1
290
     0
176
     1
290
     0
176
     1
290
     0
176
     1
290
     0
176
     1
 90
       50
176
     1
 40
0.0
176
     1
 40
1.0
176
     1
 90
        0
176
     1
 62
    18
420
        0
176
     1
 90
       50
176
     1
 90
        3
176
     1
 62
     5
420
      255
176
     1
290
     0
176
     1
 90
       50
176
     1
 90
       50
176
     1
 90
       50
176
     1
290
     0
176
     1
 90
       50
176
     1
 62
   256
176
     0
 40
1.0
176
     0
 90
        2
176
     1
  1
strokes_ogs.tif
176
     1
290
     0
176
     1
 40
1.0
176
     1
 40
1.0
176
     1
  0
VISUALSTYLE
  5
2C
102
{ACAD_REACTORS
330
29
102
}
330
29
100
AcDbVisualStyle
  2
Gouraud
 70
     2
177
     3
291
     1
 70
    58
 90
        2
176
     1
 90
        2
176
     1
 90
        1
176
     1
 90
        2
176
     1
 40
0.6
176
     1
 40
30.0
176
     1
 62
     7
420
 16777215
176
     1
 90
        0
176
     1
 90
        0
176
     1
 62
     7
176
     1
 62
   257
176
     1
 90
        1
176
     1
 90
        1
176
     1
 40
1.0
176
     1
 90
        0
176
     1
 62
     7
176
     1
 40
1.0
176
     1
 90
        1
176
     1
 90
        6
176
     1
 90
        2
176
     1
 62
     7
176
     1
 90
        5
176
     1
 90
        0
176
     1
 90
        0
176
     1
290
     0
176
     1
 90
       13
176
     1
 40
0.0
176
     1
 90
        0
176
     1
290
     0
176
     1
290
     1
176
     1
290
     1
176
     1
290
     0
176
     1
290
     0
176
     1
290
     0
176
     1
290
     0
176
     1
290
     0
176
     1
290
     0
176
     1
 90
       50
176
     1
 40
0.0
176
     1
 40
1.0
176
     1
 90
        0
176
     1
 62
    18
420
        0
176
     1
 90
       50
176
     1
 90
        3
176
     1
 62
     5
420
      255
176
     1
290
     0
176
     1
 90
       50
176
     1
 90
       50
176
     1
 90
       50
176
     1
290
     0
176
     1
 90
       50
176
     1
 62
   256
176
     0
 40
1.0
176
     0
 90
        2
176
     1
  1
strokes_ogs.tif
176
     1
290
     0
176
     1
 40
1.0
176
     1
 40
1.0
176
     1
  0
VISUALSTYLE
  5
2D
102
{ACAD_REACTORS
330
29
102
}
330
29
100
AcDbVisualStyle
  2
GouraudWithEdges
 70
     3
177
     3
291
     1
 70
    58
 90
        2
176
     1
 90
        2
176
     1
 90
        1
176
     1
 90
        2
176
     1
 40
0.6
176
     1
 40
30.0
176
     1
 62
     7
420
 16777215
176
     1
 90
        1
176
     1
 90
        0
176
     1
 62
     7
176
     1
 62
   257
176
     1
 90
        1
176
     1
 90
        1
176
     1
 40
1.0
176
     1
 90
        0
176
     1
 62
   257
176
     1
 40
1.0
176
     1
 90
        1
176
     1
 90
        6
176
     1
 90
        2
176
     1
 62
     7
176
     1
 90
        5
176
     1
 90
        0
176
     1
 90
        0
176
     1
290
     0
176
     1
 90
       13
176
     1
 40
0.0
176
     1
 90
        0
176
     1
290
     0
176
     1
290
     1
176
     1
290
     1
176
     1
290
     0
176
     1
290
     0
176
     1
290
     0
176
     1
290
     0
176
     1
290
     0
176
     1
290
     0
176
     1
 90
       50
176
     1
 40
0.0
176
     1
 40
1.0
176
     1
 90
        0
176
     1
 62
    18
420
        0
176
     1
 90
       50
176
     1
 90
        3
176
     1
 62
     5
420
      255
176
     1
290
     0
176
     1
 90
       50
176
     1
 90
       50
176
     1
 90
       50
176
     1
290
     0
176
     1
 90
       50
176
     1
 62
   256
176
     0
 40
1.0
176
     0
 90
        2
176
     1
  1
strokes_ogs.tif
176
     1
290
     0
176
     1
 40
1.0
176
     1
 40
1.0
176
     1
  0
VISUALSTYLE
  5
31
102
{ACAD_REACTORS
330
29
102
}
330
29
100
AcDbVisualStyle
  2
Hidden
 70
     6
177
     3
291
     0
 70
    58
 90
        1
176
     1
 90
        2
176
     1
 90
        2
176
     1
 90
        0
176
     1
 40
0.6
176
     1
 40
30.0
176
     1
 62
     7
420
 16777215
176
     1
 90
        2
176
     1
 90
        2
176
     1
 62
     7
176
     1
 62
   257
176
     1
 90
        2
176
     1
 90
        1
176
     1
 40
40.0
176
     1
 90
        0
176
     1
 62
   257
176
     1
 40
1.0
176
     1
 90
        1
176
     1
 90
        6
176
     1
 90
        2
176
     1
 62
     7
176
     1
 90
        3
176
     1
 90
        0
176
     1
 90
        0
176
     1
290
     0
176
     1
 90
        1
176
     1
 40
0.0
176
     1
 90
        0
176
     1
290
     0
176
     1
290
     1
176
     1
290
     1
176
     1
290
     0
176
     1
290
     0
176
     1
290
     0
176
     1
290
     0
176
     1
290
     0
176
     1
290
     0
176
     1
 90
       50
176
     1
 40
0.0
176
     1
 40
1.0
176
     1
 90
        0
176
     1
 62
    18
420
        0
176
     1
 90
       50
176
     1
 90
        3
176
     1
 62
     5
420
      255
176
     1
290
     0
176
     1
 90
       50
176
     1
 90
       50
176
     1
 90
       50
176
     1
290
     0
176
     1
 90
       50
176
     1
 62
   256
176
     0
 40
1.0
176
     0
 90
        2
176
     1
  1
strokes_ogs.tif
176
     1
290
     0
176
     1
 40
1.0
176
     1
 40
1.0
176
     1
  0
VISUALSTYLE
  5
3F
102
{ACAD_REACTORS
330
29
102
}
330
29
100
AcDbVisualStyle
  2
JitterOff
 70
    20
177
     3
291
     1
 70
    58
 90
        2
176
     0
 90
        2
176
     0
 90
        0
176
     0
 90
        0
176
     0
 40
0.6
176
     0
 40
30.0
176
     0
 62
     7
420
 16777215
176
     0
 90
        1
176
     0
 90
        4
176
     0
 62
     7
176
     0
 62
   257
176
     0
 90
        1
176
     0
 90
        1
176
     0
 40
1.0
176
     0
 90
       10
176
     2
 62
     7
176
     0
 40
1.0
176
     0
 90
        1
176
     0
 90
        6
176
     0
 90
        2
176
     0
 62
     7
176
     0
 90
        5
176
     0
 90
        0
176
     0
 90
        0
176
     0
290
     0
176
     0
 90
        1
176
     0
 40
0.0
176
     0
 90
        0
176
     0
290
     0
176
     0
290
     1
176
     0
290
     1
176
     0
290
     0
176
     0
290
     0
176
     0
290
     0
176
     0
290
     0
176
     0
290
     0
176
     0
290
     0
176
     0
 90
       50
176
     0
 40
0.0
176
     0
 40
1.0
176
     0
 90
        0
176
     0
 62
    18
420
        0
176
     0
 90
       50
176
     0
 90
        3
176
     0
 62
     5
420
      255
176
     0
290
     0
176
     0
 90
       50
176
     0
 90
       50
176
     0
 90
       50
176
     0
290
     0
176
     0
 90
       50
176
     0
 62
   256
176
     0
 40
1.0
176
     0
 90
        2
176
     0
  1
strokes_ogs.tif
176
     0
290
     0
176
     0
 40
1.0
176
     0
 40
1.0
176
     0
  0
VISUALSTYLE
  5
37
102
{ACAD_REACTORS
330
29
102
}
330
29
100
AcDbVisualStyle
  2
Linepattern
 70
    14
177
     3
291
     1
 70
    58
 90
        2
176
     1
 90
        2
176
     1
 90
        0
176
     1
 90
        0
176
     1
 40
0.6
176
     1
 40
30.0
176
     1
 62
     7
420
 16777215
176
     1
 90
        1
176
     1
 90
        4
176
     1
 62
     7
176
     1
 62
   257
176
     1
 90
        7
176
     1
 90
        7
176
     1
 40
1.0
176
     1
 90
        8
176
     1
 62
     7
176
     1
 40
1.0
176
     1
 90
        1
176
     1
 90
        6
176
     1
 90
        2
176
     1
 62
     7
176
     1
 90
        5
176
     1
 90
        0
176
     1
 90
        0
176
     1
290
     0
176
     1
 90
        1
176
     1
 40
0.0
176
     1
 90
        0
176
     1
290
     0
176
     1
290
     1
176
     1
290
     1
176
     1
290
     0
176
     1
290
     0
176
     1
290
     0
176
     1
290
     0
176
     1
290
     0
176
     1
290
     0
176
     1
 90
       50
176
     1
 40
0.0
176
     1
 40
1.0
176
     1
 90
        0
176
     1
 62
    18
420
        0
176
     1
 90
       50
176
     1
 90
        3
176
     1
 62
     5
420
      255
176
     1
290
     0
176
     1
 90
       50
176
     1
 90
       50
176
     1
 90
       50
176
     1
290
     0
176
     1
 90
       50
176
     1
 62
   256
176
     0
 40
1.0
176
     0
 90
        2
176
     1
  1
strokes_ogs.tif
176
     1
290
     0
176
     1
 40
1.0
176
     1
 40
1.0
176
     1
  0
VISUALSTYLE
  5
40
102
{ACAD_REACTORS
330
29
102
}
330
29
100
AcDbVisualStyle
  2
OverhangOff
 70
    21
177
     3
291
     1
 70
    58
 90
        2
176
     0
 90
        2
176
     0
 90
        0
176
     0
 90
        0
176
     0
 40
0.6
176
     0
 40
30.0
176
     0
 62
     7
420
 16777215
176
     0
 90
        1
176
     0
 90
        4
176
     0
 62
     7
176
     0
 62
   257
176
     0
 90
        1
176
     0
 90
        1
176
     0
 40
1.0
176
     0
 90
        9
176
     2
 62
     7
176
     0
 40
1.0
176
     0
 90
        1
176
     0
 90
        6
176
     0
 90
        2
176
     0
 62
     7
176
     0
 90
        5
176
     0
 90
        0
176
     0
 90
        0
176
     0
290
     0
176
     0
 90
        1
176
     0
 40
0.0
176
     0
 90
        0
176
     0
290
     0
176
     0
290
     1
176
     0
290
     1
176
     0
290
     0
176
     0
290
     0
176
     0
290
     0
176
     0
290
     0
176
     0
290
     0
176
     0
290
     0
176
     0
 90
       50
176
     0
 40
0.0
176
     0
 40
1.0
176
     0
 90
        0
176
     0
 62
    18
420
        0
176
     0
 90
       50
176
     0
 90
        3
176
     0
 62
     5
420
      255
176
     0
290
     0
176
     0
 90
       50
176
     0
 90
       50
176
     0
 90
       50
176
     0
290
     0
176
     0
 90
       50
176
     0
 62
   256
176
     0
 40
1.0
176
     0
 90
        2
176
     0
  1
strokes_ogs.tif
176
     0
290
     0
176
     0
 40
1.0
176
     0
 40
1.0
176
     0
  0
VISUALSTYLE
  5
33
102
{ACAD_REACTORS
330
29
102
}
330
29
100
AcDbVisualStyle
  2
Realistic
 70
     8
177
     3
291
     0
 70
    58
 90
        2
176
     1
 90
        3
176
     1
 90
        0
176
     1
 90
        2
176
     1
 40
0.6
176
     1
 40
30.0
176
     1
 62
     7
420
 16777215
176
     1
 90
        0
176
     1
 90
        0
176
     1
 62
     7
176
     1
 62
   257
176
     1
 90
        1
176
     1
 90
        1
176
     1
 40
1.0
176
     1
 90
        8
176
     1
 62
   257
176
     1
 40
1.0
176
     1
 90
        1
176
     1
 90
        6
176
     1
 90
        2
176
     1
 62
     7
176
     1
 90
        3
176
     1
 90
        0
176
     1
 90
        0
176
     1
290
     0
176
     1
 90
       13
176
     1
 40
0.0
176
     1
 90
        0
176
     1
290
     0
176
     1
290
     1
176
     1
290
     1
176
     1
290
     0
176
     1
290
     0
176
     1
290
     0
176
     1
290
     0
176
     1
290
     0
176
     1
290
     0
176
     1
 90
       50
176
     1
 40
0.0
176
     1
 40
1.0
176
     1
 90
        0
176
     1
 62
    18
420
        0
176
     1
 90
       50
176
     1
 90
        3
176
     1
 62
     5
420
      255
176
     1
290
     0
176
     1
 90
       50
176
     1
 90
       50
176
     1
 90
       50
176
     1
290
     0
176
     1
 90
       50
176
     1
 62
   256
176
     0
 40
1.0
176
     0
 90
        2
176
     1
  1
strokes_ogs.tif
176
     1
290
     0
176
     1
 40
1.0
176
     1
 40
1.0
176
     1
  0
VISUALSTYLE
  5
3E
102
{ACAD_REACTORS
330
29
102
}
330
29
100
AcDbVisualStyle
  2
Shaded
 70
    27
177
     3
291
     0
 70
    58
 90
        2
176
     1
 90
        2
176
     1
 90
        1
176
     1
 90
        2
176
     1
 40
0.6
176
     1
 40
30.0
176
     1
 62
     7
420
 16777215
176
     1
 90
        0
176
     1
 90
        4
176
     1
 62
     7
176
     1
 62
   257
176
     1
 90
        1
176
     1
 90
        1
176
     1
 40
1.0
176
     1
 90
        8
176
     1
 62
   257
176
     1
 40
1.0
176
     1
 90
        1
176
     1
 90
        6
176
     1
 90
        2
176
     1
 62
     8
420
  7895160
176
     1
 90
        3
176
     1
 90
        0
176
     1
 90
        0
176
     1
290
     0
176
     1
 90
        5
176
     1
 40
0.0
176
     1
 90
        0
176
     1
290
     0
176
     1
290
     1
176
     1
290
     1
176
     1
290
     0
176
     1
290
     0
176
     1
290
     0
176
     1
290
     0
176
     1
290
     0
176
     1
290
     0
176
     1
 90
       50
176
     1
 40
0.0
176
     1
 40
1.0
176
     1
 90
        0
176
     1
 62
    18
420
        0
176
     1
 90
       50
176
     1
 90
        3
176
     1
 62
     5
420
      255
176
     1
290
     0
176
     1
 90
       50
176
     1
 90
       50
176
     1
 90
       50
176
     1
290
     0
176
     1
 90
       50
176
     1
 62
   256
176
     0
 40
1.0
176
     0
 90
        2
176
     1
  1
strokes_ogs.tif
176
     1
290
     0
176
     1
 40
1.0
176
     1
 40
1.0
176
     1
  0
VISUALSTYLE
  5
3D
102
{ACAD_REACTORS
330
29
102
}
330
29
100
AcDbVisualStyle
  2
Shaded with edges
 70
    26
177
     3
291
     0
 70
    58
 90
        2
176
     1
 90
        2
176
     1
 90
        1
176
     1
 90
        2
176
     1
 40
0.6
176
     1
 40
30.0
176
     1
 62
     7
420
 16777215
176
     1
 90
        1
176
     1
 90
        2
176
     1
 62
     7
176
     1
 62
   257
176
     1
 90
        2
176
     1
 90
        1
176
     1
 40
1.0
176
     1
 90
        8
176
     1
 62
   257
176
     1
 40
1.0
176
     1
 90
        1
176
     1
 90
        6
176
     1
 90
        2
176
     1
 62
     7
176
     1
 90
        3
176
     1
 90
        0
176
     1
 90
        0
176
     1
290
     0
176
     1
 90
        5
176
     1
 40
0.0
176
     1
 90
        0
176
     1
290
     0
176
     1
290
     1
176
     1
290
     1
176
     1
290
     0
176
     1
290
     0
176
     1
290
     0
176
     1
290
     0
176
     1
290
     0
176
     1
290
     0
176
     1
 90
       50
176
     1
 40
0.0
176
     1
 40
1.0
176
     1
 90
        0
176
     1
 62
    18
420
        0
176
     1
 90
       50
176
     1
 90
        3
176
     1
 62
     5
420
      255
176
     1
290
     0
176
     1
 90
       50
176
     1
 90
       50
176
     1
 90
       50
176
     1
290
     0
176
     1
 90
       50
176
     1
 62
   256
176
     0
 40
1.0
176
     0
 90
        2
176
     1
  1
strokes_ogs.tif
176
     1
290
     0
176
     1
 40
1.0
176
     1
 40
1.0
176
     1
  0
VISUALSTYLE
  5
3A
102
{ACAD_REACTORS
330
29
102
}
330
29
100
AcDbVisualStyle
  2
Shades of Gray
 70
    23
177
     3
291
     0
 70
    58
 90
        2
176
     1
 90
        2
176
     1
 90
        3
176
     1
 90
        0
176
     1
 40
0.6
176
     1
 40
30.0
176
     1
 62
     7
420
 16777215
176
     1
 90
        2
176
     1
 90
        2
176
     1
 62
     7
176
     1
 62
     7
176
     1
 90
        1
176
     1
 90
        1
176
     1
 40
40.0
176
     1
 90
        8
176
     1
 62
     7
176
     1
 40
1.0
176
     1
 90
        1
176
     1
 90
        6
176
     1
 90
        2
176
     1
 62
     7
176
     1
 90
        3
176
     1
 90
        0
176
     1
 90
        0
176
     1
290
     0
176
     1
 90
        1
176
     1
 40
0.0
176
     1
 90
        0
176
     1
290
     0
176
     1
290
     1
176
     1
290
     1
176
     1
290
     0
176
     1
290
     0
176
     1
290
     0
176
     1
290
     0
176
     1
290
     0
176
     1
290
     0
176
     1
 90
       50
176
     1
 40
0.0
176
     1
 40
1.0
176
     1
 90
        0
176
     1
 62
    18
420
        0
176
     1
 90
       50
176
     1
 90
        3
176
     1
 62
     5
420
      255
176
     1
290
     0
176
     1
 90
       50
176
     1
 90
       50
176
     1
 90
       50
176
     1
290
     0
176
     1
 90
       50
176
     1
 62
   256
176
     0
 40
1.0
176
     0
 90
        2
176
     1
  1
strokes_ogs.tif
176
     1
290
     0
176
     1
 40
1.0
176
     1
 40
1.0
176
     1
  0
VISUALSTYLE
  5
3B
102
{ACAD_REACTORS
330
29
102
}
330
29
100
AcDbVisualStyle
  2
Sketchy
 70
    24
177
     3
291
     0
 70
    58
 90
        1
176
     1
 90
        2
176
     1
 90
        2
176
     1
 90
        0
176
     1
 40
0.6
176
     1
 40
30.0
176
     1
 62
     7
420
 16777215
176
     1
 90
        2
176
     1
 90
        2
176
     1
 62
     7
176
     1
 62
     7
176
     1
 90
        1
176
     1
 90
        1
176
     1
 40
40.0
176
     1
 90
       11
176
     1
 62
     7
176
     1
 40
1.0
176
     1
 90
        1
176
     1
 90
        6
176
     1
 90
        2
176
     1
 62
     7
176
     1
 90
        6
176
     1
 90
        0
176
     1
 90
        0
176
     1
290
     0
176
     1
 90
        1
176
     1
 40
0.0
176
     1
 90
        0
176
     1
290
     0
176
     1
290
     1
176
     1
290
     1
176
     1
290
     0
176
     1
290
     0
176
     1
290
     0
176
     1
290
     0
176
     1
290
     0
176
     1
290
     0
176
     1
 90
       50
176
     1
 40
0.0
176
     1
 40
1.0
176
     1
 90
        0
176
     1
 62
    18
420
        0
176
     1
 90
       50
176
     1
 90
        3
176
     1
 62
     5
420
      255
176
     1
290
     0
176
     1
 90
       50
176
     1
 90
       50
176
     1
 90
       50
176
     1
290
     0
176
     1
 90
       50
176
     1
 62
   256
176
     0
 40
1.0
176
     0
 90
        2
176
     1
  1
strokes_ogs.tif
176
     1
290
     0
176
     1
 40
1.0
176
     1
 40
1.0
176
     1
  0
VISUALSTYLE
  5
36
102
{ACAD_REACTORS
330
29
102
}
330
29
100
AcDbVisualStyle
  2
Thicken
 70
    13
177
     3
291
     1
 70
    58
 90
        2
176
     1
 90
        2
176
     1
 90
        0
176
     1
 90
        0
176
     1
 40
0.6
176
     1
 40
30.0
176
     1
 62
     7
420
 16777215
176
     1
 90
        1
176
     1
 90
        4
176
     1
 62
     7
176
     1
 62
   257
176
     1
 90
        1
176
     1
 90
        1
176
     1
 40
1.0
176
     1
 90
       12
176
     1
 62
     7
176
     1
 40
1.0
176
     1
 90
        1
176
     1
 90
        6
176
     1
 90
        2
176
     1
 62
     7
176
     1
 90
        5
176
     1
 90
        0
176
     1
 90
        0
176
     1
290
     0
176
     1
 90
        1
176
     1
 40
0.0
176
     1
 90
        0
176
     1
290
     0
176
     1
290
     1
176
     1
290
     1
176
     1
290
     0
176
     1
290
     0
176
     1
290
     0
176
     1
290
     0
176
     1
290
     0
176
     1
290
     0
176
     1
 90
       50
176
     1
 40
0.0
176
     1
 40
1.0
176
     1
 90
        0
176
     1
 62
    18
420
        0
176
     1
 90
       50
176
     1
 90
        3
176
     1
 62
     5
420
      255
176
     1
290
     0
176
     1
 90
       50
176
     1
 90
       50
176
     1
 90
       50
176
     1
290
     0
176
     1
 90
       50
176
     1
 62
   256
176
     0
 40
1.0
176
     0
 90
        2
176
     1
  1
strokes_ogs.tif
176
     1
290
     0
176
     1
 40
1.0
176
     1
 40
1.0
176
     1
  0
VISUALSTYLE
  5
30
102
{ACAD_REACTORS
330
29
102
}
330
29
100
AcDbVisualStyle
  2
Wireframe
 70
     5
177
     3
291
     0
 70
    58
 90
        0
176
     1
 90
        2
176
     1
 90
        0
176
     1
 90
        0
176
     1
 40
0.6
176
     1
 40
30.0
176
     1
 62
     7
420
 16777215
176
     1
 90
        1
176
     1
 90
        4
176
     1
 62
     7
176
     1
 62
   257
176
     1
 90
        1
176
     1
 90
        1
176
     1
 40
1.0
176
     1
 90
        0
176
     1
 62
   257
176
     1
 40
1.0
176
     1
 90
        1
176
     1
 90
        6
176
     1
 90
        2
176
     1
 62
     7
176
     1
 90
        3
176
     1
 90
        0
176
     1
 90
        0
176
     1
290
     0
176
     1
 90
        1
176
     1
 40
0.0
176
     1
 90
        0
176
     1
290
     0
176
     1
290
     1
176
     1
290
     1
176
     1
290
     0
176
     1
290
     0
176
     1
290
     0
176
     1
290
     0
176
     1
290
     0
176
     1
290
     0
176
     1
 90
       50
176
     1
 40
0.0
176
     1
 40
1.0
176
     1
 90
        0
176
     1
 62
    18
420
        0
176
     1
 90
       50
176
     1
 90
        3
176
     1
 62
     5
420
      255
176
     1
290
     0
176
     1
 90
       50
176
     1
 90
       50
176
     1
 90
       50
176
     1
290
     0
176
     1
 90
       50
176
     1
 62
   256
176
     0
 40
1.0
176
     0
 90
        2
176
     1
  1
strokes_ogs.tif
176
     1
290
     0
176
     1
 40
1.0
176
     1
 40
1.0
176
     1
  0
VISUALSTYLE
  5
3C
102
{ACAD_REACTORS
330
29
102
}
330
29
100
AcDbVisualStyle
  2
X-Ray
 70
    25
177
     3
291
     0
 70
    58
 90
        2
176
     1
 90
        2
176
     1
 90
        1
176
     1
 90
        1
176
     1
 40
0.5
176
     1
 40
30.0
176
     1
 62
     7
420
 16777215
176
     1
 90
        1
176
     1
 90
        0
176
     1
 62
     7
176
     1
 62
   257
176
     1
 90
        1
176
     1
 90
        1
176
     1
 40
1.0
176
     1
 90
        8
176
     1
 62
     7
176
     1
 40
1.0
176
     1
 90
        1
176
     1
 90
        6
176
     1
 90
        2
176
     1
 62
     7
176
     1
 90
        3
176
     1
 90
        0
176
     1
 90
        0
176
     1
290
     0
176
     1
 90
       13
176
     1
 40
0.0
176
     1
 90
        0
176
     1
290
     0
176
     1
290
     1
176
     1
290
     1
176
     1
290
     0
176
     1
290
     0
176
     1
290
     0
176
     1
290
     0
176
     1
290
     0
176
     1
290
     0
176
     1
 90
       50
176
     1
 40
0.0
176
     1
 40
1.0
176
     1
 90
        0
176
     1
 62
    18
420
        0
176
     1
 90
       50
176
     1
 90
        3
176
     1
 62
     5
420
      255
176
     1
290
     0
176
     1
 90
       50
176
     1
 90
       50
176
     1
 90
       50
176
     1
290
     0
176
     1
 90
       50
176
     1
 62
   256
176
     0
 40
1.0
176
     0
 90
        2
176
     1
  1
strokes_ogs.tif
176
     1
290
     0
176
     1
 40
1.0
176
     1
 40
1.0
176
     1
  0
DICTIONARYVAR
  5
9D
102
{ACAD_REACTORS
330
98
102
}
330
98
100
DictionaryVariables
280
     0
  1
1:1
  0
DICTIONARYVAR
  5
9A
102
{ACAD_REACTORS
330
98
102
}
330
98
100
DictionaryVariables
280
     0
  1
STANDARD
  0
DICTIONARYVAR
  5
99
102
{ACAD_REACTORS
330
98
102
}
330
98
100
DictionaryVariables
280
     0
  1
STANDARD
  0
DICTIONARYVAR
  5
9B
102
{ACAD_REACTORS
330
98
102
}
330
98
100
DictionaryVariables
280
     0
  1
Imperial24
  0
DICTIONARYVAR
  5
9C
102
{ACAD_REACTORS
330
98
102
}
330
98
100
DictionaryVariables
280
     0
  1
Imperial24
  0
DICTIONARY
  5
1A
330
19
100
AcDbDictionary
280
     1
281
     1
  3
BUMPTILE
360
1C
  3
DIFFUSETILE
360
1B
  3
OPACITYTILE
360
1F
  3
REFLECTIONTILE
360
1E
  3
REFRACTIONTILE
360
20
  3
SPECULARTILE
360
1D
  0
DICTIONARY
  5
12
330
11
100
AcDbDictionary
280
     1
281
     1
  3
BUMPTILE
360
14
  3
DIFFUSETILE
360
13
  3
OPACITYTILE
360
17
  3
REFLECTIONTILE
360
16
  3
REFRACTIONTILE
360
18
  3
SPECULARTILE
360
15
  0
DICTIONARY
  5
22
330
21
100
AcDbDictionary
280
     1
281
     1
  3
BUMPTILE
360
24
  3
DIFFUSETILE
360
23
  3
OPACITYTILE
360
27
  3
REFLECTIONTILE
360
26
  3
REFRACTIONTILE
360
28
  3
SPECULARTILE
360
25
  0
DICTIONARY
  5
9E
330
65
100
AcDbDictionary
280
     1
281
     1
  3
ACAD_ROUNDTRIP_2008_TABLESTYLE_CELLSTYLEMAP
360
9F
  0
XRECORD
  5
1C
102
{ACAD_REACTORS
330
1A
102
}
330
1A
100
AcDbXrecord
280
     1
270
     1
271
     1
  0
XRECORD
  5
1B
102
{ACAD_REACTORS
330
1A
102
}
330
1A
100
AcDbXrecord
280
     1
270
     1
271
     1
  0
XRECORD
  5
1F
102
{ACAD_REACTORS
330
1A
102
}
330
1A
100
AcDbXrecord
280
     1
270
     1
271
     1
  0
XRECORD
  5
1E
102
{ACAD_REACTORS
330
1A
102
}
330
1A
100
AcDbXrecord
280
     1
270
     1
271
     1
  0
XRECORD
  5
20
102
{ACAD_REACTORS
330
1A
102
}
330
1A
100
AcDbXrecord
280
     1
270
     1
271
     1
  0
XRECORD
  5
1D
102
{ACAD_REACTORS
330
1A
102
}
330
1A
100
AcDbXrecord
280
     1
270
     1
271
     1
  0
XRECORD
  5
14
102
{ACAD_REACTORS
330
12
102
}
330
12
100
AcDbXrecord
280
     1
270
     1
271
     1
  0
XRECORD
  5
13
102
{ACAD_REACTORS
330
12
102
}
330
12
100
AcDbXrecord
280
     1
270
     1
271
     1
  0
XRECORD
  5
17
102
{ACAD_REACTORS
330
12
102
}
330
12
100
AcDbXrecord
280
     1
270
     1
271
     1
  0
XRECORD
  5
16
102
{ACAD_REACTORS
330
12
102
}
330
12
100
AcDbXrecord
280
     1
270
     1
271
     1
  0
XRECORD
  5
18
102
{ACAD_REACTORS
330
12
102
}
330
12
100
AcDbXrecord
280
     1
270
     1
271
     1
  0
XRECORD
  5
15
102
{ACAD_REACTORS
330
12
102
}
330
12
100
AcDbXrecord
280
     1
270
     1
271
     1
  0
XRECORD
  5
24
102
{ACAD_REACTORS
330
22
102
}
330
22
100
AcDbXrecord
280
     1
270
     1
271
     1
  0
XRECORD
  5
23
102
{ACAD_REACTORS
330
22
102
}
330
22
100
AcDbXrecord
280
     1
270
     1
271
     1
  0
XRECORD
  5
27
102
{ACAD_REACTORS
330
22
102
}
330
22
100
AcDbXrecord
280
     1
270
     1
271
     1
  0
XRECORD
  5
26
102
{ACAD_REACTORS
330
22
102
}
330
22
100
AcDbXrecord
280
     1
270
     1
271
     1
  0
XRECORD
  5
28
102
{ACAD_REACTORS
330
22
102
}
330
22
100
AcDbXrecord
280
     1
270
     1
271
     1
  0
XRECORD
  5
25
102
{ACAD_REACTORS
330
22
102
}
330
22
100
AcDbXrecord
280
     1
270
     1
271
     1
  0
CELLSTYLEMAP
  5
9F
102
{ACAD_REACTORS
330
9E
102
}
330
9E
100
AcDbCellStyleMap
 90
        3
300
CELLSTYLE
  1
TABLEFORMAT_BEGIN
 90
        5
170
     1
 91
        0
 92
    32768
 62
   257
 93
        1
300
CONTENTFORMAT
  1
CONTENTFORMAT_BEGIN
 90
        0
 91
        0
 92
      512
 93
        0
300

 40
0.0
140
1.0
 94
        5
 62
     0
340
55
144
0.25
309
CONTENTFORMAT_END
171
     0
 94
        0
309
TABLEFORMAT_END
  1
CELLSTYLE_BEGIN
 90
        1
 91
        1
300
_TITLE
309
CELLSTYLE_END
300
CELLSTYLE
  1
TABLEFORMAT_BEGIN
 90
        5
170
     1
 91
        0
 92
        0
 62
   257
 93
        1
300
CONTENTFORMAT
  1
CONTENTFORMAT_BEGIN
 90
        0
 91
        0
 92
      512
 93
        0
300

 40
0.0
140
1.0
 94
        5
 62
     0
340
55
144
0.18
309
CONTENTFORMAT_END
171
     0
 94
        0
309
TABLEFORMAT_END
  1
CELLSTYLE_BEGIN
 90
        2
 91
        1
300
_HEADER
309
CELLSTYLE_END
300
CELLSTYLE
  1
TABLEFORMAT_BEGIN
 90
        5
170
     1
 91
        0
 92
        0
 62
   257
 93
        1
300
CONTENTFORMAT
  1
CONTENTFORMAT_BEGIN
 90
        0
 91
        0
 92
      512
 93
        0
300

 40
0.0
140
1.0
 94
        2
 62
     0
340
55
144
0.18
309
CONTENTFORMAT_END
171
     0
 94
        0
309
TABLEFORMAT_END
  1
CELLSTYLE_BEGIN
 90
        3
 91
        2
300
_DATA
309
CELLSTYLE_END
  0
ENDSEC
  0
EOF
