<?xml version="1.0" encoding="UTF-8"?>
<svg id="Layer_1" data-name="Layer 1" xmlns="http://www.w3.org/2000/svg" viewBox="0 0 500 500">
  <defs>
    <style>
      .cls-1 {
        fill: #fff;
      }

      .cls-2 {
        fill: #831618;
      }

      .cls-3 {
        fill: #0f592d;
      }
    </style>
  </defs>
  <g>
    <path d="M402.45,295.57c0-77.84,.02-155.7,0-233.54,0-10.31-3.95-18.92-11.49-25.92-7.18-6.67-15.82-9.34-25.47-9.32-20.07,.03-40.14,.03-60.21,.03-59.06,0-118.11-.02-177.16-.03-11.34,0-20.72,4.34-28.15,12.89-6.27,7.22-8.35,15.73-8.34,25.12,.08,59.52,.04,119.04,.04,178.55,0,49.66-.01,99.31,0,148.97,0,11.71-.06,23.43,.17,35.14,.17,8.21,3.52,15.25,9.04,21.3,8.08,8.86,18.27,11.9,30.02,11.88,72.97-.12,145.95-.03,218.92-.1,7.99-.01,16.05,.84,23.98-.63,17.04-3.17,28.65-17.63,28.66-35.57,.03-42.93-.01-85.85-.01-128.78Zm-2.43-51.84h-.05c0,59.4,0,118.79,0,178.2,0,5.01-.29,9.96-2.06,14.73-4.8,12.96-17.23,21.4-31.66,21.4-77.27,0-154.53-.02-231.79-.03-2.55,0-5.11,.06-7.66-.03-18.18-.65-31.86-14.28-32.59-32.44-.03-.93-.02-1.85-.02-2.78,0-119.38,.02-238.75-.03-358.13,0-9.73,2.62-18.27,9.62-25.26,6.96-6.93,15.36-10.01,25.14-10,56.96,.06,113.93,.03,170.89,.03,22.28,0,44.55-.09,66.82,.03,16.55,.09,29.64,10.91,32.75,26.74,.84,4.24,.62,8.55,.63,12.84,0,58.24,0,116.48,0,174.72Z"/>
    <path class="cls-1" d="M400.02,243.73h-.05c0,59.4,0,118.79,0,178.2,0,5.01-.29,9.96-2.06,14.73-4.8,12.96-17.23,21.4-31.66,21.4-77.27,0-154.53-.02-231.79-.03-2.55,0-5.11,.06-7.66-.03-18.18-.65-31.86-14.28-32.59-32.44-.03-.93-.02-1.85-.02-2.78,0-119.38,.02-238.75-.03-358.13,0-9.73,2.62-18.27,9.62-25.26,6.96-6.93,15.36-10.01,25.14-10,56.96,.06,113.93,.03,170.89,.03,22.28,0,44.55-.09,66.82,.03,16.55,.09,29.64,10.91,32.75,26.74,.84,4.24,.62,8.55,.63,12.84,0,58.24,0,116.48,0,174.72Z"/>
  </g>
  <path class="cls-2" d="M140.86,52.35h-18.87l-1.9,15.2c1.14-.18,2.21-.36,4.03-.36,3.8,0,7.61,1,10.65,3.19,3.88,2.64,7.08,7.74,7.08,15.2,0,11.56-7.68,20.21-18.41,20.21-5.4,0-9.97-1.82-12.32-3.64l1.67-6.1c2.05,1.46,6.09,3.28,10.57,3.28,6.31,0,11.72-4.92,11.72-12.84-.08-7.65-4.34-13.11-14.23-13.11-2.81,0-5.02,.36-6.85,.64l3.2-28.41h23.66v6.74Z"/>
  <g>
    <g>
      <path class="cls-3" d="M324.39,113.79c5.65,.69,12.21,.87,18.44,2.41,10.79,2.66,12.61,10.1,4.93,17.84-2.75,2.77-7.58,3.83-7.52,8.97,.1,8.52-.08,17.06,.4,25.57,.17,3.02,4,3.3,6.12,4.88,7.34,5.48,7.87,13.11-.03,17.15-6.37,3.25-6.77,7.58-6.59,13.25,.34,10.52-2.34,21.18,9.17,29.09,6.7,4.61,3.47,12.64-5.3,14.93-13.41,3.51-27,3.53-40.5,.26-3.93-.95-8.29-1.93-9.14-6.91-.83-4.89,1.66-8.41,5.27-11.47,5.59-4.75,10.94-30.74,5.57-34.43-13.95-9.59-14.81-16.53-.02-25.98,4.96-3.17,.22-29.59-4.82-33.8-3.85-3.22-6.9-6.77-6.03-12.16,.98-6.11,6.46-6.73,10.89-7.63,5.97-1.22,12.18-1.3,19.15-1.95Zm-8.99,31.95c0,4.76,.26,9.53-.07,14.26-.39,5.6,1.52,7.8,7.46,7.77,5.92-.02,8.72-1.36,8.39-7.92-.46-9.15-.38-18.35-.01-27.51,.24-6-1.65-8.59-8-8.6-6.5,0-8.26,2.9-7.83,8.74,.33,4.39,.06,8.83,.07,13.24Zm0,71.93c0,5.13,.28,10.27-.07,15.37-.41,5.84,1.98,7.83,7.71,7.74,5.31-.08,8.37-1.13,8.11-7.36-.37-8.87-.23-17.77-.03-26.65,.13-5.88,.37-10.33-8.21-10.22-8.22,.1-7.65,4.54-7.53,9.84,.09,3.76,.02,7.52,.03,11.28Zm.11-35.59c-.71,5.93-.35,10.58,7.92,10.48,7.6-.09,7.77-4.3,7.74-9.92-.03-5.84,.22-10.68-8.14-10.54-7.59,.13-8.2,4.23-7.52,9.98Z"/>
      <path class="cls-3" d="M323.4,423.29c-6.8-.53-13.68-.23-20.31-2.4-3.61-1.18-7.54-1.99-8.58-6.3-1.08-4.46,.63-8.74,4.42-10.64,9.83-4.93,7.12-13.66,7.28-21.49,.16-7.58,1.59-14.97-7.97-19.8-6.86-3.46-5.66-11.34,.78-14.94,6.66-3.73,7.65-8.46,7.33-15.02-.49-10.26,1.86-20.61-9.26-28.17-6.14-4.17-3.73-11.81,3.63-14.08,14.71-4.54,29.73-4.46,44.47-.21,8.31,2.4,10.3,10.23,3.16,15.53-13.56,10.06-6.58,23.58-7.79,35.68-.32,3.25,3.69,3.57,5.78,5.14,8.07,6.1,8.41,12.77-.21,17.77-5.12,2.96-6.2,6.34-6.02,11.51,.4,11.2-2.47,22.65,9.65,31.05,5.58,3.87,3.08,10.63-4.09,13.32-7.18,2.69-14.76,2.59-22.27,3.04Zm-7.99-32.07c0,5.09,.28,10.21-.07,15.28-.43,6.2,2.89,7.33,8.1,7.4,5.61,.07,7.93-2.01,7.72-7.8-.34-9.16-.29-18.34-.01-27.51,.17-5.57-.71-8.62-7.6-8.73-7.31-.11-8.69,3.02-8.21,9.14,.32,4.05,.06,8.15,.07,12.22Zm0-71.99c0,5.13,.27,10.27-.07,15.38-.41,6.15,3.25,6.36,7.79,6.29,4.35-.06,8.19,.21,7.99-6.1-.3-9.56-.33-19.15,.04-28.7,.24-6.22-1.12-9.35-8.35-9.27-7.07,.08-7.73,3.66-7.46,9.08,.22,4.43,.05,8.88,.06,13.33Zm15.48,35.85c1.08-5.62,.16-10.18-7.81-10.17-7.36,.02-7.92,4.3-7.78,10.05,.13,5.72-.49,10.67,8.08,10.51,7.68-.14,8.24-4.09,7.51-10.39Z"/>
    </g>
    <g>
      <path class="cls-3" d="M172,113.79c5.65,.69,12.21,.87,18.44,2.41,10.79,2.66,12.61,10.1,4.93,17.84-2.75,2.77-7.58,3.83-7.52,8.97,.1,8.52-.08,17.06,.4,25.57,.17,3.02,4,3.3,6.12,4.88,7.34,5.48,7.87,13.11-.03,17.15-6.37,3.25-6.77,7.58-6.59,13.25,.34,10.52-2.34,21.18,9.17,29.09,6.7,4.61,3.47,12.64-5.3,14.93-13.41,3.51-27,3.53-40.5,.26-3.93-.95-8.29-1.93-9.14-6.91-.83-4.89,1.66-8.41,5.27-11.47,5.59-4.75,10.94-30.74,5.57-34.43-13.95-9.59-14.81-16.53-.02-25.98,4.96-3.17,.22-29.59-4.82-33.8-3.85-3.22-6.9-6.77-6.03-12.16,.98-6.11,6.46-6.73,10.89-7.63,5.97-1.22,12.18-1.3,19.15-1.95Zm-8.99,31.95c0,4.76,.26,9.53-.07,14.26-.39,5.6,1.52,7.8,7.46,7.77,5.92-.02,8.72-1.36,8.39-7.92-.46-9.15-.38-18.35-.01-27.51,.24-6-1.65-8.59-8-8.6-6.5,0-8.26,2.9-7.83,8.74,.33,4.39,.06,8.83,.07,13.24Zm0,71.93c0,5.13,.28,10.27-.07,15.37-.41,5.84,1.98,7.83,7.71,7.74,5.31-.08,8.37-1.13,8.11-7.36-.37-8.87-.23-17.77-.03-26.65,.13-5.88,.37-10.33-8.21-10.22-8.22,.1-7.65,4.54-7.53,9.84,.09,3.76,.02,7.52,.03,11.28Zm.11-35.59c-.71,5.93-.35,10.58,7.92,10.48,7.6-.09,7.77-4.3,7.74-9.92-.03-5.84,.22-10.68-8.14-10.54-7.59,.13-8.2,4.23-7.52,9.98Z"/>
      <path class="cls-3" d="M171,423.29c-6.8-.53-13.68-.23-20.31-2.4-3.61-1.18-7.54-1.99-8.58-6.3-1.08-4.46,.63-8.74,4.42-10.64,9.83-4.93,7.12-13.66,7.28-21.49,.16-7.58,1.59-14.97-7.97-19.8-6.86-3.46-5.66-11.34,.78-14.94,6.66-3.73,7.65-8.46,7.33-15.02-.49-10.26,1.86-20.61-9.26-28.17-6.14-4.17-3.73-11.81,3.63-14.08,14.71-4.54,29.73-4.46,44.47-.21,8.31,2.4,10.3,10.23,3.16,15.53-13.56,10.06-6.58,23.58-7.79,35.68-.32,3.25,3.69,3.57,5.78,5.14,8.07,6.1,8.41,12.77-.21,17.77-5.12,2.96-6.2,6.34-6.02,11.51,.4,11.2-2.47,22.65,9.65,31.05,5.58,3.87,3.08,10.63-4.09,13.32-7.18,2.69-14.76,2.59-22.27,3.04Zm-7.99-32.07c0,5.09,.28,10.21-.07,15.28-.43,6.2,2.89,7.33,8.1,7.4,5.61,.07,7.93-2.01,7.72-7.8-.34-9.16-.29-18.34-.01-27.51,.17-5.57-.71-8.62-7.6-8.73-7.31-.11-8.69,3.02-8.21,9.14,.32,4.05,.06,8.15,.07,12.22Zm0-71.99c0,5.13,.27,10.27-.07,15.38-.41,6.15,3.25,6.36,7.79,6.29,4.35-.06,8.19,.21,7.99-6.1-.3-9.56-.33-19.15,.04-28.7,.24-6.22-1.12-9.35-8.35-9.27-7.07,.08-7.73,3.66-7.46,9.08,.22,4.43,.05,8.88,.06,13.33Zm15.48,35.85c1.08-5.62,.16-10.18-7.81-10.17-7.36,.02-7.92,4.3-7.78,10.05,.13,5.72-.49,10.67,8.08,10.51,7.68-.14,8.24-4.09,7.51-10.39Z"/>
    </g>
    <path class="cls-2" d="M250.13,336.67c-6.8-.53-13.68-.23-20.31-2.4-3.61-1.18-7.54-1.99-8.58-6.3-1.08-4.46,.63-8.74,4.42-10.64,9.83-4.93,7.12-13.66,7.28-21.49,.16-7.58,1.59-14.97-7.97-19.8-6.86-3.46-5.66-11.34,.78-14.94,6.66-3.73,7.65-8.46,7.33-15.02-.49-10.26,1.86-20.61-9.26-28.17-6.14-4.17-3.73-11.81,3.63-14.08,14.71-4.54,29.73-4.46,44.47-.21,8.31,2.4,10.3,10.23,3.16,15.53-13.56,10.06-6.58,23.58-7.79,35.68-.32,3.25,3.69,3.57,5.78,5.14,8.07,6.1,8.41,12.77-.21,17.77-5.12,2.96-6.2,6.34-6.02,11.51,.4,11.2-2.47,22.65,9.65,31.05,5.58,3.87,3.08,10.63-4.09,13.32-7.18,2.69-14.76,2.59-22.27,3.04Zm-7.99-32.07c0,5.09,.28,10.21-.07,15.28-.43,6.2,2.89,7.33,8.1,7.4,5.61,.07,7.93-2.01,7.72-7.8-.34-9.16-.29-18.34-.01-27.51,.17-5.57-.71-8.62-7.6-8.73-7.31-.11-8.69,3.02-8.21,9.14,.32,4.05,.06,8.15,.07,12.22Zm0-71.99c0,5.13,.27,10.27-.07,15.38-.41,6.15,3.25,6.36,7.79,6.29,4.35-.06,8.19,.21,7.99-6.1-.3-9.56-.33-19.15,.04-28.7,.24-6.22-1.12-9.35-8.35-9.27-7.07,.08-7.73,3.66-7.46,9.08,.22,4.43,.05,8.88,.06,13.33Zm15.48,35.85c1.08-5.62,.16-10.18-7.81-10.17-7.36,.02-7.92,4.3-7.78,10.05,.13,5.72-.49,10.67,8.08,10.51,7.68-.14,8.24-4.09,7.51-10.39Z"/>
  </g>
</svg>