<?xml version="1.0" encoding="UTF-8"?>
<svg id="Layer_1" data-name="Layer 1" xmlns="http://www.w3.org/2000/svg" viewBox="0 0 500 500">
  <defs>
    <style>
      .cls-1 {
        fill: #fff;
      }

      .cls-2 {
        fill: #0e1329;
      }

      .cls-3 {
        fill: #831618;
      }
    </style>
  </defs>
  <g>
    <path d="M412.83,299.19c0-77.84,.02-155.7,0-233.54,0-10.31-3.95-18.92-11.49-25.92-7.18-6.67-15.82-9.34-25.47-9.32-20.07,.03-40.14,.03-60.21,.03-59.06,0-118.11-.02-177.16-.03-11.34,0-20.72,4.34-28.15,12.89-6.27,7.22-8.35,15.73-8.34,25.12,.08,59.52,.04,119.04,.04,178.55,0,49.66-.01,99.31,0,148.97,0,11.71-.06,23.43,.17,35.14,.17,8.21,3.52,15.25,9.04,21.3,8.08,8.86,18.27,11.9,30.02,11.88,72.97-.12,145.95-.03,218.92-.1,7.99-.01,16.05,.84,23.98-.63,17.04-3.17,28.65-17.63,28.66-35.57,.03-42.93-.01-85.85-.01-128.78Zm-2.43-51.84h-.05c0,59.4,0,118.79,0,178.2,0,5.01-.29,9.96-2.06,14.73-4.8,12.96-17.23,21.4-31.66,21.4-77.27,0-154.53-.02-231.79-.03-2.55,0-5.11,.06-7.66-.03-18.18-.65-31.86-14.28-32.59-32.44-.03-.93-.02-1.85-.02-2.78,0-119.38,.02-238.75-.03-358.13,0-9.73,2.62-18.27,9.62-25.26,6.96-6.93,15.36-10.01,25.14-10,56.96,.06,113.93,.03,170.89,.03,22.28,0,44.55-.09,66.82,.03,16.55,.09,29.64,10.91,32.75,26.74,.84,4.24,.62,8.55,.63,12.84,0,58.24,0,116.48,0,174.72Z"/>
    <path class="cls-1" d="M410.4,247.35h-.05c0,59.4,0,118.79,0,178.2,0,5.01-.29,9.96-2.06,14.73-4.8,12.96-17.23,21.4-31.66,21.4-77.27,0-154.53-.02-231.79-.03-2.55,0-5.11,.06-7.66-.03-18.18-.65-31.86-14.28-32.59-32.44-.03-.93-.02-1.85-.02-2.78,0-119.38,.02-238.75-.03-358.13,0-9.73,2.62-18.27,9.62-25.26,6.96-6.93,15.36-10.01,25.14-10,56.96,.06,113.93,.03,170.89,.03,22.28,0,44.55-.09,66.82,.03,16.55,.09,29.64,10.91,32.75,26.74,.84,4.24,.62,8.55,.63,12.84,0,58.24,0,116.48,0,174.72Z"/>
  </g>
  <g>
    <path class="cls-2" d="M248.55,304.74c.19-18.92-16.61-35.9-35.18-35.55-18,.34-33.9,16.53-33.88,34.51,.02,19.45,15.06,34.58,34.41,34.63,18.24,.05,34.47-15.69,34.65-33.59Zm-15.01-17.99c7.33,.67,8.04,7.04,8.97,12.27-.13,4.45-.57,8.68-5.6,8.54-8.37-.24-8.87-7.15-9.52-13.17-.44-4.11,1.72-8.04,6.15-7.64Zm-19.88-11.89c5.19,.51,11.1,.06,10.93,6.73-.15,5.84-5.2,7.34-10.32,7.31-5.36-.02-11.06-.99-10.9-7.64,.15-6.46,6.22-5.8,10.29-6.4Zm-27.91,24.02c.58-5.45,1.56-11.55,8.29-12.28,5.09-.55,6.57,3.75,6.61,8.26-1.21,5.6-1.22,12.34-9.07,12.67-5.68,.24-6.28-4.4-5.83-8.65Zm19.12,32.21c-6.85-.86-12.49-4.46-13.7-11.62-.77-4.54,3.51-6.92,7.4-6.28,6.32,1.04,11.04,4.79,12.63,10.91-.26,4.64-2.32,7.49-6.33,6.99Zm8.72-18.5c-5.34-.37-8.9-3.95-8.49-9.53,.39-5.37,4.54-7.09,9.45-7.23,4.99,.53,8.78,2.85,8.49,8.2-.3,5.44-3.96,8.93-9.45,8.56Zm23.39,6.73c-.98,7.44-7.2,10.03-13.28,11.71-4.56-.13-7.05-2.32-6.67-6.36,.69-7.24,6.04-10.48,12.36-11.51,3.91-.63,8.18,1.62,7.59,6.15Z"/>
    <path class="cls-2" d="M213.89,301.27c-1.48,.31-2.35,1.29-2,2.7,.18,.74,1.15,1.66,1.9,1.8,1.44,.28,2.48-.69,2.51-2.15,.04-1.46-.92-2.27-2.41-2.35Z"/>
    <path class="cls-2" d="M266.34,303.69c.02,19.45,15.06,34.58,34.41,34.63,18.24,.05,34.47-15.69,34.65-33.59,.19-18.92-16.61-35.9-35.18-35.55-18,.34-33.9,16.53-33.88,34.51Zm6.26-4.82c.58-5.45,1.56-11.55,8.29-12.28,5.09-.55,6.57,3.75,6.61,8.26-1.21,5.6-1.22,12.34-9.07,12.67-5.68,.24-6.28-4.4-5.83-8.65Zm19.12,32.21c-6.85-.86-12.49-4.46-13.7-11.62-.77-4.54,3.51-6.92,7.4-6.28,6.32,1.04,11.04,4.79,12.63,10.91-.26,4.64-2.32,7.49-6.33,6.99Zm8.72-18.5c-5.34-.37-8.9-3.95-8.49-9.53,.39-5.37,4.54-7.09,9.45-7.23,4.99,.53,8.78,2.85,8.49,8.2-.3,5.44-3.96,8.93-9.45,8.56Zm23.39,6.73c-.98,7.44-7.2,10.03-13.28,11.71-4.56-.13-7.05-2.32-6.67-6.36,.69-7.24,6.04-10.48,12.36-11.51,3.91-.63,8.18,1.62,7.59,6.15Zm-3.44-32.57c7.33,.67,8.04,7.04,8.97,12.27-.13,4.45-.57,8.68-5.6,8.54-8.37-.24-8.87-7.15-9.52-13.17-.44-4.11,1.72-8.04,6.15-7.64Zm-8.95-5.17c-.15,5.84-5.2,7.34-10.32,7.31-5.36-.02-11.06-.99-10.9-7.64,.15-6.46,6.22-5.8,10.29-6.4,5.19,.51,11.1,.06,10.93,6.73Z"/>
    <path class="cls-2" d="M300.74,301.27c-1.48,.31-2.35,1.29-2,2.7,.18,.74,1.15,1.66,1.9,1.8,1.44,.28,2.48-.69,2.51-2.15,.04-1.46-.92-2.27-2.41-2.35Z"/>
    <path class="cls-2" d="M213.37,355.07c-18,.34-33.9,16.53-33.88,34.51,.02,19.45,15.06,34.58,34.41,34.63,18.24,.05,34.47-15.69,34.65-33.59,.19-18.92-16.61-35.9-35.18-35.55Zm.28,5.66c5.19,.51,11.1,.06,10.93,6.73-.15,5.84-5.2,7.34-10.32,7.31-5.36-.02-11.06-.99-10.9-7.64,.15-6.46,6.22-5.8,10.29-6.4Zm-27.91,24.02c.58-5.45,1.56-11.55,8.29-12.28,5.09-.55,6.57,3.75,6.61,8.26-1.21,5.6-1.22,12.34-9.07,12.67-5.68,.24-6.28-4.4-5.83-8.65Zm19.12,32.21c-6.85-.86-12.49-4.46-13.7-11.62-.77-4.54,3.51-6.92,7.4-6.28,6.32,1.04,11.04,4.79,12.63,10.91-.26,4.64-2.32,7.49-6.33,6.99Zm8.72-18.5c-5.34-.37-8.9-3.95-8.49-9.53,.39-5.37,4.54-7.09,9.45-7.23,4.99,.53,8.78,2.85,8.49,8.2-.3,5.44-3.96,8.94-9.45,8.56Zm23.39,6.73c-.98,7.44-7.2,10.03-13.28,11.71-4.56-.13-7.05-2.32-6.67-6.36,.69-7.24,6.04-10.48,12.36-11.51,3.91-.63,8.18,1.62,7.59,6.15Zm5.54-20.3c-.13,4.45-.57,8.68-5.6,8.54-8.37-.24-8.87-7.15-9.52-13.17-.44-4.11,1.72-8.04,6.15-7.64,7.33,.67,8.04,7.04,8.97,12.27Z"/>
    <path class="cls-2" d="M213.89,387.15c-1.48,.31-2.35,1.29-2,2.7,.18,.74,1.15,1.66,1.9,1.8,1.44,.28,2.48-.69,2.51-2.15,.04-1.46-.92-2.27-2.41-2.35Z"/>
    <path class="cls-2" d="M266.34,389.58c.02,19.45,15.06,34.58,34.41,34.63,18.24,.05,34.47-15.69,34.65-33.59,.19-18.92-16.61-35.9-35.18-35.55-18,.34-33.9,16.53-33.88,34.51Zm6.26-4.82c.58-5.45,1.56-11.55,8.29-12.28,5.09-.55,6.57,3.75,6.61,8.26-1.21,5.6-1.22,12.34-9.07,12.67-5.68,.24-6.28-4.4-5.83-8.65Zm19.12,32.21c-6.85-.86-12.49-4.46-13.7-11.62-.77-4.54,3.51-6.92,7.4-6.28,6.32,1.04,11.04,4.79,12.63,10.91-.26,4.64-2.32,7.49-6.33,6.99Zm8.72-18.5c-5.34-.37-8.9-3.95-8.49-9.53,.39-5.37,4.54-7.09,9.45-7.23,4.99,.53,8.78,2.85,8.49,8.2-.3,5.44-3.96,8.94-9.45,8.56Zm23.39,6.73c-.98,7.44-7.2,10.03-13.28,11.71-4.56-.13-7.05-2.32-6.67-6.36,.69-7.24,6.04-10.48,12.36-11.51,3.91-.63,8.18,1.62,7.59,6.15Zm-3.44-32.57c7.33,.67,8.04,7.04,8.97,12.27-.13,4.45-.57,8.68-5.6,8.54-8.37-.24-8.87-7.15-9.52-13.17-.44-4.11,1.72-8.04,6.15-7.64Zm-8.95-5.17c-.15,5.84-5.2,7.34-10.32,7.31-5.36-.02-11.06-.99-10.9-7.64,.15-6.46,6.22-5.8,10.29-6.4,5.19,.51,11.1,.06,10.93,6.73Z"/>
    <path class="cls-2" d="M300.74,387.15c-1.48,.31-2.35,1.29-2,2.7,.18,.74,1.15,1.66,1.9,1.8,1.44,.28,2.48-.69,2.51-2.15,.04-1.46-.92-2.27-2.41-2.35Z"/>
    <path class="cls-2" d="M248.55,132.01c.19-18.92-16.61-35.9-35.18-35.55-18,.34-33.9,16.53-33.88,34.51,.02,19.45,15.06,34.58,34.41,34.63,18.24,.05,34.47-15.69,34.65-33.59Zm-15.01-17.99c7.33,.67,8.04,7.04,8.97,12.27-.13,4.45-.57,8.68-5.6,8.54-8.37-.24-8.87-7.15-9.52-13.17-.44-4.11,1.72-8.04,6.15-7.64Zm-19.88-11.89c5.19,.51,11.1,.06,10.93,6.73-.15,5.84-5.2,7.34-10.32,7.31-5.36-.02-11.06-.99-10.9-7.64,.15-6.46,6.22-5.8,10.29-6.4Zm-27.91,24.02c.58-5.45,1.56-11.55,8.29-12.28,5.09-.55,6.57,3.75,6.61,8.26-1.21,5.6-1.22,12.34-9.07,12.67-5.68,.24-6.28-4.4-5.83-8.65Zm19.12,32.21c-6.85-.86-12.49-4.46-13.7-11.62-.77-4.54,3.51-6.92,7.4-6.28,6.32,1.04,11.04,4.79,12.63,10.91-.26,4.64-2.32,7.49-6.33,6.99Zm8.72-18.5c-5.34-.37-8.9-3.95-8.49-9.53,.39-5.37,4.54-7.09,9.45-7.23,4.99,.53,8.78,2.85,8.49,8.2-.3,5.44-3.96,8.93-9.45,8.56Zm23.39,6.73c-.98,7.44-7.2,10.03-13.28,11.71-4.56-.13-7.05-2.32-6.67-6.36,.69-7.24,6.04-10.48,12.36-11.51,3.91-.63,8.18,1.62,7.59,6.15Z"/>
    <path class="cls-2" d="M213.89,128.54c-1.48,.31-2.35,1.29-2,2.7,.18,.74,1.15,1.66,1.9,1.8,1.44,.28,2.48-.69,2.51-2.15,.04-1.46-.92-2.27-2.41-2.35Z"/>
    <path class="cls-2" d="M300.75,165.59c18.24,.05,34.47-15.69,34.65-33.59,.19-18.92-16.61-35.9-35.18-35.55-18,.34-33.9,16.53-33.88,34.51,.02,19.45,15.06,34.58,34.41,34.63Zm-9.03-7.24c-6.85-.86-12.49-4.46-13.7-11.62-.77-4.54,3.51-6.92,7.4-6.28,6.32,1.04,11.04,4.79,12.63,10.91-.26,4.64-2.32,7.49-6.33,6.99Zm8.72-18.5c-5.34-.37-8.9-3.95-8.49-9.53,.39-5.37,4.54-7.09,9.45-7.23,4.99,.53,8.78,2.85,8.49,8.2-.3,5.44-3.96,8.93-9.45,8.56Zm23.39,6.73c-.98,7.44-7.2,10.03-13.28,11.71-4.56-.13-7.05-2.32-6.67-6.36,.69-7.24,6.04-10.48,12.36-11.51,3.91-.63,8.18,1.62,7.59,6.15Zm-3.44-32.57c7.33,.67,8.04,7.04,8.97,12.27-.13,4.45-.57,8.68-5.6,8.54-8.37-.24-8.87-7.15-9.52-13.17-.44-4.11,1.72-8.04,6.15-7.64Zm-19.88-11.89c5.19,.51,11.1,.06,10.93,6.73-.15,5.84-5.2,7.34-10.32,7.31-5.36-.02-11.06-.99-10.9-7.64,.15-6.46,6.22-5.8,10.29-6.4Zm-27.91,24.02c.58-5.45,1.56-11.55,8.29-12.28,5.09-.55,6.57,3.75,6.61,8.26-1.21,5.6-1.22,12.34-9.07,12.67-5.68,.24-6.28-4.4-5.83-8.65Z"/>
    <path class="cls-2" d="M300.74,128.54c-1.48,.31-2.35,1.29-2,2.7,.18,.74,1.15,1.66,1.9,1.8,1.44,.28,2.48-.69,2.51-2.15,.04-1.46-.92-2.27-2.41-2.35Z"/>
    <path class="cls-2" d="M248.55,217.89c.19-18.92-16.61-35.9-35.18-35.55-18,.34-33.9,16.53-33.88,34.51,.02,19.45,15.06,34.58,34.41,34.63,18.24,.05,34.47-15.69,34.65-33.59Zm-15.01-17.99c7.33,.67,8.04,7.04,8.97,12.27-.13,4.45-.57,8.68-5.6,8.54-8.37-.24-8.87-7.15-9.52-13.17-.44-4.11,1.72-8.04,6.15-7.64Zm-19.88-11.89c5.19,.51,11.1,.06,10.93,6.73-.15,5.84-5.2,7.34-10.32,7.31-5.36-.02-11.06-.99-10.9-7.64,.15-6.46,6.22-5.8,10.29-6.4Zm-27.91,24.02c.58-5.45,1.56-11.55,8.29-12.28,5.09-.55,6.57,3.75,6.61,8.26-1.21,5.6-1.22,12.34-9.07,12.67-5.68,.24-6.28-4.4-5.83-8.65Zm19.12,32.21c-6.85-.86-12.49-4.46-13.7-11.62-.77-4.54,3.51-6.92,7.4-6.28,6.32,1.04,11.04,4.79,12.63,10.91-.26,4.64-2.32,7.49-6.33,6.99Zm8.72-18.5c-5.34-.37-8.9-3.95-8.49-9.53,.39-5.37,4.54-7.09,9.45-7.23,4.99,.53,8.78,2.85,8.49,8.2-.3,5.44-3.96,8.93-9.45,8.56Zm23.39,6.73c-.98,7.44-7.2,10.03-13.28,11.71-4.56-.13-7.05-2.32-6.67-6.36,.69-7.24,6.04-10.48,12.36-11.51,3.91-.63,8.18,1.62,7.59,6.15Z"/>
    <path class="cls-2" d="M213.89,214.42c-1.48,.31-2.35,1.29-2,2.7,.18,.74,1.15,1.66,1.9,1.8,1.44,.28,2.48-.69,2.51-2.15,.04-1.46-.92-2.27-2.41-2.35Z"/>
    <path class="cls-2" d="M347.84,217.2c.19-18.69-12.26-35.79-29.24-43.12,16.79-7.19,29.05-23.82,29.24-42.76,.25-24.57-21.34-46.41-46.36-46.9-19.25-.38-36.85,12.16-44.11,29.28-7.14-16.53-23.97-28.91-42.74-29.28-24.97-.49-47.18,20.74-47.62,45.52-.35,19.39,11.81,36.83,28.77,44.2-16.33,7.15-28.44,23.45-28.77,41.68-.36,19.82,12.35,37.61,29.9,44.68-16.89,6.88-29.56,23.52-29.9,42.17-.35,19.39,11.81,36.83,28.77,44.2-16.33,7.15-28.44,23.45-28.77,41.68-.45,25.23,20.25,47.18,45.19,47.9,19.92,.58,37.82-11.96,45.21-29.46,6.9,16.64,23.1,28.92,41.64,29.46,25.96,.76,48.53-20.77,48.79-46.52,.19-18.69-12.26-35.79-29.24-43.12,16.79-7.19,29.05-23.82,29.24-42.76,.19-19.11-12.82-36.56-30.38-43.6,17.38-6.91,30.18-23.88,30.38-43.24Zm-47.43-125.22c21.14-.23,39.36,17.75,39.4,38.87,.04,22.74-15.93,38.87-38.59,38.99-22.92,.11-39.24-15.76-39.24-38.16,0-22.36,16.54-39.45,38.43-39.69Zm-43,56.41c4.75,11.46,13.92,20.84,25.23,25.75-11.25,4.92-20.49,14.19-25.26,25.44-4.86-11.26-14.22-20.58-25.62-25.5,11.47-4.91,20.82-14.23,25.65-25.69Zm0,85.88c4.91,11.84,14.53,21.47,26.36,26.23-11.75,4.79-21.46,14.3-26.39,25.93-5.02-11.64-14.85-21.21-26.78-25.99,11.99-4.77,21.81-14.33,26.81-26.17Zm-82.28-102.6c0-22.36,16.54-39.45,38.43-39.69,21.14-.23,39.36,17.75,39.4,38.87,.04,22.74-15.93,38.87-38.59,38.99-22.92,.11-39.24-15.76-39.24-38.16Zm0,85.88c0-22.36,16.54-39.45,38.43-39.69,21.14-.23,39.36,17.75,39.4,38.87,.04,22.74-15.93,38.87-38.59,38.99-22.92,.11-39.24-15.76-39.24-38.16Zm0,86.85c0-22.36,16.54-39.45,38.43-39.69,21.14-.23,39.36,17.75,39.4,38.87,.04,22.74-15.93,38.87-38.59,38.99-22.92,.11-39.24-15.76-39.24-38.16Zm39.24,124.05c-22.92,.11-39.24-15.76-39.24-38.16,0-22.36,16.54-39.45,38.43-39.69,21.14-.23,39.36,17.75,39.4,38.87,.04,22.74-15.93,38.87-38.59,38.99Zm43.01-56.14c-4.86-11.26-14.22-20.58-25.62-25.5,11.47-4.91,20.82-14.23,25.65-25.69,4.75,11.46,13.92,20.84,25.23,25.75-11.25,4.92-20.49,14.19-25.26,25.44Zm82.43,17.15c.04,22.74-15.93,38.87-38.59,38.99-22.92,.11-39.24-15.76-39.24-38.16,0-22.36,16.54-39.45,38.43-39.69,21.14-.23,39.36,17.75,39.4,38.87Zm0-85.88c.04,22.74-15.93,38.87-38.59,38.99-22.92,.11-39.24-15.76-39.24-38.16,0-22.36,16.54-39.45,38.43-39.69,21.14-.23,39.36,17.75,39.4,38.87Zm-38.59-47.86c-22.92,.11-39.24-15.76-39.24-38.16,0-22.36,16.54-39.45,38.43-39.69,21.14-.23,39.36,17.75,39.4,38.87,.04,22.74-15.93,38.87-38.59,38.99Z"/>
    <path class="cls-2" d="M300.22,182.34c-18,.34-33.9,16.53-33.88,34.51,.02,19.45,15.06,34.58,34.41,34.63,18.24,.05,34.47-15.69,34.65-33.59,.19-18.92-16.61-35.9-35.18-35.55Zm.28,5.66c5.19,.51,11.1,.06,10.93,6.73-.15,5.84-5.2,7.34-10.32,7.31-5.36-.02-11.06-.99-10.9-7.64,.15-6.46,6.22-5.8,10.29-6.4Zm-27.91,24.02c.58-5.45,1.56-11.55,8.29-12.28,5.09-.55,6.57,3.75,6.61,8.26-1.21,5.6-1.22,12.34-9.07,12.67-5.68,.24-6.28-4.4-5.83-8.65Zm19.12,32.21c-6.85-.86-12.49-4.46-13.7-11.62-.77-4.54,3.51-6.92,7.4-6.28,6.32,1.04,11.04,4.79,12.63,10.91-.26,4.64-2.32,7.49-6.33,6.99Zm8.72-18.5c-5.34-.37-8.9-3.95-8.49-9.53,.39-5.37,4.54-7.09,9.45-7.23,4.99,.53,8.78,2.85,8.49,8.2-.3,5.44-3.96,8.93-9.45,8.56Zm23.39,6.73c-.98,7.44-7.2,10.03-13.28,11.71-4.56-.13-7.05-2.32-6.67-6.36,.69-7.24,6.04-10.48,12.36-11.51,3.91-.63,8.18,1.62,7.59,6.15Zm-.06-11.77c-8.37-.24-8.87-7.15-9.52-13.17-.44-4.11,1.72-8.04,6.15-7.64,7.33,.67,8.04,7.04,8.97,12.27-.13,4.45-.57,8.68-5.6,8.54Z"/>
    <path class="cls-2" d="M300.74,214.42c-1.48,.31-2.35,1.29-2,2.7,.18,.74,1.15,1.66,1.9,1.8,1.44,.28,2.48-.69,2.51-2.15,.04-1.46-.92-2.27-2.41-2.35Z"/>
  </g>
  <path class="cls-3" d="M124.65,88.19c0-6.63,3.31-11.31,8.71-14.06l-.07-.24c-4.86-2.75-6.96-7.27-6.96-11.8,0-8.32,5.87-13.98,13.57-13.98,8.51,0,12.76,6.38,12.76,12.93,0,4.44-1.82,9.21-7.23,12.28v.24c5.47,2.59,8.85,7.19,8.85,13.58,0,9.13-6.55,15.27-14.92,15.27-9.18,0-14.72-6.55-14.72-14.22Zm23.64-.32c0-6.38-3.71-9.46-9.66-11.48-5.13,1.78-7.9,5.82-7.9,10.83-.2,5.33,3.17,10.02,8.78,10.02s8.78-3.96,8.78-9.37Zm-16.34-26.26c0,5.25,3.31,8.08,8.37,9.7,3.78-1.54,6.69-4.77,6.69-9.54,0-4.2-2.09-8.57-7.43-8.57-4.93,0-7.63,3.88-7.63,8.4Z"/>
</svg>