<?xml version="1.0" encoding="UTF-8"?>
<svg id="Layer_1" data-name="Layer 1" xmlns="http://www.w3.org/2000/svg" viewBox="0 0 500 500">
  <defs>
    <style>
      .cls-1 {
        fill: #fff;
      }

      .cls-2 {
        fill: #831618;
      }

      .cls-3 {
        fill: #0f592d;
      }
    </style>
  </defs>
  <path d="M404.69,293.71c0-77.84,.02-155.7,0-233.54,0-10.31-3.95-18.92-11.49-25.92-7.18-6.67-15.82-9.34-25.47-9.32-20.07,.03-40.14,.03-60.21,.03-59.06,0-118.11-.02-177.16-.03-11.34,0-20.72,4.34-28.15,12.89-6.27,7.22-8.35,15.73-8.34,25.12,.08,59.52,.04,119.04,.04,178.55,0,49.66-.01,99.31,0,148.97,0,11.71-.06,23.43,.17,35.14,.17,8.21,3.52,15.25,9.04,21.3,8.08,8.86,18.27,11.9,30.02,11.88,72.97-.12,145.95-.03,218.92-.1,7.99-.01,16.05,.84,23.98-.63,17.04-3.17,28.65-17.63,28.66-35.57,.03-42.93-.01-85.85-.01-128.78Zm-2.43-51.84h-.05c0,59.4,0,118.79,0,178.2,0,5.01-.29,9.96-2.06,14.73-4.8,12.96-17.23,21.4-31.66,21.4-77.27,0-154.53-.02-231.79-.03-2.55,0-5.11,.06-7.66-.03-18.18-.65-31.86-14.28-32.59-32.44-.03-.93-.02-1.85-.02-2.78,0-119.38,.02-238.75-.03-358.13,0-9.73,2.62-18.27,9.62-25.26,6.96-6.93,15.36-10.01,25.14-10,56.96,.06,113.93,.03,170.89,.03,22.28,0,44.55-.09,66.82,.03,16.55,.09,29.64,10.91,32.75,26.74,.84,4.24,.62,8.55,.63,12.84,0,58.24,0,116.48,0,174.72Z"/>
  <path class="cls-1" d="M402.22,241.87h-.05c0,59.4,0,118.79,0,178.2,0,5.01-.29,9.96-2.06,14.73-4.8,12.96-17.23,21.4-31.66,21.4-77.27,0-154.53-.02-231.79-.03-2.55,0-5.11,.06-7.66-.03-18.18-.65-31.86-14.28-32.59-32.44-.03-.93-.02-1.85-.02-2.78,0-119.38,.02-238.75-.03-358.13,0-9.73,2.62-18.27,9.62-25.26,6.96-6.93,15.36-10.01,25.14-10,56.96,.06,113.93,.03,170.89,.03,22.28,0,44.55-.09,66.82,.03,16.55,.09,29.64,10.91,32.75,26.74,.84,4.24,.62,8.55,.63,12.84,0,58.24,0,116.48,0,174.72Z"/>
  <path class="cls-2" d="M130.95,39.91c-10.57,0-17.65,10.27-17.65,21.97,0,10.56,5.96,18.93,15.26,18.93,5.17,0,9.3-2.47,12.16-6.66h.24c-.95,7.32-3.42,12.75-6.84,16.46-2.94,3.33-6.76,5.33-10.81,5.99-2.38,.29-4.13,.48-5.64,.29v6.85c1.67,.1,3.89,0,6.44-.48,5.56-.76,11.05-3.61,15.02-8.28,5.09-5.9,8.9-15.41,8.9-29.01,0-15.79-6.52-26.06-17.09-26.06Zm9.38,28.06c-1.83,3.71-5.48,6.47-10.17,6.47-6.04,0-9.94-5.42-9.94-13.13,0-8.75,4.21-15.03,10.17-15.03,7.31,0,10.57,8.09,10.57,18.64,0,1.33-.24,2.28-.64,3.04Z"/>
  <g>
    <g>
      <path class="cls-2" d="M329.3,218.1c4.05,.45,8.75,.57,13.22,1.57,7.74,1.74,9.04,6.6,3.54,11.65-1.97,1.81-5.43,2.5-5.39,5.86,.07,5.57-.06,11.14,.28,16.69,.12,1.97,2.87,2.15,4.38,3.19,5.26,3.58,5.64,8.56-.02,11.2-4.57,2.12-4.85,4.95-4.72,8.65,.24,6.87-1.67,13.83,6.58,19,4.8,3.01,2.48,8.25-3.8,9.75-9.61,2.29-19.35,2.3-29.03,.17-2.82-.62-5.95-1.26-6.55-4.51-.59-3.19,1.19-5.49,3.77-7.49,4.01-3.1,7.84-20.08,3.99-22.49-10-6.26-10.62-10.79-.01-16.96,3.56-2.07,.16-19.32-3.45-22.07-2.76-2.1-4.95-4.42-4.32-7.94,.71-3.99,4.63-4.4,7.8-4.98,4.28-.79,8.73-.85,13.73-1.27Zm-6.45,20.86c0,3.11,.19,6.22-.05,9.31-.28,3.66,1.09,5.09,5.35,5.08,4.25-.01,6.25-.89,6.01-5.17-.33-5.97-.27-11.98-.01-17.96,.17-3.92-1.18-5.61-5.73-5.62-4.66,0-5.92,1.89-5.61,5.71,.23,2.87,.05,5.76,.05,8.65Zm0,46.97c0,3.35,.2,6.71-.05,10.04-.29,3.81,1.42,5.11,5.52,5.06,3.81-.05,6-.74,5.81-4.8-.26-5.79-.17-11.6-.02-17.4,.1-3.84,.26-6.74-5.89-6.67-5.89,.07-5.48,2.96-5.39,6.42,.06,2.45,.01,4.91,.02,7.36Zm.08-23.24c-.51,3.87-.25,6.91,5.68,6.84,5.45-.06,5.57-2.8,5.55-6.48-.02-3.81,.16-6.98-5.83-6.88-5.44,.09-5.88,2.76-5.39,6.51Z"/>
      <path class="cls-3" d="M328.59,420.2c-4.87-.34-9.8-.15-14.55-1.57-2.59-.77-5.41-1.3-6.15-4.11-.77-2.91,.45-5.71,3.17-6.95,7.05-3.22,5.11-8.92,5.22-14.03,.11-4.95,1.14-9.78-5.72-12.93-4.92-2.26-4.05-7.4,.56-9.76,4.77-2.43,5.48-5.53,5.26-9.81-.35-6.7,1.34-13.46-6.64-18.4-4.4-2.73-2.68-7.71,2.6-9.19,10.54-2.96,21.31-2.91,31.87-.13,5.96,1.57,7.38,6.68,2.26,10.14-9.72,6.57-4.72,15.4-5.58,23.3-.23,2.12,2.64,2.33,4.14,3.36,5.79,3.98,6.03,8.34-.15,11.6-3.67,1.94-4.45,4.14-4.31,7.52,.29,7.32-1.77,14.79,6.91,20.28,4,2.53,2.21,6.94-2.93,8.7-5.14,1.76-10.58,1.69-15.96,1.99Zm-5.73-20.94c0,3.33,.2,6.67-.05,9.98-.31,4.05,2.07,4.79,5.81,4.83,4.02,.05,5.68-1.31,5.53-5.09-.24-5.98-.21-11.98,0-17.96,.12-3.64-.51-5.63-5.44-5.7-5.24-.07-6.23,1.97-5.88,5.97,.23,2.65,.04,5.32,.05,7.98Zm0-47.01c0,3.35,.19,6.71-.05,10.04-.29,4.02,2.33,4.15,5.58,4.11,3.12-.04,5.87,.14,5.73-3.98-.22-6.24-.23-12.5,.03-18.74,.17-4.06-.81-6.11-5.99-6.05-5.07,.05-5.54,2.39-5.35,5.93,.16,2.89,.03,5.8,.04,8.7Zm11.09,23.41c.78-3.67,.11-6.65-5.6-6.64-5.28,.01-5.67,2.81-5.58,6.56,.09,3.73-.35,6.97,5.79,6.86,5.5-.09,5.91-2.67,5.38-6.79Z"/>
      <path class="cls-3" d="M329.3,107.77c4.05,.45,8.75,.57,13.22,1.57,7.74,1.74,9.04,6.6,3.54,11.65-1.97,1.81-5.43,2.5-5.39,5.86,.07,5.57-.06,11.14,.28,16.69,.12,1.97,2.87,2.15,4.38,3.19,5.26,3.58,5.64,8.56-.02,11.2-4.57,2.12-4.85,4.95-4.72,8.65,.24,6.87-1.67,13.83,6.58,19,4.8,3.01,2.48,8.25-3.8,9.75-9.61,2.29-19.35,2.3-29.03,.17-2.82-.62-5.95-1.26-6.55-4.51-.59-3.19,1.19-5.49,3.77-7.49,4.01-3.1,7.84-20.08,3.99-22.49-10-6.26-10.62-10.79-.01-16.96,3.56-2.07,.16-19.32-3.45-22.07-2.76-2.1-4.95-4.42-4.32-7.94,.71-3.99,4.63-4.4,7.8-4.98,4.28-.79,8.73-.85,13.73-1.27Zm-6.45,20.86c0,3.11,.19,6.22-.05,9.31-.28,3.66,1.09,5.09,5.35,5.08,4.25-.01,6.25-.89,6.01-5.17-.33-5.97-.27-11.98-.01-17.96,.17-3.92-1.18-5.61-5.73-5.62-4.66,0-5.92,1.89-5.61,5.71,.23,2.87,.05,5.76,.05,8.65Zm0,46.97c0,3.35,.2,6.71-.05,10.04-.29,3.81,1.42,5.11,5.52,5.06,3.81-.05,6-.74,5.81-4.8-.26-5.79-.17-11.6-.02-17.4,.1-3.84,.26-6.74-5.89-6.67-5.89,.07-5.48,2.96-5.39,6.42,.06,2.45,.01,4.91,.02,7.36Zm.08-23.24c-.51,3.87-.25,6.91,5.68,6.84,5.45-.06,5.57-2.8,5.55-6.48-.02-3.81,.16-6.98-5.83-6.88-5.44,.09-5.88,2.76-5.39,6.51Z"/>
    </g>
    <g>
      <path class="cls-2" d="M248.46,218.1c4.05,.45,8.75,.57,13.22,1.57,7.74,1.74,9.04,6.6,3.54,11.65-1.97,1.81-5.43,2.5-5.39,5.86,.07,5.57-.06,11.14,.28,16.69,.12,1.97,2.87,2.15,4.38,3.19,5.26,3.58,5.64,8.56-.02,11.2-4.57,2.12-4.85,4.95-4.72,8.65,.24,6.87-1.67,13.83,6.58,19,4.8,3.01,2.48,8.25-3.8,9.75-9.61,2.29-19.35,2.3-29.03,.17-2.82-.62-5.95-1.26-6.55-4.51-.59-3.19,1.19-5.49,3.77-7.49,4.01-3.1,7.84-20.08,3.99-22.49-10-6.26-10.62-10.79-.01-16.96,3.56-2.07,.16-19.32-3.45-22.07-2.76-2.1-4.95-4.42-4.32-7.94,.71-3.99,4.63-4.4,7.8-4.98,4.28-.79,8.73-.85,13.73-1.27Zm-6.45,20.86c0,3.11,.19,6.22-.05,9.31-.28,3.66,1.09,5.09,5.35,5.08,4.25-.01,6.25-.89,6.01-5.17-.33-5.97-.27-11.98-.01-17.96,.17-3.92-1.18-5.61-5.73-5.62-4.66,0-5.92,1.89-5.61,5.71,.23,2.87,.05,5.76,.05,8.65Zm0,46.97c0,3.35,.2,6.71-.05,10.04-.29,3.81,1.42,5.11,5.52,5.06,3.81-.05,6-.74,5.81-4.8-.26-5.79-.17-11.6-.02-17.4,.1-3.84,.26-6.74-5.89-6.67-5.89,.07-5.48,2.96-5.39,6.42,.06,2.45,.01,4.91,.02,7.36Zm.08-23.24c-.51,3.87-.25,6.91,5.68,6.84,5.45-.06,5.57-2.8,5.55-6.48-.02-3.81,.16-6.98-5.83-6.88-5.44,.09-5.88,2.76-5.39,6.51Z"/>
      <path class="cls-3" d="M247.75,420.2c-4.87-.34-9.8-.15-14.55-1.57-2.59-.77-5.41-1.3-6.15-4.11-.77-2.91,.45-5.71,3.17-6.95,7.05-3.22,5.11-8.92,5.22-14.03,.11-4.95,1.14-9.78-5.72-12.93-4.92-2.26-4.05-7.4,.56-9.76,4.77-2.43,5.48-5.53,5.26-9.81-.35-6.7,1.34-13.46-6.64-18.4-4.4-2.73-2.68-7.71,2.6-9.19,10.54-2.96,21.31-2.91,31.87-.13,5.96,1.57,7.38,6.68,2.26,10.14-9.72,6.57-4.72,15.4-5.58,23.3-.23,2.12,2.64,2.33,4.14,3.36,5.79,3.98,6.03,8.34-.15,11.6-3.67,1.94-4.45,4.14-4.31,7.52,.29,7.32-1.77,14.79,6.91,20.28,4,2.53,2.21,6.94-2.93,8.7-5.14,1.76-10.58,1.69-15.96,1.99Zm-5.73-20.94c0,3.33,.2,6.67-.05,9.98-.31,4.05,2.07,4.79,5.81,4.83,4.02,.05,5.68-1.31,5.53-5.09-.24-5.98-.21-11.98,0-17.96,.12-3.64-.51-5.63-5.44-5.7-5.24-.07-6.23,1.97-5.88,5.97,.23,2.65,.04,5.32,.05,7.98Zm0-47.01c0,3.35,.19,6.71-.05,10.04-.29,4.02,2.33,4.15,5.58,4.11,3.12-.04,5.87,.14,5.73-3.98-.22-6.24-.23-12.5,.03-18.74,.17-4.06-.81-6.11-5.99-6.05-5.07,.05-5.54,2.39-5.35,5.93,.16,2.89,.03,5.8,.04,8.7Zm11.09,23.41c.78-3.67,.11-6.65-5.6-6.64-5.28,.01-5.67,2.81-5.58,6.56,.09,3.73-.35,6.97,5.79,6.86,5.5-.09,5.91-2.67,5.38-6.79Z"/>
      <path class="cls-3" d="M248.46,107.77c4.05,.45,8.75,.57,13.22,1.57,7.74,1.74,9.04,6.6,3.54,11.65-1.97,1.81-5.43,2.5-5.39,5.86,.07,5.57-.06,11.14,.28,16.69,.12,1.97,2.87,2.15,4.38,3.19,5.26,3.58,5.64,8.56-.02,11.2-4.57,2.12-4.85,4.95-4.72,8.65,.24,6.87-1.67,13.83,6.58,19,4.8,3.01,2.48,8.25-3.8,9.75-9.61,2.29-19.35,2.3-29.03,.17-2.82-.62-5.95-1.26-6.55-4.51-.59-3.19,1.19-5.49,3.77-7.49,4.01-3.1,7.84-20.08,3.99-22.49-10-6.26-10.62-10.79-.01-16.96,3.56-2.07,.16-19.32-3.45-22.07-2.76-2.1-4.95-4.42-4.32-7.94,.71-3.99,4.63-4.4,7.8-4.98,4.28-.79,8.73-.85,13.73-1.27Zm-6.45,20.86c0,3.11,.19,6.22-.05,9.31-.28,3.66,1.09,5.09,5.35,5.08,4.25-.01,6.25-.89,6.01-5.17-.33-5.97-.27-11.98-.01-17.96,.17-3.92-1.18-5.61-5.73-5.62-4.66,0-5.92,1.89-5.61,5.71,.23,2.87,.05,5.76,.05,8.65Zm0,46.97c0,3.35,.2,6.71-.05,10.04-.29,3.81,1.42,5.11,5.52,5.06,3.81-.05,6-.74,5.81-4.8-.26-5.79-.17-11.6-.02-17.4,.1-3.84,.26-6.74-5.89-6.67-5.89,.07-5.48,2.96-5.39,6.42,.06,2.45,.01,4.91,.02,7.36Zm.08-23.24c-.51,3.87-.25,6.91,5.68,6.84,5.45-.06,5.57-2.8,5.55-6.48-.02-3.81,.16-6.98-5.83-6.88-5.44,.09-5.88,2.76-5.39,6.51Z"/>
    </g>
    <g>
      <path class="cls-2" d="M170.93,218.1c4.05,.45,8.75,.57,13.22,1.57,7.74,1.74,9.04,6.6,3.54,11.65-1.97,1.81-5.43,2.5-5.39,5.86,.07,5.57-.06,11.14,.28,16.69,.12,1.97,2.87,2.15,4.38,3.19,5.26,3.58,5.64,8.56-.02,11.2-4.57,2.12-4.85,4.95-4.72,8.65,.24,6.87-1.67,13.83,6.58,19,4.8,3.01,2.48,8.25-3.8,9.75-9.61,2.29-19.35,2.3-29.03,.17-2.82-.62-5.95-1.26-6.55-4.51-.59-3.19,1.19-5.49,3.77-7.49,4.01-3.1,7.84-20.08,3.99-22.49-10-6.26-10.62-10.79-.01-16.96,3.56-2.07,.16-19.32-3.45-22.07-2.76-2.1-4.95-4.42-4.32-7.94,.71-3.99,4.63-4.4,7.8-4.98,4.28-.79,8.73-.85,13.73-1.27Zm-6.45,20.86c0,3.11,.19,6.22-.05,9.31-.28,3.66,1.09,5.09,5.35,5.08,4.25-.01,6.25-.89,6.01-5.17-.33-5.97-.27-11.98-.01-17.96,.17-3.92-1.18-5.61-5.73-5.62-4.66,0-5.92,1.89-5.61,5.71,.23,2.87,.05,5.76,.05,8.65Zm0,46.97c0,3.35,.2,6.71-.05,10.04-.29,3.81,1.42,5.11,5.52,5.06,3.81-.05,6-.74,5.81-4.8-.26-5.79-.17-11.6-.02-17.4,.1-3.84,.26-6.74-5.89-6.67-5.89,.07-5.48,2.96-5.39,6.42,.06,2.45,.01,4.91,.02,7.36Zm.08-23.24c-.51,3.87-.25,6.91,5.68,6.84,5.45-.06,5.57-2.8,5.55-6.48-.02-3.81,.16-6.98-5.83-6.88-5.44,.09-5.88,2.76-5.39,6.51Z"/>
      <path class="cls-3" d="M170.93,107.77c4.05,.45,8.75,.57,13.22,1.57,7.74,1.74,9.04,6.6,3.54,11.65-1.97,1.81-5.43,2.5-5.39,5.86,.07,5.57-.06,11.14,.28,16.69,.12,1.97,2.87,2.15,4.38,3.19,5.26,3.58,5.64,8.56-.02,11.2-4.57,2.12-4.85,4.95-4.72,8.65,.24,6.87-1.67,13.83,6.58,19,4.8,3.01,2.48,8.25-3.8,9.75-9.61,2.29-19.35,2.3-29.03,.17-2.82-.62-5.95-1.26-6.55-4.51-.59-3.19,1.19-5.49,3.77-7.49,4.01-3.1,7.84-20.08,3.99-22.49-10-6.26-10.62-10.79-.01-16.96,3.56-2.07,.16-19.32-3.45-22.07-2.76-2.1-4.95-4.42-4.32-7.94,.71-3.99,4.63-4.4,7.8-4.98,4.28-.79,8.73-.85,13.73-1.27Zm-6.45,20.86c0,3.11,.19,6.22-.05,9.31-.28,3.66,1.09,5.09,5.35,5.08,4.25-.01,6.25-.89,6.01-5.17-.33-5.97-.27-11.98-.01-17.96,.17-3.92-1.18-5.61-5.73-5.62-4.66,0-5.92,1.89-5.61,5.71,.23,2.87,.05,5.76,.05,8.65Zm0,46.97c0,3.35,.2,6.71-.05,10.04-.29,3.81,1.42,5.11,5.52,5.06,3.81-.05,6-.74,5.81-4.8-.26-5.79-.17-11.6-.02-17.4,.1-3.84,.26-6.74-5.89-6.67-5.89,.07-5.48,2.96-5.39,6.42,.06,2.45,.01,4.91,.02,7.36Zm.08-23.24c-.51,3.87-.25,6.91,5.68,6.84,5.45-.06,5.57-2.8,5.55-6.48-.02-3.81,.16-6.98-5.83-6.88-5.44,.09-5.88,2.76-5.39,6.51Z"/>
      <path class="cls-3" d="M170.22,420.2c-4.87-.34-9.8-.15-14.55-1.57-2.59-.77-5.41-1.3-6.15-4.11-.77-2.91,.45-5.71,3.17-6.95,7.05-3.22,5.11-8.92,5.22-14.03,.11-4.95,1.14-9.78-5.72-12.93-4.92-2.26-4.05-7.4,.56-9.76,4.77-2.43,5.48-5.53,5.26-9.81-.35-6.7,1.34-13.46-6.64-18.4-4.4-2.73-2.68-7.71,2.6-9.19,10.54-2.96,21.31-2.91,31.87-.13,5.96,1.57,7.38,6.68,2.26,10.14-9.72,6.57-4.72,15.4-5.58,23.3-.23,2.12,2.64,2.33,4.14,3.36,5.79,3.98,6.03,8.34-.15,11.6-3.67,1.94-4.45,4.14-4.31,7.52,.29,7.32-1.77,14.79,6.91,20.28,4,2.53,2.21,6.94-2.93,8.7-5.14,1.76-10.58,1.69-15.96,1.99Zm-5.73-20.94c0,3.33,.2,6.67-.05,9.98-.31,4.05,2.07,4.79,5.81,4.83,4.02,.05,5.68-1.31,5.53-5.09-.24-5.98-.21-11.98,0-17.96,.12-3.64-.51-5.63-5.44-5.7-5.24-.07-6.23,1.97-5.88,5.97,.23,2.65,.04,5.32,.05,7.98Zm0-47.01c0,3.35,.19,6.71-.05,10.04-.29,4.02,2.33,4.15,5.58,4.11,3.12-.04,5.87,.14,5.73-3.98-.22-6.24-.23-12.5,.03-18.74,.17-4.06-.81-6.11-5.99-6.05-5.07,.05-5.54,2.39-5.35,5.93,.16,2.89,.03,5.8,.04,8.7Zm11.09,23.41c.78-3.67,.11-6.65-5.6-6.64-5.28,.01-5.67,2.81-5.58,6.56,.09,3.73-.35,6.97,5.79,6.86,5.5-.09,5.91-2.67,5.38-6.79Z"/>
    </g>
  </g>
</svg>