<?xml version="1.0" encoding="UTF-8"?>
<svg id="Layer_1" data-name="Layer 1" xmlns="http://www.w3.org/2000/svg" viewBox="0 0 500 500">
  <defs>
    <style>
      .cls-1 {
        fill: #fff;
      }

      .cls-2 {
        fill: #831618;
      }

      .cls-3 {
        fill: #1b2251;
      }

      .cls-4 {
        fill: #0f592d;
      }
    </style>
  </defs>
  <g>
    <path d="M397.39,299.93c0-77.84,.02-155.7,0-233.54,0-10.31-3.95-18.92-11.49-25.92-7.18-6.67-15.82-9.34-25.47-9.32-20.07,.03-40.14,.03-60.21,.03-59.06,0-118.11-.02-177.16-.03-11.34,0-20.72,4.34-28.15,12.89-6.27,7.22-8.35,15.73-8.34,25.12,.08,59.52,.04,119.04,.04,178.55,0,49.66-.01,99.31,0,148.97,0,11.71-.06,23.43,.17,35.14,.17,8.21,3.52,15.25,9.04,21.3,8.08,8.86,18.27,11.9,30.02,11.88,72.97-.12,145.95-.03,218.92-.1,7.99-.01,16.05,.84,23.98-.63,17.04-3.17,28.65-17.63,28.66-35.57,.03-42.93-.01-85.85-.01-128.78Zm-2.43-51.84h-.05c0,59.4,0,118.79,0,178.2,0,5.01-.29,9.96-2.06,14.73-4.8,12.96-17.23,21.4-31.66,21.4-77.27,0-154.53-.02-231.79-.03-2.55,0-5.11,.06-7.66-.03-18.18-.65-31.86-14.28-32.59-32.44-.03-.93-.02-1.85-.02-2.78,0-119.38,.02-238.75-.03-358.13,0-9.73,2.62-18.27,9.62-25.26,6.96-6.93,15.36-10.01,25.14-10,56.96,.06,113.93,.03,170.89,.03,22.28,0,44.55-.09,66.82,.03,16.55,.09,29.64,10.91,32.75,26.74,.84,4.24,.62,8.55,.63,12.84,0,58.24,0,116.48,0,174.72Z"/>
    <path class="cls-1" d="M394.91,248.09h-.05c0,59.4,0,118.79,0,178.2,0,5.01-.29,9.96-2.06,14.73-4.8,12.96-17.23,21.4-31.66,21.4-77.27,0-154.53-.02-231.79-.03-2.55,0-5.11,.06-7.66-.03-18.18-.65-31.86-14.28-32.59-32.44-.03-.93-.02-1.85-.02-2.78,0-119.38,.02-238.75-.03-358.13,0-9.73,2.62-18.27,9.62-25.26,6.96-6.93,15.36-10.01,25.14-10,56.96,.06,113.93,.03,170.89,.03,22.28,0,44.55-.09,66.82,.03,16.55,.09,29.64,10.91,32.75,26.74,.84,4.24,.62,8.55,.63,12.84,0,58.24,0,116.48,0,174.72Z"/>
    <path class="cls-2" d="M146.24,91.33V49.97h-8.13l-24.81,42.49v5.94h25.84v18.12h7.1v-18.12h7.79v-7.06h-7.79Zm-7.1-22.22v22.22h-18.22v-.2l13.6-22.63c1.54-3.07,2.91-5.94,4.62-9.83h.26c-.17,3.48-.26,6.96-.26,10.44Z"/>
  </g>
  <g>
    <path d="M264.12,381.65c.17-.26,.24-.52,.38-.56,3.26-.93,8.9,1.53,9.24-3.25,.27-3.81-5.11-5.18-8.61-6.86-1.35-.65-3.32-.26-3.99-2.1,.12-.3,.15-.61,.27-.66,3.05-1.14,8.32,.23,8.43-4.21,.09-3.68-4.81-4.41-7.95-5.7-3.06-1.27-5.72-3.01-8.08-5.27,1.02-2.11,3.11-1,4.42-1.92,2.54-1.79,3.19-3.78,.6-5.95-1.72-1.45-3.64-2.67-5.49-3.97-2.72-1.92-5.67-3.56-.25-6.1,2.79-1.31,1.39-3.83,.3-5.87-2.48-4.65-6.85-7.6-10.29-11.37-2.3-2.53-4.64-5.03-7-7.59,2.39-2.29,4.21-.74,6.02-.12,1.46,.5,2.94,.73,3.96-.57,1.17-1.5-.09-2.77-.99-3.77-2.79-3.09-5.56-5.63-1.77-10.33,1.91-2.37-1.35-4.76-3.39-6.39-2.17-1.73-3.75-2.67-.44-5.31,4.43-3.53,1.78-7.14-1.66-9.52-3.86-2.67-8.22-4.61-12.3-6.98-1.18-.68-2.93-1.48-2.45-3.1,.54-1.83,2.37-1.06,3.74-.93,2.45,.23,4.89,.67,7.34,.73,1.75,.04,4.03,.72,4.99-1.33,1.03-2.2,.26-4.52-1.14-6.38-2.72-3.6-5.74-6.98-8.41-10.62-.95-1.3-3.23-2.9-1.29-4.71,1.64-1.53,2.9,.62,4.12,1.5,2.07,1.5,4.21,3.19,6.58,1.05,2.36-2.13,1.63-4.93,.48-7.43-2.77-6-7.57-10.35-14.02-15.17,5.7-.17,10.77,1.28,12.22-4.29,1.94-7.47-.6-14.13-4.7-20.3-.55-.83-1.47-1.43-2.22-2.12-.88-.81-2.28-1.56-1.6-2.96,.77-1.58,2.14-.53,3.2-.18,1.85,.6,3.65,1.04,5.04-.77,1.57-2.03,.56-3.98-.61-5.68-2.44-3.54-5.12-6.92-7.59-10.44-.74-1.06-2.26-2.33-.84-3.7,1.11-1.08,2.19,.27,3.25,.78,4.06,1.94,6.04,.54,5.69-3.97-.6-7.75-11.28-15.97-18.78-14.29-4.77,1.07-5.85,4.81-5.6,9,.28,4.76,1.86,9.21,3.73,13.59,.69,1.6,1.88,3.77,.08,5.11-1.7,1.26-2.87-.73-4.03-1.81-.73-.68-1.35-1.77-2.51-1.32-1.47,.58-.99,2.05-1.12,3.22-.29,2.59,.68,4.7,2.13,6.85,2.43,3.61,5.56,6.87,6.98,10.98-1.53,1-2.11,.41-2.77-.06-1.22-.88-2.22-2.98-4.06-1.3-1.4,1.28-.86,3.06-.25,4.62,1.05,2.68,2.24,5.3,3.24,7.99,.47,1.25,1.66,2.71,.21,3.93-1.05,.89-2.33,.06-3.48-.29-1.53-.47-3.25-1.57-4.48,.2-1.26,1.82-.25,3.75,.95,5.08,2.46,2.74,5.24,5.17,7.84,7.78,.83,.83,2.06,1.62,1.56,3.06-.5,1.47-1.91,1.23-3.11,1.36-7.6,.82-6.64,.8-6.46,8.28,.09,3.91,2.86,9.87-3.73,12.79-2.17,.96-1.36,4.18,.38,5.95,1.71,1.73,3.8,3.09,5.72,4.62,2.57,2.05,3.99,4.08-.47,5.45-3.84,1.18-3.12,3.64-2.01,6.33,2.13,5.14,3.92,10.39,4.83,15.88,.39,2.32,.86,4.73-.81,6.93-3.11-1.68-2.09-4.76-3.52-6.72-1.57-2.14-3.43-4.05-6.11-2.71-2.87,1.44-1.42,4.02-.36,5.87,1.83,3.19,4.1,6.13,6.12,9.22,1.96,3,2.26,5.45-2.36,5.81-3.65,.29-3.84,2.33-2.71,5.14,4.39,10.87,9.3,21.38,16.97,30.51,8.13,9.68,12.81,21.45,18.51,32.57,.46,.91,.73,1.99-.26,2.8-.99,.82-1.87,.23-2.77-.31-3.28-1.96-5.36-4.81-7.17-8.19-3.68-6.84-7.73-13.49-11.87-20.06-1.06-1.69-2.68-4.49-5.28-2.4-2.16,1.74-.14,3.87,.94,5.42,3.32,4.75,5,10.36,8.22,15.29,2.71,4.15,5.6,8,8.58,12.01,2.91,3.91,3.03,9.63,6.1,14.16,1.76,2.6-1.92,2.86-3.81,2.27-4.22-1.32-7.36-1.52-7.03,4.38,.07,1.34-1.04,2.15-2.42,2.33-1.8,.23-3.21-.46-4.28-1.87-1.74-2.3-2.23-5.19-1.53-7.64,2.65-9.26-1.86-17.03-5.35-24.66-3.76-8.21-6.05-16.74-6.48-25.43-.4-8.17-1.89-15.72-5.07-23.17-6.03-14.12-6.09-28.74-2.79-43.49,1.18-5.29,1.52-10.46,.56-15.86-1.33-7.5-1.62-14.8,1.57-22.32,2.29-5.38,1.32-11.78,.46-17.66-.89-6.05-.93-11.85,1.98-17.4,2-3.81,2.09-7.99,1.68-12.06-1.3-13.02,2.54-25.15,5.86-37.43,1.56-5.76,5.31-8.73,10.72-9.64,9.5-1.59,21.97,.96,25.21,14.7,3.57,15.11,1.66,30.26,1.61,45.38-.03,8-.76,15.94,.78,23.91,1.72,8.91,2.42,17.91,.2,26.9-.71,2.88-.35,5.71,1,8.39,7.88,15.6,10.68,32.24,9.5,49.5-.52,7.54,4.77,12.43,7.01,18.68,3.03,8.44,6.92,16.46,12.28,23.94,5.14,7.19,5.89,16.53,7.84,25.06,1.09,4.76,1.83,9.61,3.26,14.33,2.01,6.68-.16,9.34-7.07,8.75-2.24-.19-4.5-.53-6.66-1.15-2.15-.62-2.75-1.89-1.51-4.2,3.97-7.38,3.09-10.32-3.9-15.07-1.42-.96-3.63-1.14-3.83-3.4Z"/>
    <path class="cls-4" d="M310.72,224.18c.06,3.43,.57,6.54-.65,9.43-.74,1.75-1.85,3.55-3.76,3.71-2.38,.19-2.41-2.29-3.23-3.85-3.95-7.59-4.96-16.23-9.02-23.87-2.93-5.51-6.6-10.35-10.29-15.25-1.57-2.09-3.83-3.68-6.31-1.68-2.97,2.4-.38,4.43,1.16,6.14,3.9,4.34,7.4,8.65,6.97,15.11-.21,3.13,2.66,5.45,3.8,8.29,1.75,4.35,5.41,8.53,1.13,13.54-1.11,1.3-.29,3.16,.53,4.65,.89,1.62,1.84,3.21,2.63,4.87,2.06,4.32,.28,7.44-3.21,10.05-.95,.71-1.85,2.26-2.91,.68-2.07-3.06-5.88-5.6-3.7-10.26,2.45-5.23,3.04-10.14-2.44-14.08-.76-.54-1.59-1.78-1.49-2.6,.96-8.53-5.14-15.7-4.41-24.21,.72-8.37-4.53-14.65-8.36-21.35-.72-1.26-2.14-2.9-4.05-1.82-1.79,1.01-1.3,2.66-.73,4.33,1.71,5.04,3.37,10.09,4.83,15.2,.49,1.73,1.13,4.16,.33,5.39-4.08,6.27-.15,11.29,1.96,16.67,1.08,2.74,3.46,5.83-.54,8.04-4.03,2.23-5.16-1.66-7.7-3.54-6.26-4.67-2.73-10.35-3.55-15.71-1-6.49-.96-12.39,.66-18.54,.14-.54,.06-1.4-.28-1.79-7.82-8.87-3.34-20.47-6.76-30.35-1.66-4.8,1.37-5.3,5.03-3.74,1.93,.82,3.88,1.72,5.92,1.32,8.7-1.72,17.65-.86,25.97,.56,7.29,1.25,14.09,1.54,21.23,.6,1.3-.17,2.8,.59,4.1,1.17,3.08,1.37,8.25,.48,8.88,4.24,.58,3.47-4.17,5.52-6.28,8.44-2.4,3.32-5.73,.21-8.09-1.25-3.58-2.22-6.51-4.23-10.03,.16-2.22,2.77-4.09-.06-5.6-1.37-4.16-3.64-8.17-5.6-12.75-.66-1.82,1.97-4.11,1.32-6.34,.65-3.33-1.01-6.66-2.1-10.05-2.88-1.44-.33-3.49-.97-4.19,1.23-.64,2.01,1.01,3.25,2.45,3.74,6.99,2.37,12.97,8.3,21.32,6.1,1.07-.28,2.63-.08,3.53,.54,5.38,3.67,11.34,4.5,17.64,4.05,.8-.06,1.88-.08,2.39,.38,6.25,5.53,12.73,4.04,19.33,.82,1.56-.76,2.91-.08,3.74,1.2,2.57,4,6,3.01,9.16,1.37,5.3-2.75,9.35-1.25,13.17,2.76,2.08,2.18,4.5,4.03,7.11,6.35-5.45,2.97-10.94,5.63-11,13.26-.03,3.32-2.5,1.28-3.84,.22-4.67-3.67-9.02-7.76-14.66-10.05-2.51-1.02-4.56-1.15-5.22,1.9-1.12,5.19-3.4,3.17-5.74,1.09-7.19-6.39-15.66-10.44-24.68-13.42-1.77-.59-4.12-2.09-5.46,.51-1.3,2.52,1.13,3.68,2.65,4.84,2.11,1.6,4.28,3.54,6.73,4.17,3.25,.84,4.89,2.01,5.14,5.6,.36,5.12,5.01,5.25,8.63,6.4,3.04,.96,6.6,.34,6.66,5.84,.04,3.41,4.88,3.5,7.76,2.67,6.53-1.89,12.01-1.42,16.37,4.47,1.25,1.69,3.38,2.25,5.6,1.63,7.37-2.05,10.86,3.01,14.43,7.9,.93,1.28,1.24,2.53,.04,3.87-2.51,2.82-10.75,3.84-13.99,1.44-3.55-2.63-6.91-4.63-10.84-.67-1.11,1.12-2.68,1.46-3.83,.13-5.74-6.63-16.76-5.55-20.96-14.41-.1-.2-.74-.15-2.02-.36Z"/>
    <path class="cls-4" d="M189.8,162.3c-7.23,.91-14.78,.66-20.82,5.56-3.39,2.75-6.86,4.17-11.22,4.03-4.52-.15-8.46,.8-10.24,5.95-1.39,3.99-6.58,3.86-8.89,7.18-.61,.88-1.77,.28-2.22-.98-1.78-4.89,1.11-11.47,5.95-13.41,.57-.23,1.39-.25,1.7-.66,5.78-7.63,15.37-8.88,22.82-13.69,2.6-1.68,23.12-4.2,26.11-3.21,3.45,1.14,4.76,3.57,4.87,7,.22,6.79,.06,13.54-1.39,20.22-1.78,8.21-1.24,16.79-3.87,24.87-.69,2.12-1.26,4.54-3.97,4.99-1.32,.22-2.28-.74-2.87-1.9-1.25-2.47-1.02-5.08,.8-6.91,3.52-3.54,4.81-6.78,1.17-11.15-1.6-1.91-.31-4.37,1.26-6.13,1.85-2.08,2.39-4.28,1.01-6.75-.91-1.63-2.05-3.35-4.14-3.17-2.16,.19-2.56,2.08-3.22,3.93-2.95,8.2-1.71,17.24-5.27,25.31-.88,1.99,.32,4.02,.99,5.94,3.46,9.86,3.19,20.19-.25,29.47-1.9,5.12-3.05,8.87-1.94,14.36,1.03,5.07-3.66,9.26-6.66,13.35-1.18,1.6-3.05,.32-4.54-.28-1.89-.76-2.33-2.28-1.64-4.03,2.28-5.79,4.49-11.54,.26-17.43-.2-.28-.25-.91-.08-1.19,5.11-8.1,.88-18.68,7.34-26.57,3.7-4.52,1.72-10.26,1.51-15.51-.05-1.23-.51-2.65-1.95-2.79-1.83-.17-2.24,1.38-2.54,2.83-.92,4.41-1.63,8.87-2.82,13.2-1.13,4.13-2.33,8.33-5.79,11.35-1.54,1.34-1.68,3.23-1.52,5.12,.18,2.13,0,4.31-1.56,5.76-2.91,2.71-3.25,5.89-2.67,9.52,.44,2.72,.41,5.7-2.27,7.16-3.08,1.68-4.14-1.64-5.78-3.2-5.36-5.11-5.36-5.17,.67-10.73,1.33-1.22,2.45-2.36,1.25-4.14-3.5-5.22-.37-8.53,3.51-11.21,1.9-1.32,3.53-2.66,2.93-4.82-1.29-4.65,.14-8.36,1.97-12.66,1.64-3.87,1.99-7.37,7-8.73,4.05-1.11,2.52-5.6,1.57-7.92-1.17-2.86-3.94-.7-5.74,.38-3.67,2.21-5.78,5.84-7.33,9.63-1.43,3.5-1.41,7.6-5.76,9.51-1.57,.69-.82,3.01-.76,4.59,.18,4.86-.94,8.81-5.8,11.18-4.43,2.16-3.32,6.56-3.52,10.37-.19,3.61-.3,7-5.65,4.07-3.79-2.08-4.33,1.8-5.27,4.03-2.12,5.03-7.47,7.39-12.61,5.5-2.44-.9-1.96-2.8-2.01-4.57-.07-2.61,1.04-4.67,3.79-4.61,7.19,.17,9.28-3.8,8.86-10.15-.05-.81-.19-2.11,.23-2.38,7.57-4.87,4.72-17.81,15.66-20.12,2.02-.43,2.83-2.74,2.1-4.53-1.79-4.39,.7-5.73,4.08-7.21,5.31-2.32,8.7-6.3,7.84-12.49-.61-4.39,2.14-4.85,5.14-4.92,10.2-.21,18.08-5.36,25.09-11.99,2.17-2.06,5.07-2.05,7.11-4.23Z"/>
    <path class="cls-2" d="M233.49,410.62c11.93-1.19,23.6,.65,34.9,4.93,5.55,2.1,11.27,1.93,16.08-1.08,17.69-11.1,36.96-10.65,56.63-9.01,7.89,.66,15.54,1.44,22.12,6.3,1.47,1.09,2.98,2.25,4.08,3.68,1.49,1.95,1.47,4.38,.25,6.4-1.16,1.92-3.3,1.28-5.08,.92-8.44-1.71-16.88-3.41-25.29-5.27-16.35-3.61-32.69-2.9-47.52,4.51-11.82,5.9-22.15,6.18-34.38,1.54-18.49-7.01-37.45-5.93-55.86,1.67-6.06,2.5-12.3,4.56-17.97,7.99-2.47,1.49-5.83,2.92-7.76,.01-2.16-3.25,.69-5.62,3.2-7.59,13.14-10.31,28.31-14.54,44.75-14.97,3.9-.1,7.8-.02,11.85-.02Z"/>
    <path class="cls-2" d="M313.2,328.61c-9.16-.77-18.84,.49-28.43-1.03-1.56-.25-3.59,0-4-2.05-.32-1.6,1.25-2.54,2.37-3.29,2.62-1.76,3.57-4.12,3.9-7.2,1.74-16.33,10.07-30.28,16.7-44.81,2.34-5.12,7.42-7.57,12.22-9.85,3.57-1.69,6.53,.71,8.61,3.18,3.81,4.53,7.89,9.1,10.45,14.34,3.79,7.75,9.6,14.24,12.87,22.24,1.48,3.62,3.63,7,6.92,9.25,3.86,2.65,4.69,7.16,6.65,10.82,1.82,3.41-2.13,3.93-4.6,4.77-14.11,4.79-28.69,3.74-43.65,3.63Zm-1.52-53.24c-1.62,1.19-3.29,.53-4.88,.62-1.47,.08-3.2,.16-3.13,2.05,.05,1.6,1.75,1.35,2.92,1.5,.61,.08,1.23,.1,1.83,.2,2.07,.33,4.52,.7,4.45,3.3-.08,3.01-2.8,3.12-5.06,3.24-2.04,.11-4.09-.04-6.14-.08-2.42-.05-3.19,1.65-3.43,3.55-.33,2.58,1.8,2.23,3.33,2.37,1.43,.13,2.87,.07,4.3,.12,2.93,.09,5.42,.79,5.32,4.43-.1,3.47-2.64,3.61-5.24,3.66-2.87,.05-5.74,.13-8.6,.31-1.74,.11-3.44,.73-3.27,2.85,.15,2,1.98,1.7,3.35,1.75,2.46,.1,4.92,.09,7.38,.14,2.35,.06,4.92,.33,5.04,3.26,.13,3.12-2.47,3.22-4.83,3.25-2.87,.03-5.74,.07-8.61,.21-1.55,.08-3.64-.21-3.56,2.25,.06,1.82,1.76,2.11,3.16,2.29,17.06,2.29,34.18,3.76,51.41,2.52,4.11-.29,4.21-1.94,2.57-5.69-4.37-10.01-10.42-19.09-16.48-27.94-4.73-6.91-8.58-16.37-19.69-16.42-2.38-.01-4.71-.44-5.72,2.19-1.33,3.44,3.3,1.4,3.57,4.07Z"/>
    <path class="cls-3" d="M140.51,341.61c-19.48-.39-21.05-2.33-17.72-18.97,1.93-9.61,2.58-19.54,7.87-28.27,2.17-3.58,4.66-6.66,7.92-9.27,4.73-3.77,9.62-4.24,14.82-1.26,7.18,4.12,11.88,10.74,16.25,17.37,5.87,8.92,9.27,19.11,13.14,29.01,1.05,2.68-.54,4.35-2.95,5.17-3.1,1.05-6.22,2.34-9.43,2.76-10.75,1.42-21.55,2.51-29.9,3.44Zm-9.05-25.27c1.6,2.96,4.5,2.46,7.03,2.81,3.32,.46,4.83,1.75,4.63,5.65-.3,5.73-3.15,6.42-7.73,5.37-1.77-.4-4.46-1.1-4.98,.75-.76,2.73,2.66,2.29,4.13,3.4,.45,.34,1.19,.56,1.74,.48,10.72-1.51,21.68-1.31,32.14-4.64,4.11-1.31,5.47-4.1,2.85-7.43-4.05-5.14-3.32-13.36-10.65-16.35-.48-.2-.6-1.43-.77-2.21-1.9-8.65-6.7-12.92-15.43-13.75-1.62-.15-3.59-.84-4.36,1.05-.88,2.16,1.25,2.65,2.68,3.31,2.11,.98,4.3,2,3.7,4.86-.55,2.61-3.31,1.93-4.94,2.94-2.47,1.53-6.97-2.51-7.34,1.28-.34,3.42,4.73,1.45,7.07,2.86,2.24,1.35,5.26,1.96,4.13,5.69-1.09,3.63-3.91,3.03-6.54,2.54-2.64-.49-5.21-1.13-7.36,1.39Z"/>
    <path class="cls-4" d="M324.22,355.55c7.3,5.47,6.75,13.79,8.64,21.42,.92-6.13,.96-12.32,2.78-18.18,1.04-3.35,.8-9.27,4.55-9,3.98,.29,2.68,6.08,3.09,9.5,.85,7.11,.61,7.12,6.99,4.11,1.29-.61,2.63-1.2,4.02-1.53,2.1-.5,4.23-.28,5.59,1.56,1.51,2.04-.37,3.43-1.45,4.79-3.19,4.01-6.53,7.89-9.7,11.91-1.61,2.03-3.93,4.12-2.05,7.04,1.78,2.77,4.36,1.27,6.69,.74,2-.45,3.98-.97,5.99-1.36,2.09-.4,4.12-.47,5.32,1.84,1.09,2.1,.59,3.99-.78,5.71-4.08,5.11-9.82,7.74-15.91,8.53-7.47,.96-13.99-3.69-21.07-5.41-1.72-.42-2.34-2.82-2.31-4.73,.16-12.27,.33-24.54-.39-36.96Z"/>
    <path class="cls-3" d="M312.9,146.36c4.4-4.62,8.4-8.81,13.36-14-6.63,1.07-12.12,5.65-17.43,.47,.25-.54,.33-1.11,.59-1.2q10.03-3.8,10.5-14.46c.21-4.5,.63-8.99,.88-13.48,.09-1.6,.64-2.91,2.25-3.25,1.63-.34,3.29,.61,3.05,2.16-1.05,6.87,3.14,5.47,7.03,4.74,1.59-.3,3.2-.52,4.94,1.23-2.72,3.07-6.39,2.5-9.57,3.18-1.6,.34-3.64,.47-3.33,2.73,.33,2.43,2.5,1.43,3.98,1.55,2.95,.25,7.7-3.19,8.31,1.37,.38,2.9-5.28,2.1-8.2,3.01-1.71,.53-3.87,.11-4.22,2.62-.17,1.21-.29,2.62,.85,3.41,1.97,1.39,3.92,.56,5.76-.46,2.74-1.52,4.78-4.57,8.78-3.18,1.57,.54,1.63-1.42,1.61-2.59-.11-5.54-.29-11.08-.42-16.62-.08-3.22-1.65-3.57-4.46-2.83-2.79,.74-5.85,2.05-9.51-1.58,6.73-1.12,12.53-2.67,18.38-2.86,3.92-.13,6.73,2.9,7,7.2,.61,9.91,.07,19.8-3.43,29.14-1.27,3.37-.64,4.61,2.15,6.24,3.85,2.24,9.57,5.37,5.82,10.08-3.52,4.42-7.98-.31-11.41-3.16-4.25-3.54-8.08-8.88-12.92-10.08-4.93-1.22-8.09,5.91-12.9,8.02-2.14,.94-3.81,3.12-7.41,2.58Z"/>
    <path class="cls-3" d="M327.93,87.7c-1.3-.07-2.01-.33-2.44-.09-6.08,3.39-8.14,2.38-9.54-4.77-.2-1-.53-2.07-.38-3.04,.52-3.35-3.26-6.38-1.35-9.43,2.68-4.28,5.72,1.03,8.75,.37,2.78-.61,5.81-.4,5.94-4.64,.15-4.84,3.03-4.54,6.33-2.83,1.87,.96,3.17,2.51,4.51,4.1,1.74,2.05,4.14,3.06,6.51,1.41,2.52-1.75,4.66-.87,6.93,.1,5.86,2.51,6.46,5.47,1.5,9.29-3.69,2.84-7.36,5.94-12.27,6.66-1.47,.22-3.07,.68-2.95,2.49,.16,2.39,2.23,1.94,3.78,1.97,6.77,.13,13.54,.19,20.26-.85,1.61-.25,3.3-.72,4.86-.47,2.62,.42,6.02,1.22,5.7,4.41-.38,3.67-3.71,2.08-5.94,1.71-10.43-1.72-20.79-.28-31.22,.21-14.28,.66-27.97,2.97-41.16,8.6-3.15,1.35-5.79-1.34-7.87-3.69-1.28-1.45-.54-2.86,.95-3.46,1.87-.75,4.03-1.76,5.86-1.44,8.49,1.46,16.74-1.14,25.12-1.06,3.51,.03,6.26-1.59,8.12-5.55Zm17.89-12.8c.02-1.91-.95-2.16-2.4-2-2.63,.28-3.25,2.29-3.64,4.3-.33,1.75,1.08,1.96,2.37,1.79,2.45-.33,3.22-2.22,3.68-4.09Z"/>
    <path class="cls-4" d="M189.42,393.28c-1.25-5.72-5.71-8.73-7.77-14.68,9.84,5.41,18.55,10.16,25.14,17.81,3.79,4.4,1.79,10.28-3.63,12.04-1.56,.51-3.3,.71-4.66,1.55-10.06,6.18-18.71,3.36-26.78-3.91-.88-.8-2.48-1.17-2.18-2.65,.39-1.92,2.22-1.39,3.55-1.53,1.22-.12,2.47,0,3.69-.11,3.15-.29,3.61-1.66,1.35-3.82-2.37-2.26-5.03-4.26-7.24-6.67-1.82-1.99-3.49-4.71-1.19-7.12,1.94-2.03,4.18-.06,6.07,1.07,4.26,2.56,7.99,6.07,13.64,8.02Z"/>
    <path class="cls-4" d="M299.27,385.24c5.64,1.96,9.19-.31,12.9-1.07,2.87-.59,4.52,.25,2.98,2.95-3.35,5.91-7.25,11.47-14.15,13.89-3.27,1.15-5.41,.37-6.91-2.93-3.56-7.82-4.94-16.03-5.01-24.53-.02-2.44,.89-4.56,3-5.72,4.49-2.47,9.17-4.62,12.69-8.52,.61-.67,1.52-.99,2.1-.3,.43,.51,.61,1.6,.38,2.24-1.21,3.35-3.28,6.1-6.22,8.19-.93,.66-2.49,1.28-1.62,2.78,.72,1.24,2.17,.91,3.34,.51,1.94-.66,3.82-1.52,5.79-2.09,1.58-.45,3.45-2.79,4.81-.42,1.23,2.14-1.44,3.07-2.62,4.25-3.44,3.43-7.06,6.68-11.45,10.78Z"/>
    <path class="cls-4" d="M160.65,373.84c-7.62-.79-15.96,.99-24.36,.98-2.97,0-6.78,.62-7.56-3.45-.83-4.3,3.1-4.66,5.9-5.6,11.1-3.73,22.69-3.01,34.12-3.49,3.71-.16,7.12,1.82,10.17,3.98,1.48,1.05,3.32,2.22,2.68,4.39-.64,2.16-2.46,3.18-4.75,3.19-5.13,.01-10.25,0-16.2,0Z"/>
    <path class="cls-4" d="M155.86,347.71c4.5,0,9,.01,13.51,0,3.17,0,5.92,1.02,6.43,4.4,.49,3.23-1.95,4.84-4.76,5.39-12.57,2.48-25.23,1.8-37.87,.8-2.14-.17-4.92-1.19-5.12-3.71-.23-2.77,2.38-4.09,4.69-4.93,7.51-2.75,15.41-1.27,23.12-1.95Z"/>
    <path class="cls-4" d="M143.25,408.04c-3.32,.29-6.51-.45-9.66-1.31-2.15-.59-3.55-1.99-3.48-4.4,.07-2.42,1.58-3.75,3.74-4.2,5.24-1.1,10.51-1.34,15.75,.02,2.5,.65,4.75,1.74,4.62,4.8-.12,2.99-2.43,4.15-4.9,4.66-1.97,.41-4.05,.31-6.08,.43Z"/>
    <path class="cls-4" d="M145.03,391.6c-2.05,0-4.12,.15-6.16-.04-1.89-.18-4.5,.53-4.94-2.4-.35-2.35,1.42-3.7,3.13-4.91,4.26-3.03,15.68-3.17,20.19-.47,3.32,1.99,2.2,3.85,.14,5.8-2.18,2.07-4.38,2.43-12.38,2.02Z"/>
    <path class="cls-4" d="M148.66,414.4c2.5-.56,4.84,1.38,5.45,4.71,.66,3.55-2.93,3.21-4.95,4.07-4.47,1.9-8.78-.01-13.11-.88-1.22-.25-2.42-.75-2.45-2.26-.02-1.34,.86-2.22,1.98-2.83,3.68-2.03,7.84-1.88,13.08-2.81Z"/>
    <path class="cls-2" d="M338.97,309.4c2.82,.42,3.6,2.72,3.98,5.14,.28,1.79-1,2.59-2.6,2.4-2.67-.33-3.53-2.4-3.8-4.7-.18-1.53,.39-2.78,2.42-2.84Z"/>
    <path class="cls-2" d="M328.89,294.86c2.41,.73,3.1,2.83,3.41,5.04,.19,1.39-.58,2.42-2.13,1.95-2.34-.7-3.66-2.46-3.78-4.85-.07-1.35,.96-2.11,2.5-2.14Z"/>
    <path class="cls-2" d="M317.8,281.3c2.41,.73,3.1,2.83,3.41,5.04,.19,1.39-.58,2.42-2.13,1.95-2.34-.7-3.66-2.46-3.78-4.85-.07-1.35,.96-2.11,2.5-2.14Z"/>
    <path class="cls-2" d="M315.33,302.26c2.41,.73,3.1,2.83,3.41,5.04,.19,1.39-.58,2.42-2.13,1.95-2.34-.7-3.66-2.46-3.78-4.85-.07-1.35,.96-2.11,2.5-2.14Z"/>
  </g>
</svg>